<?xml version="1.0" encoding="UTF-8" standalone="no"?>
<!DOCTYPE svg PUBLIC "-//W3C//DTD SVG 1.1//EN"
 "http://www.w3.org/Graphics/SVG/1.1/DTD/svg11.dtd">
<!-- Generated by graphviz version 2.43.0 (0)
 -->
<!-- Title: BtBookshelfRemoveFinalPage Pages: 1 -->
<svg width="183pt" height="317pt"
 viewBox="0.00 0.00 183.00 317.00" xmlns="http://www.w3.org/2000/svg" xmlns:xlink="http://www.w3.org/1999/xlink">
<g id="graph0" class="graph" transform="scale(1 1) rotate(0) translate(4 313)">
<title>BtBookshelfRemoveFinalPage</title>
<!-- Node1 -->
<g id="Node000001" class="node">
<title>Node1</title>
<g id="a_Node000001"><a xlink:title=" ">
<polygon fill="#999999" stroke="transparent" points="175,-124 0,-124 0,0 175,0 175,-124"/>
<text text-anchor="start" x="14.5" y="-112" font-family="Helvetica,sans-Serif" font-size="10.00">BtBookshelfRemoveFinalPage</text>
<text text-anchor="start" x="7" y="-97" font-family="Helvetica,sans-Serif" font-size="10.00">&#45;</text>
<text text-anchor="start" x="17.5" y="-97" font-family="Helvetica,sans-Serif" font-size="10.00">m_msgLabel</text>
<text text-anchor="start" x="7" y="-82" font-family="Helvetica,sans-Serif" font-size="10.00">&#45;</text>
<text text-anchor="start" x="17.5" y="-82" font-family="Helvetica,sans-Serif" font-size="10.00">m_verticalLayout</text>
<text text-anchor="start" x="4.5" y="-67" font-family="Helvetica,sans-Serif" font-size="10.00">+</text>
<text text-anchor="start" x="17.5" y="-67" font-family="Helvetica,sans-Serif" font-size="10.00">BtBookshelfRemoveFinalPage()</text>
<text text-anchor="start" x="4.5" y="-52" font-family="Helvetica,sans-Serif" font-size="10.00">+</text>
<text text-anchor="start" x="17.5" y="-52" font-family="Helvetica,sans-Serif" font-size="10.00">initializePage()</text>
<text text-anchor="start" x="4.5" y="-37" font-family="Helvetica,sans-Serif" font-size="10.00">+</text>
<text text-anchor="start" x="17.5" y="-37" font-family="Helvetica,sans-Serif" font-size="10.00">isComplete()</text>
<text text-anchor="start" x="4.5" y="-22" font-family="Helvetica,sans-Serif" font-size="10.00">+</text>
<text text-anchor="start" x="17.5" y="-22" font-family="Helvetica,sans-Serif" font-size="10.00">nextId()</text>
<text text-anchor="start" x="7" y="-7" font-family="Helvetica,sans-Serif" font-size="10.00">&#45;</text>
<text text-anchor="start" x="17.5" y="-7" font-family="Helvetica,sans-Serif" font-size="10.00">retranslateUi()</text>
<polygon fill="#666666" stroke="#666666" points="0.5,-107 0.5,-107 175.5,-107 175.5,-107 0.5,-107"/>
<polygon fill="#666666" stroke="#666666" points="0.5,-77 0.5,-77 15.5,-77 15.5,-77 0.5,-77"/>
<polygon fill="#666666" stroke="#666666" points="15.5,-77 15.5,-77 175.5,-77 175.5,-77 15.5,-77"/>
<polygon fill="none" stroke="#666666" points="0,0 0,-124 175,-124 175,0 0,0"/>
</a>
</g>
</g>
<!-- Node2 -->
<g id="Node000002" class="node">
<title>Node2</title>
<g id="a_Node000002"><a xlink:href="../../da/dee/classBtBookshelfWizardPage.html" target="_top" xlink:title=" ">
<polygon fill="white" stroke="transparent" points="160,-224 15,-224 15,-160 160,-160 160,-224"/>
<text text-anchor="start" x="29.5" y="-212" font-family="Helvetica,sans-Serif" font-size="10.00">BtBookshelfWizardPage</text>
<text text-anchor="start" x="86" y="-197" font-family="Helvetica,sans-Serif" font-size="10.00"> </text>
<text text-anchor="start" x="19.5" y="-182" font-family="Helvetica,sans-Serif" font-size="10.00">+</text>
<text text-anchor="start" x="32.5" y="-182" font-family="Helvetica,sans-Serif" font-size="10.00">BtBookshelfWizardPage()</text>
<text text-anchor="start" x="19.5" y="-167" font-family="Helvetica,sans-Serif" font-size="10.00">+</text>
<text text-anchor="start" x="32.5" y="-167" font-family="Helvetica,sans-Serif" font-size="10.00">btWizard()</text>
<polygon fill="#666666" stroke="#666666" points="15.5,-207 15.5,-207 160.5,-207 160.5,-207 15.5,-207"/>
<polygon fill="#666666" stroke="#666666" points="15.5,-192 15.5,-192 160.5,-192 160.5,-192 15.5,-192"/>
<polygon fill="none" stroke="#666666" points="15,-160 15,-224 160,-224 160,-160 15,-160"/>
</a>
</g>
</g>
<!-- Node2&#45;&gt;Node1 -->
<g id="edge1_Node000001_Node000002" class="edge">
<title>Node2&#45;&gt;Node1</title>
<g id="a_edge1_Node000001_Node000002"><a xlink:title=" ">
<path fill="none" stroke="#63b8ff" d="M87.5,-149.66C87.5,-141.47 87.5,-132.71 87.5,-124.02"/>
<polygon fill="none" stroke="#63b8ff" points="84,-149.69 87.5,-159.69 91,-149.69 84,-149.69"/>
</a>
</g>
</g>
<!-- Node3 -->
<g id="Node000003" class="node">
<title>Node3</title>
<g id="a_Node000003"><a xlink:href="../../dc/d67/classQWizardPage.html" target="_top" xlink:title=" ">
<polygon fill="white" stroke="transparent" points="125,-309 50,-309 50,-260 125,-260 125,-309"/>
<text text-anchor="start" x="55.5" y="-296.5" font-family="Helvetica,sans-Serif" font-size="10.00">QWizardPage</text>
<text text-anchor="start" x="86" y="-281.5" font-family="Helvetica,sans-Serif" font-size="10.00"> </text>
<text text-anchor="start" x="86" y="-266.5" font-family="Helvetica,sans-Serif" font-size="10.00"> </text>
<polygon fill="#666666" stroke="#666666" points="50.5,-291.5 50.5,-291.5 125.5,-291.5 125.5,-291.5 50.5,-291.5"/>
<polygon fill="#666666" stroke="#666666" points="50.5,-276.5 50.5,-276.5 125.5,-276.5 125.5,-276.5 50.5,-276.5"/>
<polygon fill="none" stroke="#666666" points="50,-260 50,-309 125,-309 125,-260 50,-260"/>
</a>
</g>
</g>
<!-- Node3&#45;&gt;Node2 -->
<g id="edge2_Node000002_Node000003" class="edge">
<title>Node3&#45;&gt;Node2</title>
<g id="a_edge2_Node000002_Node000003"><a xlink:title=" ">
<path fill="none" stroke="#63b8ff" d="M87.5,-249.54C87.5,-241.2 87.5,-232.31 87.5,-224.11"/>
<polygon fill="none" stroke="#63b8ff" points="84,-249.72 87.5,-259.72 91,-249.72 84,-249.72"/>
</a>
</g>
</g>
</g>
</svg>
