<?xml version="1.0" encoding="UTF-8" standalone="no"?>
<!DOCTYPE svg PUBLIC "-//W3C//DTD SVG 1.1//EN"
 "http://www.w3.org/Graphics/SVG/1.1/DTD/svg11.dtd">
<!-- Generated by graphviz version 2.43.0 (0)
 -->
<!-- Title: CSwordKey Pages: 1 -->
<!--zoomable 588 -->

<svg id="main" version="1.1" xmlns="http://www.w3.org/2000/svg" xmlns:xlink="http://www.w3.org/1999/xlink" xml:space="preserve" onload="init(evt)">
<style type="text/css"><![CDATA[
.node, .edge {opacity: 0.7;}
.node.selected, .edge.selected {opacity: 1;}
.edge:hover path { stroke: red; }
.edge:hover polygon { stroke: red; fill: red; }
]]></style>

<defs>
  <circle id="rim" cx="0" cy="0" r="7"/>
  <circle id="rim2" cx="0" cy="0" r="3.5"/>
  <g id="zoomPlus">
    <use xlink:href="#rim" fill="#404040"><set attributeName="fill" to="#808080" begin="zoomplus.mouseover" end="zoomplus.mouseout"/></use>
    <path d="M-4,0h8M0,-4v8" fill="none" stroke="white" stroke-width="1.5" pointer-events="none"/>
  </g>
  <g id="zoomMin">
    <use xlink:href="#rim" fill="#404040"><set attributeName="fill" to="#808080" begin="zoomminus.mouseover" end="zoomminus.mouseout"/></use>
    <path d="M-4,0h8" fill="none" stroke="white" stroke-width="1.5" pointer-events="none"/>
  </g>
  <g id="arrowUp" transform="translate(30 24)">
    <use xlink:href="#rim"/>
    <path pointer-events="none" fill="none" stroke="white" stroke-width="1.5" d="M0,-3.0v7 M-2.5,-0.5L0,-3.0L2.5,-0.5"/>
  </g>
  <g id="arrowRight" transform="rotate(90) translate(36 -43)">
    <use xlink:href="#rim"/>
    <path pointer-events="none" fill="none" stroke="white" stroke-width="1.5" d="M0,-3.0v7 M-2.5,-0.5L0,-3.0L2.5,-0.5"/>
  </g>
  <g id="arrowDown" transform="rotate(180) translate(-30 -48)">
    <use xlink:href="#rim"/>
    <path pointer-events="none" fill="none" stroke="white" stroke-width="1.5" d="M0,-3.0v7 M-2.5,-0.5L0,-3.0L2.5,-0.5"/>
  </g>
  <g id="arrowLeft" transform="rotate(270) translate(-36 17)">
    <use xlink:href="#rim"/>
    <path pointer-events="none" fill="none" stroke="white" stroke-width="1.5" d="M0,-3.0v7 M-2.5,-0.5L0,-3.0L2.5,-0.5"/>
  </g>
  <g id="resetDef">
    <use xlink:href="#rim2" fill="#404040"><set attributeName="fill" to="#808080" begin="reset.mouseover" end="reset.mouseout"/></use>
  </g>
</defs>
<script type="application/ecmascript">
var viewWidth = 451;
var viewHeight = 588;
var sectionId = 'dynsection-0';
</script>
<script type="application/ecmascript" xlink:href="../../svg.min.js"/>
<svg id="graph" class="graph">
<g id="viewport">
<title>CSwordKey</title>
<!-- Node1 -->
<g id="Node000001" class="node">
<title>Node1</title>
<g id="a_Node000001"><a xlink:title=" ">
<polygon fill="#999999" stroke="transparent" points="241.5,-580 139.5,-580 139.5,-276 241.5,-276 241.5,-580"/>
<text text-anchor="start" x="163" y="-568" font-family="Helvetica,sans-Serif" font-size="10.00">CSwordKey</text>
<text text-anchor="start" x="143.5" y="-553" font-family="Helvetica,sans-Serif" font-size="10.00">#</text>
<text text-anchor="start" x="156.5" y="-553" font-family="Helvetica,sans-Serif" font-size="10.00">m_module</text>
<text text-anchor="start" x="143.5" y="-538" font-family="Helvetica,sans-Serif" font-size="10.00">#</text>
<text text-anchor="start" x="156.5" y="-538" font-family="Helvetica,sans-Serif" font-size="10.00">m_valid</text>
<text text-anchor="start" x="143.5" y="-523" font-family="Helvetica,sans-Serif" font-size="10.00">+</text>
<text text-anchor="start" x="156.5" y="-523" font-family="Helvetica,sans-Serif" font-size="10.00">asSwordKey()</text>
<text text-anchor="start" x="143.5" y="-508" font-family="Helvetica,sans-Serif" font-size="10.00">+</text>
<text text-anchor="start" x="156.5" y="-508" font-family="Helvetica,sans-Serif" font-size="10.00">copy()</text>
<text text-anchor="start" x="143.5" y="-493" font-family="Helvetica,sans-Serif" font-size="10.00">+</text>
<text text-anchor="start" x="156.5" y="-493" font-family="Helvetica,sans-Serif" font-size="10.00">isValid()</text>
<text text-anchor="start" x="143.5" y="-478" font-family="Helvetica,sans-Serif" font-size="10.00">+</text>
<text text-anchor="start" x="156.5" y="-478" font-family="Helvetica,sans-Serif" font-size="10.00">key()</text>
<text text-anchor="start" x="143.5" y="-463" font-family="Helvetica,sans-Serif" font-size="10.00">+</text>
<text text-anchor="start" x="156.5" y="-463" font-family="Helvetica,sans-Serif" font-size="10.00">module()</text>
<text text-anchor="start" x="143.5" y="-448" font-family="Helvetica,sans-Serif" font-size="10.00">+</text>
<text text-anchor="start" x="156.5" y="-448" font-family="Helvetica,sans-Serif" font-size="10.00">normalizedKey()</text>
<text text-anchor="start" x="143.5" y="-433" font-family="Helvetica,sans-Serif" font-size="10.00">+</text>
<text text-anchor="start" x="156.5" y="-433" font-family="Helvetica,sans-Serif" font-size="10.00">operator=()</text>
<text text-anchor="start" x="143.5" y="-418" font-family="Helvetica,sans-Serif" font-size="10.00">+</text>
<text text-anchor="start" x="156.5" y="-418" font-family="Helvetica,sans-Serif" font-size="10.00">rawText()</text>
<text text-anchor="start" x="143.5" y="-403" font-family="Helvetica,sans-Serif" font-size="10.00">+</text>
<text text-anchor="start" x="156.5" y="-403" font-family="Helvetica,sans-Serif" font-size="10.00">renderedText()</text>
<text text-anchor="start" x="143.5" y="-388" font-family="Helvetica,sans-Serif" font-size="10.00">+</text>
<text text-anchor="start" x="156.5" y="-388" font-family="Helvetica,sans-Serif" font-size="10.00">setKey()</text>
<text text-anchor="start" x="143.5" y="-373" font-family="Helvetica,sans-Serif" font-size="10.00">+</text>
<text text-anchor="start" x="156.5" y="-373" font-family="Helvetica,sans-Serif" font-size="10.00">setKey()</text>
<text text-anchor="start" x="143.5" y="-358" font-family="Helvetica,sans-Serif" font-size="10.00">+</text>
<text text-anchor="start" x="156.5" y="-358" font-family="Helvetica,sans-Serif" font-size="10.00">setModule()</text>
<text text-anchor="start" x="143.5" y="-343" font-family="Helvetica,sans-Serif" font-size="10.00">+</text>
<text text-anchor="start" x="156.5" y="-343" font-family="Helvetica,sans-Serif" font-size="10.00">strippedText()</text>
<text text-anchor="start" x="143.5" y="-328" font-family="Helvetica,sans-Serif" font-size="10.00">+</text>
<text text-anchor="start" x="156.5" y="-328" font-family="Helvetica,sans-Serif" font-size="10.00">~CSwordKey()</text>
<text text-anchor="start" x="143.5" y="-313" font-family="Helvetica,sans-Serif" font-size="10.00">#</text>
<text text-anchor="start" x="156.5" y="-313" font-family="Helvetica,sans-Serif" font-size="10.00">CSwordKey()</text>
<text text-anchor="start" x="143.5" y="-298" font-family="Helvetica,sans-Serif" font-size="10.00">#</text>
<text text-anchor="start" x="156.5" y="-298" font-family="Helvetica,sans-Serif" font-size="10.00">CSwordKey()</text>
<text text-anchor="start" x="143.5" y="-283" font-family="Helvetica,sans-Serif" font-size="10.00">#</text>
<text text-anchor="start" x="156.5" y="-283" font-family="Helvetica,sans-Serif" font-size="10.00">rawKey()</text>
<polygon fill="#666666" stroke="#666666" points="139.5,-563 139.5,-563 241.5,-563 241.5,-563 139.5,-563"/>
<polygon fill="#666666" stroke="#666666" points="139.5,-533 139.5,-533 154.5,-533 154.5,-533 139.5,-533"/>
<polygon fill="#666666" stroke="#666666" points="154.5,-533 154.5,-533 241.5,-533 241.5,-533 154.5,-533"/>
<polygon fill="none" stroke="#666666" points="139.5,-276 139.5,-580 241.5,-580 241.5,-276 139.5,-276"/>
</a>
</g>
</g>
<!-- Node2 -->
<g id="Node000002" class="node">
<title>Node2</title>
<g id="a_Node000002"><a xlink:href="../../de/d61/classCSwordLDKey.html" target="_top" xlink:title=" ">
<polygon fill="white" stroke="transparent" points="97,-234.5 0,-234.5 0,-5.5 97,-5.5 97,-234.5"/>
<text text-anchor="start" x="15" y="-222" font-family="Helvetica,sans-Serif" font-size="10.00">CSwordLDKey</text>
<text text-anchor="start" x="7" y="-207" font-family="Helvetica,sans-Serif" font-size="10.00">&#45;</text>
<text text-anchor="start" x="17.5" y="-207" font-family="Helvetica,sans-Serif" font-size="10.00">m_key</text>
<text text-anchor="start" x="4.5" y="-192" font-family="Helvetica,sans-Serif" font-size="10.00">+</text>
<text text-anchor="start" x="17.5" y="-192" font-family="Helvetica,sans-Serif" font-size="10.00">asSwordKey()</text>
<text text-anchor="start" x="4.5" y="-177" font-family="Helvetica,sans-Serif" font-size="10.00">+</text>
<text text-anchor="start" x="17.5" y="-177" font-family="Helvetica,sans-Serif" font-size="10.00">copy()</text>
<text text-anchor="start" x="4.5" y="-162" font-family="Helvetica,sans-Serif" font-size="10.00">+</text>
<text text-anchor="start" x="17.5" y="-162" font-family="Helvetica,sans-Serif" font-size="10.00">CSwordLDKey()</text>
<text text-anchor="start" x="4.5" y="-147" font-family="Helvetica,sans-Serif" font-size="10.00">+</text>
<text text-anchor="start" x="17.5" y="-147" font-family="Helvetica,sans-Serif" font-size="10.00">CSwordLDKey()</text>
<text text-anchor="start" x="4.5" y="-132" font-family="Helvetica,sans-Serif" font-size="10.00">+</text>
<text text-anchor="start" x="17.5" y="-132" font-family="Helvetica,sans-Serif" font-size="10.00">CSwordLDKey()</text>
<text text-anchor="start" x="4.5" y="-117" font-family="Helvetica,sans-Serif" font-size="10.00">+</text>
<text text-anchor="start" x="17.5" y="-117" font-family="Helvetica,sans-Serif" font-size="10.00">key()</text>
<text text-anchor="start" x="4.5" y="-102" font-family="Helvetica,sans-Serif" font-size="10.00">+</text>
<text text-anchor="start" x="17.5" y="-102" font-family="Helvetica,sans-Serif" font-size="10.00">NextEntry()</text>
<text text-anchor="start" x="4.5" y="-87" font-family="Helvetica,sans-Serif" font-size="10.00">+</text>
<text text-anchor="start" x="17.5" y="-87" font-family="Helvetica,sans-Serif" font-size="10.00">operator=()</text>
<text text-anchor="start" x="4.5" y="-72" font-family="Helvetica,sans-Serif" font-size="10.00">+</text>
<text text-anchor="start" x="17.5" y="-72" font-family="Helvetica,sans-Serif" font-size="10.00">PreviousEntry()</text>
<text text-anchor="start" x="4.5" y="-57" font-family="Helvetica,sans-Serif" font-size="10.00">+</text>
<text text-anchor="start" x="17.5" y="-57" font-family="Helvetica,sans-Serif" font-size="10.00">setKey()</text>
<text text-anchor="start" x="4.5" y="-42" font-family="Helvetica,sans-Serif" font-size="10.00">+</text>
<text text-anchor="start" x="17.5" y="-42" font-family="Helvetica,sans-Serif" font-size="10.00">setKey()</text>
<text text-anchor="start" x="4.5" y="-27" font-family="Helvetica,sans-Serif" font-size="10.00">+</text>
<text text-anchor="start" x="17.5" y="-27" font-family="Helvetica,sans-Serif" font-size="10.00">setModule()</text>
<text text-anchor="start" x="4.5" y="-12" font-family="Helvetica,sans-Serif" font-size="10.00">#</text>
<text text-anchor="start" x="17.5" y="-12" font-family="Helvetica,sans-Serif" font-size="10.00">rawKey()</text>
<polygon fill="#666666" stroke="#666666" points="0.5,-217 0.5,-217 97.5,-217 97.5,-217 0.5,-217"/>
<polygon fill="#666666" stroke="#666666" points="0.5,-202 0.5,-202 15.5,-202 15.5,-202 0.5,-202"/>
<polygon fill="#666666" stroke="#666666" points="15.5,-202 15.5,-202 97.5,-202 97.5,-202 15.5,-202"/>
<polygon fill="none" stroke="#666666" points="0,-5.5 0,-234.5 97,-234.5 97,-5.5 0,-5.5"/>
</a>
</g>
</g>
<!-- Node1&#45;&gt;Node2 -->
<g id="edge1_Node000001_Node000002" class="edge">
<title>Node1&#45;&gt;Node2</title>
<g id="a_edge1_Node000001_Node000002"><a xlink:title=" ">
<path fill="none" stroke="#63b8ff" d="M135.2,-307.83C122.63,-280.74 109.37,-252.16 97.1,-225.72"/>
<polygon fill="none" stroke="#63b8ff" points="132.05,-309.36 139.44,-316.96 138.4,-306.42 132.05,-309.36"/>
</a>
</g>
</g>
<!-- Node3 -->
<g id="Node000003" class="node">
<title>Node3</title>
<g id="a_Node000003"><a xlink:href="../../d7/d7a/classCSwordTreeKey.html" target="_top" xlink:title="CSwordKey implementation for Sword&#39;s TreeKey.">
<polygon fill="white" stroke="transparent" points="266,-232.5 115,-232.5 115,-7.5 266,-7.5 266,-232.5"/>
<text text-anchor="start" x="153" y="-220" font-family="Helvetica,sans-Serif" font-size="10.00">CSwordTreeKey</text>
<text text-anchor="start" x="122" y="-205" font-family="Helvetica,sans-Serif" font-size="10.00">&#45;</text>
<text text-anchor="start" x="132.5" y="-205" font-family="Helvetica,sans-Serif" font-size="10.00">m_key</text>
<text text-anchor="start" x="119.5" y="-190" font-family="Helvetica,sans-Serif" font-size="10.00">+</text>
<text text-anchor="start" x="132.5" y="-190" font-family="Helvetica,sans-Serif" font-size="10.00">asSwordKey()</text>
<text text-anchor="start" x="119.5" y="-175" font-family="Helvetica,sans-Serif" font-size="10.00">+</text>
<text text-anchor="start" x="132.5" y="-175" font-family="Helvetica,sans-Serif" font-size="10.00">BibleTime_CSwordTreeKey</text>
<text text-anchor="start" x="132.5" y="-164" font-family="Helvetica,sans-Serif" font-size="10.00">_DEFINE_COMP()</text>
<text text-anchor="start" x="119.5" y="-149" font-family="Helvetica,sans-Serif" font-size="10.00">+</text>
<text text-anchor="start" x="132.5" y="-149" font-family="Helvetica,sans-Serif" font-size="10.00">copy()</text>
<text text-anchor="start" x="119.5" y="-134" font-family="Helvetica,sans-Serif" font-size="10.00">+</text>
<text text-anchor="start" x="132.5" y="-134" font-family="Helvetica,sans-Serif" font-size="10.00">CSwordTreeKey()</text>
<text text-anchor="start" x="119.5" y="-119" font-family="Helvetica,sans-Serif" font-size="10.00">+</text>
<text text-anchor="start" x="132.5" y="-119" font-family="Helvetica,sans-Serif" font-size="10.00">CSwordTreeKey()</text>
<text text-anchor="start" x="119.5" y="-104" font-family="Helvetica,sans-Serif" font-size="10.00">+</text>
<text text-anchor="start" x="132.5" y="-104" font-family="Helvetica,sans-Serif" font-size="10.00">getLocalNameUnicode()</text>
<text text-anchor="start" x="119.5" y="-89" font-family="Helvetica,sans-Serif" font-size="10.00">+</text>
<text text-anchor="start" x="132.5" y="-89" font-family="Helvetica,sans-Serif" font-size="10.00">hasChildren()</text>
<text text-anchor="start" x="119.5" y="-74" font-family="Helvetica,sans-Serif" font-size="10.00">+</text>
<text text-anchor="start" x="132.5" y="-74" font-family="Helvetica,sans-Serif" font-size="10.00">key()</text>
<text text-anchor="start" x="119.5" y="-59" font-family="Helvetica,sans-Serif" font-size="10.00">+</text>
<text text-anchor="start" x="132.5" y="-59" font-family="Helvetica,sans-Serif" font-size="10.00">offset()</text>
<text text-anchor="start" x="119.5" y="-44" font-family="Helvetica,sans-Serif" font-size="10.00">+</text>
<text text-anchor="start" x="132.5" y="-44" font-family="Helvetica,sans-Serif" font-size="10.00">positionToFirstChild()</text>
<text text-anchor="start" x="132.5" y="-29" font-family="Helvetica,sans-Serif" font-size="10.00">and 7 more...</text>
<text text-anchor="start" x="119.5" y="-14" font-family="Helvetica,sans-Serif" font-size="10.00">#</text>
<text text-anchor="start" x="132.5" y="-14" font-family="Helvetica,sans-Serif" font-size="10.00">rawKey()</text>
<polygon fill="#666666" stroke="#666666" points="115.5,-215 115.5,-215 266.5,-215 266.5,-215 115.5,-215"/>
<polygon fill="#666666" stroke="#666666" points="115.5,-200 115.5,-200 130.5,-200 130.5,-200 115.5,-200"/>
<polygon fill="#666666" stroke="#666666" points="130.5,-200 130.5,-200 266.5,-200 266.5,-200 130.5,-200"/>
<polygon fill="none" stroke="#666666" points="115,-7.5 115,-232.5 266,-232.5 266,-7.5 115,-7.5"/>
</a>
</g>
</g>
<!-- Node1&#45;&gt;Node3 -->
<g id="edge2_Node000001_Node000003" class="edge">
<title>Node1&#45;&gt;Node3</title>
<g id="a_edge2_Node000001_Node000003"><a xlink:title=" ">
<path fill="none" stroke="#63b8ff" d="M190.5,-265.63C190.5,-254.58 190.5,-243.58 190.5,-232.88"/>
<polygon fill="none" stroke="#63b8ff" points="187,-265.79 190.5,-275.79 194,-265.79 187,-265.79"/>
</a>
</g>
</g>
<!-- Node4 -->
<g id="Node000004" class="node">
<title>Node4</title>
<g id="a_Node000004"><a xlink:href="../../d3/dae/classCSwordVerseKey.html" target="_top" xlink:title="CSwordKey implementation for Sword&#39;s VerseKey.">
<polygon fill="white" stroke="transparent" points="442.5,-240 284.5,-240 284.5,0 442.5,0 442.5,-240"/>
<text text-anchor="start" x="322.5" y="-228" font-family="Helvetica,sans-Serif" font-size="10.00">CSwordVerseKey</text>
<text text-anchor="start" x="291" y="-213" font-family="Helvetica,sans-Serif" font-size="10.00">&#45;</text>
<text text-anchor="start" x="301.5" y="-213" font-family="Helvetica,sans-Serif" font-size="10.00">m_afterChangedSignaller</text>
<text text-anchor="start" x="291" y="-198" font-family="Helvetica,sans-Serif" font-size="10.00">&#45;</text>
<text text-anchor="start" x="301.5" y="-198" font-family="Helvetica,sans-Serif" font-size="10.00">m_key</text>
<text text-anchor="start" x="288.5" y="-183" font-family="Helvetica,sans-Serif" font-size="10.00">+</text>
<text text-anchor="start" x="301.5" y="-183" font-family="Helvetica,sans-Serif" font-size="10.00">afterChangedSignaller()</text>
<text text-anchor="start" x="288.5" y="-168" font-family="Helvetica,sans-Serif" font-size="10.00">+</text>
<text text-anchor="start" x="301.5" y="-168" font-family="Helvetica,sans-Serif" font-size="10.00">asSwordKey()</text>
<text text-anchor="start" x="288.5" y="-153" font-family="Helvetica,sans-Serif" font-size="10.00">+</text>
<text text-anchor="start" x="301.5" y="-153" font-family="Helvetica,sans-Serif" font-size="10.00">bibleBook()</text>
<text text-anchor="start" x="288.5" y="-138" font-family="Helvetica,sans-Serif" font-size="10.00">+</text>
<text text-anchor="start" x="301.5" y="-138" font-family="Helvetica,sans-Serif" font-size="10.00">BibleTime_CSwordVerseKey</text>
<text text-anchor="start" x="301.5" y="-127" font-family="Helvetica,sans-Serif" font-size="10.00">_DEFINE_COMP()</text>
<text text-anchor="start" x="288.5" y="-112" font-family="Helvetica,sans-Serif" font-size="10.00">+</text>
<text text-anchor="start" x="301.5" y="-112" font-family="Helvetica,sans-Serif" font-size="10.00">book()</text>
<text text-anchor="start" x="288.5" y="-97" font-family="Helvetica,sans-Serif" font-size="10.00">+</text>
<text text-anchor="start" x="301.5" y="-97" font-family="Helvetica,sans-Serif" font-size="10.00">bookName()</text>
<text text-anchor="start" x="288.5" y="-82" font-family="Helvetica,sans-Serif" font-size="10.00">+</text>
<text text-anchor="start" x="301.5" y="-82" font-family="Helvetica,sans-Serif" font-size="10.00">chapter()</text>
<text text-anchor="start" x="288.5" y="-67" font-family="Helvetica,sans-Serif" font-size="10.00">+</text>
<text text-anchor="start" x="301.5" y="-67" font-family="Helvetica,sans-Serif" font-size="10.00">copy()</text>
<text text-anchor="start" x="288.5" y="-52" font-family="Helvetica,sans-Serif" font-size="10.00">+</text>
<text text-anchor="start" x="301.5" y="-52" font-family="Helvetica,sans-Serif" font-size="10.00">CSwordVerseKey()</text>
<text text-anchor="start" x="288.5" y="-37" font-family="Helvetica,sans-Serif" font-size="10.00">+</text>
<text text-anchor="start" x="301.5" y="-37" font-family="Helvetica,sans-Serif" font-size="10.00">CSwordVerseKey()</text>
<text text-anchor="start" x="301.5" y="-22" font-family="Helvetica,sans-Serif" font-size="10.00">and 32 more...</text>
<text text-anchor="start" x="288.5" y="-7" font-family="Helvetica,sans-Serif" font-size="10.00">#</text>
<text text-anchor="start" x="301.5" y="-7" font-family="Helvetica,sans-Serif" font-size="10.00">rawKey()</text>
<polygon fill="#666666" stroke="#666666" points="284.5,-223 284.5,-223 442.5,-223 442.5,-223 284.5,-223"/>
<polygon fill="#666666" stroke="#666666" points="284.5,-193 284.5,-193 299.5,-193 299.5,-193 284.5,-193"/>
<polygon fill="#666666" stroke="#666666" points="299.5,-193 299.5,-193 442.5,-193 442.5,-193 299.5,-193"/>
<polygon fill="none" stroke="#666666" points="284.5,0 284.5,-240 442.5,-240 442.5,0 284.5,0"/>
</a>
</g>
</g>
<!-- Node1&#45;&gt;Node4 -->
<g id="edge3_Node000001_Node000004" class="edge">
<title>Node1&#45;&gt;Node4</title>
<g id="a_edge3_Node000001_Node000004"><a xlink:title=" ">
<path fill="none" stroke="#63b8ff" d="M246.77,-327.47C262.55,-299.56 279.87,-268.93 296.22,-240.01"/>
<polygon fill="none" stroke="#63b8ff" points="243.58,-326 241.7,-336.43 249.67,-329.45 243.58,-326"/>
</a>
</g>
</g>
</g>
</svg>

<g id="navigator" transform="translate(0 0)" fill="#404254">
  <rect fill="#f2f5e9" fill-opacity="0.5" stroke="#606060" stroke-width=".5" x="0" y="0" width="60" height="60"/>
  <use id="zoomplus" xlink:href="#zoomPlus" x="17" y="9" onmousedown="handleZoom(evt,'in')"/>
  <use id="zoomminus" xlink:href="#zoomMin" x="42" y="9" onmousedown="handleZoom(evt,'out')"/>
  <use id="reset" xlink:href="#resetDef" x="30" y="36" onmousedown="handleReset()"/>
   <use id="arrowup" xlink:href="#arrowUp" x="0" y="0" onmousedown="handlePan(0,-1)"/>
  <use id="arrowright" xlink:href="#arrowRight" x="0" y="0" onmousedown="handlePan(1,0)"/>
  <use id="arrowdown" xlink:href="#arrowDown" x="0" y="0" onmousedown="handlePan(0,1)"/>
  <use id="arrowleft" xlink:href="#arrowLeft" x="0" y="0" onmousedown="handlePan(-1,0)"/>
</g>
<svg viewBox="0 0 15 15" width="100%" height="30px" preserveAspectRatio="xMaxYMin meet">
 <g id="arrow_out" transform="scale(0.3 0.3)">
  <a xlink:href="classCSwordKey__inherit__graph_org.svg" target="_base">
   <rect id="button" ry="5" rx="5" y="6" x="6" height="38" width="38"
        fill="#f2f5e9" fill-opacity="0.5" stroke="#606060" stroke-width="1.0"/>
   <path id="arrow"
     d="M 11.500037,31.436501 C 11.940474,20.09759 22.043105,11.32322 32.158766,21.979434 L 37.068811,17.246167 C 37.068811,17.246167 37.088388,32 37.088388,32 L 22.160133,31.978069 C 22.160133,31.978069 26.997745,27.140456 26.997745,27.140456 C 18.528582,18.264221 13.291696,25.230495 11.500037,31.436501 z"
     style="fill:#404040;"/>
  </a>
 </g>
</svg>

<style type='text/css'>
<![CDATA[
[data-mouse-over-selected='false'] { opacity: 0.7; }
[data-mouse-over-selected='true']  { opacity: 1.0; }
]]>
</style>
<script type="application/ecmascript"><![CDATA[
document.addEventListener('DOMContentLoaded', (event) => {
  highlightEdges();
  highlightAdjacentNodes();
});
]]></script>
</svg>
