<?xml version="1.0" encoding="UTF-8" standalone="no"?>
<!DOCTYPE svg PUBLIC "-//W3C//DTD SVG 1.1//EN"
 "http://www.w3.org/Graphics/SVG/1.1/DTD/svg11.dtd">
<!-- Generated by graphviz version 2.43.0 (0)
 -->
<!-- Title: CSwordKey Pages: 1 -->
<!--zoomable 588 -->

<svg id="main" version="1.1" xmlns="http://www.w3.org/2000/svg" xmlns:xlink="http://www.w3.org/1999/xlink" xml:space="preserve" onload="init(evt)">
<style type="text/css"><![CDATA[
.node, .edge {opacity: 0.7;}
.node.selected, .edge.selected {opacity: 1;}
.edge:hover path { stroke: red; }
.edge:hover polygon { stroke: red; fill: red; }
]]></style>

<defs>
  <circle id="rim" cx="0" cy="0" r="7"/>
  <circle id="rim2" cx="0" cy="0" r="3.5"/>
  <g id="zoomPlus">
    <use xlink:href="#rim" fill="#404040"><set attributeName="fill" to="#808080" begin="zoomplus.mouseover" end="zoomplus.mouseout"/></use>
    <path d="M-4,0h8M0,-4v8" fill="none" stroke="white" stroke-width="1.5" pointer-events="none"/>
  </g>
  <g id="zoomMin">
    <use xlink:href="#rim" fill="#404040"><set attributeName="fill" to="#808080" begin="zoomminus.mouseover" end="zoomminus.mouseout"/></use>
    <path d="M-4,0h8" fill="none" stroke="white" stroke-width="1.5" pointer-events="none"/>
  </g>
  <g id="arrowUp" transform="translate(30 24)">
    <use xlink:href="#rim"/>
    <path pointer-events="none" fill="none" stroke="white" stroke-width="1.5" d="M0,-3.0v7 M-2.5,-0.5L0,-3.0L2.5,-0.5"/>
  </g>
  <g id="arrowRight" transform="rotate(90) translate(36 -43)">
    <use xlink:href="#rim"/>
    <path pointer-events="none" fill="none" stroke="white" stroke-width="1.5" d="M0,-3.0v7 M-2.5,-0.5L0,-3.0L2.5,-0.5"/>
  </g>
  <g id="arrowDown" transform="rotate(180) translate(-30 -48)">
    <use xlink:href="#rim"/>
    <path pointer-events="none" fill="none" stroke="white" stroke-width="1.5" d="M0,-3.0v7 M-2.5,-0.5L0,-3.0L2.5,-0.5"/>
  </g>
  <g id="arrowLeft" transform="rotate(270) translate(-36 17)">
    <use xlink:href="#rim"/>
    <path pointer-events="none" fill="none" stroke="white" stroke-width="1.5" d="M0,-3.0v7 M-2.5,-0.5L0,-3.0L2.5,-0.5"/>
  </g>
  <g id="resetDef">
    <use xlink:href="#rim2" fill="#404040"><set attributeName="fill" to="#808080" begin="reset.mouseover" end="reset.mouseout"/></use>
  </g>
</defs>
<script type="application/ecmascript">
var viewWidth = 439;
var viewHeight = 588;
var sectionId = 'dynsection-0';
</script>
<script type="application/ecmascript" xlink:href="../../svg.min.js"/>
<svg id="graph" class="graph">
<g id="viewport">
<title>CSwordKey</title>
<!-- Node1 -->
<g id="Node000001" class="node">
<title>Node1</title>
<g id="a_Node000001"><a xlink:title=" ">
<polygon fill="#999999" stroke="transparent" points="235.5,-580 133.5,-580 133.5,-276 235.5,-276 235.5,-580"/>
<text text-anchor="start" x="157" y="-568" font-family="Helvetica,sans-Serif" font-size="10.00">CSwordKey</text>
<text text-anchor="start" x="137.5" y="-553" font-family="Helvetica,sans-Serif" font-size="10.00">#</text>
<text text-anchor="start" x="150.5" y="-553" font-family="Helvetica,sans-Serif" font-size="10.00">m_module</text>
<text text-anchor="start" x="137.5" y="-538" font-family="Helvetica,sans-Serif" font-size="10.00">#</text>
<text text-anchor="start" x="150.5" y="-538" font-family="Helvetica,sans-Serif" font-size="10.00">m_valid</text>
<text text-anchor="start" x="137.5" y="-523" font-family="Helvetica,sans-Serif" font-size="10.00">+</text>
<text text-anchor="start" x="150.5" y="-523" font-family="Helvetica,sans-Serif" font-size="10.00">asSwordKey()</text>
<text text-anchor="start" x="137.5" y="-508" font-family="Helvetica,sans-Serif" font-size="10.00">+</text>
<text text-anchor="start" x="150.5" y="-508" font-family="Helvetica,sans-Serif" font-size="10.00">copy()</text>
<text text-anchor="start" x="137.5" y="-493" font-family="Helvetica,sans-Serif" font-size="10.00">+</text>
<text text-anchor="start" x="150.5" y="-493" font-family="Helvetica,sans-Serif" font-size="10.00">isValid()</text>
<text text-anchor="start" x="137.5" y="-478" font-family="Helvetica,sans-Serif" font-size="10.00">+</text>
<text text-anchor="start" x="150.5" y="-478" font-family="Helvetica,sans-Serif" font-size="10.00">key()</text>
<text text-anchor="start" x="137.5" y="-463" font-family="Helvetica,sans-Serif" font-size="10.00">+</text>
<text text-anchor="start" x="150.5" y="-463" font-family="Helvetica,sans-Serif" font-size="10.00">module()</text>
<text text-anchor="start" x="137.5" y="-448" font-family="Helvetica,sans-Serif" font-size="10.00">+</text>
<text text-anchor="start" x="150.5" y="-448" font-family="Helvetica,sans-Serif" font-size="10.00">normalizedKey()</text>
<text text-anchor="start" x="137.5" y="-433" font-family="Helvetica,sans-Serif" font-size="10.00">+</text>
<text text-anchor="start" x="150.5" y="-433" font-family="Helvetica,sans-Serif" font-size="10.00">operator=()</text>
<text text-anchor="start" x="137.5" y="-418" font-family="Helvetica,sans-Serif" font-size="10.00">+</text>
<text text-anchor="start" x="150.5" y="-418" font-family="Helvetica,sans-Serif" font-size="10.00">rawText()</text>
<text text-anchor="start" x="137.5" y="-403" font-family="Helvetica,sans-Serif" font-size="10.00">+</text>
<text text-anchor="start" x="150.5" y="-403" font-family="Helvetica,sans-Serif" font-size="10.00">renderedText()</text>
<text text-anchor="start" x="137.5" y="-388" font-family="Helvetica,sans-Serif" font-size="10.00">+</text>
<text text-anchor="start" x="150.5" y="-388" font-family="Helvetica,sans-Serif" font-size="10.00">setKey()</text>
<text text-anchor="start" x="137.5" y="-373" font-family="Helvetica,sans-Serif" font-size="10.00">+</text>
<text text-anchor="start" x="150.5" y="-373" font-family="Helvetica,sans-Serif" font-size="10.00">setKey()</text>
<text text-anchor="start" x="137.5" y="-358" font-family="Helvetica,sans-Serif" font-size="10.00">+</text>
<text text-anchor="start" x="150.5" y="-358" font-family="Helvetica,sans-Serif" font-size="10.00">setModule()</text>
<text text-anchor="start" x="137.5" y="-343" font-family="Helvetica,sans-Serif" font-size="10.00">+</text>
<text text-anchor="start" x="150.5" y="-343" font-family="Helvetica,sans-Serif" font-size="10.00">strippedText()</text>
<text text-anchor="start" x="137.5" y="-328" font-family="Helvetica,sans-Serif" font-size="10.00">+</text>
<text text-anchor="start" x="150.5" y="-328" font-family="Helvetica,sans-Serif" font-size="10.00">~CSwordKey()</text>
<text text-anchor="start" x="137.5" y="-313" font-family="Helvetica,sans-Serif" font-size="10.00">#</text>
<text text-anchor="start" x="150.5" y="-313" font-family="Helvetica,sans-Serif" font-size="10.00">CSwordKey()</text>
<text text-anchor="start" x="137.5" y="-298" font-family="Helvetica,sans-Serif" font-size="10.00">#</text>
<text text-anchor="start" x="150.5" y="-298" font-family="Helvetica,sans-Serif" font-size="10.00">CSwordKey()</text>
<text text-anchor="start" x="137.5" y="-283" font-family="Helvetica,sans-Serif" font-size="10.00">#</text>
<text text-anchor="start" x="150.5" y="-283" font-family="Helvetica,sans-Serif" font-size="10.00">rawKey()</text>
<polygon fill="#666666" stroke="#666666" points="133.5,-563 133.5,-563 235.5,-563 235.5,-563 133.5,-563"/>
<polygon fill="#666666" stroke="#666666" points="133.5,-533 133.5,-533 148.5,-533 148.5,-533 133.5,-533"/>
<polygon fill="#666666" stroke="#666666" points="148.5,-533 148.5,-533 235.5,-533 235.5,-533 148.5,-533"/>
<polygon fill="none" stroke="#666666" points="133.5,-276 133.5,-580 235.5,-580 235.5,-276 133.5,-276"/>
</a>
</g>
</g>
<!-- Node2 -->
<g id="Node000002" class="node">
<title>Node2</title>
<g id="a_Node000002"><a xlink:href="../../de/d61/classCSwordLDKey.html" target="_top" xlink:title=" ">
<polygon fill="white" stroke="transparent" points="97,-234.5 0,-234.5 0,-5.5 97,-5.5 97,-234.5"/>
<text text-anchor="start" x="15" y="-222" font-family="Helvetica,sans-Serif" font-size="10.00">CSwordLDKey</text>
<text text-anchor="start" x="7" y="-207" font-family="Helvetica,sans-Serif" font-size="10.00">&#45;</text>
<text text-anchor="start" x="17.5" y="-207" font-family="Helvetica,sans-Serif" font-size="10.00">m_key</text>
<text text-anchor="start" x="4.5" y="-192" font-family="Helvetica,sans-Serif" font-size="10.00">+</text>
<text text-anchor="start" x="17.5" y="-192" font-family="Helvetica,sans-Serif" font-size="10.00">asSwordKey()</text>
<text text-anchor="start" x="4.5" y="-177" font-family="Helvetica,sans-Serif" font-size="10.00">+</text>
<text text-anchor="start" x="17.5" y="-177" font-family="Helvetica,sans-Serif" font-size="10.00">copy()</text>
<text text-anchor="start" x="4.5" y="-162" font-family="Helvetica,sans-Serif" font-size="10.00">+</text>
<text text-anchor="start" x="17.5" y="-162" font-family="Helvetica,sans-Serif" font-size="10.00">CSwordLDKey()</text>
<text text-anchor="start" x="4.5" y="-147" font-family="Helvetica,sans-Serif" font-size="10.00">+</text>
<text text-anchor="start" x="17.5" y="-147" font-family="Helvetica,sans-Serif" font-size="10.00">CSwordLDKey()</text>
<text text-anchor="start" x="4.5" y="-132" font-family="Helvetica,sans-Serif" font-size="10.00">+</text>
<text text-anchor="start" x="17.5" y="-132" font-family="Helvetica,sans-Serif" font-size="10.00">CSwordLDKey()</text>
<text text-anchor="start" x="4.5" y="-117" font-family="Helvetica,sans-Serif" font-size="10.00">+</text>
<text text-anchor="start" x="17.5" y="-117" font-family="Helvetica,sans-Serif" font-size="10.00">key()</text>
<text text-anchor="start" x="4.5" y="-102" font-family="Helvetica,sans-Serif" font-size="10.00">+</text>
<text text-anchor="start" x="17.5" y="-102" font-family="Helvetica,sans-Serif" font-size="10.00">NextEntry()</text>
<text text-anchor="start" x="4.5" y="-87" font-family="Helvetica,sans-Serif" font-size="10.00">+</text>
<text text-anchor="start" x="17.5" y="-87" font-family="Helvetica,sans-Serif" font-size="10.00">operator=()</text>
<text text-anchor="start" x="4.5" y="-72" font-family="Helvetica,sans-Serif" font-size="10.00">+</text>
<text text-anchor="start" x="17.5" y="-72" font-family="Helvetica,sans-Serif" font-size="10.00">PreviousEntry()</text>
<text text-anchor="start" x="4.5" y="-57" font-family="Helvetica,sans-Serif" font-size="10.00">+</text>
<text text-anchor="start" x="17.5" y="-57" font-family="Helvetica,sans-Serif" font-size="10.00">setKey()</text>
<text text-anchor="start" x="4.5" y="-42" font-family="Helvetica,sans-Serif" font-size="10.00">+</text>
<text text-anchor="start" x="17.5" y="-42" font-family="Helvetica,sans-Serif" font-size="10.00">setKey()</text>
<text text-anchor="start" x="4.5" y="-27" font-family="Helvetica,sans-Serif" font-size="10.00">+</text>
<text text-anchor="start" x="17.5" y="-27" font-family="Helvetica,sans-Serif" font-size="10.00">setModule()</text>
<text text-anchor="start" x="4.5" y="-12" font-family="Helvetica,sans-Serif" font-size="10.00">#</text>
<text text-anchor="start" x="17.5" y="-12" font-family="Helvetica,sans-Serif" font-size="10.00">rawKey()</text>
<polygon fill="#666666" stroke="#666666" points="0.5,-217 0.5,-217 97.5,-217 97.5,-217 0.5,-217"/>
<polygon fill="#666666" stroke="#666666" points="0.5,-202 0.5,-202 15.5,-202 15.5,-202 0.5,-202"/>
<polygon fill="#666666" stroke="#666666" points="15.5,-202 15.5,-202 97.5,-202 97.5,-202 15.5,-202"/>
<polygon fill="none" stroke="#666666" points="0,-5.5 0,-234.5 97,-234.5 97,-5.5 0,-5.5"/>
</a>
</g>
</g>
<!-- Node1&#45;&gt;Node2 -->
<g id="edge1_Node000001_Node000002" class="edge">
<title>Node1&#45;&gt;Node2</title>
<g id="a_edge1_Node000001_Node000002"><a xlink:title=" ">
<path fill="none" stroke="#63b8ff" d="M129.4,-303.02C118.71,-278.97 107.58,-253.92 97.11,-230.38"/>
<polygon fill="none" stroke="#63b8ff" points="126.21,-304.47 133.47,-312.19 132.61,-301.63 126.21,-304.47"/>
</a>
</g>
</g>
<!-- Node3 -->
<g id="Node000003" class="node">
<title>Node3</title>
<g id="a_Node000003"><a xlink:href="../../d7/d7a/classCSwordTreeKey.html" target="_top" xlink:title="CSwordKey implementation for Sword&#39;s TreeKey.">
<polygon fill="white" stroke="transparent" points="254,-227 115,-227 115,-13 254,-13 254,-227"/>
<text text-anchor="start" x="147" y="-215" font-family="Helvetica,sans-Serif" font-size="10.00">CSwordTreeKey</text>
<text text-anchor="start" x="122" y="-200" font-family="Helvetica,sans-Serif" font-size="10.00">&#45;</text>
<text text-anchor="start" x="132.5" y="-200" font-family="Helvetica,sans-Serif" font-size="10.00">m_key</text>
<text text-anchor="start" x="119.5" y="-185" font-family="Helvetica,sans-Serif" font-size="10.00">+</text>
<text text-anchor="start" x="132.5" y="-185" font-family="Helvetica,sans-Serif" font-size="10.00">asSwordKey()</text>
<text text-anchor="start" x="119.5" y="-170" font-family="Helvetica,sans-Serif" font-size="10.00">+</text>
<text text-anchor="start" x="132.5" y="-170" font-family="Helvetica,sans-Serif" font-size="10.00">copy()</text>
<text text-anchor="start" x="119.5" y="-155" font-family="Helvetica,sans-Serif" font-size="10.00">+</text>
<text text-anchor="start" x="132.5" y="-155" font-family="Helvetica,sans-Serif" font-size="10.00">CSwordTreeKey()</text>
<text text-anchor="start" x="119.5" y="-140" font-family="Helvetica,sans-Serif" font-size="10.00">+</text>
<text text-anchor="start" x="132.5" y="-140" font-family="Helvetica,sans-Serif" font-size="10.00">CSwordTreeKey()</text>
<text text-anchor="start" x="119.5" y="-125" font-family="Helvetica,sans-Serif" font-size="10.00">+</text>
<text text-anchor="start" x="132.5" y="-125" font-family="Helvetica,sans-Serif" font-size="10.00">getLocalNameUnicode()</text>
<text text-anchor="start" x="119.5" y="-110" font-family="Helvetica,sans-Serif" font-size="10.00">+</text>
<text text-anchor="start" x="132.5" y="-110" font-family="Helvetica,sans-Serif" font-size="10.00">hasChildren()</text>
<text text-anchor="start" x="119.5" y="-95" font-family="Helvetica,sans-Serif" font-size="10.00">+</text>
<text text-anchor="start" x="132.5" y="-95" font-family="Helvetica,sans-Serif" font-size="10.00">key()</text>
<text text-anchor="start" x="119.5" y="-80" font-family="Helvetica,sans-Serif" font-size="10.00">+</text>
<text text-anchor="start" x="132.5" y="-80" font-family="Helvetica,sans-Serif" font-size="10.00">offset()</text>
<text text-anchor="start" x="119.5" y="-65" font-family="Helvetica,sans-Serif" font-size="10.00">+</text>
<text text-anchor="start" x="132.5" y="-65" font-family="Helvetica,sans-Serif" font-size="10.00">operator=()</text>
<text text-anchor="start" x="119.5" y="-50" font-family="Helvetica,sans-Serif" font-size="10.00">+</text>
<text text-anchor="start" x="132.5" y="-50" font-family="Helvetica,sans-Serif" font-size="10.00">positionToFirstChild()</text>
<text text-anchor="start" x="132.5" y="-35" font-family="Helvetica,sans-Serif" font-size="10.00">and 7 more...</text>
<text text-anchor="start" x="119.5" y="-20" font-family="Helvetica,sans-Serif" font-size="10.00">#</text>
<text text-anchor="start" x="132.5" y="-20" font-family="Helvetica,sans-Serif" font-size="10.00">rawKey()</text>
<polygon fill="#666666" stroke="#666666" points="115.5,-210 115.5,-210 254.5,-210 254.5,-210 115.5,-210"/>
<polygon fill="#666666" stroke="#666666" points="115.5,-195 115.5,-195 130.5,-195 130.5,-195 115.5,-195"/>
<polygon fill="#666666" stroke="#666666" points="130.5,-195 130.5,-195 254.5,-195 254.5,-195 130.5,-195"/>
<polygon fill="none" stroke="#666666" points="115,-13 115,-227 254,-227 254,-13 115,-13"/>
</a>
</g>
</g>
<!-- Node1&#45;&gt;Node3 -->
<g id="edge2_Node000001_Node000003" class="edge">
<title>Node1&#45;&gt;Node3</title>
<g id="a_edge2_Node000001_Node000003"><a xlink:title=" ">
<path fill="none" stroke="#63b8ff" d="M184.5,-265.41C184.5,-252.48 184.5,-239.63 184.5,-227.23"/>
<polygon fill="none" stroke="#63b8ff" points="181,-265.79 184.5,-275.79 188,-265.79 181,-265.79"/>
</a>
</g>
</g>
<!-- Node4 -->
<g id="Node000004" class="node">
<title>Node4</title>
<g id="a_Node000004"><a xlink:href="../../d3/dae/classCSwordVerseKey.html" target="_top" xlink:title="CSwordKey implementation for Sword&#39;s VerseKey.">
<polygon fill="white" stroke="transparent" points="430.5,-240 272.5,-240 272.5,0 430.5,0 430.5,-240"/>
<text text-anchor="start" x="310.5" y="-228" font-family="Helvetica,sans-Serif" font-size="10.00">CSwordVerseKey</text>
<text text-anchor="start" x="279" y="-213" font-family="Helvetica,sans-Serif" font-size="10.00">&#45;</text>
<text text-anchor="start" x="289.5" y="-213" font-family="Helvetica,sans-Serif" font-size="10.00">m_afterChangedSignaller</text>
<text text-anchor="start" x="279" y="-198" font-family="Helvetica,sans-Serif" font-size="10.00">&#45;</text>
<text text-anchor="start" x="289.5" y="-198" font-family="Helvetica,sans-Serif" font-size="10.00">m_key</text>
<text text-anchor="start" x="276.5" y="-183" font-family="Helvetica,sans-Serif" font-size="10.00">+</text>
<text text-anchor="start" x="289.5" y="-183" font-family="Helvetica,sans-Serif" font-size="10.00">afterChangedSignaller()</text>
<text text-anchor="start" x="276.5" y="-168" font-family="Helvetica,sans-Serif" font-size="10.00">+</text>
<text text-anchor="start" x="289.5" y="-168" font-family="Helvetica,sans-Serif" font-size="10.00">asSwordKey()</text>
<text text-anchor="start" x="276.5" y="-153" font-family="Helvetica,sans-Serif" font-size="10.00">+</text>
<text text-anchor="start" x="289.5" y="-153" font-family="Helvetica,sans-Serif" font-size="10.00">bibleBook()</text>
<text text-anchor="start" x="276.5" y="-138" font-family="Helvetica,sans-Serif" font-size="10.00">+</text>
<text text-anchor="start" x="289.5" y="-138" font-family="Helvetica,sans-Serif" font-size="10.00">BibleTime_CSwordVerseKey</text>
<text text-anchor="start" x="289.5" y="-127" font-family="Helvetica,sans-Serif" font-size="10.00">_DEFINE_COMP()</text>
<text text-anchor="start" x="276.5" y="-112" font-family="Helvetica,sans-Serif" font-size="10.00">+</text>
<text text-anchor="start" x="289.5" y="-112" font-family="Helvetica,sans-Serif" font-size="10.00">book()</text>
<text text-anchor="start" x="276.5" y="-97" font-family="Helvetica,sans-Serif" font-size="10.00">+</text>
<text text-anchor="start" x="289.5" y="-97" font-family="Helvetica,sans-Serif" font-size="10.00">bookName()</text>
<text text-anchor="start" x="276.5" y="-82" font-family="Helvetica,sans-Serif" font-size="10.00">+</text>
<text text-anchor="start" x="289.5" y="-82" font-family="Helvetica,sans-Serif" font-size="10.00">chapter()</text>
<text text-anchor="start" x="276.5" y="-67" font-family="Helvetica,sans-Serif" font-size="10.00">+</text>
<text text-anchor="start" x="289.5" y="-67" font-family="Helvetica,sans-Serif" font-size="10.00">copy()</text>
<text text-anchor="start" x="276.5" y="-52" font-family="Helvetica,sans-Serif" font-size="10.00">+</text>
<text text-anchor="start" x="289.5" y="-52" font-family="Helvetica,sans-Serif" font-size="10.00">CSwordVerseKey()</text>
<text text-anchor="start" x="276.5" y="-37" font-family="Helvetica,sans-Serif" font-size="10.00">+</text>
<text text-anchor="start" x="289.5" y="-37" font-family="Helvetica,sans-Serif" font-size="10.00">CSwordVerseKey()</text>
<text text-anchor="start" x="289.5" y="-22" font-family="Helvetica,sans-Serif" font-size="10.00">and 32 more...</text>
<text text-anchor="start" x="276.5" y="-7" font-family="Helvetica,sans-Serif" font-size="10.00">#</text>
<text text-anchor="start" x="289.5" y="-7" font-family="Helvetica,sans-Serif" font-size="10.00">rawKey()</text>
<polygon fill="#666666" stroke="#666666" points="272.5,-223 272.5,-223 430.5,-223 430.5,-223 272.5,-223"/>
<polygon fill="#666666" stroke="#666666" points="272.5,-193 272.5,-193 287.5,-193 287.5,-193 272.5,-193"/>
<polygon fill="#666666" stroke="#666666" points="287.5,-193 287.5,-193 430.5,-193 430.5,-193 287.5,-193"/>
<polygon fill="none" stroke="#666666" points="272.5,0 272.5,-240 430.5,-240 430.5,0 272.5,0"/>
</a>
</g>
</g>
<!-- Node1&#45;&gt;Node4 -->
<g id="edge3_Node000001_Node000004" class="edge">
<title>Node1&#45;&gt;Node4</title>
<g id="a_edge3_Node000001_Node000004"><a xlink:title=" ">
<path fill="none" stroke="#63b8ff" d="M240.46,-324.46C255.22,-297.42 271.26,-268.02 286.45,-240.19"/>
<polygon fill="none" stroke="#63b8ff" points="237.23,-323.07 235.51,-333.53 243.38,-326.43 237.23,-323.07"/>
</a>
</g>
</g>
</g>
</svg>

<g id="navigator" transform="translate(0 0)" fill="#404254">
  <rect fill="#f2f5e9" fill-opacity="0.5" stroke="#606060" stroke-width=".5" x="0" y="0" width="60" height="60"/>
  <use id="zoomplus" xlink:href="#zoomPlus" x="17" y="9" onmousedown="handleZoom(evt,'in')"/>
  <use id="zoomminus" xlink:href="#zoomMin" x="42" y="9" onmousedown="handleZoom(evt,'out')"/>
  <use id="reset" xlink:href="#resetDef" x="30" y="36" onmousedown="handleReset()"/>
   <use id="arrowup" xlink:href="#arrowUp" x="0" y="0" onmousedown="handlePan(0,-1)"/>
  <use id="arrowright" xlink:href="#arrowRight" x="0" y="0" onmousedown="handlePan(1,0)"/>
  <use id="arrowdown" xlink:href="#arrowDown" x="0" y="0" onmousedown="handlePan(0,1)"/>
  <use id="arrowleft" xlink:href="#arrowLeft" x="0" y="0" onmousedown="handlePan(-1,0)"/>
</g>
<svg viewBox="0 0 15 15" width="100%" height="30px" preserveAspectRatio="xMaxYMin meet">
 <g id="arrow_out" transform="scale(0.3 0.3)">
  <a xlink:href="classCSwordKey__inherit__graph_org.svg" target="_base">
   <rect id="button" ry="5" rx="5" y="6" x="6" height="38" width="38"
        fill="#f2f5e9" fill-opacity="0.5" stroke="#606060" stroke-width="1.0"/>
   <path id="arrow"
     d="M 11.500037,31.436501 C 11.940474,20.09759 22.043105,11.32322 32.158766,21.979434 L 37.068811,17.246167 C 37.068811,17.246167 37.088388,32 37.088388,32 L 22.160133,31.978069 C 22.160133,31.978069 26.997745,27.140456 26.997745,27.140456 C 18.528582,18.264221 13.291696,25.230495 11.500037,31.436501 z"
     style="fill:#404040;"/>
  </a>
 </g>
</svg>

<style type='text/css'>
<![CDATA[
[data-mouse-over-selected='false'] { opacity: 0.7; }
[data-mouse-over-selected='true']  { opacity: 1.0; }
]]>
</style>
<script type="application/ecmascript"><![CDATA[
document.addEventListener('DOMContentLoaded', (event) => {
  highlightEdges();
  highlightAdjacentNodes();
});
]]></script>
</svg>
