<?xml version="1.0" encoding="UTF-8" standalone="no"?>
<!DOCTYPE svg PUBLIC "-//W3C//DTD SVG 1.1//EN"
 "http://www.w3.org/Graphics/SVG/1.1/DTD/svg11.dtd">
<!-- Generated by graphviz version 2.43.0 (0)
 -->
<!-- Title: CSwordKey Pages: 1 -->
<svg width="451pt" height="588pt"
 viewBox="0.00 0.00 450.50 588.00" xmlns="http://www.w3.org/2000/svg" xmlns:xlink="http://www.w3.org/1999/xlink">
<g id="graph0" class="graph" transform="scale(1 1) rotate(0) translate(4 584)">
<title>CSwordKey</title>
<!-- Node1 -->
<g id="Node000001" class="node">
<title>Node1</title>
<g id="a_Node000001"><a xlink:title=" ">
<polygon fill="#999999" stroke="transparent" points="241.5,-580 139.5,-580 139.5,-276 241.5,-276 241.5,-580"/>
<text text-anchor="start" x="163" y="-568" font-family="Helvetica,sans-Serif" font-size="10.00">CSwordKey</text>
<text text-anchor="start" x="143.5" y="-553" font-family="Helvetica,sans-Serif" font-size="10.00">#</text>
<text text-anchor="start" x="156.5" y="-553" font-family="Helvetica,sans-Serif" font-size="10.00">m_module</text>
<text text-anchor="start" x="143.5" y="-538" font-family="Helvetica,sans-Serif" font-size="10.00">#</text>
<text text-anchor="start" x="156.5" y="-538" font-family="Helvetica,sans-Serif" font-size="10.00">m_valid</text>
<text text-anchor="start" x="143.5" y="-523" font-family="Helvetica,sans-Serif" font-size="10.00">+</text>
<text text-anchor="start" x="156.5" y="-523" font-family="Helvetica,sans-Serif" font-size="10.00">asSwordKey()</text>
<text text-anchor="start" x="143.5" y="-508" font-family="Helvetica,sans-Serif" font-size="10.00">+</text>
<text text-anchor="start" x="156.5" y="-508" font-family="Helvetica,sans-Serif" font-size="10.00">copy()</text>
<text text-anchor="start" x="143.5" y="-493" font-family="Helvetica,sans-Serif" font-size="10.00">+</text>
<text text-anchor="start" x="156.5" y="-493" font-family="Helvetica,sans-Serif" font-size="10.00">isValid()</text>
<text text-anchor="start" x="143.5" y="-478" font-family="Helvetica,sans-Serif" font-size="10.00">+</text>
<text text-anchor="start" x="156.5" y="-478" font-family="Helvetica,sans-Serif" font-size="10.00">key()</text>
<text text-anchor="start" x="143.5" y="-463" font-family="Helvetica,sans-Serif" font-size="10.00">+</text>
<text text-anchor="start" x="156.5" y="-463" font-family="Helvetica,sans-Serif" font-size="10.00">module()</text>
<text text-anchor="start" x="143.5" y="-448" font-family="Helvetica,sans-Serif" font-size="10.00">+</text>
<text text-anchor="start" x="156.5" y="-448" font-family="Helvetica,sans-Serif" font-size="10.00">normalizedKey()</text>
<text text-anchor="start" x="143.5" y="-433" font-family="Helvetica,sans-Serif" font-size="10.00">+</text>
<text text-anchor="start" x="156.5" y="-433" font-family="Helvetica,sans-Serif" font-size="10.00">operator=()</text>
<text text-anchor="start" x="143.5" y="-418" font-family="Helvetica,sans-Serif" font-size="10.00">+</text>
<text text-anchor="start" x="156.5" y="-418" font-family="Helvetica,sans-Serif" font-size="10.00">rawText()</text>
<text text-anchor="start" x="143.5" y="-403" font-family="Helvetica,sans-Serif" font-size="10.00">+</text>
<text text-anchor="start" x="156.5" y="-403" font-family="Helvetica,sans-Serif" font-size="10.00">renderedText()</text>
<text text-anchor="start" x="143.5" y="-388" font-family="Helvetica,sans-Serif" font-size="10.00">+</text>
<text text-anchor="start" x="156.5" y="-388" font-family="Helvetica,sans-Serif" font-size="10.00">setKey()</text>
<text text-anchor="start" x="143.5" y="-373" font-family="Helvetica,sans-Serif" font-size="10.00">+</text>
<text text-anchor="start" x="156.5" y="-373" font-family="Helvetica,sans-Serif" font-size="10.00">setKey()</text>
<text text-anchor="start" x="143.5" y="-358" font-family="Helvetica,sans-Serif" font-size="10.00">+</text>
<text text-anchor="start" x="156.5" y="-358" font-family="Helvetica,sans-Serif" font-size="10.00">setModule()</text>
<text text-anchor="start" x="143.5" y="-343" font-family="Helvetica,sans-Serif" font-size="10.00">+</text>
<text text-anchor="start" x="156.5" y="-343" font-family="Helvetica,sans-Serif" font-size="10.00">strippedText()</text>
<text text-anchor="start" x="143.5" y="-328" font-family="Helvetica,sans-Serif" font-size="10.00">+</text>
<text text-anchor="start" x="156.5" y="-328" font-family="Helvetica,sans-Serif" font-size="10.00">~CSwordKey()</text>
<text text-anchor="start" x="143.5" y="-313" font-family="Helvetica,sans-Serif" font-size="10.00">#</text>
<text text-anchor="start" x="156.5" y="-313" font-family="Helvetica,sans-Serif" font-size="10.00">CSwordKey()</text>
<text text-anchor="start" x="143.5" y="-298" font-family="Helvetica,sans-Serif" font-size="10.00">#</text>
<text text-anchor="start" x="156.5" y="-298" font-family="Helvetica,sans-Serif" font-size="10.00">CSwordKey()</text>
<text text-anchor="start" x="143.5" y="-283" font-family="Helvetica,sans-Serif" font-size="10.00">#</text>
<text text-anchor="start" x="156.5" y="-283" font-family="Helvetica,sans-Serif" font-size="10.00">rawKey()</text>
<polygon fill="#666666" stroke="#666666" points="139.5,-563 139.5,-563 241.5,-563 241.5,-563 139.5,-563"/>
<polygon fill="#666666" stroke="#666666" points="139.5,-533 139.5,-533 154.5,-533 154.5,-533 139.5,-533"/>
<polygon fill="#666666" stroke="#666666" points="154.5,-533 154.5,-533 241.5,-533 241.5,-533 154.5,-533"/>
<polygon fill="none" stroke="#666666" points="139.5,-276 139.5,-580 241.5,-580 241.5,-276 139.5,-276"/>
</a>
</g>
</g>
<!-- Node2 -->
<g id="Node000002" class="node">
<title>Node2</title>
<g id="a_Node000002"><a xlink:href="../../de/d61/classCSwordLDKey.html" target="_top" xlink:title=" ">
<polygon fill="white" stroke="transparent" points="97,-234.5 0,-234.5 0,-5.5 97,-5.5 97,-234.5"/>
<text text-anchor="start" x="15" y="-222" font-family="Helvetica,sans-Serif" font-size="10.00">CSwordLDKey</text>
<text text-anchor="start" x="7" y="-207" font-family="Helvetica,sans-Serif" font-size="10.00">&#45;</text>
<text text-anchor="start" x="17.5" y="-207" font-family="Helvetica,sans-Serif" font-size="10.00">m_key</text>
<text text-anchor="start" x="4.5" y="-192" font-family="Helvetica,sans-Serif" font-size="10.00">+</text>
<text text-anchor="start" x="17.5" y="-192" font-family="Helvetica,sans-Serif" font-size="10.00">asSwordKey()</text>
<text text-anchor="start" x="4.5" y="-177" font-family="Helvetica,sans-Serif" font-size="10.00">+</text>
<text text-anchor="start" x="17.5" y="-177" font-family="Helvetica,sans-Serif" font-size="10.00">copy()</text>
<text text-anchor="start" x="4.5" y="-162" font-family="Helvetica,sans-Serif" font-size="10.00">+</text>
<text text-anchor="start" x="17.5" y="-162" font-family="Helvetica,sans-Serif" font-size="10.00">CSwordLDKey()</text>
<text text-anchor="start" x="4.5" y="-147" font-family="Helvetica,sans-Serif" font-size="10.00">+</text>
<text text-anchor="start" x="17.5" y="-147" font-family="Helvetica,sans-Serif" font-size="10.00">CSwordLDKey()</text>
<text text-anchor="start" x="4.5" y="-132" font-family="Helvetica,sans-Serif" font-size="10.00">+</text>
<text text-anchor="start" x="17.5" y="-132" font-family="Helvetica,sans-Serif" font-size="10.00">CSwordLDKey()</text>
<text text-anchor="start" x="4.5" y="-117" font-family="Helvetica,sans-Serif" font-size="10.00">+</text>
<text text-anchor="start" x="17.5" y="-117" font-family="Helvetica,sans-Serif" font-size="10.00">key()</text>
<text text-anchor="start" x="4.5" y="-102" font-family="Helvetica,sans-Serif" font-size="10.00">+</text>
<text text-anchor="start" x="17.5" y="-102" font-family="Helvetica,sans-Serif" font-size="10.00">NextEntry()</text>
<text text-anchor="start" x="4.5" y="-87" font-family="Helvetica,sans-Serif" font-size="10.00">+</text>
<text text-anchor="start" x="17.5" y="-87" font-family="Helvetica,sans-Serif" font-size="10.00">operator=()</text>
<text text-anchor="start" x="4.5" y="-72" font-family="Helvetica,sans-Serif" font-size="10.00">+</text>
<text text-anchor="start" x="17.5" y="-72" font-family="Helvetica,sans-Serif" font-size="10.00">PreviousEntry()</text>
<text text-anchor="start" x="4.5" y="-57" font-family="Helvetica,sans-Serif" font-size="10.00">+</text>
<text text-anchor="start" x="17.5" y="-57" font-family="Helvetica,sans-Serif" font-size="10.00">setKey()</text>
<text text-anchor="start" x="4.5" y="-42" font-family="Helvetica,sans-Serif" font-size="10.00">+</text>
<text text-anchor="start" x="17.5" y="-42" font-family="Helvetica,sans-Serif" font-size="10.00">setKey()</text>
<text text-anchor="start" x="4.5" y="-27" font-family="Helvetica,sans-Serif" font-size="10.00">+</text>
<text text-anchor="start" x="17.5" y="-27" font-family="Helvetica,sans-Serif" font-size="10.00">setModule()</text>
<text text-anchor="start" x="4.5" y="-12" font-family="Helvetica,sans-Serif" font-size="10.00">#</text>
<text text-anchor="start" x="17.5" y="-12" font-family="Helvetica,sans-Serif" font-size="10.00">rawKey()</text>
<polygon fill="#666666" stroke="#666666" points="0.5,-217 0.5,-217 97.5,-217 97.5,-217 0.5,-217"/>
<polygon fill="#666666" stroke="#666666" points="0.5,-202 0.5,-202 15.5,-202 15.5,-202 0.5,-202"/>
<polygon fill="#666666" stroke="#666666" points="15.5,-202 15.5,-202 97.5,-202 97.5,-202 15.5,-202"/>
<polygon fill="none" stroke="#666666" points="0,-5.5 0,-234.5 97,-234.5 97,-5.5 0,-5.5"/>
</a>
</g>
</g>
<!-- Node1&#45;&gt;Node2 -->
<g id="edge1_Node000001_Node000002" class="edge">
<title>Node1&#45;&gt;Node2</title>
<g id="a_edge1_Node000001_Node000002"><a xlink:title=" ">
<path fill="none" stroke="#63b8ff" d="M135.2,-307.83C122.63,-280.74 109.37,-252.16 97.1,-225.72"/>
<polygon fill="none" stroke="#63b8ff" points="132.05,-309.36 139.44,-316.96 138.4,-306.42 132.05,-309.36"/>
</a>
</g>
</g>
<!-- Node3 -->
<g id="Node000003" class="node">
<title>Node3</title>
<g id="a_Node000003"><a xlink:href="../../d7/d7a/classCSwordTreeKey.html" target="_top" xlink:title="CSwordKey implementation for Sword&#39;s TreeKey.">
<polygon fill="white" stroke="transparent" points="266,-232.5 115,-232.5 115,-7.5 266,-7.5 266,-232.5"/>
<text text-anchor="start" x="153" y="-220" font-family="Helvetica,sans-Serif" font-size="10.00">CSwordTreeKey</text>
<text text-anchor="start" x="122" y="-205" font-family="Helvetica,sans-Serif" font-size="10.00">&#45;</text>
<text text-anchor="start" x="132.5" y="-205" font-family="Helvetica,sans-Serif" font-size="10.00">m_key</text>
<text text-anchor="start" x="119.5" y="-190" font-family="Helvetica,sans-Serif" font-size="10.00">+</text>
<text text-anchor="start" x="132.5" y="-190" font-family="Helvetica,sans-Serif" font-size="10.00">asSwordKey()</text>
<text text-anchor="start" x="119.5" y="-175" font-family="Helvetica,sans-Serif" font-size="10.00">+</text>
<text text-anchor="start" x="132.5" y="-175" font-family="Helvetica,sans-Serif" font-size="10.00">BibleTime_CSwordTreeKey</text>
<text text-anchor="start" x="132.5" y="-164" font-family="Helvetica,sans-Serif" font-size="10.00">_DEFINE_COMP()</text>
<text text-anchor="start" x="119.5" y="-149" font-family="Helvetica,sans-Serif" font-size="10.00">+</text>
<text text-anchor="start" x="132.5" y="-149" font-family="Helvetica,sans-Serif" font-size="10.00">copy()</text>
<text text-anchor="start" x="119.5" y="-134" font-family="Helvetica,sans-Serif" font-size="10.00">+</text>
<text text-anchor="start" x="132.5" y="-134" font-family="Helvetica,sans-Serif" font-size="10.00">CSwordTreeKey()</text>
<text text-anchor="start" x="119.5" y="-119" font-family="Helvetica,sans-Serif" font-size="10.00">+</text>
<text text-anchor="start" x="132.5" y="-119" font-family="Helvetica,sans-Serif" font-size="10.00">CSwordTreeKey()</text>
<text text-anchor="start" x="119.5" y="-104" font-family="Helvetica,sans-Serif" font-size="10.00">+</text>
<text text-anchor="start" x="132.5" y="-104" font-family="Helvetica,sans-Serif" font-size="10.00">getLocalNameUnicode()</text>
<text text-anchor="start" x="119.5" y="-89" font-family="Helvetica,sans-Serif" font-size="10.00">+</text>
<text text-anchor="start" x="132.5" y="-89" font-family="Helvetica,sans-Serif" font-size="10.00">hasChildren()</text>
<text text-anchor="start" x="119.5" y="-74" font-family="Helvetica,sans-Serif" font-size="10.00">+</text>
<text text-anchor="start" x="132.5" y="-74" font-family="Helvetica,sans-Serif" font-size="10.00">key()</text>
<text text-anchor="start" x="119.5" y="-59" font-family="Helvetica,sans-Serif" font-size="10.00">+</text>
<text text-anchor="start" x="132.5" y="-59" font-family="Helvetica,sans-Serif" font-size="10.00">offset()</text>
<text text-anchor="start" x="119.5" y="-44" font-family="Helvetica,sans-Serif" font-size="10.00">+</text>
<text text-anchor="start" x="132.5" y="-44" font-family="Helvetica,sans-Serif" font-size="10.00">positionToFirstChild()</text>
<text text-anchor="start" x="132.5" y="-29" font-family="Helvetica,sans-Serif" font-size="10.00">and 7 more...</text>
<text text-anchor="start" x="119.5" y="-14" font-family="Helvetica,sans-Serif" font-size="10.00">#</text>
<text text-anchor="start" x="132.5" y="-14" font-family="Helvetica,sans-Serif" font-size="10.00">rawKey()</text>
<polygon fill="#666666" stroke="#666666" points="115.5,-215 115.5,-215 266.5,-215 266.5,-215 115.5,-215"/>
<polygon fill="#666666" stroke="#666666" points="115.5,-200 115.5,-200 130.5,-200 130.5,-200 115.5,-200"/>
<polygon fill="#666666" stroke="#666666" points="130.5,-200 130.5,-200 266.5,-200 266.5,-200 130.5,-200"/>
<polygon fill="none" stroke="#666666" points="115,-7.5 115,-232.5 266,-232.5 266,-7.5 115,-7.5"/>
</a>
</g>
</g>
<!-- Node1&#45;&gt;Node3 -->
<g id="edge2_Node000001_Node000003" class="edge">
<title>Node1&#45;&gt;Node3</title>
<g id="a_edge2_Node000001_Node000003"><a xlink:title=" ">
<path fill="none" stroke="#63b8ff" d="M190.5,-265.63C190.5,-254.58 190.5,-243.58 190.5,-232.88"/>
<polygon fill="none" stroke="#63b8ff" points="187,-265.79 190.5,-275.79 194,-265.79 187,-265.79"/>
</a>
</g>
</g>
<!-- Node4 -->
<g id="Node000004" class="node">
<title>Node4</title>
<g id="a_Node000004"><a xlink:href="../../d3/dae/classCSwordVerseKey.html" target="_top" xlink:title="CSwordKey implementation for Sword&#39;s VerseKey.">
<polygon fill="white" stroke="transparent" points="442.5,-240 284.5,-240 284.5,0 442.5,0 442.5,-240"/>
<text text-anchor="start" x="322.5" y="-228" font-family="Helvetica,sans-Serif" font-size="10.00">CSwordVerseKey</text>
<text text-anchor="start" x="291" y="-213" font-family="Helvetica,sans-Serif" font-size="10.00">&#45;</text>
<text text-anchor="start" x="301.5" y="-213" font-family="Helvetica,sans-Serif" font-size="10.00">m_afterChangedSignaller</text>
<text text-anchor="start" x="291" y="-198" font-family="Helvetica,sans-Serif" font-size="10.00">&#45;</text>
<text text-anchor="start" x="301.5" y="-198" font-family="Helvetica,sans-Serif" font-size="10.00">m_key</text>
<text text-anchor="start" x="288.5" y="-183" font-family="Helvetica,sans-Serif" font-size="10.00">+</text>
<text text-anchor="start" x="301.5" y="-183" font-family="Helvetica,sans-Serif" font-size="10.00">afterChangedSignaller()</text>
<text text-anchor="start" x="288.5" y="-168" font-family="Helvetica,sans-Serif" font-size="10.00">+</text>
<text text-anchor="start" x="301.5" y="-168" font-family="Helvetica,sans-Serif" font-size="10.00">asSwordKey()</text>
<text text-anchor="start" x="288.5" y="-153" font-family="Helvetica,sans-Serif" font-size="10.00">+</text>
<text text-anchor="start" x="301.5" y="-153" font-family="Helvetica,sans-Serif" font-size="10.00">bibleBook()</text>
<text text-anchor="start" x="288.5" y="-138" font-family="Helvetica,sans-Serif" font-size="10.00">+</text>
<text text-anchor="start" x="301.5" y="-138" font-family="Helvetica,sans-Serif" font-size="10.00">BibleTime_CSwordVerseKey</text>
<text text-anchor="start" x="301.5" y="-127" font-family="Helvetica,sans-Serif" font-size="10.00">_DEFINE_COMP()</text>
<text text-anchor="start" x="288.5" y="-112" font-family="Helvetica,sans-Serif" font-size="10.00">+</text>
<text text-anchor="start" x="301.5" y="-112" font-family="Helvetica,sans-Serif" font-size="10.00">book()</text>
<text text-anchor="start" x="288.5" y="-97" font-family="Helvetica,sans-Serif" font-size="10.00">+</text>
<text text-anchor="start" x="301.5" y="-97" font-family="Helvetica,sans-Serif" font-size="10.00">bookName()</text>
<text text-anchor="start" x="288.5" y="-82" font-family="Helvetica,sans-Serif" font-size="10.00">+</text>
<text text-anchor="start" x="301.5" y="-82" font-family="Helvetica,sans-Serif" font-size="10.00">chapter()</text>
<text text-anchor="start" x="288.5" y="-67" font-family="Helvetica,sans-Serif" font-size="10.00">+</text>
<text text-anchor="start" x="301.5" y="-67" font-family="Helvetica,sans-Serif" font-size="10.00">copy()</text>
<text text-anchor="start" x="288.5" y="-52" font-family="Helvetica,sans-Serif" font-size="10.00">+</text>
<text text-anchor="start" x="301.5" y="-52" font-family="Helvetica,sans-Serif" font-size="10.00">CSwordVerseKey()</text>
<text text-anchor="start" x="288.5" y="-37" font-family="Helvetica,sans-Serif" font-size="10.00">+</text>
<text text-anchor="start" x="301.5" y="-37" font-family="Helvetica,sans-Serif" font-size="10.00">CSwordVerseKey()</text>
<text text-anchor="start" x="301.5" y="-22" font-family="Helvetica,sans-Serif" font-size="10.00">and 32 more...</text>
<text text-anchor="start" x="288.5" y="-7" font-family="Helvetica,sans-Serif" font-size="10.00">#</text>
<text text-anchor="start" x="301.5" y="-7" font-family="Helvetica,sans-Serif" font-size="10.00">rawKey()</text>
<polygon fill="#666666" stroke="#666666" points="284.5,-223 284.5,-223 442.5,-223 442.5,-223 284.5,-223"/>
<polygon fill="#666666" stroke="#666666" points="284.5,-193 284.5,-193 299.5,-193 299.5,-193 284.5,-193"/>
<polygon fill="#666666" stroke="#666666" points="299.5,-193 299.5,-193 442.5,-193 442.5,-193 299.5,-193"/>
<polygon fill="none" stroke="#666666" points="284.5,0 284.5,-240 442.5,-240 442.5,0 284.5,0"/>
</a>
</g>
</g>
<!-- Node1&#45;&gt;Node4 -->
<g id="edge3_Node000001_Node000004" class="edge">
<title>Node1&#45;&gt;Node4</title>
<g id="a_edge3_Node000001_Node000004"><a xlink:title=" ">
<path fill="none" stroke="#63b8ff" d="M246.77,-327.47C262.55,-299.56 279.87,-268.93 296.22,-240.01"/>
<polygon fill="none" stroke="#63b8ff" points="243.58,-326 241.7,-336.43 249.67,-329.45 243.58,-326"/>
</a>
</g>
</g>
</g>
</svg>
