<?xml version="1.0" encoding="UTF-8" standalone="no"?>
<!DOCTYPE svg PUBLIC "-//W3C//DTD SVG 1.1//EN"
 "http://www.w3.org/Graphics/SVG/1.1/DTD/svg11.dtd">
<!-- Generated by graphviz version 2.43.0 (0)
 -->
<!-- Title: BtMenuView Pages: 1 -->
<!--zoomable 617 -->

<svg id="main" version="1.1" xmlns="http://www.w3.org/2000/svg" xmlns:xlink="http://www.w3.org/1999/xlink" xml:space="preserve" onload="init(evt)">
<style type="text/css"><![CDATA[
.node, .edge {opacity: 0.7;}
.node.selected, .edge.selected {opacity: 1;}
.edge:hover path { stroke: red; }
.edge:hover polygon { stroke: red; fill: red; }
]]></style>

<defs>
  <circle id="rim" cx="0" cy="0" r="7"/>
  <circle id="rim2" cx="0" cy="0" r="3.5"/>
  <g id="zoomPlus">
    <use xlink:href="#rim" fill="#404040"><set attributeName="fill" to="#808080" begin="zoomplus.mouseover" end="zoomplus.mouseout"/></use>
    <path d="M-4,0h8M0,-4v8" fill="none" stroke="white" stroke-width="1.5" pointer-events="none"/>
  </g>
  <g id="zoomMin">
    <use xlink:href="#rim" fill="#404040"><set attributeName="fill" to="#808080" begin="zoomminus.mouseover" end="zoomminus.mouseout"/></use>
    <path d="M-4,0h8" fill="none" stroke="white" stroke-width="1.5" pointer-events="none"/>
  </g>
  <g id="arrowUp" transform="translate(30 24)">
    <use xlink:href="#rim"/>
    <path pointer-events="none" fill="none" stroke="white" stroke-width="1.5" d="M0,-3.0v7 M-2.5,-0.5L0,-3.0L2.5,-0.5"/>
  </g>
  <g id="arrowRight" transform="rotate(90) translate(36 -43)">
    <use xlink:href="#rim"/>
    <path pointer-events="none" fill="none" stroke="white" stroke-width="1.5" d="M0,-3.0v7 M-2.5,-0.5L0,-3.0L2.5,-0.5"/>
  </g>
  <g id="arrowDown" transform="rotate(180) translate(-30 -48)">
    <use xlink:href="#rim"/>
    <path pointer-events="none" fill="none" stroke="white" stroke-width="1.5" d="M0,-3.0v7 M-2.5,-0.5L0,-3.0L2.5,-0.5"/>
  </g>
  <g id="arrowLeft" transform="rotate(270) translate(-36 17)">
    <use xlink:href="#rim"/>
    <path pointer-events="none" fill="none" stroke="white" stroke-width="1.5" d="M0,-3.0v7 M-2.5,-0.5L0,-3.0L2.5,-0.5"/>
  </g>
  <g id="resetDef">
    <use xlink:href="#rim2" fill="#404040"><set attributeName="fill" to="#808080" begin="reset.mouseover" end="reset.mouseout"/></use>
  </g>
</defs>
<script type="application/ecmascript">
var viewWidth = 316;
var viewHeight = 617;
var sectionId = 'dynsection-0';
</script>
<script type="application/ecmascript" xlink:href="../../svg.min.js"/>
<svg id="graph" class="graph">
<g id="viewport">
<title>BtMenuView</title>
<!-- Node1 -->
<g id="Node000001" class="node">
<title>Node1</title>
<g id="a_Node000001"><a xlink:title=" ">
<polygon fill="#999999" stroke="transparent" points="203,-524 101,-524 101,-280 203,-280 203,-524"/>
<text text-anchor="start" x="121" y="-512" font-family="Helvetica,sans-Serif" font-size="10.00">BtMenuView</text>
<text text-anchor="start" x="107.5" y="-497" font-family="Helvetica,sans-Serif" font-size="10.00">&#45;</text>
<text text-anchor="start" x="118" y="-497" font-family="Helvetica,sans-Serif" font-size="10.00">m_actions</text>
<text text-anchor="start" x="107.5" y="-482" font-family="Helvetica,sans-Serif" font-size="10.00">&#45;</text>
<text text-anchor="start" x="118" y="-482" font-family="Helvetica,sans-Serif" font-size="10.00">m_model</text>
<text text-anchor="start" x="105" y="-467" font-family="Helvetica,sans-Serif" font-size="10.00">+</text>
<text text-anchor="start" x="118" y="-467" font-family="Helvetica,sans-Serif" font-size="10.00">BtMenuView()</text>
<text text-anchor="start" x="105" y="-452" font-family="Helvetica,sans-Serif" font-size="10.00">+</text>
<text text-anchor="start" x="118" y="-452" font-family="Helvetica,sans-Serif" font-size="10.00">BtMenuView()</text>
<text text-anchor="start" x="105" y="-437" font-family="Helvetica,sans-Serif" font-size="10.00">+</text>
<text text-anchor="start" x="118" y="-437" font-family="Helvetica,sans-Serif" font-size="10.00">event()</text>
<text text-anchor="start" x="105" y="-422" font-family="Helvetica,sans-Serif" font-size="10.00">+</text>
<text text-anchor="start" x="118" y="-422" font-family="Helvetica,sans-Serif" font-size="10.00">model()</text>
<text text-anchor="start" x="105" y="-407" font-family="Helvetica,sans-Serif" font-size="10.00">+</text>
<text text-anchor="start" x="118" y="-407" font-family="Helvetica,sans-Serif" font-size="10.00">setModel()</text>
<text text-anchor="start" x="105" y="-392" font-family="Helvetica,sans-Serif" font-size="10.00">+</text>
<text text-anchor="start" x="118" y="-392" font-family="Helvetica,sans-Serif" font-size="10.00">~BtMenuView()</text>
<text text-anchor="start" x="105" y="-377" font-family="Helvetica,sans-Serif" font-size="10.00">#</text>
<text text-anchor="start" x="118" y="-377" font-family="Helvetica,sans-Serif" font-size="10.00">newAction()</text>
<text text-anchor="start" x="105" y="-362" font-family="Helvetica,sans-Serif" font-size="10.00">#</text>
<text text-anchor="start" x="118" y="-362" font-family="Helvetica,sans-Serif" font-size="10.00">newMenu()</text>
<text text-anchor="start" x="105" y="-347" font-family="Helvetica,sans-Serif" font-size="10.00">#</text>
<text text-anchor="start" x="118" y="-347" font-family="Helvetica,sans-Serif" font-size="10.00">postBuildMenu()</text>
<text text-anchor="start" x="105" y="-332" font-family="Helvetica,sans-Serif" font-size="10.00">#</text>
<text text-anchor="start" x="118" y="-332" font-family="Helvetica,sans-Serif" font-size="10.00">preBuildMenu()</text>
<text text-anchor="start" x="105" y="-317" font-family="Helvetica,sans-Serif" font-size="10.00">#</text>
<text text-anchor="start" x="118" y="-317" font-family="Helvetica,sans-Serif" font-size="10.00">rebuildMenu()</text>
<text text-anchor="start" x="107.5" y="-302" font-family="Helvetica,sans-Serif" font-size="10.00">&#45;</text>
<text text-anchor="start" x="118" y="-302" font-family="Helvetica,sans-Serif" font-size="10.00">buildMenu()</text>
<text text-anchor="start" x="107.5" y="-287" font-family="Helvetica,sans-Serif" font-size="10.00">&#45;</text>
<text text-anchor="start" x="118" y="-287" font-family="Helvetica,sans-Serif" font-size="10.00">removeMenus()</text>
<polygon fill="#666666" stroke="#666666" points="101,-507 101,-507 203,-507 203,-507 101,-507"/>
<polygon fill="#666666" stroke="#666666" points="101,-477 101,-477 116,-477 116,-477 101,-477"/>
<polygon fill="#666666" stroke="#666666" points="116,-477 116,-477 203,-477 203,-477 116,-477"/>
<polygon fill="none" stroke="#666666" points="101,-280 101,-524 203,-524 203,-280 101,-280"/>
</a>
</g>
</g>
<!-- Node3 -->
<g id="Node000003" class="node">
<title>Node3</title>
<g id="a_Node000003"><a xlink:href="../../d3/de9/classBtModuleChooserMenu.html" target="_top" xlink:title=" ">
<polygon fill="white" stroke="transparent" points="142,-244 0,-244 0,0 142,0 142,-244"/>
<text text-anchor="start" x="14" y="-232" font-family="Helvetica,sans-Serif" font-size="10.00">BtModuleChooserMenu</text>
<text text-anchor="start" x="4" y="-217" font-family="Helvetica,sans-Serif" font-size="10.00">+</text>
<text text-anchor="start" x="17" y="-217" font-family="Helvetica,sans-Serif" font-size="10.00">m_buttonIndex</text>
<text text-anchor="start" x="4" y="-202" font-family="Helvetica,sans-Serif" font-size="10.00">+</text>
<text text-anchor="start" x="17" y="-202" font-family="Helvetica,sans-Serif" font-size="10.00">m_flags</text>
<text text-anchor="start" x="4" y="-187" font-family="Helvetica,sans-Serif" font-size="10.00">+</text>
<text text-anchor="start" x="17" y="-187" font-family="Helvetica,sans-Serif" font-size="10.00">m_leftLikeModules</text>
<text text-anchor="start" x="4" y="-172" font-family="Helvetica,sans-Serif" font-size="10.00">+</text>
<text text-anchor="start" x="17" y="-172" font-family="Helvetica,sans-Serif" font-size="10.00">m_moduleType</text>
<text text-anchor="start" x="4" y="-157" font-family="Helvetica,sans-Serif" font-size="10.00">+</text>
<text text-anchor="start" x="17" y="-157" font-family="Helvetica,sans-Serif" font-size="10.00">m_newModulesToUse</text>
<text text-anchor="start" x="4" y="-142" font-family="Helvetica,sans-Serif" font-size="10.00">+</text>
<text text-anchor="start" x="17" y="-142" font-family="Helvetica,sans-Serif" font-size="10.00">m_selectedModule</text>
<text text-anchor="start" x="4" y="-127" font-family="Helvetica,sans-Serif" font-size="10.00">+</text>
<text text-anchor="start" x="17" y="-127" font-family="Helvetica,sans-Serif" font-size="10.00">m_sortedModel</text>
<text text-anchor="start" x="4" y="-112" font-family="Helvetica,sans-Serif" font-size="10.00">+</text>
<text text-anchor="start" x="17" y="-112" font-family="Helvetica,sans-Serif" font-size="10.00">BtModuleChooserMenu()</text>
<text text-anchor="start" x="4" y="-97" font-family="Helvetica,sans-Serif" font-size="10.00">+</text>
<text text-anchor="start" x="17" y="-97" font-family="Helvetica,sans-Serif" font-size="10.00">buttonIndex()</text>
<text text-anchor="start" x="4" y="-82" font-family="Helvetica,sans-Serif" font-size="10.00">+</text>
<text text-anchor="start" x="17" y="-82" font-family="Helvetica,sans-Serif" font-size="10.00">moduleType()</text>
<text text-anchor="start" x="4" y="-67" font-family="Helvetica,sans-Serif" font-size="10.00">+</text>
<text text-anchor="start" x="17" y="-67" font-family="Helvetica,sans-Serif" font-size="10.00">selectedModule()</text>
<text text-anchor="start" x="4" y="-52" font-family="Helvetica,sans-Serif" font-size="10.00">+</text>
<text text-anchor="start" x="17" y="-52" font-family="Helvetica,sans-Serif" font-size="10.00">setSelectedModule()</text>
<text text-anchor="start" x="4" y="-37" font-family="Helvetica,sans-Serif" font-size="10.00">+</text>
<text text-anchor="start" x="17" y="-37" font-family="Helvetica,sans-Serif" font-size="10.00">update()</text>
<text text-anchor="start" x="6.5" y="-22" font-family="Helvetica,sans-Serif" font-size="10.00">&#45;</text>
<text text-anchor="start" x="17" y="-22" font-family="Helvetica,sans-Serif" font-size="10.00">newAction()</text>
<text text-anchor="start" x="6.5" y="-7" font-family="Helvetica,sans-Serif" font-size="10.00">&#45;</text>
<text text-anchor="start" x="17" y="-7" font-family="Helvetica,sans-Serif" font-size="10.00">preBuildMenu()</text>
<polygon fill="#666666" stroke="#666666" points="0,-227 0,-227 142,-227 142,-227 0,-227"/>
<polygon fill="#666666" stroke="#666666" points="0,-122 0,-122 15,-122 15,-122 0,-122"/>
<polygon fill="#666666" stroke="#666666" points="15,-122 15,-122 142,-122 142,-122 15,-122"/>
<polygon fill="none" stroke="#666666" points="0,0 0,-244 142,-244 142,0 0,0"/>
</a>
</g>
</g>
<!-- Node1&#45;&gt;Node3 -->
<g id="edge2_Node000001_Node000003" class="edge">
<title>Node1&#45;&gt;Node3</title>
<g id="a_edge2_Node000001_Node000003"><a xlink:title=" ">
<path fill="none" stroke="#63b8ff" d="M113.87,-270.12C111.34,-261.46 108.81,-252.75 106.3,-244.14"/>
<polygon fill="none" stroke="#63b8ff" points="110.55,-271.25 116.71,-279.87 117.27,-269.29 110.55,-271.25"/>
</a>
</g>
</g>
<!-- Node4 -->
<g id="Node000004" class="node">
<title>Node4</title>
<g id="a_Node000004"><a xlink:href="../../de/d9e/classBtOpenWorkActionMenu.html" target="_top" xlink:title=" ">
<polygon fill="white" stroke="transparent" points="308,-221.5 160,-221.5 160,-22.5 308,-22.5 308,-221.5"/>
<text text-anchor="start" x="174.5" y="-209" font-family="Helvetica,sans-Serif" font-size="10.00">BtOpenWorkActionMenu</text>
<text text-anchor="start" x="166.5" y="-194" font-family="Helvetica,sans-Serif" font-size="10.00">&#45;</text>
<text text-anchor="start" x="177" y="-194" font-family="Helvetica,sans-Serif" font-size="10.00">m_groupingConfigGroup</text>
<text text-anchor="start" x="166.5" y="-179" font-family="Helvetica,sans-Serif" font-size="10.00">&#45;</text>
<text text-anchor="start" x="177" y="-179" font-family="Helvetica,sans-Serif" font-size="10.00">m_groupingConfigKey</text>
<text text-anchor="start" x="166.5" y="-164" font-family="Helvetica,sans-Serif" font-size="10.00">&#45;</text>
<text text-anchor="start" x="177" y="-164" font-family="Helvetica,sans-Serif" font-size="10.00">m_groupingMenu</text>
<text text-anchor="start" x="166.5" y="-149" font-family="Helvetica,sans-Serif" font-size="10.00">&#45;</text>
<text text-anchor="start" x="177" y="-149" font-family="Helvetica,sans-Serif" font-size="10.00">m_postFilterModel</text>
<text text-anchor="start" x="166.5" y="-134" font-family="Helvetica,sans-Serif" font-size="10.00">&#45;</text>
<text text-anchor="start" x="177" y="-134" font-family="Helvetica,sans-Serif" font-size="10.00">m_treeModel</text>
<text text-anchor="start" x="164" y="-119" font-family="Helvetica,sans-Serif" font-size="10.00">+</text>
<text text-anchor="start" x="177" y="-119" font-family="Helvetica,sans-Serif" font-size="10.00">BtOpenWorkActionMenu()</text>
<text text-anchor="start" x="164" y="-104" font-family="Helvetica,sans-Serif" font-size="10.00">+</text>
<text text-anchor="start" x="177" y="-104" font-family="Helvetica,sans-Serif" font-size="10.00">postFilterModel()</text>
<text text-anchor="start" x="164" y="-89" font-family="Helvetica,sans-Serif" font-size="10.00">+</text>
<text text-anchor="start" x="177" y="-89" font-family="Helvetica,sans-Serif" font-size="10.00">setSourceModel()</text>
<text text-anchor="start" x="164" y="-74" font-family="Helvetica,sans-Serif" font-size="10.00">+</text>
<text text-anchor="start" x="177" y="-74" font-family="Helvetica,sans-Serif" font-size="10.00">sourceModel()</text>
<text text-anchor="start" x="164" y="-59" font-family="Helvetica,sans-Serif" font-size="10.00">+</text>
<text text-anchor="start" x="177" y="-59" font-family="Helvetica,sans-Serif" font-size="10.00">treeModel()</text>
<text text-anchor="start" x="166.5" y="-44" font-family="Helvetica,sans-Serif" font-size="10.00">&#45;</text>
<text text-anchor="start" x="177" y="-44" font-family="Helvetica,sans-Serif" font-size="10.00">postBuildMenu()</text>
<text text-anchor="start" x="166.5" y="-29" font-family="Helvetica,sans-Serif" font-size="10.00">&#45;</text>
<text text-anchor="start" x="177" y="-29" font-family="Helvetica,sans-Serif" font-size="10.00">retranslateUi()</text>
<polygon fill="#666666" stroke="#666666" points="160,-204 160,-204 308,-204 308,-204 160,-204"/>
<polygon fill="#666666" stroke="#666666" points="160,-129 160,-129 175,-129 175,-129 160,-129"/>
<polygon fill="#666666" stroke="#666666" points="175,-129 175,-129 308,-129 308,-129 175,-129"/>
<polygon fill="none" stroke="#666666" points="160,-22.5 160,-221.5 308,-221.5 308,-22.5 160,-22.5"/>
</a>
</g>
</g>
<!-- Node1&#45;&gt;Node4 -->
<g id="edge3_Node000001_Node000004" class="edge">
<title>Node1&#45;&gt;Node4</title>
<g id="a_edge3_Node000001_Node000004"><a xlink:title=" ">
<path fill="none" stroke="#63b8ff" d="M190.56,-270.26C195.39,-253.9 200.26,-237.39 204.91,-221.63"/>
<polygon fill="none" stroke="#63b8ff" points="187.2,-269.29 187.73,-279.87 193.91,-271.27 187.2,-269.29"/>
</a>
</g>
</g>
<!-- Node2 -->
<g id="Node000002" class="node">
<title>Node2</title>
<g id="a_Node000002"><a xlink:href="../../de/d3d/classQMenu.html" target="_top" xlink:title=" ">
<polygon fill="white" stroke="transparent" points="174.5,-609 129.5,-609 129.5,-560 174.5,-560 174.5,-609"/>
<text text-anchor="start" x="135" y="-596.5" font-family="Helvetica,sans-Serif" font-size="10.00">QMenu</text>
<text text-anchor="start" x="150.5" y="-581.5" font-family="Helvetica,sans-Serif" font-size="10.00"> </text>
<text text-anchor="start" x="150.5" y="-566.5" font-family="Helvetica,sans-Serif" font-size="10.00"> </text>
<polygon fill="#666666" stroke="#666666" points="130,-591.5 130,-591.5 175,-591.5 175,-591.5 130,-591.5"/>
<polygon fill="#666666" stroke="#666666" points="130,-576.5 130,-576.5 175,-576.5 175,-576.5 130,-576.5"/>
<polygon fill="none" stroke="#666666" points="129.5,-560 129.5,-609 174.5,-609 174.5,-560 129.5,-560"/>
</a>
</g>
</g>
<!-- Node2&#45;&gt;Node1 -->
<g id="edge1_Node000001_Node000002" class="edge">
<title>Node2&#45;&gt;Node1</title>
<g id="a_edge1_Node000001_Node000002"><a xlink:title=" ">
<path fill="none" stroke="#63b8ff" d="M152,-549.65C152,-541.93 152,-533.29 152,-524.18"/>
<polygon fill="none" stroke="#63b8ff" points="148.5,-549.9 152,-559.9 155.5,-549.9 148.5,-549.9"/>
</a>
</g>
</g>
</g>
</svg>

<g id="navigator" transform="translate(0 0)" fill="#404254">
  <rect fill="#f2f5e9" fill-opacity="0.5" stroke="#606060" stroke-width=".5" x="0" y="0" width="60" height="60"/>
  <use id="zoomplus" xlink:href="#zoomPlus" x="17" y="9" onmousedown="handleZoom(evt,'in')"/>
  <use id="zoomminus" xlink:href="#zoomMin" x="42" y="9" onmousedown="handleZoom(evt,'out')"/>
  <use id="reset" xlink:href="#resetDef" x="30" y="36" onmousedown="handleReset()"/>
   <use id="arrowup" xlink:href="#arrowUp" x="0" y="0" onmousedown="handlePan(0,-1)"/>
  <use id="arrowright" xlink:href="#arrowRight" x="0" y="0" onmousedown="handlePan(1,0)"/>
  <use id="arrowdown" xlink:href="#arrowDown" x="0" y="0" onmousedown="handlePan(0,1)"/>
  <use id="arrowleft" xlink:href="#arrowLeft" x="0" y="0" onmousedown="handlePan(-1,0)"/>
</g>
<svg viewBox="0 0 15 15" width="100%" height="30px" preserveAspectRatio="xMaxYMin meet">
 <g id="arrow_out" transform="scale(0.3 0.3)">
  <a xlink:href="classBtMenuView__inherit__graph_org.svg" target="_base">
   <rect id="button" ry="5" rx="5" y="6" x="6" height="38" width="38"
        fill="#f2f5e9" fill-opacity="0.5" stroke="#606060" stroke-width="1.0"/>
   <path id="arrow"
     d="M 11.500037,31.436501 C 11.940474,20.09759 22.043105,11.32322 32.158766,21.979434 L 37.068811,17.246167 C 37.068811,17.246167 37.088388,32 37.088388,32 L 22.160133,31.978069 C 22.160133,31.978069 26.997745,27.140456 26.997745,27.140456 C 18.528582,18.264221 13.291696,25.230495 11.500037,31.436501 z"
     style="fill:#404040;"/>
  </a>
 </g>
</svg>

<style type='text/css'>
<![CDATA[
[data-mouse-over-selected='false'] { opacity: 0.7; }
[data-mouse-over-selected='true']  { opacity: 1.0; }
]]>
</style>
<script type="application/ecmascript"><![CDATA[
document.addEventListener('DOMContentLoaded', (event) => {
  highlightEdges();
  highlightAdjacentNodes();
});
]]></script>
</svg>
