<?xml version="1.0" encoding="UTF-8" standalone="no"?>
<!DOCTYPE svg PUBLIC "-//W3C//DTD SVG 1.1//EN"
 "http://www.w3.org/Graphics/SVG/1.1/DTD/svg11.dtd">
<!-- Generated by graphviz version 2.43.0 (0)
 -->
<!-- Title: BtMenuView Pages: 1 -->
<svg width="330pt" height="540pt"
 viewBox="0.00 0.00 329.50 540.00" xmlns="http://www.w3.org/2000/svg" xmlns:xlink="http://www.w3.org/1999/xlink">
<g id="graph0" class="graph" transform="scale(1 1) rotate(0) translate(4 536)">
<title>BtMenuView</title>
<polygon fill="white" stroke="transparent" points="-4,4 -4,-536 325.5,-536 325.5,4 -4,4"/>
<!-- Node1 -->
<g id="node1" class="node">
<title>Node1</title>
<g id="a_node1"><a xlink:title=" ">
<polygon fill="#bfbfbf" stroke="black" points="105.5,-237.5 105.5,-437.5 213.5,-437.5 213.5,-237.5 105.5,-237.5"/>
<text text-anchor="middle" x="159.5" y="-425.5" font-family="Helvetica,sans-Serif" font-size="10.00">BtMenuView</text>
<polyline fill="none" stroke="black" points="105.5,-418.5 213.5,-418.5 "/>
<text text-anchor="start" x="113.5" y="-406.5" font-family="Helvetica,sans-Serif" font-size="10.00">&#45; m_actions</text>
<text text-anchor="start" x="113.5" y="-395.5" font-family="Helvetica,sans-Serif" font-size="10.00">&#45; m_model</text>
<polyline fill="none" stroke="black" points="105.5,-388.5 213.5,-388.5 "/>
<text text-anchor="start" x="113.5" y="-376.5" font-family="Helvetica,sans-Serif" font-size="10.00">+ BtMenuView()</text>
<text text-anchor="start" x="113.5" y="-365.5" font-family="Helvetica,sans-Serif" font-size="10.00">+ BtMenuView()</text>
<text text-anchor="start" x="113.5" y="-354.5" font-family="Helvetica,sans-Serif" font-size="10.00">+ event()</text>
<text text-anchor="start" x="113.5" y="-343.5" font-family="Helvetica,sans-Serif" font-size="10.00">+ model()</text>
<text text-anchor="start" x="113.5" y="-332.5" font-family="Helvetica,sans-Serif" font-size="10.00">+ setModel()</text>
<text text-anchor="start" x="113.5" y="-321.5" font-family="Helvetica,sans-Serif" font-size="10.00">+ ~BtMenuView()</text>
<text text-anchor="start" x="113.5" y="-310.5" font-family="Helvetica,sans-Serif" font-size="10.00"># newAction()</text>
<text text-anchor="start" x="113.5" y="-299.5" font-family="Helvetica,sans-Serif" font-size="10.00"># newMenu()</text>
<text text-anchor="start" x="113.5" y="-288.5" font-family="Helvetica,sans-Serif" font-size="10.00"># postBuildMenu()</text>
<text text-anchor="start" x="113.5" y="-277.5" font-family="Helvetica,sans-Serif" font-size="10.00"># preBuildMenu()</text>
<text text-anchor="start" x="113.5" y="-266.5" font-family="Helvetica,sans-Serif" font-size="10.00"># rebuildMenu()</text>
<text text-anchor="start" x="113.5" y="-255.5" font-family="Helvetica,sans-Serif" font-size="10.00">&#45; buildMenu()</text>
<text text-anchor="start" x="113.5" y="-244.5" font-family="Helvetica,sans-Serif" font-size="10.00">&#45; removeMenus()</text>
</a>
</g>
</g>
<!-- Node3 -->
<g id="node3" class="node">
<title>Node3</title>
<g id="a_node3"><a xlink:href="../../d3/de9/classBtModuleChooserMenu.html" target="_top" xlink:title=" ">
<polygon fill="white" stroke="black" points="0,-0.5 0,-200.5 149,-200.5 149,-0.5 0,-0.5"/>
<text text-anchor="middle" x="74.5" y="-188.5" font-family="Helvetica,sans-Serif" font-size="10.00">BtModuleChooserMenu</text>
<polyline fill="none" stroke="black" points="0,-181.5 149,-181.5 "/>
<text text-anchor="start" x="8" y="-169.5" font-family="Helvetica,sans-Serif" font-size="10.00">+ m_buttonIndex</text>
<text text-anchor="start" x="8" y="-158.5" font-family="Helvetica,sans-Serif" font-size="10.00">+ m_flags</text>
<text text-anchor="start" x="8" y="-147.5" font-family="Helvetica,sans-Serif" font-size="10.00">+ m_leftLikeModules</text>
<text text-anchor="start" x="8" y="-136.5" font-family="Helvetica,sans-Serif" font-size="10.00">+ m_moduleType</text>
<text text-anchor="start" x="8" y="-125.5" font-family="Helvetica,sans-Serif" font-size="10.00">+ m_newModulesToUse</text>
<text text-anchor="start" x="8" y="-114.5" font-family="Helvetica,sans-Serif" font-size="10.00">+ m_selectedModule</text>
<text text-anchor="start" x="8" y="-103.5" font-family="Helvetica,sans-Serif" font-size="10.00">+ m_sortedModel</text>
<polyline fill="none" stroke="black" points="0,-96.5 149,-96.5 "/>
<text text-anchor="start" x="8" y="-84.5" font-family="Helvetica,sans-Serif" font-size="10.00">+ BtModuleChooserMenu()</text>
<text text-anchor="start" x="8" y="-73.5" font-family="Helvetica,sans-Serif" font-size="10.00">+ buttonIndex()</text>
<text text-anchor="start" x="8" y="-62.5" font-family="Helvetica,sans-Serif" font-size="10.00">+ moduleType()</text>
<text text-anchor="start" x="8" y="-51.5" font-family="Helvetica,sans-Serif" font-size="10.00">+ selectedModule()</text>
<text text-anchor="start" x="8" y="-40.5" font-family="Helvetica,sans-Serif" font-size="10.00">+ setSelectedModule()</text>
<text text-anchor="start" x="8" y="-29.5" font-family="Helvetica,sans-Serif" font-size="10.00">+ update()</text>
<text text-anchor="start" x="8" y="-18.5" font-family="Helvetica,sans-Serif" font-size="10.00">&#45; newAction()</text>
<text text-anchor="start" x="8" y="-7.5" font-family="Helvetica,sans-Serif" font-size="10.00">&#45; preBuildMenu()</text>
</a>
</g>
</g>
<!-- Node1&#45;&gt;Node3 -->
<g id="edge2" class="edge">
<title>Node1&#45;&gt;Node3</title>
<path fill="none" stroke="midnightblue" d="M120.09,-227.55C116.87,-218.65 113.63,-209.67 110.43,-200.84"/>
<polygon fill="none" stroke="midnightblue" points="116.88,-228.97 123.58,-237.18 123.47,-226.59 116.88,-228.97"/>
</g>
<!-- Node4 -->
<g id="node4" class="node">
<title>Node4</title>
<g id="a_node4"><a xlink:href="../../de/d9e/classBtOpenWorkActionMenu.html" target="_top" xlink:title=" ">
<polygon fill="white" stroke="black" points="167.5,-17 167.5,-184 321.5,-184 321.5,-17 167.5,-17"/>
<text text-anchor="middle" x="244.5" y="-172" font-family="Helvetica,sans-Serif" font-size="10.00">BtOpenWorkActionMenu</text>
<polyline fill="none" stroke="black" points="167.5,-165 321.5,-165 "/>
<text text-anchor="start" x="175.5" y="-153" font-family="Helvetica,sans-Serif" font-size="10.00">&#45; m_groupingConfigGroup</text>
<text text-anchor="start" x="175.5" y="-142" font-family="Helvetica,sans-Serif" font-size="10.00">&#45; m_groupingConfigKey</text>
<text text-anchor="start" x="175.5" y="-131" font-family="Helvetica,sans-Serif" font-size="10.00">&#45; m_groupingMenu</text>
<text text-anchor="start" x="175.5" y="-120" font-family="Helvetica,sans-Serif" font-size="10.00">&#45; m_postFilterModel</text>
<text text-anchor="start" x="175.5" y="-109" font-family="Helvetica,sans-Serif" font-size="10.00">&#45; m_treeModel</text>
<polyline fill="none" stroke="black" points="167.5,-102 321.5,-102 "/>
<text text-anchor="start" x="175.5" y="-90" font-family="Helvetica,sans-Serif" font-size="10.00">+ BtOpenWorkActionMenu()</text>
<text text-anchor="start" x="175.5" y="-79" font-family="Helvetica,sans-Serif" font-size="10.00">+ postFilterModel()</text>
<text text-anchor="start" x="175.5" y="-68" font-family="Helvetica,sans-Serif" font-size="10.00">+ setSourceModel()</text>
<text text-anchor="start" x="175.5" y="-57" font-family="Helvetica,sans-Serif" font-size="10.00">+ sourceModel()</text>
<text text-anchor="start" x="175.5" y="-46" font-family="Helvetica,sans-Serif" font-size="10.00">+ treeModel()</text>
<text text-anchor="start" x="175.5" y="-35" font-family="Helvetica,sans-Serif" font-size="10.00">&#45; postBuildMenu()</text>
<text text-anchor="start" x="175.5" y="-24" font-family="Helvetica,sans-Serif" font-size="10.00">&#45; retranslateUi()</text>
</a>
</g>
</g>
<!-- Node1&#45;&gt;Node4 -->
<g id="edge3" class="edge">
<title>Node1&#45;&gt;Node4</title>
<path fill="none" stroke="midnightblue" d="M198.88,-227.61C204.17,-213 209.52,-198.21 214.6,-184.16"/>
<polygon fill="none" stroke="midnightblue" points="195.53,-226.59 195.42,-237.18 202.12,-228.97 195.53,-226.59"/>
</g>
<!-- Node2 -->
<g id="node2" class="node">
<title>Node2</title>
<g id="a_node2"><a xlink:href="../../de/d3d/classQMenu.html" target="_top" xlink:title=" ">
<polygon fill="white" stroke="black" points="134,-474.5 134,-531.5 185,-531.5 185,-474.5 134,-474.5"/>
<text text-anchor="middle" x="159.5" y="-519.5" font-family="Helvetica,sans-Serif" font-size="10.00">QMenu</text>
<polyline fill="none" stroke="black" points="134,-512.5 185,-512.5 "/>
<text text-anchor="middle" x="159.5" y="-500.5" font-family="Helvetica,sans-Serif" font-size="10.00"> </text>
<polyline fill="none" stroke="black" points="134,-493.5 185,-493.5 "/>
<text text-anchor="middle" x="159.5" y="-481.5" font-family="Helvetica,sans-Serif" font-size="10.00"> </text>
</a>
</g>
</g>
<!-- Node2&#45;&gt;Node1 -->
<g id="edge1" class="edge">
<title>Node2&#45;&gt;Node1</title>
<path fill="none" stroke="midnightblue" d="M159.5,-464.04C159.5,-455.87 159.5,-446.87 159.5,-437.55"/>
<polygon fill="none" stroke="midnightblue" points="156,-464.26 159.5,-474.26 163,-464.26 156,-464.26"/>
</g>
</g>
</svg>
