<?xml version="1.0" encoding="UTF-8" standalone="no"?>
<!DOCTYPE svg PUBLIC "-//W3C//DTD SVG 1.1//EN"
 "http://www.w3.org/Graphics/SVG/1.1/DTD/svg11.dtd">
<!-- Generated by graphviz version 2.43.0 (0)
 -->
<!-- Title: csearchanalysislegenditem.h Pages: 1 -->
<svg width="813pt" height="140pt"
 viewBox="0.00 0.00 812.50 140.00" xmlns="http://www.w3.org/2000/svg" xmlns:xlink="http://www.w3.org/1999/xlink">
<g id="graph0" class="graph" transform="scale(1 1) rotate(0) translate(4 136)">
<title>csearchanalysislegenditem.h</title>
<polygon fill="white" stroke="transparent" points="-4,4 -4,-136 808.5,-136 808.5,4 -4,4"/>
<!-- Node1 -->
<g id="node1" class="node">
<title>Node1</title>
<g id="a_node1"><a xlink:title=" ">
<polygon fill="#bfbfbf" stroke="black" points="436,-112.5 436,-131.5 595,-131.5 595,-112.5 436,-112.5"/>
<text text-anchor="middle" x="515.5" y="-119.5" font-family="Helvetica,sans-Serif" font-size="10.00">csearchanalysislegenditem.h</text>
</a>
</g>
</g>
<!-- Node2 -->
<g id="node2" class="node">
<title>Node2</title>
<g id="a_node2"><a xlink:href="../../df/dce/csearchanalysisscene_8h.html" target="_top" xlink:title=" ">
<polygon fill="white" stroke="black" points="402.5,-56.5 402.5,-75.5 534.5,-75.5 534.5,-56.5 402.5,-56.5"/>
<text text-anchor="middle" x="468.5" y="-63.5" font-family="Helvetica,sans-Serif" font-size="10.00">csearchanalysisscene.h</text>
</a>
</g>
</g>
<!-- Node1&#45;&gt;Node2 -->
<g id="edge1" class="edge">
<title>Node1&#45;&gt;Node2</title>
<path fill="none" stroke="midnightblue" d="M501.08,-104.43C492.84,-94.97 482.85,-83.48 476.12,-75.75"/>
<polygon fill="midnightblue" stroke="midnightblue" points="498.53,-106.84 507.74,-112.08 503.81,-102.24 498.53,-106.84"/>
</g>
<!-- Node5 -->
<g id="node5" class="node">
<title>Node5</title>
<g id="a_node5"><a xlink:href="../../db/d06/csearchanalysislegenditem_8cpp.html" target="_top" xlink:title=" ">
<polygon fill="white" stroke="black" points="634.5,-0.5 634.5,-19.5 804.5,-19.5 804.5,-0.5 634.5,-0.5"/>
<text text-anchor="middle" x="719.5" y="-7.5" font-family="Helvetica,sans-Serif" font-size="10.00">csearchanalysislegenditem.cpp</text>
</a>
</g>
</g>
<!-- Node1&#45;&gt;Node5 -->
<g id="edge7" class="edge">
<title>Node1&#45;&gt;Node5</title>
<path fill="none" stroke="midnightblue" d="M540.37,-107.59C582.84,-84.69 668.18,-38.67 703.57,-19.59"/>
<polygon fill="midnightblue" stroke="midnightblue" points="538.65,-104.54 531.51,-112.37 541.97,-110.7 538.65,-104.54"/>
</g>
<!-- Node3 -->
<g id="node3" class="node">
<title>Node3</title>
<g id="a_node3"><a xlink:href="../../d9/da2/csearchanalysisdialog_8cpp.html" target="_top" xlink:title=" ">
<polygon fill="white" stroke="black" points="0,-0.5 0,-19.5 145,-19.5 145,-0.5 0,-0.5"/>
<text text-anchor="middle" x="72.5" y="-7.5" font-family="Helvetica,sans-Serif" font-size="10.00">csearchanalysisdialog.cpp</text>
</a>
</g>
</g>
<!-- Node2&#45;&gt;Node3 -->
<g id="edge2" class="edge">
<title>Node2&#45;&gt;Node3</title>
<path fill="none" stroke="midnightblue" d="M395.48,-55.04C320.68,-44.84 205.65,-29.16 134.95,-19.52"/>
<polygon fill="midnightblue" stroke="midnightblue" points="395.37,-58.56 405.75,-56.44 396.32,-51.62 395.37,-58.56"/>
</g>
<!-- Node4 -->
<g id="node4" class="node">
<title>Node4</title>
<g id="a_node4"><a xlink:href="../../d7/dd2/csearchanalysisitem_8cpp.html" target="_top" xlink:title=" ">
<polygon fill="white" stroke="black" points="163,-0.5 163,-19.5 300,-19.5 300,-0.5 163,-0.5"/>
<text text-anchor="middle" x="231.5" y="-7.5" font-family="Helvetica,sans-Serif" font-size="10.00">csearchanalysisitem.cpp</text>
</a>
</g>
</g>
<!-- Node2&#45;&gt;Node4 -->
<g id="edge3" class="edge">
<title>Node2&#45;&gt;Node4</title>
<path fill="none" stroke="midnightblue" d="M421.18,-54.22C376.39,-44.01 310.06,-28.9 268.88,-19.52"/>
<polygon fill="midnightblue" stroke="midnightblue" points="420.42,-57.63 430.95,-56.44 421.97,-50.81 420.42,-57.63"/>
</g>
<!-- Node2&#45;&gt;Node5 -->
<g id="edge4" class="edge">
<title>Node2&#45;&gt;Node5</title>
<path fill="none" stroke="midnightblue" d="M518.32,-54.28C565.75,-44.08 636.2,-28.92 679.91,-19.52"/>
<polygon fill="midnightblue" stroke="midnightblue" points="517.31,-50.92 508.27,-56.44 518.78,-57.76 517.31,-50.92"/>
</g>
<!-- Node6 -->
<g id="node6" class="node">
<title>Node6</title>
<g id="a_node6"><a xlink:href="../../d6/dd0/csearchanalysisscene_8cpp.html" target="_top" xlink:title=" ">
<polygon fill="white" stroke="black" points="318,-0.5 318,-19.5 461,-19.5 461,-0.5 318,-0.5"/>
<text text-anchor="middle" x="389.5" y="-7.5" font-family="Helvetica,sans-Serif" font-size="10.00">csearchanalysisscene.cpp</text>
</a>
</g>
</g>
<!-- Node2&#45;&gt;Node6 -->
<g id="edge5" class="edge">
<title>Node2&#45;&gt;Node6</title>
<path fill="none" stroke="midnightblue" d="M447.47,-50.62C433.03,-40.76 414.36,-27.99 402.16,-19.65"/>
<polygon fill="midnightblue" stroke="midnightblue" points="445.58,-53.57 455.81,-56.32 449.53,-47.79 445.58,-53.57"/>
</g>
<!-- Node7 -->
<g id="node7" class="node">
<title>Node7</title>
<g id="a_node7"><a xlink:href="../../dc/d53/csearchanalysisview_8cpp.html" target="_top" xlink:title=" ">
<polygon fill="white" stroke="black" points="479,-0.5 479,-19.5 616,-19.5 616,-0.5 479,-0.5"/>
<text text-anchor="middle" x="547.5" y="-7.5" font-family="Helvetica,sans-Serif" font-size="10.00">csearchanalysisview.cpp</text>
</a>
</g>
</g>
<!-- Node2&#45;&gt;Node7 -->
<g id="edge6" class="edge">
<title>Node2&#45;&gt;Node7</title>
<path fill="none" stroke="midnightblue" d="M489.53,-50.62C503.97,-40.76 522.64,-27.99 534.84,-19.65"/>
<polygon fill="midnightblue" stroke="midnightblue" points="487.47,-47.79 481.19,-56.32 491.42,-53.57 487.47,-47.79"/>
</g>
</g>
</svg>
