<?xml version="1.0" encoding="UTF-8" standalone="no"?>
<!DOCTYPE svg PUBLIC "-//W3C//DTD SVG 1.1//EN"
 "http://www.w3.org/Graphics/SVG/1.1/DTD/svg11.dtd">
<!-- Generated by graphviz version 2.43.0 (0)
 -->
<!-- Title: messagedialog.h Pages: 1 -->
<!--zoomable 84 -->
<svg id="main" version="1.1" xmlns="http://www.w3.org/2000/svg" xmlns:xlink="http://www.w3.org/1999/xlink" xml:space="preserve" onload="init(evt)">
<style type="text/css"><![CDATA[
.edge:hover path { stroke: red; }
.edge:hover polygon { stroke: red; fill: red; }
]]></style>
<script type="text/javascript"><![CDATA[
var edges = document.getElementsByTagName('g');
if (edges && edges.length) {
  for (var i=0;i<edges.length;i++) {
    if (edges[i].id.substr(0,4)=='edge') {
      edges[i].setAttribute('class','edge');
    }
  }
}
]]></script>
        <defs>
                <circle id="rim" cx="0" cy="0" r="7"/>
                <circle id="rim2" cx="0" cy="0" r="3.5"/>
                <g id="zoomPlus">
                        <use xlink:href="#rim" fill="#404040">
                                <set attributeName="fill" to="#808080" begin="zoomplus.mouseover" end="zoomplus.mouseout"/>
                        </use>
                        <path d="M-4,0h8M0,-4v8" fill="none" stroke="white" stroke-width="1.5" pointer-events="none"/>
                </g>
                <g id="zoomMin">
                        <use xlink:href="#rim" fill="#404040">
                                <set attributeName="fill" to="#808080" begin="zoomminus.mouseover" end="zoomminus.mouseout"/>
                        </use>
                        <path d="M-4,0h8" fill="none" stroke="white" stroke-width="1.5" pointer-events="none"/>
                </g>
                <g id="dirArrow">
                        <path fill="none" stroke="white" stroke-width="1.5" d="M0,-3.0v7 M-2.5,-0.5L0,-3.0L2.5,-0.5"/>
                </g>
               <g id="resetDef">
                       <use xlink:href="#rim2" fill="#404040">
                               <set attributeName="fill" to="#808080" begin="reset.mouseover" end="reset.mouseout"/>
                       </use>
               </g>
        </defs>

<script type="text/javascript">
var viewWidth = 3094;
var viewHeight = 84;
var sectionId = 'dynsection-0';
</script>
<script xlink:href="../../svgpan.js"/>
<svg id="graph" class="graph">
<g id="viewport">
<title>messagedialog.h</title>
<polygon fill="white" stroke="transparent" points="-4,4 -4,-80 3090,-80 3090,4 -4,4"/>
<!-- Node1 -->
<g id="node1" class="node">
<title>Node1</title>
<g id="a_node1"><a xlink:title=" ">
<polygon fill="#bfbfbf" stroke="black" points="1524.5,-56.5 1524.5,-75.5 1624.5,-75.5 1624.5,-56.5 1524.5,-56.5"/>
<text text-anchor="middle" x="1574.5" y="-63.5" font-family="Helvetica,sans-Serif" font-size="10.00">messagedialog.h</text>
</a>
</g>
</g>
<!-- Node2 -->
<g id="node2" class="node">
<title>Node2</title>
<g id="a_node2"><a xlink:href="../../d1/df6/bibletime_8cpp.html" target="_top" xlink:title=" ">
<polygon fill="white" stroke="black" points="0,-0.5 0,-19.5 83,-19.5 83,-0.5 0,-0.5"/>
<text text-anchor="middle" x="41.5" y="-7.5" font-family="Helvetica,sans-Serif" font-size="10.00">bibletime.cpp</text>
</a>
</g>
</g>
<!-- Node1&#45;&gt;Node2 -->
<g id="edge1" class="edge">
<title>Node1&#45;&gt;Node2</title>
<path fill="none" stroke="midnightblue" d="M1513.91,-64.33C1272.05,-61.46 375.08,-49.07 92.5,-20 89.46,-19.69 86.33,-19.3 83.18,-18.86"/>
<polygon fill="midnightblue" stroke="midnightblue" points="1514.22,-67.83 1524.26,-64.45 1514.31,-60.83 1514.22,-67.83"/>
</g>
<!-- Node3 -->
<g id="node3" class="node">
<title>Node3</title>
<g id="a_node3"><a xlink:href="../../d6/d96/bibletime__slots_8cpp.html" target="_top" xlink:title=" ">
<polygon fill="white" stroke="black" points="101.5,-0.5 101.5,-19.5 213.5,-19.5 213.5,-0.5 101.5,-0.5"/>
<text text-anchor="middle" x="157.5" y="-7.5" font-family="Helvetica,sans-Serif" font-size="10.00">bibletime_slots.cpp</text>
</a>
</g>
</g>
<!-- Node1&#45;&gt;Node3 -->
<g id="edge2" class="edge">
<title>Node1&#45;&gt;Node3</title>
<path fill="none" stroke="midnightblue" d="M1514.29,-65.23C1324.25,-65.48 720.24,-62.62 222.5,-20 219.66,-19.76 216.76,-19.48 213.83,-19.17"/>
<polygon fill="midnightblue" stroke="midnightblue" points="1514.37,-68.73 1524.36,-65.21 1514.35,-61.73 1514.37,-68.73"/>
</g>
<!-- Node4 -->
<g id="node4" class="node">
<title>Node4</title>
<g id="a_node4"><a xlink:href="../../d5/d86/bibletimeapp_8cpp.html" target="_top" xlink:title=" ">
<polygon fill="white" stroke="black" points="232,-0.5 232,-19.5 333,-19.5 333,-0.5 232,-0.5"/>
<text text-anchor="middle" x="282.5" y="-7.5" font-family="Helvetica,sans-Serif" font-size="10.00">bibletimeapp.cpp</text>
</a>
</g>
</g>
<!-- Node1&#45;&gt;Node4 -->
<g id="edge3" class="edge">
<title>Node1&#45;&gt;Node4</title>
<path fill="none" stroke="midnightblue" d="M1514.45,-65.25C1335.56,-65.46 790.76,-62.32 341.5,-20 338.82,-19.75 336.07,-19.45 333.3,-19.13"/>
<polygon fill="midnightblue" stroke="midnightblue" points="1514.45,-68.75 1524.45,-65.23 1514.44,-61.75 1514.45,-68.75"/>
</g>
<!-- Node5 -->
<g id="node5" class="node">
<title>Node5</title>
<g id="a_node5"><a xlink:href="../../d8/d38/bteditbookmarkdialog_8cpp.html" target="_top" xlink:title=" ">
<polygon fill="white" stroke="black" points="351,-0.5 351,-19.5 496,-19.5 496,-0.5 351,-0.5"/>
<text text-anchor="middle" x="423.5" y="-7.5" font-family="Helvetica,sans-Serif" font-size="10.00">bteditbookmarkdialog.cpp</text>
</a>
</g>
</g>
<!-- Node1&#45;&gt;Node5 -->
<g id="edge4" class="edge">
<title>Node1&#45;&gt;Node5</title>
<path fill="none" stroke="midnightblue" d="M1513.98,-63.91C1350.8,-60.65 888.17,-49.35 504.5,-20 501.82,-19.79 499.09,-19.57 496.34,-19.33"/>
<polygon fill="midnightblue" stroke="midnightblue" points="1514.22,-67.41 1524.29,-64.11 1514.36,-60.42 1514.22,-67.41"/>
</g>
<!-- Node6 -->
<g id="node6" class="node">
<title>Node6</title>
<g id="a_node6"><a xlink:href="../../d9/de6/cbookmarkindex_8cpp.html" target="_top" xlink:title=" ">
<polygon fill="white" stroke="black" points="514,-0.5 514,-19.5 633,-19.5 633,-0.5 514,-0.5"/>
<text text-anchor="middle" x="573.5" y="-7.5" font-family="Helvetica,sans-Serif" font-size="10.00">cbookmarkindex.cpp</text>
</a>
</g>
</g>
<!-- Node1&#45;&gt;Node6 -->
<g id="edge5" class="edge">
<title>Node1&#45;&gt;Node6</title>
<path fill="none" stroke="midnightblue" d="M1514.13,-63.79C1365.6,-60.44 970.64,-49.27 642.5,-20 639.49,-19.73 636.41,-19.43 633.31,-19.1"/>
<polygon fill="midnightblue" stroke="midnightblue" points="1514.32,-67.29 1524.39,-64.02 1514.47,-60.29 1514.32,-67.29"/>
</g>
<!-- Node7 -->
<g id="node7" class="node">
<title>Node7</title>
<g id="a_node7"><a xlink:href="../../d8/dc3/cswordsetupinstallsourcesdialog_8cpp.html" target="_top" xlink:title=" ">
<polygon fill="white" stroke="black" points="651.5,-0.5 651.5,-19.5 847.5,-19.5 847.5,-0.5 651.5,-0.5"/>
<text text-anchor="middle" x="749.5" y="-7.5" font-family="Helvetica,sans-Serif" font-size="10.00">cswordsetupinstallsourcesdialog.cpp</text>
</a>
</g>
</g>
<!-- Node1&#45;&gt;Node7 -->
<g id="edge6" class="edge">
<title>Node1&#45;&gt;Node7</title>
<path fill="none" stroke="midnightblue" d="M1514.42,-61.67C1391.07,-54.73 1100.33,-37.89 856.5,-20 853.62,-19.79 850.69,-19.57 847.74,-19.35"/>
<polygon fill="midnightblue" stroke="midnightblue" points="1514.24,-65.16 1524.42,-62.23 1514.63,-58.18 1514.24,-65.16"/>
</g>
<!-- Node8 -->
<g id="node8" class="node">
<title>Node8</title>
<g id="a_node8"><a xlink:href="../../d1/dd7/btaboutdialog_8cpp.html" target="_top" xlink:title=" ">
<polygon fill="white" stroke="black" points="865.5,-0.5 865.5,-19.5 969.5,-19.5 969.5,-0.5 865.5,-0.5"/>
<text text-anchor="middle" x="917.5" y="-7.5" font-family="Helvetica,sans-Serif" font-size="10.00">btaboutdialog.cpp</text>
</a>
</g>
</g>
<!-- Node1&#45;&gt;Node8 -->
<g id="edge7" class="edge">
<title>Node1&#45;&gt;Node8</title>
<path fill="none" stroke="midnightblue" d="M1514.12,-61.86C1406.34,-55.95 1173.82,-41.75 978.5,-20 975.63,-19.68 972.68,-19.33 969.71,-18.95"/>
<polygon fill="midnightblue" stroke="midnightblue" points="1513.98,-65.36 1524.15,-62.41 1514.36,-58.37 1513.98,-65.36"/>
</g>
<!-- Node9 -->
<g id="node9" class="node">
<title>Node9</title>
<g id="a_node9"><a xlink:href="../../dc/dea/btaboutmoduledialog_8cpp.html" target="_top" xlink:title=" ">
<polygon fill="white" stroke="black" points="988,-0.5 988,-19.5 1129,-19.5 1129,-0.5 988,-0.5"/>
<text text-anchor="middle" x="1058.5" y="-7.5" font-family="Helvetica,sans-Serif" font-size="10.00">btaboutmoduledialog.cpp</text>
</a>
</g>
</g>
<!-- Node1&#45;&gt;Node9 -->
<g id="edge8" class="edge">
<title>Node1&#45;&gt;Node9</title>
<path fill="none" stroke="midnightblue" d="M1514.18,-59C1429.87,-50.56 1271.98,-34.58 1137.5,-20 1134.76,-19.7 1131.96,-19.4 1129.13,-19.08"/>
<polygon fill="midnightblue" stroke="midnightblue" points="1514.05,-62.5 1524.34,-60.01 1514.74,-55.54 1514.05,-62.5"/>
</g>
<!-- Node10 -->
<g id="node10" class="node">
<title>Node10</title>
<g id="a_node10"><a xlink:href="../../df/d88/btbookshelfdockwidget_8cpp.html" target="_top" xlink:title=" ">
<polygon fill="white" stroke="black" points="1147,-0.5 1147,-19.5 1298,-19.5 1298,-0.5 1147,-0.5"/>
<text text-anchor="middle" x="1222.5" y="-7.5" font-family="Helvetica,sans-Serif" font-size="10.00">btbookshelfdockwidget.cpp</text>
</a>
</g>
</g>
<!-- Node1&#45;&gt;Node10 -->
<g id="edge9" class="edge">
<title>Node1&#45;&gt;Node10</title>
<path fill="none" stroke="midnightblue" d="M1514.16,-55.74C1447.94,-45.58 1342.51,-29.41 1278.19,-19.54"/>
<polygon fill="midnightblue" stroke="midnightblue" points="1514.03,-59.26 1524.44,-57.32 1515.09,-52.34 1514.03,-59.26"/>
</g>
<!-- Node11 -->
<g id="node11" class="node">
<title>Node11</title>
<g id="a_node11"><a xlink:href="../../d3/d2f/btcopybyreferencesdialog_8cpp.html" target="_top" xlink:title=" ">
<polygon fill="white" stroke="black" points="1316.5,-0.5 1316.5,-19.5 1480.5,-19.5 1480.5,-0.5 1316.5,-0.5"/>
<text text-anchor="middle" x="1398.5" y="-7.5" font-family="Helvetica,sans-Serif" font-size="10.00">btcopybyreferencesdialog.cpp</text>
</a>
</g>
</g>
<!-- Node1&#45;&gt;Node11 -->
<g id="edge10" class="edge">
<title>Node1&#45;&gt;Node11</title>
<path fill="none" stroke="midnightblue" d="M1536.81,-53.44C1503.63,-43.26 1456.07,-28.66 1426.26,-19.52"/>
<polygon fill="midnightblue" stroke="midnightblue" points="1536.03,-56.86 1546.61,-56.44 1538.08,-50.16 1536.03,-56.86"/>
</g>
<!-- Node12 -->
<g id="node12" class="node">
<title>Node12</title>
<g id="a_node12"><a xlink:href="../../d8/d68/btmodulechooserdialog_8cpp.html" target="_top" xlink:title=" ">
<polygon fill="white" stroke="black" points="1498.5,-0.5 1498.5,-19.5 1650.5,-19.5 1650.5,-0.5 1498.5,-0.5"/>
<text text-anchor="middle" x="1574.5" y="-7.5" font-family="Helvetica,sans-Serif" font-size="10.00">btmodulechooserdialog.cpp</text>
</a>
</g>
</g>
<!-- Node1&#45;&gt;Node12 -->
<g id="edge11" class="edge">
<title>Node1&#45;&gt;Node12</title>
<path fill="none" stroke="midnightblue" d="M1574.5,-45.8C1574.5,-36.91 1574.5,-26.78 1574.5,-19.75"/>
<polygon fill="midnightblue" stroke="midnightblue" points="1571,-46.08 1574.5,-56.08 1578,-46.08 1571,-46.08"/>
</g>
<!-- Node13 -->
<g id="node13" class="node">
<title>Node13</title>
<g id="a_node13"><a xlink:href="../../dc/dc2/btmoduleindexdialog_8cpp.html" target="_top" xlink:title=" ">
<polygon fill="white" stroke="black" points="1668.5,-0.5 1668.5,-19.5 1808.5,-19.5 1808.5,-0.5 1668.5,-0.5"/>
<text text-anchor="middle" x="1738.5" y="-7.5" font-family="Helvetica,sans-Serif" font-size="10.00">btmoduleindexdialog.cpp</text>
</a>
</g>
</g>
<!-- Node1&#45;&gt;Node13 -->
<g id="edge12" class="edge">
<title>Node1&#45;&gt;Node13</title>
<path fill="none" stroke="midnightblue" d="M1610.02,-53.3C1640.92,-43.13 1684.97,-28.62 1712.64,-19.52"/>
<polygon fill="midnightblue" stroke="midnightblue" points="1608.89,-49.99 1600.49,-56.44 1611.08,-56.64 1608.89,-49.99"/>
</g>
<!-- Node14 -->
<g id="node14" class="node">
<title>Node14</title>
<g id="a_node14"><a xlink:href="../../d5/d73/messagedialog_8cpp.html" target="_top" xlink:title=" ">
<polygon fill="white" stroke="black" points="1827,-0.5 1827,-19.5 1938,-19.5 1938,-0.5 1827,-0.5"/>
<text text-anchor="middle" x="1882.5" y="-7.5" font-family="Helvetica,sans-Serif" font-size="10.00">messagedialog.cpp</text>
</a>
</g>
</g>
<!-- Node1&#45;&gt;Node14 -->
<g id="edge13" class="edge">
<title>Node1&#45;&gt;Node14</title>
<path fill="none" stroke="midnightblue" d="M1633.45,-54.66C1691.66,-44.46 1779.61,-29.04 1833.92,-19.52"/>
<polygon fill="midnightblue" stroke="midnightblue" points="1632.55,-51.27 1623.3,-56.44 1633.76,-58.16 1632.55,-51.27"/>
</g>
<!-- Node15 -->
<g id="node15" class="node">
<title>Node15</title>
<g id="a_node15"><a xlink:href="../../d9/da2/csearchanalysisdialog_8cpp.html" target="_top" xlink:title=" ">
<polygon fill="white" stroke="black" points="1956,-0.5 1956,-19.5 2101,-19.5 2101,-0.5 1956,-0.5"/>
<text text-anchor="middle" x="2028.5" y="-7.5" font-family="Helvetica,sans-Serif" font-size="10.00">csearchanalysisdialog.cpp</text>
</a>
</g>
</g>
<!-- Node1&#45;&gt;Node15 -->
<g id="edge14" class="edge">
<title>Node1&#45;&gt;Node15</title>
<path fill="none" stroke="midnightblue" d="M1634.88,-57.82C1718.11,-47.92 1867.85,-30.11 1956.71,-19.54"/>
<polygon fill="midnightblue" stroke="midnightblue" points="1634.34,-54.36 1624.82,-59.01 1635.16,-61.31 1634.34,-54.36"/>
</g>
<!-- Node16 -->
<g id="node16" class="node">
<title>Node16</title>
<g id="a_node16"><a xlink:href="../../d1/dd5/btsearchsyntaxhelpdialog_8cpp.html" target="_top" xlink:title=" ">
<polygon fill="white" stroke="black" points="2119,-0.5 2119,-19.5 2282,-19.5 2282,-0.5 2119,-0.5"/>
<text text-anchor="middle" x="2200.5" y="-7.5" font-family="Helvetica,sans-Serif" font-size="10.00">btsearchsyntaxhelpdialog.cpp</text>
</a>
</g>
</g>
<!-- Node1&#45;&gt;Node16 -->
<g id="edge15" class="edge">
<title>Node1&#45;&gt;Node16</title>
<path fill="none" stroke="midnightblue" d="M1634.92,-60.24C1734.2,-52.35 1938.06,-35.86 2110.5,-20 2113.16,-19.76 2115.86,-19.5 2118.59,-19.25"/>
<polygon fill="midnightblue" stroke="midnightblue" points="1634.47,-56.77 1624.77,-61.05 1635.02,-63.75 1634.47,-56.77"/>
</g>
<!-- Node17 -->
<g id="node17" class="node">
<title>Node17</title>
<g id="a_node17"><a xlink:href="../../d2/d9d/crangechooserdialog_8cpp.html" target="_top" xlink:title=" ">
<polygon fill="white" stroke="black" points="2300.5,-0.5 2300.5,-19.5 2438.5,-19.5 2438.5,-0.5 2300.5,-0.5"/>
<text text-anchor="middle" x="2369.5" y="-7.5" font-family="Helvetica,sans-Serif" font-size="10.00">crangechooserdialog.cpp</text>
</a>
</g>
</g>
<!-- Node1&#45;&gt;Node17 -->
<g id="edge16" class="edge">
<title>Node1&#45;&gt;Node17</title>
<path fill="none" stroke="midnightblue" d="M1634.55,-62.29C1757.82,-56.5 2048.32,-41.65 2291.5,-20 2294.35,-19.75 2297.26,-19.47 2300.2,-19.19"/>
<polygon fill="midnightblue" stroke="midnightblue" points="1634.38,-58.8 1624.55,-62.76 1634.7,-65.79 1634.38,-58.8"/>
</g>
<!-- Node18 -->
<g id="node18" class="node">
<title>Node18</title>
<g id="a_node18"><a xlink:href="../../d2/d1a/csearchdialog_8cpp.html" target="_top" xlink:title=" ">
<polygon fill="white" stroke="black" points="2456.5,-0.5 2456.5,-19.5 2560.5,-19.5 2560.5,-0.5 2456.5,-0.5"/>
<text text-anchor="middle" x="2508.5" y="-7.5" font-family="Helvetica,sans-Serif" font-size="10.00">csearchdialog.cpp</text>
</a>
</g>
</g>
<!-- Node1&#45;&gt;Node18 -->
<g id="edge17" class="edge">
<title>Node1&#45;&gt;Node18</title>
<path fill="none" stroke="midnightblue" d="M1635.06,-63.86C1777.22,-60.74 2143.26,-50.22 2447.5,-20 2450.38,-19.71 2453.32,-19.39 2456.3,-19.04"/>
<polygon fill="midnightblue" stroke="midnightblue" points="1634.74,-60.36 1624.82,-64.08 1634.89,-67.36 1634.74,-60.36"/>
</g>
<!-- Node19 -->
<g id="node19" class="node">
<title>Node19</title>
<g id="a_node19"><a xlink:href="../../df/d92/btconfigdialog_8cpp.html" target="_top" xlink:title=" ">
<polygon fill="white" stroke="black" points="2578.5,-0.5 2578.5,-19.5 2684.5,-19.5 2684.5,-0.5 2578.5,-0.5"/>
<text text-anchor="middle" x="2631.5" y="-7.5" font-family="Helvetica,sans-Serif" font-size="10.00">btconfigdialog.cpp</text>
</a>
</g>
</g>
<!-- Node1&#45;&gt;Node19 -->
<g id="edge18" class="edge">
<title>Node1&#45;&gt;Node19</title>
<path fill="none" stroke="midnightblue" d="M1634.85,-64.35C1790.18,-62.22 2216.33,-53.54 2569.5,-20 2572.42,-19.72 2575.42,-19.4 2578.44,-19.05"/>
<polygon fill="midnightblue" stroke="midnightblue" points="1634.53,-60.85 1624.58,-64.49 1634.62,-67.85 1634.53,-60.85"/>
</g>
<!-- Node20 -->
<g id="node20" class="node">
<title>Node20</title>
<g id="a_node20"><a xlink:href="../../d5/ddf/btshortcutsdialog_8cpp.html" target="_top" xlink:title=" ">
<polygon fill="white" stroke="black" points="2702.5,-0.5 2702.5,-19.5 2824.5,-19.5 2824.5,-0.5 2702.5,-0.5"/>
<text text-anchor="middle" x="2763.5" y="-7.5" font-family="Helvetica,sans-Serif" font-size="10.00">btshortcutsdialog.cpp</text>
</a>
</g>
</g>
<!-- Node1&#45;&gt;Node20 -->
<g id="edge19" class="edge">
<title>Node1&#45;&gt;Node20</title>
<path fill="none" stroke="midnightblue" d="M1634.62,-64.43C1802.43,-62.46 2290,-53.99 2693.5,-20 2696.43,-19.75 2699.43,-19.47 2702.45,-19.17"/>
<polygon fill="midnightblue" stroke="midnightblue" points="1634.47,-60.94 1624.51,-64.55 1634.55,-67.94 1634.47,-60.94"/>
</g>
<!-- Node21 -->
<g id="node21" class="node">
<title>Node21</title>
<g id="a_node21"><a xlink:href="../../dc/d6a/cacceleratorsettings_8cpp.html" target="_top" xlink:title=" ">
<polygon fill="white" stroke="black" points="2842.5,-0.5 2842.5,-19.5 2978.5,-19.5 2978.5,-0.5 2842.5,-0.5"/>
<text text-anchor="middle" x="2910.5" y="-7.5" font-family="Helvetica,sans-Serif" font-size="10.00">cacceleratorsettings.cpp</text>
</a>
</g>
</g>
<!-- Node1&#45;&gt;Node21 -->
<g id="edge20" class="edge">
<title>Node1&#45;&gt;Node21</title>
<path fill="none" stroke="midnightblue" d="M1634.8,-64.57C1816.29,-62.9 2373.28,-55.06 2833.5,-20 2836.32,-19.79 2839.19,-19.55 2842.09,-19.29"/>
<polygon fill="midnightblue" stroke="midnightblue" points="1634.63,-61.07 1624.66,-64.66 1634.69,-68.07 1634.63,-61.07"/>
</g>
<!-- Node22 -->
<g id="node22" class="node">
<title>Node22</title>
<g id="a_node22"><a xlink:href="../../d9/d08/bttipdialog_8cpp.html" target="_top" xlink:title=" ">
<polygon fill="white" stroke="black" points="2997,-0.5 2997,-19.5 3086,-19.5 3086,-0.5 2997,-0.5"/>
<text text-anchor="middle" x="3041.5" y="-7.5" font-family="Helvetica,sans-Serif" font-size="10.00">bttipdialog.cpp</text>
</a>
</g>
</g>
<!-- Node1&#45;&gt;Node22 -->
<g id="edge21" class="edge">
<title>Node1&#45;&gt;Node22</title>
<path fill="none" stroke="midnightblue" d="M1634.59,-64.15C1868.56,-60.7 2718.85,-46.55 2987.5,-20 2990.53,-19.7 2993.64,-19.34 2996.77,-18.93"/>
<polygon fill="midnightblue" stroke="midnightblue" points="1634.52,-60.66 1624.57,-64.3 1634.62,-67.65 1634.52,-60.66"/>
</g>
</g>
</svg>
        <g id="navigator" transform="translate(0 0)" fill="#404254">
                <rect fill="#f2f5e9" fill-opacity="0.5" stroke="#606060" stroke-width=".5" x="0" y="0" width="60" height="60"/>
                <use id="zoomplus" xlink:href="#zoomPlus" x="17" y="9" onmousedown="handleZoom(evt,'in')"/>
                <use id="zoomminus" xlink:href="#zoomMin" x="42" y="9" onmousedown="handleZoom(evt,'out')"/>
                <use id="reset" xlink:href="#resetDef" x="30" y="36" onmousedown="handleReset()"/>
                <g id="arrowUp" xlink:href="#dirArrow" transform="translate(30 24)" onmousedown="handlePan(0,-1)">
                  <use xlink:href="#rim" fill="#404040">
                        <set attributeName="fill" to="#808080" begin="arrowUp.mouseover" end="arrowUp.mouseout"/>
                  </use>
                  <path fill="none" stroke="white" stroke-width="1.5" d="M0,-3.0v7 M-2.5,-0.5L0,-3.0L2.5,-0.5"/>
                </g>
                <g id="arrowRight" xlink:href="#dirArrow" transform="rotate(90) translate(36 -43)" onmousedown="handlePan(1,0)">
                  <use xlink:href="#rim" fill="#404040">
                        <set attributeName="fill" to="#808080" begin="arrowRight.mouseover" end="arrowRight.mouseout"/>
                  </use>
                  <path fill="none" stroke="white" stroke-width="1.5" d="M0,-3.0v7 M-2.5,-0.5L0,-3.0L2.5,-0.5"/>
                </g>
                <g id="arrowDown" xlink:href="#dirArrow" transform="rotate(180) translate(-30 -48)" onmousedown="handlePan(0,1)">
                  <use xlink:href="#rim" fill="#404040">
                        <set attributeName="fill" to="#808080" begin="arrowDown.mouseover" end="arrowDown.mouseout"/>
                  </use>
                  <path fill="none" stroke="white" stroke-width="1.5" d="M0,-3.0v7 M-2.5,-0.5L0,-3.0L2.5,-0.5"/>
                </g>
                <g id="arrowLeft" xlink:href="#dirArrow" transform="rotate(270) translate(-36 17)" onmousedown="handlePan(-1,0)">
                  <use xlink:href="#rim" fill="#404040">
                        <set attributeName="fill" to="#808080" begin="arrowLeft.mouseover" end="arrowLeft.mouseout"/>
                  </use>
                  <path fill="none" stroke="white" stroke-width="1.5" d="M0,-3.0v7 M-2.5,-0.5L0,-3.0L2.5,-0.5"/>
                </g>
        </g>
        <svg viewBox="0 0 15 15" width="100%" height="30px" preserveAspectRatio="xMaxYMin meet">
         <g id="arrow_out" transform="scale(0.3 0.3)">
          <a xlink:href="messagedialog_8h__dep__incl_org.svg" target="_base">
           <rect id="button" ry="5" rx="5" y="6" x="6" height="38" width="38"
                fill="#f2f5e9" fill-opacity="0.5" stroke="#606060" stroke-width="1.0"/>
           <path id="arrow"
             d="M 11.500037,31.436501 C 11.940474,20.09759 22.043105,11.32322 32.158766,21.979434 L 37.068811,17.246167 C 37.068811,17.246167 37.088388,32 37.088388,32 L 22.160133,31.978069 C 22.160133,31.978069 26.997745,27.140456 26.997745,27.140456 C 18.528582,18.264221 13.291696,25.230495 11.500037,31.436501 z"
             style="fill:#404040;"/>
          </a>
         </g>
        </svg>
</svg>
