<?xml version="1.0" encoding="UTF-8" standalone="no"?>
<!DOCTYPE svg PUBLIC "-//W3C//DTD SVG 1.1//EN"
 "http://www.w3.org/Graphics/SVG/1.1/DTD/svg11.dtd">
<!-- Generated by graphviz version 2.43.0 (0)
 -->
<!-- Title: messagedialog.h Pages: 1 -->
<svg width="3393pt" height="82pt"
 viewBox="0.00 0.00 3393.00 82.00" xmlns="http://www.w3.org/2000/svg" xmlns:xlink="http://www.w3.org/1999/xlink">
<g id="graph0" class="graph" transform="scale(1 1) rotate(0) translate(4 78)">
<title>messagedialog.h</title>
<!-- Node1 -->
<g id="Node000001" class="node">
<title>Node1</title>
<g id="a_Node000001"><a xlink:title=" ">
<polygon fill="#999999" stroke="#666666" points="1726.5,-74 1626.5,-74 1626.5,-55 1726.5,-55 1726.5,-74"/>
<text text-anchor="middle" x="1676.5" y="-62" font-family="Helvetica,sans-Serif" font-size="10.00">messagedialog.h</text>
</a>
</g>
</g>
<!-- Node2 -->
<g id="Node000002" class="node">
<title>Node2</title>
<g id="a_Node000002"><a xlink:href="../../d1/df6/bibletime_8cpp.html" target="_top" xlink:title=" ">
<polygon fill="white" stroke="#666666" points="83,-19 0,-19 0,0 83,0 83,-19"/>
<text text-anchor="middle" x="41.5" y="-7" font-family="Helvetica,sans-Serif" font-size="10.00">bibletime.cpp</text>
</a>
</g>
</g>
<!-- Node1&#45;&gt;Node2 -->
<g id="edge1_Node000001_Node000002" class="edge">
<title>Node1&#45;&gt;Node2</title>
<g id="a_edge1_Node000001_Node000002"><a xlink:title=" ">
<path fill="none" stroke="#63b8ff" d="M1616.34,-62.91C1364.84,-60.29 396.51,-48.46 92.5,-19 89.46,-18.71 86.33,-18.34 83.19,-17.93"/>
<polygon fill="#63b8ff" stroke="#63b8ff" points="1616.35,-66.41 1626.39,-63.02 1616.42,-59.41 1616.35,-66.41"/>
</a>
</g>
</g>
<!-- Node3 -->
<g id="Node000003" class="node">
<title>Node3</title>
<g id="a_Node000003"><a xlink:href="../../d6/d96/bibletime__slots_8cpp.html" target="_top" xlink:title=" ">
<polygon fill="white" stroke="#666666" points="213.5,-19 101.5,-19 101.5,0 213.5,0 213.5,-19"/>
<text text-anchor="middle" x="157.5" y="-7" font-family="Helvetica,sans-Serif" font-size="10.00">bibletime_slots.cpp</text>
</a>
</g>
</g>
<!-- Node1&#45;&gt;Node3 -->
<g id="edge2_Node000001_Node000003" class="edge">
<title>Node1&#45;&gt;Node3</title>
<g id="a_edge2_Node000001_Node000003"><a xlink:title=" ">
<path fill="none" stroke="#63b8ff" d="M1616.25,-63.8C1417.09,-64.33 761.94,-62.42 222.5,-19 219.66,-18.77 216.76,-18.51 213.83,-18.22"/>
<polygon fill="#63b8ff" stroke="#63b8ff" points="1616.51,-67.3 1626.5,-63.77 1616.48,-60.3 1616.51,-67.3"/>
</a>
</g>
</g>
<!-- Node4 -->
<g id="Node000004" class="node">
<title>Node4</title>
<g id="a_Node000004"><a xlink:href="../../d5/d86/bibletimeapp_8cpp.html" target="_top" xlink:title=" ">
<polygon fill="white" stroke="#666666" points="333,-19 232,-19 232,0 333,0 333,-19"/>
<text text-anchor="middle" x="282.5" y="-7" font-family="Helvetica,sans-Serif" font-size="10.00">bibletimeapp.cpp</text>
</a>
</g>
</g>
<!-- Node1&#45;&gt;Node4 -->
<g id="edge3_Node000001_Node000004" class="edge">
<title>Node1&#45;&gt;Node4</title>
<g id="a_edge3_Node000001_Node000004"><a xlink:title=" ">
<path fill="none" stroke="#63b8ff" d="M1616.16,-63.79C1427.59,-64.21 832.73,-61.78 342.5,-19 339.46,-18.73 336.34,-18.42 333.2,-18.07"/>
<polygon fill="#63b8ff" stroke="#63b8ff" points="1616.42,-67.29 1626.41,-63.76 1616.41,-60.29 1616.42,-67.29"/>
</a>
</g>
</g>
<!-- Node5 -->
<g id="Node000005" class="node">
<title>Node5</title>
<g id="a_Node000005"><a xlink:href="../../d1/dd7/btaboutdialog_8cpp.html" target="_top" xlink:title=" ">
<polygon fill="white" stroke="#666666" points="455.5,-19 351.5,-19 351.5,0 455.5,0 455.5,-19"/>
<text text-anchor="middle" x="403.5" y="-7" font-family="Helvetica,sans-Serif" font-size="10.00">btaboutdialog.cpp</text>
</a>
</g>
</g>
<!-- Node1&#45;&gt;Node5 -->
<g id="edge4_Node000001_Node000005" class="edge">
<title>Node1&#45;&gt;Node5</title>
<g id="a_edge4_Node000001_Node000005"><a xlink:title=" ">
<path fill="none" stroke="#63b8ff" d="M1616.31,-63.45C1439.32,-62.85 905.37,-57.71 464.5,-19 461.62,-18.75 458.68,-18.45 455.7,-18.13"/>
<polygon fill="#63b8ff" stroke="#63b8ff" points="1616.44,-66.95 1626.46,-63.48 1616.47,-59.95 1616.44,-66.95"/>
</a>
</g>
</g>
<!-- Node6 -->
<g id="Node000006" class="node">
<title>Node6</title>
<g id="a_Node000006"><a xlink:href="../../dc/dea/btaboutmoduledialog_8cpp.html" target="_top" xlink:title=" ">
<polygon fill="white" stroke="#666666" points="615,-19 474,-19 474,0 615,0 615,-19"/>
<text text-anchor="middle" x="544.5" y="-7" font-family="Helvetica,sans-Serif" font-size="10.00">btaboutmoduledialog.cpp</text>
</a>
</g>
</g>
<!-- Node1&#45;&gt;Node6 -->
<g id="edge5_Node000001_Node000006" class="edge">
<title>Node1&#45;&gt;Node6</title>
<g id="a_edge5_Node000001_Node000006"><a xlink:title=" ">
<path fill="none" stroke="#63b8ff" d="M1616.09,-62.32C1454.76,-58.87 1000.45,-47.21 623.5,-19 620.75,-18.79 617.95,-18.57 615.11,-18.33"/>
<polygon fill="#63b8ff" stroke="#63b8ff" points="1616.21,-65.82 1626.29,-62.54 1616.36,-58.82 1616.21,-65.82"/>
</a>
</g>
</g>
<!-- Node7 -->
<g id="Node000007" class="node">
<title>Node7</title>
<g id="a_Node000007"><a xlink:href="../../df/d88/btbookshelfdockwidget_8cpp.html" target="_top" xlink:title=" ">
<polygon fill="white" stroke="#666666" points="784,-19 633,-19 633,0 784,0 784,-19"/>
<text text-anchor="middle" x="708.5" y="-7" font-family="Helvetica,sans-Serif" font-size="10.00">btbookshelfdockwidget.cpp</text>
</a>
</g>
</g>
<!-- Node1&#45;&gt;Node7 -->
<g id="edge6_Node000001_Node000007" class="edge">
<title>Node1&#45;&gt;Node7</title>
<g id="a_edge6_Node000001_Node000007"><a xlink:title=" ">
<path fill="none" stroke="#63b8ff" d="M1615.85,-61.47C1472.62,-56.47 1102.23,-42.2 793.5,-19 790.39,-18.77 787.23,-18.51 784.03,-18.25"/>
<polygon fill="#63b8ff" stroke="#63b8ff" points="1616.05,-64.98 1626.17,-61.83 1616.3,-57.99 1616.05,-64.98"/>
</a>
</g>
</g>
<!-- Node8 -->
<g id="Node000008" class="node">
<title>Node8</title>
<g id="a_Node000008"><a xlink:href="../../df/d92/btconfigdialog_8cpp.html" target="_top" xlink:title=" ">
<polygon fill="white" stroke="#666666" points="908.5,-19 802.5,-19 802.5,0 908.5,0 908.5,-19"/>
<text text-anchor="middle" x="855.5" y="-7" font-family="Helvetica,sans-Serif" font-size="10.00">btconfigdialog.cpp</text>
</a>
</g>
</g>
<!-- Node1&#45;&gt;Node8 -->
<g id="edge7_Node000001_Node000008" class="edge">
<title>Node1&#45;&gt;Node8</title>
<g id="a_edge7_Node000001_Node000008"><a xlink:title=" ">
<path fill="none" stroke="#63b8ff" d="M1616.17,-61.56C1487.53,-57.06 1176.83,-44.34 917.5,-19 914.58,-18.71 911.59,-18.4 908.57,-18.05"/>
<polygon fill="#63b8ff" stroke="#63b8ff" points="1616.1,-65.06 1626.22,-61.9 1616.34,-58.06 1616.1,-65.06"/>
</a>
</g>
</g>
<!-- Node9 -->
<g id="Node000009" class="node">
<title>Node9</title>
<g id="a_Node000009"><a xlink:href="../../d3/d2f/btcopybyreferencesdialog_8cpp.html" target="_top" xlink:title=" ">
<polygon fill="white" stroke="#666666" points="1090.5,-19 926.5,-19 926.5,0 1090.5,0 1090.5,-19"/>
<text text-anchor="middle" x="1008.5" y="-7" font-family="Helvetica,sans-Serif" font-size="10.00">btcopybyreferencesdialog.cpp</text>
</a>
</g>
</g>
<!-- Node1&#45;&gt;Node9 -->
<g id="edge8_Node000001_Node000009" class="edge">
<title>Node1&#45;&gt;Node9</title>
<g id="a_edge8_Node000001_Node000009"><a xlink:title=" ">
<path fill="none" stroke="#63b8ff" d="M1616.22,-59.17C1511.21,-51.56 1287.94,-35.07 1099.5,-19 1096.65,-18.76 1093.76,-18.51 1090.83,-18.25"/>
<polygon fill="#63b8ff" stroke="#63b8ff" points="1616.08,-62.67 1626.31,-59.9 1616.59,-55.69 1616.08,-62.67"/>
</a>
</g>
</g>
<!-- Node10 -->
<g id="Node000010" class="node">
<title>Node10</title>
<g id="a_Node000010"><a xlink:href="../../d8/d38/bteditbookmarkdialog_8cpp.html" target="_top" xlink:title=" ">
<polygon fill="white" stroke="#666666" points="1254,-19 1109,-19 1109,0 1254,0 1254,-19"/>
<text text-anchor="middle" x="1181.5" y="-7" font-family="Helvetica,sans-Serif" font-size="10.00">bteditbookmarkdialog.cpp</text>
</a>
</g>
</g>
<!-- Node1&#45;&gt;Node10 -->
<g id="edge9_Node000001_Node000010" class="edge">
<title>Node1&#45;&gt;Node10</title>
<g id="a_edge9_Node000001_Node000010"><a xlink:title=" ">
<path fill="none" stroke="#63b8ff" d="M1616.14,-57.04C1524.89,-47.27 1352.13,-28.77 1254.14,-18.28"/>
<polygon fill="#63b8ff" stroke="#63b8ff" points="1616,-60.54 1626.31,-58.13 1616.74,-53.58 1616,-60.54"/>
</a>
</g>
</g>
<!-- Node11 -->
<g id="Node000011" class="node">
<title>Node11</title>
<g id="a_Node000011"><a xlink:href="../../d1/d5b/btmessageinputdialog_8cpp.html" target="_top" xlink:title=" ">
<polygon fill="white" stroke="#666666" points="1418.5,-19 1272.5,-19 1272.5,0 1418.5,0 1418.5,-19"/>
<text text-anchor="middle" x="1345.5" y="-7" font-family="Helvetica,sans-Serif" font-size="10.00">btmessageinputdialog.cpp</text>
</a>
</g>
</g>
<!-- Node1&#45;&gt;Node11 -->
<g id="edge10_Node000001_Node000011" class="edge">
<title>Node1&#45;&gt;Node11</title>
<g id="a_edge10_Node000001_Node000011"><a xlink:title=" ">
<path fill="none" stroke="#63b8ff" d="M1616.18,-53.84C1554.04,-43.89 1458.12,-28.53 1398.72,-19.02"/>
<polygon fill="#63b8ff" stroke="#63b8ff" points="1615.8,-57.33 1626.23,-55.45 1616.91,-50.41 1615.8,-57.33"/>
</a>
</g>
</g>
<!-- Node12 -->
<g id="Node000012" class="node">
<title>Node12</title>
<g id="a_Node000012"><a xlink:href="../../d8/d68/btmodulechooserdialog_8cpp.html" target="_top" xlink:title=" ">
<polygon fill="white" stroke="#666666" points="1588.5,-19 1436.5,-19 1436.5,0 1588.5,0 1588.5,-19"/>
<text text-anchor="middle" x="1512.5" y="-7" font-family="Helvetica,sans-Serif" font-size="10.00">btmodulechooserdialog.cpp</text>
</a>
</g>
</g>
<!-- Node1&#45;&gt;Node12 -->
<g id="edge11_Node000001_Node000012" class="edge">
<title>Node1&#45;&gt;Node12</title>
<g id="a_edge11_Node000001_Node000012"><a xlink:title=" ">
<path fill="none" stroke="#63b8ff" d="M1640.29,-51.8C1609.68,-41.91 1566.55,-27.97 1539.06,-19.08"/>
<polygon fill="#63b8ff" stroke="#63b8ff" points="1639.56,-55.24 1650.15,-54.98 1641.71,-48.58 1639.56,-55.24"/>
</a>
</g>
</g>
<!-- Node13 -->
<g id="Node000013" class="node">
<title>Node13</title>
<g id="a_Node000013"><a xlink:href="../../dc/dc2/btmoduleindexdialog_8cpp.html" target="_top" xlink:title=" ">
<polygon fill="white" stroke="#666666" points="1746.5,-19 1606.5,-19 1606.5,0 1746.5,0 1746.5,-19"/>
<text text-anchor="middle" x="1676.5" y="-7" font-family="Helvetica,sans-Serif" font-size="10.00">btmoduleindexdialog.cpp</text>
</a>
</g>
</g>
<!-- Node1&#45;&gt;Node13 -->
<g id="edge12_Node000001_Node000013" class="edge">
<title>Node1&#45;&gt;Node13</title>
<g id="a_edge12_Node000001_Node000013"><a xlink:title=" ">
<path fill="none" stroke="#63b8ff" d="M1676.5,-44.66C1676.5,-35.93 1676.5,-25.99 1676.5,-19.09"/>
<polygon fill="#63b8ff" stroke="#63b8ff" points="1673,-44.75 1676.5,-54.75 1680,-44.75 1673,-44.75"/>
</a>
</g>
</g>
<!-- Node14 -->
<g id="Node000014" class="node">
<title>Node14</title>
<g id="a_Node000014"><a xlink:href="../../d1/dd5/btsearchsyntaxhelpdialog_8cpp.html" target="_top" xlink:title=" ">
<polygon fill="white" stroke="#666666" points="1928,-19 1765,-19 1765,0 1928,0 1928,-19"/>
<text text-anchor="middle" x="1846.5" y="-7" font-family="Helvetica,sans-Serif" font-size="10.00">btsearchsyntaxhelpdialog.cpp</text>
</a>
</g>
</g>
<!-- Node1&#45;&gt;Node14 -->
<g id="edge13_Node000001_Node000014" class="edge">
<title>Node1&#45;&gt;Node14</title>
<g id="a_edge13_Node000001_Node000014"><a xlink:title=" ">
<path fill="none" stroke="#63b8ff" d="M1713.62,-51.93C1745.37,-42.03 1790.35,-28.01 1818.97,-19.08"/>
<polygon fill="#63b8ff" stroke="#63b8ff" points="1712.32,-48.67 1703.81,-54.98 1714.4,-55.35 1712.32,-48.67"/>
</a>
</g>
</g>
<!-- Node15 -->
<g id="Node000015" class="node">
<title>Node15</title>
<g id="a_Node000015"><a xlink:href="../../d5/ddf/btshortcutsdialog_8cpp.html" target="_top" xlink:title=" ">
<polygon fill="white" stroke="#666666" points="2068.5,-19 1946.5,-19 1946.5,0 2068.5,0 2068.5,-19"/>
<text text-anchor="middle" x="2007.5" y="-7" font-family="Helvetica,sans-Serif" font-size="10.00">btshortcutsdialog.cpp</text>
</a>
</g>
</g>
<!-- Node1&#45;&gt;Node15 -->
<g id="edge14_Node000001_Node000015" class="edge">
<title>Node1&#45;&gt;Node15</title>
<g id="a_edge14_Node000001_Node000015"><a xlink:title=" ">
<path fill="none" stroke="#63b8ff" d="M1736.82,-53.84C1798.96,-43.89 1894.88,-28.53 1954.28,-19.02"/>
<polygon fill="#63b8ff" stroke="#63b8ff" points="1736.09,-50.41 1726.77,-55.45 1737.2,-57.33 1736.09,-50.41"/>
</a>
</g>
</g>
<!-- Node16 -->
<g id="Node000016" class="node">
<title>Node16</title>
<g id="a_Node000016"><a xlink:href="../../d9/d08/bttipdialog_8cpp.html" target="_top" xlink:title=" ">
<polygon fill="white" stroke="#666666" points="2176,-19 2087,-19 2087,0 2176,0 2176,-19"/>
<text text-anchor="middle" x="2131.5" y="-7" font-family="Helvetica,sans-Serif" font-size="10.00">bttipdialog.cpp</text>
</a>
</g>
</g>
<!-- Node1&#45;&gt;Node16 -->
<g id="edge15_Node000001_Node000016" class="edge">
<title>Node1&#45;&gt;Node16</title>
<g id="a_edge15_Node000001_Node000016"><a xlink:title=" ">
<path fill="none" stroke="#63b8ff" d="M1736.79,-57.67C1815.35,-49.89 1956.91,-35.17 2077.5,-19 2080.51,-18.6 2083.61,-18.16 2086.73,-17.71"/>
<polygon fill="#63b8ff" stroke="#63b8ff" points="1736.21,-54.22 1726.6,-58.68 1736.9,-61.18 1736.21,-54.22"/>
</a>
</g>
</g>
<!-- Node17 -->
<g id="Node000017" class="node">
<title>Node17</title>
<g id="a_Node000017"><a xlink:href="../../dc/d6a/cacceleratorsettings_8cpp.html" target="_top" xlink:title=" ">
<polygon fill="white" stroke="#666666" points="2330.5,-19 2194.5,-19 2194.5,0 2330.5,0 2330.5,-19"/>
<text text-anchor="middle" x="2262.5" y="-7" font-family="Helvetica,sans-Serif" font-size="10.00">cacceleratorsettings.cpp</text>
</a>
</g>
</g>
<!-- Node1&#45;&gt;Node17 -->
<g id="edge16_Node000001_Node000017" class="edge">
<title>Node1&#45;&gt;Node17</title>
<g id="a_edge16_Node000001_Node000017"><a xlink:title=" ">
<path fill="none" stroke="#63b8ff" d="M1736.78,-58.68C1832.1,-50.95 2023.46,-35.02 2185.5,-19 2188.44,-18.71 2191.45,-18.4 2194.49,-18.09"/>
<polygon fill="#63b8ff" stroke="#63b8ff" points="1736.43,-55.19 1726.75,-59.49 1737,-62.17 1736.43,-55.19"/>
</a>
</g>
</g>
<!-- Node18 -->
<g id="Node000018" class="node">
<title>Node18</title>
<g id="a_Node000018"><a xlink:href="../../d9/de6/cbookmarkindex_8cpp.html" target="_top" xlink:title=" ">
<polygon fill="white" stroke="#666666" points="2468,-19 2349,-19 2349,0 2468,0 2468,-19"/>
<text text-anchor="middle" x="2408.5" y="-7" font-family="Helvetica,sans-Serif" font-size="10.00">cbookmarkindex.cpp</text>
</a>
</g>
</g>
<!-- Node1&#45;&gt;Node18 -->
<g id="edge17_Node000001_Node000018" class="edge">
<title>Node1&#45;&gt;Node18</title>
<g id="a_edge17_Node000001_Node000018"><a xlink:title=" ">
<path fill="none" stroke="#63b8ff" d="M1737.06,-60.56C1853.77,-54.65 2117.93,-40.07 2339.5,-19 2342.5,-18.71 2345.58,-18.4 2348.68,-18.07"/>
<polygon fill="#63b8ff" stroke="#63b8ff" points="1736.71,-57.08 1726.9,-61.07 1737.06,-64.07 1736.71,-57.08"/>
</a>
</g>
</g>
<!-- Node19 -->
<g id="Node000019" class="node">
<title>Node19</title>
<g id="a_Node000019"><a xlink:href="../../d2/d26/cdisplaywindow_8cpp.html" target="_top" xlink:title=" ">
<polygon fill="white" stroke="#666666" points="2600.5,-19 2486.5,-19 2486.5,0 2600.5,0 2600.5,-19"/>
<text text-anchor="middle" x="2543.5" y="-7" font-family="Helvetica,sans-Serif" font-size="10.00">cdisplaywindow.cpp</text>
</a>
</g>
</g>
<!-- Node1&#45;&gt;Node19 -->
<g id="edge18_Node000001_Node000019" class="edge">
<title>Node1&#45;&gt;Node19</title>
<g id="a_edge18_Node000001_Node000019"><a xlink:title=" ">
<path fill="none" stroke="#63b8ff" d="M1736.77,-61.65C1870.37,-57.21 2201.42,-44.41 2477.5,-19 2480.38,-18.74 2483.32,-18.44 2486.29,-18.13"/>
<polygon fill="#63b8ff" stroke="#63b8ff" points="1736.62,-58.15 1726.74,-61.98 1736.84,-65.15 1736.62,-58.15"/>
</a>
</g>
</g>
<!-- Node20 -->
<g id="Node000020" class="node">
<title>Node20</title>
<g id="a_Node000020"><a xlink:href="../../d2/d9d/crangechooserdialog_8cpp.html" target="_top" xlink:title=" ">
<polygon fill="white" stroke="#666666" points="2756.5,-19 2618.5,-19 2618.5,0 2756.5,0 2756.5,-19"/>
<text text-anchor="middle" x="2687.5" y="-7" font-family="Helvetica,sans-Serif" font-size="10.00">crangechooserdialog.cpp</text>
</a>
</g>
</g>
<!-- Node1&#45;&gt;Node20 -->
<g id="edge19_Node000001_Node000020" class="edge">
<title>Node1&#45;&gt;Node20</title>
<g id="a_edge19_Node000001_Node000020"><a xlink:title=" ">
<path fill="none" stroke="#63b8ff" d="M1736.9,-61.89C1885.51,-57.66 2280.72,-44.73 2609.5,-19 2612.35,-18.78 2615.26,-18.53 2618.2,-18.27"/>
<polygon fill="#63b8ff" stroke="#63b8ff" points="1736.53,-58.4 1726.63,-62.18 1736.73,-65.4 1736.53,-58.4"/>
</a>
</g>
</g>
<!-- Node21 -->
<g id="Node000021" class="node">
<title>Node21</title>
<g id="a_Node000021"><a xlink:href="../../d9/da2/csearchanalysisdialog_8cpp.html" target="_top" xlink:title=" ">
<polygon fill="white" stroke="#666666" points="2920,-19 2775,-19 2775,0 2920,0 2920,-19"/>
<text text-anchor="middle" x="2847.5" y="-7" font-family="Helvetica,sans-Serif" font-size="10.00">csearchanalysisdialog.cpp</text>
</a>
</g>
</g>
<!-- Node1&#45;&gt;Node21 -->
<g id="edge20_Node000001_Node000021" class="edge">
<title>Node1&#45;&gt;Node21</title>
<g id="a_edge20_Node000001_Node000021"><a xlink:title=" ">
<path fill="none" stroke="#63b8ff" d="M1737.21,-62.35C1902.46,-58.93 2374.22,-47.25 2765.5,-19 2768.5,-18.78 2771.56,-18.55 2774.64,-18.29"/>
<polygon fill="#63b8ff" stroke="#63b8ff" points="1736.69,-58.86 1726.77,-62.56 1736.84,-65.86 1736.69,-58.86"/>
</a>
</g>
</g>
<!-- Node22 -->
<g id="Node000022" class="node">
<title>Node22</title>
<g id="a_Node000022"><a xlink:href="../../d2/d1a/csearchdialog_8cpp.html" target="_top" xlink:title=" ">
<polygon fill="white" stroke="#666666" points="3042.5,-19 2938.5,-19 2938.5,0 3042.5,0 3042.5,-19"/>
<text text-anchor="middle" x="2990.5" y="-7" font-family="Helvetica,sans-Serif" font-size="10.00">csearchdialog.cpp</text>
</a>
</g>
</g>
<!-- Node1&#45;&gt;Node22 -->
<g id="edge21_Node000001_Node000022" class="edge">
<title>Node1&#45;&gt;Node22</title>
<g id="a_edge21_Node000001_Node000022"><a xlink:title=" ">
<path fill="none" stroke="#63b8ff" d="M1736.87,-63.56C1917.93,-63.25 2472.15,-58.88 2929.5,-19 2932.38,-18.75 2935.32,-18.46 2938.3,-18.13"/>
<polygon fill="#63b8ff" stroke="#63b8ff" points="1736.74,-60.06 1726.75,-63.57 1736.75,-67.06 1736.74,-60.06"/>
</a>
</g>
</g>
<!-- Node23 -->
<g id="Node000023" class="node">
<title>Node23</title>
<g id="a_Node000023"><a xlink:href="../../d8/dc3/cswordsetupinstallsourcesdialog_8cpp.html" target="_top" xlink:title=" ">
<polygon fill="white" stroke="#666666" points="3256.5,-19 3060.5,-19 3060.5,0 3256.5,0 3256.5,-19"/>
<text text-anchor="middle" x="3158.5" y="-7" font-family="Helvetica,sans-Serif" font-size="10.00">cswordsetupinstallsourcesdialog.cpp</text>
</a>
</g>
</g>
<!-- Node1&#45;&gt;Node23 -->
<g id="edge22_Node000001_Node000023" class="edge">
<title>Node1&#45;&gt;Node23</title>
<g id="a_edge22_Node000001_Node000023"><a xlink:title=" ">
<path fill="none" stroke="#63b8ff" d="M1736.97,-62.56C1929.23,-59.33 2543.67,-47.37 3051.5,-19 3054.38,-18.84 3057.31,-18.67 3060.27,-18.48"/>
<polygon fill="#63b8ff" stroke="#63b8ff" points="1736.73,-59.06 1726.79,-62.72 1736.85,-66.06 1736.73,-59.06"/>
</a>
</g>
</g>
<!-- Node24 -->
<g id="Node000024" class="node">
<title>Node24</title>
<g id="a_Node000024"><a xlink:href="../../d5/d73/messagedialog_8cpp.html" target="_top" xlink:title=" ">
<polygon fill="white" stroke="#666666" points="3385,-19 3274,-19 3274,0 3385,0 3385,-19"/>
<text text-anchor="middle" x="3329.5" y="-7" font-family="Helvetica,sans-Serif" font-size="10.00">messagedialog.cpp</text>
</a>
</g>
</g>
<!-- Node1&#45;&gt;Node24 -->
<g id="edge23_Node000001_Node000024" class="edge">
<title>Node1&#45;&gt;Node24</title>
<g id="a_edge23_Node000001_Node000024"><a xlink:title=" ">
<path fill="none" stroke="#63b8ff" d="M1736.82,-62.65C1989.03,-58.98 2960.08,-43.49 3265.5,-19 3268.18,-18.78 3270.92,-18.54 3273.69,-18.26"/>
<polygon fill="#63b8ff" stroke="#63b8ff" points="1736.7,-59.15 1726.75,-62.8 1736.8,-66.15 1736.7,-59.15"/>
</a>
</g>
</g>
</g>
</svg>
