<?xml version="1.0" encoding="UTF-8" standalone="no"?>
<!DOCTYPE svg PUBLIC "-//W3C//DTD SVG 1.1//EN"
 "http://www.w3.org/Graphics/SVG/1.1/DTD/svg11.dtd">
<!-- Generated by graphviz version 2.43.0 (0)
 -->
<!-- Title: referencemanager.h Pages: 1 -->
<!--zoomable 82 -->

<svg id="main" version="1.1" xmlns="http://www.w3.org/2000/svg" xmlns:xlink="http://www.w3.org/1999/xlink" xml:space="preserve" onload="init(evt)">
<style type="text/css"><![CDATA[
.node, .edge {opacity: 0.7;}
.node.selected, .edge.selected {opacity: 1;}
.edge:hover path { stroke: red; }
.edge:hover polygon { stroke: red; fill: red; }
]]></style>

<defs>
  <circle id="rim" cx="0" cy="0" r="7"/>
  <circle id="rim2" cx="0" cy="0" r="3.5"/>
  <g id="zoomPlus">
    <use xlink:href="#rim" fill="#404040"><set attributeName="fill" to="#808080" begin="zoomplus.mouseover" end="zoomplus.mouseout"/></use>
    <path d="M-4,0h8M0,-4v8" fill="none" stroke="white" stroke-width="1.5" pointer-events="none"/>
  </g>
  <g id="zoomMin">
    <use xlink:href="#rim" fill="#404040"><set attributeName="fill" to="#808080" begin="zoomminus.mouseover" end="zoomminus.mouseout"/></use>
    <path d="M-4,0h8" fill="none" stroke="white" stroke-width="1.5" pointer-events="none"/>
  </g>
  <g id="arrowUp" transform="translate(30 24)">
    <use xlink:href="#rim"/>
    <path pointer-events="none" fill="none" stroke="white" stroke-width="1.5" d="M0,-3.0v7 M-2.5,-0.5L0,-3.0L2.5,-0.5"/>
  </g>
  <g id="arrowRight" transform="rotate(90) translate(36 -43)">
    <use xlink:href="#rim"/>
    <path pointer-events="none" fill="none" stroke="white" stroke-width="1.5" d="M0,-3.0v7 M-2.5,-0.5L0,-3.0L2.5,-0.5"/>
  </g>
  <g id="arrowDown" transform="rotate(180) translate(-30 -48)">
    <use xlink:href="#rim"/>
    <path pointer-events="none" fill="none" stroke="white" stroke-width="1.5" d="M0,-3.0v7 M-2.5,-0.5L0,-3.0L2.5,-0.5"/>
  </g>
  <g id="arrowLeft" transform="rotate(270) translate(-36 17)">
    <use xlink:href="#rim"/>
    <path pointer-events="none" fill="none" stroke="white" stroke-width="1.5" d="M0,-3.0v7 M-2.5,-0.5L0,-3.0L2.5,-0.5"/>
  </g>
  <g id="resetDef">
    <use xlink:href="#rim2" fill="#404040"><set attributeName="fill" to="#808080" begin="reset.mouseover" end="reset.mouseout"/></use>
  </g>
</defs>
<script type="application/ecmascript">
var viewWidth = 1278;
var viewHeight = 82;
var sectionId = 'dynsection-0';
</script>
<script type="application/ecmascript" xlink:href="../../svg.min.js"/>
<svg id="graph" class="graph">
<g id="viewport">
<title>referencemanager.h</title>
<!-- Node1 -->
<g id="Node000001" class="node">
<title>Node1</title>
<g id="a_Node000001"><a xlink:title=" ">
<polygon fill="#999999" stroke="#666666" points="740.5,-74 625.5,-74 625.5,-55 740.5,-55 740.5,-74"/>
<text text-anchor="middle" x="683" y="-62" font-family="Helvetica,sans-Serif" font-size="10.00">referencemanager.h</text>
</a>
</g>
</g>
<!-- Node2 -->
<g id="Node000002" class="node">
<title>Node2</title>
<g id="a_Node000002"><a xlink:href="../../de/db2/btmodelviewreaddisplay_8cpp.html" target="_top" xlink:title=" ">
<polygon fill="white" stroke="#666666" points="156,-19 0,-19 0,0 156,0 156,-19"/>
<text text-anchor="middle" x="78" y="-7" font-family="Helvetica,sans-Serif" font-size="10.00">btmodelviewreaddisplay.cpp</text>
</a>
</g>
</g>
<!-- Node1&#45;&gt;Node2 -->
<g id="edge1_Node000001_Node000002" class="edge">
<title>Node1&#45;&gt;Node2</title>
<g id="a_edge1_Node000001_Node000002"><a xlink:title=" ">
<path fill="none" stroke="#63b8ff" d="M615.33,-57.94C516.4,-49.76 326.47,-33.82 165,-19 162.13,-18.74 159.2,-18.47 156.25,-18.19"/>
<polygon fill="#63b8ff" stroke="#63b8ff" points="615.24,-61.44 625.49,-58.78 615.81,-54.47 615.24,-61.44"/>
</a>
</g>
</g>
<!-- Node3 -->
<g id="Node000003" class="node">
<title>Node3</title>
<g id="a_Node000003"><a xlink:href="../../d4/d3a/bttextbrowser_8cpp.html" target="_top" xlink:title=" ">
<polygon fill="white" stroke="#666666" points="278,-19 174,-19 174,0 278,0 278,-19"/>
<text text-anchor="middle" x="226" y="-7" font-family="Helvetica,sans-Serif" font-size="10.00">bttextbrowser.cpp</text>
</a>
</g>
</g>
<!-- Node1&#45;&gt;Node3 -->
<g id="edge2_Node000001_Node000003" class="edge">
<title>Node1&#45;&gt;Node3</title>
<g id="a_edge2_Node000001_Node000003"><a xlink:title=" ">
<path fill="none" stroke="#63b8ff" d="M614.94,-56.41C535.99,-48.05 401.96,-33.47 287,-19 284.14,-18.64 281.2,-18.26 278.23,-17.87"/>
<polygon fill="#63b8ff" stroke="#63b8ff" points="614.92,-59.92 625.23,-57.49 615.65,-52.96 614.92,-59.92"/>
</a>
</g>
</g>
<!-- Node4 -->
<g id="Node000004" class="node">
<title>Node4</title>
<g id="a_Node000004"><a xlink:href="../../dc/d52/cdisplayrendering_8cpp.html" target="_top" xlink:title=" ">
<polygon fill="white" stroke="#666666" points="420,-19 296,-19 296,0 420,0 420,-19"/>
<text text-anchor="middle" x="358" y="-7" font-family="Helvetica,sans-Serif" font-size="10.00">cdisplayrendering.cpp</text>
</a>
</g>
</g>
<!-- Node1&#45;&gt;Node4 -->
<g id="edge3_Node000001_Node000004" class="edge">
<title>Node1&#45;&gt;Node4</title>
<g id="a_edge3_Node000001_Node000004"><a xlink:title=" ">
<path fill="none" stroke="#63b8ff" d="M620.89,-53.37C559.86,-43.42 467.78,-28.4 410.36,-19.04"/>
<polygon fill="#63b8ff" stroke="#63b8ff" points="620.35,-56.83 630.78,-54.98 621.48,-49.92 620.35,-56.83"/>
</a>
</g>
</g>
<!-- Node5 -->
<g id="Node000005" class="node">
<title>Node5</title>
<g id="a_Node000005"><a xlink:href="../../d5/deb/cexportmanager_8cpp.html" target="_top" xlink:title=" ">
<polygon fill="white" stroke="#666666" points="554,-19 438,-19 438,0 554,0 554,-19"/>
<text text-anchor="middle" x="496" y="-7" font-family="Helvetica,sans-Serif" font-size="10.00">cexportmanager.cpp</text>
</a>
</g>
</g>
<!-- Node1&#45;&gt;Node5 -->
<g id="edge4_Node000001_Node000005" class="edge">
<title>Node1&#45;&gt;Node5</title>
<g id="a_edge4_Node000001_Node000005"><a xlink:title=" ">
<path fill="none" stroke="#63b8ff" d="M643.07,-52.18C608.1,-42.27 558.04,-28.08 526.28,-19.08"/>
<polygon fill="#63b8ff" stroke="#63b8ff" points="642.38,-55.63 652.96,-54.98 644.29,-48.89 642.38,-55.63"/>
</a>
</g>
</g>
<!-- Node6 -->
<g id="Node000006" class="node">
<title>Node6</title>
<g id="a_Node000006"><a xlink:href="../../d5/d80/cinfodisplay_8cpp.html" target="_top" xlink:title=" ">
<polygon fill="white" stroke="#666666" points="667.5,-19 572.5,-19 572.5,0 667.5,0 667.5,-19"/>
<text text-anchor="middle" x="620" y="-7" font-family="Helvetica,sans-Serif" font-size="10.00">cinfodisplay.cpp</text>
</a>
</g>
</g>
<!-- Node1&#45;&gt;Node6 -->
<g id="edge5_Node000001_Node000006" class="edge">
<title>Node1&#45;&gt;Node6</title>
<g id="a_edge5_Node000001_Node000006"><a xlink:title=" ">
<path fill="none" stroke="#63b8ff" d="M664.96,-48.32C653.73,-38.87 639.68,-27.06 630.31,-19.17"/>
<polygon fill="#63b8ff" stroke="#63b8ff" points="662.97,-51.23 672.88,-54.98 667.48,-45.87 662.97,-51.23"/>
</a>
</g>
</g>
<!-- Node7 -->
<g id="Node000007" class="node">
<title>Node7</title>
<g id="a_Node000007"><a xlink:href="../../d5/d19/crossrefrendering_8cpp.html" target="_top" xlink:title=" ">
<polygon fill="white" stroke="#666666" points="808,-19 686,-19 686,0 808,0 808,-19"/>
<text text-anchor="middle" x="747" y="-7" font-family="Helvetica,sans-Serif" font-size="10.00">crossrefrendering.cpp</text>
</a>
</g>
</g>
<!-- Node1&#45;&gt;Node7 -->
<g id="edge6_Node000001_Node000007" class="edge">
<title>Node1&#45;&gt;Node7</title>
<g id="a_edge6_Node000001_Node000007"><a xlink:title=" ">
<path fill="none" stroke="#63b8ff" d="M700.99,-48.6C712.46,-39.11 726.91,-27.13 736.53,-19.17"/>
<polygon fill="#63b8ff" stroke="#63b8ff" points="698.75,-45.91 693.28,-54.98 703.22,-51.3 698.75,-45.91"/>
</a>
</g>
</g>
<!-- Node8 -->
<g id="Node000008" class="node">
<title>Node8</title>
<g id="a_Node000008"><a xlink:href="../../db/d7a/osistohtml_8cpp.html" target="_top" xlink:title=" ">
<polygon fill="white" stroke="#666666" points="915.5,-19 826.5,-19 826.5,0 915.5,0 915.5,-19"/>
<text text-anchor="middle" x="871" y="-7" font-family="Helvetica,sans-Serif" font-size="10.00">osistohtml.cpp</text>
</a>
</g>
</g>
<!-- Node1&#45;&gt;Node8 -->
<g id="edge7_Node000001_Node000008" class="edge">
<title>Node1&#45;&gt;Node8</title>
<g id="a_edge7_Node000001_Node000008"><a xlink:title=" ">
<path fill="none" stroke="#63b8ff" d="M723.14,-52.18C758.3,-42.27 808.63,-28.08 840.56,-19.08"/>
<polygon fill="#63b8ff" stroke="#63b8ff" points="721.88,-48.9 713.21,-54.98 723.78,-55.64 721.88,-48.9"/>
</a>
</g>
</g>
<!-- Node9 -->
<g id="Node000009" class="node">
<title>Node9</title>
<g id="a_Node000009"><a xlink:href="../../d7/dfe/referencemanager_8cpp.html" target="_top" xlink:title=" ">
<polygon fill="white" stroke="#666666" points="1060,-19 934,-19 934,0 1060,0 1060,-19"/>
<text text-anchor="middle" x="997" y="-7" font-family="Helvetica,sans-Serif" font-size="10.00">referencemanager.cpp</text>
</a>
</g>
</g>
<!-- Node1&#45;&gt;Node9 -->
<g id="edge8_Node000001_Node000009" class="edge">
<title>Node1&#45;&gt;Node9</title>
<g id="a_edge8_Node000001_Node000009"><a xlink:title=" ">
<path fill="none" stroke="#63b8ff" d="M743.37,-53.31C802.34,-43.36 891.05,-28.38 946.42,-19.04"/>
<polygon fill="#63b8ff" stroke="#63b8ff" points="742.73,-49.87 733.45,-54.98 743.89,-56.77 742.73,-49.87"/>
</a>
</g>
</g>
<!-- Node10 -->
<g id="Node000010" class="node">
<title>Node10</title>
<g id="a_Node000010"><a xlink:href="../../d5/de5/teitohtml_8cpp.html" target="_top" xlink:title=" ">
<polygon fill="white" stroke="#666666" points="1160,-19 1078,-19 1078,0 1160,0 1160,-19"/>
<text text-anchor="middle" x="1119" y="-7" font-family="Helvetica,sans-Serif" font-size="10.00">teitohtml.cpp</text>
</a>
</g>
</g>
<!-- Node1&#45;&gt;Node10 -->
<g id="edge9_Node000001_Node000010" class="edge">
<title>Node1&#45;&gt;Node10</title>
<g id="a_edge9_Node000001_Node000010"><a xlink:title=" ">
<path fill="none" stroke="#63b8ff" d="M750.74,-56.8C827.93,-48.91 957.79,-34.85 1069,-19 1071.88,-18.59 1074.84,-18.14 1077.83,-17.68"/>
<polygon fill="#63b8ff" stroke="#63b8ff" points="750.27,-53.33 740.67,-57.83 750.98,-60.3 750.27,-53.33"/>
</a>
</g>
</g>
<!-- Node11 -->
<g id="Node000011" class="node">
<title>Node11</title>
<g id="a_Node000011"><a xlink:href="../../d9/de8/thmltohtml_8cpp.html" target="_top" xlink:title=" ">
<polygon fill="white" stroke="#666666" points="1270,-19 1178,-19 1178,0 1270,0 1270,-19"/>
<text text-anchor="middle" x="1224" y="-7" font-family="Helvetica,sans-Serif" font-size="10.00">thmltohtml.cpp</text>
</a>
</g>
</g>
<!-- Node1&#45;&gt;Node11 -->
<g id="edge10_Node000001_Node000011" class="edge">
<title>Node1&#45;&gt;Node11</title>
<g id="a_edge10_Node000001_Node000011"><a xlink:title=" ">
<path fill="none" stroke="#63b8ff" d="M750.96,-58.61C845.06,-51.55 1020.26,-37.29 1169,-19 1171.88,-18.65 1174.83,-18.26 1177.82,-17.85"/>
<polygon fill="#63b8ff" stroke="#63b8ff" points="750.44,-55.14 740.73,-59.38 750.96,-62.12 750.44,-55.14"/>
</a>
</g>
</g>
</g>
</svg>

<g id="navigator" transform="translate(0 0)" fill="#404254">
  <rect fill="#f2f5e9" fill-opacity="0.5" stroke="#606060" stroke-width=".5" x="0" y="0" width="60" height="60"/>
  <use id="zoomplus" xlink:href="#zoomPlus" x="17" y="9" onmousedown="handleZoom(evt,'in')"/>
  <use id="zoomminus" xlink:href="#zoomMin" x="42" y="9" onmousedown="handleZoom(evt,'out')"/>
  <use id="reset" xlink:href="#resetDef" x="30" y="36" onmousedown="handleReset()"/>
   <use id="arrowup" xlink:href="#arrowUp" x="0" y="0" onmousedown="handlePan(0,-1)"/>
  <use id="arrowright" xlink:href="#arrowRight" x="0" y="0" onmousedown="handlePan(1,0)"/>
  <use id="arrowdown" xlink:href="#arrowDown" x="0" y="0" onmousedown="handlePan(0,1)"/>
  <use id="arrowleft" xlink:href="#arrowLeft" x="0" y="0" onmousedown="handlePan(-1,0)"/>
</g>
<svg viewBox="0 0 15 15" width="100%" height="30px" preserveAspectRatio="xMaxYMin meet">
 <g id="arrow_out" transform="scale(0.3 0.3)">
  <a xlink:href="referencemanager_8h__dep__incl_org.svg" target="_base">
   <rect id="button" ry="5" rx="5" y="6" x="6" height="38" width="38"
        fill="#f2f5e9" fill-opacity="0.5" stroke="#606060" stroke-width="1.0"/>
   <path id="arrow"
     d="M 11.500037,31.436501 C 11.940474,20.09759 22.043105,11.32322 32.158766,21.979434 L 37.068811,17.246167 C 37.068811,17.246167 37.088388,32 37.088388,32 L 22.160133,31.978069 C 22.160133,31.978069 26.997745,27.140456 26.997745,27.140456 C 18.528582,18.264221 13.291696,25.230495 11.500037,31.436501 z"
     style="fill:#404040;"/>
  </a>
 </g>
</svg>

<style type='text/css'>
<![CDATA[
[data-mouse-over-selected='false'] { opacity: 0.7; }
[data-mouse-over-selected='true']  { opacity: 1.0; }
]]>
</style>
<script type="application/ecmascript"><![CDATA[
document.addEventListener('DOMContentLoaded', (event) => {
  highlightEdges();
  highlightAdjacentNodes();
});
]]></script>
</svg>
