<?xml version="1.0" encoding="UTF-8" standalone="no"?>
<!DOCTYPE svg PUBLIC "-//W3C//DTD SVG 1.1//EN"
 "http://www.w3.org/Graphics/SVG/1.1/DTD/svg11.dtd">
<!-- Generated by graphviz version 2.43.0 (0)
 -->
<!-- Title: referencemanager.h Pages: 1 -->
<svg width="1662pt" height="84pt"
 viewBox="0.00 0.00 1661.50 84.00" xmlns="http://www.w3.org/2000/svg" xmlns:xlink="http://www.w3.org/1999/xlink">
<g id="graph0" class="graph" transform="scale(1 1) rotate(0) translate(4 80)">
<title>referencemanager.h</title>
<polygon fill="white" stroke="transparent" points="-4,4 -4,-80 1657.5,-80 1657.5,4 -4,4"/>
<!-- Node1 -->
<g id="node1" class="node">
<title>Node1</title>
<g id="a_node1"><a xlink:title=" ">
<polygon fill="#bfbfbf" stroke="black" points="727,-56.5 727,-75.5 842,-75.5 842,-56.5 727,-56.5"/>
<text text-anchor="middle" x="784.5" y="-63.5" font-family="Helvetica,sans-Serif" font-size="10.00">referencemanager.h</text>
</a>
</g>
</g>
<!-- Node2 -->
<g id="node2" class="node">
<title>Node2</title>
<g id="a_node2"><a xlink:href="../../db/d7a/osistohtml_8cpp.html" target="_top" xlink:title=" ">
<polygon fill="white" stroke="black" points="0,-0.5 0,-19.5 89,-19.5 89,-0.5 0,-0.5"/>
<text text-anchor="middle" x="44.5" y="-7.5" font-family="Helvetica,sans-Serif" font-size="10.00">osistohtml.cpp</text>
</a>
</g>
</g>
<!-- Node1&#45;&gt;Node2 -->
<g id="edge1" class="edge">
<title>Node1&#45;&gt;Node2</title>
<path fill="none" stroke="midnightblue" d="M716.91,-62.8C593.65,-58.29 324.24,-46.15 98.5,-20 95.48,-19.65 92.37,-19.25 89.24,-18.81"/>
<polygon fill="midnightblue" stroke="midnightblue" points="716.84,-66.3 726.96,-63.16 717.09,-59.3 716.84,-66.3"/>
</g>
<!-- Node3 -->
<g id="node3" class="node">
<title>Node3</title>
<g id="a_node3"><a xlink:href="../../d5/de5/teitohtml_8cpp.html" target="_top" xlink:title=" ">
<polygon fill="white" stroke="black" points="107.5,-0.5 107.5,-19.5 189.5,-19.5 189.5,-0.5 107.5,-0.5"/>
<text text-anchor="middle" x="148.5" y="-7.5" font-family="Helvetica,sans-Serif" font-size="10.00">teitohtml.cpp</text>
</a>
</g>
</g>
<!-- Node1&#45;&gt;Node3 -->
<g id="edge2" class="edge">
<title>Node1&#45;&gt;Node3</title>
<path fill="none" stroke="midnightblue" d="M716.68,-62.03C607.3,-56.74 385.28,-43.92 198.5,-20 195.61,-19.63 192.64,-19.21 189.65,-18.75"/>
<polygon fill="midnightblue" stroke="midnightblue" points="716.75,-65.54 726.91,-62.52 717.09,-58.55 716.75,-65.54"/>
</g>
<!-- Node4 -->
<g id="node4" class="node">
<title>Node4</title>
<g id="a_node4"><a xlink:href="../../d9/de8/thmltohtml_8cpp.html" target="_top" xlink:title=" ">
<polygon fill="white" stroke="black" points="207.5,-0.5 207.5,-19.5 299.5,-19.5 299.5,-0.5 207.5,-0.5"/>
<text text-anchor="middle" x="253.5" y="-7.5" font-family="Helvetica,sans-Serif" font-size="10.00">thmltohtml.cpp</text>
</a>
</g>
</g>
<!-- Node1&#45;&gt;Node4 -->
<g id="edge3" class="edge">
<title>Node1&#45;&gt;Node4</title>
<path fill="none" stroke="midnightblue" d="M716.78,-60.05C624.33,-52.97 453.51,-38.7 308.5,-20 305.62,-19.63 302.66,-19.22 299.68,-18.79"/>
<polygon fill="midnightblue" stroke="midnightblue" points="716.6,-63.55 726.84,-60.82 717.14,-56.57 716.6,-63.55"/>
</g>
<!-- Node5 -->
<g id="node5" class="node">
<title>Node5</title>
<g id="a_node5"><a xlink:href="../../d7/dfe/referencemanager_8cpp.html" target="_top" xlink:title=" ">
<polygon fill="white" stroke="black" points="317.5,-0.5 317.5,-19.5 443.5,-19.5 443.5,-0.5 317.5,-0.5"/>
<text text-anchor="middle" x="380.5" y="-7.5" font-family="Helvetica,sans-Serif" font-size="10.00">referencemanager.cpp</text>
</a>
</g>
</g>
<!-- Node1&#45;&gt;Node5 -->
<g id="edge4" class="edge">
<title>Node1&#45;&gt;Node5</title>
<path fill="none" stroke="midnightblue" d="M716.64,-55.93C640.45,-45.75 517.79,-29.35 443.6,-19.43"/>
<polygon fill="midnightblue" stroke="midnightblue" points="716.24,-59.41 726.62,-57.26 717.17,-52.47 716.24,-59.41"/>
</g>
<!-- Node6 -->
<g id="node6" class="node">
<title>Node6</title>
<g id="a_node6"><a xlink:href="../../dc/d52/cdisplayrendering_8cpp.html" target="_top" xlink:title=" ">
<polygon fill="white" stroke="black" points="461.5,-0.5 461.5,-19.5 585.5,-19.5 585.5,-0.5 461.5,-0.5"/>
<text text-anchor="middle" x="523.5" y="-7.5" font-family="Helvetica,sans-Serif" font-size="10.00">cdisplayrendering.cpp</text>
</a>
</g>
</g>
<!-- Node1&#45;&gt;Node6 -->
<g id="edge5" class="edge">
<title>Node1&#45;&gt;Node6</title>
<path fill="none" stroke="midnightblue" d="M733.31,-54.41C683.99,-44.2 610.31,-28.96 564.66,-19.52"/>
<polygon fill="midnightblue" stroke="midnightblue" points="732.64,-57.84 743.14,-56.44 734.06,-50.99 732.64,-57.84"/>
</g>
<!-- Node7 -->
<g id="node7" class="node">
<title>Node7</title>
<g id="a_node7"><a xlink:href="../../da/d21/centrydisplay_8cpp.html" target="_top" xlink:title=" ">
<polygon fill="white" stroke="black" points="604,-0.5 604,-19.5 705,-19.5 705,-0.5 604,-0.5"/>
<text text-anchor="middle" x="654.5" y="-7.5" font-family="Helvetica,sans-Serif" font-size="10.00">centrydisplay.cpp</text>
</a>
</g>
</g>
<!-- Node1&#45;&gt;Node7 -->
<g id="edge6" class="edge">
<title>Node1&#45;&gt;Node7</title>
<path fill="none" stroke="midnightblue" d="M754.41,-52.5C730.04,-42.38 696.36,-28.39 675,-19.52"/>
<polygon fill="midnightblue" stroke="midnightblue" points="753.32,-55.84 763.9,-56.44 756.01,-49.38 753.32,-55.84"/>
</g>
<!-- Node8 -->
<g id="node8" class="node">
<title>Node8</title>
<g id="a_node8"><a xlink:href="../../d5/d19/crossrefrendering_8cpp.html" target="_top" xlink:title=" ">
<polygon fill="white" stroke="black" points="723.5,-0.5 723.5,-19.5 845.5,-19.5 845.5,-0.5 723.5,-0.5"/>
<text text-anchor="middle" x="784.5" y="-7.5" font-family="Helvetica,sans-Serif" font-size="10.00">crossrefrendering.cpp</text>
</a>
</g>
</g>
<!-- Node1&#45;&gt;Node8 -->
<g id="edge7" class="edge">
<title>Node1&#45;&gt;Node8</title>
<path fill="none" stroke="midnightblue" d="M784.5,-45.8C784.5,-36.91 784.5,-26.78 784.5,-19.75"/>
<polygon fill="midnightblue" stroke="midnightblue" points="781,-46.08 784.5,-56.08 788,-46.08 781,-46.08"/>
</g>
<!-- Node9 -->
<g id="node9" class="node">
<title>Node9</title>
<g id="a_node9"><a xlink:href="../../db/d72/ctextrendering_8cpp.html" target="_top" xlink:title=" ">
<polygon fill="white" stroke="black" points="863.5,-0.5 863.5,-19.5 971.5,-19.5 971.5,-0.5 863.5,-0.5"/>
<text text-anchor="middle" x="917.5" y="-7.5" font-family="Helvetica,sans-Serif" font-size="10.00">ctextrendering.cpp</text>
</a>
</g>
</g>
<!-- Node1&#45;&gt;Node9 -->
<g id="edge8" class="edge">
<title>Node1&#45;&gt;Node9</title>
<path fill="none" stroke="midnightblue" d="M814.95,-52.64C839.91,-42.5 874.58,-28.43 896.52,-19.52"/>
<polygon fill="midnightblue" stroke="midnightblue" points="813.52,-49.44 805.57,-56.44 816.16,-55.92 813.52,-49.44"/>
</g>
<!-- Node10 -->
<g id="node10" class="node">
<title>Node10</title>
<g id="a_node10"><a xlink:href="../../d9/de6/cbookmarkindex_8cpp.html" target="_top" xlink:title=" ">
<polygon fill="white" stroke="black" points="990,-0.5 990,-19.5 1109,-19.5 1109,-0.5 990,-0.5"/>
<text text-anchor="middle" x="1049.5" y="-7.5" font-family="Helvetica,sans-Serif" font-size="10.00">cbookmarkindex.cpp</text>
</a>
</g>
</g>
<!-- Node1&#45;&gt;Node10 -->
<g id="edge9" class="edge">
<title>Node1&#45;&gt;Node10</title>
<path fill="none" stroke="midnightblue" d="M836.47,-54.41C886.55,-44.2 961.36,-28.96 1007.71,-19.52"/>
<polygon fill="midnightblue" stroke="midnightblue" points="835.59,-51.02 826.49,-56.44 836.99,-57.88 835.59,-51.02"/>
</g>
<!-- Node11 -->
<g id="node11" class="node">
<title>Node11</title>
<g id="a_node11"><a xlink:href="../../d4/d3a/bttextbrowser_8cpp.html" target="_top" xlink:title=" ">
<polygon fill="white" stroke="black" points="1127.5,-0.5 1127.5,-19.5 1231.5,-19.5 1231.5,-0.5 1127.5,-0.5"/>
<text text-anchor="middle" x="1179.5" y="-7.5" font-family="Helvetica,sans-Serif" font-size="10.00">bttextbrowser.cpp</text>
</a>
</g>
</g>
<!-- Node1&#45;&gt;Node11 -->
<g id="edge10" class="edge">
<title>Node1&#45;&gt;Node11</title>
<path fill="none" stroke="midnightblue" d="M852.24,-56.13C919.74,-47.23 1026.33,-33.01 1118.5,-20 1121.36,-19.6 1124.3,-19.18 1127.26,-18.75"/>
<polygon fill="midnightblue" stroke="midnightblue" points="851.61,-52.68 842.16,-57.46 852.53,-59.62 851.61,-52.68"/>
</g>
<!-- Node12 -->
<g id="node12" class="node">
<title>Node12</title>
<g id="a_node12"><a xlink:href="../../d5/deb/cexportmanager_8cpp.html" target="_top" xlink:title=" ">
<polygon fill="white" stroke="black" points="1249.5,-0.5 1249.5,-19.5 1365.5,-19.5 1365.5,-0.5 1249.5,-0.5"/>
<text text-anchor="middle" x="1307.5" y="-7.5" font-family="Helvetica,sans-Serif" font-size="10.00">cexportmanager.cpp</text>
</a>
</g>
</g>
<!-- Node1&#45;&gt;Node12 -->
<g id="edge11" class="edge">
<title>Node1&#45;&gt;Node12</title>
<path fill="none" stroke="midnightblue" d="M852.13,-59.07C941.24,-51.1 1102.79,-36.04 1240.5,-20 1243.41,-19.66 1246.4,-19.3 1249.41,-18.93"/>
<polygon fill="midnightblue" stroke="midnightblue" points="851.81,-55.59 842.16,-59.97 852.43,-62.56 851.81,-55.59"/>
</g>
<!-- Node13 -->
<g id="node13" class="node">
<title>Node13</title>
<g id="a_node13"><a xlink:href="../../d5/d80/cinfodisplay_8cpp.html" target="_top" xlink:title=" ">
<polygon fill="white" stroke="black" points="1384,-0.5 1384,-19.5 1479,-19.5 1479,-0.5 1384,-0.5"/>
<text text-anchor="middle" x="1431.5" y="-7.5" font-family="Helvetica,sans-Serif" font-size="10.00">cinfodisplay.cpp</text>
</a>
</g>
</g>
<!-- Node1&#45;&gt;Node13 -->
<g id="edge12" class="edge">
<title>Node1&#45;&gt;Node13</title>
<path fill="none" stroke="midnightblue" d="M852.29,-61.61C962.19,-55.71 1185.95,-42.04 1374.5,-20 1377.58,-19.64 1380.76,-19.23 1383.95,-18.8"/>
<polygon fill="midnightblue" stroke="midnightblue" points="851.82,-58.13 842.02,-62.15 852.19,-65.12 851.82,-58.13"/>
</g>
<!-- Node14 -->
<g id="node14" class="node">
<title>Node14</title>
<g id="a_node14"><a xlink:href="../../de/db2/btmodelviewreaddisplay_8cpp.html" target="_top" xlink:title=" ">
<polygon fill="white" stroke="black" points="1497.5,-0.5 1497.5,-19.5 1653.5,-19.5 1653.5,-0.5 1497.5,-0.5"/>
<text text-anchor="middle" x="1575.5" y="-7.5" font-family="Helvetica,sans-Serif" font-size="10.00">btmodelviewreaddisplay.cpp</text>
</a>
</g>
</g>
<!-- Node1&#45;&gt;Node14 -->
<g id="edge13" class="edge">
<title>Node1&#45;&gt;Node14</title>
<path fill="none" stroke="midnightblue" d="M852.28,-61.55C977.87,-54.97 1255.24,-39.51 1488.5,-20 1491.38,-19.76 1494.3,-19.51 1497.26,-19.24"/>
<polygon fill="midnightblue" stroke="midnightblue" points="851.85,-58.07 842.05,-62.09 852.22,-65.06 851.85,-58.07"/>
</g>
</g>
</svg>
