<?xml version="1.0" encoding="UTF-8" standalone="no"?>
<!DOCTYPE svg PUBLIC "-//W3C//DTD SVG 1.1//EN"
 "http://www.w3.org/Graphics/SVG/1.1/DTD/svg11.dtd">
<!-- Generated by graphviz version 2.43.0 (0)
 -->
<!-- Title: CBookTreeChooser Pages: 1 -->
<svg width="145pt" height="496pt"
 viewBox="0.00 0.00 145.00 496.00" xmlns="http://www.w3.org/2000/svg" xmlns:xlink="http://www.w3.org/1999/xlink">
<g id="graph0" class="graph" transform="scale(1 1) rotate(0) translate(4 492)">
<title>CBookTreeChooser</title>
<polygon fill="white" stroke="transparent" points="-4,4 -4,-492 141,-492 141,4 -4,4"/>
<!-- Node1 -->
<g id="node1" class="node">
<title>Node1</title>
<g id="a_node1"><a xlink:title=" ">
<polygon fill="#bfbfbf" stroke="black" points="2.5,-0.5 2.5,-211.5 134.5,-211.5 134.5,-0.5 2.5,-0.5"/>
<text text-anchor="middle" x="68.5" y="-199.5" font-family="Helvetica,sans-Serif" font-size="10.00">CBookTreeChooser</text>
<polyline fill="none" stroke="black" points="2.5,-192.5 134.5,-192.5 "/>
<text text-anchor="start" x="10.5" y="-180.5" font-family="Helvetica,sans-Serif" font-size="10.00">&#45; m_key</text>
<text text-anchor="start" x="10.5" y="-169.5" font-family="Helvetica,sans-Serif" font-size="10.00">&#45; m_modules</text>
<text text-anchor="start" x="10.5" y="-158.5" font-family="Helvetica,sans-Serif" font-size="10.00">&#45; m_treeView</text>
<polyline fill="none" stroke="black" points="2.5,-151.5 134.5,-151.5 "/>
<text text-anchor="start" x="10.5" y="-139.5" font-family="Helvetica,sans-Serif" font-size="10.00">+ CBookTreeChooser()</text>
<text text-anchor="start" x="10.5" y="-128.5" font-family="Helvetica,sans-Serif" font-size="10.00">+ key()</text>
<text text-anchor="start" x="10.5" y="-117.5" font-family="Helvetica,sans-Serif" font-size="10.00">+ refreshContent()</text>
<text text-anchor="start" x="10.5" y="-106.5" font-family="Helvetica,sans-Serif" font-size="10.00">+ setKey()</text>
<text text-anchor="start" x="10.5" y="-95.5" font-family="Helvetica,sans-Serif" font-size="10.00">+ setKey()</text>
<text text-anchor="start" x="10.5" y="-84.5" font-family="Helvetica,sans-Serif" font-size="10.00">+ setModules()</text>
<text text-anchor="start" x="10.5" y="-73.5" font-family="Helvetica,sans-Serif" font-size="10.00">+ doShow()</text>
<text text-anchor="start" x="10.5" y="-62.5" font-family="Helvetica,sans-Serif" font-size="10.00">+ updateKey()</text>
<text text-anchor="start" x="10.5" y="-51.5" font-family="Helvetica,sans-Serif" font-size="10.00">&#45; addKeyChildren()</text>
<text text-anchor="start" x="10.5" y="-40.5" font-family="Helvetica,sans-Serif" font-size="10.00">&#45; adjustFont()</text>
<text text-anchor="start" x="10.5" y="-29.5" font-family="Helvetica,sans-Serif" font-size="10.00">&#45; handleHistoryMoved()</text>
<text text-anchor="start" x="10.5" y="-18.5" font-family="Helvetica,sans-Serif" font-size="10.00">&#45; setupTree()</text>
<text text-anchor="start" x="10.5" y="-7.5" font-family="Helvetica,sans-Serif" font-size="10.00">&#45; itemActivated()</text>
</a>
</g>
</g>
<!-- Node2 -->
<g id="node2" class="node">
<title>Node2</title>
<g id="a_node2"><a xlink:href="../../df/d40/classCKeyChooser.html" target="_top" xlink:title=" ">
<polygon fill="white" stroke="black" points="0,-248.5 0,-393.5 137,-393.5 137,-248.5 0,-248.5"/>
<text text-anchor="middle" x="68.5" y="-381.5" font-family="Helvetica,sans-Serif" font-size="10.00">CKeyChooser</text>
<polyline fill="none" stroke="black" points="0,-374.5 137,-374.5 "/>
<text text-anchor="start" x="8" y="-362.5" font-family="Helvetica,sans-Serif" font-size="10.00">&#45; m_history</text>
<polyline fill="none" stroke="black" points="0,-355.5 137,-355.5 "/>
<text text-anchor="start" x="8" y="-343.5" font-family="Helvetica,sans-Serif" font-size="10.00">+ history()</text>
<text text-anchor="start" x="8" y="-332.5" font-family="Helvetica,sans-Serif" font-size="10.00">+ key()</text>
<text text-anchor="start" x="8" y="-321.5" font-family="Helvetica,sans-Serif" font-size="10.00">+ refreshContent()</text>
<text text-anchor="start" x="8" y="-310.5" font-family="Helvetica,sans-Serif" font-size="10.00">+ setKey()</text>
<text text-anchor="start" x="8" y="-299.5" font-family="Helvetica,sans-Serif" font-size="10.00">+ setModules()</text>
<text text-anchor="start" x="8" y="-288.5" font-family="Helvetica,sans-Serif" font-size="10.00">+ createInstance()</text>
<text text-anchor="start" x="8" y="-277.5" font-family="Helvetica,sans-Serif" font-size="10.00">+ updateKey()</text>
<text text-anchor="start" x="8" y="-266.5" font-family="Helvetica,sans-Serif" font-size="10.00"># CKeyChooser()</text>
<text text-anchor="start" x="8" y="-255.5" font-family="Helvetica,sans-Serif" font-size="10.00"># handleHistoryMoved()</text>
</a>
</g>
</g>
<!-- Node2&#45;&gt;Node1 -->
<g id="edge1" class="edge">
<title>Node2&#45;&gt;Node1</title>
<path fill="none" stroke="midnightblue" d="M68.5,-238.35C68.5,-229.61 68.5,-220.64 68.5,-211.68"/>
<polygon fill="none" stroke="midnightblue" points="65,-238.48 68.5,-248.48 72,-238.48 65,-238.48"/>
</g>
<!-- Node3 -->
<g id="node3" class="node">
<title>Node3</title>
<g id="a_node3"><a xlink:href="../../d8/ded/classQWidget.html" target="_top" xlink:title=" ">
<polygon fill="white" stroke="black" points="39,-430.5 39,-487.5 98,-487.5 98,-430.5 39,-430.5"/>
<text text-anchor="middle" x="68.5" y="-475.5" font-family="Helvetica,sans-Serif" font-size="10.00">QWidget</text>
<polyline fill="none" stroke="black" points="39,-468.5 98,-468.5 "/>
<text text-anchor="middle" x="68.5" y="-456.5" font-family="Helvetica,sans-Serif" font-size="10.00"> </text>
<polyline fill="none" stroke="black" points="39,-449.5 98,-449.5 "/>
<text text-anchor="middle" x="68.5" y="-437.5" font-family="Helvetica,sans-Serif" font-size="10.00"> </text>
</a>
</g>
</g>
<!-- Node3&#45;&gt;Node2 -->
<g id="edge2" class="edge">
<title>Node3&#45;&gt;Node2</title>
<path fill="none" stroke="midnightblue" d="M68.5,-420.36C68.5,-412 68.5,-402.87 68.5,-393.66"/>
<polygon fill="none" stroke="midnightblue" points="65,-420.48 68.5,-430.48 72,-420.48 65,-420.48"/>
</g>
</g>
</svg>
