<?xml version="1.0" encoding="UTF-8" standalone="no"?>
<!DOCTYPE svg PUBLIC "-//W3C//DTD SVG 1.1//EN"
 "http://www.w3.org/Graphics/SVG/1.1/DTD/svg11.dtd">
<!-- Generated by graphviz version 2.43.0 (0)
 -->
<!-- Title: BtTipDialog Pages: 1 -->
<svg width="141pt" height="226pt"
 viewBox="0.00 0.00 141.00 226.00" xmlns="http://www.w3.org/2000/svg" xmlns:xlink="http://www.w3.org/1999/xlink">
<g id="graph0" class="graph" transform="scale(1 1) rotate(0) translate(4 222)">
<title>BtTipDialog</title>
<polygon fill="white" stroke="transparent" points="-4,4 -4,-222 137,-222 137,4 -4,4"/>
<!-- Node1 -->
<g id="node1" class="node">
<title>Node1</title>
<g id="a_node1"><a xlink:title=" ">
<polygon fill="#bfbfbf" stroke="black" points="0,-0.5 0,-123.5 133,-123.5 133,-0.5 0,-0.5"/>
<text text-anchor="middle" x="66.5" y="-111.5" font-family="Helvetica,sans-Serif" font-size="10.00">BtTipDialog</text>
<polyline fill="none" stroke="black" points="0,-104.5 133,-104.5 "/>
<text text-anchor="start" x="8" y="-92.5" font-family="Helvetica,sans-Serif" font-size="10.00">&#45; m_buttonBox</text>
<text text-anchor="start" x="8" y="-81.5" font-family="Helvetica,sans-Serif" font-size="10.00">&#45; m_showTipsCheckBox</text>
<text text-anchor="start" x="8" y="-70.5" font-family="Helvetica,sans-Serif" font-size="10.00">&#45; m_tipNumber</text>
<text text-anchor="start" x="8" y="-59.5" font-family="Helvetica,sans-Serif" font-size="10.00">&#45; m_tips</text>
<text text-anchor="start" x="8" y="-48.5" font-family="Helvetica,sans-Serif" font-size="10.00">&#45; m_tipView</text>
<polyline fill="none" stroke="black" points="0,-41.5 133,-41.5 "/>
<text text-anchor="start" x="8" y="-29.5" font-family="Helvetica,sans-Serif" font-size="10.00">+ BtTipDialog()</text>
<text text-anchor="start" x="8" y="-18.5" font-family="Helvetica,sans-Serif" font-size="10.00">&#45; displayTip()</text>
<text text-anchor="start" x="8" y="-7.5" font-family="Helvetica,sans-Serif" font-size="10.00">&#45; retranslateUi()</text>
</a>
</g>
</g>
<!-- Node2 -->
<g id="node2" class="node">
<title>Node2</title>
<g id="a_node2"><a xlink:href="../../d9/d46/classQDialog.html" target="_top" xlink:title=" ">
<polygon fill="white" stroke="black" points="38.5,-160.5 38.5,-217.5 94.5,-217.5 94.5,-160.5 38.5,-160.5"/>
<text text-anchor="middle" x="66.5" y="-205.5" font-family="Helvetica,sans-Serif" font-size="10.00">QDialog</text>
<polyline fill="none" stroke="black" points="38.5,-198.5 94.5,-198.5 "/>
<text text-anchor="middle" x="66.5" y="-186.5" font-family="Helvetica,sans-Serif" font-size="10.00"> </text>
<polyline fill="none" stroke="black" points="38.5,-179.5 94.5,-179.5 "/>
<text text-anchor="middle" x="66.5" y="-167.5" font-family="Helvetica,sans-Serif" font-size="10.00"> </text>
</a>
</g>
</g>
<!-- Node2&#45;&gt;Node1 -->
<g id="edge1" class="edge">
<title>Node2&#45;&gt;Node1</title>
<path fill="none" stroke="midnightblue" d="M66.5,-150.1C66.5,-141.74 66.5,-132.68 66.5,-123.67"/>
<polygon fill="none" stroke="midnightblue" points="63,-150.26 66.5,-160.26 70,-150.26 63,-150.26"/>
</g>
</g>
</svg>
