<?xml version="1.0" encoding="UTF-8" standalone="no"?>
<!DOCTYPE svg PUBLIC "-//W3C//DTD SVG 1.1//EN"
 "http://www.w3.org/Graphics/SVG/1.1/DTD/svg11.dtd">
<!-- Generated by graphviz version 2.43.0 (0)
 -->
<!-- Title: QFrame Pages: 1 -->
<svg width="143pt" height="193pt"
 viewBox="0.00 0.00 143.00 193.00" xmlns="http://www.w3.org/2000/svg" xmlns:xlink="http://www.w3.org/1999/xlink">
<g id="graph0" class="graph" transform="scale(1 1) rotate(0) translate(4 189)">
<title>QFrame</title>
<polygon fill="white" stroke="transparent" points="-4,4 -4,-189 139,-189 139,4 -4,4"/>
<!-- Node1 -->
<g id="node1" class="node">
<title>Node1</title>
<g id="a_node1"><a xlink:title=" ">
<polygon fill="#bfbfbf" stroke="black" points="40,-127.5 40,-184.5 95,-184.5 95,-127.5 40,-127.5"/>
<text text-anchor="middle" x="67.5" y="-172.5" font-family="Helvetica,sans-Serif" font-size="10.00">QFrame</text>
<polyline fill="none" stroke="black" points="40,-165.5 95,-165.5 "/>
<text text-anchor="middle" x="67.5" y="-153.5" font-family="Helvetica,sans-Serif" font-size="10.00"> </text>
<polyline fill="none" stroke="black" points="40,-146.5 95,-146.5 "/>
<text text-anchor="middle" x="67.5" y="-134.5" font-family="Helvetica,sans-Serif" font-size="10.00"> </text>
</a>
</g>
</g>
<!-- Node2 -->
<g id="node2" class="node">
<title>Node2</title>
<g id="a_node2"><a xlink:href="../../d4/d6a/classBtColorWidget.html" target="_top" xlink:title=" ">
<polygon fill="white" stroke="black" points="0,-0.5 0,-90.5 135,-90.5 135,-0.5 0,-0.5"/>
<text text-anchor="middle" x="67.5" y="-78.5" font-family="Helvetica,sans-Serif" font-size="10.00">BtColorWidget</text>
<polyline fill="none" stroke="black" points="0,-71.5 135,-71.5 "/>
<text text-anchor="middle" x="67.5" y="-59.5" font-family="Helvetica,sans-Serif" font-size="10.00"> </text>
<polyline fill="none" stroke="black" points="0,-52.5 135,-52.5 "/>
<text text-anchor="start" x="8" y="-40.5" font-family="Helvetica,sans-Serif" font-size="10.00">+ BtColorWidget()</text>
<text text-anchor="start" x="8" y="-29.5" font-family="Helvetica,sans-Serif" font-size="10.00">+ sizeHint()</text>
<text text-anchor="start" x="8" y="-18.5" font-family="Helvetica,sans-Serif" font-size="10.00">+ setColor()</text>
<text text-anchor="start" x="8" y="-7.5" font-family="Helvetica,sans-Serif" font-size="10.00"># mouseReleaseEvent()</text>
</a>
</g>
</g>
<!-- Node1&#45;&gt;Node2 -->
<g id="edge1" class="edge">
<title>Node1&#45;&gt;Node2</title>
<path fill="none" stroke="midnightblue" d="M67.5,-117.21C67.5,-108.61 67.5,-99.39 67.5,-90.55"/>
<polygon fill="none" stroke="midnightblue" points="64,-117.34 67.5,-127.34 71,-117.34 64,-117.34"/>
</g>
</g>
</svg>
