<?xml version="1.0" encoding="UTF-8" standalone="no"?>
<!DOCTYPE svg PUBLIC "-//W3C//DTD SVG 1.1//EN"
 "http://www.w3.org/Graphics/SVG/1.1/DTD/svg11.dtd">
<!-- Generated by graphviz version 2.43.0 (0)
 -->
<!-- Title: chistorycombobox.h Pages: 1 -->
<svg width="381pt" height="192pt"
 viewBox="0.00 0.00 381.00 192.00" xmlns="http://www.w3.org/2000/svg" xmlns:xlink="http://www.w3.org/1999/xlink">
<g id="graph0" class="graph" transform="scale(1 1) rotate(0) translate(4 188)">
<title>chistorycombobox.h</title>
<!-- Node1 -->
<g id="Node000001" class="node">
<title>Node1</title>
<g id="a_Node000001"><a xlink:title=" ">
<polygon fill="#999999" stroke="#666666" points="295.5,-184 179.5,-184 179.5,-165 295.5,-165 295.5,-184"/>
<text text-anchor="middle" x="237.5" y="-172" font-family="Helvetica,sans-Serif" font-size="10.00">chistorycombobox.h</text>
</a>
</g>
</g>
<!-- Node2 -->
<g id="Node000002" class="node">
<title>Node2</title>
<g id="a_Node000002"><a xlink:href="../../d3/d8e/btsearchoptionsarea_8h.html" target="_top" xlink:title=" ">
<polygon fill="white" stroke="#666666" points="228,-129 103,-129 103,-110 228,-110 228,-129"/>
<text text-anchor="middle" x="165.5" y="-117" font-family="Helvetica,sans-Serif" font-size="10.00">btsearchoptionsarea.h</text>
</a>
</g>
</g>
<!-- Node1&#45;&gt;Node2 -->
<g id="edge1_Node000001_Node000002" class="edge">
<title>Node1&#45;&gt;Node2</title>
<g id="a_edge1_Node000001_Node000002"><a xlink:title=" ">
<path fill="none" stroke="#63b8ff" d="M217.63,-158.88C204.68,-149.34 188.2,-137.21 177.28,-129.17"/>
<polygon fill="#63b8ff" stroke="#63b8ff" points="215.8,-161.88 225.93,-164.98 219.95,-156.24 215.8,-161.88"/>
</a>
</g>
</g>
<!-- Node7 -->
<g id="Node000007" class="node">
<title>Node7</title>
<g id="a_Node000007"><a xlink:href="../../d2/d13/chistorycombobox_8cpp.html" target="_top" xlink:title=" ">
<polygon fill="white" stroke="#666666" points="373,-129 246,-129 246,-110 373,-110 373,-129"/>
<text text-anchor="middle" x="309.5" y="-117" font-family="Helvetica,sans-Serif" font-size="10.00">chistorycombobox.cpp</text>
</a>
</g>
</g>
<!-- Node1&#45;&gt;Node7 -->
<g id="edge7_Node000001_Node000007" class="edge">
<title>Node1&#45;&gt;Node7</title>
<g id="a_edge7_Node000001_Node000007"><a xlink:title=" ">
<path fill="none" stroke="#63b8ff" d="M257.37,-158.88C270.32,-149.34 286.8,-137.21 297.72,-129.17"/>
<polygon fill="#63b8ff" stroke="#63b8ff" points="255.05,-156.24 249.07,-164.98 259.2,-161.88 255.05,-156.24"/>
</a>
</g>
</g>
<!-- Node3 -->
<g id="Node000003" class="node">
<title>Node3</title>
<g id="a_Node000003"><a xlink:href="../../d4/d4d/btsearchoptionsarea_8cpp.html" target="_top" xlink:title=" ">
<polygon fill="white" stroke="#666666" points="137,-74 0,-74 0,-55 137,-55 137,-74"/>
<text text-anchor="middle" x="68.5" y="-62" font-family="Helvetica,sans-Serif" font-size="10.00">btsearchoptionsarea.cpp</text>
</a>
</g>
</g>
<!-- Node2&#45;&gt;Node3 -->
<g id="edge2_Node000002_Node000003" class="edge">
<title>Node2&#45;&gt;Node3</title>
<g id="a_edge2_Node000002_Node000003"><a xlink:title=" ">
<path fill="none" stroke="#63b8ff" d="M140.73,-104.97C123,-95.28 99.65,-82.52 84.37,-74.17"/>
<polygon fill="#63b8ff" stroke="#63b8ff" points="139.46,-108.26 149.92,-109.98 142.82,-102.12 139.46,-108.26"/>
</a>
</g>
</g>
<!-- Node4 -->
<g id="Node000004" class="node">
<title>Node4</title>
<g id="a_Node000004"><a xlink:href="../../d2/d1a/csearchdialog_8cpp.html" target="_top" xlink:title=" ">
<polygon fill="white" stroke="#666666" points="217.5,-19 113.5,-19 113.5,0 217.5,0 217.5,-19"/>
<text text-anchor="middle" x="165.5" y="-7" font-family="Helvetica,sans-Serif" font-size="10.00">csearchdialog.cpp</text>
</a>
</g>
</g>
<!-- Node2&#45;&gt;Node4 -->
<g id="edge3_Node000002_Node000004" class="edge">
<title>Node2&#45;&gt;Node4</title>
<g id="a_edge3_Node000002_Node000004"><a xlink:title=" ">
<path fill="none" stroke="#63b8ff" d="M165.5,-99.48C165.5,-75.84 165.5,-36.5 165.5,-19.16"/>
<polygon fill="#63b8ff" stroke="#63b8ff" points="162,-99.66 165.5,-109.66 169,-99.66 162,-99.66"/>
</a>
</g>
</g>
<!-- Node5 -->
<g id="Node000005" class="node">
<title>Node5</title>
<g id="a_Node000005"><a xlink:href="../../d9/d67/csearchdialog_8h.html" target="_top" xlink:title=" ">
<polygon fill="white" stroke="#666666" points="287,-74 194,-74 194,-55 287,-55 287,-74"/>
<text text-anchor="middle" x="240.5" y="-62" font-family="Helvetica,sans-Serif" font-size="10.00">csearchdialog.h</text>
</a>
</g>
</g>
<!-- Node2&#45;&gt;Node5 -->
<g id="edge4_Node000002_Node000005" class="edge">
<title>Node2&#45;&gt;Node5</title>
<g id="a_edge4_Node000002_Node000005"><a xlink:title=" ">
<path fill="none" stroke="#63b8ff" d="M185.81,-104.15C199.36,-94.57 216.74,-82.29 228.23,-74.17"/>
<polygon fill="#63b8ff" stroke="#63b8ff" points="183.7,-101.36 177.55,-109.98 187.74,-107.07 183.7,-101.36"/>
</a>
</g>
</g>
<!-- Node5&#45;&gt;Node4 -->
<g id="edge6_Node000005_Node000004" class="edge">
<title>Node5&#45;&gt;Node4</title>
<g id="a_edge6_Node000005_Node000004"><a xlink:title=" ">
<path fill="none" stroke="#63b8ff" d="M220.19,-49.15C206.64,-39.57 189.26,-27.29 177.77,-19.17"/>
<polygon fill="#63b8ff" stroke="#63b8ff" points="218.26,-52.07 228.45,-54.98 222.3,-46.36 218.26,-52.07"/>
</a>
</g>
</g>
<!-- Node6 -->
<g id="Node000006" class="node">
<title>Node6</title>
<g id="a_Node000006"><a xlink:href="../../d1/df6/bibletime_8cpp.html" target="_top" xlink:title=" ">
<polygon fill="white" stroke="#666666" points="319,-19 236,-19 236,0 319,0 319,-19"/>
<text text-anchor="middle" x="277.5" y="-7" font-family="Helvetica,sans-Serif" font-size="10.00">bibletime.cpp</text>
</a>
</g>
</g>
<!-- Node5&#45;&gt;Node6 -->
<g id="edge5_Node000005_Node000006" class="edge">
<title>Node5&#45;&gt;Node6</title>
<g id="a_edge5_Node000005_Node000006"><a xlink:title=" ">
<path fill="none" stroke="#63b8ff" d="M252.45,-46.39C258.81,-37.27 266.37,-26.45 271.5,-19.09"/>
<polygon fill="#63b8ff" stroke="#63b8ff" points="249.46,-44.55 246.61,-54.75 255.2,-48.55 249.46,-44.55"/>
</a>
</g>
</g>
</g>
</svg>
