<?xml version="1.0" encoding="UTF-8" standalone="no"?>
<!DOCTYPE svg PUBLIC "-//W3C//DTD SVG 1.1//EN"
 "http://www.w3.org/Graphics/SVG/1.1/DTD/svg11.dtd">
<!-- Generated by graphviz version 2.43.0 (0)
 -->
<!-- Title: QObject Pages: 1 -->
<svg width="1655pt" height="1041pt"
 viewBox="0.00 0.00 1655.00 1041.00" xmlns="http://www.w3.org/2000/svg" xmlns:xlink="http://www.w3.org/1999/xlink">
<g id="graph0" class="graph" transform="scale(1 1) rotate(0) translate(4 1037)">
<title>QObject</title>
<polygon fill="white" stroke="transparent" points="-4,4 -4,-1037 1651,-1037 1651,4 -4,4"/>
<!-- Node1 -->
<g id="node1" class="node">
<title>Node1</title>
<g id="a_node1"><a xlink:title=" ">
<polygon fill="#bfbfbf" stroke="black" points="698,-975.5 698,-1032.5 754,-1032.5 754,-975.5 698,-975.5"/>
<text text-anchor="middle" x="726" y="-1020.5" font-family="Helvetica,sans-Serif" font-size="10.00">QObject</text>
<polyline fill="none" stroke="black" points="698,-1013.5 754,-1013.5 "/>
<text text-anchor="middle" x="726" y="-1001.5" font-family="Helvetica,sans-Serif" font-size="10.00"> </text>
<polyline fill="none" stroke="black" points="698,-994.5 754,-994.5 "/>
<text text-anchor="middle" x="726" y="-982.5" font-family="Helvetica,sans-Serif" font-size="10.00"> </text>
</a>
</g>
</g>
<!-- Node2 -->
<g id="node2" class="node">
<title>Node2</title>
<g id="a_node2"><a xlink:href="../../d0/d28/classBtActionCollection.html" target="_top" xlink:title=" ">
<polygon fill="white" stroke="black" points="0,-590 0,-746 128,-746 128,-590 0,-590"/>
<text text-anchor="middle" x="64" y="-734" font-family="Helvetica,sans-Serif" font-size="10.00">BtActionCollection</text>
<polyline fill="none" stroke="black" points="0,-727 128,-727 "/>
<text text-anchor="start" x="8" y="-715" font-family="Helvetica,sans-Serif" font-size="10.00">&#45; m_actions</text>
<polyline fill="none" stroke="black" points="0,-708 128,-708 "/>
<text text-anchor="start" x="8" y="-696" font-family="Helvetica,sans-Serif" font-size="10.00">+ action()</text>
<text text-anchor="start" x="8" y="-685" font-family="Helvetica,sans-Serif" font-size="10.00">+ actionAs()</text>
<text text-anchor="start" x="8" y="-674" font-family="Helvetica,sans-Serif" font-size="10.00">+ addAction()</text>
<text text-anchor="start" x="8" y="-663" font-family="Helvetica,sans-Serif" font-size="10.00">+ BtActionCollection()</text>
<text text-anchor="start" x="8" y="-652" font-family="Helvetica,sans-Serif" font-size="10.00">+ foreachQAction()</text>
<text text-anchor="start" x="8" y="-641" font-family="Helvetica,sans-Serif" font-size="10.00">+ getDefaultShortcut()</text>
<text text-anchor="start" x="8" y="-630" font-family="Helvetica,sans-Serif" font-size="10.00">+ readShortcuts()</text>
<text text-anchor="start" x="8" y="-619" font-family="Helvetica,sans-Serif" font-size="10.00">+ removeAction()</text>
<text text-anchor="start" x="8" y="-608" font-family="Helvetica,sans-Serif" font-size="10.00">+ writeShortcuts()</text>
<text text-anchor="start" x="8" y="-597" font-family="Helvetica,sans-Serif" font-size="10.00">&#45; findActionItem()</text>
</a>
</g>
</g>
<!-- Node1&#45;&gt;Node2 -->
<g id="edge1" class="edge">
<title>Node1&#45;&gt;Node2</title>
<path fill="none" stroke="midnightblue" d="M687.46,-1001.31C563.23,-995.51 178.87,-974.81 137,-939 81.92,-891.9 66.25,-807.95 62.76,-746.12"/>
<polygon fill="none" stroke="midnightblue" points="687.5,-1004.81 697.65,-1001.78 687.82,-997.82 687.5,-1004.81"/>
</g>
<!-- Node3 -->
<g id="node3" class="node">
<title>Node3</title>
<g id="a_node3"><a xlink:href="../../d9/d1c/classBtActionCollection_1_1Item.html" target="_top" xlink:title=" ">
<polygon fill="white" stroke="black" points="146.5,-628.5 146.5,-707.5 253.5,-707.5 253.5,-628.5 146.5,-628.5"/>
<text text-anchor="start" x="154.5" y="-695.5" font-family="Helvetica,sans-Serif" font-size="10.00">BtActionCollection</text>
<text text-anchor="middle" x="200" y="-684.5" font-family="Helvetica,sans-Serif" font-size="10.00">::Item</text>
<polyline fill="none" stroke="black" points="146.5,-677.5 253.5,-677.5 "/>
<text text-anchor="start" x="154.5" y="-665.5" font-family="Helvetica,sans-Serif" font-size="10.00">+ m_action</text>
<text text-anchor="start" x="154.5" y="-654.5" font-family="Helvetica,sans-Serif" font-size="10.00">+ m_defaultKeys</text>
<polyline fill="none" stroke="black" points="146.5,-647.5 253.5,-647.5 "/>
<text text-anchor="start" x="154.5" y="-635.5" font-family="Helvetica,sans-Serif" font-size="10.00">+ Item()</text>
</a>
</g>
</g>
<!-- Node1&#45;&gt;Node3 -->
<g id="edge2" class="edge">
<title>Node1&#45;&gt;Node3</title>
<path fill="none" stroke="midnightblue" d="M687.58,-1003.1C587.8,-1002.56 323.93,-995.67 262,-939 197.07,-879.58 193.29,-767.14 196.41,-707.85"/>
<polygon fill="none" stroke="midnightblue" points="687.8,-1006.6 697.81,-1003.14 687.83,-999.6 687.8,-1006.6"/>
</g>
<!-- Node4 -->
<g id="node4" class="node">
<title>Node4</title>
<g id="a_node4"><a xlink:href="../../d9/dae/classBTHistory.html" target="_top" xlink:title=" ">
<polygon fill="white" stroke="black" points="271.5,-584.5 271.5,-751.5 398.5,-751.5 398.5,-584.5 271.5,-584.5"/>
<text text-anchor="middle" x="335" y="-739.5" font-family="Helvetica,sans-Serif" font-size="10.00">BTHistory</text>
<polyline fill="none" stroke="black" points="271.5,-732.5 398.5,-732.5 "/>
<text text-anchor="start" x="279.5" y="-720.5" font-family="Helvetica,sans-Serif" font-size="10.00">&#45; m_historyList</text>
<text text-anchor="start" x="279.5" y="-709.5" font-family="Helvetica,sans-Serif" font-size="10.00">&#45; m_index</text>
<text text-anchor="start" x="279.5" y="-698.5" font-family="Helvetica,sans-Serif" font-size="10.00">&#45; m_inHistoryFunction</text>
<polyline fill="none" stroke="black" points="271.5,-691.5 398.5,-691.5 "/>
<text text-anchor="start" x="279.5" y="-679.5" font-family="Helvetica,sans-Serif" font-size="10.00">+ BTHistory()</text>
<text text-anchor="start" x="279.5" y="-668.5" font-family="Helvetica,sans-Serif" font-size="10.00">+ getBackList()</text>
<text text-anchor="start" x="279.5" y="-657.5" font-family="Helvetica,sans-Serif" font-size="10.00">+ getFwList()</text>
<text text-anchor="start" x="279.5" y="-646.5" font-family="Helvetica,sans-Serif" font-size="10.00">+ add()</text>
<text text-anchor="start" x="279.5" y="-635.5" font-family="Helvetica,sans-Serif" font-size="10.00">+ back()</text>
<text text-anchor="start" x="279.5" y="-624.5" font-family="Helvetica,sans-Serif" font-size="10.00">+ fw()</text>
<text text-anchor="start" x="279.5" y="-613.5" font-family="Helvetica,sans-Serif" font-size="10.00">+ move()</text>
<text text-anchor="start" x="279.5" y="-602.5" font-family="Helvetica,sans-Serif" font-size="10.00">&#45; class_invariant()</text>
<text text-anchor="start" x="279.5" y="-591.5" font-family="Helvetica,sans-Serif" font-size="10.00">&#45; sendChangedSignal()</text>
</a>
</g>
</g>
<!-- Node1&#45;&gt;Node4 -->
<g id="edge3" class="edge">
<title>Node1&#45;&gt;Node4</title>
<path fill="none" stroke="midnightblue" d="M687.78,-1000.3C612.15,-994.2 447.26,-976.81 407,-939 356.17,-891.26 339.72,-812 335.07,-751.67"/>
<polygon fill="none" stroke="midnightblue" points="687.59,-1003.8 697.83,-1001.09 688.14,-996.82 687.59,-1003.8"/>
</g>
<!-- Node5 -->
<g id="node5" class="node">
<title>Node5</title>
<g id="a_node5"><a xlink:href="../../d8/d04/classBtInstallMgr.html" target="_top" xlink:title=" ">
<polygon fill="white" stroke="black" points="416.5,-606.5 416.5,-729.5 585.5,-729.5 585.5,-606.5 416.5,-606.5"/>
<text text-anchor="middle" x="501" y="-717.5" font-family="Helvetica,sans-Serif" font-size="10.00">BtInstallMgr</text>
<polyline fill="none" stroke="black" points="416.5,-710.5 585.5,-710.5 "/>
<text text-anchor="start" x="424.5" y="-698.5" font-family="Helvetica,sans-Serif" font-size="10.00">&#45; m_completedBytes</text>
<text text-anchor="start" x="424.5" y="-687.5" font-family="Helvetica,sans-Serif" font-size="10.00">&#45; m_firstCallOfPreStatus</text>
<text text-anchor="start" x="424.5" y="-676.5" font-family="Helvetica,sans-Serif" font-size="10.00">&#45; m_totalBytes</text>
<polyline fill="none" stroke="black" points="416.5,-669.5 585.5,-669.5 "/>
<text text-anchor="start" x="424.5" y="-657.5" font-family="Helvetica,sans-Serif" font-size="10.00">+ BtInstallMgr()</text>
<text text-anchor="start" x="424.5" y="-646.5" font-family="Helvetica,sans-Serif" font-size="10.00">+ isUserDisclaimerConfirmed()</text>
<text text-anchor="start" x="424.5" y="-635.5" font-family="Helvetica,sans-Serif" font-size="10.00">+ ~BtInstallMgr()</text>
<text text-anchor="start" x="424.5" y="-624.5" font-family="Helvetica,sans-Serif" font-size="10.00"># preStatus()</text>
<text text-anchor="start" x="424.5" y="-613.5" font-family="Helvetica,sans-Serif" font-size="10.00"># statusUpdate()</text>
</a>
</g>
</g>
<!-- Node1&#45;&gt;Node5 -->
<g id="edge4" class="edge">
<title>Node1&#45;&gt;Node5</title>
<path fill="none" stroke="midnightblue" d="M687.96,-993.07C658.82,-983.63 619.57,-966.69 595,-939 542.38,-879.69 518.83,-789.26 508.56,-729.65"/>
<polygon fill="none" stroke="midnightblue" points="687.22,-996.5 697.81,-996.1 689.28,-989.81 687.22,-996.5"/>
</g>
<!-- Node6 -->
<g id="node6" class="node">
<title>Node6</title>
<g id="a_node6"><a xlink:href="../../d5/d4a/classBtPrinter.html" target="_top" xlink:title="Manages the print item queue and printing.">
<polygon fill="white" stroke="black" points="604,-617.5 604,-718.5 700,-718.5 700,-617.5 604,-617.5"/>
<text text-anchor="middle" x="652" y="-706.5" font-family="Helvetica,sans-Serif" font-size="10.00">BtPrinter</text>
<polyline fill="none" stroke="black" points="604,-699.5 700,-699.5 "/>
<text text-anchor="middle" x="652" y="-687.5" font-family="Helvetica,sans-Serif" font-size="10.00"> </text>
<polyline fill="none" stroke="black" points="604,-680.5 700,-680.5 "/>
<text text-anchor="start" x="612" y="-668.5" font-family="Helvetica,sans-Serif" font-size="10.00">+ BtPrinter()</text>
<text text-anchor="start" x="612" y="-657.5" font-family="Helvetica,sans-Serif" font-size="10.00">+ printKeyTree()</text>
<text text-anchor="start" x="612" y="-646.5" font-family="Helvetica,sans-Serif" font-size="10.00">&#45; entryLink()</text>
<text text-anchor="start" x="612" y="-635.5" font-family="Helvetica,sans-Serif" font-size="10.00">&#45; finishText()</text>
<text text-anchor="start" x="612" y="-624.5" font-family="Helvetica,sans-Serif" font-size="10.00">&#45; renderEntry()</text>
</a>
</g>
</g>
<!-- Node1&#45;&gt;Node6 -->
<g id="edge5" class="edge">
<title>Node1&#45;&gt;Node6</title>
<path fill="none" stroke="midnightblue" d="M715.69,-965.49C713.4,-956.81 711.05,-947.6 709,-939 690.79,-862.57 672.52,-773.26 661.74,-718.94"/>
<polygon fill="none" stroke="midnightblue" points="712.36,-966.6 718.32,-975.36 719.13,-964.79 712.36,-966.6"/>
</g>
<!-- Node7 -->
<g id="node7" class="node">
<title>Node7</title>
<g id="a_node7"><a xlink:href="../../d9/d89/classBtQmlInterface.html" target="_top" xlink:title=" ">
<polygon fill="white" stroke="black" points="718.5,-397.5 718.5,-938.5 883.5,-938.5 883.5,-397.5 718.5,-397.5"/>
<text text-anchor="middle" x="801" y="-926.5" font-family="Helvetica,sans-Serif" font-size="10.00">BtQmlInterface</text>
<polyline fill="none" stroke="black" points="718.5,-919.5 883.5,-919.5 "/>
<text text-anchor="start" x="726.5" y="-907.5" font-family="Helvetica,sans-Serif" font-size="10.00">+ activeLink</text>
<text text-anchor="start" x="726.5" y="-896.5" font-family="Helvetica,sans-Serif" font-size="10.00">+ backgroundColor</text>
<text text-anchor="start" x="726.5" y="-885.5" font-family="Helvetica,sans-Serif" font-size="10.00">+ backgroundHighlightColor</text>
<text text-anchor="start" x="726.5" y="-874.5" font-family="Helvetica,sans-Serif" font-size="10.00">+ backgroundHighlightColor</text>
<text text-anchor="start" x="726.5" y="-863.5" font-family="Helvetica,sans-Serif" font-size="10.00">Index</text>
<text text-anchor="start" x="726.5" y="-852.5" font-family="Helvetica,sans-Serif" font-size="10.00">+ contextMenuColumn</text>
<text text-anchor="start" x="726.5" y="-841.5" font-family="Helvetica,sans-Serif" font-size="10.00">+ contextMenuIndex</text>
<text text-anchor="start" x="726.5" y="-830.5" font-family="Helvetica,sans-Serif" font-size="10.00">+ currentModelIndex</text>
<text text-anchor="start" x="726.5" y="-819.5" font-family="Helvetica,sans-Serif" font-size="10.00">+ font0</text>
<text text-anchor="start" x="726.5" y="-808.5" font-family="Helvetica,sans-Serif" font-size="10.00">+ font1</text>
<text text-anchor="start" x="726.5" y="-797.5" font-family="Helvetica,sans-Serif" font-size="10.00">+ font2</text>
<text text-anchor="start" x="726.5" y="-786.5" font-family="Helvetica,sans-Serif" font-size="10.00">and 14 more...</text>
<text text-anchor="start" x="726.5" y="-775.5" font-family="Helvetica,sans-Serif" font-size="10.00">&#45; m_activeLink</text>
<text text-anchor="start" x="726.5" y="-764.5" font-family="Helvetica,sans-Serif" font-size="10.00">&#45; m_backgroundHighlightColor</text>
<text text-anchor="start" x="726.5" y="-753.5" font-family="Helvetica,sans-Serif" font-size="10.00">Index</text>
<text text-anchor="start" x="726.5" y="-742.5" font-family="Helvetica,sans-Serif" font-size="10.00">&#45; m_caseSensitive</text>
<text text-anchor="start" x="726.5" y="-731.5" font-family="Helvetica,sans-Serif" font-size="10.00">&#45; m_contextMenuColumn</text>
<text text-anchor="start" x="726.5" y="-720.5" font-family="Helvetica,sans-Serif" font-size="10.00">&#45; m_contextMenuIndex</text>
<text text-anchor="start" x="726.5" y="-709.5" font-family="Helvetica,sans-Serif" font-size="10.00">&#45; m_findState</text>
<text text-anchor="start" x="726.5" y="-698.5" font-family="Helvetica,sans-Serif" font-size="10.00">&#45; m_firstHref</text>
<text text-anchor="start" x="726.5" y="-687.5" font-family="Helvetica,sans-Serif" font-size="10.00">&#45; m_fonts</text>
<text text-anchor="start" x="726.5" y="-676.5" font-family="Helvetica,sans-Serif" font-size="10.00">&#45; m_highlightWords</text>
<text text-anchor="start" x="726.5" y="-665.5" font-family="Helvetica,sans-Serif" font-size="10.00">&#45; m_linkTimer</text>
<text text-anchor="start" x="726.5" y="-654.5" font-family="Helvetica,sans-Serif" font-size="10.00">and 7 more...</text>
<polyline fill="none" stroke="black" points="718.5,-647.5 883.5,-647.5 "/>
<text text-anchor="start" x="726.5" y="-635.5" font-family="Helvetica,sans-Serif" font-size="10.00">+ BtQmlInterface()</text>
<text text-anchor="start" x="726.5" y="-624.5" font-family="Helvetica,sans-Serif" font-size="10.00">+ cancelMagTimer()</text>
<text text-anchor="start" x="726.5" y="-613.5" font-family="Helvetica,sans-Serif" font-size="10.00">+ changeColorTheme()</text>
<text text-anchor="start" x="726.5" y="-602.5" font-family="Helvetica,sans-Serif" font-size="10.00">+ changeReference()</text>
<text text-anchor="start" x="726.5" y="-591.5" font-family="Helvetica,sans-Serif" font-size="10.00">+ clearSelectedText()</text>
<text text-anchor="start" x="726.5" y="-580.5" font-family="Helvetica,sans-Serif" font-size="10.00">+ copyRange()</text>
<text text-anchor="start" x="726.5" y="-569.5" font-family="Helvetica,sans-Serif" font-size="10.00">+ copyVerseRange()</text>
<text text-anchor="start" x="726.5" y="-558.5" font-family="Helvetica,sans-Serif" font-size="10.00">+ countHighlightsInItem()</text>
<text text-anchor="start" x="726.5" y="-547.5" font-family="Helvetica,sans-Serif" font-size="10.00">+ dragHandler()</text>
<text text-anchor="start" x="726.5" y="-536.5" font-family="Helvetica,sans-Serif" font-size="10.00">+ findText()</text>
<text text-anchor="start" x="726.5" y="-525.5" font-family="Helvetica,sans-Serif" font-size="10.00">and 60 more...</text>
<text text-anchor="start" x="726.5" y="-514.5" font-family="Helvetica,sans-Serif" font-size="10.00">&#45; configModuleByType()</text>
<text text-anchor="start" x="726.5" y="-503.5" font-family="Helvetica,sans-Serif" font-size="10.00">&#45; copyKey()</text>
<text text-anchor="start" x="726.5" y="-492.5" font-family="Helvetica,sans-Serif" font-size="10.00">&#45; decodeLemma()</text>
<text text-anchor="start" x="726.5" y="-481.5" font-family="Helvetica,sans-Serif" font-size="10.00">&#45; decodeMorph()</text>
<text text-anchor="start" x="726.5" y="-470.5" font-family="Helvetica,sans-Serif" font-size="10.00">&#45; font()</text>
<text text-anchor="start" x="726.5" y="-459.5" font-family="Helvetica,sans-Serif" font-size="10.00">&#45; getFontsFromSettings()</text>
<text text-anchor="start" x="726.5" y="-448.5" font-family="Helvetica,sans-Serif" font-size="10.00">&#45; getReferenceFromUrl()</text>
<text text-anchor="start" x="726.5" y="-437.5" font-family="Helvetica,sans-Serif" font-size="10.00">&#45; module()</text>
<text text-anchor="start" x="726.5" y="-426.5" font-family="Helvetica,sans-Serif" font-size="10.00">&#45; stripHtml()</text>
<text text-anchor="start" x="726.5" y="-415.5" font-family="Helvetica,sans-Serif" font-size="10.00">&#45; newRenderer()</text>
<text text-anchor="start" x="726.5" y="-404.5" font-family="Helvetica,sans-Serif" font-size="10.00">&#45; slotSetHighlightWords()</text>
</a>
</g>
</g>
<!-- Node1&#45;&gt;Node7 -->
<g id="edge6" class="edge">
<title>Node1&#45;&gt;Node7</title>
<path fill="none" stroke="midnightblue" d="M734.43,-965.46C736.23,-957.45 738.26,-948.41 740.46,-938.59"/>
<polygon fill="none" stroke="midnightblue" points="730.98,-964.86 732.2,-975.38 737.81,-966.39 730.98,-964.86"/>
</g>
<!-- Node8 -->
<g id="node8" class="node">
<title>Node8</title>
<g id="a_node8"><a xlink:href="../../dc/d34/classBtSignal.html" target="_top" xlink:title=" ">
<polygon fill="white" stroke="black" points="902,-634 902,-702 990,-702 990,-634 902,-634"/>
<text text-anchor="middle" x="946" y="-690" font-family="Helvetica,sans-Serif" font-size="10.00">BtSignal</text>
<polyline fill="none" stroke="black" points="902,-683 990,-683 "/>
<text text-anchor="middle" x="946" y="-671" font-family="Helvetica,sans-Serif" font-size="10.00"> </text>
<polyline fill="none" stroke="black" points="902,-664 990,-664 "/>
<text text-anchor="start" x="910" y="-652" font-family="Helvetica,sans-Serif" font-size="10.00">+ BtSignal()</text>
<text text-anchor="start" x="910" y="-641" font-family="Helvetica,sans-Serif" font-size="10.00">+ emitSignal()</text>
</a>
</g>
</g>
<!-- Node1&#45;&gt;Node8 -->
<g id="edge7" class="edge">
<title>Node1&#45;&gt;Node8</title>
<path fill="none" stroke="midnightblue" d="M764.47,-998.8C802.65,-992.52 859.98,-977 892,-939 949.6,-870.64 951.86,-758.08 948.9,-702.37"/>
<polygon fill="none" stroke="midnightblue" points="763.61,-995.39 754.24,-1000.34 764.65,-1002.31 763.61,-995.39"/>
</g>
<!-- Node9 -->
<g id="node9" class="node">
<title>Node9</title>
<g id="a_node9"><a xlink:href="../../db/d41/classBtUrlHandler.html" target="_top" xlink:title=" ">
<polygon fill="white" stroke="black" points="1008,-639.5 1008,-696.5 1088,-696.5 1088,-639.5 1008,-639.5"/>
<text text-anchor="middle" x="1048" y="-684.5" font-family="Helvetica,sans-Serif" font-size="10.00">BtUrlHandler</text>
<polyline fill="none" stroke="black" points="1008,-677.5 1088,-677.5 "/>
<text text-anchor="middle" x="1048" y="-665.5" font-family="Helvetica,sans-Serif" font-size="10.00"> </text>
<polyline fill="none" stroke="black" points="1008,-658.5 1088,-658.5 "/>
<text text-anchor="start" x="1016" y="-646.5" font-family="Helvetica,sans-Serif" font-size="10.00">+ showQt()</text>
</a>
</g>
</g>
<!-- Node1&#45;&gt;Node9 -->
<g id="edge8" class="edge">
<title>Node1&#45;&gt;Node9</title>
<path fill="none" stroke="midnightblue" d="M764.39,-999.15C831.74,-991.6 967.09,-972.58 999,-939 1062.84,-871.84 1057.96,-750.87 1051.93,-696.63"/>
<polygon fill="none" stroke="midnightblue" points="763.75,-995.7 754.19,-1000.27 764.51,-1002.66 763.75,-995.7"/>
</g>
<!-- Node10 -->
<g id="node10" class="node">
<title>Node10</title>
<g id="a_node10"><a xlink:href="../../d9/d73/classCSwordBackend.html" target="_top" xlink:title="The backend layer main class, a backend implementation of Sword.">
<polygon fill="white" stroke="black" points="1106,-496.5 1106,-839.5 1274,-839.5 1274,-496.5 1106,-496.5"/>
<text text-anchor="middle" x="1190" y="-827.5" font-family="Helvetica,sans-Serif" font-size="10.00">CSwordBackend</text>
<polyline fill="none" stroke="black" points="1106,-820.5 1274,-820.5 "/>
<text text-anchor="start" x="1114" y="-808.5" font-family="Helvetica,sans-Serif" font-size="10.00">&#45; m_availableLanguagesCache</text>
<text text-anchor="start" x="1114" y="-797.5" font-family="Helvetica,sans-Serif" font-size="10.00">&#45; m_bookDisplay</text>
<text text-anchor="start" x="1114" y="-786.5" font-family="Helvetica,sans-Serif" font-size="10.00">&#45; m_chapterDisplay</text>
<text text-anchor="start" x="1114" y="-775.5" font-family="Helvetica,sans-Serif" font-size="10.00">&#45; m_dataModel</text>
<text text-anchor="start" x="1114" y="-764.5" font-family="Helvetica,sans-Serif" font-size="10.00">&#45; m_entryDisplay</text>
<text text-anchor="start" x="1114" y="-753.5" font-family="Helvetica,sans-Serif" font-size="10.00">&#45; m_manager</text>
<text text-anchor="start" x="1114" y="-742.5" font-family="Helvetica,sans-Serif" font-size="10.00">&#45; m_instance</text>
<polyline fill="none" stroke="black" points="1106,-735.5 1274,-735.5 "/>
<text text-anchor="start" x="1114" y="-723.5" font-family="Helvetica,sans-Serif" font-size="10.00">+ availableLanguages()</text>
<text text-anchor="start" x="1114" y="-712.5" font-family="Helvetica,sans-Serif" font-size="10.00">+ booknameLanguage()</text>
<text text-anchor="start" x="1114" y="-701.5" font-family="Helvetica,sans-Serif" font-size="10.00">+ CSwordBackend()</text>
<text text-anchor="start" x="1114" y="-690.5" font-family="Helvetica,sans-Serif" font-size="10.00">+ deleteOrphanedIndices()</text>
<text text-anchor="start" x="1114" y="-679.5" font-family="Helvetica,sans-Serif" font-size="10.00">+ findFirstAvailableModule()</text>
<text text-anchor="start" x="1114" y="-668.5" font-family="Helvetica,sans-Serif" font-size="10.00">+ findModuleByDescription()</text>
<text text-anchor="start" x="1114" y="-657.5" font-family="Helvetica,sans-Serif" font-size="10.00">+ findModuleByName()</text>
<text text-anchor="start" x="1114" y="-646.5" font-family="Helvetica,sans-Serif" font-size="10.00">+ findSwordModuleByPointer()</text>
<text text-anchor="start" x="1114" y="-635.5" font-family="Helvetica,sans-Serif" font-size="10.00">+ getConfig()</text>
<text text-anchor="start" x="1114" y="-624.5" font-family="Helvetica,sans-Serif" font-size="10.00">+ getConstPointerList()</text>
<text text-anchor="start" x="1114" y="-613.5" font-family="Helvetica,sans-Serif" font-size="10.00">and 14 more...</text>
<text text-anchor="start" x="1114" y="-602.5" font-family="Helvetica,sans-Serif" font-size="10.00">+ configOptionName()</text>
<text text-anchor="start" x="1114" y="-591.5" font-family="Helvetica,sans-Serif" font-size="10.00">+ createInstance()</text>
<text text-anchor="start" x="1114" y="-580.5" font-family="Helvetica,sans-Serif" font-size="10.00">+ destroyInstance()</text>
<text text-anchor="start" x="1114" y="-569.5" font-family="Helvetica,sans-Serif" font-size="10.00">+ instance()</text>
<text text-anchor="start" x="1114" y="-558.5" font-family="Helvetica,sans-Serif" font-size="10.00">+ optionName()</text>
<text text-anchor="start" x="1114" y="-547.5" font-family="Helvetica,sans-Serif" font-size="10.00">+ translatedOptionName()</text>
<text text-anchor="start" x="1114" y="-536.5" font-family="Helvetica,sans-Serif" font-size="10.00"># CSwordBackend()</text>
<text text-anchor="start" x="1114" y="-525.5" font-family="Helvetica,sans-Serif" font-size="10.00"># getPrivateSwordConfigFile()</text>
<text text-anchor="start" x="1114" y="-514.5" font-family="Helvetica,sans-Serif" font-size="10.00"># getPrivateSwordConfigPath()</text>
<text text-anchor="start" x="1114" y="-503.5" font-family="Helvetica,sans-Serif" font-size="10.00"># getSharedSwordConfigFiles()</text>
</a>
</g>
</g>
<!-- Node1&#45;&gt;Node10 -->
<g id="edge9" class="edge">
<title>Node1&#45;&gt;Node10</title>
<path fill="none" stroke="midnightblue" d="M764.41,-1001.23C848.88,-996.58 1047.23,-981.34 1097,-939 1127.3,-913.22 1147.75,-877.07 1161.53,-839.58"/>
<polygon fill="none" stroke="midnightblue" points="764.02,-997.74 754.22,-1001.77 764.39,-1004.73 764.02,-997.74"/>
</g>
<!-- Node11 -->
<g id="node11" class="node">
<title>Node11</title>
<g id="a_node11"><a xlink:href="../../d7/d42/classCSwordModuleInfo.html" target="_top" xlink:title=" ">
<polygon fill="white" stroke="black" points="1292.5,-458 1292.5,-878 1485.5,-878 1485.5,-458 1292.5,-458"/>
<text text-anchor="middle" x="1389" y="-866" font-family="Helvetica,sans-Serif" font-size="10.00">CSwordModuleInfo</text>
<polyline fill="none" stroke="black" points="1292.5,-859 1485.5,-859 "/>
<text text-anchor="start" x="1300.5" y="-847" font-family="Helvetica,sans-Serif" font-size="10.00">&#45; m_backend</text>
<text text-anchor="start" x="1300.5" y="-836" font-family="Helvetica,sans-Serif" font-size="10.00">&#45; m_cachedCategory</text>
<text text-anchor="start" x="1300.5" y="-825" font-family="Helvetica,sans-Serif" font-size="10.00">&#45; m_cachedGlossaryTargetLanguage</text>
<text text-anchor="start" x="1300.5" y="-814" font-family="Helvetica,sans-Serif" font-size="10.00">&#45; m_cachedHasVersion</text>
<text text-anchor="start" x="1300.5" y="-803" font-family="Helvetica,sans-Serif" font-size="10.00">&#45; m_cachedLanguage</text>
<text text-anchor="start" x="1300.5" y="-792" font-family="Helvetica,sans-Serif" font-size="10.00">&#45; m_cachedName</text>
<text text-anchor="start" x="1300.5" y="-781" font-family="Helvetica,sans-Serif" font-size="10.00">&#45; m_cancelIndexing</text>
<text text-anchor="start" x="1300.5" y="-770" font-family="Helvetica,sans-Serif" font-size="10.00">&#45; m_display</text>
<text text-anchor="start" x="1300.5" y="-759" font-family="Helvetica,sans-Serif" font-size="10.00">&#45; m_hidden</text>
<text text-anchor="start" x="1300.5" y="-748" font-family="Helvetica,sans-Serif" font-size="10.00">&#45; m_module</text>
<text text-anchor="start" x="1300.5" y="-737" font-family="Helvetica,sans-Serif" font-size="10.00">&#45; m_type</text>
<polyline fill="none" stroke="black" points="1292.5,-730 1485.5,-730 "/>
<text text-anchor="start" x="1300.5" y="-718" font-family="Helvetica,sans-Serif" font-size="10.00">+ aboutText()</text>
<text text-anchor="start" x="1300.5" y="-707" font-family="Helvetica,sans-Serif" font-size="10.00">+ buildIndex()</text>
<text text-anchor="start" x="1300.5" y="-696" font-family="Helvetica,sans-Serif" font-size="10.00">+ category()</text>
<text text-anchor="start" x="1300.5" y="-685" font-family="Helvetica,sans-Serif" font-size="10.00">+ config()</text>
<text text-anchor="start" x="1300.5" y="-674" font-family="Helvetica,sans-Serif" font-size="10.00">+ CSwordModuleInfo()</text>
<text text-anchor="start" x="1300.5" y="-663" font-family="Helvetica,sans-Serif" font-size="10.00">+ CSwordModuleInfo()</text>
<text text-anchor="start" x="1300.5" y="-652" font-family="Helvetica,sans-Serif" font-size="10.00">+ deleteEntry()</text>
<text text-anchor="start" x="1300.5" y="-641" font-family="Helvetica,sans-Serif" font-size="10.00">+ deleteIndex()</text>
<text text-anchor="start" x="1300.5" y="-630" font-family="Helvetica,sans-Serif" font-size="10.00">+ getDisplay()</text>
<text text-anchor="start" x="1300.5" y="-619" font-family="Helvetica,sans-Serif" font-size="10.00">+ getModuleBaseIndexLocation()</text>
<text text-anchor="start" x="1300.5" y="-608" font-family="Helvetica,sans-Serif" font-size="10.00">and 30 more...</text>
<text text-anchor="start" x="1300.5" y="-597" font-family="Helvetica,sans-Serif" font-size="10.00">+ categoryIcon()</text>
<text text-anchor="start" x="1300.5" y="-586" font-family="Helvetica,sans-Serif" font-size="10.00">+ categoryName()</text>
<text text-anchor="start" x="1300.5" y="-575" font-family="Helvetica,sans-Serif" font-size="10.00">+ deleteIndexForModule()</text>
<text text-anchor="start" x="1300.5" y="-564" font-family="Helvetica,sans-Serif" font-size="10.00">+ englishCategoryName()</text>
<text text-anchor="start" x="1300.5" y="-553" font-family="Helvetica,sans-Serif" font-size="10.00">+ getGlobalBaseIndexLocation()</text>
<text text-anchor="start" x="1300.5" y="-542" font-family="Helvetica,sans-Serif" font-size="10.00">+ moduleIcon()</text>
<text text-anchor="start" x="1300.5" y="-531" font-family="Helvetica,sans-Serif" font-size="10.00">+ cancelIndexing()</text>
<text text-anchor="start" x="1300.5" y="-520" font-family="Helvetica,sans-Serif" font-size="10.00"># backend()</text>
<text text-anchor="start" x="1300.5" y="-509" font-family="Helvetica,sans-Serif" font-size="10.00"># CSwordModuleInfo()</text>
<text text-anchor="start" x="1300.5" y="-498" font-family="Helvetica,sans-Serif" font-size="10.00"># getFormattedConfigEntry()</text>
<text text-anchor="start" x="1300.5" y="-487" font-family="Helvetica,sans-Serif" font-size="10.00"># getSimpleConfigEntry()</text>
<text text-anchor="start" x="1300.5" y="-476" font-family="Helvetica,sans-Serif" font-size="10.00"># hasImportantFilterOption()</text>
<text text-anchor="start" x="1300.5" y="-465" font-family="Helvetica,sans-Serif" font-size="10.00"># setImportantFilterOptions()</text>
</a>
</g>
</g>
<!-- Node1&#45;&gt;Node11 -->
<g id="edge10" class="edge">
<title>Node1&#45;&gt;Node11</title>
<path fill="none" stroke="midnightblue" d="M764.51,-1003.57C876.91,-1004.48 1201.71,-1001.51 1283,-939 1304.26,-922.65 1321.26,-901.43 1334.85,-878.05"/>
<polygon fill="none" stroke="midnightblue" points="764.34,-1000.07 754.31,-1003.47 764.28,-1007.07 764.34,-1000.07"/>
</g>
<!-- Node12 -->
<g id="node12" class="node">
<title>Node12</title>
<g id="a_node12"><a xlink:href="../../db/d50/classCSwordBibleModuleInfo.html" target="_top" xlink:title="Implementation for Sword Bibles.">
<polygon fill="white" stroke="black" points="1135,-105.5 1135,-360.5 1295,-360.5 1295,-105.5 1135,-105.5"/>
<text text-anchor="middle" x="1215" y="-348.5" font-family="Helvetica,sans-Serif" font-size="10.00">CSwordBibleModuleInfo</text>
<polyline fill="none" stroke="black" points="1135,-341.5 1295,-341.5 "/>
<text text-anchor="start" x="1143" y="-329.5" font-family="Helvetica,sans-Serif" font-size="10.00">&#45; m_bookList</text>
<text text-anchor="start" x="1143" y="-318.5" font-family="Helvetica,sans-Serif" font-size="10.00">&#45; m_boundsInitialized</text>
<text text-anchor="start" x="1143" y="-307.5" font-family="Helvetica,sans-Serif" font-size="10.00">&#45; m_cachedLocale</text>
<text text-anchor="start" x="1143" y="-296.5" font-family="Helvetica,sans-Serif" font-size="10.00">&#45; m_hasNT</text>
<text text-anchor="start" x="1143" y="-285.5" font-family="Helvetica,sans-Serif" font-size="10.00">&#45; m_hasOT</text>
<text text-anchor="start" x="1143" y="-274.5" font-family="Helvetica,sans-Serif" font-size="10.00">&#45; m_lowerBound</text>
<text text-anchor="start" x="1143" y="-263.5" font-family="Helvetica,sans-Serif" font-size="10.00">&#45; m_upperBound</text>
<polyline fill="none" stroke="black" points="1135,-256.5 1295,-256.5 "/>
<text text-anchor="start" x="1143" y="-244.5" font-family="Helvetica,sans-Serif" font-size="10.00">+ bookNumber()</text>
<text text-anchor="start" x="1143" y="-233.5" font-family="Helvetica,sans-Serif" font-size="10.00">+ books()</text>
<text text-anchor="start" x="1143" y="-222.5" font-family="Helvetica,sans-Serif" font-size="10.00">+ chapterCount()</text>
<text text-anchor="start" x="1143" y="-211.5" font-family="Helvetica,sans-Serif" font-size="10.00">+ chapterCount()</text>
<text text-anchor="start" x="1143" y="-200.5" font-family="Helvetica,sans-Serif" font-size="10.00">+ CSwordBibleModuleInfo()</text>
<text text-anchor="start" x="1143" y="-189.5" font-family="Helvetica,sans-Serif" font-size="10.00">+ hasNewTestament()</text>
<text text-anchor="start" x="1143" y="-178.5" font-family="Helvetica,sans-Serif" font-size="10.00">+ hasOldTestament()</text>
<text text-anchor="start" x="1143" y="-167.5" font-family="Helvetica,sans-Serif" font-size="10.00">+ lowerBound()</text>
<text text-anchor="start" x="1143" y="-156.5" font-family="Helvetica,sans-Serif" font-size="10.00">+ upperBound()</text>
<text text-anchor="start" x="1143" y="-145.5" font-family="Helvetica,sans-Serif" font-size="10.00">+ verseCount()</text>
<text text-anchor="start" x="1143" y="-134.5" font-family="Helvetica,sans-Serif" font-size="10.00">+ verseCount()</text>
<text text-anchor="start" x="1143" y="-123.5" font-family="Helvetica,sans-Serif" font-size="10.00">+ ~CSwordBibleModuleInfo()</text>
<text text-anchor="start" x="1143" y="-112.5" font-family="Helvetica,sans-Serif" font-size="10.00">&#45; initBounds()</text>
</a>
</g>
</g>
<!-- Node11&#45;&gt;Node12 -->
<g id="edge11" class="edge">
<title>Node11&#45;&gt;Node12</title>
<path fill="none" stroke="midnightblue" d="M1303.57,-448.23C1296.65,-430.88 1289.74,-413.64 1283,-397 1278.22,-385.2 1273.21,-372.95 1268.16,-360.7"/>
<polygon fill="none" stroke="midnightblue" points="1300.46,-449.89 1307.41,-457.88 1306.96,-447.3 1300.46,-449.89"/>
</g>
<!-- Node14 -->
<g id="node14" class="node">
<title>Node14</title>
<g id="a_node14"><a xlink:href="../../db/d7a/classCSwordBookModuleInfo.html" target="_top" xlink:title="Class for generic book support.">
<polygon fill="white" stroke="black" points="1313,-188 1313,-278 1465,-278 1465,-188 1313,-188"/>
<text text-anchor="middle" x="1389" y="-266" font-family="Helvetica,sans-Serif" font-size="10.00">CSwordBookModuleInfo</text>
<polyline fill="none" stroke="black" points="1313,-259 1465,-259 "/>
<text text-anchor="start" x="1321" y="-247" font-family="Helvetica,sans-Serif" font-size="10.00">&#45; m_depth</text>
<polyline fill="none" stroke="black" points="1313,-240 1465,-240 "/>
<text text-anchor="start" x="1321" y="-228" font-family="Helvetica,sans-Serif" font-size="10.00">+ CSwordBookModuleInfo()</text>
<text text-anchor="start" x="1321" y="-217" font-family="Helvetica,sans-Serif" font-size="10.00">+ depth()</text>
<text text-anchor="start" x="1321" y="-206" font-family="Helvetica,sans-Serif" font-size="10.00">+ tree()</text>
<text text-anchor="start" x="1321" y="-195" font-family="Helvetica,sans-Serif" font-size="10.00">&#45; computeDepth()</text>
</a>
</g>
</g>
<!-- Node11&#45;&gt;Node14 -->
<g id="edge13" class="edge">
<title>Node11&#45;&gt;Node14</title>
<path fill="none" stroke="midnightblue" d="M1389,-447.45C1389,-383.03 1389,-318.96 1389,-278.08"/>
<polygon fill="none" stroke="midnightblue" points="1385.5,-447.79 1389,-457.79 1392.5,-447.79 1385.5,-447.79"/>
</g>
<!-- Node15 -->
<g id="node15" class="node">
<title>Node15</title>
<g id="a_node15"><a xlink:href="../../dd/d0a/classCSwordLexiconModuleInfo.html" target="_top" xlink:title=" ">
<polygon fill="white" stroke="black" points="1483,-160.5 1483,-305.5 1647,-305.5 1647,-160.5 1483,-160.5"/>
<text text-anchor="middle" x="1565" y="-293.5" font-family="Helvetica,sans-Serif" font-size="10.00">CSwordLexiconModuleInfo</text>
<polyline fill="none" stroke="black" points="1483,-286.5 1647,-286.5 "/>
<text text-anchor="start" x="1491" y="-274.5" font-family="Helvetica,sans-Serif" font-size="10.00">&#45; m_entries</text>
<text text-anchor="start" x="1491" y="-263.5" font-family="Helvetica,sans-Serif" font-size="10.00">&#45; m_hasLeadingStrongsLetter</text>
<text text-anchor="start" x="1491" y="-252.5" font-family="Helvetica,sans-Serif" font-size="10.00">&#45; m_hasStrongsKeys</text>
<text text-anchor="start" x="1491" y="-241.5" font-family="Helvetica,sans-Serif" font-size="10.00">&#45; m_strongsDigitsLength</text>
<polyline fill="none" stroke="black" points="1483,-234.5 1647,-234.5 "/>
<text text-anchor="start" x="1491" y="-222.5" font-family="Helvetica,sans-Serif" font-size="10.00">+ CSwordLexiconModuleInfo()</text>
<text text-anchor="start" x="1491" y="-211.5" font-family="Helvetica,sans-Serif" font-size="10.00">+ entries()</text>
<text text-anchor="start" x="1491" y="-200.5" font-family="Helvetica,sans-Serif" font-size="10.00">+ hasStrongsKeys()</text>
<text text-anchor="start" x="1491" y="-189.5" font-family="Helvetica,sans-Serif" font-size="10.00">+ normalizeStrongsKey()</text>
<text text-anchor="start" x="1491" y="-178.5" font-family="Helvetica,sans-Serif" font-size="10.00">+ snap()</text>
<text text-anchor="start" x="1491" y="-167.5" font-family="Helvetica,sans-Serif" font-size="10.00">&#45; testForStrongsKeys()</text>
</a>
</g>
</g>
<!-- Node11&#45;&gt;Node15 -->
<g id="edge14" class="edge">
<title>Node11&#45;&gt;Node15</title>
<path fill="none" stroke="midnightblue" d="M1477.81,-448.5C1498.78,-396.91 1519.69,-345.47 1535.78,-305.9"/>
<polygon fill="none" stroke="midnightblue" points="1474.56,-447.21 1474.04,-457.79 1481.04,-449.85 1474.56,-447.21"/>
</g>
<!-- Node13 -->
<g id="node13" class="node">
<title>Node13</title>
<g id="a_node13"><a xlink:href="../../d0/d59/classCSwordCommentaryModuleInfo.html" target="_top" xlink:title="Commentary module implementation.">
<polygon fill="white" stroke="black" points="1119.5,-0.5 1119.5,-68.5 1310.5,-68.5 1310.5,-0.5 1119.5,-0.5"/>
<text text-anchor="middle" x="1215" y="-56.5" font-family="Helvetica,sans-Serif" font-size="10.00">CSwordCommentaryModuleInfo</text>
<polyline fill="none" stroke="black" points="1119.5,-49.5 1310.5,-49.5 "/>
<text text-anchor="middle" x="1215" y="-37.5" font-family="Helvetica,sans-Serif" font-size="10.00"> </text>
<polyline fill="none" stroke="black" points="1119.5,-30.5 1310.5,-30.5 "/>
<text text-anchor="start" x="1127.5" y="-18.5" font-family="Helvetica,sans-Serif" font-size="10.00">+ CSwordCommentaryModuleInfo()</text>
<text text-anchor="start" x="1127.5" y="-7.5" font-family="Helvetica,sans-Serif" font-size="10.00">+ isWritable()</text>
</a>
</g>
</g>
<!-- Node12&#45;&gt;Node13 -->
<g id="edge12" class="edge">
<title>Node12&#45;&gt;Node13</title>
<path fill="none" stroke="midnightblue" d="M1215,-95.17C1215,-85.59 1215,-76.6 1215,-68.65"/>
<polygon fill="none" stroke="midnightblue" points="1211.5,-95.33 1215,-105.33 1218.5,-95.33 1211.5,-95.33"/>
</g>
</g>
</svg>
