<?xml version="1.0" encoding="UTF-8" standalone="no"?>
<!DOCTYPE svg PUBLIC "-//W3C//DTD SVG 1.1//EN"
 "http://www.w3.org/Graphics/SVG/1.1/DTD/svg11.dtd">
<!-- Generated by graphviz version 2.43.0 (0)
 -->
<!-- Title: indexingitem.h Pages: 1 -->
<svg width="272pt" height="82pt"
 viewBox="0.00 0.00 271.50 82.00" xmlns="http://www.w3.org/2000/svg" xmlns:xlink="http://www.w3.org/1999/xlink">
<g id="graph0" class="graph" transform="scale(1 1) rotate(0) translate(4 78)">
<title>indexingitem.h</title>
<!-- Node1 -->
<g id="Node000001" class="node">
<title>Node1</title>
<g id="a_Node000001"><a xlink:title=" ">
<polygon fill="#999999" stroke="#666666" points="187,-74 97,-74 97,-55 187,-55 187,-74"/>
<text text-anchor="middle" x="142" y="-62" font-family="Helvetica,sans-Serif" font-size="10.00">indexingitem.h</text>
</a>
</g>
</g>
<!-- Node2 -->
<g id="Node000002" class="node">
<title>Node2</title>
<g id="a_Node000002"><a xlink:href="../../d9/d0b/btbookshelftreemodel_8cpp.html" target="_top" xlink:title=" ">
<polygon fill="white" stroke="#666666" points="144,-19 0,-19 0,0 144,0 144,-19"/>
<text text-anchor="middle" x="72" y="-7" font-family="Helvetica,sans-Serif" font-size="10.00">btbookshelftreemodel.cpp</text>
</a>
</g>
</g>
<!-- Node1&#45;&gt;Node2 -->
<g id="edge1_Node000001_Node000002" class="edge">
<title>Node1&#45;&gt;Node2</title>
<g id="a_edge1_Node000001_Node000002"><a xlink:title=" ">
<path fill="none" stroke="#63b8ff" d="M122.69,-48.88C110.09,-39.34 94.07,-27.21 83.45,-19.17"/>
<polygon fill="#63b8ff" stroke="#63b8ff" points="120.67,-51.74 130.75,-54.98 124.89,-46.16 120.67,-51.74"/>
</a>
</g>
</g>
<!-- Node3 -->
<g id="Node000003" class="node">
<title>Node3</title>
<g id="a_Node000003"><a xlink:href="../../d6/d93/indexingitem_8cpp.html" target="_top" xlink:title=" ">
<polygon fill="white" stroke="#666666" points="263.5,-19 162.5,-19 162.5,0 263.5,0 263.5,-19"/>
<text text-anchor="middle" x="213" y="-7" font-family="Helvetica,sans-Serif" font-size="10.00">indexingitem.cpp</text>
</a>
</g>
</g>
<!-- Node1&#45;&gt;Node3 -->
<g id="edge2_Node000001_Node000003" class="edge">
<title>Node1&#45;&gt;Node3</title>
<g id="a_edge2_Node000001_Node000003"><a xlink:title=" ">
<path fill="none" stroke="#63b8ff" d="M161.59,-48.88C174.37,-39.34 190.61,-27.21 201.39,-19.17"/>
<polygon fill="#63b8ff" stroke="#63b8ff" points="159.33,-46.2 153.41,-54.98 163.51,-51.81 159.33,-46.2"/>
</a>
</g>
</g>
</g>
</svg>
