<?xml version="1.0" encoding="UTF-8" standalone="no"?>
<!DOCTYPE svg PUBLIC "-//W3C//DTD SVG 1.1//EN"
 "http://www.w3.org/Graphics/SVG/1.1/DTD/svg11.dtd">
<!-- Generated by graphviz version 2.43.0 (0)
 -->
<!-- Title: cswordsetupinstallsourcesdialog.h Pages: 1 -->
<svg width="378pt" height="84pt"
 viewBox="0.00 0.00 378.00 84.00" xmlns="http://www.w3.org/2000/svg" xmlns:xlink="http://www.w3.org/1999/xlink">
<g id="graph0" class="graph" transform="scale(1 1) rotate(0) translate(4 80)">
<title>cswordsetupinstallsourcesdialog.h</title>
<polygon fill="white" stroke="transparent" points="-4,4 -4,-80 374,-80 374,4 -4,4"/>
<!-- Node1 -->
<g id="node1" class="node">
<title>Node1</title>
<g id="a_node1"><a xlink:title=" ">
<polygon fill="#bfbfbf" stroke="black" points="82.5,-56.5 82.5,-75.5 267.5,-75.5 267.5,-56.5 82.5,-56.5"/>
<text text-anchor="middle" x="175" y="-63.5" font-family="Helvetica,sans-Serif" font-size="10.00">cswordsetupinstallsourcesdialog.h</text>
</a>
</g>
</g>
<!-- Node2 -->
<g id="node2" class="node">
<title>Node2</title>
<g id="a_node2"><a xlink:href="../../da/dde/btbookshelfsourcespage_8cpp.html" target="_top" xlink:title=" ">
<polygon fill="white" stroke="black" points="0,-0.5 0,-19.5 156,-19.5 156,-0.5 0,-0.5"/>
<text text-anchor="middle" x="78" y="-7.5" font-family="Helvetica,sans-Serif" font-size="10.00">btbookshelfsourcespage.cpp</text>
</a>
</g>
</g>
<!-- Node1&#45;&gt;Node2 -->
<g id="edge1" class="edge">
<title>Node1&#45;&gt;Node2</title>
<path fill="none" stroke="midnightblue" d="M150.66,-51.45C132.76,-41.48 108.95,-28.23 93.55,-19.65"/>
<polygon fill="midnightblue" stroke="midnightblue" points="148.98,-54.52 159.42,-56.32 152.38,-48.4 148.98,-54.52"/>
</g>
<!-- Node3 -->
<g id="node3" class="node">
<title>Node3</title>
<g id="a_node3"><a xlink:href="../../d8/dc3/cswordsetupinstallsourcesdialog_8cpp.html" target="_top" xlink:title=" ">
<polygon fill="white" stroke="black" points="174,-0.5 174,-19.5 370,-19.5 370,-0.5 174,-0.5"/>
<text text-anchor="middle" x="272" y="-7.5" font-family="Helvetica,sans-Serif" font-size="10.00">cswordsetupinstallsourcesdialog.cpp</text>
</a>
</g>
</g>
<!-- Node1&#45;&gt;Node3 -->
<g id="edge2" class="edge">
<title>Node1&#45;&gt;Node3</title>
<path fill="none" stroke="midnightblue" d="M199.34,-51.45C217.24,-41.48 241.05,-28.23 256.45,-19.65"/>
<polygon fill="midnightblue" stroke="midnightblue" points="197.62,-48.4 190.58,-56.32 201.02,-54.52 197.62,-48.4"/>
</g>
</g>
</svg>
