<?xml version="1.0" encoding="UTF-8" standalone="no"?>
<!DOCTYPE svg PUBLIC "-//W3C//DTD SVG 1.1//EN"
 "http://www.w3.org/Graphics/SVG/1.1/DTD/svg11.dtd">
<!-- Generated by graphviz version 2.43.0 (0)
 -->
<!-- Title: CDisplaySettingsPage Pages: 1 -->
<svg width="166pt" height="485pt"
 viewBox="0.00 0.00 166.00 485.00" xmlns="http://www.w3.org/2000/svg" xmlns:xlink="http://www.w3.org/1999/xlink">
<g id="graph0" class="graph" transform="scale(1 1) rotate(0) translate(4 481)">
<title>CDisplaySettingsPage</title>
<polygon fill="white" stroke="transparent" points="-4,4 -4,-481 162,-481 162,4 -4,4"/>
<!-- Node1 -->
<g id="node1" class="node">
<title>Node1</title>
<g id="a_node1"><a xlink:title=" ">
<polygon fill="#bfbfbf" stroke="black" points="0,-0.5 0,-244.5 158,-244.5 158,-0.5 0,-0.5"/>
<text text-anchor="middle" x="79" y="-232.5" font-family="Helvetica,sans-Serif" font-size="10.00">CDisplaySettingsPage</text>
<polyline fill="none" stroke="black" points="0,-225.5 158,-225.5 "/>
<text text-anchor="start" x="8" y="-213.5" font-family="Helvetica,sans-Serif" font-size="10.00">&#45; m_availableLabel</text>
<text text-anchor="start" x="8" y="-202.5" font-family="Helvetica,sans-Serif" font-size="10.00">&#45; m_languageNamesLabel</text>
<text text-anchor="start" x="8" y="-191.5" font-family="Helvetica,sans-Serif" font-size="10.00">&#45; m_lightDarkCombo</text>
<text text-anchor="start" x="8" y="-180.5" font-family="Helvetica,sans-Serif" font-size="10.00">&#45; m_lightDarkLabel</text>
<text text-anchor="start" x="8" y="-169.5" font-family="Helvetica,sans-Serif" font-size="10.00">&#45; m_previewLabel</text>
<text text-anchor="start" x="8" y="-158.5" font-family="Helvetica,sans-Serif" font-size="10.00">&#45; m_showLogoCheck</text>
<text text-anchor="start" x="8" y="-147.5" font-family="Helvetica,sans-Serif" font-size="10.00">&#45; m_showLogoLabel</text>
<text text-anchor="start" x="8" y="-136.5" font-family="Helvetica,sans-Serif" font-size="10.00">&#45; m_styleChooserCombo</text>
<text text-anchor="start" x="8" y="-125.5" font-family="Helvetica,sans-Serif" font-size="10.00">&#45; m_stylePreviewViewer</text>
<text text-anchor="start" x="8" y="-114.5" font-family="Helvetica,sans-Serif" font-size="10.00">&#45; m_swordLocaleCombo</text>
<text text-anchor="start" x="8" y="-103.5" font-family="Helvetica,sans-Serif" font-size="10.00">&#45; m_transifexLabel</text>
<polyline fill="none" stroke="black" points="0,-96.5 158,-96.5 "/>
<text text-anchor="start" x="8" y="-84.5" font-family="Helvetica,sans-Serif" font-size="10.00">+ CDisplaySettingsPage()</text>
<text text-anchor="start" x="8" y="-73.5" font-family="Helvetica,sans-Serif" font-size="10.00">+ save()</text>
<text text-anchor="start" x="8" y="-62.5" font-family="Helvetica,sans-Serif" font-size="10.00">+ resetLanguage()</text>
<text text-anchor="start" x="8" y="-51.5" font-family="Helvetica,sans-Serif" font-size="10.00"># retranslateUi()</text>
<text text-anchor="start" x="8" y="-40.5" font-family="Helvetica,sans-Serif" font-size="10.00">&#45; initSwordLocaleCombo()</text>
<text text-anchor="start" x="8" y="-29.5" font-family="Helvetica,sans-Serif" font-size="10.00">&#45; bookNameAbbreviationsTry</text>
<text text-anchor="start" x="8" y="-18.5" font-family="Helvetica,sans-Serif" font-size="10.00">Vector()</text>
<text text-anchor="start" x="8" y="-7.5" font-family="Helvetica,sans-Serif" font-size="10.00">&#45; updateStylePreview()</text>
</a>
</g>
</g>
<!-- Node2 -->
<g id="node2" class="node">
<title>Node2</title>
<g id="a_node2"><a xlink:href="../../d4/d3c/classBtConfigDialog_1_1Page.html" target="_top" xlink:title=" ">
<polygon fill="white" stroke="black" points="10,-281.5 10,-382.5 148,-382.5 148,-281.5 10,-281.5"/>
<text text-anchor="middle" x="79" y="-370.5" font-family="Helvetica,sans-Serif" font-size="10.00">BtConfigDialog::Page</text>
<polyline fill="none" stroke="black" points="10,-363.5 148,-363.5 "/>
<text text-anchor="start" x="18" y="-351.5" font-family="Helvetica,sans-Serif" font-size="10.00">&#45; m_listWidgetItem</text>
<text text-anchor="start" x="18" y="-340.5" font-family="Helvetica,sans-Serif" font-size="10.00">&#45; m_ownsListWidgetItem</text>
<polyline fill="none" stroke="black" points="10,-333.5 148,-333.5 "/>
<text text-anchor="start" x="18" y="-321.5" font-family="Helvetica,sans-Serif" font-size="10.00">+ Page()</text>
<text text-anchor="start" x="18" y="-310.5" font-family="Helvetica,sans-Serif" font-size="10.00">+ save()</text>
<text text-anchor="start" x="18" y="-299.5" font-family="Helvetica,sans-Serif" font-size="10.00">+ setHeaderText()</text>
<text text-anchor="start" x="18" y="-288.5" font-family="Helvetica,sans-Serif" font-size="10.00">+ ~Page()</text>
</a>
</g>
</g>
<!-- Node2&#45;&gt;Node1 -->
<g id="edge1" class="edge">
<title>Node2&#45;&gt;Node1</title>
<path fill="none" stroke="midnightblue" d="M79,-271.25C79,-262.8 79,-253.87 79,-244.76"/>
<polygon fill="none" stroke="midnightblue" points="75.5,-271.3 79,-281.3 82.5,-271.3 75.5,-271.3"/>
</g>
<!-- Node3 -->
<g id="node3" class="node">
<title>Node3</title>
<g id="a_node3"><a xlink:href="../../d8/ded/classQWidget.html" target="_top" xlink:title=" ">
<polygon fill="white" stroke="black" points="49.5,-419.5 49.5,-476.5 108.5,-476.5 108.5,-419.5 49.5,-419.5"/>
<text text-anchor="middle" x="79" y="-464.5" font-family="Helvetica,sans-Serif" font-size="10.00">QWidget</text>
<polyline fill="none" stroke="black" points="49.5,-457.5 108.5,-457.5 "/>
<text text-anchor="middle" x="79" y="-445.5" font-family="Helvetica,sans-Serif" font-size="10.00"> </text>
<polyline fill="none" stroke="black" points="49.5,-438.5 108.5,-438.5 "/>
<text text-anchor="middle" x="79" y="-426.5" font-family="Helvetica,sans-Serif" font-size="10.00"> </text>
</a>
</g>
</g>
<!-- Node3&#45;&gt;Node2 -->
<g id="edge2" class="edge">
<title>Node3&#45;&gt;Node2</title>
<path fill="none" stroke="midnightblue" d="M79,-409.35C79,-400.8 79,-391.58 79,-382.61"/>
<polygon fill="none" stroke="midnightblue" points="75.5,-409.4 79,-419.4 82.5,-409.4 75.5,-409.4"/>
</g>
</g>
</svg>
