<?xml version="1.0" encoding="UTF-8" standalone="no"?>
<!DOCTYPE svg PUBLIC "-//W3C//DTD SVG 1.1//EN"
 "http://www.w3.org/Graphics/SVG/1.1/DTD/svg11.dtd">
<!-- Generated by graphviz version 2.43.0 (0)
 -->
<!-- Title: btbookshelftreemodel.h Pages: 1 -->
<!--zoomable 137 -->

<svg id="main" version="1.1" xmlns="http://www.w3.org/2000/svg" xmlns:xlink="http://www.w3.org/1999/xlink" xml:space="preserve" onload="init(evt)">
<style type="text/css"><![CDATA[
.node, .edge {opacity: 0.7;}
.node.selected, .edge.selected {opacity: 1;}
.edge:hover path { stroke: red; }
.edge:hover polygon { stroke: red; fill: red; }
]]></style>

<defs>
  <circle id="rim" cx="0" cy="0" r="7"/>
  <circle id="rim2" cx="0" cy="0" r="3.5"/>
  <g id="zoomPlus">
    <use xlink:href="#rim" fill="#404040"><set attributeName="fill" to="#808080" begin="zoomplus.mouseover" end="zoomplus.mouseout"/></use>
    <path d="M-4,0h8M0,-4v8" fill="none" stroke="white" stroke-width="1.5" pointer-events="none"/>
  </g>
  <g id="zoomMin">
    <use xlink:href="#rim" fill="#404040"><set attributeName="fill" to="#808080" begin="zoomminus.mouseover" end="zoomminus.mouseout"/></use>
    <path d="M-4,0h8" fill="none" stroke="white" stroke-width="1.5" pointer-events="none"/>
  </g>
  <g id="arrowUp" transform="translate(30 24)">
    <use xlink:href="#rim"/>
    <path pointer-events="none" fill="none" stroke="white" stroke-width="1.5" d="M0,-3.0v7 M-2.5,-0.5L0,-3.0L2.5,-0.5"/>
  </g>
  <g id="arrowRight" transform="rotate(90) translate(36 -43)">
    <use xlink:href="#rim"/>
    <path pointer-events="none" fill="none" stroke="white" stroke-width="1.5" d="M0,-3.0v7 M-2.5,-0.5L0,-3.0L2.5,-0.5"/>
  </g>
  <g id="arrowDown" transform="rotate(180) translate(-30 -48)">
    <use xlink:href="#rim"/>
    <path pointer-events="none" fill="none" stroke="white" stroke-width="1.5" d="M0,-3.0v7 M-2.5,-0.5L0,-3.0L2.5,-0.5"/>
  </g>
  <g id="arrowLeft" transform="rotate(270) translate(-36 17)">
    <use xlink:href="#rim"/>
    <path pointer-events="none" fill="none" stroke="white" stroke-width="1.5" d="M0,-3.0v7 M-2.5,-0.5L0,-3.0L2.5,-0.5"/>
  </g>
  <g id="resetDef">
    <use xlink:href="#rim2" fill="#404040"><set attributeName="fill" to="#808080" begin="reset.mouseover" end="reset.mouseout"/></use>
  </g>
</defs>
<script type="application/ecmascript">
var viewWidth = 1911;
var viewHeight = 137;
var sectionId = 'dynsection-0';
</script>
<script type="application/ecmascript" xlink:href="../../svg.min.js"/>
<svg id="graph" class="graph">
<g id="viewport">
<title>btbookshelftreemodel.h</title>
<!-- Node1 -->
<g id="Node000001" class="node">
<title>Node1</title>
<g id="a_Node000001"><a xlink:title=" ">
<polygon fill="#999999" stroke="#666666" points="951,-129 818,-129 818,-110 951,-110 951,-129"/>
<text text-anchor="middle" x="884.5" y="-117" font-family="Helvetica,sans-Serif" font-size="10.00">btbookshelftreemodel.h</text>
</a>
</g>
</g>
<!-- Node2 -->
<g id="Node000002" class="node">
<title>Node2</title>
<g id="a_Node000002"><a xlink:href="../../df/d88/btbookshelfdockwidget_8cpp.html" target="_top" xlink:title=" ">
<polygon fill="white" stroke="#666666" points="151,-19 0,-19 0,0 151,0 151,-19"/>
<text text-anchor="middle" x="75.5" y="-7" font-family="Helvetica,sans-Serif" font-size="10.00">btbookshelfdockwidget.cpp</text>
</a>
</g>
</g>
<!-- Node1&#45;&gt;Node2 -->
<g id="edge1_Node000001_Node000002" class="edge">
<title>Node1&#45;&gt;Node2</title>
<g id="a_edge1_Node000001_Node000002"><a xlink:title=" ">
<path fill="none" stroke="#63b8ff" d="M807.72,-118.24C650.19,-116.97 295.57,-110.04 180.5,-74 142.28,-62.03 103.57,-33.39 85.7,-19.03"/>
<polygon fill="#63b8ff" stroke="#63b8ff" points="807.78,-121.74 817.81,-118.32 807.84,-114.74 807.78,-121.74"/>
</a>
</g>
</g>
<!-- Node3 -->
<g id="Node000003" class="node">
<title>Node3</title>
<g id="a_Node000003"><a xlink:href="../../d4/d1c/btbookshelfdockwidget_8h.html" target="_top" xlink:title=" ">
<polygon fill="white" stroke="#666666" points="329.5,-74 189.5,-74 189.5,-55 329.5,-55 329.5,-74"/>
<text text-anchor="middle" x="259.5" y="-62" font-family="Helvetica,sans-Serif" font-size="10.00">btbookshelfdockwidget.h</text>
</a>
</g>
</g>
<!-- Node1&#45;&gt;Node3 -->
<g id="edge2_Node000001_Node000003" class="edge">
<title>Node1&#45;&gt;Node3</title>
<g id="a_edge2_Node000001_Node000003"><a xlink:title=" ">
<path fill="none" stroke="#63b8ff" d="M807.87,-112C685.56,-101.63 447.99,-81.48 329.79,-71.46"/>
<polygon fill="#63b8ff" stroke="#63b8ff" points="807.65,-115.5 817.91,-112.85 808.24,-108.52 807.65,-115.5"/>
</a>
</g>
</g>
<!-- Node6 -->
<g id="Node000006" class="node">
<title>Node6</title>
<g id="a_Node000006"><a xlink:href="../../d8/d44/btbookshelfgroupingmenu_8cpp.html" target="_top" xlink:title=" ">
<polygon fill="white" stroke="#666666" points="700,-19 535,-19 535,0 700,0 700,-19"/>
<text text-anchor="middle" x="617.5" y="-7" font-family="Helvetica,sans-Serif" font-size="10.00">btbookshelfgroupingmenu.cpp</text>
</a>
</g>
</g>
<!-- Node1&#45;&gt;Node6 -->
<g id="edge6_Node000001_Node000006" class="edge">
<title>Node1&#45;&gt;Node6</title>
<g id="a_edge6_Node000001_Node000006"><a xlink:title=" ">
<path fill="none" stroke="#63b8ff" d="M807.81,-116.94C734.93,-113.65 632.81,-103.7 607.5,-74 594.18,-58.37 605.17,-32.4 612.41,-19.03"/>
<polygon fill="#63b8ff" stroke="#63b8ff" points="807.75,-120.45 817.89,-117.37 808.04,-113.45 807.75,-120.45"/>
</a>
</g>
</g>
<!-- Node7 -->
<g id="Node000007" class="node">
<title>Node7</title>
<g id="a_Node000007"><a xlink:href="../../dc/dd2/btbookshelfgroupingmenu_8h.html" target="_top" xlink:title=" ">
<polygon fill="white" stroke="#666666" points="770.5,-74 616.5,-74 616.5,-55 770.5,-55 770.5,-74"/>
<text text-anchor="middle" x="693.5" y="-62" font-family="Helvetica,sans-Serif" font-size="10.00">btbookshelfgroupingmenu.h</text>
</a>
</g>
</g>
<!-- Node1&#45;&gt;Node7 -->
<g id="edge7_Node000001_Node000007" class="edge">
<title>Node1&#45;&gt;Node7</title>
<g id="a_edge7_Node000001_Node000007"><a xlink:title=" ">
<path fill="none" stroke="#63b8ff" d="M843.72,-107.18C808,-97.27 756.87,-83.08 724.43,-74.08"/>
<polygon fill="#63b8ff" stroke="#63b8ff" points="843.24,-110.68 853.81,-109.98 845.11,-103.94 843.24,-110.68"/>
</a>
</g>
</g>
<!-- Node8 -->
<g id="Node000008" class="node">
<title>Node8</title>
<g id="a_Node000008"><a xlink:href="../../d9/d70/btbookshelfwidget_8cpp.html" target="_top" xlink:title=" ">
<polygon fill="white" stroke="#666666" points="845,-19 718,-19 718,0 845,0 845,-19"/>
<text text-anchor="middle" x="781.5" y="-7" font-family="Helvetica,sans-Serif" font-size="10.00">btbookshelfwidget.cpp</text>
</a>
</g>
</g>
<!-- Node1&#45;&gt;Node8 -->
<g id="edge13_Node000001_Node000008" class="edge">
<title>Node1&#45;&gt;Node8</title>
<g id="a_edge13_Node000001_Node000008"><a xlink:title=" ">
<path fill="none" stroke="#63b8ff" d="M869.05,-102.3C846.92,-79.1 806.97,-37.21 789.76,-19.16"/>
<polygon fill="#63b8ff" stroke="#63b8ff" points="866.64,-104.84 876.07,-109.66 871.7,-100.01 866.64,-104.84"/>
</a>
</g>
</g>
<!-- Node9 -->
<g id="Node000009" class="node">
<title>Node9</title>
<g id="a_Node000009"><a xlink:href="../../d9/d03/btbookshelfworkspage_8cpp.html" target="_top" xlink:title=" ">
<polygon fill="white" stroke="#666666" points="1010,-19 863,-19 863,0 1010,0 1010,-19"/>
<text text-anchor="middle" x="936.5" y="-7" font-family="Helvetica,sans-Serif" font-size="10.00">btbookshelfworkspage.cpp</text>
</a>
</g>
</g>
<!-- Node1&#45;&gt;Node9 -->
<g id="edge14_Node000001_Node000009" class="edge">
<title>Node1&#45;&gt;Node9</title>
<g id="a_edge14_Node000001_Node000009"><a xlink:title=" ">
<path fill="none" stroke="#63b8ff" d="M868.42,-102.28C857.44,-89.16 846.39,-70.4 855.5,-55 866.2,-36.91 887.16,-25.68 905.08,-19.03"/>
<polygon fill="#63b8ff" stroke="#63b8ff" points="866.1,-104.94 875.41,-110 871.29,-100.24 866.1,-104.94"/>
</a>
</g>
</g>
<!-- Node10 -->
<g id="Node000010" class="node">
<title>Node10</title>
<g id="a_Node000010"><a xlink:href="../../d9/d62/btopenworkaction_8cpp.html" target="_top" xlink:title=" ">
<polygon fill="white" stroke="#666666" points="516.5,-19 392.5,-19 392.5,0 516.5,0 516.5,-19"/>
<text text-anchor="middle" x="454.5" y="-7" font-family="Helvetica,sans-Serif" font-size="10.00">btopenworkaction.cpp</text>
</a>
</g>
</g>
<!-- Node1&#45;&gt;Node10 -->
<g id="edge23_Node000001_Node000010" class="edge">
<title>Node1&#45;&gt;Node10</title>
<g id="a_edge23_Node000001_Node000010"><a xlink:title=" ">
<path fill="none" stroke="#63b8ff" d="M807.6,-112.14C749.1,-105.97 667.09,-94.45 597.5,-74 549.29,-59.83 496.08,-32.98 470.27,-19.17"/>
<polygon fill="#63b8ff" stroke="#63b8ff" points="807.57,-115.65 817.87,-113.19 808.28,-108.69 807.57,-115.65"/>
</a>
</g>
</g>
<!-- Node11 -->
<g id="Node000011" class="node">
<title>Node11</title>
<g id="a_Node000011"><a xlink:href="../../d9/d0b/btbookshelftreemodel_8cpp.html" target="_top" xlink:title=" ">
<polygon fill="white" stroke="#666666" points="1338.5,-74 1194.5,-74 1194.5,-55 1338.5,-55 1338.5,-74"/>
<text text-anchor="middle" x="1266.5" y="-62" font-family="Helvetica,sans-Serif" font-size="10.00">btbookshelftreemodel.cpp</text>
</a>
</g>
</g>
<!-- Node1&#45;&gt;Node11 -->
<g id="edge12_Node000001_Node000011" class="edge">
<title>Node1&#45;&gt;Node11</title>
<g id="a_edge12_Node000001_Node000011"><a xlink:title=" ">
<path fill="none" stroke="#63b8ff" d="M956.17,-108.56C1027.89,-98.61 1137.05,-83.46 1204.96,-74.04"/>
<polygon fill="#63b8ff" stroke="#63b8ff" points="955.3,-105.14 945.87,-109.98 956.26,-112.08 955.3,-105.14"/>
</a>
</g>
</g>
<!-- Node12 -->
<g id="Node000012" class="node">
<title>Node12</title>
<g id="a_Node000012"><a xlink:href="../../d6/d8d/btbookshelfworkspage_8h.html" target="_top" xlink:title=" ">
<polygon fill="white" stroke="#666666" points="1000.5,-74 864.5,-74 864.5,-55 1000.5,-55 1000.5,-74"/>
<text text-anchor="middle" x="932.5" y="-62" font-family="Helvetica,sans-Serif" font-size="10.00">btbookshelfworkspage.h</text>
</a>
</g>
</g>
<!-- Node1&#45;&gt;Node12 -->
<g id="edge15_Node000001_Node000012" class="edge">
<title>Node1&#45;&gt;Node12</title>
<g id="a_edge15_Node000001_Node000012"><a xlink:title=" ">
<path fill="none" stroke="#63b8ff" d="M899.23,-102.24C907.64,-92.95 917.85,-81.68 924.72,-74.09"/>
<polygon fill="#63b8ff" stroke="#63b8ff" points="896.54,-99.99 892.43,-109.75 901.73,-104.69 896.54,-99.99"/>
</a>
</g>
</g>
<!-- Node14 -->
<g id="Node000014" class="node">
<title>Node14</title>
<g id="a_Node000014"><a xlink:href="../../dd/dba/btinstallpagemodel_8cpp.html" target="_top" xlink:title=" ">
<polygon fill="white" stroke="#666666" points="1304,-19 1173,-19 1173,0 1304,0 1304,-19"/>
<text text-anchor="middle" x="1238.5" y="-7" font-family="Helvetica,sans-Serif" font-size="10.00">btinstallpagemodel.cpp</text>
</a>
</g>
</g>
<!-- Node1&#45;&gt;Node14 -->
<g id="edge18_Node000001_Node000014" class="edge">
<title>Node1&#45;&gt;Node14</title>
<g id="a_edge18_Node000001_Node000014"><a xlink:title=" ">
<path fill="none" stroke="#63b8ff" d="M961.17,-114.44C1014.98,-109.48 1087.71,-98.47 1147.5,-74 1180.66,-60.43 1213.67,-33.06 1229.25,-19.1"/>
<polygon fill="#63b8ff" stroke="#63b8ff" points="960.67,-110.97 951.01,-115.33 961.28,-117.95 960.67,-110.97"/>
</a>
</g>
</g>
<!-- Node15 -->
<g id="Node000015" class="node">
<title>Node15</title>
<g id="a_Node000015"><a xlink:href="../../df/d56/btinstallpagemodel_8h.html" target="_top" xlink:title=" ">
<polygon fill="white" stroke="#666666" points="1138.5,-74 1018.5,-74 1018.5,-55 1138.5,-55 1138.5,-74"/>
<text text-anchor="middle" x="1078.5" y="-62" font-family="Helvetica,sans-Serif" font-size="10.00">btinstallpagemodel.h</text>
</a>
</g>
</g>
<!-- Node1&#45;&gt;Node15 -->
<g id="edge19_Node000001_Node000015" class="edge">
<title>Node1&#45;&gt;Node15</title>
<g id="a_edge19_Node000001_Node000015"><a xlink:title=" ">
<path fill="none" stroke="#63b8ff" d="M925.46,-107.31C961.76,-97.39 1014,-83.12 1047.09,-74.08"/>
<polygon fill="#63b8ff" stroke="#63b8ff" points="924.39,-103.97 915.67,-109.98 926.24,-110.73 924.39,-103.97"/>
</a>
</g>
</g>
<!-- Node16 -->
<g id="Node000016" class="node">
<title>Node16</title>
<g id="a_Node000016"><a xlink:href="../../dd/ddc/btmodulechoosermenu_8cpp.html" target="_top" xlink:title=" ">
<polygon fill="white" stroke="#666666" points="1506,-74 1357,-74 1357,-55 1506,-55 1506,-74"/>
<text text-anchor="middle" x="1431.5" y="-62" font-family="Helvetica,sans-Serif" font-size="10.00">btmodulechoosermenu.cpp</text>
</a>
</g>
</g>
<!-- Node1&#45;&gt;Node16 -->
<g id="edge22_Node000001_Node000016" class="edge">
<title>Node1&#45;&gt;Node16</title>
<g id="a_edge22_Node000001_Node000016"><a xlink:title=" ">
<path fill="none" stroke="#63b8ff" d="M961.26,-111.24C1053.11,-102.53 1211.56,-87.41 1347.5,-74 1350.56,-73.7 1353.69,-73.39 1356.85,-73.07"/>
<polygon fill="#63b8ff" stroke="#63b8ff" points="960.84,-107.77 951.22,-112.19 961.5,-114.73 960.84,-107.77"/>
</a>
</g>
</g>
<!-- Node17 -->
<g id="Node000017" class="node">
<title>Node17</title>
<g id="a_Node000017"><a xlink:href="../../dd/d87/btopenworkaction_8h.html" target="_top" xlink:title=" ">
<polygon fill="white" stroke="#666666" points="511,-74 398,-74 398,-55 511,-55 511,-74"/>
<text text-anchor="middle" x="454.5" y="-62" font-family="Helvetica,sans-Serif" font-size="10.00">btopenworkaction.h</text>
</a>
</g>
</g>
<!-- Node1&#45;&gt;Node17 -->
<g id="edge24_Node000001_Node000017" class="edge">
<title>Node1&#45;&gt;Node17</title>
<g id="a_edge24_Node000001_Node000017"><a xlink:title=" ">
<path fill="none" stroke="#63b8ff" d="M807.65,-109.03C722.46,-98.53 587.08,-81.84 511.07,-72.47"/>
<polygon fill="#63b8ff" stroke="#63b8ff" points="807.43,-112.53 817.78,-110.28 808.29,-105.58 807.43,-112.53"/>
</a>
</g>
</g>
<!-- Node18 -->
<g id="Node000018" class="node">
<title>Node18</title>
<g id="a_Node000018"><a xlink:href="../../dc/dab/btsearchmodulechooserdialog_8cpp.html" target="_top" xlink:title=" ">
<polygon fill="white" stroke="#666666" points="1708.5,-74 1524.5,-74 1524.5,-55 1708.5,-55 1708.5,-74"/>
<text text-anchor="middle" x="1616.5" y="-62" font-family="Helvetica,sans-Serif" font-size="10.00">btsearchmodulechooserdialog.cpp</text>
</a>
</g>
</g>
<!-- Node1&#45;&gt;Node18 -->
<g id="edge27_Node000001_Node000018" class="edge">
<title>Node1&#45;&gt;Node18</title>
<g id="a_edge27_Node000001_Node000018"><a xlink:title=" ">
<path fill="none" stroke="#63b8ff" d="M961.39,-113.41C1080.25,-105.48 1315.75,-89.45 1515.5,-74 1518.39,-73.78 1521.34,-73.55 1524.31,-73.31"/>
<polygon fill="#63b8ff" stroke="#63b8ff" points="961.04,-109.93 951.3,-114.09 961.51,-116.91 961.04,-109.93"/>
</a>
</g>
</g>
<!-- Node19 -->
<g id="Node000019" class="node">
<title>Node19</title>
<g id="a_Node000019"><a xlink:href="../../df/d0a/main_8cpp.html" target="_top" xlink:title=" ">
<polygon fill="white" stroke="#666666" points="1788.5,-74 1726.5,-74 1726.5,-55 1788.5,-55 1788.5,-74"/>
<text text-anchor="middle" x="1757.5" y="-62" font-family="Helvetica,sans-Serif" font-size="10.00">main.cpp</text>
</a>
</g>
</g>
<!-- Node1&#45;&gt;Node19 -->
<g id="edge28_Node000001_Node000019" class="edge">
<title>Node1&#45;&gt;Node19</title>
<g id="a_edge28_Node000001_Node000019"><a xlink:title=" ">
<path fill="none" stroke="#63b8ff" d="M961.52,-118.39C1108.94,-117.29 1440.93,-110.55 1717.5,-74 1720.32,-73.63 1723.23,-73.16 1726.14,-72.65"/>
<polygon fill="#63b8ff" stroke="#63b8ff" points="961.21,-114.89 951.23,-118.46 961.26,-121.89 961.21,-114.89"/>
</a>
</g>
</g>
<!-- Node20 -->
<g id="Node000020" class="node">
<title>Node20</title>
<g id="a_Node000020"><a xlink:href="../../dc/d32/moduleitem_8cpp.html" target="_top" xlink:title=" ">
<polygon fill="white" stroke="#666666" points="1902.5,-74 1806.5,-74 1806.5,-55 1902.5,-55 1902.5,-74"/>
<text text-anchor="middle" x="1854.5" y="-62" font-family="Helvetica,sans-Serif" font-size="10.00">moduleitem.cpp</text>
</a>
</g>
</g>
<!-- Node1&#45;&gt;Node20 -->
<g id="edge29_Node000001_Node000020" class="edge">
<title>Node1&#45;&gt;Node20</title>
<g id="a_edge29_Node000001_Node000020"><a xlink:title=" ">
<path fill="none" stroke="#63b8ff" d="M961.15,-117.33C1118.34,-114.37 1488.43,-104.5 1797.5,-74 1800.39,-73.72 1803.35,-73.39 1806.34,-73.03"/>
<polygon fill="#63b8ff" stroke="#63b8ff" points="961.04,-113.83 951.11,-117.52 961.17,-120.83 961.04,-113.83"/>
</a>
</g>
</g>
<!-- Node3&#45;&gt;Node2 -->
<g id="edge5_Node000003_Node000002" class="edge">
<title>Node3&#45;&gt;Node2</title>
<g id="a_edge5_Node000003_Node000002"><a xlink:title=" ">
<path fill="none" stroke="#63b8ff" d="M220.21,-52.18C185.8,-42.27 136.54,-28.08 105.29,-19.08"/>
<polygon fill="#63b8ff" stroke="#63b8ff" points="219.36,-55.58 229.94,-54.98 221.3,-48.85 219.36,-55.58"/>
</a>
</g>
</g>
<!-- Node4 -->
<g id="Node000004" class="node">
<title>Node4</title>
<g id="a_Node000004"><a xlink:href="../../d1/df6/bibletime_8cpp.html" target="_top" xlink:title=" ">
<polygon fill="white" stroke="#666666" points="252,-19 169,-19 169,0 252,0 252,-19"/>
<text text-anchor="middle" x="210.5" y="-7" font-family="Helvetica,sans-Serif" font-size="10.00">bibletime.cpp</text>
</a>
</g>
</g>
<!-- Node3&#45;&gt;Node4 -->
<g id="edge3_Node000003_Node000004" class="edge">
<title>Node3&#45;&gt;Node4</title>
<g id="a_edge3_Node000003_Node000004"><a xlink:title=" ">
<path fill="none" stroke="#63b8ff" d="M244.47,-47.24C235.88,-37.95 225.46,-26.68 218.44,-19.09"/>
<polygon fill="#63b8ff" stroke="#63b8ff" points="242.05,-49.78 251.41,-54.75 247.19,-45.03 242.05,-49.78"/>
</a>
</g>
</g>
<!-- Node5 -->
<g id="Node000005" class="node">
<title>Node5</title>
<g id="a_Node000005"><a xlink:href="../../da/dc7/bibletime__init_8cpp.html" target="_top" xlink:title=" ">
<polygon fill="white" stroke="#666666" points="374.5,-19 270.5,-19 270.5,0 374.5,0 374.5,-19"/>
<text text-anchor="middle" x="322.5" y="-7" font-family="Helvetica,sans-Serif" font-size="10.00">bibletime_init.cpp</text>
</a>
</g>
</g>
<!-- Node3&#45;&gt;Node5 -->
<g id="edge4_Node000003_Node000005" class="edge">
<title>Node3&#45;&gt;Node5</title>
<g id="a_edge4_Node000003_Node000005"><a xlink:title=" ">
<path fill="none" stroke="#63b8ff" d="M277.54,-48.32C288.77,-38.87 302.82,-27.06 312.19,-19.17"/>
<polygon fill="#63b8ff" stroke="#63b8ff" points="275.02,-45.87 269.62,-54.98 279.53,-51.23 275.02,-45.87"/>
</a>
</g>
</g>
<!-- Node7&#45;&gt;Node6 -->
<g id="edge8_Node000007_Node000006" class="edge">
<title>Node7&#45;&gt;Node6</title>
<g id="a_edge8_Node000007_Node000006"><a xlink:title=" ">
<path fill="none" stroke="#63b8ff" d="M672.92,-49.15C659.19,-39.57 641.57,-27.29 629.93,-19.17"/>
<polygon fill="#63b8ff" stroke="#63b8ff" points="671.08,-52.14 681.29,-54.98 675.09,-46.39 671.08,-52.14"/>
</a>
</g>
</g>
<!-- Node7&#45;&gt;Node8 -->
<g id="edge9_Node000007_Node000008" class="edge">
<title>Node7&#45;&gt;Node8</title>
<g id="a_edge9_Node000007_Node000008"><a xlink:title=" ">
<path fill="none" stroke="#63b8ff" d="M716.42,-49.7C732.45,-40.04 753.37,-27.44 767.1,-19.17"/>
<polygon fill="#63b8ff" stroke="#63b8ff" points="714.4,-46.83 707.64,-54.98 718.01,-52.82 714.4,-46.83"/>
</a>
</g>
</g>
<!-- Node7&#45;&gt;Node9 -->
<g id="edge10_Node000007_Node000009" class="edge">
<title>Node7&#45;&gt;Node9</title>
<g id="a_edge10_Node000007_Node000009"><a xlink:title=" ">
<path fill="none" stroke="#63b8ff" d="M742.49,-52.82C788.03,-42.88 855,-28.28 897.15,-19.08"/>
<polygon fill="#63b8ff" stroke="#63b8ff" points="741.57,-49.43 732.54,-54.98 743.06,-56.27 741.57,-49.43"/>
</a>
</g>
</g>
<!-- Node7&#45;&gt;Node10 -->
<g id="edge11_Node000007_Node000010" class="edge">
<title>Node7&#45;&gt;Node10</title>
<g id="a_edge11_Node000007_Node000010"><a xlink:title=" ">
<path fill="none" stroke="#63b8ff" d="M645.32,-52.82C600.53,-42.88 534.66,-28.28 493.2,-19.08"/>
<polygon fill="#63b8ff" stroke="#63b8ff" points="644.58,-56.24 655.1,-54.98 646.1,-49.4 644.58,-56.24"/>
</a>
</g>
</g>
<!-- Node12&#45;&gt;Node9 -->
<g id="edge17_Node000012_Node000009" class="edge">
<title>Node12&#45;&gt;Node9</title>
<g id="a_edge17_Node000012_Node000009"><a xlink:title=" ">
<path fill="none" stroke="#63b8ff" d="M933.92,-44.66C934.58,-35.93 935.33,-25.99 935.85,-19.09"/>
<polygon fill="#63b8ff" stroke="#63b8ff" points="930.42,-44.51 933.16,-54.75 937.4,-45.04 930.42,-44.51"/>
</a>
</g>
</g>
<!-- Node13 -->
<g id="Node000013" class="node">
<title>Node13</title>
<g id="a_Node000013"><a xlink:href="../../d6/d54/btbookshelfwizard_8cpp.html" target="_top" xlink:title=" ">
<polygon fill="white" stroke="#666666" points="1154.5,-19 1028.5,-19 1028.5,0 1154.5,0 1154.5,-19"/>
<text text-anchor="middle" x="1091.5" y="-7" font-family="Helvetica,sans-Serif" font-size="10.00">btbookshelfwizard.cpp</text>
</a>
</g>
</g>
<!-- Node12&#45;&gt;Node13 -->
<g id="edge16_Node000012_Node000013" class="edge">
<title>Node12&#45;&gt;Node13</title>
<g id="a_edge16_Node000012_Node000013"><a xlink:title=" ">
<path fill="none" stroke="#63b8ff" d="M967.6,-51.8C997.28,-41.91 1039.1,-27.97 1065.75,-19.08"/>
<polygon fill="#63b8ff" stroke="#63b8ff" points="966.43,-48.5 958.05,-54.98 968.64,-55.14 966.43,-48.5"/>
</a>
</g>
</g>
<!-- Node15&#45;&gt;Node9 -->
<g id="edge20_Node000015_Node000009" class="edge">
<title>Node15&#45;&gt;Node9</title>
<g id="a_edge20_Node000015_Node000009"><a xlink:title=" ">
<path fill="none" stroke="#63b8ff" d="M1046.14,-51.42C1019.79,-41.59 983.24,-27.95 959.73,-19.17"/>
<polygon fill="#63b8ff" stroke="#63b8ff" points="1045.09,-54.77 1055.69,-54.98 1047.54,-48.21 1045.09,-54.77"/>
</a>
</g>
</g>
<!-- Node15&#45;&gt;Node14 -->
<g id="edge21_Node000015_Node000014" class="edge">
<title>Node15&#45;&gt;Node14</title>
<g id="a_edge21_Node000015_Node000014"><a xlink:title=" ">
<path fill="none" stroke="#63b8ff" d="M1113.83,-51.8C1143.69,-41.91 1185.77,-27.97 1212.59,-19.08"/>
<polygon fill="#63b8ff" stroke="#63b8ff" points="1112.6,-48.52 1104.21,-54.98 1114.8,-55.16 1112.6,-48.52"/>
</a>
</g>
</g>
<!-- Node17&#45;&gt;Node5 -->
<g id="edge25_Node000017_Node000005" class="edge">
<title>Node17&#45;&gt;Node5</title>
<g id="a_edge25_Node000017_Node000005"><a xlink:title=" ">
<path fill="none" stroke="#63b8ff" d="M423.77,-51.16C399.33,-41.35 365.76,-27.87 344.09,-19.17"/>
<polygon fill="#63b8ff" stroke="#63b8ff" points="422.71,-54.51 433.29,-54.98 425.32,-48.01 422.71,-54.51"/>
</a>
</g>
</g>
<!-- Node17&#45;&gt;Node10 -->
<g id="edge26_Node000017_Node000010" class="edge">
<title>Node17&#45;&gt;Node10</title>
<g id="a_edge26_Node000017_Node000010"><a xlink:title=" ">
<path fill="none" stroke="#63b8ff" d="M454.5,-44.66C454.5,-35.93 454.5,-25.99 454.5,-19.09"/>
<polygon fill="#63b8ff" stroke="#63b8ff" points="451,-44.75 454.5,-54.75 458,-44.75 451,-44.75"/>
</a>
</g>
</g>
</g>
</svg>

<g id="navigator" transform="translate(0 0)" fill="#404254">
  <rect fill="#f2f5e9" fill-opacity="0.5" stroke="#606060" stroke-width=".5" x="0" y="0" width="60" height="60"/>
  <use id="zoomplus" xlink:href="#zoomPlus" x="17" y="9" onmousedown="handleZoom(evt,'in')"/>
  <use id="zoomminus" xlink:href="#zoomMin" x="42" y="9" onmousedown="handleZoom(evt,'out')"/>
  <use id="reset" xlink:href="#resetDef" x="30" y="36" onmousedown="handleReset()"/>
   <use id="arrowup" xlink:href="#arrowUp" x="0" y="0" onmousedown="handlePan(0,-1)"/>
  <use id="arrowright" xlink:href="#arrowRight" x="0" y="0" onmousedown="handlePan(1,0)"/>
  <use id="arrowdown" xlink:href="#arrowDown" x="0" y="0" onmousedown="handlePan(0,1)"/>
  <use id="arrowleft" xlink:href="#arrowLeft" x="0" y="0" onmousedown="handlePan(-1,0)"/>
</g>
<svg viewBox="0 0 15 15" width="100%" height="30px" preserveAspectRatio="xMaxYMin meet">
 <g id="arrow_out" transform="scale(0.3 0.3)">
  <a xlink:href="btbookshelftreemodel_8h__dep__incl_org.svg" target="_base">
   <rect id="button" ry="5" rx="5" y="6" x="6" height="38" width="38"
        fill="#f2f5e9" fill-opacity="0.5" stroke="#606060" stroke-width="1.0"/>
   <path id="arrow"
     d="M 11.500037,31.436501 C 11.940474,20.09759 22.043105,11.32322 32.158766,21.979434 L 37.068811,17.246167 C 37.068811,17.246167 37.088388,32 37.088388,32 L 22.160133,31.978069 C 22.160133,31.978069 26.997745,27.140456 26.997745,27.140456 C 18.528582,18.264221 13.291696,25.230495 11.500037,31.436501 z"
     style="fill:#404040;"/>
  </a>
 </g>
</svg>

<style type='text/css'>
<![CDATA[
[data-mouse-over-selected='false'] { opacity: 0.7; }
[data-mouse-over-selected='true']  { opacity: 1.0; }
]]>
</style>
<script type="application/ecmascript"><![CDATA[
document.addEventListener('DOMContentLoaded', (event) => {
  highlightEdges();
  highlightAdjacentNodes();
});
]]></script>
</svg>
