<?xml version="1.0" encoding="UTF-8" standalone="no"?>
<!DOCTYPE svg PUBLIC "-//W3C//DTD SVG 1.1//EN"
 "http://www.w3.org/Graphics/SVG/1.1/DTD/svg11.dtd">
<!-- Generated by graphviz version 2.43.0 (0)
 -->
<!-- Title: btbookshelftreemodel.h Pages: 1 -->
<svg width="1696pt" height="140pt"
 viewBox="0.00 0.00 1696.00 140.00" xmlns="http://www.w3.org/2000/svg" xmlns:xlink="http://www.w3.org/1999/xlink">
<g id="graph0" class="graph" transform="scale(1 1) rotate(0) translate(4 136)">
<title>btbookshelftreemodel.h</title>
<polygon fill="white" stroke="transparent" points="-4,4 -4,-136 1692,-136 1692,4 -4,4"/>
<!-- Node1 -->
<g id="node1" class="node">
<title>Node1</title>
<g id="a_node1"><a xlink:title=" ">
<polygon fill="#bfbfbf" stroke="black" points="744.5,-112.5 744.5,-131.5 877.5,-131.5 877.5,-112.5 744.5,-112.5"/>
<text text-anchor="middle" x="811" y="-119.5" font-family="Helvetica,sans-Serif" font-size="10.00">btbookshelftreemodel.h</text>
</a>
</g>
</g>
<!-- Node2 -->
<g id="node2" class="node">
<title>Node2</title>
<g id="a_node2"><a xlink:href="../../d9/d0b/btbookshelftreemodel_8cpp.html" target="_top" xlink:title=" ">
<polygon fill="white" stroke="black" points="0,-56.5 0,-75.5 144,-75.5 144,-56.5 0,-56.5"/>
<text text-anchor="middle" x="72" y="-63.5" font-family="Helvetica,sans-Serif" font-size="10.00">btbookshelftreemodel.cpp</text>
</a>
</g>
</g>
<!-- Node1&#45;&gt;Node2 -->
<g id="edge1" class="edge">
<title>Node1&#45;&gt;Node2</title>
<path fill="none" stroke="midnightblue" d="M734.08,-116.8C611.16,-109.85 362.93,-94.83 153,-76 150.18,-75.75 147.31,-75.48 144.41,-75.2"/>
<polygon fill="midnightblue" stroke="midnightblue" points="733.96,-120.3 744.14,-117.37 734.36,-113.31 733.96,-120.3"/>
</g>
<!-- Node3 -->
<g id="node3" class="node">
<title>Node3</title>
<g id="a_node3"><a xlink:href="../../dc/d32/moduleitem_8cpp.html" target="_top" xlink:title=" ">
<polygon fill="white" stroke="black" points="162,-56.5 162,-75.5 258,-75.5 258,-56.5 162,-56.5"/>
<text text-anchor="middle" x="210" y="-63.5" font-family="Helvetica,sans-Serif" font-size="10.00">moduleitem.cpp</text>
</a>
</g>
</g>
<!-- Node1&#45;&gt;Node3 -->
<g id="edge2" class="edge">
<title>Node1&#45;&gt;Node3</title>
<path fill="none" stroke="midnightblue" d="M734.02,-116.43C628.46,-109.76 432.95,-95.94 267,-76 264.12,-75.65 261.15,-75.27 258.17,-74.86"/>
<polygon fill="midnightblue" stroke="midnightblue" points="734.06,-119.94 744.26,-117.08 734.5,-112.96 734.06,-119.94"/>
</g>
<!-- Node4 -->
<g id="node4" class="node">
<title>Node4</title>
<g id="a_node4"><a xlink:href="../../d9/d03/btbookshelfworkspage_8cpp.html" target="_top" xlink:title=" ">
<polygon fill="white" stroke="black" points="282.5,-0.5 282.5,-19.5 429.5,-19.5 429.5,-0.5 282.5,-0.5"/>
<text text-anchor="middle" x="356" y="-7.5" font-family="Helvetica,sans-Serif" font-size="10.00">btbookshelfworkspage.cpp</text>
</a>
</g>
</g>
<!-- Node1&#45;&gt;Node4 -->
<g id="edge3" class="edge">
<title>Node1&#45;&gt;Node4</title>
<path fill="none" stroke="midnightblue" d="M734.45,-120.69C661.61,-118.21 549.95,-108.69 459,-76 439.8,-69.1 391.01,-35.66 368.15,-19.62"/>
<polygon fill="midnightblue" stroke="midnightblue" points="734.36,-124.19 744.46,-120.99 734.57,-117.19 734.36,-124.19"/>
</g>
<!-- Node5 -->
<g id="node5" class="node">
<title>Node5</title>
<g id="a_node5"><a xlink:href="../../d6/d8d/btbookshelfworkspage_8h.html" target="_top" xlink:title=" ">
<polygon fill="white" stroke="black" points="276,-56.5 276,-75.5 412,-75.5 412,-56.5 276,-56.5"/>
<text text-anchor="middle" x="344" y="-63.5" font-family="Helvetica,sans-Serif" font-size="10.00">btbookshelfworkspage.h</text>
</a>
</g>
</g>
<!-- Node1&#45;&gt;Node5 -->
<g id="edge4" class="edge">
<title>Node1&#45;&gt;Node5</title>
<path fill="none" stroke="midnightblue" d="M734,-112.1C644.44,-101.74 497.97,-84.8 412.3,-74.9"/>
<polygon fill="midnightblue" stroke="midnightblue" points="733.75,-115.59 744.09,-113.26 734.56,-108.64 733.75,-115.59"/>
</g>
<!-- Node7 -->
<g id="node7" class="node">
<title>Node7</title>
<g id="a_node7"><a xlink:href="../../dd/dba/btinstallpagemodel_8cpp.html" target="_top" xlink:title=" ">
<polygon fill="white" stroke="black" points="447.5,-0.5 447.5,-19.5 578.5,-19.5 578.5,-0.5 447.5,-0.5"/>
<text text-anchor="middle" x="513" y="-7.5" font-family="Helvetica,sans-Serif" font-size="10.00">btinstallpagemodel.cpp</text>
</a>
</g>
</g>
<!-- Node1&#45;&gt;Node7 -->
<g id="edge7" class="edge">
<title>Node1&#45;&gt;Node7</title>
<path fill="none" stroke="midnightblue" d="M769.5,-109.75C739.6,-101.31 698.45,-89.02 663,-76 614.51,-58.19 559.15,-32.85 531.2,-19.69"/>
<polygon fill="midnightblue" stroke="midnightblue" points="768.61,-113.14 779.19,-112.46 770.5,-106.39 768.61,-113.14"/>
</g>
<!-- Node8 -->
<g id="node8" class="node">
<title>Node8</title>
<g id="a_node8"><a xlink:href="../../df/d56/btinstallpagemodel_8h.html" target="_top" xlink:title=" ">
<polygon fill="white" stroke="black" points="468,-56.5 468,-75.5 588,-75.5 588,-56.5 468,-56.5"/>
<text text-anchor="middle" x="528" y="-63.5" font-family="Helvetica,sans-Serif" font-size="10.00">btinstallpagemodel.h</text>
</a>
</g>
</g>
<!-- Node1&#45;&gt;Node8 -->
<g id="edge8" class="edge">
<title>Node1&#45;&gt;Node8</title>
<path fill="none" stroke="midnightblue" d="M756.17,-110.54C702.68,-100.33 622.33,-85 572.63,-75.52"/>
<polygon fill="midnightblue" stroke="midnightblue" points="755.68,-114.01 766.16,-112.44 756.99,-107.13 755.68,-114.01"/>
</g>
<!-- Node9 -->
<g id="node9" class="node">
<title>Node9</title>
<g id="a_node9"><a xlink:href="../../df/d88/btbookshelfdockwidget_8cpp.html" target="_top" xlink:title=" ">
<polygon fill="white" stroke="black" points="1290.5,-0.5 1290.5,-19.5 1441.5,-19.5 1441.5,-0.5 1290.5,-0.5"/>
<text text-anchor="middle" x="1366" y="-7.5" font-family="Helvetica,sans-Serif" font-size="10.00">btbookshelfdockwidget.cpp</text>
</a>
</g>
</g>
<!-- Node1&#45;&gt;Node9 -->
<g id="edge11" class="edge">
<title>Node1&#45;&gt;Node9</title>
<path fill="none" stroke="midnightblue" d="M887.86,-120.75C969.68,-118.57 1102.1,-109.48 1211,-76 1229.24,-70.39 1231.62,-63.88 1249,-56 1280.12,-41.89 1317.07,-28.16 1341,-19.65"/>
<polygon fill="midnightblue" stroke="midnightblue" points="887.56,-117.26 877.65,-121 887.73,-124.26 887.56,-117.26"/>
</g>
<!-- Node10 -->
<g id="node10" class="node">
<title>Node10</title>
<g id="a_node10"><a xlink:href="../../d4/d1c/btbookshelfdockwidget_8h.html" target="_top" xlink:title=" ">
<polygon fill="white" stroke="black" points="1062,-56.5 1062,-75.5 1202,-75.5 1202,-56.5 1062,-56.5"/>
<text text-anchor="middle" x="1132" y="-63.5" font-family="Helvetica,sans-Serif" font-size="10.00">btbookshelfdockwidget.h</text>
</a>
</g>
</g>
<!-- Node1&#45;&gt;Node10 -->
<g id="edge12" class="edge">
<title>Node1&#45;&gt;Node10</title>
<path fill="none" stroke="midnightblue" d="M872.06,-110.73C932.72,-100.52 1024.65,-85.06 1081.37,-75.52"/>
<polygon fill="midnightblue" stroke="midnightblue" points="871.14,-107.33 861.86,-112.44 872.31,-114.24 871.14,-107.33"/>
</g>
<!-- Node13 -->
<g id="node13" class="node">
<title>Node13</title>
<g id="a_node13"><a xlink:href="../../d8/d44/btbookshelfgroupingmenu_8cpp.html" target="_top" xlink:title=" ">
<polygon fill="white" stroke="black" points="596.5,-0.5 596.5,-19.5 761.5,-19.5 761.5,-0.5 596.5,-0.5"/>
<text text-anchor="middle" x="679" y="-7.5" font-family="Helvetica,sans-Serif" font-size="10.00">btbookshelfgroupingmenu.cpp</text>
</a>
</g>
</g>
<!-- Node1&#45;&gt;Node13 -->
<g id="edge16" class="edge">
<title>Node1&#45;&gt;Node13</title>
<path fill="none" stroke="midnightblue" d="M734.13,-113.4C710.71,-107.06 687.38,-95.81 673,-76 660.75,-59.12 669.21,-32.93 674.94,-19.53"/>
<polygon fill="midnightblue" stroke="midnightblue" points="733.6,-116.88 744.15,-115.83 735.25,-110.08 733.6,-116.88"/>
</g>
<!-- Node14 -->
<g id="node14" class="node">
<title>Node14</title>
<g id="a_node14"><a xlink:href="../../dc/dd2/btbookshelfgroupingmenu_8h.html" target="_top" xlink:title=" ">
<polygon fill="white" stroke="black" points="682,-56.5 682,-75.5 836,-75.5 836,-56.5 682,-56.5"/>
<text text-anchor="middle" x="759" y="-63.5" font-family="Helvetica,sans-Serif" font-size="10.00">btbookshelfgroupingmenu.h</text>
</a>
</g>
</g>
<!-- Node1&#45;&gt;Node14 -->
<g id="edge17" class="edge">
<title>Node1&#45;&gt;Node14</title>
<path fill="none" stroke="midnightblue" d="M795.32,-104.72C786.16,-95.2 774.95,-83.56 767.43,-75.75"/>
<polygon fill="midnightblue" stroke="midnightblue" points="792.96,-107.31 802.41,-112.08 798,-102.45 792.96,-107.31"/>
</g>
<!-- Node15 -->
<g id="node15" class="node">
<title>Node15</title>
<g id="a_node15"><a xlink:href="../../d9/d70/btbookshelfwidget_8cpp.html" target="_top" xlink:title=" ">
<polygon fill="white" stroke="black" points="779.5,-0.5 779.5,-19.5 906.5,-19.5 906.5,-0.5 779.5,-0.5"/>
<text text-anchor="middle" x="843" y="-7.5" font-family="Helvetica,sans-Serif" font-size="10.00">btbookshelfwidget.cpp</text>
</a>
</g>
</g>
<!-- Node1&#45;&gt;Node15 -->
<g id="edge22" class="edge">
<title>Node1&#45;&gt;Node15</title>
<path fill="none" stroke="midnightblue" d="M827.18,-104.96C834.1,-96.98 841.4,-86.75 845,-76 851.46,-56.73 847.85,-32.42 845.13,-19.69"/>
<polygon fill="midnightblue" stroke="midnightblue" points="824.52,-102.68 820.29,-112.39 829.65,-107.44 824.52,-102.68"/>
</g>
<!-- Node16 -->
<g id="node16" class="node">
<title>Node16</title>
<g id="a_node16"><a xlink:href="../../d9/d62/btopenworkaction_8cpp.html" target="_top" xlink:title=" ">
<polygon fill="white" stroke="black" points="925,-0.5 925,-19.5 1049,-19.5 1049,-0.5 925,-0.5"/>
<text text-anchor="middle" x="987" y="-7.5" font-family="Helvetica,sans-Serif" font-size="10.00">btopenworkaction.cpp</text>
</a>
</g>
</g>
<!-- Node1&#45;&gt;Node16 -->
<g id="edge23" class="edge">
<title>Node1&#45;&gt;Node16</title>
<path fill="none" stroke="midnightblue" d="M833.39,-107.01C870.33,-83.92 942.98,-38.51 973.25,-19.59"/>
<polygon fill="midnightblue" stroke="midnightblue" points="831.44,-104.1 824.81,-112.37 835.15,-110.04 831.44,-104.1"/>
</g>
<!-- Node17 -->
<g id="node17" class="node">
<title>Node17</title>
<g id="a_node17"><a xlink:href="../../dd/d87/btopenworkaction_8h.html" target="_top" xlink:title=" ">
<polygon fill="white" stroke="black" points="930.5,-56.5 930.5,-75.5 1043.5,-75.5 1043.5,-56.5 930.5,-56.5"/>
<text text-anchor="middle" x="987" y="-63.5" font-family="Helvetica,sans-Serif" font-size="10.00">btopenworkaction.h</text>
</a>
</g>
</g>
<!-- Node1&#45;&gt;Node17 -->
<g id="edge24" class="edge">
<title>Node1&#45;&gt;Node17</title>
<path fill="none" stroke="midnightblue" d="M848.69,-109.44C881.87,-99.26 929.43,-84.66 959.24,-75.52"/>
<polygon fill="midnightblue" stroke="midnightblue" points="847.42,-106.16 838.89,-112.44 849.47,-112.86 847.42,-106.16"/>
</g>
<!-- Node18 -->
<g id="node18" class="node">
<title>Node18</title>
<g id="a_node18"><a xlink:href="../../dd/ddc/btmodulechoosermenu_8cpp.html" target="_top" xlink:title=" ">
<polygon fill="white" stroke="black" points="1257.5,-56.5 1257.5,-75.5 1406.5,-75.5 1406.5,-56.5 1257.5,-56.5"/>
<text text-anchor="middle" x="1332" y="-63.5" font-family="Helvetica,sans-Serif" font-size="10.00">btmodulechoosermenu.cpp</text>
</a>
</g>
</g>
<!-- Node1&#45;&gt;Node18 -->
<g id="edge27" class="edge">
<title>Node1&#45;&gt;Node18</title>
<path fill="none" stroke="midnightblue" d="M887.48,-113.07C986.82,-102.78 1159.11,-84.92 1257.48,-74.72"/>
<polygon fill="midnightblue" stroke="midnightblue" points="887.1,-109.59 877.51,-114.11 887.82,-116.56 887.1,-109.59"/>
</g>
<!-- Node19 -->
<g id="node19" class="node">
<title>Node19</title>
<g id="a_node19"><a xlink:href="../../df/d0a/main_8cpp.html" target="_top" xlink:title=" ">
<polygon fill="white" stroke="black" points="1424,-56.5 1424,-75.5 1486,-75.5 1486,-56.5 1424,-56.5"/>
<text text-anchor="middle" x="1455" y="-63.5" font-family="Helvetica,sans-Serif" font-size="10.00">main.cpp</text>
</a>
</g>
</g>
<!-- Node1&#45;&gt;Node19 -->
<g id="edge28" class="edge">
<title>Node1&#45;&gt;Node19</title>
<path fill="none" stroke="midnightblue" d="M887.75,-119.04C1003.04,-115.25 1227.48,-104.59 1416,-76 1418.47,-75.62 1421.02,-75.18 1423.58,-74.69"/>
<polygon fill="midnightblue" stroke="midnightblue" points="887.5,-115.55 877.62,-119.36 887.73,-122.54 887.5,-115.55"/>
</g>
<!-- Node20 -->
<g id="node20" class="node">
<title>Node20</title>
<g id="a_node20"><a xlink:href="../../dc/dab/btsearchmodulechooserdialog_8cpp.html" target="_top" xlink:title=" ">
<polygon fill="white" stroke="black" points="1504,-56.5 1504,-75.5 1688,-75.5 1688,-56.5 1504,-56.5"/>
<text text-anchor="middle" x="1596" y="-63.5" font-family="Helvetica,sans-Serif" font-size="10.00">btsearchmodulechooserdialog.cpp</text>
</a>
</g>
</g>
<!-- Node1&#45;&gt;Node20 -->
<g id="edge29" class="edge">
<title>Node1&#45;&gt;Node20</title>
<path fill="none" stroke="midnightblue" d="M887.91,-116.52C1014.54,-109.02 1274.86,-93.05 1495,-76 1497.9,-75.78 1500.84,-75.54 1503.81,-75.3"/>
<polygon fill="midnightblue" stroke="midnightblue" points="887.32,-113.05 877.55,-117.14 887.74,-120.04 887.32,-113.05"/>
</g>
<!-- Node5&#45;&gt;Node4 -->
<g id="edge6" class="edge">
<title>Node5&#45;&gt;Node4</title>
<path fill="none" stroke="midnightblue" d="M348.2,-46.1C350.19,-37.14 352.48,-26.86 354.06,-19.75"/>
<polygon fill="midnightblue" stroke="midnightblue" points="344.73,-45.56 345.98,-56.08 351.57,-47.08 344.73,-45.56"/>
</g>
<!-- Node6 -->
<g id="node6" class="node">
<title>Node6</title>
<g id="a_node6"><a xlink:href="../../d6/d54/btbookshelfwizard_8cpp.html" target="_top" xlink:title=" ">
<polygon fill="white" stroke="black" points="138,-0.5 138,-19.5 264,-19.5 264,-0.5 138,-0.5"/>
<text text-anchor="middle" x="201" y="-7.5" font-family="Helvetica,sans-Serif" font-size="10.00">btbookshelfwizard.cpp</text>
</a>
</g>
</g>
<!-- Node5&#45;&gt;Node6 -->
<g id="edge5" class="edge">
<title>Node5&#45;&gt;Node6</title>
<path fill="none" stroke="midnightblue" d="M311.97,-52.91C285.09,-42.75 247.36,-28.51 223.55,-19.52"/>
<polygon fill="midnightblue" stroke="midnightblue" points="310.75,-56.19 321.34,-56.44 313.22,-49.64 310.75,-56.19"/>
</g>
<!-- Node8&#45;&gt;Node4 -->
<g id="edge9" class="edge">
<title>Node8&#45;&gt;Node4</title>
<path fill="none" stroke="midnightblue" d="M491.17,-53.44C458.74,-43.26 412.26,-28.66 383.13,-19.52"/>
<polygon fill="midnightblue" stroke="midnightblue" points="490.16,-56.79 500.75,-56.44 492.25,-50.11 490.16,-56.79"/>
</g>
<!-- Node8&#45;&gt;Node7 -->
<g id="edge10" class="edge">
<title>Node8&#45;&gt;Node7</title>
<path fill="none" stroke="midnightblue" d="M522.83,-46.4C520.32,-37.36 517.43,-26.94 515.43,-19.75"/>
<polygon fill="midnightblue" stroke="midnightblue" points="519.47,-47.38 525.52,-56.08 526.22,-45.51 519.47,-47.38"/>
</g>
<!-- Node10&#45;&gt;Node9 -->
<g id="edge15" class="edge">
<title>Node10&#45;&gt;Node9</title>
<path fill="none" stroke="midnightblue" d="M1179,-54.15C1223.22,-43.95 1288.52,-28.88 1329.1,-19.52"/>
<polygon fill="midnightblue" stroke="midnightblue" points="1178.03,-50.78 1169.08,-56.44 1179.61,-57.61 1178.03,-50.78"/>
</g>
<!-- Node11 -->
<g id="node11" class="node">
<title>Node11</title>
<g id="a_node11"><a xlink:href="../../d1/df6/bibletime_8cpp.html" target="_top" xlink:title=" ">
<polygon fill="white" stroke="black" points="1189.5,-0.5 1189.5,-19.5 1272.5,-19.5 1272.5,-0.5 1189.5,-0.5"/>
<text text-anchor="middle" x="1231" y="-7.5" font-family="Helvetica,sans-Serif" font-size="10.00">bibletime.cpp</text>
</a>
</g>
</g>
<!-- Node10&#45;&gt;Node11 -->
<g id="edge13" class="edge">
<title>Node10&#45;&gt;Node11</title>
<path fill="none" stroke="midnightblue" d="M1156.84,-51.45C1175.11,-41.48 1199.42,-28.23 1215.13,-19.65"/>
<polygon fill="midnightblue" stroke="midnightblue" points="1155.01,-48.46 1147.91,-56.32 1158.36,-54.61 1155.01,-48.46"/>
</g>
<!-- Node12 -->
<g id="node12" class="node">
<title>Node12</title>
<g id="a_node12"><a xlink:href="../../da/dc7/bibletime__init_8cpp.html" target="_top" xlink:title=" ">
<polygon fill="white" stroke="black" points="1067,-0.5 1067,-19.5 1171,-19.5 1171,-0.5 1067,-0.5"/>
<text text-anchor="middle" x="1119" y="-7.5" font-family="Helvetica,sans-Serif" font-size="10.00">bibletime_init.cpp</text>
</a>
</g>
</g>
<!-- Node10&#45;&gt;Node12 -->
<g id="edge14" class="edge">
<title>Node10&#45;&gt;Node12</title>
<path fill="none" stroke="midnightblue" d="M1127.45,-46.1C1125.29,-37.14 1122.82,-26.86 1121.11,-19.75"/>
<polygon fill="midnightblue" stroke="midnightblue" points="1124.11,-47.18 1129.85,-56.08 1130.92,-45.54 1124.11,-47.18"/>
</g>
<!-- Node14&#45;&gt;Node4 -->
<g id="edge18" class="edge">
<title>Node14&#45;&gt;Node4</title>
<path fill="none" stroke="midnightblue" d="M685.15,-55.1C609.05,-44.91 491.65,-29.18 419.56,-19.52"/>
<polygon fill="midnightblue" stroke="midnightblue" points="684.77,-58.58 695.14,-56.44 685.7,-51.65 684.77,-58.58"/>
</g>
<!-- Node14&#45;&gt;Node13 -->
<g id="edge19" class="edge">
<title>Node14&#45;&gt;Node13</title>
<path fill="none" stroke="midnightblue" d="M737.7,-50.62C723.08,-40.76 704.17,-27.99 691.82,-19.65"/>
<polygon fill="midnightblue" stroke="midnightblue" points="735.9,-53.63 746.15,-56.32 739.82,-47.83 735.9,-53.63"/>
</g>
<!-- Node14&#45;&gt;Node15 -->
<g id="edge20" class="edge">
<title>Node14&#45;&gt;Node15</title>
<path fill="none" stroke="midnightblue" d="M780.93,-50.9C796.34,-41 816.45,-28.07 829.54,-19.65"/>
<polygon fill="midnightblue" stroke="midnightblue" points="779.02,-47.97 772.5,-56.32 782.8,-53.86 779.02,-47.97"/>
</g>
<!-- Node14&#45;&gt;Node16 -->
<g id="edge21" class="edge">
<title>Node14&#45;&gt;Node16</title>
<path fill="none" stroke="midnightblue" d="M805.07,-54.09C848.15,-43.89 911.59,-28.86 951.04,-19.52"/>
<polygon fill="midnightblue" stroke="midnightblue" points="804.05,-50.73 795.13,-56.44 805.66,-57.54 804.05,-50.73"/>
</g>
<!-- Node17&#45;&gt;Node12 -->
<g id="edge25" class="edge">
<title>Node17&#45;&gt;Node12</title>
<path fill="none" stroke="midnightblue" d="M1017.22,-52.64C1041.99,-42.5 1076.4,-28.43 1098.18,-19.52"/>
<polygon fill="midnightblue" stroke="midnightblue" points="1015.85,-49.42 1007.92,-56.44 1018.5,-55.9 1015.85,-49.42"/>
</g>
<!-- Node17&#45;&gt;Node16 -->
<g id="edge26" class="edge">
<title>Node17&#45;&gt;Node16</title>
<path fill="none" stroke="midnightblue" d="M987,-45.8C987,-36.91 987,-26.78 987,-19.75"/>
<polygon fill="midnightblue" stroke="midnightblue" points="983.5,-46.08 987,-56.08 990.5,-46.08 983.5,-46.08"/>
</g>
</g>
</svg>
