<?xml version="1.0" encoding="UTF-8" standalone="no"?>
<!DOCTYPE svg PUBLIC "-//W3C//DTD SVG 1.1//EN"
 "http://www.w3.org/Graphics/SVG/1.1/DTD/svg11.dtd">
<!-- Generated by graphviz version 2.43.0 (0)
 -->
<!-- Title: cbookdisplay.h Pages: 1 -->
<!--zoomable 252 -->
<svg id="main" version="1.1" xmlns="http://www.w3.org/2000/svg" xmlns:xlink="http://www.w3.org/1999/xlink" xml:space="preserve" onload="init(evt)">
<style type="text/css"><![CDATA[
.edge:hover path { stroke: red; }
.edge:hover polygon { stroke: red; fill: red; }
]]></style>
<script type="text/javascript"><![CDATA[
var edges = document.getElementsByTagName('g');
if (edges && edges.length) {
  for (var i=0;i<edges.length;i++) {
    if (edges[i].id.substr(0,4)=='edge') {
      edges[i].setAttribute('class','edge');
    }
  }
}
]]></script>
        <defs>
                <circle id="rim" cx="0" cy="0" r="7"/>
                <circle id="rim2" cx="0" cy="0" r="3.5"/>
                <g id="zoomPlus">
                        <use xlink:href="#rim" fill="#404040">
                                <set attributeName="fill" to="#808080" begin="zoomplus.mouseover" end="zoomplus.mouseout"/>
                        </use>
                        <path d="M-4,0h8M0,-4v8" fill="none" stroke="white" stroke-width="1.5" pointer-events="none"/>
                </g>
                <g id="zoomMin">
                        <use xlink:href="#rim" fill="#404040">
                                <set attributeName="fill" to="#808080" begin="zoomminus.mouseover" end="zoomminus.mouseout"/>
                        </use>
                        <path d="M-4,0h8" fill="none" stroke="white" stroke-width="1.5" pointer-events="none"/>
                </g>
                <g id="dirArrow">
                        <path fill="none" stroke="white" stroke-width="1.5" d="M0,-3.0v7 M-2.5,-0.5L0,-3.0L2.5,-0.5"/>
                </g>
               <g id="resetDef">
                       <use xlink:href="#rim2" fill="#404040">
                               <set attributeName="fill" to="#808080" begin="reset.mouseover" end="reset.mouseout"/>
                       </use>
               </g>
        </defs>

<script type="text/javascript">
var viewWidth = 6103;
var viewHeight = 252;
var sectionId = 'dynsection-0';
</script>
<script xlink:href="../../svgpan.js"/>
<svg id="graph" class="graph">
<g id="viewport">
<title>cbookdisplay.h</title>
<polygon fill="white" stroke="transparent" points="-4,4 -4,-248 6099,-248 6099,4 -4,4"/>
<!-- Node1 -->
<g id="node1" class="node">
<title>Node1</title>
<g id="a_node1"><a xlink:title=" ">
<polygon fill="#bfbfbf" stroke="black" points="2773.5,-224.5 2773.5,-243.5 2862.5,-243.5 2862.5,-224.5 2773.5,-224.5"/>
<text text-anchor="middle" x="2818" y="-231.5" font-family="Helvetica,sans-Serif" font-size="10.00">cbookdisplay.h</text>
</a>
</g>
</g>
<!-- Node2 -->
<g id="node2" class="node">
<title>Node2</title>
<g id="a_node2"><a xlink:href="../../d0/d60/cswordbackend_8h.html" target="_top" xlink:title=" ">
<polygon fill="white" stroke="red" points="2708.5,-168.5 2708.5,-187.5 2809.5,-187.5 2809.5,-168.5 2708.5,-168.5"/>
<text text-anchor="middle" x="2759" y="-175.5" font-family="Helvetica,sans-Serif" font-size="10.00">cswordbackend.h</text>
</a>
</g>
</g>
<!-- Node1&#45;&gt;Node2 -->
<g id="edge1" class="edge">
<title>Node1&#45;&gt;Node2</title>
<path fill="none" stroke="midnightblue" d="M2801.11,-217.54C2790.59,-207.91 2777.43,-195.87 2768.65,-187.83"/>
<polygon fill="midnightblue" stroke="midnightblue" points="2798.78,-220.15 2808.52,-224.32 2803.51,-214.99 2798.78,-220.15"/>
</g>
<!-- Node74 -->
<g id="node50" class="node">
<title>Node74</title>
<g id="a_node50"><a xlink:href="../../da/db4/cbookdisplay_8cpp.html" target="_top" xlink:title=" ">
<polygon fill="white" stroke="black" points="2828,-168.5 2828,-187.5 2928,-187.5 2928,-168.5 2828,-168.5"/>
<text text-anchor="middle" x="2878" y="-175.5" font-family="Helvetica,sans-Serif" font-size="10.00">cbookdisplay.cpp</text>
</a>
</g>
</g>
<!-- Node1&#45;&gt;Node74 -->
<g id="edge54" class="edge">
<title>Node1&#45;&gt;Node74</title>
<path fill="none" stroke="midnightblue" d="M2835.18,-217.54C2845.88,-207.91 2859.26,-195.87 2868.18,-187.83"/>
<polygon fill="midnightblue" stroke="midnightblue" points="2832.73,-215.03 2827.64,-224.32 2837.41,-220.24 2832.73,-215.03"/>
</g>
<!-- Node3 -->
<g id="node3" class="node">
<title>Node3</title>
<g id="a_node3"><a xlink:href="../../d7/dd0/btbookmarksmodel_8cpp.html" target="_top" xlink:title=" ">
<polygon fill="white" stroke="black" points="0,-112.5 0,-131.5 132,-131.5 132,-112.5 0,-112.5"/>
<text text-anchor="middle" x="66" y="-119.5" font-family="Helvetica,sans-Serif" font-size="10.00">btbookmarksmodel.cpp</text>
</a>
</g>
</g>
<!-- Node2&#45;&gt;Node3 -->
<g id="edge2" class="edge">
<title>Node2&#45;&gt;Node3</title>
<path fill="none" stroke="midnightblue" d="M2698.2,-176.8C2355.48,-175.55 661.83,-167.63 141,-132 138.12,-131.8 135.18,-131.57 132.22,-131.32"/>
<polygon fill="midnightblue" stroke="midnightblue" points="2698.4,-180.3 2708.41,-176.84 2698.43,-173.3 2698.4,-180.3"/>
</g>
<!-- Node4 -->
<g id="node4" class="node">
<title>Node4</title>
<g id="a_node4"><a xlink:href="../../db/dd7/btinstallbackend_8cpp.html" target="_top" xlink:title=" ">
<polygon fill="white" stroke="black" points="150.5,-112.5 150.5,-131.5 267.5,-131.5 267.5,-112.5 150.5,-112.5"/>
<text text-anchor="middle" x="209" y="-119.5" font-family="Helvetica,sans-Serif" font-size="10.00">btinstallbackend.cpp</text>
</a>
</g>
</g>
<!-- Node2&#45;&gt;Node4 -->
<g id="edge3" class="edge">
<title>Node2&#45;&gt;Node4</title>
<path fill="none" stroke="midnightblue" d="M2697.94,-176.83C2365.32,-175.79 768.85,-168.89 277,-132 273.91,-131.77 270.75,-131.49 267.56,-131.18"/>
<polygon fill="midnightblue" stroke="midnightblue" points="2698.31,-180.34 2708.32,-176.87 2698.33,-173.34 2698.31,-180.34"/>
</g>
<!-- Node5 -->
<g id="node5" class="node">
<title>Node5</title>
<g id="a_node5"><a xlink:href="../../d5/daf/btinstallthread_8cpp.html" target="_top" xlink:title=" ">
<polygon fill="white" stroke="black" points="286,-112.5 286,-131.5 394,-131.5 394,-112.5 286,-112.5"/>
<text text-anchor="middle" x="340" y="-119.5" font-family="Helvetica,sans-Serif" font-size="10.00">btinstallthread.cpp</text>
</a>
</g>
</g>
<!-- Node2&#45;&gt;Node5 -->
<g id="edge4" class="edge">
<title>Node2&#45;&gt;Node5</title>
<path fill="none" stroke="midnightblue" d="M2698.45,-176.85C2377.08,-175.91 868.42,-169.55 403,-132 400.14,-131.77 397.21,-131.49 394.25,-131.18"/>
<polygon fill="midnightblue" stroke="midnightblue" points="2698.48,-180.35 2708.49,-176.88 2698.5,-173.35 2698.48,-180.35"/>
</g>
<!-- Node6 -->
<g id="node6" class="node">
<title>Node6</title>
<g id="a_node6"><a xlink:href="../../de/d4e/btconfig_8cpp.html" target="_top" xlink:title=" ">
<polygon fill="white" stroke="black" points="412,-112.5 412,-131.5 488,-131.5 488,-112.5 412,-112.5"/>
<text text-anchor="middle" x="450" y="-119.5" font-family="Helvetica,sans-Serif" font-size="10.00">btconfig.cpp</text>
</a>
</g>
</g>
<!-- Node2&#45;&gt;Node6 -->
<g id="edge5" class="edge">
<title>Node2&#45;&gt;Node6</title>
<path fill="none" stroke="midnightblue" d="M2697.83,-177.18C2382.84,-177.92 941.43,-178.63 497,-132 494.11,-131.7 491.13,-131.31 488.14,-130.86"/>
<polygon fill="midnightblue" stroke="midnightblue" points="2698.13,-180.68 2708.12,-177.16 2698.11,-173.68 2698.13,-180.68"/>
</g>
<!-- Node7 -->
<g id="node7" class="node">
<title>Node7</title>
<g id="a_node7"><a xlink:href="../../dd/d03/cswordmodulesearch_8cpp.html" target="_top" xlink:title=" ">
<polygon fill="white" stroke="black" points="506,-112.5 506,-131.5 646,-131.5 646,-112.5 506,-112.5"/>
<text text-anchor="middle" x="576" y="-119.5" font-family="Helvetica,sans-Serif" font-size="10.00">cswordmodulesearch.cpp</text>
</a>
</g>
</g>
<!-- Node2&#45;&gt;Node7 -->
<g id="edge6" class="edge">
<title>Node2&#45;&gt;Node7</title>
<path fill="none" stroke="midnightblue" d="M2697.83,-176.45C2396.47,-173.64 1067.72,-159.86 655,-132 652.11,-131.8 649.16,-131.58 646.18,-131.33"/>
<polygon fill="midnightblue" stroke="midnightblue" points="2698.08,-179.96 2708.11,-176.55 2698.15,-172.96 2698.08,-179.96"/>
</g>
<!-- Node8 -->
<g id="node8" class="node">
<title>Node8</title>
<g id="a_node8"><a xlink:href="../../d4/d94/cswordbiblemoduleinfo_8cpp.html" target="_top" xlink:title=" ">
<polygon fill="white" stroke="black" points="664.5,-112.5 664.5,-131.5 815.5,-131.5 815.5,-112.5 664.5,-112.5"/>
<text text-anchor="middle" x="740" y="-119.5" font-family="Helvetica,sans-Serif" font-size="10.00">cswordbiblemoduleinfo.cpp</text>
</a>
</g>
</g>
<!-- Node2&#45;&gt;Node8 -->
<g id="edge7" class="edge">
<title>Node2&#45;&gt;Node8</title>
<path fill="none" stroke="midnightblue" d="M2698.26,-177.43C2459.35,-178.74 1561.22,-179.98 824,-132 821.22,-131.82 818.39,-131.62 815.53,-131.39"/>
<polygon fill="midnightblue" stroke="midnightblue" points="2698.5,-180.93 2708.48,-177.37 2698.46,-173.93 2698.5,-180.93"/>
</g>
<!-- Node9 -->
<g id="node9" class="node">
<title>Node9</title>
<g id="a_node9"><a xlink:href="../../d3/db9/cswordmoduleinfo_8cpp.html" target="_top" xlink:title=" ">
<polygon fill="white" stroke="black" points="833.5,-112.5 833.5,-131.5 960.5,-131.5 960.5,-112.5 833.5,-112.5"/>
<text text-anchor="middle" x="897" y="-119.5" font-family="Helvetica,sans-Serif" font-size="10.00">cswordmoduleinfo.cpp</text>
</a>
</g>
</g>
<!-- Node2&#45;&gt;Node9 -->
<g id="edge8" class="edge">
<title>Node2&#45;&gt;Node9</title>
<path fill="none" stroke="midnightblue" d="M2698.38,-176.27C2426.41,-172.88 1317.01,-157.69 970,-132 966.94,-131.77 963.82,-131.51 960.67,-131.22"/>
<polygon fill="midnightblue" stroke="midnightblue" points="2698.41,-179.77 2708.45,-176.4 2698.49,-172.77 2698.41,-179.77"/>
</g>
<!-- Node10 -->
<g id="node10" class="node">
<title>Node10</title>
<g id="a_node10"><a xlink:href="../../d4/d4d/gbftohtml_8cpp.html" target="_top" xlink:title=" ">
<polygon fill="white" stroke="black" points="979,-112.5 979,-131.5 1063,-131.5 1063,-112.5 979,-112.5"/>
<text text-anchor="middle" x="1021" y="-119.5" font-family="Helvetica,sans-Serif" font-size="10.00">gbftohtml.cpp</text>
</a>
</g>
</g>
<!-- Node2&#45;&gt;Node10 -->
<g id="edge9" class="edge">
<title>Node2&#45;&gt;Node10</title>
<path fill="none" stroke="midnightblue" d="M2698.37,-176.62C2435.88,-174.76 1396.19,-165.41 1071,-132 1068.46,-131.74 1065.85,-131.42 1063.22,-131.06"/>
<polygon fill="midnightblue" stroke="midnightblue" points="2698.44,-180.12 2708.47,-176.69 2698.49,-173.12 2698.44,-180.12"/>
</g>
<!-- Node11 -->
<g id="node11" class="node">
<title>Node11</title>
<g id="a_node11"><a xlink:href="../../db/d7a/osistohtml_8cpp.html" target="_top" xlink:title=" ">
<polygon fill="white" stroke="black" points="1080.5,-112.5 1080.5,-131.5 1169.5,-131.5 1169.5,-112.5 1080.5,-112.5"/>
<text text-anchor="middle" x="1125" y="-119.5" font-family="Helvetica,sans-Serif" font-size="10.00">osistohtml.cpp</text>
</a>
</g>
</g>
<!-- Node2&#45;&gt;Node11 -->
<g id="edge10" class="edge">
<title>Node2&#45;&gt;Node11</title>
<path fill="none" stroke="midnightblue" d="M2698.16,-176.38C2445.98,-173.64 1481.9,-161.42 1179,-132 1175.97,-131.71 1172.86,-131.34 1169.73,-130.94"/>
<polygon fill="midnightblue" stroke="midnightblue" points="2698.19,-179.88 2708.23,-176.49 2698.27,-172.88 2698.19,-179.88"/>
</g>
<!-- Node12 -->
<g id="node12" class="node">
<title>Node12</title>
<g id="a_node12"><a xlink:href="../../d5/de5/teitohtml_8cpp.html" target="_top" xlink:title=" ">
<polygon fill="white" stroke="black" points="1188,-112.5 1188,-131.5 1270,-131.5 1270,-112.5 1188,-112.5"/>
<text text-anchor="middle" x="1229" y="-119.5" font-family="Helvetica,sans-Serif" font-size="10.00">teitohtml.cpp</text>
</a>
</g>
</g>
<!-- Node2&#45;&gt;Node12 -->
<g id="edge11" class="edge">
<title>Node2&#45;&gt;Node12</title>
<path fill="none" stroke="midnightblue" d="M2698.45,-176.35C2456.83,-173.59 1561.14,-161.52 1279,-132 1276.11,-131.7 1273.13,-131.32 1270.13,-130.9"/>
<polygon fill="midnightblue" stroke="midnightblue" points="2698.41,-179.85 2708.45,-176.47 2698.49,-172.85 2698.41,-179.85"/>
</g>
<!-- Node13 -->
<g id="node13" class="node">
<title>Node13</title>
<g id="a_node13"><a xlink:href="../../d9/de8/thmltohtml_8cpp.html" target="_top" xlink:title=" ">
<polygon fill="white" stroke="black" points="1288,-112.5 1288,-131.5 1380,-131.5 1380,-112.5 1288,-112.5"/>
<text text-anchor="middle" x="1334" y="-119.5" font-family="Helvetica,sans-Serif" font-size="10.00">thmltohtml.cpp</text>
</a>
</g>
</g>
<!-- Node2&#45;&gt;Node13 -->
<g id="edge12" class="edge">
<title>Node2&#45;&gt;Node13</title>
<path fill="none" stroke="midnightblue" d="M2698.09,-176.05C2467.56,-172.28 1648.5,-157.39 1389,-132 1386.11,-131.72 1383.14,-131.38 1380.16,-131"/>
<polygon fill="midnightblue" stroke="midnightblue" points="2698.24,-179.55 2708.3,-176.21 2698.35,-172.55 2698.24,-179.55"/>
</g>
<!-- Node14 -->
<g id="node14" class="node">
<title>Node14</title>
<g id="a_node14"><a xlink:href="../../d4/d47/cdisplaytemplatemgr_8cpp.html" target="_top" xlink:title=" ">
<polygon fill="white" stroke="black" points="1398,-112.5 1398,-131.5 1538,-131.5 1538,-112.5 1398,-112.5"/>
<text text-anchor="middle" x="1468" y="-119.5" font-family="Helvetica,sans-Serif" font-size="10.00">cdisplaytemplatemgr.cpp</text>
</a>
</g>
</g>
<!-- Node2&#45;&gt;Node14 -->
<g id="edge13" class="edge">
<title>Node2&#45;&gt;Node14</title>
<path fill="none" stroke="midnightblue" d="M2698.23,-176.38C2520.74,-174.23 1987.81,-165.24 1547,-132 1544.11,-131.78 1541.16,-131.54 1538.18,-131.28"/>
<polygon fill="midnightblue" stroke="midnightblue" points="2698.37,-179.88 2708.41,-176.5 2698.45,-172.88 2698.37,-179.88"/>
</g>
<!-- Node15 -->
<g id="node15" class="node">
<title>Node15</title>
<g id="a_node15"><a xlink:href="../../d9/d7b/cswordbackend_8cpp.html" target="_top" xlink:title=" ">
<polygon fill="white" stroke="black" points="1556,-112.5 1556,-131.5 1668,-131.5 1668,-112.5 1556,-112.5"/>
<text text-anchor="middle" x="1612" y="-119.5" font-family="Helvetica,sans-Serif" font-size="10.00">cswordbackend.cpp</text>
</a>
</g>
</g>
<!-- Node2&#45;&gt;Node15 -->
<g id="edge14" class="edge">
<title>Node2&#45;&gt;Node15</title>
<path fill="none" stroke="midnightblue" d="M2698.04,-176.51C2533.18,-174.76 2064.77,-166.83 1677,-132 1674.16,-131.75 1671.26,-131.45 1668.33,-131.14"/>
<polygon fill="midnightblue" stroke="midnightblue" points="2698.42,-180.02 2708.46,-176.62 2698.5,-173.02 2698.42,-180.02"/>
</g>
<!-- Node16 -->
<g id="node16" class="node">
<title>Node16</title>
<g id="a_node16"><a xlink:href="../../d7/dfe/referencemanager_8cpp.html" target="_top" xlink:title=" ">
<polygon fill="white" stroke="black" points="1686,-112.5 1686,-131.5 1812,-131.5 1812,-112.5 1686,-112.5"/>
<text text-anchor="middle" x="1749" y="-119.5" font-family="Helvetica,sans-Serif" font-size="10.00">referencemanager.cpp</text>
</a>
</g>
</g>
<!-- Node2&#45;&gt;Node16 -->
<g id="edge15" class="edge">
<title>Node2&#45;&gt;Node16</title>
<path fill="none" stroke="midnightblue" d="M2697.98,-175.69C2548.31,-172.11 2151.13,-160.51 1821,-132 1818.11,-131.75 1815.16,-131.47 1812.19,-131.18"/>
<polygon fill="midnightblue" stroke="midnightblue" points="2698.24,-179.19 2708.32,-175.93 2698.41,-172.2 2698.24,-179.19"/>
</g>
<!-- Node17 -->
<g id="node17" class="node">
<title>Node17</title>
<g id="a_node17"><a xlink:href="../../de/d93/btmoduletextmodel_8cpp.html" target="_top" xlink:title=" ">
<polygon fill="white" stroke="black" points="1830,-112.5 1830,-131.5 1964,-131.5 1964,-112.5 1830,-112.5"/>
<text text-anchor="middle" x="1897" y="-119.5" font-family="Helvetica,sans-Serif" font-size="10.00">btmoduletextmodel.cpp</text>
</a>
</g>
</g>
<!-- Node2&#45;&gt;Node17 -->
<g id="edge16" class="edge">
<title>Node2&#45;&gt;Node17</title>
<path fill="none" stroke="midnightblue" d="M2698.03,-174.77C2565.79,-169.66 2242.78,-155.67 1973,-132 1970.09,-131.74 1967.12,-131.47 1964.11,-131.17"/>
<polygon fill="midnightblue" stroke="midnightblue" points="2698.22,-178.28 2708.35,-175.17 2698.49,-171.29 2698.22,-178.28"/>
</g>
<!-- Node18 -->
<g id="node18" class="node">
<title>Node18</title>
<g id="a_node18"><a xlink:href="../../da/d1a/btinforendering_8cpp.html" target="_top" xlink:title=" ">
<polygon fill="white" stroke="black" points="1982,-112.5 1982,-131.5 2094,-131.5 2094,-112.5 1982,-112.5"/>
<text text-anchor="middle" x="2038" y="-119.5" font-family="Helvetica,sans-Serif" font-size="10.00">btinforendering.cpp</text>
</a>
</g>
</g>
<!-- Node2&#45;&gt;Node18 -->
<g id="edge17" class="edge">
<title>Node2&#45;&gt;Node18</title>
<path fill="none" stroke="midnightblue" d="M2698.18,-174.23C2582.21,-168.65 2321.52,-154.6 2103,-132 2100.17,-131.71 2097.27,-131.39 2094.34,-131.04"/>
<polygon fill="midnightblue" stroke="midnightblue" points="2698.12,-177.74 2708.28,-174.72 2698.46,-170.74 2698.12,-177.74"/>
</g>
<!-- Node19 -->
<g id="node19" class="node">
<title>Node19</title>
<g id="a_node19"><a xlink:href="../../db/d72/ctextrendering_8cpp.html" target="_top" xlink:title=" ">
<polygon fill="white" stroke="black" points="2112,-112.5 2112,-131.5 2220,-131.5 2220,-112.5 2112,-112.5"/>
<text text-anchor="middle" x="2166" y="-119.5" font-family="Helvetica,sans-Serif" font-size="10.00">ctextrendering.cpp</text>
</a>
</g>
</g>
<!-- Node2&#45;&gt;Node19 -->
<g id="edge18" class="edge">
<title>Node2&#45;&gt;Node19</title>
<path fill="none" stroke="midnightblue" d="M2698.24,-172.71C2600.36,-165.58 2401.76,-150.28 2234,-132 2229.5,-131.51 2224.84,-130.97 2220.16,-130.4"/>
<polygon fill="midnightblue" stroke="midnightblue" points="2698.02,-176.2 2708.24,-173.43 2698.52,-169.22 2698.02,-176.2"/>
</g>
<!-- Node20 -->
<g id="node20" class="node">
<title>Node20</title>
<g id="a_node20"><a xlink:href="../../d5/d2b/cdisplaywindow_8h.html" target="_top" xlink:title=" ">
<polygon fill="white" stroke="red" points="2276.5,-112.5 2276.5,-131.5 2379.5,-131.5 2379.5,-112.5 2276.5,-112.5"/>
<text text-anchor="middle" x="2328" y="-119.5" font-family="Helvetica,sans-Serif" font-size="10.00">cdisplaywindow.h</text>
</a>
</g>
</g>
<!-- Node2&#45;&gt;Node20 -->
<g id="edge19" class="edge">
<title>Node2&#45;&gt;Node20</title>
<path fill="none" stroke="midnightblue" d="M2698.19,-169.74C2625.71,-161.04 2500.97,-145.89 2394,-132 2389.3,-131.39 2384.41,-130.74 2379.51,-130.09"/>
<polygon fill="midnightblue" stroke="midnightblue" points="2698.15,-173.27 2708.49,-170.98 2698.98,-166.31 2698.15,-173.27"/>
</g>
<!-- Node29 -->
<g id="node21" class="node">
<title>Node29</title>
<g id="a_node21"><a xlink:href="../../d5/d06/clexiconreadwindow_8h.html" target="_top" xlink:title=" ">
<polygon fill="white" stroke="red" points="2168.5,-56.5 2168.5,-75.5 2293.5,-75.5 2293.5,-56.5 2168.5,-56.5"/>
<text text-anchor="middle" x="2231" y="-63.5" font-family="Helvetica,sans-Serif" font-size="10.00">clexiconreadwindow.h</text>
</a>
</g>
</g>
<!-- Node2&#45;&gt;Node29 -->
<g id="edge23" class="edge">
<title>Node2&#45;&gt;Node29</title>
<path fill="none" stroke="midnightblue" d="M2698.21,-174.61C2574.56,-169.28 2302.37,-155.08 2267,-132 2246.69,-118.75 2236.79,-89.9 2232.97,-75.52"/>
<polygon fill="midnightblue" stroke="midnightblue" points="2698.14,-178.11 2708.28,-175.03 2698.44,-171.11 2698.14,-178.11"/>
</g>
<!-- Node30 -->
<g id="node22" class="node">
<title>Node30</title>
<g id="a_node22"><a xlink:href="../../d8/d19/clexiconreadwindow_8cpp.html" target="_top" xlink:title=" ">
<polygon fill="white" stroke="black" points="2270,-0.5 2270,-19.5 2406,-19.5 2406,-0.5 2270,-0.5"/>
<text text-anchor="middle" x="2338" y="-7.5" font-family="Helvetica,sans-Serif" font-size="10.00">clexiconreadwindow.cpp</text>
</a>
</g>
</g>
<!-- Node2&#45;&gt;Node30 -->
<g id="edge45" class="edge">
<title>Node2&#45;&gt;Node30</title>
<path fill="none" stroke="midnightblue" d="M2698.16,-174.2C2623.16,-169.65 2501.18,-158.35 2465,-132 2434.47,-109.77 2453.64,-82.76 2427,-56 2409.78,-38.7 2384.53,-26.8 2365.32,-19.61"/>
<polygon fill="midnightblue" stroke="midnightblue" points="2698.23,-177.71 2708.42,-174.79 2698.64,-170.72 2698.23,-177.71"/>
</g>
<!-- Node35 -->
<g id="node23" class="node">
<title>Node35</title>
<g id="a_node23"><a xlink:href="../../d9/d0c/btquickwidget_8cpp.html" target="_top" xlink:title=" ">
<polygon fill="white" stroke="black" points="2312,-56.5 2312,-75.5 2418,-75.5 2418,-56.5 2312,-56.5"/>
<text text-anchor="middle" x="2365" y="-63.5" font-family="Helvetica,sans-Serif" font-size="10.00">btquickwidget.cpp</text>
</a>
</g>
</g>
<!-- Node2&#45;&gt;Node35 -->
<g id="edge41" class="edge">
<title>Node2&#45;&gt;Node35</title>
<path fill="none" stroke="midnightblue" d="M2698.39,-173.18C2617.1,-167.29 2477.7,-154.27 2432,-132 2404.9,-118.79 2381.81,-90.46 2371.21,-75.96"/>
<polygon fill="midnightblue" stroke="midnightblue" points="2698.27,-176.68 2708.49,-173.89 2698.76,-169.7 2698.27,-176.68"/>
</g>
<!-- Node39 -->
<g id="node24" class="node">
<title>Node39</title>
<g id="a_node24"><a xlink:href="../../d9/d67/csearchdialog_8h.html" target="_top" xlink:title=" ">
<polygon fill="white" stroke="red" points="2474.5,-112.5 2474.5,-131.5 2567.5,-131.5 2567.5,-112.5 2474.5,-112.5"/>
<text text-anchor="middle" x="2521" y="-119.5" font-family="Helvetica,sans-Serif" font-size="10.00">csearchdialog.h</text>
</a>
</g>
</g>
<!-- Node2&#45;&gt;Node39 -->
<g id="edge24" class="edge">
<title>Node2&#45;&gt;Node39</title>
<path fill="none" stroke="midnightblue" d="M2711.48,-166.22C2666.5,-156.01 2599.9,-140.9 2558.54,-131.52"/>
<polygon fill="midnightblue" stroke="midnightblue" points="2710.76,-169.64 2721.29,-168.44 2712.31,-162.82 2710.76,-169.64"/>
</g>
<!-- Node42 -->
<g id="node25" class="node">
<title>Node42</title>
<g id="a_node25"><a xlink:href="../../da/dc7/bibletime__init_8cpp.html" target="_top" xlink:title=" ">
<polygon fill="white" stroke="black" points="2586,-112.5 2586,-131.5 2690,-131.5 2690,-112.5 2586,-112.5"/>
<text text-anchor="middle" x="2638" y="-119.5" font-family="Helvetica,sans-Serif" font-size="10.00">bibletime_init.cpp</text>
</a>
</g>
</g>
<!-- Node2&#45;&gt;Node42 -->
<g id="edge25" class="edge">
<title>Node2&#45;&gt;Node42</title>
<path fill="none" stroke="midnightblue" d="M2730.69,-164.37C2708.03,-154.26 2676.87,-140.35 2657.08,-131.52"/>
<polygon fill="midnightblue" stroke="midnightblue" points="2729.27,-167.56 2739.83,-168.44 2732.12,-161.17 2729.27,-167.56"/>
</g>
<!-- Node43 -->
<g id="node26" class="node">
<title>Node43</title>
<g id="a_node26"><a xlink:href="../../d5/d86/bibletimeapp_8cpp.html" target="_top" xlink:title=" ">
<polygon fill="white" stroke="black" points="2708.5,-112.5 2708.5,-131.5 2809.5,-131.5 2809.5,-112.5 2708.5,-112.5"/>
<text text-anchor="middle" x="2759" y="-119.5" font-family="Helvetica,sans-Serif" font-size="10.00">bibletimeapp.cpp</text>
</a>
</g>
</g>
<!-- Node2&#45;&gt;Node43 -->
<g id="edge26" class="edge">
<title>Node2&#45;&gt;Node43</title>
<path fill="none" stroke="midnightblue" d="M2759,-157.8C2759,-148.91 2759,-138.78 2759,-131.75"/>
<polygon fill="midnightblue" stroke="midnightblue" points="2755.5,-158.08 2759,-168.08 2762.5,-158.08 2755.5,-158.08"/>
</g>
<!-- Node44 -->
<g id="node27" class="node">
<title>Node44</title>
<g id="a_node27"><a xlink:href="../../dd/dcb/btprinter_8h.html" target="_top" xlink:title=" ">
<polygon fill="white" stroke="red" points="2827.5,-112.5 2827.5,-131.5 2894.5,-131.5 2894.5,-112.5 2827.5,-112.5"/>
<text text-anchor="middle" x="2861" y="-119.5" font-family="Helvetica,sans-Serif" font-size="10.00">btprinter.h</text>
</a>
</g>
</g>
<!-- Node2&#45;&gt;Node44 -->
<g id="edge27" class="edge">
<title>Node2&#45;&gt;Node44</title>
<path fill="none" stroke="midnightblue" d="M2784.33,-163.59C2803.19,-153.61 2828.38,-140.27 2844.65,-131.65"/>
<polygon fill="midnightblue" stroke="midnightblue" points="2782.59,-160.55 2775.39,-168.32 2785.86,-166.74 2782.59,-160.55"/>
</g>
<!-- Node47 -->
<g id="node28" class="node">
<title>Node47</title>
<g id="a_node28"><a xlink:href="../../dc/d04/btbookshelfinstallfinalpage_8cpp.html" target="_top" xlink:title=" ">
<polygon fill="white" stroke="black" points="2912.5,-112.5 2912.5,-131.5 3081.5,-131.5 3081.5,-112.5 2912.5,-112.5"/>
<text text-anchor="middle" x="2997" y="-119.5" font-family="Helvetica,sans-Serif" font-size="10.00">btbookshelfinstallfinalpage.cpp</text>
</a>
</g>
</g>
<!-- Node2&#45;&gt;Node47 -->
<g id="edge28" class="edge">
<title>Node2&#45;&gt;Node47</title>
<path fill="none" stroke="midnightblue" d="M2806.52,-166.22C2851.5,-156.01 2918.1,-140.9 2959.46,-131.52"/>
<polygon fill="midnightblue" stroke="midnightblue" points="2805.69,-162.82 2796.71,-168.44 2807.24,-169.64 2805.69,-162.82"/>
</g>
<!-- Node48 -->
<g id="node29" class="node">
<title>Node48</title>
<g id="a_node29"><a xlink:href="../../d0/da5/btbookshelflanguagespage_8cpp.html" target="_top" xlink:title=" ">
<polygon fill="white" stroke="black" points="3099,-112.5 3099,-131.5 3267,-131.5 3267,-112.5 3099,-112.5"/>
<text text-anchor="middle" x="3183" y="-119.5" font-family="Helvetica,sans-Serif" font-size="10.00">btbookshelflanguagespage.cpp</text>
</a>
</g>
</g>
<!-- Node2&#45;&gt;Node48 -->
<g id="edge29" class="edge">
<title>Node2&#45;&gt;Node48</title>
<path fill="none" stroke="midnightblue" d="M2819.71,-167.93C2926.47,-153.41 3038.02,-139.94 3109.38,-131.54"/>
<polygon fill="midnightblue" stroke="midnightblue" points="2819.16,-164.48 2809.73,-169.3 2820.11,-171.41 2819.16,-164.48"/>
</g>
<!-- Node49 -->
<g id="node30" class="node">
<title>Node49</title>
<g id="a_node30"><a xlink:href="../../d0/da0/btbookshelfremovefinalpage_8cpp.html" target="_top" xlink:title=" ">
<polygon fill="white" stroke="black" points="3284.5,-112.5 3284.5,-131.5 3461.5,-131.5 3461.5,-112.5 3284.5,-112.5"/>
<text text-anchor="middle" x="3373" y="-119.5" font-family="Helvetica,sans-Serif" font-size="10.00">btbookshelfremovefinalpage.cpp</text>
</a>
</g>
</g>
<!-- Node2&#45;&gt;Node49 -->
<g id="edge30" class="edge">
<title>Node2&#45;&gt;Node49</title>
<path fill="none" stroke="midnightblue" d="M2819.82,-167.99C3023.13,-145.01 3076.28,-149.13 3276,-132 3278.78,-131.76 3281.61,-131.52 3284.46,-131.27"/>
<polygon fill="midnightblue" stroke="midnightblue" points="2819.25,-164.53 2809.71,-169.14 2820.04,-171.48 2819.25,-164.53"/>
</g>
<!-- Node50 -->
<g id="node31" class="node">
<title>Node50</title>
<g id="a_node31"><a xlink:href="../../de/db2/btbookshelftaskpage_8cpp.html" target="_top" xlink:title=" ">
<polygon fill="white" stroke="black" points="3479.5,-112.5 3479.5,-131.5 3618.5,-131.5 3618.5,-112.5 3479.5,-112.5"/>
<text text-anchor="middle" x="3549" y="-119.5" font-family="Helvetica,sans-Serif" font-size="10.00">btbookshelftaskpage.cpp</text>
</a>
</g>
</g>
<!-- Node2&#45;&gt;Node50 -->
<g id="edge31" class="edge">
<title>Node2&#45;&gt;Node50</title>
<path fill="none" stroke="midnightblue" d="M2820.07,-168C3109.03,-138.89 3184.64,-156.12 3470,-132 3473.03,-131.74 3476.12,-131.47 3479.24,-131.17"/>
<polygon fill="midnightblue" stroke="midnightblue" points="2819.29,-164.56 2809.7,-169.05 2820,-171.52 2819.29,-164.56"/>
</g>
<!-- Node51 -->
<g id="node32" class="node">
<title>Node51</title>
<g id="a_node32"><a xlink:href="../../d6/d8d/btbookshelfworkspage_8h.html" target="_top" xlink:title=" ">
<polygon fill="white" stroke="red" points="3637,-112.5 3637,-131.5 3773,-131.5 3773,-112.5 3637,-112.5"/>
<text text-anchor="middle" x="3705" y="-119.5" font-family="Helvetica,sans-Serif" font-size="10.00">btbookshelfworkspage.h</text>
</a>
</g>
</g>
<!-- Node2&#45;&gt;Node51 -->
<g id="edge32" class="edge">
<title>Node2&#45;&gt;Node51</title>
<path fill="none" stroke="midnightblue" d="M2819.84,-168.04C3178.52,-133.79 3272,-160.35 3627,-132 3630.26,-131.74 3633.6,-131.45 3636.96,-131.14"/>
<polygon fill="midnightblue" stroke="midnightblue" points="2819.31,-164.57 2809.69,-169.02 2819.98,-171.54 2819.31,-164.57"/>
</g>
<!-- Node53 -->
<g id="node33" class="node">
<title>Node53</title>
<g id="a_node33"><a xlink:href="../../d9/d03/btbookshelfworkspage_8cpp.html" target="_top" xlink:title=" ">
<polygon fill="white" stroke="black" points="3679.5,-56.5 3679.5,-75.5 3826.5,-75.5 3826.5,-56.5 3679.5,-56.5"/>
<text text-anchor="middle" x="3753" y="-63.5" font-family="Helvetica,sans-Serif" font-size="10.00">btbookshelfworkspage.cpp</text>
</a>
</g>
</g>
<!-- Node2&#45;&gt;Node53 -->
<g id="edge34" class="edge">
<title>Node2&#45;&gt;Node53</title>
<path fill="none" stroke="midnightblue" d="M2819.92,-168.38C2935.91,-163.52 3746.24,-169.13 3782,-132 3797.77,-115.63 3775.89,-89.21 3762.33,-75.65"/>
<polygon fill="midnightblue" stroke="midnightblue" points="2819.46,-164.9 2809.69,-168.99 2819.88,-171.89 2819.46,-164.9"/>
</g>
<!-- Node54 -->
<g id="node34" class="node">
<title>Node54</title>
<g id="a_node34"><a xlink:href="../../dd/dba/btinstallpagemodel_8cpp.html" target="_top" xlink:title=" ">
<polygon fill="white" stroke="black" points="3829.5,-112.5 3829.5,-131.5 3960.5,-131.5 3960.5,-112.5 3829.5,-112.5"/>
<text text-anchor="middle" x="3895" y="-119.5" font-family="Helvetica,sans-Serif" font-size="10.00">btinstallpagemodel.cpp</text>
</a>
</g>
</g>
<!-- Node2&#45;&gt;Node54 -->
<g id="edge35" class="edge">
<title>Node2&#45;&gt;Node54</title>
<path fill="none" stroke="midnightblue" d="M2819.86,-168.05C3261.79,-127.65 3376.6,-164.54 3815,-132 3819.6,-131.66 3824.34,-131.26 3829.12,-130.81"/>
<polygon fill="midnightblue" stroke="midnightblue" points="2819.33,-164.58 2809.69,-168.99 2819.97,-171.55 2819.33,-164.58"/>
</g>
<!-- Node55 -->
<g id="node35" class="node">
<title>Node55</title>
<g id="a_node35"><a xlink:href="../../df/d88/btbookshelfdockwidget_8cpp.html" target="_top" xlink:title=" ">
<polygon fill="white" stroke="black" points="3978.5,-112.5 3978.5,-131.5 4129.5,-131.5 4129.5,-112.5 3978.5,-112.5"/>
<text text-anchor="middle" x="4054" y="-119.5" font-family="Helvetica,sans-Serif" font-size="10.00">btbookshelfdockwidget.cpp</text>
</a>
</g>
</g>
<!-- Node2&#45;&gt;Node55 -->
<g id="edge36" class="edge">
<title>Node2&#45;&gt;Node55</title>
<path fill="none" stroke="midnightblue" d="M2819.89,-168.05C3330.03,-122.58 3462.2,-166.72 3969,-132 3972.11,-131.79 3975.28,-131.55 3978.48,-131.29"/>
<polygon fill="midnightblue" stroke="midnightblue" points="2819.34,-164.59 2809.69,-168.97 2819.96,-171.56 2819.34,-164.59"/>
</g>
<!-- Node56 -->
<g id="node36" class="node">
<title>Node56</title>
<g id="a_node36"><a xlink:href="../../dc/dc2/btmoduleindexdialog_8cpp.html" target="_top" xlink:title=" ">
<polygon fill="white" stroke="black" points="4148,-112.5 4148,-131.5 4288,-131.5 4288,-112.5 4148,-112.5"/>
<text text-anchor="middle" x="4218" y="-119.5" font-family="Helvetica,sans-Serif" font-size="10.00">btmoduleindexdialog.cpp</text>
</a>
</g>
</g>
<!-- Node2&#45;&gt;Node56 -->
<g id="edge37" class="edge">
<title>Node2&#45;&gt;Node56</title>
<path fill="none" stroke="midnightblue" d="M2820.07,-168.04C3404.94,-117.07 3556.41,-172.58 4138,-132 4141.21,-131.78 4144.48,-131.52 4147.79,-131.24"/>
<polygon fill="midnightblue" stroke="midnightblue" points="2819.34,-164.59 2809.69,-168.95 2819.96,-171.57 2819.34,-164.59"/>
</g>
<!-- Node57 -->
<g id="node37" class="node">
<title>Node57</title>
<g id="a_node37"><a xlink:href="../../d9/d62/btopenworkaction_8cpp.html" target="_top" xlink:title=" ">
<polygon fill="white" stroke="black" points="4306,-112.5 4306,-131.5 4430,-131.5 4430,-112.5 4306,-112.5"/>
<text text-anchor="middle" x="4368" y="-119.5" font-family="Helvetica,sans-Serif" font-size="10.00">btopenworkaction.cpp</text>
</a>
</g>
</g>
<!-- Node2&#45;&gt;Node57 -->
<g id="edge38" class="edge">
<title>Node2&#45;&gt;Node57</title>
<path fill="none" stroke="midnightblue" d="M2819.86,-168.06C3475.36,-111.87 3645.13,-181.13 4297,-132 4299.85,-131.79 4302.76,-131.54 4305.7,-131.26"/>
<polygon fill="midnightblue" stroke="midnightblue" points="2819.35,-164.6 2809.69,-168.94 2819.95,-171.57 2819.35,-164.6"/>
</g>
<!-- Node58 -->
<g id="node38" class="node">
<title>Node58</title>
<g id="a_node38"><a xlink:href="../../d4/d3a/bttextbrowser_8cpp.html" target="_top" xlink:title=" ">
<polygon fill="white" stroke="black" points="4448,-112.5 4448,-131.5 4552,-131.5 4552,-112.5 4448,-112.5"/>
<text text-anchor="middle" x="4500" y="-119.5" font-family="Helvetica,sans-Serif" font-size="10.00">bttextbrowser.cpp</text>
</a>
</g>
</g>
<!-- Node2&#45;&gt;Node58 -->
<g id="edge39" class="edge">
<title>Node2&#45;&gt;Node58</title>
<path fill="none" stroke="midnightblue" d="M2819.77,-168.08C3538.27,-107.26 3724.71,-192.39 4439,-132 4441.88,-131.76 4444.83,-131.46 4447.81,-131.14"/>
<polygon fill="midnightblue" stroke="midnightblue" points="2819.35,-164.6 2809.69,-168.94 2819.95,-171.57 2819.35,-164.6"/>
</g>
<!-- Node59 -->
<g id="node39" class="node">
<title>Node59</title>
<g id="a_node39"><a xlink:href="../../de/d6e/btqmlinterface_8cpp.html" target="_top" xlink:title=" ">
<polygon fill="white" stroke="black" points="4570.5,-112.5 4570.5,-131.5 4679.5,-131.5 4679.5,-112.5 4570.5,-112.5"/>
<text text-anchor="middle" x="4625" y="-119.5" font-family="Helvetica,sans-Serif" font-size="10.00">btqmlinterface.cpp</text>
</a>
</g>
</g>
<!-- Node2&#45;&gt;Node59 -->
<g id="edge40" class="edge">
<title>Node2&#45;&gt;Node59</title>
<path fill="none" stroke="midnightblue" d="M2819.66,-168.09C3592.31,-103.21 3792.4,-193.76 4561,-132 4564.02,-131.76 4567.11,-131.47 4570.23,-131.14"/>
<polygon fill="midnightblue" stroke="midnightblue" points="2819.35,-164.6 2809.69,-168.93 2819.94,-171.58 2819.35,-164.6"/>
</g>
<!-- Node60 -->
<g id="node40" class="node">
<title>Node60</title>
<g id="a_node40"><a xlink:href="../../d7/df1/btmodulechooserbutton_8cpp.html" target="_top" xlink:title=" ">
<polygon fill="white" stroke="black" points="4697.5,-112.5 4697.5,-131.5 4850.5,-131.5 4850.5,-112.5 4697.5,-112.5"/>
<text text-anchor="middle" x="4774" y="-119.5" font-family="Helvetica,sans-Serif" font-size="10.00">btmodulechooserbutton.cpp</text>
</a>
</g>
</g>
<!-- Node2&#45;&gt;Node60 -->
<g id="edge42" class="edge">
<title>Node2&#45;&gt;Node60</title>
<path fill="none" stroke="midnightblue" d="M2819.77,-168.08C3648.6,-98.91 3862.1,-183.08 4688,-132 4691,-131.81 4694.05,-131.6 4697.13,-131.37"/>
<polygon fill="midnightblue" stroke="midnightblue" points="2819.36,-164.6 2809.68,-168.93 2819.94,-171.58 2819.36,-164.6"/>
</g>
<!-- Node61 -->
<g id="node41" class="node">
<title>Node61</title>
<g id="a_node41"><a xlink:href="../../dd/ddc/btmodulechoosermenu_8cpp.html" target="_top" xlink:title=" ">
<polygon fill="white" stroke="black" points="4868.5,-112.5 4868.5,-131.5 5017.5,-131.5 5017.5,-112.5 4868.5,-112.5"/>
<text text-anchor="middle" x="4943" y="-119.5" font-family="Helvetica,sans-Serif" font-size="10.00">btmodulechoosermenu.cpp</text>
</a>
</g>
</g>
<!-- Node2&#45;&gt;Node61 -->
<g id="edge43" class="edge">
<title>Node2&#45;&gt;Node61</title>
<path fill="none" stroke="midnightblue" d="M2819.69,-168.09C3724.37,-93.28 3957.26,-188.15 4859,-132 4862.07,-131.81 4865.21,-131.59 4868.37,-131.34"/>
<polygon fill="midnightblue" stroke="midnightblue" points="2819.36,-164.6 2809.68,-168.92 2819.94,-171.58 2819.36,-164.6"/>
</g>
<!-- Node62 -->
<g id="node42" class="node">
<title>Node62</title>
<g id="a_node42"><a xlink:href="../../dc/da2/bttextwindowheaderwidget_8cpp.html" target="_top" xlink:title=" ">
<polygon fill="white" stroke="black" points="5036,-112.5 5036,-131.5 5206,-131.5 5206,-112.5 5036,-112.5"/>
<text text-anchor="middle" x="5121" y="-119.5" font-family="Helvetica,sans-Serif" font-size="10.00">bttextwindowheaderwidget.cpp</text>
</a>
</g>
</g>
<!-- Node2&#45;&gt;Node62 -->
<g id="edge44" class="edge">
<title>Node2&#45;&gt;Node62</title>
<path fill="none" stroke="midnightblue" d="M2819.78,-168.08C3798.39,-87.74 4049.83,-186.12 5026,-132 5029.23,-131.82 5032.51,-131.62 5035.83,-131.39"/>
<polygon fill="midnightblue" stroke="midnightblue" points="2819.36,-164.6 2809.68,-168.91 2819.94,-171.58 2819.36,-164.6"/>
</g>
<!-- Node63 -->
<g id="node43" class="node">
<title>Node63</title>
<g id="a_node43"><a xlink:href="../../df/d0a/main_8cpp.html" target="_top" xlink:title=" ">
<polygon fill="white" stroke="black" points="5224,-112.5 5224,-131.5 5286,-131.5 5286,-112.5 5224,-112.5"/>
<text text-anchor="middle" x="5255" y="-119.5" font-family="Helvetica,sans-Serif" font-size="10.00">main.cpp</text>
</a>
</g>
</g>
<!-- Node2&#45;&gt;Node63 -->
<g id="edge46" class="edge">
<title>Node2&#45;&gt;Node63</title>
<path fill="none" stroke="midnightblue" d="M2819.66,-168.11C3366,-125.26 4689.44,-194.4 5215,-132 5217.83,-131.66 5220.75,-131.21 5223.66,-130.69"/>
<polygon fill="midnightblue" stroke="midnightblue" points="2819.37,-164.62 2809.68,-168.91 2819.93,-171.6 2819.37,-164.62"/>
</g>
<!-- Node64 -->
<g id="node44" class="node">
<title>Node64</title>
<g id="a_node44"><a xlink:href="../../d4/d57/btindexdialog_8cpp.html" target="_top" xlink:title=" ">
<polygon fill="white" stroke="black" points="5304,-112.5 5304,-131.5 5408,-131.5 5408,-112.5 5304,-112.5"/>
<text text-anchor="middle" x="5356" y="-119.5" font-family="Helvetica,sans-Serif" font-size="10.00">btindexdialog.cpp</text>
</a>
</g>
</g>
<!-- Node2&#45;&gt;Node64 -->
<g id="edge47" class="edge">
<title>Node2&#45;&gt;Node64</title>
<path fill="none" stroke="midnightblue" d="M2819.79,-168.08C3917.62,-79.04 4201.35,-220.24 5295,-132 5297.88,-131.77 5300.83,-131.48 5303.81,-131.16"/>
<polygon fill="midnightblue" stroke="midnightblue" points="2819.37,-164.61 2809.68,-168.91 2819.93,-171.58 2819.37,-164.61"/>
</g>
<!-- Node65 -->
<g id="node45" class="node">
<title>Node65</title>
<g id="a_node45"><a xlink:href="../../dc/dab/btsearchmodulechooserdialog_8cpp.html" target="_top" xlink:title=" ">
<polygon fill="white" stroke="black" points="5426,-112.5 5426,-131.5 5610,-131.5 5610,-112.5 5426,-112.5"/>
<text text-anchor="middle" x="5518" y="-119.5" font-family="Helvetica,sans-Serif" font-size="10.00">btsearchmodulechooserdialog.cpp</text>
</a>
</g>
</g>
<!-- Node2&#45;&gt;Node65 -->
<g id="edge48" class="edge">
<title>Node2&#45;&gt;Node65</title>
<path fill="none" stroke="midnightblue" d="M2820.05,-168.07C3411.39,-121.54 4843.75,-161.47 5417,-132 5419.9,-131.85 5422.85,-131.68 5425.82,-131.5"/>
<polygon fill="midnightblue" stroke="midnightblue" points="2819.37,-164.62 2809.68,-168.91 2819.93,-171.59 2819.37,-164.62"/>
</g>
<!-- Node66 -->
<g id="node46" class="node">
<title>Node66</title>
<g id="a_node46"><a xlink:href="../../d4/d4d/btsearchoptionsarea_8cpp.html" target="_top" xlink:title=" ">
<polygon fill="white" stroke="black" points="5628.5,-112.5 5628.5,-131.5 5765.5,-131.5 5765.5,-112.5 5628.5,-112.5"/>
<text text-anchor="middle" x="5697" y="-119.5" font-family="Helvetica,sans-Serif" font-size="10.00">btsearchoptionsarea.cpp</text>
</a>
</g>
</g>
<!-- Node2&#45;&gt;Node66 -->
<g id="edge49" class="edge">
<title>Node2&#45;&gt;Node66</title>
<path fill="none" stroke="midnightblue" d="M2819.91,-168.09C3455.96,-118.31 5001.33,-171.5 5619,-132 5621.99,-131.81 5625.05,-131.58 5628.13,-131.33"/>
<polygon fill="midnightblue" stroke="midnightblue" points="2819.37,-164.62 2809.68,-168.9 2819.93,-171.6 2819.37,-164.62"/>
</g>
<!-- Node67 -->
<g id="node47" class="node">
<title>Node67</title>
<g id="a_node47"><a xlink:href="../../dd/d21/btsearchresultarea_8h.html" target="_top" xlink:title=" ">
<polygon fill="white" stroke="red" points="5783.5,-112.5 5783.5,-131.5 5900.5,-131.5 5900.5,-112.5 5783.5,-112.5"/>
<text text-anchor="middle" x="5842" y="-119.5" font-family="Helvetica,sans-Serif" font-size="10.00">btsearchresultarea.h</text>
</a>
</g>
</g>
<!-- Node2&#45;&gt;Node67 -->
<g id="edge50" class="edge">
<title>Node2&#45;&gt;Node67</title>
<path fill="none" stroke="midnightblue" d="M2819.97,-168.08C3490.43,-115.82 5122.34,-178.93 5774,-132 5777.09,-131.78 5780.25,-131.51 5783.44,-131.2"/>
<polygon fill="midnightblue" stroke="midnightblue" points="2819.37,-164.62 2809.68,-168.9 2819.93,-171.6 2819.37,-164.62"/>
</g>
<!-- Node69 -->
<g id="node48" class="node">
<title>Node69</title>
<g id="a_node48"><a xlink:href="../../d7/d5d/cmoduleresultview_8cpp.html" target="_top" xlink:title=" ">
<polygon fill="white" stroke="black" points="5820.5,-56.5 5820.5,-75.5 5949.5,-75.5 5949.5,-56.5 5820.5,-56.5"/>
<text text-anchor="middle" x="5885" y="-63.5" font-family="Helvetica,sans-Serif" font-size="10.00">cmoduleresultview.cpp</text>
</a>
</g>
</g>
<!-- Node2&#45;&gt;Node69 -->
<g id="edge52" class="edge">
<title>Node2&#45;&gt;Node69</title>
<path fill="none" stroke="midnightblue" d="M2819.88,-168.56C3018.87,-164.43 5880.61,-161.73 5910,-132 5925.64,-116.18 5905.88,-89.52 5893.53,-75.78"/>
<polygon fill="midnightblue" stroke="midnightblue" points="2819.56,-165.07 2809.68,-168.9 2819.79,-172.06 2819.56,-165.07"/>
</g>
<!-- Node70 -->
<g id="node49" class="node">
<title>Node70</title>
<g id="a_node49"><a xlink:href="../../d2/d9d/crangechooserdialog_8cpp.html" target="_top" xlink:title=" ">
<polygon fill="white" stroke="black" points="5957,-112.5 5957,-131.5 6095,-131.5 6095,-112.5 5957,-112.5"/>
<text text-anchor="middle" x="6026" y="-119.5" font-family="Helvetica,sans-Serif" font-size="10.00">crangechooserdialog.cpp</text>
</a>
</g>
</g>
<!-- Node2&#45;&gt;Node70 -->
<g id="edge53" class="edge">
<title>Node2&#45;&gt;Node70</title>
<path fill="none" stroke="midnightblue" d="M2819.77,-168.1C3527.57,-112.95 5253.27,-173.27 5943,-132 5947.49,-131.73 5952.1,-131.4 5956.75,-131.01"/>
<polygon fill="midnightblue" stroke="midnightblue" points="2819.37,-164.62 2809.68,-168.9 2819.93,-171.6 2819.37,-164.62"/>
</g>
<!-- Node20&#45;&gt;Node29 -->
<g id="edge20" class="edge">
<title>Node20&#45;&gt;Node29</title>
<path fill="none" stroke="midnightblue" d="M2303.66,-107.45C2285.76,-97.48 2261.95,-84.23 2246.55,-75.65"/>
<polygon fill="midnightblue" stroke="midnightblue" points="2301.98,-110.52 2312.42,-112.32 2305.38,-104.4 2301.98,-110.52"/>
</g>
<!-- Node20&#45;&gt;Node35 -->
<g id="edge22" class="edge">
<title>Node20&#45;&gt;Node35</title>
<path fill="none" stroke="midnightblue" d="M2339.95,-103.57C2346.31,-94.27 2353.87,-83.25 2359,-75.75"/>
<polygon fill="midnightblue" stroke="midnightblue" points="2336.87,-101.86 2334.11,-112.08 2342.65,-105.81 2336.87,-101.86"/>
</g>
<!-- Node29&#45;&gt;Node30 -->
<g id="edge21" class="edge">
<title>Node29&#45;&gt;Node30</title>
<path fill="none" stroke="midnightblue" d="M2257.3,-51.73C2277.11,-41.73 2303.71,-28.31 2320.85,-19.65"/>
<polygon fill="midnightblue" stroke="midnightblue" points="2255.54,-48.69 2248.19,-56.32 2258.7,-54.94 2255.54,-48.69"/>
</g>
<!-- Node51&#45;&gt;Node53 -->
<g id="edge33" class="edge">
<title>Node51&#45;&gt;Node53</title>
<path fill="none" stroke="midnightblue" d="M3719.73,-104.43C3728.14,-94.97 3738.35,-83.48 3745.22,-75.75"/>
<polygon fill="midnightblue" stroke="midnightblue" points="3716.95,-102.28 3712.93,-112.08 3722.19,-106.93 3716.95,-102.28"/>
</g>
<!-- Node67&#45;&gt;Node69 -->
<g id="edge51" class="edge">
<title>Node67&#45;&gt;Node69</title>
<path fill="none" stroke="midnightblue" d="M5855.42,-104.14C5862.91,-94.74 5871.94,-83.4 5878.03,-75.75"/>
<polygon fill="midnightblue" stroke="midnightblue" points="5852.59,-102.08 5849.1,-112.08 5858.07,-106.44 5852.59,-102.08"/>
</g>
</g>
</svg>
        <g id="navigator" transform="translate(0 0)" fill="#404254">
                <rect fill="#f2f5e9" fill-opacity="0.5" stroke="#606060" stroke-width=".5" x="0" y="0" width="60" height="60"/>
                <use id="zoomplus" xlink:href="#zoomPlus" x="17" y="9" onmousedown="handleZoom(evt,'in')"/>
                <use id="zoomminus" xlink:href="#zoomMin" x="42" y="9" onmousedown="handleZoom(evt,'out')"/>
                <use id="reset" xlink:href="#resetDef" x="30" y="36" onmousedown="handleReset()"/>
                <g id="arrowUp" xlink:href="#dirArrow" transform="translate(30 24)" onmousedown="handlePan(0,-1)">
                  <use xlink:href="#rim" fill="#404040">
                        <set attributeName="fill" to="#808080" begin="arrowUp.mouseover" end="arrowUp.mouseout"/>
                  </use>
                  <path fill="none" stroke="white" stroke-width="1.5" d="M0,-3.0v7 M-2.5,-0.5L0,-3.0L2.5,-0.5"/>
                </g>
                <g id="arrowRight" xlink:href="#dirArrow" transform="rotate(90) translate(36 -43)" onmousedown="handlePan(1,0)">
                  <use xlink:href="#rim" fill="#404040">
                        <set attributeName="fill" to="#808080" begin="arrowRight.mouseover" end="arrowRight.mouseout"/>
                  </use>
                  <path fill="none" stroke="white" stroke-width="1.5" d="M0,-3.0v7 M-2.5,-0.5L0,-3.0L2.5,-0.5"/>
                </g>
                <g id="arrowDown" xlink:href="#dirArrow" transform="rotate(180) translate(-30 -48)" onmousedown="handlePan(0,1)">
                  <use xlink:href="#rim" fill="#404040">
                        <set attributeName="fill" to="#808080" begin="arrowDown.mouseover" end="arrowDown.mouseout"/>
                  </use>
                  <path fill="none" stroke="white" stroke-width="1.5" d="M0,-3.0v7 M-2.5,-0.5L0,-3.0L2.5,-0.5"/>
                </g>
                <g id="arrowLeft" xlink:href="#dirArrow" transform="rotate(270) translate(-36 17)" onmousedown="handlePan(-1,0)">
                  <use xlink:href="#rim" fill="#404040">
                        <set attributeName="fill" to="#808080" begin="arrowLeft.mouseover" end="arrowLeft.mouseout"/>
                  </use>
                  <path fill="none" stroke="white" stroke-width="1.5" d="M0,-3.0v7 M-2.5,-0.5L0,-3.0L2.5,-0.5"/>
                </g>
        </g>
        <svg viewBox="0 0 15 15" width="100%" height="30px" preserveAspectRatio="xMaxYMin meet">
         <g id="arrow_out" transform="scale(0.3 0.3)">
          <a xlink:href="cbookdisplay_8h__dep__incl_org.svg" target="_base">
           <rect id="button" ry="5" rx="5" y="6" x="6" height="38" width="38"
                fill="#f2f5e9" fill-opacity="0.5" stroke="#606060" stroke-width="1.0"/>
           <path id="arrow"
             d="M 11.500037,31.436501 C 11.940474,20.09759 22.043105,11.32322 32.158766,21.979434 L 37.068811,17.246167 C 37.068811,17.246167 37.088388,32 37.088388,32 L 22.160133,31.978069 C 22.160133,31.978069 26.997745,27.140456 26.997745,27.140456 C 18.528582,18.264221 13.291696,25.230495 11.500037,31.436501 z"
             style="fill:#404040;"/>
          </a>
         </g>
        </svg>
</svg>
