<?xml version="1.0" encoding="UTF-8" standalone="no"?>
<!DOCTYPE svg PUBLIC "-//W3C//DTD SVG 1.1//EN"
 "http://www.w3.org/Graphics/SVG/1.1/DTD/svg11.dtd">
<!-- Generated by graphviz version 2.43.0 (0)
 -->
<!-- Title: BookshelfModel::LanguageItem Pages: 1 -->
<svg width="275pt" height="662pt"
 viewBox="0.00 0.00 274.50 662.00" xmlns="http://www.w3.org/2000/svg" xmlns:xlink="http://www.w3.org/1999/xlink">
<g id="graph0" class="graph" transform="scale(1 1) rotate(0) translate(4 658)">
<title>BookshelfModel::LanguageItem</title>
<!-- Node1 -->
<g id="Node000001" class="node">
<title>Node1</title>
<g id="a_Node000001"><a xlink:title=" ">
<polygon fill="#999999" stroke="transparent" points="165,-79 0,-79 0,0 165,0 165,-79"/>
<text text-anchor="start" x="5.5" y="-66.5" font-family="Helvetica,sans-Serif" font-size="10.00">BookshelfModel::LanguageItem</text>
<text text-anchor="start" x="23.5" y="-51.5" font-family="Helvetica,sans-Serif" font-size="10.00">&#45;</text>
<text text-anchor="start" x="50.5" y="-51.5" font-family="Helvetica,sans-Serif" font-size="10.00">m_language</text>
<text text-anchor="start" x="21" y="-36.5" font-family="Helvetica,sans-Serif" font-size="10.00">+</text>
<text text-anchor="start" x="50.5" y="-36.5" font-family="Helvetica,sans-Serif" font-size="10.00">data()</text>
<text text-anchor="start" x="21" y="-21.5" font-family="Helvetica,sans-Serif" font-size="10.00">+</text>
<text text-anchor="start" x="50.5" y="-21.5" font-family="Helvetica,sans-Serif" font-size="10.00">fitFor()</text>
<text text-anchor="start" x="21" y="-6.5" font-family="Helvetica,sans-Serif" font-size="10.00">+</text>
<text text-anchor="start" x="50.5" y="-6.5" font-family="Helvetica,sans-Serif" font-size="10.00">LanguageItem()</text>
<polygon fill="#666666" stroke="#666666" points="0.5,-61.5 0.5,-61.5 165.5,-61.5 165.5,-61.5 0.5,-61.5"/>
<polygon fill="#666666" stroke="#666666" points="0.5,-46.5 0.5,-46.5 48.5,-46.5 48.5,-46.5 0.5,-46.5"/>
<polygon fill="#666666" stroke="#666666" points="48.5,-46.5 48.5,-46.5 165.5,-46.5 165.5,-46.5 48.5,-46.5"/>
<polygon fill="none" stroke="#666666" points="0,0 0,-79 165,-79 165,0 0,0"/>
</a>
</g>
</g>
<!-- Node2 -->
<g id="Node000002" class="node">
<title>Node2</title>
<g id="a_Node000002"><a xlink:href="../../d1/dcc/classBookshelfModel_1_1GroupItem.html" target="_top" xlink:title=" ">
<polygon fill="white" stroke="transparent" points="156,-191 9,-191 9,-116 156,-116 156,-191"/>
<text text-anchor="start" x="14.5" y="-178.5" font-family="Helvetica,sans-Serif" font-size="10.00">BookshelfModel::GroupItem</text>
<text text-anchor="start" x="15" y="-167.5" font-family="Helvetica,sans-Serif" font-size="10.00">&lt; Item::ITEM_LANGUAGE &gt;</text>
<text text-anchor="start" x="81" y="-152.5" font-family="Helvetica,sans-Serif" font-size="10.00"> </text>
<text text-anchor="start" x="25" y="-137.5" font-family="Helvetica,sans-Serif" font-size="10.00">+</text>
<text text-anchor="start" x="49.5" y="-137.5" font-family="Helvetica,sans-Serif" font-size="10.00">GroupItem()</text>
<text text-anchor="start" x="25" y="-122.5" font-family="Helvetica,sans-Serif" font-size="10.00">+</text>
<text text-anchor="start" x="49.5" y="-122.5" font-family="Helvetica,sans-Serif" font-size="10.00">staticItemType()</text>
<polygon fill="#666666" stroke="#666666" points="9.5,-162.5 9.5,-162.5 156.5,-162.5 156.5,-162.5 9.5,-162.5"/>
<polygon fill="#666666" stroke="#666666" points="9.5,-147.5 9.5,-147.5 156.5,-147.5 156.5,-147.5 9.5,-147.5"/>
<polygon fill="none" stroke="#666666" points="9,-116 9,-191 156,-191 156,-116 9,-116"/>
</a>
</g>
</g>
<!-- Node2&#45;&gt;Node1 -->
<g id="edge1_Node000001_Node000002" class="edge">
<title>Node2&#45;&gt;Node1</title>
<g id="a_edge1_Node000001_Node000002"><a xlink:title=" ">
<path fill="none" stroke="#63b8ff" d="M82.5,-105.67C82.5,-96.85 82.5,-87.72 82.5,-79.18"/>
<polygon fill="none" stroke="#63b8ff" points="79,-105.83 82.5,-115.83 86,-105.83 79,-105.83"/>
</a>
</g>
</g>
<!-- Node3 -->
<g id="Node000003" class="node">
<title>Node3</title>
<g id="a_Node000003"><a xlink:href="../../d5/d1c/classBookshelfModel_1_1Item.html" target="_top" xlink:title=" ">
<polygon fill="white" stroke="transparent" points="137.5,-654 19.5,-654 19.5,-350 137.5,-350 137.5,-654"/>
<text text-anchor="start" x="24.5" y="-642" font-family="Helvetica,sans-Serif" font-size="10.00">BookshelfModel::Item</text>
<text text-anchor="start" x="30.5" y="-627" font-family="Helvetica,sans-Serif" font-size="10.00">&#45;</text>
<text text-anchor="start" x="45.5" y="-627" font-family="Helvetica,sans-Serif" font-size="10.00">m_checkState</text>
<text text-anchor="start" x="30.5" y="-612" font-family="Helvetica,sans-Serif" font-size="10.00">&#45;</text>
<text text-anchor="start" x="45.5" y="-612" font-family="Helvetica,sans-Serif" font-size="10.00">m_children</text>
<text text-anchor="start" x="30.5" y="-597" font-family="Helvetica,sans-Serif" font-size="10.00">&#45;</text>
<text text-anchor="start" x="45.5" y="-597" font-family="Helvetica,sans-Serif" font-size="10.00">m_parent</text>
<text text-anchor="start" x="30.5" y="-582" font-family="Helvetica,sans-Serif" font-size="10.00">&#45;</text>
<text text-anchor="start" x="45.5" y="-582" font-family="Helvetica,sans-Serif" font-size="10.00">m_type</text>
<text text-anchor="start" x="28" y="-567" font-family="Helvetica,sans-Serif" font-size="10.00">+</text>
<text text-anchor="start" x="45.5" y="-567" font-family="Helvetica,sans-Serif" font-size="10.00">checkState()</text>
<text text-anchor="start" x="28" y="-552" font-family="Helvetica,sans-Serif" font-size="10.00">+</text>
<text text-anchor="start" x="45.5" y="-552" font-family="Helvetica,sans-Serif" font-size="10.00">childIndex()</text>
<text text-anchor="start" x="28" y="-537" font-family="Helvetica,sans-Serif" font-size="10.00">+</text>
<text text-anchor="start" x="45.5" y="-537" font-family="Helvetica,sans-Serif" font-size="10.00">children()</text>
<text text-anchor="start" x="28" y="-522" font-family="Helvetica,sans-Serif" font-size="10.00">+</text>
<text text-anchor="start" x="45.5" y="-522" font-family="Helvetica,sans-Serif" font-size="10.00">data()</text>
<text text-anchor="start" x="28" y="-507" font-family="Helvetica,sans-Serif" font-size="10.00">+</text>
<text text-anchor="start" x="45.5" y="-507" font-family="Helvetica,sans-Serif" font-size="10.00">fitFor()</text>
<text text-anchor="start" x="28" y="-492" font-family="Helvetica,sans-Serif" font-size="10.00">+</text>
<text text-anchor="start" x="45.5" y="-492" font-family="Helvetica,sans-Serif" font-size="10.00">getGroupItem()</text>
<text text-anchor="start" x="28" y="-477" font-family="Helvetica,sans-Serif" font-size="10.00">+</text>
<text text-anchor="start" x="45.5" y="-477" font-family="Helvetica,sans-Serif" font-size="10.00">indexFor()</text>
<text text-anchor="start" x="28" y="-462" font-family="Helvetica,sans-Serif" font-size="10.00">+</text>
<text text-anchor="start" x="45.5" y="-462" font-family="Helvetica,sans-Serif" font-size="10.00">insertChild()</text>
<text text-anchor="start" x="28" y="-447" font-family="Helvetica,sans-Serif" font-size="10.00">+</text>
<text text-anchor="start" x="45.5" y="-447" font-family="Helvetica,sans-Serif" font-size="10.00">Item()</text>
<text text-anchor="start" x="28" y="-432" font-family="Helvetica,sans-Serif" font-size="10.00">+</text>
<text text-anchor="start" x="45.5" y="-432" font-family="Helvetica,sans-Serif" font-size="10.00">operator&lt;()</text>
<text text-anchor="start" x="28" y="-417" font-family="Helvetica,sans-Serif" font-size="10.00">+</text>
<text text-anchor="start" x="45.5" y="-417" font-family="Helvetica,sans-Serif" font-size="10.00">parent()</text>
<text text-anchor="start" x="28" y="-402" font-family="Helvetica,sans-Serif" font-size="10.00">+</text>
<text text-anchor="start" x="45.5" y="-402" font-family="Helvetica,sans-Serif" font-size="10.00">setCheckState()</text>
<text text-anchor="start" x="28" y="-387" font-family="Helvetica,sans-Serif" font-size="10.00">+</text>
<text text-anchor="start" x="45.5" y="-387" font-family="Helvetica,sans-Serif" font-size="10.00">type()</text>
<text text-anchor="start" x="28" y="-372" font-family="Helvetica,sans-Serif" font-size="10.00">+</text>
<text text-anchor="start" x="45.5" y="-372" font-family="Helvetica,sans-Serif" font-size="10.00">~Item()</text>
<text text-anchor="start" x="30.5" y="-357" font-family="Helvetica,sans-Serif" font-size="10.00">&#45;</text>
<text text-anchor="start" x="45.5" y="-357" font-family="Helvetica,sans-Serif" font-size="10.00">setParent()</text>
<polygon fill="#666666" stroke="#666666" points="19.5,-637 19.5,-637 137.5,-637 137.5,-637 19.5,-637"/>
<polygon fill="#666666" stroke="#666666" points="19.5,-577 19.5,-577 43.5,-577 43.5,-577 19.5,-577"/>
<polygon fill="#666666" stroke="#666666" points="43.5,-577 43.5,-577 137.5,-577 137.5,-577 43.5,-577"/>
<polygon fill="none" stroke="#666666" points="19.5,-350 19.5,-654 137.5,-654 137.5,-350 19.5,-350"/>
</a>
</g>
</g>
<!-- Node3&#45;&gt;Node2 -->
<g id="edge2_Node000002_Node000003" class="edge">
<title>Node3&#45;&gt;Node2</title>
<g id="a_edge2_Node000002_Node000003"><a xlink:title=" ">
<path fill="none" stroke="#63b8ff" d="M80.36,-339.46C81,-284.1 81.66,-227.14 82.07,-191.33"/>
<polygon fill="none" stroke="#63b8ff" points="76.86,-339.74 80.25,-349.78 83.86,-339.82 76.86,-339.74"/>
</a>
</g>
</g>
<!-- Node4 -->
<g id="Node000004" class="node">
<title>Node4</title>
<g id="a_Node000004"><a xlink:href="../../d1/dcc/classBookshelfModel_1_1GroupItem.html" target="_top" xlink:title=" ">
<polygon fill="white" stroke="transparent" points="242,-313 95,-313 95,-238 242,-238 242,-313"/>
<text text-anchor="start" x="100.5" y="-300.5" font-family="Helvetica,sans-Serif" font-size="10.00">BookshelfModel::GroupItem</text>
<text text-anchor="start" x="145.5" y="-289.5" font-family="Helvetica,sans-Serif" font-size="10.00">&lt; TYPE &gt;</text>
<text text-anchor="start" x="167" y="-274.5" font-family="Helvetica,sans-Serif" font-size="10.00"> </text>
<text text-anchor="start" x="111" y="-259.5" font-family="Helvetica,sans-Serif" font-size="10.00">+</text>
<text text-anchor="start" x="135.5" y="-259.5" font-family="Helvetica,sans-Serif" font-size="10.00">GroupItem()</text>
<text text-anchor="start" x="111" y="-244.5" font-family="Helvetica,sans-Serif" font-size="10.00">+</text>
<text text-anchor="start" x="135.5" y="-244.5" font-family="Helvetica,sans-Serif" font-size="10.00">staticItemType()</text>
<polygon fill="#666666" stroke="#666666" points="95.5,-284.5 95.5,-284.5 242.5,-284.5 242.5,-284.5 95.5,-284.5"/>
<polygon fill="#666666" stroke="#666666" points="95.5,-269.5 95.5,-269.5 242.5,-269.5 242.5,-269.5 95.5,-269.5"/>
<polygon fill="none" stroke="#666666" points="95,-238 95,-313 242,-313 242,-238 95,-238"/>
</a>
</g>
</g>
<!-- Node3&#45;&gt;Node4 -->
<g id="edge4_Node000004_Node000003" class="edge">
<title>Node3&#45;&gt;Node4</title>
<g id="a_edge4_Node000004_Node000003"><a xlink:title=" ">
<path fill="none" stroke="#63b8ff" d="M141.38,-344.14C145.9,-332.87 150.13,-322.32 153.84,-313.06"/>
<polygon fill="none" stroke="#63b8ff" points="138,-343.18 137.53,-353.76 144.5,-345.78 138,-343.18"/>
</a>
</g>
</g>
<!-- Node4&#45;&gt;Node2 -->
<g id="edge3_Node000002_Node000004" class="edge">
<title>Node4&#45;&gt;Node2</title>
<g id="a_edge3_Node000002_Node000004"><a xlink:title=" ">
<path fill="none" stroke="orange" d="M136.4,-229.7C127.34,-217.06 117.59,-203.46 108.91,-191.35"/>
<polygon fill="orange" stroke="orange" points="133.56,-231.75 142.23,-237.84 139.25,-227.68 133.56,-231.75"/>
</a>
</g>
<text text-anchor="middle" x="197" y="-212" font-family="Helvetica,sans-Serif" font-size="10.00" fill="grey"> &lt; Item::ITEM_LANGUAGE &gt;</text>
</g>
</g>
</svg>
