<?xml version="1.0" encoding="UTF-8" standalone="no"?>
<!DOCTYPE svg PUBLIC "-//W3C//DTD SVG 1.1//EN"
 "http://www.w3.org/Graphics/SVG/1.1/DTD/svg11.dtd">
<!-- Generated by graphviz version 2.43.0 (0)
 -->
<!-- Title: BookshelfModel::LanguageItem Pages: 1 -->
<!--zoomable 662 -->

<svg id="main" version="1.1" xmlns="http://www.w3.org/2000/svg" xmlns:xlink="http://www.w3.org/1999/xlink" xml:space="preserve" onload="init(evt)">
<style type="text/css"><![CDATA[
.node, .edge {opacity: 0.7;}
.node.selected, .edge.selected {opacity: 1;}
.edge:hover path { stroke: red; }
.edge:hover polygon { stroke: red; fill: red; }
]]></style>

<defs>
  <circle id="rim" cx="0" cy="0" r="7"/>
  <circle id="rim2" cx="0" cy="0" r="3.5"/>
  <g id="zoomPlus">
    <use xlink:href="#rim" fill="#404040"><set attributeName="fill" to="#808080" begin="zoomplus.mouseover" end="zoomplus.mouseout"/></use>
    <path d="M-4,0h8M0,-4v8" fill="none" stroke="white" stroke-width="1.5" pointer-events="none"/>
  </g>
  <g id="zoomMin">
    <use xlink:href="#rim" fill="#404040"><set attributeName="fill" to="#808080" begin="zoomminus.mouseover" end="zoomminus.mouseout"/></use>
    <path d="M-4,0h8" fill="none" stroke="white" stroke-width="1.5" pointer-events="none"/>
  </g>
  <g id="arrowUp" transform="translate(30 24)">
    <use xlink:href="#rim"/>
    <path pointer-events="none" fill="none" stroke="white" stroke-width="1.5" d="M0,-3.0v7 M-2.5,-0.5L0,-3.0L2.5,-0.5"/>
  </g>
  <g id="arrowRight" transform="rotate(90) translate(36 -43)">
    <use xlink:href="#rim"/>
    <path pointer-events="none" fill="none" stroke="white" stroke-width="1.5" d="M0,-3.0v7 M-2.5,-0.5L0,-3.0L2.5,-0.5"/>
  </g>
  <g id="arrowDown" transform="rotate(180) translate(-30 -48)">
    <use xlink:href="#rim"/>
    <path pointer-events="none" fill="none" stroke="white" stroke-width="1.5" d="M0,-3.0v7 M-2.5,-0.5L0,-3.0L2.5,-0.5"/>
  </g>
  <g id="arrowLeft" transform="rotate(270) translate(-36 17)">
    <use xlink:href="#rim"/>
    <path pointer-events="none" fill="none" stroke="white" stroke-width="1.5" d="M0,-3.0v7 M-2.5,-0.5L0,-3.0L2.5,-0.5"/>
  </g>
  <g id="resetDef">
    <use xlink:href="#rim2" fill="#404040"><set attributeName="fill" to="#808080" begin="reset.mouseover" end="reset.mouseout"/></use>
  </g>
</defs>
<script type="application/ecmascript">
var viewWidth = 275;
var viewHeight = 662;
var sectionId = 'dynsection-0';
</script>
<script type="application/ecmascript" xlink:href="../../svg.min.js"/>
<svg id="graph" class="graph">
<g id="viewport">
<title>BookshelfModel::LanguageItem</title>
<!-- Node1 -->
<g id="Node000001" class="node">
<title>Node1</title>
<g id="a_Node000001"><a xlink:title=" ">
<polygon fill="#999999" stroke="transparent" points="165,-79 0,-79 0,0 165,0 165,-79"/>
<text text-anchor="start" x="5.5" y="-66.5" font-family="Helvetica,sans-Serif" font-size="10.00">BookshelfModel::LanguageItem</text>
<text text-anchor="start" x="23.5" y="-51.5" font-family="Helvetica,sans-Serif" font-size="10.00">&#45;</text>
<text text-anchor="start" x="50.5" y="-51.5" font-family="Helvetica,sans-Serif" font-size="10.00">m_language</text>
<text text-anchor="start" x="21" y="-36.5" font-family="Helvetica,sans-Serif" font-size="10.00">+</text>
<text text-anchor="start" x="50.5" y="-36.5" font-family="Helvetica,sans-Serif" font-size="10.00">data()</text>
<text text-anchor="start" x="21" y="-21.5" font-family="Helvetica,sans-Serif" font-size="10.00">+</text>
<text text-anchor="start" x="50.5" y="-21.5" font-family="Helvetica,sans-Serif" font-size="10.00">fitFor()</text>
<text text-anchor="start" x="21" y="-6.5" font-family="Helvetica,sans-Serif" font-size="10.00">+</text>
<text text-anchor="start" x="50.5" y="-6.5" font-family="Helvetica,sans-Serif" font-size="10.00">LanguageItem()</text>
<polygon fill="#666666" stroke="#666666" points="0.5,-61.5 0.5,-61.5 165.5,-61.5 165.5,-61.5 0.5,-61.5"/>
<polygon fill="#666666" stroke="#666666" points="0.5,-46.5 0.5,-46.5 48.5,-46.5 48.5,-46.5 0.5,-46.5"/>
<polygon fill="#666666" stroke="#666666" points="48.5,-46.5 48.5,-46.5 165.5,-46.5 165.5,-46.5 48.5,-46.5"/>
<polygon fill="none" stroke="#666666" points="0,0 0,-79 165,-79 165,0 0,0"/>
</a>
</g>
</g>
<!-- Node2 -->
<g id="Node000002" class="node">
<title>Node2</title>
<g id="a_Node000002"><a xlink:href="../../d1/dcc/classBookshelfModel_1_1GroupItem.html" target="_top" xlink:title=" ">
<polygon fill="white" stroke="transparent" points="156,-191 9,-191 9,-116 156,-116 156,-191"/>
<text text-anchor="start" x="14.5" y="-178.5" font-family="Helvetica,sans-Serif" font-size="10.00">BookshelfModel::GroupItem</text>
<text text-anchor="start" x="15" y="-167.5" font-family="Helvetica,sans-Serif" font-size="10.00">&lt; Item::ITEM_LANGUAGE &gt;</text>
<text text-anchor="start" x="81" y="-152.5" font-family="Helvetica,sans-Serif" font-size="10.00"> </text>
<text text-anchor="start" x="25" y="-137.5" font-family="Helvetica,sans-Serif" font-size="10.00">+</text>
<text text-anchor="start" x="49.5" y="-137.5" font-family="Helvetica,sans-Serif" font-size="10.00">GroupItem()</text>
<text text-anchor="start" x="25" y="-122.5" font-family="Helvetica,sans-Serif" font-size="10.00">+</text>
<text text-anchor="start" x="49.5" y="-122.5" font-family="Helvetica,sans-Serif" font-size="10.00">staticItemType()</text>
<polygon fill="#666666" stroke="#666666" points="9.5,-162.5 9.5,-162.5 156.5,-162.5 156.5,-162.5 9.5,-162.5"/>
<polygon fill="#666666" stroke="#666666" points="9.5,-147.5 9.5,-147.5 156.5,-147.5 156.5,-147.5 9.5,-147.5"/>
<polygon fill="none" stroke="#666666" points="9,-116 9,-191 156,-191 156,-116 9,-116"/>
</a>
</g>
</g>
<!-- Node2&#45;&gt;Node1 -->
<g id="edge1_Node000001_Node000002" class="edge">
<title>Node2&#45;&gt;Node1</title>
<g id="a_edge1_Node000001_Node000002"><a xlink:title=" ">
<path fill="none" stroke="#63b8ff" d="M82.5,-105.67C82.5,-96.85 82.5,-87.72 82.5,-79.18"/>
<polygon fill="none" stroke="#63b8ff" points="79,-105.83 82.5,-115.83 86,-105.83 79,-105.83"/>
</a>
</g>
</g>
<!-- Node3 -->
<g id="Node000003" class="node">
<title>Node3</title>
<g id="a_Node000003"><a xlink:href="../../d5/d1c/classBookshelfModel_1_1Item.html" target="_top" xlink:title=" ">
<polygon fill="white" stroke="transparent" points="137.5,-654 19.5,-654 19.5,-350 137.5,-350 137.5,-654"/>
<text text-anchor="start" x="24.5" y="-642" font-family="Helvetica,sans-Serif" font-size="10.00">BookshelfModel::Item</text>
<text text-anchor="start" x="30.5" y="-627" font-family="Helvetica,sans-Serif" font-size="10.00">&#45;</text>
<text text-anchor="start" x="45.5" y="-627" font-family="Helvetica,sans-Serif" font-size="10.00">m_checkState</text>
<text text-anchor="start" x="30.5" y="-612" font-family="Helvetica,sans-Serif" font-size="10.00">&#45;</text>
<text text-anchor="start" x="45.5" y="-612" font-family="Helvetica,sans-Serif" font-size="10.00">m_children</text>
<text text-anchor="start" x="30.5" y="-597" font-family="Helvetica,sans-Serif" font-size="10.00">&#45;</text>
<text text-anchor="start" x="45.5" y="-597" font-family="Helvetica,sans-Serif" font-size="10.00">m_parent</text>
<text text-anchor="start" x="30.5" y="-582" font-family="Helvetica,sans-Serif" font-size="10.00">&#45;</text>
<text text-anchor="start" x="45.5" y="-582" font-family="Helvetica,sans-Serif" font-size="10.00">m_type</text>
<text text-anchor="start" x="28" y="-567" font-family="Helvetica,sans-Serif" font-size="10.00">+</text>
<text text-anchor="start" x="45.5" y="-567" font-family="Helvetica,sans-Serif" font-size="10.00">checkState()</text>
<text text-anchor="start" x="28" y="-552" font-family="Helvetica,sans-Serif" font-size="10.00">+</text>
<text text-anchor="start" x="45.5" y="-552" font-family="Helvetica,sans-Serif" font-size="10.00">childIndex()</text>
<text text-anchor="start" x="28" y="-537" font-family="Helvetica,sans-Serif" font-size="10.00">+</text>
<text text-anchor="start" x="45.5" y="-537" font-family="Helvetica,sans-Serif" font-size="10.00">children()</text>
<text text-anchor="start" x="28" y="-522" font-family="Helvetica,sans-Serif" font-size="10.00">+</text>
<text text-anchor="start" x="45.5" y="-522" font-family="Helvetica,sans-Serif" font-size="10.00">data()</text>
<text text-anchor="start" x="28" y="-507" font-family="Helvetica,sans-Serif" font-size="10.00">+</text>
<text text-anchor="start" x="45.5" y="-507" font-family="Helvetica,sans-Serif" font-size="10.00">fitFor()</text>
<text text-anchor="start" x="28" y="-492" font-family="Helvetica,sans-Serif" font-size="10.00">+</text>
<text text-anchor="start" x="45.5" y="-492" font-family="Helvetica,sans-Serif" font-size="10.00">getGroupItem()</text>
<text text-anchor="start" x="28" y="-477" font-family="Helvetica,sans-Serif" font-size="10.00">+</text>
<text text-anchor="start" x="45.5" y="-477" font-family="Helvetica,sans-Serif" font-size="10.00">indexFor()</text>
<text text-anchor="start" x="28" y="-462" font-family="Helvetica,sans-Serif" font-size="10.00">+</text>
<text text-anchor="start" x="45.5" y="-462" font-family="Helvetica,sans-Serif" font-size="10.00">insertChild()</text>
<text text-anchor="start" x="28" y="-447" font-family="Helvetica,sans-Serif" font-size="10.00">+</text>
<text text-anchor="start" x="45.5" y="-447" font-family="Helvetica,sans-Serif" font-size="10.00">Item()</text>
<text text-anchor="start" x="28" y="-432" font-family="Helvetica,sans-Serif" font-size="10.00">+</text>
<text text-anchor="start" x="45.5" y="-432" font-family="Helvetica,sans-Serif" font-size="10.00">operator&lt;()</text>
<text text-anchor="start" x="28" y="-417" font-family="Helvetica,sans-Serif" font-size="10.00">+</text>
<text text-anchor="start" x="45.5" y="-417" font-family="Helvetica,sans-Serif" font-size="10.00">parent()</text>
<text text-anchor="start" x="28" y="-402" font-family="Helvetica,sans-Serif" font-size="10.00">+</text>
<text text-anchor="start" x="45.5" y="-402" font-family="Helvetica,sans-Serif" font-size="10.00">setCheckState()</text>
<text text-anchor="start" x="28" y="-387" font-family="Helvetica,sans-Serif" font-size="10.00">+</text>
<text text-anchor="start" x="45.5" y="-387" font-family="Helvetica,sans-Serif" font-size="10.00">type()</text>
<text text-anchor="start" x="28" y="-372" font-family="Helvetica,sans-Serif" font-size="10.00">+</text>
<text text-anchor="start" x="45.5" y="-372" font-family="Helvetica,sans-Serif" font-size="10.00">~Item()</text>
<text text-anchor="start" x="30.5" y="-357" font-family="Helvetica,sans-Serif" font-size="10.00">&#45;</text>
<text text-anchor="start" x="45.5" y="-357" font-family="Helvetica,sans-Serif" font-size="10.00">setParent()</text>
<polygon fill="#666666" stroke="#666666" points="19.5,-637 19.5,-637 137.5,-637 137.5,-637 19.5,-637"/>
<polygon fill="#666666" stroke="#666666" points="19.5,-577 19.5,-577 43.5,-577 43.5,-577 19.5,-577"/>
<polygon fill="#666666" stroke="#666666" points="43.5,-577 43.5,-577 137.5,-577 137.5,-577 43.5,-577"/>
<polygon fill="none" stroke="#666666" points="19.5,-350 19.5,-654 137.5,-654 137.5,-350 19.5,-350"/>
</a>
</g>
</g>
<!-- Node3&#45;&gt;Node2 -->
<g id="edge2_Node000002_Node000003" class="edge">
<title>Node3&#45;&gt;Node2</title>
<g id="a_edge2_Node000002_Node000003"><a xlink:title=" ">
<path fill="none" stroke="#63b8ff" d="M80.36,-339.46C81,-284.1 81.66,-227.14 82.07,-191.33"/>
<polygon fill="none" stroke="#63b8ff" points="76.86,-339.74 80.25,-349.78 83.86,-339.82 76.86,-339.74"/>
</a>
</g>
</g>
<!-- Node4 -->
<g id="Node000004" class="node">
<title>Node4</title>
<g id="a_Node000004"><a xlink:href="../../d1/dcc/classBookshelfModel_1_1GroupItem.html" target="_top" xlink:title=" ">
<polygon fill="white" stroke="transparent" points="242,-313 95,-313 95,-238 242,-238 242,-313"/>
<text text-anchor="start" x="100.5" y="-300.5" font-family="Helvetica,sans-Serif" font-size="10.00">BookshelfModel::GroupItem</text>
<text text-anchor="start" x="145.5" y="-289.5" font-family="Helvetica,sans-Serif" font-size="10.00">&lt; TYPE &gt;</text>
<text text-anchor="start" x="167" y="-274.5" font-family="Helvetica,sans-Serif" font-size="10.00"> </text>
<text text-anchor="start" x="111" y="-259.5" font-family="Helvetica,sans-Serif" font-size="10.00">+</text>
<text text-anchor="start" x="135.5" y="-259.5" font-family="Helvetica,sans-Serif" font-size="10.00">GroupItem()</text>
<text text-anchor="start" x="111" y="-244.5" font-family="Helvetica,sans-Serif" font-size="10.00">+</text>
<text text-anchor="start" x="135.5" y="-244.5" font-family="Helvetica,sans-Serif" font-size="10.00">staticItemType()</text>
<polygon fill="#666666" stroke="#666666" points="95.5,-284.5 95.5,-284.5 242.5,-284.5 242.5,-284.5 95.5,-284.5"/>
<polygon fill="#666666" stroke="#666666" points="95.5,-269.5 95.5,-269.5 242.5,-269.5 242.5,-269.5 95.5,-269.5"/>
<polygon fill="none" stroke="#666666" points="95,-238 95,-313 242,-313 242,-238 95,-238"/>
</a>
</g>
</g>
<!-- Node3&#45;&gt;Node4 -->
<g id="edge4_Node000004_Node000003" class="edge">
<title>Node3&#45;&gt;Node4</title>
<g id="a_edge4_Node000004_Node000003"><a xlink:title=" ">
<path fill="none" stroke="#63b8ff" d="M141.38,-344.14C145.9,-332.87 150.13,-322.32 153.84,-313.06"/>
<polygon fill="none" stroke="#63b8ff" points="138,-343.18 137.53,-353.76 144.5,-345.78 138,-343.18"/>
</a>
</g>
</g>
<!-- Node4&#45;&gt;Node2 -->
<g id="edge3_Node000002_Node000004" class="edge">
<title>Node4&#45;&gt;Node2</title>
<g id="a_edge3_Node000002_Node000004"><a xlink:title=" ">
<path fill="none" stroke="orange" d="M136.4,-229.7C127.34,-217.06 117.59,-203.46 108.91,-191.35"/>
<polygon fill="orange" stroke="orange" points="133.56,-231.75 142.23,-237.84 139.25,-227.68 133.56,-231.75"/>
</a>
</g>
<text text-anchor="middle" x="197" y="-212" font-family="Helvetica,sans-Serif" font-size="10.00" fill="grey"> &lt; Item::ITEM_LANGUAGE &gt;</text>
</g>
</g>
</svg>

<g id="navigator" transform="translate(0 0)" fill="#404254">
  <rect fill="#f2f5e9" fill-opacity="0.5" stroke="#606060" stroke-width=".5" x="0" y="0" width="60" height="60"/>
  <use id="zoomplus" xlink:href="#zoomPlus" x="17" y="9" onmousedown="handleZoom(evt,'in')"/>
  <use id="zoomminus" xlink:href="#zoomMin" x="42" y="9" onmousedown="handleZoom(evt,'out')"/>
  <use id="reset" xlink:href="#resetDef" x="30" y="36" onmousedown="handleReset()"/>
   <use id="arrowup" xlink:href="#arrowUp" x="0" y="0" onmousedown="handlePan(0,-1)"/>
  <use id="arrowright" xlink:href="#arrowRight" x="0" y="0" onmousedown="handlePan(1,0)"/>
  <use id="arrowdown" xlink:href="#arrowDown" x="0" y="0" onmousedown="handlePan(0,1)"/>
  <use id="arrowleft" xlink:href="#arrowLeft" x="0" y="0" onmousedown="handlePan(-1,0)"/>
</g>
<svg viewBox="0 0 15 15" width="100%" height="30px" preserveAspectRatio="xMaxYMin meet">
 <g id="arrow_out" transform="scale(0.3 0.3)">
  <a xlink:href="classBookshelfModel_1_1LanguageItem__inherit__graph_org.svg" target="_base">
   <rect id="button" ry="5" rx="5" y="6" x="6" height="38" width="38"
        fill="#f2f5e9" fill-opacity="0.5" stroke="#606060" stroke-width="1.0"/>
   <path id="arrow"
     d="M 11.500037,31.436501 C 11.940474,20.09759 22.043105,11.32322 32.158766,21.979434 L 37.068811,17.246167 C 37.068811,17.246167 37.088388,32 37.088388,32 L 22.160133,31.978069 C 22.160133,31.978069 26.997745,27.140456 26.997745,27.140456 C 18.528582,18.264221 13.291696,25.230495 11.500037,31.436501 z"
     style="fill:#404040;"/>
  </a>
 </g>
</svg>

<style type='text/css'>
<![CDATA[
[data-mouse-over-selected='false'] { opacity: 0.7; }
[data-mouse-over-selected='true']  { opacity: 1.0; }
]]>
</style>
<script type="application/ecmascript"><![CDATA[
document.addEventListener('DOMContentLoaded', (event) => {
  highlightEdges();
  highlightAdjacentNodes();
});
]]></script>
</svg>
