<?xml version="1.0" encoding="UTF-8" standalone="no"?>
<!DOCTYPE svg PUBLIC "-//W3C//DTD SVG 1.1//EN"
 "http://www.w3.org/Graphics/SVG/1.1/DTD/svg11.dtd">
<!-- Generated by graphviz version 2.43.0 (0)
 -->
<!-- Title: CConfigurationDialog Pages: 1 -->
<svg width="155pt" height="309pt"
 viewBox="0.00 0.00 155.00 309.00" xmlns="http://www.w3.org/2000/svg" xmlns:xlink="http://www.w3.org/1999/xlink">
<g id="graph0" class="graph" transform="scale(1 1) rotate(0) translate(4 305)">
<title>CConfigurationDialog</title>
<polygon fill="white" stroke="transparent" points="-4,4 -4,-305 151,-305 151,4 -4,4"/>
<!-- Node1 -->
<g id="node1" class="node">
<title>Node1</title>
<g id="a_node1"><a xlink:title=" ">
<polygon fill="#bfbfbf" stroke="black" points="0,-0.5 0,-68.5 147,-68.5 147,-0.5 0,-0.5"/>
<text text-anchor="middle" x="73.5" y="-56.5" font-family="Helvetica,sans-Serif" font-size="10.00">CConfigurationDialog</text>
<polyline fill="none" stroke="black" points="0,-49.5 147,-49.5 "/>
<text text-anchor="middle" x="73.5" y="-37.5" font-family="Helvetica,sans-Serif" font-size="10.00"> </text>
<polyline fill="none" stroke="black" points="0,-30.5 147,-30.5 "/>
<text text-anchor="start" x="8" y="-18.5" font-family="Helvetica,sans-Serif" font-size="10.00">+ CConfigurationDialog()</text>
<text text-anchor="start" x="8" y="-7.5" font-family="Helvetica,sans-Serif" font-size="10.00">+ ~CConfigurationDialog()</text>
</a>
</g>
</g>
<!-- Node2 -->
<g id="node2" class="node">
<title>Node2</title>
<g id="a_node2"><a xlink:href="../../d6/d10/classBtConfigDialog.html" target="_top" xlink:title=" ">
<polygon fill="white" stroke="black" points="18,-105.5 18,-206.5 129,-206.5 129,-105.5 18,-105.5"/>
<text text-anchor="middle" x="73.5" y="-194.5" font-family="Helvetica,sans-Serif" font-size="10.00">BtConfigDialog</text>
<polyline fill="none" stroke="black" points="18,-187.5 129,-187.5 "/>
<text text-anchor="start" x="26" y="-175.5" font-family="Helvetica,sans-Serif" font-size="10.00">&#45; m_contentsList</text>
<text text-anchor="start" x="26" y="-164.5" font-family="Helvetica,sans-Serif" font-size="10.00">&#45; m_maxItemWidth</text>
<text text-anchor="start" x="26" y="-153.5" font-family="Helvetica,sans-Serif" font-size="10.00">&#45; m_pageWidget</text>
<polyline fill="none" stroke="black" points="18,-146.5 129,-146.5 "/>
<text text-anchor="start" x="26" y="-134.5" font-family="Helvetica,sans-Serif" font-size="10.00">+ addPage()</text>
<text text-anchor="start" x="26" y="-123.5" font-family="Helvetica,sans-Serif" font-size="10.00">+ BtConfigDialog()</text>
<text text-anchor="start" x="26" y="-112.5" font-family="Helvetica,sans-Serif" font-size="10.00">+ save()</text>
</a>
</g>
</g>
<!-- Node2&#45;&gt;Node1 -->
<g id="edge1" class="edge">
<title>Node2&#45;&gt;Node1</title>
<path fill="none" stroke="midnightblue" d="M73.5,-95.17C73.5,-86.11 73.5,-77.05 73.5,-68.83"/>
<polygon fill="none" stroke="midnightblue" points="70,-95.36 73.5,-105.36 77,-95.36 70,-95.36"/>
</g>
<!-- Node3 -->
<g id="node3" class="node">
<title>Node3</title>
<g id="a_node3"><a xlink:href="../../d9/d46/classQDialog.html" target="_top" xlink:title=" ">
<polygon fill="white" stroke="black" points="45.5,-243.5 45.5,-300.5 101.5,-300.5 101.5,-243.5 45.5,-243.5"/>
<text text-anchor="middle" x="73.5" y="-288.5" font-family="Helvetica,sans-Serif" font-size="10.00">QDialog</text>
<polyline fill="none" stroke="black" points="45.5,-281.5 101.5,-281.5 "/>
<text text-anchor="middle" x="73.5" y="-269.5" font-family="Helvetica,sans-Serif" font-size="10.00"> </text>
<polyline fill="none" stroke="black" points="45.5,-262.5 101.5,-262.5 "/>
<text text-anchor="middle" x="73.5" y="-250.5" font-family="Helvetica,sans-Serif" font-size="10.00"> </text>
</a>
</g>
</g>
<!-- Node3&#45;&gt;Node2 -->
<g id="edge2" class="edge">
<title>Node3&#45;&gt;Node2</title>
<path fill="none" stroke="midnightblue" d="M73.5,-233.35C73.5,-224.8 73.5,-215.58 73.5,-206.61"/>
<polygon fill="none" stroke="midnightblue" points="70,-233.4 73.5,-243.4 77,-233.4 70,-233.4"/>
</g>
</g>
</svg>
