<?xml version="1.0" encoding="UTF-8" standalone="no"?>
<!DOCTYPE svg PUBLIC "-//W3C//DTD SVG 1.1//EN"
 "http://www.w3.org/Graphics/SVG/1.1/DTD/svg11.dtd">
<!-- Generated by graphviz version 2.43.0 (0)
 -->
<!-- Title: btdisplaysettingsbutton.h Pages: 1 -->
<svg width="436pt" height="84pt"
 viewBox="0.00 0.00 436.00 84.00" xmlns="http://www.w3.org/2000/svg" xmlns:xlink="http://www.w3.org/1999/xlink">
<g id="graph0" class="graph" transform="scale(1 1) rotate(0) translate(4 80)">
<title>btdisplaysettingsbutton.h</title>
<polygon fill="white" stroke="transparent" points="-4,4 -4,-80 432,-80 432,4 -4,4"/>
<!-- Node1 -->
<g id="node1" class="node">
<title>Node1</title>
<g id="a_node1"><a xlink:title=" ">
<polygon fill="#bfbfbf" stroke="black" points="162.5,-56.5 162.5,-75.5 303.5,-75.5 303.5,-56.5 162.5,-56.5"/>
<text text-anchor="middle" x="233" y="-63.5" font-family="Helvetica,sans-Serif" font-size="10.00">btdisplaysettingsbutton.h</text>
</a>
</g>
</g>
<!-- Node2 -->
<g id="node2" class="node">
<title>Node2</title>
<g id="a_node2"><a xlink:href="../../d5/dcf/btdisplaysettingsbutton_8cpp.html" target="_top" xlink:title=" ">
<polygon fill="white" stroke="black" points="0,-0.5 0,-19.5 152,-19.5 152,-0.5 0,-0.5"/>
<text text-anchor="middle" x="76" y="-7.5" font-family="Helvetica,sans-Serif" font-size="10.00">btdisplaysettingsbutton.cpp</text>
</a>
</g>
</g>
<!-- Node1&#45;&gt;Node2 -->
<g id="edge1" class="edge">
<title>Node1&#45;&gt;Node2</title>
<path fill="none" stroke="midnightblue" d="M198.61,-53.17C169.05,-43 127.13,-28.59 100.76,-19.52"/>
<polygon fill="midnightblue" stroke="midnightblue" points="197.53,-56.5 208.12,-56.44 199.8,-49.88 197.53,-56.5"/>
</g>
<!-- Node3 -->
<g id="node3" class="node">
<title>Node3</title>
<g id="a_node3"><a xlink:href="../../d7/d67/cbookreadwindow_8cpp.html" target="_top" xlink:title=" ">
<polygon fill="white" stroke="black" points="170.5,-0.5 170.5,-19.5 295.5,-19.5 295.5,-0.5 170.5,-0.5"/>
<text text-anchor="middle" x="233" y="-7.5" font-family="Helvetica,sans-Serif" font-size="10.00">cbookreadwindow.cpp</text>
</a>
</g>
</g>
<!-- Node1&#45;&gt;Node3 -->
<g id="edge2" class="edge">
<title>Node1&#45;&gt;Node3</title>
<path fill="none" stroke="midnightblue" d="M233,-45.8C233,-36.91 233,-26.78 233,-19.75"/>
<polygon fill="midnightblue" stroke="midnightblue" points="229.5,-46.08 233,-56.08 236.5,-46.08 229.5,-46.08"/>
</g>
<!-- Node4 -->
<g id="node4" class="node">
<title>Node4</title>
<g id="a_node4"><a xlink:href="../../d2/d26/cdisplaywindow_8cpp.html" target="_top" xlink:title=" ">
<polygon fill="white" stroke="black" points="314,-0.5 314,-19.5 428,-19.5 428,-0.5 314,-0.5"/>
<text text-anchor="middle" x="371" y="-7.5" font-family="Helvetica,sans-Serif" font-size="10.00">cdisplaywindow.cpp</text>
</a>
</g>
</g>
<!-- Node1&#45;&gt;Node4 -->
<g id="edge3" class="edge">
<title>Node1&#45;&gt;Node4</title>
<path fill="none" stroke="midnightblue" d="M264.25,-52.77C290.17,-42.63 326.36,-28.47 349.24,-19.52"/>
<polygon fill="midnightblue" stroke="midnightblue" points="262.9,-49.54 254.87,-56.44 265.45,-56.06 262.9,-49.54"/>
</g>
</g>
</svg>
