<?xml version="1.0" encoding="UTF-8" standalone="no"?>
<!DOCTYPE svg PUBLIC "-//W3C//DTD SVG 1.1//EN"
 "http://www.w3.org/Graphics/SVG/1.1/DTD/svg11.dtd">
<!-- Generated by graphviz version 2.43.0 (0)
 -->
<!-- Title: item.h Pages: 1 -->
<!--zoomable 196 -->
<svg id="main" version="1.1" xmlns="http://www.w3.org/2000/svg" xmlns:xlink="http://www.w3.org/1999/xlink" xml:space="preserve" onload="init(evt)">
<style type="text/css"><![CDATA[
.edge:hover path { stroke: red; }
.edge:hover polygon { stroke: red; fill: red; }
]]></style>
<script type="text/javascript"><![CDATA[
var edges = document.getElementsByTagName('g');
if (edges && edges.length) {
  for (var i=0;i<edges.length;i++) {
    if (edges[i].id.substr(0,4)=='edge') {
      edges[i].setAttribute('class','edge');
    }
  }
}
]]></script>
        <defs>
                <circle id="rim" cx="0" cy="0" r="7"/>
                <circle id="rim2" cx="0" cy="0" r="3.5"/>
                <g id="zoomPlus">
                        <use xlink:href="#rim" fill="#404040">
                                <set attributeName="fill" to="#808080" begin="zoomplus.mouseover" end="zoomplus.mouseout"/>
                        </use>
                        <path d="M-4,0h8M0,-4v8" fill="none" stroke="white" stroke-width="1.5" pointer-events="none"/>
                </g>
                <g id="zoomMin">
                        <use xlink:href="#rim" fill="#404040">
                                <set attributeName="fill" to="#808080" begin="zoomminus.mouseover" end="zoomminus.mouseout"/>
                        </use>
                        <path d="M-4,0h8" fill="none" stroke="white" stroke-width="1.5" pointer-events="none"/>
                </g>
                <g id="dirArrow">
                        <path fill="none" stroke="white" stroke-width="1.5" d="M0,-3.0v7 M-2.5,-0.5L0,-3.0L2.5,-0.5"/>
                </g>
               <g id="resetDef">
                       <use xlink:href="#rim2" fill="#404040">
                               <set attributeName="fill" to="#808080" begin="reset.mouseover" end="reset.mouseout"/>
                       </use>
               </g>
        </defs>

<script type="text/javascript">
var viewWidth = 2401;
var viewHeight = 196;
var sectionId = 'dynsection-0';
</script>
<script xlink:href="../../svgpan.js"/>
<svg id="graph" class="graph">
<g id="viewport">
<title>item.h</title>
<polygon fill="white" stroke="transparent" points="-4,4 -4,-192 2396.5,-192 2396.5,4 -4,4"/>
<!-- Node1 -->
<g id="node1" class="node">
<title>Node1</title>
<g id="a_node1"><a xlink:title=" ">
<polygon fill="#bfbfbf" stroke="black" points="1999.5,-168.5 1999.5,-187.5 2047.5,-187.5 2047.5,-168.5 1999.5,-168.5"/>
<text text-anchor="middle" x="2023.5" y="-175.5" font-family="Helvetica,sans-Serif" font-size="10.00">item.h</text>
</a>
</g>
</g>
<!-- Node2 -->
<g id="node2" class="node">
<title>Node2</title>
<g id="a_node2"><a xlink:href="../../d8/d4f/btbookshelftreemodel_8h.html" target="_top" xlink:title=" ">
<polygon fill="white" stroke="black" points="942,-112.5 942,-131.5 1075,-131.5 1075,-112.5 942,-112.5"/>
<text text-anchor="middle" x="1008.5" y="-119.5" font-family="Helvetica,sans-Serif" font-size="10.00">btbookshelftreemodel.h</text>
</a>
</g>
</g>
<!-- Node1&#45;&gt;Node2 -->
<g id="edge1" class="edge">
<title>Node1&#45;&gt;Node2</title>
<path fill="none" stroke="midnightblue" d="M1989.27,-175.18C1843.36,-167.42 1271.88,-137.01 1075.33,-126.56"/>
<polygon fill="midnightblue" stroke="midnightblue" points="1989.24,-178.68 1999.41,-175.72 1989.61,-171.69 1989.24,-178.68"/>
</g>
<!-- Node23 -->
<g id="node23" class="node">
<title>Node23</title>
<g id="a_node23"><a xlink:href="../../d5/d95/categoryitem_8h.html" target="_top" xlink:title=" ">
<polygon fill="white" stroke="black" points="1924,-112.5 1924,-131.5 2015,-131.5 2015,-112.5 1924,-112.5"/>
<text text-anchor="middle" x="1969.5" y="-119.5" font-family="Helvetica,sans-Serif" font-size="10.00">categoryitem.h</text>
</a>
</g>
</g>
<!-- Node1&#45;&gt;Node23 -->
<g id="edge32" class="edge">
<title>Node1&#45;&gt;Node23</title>
<path fill="none" stroke="midnightblue" d="M2007.5,-161C1997.93,-151.43 1986.14,-139.64 1978.25,-131.75"/>
<polygon fill="midnightblue" stroke="midnightblue" points="2005.04,-163.49 2014.58,-168.08 2009.99,-158.54 2005.04,-163.49"/>
</g>
<!-- Node25 -->
<g id="node25" class="node">
<title>Node25</title>
<g id="a_node25"><a xlink:href="../../d3/d27/indexingitem_8h.html" target="_top" xlink:title=" ">
<polygon fill="white" stroke="black" points="2033.5,-112.5 2033.5,-131.5 2123.5,-131.5 2123.5,-112.5 2033.5,-112.5"/>
<text text-anchor="middle" x="2078.5" y="-119.5" font-family="Helvetica,sans-Serif" font-size="10.00">indexingitem.h</text>
</a>
</g>
</g>
<!-- Node1&#45;&gt;Node25 -->
<g id="edge35" class="edge">
<title>Node1&#45;&gt;Node25</title>
<path fill="none" stroke="midnightblue" d="M2039.79,-161C2049.54,-151.43 2061.55,-139.64 2069.59,-131.75"/>
<polygon fill="midnightblue" stroke="midnightblue" points="2037.27,-158.58 2032.58,-168.08 2042.17,-163.57 2037.27,-158.58"/>
</g>
<!-- Node27 -->
<g id="node27" class="node">
<title>Node27</title>
<g id="a_node27"><a xlink:href="../../dd/d6f/languageitem_8h.html" target="_top" xlink:title=" ">
<polygon fill="white" stroke="black" points="2142,-112.5 2142,-131.5 2235,-131.5 2235,-112.5 2142,-112.5"/>
<text text-anchor="middle" x="2188.5" y="-119.5" font-family="Helvetica,sans-Serif" font-size="10.00">languageitem.h</text>
</a>
</g>
</g>
<!-- Node1&#45;&gt;Node27 -->
<g id="edge38" class="edge">
<title>Node1&#45;&gt;Node27</title>
<path fill="none" stroke="midnightblue" d="M2057.41,-165.9C2088.55,-155.71 2134.03,-140.83 2162.42,-131.54"/>
<polygon fill="midnightblue" stroke="midnightblue" points="2056.26,-162.6 2047.85,-169.03 2058.44,-169.25 2056.26,-162.6"/>
</g>
<!-- Node29 -->
<g id="node29" class="node">
<title>Node29</title>
<g id="a_node29"><a xlink:href="../../d7/ddc/moduleitem_8h.html" target="_top" xlink:title=" ">
<polygon fill="white" stroke="black" points="1821,-112.5 1821,-131.5 1906,-131.5 1906,-112.5 1821,-112.5"/>
<text text-anchor="middle" x="1863.5" y="-119.5" font-family="Helvetica,sans-Serif" font-size="10.00">moduleitem.h</text>
</a>
</g>
</g>
<!-- Node1&#45;&gt;Node29 -->
<g id="edge41" class="edge">
<title>Node1&#45;&gt;Node29</title>
<path fill="none" stroke="midnightblue" d="M1989.53,-165.53C1959.38,-155.36 1916.02,-140.73 1888.82,-131.55"/>
<polygon fill="midnightblue" stroke="midnightblue" points="1988.61,-168.92 1999.2,-168.8 1990.84,-162.28 1988.61,-168.92"/>
</g>
<!-- Node30 -->
<g id="node30" class="node">
<title>Node30</title>
<g id="a_node30"><a xlink:href="../../de/de4/item_8cpp.html" target="_top" xlink:title=" ">
<polygon fill="white" stroke="black" points="2253,-112.5 2253,-131.5 2312,-131.5 2312,-112.5 2253,-112.5"/>
<text text-anchor="middle" x="2282.5" y="-119.5" font-family="Helvetica,sans-Serif" font-size="10.00">item.cpp</text>
</a>
</g>
</g>
<!-- Node1&#45;&gt;Node30 -->
<g id="edge44" class="edge">
<title>Node1&#45;&gt;Node30</title>
<path fill="none" stroke="midnightblue" d="M2057.8,-170.37C2101.31,-161.87 2178.62,-146.51 2244.5,-132 2247.15,-131.42 2249.9,-130.8 2252.65,-130.16"/>
<polygon fill="midnightblue" stroke="midnightblue" points="2056.9,-166.98 2047.75,-172.32 2058.24,-173.85 2056.9,-166.98"/>
</g>
<!-- Node3 -->
<g id="node3" class="node">
<title>Node3</title>
<g id="a_node3"><a xlink:href="../../d9/d0b/btbookshelftreemodel_8cpp.html" target="_top" xlink:title=" ">
<polygon fill="white" stroke="black" points="2006.5,-56.5 2006.5,-75.5 2150.5,-75.5 2150.5,-56.5 2006.5,-56.5"/>
<text text-anchor="middle" x="2078.5" y="-63.5" font-family="Helvetica,sans-Serif" font-size="10.00">btbookshelftreemodel.cpp</text>
</a>
</g>
</g>
<!-- Node2&#45;&gt;Node3 -->
<g id="edge2" class="edge">
<title>Node2&#45;&gt;Node3</title>
<path fill="none" stroke="midnightblue" d="M1085.29,-119.21C1251.72,-114.96 1658.04,-102.55 1997.5,-76 2000.32,-75.78 2003.2,-75.54 2006.1,-75.28"/>
<polygon fill="midnightblue" stroke="midnightblue" points="1085.06,-115.72 1075.15,-119.47 1085.24,-122.71 1085.06,-115.72"/>
</g>
<!-- Node4 -->
<g id="node4" class="node">
<title>Node4</title>
<g id="a_node4"><a xlink:href="../../dc/d32/moduleitem_8cpp.html" target="_top" xlink:title=" ">
<polygon fill="white" stroke="black" points="1772.5,-56.5 1772.5,-75.5 1868.5,-75.5 1868.5,-56.5 1772.5,-56.5"/>
<text text-anchor="middle" x="1820.5" y="-63.5" font-family="Helvetica,sans-Serif" font-size="10.00">moduleitem.cpp</text>
</a>
</g>
</g>
<!-- Node2&#45;&gt;Node4 -->
<g id="edge3" class="edge">
<title>Node2&#45;&gt;Node4</title>
<path fill="none" stroke="midnightblue" d="M1085.45,-118.88C1222.22,-114.56 1516.52,-102.8 1763.5,-76 1766.39,-75.69 1769.35,-75.33 1772.34,-74.94"/>
<polygon fill="midnightblue" stroke="midnightblue" points="1084.97,-115.39 1075.08,-119.2 1085.19,-122.39 1084.97,-115.39"/>
</g>
<!-- Node5 -->
<g id="node5" class="node">
<title>Node5</title>
<g id="a_node5"><a xlink:href="../../d4/d1c/btbookshelfdockwidget_8h.html" target="_top" xlink:title=" ">
<polygon fill="white" stroke="black" points="126.5,-56.5 126.5,-75.5 266.5,-75.5 266.5,-56.5 126.5,-56.5"/>
<text text-anchor="middle" x="196.5" y="-63.5" font-family="Helvetica,sans-Serif" font-size="10.00">btbookshelfdockwidget.h</text>
</a>
</g>
</g>
<!-- Node2&#45;&gt;Node5 -->
<g id="edge4" class="edge">
<title>Node2&#45;&gt;Node5</title>
<path fill="none" stroke="midnightblue" d="M931.56,-116.15C804.37,-108.09 542.28,-91.3 320.5,-76 303.06,-74.8 284.24,-73.45 266.66,-72.18"/>
<polygon fill="midnightblue" stroke="midnightblue" points="931.39,-119.64 941.59,-116.78 931.83,-112.66 931.39,-119.64"/>
</g>
<!-- Node8 -->
<g id="node8" class="node">
<title>Node8</title>
<g id="a_node8"><a xlink:href="../../df/d88/btbookshelfdockwidget_8cpp.html" target="_top" xlink:title=" ">
<polygon fill="white" stroke="black" points="101,-0.5 101,-19.5 252,-19.5 252,-0.5 101,-0.5"/>
<text text-anchor="middle" x="176.5" y="-7.5" font-family="Helvetica,sans-Serif" font-size="10.00">btbookshelfdockwidget.cpp</text>
</a>
</g>
</g>
<!-- Node2&#45;&gt;Node8 -->
<g id="edge24" class="edge">
<title>Node2&#45;&gt;Node8</title>
<path fill="none" stroke="midnightblue" d="M931.77,-121.66C811.57,-121.33 572.1,-115.17 373.5,-76 307.07,-62.9 231.97,-33.99 196.75,-19.55"/>
<polygon fill="midnightblue" stroke="midnightblue" points="931.96,-125.16 941.97,-121.67 931.97,-118.16 931.96,-125.16"/>
</g>
<!-- Node9 -->
<g id="node9" class="node">
<title>Node9</title>
<g id="a_node9"><a xlink:href="../../dd/d87/btopenworkaction_8h.html" target="_top" xlink:title=" ">
<polygon fill="white" stroke="black" points="383,-56.5 383,-75.5 496,-75.5 496,-56.5 383,-56.5"/>
<text text-anchor="middle" x="439.5" y="-63.5" font-family="Helvetica,sans-Serif" font-size="10.00">btopenworkaction.h</text>
</a>
</g>
</g>
<!-- Node2&#45;&gt;Node9 -->
<g id="edge8" class="edge">
<title>Node2&#45;&gt;Node9</title>
<path fill="none" stroke="midnightblue" d="M931.87,-114.94C834.01,-107 659.5,-92.17 510.5,-76 505.81,-75.49 500.94,-74.93 496.06,-74.36"/>
<polygon fill="midnightblue" stroke="midnightblue" points="931.72,-118.44 941.97,-115.75 932.28,-111.46 931.72,-118.44"/>
</g>
<!-- Node10 -->
<g id="node10" class="node">
<title>Node10</title>
<g id="a_node10"><a xlink:href="../../d9/d62/btopenworkaction_8cpp.html" target="_top" xlink:title=" ">
<polygon fill="white" stroke="black" points="392.5,-0.5 392.5,-19.5 516.5,-19.5 516.5,-0.5 392.5,-0.5"/>
<text text-anchor="middle" x="454.5" y="-7.5" font-family="Helvetica,sans-Serif" font-size="10.00">btopenworkaction.cpp</text>
</a>
</g>
</g>
<!-- Node2&#45;&gt;Node10 -->
<g id="edge27" class="edge">
<title>Node2&#45;&gt;Node10</title>
<path fill="none" stroke="midnightblue" d="M931.7,-118.47C818.42,-113.92 612.48,-102.25 543.5,-76 509.88,-63.21 477.64,-34.15 462.89,-19.61"/>
<polygon fill="midnightblue" stroke="midnightblue" points="931.57,-121.97 941.7,-118.87 931.85,-114.98 931.57,-121.97"/>
</g>
<!-- Node11 -->
<g id="node11" class="node">
<title>Node11</title>
<g id="a_node11"><a xlink:href="../../d6/d8d/btbookshelfworkspage_8h.html" target="_top" xlink:title=" ">
<polygon fill="white" stroke="black" points="552.5,-56.5 552.5,-75.5 688.5,-75.5 688.5,-56.5 552.5,-56.5"/>
<text text-anchor="middle" x="620.5" y="-63.5" font-family="Helvetica,sans-Serif" font-size="10.00">btbookshelfworkspage.h</text>
</a>
</g>
</g>
<!-- Node2&#45;&gt;Node11 -->
<g id="edge11" class="edge">
<title>Node2&#45;&gt;Node11</title>
<path fill="none" stroke="midnightblue" d="M936.95,-111.04C863.67,-100.84 750.96,-85.16 681.69,-75.52"/>
<polygon fill="midnightblue" stroke="midnightblue" points="936.63,-114.53 947.02,-112.44 937.6,-107.6 936.63,-114.53"/>
</g>
<!-- Node13 -->
<g id="node13" class="node">
<title>Node13</title>
<g id="a_node13"><a xlink:href="../../d9/d03/btbookshelfworkspage_8cpp.html" target="_top" xlink:title=" ">
<polygon fill="white" stroke="black" points="679,-0.5 679,-19.5 826,-19.5 826,-0.5 679,-0.5"/>
<text text-anchor="middle" x="752.5" y="-7.5" font-family="Helvetica,sans-Serif" font-size="10.00">btbookshelfworkspage.cpp</text>
</a>
</g>
</g>
<!-- Node2&#45;&gt;Node13 -->
<g id="edge14" class="edge">
<title>Node2&#45;&gt;Node13</title>
<path fill="none" stroke="midnightblue" d="M931.49,-119.07C859.75,-115.45 760.24,-105.15 735.5,-76 721.61,-59.64 736.47,-33.22 745.93,-19.65"/>
<polygon fill="midnightblue" stroke="midnightblue" points="931.71,-122.58 941.86,-119.55 932.04,-115.59 931.71,-122.58"/>
</g>
<!-- Node14 -->
<g id="node14" class="node">
<title>Node14</title>
<g id="a_node14"><a xlink:href="../../dc/dd2/btbookshelfgroupingmenu_8h.html" target="_top" xlink:title=" ">
<polygon fill="white" stroke="black" points="744.5,-56.5 744.5,-75.5 898.5,-75.5 898.5,-56.5 744.5,-56.5"/>
<text text-anchor="middle" x="821.5" y="-63.5" font-family="Helvetica,sans-Serif" font-size="10.00">btbookshelfgroupingmenu.h</text>
</a>
</g>
</g>
<!-- Node2&#45;&gt;Node14 -->
<g id="edge15" class="edge">
<title>Node2&#45;&gt;Node14</title>
<path fill="none" stroke="midnightblue" d="M968.91,-109.57C933.63,-99.38 882.81,-84.7 850.99,-75.52"/>
<polygon fill="midnightblue" stroke="midnightblue" points="968.29,-113.03 978.87,-112.44 970.23,-106.31 968.29,-113.03"/>
</g>
<!-- Node15 -->
<g id="node15" class="node">
<title>Node15</title>
<g id="a_node15"><a xlink:href="../../d8/d44/btbookshelfgroupingmenu_8cpp.html" target="_top" xlink:title=" ">
<polygon fill="white" stroke="black" points="844,-0.5 844,-19.5 1009,-19.5 1009,-0.5 844,-0.5"/>
<text text-anchor="middle" x="926.5" y="-7.5" font-family="Helvetica,sans-Serif" font-size="10.00">btbookshelfgroupingmenu.cpp</text>
</a>
</g>
</g>
<!-- Node2&#45;&gt;Node15 -->
<g id="edge25" class="edge">
<title>Node2&#45;&gt;Node15</title>
<path fill="none" stroke="midnightblue" d="M984.76,-107.06C973.1,-99.2 959.62,-88.45 950.5,-76 937.56,-58.34 930.89,-32.94 928.11,-19.73"/>
<polygon fill="midnightblue" stroke="midnightblue" points="982.92,-110.04 993.23,-112.49 986.7,-104.14 982.92,-110.04"/>
</g>
<!-- Node16 -->
<g id="node16" class="node">
<title>Node16</title>
<g id="a_node16"><a xlink:href="../../d9/d70/btbookshelfwidget_8cpp.html" target="_top" xlink:title=" ">
<polygon fill="white" stroke="black" points="1027,-0.5 1027,-19.5 1154,-19.5 1154,-0.5 1027,-0.5"/>
<text text-anchor="middle" x="1090.5" y="-7.5" font-family="Helvetica,sans-Serif" font-size="10.00">btbookshelfwidget.cpp</text>
</a>
</g>
</g>
<!-- Node2&#45;&gt;Node16 -->
<g id="edge26" class="edge">
<title>Node2&#45;&gt;Node16</title>
<path fill="none" stroke="midnightblue" d="M993.89,-104.37C983.68,-90.64 973.51,-71.04 983.5,-56 996.21,-36.86 1018.82,-25.85 1039.99,-19.51"/>
<polygon fill="midnightblue" stroke="midnightblue" points="991.39,-106.85 1000.39,-112.44 996.84,-102.46 991.39,-106.85"/>
</g>
<!-- Node17 -->
<g id="node17" class="node">
<title>Node17</title>
<g id="a_node17"><a xlink:href="../../df/d56/btinstallpagemodel_8h.html" target="_top" xlink:title=" ">
<polygon fill="white" stroke="black" points="992.5,-56.5 992.5,-75.5 1112.5,-75.5 1112.5,-56.5 992.5,-56.5"/>
<text text-anchor="middle" x="1052.5" y="-63.5" font-family="Helvetica,sans-Serif" font-size="10.00">btinstallpagemodel.h</text>
</a>
</g>
</g>
<!-- Node2&#45;&gt;Node17 -->
<g id="edge20" class="edge">
<title>Node2&#45;&gt;Node17</title>
<path fill="none" stroke="midnightblue" d="M1022.23,-104.14C1029.9,-94.74 1039.13,-83.4 1045.37,-75.75"/>
<polygon fill="midnightblue" stroke="midnightblue" points="1019.37,-102.12 1015.77,-112.08 1024.8,-106.54 1019.37,-102.12"/>
</g>
<!-- Node18 -->
<g id="node18" class="node">
<title>Node18</title>
<g id="a_node18"><a xlink:href="../../dd/dba/btinstallpagemodel_8cpp.html" target="_top" xlink:title=" ">
<polygon fill="white" stroke="black" points="1172,-0.5 1172,-19.5 1303,-19.5 1303,-0.5 1172,-0.5"/>
<text text-anchor="middle" x="1237.5" y="-7.5" font-family="Helvetica,sans-Serif" font-size="10.00">btinstallpagemodel.cpp</text>
</a>
</g>
</g>
<!-- Node2&#45;&gt;Node18 -->
<g id="edge23" class="edge">
<title>Node2&#45;&gt;Node18</title>
<path fill="none" stroke="midnightblue" d="M1042.24,-108.9C1064.97,-100.42 1095.43,-88.43 1121.5,-76 1141.4,-66.51 1196.18,-35 1222.71,-19.61"/>
<polygon fill="midnightblue" stroke="midnightblue" points="1040.87,-105.67 1032.7,-112.42 1043.29,-112.24 1040.87,-105.67"/>
</g>
<!-- Node19 -->
<g id="node19" class="node">
<title>Node19</title>
<g id="a_node19"><a xlink:href="../../dd/ddc/btmodulechoosermenu_8cpp.html" target="_top" xlink:title=" ">
<polygon fill="white" stroke="black" points="1168,-56.5 1168,-75.5 1317,-75.5 1317,-56.5 1168,-56.5"/>
<text text-anchor="middle" x="1242.5" y="-63.5" font-family="Helvetica,sans-Serif" font-size="10.00">btmodulechoosermenu.cpp</text>
</a>
</g>
</g>
<!-- Node2&#45;&gt;Node19 -->
<g id="edge28" class="edge">
<title>Node2&#45;&gt;Node19</title>
<path fill="none" stroke="midnightblue" d="M1055.5,-110.15C1099.72,-99.95 1165.02,-84.88 1205.6,-75.52"/>
<polygon fill="midnightblue" stroke="midnightblue" points="1054.53,-106.78 1045.58,-112.44 1056.11,-113.61 1054.53,-106.78"/>
</g>
<!-- Node20 -->
<g id="node20" class="node">
<title>Node20</title>
<g id="a_node20"><a xlink:href="../../df/d0a/main_8cpp.html" target="_top" xlink:title=" ">
<polygon fill="white" stroke="black" points="1334.5,-56.5 1334.5,-75.5 1396.5,-75.5 1396.5,-56.5 1334.5,-56.5"/>
<text text-anchor="middle" x="1365.5" y="-63.5" font-family="Helvetica,sans-Serif" font-size="10.00">main.cpp</text>
</a>
</g>
</g>
<!-- Node2&#45;&gt;Node20 -->
<g id="edge29" class="edge">
<title>Node2&#45;&gt;Node20</title>
<path fill="none" stroke="midnightblue" d="M1085.26,-112.02C1149.86,-104.02 1244.54,-91.23 1326.5,-76 1329.1,-75.52 1331.78,-74.98 1334.47,-74.41"/>
<polygon fill="midnightblue" stroke="midnightblue" points="1084.66,-108.57 1075.16,-113.26 1085.51,-115.52 1084.66,-108.57"/>
</g>
<!-- Node21 -->
<g id="node21" class="node">
<title>Node21</title>
<g id="a_node21"><a xlink:href="../../dc/dab/btsearchmodulechooserdialog_8cpp.html" target="_top" xlink:title=" ">
<polygon fill="white" stroke="black" points="1414.5,-56.5 1414.5,-75.5 1598.5,-75.5 1598.5,-56.5 1414.5,-56.5"/>
<text text-anchor="middle" x="1506.5" y="-63.5" font-family="Helvetica,sans-Serif" font-size="10.00">btsearchmodulechooserdialog.cpp</text>
</a>
</g>
</g>
<!-- Node2&#45;&gt;Node21 -->
<g id="edge30" class="edge">
<title>Node2&#45;&gt;Node21</title>
<path fill="none" stroke="midnightblue" d="M1085.34,-112.67C1178.35,-102.58 1334.16,-85.69 1427.95,-75.52"/>
<polygon fill="midnightblue" stroke="midnightblue" points="1084.71,-109.22 1075.15,-113.77 1085.46,-116.17 1084.71,-109.22"/>
</g>
<!-- Node22 -->
<g id="node22" class="node">
<title>Node22</title>
<g id="a_node22"><a xlink:href="../../d4/d4d/btsearchoptionsarea_8cpp.html" target="_top" xlink:title=" ">
<polygon fill="white" stroke="black" points="1617,-56.5 1617,-75.5 1754,-75.5 1754,-56.5 1617,-56.5"/>
<text text-anchor="middle" x="1685.5" y="-63.5" font-family="Helvetica,sans-Serif" font-size="10.00">btsearchoptionsarea.cpp</text>
</a>
</g>
</g>
<!-- Node2&#45;&gt;Node22 -->
<g id="edge31" class="edge">
<title>Node2&#45;&gt;Node22</title>
<path fill="none" stroke="midnightblue" d="M1085.08,-116.23C1199.06,-108.9 1420.06,-93.85 1607.5,-76 1610.49,-75.72 1613.53,-75.41 1616.61,-75.1"/>
<polygon fill="midnightblue" stroke="midnightblue" points="1084.81,-112.74 1075.05,-116.87 1085.26,-119.72 1084.81,-112.74"/>
</g>
<!-- Node6 -->
<g id="node6" class="node">
<title>Node6</title>
<g id="a_node6"><a xlink:href="../../d1/df6/bibletime_8cpp.html" target="_top" xlink:title=" ">
<polygon fill="white" stroke="black" points="0,-0.5 0,-19.5 83,-19.5 83,-0.5 0,-0.5"/>
<text text-anchor="middle" x="41.5" y="-7.5" font-family="Helvetica,sans-Serif" font-size="10.00">bibletime.cpp</text>
</a>
</g>
</g>
<!-- Node5&#45;&gt;Node6 -->
<g id="edge5" class="edge">
<title>Node5&#45;&gt;Node6</title>
<path fill="none" stroke="midnightblue" d="M162.17,-53.04C133,-42.88 91.86,-28.55 65.95,-19.52"/>
<polygon fill="midnightblue" stroke="midnightblue" points="161.34,-56.46 171.94,-56.44 163.65,-49.85 161.34,-56.46"/>
</g>
<!-- Node7 -->
<g id="node7" class="node">
<title>Node7</title>
<g id="a_node7"><a xlink:href="../../da/dc7/bibletime__init_8cpp.html" target="_top" xlink:title=" ">
<polygon fill="white" stroke="black" points="270.5,-0.5 270.5,-19.5 374.5,-19.5 374.5,-0.5 270.5,-0.5"/>
<text text-anchor="middle" x="322.5" y="-7.5" font-family="Helvetica,sans-Serif" font-size="10.00">bibletime_init.cpp</text>
</a>
</g>
</g>
<!-- Node5&#45;&gt;Node7 -->
<g id="edge6" class="edge">
<title>Node5&#45;&gt;Node7</title>
<path fill="none" stroke="midnightblue" d="M225.66,-52.5C249.28,-42.38 281.93,-28.39 302.63,-19.52"/>
<polygon fill="midnightblue" stroke="midnightblue" points="224.28,-49.29 216.47,-56.44 227.04,-55.72 224.28,-49.29"/>
</g>
<!-- Node5&#45;&gt;Node8 -->
<g id="edge7" class="edge">
<title>Node5&#45;&gt;Node8</title>
<path fill="none" stroke="midnightblue" d="M189.72,-46.69C186.35,-37.59 182.43,-27.01 179.74,-19.75"/>
<polygon fill="midnightblue" stroke="midnightblue" points="186.44,-47.92 193.2,-56.08 193.01,-45.49 186.44,-47.92"/>
</g>
<!-- Node9&#45;&gt;Node7 -->
<g id="edge9" class="edge">
<title>Node9&#45;&gt;Node7</title>
<path fill="none" stroke="midnightblue" d="M411.84,-52.23C389.95,-42.13 360,-28.31 340.95,-19.52"/>
<polygon fill="midnightblue" stroke="midnightblue" points="410.41,-55.43 420.96,-56.44 413.35,-49.08 410.41,-55.43"/>
</g>
<!-- Node9&#45;&gt;Node10 -->
<g id="edge10" class="edge">
<title>Node9&#45;&gt;Node10</title>
<path fill="none" stroke="midnightblue" d="M444.67,-46.4C447.18,-37.36 450.07,-26.94 452.07,-19.75"/>
<polygon fill="midnightblue" stroke="midnightblue" points="441.28,-45.51 441.98,-56.08 448.03,-47.38 441.28,-45.51"/>
</g>
<!-- Node12 -->
<g id="node12" class="node">
<title>Node12</title>
<g id="a_node12"><a xlink:href="../../d6/d54/btbookshelfwizard_8cpp.html" target="_top" xlink:title=" ">
<polygon fill="white" stroke="black" points="534.5,-0.5 534.5,-19.5 660.5,-19.5 660.5,-0.5 534.5,-0.5"/>
<text text-anchor="middle" x="597.5" y="-7.5" font-family="Helvetica,sans-Serif" font-size="10.00">btbookshelfwizard.cpp</text>
</a>
</g>
</g>
<!-- Node11&#45;&gt;Node12 -->
<g id="edge12" class="edge">
<title>Node11&#45;&gt;Node12</title>
<path fill="none" stroke="midnightblue" d="M612.7,-46.69C608.82,-37.59 604.32,-27.01 601.23,-19.75"/>
<polygon fill="midnightblue" stroke="midnightblue" points="609.56,-48.25 616.7,-56.08 616,-45.51 609.56,-48.25"/>
</g>
<!-- Node11&#45;&gt;Node13 -->
<g id="edge13" class="edge">
<title>Node11&#45;&gt;Node13</title>
<path fill="none" stroke="midnightblue" d="M650.72,-52.64C675.49,-42.5 709.9,-28.43 731.68,-19.52"/>
<polygon fill="midnightblue" stroke="midnightblue" points="649.35,-49.42 641.42,-56.44 652,-55.9 649.35,-49.42"/>
</g>
<!-- Node14&#45;&gt;Node10 -->
<g id="edge19" class="edge">
<title>Node14&#45;&gt;Node10</title>
<path fill="none" stroke="midnightblue" d="M753.4,-54.98C684.07,-44.78 577.77,-29.14 512.38,-19.52"/>
<polygon fill="midnightblue" stroke="midnightblue" points="752.94,-58.45 763.35,-56.44 753.96,-51.53 752.94,-58.45"/>
</g>
<!-- Node14&#45;&gt;Node13 -->
<g id="edge16" class="edge">
<title>Node14&#45;&gt;Node13</title>
<path fill="none" stroke="midnightblue" d="M802.46,-50.1C790.04,-40.38 774.26,-28.03 763.79,-19.83"/>
<polygon fill="midnightblue" stroke="midnightblue" points="800.38,-52.92 810.41,-56.32 804.7,-47.4 800.38,-52.92"/>
</g>
<!-- Node14&#45;&gt;Node15 -->
<g id="edge17" class="edge">
<title>Node14&#45;&gt;Node15</title>
<path fill="none" stroke="midnightblue" d="M847.31,-51.73C866.75,-41.73 892.85,-28.31 909.67,-19.65"/>
<polygon fill="midnightblue" stroke="midnightblue" points="845.66,-48.64 838.37,-56.32 848.86,-54.86 845.66,-48.64"/>
</g>
<!-- Node14&#45;&gt;Node16 -->
<g id="edge18" class="edge">
<title>Node14&#45;&gt;Node16</title>
<path fill="none" stroke="midnightblue" d="M873.94,-54.47C924.78,-44.27 1000.94,-28.98 1048.08,-19.52"/>
<polygon fill="midnightblue" stroke="midnightblue" points="873.24,-51.04 864.12,-56.44 874.62,-57.91 873.24,-51.04"/>
</g>
<!-- Node17&#45;&gt;Node13 -->
<g id="edge21" class="edge">
<title>Node17&#45;&gt;Node13</title>
<path fill="none" stroke="midnightblue" d="M995.08,-54.66C938.38,-44.46 852.71,-29.04 799.81,-19.52"/>
<polygon fill="midnightblue" stroke="midnightblue" points="994.5,-58.12 1004.96,-56.44 995.74,-51.23 994.5,-58.12"/>
</g>
<!-- Node17&#45;&gt;Node18 -->
<g id="edge22" class="edge">
<title>Node17&#45;&gt;Node18</title>
<path fill="none" stroke="midnightblue" d="M1091.67,-53.57C1126.57,-43.38 1176.85,-28.7 1208.32,-19.52"/>
<polygon fill="midnightblue" stroke="midnightblue" points="1090.43,-50.28 1081.81,-56.44 1092.39,-57 1090.43,-50.28"/>
</g>
<!-- Node23&#45;&gt;Node3 -->
<g id="edge33" class="edge">
<title>Node23&#45;&gt;Node3</title>
<path fill="none" stroke="midnightblue" d="M1996.02,-107.86C2016.23,-97.85 2043.49,-84.35 2061.03,-75.65"/>
<polygon fill="midnightblue" stroke="midnightblue" points="1994.42,-104.75 1987.01,-112.32 1997.53,-111.02 1994.42,-104.75"/>
</g>
<!-- Node24 -->
<g id="node24" class="node">
<title>Node24</title>
<g id="a_node24"><a xlink:href="../../d3/d29/categoryitem_8cpp.html" target="_top" xlink:title=" ">
<polygon fill="white" stroke="black" points="1886.5,-56.5 1886.5,-75.5 1988.5,-75.5 1988.5,-56.5 1886.5,-56.5"/>
<text text-anchor="middle" x="1937.5" y="-63.5" font-family="Helvetica,sans-Serif" font-size="10.00">categoryitem.cpp</text>
</a>
</g>
</g>
<!-- Node23&#45;&gt;Node24 -->
<g id="edge34" class="edge">
<title>Node23&#45;&gt;Node24</title>
<path fill="none" stroke="midnightblue" d="M1959,-103.27C1953.53,-94.05 1947.08,-83.17 1942.69,-75.75"/>
<polygon fill="midnightblue" stroke="midnightblue" points="1956.11,-105.26 1964.22,-112.08 1962.13,-101.7 1956.11,-105.26"/>
</g>
<!-- Node25&#45;&gt;Node3 -->
<g id="edge36" class="edge">
<title>Node25&#45;&gt;Node3</title>
<path fill="none" stroke="midnightblue" d="M2078.5,-101.8C2078.5,-92.91 2078.5,-82.78 2078.5,-75.75"/>
<polygon fill="midnightblue" stroke="midnightblue" points="2075,-102.08 2078.5,-112.08 2082,-102.08 2075,-102.08"/>
</g>
<!-- Node26 -->
<g id="node26" class="node">
<title>Node26</title>
<g id="a_node26"><a xlink:href="../../d6/d93/indexingitem_8cpp.html" target="_top" xlink:title=" ">
<polygon fill="white" stroke="black" points="2169,-56.5 2169,-75.5 2270,-75.5 2270,-56.5 2169,-56.5"/>
<text text-anchor="middle" x="2219.5" y="-63.5" font-family="Helvetica,sans-Serif" font-size="10.00">indexingitem.cpp</text>
</a>
</g>
</g>
<!-- Node25&#45;&gt;Node26 -->
<g id="edge37" class="edge">
<title>Node25&#45;&gt;Node26</title>
<path fill="none" stroke="midnightblue" d="M2110.43,-108.77C2136.91,-98.63 2173.89,-84.47 2197.26,-75.52"/>
<polygon fill="midnightblue" stroke="midnightblue" points="2108.93,-105.6 2100.84,-112.44 2111.43,-112.14 2108.93,-105.6"/>
</g>
<!-- Node27&#45;&gt;Node3 -->
<g id="edge39" class="edge">
<title>Node27&#45;&gt;Node3</title>
<path fill="none" stroke="midnightblue" d="M2161.74,-107.86C2141.34,-97.85 2113.83,-84.35 2096.13,-75.65"/>
<polygon fill="midnightblue" stroke="midnightblue" points="2160.31,-111.06 2170.83,-112.32 2163.39,-104.78 2160.31,-111.06"/>
</g>
<!-- Node28 -->
<g id="node28" class="node">
<title>Node28</title>
<g id="a_node28"><a xlink:href="../../d9/d6e/languageitem_8cpp.html" target="_top" xlink:title=" ">
<polygon fill="white" stroke="black" points="2288.5,-56.5 2288.5,-75.5 2392.5,-75.5 2392.5,-56.5 2288.5,-56.5"/>
<text text-anchor="middle" x="2340.5" y="-63.5" font-family="Helvetica,sans-Serif" font-size="10.00">languageitem.cpp</text>
</a>
</g>
</g>
<!-- Node27&#45;&gt;Node28 -->
<g id="edge40" class="edge">
<title>Node27&#45;&gt;Node28</title>
<path fill="none" stroke="midnightblue" d="M2222.17,-109.04C2250.77,-98.88 2291.11,-84.55 2316.53,-75.52"/>
<polygon fill="midnightblue" stroke="midnightblue" points="2220.84,-105.8 2212.58,-112.44 2223.18,-112.39 2220.84,-105.8"/>
</g>
<!-- Node29&#45;&gt;Node3 -->
<g id="edge42" class="edge">
<title>Node29&#45;&gt;Node3</title>
<path fill="none" stroke="midnightblue" d="M1907.46,-109.96C1948.07,-99.76 2007.54,-84.82 2044.59,-75.52"/>
<polygon fill="midnightblue" stroke="midnightblue" points="1906.41,-106.61 1897.57,-112.44 1908.12,-113.4 1906.41,-106.61"/>
</g>
<!-- Node29&#45;&gt;Node4 -->
<g id="edge43" class="edge">
<title>Node29&#45;&gt;Node4</title>
<path fill="none" stroke="midnightblue" d="M1850.08,-104.14C1842.59,-94.74 1833.56,-83.4 1827.47,-75.75"/>
<polygon fill="midnightblue" stroke="midnightblue" points="1847.43,-106.44 1856.4,-112.08 1852.91,-102.08 1847.43,-106.44"/>
</g>
</g>
</svg>
        <g id="navigator" transform="translate(0 0)" fill="#404254">
                <rect fill="#f2f5e9" fill-opacity="0.5" stroke="#606060" stroke-width=".5" x="0" y="0" width="60" height="60"/>
                <use id="zoomplus" xlink:href="#zoomPlus" x="17" y="9" onmousedown="handleZoom(evt,'in')"/>
                <use id="zoomminus" xlink:href="#zoomMin" x="42" y="9" onmousedown="handleZoom(evt,'out')"/>
                <use id="reset" xlink:href="#resetDef" x="30" y="36" onmousedown="handleReset()"/>
                <g id="arrowUp" xlink:href="#dirArrow" transform="translate(30 24)" onmousedown="handlePan(0,-1)">
                  <use xlink:href="#rim" fill="#404040">
                        <set attributeName="fill" to="#808080" begin="arrowUp.mouseover" end="arrowUp.mouseout"/>
                  </use>
                  <path fill="none" stroke="white" stroke-width="1.5" d="M0,-3.0v7 M-2.5,-0.5L0,-3.0L2.5,-0.5"/>
                </g>
                <g id="arrowRight" xlink:href="#dirArrow" transform="rotate(90) translate(36 -43)" onmousedown="handlePan(1,0)">
                  <use xlink:href="#rim" fill="#404040">
                        <set attributeName="fill" to="#808080" begin="arrowRight.mouseover" end="arrowRight.mouseout"/>
                  </use>
                  <path fill="none" stroke="white" stroke-width="1.5" d="M0,-3.0v7 M-2.5,-0.5L0,-3.0L2.5,-0.5"/>
                </g>
                <g id="arrowDown" xlink:href="#dirArrow" transform="rotate(180) translate(-30 -48)" onmousedown="handlePan(0,1)">
                  <use xlink:href="#rim" fill="#404040">
                        <set attributeName="fill" to="#808080" begin="arrowDown.mouseover" end="arrowDown.mouseout"/>
                  </use>
                  <path fill="none" stroke="white" stroke-width="1.5" d="M0,-3.0v7 M-2.5,-0.5L0,-3.0L2.5,-0.5"/>
                </g>
                <g id="arrowLeft" xlink:href="#dirArrow" transform="rotate(270) translate(-36 17)" onmousedown="handlePan(-1,0)">
                  <use xlink:href="#rim" fill="#404040">
                        <set attributeName="fill" to="#808080" begin="arrowLeft.mouseover" end="arrowLeft.mouseout"/>
                  </use>
                  <path fill="none" stroke="white" stroke-width="1.5" d="M0,-3.0v7 M-2.5,-0.5L0,-3.0L2.5,-0.5"/>
                </g>
        </g>
        <svg viewBox="0 0 15 15" width="100%" height="30px" preserveAspectRatio="xMaxYMin meet">
         <g id="arrow_out" transform="scale(0.3 0.3)">
          <a xlink:href="item_8h__dep__incl_org.svg" target="_base">
           <rect id="button" ry="5" rx="5" y="6" x="6" height="38" width="38"
                fill="#f2f5e9" fill-opacity="0.5" stroke="#606060" stroke-width="1.0"/>
           <path id="arrow"
             d="M 11.500037,31.436501 C 11.940474,20.09759 22.043105,11.32322 32.158766,21.979434 L 37.068811,17.246167 C 37.068811,17.246167 37.088388,32 37.088388,32 L 22.160133,31.978069 C 22.160133,31.978069 26.997745,27.140456 26.997745,27.140456 C 18.528582,18.264221 13.291696,25.230495 11.500037,31.436501 z"
             style="fill:#404040;"/>
          </a>
         </g>
        </svg>
</svg>
