<?xml version="1.0" encoding="UTF-8" standalone="no"?>
<!DOCTYPE svg PUBLIC "-//W3C//DTD SVG 1.1//EN"
 "http://www.w3.org/Graphics/SVG/1.1/DTD/svg11.dtd">
<!-- Generated by graphviz version 2.43.0 (0)
 -->
<!-- Title: item.h Pages: 1 -->
<!--zoomable 192 -->

<svg id="main" version="1.1" xmlns="http://www.w3.org/2000/svg" xmlns:xlink="http://www.w3.org/1999/xlink" xml:space="preserve" onload="init(evt)">
<style type="text/css"><![CDATA[
.node, .edge {opacity: 0.7;}
.node.selected, .edge.selected {opacity: 1;}
.edge:hover path { stroke: red; }
.edge:hover polygon { stroke: red; fill: red; }
]]></style>

<defs>
  <circle id="rim" cx="0" cy="0" r="7"/>
  <circle id="rim2" cx="0" cy="0" r="3.5"/>
  <g id="zoomPlus">
    <use xlink:href="#rim" fill="#404040"><set attributeName="fill" to="#808080" begin="zoomplus.mouseover" end="zoomplus.mouseout"/></use>
    <path d="M-4,0h8M0,-4v8" fill="none" stroke="white" stroke-width="1.5" pointer-events="none"/>
  </g>
  <g id="zoomMin">
    <use xlink:href="#rim" fill="#404040"><set attributeName="fill" to="#808080" begin="zoomminus.mouseover" end="zoomminus.mouseout"/></use>
    <path d="M-4,0h8" fill="none" stroke="white" stroke-width="1.5" pointer-events="none"/>
  </g>
  <g id="arrowUp" transform="translate(30 24)">
    <use xlink:href="#rim"/>
    <path pointer-events="none" fill="none" stroke="white" stroke-width="1.5" d="M0,-3.0v7 M-2.5,-0.5L0,-3.0L2.5,-0.5"/>
  </g>
  <g id="arrowRight" transform="rotate(90) translate(36 -43)">
    <use xlink:href="#rim"/>
    <path pointer-events="none" fill="none" stroke="white" stroke-width="1.5" d="M0,-3.0v7 M-2.5,-0.5L0,-3.0L2.5,-0.5"/>
  </g>
  <g id="arrowDown" transform="rotate(180) translate(-30 -48)">
    <use xlink:href="#rim"/>
    <path pointer-events="none" fill="none" stroke="white" stroke-width="1.5" d="M0,-3.0v7 M-2.5,-0.5L0,-3.0L2.5,-0.5"/>
  </g>
  <g id="arrowLeft" transform="rotate(270) translate(-36 17)">
    <use xlink:href="#rim"/>
    <path pointer-events="none" fill="none" stroke="white" stroke-width="1.5" d="M0,-3.0v7 M-2.5,-0.5L0,-3.0L2.5,-0.5"/>
  </g>
  <g id="resetDef">
    <use xlink:href="#rim2" fill="#404040"><set attributeName="fill" to="#808080" begin="reset.mouseover" end="reset.mouseout"/></use>
  </g>
</defs>
<script type="application/ecmascript">
var viewWidth = 2038;
var viewHeight = 192;
var sectionId = 'dynsection-0';
</script>
<script type="application/ecmascript" xlink:href="../../svg.min.js"/>
<svg id="graph" class="graph">
<g id="viewport">
<title>item.h</title>
<!-- Node1 -->
<g id="Node000001" class="node">
<title>Node1</title>
<g id="a_Node000001"><a xlink:title=" ">
<polygon fill="#999999" stroke="#666666" points="1674.04,-184 1626.04,-184 1626.04,-165 1674.04,-165 1674.04,-184"/>
<text text-anchor="middle" x="1650.04" y="-172" font-family="Helvetica,sans-Serif" font-size="10.00">item.h</text>
</a>
</g>
</g>
<!-- Node2 -->
<g id="Node000002" class="node">
<title>Node2</title>
<g id="a_Node000002"><a xlink:href="../../d8/d4f/btbookshelftreemodel_8h.html" target="_top" xlink:title=" ">
<polygon fill="white" stroke="#666666" points="975.54,-129 842.54,-129 842.54,-110 975.54,-110 975.54,-129"/>
<text text-anchor="middle" x="909.04" y="-117" font-family="Helvetica,sans-Serif" font-size="10.00">btbookshelftreemodel.h</text>
</a>
</g>
</g>
<!-- Node1&#45;&gt;Node2 -->
<g id="edge1_Node000001_Node000002" class="edge">
<title>Node1&#45;&gt;Node2</title>
<g id="a_edge1_Node000001_Node000002"><a xlink:title=" ">
<path fill="none" stroke="#63b8ff" d="M1615.49,-171.03C1500.4,-162.8 1128.72,-136.21 975.76,-125.27"/>
<polygon fill="#63b8ff" stroke="#63b8ff" points="1615.58,-174.54 1625.81,-171.77 1616.08,-167.56 1615.58,-174.54"/>
</a>
</g>
</g>
<!-- Node22 -->
<g id="Node000022" class="node">
<title>Node22</title>
<g id="a_Node000022"><a xlink:href="../../d5/d95/categoryitem_8h.html" target="_top" xlink:title=" ">
<polygon fill="white" stroke="#666666" points="1641.54,-129 1550.54,-129 1550.54,-110 1641.54,-110 1641.54,-129"/>
<text text-anchor="middle" x="1596.04" y="-117" font-family="Helvetica,sans-Serif" font-size="10.00">categoryitem.h</text>
</a>
</g>
</g>
<!-- Node1&#45;&gt;Node22 -->
<g id="edge31_Node000001_Node000022" class="edge">
<title>Node1&#45;&gt;Node22</title>
<g id="a_edge31_Node000001_Node000022"><a xlink:title=" ">
<path fill="none" stroke="#63b8ff" d="M1633.76,-157.52C1624.24,-148.18 1612.6,-136.75 1604.79,-129.09"/>
<polygon fill="#63b8ff" stroke="#63b8ff" points="1631.54,-160.24 1641.13,-164.75 1636.44,-155.25 1631.54,-160.24"/>
</a>
</g>
</g>
<!-- Node24 -->
<g id="Node000024" class="node">
<title>Node24</title>
<g id="a_Node000024"><a xlink:href="../../d3/d27/indexingitem_8h.html" target="_top" xlink:title=" ">
<polygon fill="white" stroke="#666666" points="1750.04,-129 1660.04,-129 1660.04,-110 1750.04,-110 1750.04,-129"/>
<text text-anchor="middle" x="1705.04" y="-117" font-family="Helvetica,sans-Serif" font-size="10.00">indexingitem.h</text>
</a>
</g>
</g>
<!-- Node1&#45;&gt;Node24 -->
<g id="edge34_Node000001_Node000024" class="edge">
<title>Node1&#45;&gt;Node24</title>
<g id="a_edge34_Node000001_Node000024"><a xlink:title=" ">
<path fill="none" stroke="#63b8ff" d="M1666.34,-157.8C1676.08,-148.41 1688.1,-136.83 1696.13,-129.09"/>
<polygon fill="#63b8ff" stroke="#63b8ff" points="1663.9,-155.29 1659.12,-164.75 1668.75,-160.33 1663.9,-155.29"/>
</a>
</g>
</g>
<!-- Node26 -->
<g id="Node000026" class="node">
<title>Node26</title>
<g id="a_Node000026"><a xlink:href="../../de/de4/item_8cpp.html" target="_top" xlink:title=" ">
<polygon fill="white" stroke="#666666" points="1938.54,-129 1879.54,-129 1879.54,-110 1938.54,-110 1938.54,-129"/>
<text text-anchor="middle" x="1909.04" y="-117" font-family="Helvetica,sans-Serif" font-size="10.00">item.cpp</text>
</a>
</g>
</g>
<!-- Node1&#45;&gt;Node26 -->
<g id="edge37_Node000001_Node000026" class="edge">
<title>Node1&#45;&gt;Node26</title>
<g id="a_edge37_Node000001_Node000026"><a xlink:title=" ">
<path fill="none" stroke="#63b8ff" d="M1684.32,-166.83C1727.8,-158.32 1805.08,-143.02 1871.04,-129 1873.69,-128.44 1876.43,-127.84 1879.18,-127.24"/>
<polygon fill="#63b8ff" stroke="#63b8ff" points="1683.42,-163.44 1674.28,-168.8 1684.76,-170.31 1683.42,-163.44"/>
</a>
</g>
</g>
<!-- Node27 -->
<g id="Node000027" class="node">
<title>Node27</title>
<g id="a_Node000027"><a xlink:href="../../dd/d6f/languageitem_8h.html" target="_top" xlink:title=" ">
<polygon fill="white" stroke="#666666" points="1861.54,-129 1768.54,-129 1768.54,-110 1861.54,-110 1861.54,-129"/>
<text text-anchor="middle" x="1815.04" y="-117" font-family="Helvetica,sans-Serif" font-size="10.00">languageitem.h</text>
</a>
</g>
</g>
<!-- Node1&#45;&gt;Node27 -->
<g id="edge38_Node000001_Node000027" class="edge">
<title>Node1&#45;&gt;Node27</title>
<g id="a_edge38_Node000001_Node000027"><a xlink:title=" ">
<path fill="none" stroke="#63b8ff" d="M1684.3,-162.5C1715.22,-152.56 1760.09,-138.15 1788.41,-129.06"/>
<polygon fill="#63b8ff" stroke="#63b8ff" points="1682.84,-159.29 1674.39,-165.68 1684.98,-165.95 1682.84,-159.29"/>
</a>
</g>
</g>
<!-- Node29 -->
<g id="Node000029" class="node">
<title>Node29</title>
<g id="a_Node000029"><a xlink:href="../../d7/ddc/moduleitem_8h.html" target="_top" xlink:title=" ">
<polygon fill="white" stroke="#666666" points="1532.54,-129 1447.54,-129 1447.54,-110 1532.54,-110 1532.54,-129"/>
<text text-anchor="middle" x="1490.04" y="-117" font-family="Helvetica,sans-Serif" font-size="10.00">moduleitem.h</text>
</a>
</g>
</g>
<!-- Node1&#45;&gt;Node29 -->
<g id="edge41_Node000001_Node000029" class="edge">
<title>Node1&#45;&gt;Node29</title>
<g id="a_edge41_Node000001_Node000029"><a xlink:title=" ">
<path fill="none" stroke="#63b8ff" d="M1616.13,-162.27C1586.18,-152.34 1543.15,-138.09 1515.9,-129.07"/>
<polygon fill="#63b8ff" stroke="#63b8ff" points="1615.15,-165.63 1625.74,-165.45 1617.35,-158.98 1615.15,-165.63"/>
</a>
</g>
</g>
<!-- Node3 -->
<g id="Node000003" class="node">
<title>Node3</title>
<g id="a_Node000003"><a xlink:href="../../df/d88/btbookshelfdockwidget_8cpp.html" target="_top" xlink:title=" ">
<polygon fill="white" stroke="#666666" points="199.54,-19 48.54,-19 48.54,0 199.54,0 199.54,-19"/>
<text text-anchor="middle" x="124.04" y="-7" font-family="Helvetica,sans-Serif" font-size="10.00">btbookshelfdockwidget.cpp</text>
</a>
</g>
</g>
<!-- Node2&#45;&gt;Node3 -->
<g id="edge2_Node000002_Node000003" class="edge">
<title>Node2&#45;&gt;Node3</title>
<g id="a_edge2_Node000002_Node000003"><a xlink:title=" ">
<path fill="none" stroke="#63b8ff" d="M832.08,-117.55C619.04,-114.56 35.29,-103.68 7.04,-74 -18.69,-46.96 34.61,-28.77 77.46,-19.02"/>
<polygon fill="#63b8ff" stroke="#63b8ff" points="832.2,-121.06 842.25,-117.69 832.3,-114.06 832.2,-121.06"/>
</a>
</g>
</g>
<!-- Node4 -->
<g id="Node000004" class="node">
<title>Node4</title>
<g id="a_Node000004"><a xlink:href="../../d4/d1c/btbookshelfdockwidget_8h.html" target="_top" xlink:title=" ">
<polygon fill="white" stroke="#666666" points="606.04,-74 466.04,-74 466.04,-55 606.04,-55 606.04,-74"/>
<text text-anchor="middle" x="536.04" y="-62" font-family="Helvetica,sans-Serif" font-size="10.00">btbookshelfdockwidget.h</text>
</a>
</g>
</g>
<!-- Node2&#45;&gt;Node4 -->
<g id="edge3_Node000002_Node000004" class="edge">
<title>Node2&#45;&gt;Node4</title>
<g id="a_edge3_Node000002_Node000004"><a xlink:title=" ">
<path fill="none" stroke="#63b8ff" d="M839.06,-108.56C769.03,-98.61 662.44,-83.46 596.13,-74.04"/>
<polygon fill="#63b8ff" stroke="#63b8ff" points="838.72,-112.04 849.11,-109.98 839.71,-105.11 838.72,-112.04"/>
</a>
</g>
</g>
<!-- Node7 -->
<g id="Node000007" class="node">
<title>Node7</title>
<g id="a_Node000007"><a xlink:href="../../d8/d44/btbookshelfgroupingmenu_8cpp.html" target="_top" xlink:title=" ">
<polygon fill="white" stroke="#666666" points="741.54,-19 576.54,-19 576.54,0 741.54,0 741.54,-19"/>
<text text-anchor="middle" x="659.04" y="-7" font-family="Helvetica,sans-Serif" font-size="10.00">btbookshelfgroupingmenu.cpp</text>
</a>
</g>
</g>
<!-- Node2&#45;&gt;Node7 -->
<g id="edge7_Node000002_Node000007" class="edge">
<title>Node2&#45;&gt;Node7</title>
<g id="a_edge7_Node000002_Node000007"><a xlink:title=" ">
<path fill="none" stroke="#63b8ff" d="M879.75,-105.84C828.22,-83.58 722.68,-37.99 678.83,-19.05"/>
<polygon fill="#63b8ff" stroke="#63b8ff" points="878.44,-109.09 889.01,-109.84 881.21,-102.67 878.44,-109.09"/>
</a>
</g>
</g>
<!-- Node8 -->
<g id="Node000008" class="node">
<title>Node8</title>
<g id="a_Node000008"><a xlink:href="../../dc/dd2/btbookshelfgroupingmenu_8h.html" target="_top" xlink:title=" ">
<polygon fill="white" stroke="#666666" points="986.04,-74 832.04,-74 832.04,-55 986.04,-55 986.04,-74"/>
<text text-anchor="middle" x="909.04" y="-62" font-family="Helvetica,sans-Serif" font-size="10.00">btbookshelfgroupingmenu.h</text>
</a>
</g>
</g>
<!-- Node2&#45;&gt;Node8 -->
<g id="edge8_Node000002_Node000008" class="edge">
<title>Node2&#45;&gt;Node8</title>
<g id="a_edge8_Node000002_Node000008"><a xlink:title=" ">
<path fill="none" stroke="#63b8ff" d="M909.04,-99.66C909.04,-90.93 909.04,-80.99 909.04,-74.09"/>
<polygon fill="#63b8ff" stroke="#63b8ff" points="905.54,-99.75 909.04,-109.75 912.54,-99.75 905.54,-99.75"/>
</a>
</g>
</g>
<!-- Node9 -->
<g id="Node000009" class="node">
<title>Node9</title>
<g id="a_Node000009"><a xlink:href="../../d9/d70/btbookshelfwidget_8cpp.html" target="_top" xlink:title=" ">
<polygon fill="white" stroke="#666666" points="886.54,-19 759.54,-19 759.54,0 886.54,0 886.54,-19"/>
<text text-anchor="middle" x="823.04" y="-7" font-family="Helvetica,sans-Serif" font-size="10.00">btbookshelfwidget.cpp</text>
</a>
</g>
</g>
<!-- Node2&#45;&gt;Node9 -->
<g id="edge14_Node000002_Node000009" class="edge">
<title>Node2&#45;&gt;Node9</title>
<g id="a_edge14_Node000002_Node000009"><a xlink:title=" ">
<path fill="none" stroke="#63b8ff" d="M864.23,-106.09C848.39,-99.31 832.23,-89.1 823.04,-74 812.61,-56.86 817.01,-32 820.43,-19.05"/>
<polygon fill="#63b8ff" stroke="#63b8ff" points="863.4,-109.52 873.99,-109.88 865.94,-103 863.4,-109.52"/>
</a>
</g>
</g>
<!-- Node10 -->
<g id="Node000010" class="node">
<title>Node10</title>
<g id="a_Node000010"><a xlink:href="../../d9/d03/btbookshelfworkspage_8cpp.html" target="_top" xlink:title=" ">
<polygon fill="white" stroke="#666666" points="1338.54,-19 1191.54,-19 1191.54,0 1338.54,0 1338.54,-19"/>
<text text-anchor="middle" x="1265.04" y="-7" font-family="Helvetica,sans-Serif" font-size="10.00">btbookshelfworkspage.cpp</text>
</a>
</g>
</g>
<!-- Node2&#45;&gt;Node10 -->
<g id="edge15_Node000002_Node000010" class="edge">
<title>Node2&#45;&gt;Node10</title>
<g id="a_edge15_Node000002_Node000010"><a xlink:title=" ">
<path fill="none" stroke="#63b8ff" d="M985.68,-116.89C1043.29,-113.19 1122.97,-102.69 1187.04,-74 1216.68,-60.73 1244.43,-33.22 1257.38,-19.17"/>
<polygon fill="#63b8ff" stroke="#63b8ff" points="985.33,-113.4 975.55,-117.48 985.74,-120.39 985.33,-113.4"/>
</a>
</g>
</g>
<!-- Node11 -->
<g id="Node000011" class="node">
<title>Node11</title>
<g id="a_Node000011"><a xlink:href="../../d9/d62/btopenworkaction_8cpp.html" target="_top" xlink:title=" ">
<polygon fill="white" stroke="#666666" points="1029.04,-19 905.04,-19 905.04,0 1029.04,0 1029.04,-19"/>
<text text-anchor="middle" x="967.04" y="-7" font-family="Helvetica,sans-Serif" font-size="10.00">btopenworkaction.cpp</text>
</a>
</g>
</g>
<!-- Node2&#45;&gt;Node11 -->
<g id="edge24_Node000002_Node000011" class="edge">
<title>Node2&#45;&gt;Node11</title>
<g id="a_edge24_Node000002_Node000011"><a xlink:title=" ">
<path fill="none" stroke="#63b8ff" d="M953.85,-106.09C969.7,-99.31 985.85,-89.1 995.04,-74 1006.32,-55.47 987.89,-31.61 975.96,-19.07"/>
<polygon fill="#63b8ff" stroke="#63b8ff" points="952.14,-103 944.09,-109.88 954.68,-109.52 952.14,-103"/>
</a>
</g>
</g>
<!-- Node12 -->
<g id="Node000012" class="node">
<title>Node12</title>
<g id="a_Node000012"><a xlink:href="../../d9/d0b/btbookshelftreemodel_8cpp.html" target="_top" xlink:title=" ">
<polygon fill="white" stroke="#666666" points="1668.04,-74 1524.04,-74 1524.04,-55 1668.04,-55 1668.04,-74"/>
<text text-anchor="middle" x="1596.04" y="-62" font-family="Helvetica,sans-Serif" font-size="10.00">btbookshelftreemodel.cpp</text>
</a>
</g>
</g>
<!-- Node2&#45;&gt;Node12 -->
<g id="edge13_Node000002_Node000012" class="edge">
<title>Node2&#45;&gt;Node12</title>
<g id="a_edge13_Node000002_Node000012"><a xlink:title=" ">
<path fill="none" stroke="#63b8ff" d="M986.03,-113.62C1101.18,-106.15 1325.07,-90.94 1515.04,-74 1517.86,-73.75 1520.73,-73.49 1523.63,-73.21"/>
<polygon fill="#63b8ff" stroke="#63b8ff" points="985.66,-110.14 975.9,-114.28 986.11,-117.12 985.66,-110.14"/>
</a>
</g>
</g>
<!-- Node13 -->
<g id="Node000013" class="node">
<title>Node13</title>
<g id="a_Node000013"><a xlink:href="../../d6/d8d/btbookshelfworkspage_8h.html" target="_top" xlink:title=" ">
<polygon fill="white" stroke="#666666" points="1178.04,-74 1042.04,-74 1042.04,-55 1178.04,-55 1178.04,-74"/>
<text text-anchor="middle" x="1110.04" y="-62" font-family="Helvetica,sans-Serif" font-size="10.00">btbookshelfworkspage.h</text>
</a>
</g>
</g>
<!-- Node2&#45;&gt;Node13 -->
<g id="edge16_Node000002_Node000013" class="edge">
<title>Node2&#45;&gt;Node13</title>
<g id="a_edge16_Node000002_Node000013"><a xlink:title=" ">
<path fill="none" stroke="#63b8ff" d="M951.48,-107.31C989.09,-97.39 1043.21,-83.12 1077.49,-74.08"/>
<polygon fill="#63b8ff" stroke="#63b8ff" points="950.11,-104.05 941.34,-109.98 951.9,-110.82 950.11,-104.05"/>
</a>
</g>
</g>
<!-- Node15 -->
<g id="Node000015" class="node">
<title>Node15</title>
<g id="a_Node000015"><a xlink:href="../../dd/dba/btinstallpagemodel_8cpp.html" target="_top" xlink:title=" ">
<polygon fill="white" stroke="#666666" points="1487.54,-19 1356.54,-19 1356.54,0 1487.54,0 1487.54,-19"/>
<text text-anchor="middle" x="1422.04" y="-7" font-family="Helvetica,sans-Serif" font-size="10.00">btinstallpagemodel.cpp</text>
</a>
</g>
</g>
<!-- Node2&#45;&gt;Node15 -->
<g id="edge19_Node000002_Node000015" class="edge">
<title>Node2&#45;&gt;Node15</title>
<g id="a_edge19_Node000002_Node000015"><a xlink:title=" ">
<path fill="none" stroke="#63b8ff" d="M985.95,-117.49C1097.71,-114.92 1298.7,-105.87 1363.04,-74 1388.12,-61.58 1407.9,-33.68 1416.85,-19.36"/>
<polygon fill="#63b8ff" stroke="#63b8ff" points="985.67,-113.99 975.75,-117.71 985.82,-120.99 985.67,-113.99"/>
</a>
</g>
</g>
<!-- Node16 -->
<g id="Node000016" class="node">
<title>Node16</title>
<g id="a_Node000016"><a xlink:href="../../df/d56/btinstallpagemodel_8h.html" target="_top" xlink:title=" ">
<polygon fill="white" stroke="#666666" points="1354.04,-74 1234.04,-74 1234.04,-55 1354.04,-55 1354.04,-74"/>
<text text-anchor="middle" x="1294.04" y="-62" font-family="Helvetica,sans-Serif" font-size="10.00">btinstallpagemodel.h</text>
</a>
</g>
</g>
<!-- Node2&#45;&gt;Node16 -->
<g id="edge20_Node000002_Node000016" class="edge">
<title>Node2&#45;&gt;Node16</title>
<g id="a_edge20_Node000002_Node000016"><a xlink:title=" ">
<path fill="none" stroke="#63b8ff" d="M980.93,-108.6C1053.87,-98.56 1165.52,-83.19 1233.92,-73.78"/>
<polygon fill="#63b8ff" stroke="#63b8ff" points="980.33,-105.15 970.9,-109.98 981.28,-112.09 980.33,-105.15"/>
</a>
</g>
</g>
<!-- Node17 -->
<g id="Node000017" class="node">
<title>Node17</title>
<g id="a_Node000017"><a xlink:href="../../dd/ddc/btmodulechoosermenu_8cpp.html" target="_top" xlink:title=" ">
<polygon fill="white" stroke="#666666" points="165.54,-74 16.54,-74 16.54,-55 165.54,-55 165.54,-74"/>
<text text-anchor="middle" x="91.04" y="-62" font-family="Helvetica,sans-Serif" font-size="10.00">btmodulechoosermenu.cpp</text>
</a>
</g>
</g>
<!-- Node2&#45;&gt;Node17 -->
<g id="edge23_Node000002_Node000017" class="edge">
<title>Node2&#45;&gt;Node17</title>
<g id="a_edge23_Node000002_Node000017"><a xlink:title=" ">
<path fill="none" stroke="#63b8ff" d="M832.04,-114.85C698.28,-108.29 414.4,-93.36 175.04,-74 171.97,-73.75 168.84,-73.49 165.68,-73.21"/>
<polygon fill="#63b8ff" stroke="#63b8ff" points="832.02,-118.36 842.18,-115.35 832.37,-111.37 832.02,-118.36"/>
</a>
</g>
</g>
<!-- Node18 -->
<g id="Node000018" class="node">
<title>Node18</title>
<g id="a_Node000018"><a xlink:href="../../dd/d87/btopenworkaction_8h.html" target="_top" xlink:title=" ">
<polygon fill="white" stroke="#666666" points="737.54,-74 624.54,-74 624.54,-55 737.54,-55 737.54,-74"/>
<text text-anchor="middle" x="681.04" y="-62" font-family="Helvetica,sans-Serif" font-size="10.00">btopenworkaction.h</text>
</a>
</g>
</g>
<!-- Node2&#45;&gt;Node18 -->
<g id="edge25_Node000002_Node000018" class="edge">
<title>Node2&#45;&gt;Node18</title>
<g id="a_edge25_Node000002_Node000018"><a xlink:title=" ">
<path fill="none" stroke="#63b8ff" d="M862.54,-107.69C819.82,-97.76 757.35,-83.24 717.96,-74.08"/>
<polygon fill="#63b8ff" stroke="#63b8ff" points="861.88,-111.13 872.41,-109.98 863.46,-104.31 861.88,-111.13"/>
</a>
</g>
</g>
<!-- Node19 -->
<g id="Node000019" class="node">
<title>Node19</title>
<g id="a_Node000019"><a xlink:href="../../dc/dab/btsearchmodulechooserdialog_8cpp.html" target="_top" xlink:title=" ">
<polygon fill="white" stroke="#666666" points="368.04,-74 184.04,-74 184.04,-55 368.04,-55 368.04,-74"/>
<text text-anchor="middle" x="276.04" y="-62" font-family="Helvetica,sans-Serif" font-size="10.00">btsearchmodulechooserdialog.cpp</text>
</a>
</g>
</g>
<!-- Node2&#45;&gt;Node19 -->
<g id="edge28_Node000002_Node000019" class="edge">
<title>Node2&#45;&gt;Node19</title>
<g id="a_edge28_Node000002_Node000019"><a xlink:title=" ">
<path fill="none" stroke="#63b8ff" d="M832.23,-112.09C728.81,-103.45 539.05,-87.59 377.04,-74 374.15,-73.76 371.21,-73.51 368.24,-73.26"/>
<polygon fill="#63b8ff" stroke="#63b8ff" points="832.02,-115.58 842.27,-112.93 832.6,-108.61 832.02,-115.58"/>
</a>
</g>
</g>
<!-- Node20 -->
<g id="Node000020" class="node">
<title>Node20</title>
<g id="a_Node000020"><a xlink:href="../../df/d0a/main_8cpp.html" target="_top" xlink:title=" ">
<polygon fill="white" stroke="#666666" points="448.04,-74 386.04,-74 386.04,-55 448.04,-55 448.04,-74"/>
<text text-anchor="middle" x="417.04" y="-62" font-family="Helvetica,sans-Serif" font-size="10.00">main.cpp</text>
</a>
</g>
</g>
<!-- Node2&#45;&gt;Node20 -->
<g id="edge29_Node000002_Node000020" class="edge">
<title>Node2&#45;&gt;Node20</title>
<g id="a_edge29_Node000002_Node000020"><a xlink:title=" ">
<path fill="none" stroke="#63b8ff" d="M832.36,-113.56C742.19,-107.15 588.16,-94.32 457.04,-74 454.24,-73.57 451.33,-73.06 448.42,-72.51"/>
<polygon fill="#63b8ff" stroke="#63b8ff" points="832.28,-117.07 842.5,-114.28 832.77,-110.08 832.28,-117.07"/>
</a>
</g>
</g>
<!-- Node21 -->
<g id="Node000021" class="node">
<title>Node21</title>
<g id="a_Node000021"><a xlink:href="../../dc/d32/moduleitem_8cpp.html" target="_top" xlink:title=" ">
<polygon fill="white" stroke="#666666" points="1506.04,-74 1410.04,-74 1410.04,-55 1506.04,-55 1506.04,-74"/>
<text text-anchor="middle" x="1458.04" y="-62" font-family="Helvetica,sans-Serif" font-size="10.00">moduleitem.cpp</text>
</a>
</g>
</g>
<!-- Node2&#45;&gt;Node21 -->
<g id="edge30_Node000002_Node000021" class="edge">
<title>Node2&#45;&gt;Node21</title>
<g id="a_edge30_Node000002_Node000021"><a xlink:title=" ">
<path fill="none" stroke="#63b8ff" d="M985.91,-112.55C1081.98,-104.88 1251.38,-90.52 1396.04,-74 1400.58,-73.48 1405.29,-72.91 1410.01,-72.3"/>
<polygon fill="#63b8ff" stroke="#63b8ff" points="985.39,-109.08 975.7,-113.37 985.95,-116.06 985.39,-109.08"/>
</a>
</g>
</g>
<!-- Node4&#45;&gt;Node3 -->
<g id="edge6_Node000004_Node000003" class="edge">
<title>Node4&#45;&gt;Node3</title>
<g id="a_edge6_Node000004_Node000003"><a xlink:title=" ">
<path fill="none" stroke="#63b8ff" d="M459.69,-53.68C382.36,-43.73 263.96,-28.5 190.41,-19.04"/>
<polygon fill="#63b8ff" stroke="#63b8ff" points="459.48,-57.18 469.85,-54.98 460.38,-50.24 459.48,-57.18"/>
</a>
</g>
</g>
<!-- Node5 -->
<g id="Node000005" class="node">
<title>Node5</title>
<g id="a_Node000005"><a xlink:href="../../d1/df6/bibletime_8cpp.html" target="_top" xlink:title=" ">
<polygon fill="white" stroke="#666666" points="435.54,-19 352.54,-19 352.54,0 435.54,0 435.54,-19"/>
<text text-anchor="middle" x="394.04" y="-7" font-family="Helvetica,sans-Serif" font-size="10.00">bibletime.cpp</text>
</a>
</g>
</g>
<!-- Node4&#45;&gt;Node5 -->
<g id="edge4_Node000004_Node000005" class="edge">
<title>Node4&#45;&gt;Node5</title>
<g id="a_edge4_Node000004_Node000005"><a xlink:title=" ">
<path fill="none" stroke="#63b8ff" d="M503.68,-51.42C477.33,-41.59 440.78,-27.95 417.27,-19.17"/>
<polygon fill="#63b8ff" stroke="#63b8ff" points="502.63,-54.77 513.23,-54.98 505.08,-48.21 502.63,-54.77"/>
</a>
</g>
</g>
<!-- Node6 -->
<g id="Node000006" class="node">
<title>Node6</title>
<g id="a_Node000006"><a xlink:href="../../da/dc7/bibletime__init_8cpp.html" target="_top" xlink:title=" ">
<polygon fill="white" stroke="#666666" points="558.04,-19 454.04,-19 454.04,0 558.04,0 558.04,-19"/>
<text text-anchor="middle" x="506.04" y="-7" font-family="Helvetica,sans-Serif" font-size="10.00">bibletime_init.cpp</text>
</a>
</g>
</g>
<!-- Node4&#45;&gt;Node6 -->
<g id="edge5_Node000004_Node000006" class="edge">
<title>Node4&#45;&gt;Node6</title>
<g id="a_edge5_Node000004_Node000006"><a xlink:title=" ">
<path fill="none" stroke="#63b8ff" d="M526.03,-45.82C520.94,-36.82 514.98,-26.29 510.9,-19.09"/>
<polygon fill="#63b8ff" stroke="#63b8ff" points="523.12,-47.77 531.09,-54.75 529.21,-44.32 523.12,-47.77"/>
</a>
</g>
</g>
<!-- Node8&#45;&gt;Node7 -->
<g id="edge9_Node000008_Node000007" class="edge">
<title>Node8&#45;&gt;Node7</title>
<g id="a_edge9_Node000008_Node000007"><a xlink:title=" ">
<path fill="none" stroke="#63b8ff" d="M858.94,-52.88C812.08,-42.94 742.98,-28.3 699.52,-19.08"/>
<polygon fill="#63b8ff" stroke="#63b8ff" points="858.37,-56.33 868.88,-54.98 859.82,-49.49 858.37,-56.33"/>
</a>
</g>
</g>
<!-- Node8&#45;&gt;Node9 -->
<g id="edge10_Node000008_Node000009" class="edge">
<title>Node8&#45;&gt;Node9</title>
<g id="a_edge10_Node000008_Node000009"><a xlink:title=" ">
<path fill="none" stroke="#63b8ff" d="M886.64,-49.7C870.98,-40.04 850.54,-27.44 837.11,-19.17"/>
<polygon fill="#63b8ff" stroke="#63b8ff" points="884.88,-52.72 895.22,-54.98 888.55,-46.76 884.88,-52.72"/>
</a>
</g>
</g>
<!-- Node8&#45;&gt;Node10 -->
<g id="edge11_Node000008_Node000010" class="edge">
<title>Node8&#45;&gt;Node10</title>
<g id="a_edge11_Node000008_Node000010"><a xlink:title=" ">
<path fill="none" stroke="#63b8ff" d="M976.25,-53.49C1043.09,-43.54 1144.53,-28.44 1207.69,-19.04"/>
<polygon fill="#63b8ff" stroke="#63b8ff" points="975.62,-50.05 966.24,-54.98 976.65,-56.97 975.62,-50.05"/>
</a>
</g>
</g>
<!-- Node8&#45;&gt;Node11 -->
<g id="edge12_Node000008_Node000011" class="edge">
<title>Node8&#45;&gt;Node11</title>
<g id="a_edge12_Node000008_Node000011"><a xlink:title=" ">
<path fill="none" stroke="#63b8ff" d="M925.96,-48.04C936.25,-38.64 949.01,-26.98 957.55,-19.17"/>
<polygon fill="#63b8ff" stroke="#63b8ff" points="923.38,-45.66 918.36,-54.98 928.1,-50.82 923.38,-45.66"/>
</a>
</g>
</g>
<!-- Node13&#45;&gt;Node10 -->
<g id="edge18_Node000013_Node000010" class="edge">
<title>Node13&#45;&gt;Node10</title>
<g id="a_edge18_Node000013_Node000010"><a xlink:title=" ">
<path fill="none" stroke="#63b8ff" d="M1144.64,-51.67C1173.54,-41.79 1214.07,-27.93 1239.94,-19.08"/>
<polygon fill="#63b8ff" stroke="#63b8ff" points="1143.28,-48.44 1134.95,-54.98 1145.54,-55.06 1143.28,-48.44"/>
</a>
</g>
</g>
<!-- Node14 -->
<g id="Node000014" class="node">
<title>Node14</title>
<g id="a_Node000014"><a xlink:href="../../d6/d54/btbookshelfwizard_8cpp.html" target="_top" xlink:title=" ">
<polygon fill="white" stroke="#666666" points="1173.04,-19 1047.04,-19 1047.04,0 1173.04,0 1173.04,-19"/>
<text text-anchor="middle" x="1110.04" y="-7" font-family="Helvetica,sans-Serif" font-size="10.00">btbookshelfwizard.cpp</text>
</a>
</g>
</g>
<!-- Node13&#45;&gt;Node14 -->
<g id="edge17_Node000013_Node000014" class="edge">
<title>Node13&#45;&gt;Node14</title>
<g id="a_edge17_Node000013_Node000014"><a xlink:title=" ">
<path fill="none" stroke="#63b8ff" d="M1110.04,-44.66C1110.04,-35.93 1110.04,-25.99 1110.04,-19.09"/>
<polygon fill="#63b8ff" stroke="#63b8ff" points="1106.54,-44.75 1110.04,-54.75 1113.54,-44.75 1106.54,-44.75"/>
</a>
</g>
</g>
<!-- Node16&#45;&gt;Node10 -->
<g id="edge21_Node000016_Node000010" class="edge">
<title>Node16&#45;&gt;Node10</title>
<g id="a_edge21_Node000016_Node000010"><a xlink:title=" ">
<path fill="none" stroke="#63b8ff" d="M1284.37,-45.82C1279.44,-36.82 1273.68,-26.29 1269.74,-19.09"/>
<polygon fill="#63b8ff" stroke="#63b8ff" points="1281.38,-47.66 1289.25,-54.75 1287.52,-44.3 1281.38,-47.66"/>
</a>
</g>
</g>
<!-- Node16&#45;&gt;Node15 -->
<g id="edge22_Node000016_Node000015" class="edge">
<title>Node16&#45;&gt;Node15</title>
<g id="a_edge22_Node000016_Node000015"><a xlink:title=" ">
<path fill="none" stroke="#63b8ff" d="M1324.16,-51.03C1347.83,-41.23 1380.19,-27.83 1401.1,-19.17"/>
<polygon fill="#63b8ff" stroke="#63b8ff" points="1322.51,-47.93 1314.61,-54.98 1325.19,-54.39 1322.51,-47.93"/>
</a>
</g>
</g>
<!-- Node18&#45;&gt;Node6 -->
<g id="edge26_Node000018_Node000006" class="edge">
<title>Node18&#45;&gt;Node6</title>
<g id="a_edge26_Node000018_Node000006"><a xlink:title=" ">
<path fill="none" stroke="#63b8ff" d="M643.25,-52.06C610.55,-42.15 563.97,-28.04 534.38,-19.08"/>
<polygon fill="#63b8ff" stroke="#63b8ff" points="642.34,-55.44 652.93,-54.98 644.37,-48.74 642.34,-55.44"/>
</a>
</g>
</g>
<!-- Node18&#45;&gt;Node11 -->
<g id="edge27_Node000018_Node000011" class="edge">
<title>Node18&#45;&gt;Node11</title>
<g id="a_edge27_Node000018_Node000011"><a xlink:title=" ">
<path fill="none" stroke="#63b8ff" d="M737.02,-53.13C790.64,-43.19 870.6,-28.37 920.73,-19.08"/>
<polygon fill="#63b8ff" stroke="#63b8ff" points="736.19,-49.72 726.99,-54.98 737.46,-56.6 736.19,-49.72"/>
</a>
</g>
</g>
<!-- Node22&#45;&gt;Node12 -->
<g id="edge32_Node000022_Node000012" class="edge">
<title>Node22&#45;&gt;Node12</title>
<g id="a_edge32_Node000022_Node000012"><a xlink:title=" ">
<path fill="none" stroke="#63b8ff" d="M1596.04,-99.66C1596.04,-90.93 1596.04,-80.99 1596.04,-74.09"/>
<polygon fill="#63b8ff" stroke="#63b8ff" points="1592.54,-99.75 1596.04,-109.75 1599.54,-99.75 1592.54,-99.75"/>
</a>
</g>
</g>
<!-- Node23 -->
<g id="Node000023" class="node">
<title>Node23</title>
<g id="a_Node000023"><a xlink:href="../../d3/d29/categoryitem_8cpp.html" target="_top" xlink:title=" ">
<polygon fill="white" stroke="#666666" points="1788.04,-74 1686.04,-74 1686.04,-55 1788.04,-55 1788.04,-74"/>
<text text-anchor="middle" x="1737.04" y="-62" font-family="Helvetica,sans-Serif" font-size="10.00">categoryitem.cpp</text>
</a>
</g>
</g>
<!-- Node22&#45;&gt;Node23 -->
<g id="edge33_Node000022_Node000023" class="edge">
<title>Node22&#45;&gt;Node23</title>
<g id="a_edge33_Node000022_Node000023"><a xlink:title=" ">
<path fill="none" stroke="#63b8ff" d="M1628.18,-106.42C1654.34,-96.59 1690.63,-82.95 1713.98,-74.17"/>
<polygon fill="#63b8ff" stroke="#63b8ff" points="1626.83,-103.19 1618.7,-109.98 1629.29,-109.74 1626.83,-103.19"/>
</a>
</g>
</g>
<!-- Node24&#45;&gt;Node12 -->
<g id="edge35_Node000024_Node000012" class="edge">
<title>Node24&#45;&gt;Node12</title>
<g id="a_edge35_Node000024_Node000012"><a xlink:title=" ">
<path fill="none" stroke="#63b8ff" d="M1678.31,-105.5C1658.26,-95.75 1631.37,-82.68 1613.87,-74.17"/>
<polygon fill="#63b8ff" stroke="#63b8ff" points="1677.01,-108.76 1687.53,-109.98 1680.07,-102.46 1677.01,-108.76"/>
</a>
</g>
</g>
<!-- Node25 -->
<g id="Node000025" class="node">
<title>Node25</title>
<g id="a_Node000025"><a xlink:href="../../d6/d93/indexingitem_8cpp.html" target="_top" xlink:title=" ">
<polygon fill="white" stroke="#666666" points="1907.54,-74 1806.54,-74 1806.54,-55 1907.54,-55 1907.54,-74"/>
<text text-anchor="middle" x="1857.04" y="-62" font-family="Helvetica,sans-Serif" font-size="10.00">indexingitem.cpp</text>
</a>
</g>
</g>
<!-- Node24&#45;&gt;Node25 -->
<g id="edge36_Node000024_Node000025" class="edge">
<title>Node24&#45;&gt;Node25</title>
<g id="a_edge36_Node000024_Node000025"><a xlink:title=" ">
<path fill="none" stroke="#63b8ff" d="M1738.97,-106.67C1767.32,-96.79 1807.06,-82.93 1832.43,-74.08"/>
<polygon fill="#63b8ff" stroke="#63b8ff" points="1737.75,-103.39 1729.46,-109.98 1740.06,-110 1737.75,-103.39"/>
</a>
</g>
</g>
<!-- Node27&#45;&gt;Node12 -->
<g id="edge39_Node000027_Node000012" class="edge">
<title>Node27&#45;&gt;Node12</title>
<g id="a_edge39_Node000027_Node000012"><a xlink:title=" ">
<path fill="none" stroke="#63b8ff" d="M1770.12,-107.63C1729.09,-97.7 1669.26,-83.22 1631.5,-74.08"/>
<polygon fill="#63b8ff" stroke="#63b8ff" points="1769.31,-111.03 1779.86,-109.98 1770.96,-104.23 1769.31,-111.03"/>
</a>
</g>
</g>
<!-- Node28 -->
<g id="Node000028" class="node">
<title>Node28</title>
<g id="a_Node000028"><a xlink:href="../../d9/d6e/languageitem_8cpp.html" target="_top" xlink:title=" ">
<polygon fill="white" stroke="#666666" points="2030.04,-74 1926.04,-74 1926.04,-55 2030.04,-55 2030.04,-74"/>
<text text-anchor="middle" x="1978.04" y="-62" font-family="Helvetica,sans-Serif" font-size="10.00">languageitem.cpp</text>
</a>
</g>
</g>
<!-- Node27&#45;&gt;Node28 -->
<g id="edge40_Node000027_Node000028" class="edge">
<title>Node27&#45;&gt;Node28</title>
<g id="a_edge40_Node000027_Node000028"><a xlink:title=" ">
<path fill="none" stroke="#63b8ff" d="M1851.03,-106.8C1881.45,-96.91 1924.32,-82.97 1951.65,-74.08"/>
<polygon fill="#63b8ff" stroke="#63b8ff" points="1849.66,-103.56 1841.23,-109.98 1851.82,-110.22 1849.66,-103.56"/>
</a>
</g>
</g>
<!-- Node29&#45;&gt;Node12 -->
<g id="edge42_Node000029_Node000012" class="edge">
<title>Node29&#45;&gt;Node12</title>
<g id="a_edge42_Node000029_Node000012"><a xlink:title=" ">
<path fill="none" stroke="#63b8ff" d="M1516.04,-105.5C1535.54,-95.75 1561.69,-82.68 1578.7,-74.17"/>
<polygon fill="#63b8ff" stroke="#63b8ff" points="1514.45,-102.38 1507.07,-109.98 1517.58,-108.64 1514.45,-102.38"/>
</a>
</g>
</g>
<!-- Node29&#45;&gt;Node21 -->
<g id="edge43_Node000029_Node000021" class="edge">
<title>Node29&#45;&gt;Node21</title>
<g id="a_edge43_Node000029_Node000021"><a xlink:title=" ">
<path fill="none" stroke="#63b8ff" d="M1479.54,-101.1C1474.07,-92.04 1467.62,-81.37 1463.23,-74.09"/>
<polygon fill="#63b8ff" stroke="#63b8ff" points="1476.59,-103 1484.76,-109.75 1482.59,-99.38 1476.59,-103"/>
</a>
</g>
</g>
</g>
</svg>

<g id="navigator" transform="translate(0 0)" fill="#404254">
  <rect fill="#f2f5e9" fill-opacity="0.5" stroke="#606060" stroke-width=".5" x="0" y="0" width="60" height="60"/>
  <use id="zoomplus" xlink:href="#zoomPlus" x="17" y="9" onmousedown="handleZoom(evt,'in')"/>
  <use id="zoomminus" xlink:href="#zoomMin" x="42" y="9" onmousedown="handleZoom(evt,'out')"/>
  <use id="reset" xlink:href="#resetDef" x="30" y="36" onmousedown="handleReset()"/>
   <use id="arrowup" xlink:href="#arrowUp" x="0" y="0" onmousedown="handlePan(0,-1)"/>
  <use id="arrowright" xlink:href="#arrowRight" x="0" y="0" onmousedown="handlePan(1,0)"/>
  <use id="arrowdown" xlink:href="#arrowDown" x="0" y="0" onmousedown="handlePan(0,1)"/>
  <use id="arrowleft" xlink:href="#arrowLeft" x="0" y="0" onmousedown="handlePan(-1,0)"/>
</g>
<svg viewBox="0 0 15 15" width="100%" height="30px" preserveAspectRatio="xMaxYMin meet">
 <g id="arrow_out" transform="scale(0.3 0.3)">
  <a xlink:href="item_8h__dep__incl_org.svg" target="_base">
   <rect id="button" ry="5" rx="5" y="6" x="6" height="38" width="38"
        fill="#f2f5e9" fill-opacity="0.5" stroke="#606060" stroke-width="1.0"/>
   <path id="arrow"
     d="M 11.500037,31.436501 C 11.940474,20.09759 22.043105,11.32322 32.158766,21.979434 L 37.068811,17.246167 C 37.068811,17.246167 37.088388,32 37.088388,32 L 22.160133,31.978069 C 22.160133,31.978069 26.997745,27.140456 26.997745,27.140456 C 18.528582,18.264221 13.291696,25.230495 11.500037,31.436501 z"
     style="fill:#404040;"/>
  </a>
 </g>
</svg>

<style type='text/css'>
<![CDATA[
[data-mouse-over-selected='false'] { opacity: 0.7; }
[data-mouse-over-selected='true']  { opacity: 1.0; }
]]>
</style>
<script type="application/ecmascript"><![CDATA[
document.addEventListener('DOMContentLoaded', (event) => {
  highlightEdges();
  highlightAdjacentNodes();
});
]]></script>
</svg>
