<?xml version="1.0" encoding="UTF-8" standalone="no"?>
<!DOCTYPE svg PUBLIC "-//W3C//DTD SVG 1.1//EN"
 "http://www.w3.org/Graphics/SVG/1.1/DTD/svg11.dtd">
<!-- Generated by graphviz version 2.43.0 (0)
 -->
<!-- Title: item.h Pages: 1 -->
<!--zoomable 196 -->
<svg id="main" version="1.1" xmlns="http://www.w3.org/2000/svg" xmlns:xlink="http://www.w3.org/1999/xlink" xml:space="preserve" onload="init(evt)">
<style type="text/css"><![CDATA[
.edge:hover path { stroke: red; }
.edge:hover polygon { stroke: red; fill: red; }
]]></style>
<script type="text/javascript"><![CDATA[
var edges = document.getElementsByTagName('g');
if (edges && edges.length) {
  for (var i=0;i<edges.length;i++) {
    if (edges[i].id.substr(0,4)=='edge') {
      edges[i].setAttribute('class','edge');
    }
  }
}
]]></script>
        <defs>
                <circle id="rim" cx="0" cy="0" r="7"/>
                <circle id="rim2" cx="0" cy="0" r="3.5"/>
                <g id="zoomPlus">
                        <use xlink:href="#rim" fill="#404040">
                                <set attributeName="fill" to="#808080" begin="zoomplus.mouseover" end="zoomplus.mouseout"/>
                        </use>
                        <path d="M-4,0h8M0,-4v8" fill="none" stroke="white" stroke-width="1.5" pointer-events="none"/>
                </g>
                <g id="zoomMin">
                        <use xlink:href="#rim" fill="#404040">
                                <set attributeName="fill" to="#808080" begin="zoomminus.mouseover" end="zoomminus.mouseout"/>
                        </use>
                        <path d="M-4,0h8" fill="none" stroke="white" stroke-width="1.5" pointer-events="none"/>
                </g>
                <g id="dirArrow">
                        <path fill="none" stroke="white" stroke-width="1.5" d="M0,-3.0v7 M-2.5,-0.5L0,-3.0L2.5,-0.5"/>
                </g>
               <g id="resetDef">
                       <use xlink:href="#rim2" fill="#404040">
                               <set attributeName="fill" to="#808080" begin="reset.mouseover" end="reset.mouseout"/>
                       </use>
               </g>
        </defs>

<script type="text/javascript">
var viewWidth = 2058;
var viewHeight = 196;
var sectionId = 'dynsection-0';
</script>
<script xlink:href="../../svgpan.js"/>
<svg id="graph" class="graph">
<g id="viewport">
<title>item.h</title>
<polygon fill="white" stroke="transparent" points="-4,4 -4,-192 2054,-192 2054,4 -4,4"/>
<!-- Node1 -->
<g id="node1" class="node">
<title>Node1</title>
<g id="a_node1"><a xlink:title=" ">
<polygon fill="#bfbfbf" stroke="black" points="475,-168.5 475,-187.5 523,-187.5 523,-168.5 475,-168.5"/>
<text text-anchor="middle" x="499" y="-175.5" font-family="Helvetica,sans-Serif" font-size="10.00">item.h</text>
</a>
</g>
</g>
<!-- Node2 -->
<g id="node2" class="node">
<title>Node2</title>
<g id="a_node2"><a xlink:href="../../d8/d4f/btbookshelftreemodel_8h.html" target="_top" xlink:title=" ">
<polygon fill="white" stroke="black" points="1001.5,-112.5 1001.5,-131.5 1134.5,-131.5 1134.5,-112.5 1001.5,-112.5"/>
<text text-anchor="middle" x="1068" y="-119.5" font-family="Helvetica,sans-Serif" font-size="10.00">btbookshelftreemodel.h</text>
</a>
</g>
</g>
<!-- Node1&#45;&gt;Node2 -->
<g id="edge1" class="edge">
<title>Node1&#45;&gt;Node2</title>
<path fill="none" stroke="midnightblue" d="M533.24,-173.75C625.26,-165.02 879.2,-140.92 1001.06,-129.35"/>
<polygon fill="midnightblue" stroke="midnightblue" points="532.71,-170.28 523.09,-174.71 533.37,-177.25 532.71,-170.28"/>
</g>
<!-- Node22 -->
<g id="node22" class="node">
<title>Node22</title>
<g id="a_node22"><a xlink:href="../../d5/d95/categoryitem_8h.html" target="_top" xlink:title=" ">
<polygon fill="white" stroke="black" points="165.5,-112.5 165.5,-131.5 256.5,-131.5 256.5,-112.5 165.5,-112.5"/>
<text text-anchor="middle" x="211" y="-119.5" font-family="Helvetica,sans-Serif" font-size="10.00">categoryitem.h</text>
</a>
</g>
</g>
<!-- Node1&#45;&gt;Node22 -->
<g id="edge31" class="edge">
<title>Node1&#45;&gt;Node22</title>
<path fill="none" stroke="midnightblue" d="M464.92,-170.61C413.08,-160.89 314.33,-142.37 256.43,-131.52"/>
<polygon fill="midnightblue" stroke="midnightblue" points="464.47,-174.09 474.94,-172.49 465.76,-167.21 464.47,-174.09"/>
</g>
<!-- Node24 -->
<g id="node24" class="node">
<title>Node24</title>
<g id="a_node24"><a xlink:href="../../d3/d27/indexingitem_8h.html" target="_top" xlink:title=" ">
<polygon fill="white" stroke="black" points="275,-112.5 275,-131.5 365,-131.5 365,-112.5 275,-112.5"/>
<text text-anchor="middle" x="320" y="-119.5" font-family="Helvetica,sans-Serif" font-size="10.00">indexingitem.h</text>
</a>
</g>
</g>
<!-- Node1&#45;&gt;Node24 -->
<g id="edge34" class="edge">
<title>Node1&#45;&gt;Node24</title>
<path fill="none" stroke="midnightblue" d="M464.99,-166.74C431.25,-156.56 380.14,-141.14 348.47,-131.59"/>
<polygon fill="midnightblue" stroke="midnightblue" points="464.27,-170.18 474.86,-169.72 466.3,-163.48 464.27,-170.18"/>
</g>
<!-- Node26 -->
<g id="node26" class="node">
<title>Node26</title>
<g id="a_node26"><a xlink:href="../../de/de4/item_8cpp.html" target="_top" xlink:title=" ">
<polygon fill="white" stroke="black" points="1152.5,-112.5 1152.5,-131.5 1211.5,-131.5 1211.5,-112.5 1152.5,-112.5"/>
<text text-anchor="middle" x="1182" y="-119.5" font-family="Helvetica,sans-Serif" font-size="10.00">item.cpp</text>
</a>
</g>
</g>
<!-- Node1&#45;&gt;Node26 -->
<g id="edge37" class="edge">
<title>Node1&#45;&gt;Node26</title>
<path fill="none" stroke="midnightblue" d="M533.17,-176.5C629.57,-174.68 911.68,-166.55 1143,-132 1146.02,-131.55 1149.16,-130.99 1152.28,-130.36"/>
<polygon fill="midnightblue" stroke="midnightblue" points="533.06,-173 523.12,-176.68 533.19,-180 533.06,-173"/>
</g>
<!-- Node27 -->
<g id="node27" class="node">
<title>Node27</title>
<g id="a_node27"><a xlink:href="../../dd/d6f/languageitem_8h.html" target="_top" xlink:title=" ">
<polygon fill="white" stroke="black" points="399.5,-112.5 399.5,-131.5 492.5,-131.5 492.5,-112.5 399.5,-112.5"/>
<text text-anchor="middle" x="446" y="-119.5" font-family="Helvetica,sans-Serif" font-size="10.00">languageitem.h</text>
</a>
</g>
</g>
<!-- Node1&#45;&gt;Node27 -->
<g id="edge38" class="edge">
<title>Node1&#45;&gt;Node27</title>
<path fill="none" stroke="midnightblue" d="M483.02,-160.72C473.68,-151.2 462.25,-139.56 454.59,-131.75"/>
<polygon fill="midnightblue" stroke="midnightblue" points="480.75,-163.4 490.25,-168.08 485.74,-158.49 480.75,-163.4"/>
</g>
<!-- Node29 -->
<g id="node29" class="node">
<title>Node29</title>
<g id="a_node29"><a xlink:href="../../d7/ddc/moduleitem_8h.html" target="_top" xlink:title=" ">
<polygon fill="white" stroke="black" points="510.5,-112.5 510.5,-131.5 595.5,-131.5 595.5,-112.5 510.5,-112.5"/>
<text text-anchor="middle" x="553" y="-119.5" font-family="Helvetica,sans-Serif" font-size="10.00">moduleitem.h</text>
</a>
</g>
</g>
<!-- Node1&#45;&gt;Node29 -->
<g id="edge41" class="edge">
<title>Node1&#45;&gt;Node29</title>
<path fill="none" stroke="midnightblue" d="M515,-161C524.57,-151.43 536.36,-139.64 544.25,-131.75"/>
<polygon fill="midnightblue" stroke="midnightblue" points="512.51,-158.54 507.92,-168.08 517.46,-163.49 512.51,-158.54"/>
</g>
<!-- Node3 -->
<g id="node3" class="node">
<title>Node3</title>
<g id="a_node3"><a xlink:href="../../d9/d0b/btbookshelftreemodel_8cpp.html" target="_top" xlink:title=" ">
<polygon fill="white" stroke="black" points="240,-56.5 240,-75.5 384,-75.5 384,-56.5 240,-56.5"/>
<text text-anchor="middle" x="312" y="-63.5" font-family="Helvetica,sans-Serif" font-size="10.00">btbookshelftreemodel.cpp</text>
</a>
</g>
</g>
<!-- Node2&#45;&gt;Node3 -->
<g id="edge2" class="edge">
<title>Node2&#45;&gt;Node3</title>
<path fill="none" stroke="midnightblue" d="M991.08,-116.98C865.69,-110.17 609.48,-95.23 393,-76 390.18,-75.75 387.31,-75.48 384.41,-75.21"/>
<polygon fill="midnightblue" stroke="midnightblue" points="991.16,-120.49 1001.34,-117.53 991.54,-113.5 991.16,-120.49"/>
</g>
<!-- Node4 -->
<g id="node4" class="node">
<title>Node4</title>
<g id="a_node4"><a xlink:href="../../dc/d32/moduleitem_8cpp.html" target="_top" xlink:title=" ">
<polygon fill="white" stroke="black" points="524,-56.5 524,-75.5 620,-75.5 620,-56.5 524,-56.5"/>
<text text-anchor="middle" x="572" y="-63.5" font-family="Helvetica,sans-Serif" font-size="10.00">moduleitem.cpp</text>
</a>
</g>
</g>
<!-- Node2&#45;&gt;Node4 -->
<g id="edge3" class="edge">
<title>Node2&#45;&gt;Node4</title>
<path fill="none" stroke="midnightblue" d="M991.17,-114.4C903.42,-106.57 755.61,-92.47 629,-76 626.12,-75.63 623.16,-75.22 620.18,-74.8"/>
<polygon fill="midnightblue" stroke="midnightblue" points="991.03,-117.9 1001.31,-115.3 991.65,-110.93 991.03,-117.9"/>
</g>
<!-- Node5 -->
<g id="node5" class="node">
<title>Node5</title>
<g id="a_node5"><a xlink:href="../../d9/d03/btbookshelfworkspage_8cpp.html" target="_top" xlink:title=" ">
<polygon fill="white" stroke="black" points="644.5,-0.5 644.5,-19.5 791.5,-19.5 791.5,-0.5 644.5,-0.5"/>
<text text-anchor="middle" x="718" y="-7.5" font-family="Helvetica,sans-Serif" font-size="10.00">btbookshelfworkspage.cpp</text>
</a>
</g>
</g>
<!-- Node2&#45;&gt;Node5 -->
<g id="edge4" class="edge">
<title>Node2&#45;&gt;Node5</title>
<path fill="none" stroke="midnightblue" d="M991.31,-114.66C941.47,-108.7 875.81,-97.36 821,-76 801.99,-68.59 753.1,-35.41 730.19,-19.53"/>
<polygon fill="midnightblue" stroke="midnightblue" points="991.05,-118.15 1001.38,-115.81 991.85,-111.19 991.05,-118.15"/>
</g>
<!-- Node6 -->
<g id="node6" class="node">
<title>Node6</title>
<g id="a_node6"><a xlink:href="../../d6/d8d/btbookshelfworkspage_8h.html" target="_top" xlink:title=" ">
<polygon fill="white" stroke="black" points="638,-56.5 638,-75.5 774,-75.5 774,-56.5 638,-56.5"/>
<text text-anchor="middle" x="706" y="-63.5" font-family="Helvetica,sans-Serif" font-size="10.00">btbookshelfworkspage.h</text>
</a>
</g>
</g>
<!-- Node2&#45;&gt;Node6 -->
<g id="edge5" class="edge">
<title>Node2&#45;&gt;Node6</title>
<path fill="none" stroke="midnightblue" d="M1000.4,-110.92C932.02,-100.71 827.45,-85.12 763.09,-75.52"/>
<polygon fill="midnightblue" stroke="midnightblue" points="1000.23,-114.43 1010.64,-112.44 1001.27,-107.51 1000.23,-114.43"/>
</g>
<!-- Node8 -->
<g id="node8" class="node">
<title>Node8</title>
<g id="a_node8"><a xlink:href="../../dd/dba/btinstallpagemodel_8cpp.html" target="_top" xlink:title=" ">
<polygon fill="white" stroke="black" points="809.5,-0.5 809.5,-19.5 940.5,-19.5 940.5,-0.5 809.5,-0.5"/>
<text text-anchor="middle" x="875" y="-7.5" font-family="Helvetica,sans-Serif" font-size="10.00">btinstallpagemodel.cpp</text>
</a>
</g>
</g>
<!-- Node2&#45;&gt;Node8 -->
<g id="edge8" class="edge">
<title>Node2&#45;&gt;Node8</title>
<path fill="none" stroke="midnightblue" d="M1045.42,-107.12C1023.5,-93.75 989.2,-73.08 959,-56 935.82,-42.89 908.57,-28.47 891.54,-19.57"/>
<polygon fill="midnightblue" stroke="midnightblue" points="1043.65,-110.15 1054.01,-112.38 1047.31,-104.17 1043.65,-110.15"/>
</g>
<!-- Node9 -->
<g id="node9" class="node">
<title>Node9</title>
<g id="a_node9"><a xlink:href="../../df/d56/btinstallpagemodel_8h.html" target="_top" xlink:title=" ">
<polygon fill="white" stroke="black" points="830,-56.5 830,-75.5 950,-75.5 950,-56.5 830,-56.5"/>
<text text-anchor="middle" x="890" y="-63.5" font-family="Helvetica,sans-Serif" font-size="10.00">btinstallpagemodel.h</text>
</a>
</g>
</g>
<!-- Node2&#45;&gt;Node9 -->
<g id="edge9" class="edge">
<title>Node2&#45;&gt;Node9</title>
<path fill="none" stroke="midnightblue" d="M1029.88,-109.44C996.32,-99.26 948.23,-84.66 918.07,-75.52"/>
<polygon fill="midnightblue" stroke="midnightblue" points="1029.21,-112.89 1039.8,-112.44 1031.24,-106.19 1029.21,-112.89"/>
</g>
<!-- Node10 -->
<g id="node10" class="node">
<title>Node10</title>
<g id="a_node10"><a xlink:href="../../df/d88/btbookshelfdockwidget_8cpp.html" target="_top" xlink:title=" ">
<polygon fill="white" stroke="black" points="1652.5,-0.5 1652.5,-19.5 1803.5,-19.5 1803.5,-0.5 1652.5,-0.5"/>
<text text-anchor="middle" x="1728" y="-7.5" font-family="Helvetica,sans-Serif" font-size="10.00">btbookshelfdockwidget.cpp</text>
</a>
</g>
</g>
<!-- Node2&#45;&gt;Node10 -->
<g id="edge12" class="edge">
<title>Node2&#45;&gt;Node10</title>
<path fill="none" stroke="midnightblue" d="M1144.73,-111.89C1335.71,-93.82 1392.05,-128.82 1573,-76 1591.32,-70.65 1593.62,-63.88 1611,-56 1642.12,-41.89 1679.07,-28.16 1703,-19.65"/>
<polygon fill="midnightblue" stroke="midnightblue" points="1144.25,-108.42 1134.64,-112.88 1144.94,-115.38 1144.25,-108.42"/>
</g>
<!-- Node11 -->
<g id="node11" class="node">
<title>Node11</title>
<g id="a_node11"><a xlink:href="../../d4/d1c/btbookshelfdockwidget_8h.html" target="_top" xlink:title=" ">
<polygon fill="white" stroke="black" points="1424,-56.5 1424,-75.5 1564,-75.5 1564,-56.5 1424,-56.5"/>
<text text-anchor="middle" x="1494" y="-63.5" font-family="Helvetica,sans-Serif" font-size="10.00">btbookshelfdockwidget.h</text>
</a>
</g>
</g>
<!-- Node2&#45;&gt;Node11 -->
<g id="edge13" class="edge">
<title>Node2&#45;&gt;Node11</title>
<path fill="none" stroke="midnightblue" d="M1144.63,-111.29C1225.04,-101.09 1350.19,-85.23 1426.85,-75.51"/>
<polygon fill="midnightblue" stroke="midnightblue" points="1144.04,-107.83 1134.56,-112.56 1144.92,-114.78 1144.04,-107.83"/>
</g>
<!-- Node14 -->
<g id="node14" class="node">
<title>Node14</title>
<g id="a_node14"><a xlink:href="../../d8/d44/btbookshelfgroupingmenu_8cpp.html" target="_top" xlink:title=" ">
<polygon fill="white" stroke="black" points="958.5,-0.5 958.5,-19.5 1123.5,-19.5 1123.5,-0.5 958.5,-0.5"/>
<text text-anchor="middle" x="1041" y="-7.5" font-family="Helvetica,sans-Serif" font-size="10.00">btbookshelfgroupingmenu.cpp</text>
</a>
</g>
</g>
<!-- Node2&#45;&gt;Node14 -->
<g id="edge17" class="edge">
<title>Node2&#45;&gt;Node14</title>
<path fill="none" stroke="midnightblue" d="M1052.29,-104.88C1045.57,-96.88 1038.49,-86.66 1035,-76 1028.65,-56.61 1034.2,-32.35 1038.05,-19.66"/>
<polygon fill="midnightblue" stroke="midnightblue" points="1049.7,-107.24 1058.98,-112.34 1054.9,-102.56 1049.7,-107.24"/>
</g>
<!-- Node15 -->
<g id="node15" class="node">
<title>Node15</title>
<g id="a_node15"><a xlink:href="../../dc/dd2/btbookshelfgroupingmenu_8h.html" target="_top" xlink:title=" ">
<polygon fill="white" stroke="black" points="1044,-56.5 1044,-75.5 1198,-75.5 1198,-56.5 1044,-56.5"/>
<text text-anchor="middle" x="1121" y="-63.5" font-family="Helvetica,sans-Serif" font-size="10.00">btbookshelfgroupingmenu.h</text>
</a>
</g>
</g>
<!-- Node2&#45;&gt;Node15 -->
<g id="edge18" class="edge">
<title>Node2&#45;&gt;Node15</title>
<path fill="none" stroke="midnightblue" d="M1083.98,-104.72C1093.32,-95.2 1104.75,-83.56 1112.41,-75.75"/>
<polygon fill="midnightblue" stroke="midnightblue" points="1081.26,-102.49 1076.75,-112.08 1086.25,-107.4 1081.26,-102.49"/>
</g>
<!-- Node16 -->
<g id="node16" class="node">
<title>Node16</title>
<g id="a_node16"><a xlink:href="../../d9/d70/btbookshelfwidget_8cpp.html" target="_top" xlink:title=" ">
<polygon fill="white" stroke="black" points="1141.5,-0.5 1141.5,-19.5 1268.5,-19.5 1268.5,-0.5 1141.5,-0.5"/>
<text text-anchor="middle" x="1205" y="-7.5" font-family="Helvetica,sans-Serif" font-size="10.00">btbookshelfwidget.cpp</text>
</a>
</g>
</g>
<!-- Node2&#45;&gt;Node16 -->
<g id="edge23" class="edge">
<title>Node2&#45;&gt;Node16</title>
<path fill="none" stroke="midnightblue" d="M1122.55,-110.21C1156.92,-102.18 1196.68,-90.19 1207,-76 1219.22,-59.2 1212.84,-32.97 1208.29,-19.55"/>
<polygon fill="midnightblue" stroke="midnightblue" points="1121.55,-106.85 1112.57,-112.47 1123.09,-113.68 1121.55,-106.85"/>
</g>
<!-- Node17 -->
<g id="node17" class="node">
<title>Node17</title>
<g id="a_node17"><a xlink:href="../../d9/d62/btopenworkaction_8cpp.html" target="_top" xlink:title=" ">
<polygon fill="white" stroke="black" points="1287,-0.5 1287,-19.5 1411,-19.5 1411,-0.5 1287,-0.5"/>
<text text-anchor="middle" x="1349" y="-7.5" font-family="Helvetica,sans-Serif" font-size="10.00">btopenworkaction.cpp</text>
</a>
</g>
</g>
<!-- Node2&#45;&gt;Node17 -->
<g id="edge24" class="edge">
<title>Node2&#45;&gt;Node17</title>
<path fill="none" stroke="midnightblue" d="M1115.69,-110.02C1147.25,-102.11 1189.25,-90.32 1225,-76 1266.52,-59.37 1312.41,-33.07 1334.94,-19.59"/>
<polygon fill="midnightblue" stroke="midnightblue" points="1114.7,-106.66 1105.83,-112.46 1116.38,-113.46 1114.7,-106.66"/>
</g>
<!-- Node18 -->
<g id="node18" class="node">
<title>Node18</title>
<g id="a_node18"><a xlink:href="../../dd/d87/btopenworkaction_8h.html" target="_top" xlink:title=" ">
<polygon fill="white" stroke="black" points="1292.5,-56.5 1292.5,-75.5 1405.5,-75.5 1405.5,-56.5 1292.5,-56.5"/>
<text text-anchor="middle" x="1349" y="-63.5" font-family="Helvetica,sans-Serif" font-size="10.00">btopenworkaction.h</text>
</a>
</g>
</g>
<!-- Node2&#45;&gt;Node18 -->
<g id="edge25" class="edge">
<title>Node2&#45;&gt;Node18</title>
<path fill="none" stroke="midnightblue" d="M1122.45,-110.54C1175.55,-100.33 1255.34,-85 1304.68,-75.52"/>
<polygon fill="midnightblue" stroke="midnightblue" points="1121.69,-107.12 1112.53,-112.44 1123.01,-113.99 1121.69,-107.12"/>
</g>
<!-- Node19 -->
<g id="node19" class="node">
<title>Node19</title>
<g id="a_node19"><a xlink:href="../../dd/ddc/btmodulechoosermenu_8cpp.html" target="_top" xlink:title=" ">
<polygon fill="white" stroke="black" points="1619.5,-56.5 1619.5,-75.5 1768.5,-75.5 1768.5,-56.5 1619.5,-56.5"/>
<text text-anchor="middle" x="1694" y="-63.5" font-family="Helvetica,sans-Serif" font-size="10.00">btmodulechoosermenu.cpp</text>
</a>
</g>
</g>
<!-- Node2&#45;&gt;Node19 -->
<g id="edge28" class="edge">
<title>Node2&#45;&gt;Node19</title>
<path fill="none" stroke="midnightblue" d="M1144.85,-111.85C1350.11,-91.78 1403.74,-94.2 1606,-76 1610.28,-75.61 1614.68,-75.21 1619.12,-74.78"/>
<polygon fill="midnightblue" stroke="midnightblue" points="1144.25,-108.39 1134.64,-112.86 1144.94,-115.36 1144.25,-108.39"/>
</g>
<!-- Node20 -->
<g id="node20" class="node">
<title>Node20</title>
<g id="a_node20"><a xlink:href="../../df/d0a/main_8cpp.html" target="_top" xlink:title=" ">
<polygon fill="white" stroke="black" points="1786,-56.5 1786,-75.5 1848,-75.5 1848,-56.5 1786,-56.5"/>
<text text-anchor="middle" x="1817" y="-63.5" font-family="Helvetica,sans-Serif" font-size="10.00">main.cpp</text>
</a>
</g>
</g>
<!-- Node2&#45;&gt;Node20 -->
<g id="edge29" class="edge">
<title>Node2&#45;&gt;Node20</title>
<path fill="none" stroke="midnightblue" d="M1144.74,-111.9C1426.33,-87.81 1501.44,-115.46 1778,-76 1780.48,-75.65 1783.03,-75.21 1785.58,-74.73"/>
<polygon fill="midnightblue" stroke="midnightblue" points="1144.29,-108.43 1134.63,-112.78 1144.9,-115.4 1144.29,-108.43"/>
</g>
<!-- Node21 -->
<g id="node21" class="node">
<title>Node21</title>
<g id="a_node21"><a xlink:href="../../dc/dab/btsearchmodulechooserdialog_8cpp.html" target="_top" xlink:title=" ">
<polygon fill="white" stroke="black" points="1866,-56.5 1866,-75.5 2050,-75.5 2050,-56.5 1866,-56.5"/>
<text text-anchor="middle" x="1958" y="-63.5" font-family="Helvetica,sans-Serif" font-size="10.00">btsearchmodulechooserdialog.cpp</text>
</a>
</g>
</g>
<!-- Node2&#45;&gt;Node21 -->
<g id="edge30" class="edge">
<title>Node2&#45;&gt;Node21</title>
<path fill="none" stroke="midnightblue" d="M1145.02,-111.88C1461.35,-85.33 1543.44,-97.87 1857,-76 1859.9,-75.8 1862.84,-75.58 1865.81,-75.36"/>
<polygon fill="midnightblue" stroke="midnightblue" points="1144.3,-108.43 1134.63,-112.76 1144.89,-115.41 1144.3,-108.43"/>
</g>
<!-- Node6&#45;&gt;Node5 -->
<g id="edge7" class="edge">
<title>Node6&#45;&gt;Node5</title>
<path fill="none" stroke="midnightblue" d="M710.2,-46.1C712.19,-37.14 714.48,-26.86 716.06,-19.75"/>
<polygon fill="midnightblue" stroke="midnightblue" points="706.73,-45.56 707.98,-56.08 713.57,-47.08 706.73,-45.56"/>
</g>
<!-- Node7 -->
<g id="node7" class="node">
<title>Node7</title>
<g id="a_node7"><a xlink:href="../../d6/d54/btbookshelfwizard_8cpp.html" target="_top" xlink:title=" ">
<polygon fill="white" stroke="black" points="500,-0.5 500,-19.5 626,-19.5 626,-0.5 500,-0.5"/>
<text text-anchor="middle" x="563" y="-7.5" font-family="Helvetica,sans-Serif" font-size="10.00">btbookshelfwizard.cpp</text>
</a>
</g>
</g>
<!-- Node6&#45;&gt;Node7 -->
<g id="edge6" class="edge">
<title>Node6&#45;&gt;Node7</title>
<path fill="none" stroke="midnightblue" d="M673.97,-52.91C647.09,-42.75 609.36,-28.51 585.55,-19.52"/>
<polygon fill="midnightblue" stroke="midnightblue" points="672.75,-56.19 683.34,-56.44 675.22,-49.64 672.75,-56.19"/>
</g>
<!-- Node9&#45;&gt;Node5 -->
<g id="edge10" class="edge">
<title>Node9&#45;&gt;Node5</title>
<path fill="none" stroke="midnightblue" d="M853.17,-53.44C820.74,-43.26 774.26,-28.66 745.13,-19.52"/>
<polygon fill="midnightblue" stroke="midnightblue" points="852.16,-56.79 862.75,-56.44 854.25,-50.11 852.16,-56.79"/>
</g>
<!-- Node9&#45;&gt;Node8 -->
<g id="edge11" class="edge">
<title>Node9&#45;&gt;Node8</title>
<path fill="none" stroke="midnightblue" d="M884.83,-46.4C882.32,-37.36 879.43,-26.94 877.43,-19.75"/>
<polygon fill="midnightblue" stroke="midnightblue" points="881.47,-47.38 887.52,-56.08 888.22,-45.51 881.47,-47.38"/>
</g>
<!-- Node11&#45;&gt;Node10 -->
<g id="edge16" class="edge">
<title>Node11&#45;&gt;Node10</title>
<path fill="none" stroke="midnightblue" d="M1541,-54.15C1585.22,-43.95 1650.52,-28.88 1691.1,-19.52"/>
<polygon fill="midnightblue" stroke="midnightblue" points="1540.03,-50.78 1531.08,-56.44 1541.61,-57.61 1540.03,-50.78"/>
</g>
<!-- Node12 -->
<g id="node12" class="node">
<title>Node12</title>
<g id="a_node12"><a xlink:href="../../d1/df6/bibletime_8cpp.html" target="_top" xlink:title=" ">
<polygon fill="white" stroke="black" points="1551.5,-0.5 1551.5,-19.5 1634.5,-19.5 1634.5,-0.5 1551.5,-0.5"/>
<text text-anchor="middle" x="1593" y="-7.5" font-family="Helvetica,sans-Serif" font-size="10.00">bibletime.cpp</text>
</a>
</g>
</g>
<!-- Node11&#45;&gt;Node12 -->
<g id="edge14" class="edge">
<title>Node11&#45;&gt;Node12</title>
<path fill="none" stroke="midnightblue" d="M1518.84,-51.45C1537.11,-41.48 1561.42,-28.23 1577.13,-19.65"/>
<polygon fill="midnightblue" stroke="midnightblue" points="1517.01,-48.46 1509.91,-56.32 1520.36,-54.61 1517.01,-48.46"/>
</g>
<!-- Node13 -->
<g id="node13" class="node">
<title>Node13</title>
<g id="a_node13"><a xlink:href="../../da/dc7/bibletime__init_8cpp.html" target="_top" xlink:title=" ">
<polygon fill="white" stroke="black" points="1429,-0.5 1429,-19.5 1533,-19.5 1533,-0.5 1429,-0.5"/>
<text text-anchor="middle" x="1481" y="-7.5" font-family="Helvetica,sans-Serif" font-size="10.00">bibletime_init.cpp</text>
</a>
</g>
</g>
<!-- Node11&#45;&gt;Node13 -->
<g id="edge15" class="edge">
<title>Node11&#45;&gt;Node13</title>
<path fill="none" stroke="midnightblue" d="M1489.45,-46.1C1487.29,-37.14 1484.82,-26.86 1483.11,-19.75"/>
<polygon fill="midnightblue" stroke="midnightblue" points="1486.11,-47.18 1491.85,-56.08 1492.92,-45.54 1486.11,-47.18"/>
</g>
<!-- Node15&#45;&gt;Node5 -->
<g id="edge19" class="edge">
<title>Node15&#45;&gt;Node5</title>
<path fill="none" stroke="midnightblue" d="M1047.15,-55.1C971.05,-44.91 853.65,-29.18 781.56,-19.52"/>
<polygon fill="midnightblue" stroke="midnightblue" points="1046.77,-58.58 1057.14,-56.44 1047.7,-51.65 1046.77,-58.58"/>
</g>
<!-- Node15&#45;&gt;Node14 -->
<g id="edge20" class="edge">
<title>Node15&#45;&gt;Node14</title>
<path fill="none" stroke="midnightblue" d="M1099.7,-50.62C1085.08,-40.76 1066.17,-27.99 1053.82,-19.65"/>
<polygon fill="midnightblue" stroke="midnightblue" points="1097.9,-53.63 1108.15,-56.32 1101.82,-47.83 1097.9,-53.63"/>
</g>
<!-- Node15&#45;&gt;Node16 -->
<g id="edge21" class="edge">
<title>Node15&#45;&gt;Node16</title>
<path fill="none" stroke="midnightblue" d="M1142.93,-50.9C1158.34,-41 1178.45,-28.07 1191.54,-19.65"/>
<polygon fill="midnightblue" stroke="midnightblue" points="1141.02,-47.97 1134.5,-56.32 1144.8,-53.86 1141.02,-47.97"/>
</g>
<!-- Node15&#45;&gt;Node17 -->
<g id="edge22" class="edge">
<title>Node15&#45;&gt;Node17</title>
<path fill="none" stroke="midnightblue" d="M1167.07,-54.09C1210.15,-43.89 1273.59,-28.86 1313.04,-19.52"/>
<polygon fill="midnightblue" stroke="midnightblue" points="1166.05,-50.73 1157.13,-56.44 1167.66,-57.54 1166.05,-50.73"/>
</g>
<!-- Node18&#45;&gt;Node13 -->
<g id="edge26" class="edge">
<title>Node18&#45;&gt;Node13</title>
<path fill="none" stroke="midnightblue" d="M1379.22,-52.64C1403.99,-42.5 1438.4,-28.43 1460.18,-19.52"/>
<polygon fill="midnightblue" stroke="midnightblue" points="1377.85,-49.42 1369.92,-56.44 1380.5,-55.9 1377.85,-49.42"/>
</g>
<!-- Node18&#45;&gt;Node17 -->
<g id="edge27" class="edge">
<title>Node18&#45;&gt;Node17</title>
<path fill="none" stroke="midnightblue" d="M1349,-45.8C1349,-36.91 1349,-26.78 1349,-19.75"/>
<polygon fill="midnightblue" stroke="midnightblue" points="1345.5,-46.08 1349,-56.08 1352.5,-46.08 1345.5,-46.08"/>
</g>
<!-- Node22&#45;&gt;Node3 -->
<g id="edge32" class="edge">
<title>Node22&#45;&gt;Node3</title>
<path fill="none" stroke="midnightblue" d="M236.08,-107.59C254.76,-97.61 279.7,-84.27 295.81,-75.65"/>
<polygon fill="midnightblue" stroke="midnightblue" points="234.4,-104.52 227.23,-112.32 237.7,-110.7 234.4,-104.52"/>
</g>
<!-- Node23 -->
<g id="node23" class="node">
<title>Node23</title>
<g id="a_node23"><a xlink:href="../../d3/d29/categoryitem_8cpp.html" target="_top" xlink:title=" ">
<polygon fill="white" stroke="black" points="0,-56.5 0,-75.5 102,-75.5 102,-56.5 0,-56.5"/>
<text text-anchor="middle" x="51" y="-63.5" font-family="Helvetica,sans-Serif" font-size="10.00">categoryitem.cpp</text>
</a>
</g>
</g>
<!-- Node22&#45;&gt;Node23 -->
<g id="edge33" class="edge">
<title>Node22&#45;&gt;Node23</title>
<path fill="none" stroke="midnightblue" d="M175.95,-109.17C145.83,-99 103.1,-84.59 76.23,-75.52"/>
<polygon fill="midnightblue" stroke="midnightblue" points="175.05,-112.56 185.65,-112.44 177.29,-105.93 175.05,-112.56"/>
</g>
<!-- Node24&#45;&gt;Node3 -->
<g id="edge35" class="edge">
<title>Node24&#45;&gt;Node3</title>
<path fill="none" stroke="midnightblue" d="M317.2,-102.1C315.87,-93.14 314.35,-82.86 313.3,-75.75"/>
<polygon fill="midnightblue" stroke="midnightblue" points="313.75,-102.7 318.68,-112.08 320.68,-101.68 313.75,-102.7"/>
</g>
<!-- Node25 -->
<g id="node25" class="node">
<title>Node25</title>
<g id="a_node25"><a xlink:href="../../d6/d93/indexingitem_8cpp.html" target="_top" xlink:title=" ">
<polygon fill="white" stroke="black" points="120.5,-56.5 120.5,-75.5 221.5,-75.5 221.5,-56.5 120.5,-56.5"/>
<text text-anchor="middle" x="171" y="-63.5" font-family="Helvetica,sans-Serif" font-size="10.00">indexingitem.cpp</text>
</a>
</g>
</g>
<!-- Node24&#45;&gt;Node25 -->
<g id="edge36" class="edge">
<title>Node24&#45;&gt;Node25</title>
<path fill="none" stroke="midnightblue" d="M286.63,-108.91C258.62,-98.75 219.3,-84.51 194.5,-75.52"/>
<polygon fill="midnightblue" stroke="midnightblue" points="285.8,-112.33 296.39,-112.44 288.18,-105.75 285.8,-112.33"/>
</g>
<!-- Node27&#45;&gt;Node3 -->
<g id="edge39" class="edge">
<title>Node27&#45;&gt;Node3</title>
<path fill="none" stroke="midnightblue" d="M415.32,-108.64C390.18,-98.5 355.25,-84.43 333.13,-75.52"/>
<polygon fill="midnightblue" stroke="midnightblue" points="414.18,-111.95 424.77,-112.44 416.8,-105.46 414.18,-111.95"/>
</g>
<!-- Node28 -->
<g id="node28" class="node">
<title>Node28</title>
<g id="a_node28"><a xlink:href="../../d9/d6e/languageitem_8cpp.html" target="_top" xlink:title=" ">
<polygon fill="white" stroke="black" points="402,-56.5 402,-75.5 506,-75.5 506,-56.5 402,-56.5"/>
<text text-anchor="middle" x="454" y="-63.5" font-family="Helvetica,sans-Serif" font-size="10.00">languageitem.cpp</text>
</a>
</g>
</g>
<!-- Node27&#45;&gt;Node28 -->
<g id="edge40" class="edge">
<title>Node27&#45;&gt;Node28</title>
<path fill="none" stroke="midnightblue" d="M448.8,-102.1C450.13,-93.14 451.65,-82.86 452.7,-75.75"/>
<polygon fill="midnightblue" stroke="midnightblue" points="445.32,-101.68 447.32,-112.08 452.25,-102.7 445.32,-101.68"/>
</g>
<!-- Node29&#45;&gt;Node3 -->
<g id="edge42" class="edge">
<title>Node29&#45;&gt;Node3</title>
<path fill="none" stroke="midnightblue" d="M504.88,-110.22C459.34,-100.01 391.89,-84.9 350.01,-75.52"/>
<polygon fill="midnightblue" stroke="midnightblue" points="504.29,-113.67 514.81,-112.44 505.82,-106.84 504.29,-113.67"/>
</g>
<!-- Node29&#45;&gt;Node4 -->
<g id="edge43" class="edge">
<title>Node29&#45;&gt;Node4</title>
<path fill="none" stroke="midnightblue" d="M559.55,-102.4C562.72,-93.36 566.39,-82.94 568.92,-75.75"/>
<polygon fill="midnightblue" stroke="midnightblue" points="556.15,-101.49 556.14,-112.08 562.76,-103.81 556.15,-101.49"/>
</g>
</g>
</svg>
        <g id="navigator" transform="translate(0 0)" fill="#404254">
                <rect fill="#f2f5e9" fill-opacity="0.5" stroke="#606060" stroke-width=".5" x="0" y="0" width="60" height="60"/>
                <use id="zoomplus" xlink:href="#zoomPlus" x="17" y="9" onmousedown="handleZoom(evt,'in')"/>
                <use id="zoomminus" xlink:href="#zoomMin" x="42" y="9" onmousedown="handleZoom(evt,'out')"/>
                <use id="reset" xlink:href="#resetDef" x="30" y="36" onmousedown="handleReset()"/>
                <g id="arrowUp" xlink:href="#dirArrow" transform="translate(30 24)" onmousedown="handlePan(0,-1)">
                  <use xlink:href="#rim" fill="#404040">
                        <set attributeName="fill" to="#808080" begin="arrowUp.mouseover" end="arrowUp.mouseout"/>
                  </use>
                  <path fill="none" stroke="white" stroke-width="1.5" d="M0,-3.0v7 M-2.5,-0.5L0,-3.0L2.5,-0.5"/>
                </g>
                <g id="arrowRight" xlink:href="#dirArrow" transform="rotate(90) translate(36 -43)" onmousedown="handlePan(1,0)">
                  <use xlink:href="#rim" fill="#404040">
                        <set attributeName="fill" to="#808080" begin="arrowRight.mouseover" end="arrowRight.mouseout"/>
                  </use>
                  <path fill="none" stroke="white" stroke-width="1.5" d="M0,-3.0v7 M-2.5,-0.5L0,-3.0L2.5,-0.5"/>
                </g>
                <g id="arrowDown" xlink:href="#dirArrow" transform="rotate(180) translate(-30 -48)" onmousedown="handlePan(0,1)">
                  <use xlink:href="#rim" fill="#404040">
                        <set attributeName="fill" to="#808080" begin="arrowDown.mouseover" end="arrowDown.mouseout"/>
                  </use>
                  <path fill="none" stroke="white" stroke-width="1.5" d="M0,-3.0v7 M-2.5,-0.5L0,-3.0L2.5,-0.5"/>
                </g>
                <g id="arrowLeft" xlink:href="#dirArrow" transform="rotate(270) translate(-36 17)" onmousedown="handlePan(-1,0)">
                  <use xlink:href="#rim" fill="#404040">
                        <set attributeName="fill" to="#808080" begin="arrowLeft.mouseover" end="arrowLeft.mouseout"/>
                  </use>
                  <path fill="none" stroke="white" stroke-width="1.5" d="M0,-3.0v7 M-2.5,-0.5L0,-3.0L2.5,-0.5"/>
                </g>
        </g>
        <svg viewBox="0 0 15 15" width="100%" height="30px" preserveAspectRatio="xMaxYMin meet">
         <g id="arrow_out" transform="scale(0.3 0.3)">
          <a xlink:href="item_8h__dep__incl_org.svg" target="_base">
           <rect id="button" ry="5" rx="5" y="6" x="6" height="38" width="38"
                fill="#f2f5e9" fill-opacity="0.5" stroke="#606060" stroke-width="1.0"/>
           <path id="arrow"
             d="M 11.500037,31.436501 C 11.940474,20.09759 22.043105,11.32322 32.158766,21.979434 L 37.068811,17.246167 C 37.068811,17.246167 37.088388,32 37.088388,32 L 22.160133,31.978069 C 22.160133,31.978069 26.997745,27.140456 26.997745,27.140456 C 18.528582,18.264221 13.291696,25.230495 11.500037,31.436501 z"
             style="fill:#404040;"/>
          </a>
         </g>
        </svg>
</svg>
