<?xml version="1.0" encoding="UTF-8" standalone="no"?>
<!DOCTYPE svg PUBLIC "-//W3C//DTD SVG 1.1//EN"
 "http://www.w3.org/Graphics/SVG/1.1/DTD/svg11.dtd">
<!-- Generated by graphviz version 2.43.0 (0)
 -->
<!-- Title: cp1252.h Pages: 1 -->
<svg width="320pt" height="84pt"
 viewBox="0.00 0.00 320.00 84.00" xmlns="http://www.w3.org/2000/svg" xmlns:xlink="http://www.w3.org/1999/xlink">
<g id="graph0" class="graph" transform="scale(1 1) rotate(0) translate(4 80)">
<title>cp1252.h</title>
<polygon fill="white" stroke="transparent" points="-4,4 -4,-80 316,-80 316,4 -4,4"/>
<!-- Node1 -->
<g id="node1" class="node">
<title>Node1</title>
<g id="a_node1"><a xlink:title=" ">
<polygon fill="#bfbfbf" stroke="black" points="137.5,-56.5 137.5,-75.5 198.5,-75.5 198.5,-56.5 137.5,-56.5"/>
<text text-anchor="middle" x="168" y="-63.5" font-family="Helvetica,sans-Serif" font-size="10.00">cp1252.h</text>
</a>
</g>
</g>
<!-- Node2 -->
<g id="node2" class="node">
<title>Node2</title>
<g id="a_node2"><a xlink:href="../../d4/d4a/cswordldkey_8cpp.html" target="_top" xlink:title=" ">
<polygon fill="white" stroke="black" points="0,-0.5 0,-19.5 96,-19.5 96,-0.5 0,-0.5"/>
<text text-anchor="middle" x="48" y="-7.5" font-family="Helvetica,sans-Serif" font-size="10.00">cswordldkey.cpp</text>
</a>
</g>
</g>
<!-- Node1&#45;&gt;Node2 -->
<g id="edge1" class="edge">
<title>Node1&#45;&gt;Node2</title>
<path fill="none" stroke="midnightblue" d="M139.63,-52.23C117.18,-42.13 86.46,-28.31 66.93,-19.52"/>
<polygon fill="midnightblue" stroke="midnightblue" points="138.43,-55.53 148.99,-56.44 141.3,-49.15 138.43,-55.53"/>
</g>
<!-- Node3 -->
<g id="node3" class="node">
<title>Node3</title>
<g id="a_node3"><a xlink:href="../../d5/d47/cswordtreekey_8cpp.html" target="_top" xlink:title=" ">
<polygon fill="white" stroke="black" points="114.5,-0.5 114.5,-19.5 221.5,-19.5 221.5,-0.5 114.5,-0.5"/>
<text text-anchor="middle" x="168" y="-7.5" font-family="Helvetica,sans-Serif" font-size="10.00">cswordtreekey.cpp</text>
</a>
</g>
</g>
<!-- Node1&#45;&gt;Node3 -->
<g id="edge2" class="edge">
<title>Node1&#45;&gt;Node3</title>
<path fill="none" stroke="midnightblue" d="M168,-45.8C168,-36.91 168,-26.78 168,-19.75"/>
<polygon fill="midnightblue" stroke="midnightblue" points="164.5,-46.08 168,-56.08 171.5,-46.08 164.5,-46.08"/>
</g>
<!-- Node4 -->
<g id="node4" class="node">
<title>Node4</title>
<g id="a_node4"><a xlink:href="../../d0/dbf/cp1252_8cpp.html" target="_top" xlink:title=" ">
<polygon fill="white" stroke="black" points="240,-0.5 240,-19.5 312,-19.5 312,-0.5 240,-0.5"/>
<text text-anchor="middle" x="276" y="-7.5" font-family="Helvetica,sans-Serif" font-size="10.00">cp1252.cpp</text>
</a>
</g>
</g>
<!-- Node1&#45;&gt;Node4 -->
<g id="edge3" class="edge">
<title>Node1&#45;&gt;Node4</title>
<path fill="none" stroke="midnightblue" d="M194.55,-51.73C214.55,-41.73 241.39,-28.31 258.69,-19.65"/>
<polygon fill="midnightblue" stroke="midnightblue" points="192.73,-48.72 185.35,-56.32 195.86,-54.98 192.73,-48.72"/>
</g>
</g>
</svg>
