<?xml version="1.0" encoding="UTF-8" standalone="no"?>
<!DOCTYPE svg PUBLIC "-//W3C//DTD SVG 1.1//EN"
 "http://www.w3.org/Graphics/SVG/1.1/DTD/svg11.dtd">
<!-- Generated by graphviz version 2.43.0 (0)
 -->
<!-- Title: QMenu Pages: 1 -->
<svg width="454pt" height="540pt"
 viewBox="0.00 0.00 453.50 540.00" xmlns="http://www.w3.org/2000/svg" xmlns:xlink="http://www.w3.org/1999/xlink">
<g id="graph0" class="graph" transform="scale(1 1) rotate(0) translate(4 536)">
<title>QMenu</title>
<polygon fill="white" stroke="transparent" points="-4,4 -4,-536 449.5,-536 449.5,4 -4,4"/>
<!-- Node1 -->
<g id="node1" class="node">
<title>Node1</title>
<g id="a_node1"><a xlink:title=" ">
<polygon fill="#bfbfbf" stroke="black" points="212.5,-474.5 212.5,-531.5 263.5,-531.5 263.5,-474.5 212.5,-474.5"/>
<text text-anchor="middle" x="238" y="-519.5" font-family="Helvetica,sans-Serif" font-size="10.00">QMenu</text>
<polyline fill="none" stroke="black" points="212.5,-512.5 263.5,-512.5 "/>
<text text-anchor="middle" x="238" y="-500.5" font-family="Helvetica,sans-Serif" font-size="10.00"> </text>
<polyline fill="none" stroke="black" points="212.5,-493.5 263.5,-493.5 "/>
<text text-anchor="middle" x="238" y="-481.5" font-family="Helvetica,sans-Serif" font-size="10.00"> </text>
</a>
</g>
</g>
<!-- Node2 -->
<g id="node2" class="node">
<title>Node2</title>
<g id="a_node2"><a xlink:href="../../d7/ddf/classBtBookshelfGroupingMenu.html" target="_top" xlink:title=" ">
<polygon fill="white" stroke="black" points="0,-265 0,-410 166,-410 166,-265 0,-265"/>
<text text-anchor="middle" x="83" y="-398" font-family="Helvetica,sans-Serif" font-size="10.00">BtBookshelfGroupingMenu</text>
<polyline fill="none" stroke="black" points="0,-391 166,-391 "/>
<text text-anchor="start" x="8" y="-379" font-family="Helvetica,sans-Serif" font-size="10.00">&#45; m_groupingActionGroup</text>
<text text-anchor="start" x="8" y="-368" font-family="Helvetica,sans-Serif" font-size="10.00">&#45; m_groupingCatAction</text>
<text text-anchor="start" x="8" y="-357" font-family="Helvetica,sans-Serif" font-size="10.00">&#45; m_groupingCatLangAction</text>
<text text-anchor="start" x="8" y="-346" font-family="Helvetica,sans-Serif" font-size="10.00">&#45; m_groupingLangAction</text>
<text text-anchor="start" x="8" y="-335" font-family="Helvetica,sans-Serif" font-size="10.00">&#45; m_groupingLangCatAction</text>
<text text-anchor="start" x="8" y="-324" font-family="Helvetica,sans-Serif" font-size="10.00">&#45; m_groupingNoneAction</text>
<polyline fill="none" stroke="black" points="0,-317 166,-317 "/>
<text text-anchor="start" x="8" y="-305" font-family="Helvetica,sans-Serif" font-size="10.00">+ BtBookshelfGroupingMenu()</text>
<text text-anchor="start" x="8" y="-294" font-family="Helvetica,sans-Serif" font-size="10.00">+ BtBookshelfGroupingMenu()</text>
<text text-anchor="start" x="8" y="-283" font-family="Helvetica,sans-Serif" font-size="10.00">&#45; initMenu()</text>
<text text-anchor="start" x="8" y="-272" font-family="Helvetica,sans-Serif" font-size="10.00">&#45; retranslateUi()</text>
</a>
</g>
</g>
<!-- Node1&#45;&gt;Node2 -->
<g id="edge1" class="edge">
<title>Node1&#45;&gt;Node2</title>
<path fill="none" stroke="midnightblue" d="M205.12,-468.99C195.36,-459.09 184.69,-448.16 175,-438 166.47,-429.06 157.58,-419.61 148.82,-410.22"/>
<polygon fill="none" stroke="midnightblue" points="202.85,-471.68 212.37,-476.33 207.83,-466.76 202.85,-471.68"/>
</g>
<!-- Node3 -->
<g id="node3" class="node">
<title>Node3</title>
<g id="a_node3"><a xlink:href="../../d9/de6/classBtMenuView.html" target="_top" xlink:title=" ">
<polygon fill="white" stroke="black" points="184,-237.5 184,-437.5 292,-437.5 292,-237.5 184,-237.5"/>
<text text-anchor="middle" x="238" y="-425.5" font-family="Helvetica,sans-Serif" font-size="10.00">BtMenuView</text>
<polyline fill="none" stroke="black" points="184,-418.5 292,-418.5 "/>
<text text-anchor="start" x="192" y="-406.5" font-family="Helvetica,sans-Serif" font-size="10.00">&#45; m_actions</text>
<text text-anchor="start" x="192" y="-395.5" font-family="Helvetica,sans-Serif" font-size="10.00">&#45; m_model</text>
<polyline fill="none" stroke="black" points="184,-388.5 292,-388.5 "/>
<text text-anchor="start" x="192" y="-376.5" font-family="Helvetica,sans-Serif" font-size="10.00">+ BtMenuView()</text>
<text text-anchor="start" x="192" y="-365.5" font-family="Helvetica,sans-Serif" font-size="10.00">+ BtMenuView()</text>
<text text-anchor="start" x="192" y="-354.5" font-family="Helvetica,sans-Serif" font-size="10.00">+ event()</text>
<text text-anchor="start" x="192" y="-343.5" font-family="Helvetica,sans-Serif" font-size="10.00">+ model()</text>
<text text-anchor="start" x="192" y="-332.5" font-family="Helvetica,sans-Serif" font-size="10.00">+ setModel()</text>
<text text-anchor="start" x="192" y="-321.5" font-family="Helvetica,sans-Serif" font-size="10.00">+ ~BtMenuView()</text>
<text text-anchor="start" x="192" y="-310.5" font-family="Helvetica,sans-Serif" font-size="10.00"># newAction()</text>
<text text-anchor="start" x="192" y="-299.5" font-family="Helvetica,sans-Serif" font-size="10.00"># newMenu()</text>
<text text-anchor="start" x="192" y="-288.5" font-family="Helvetica,sans-Serif" font-size="10.00"># postBuildMenu()</text>
<text text-anchor="start" x="192" y="-277.5" font-family="Helvetica,sans-Serif" font-size="10.00"># preBuildMenu()</text>
<text text-anchor="start" x="192" y="-266.5" font-family="Helvetica,sans-Serif" font-size="10.00"># rebuildMenu()</text>
<text text-anchor="start" x="192" y="-255.5" font-family="Helvetica,sans-Serif" font-size="10.00">&#45; buildMenu()</text>
<text text-anchor="start" x="192" y="-244.5" font-family="Helvetica,sans-Serif" font-size="10.00">&#45; removeMenus()</text>
</a>
</g>
</g>
<!-- Node1&#45;&gt;Node3 -->
<g id="edge2" class="edge">
<title>Node1&#45;&gt;Node3</title>
<path fill="none" stroke="midnightblue" d="M238,-464.04C238,-455.87 238,-446.87 238,-437.55"/>
<polygon fill="none" stroke="midnightblue" points="234.5,-464.26 238,-474.26 241.5,-464.26 234.5,-464.26"/>
</g>
<!-- Node6 -->
<g id="node6" class="node">
<title>Node6</title>
<g id="a_node6"><a xlink:href="../../d9/d12/classBtVerseKeyMenu.html" target="_top" xlink:title=" ">
<polygon fill="white" stroke="black" points="310.5,-292.5 310.5,-382.5 445.5,-382.5 445.5,-292.5 310.5,-292.5"/>
<text text-anchor="middle" x="378" y="-370.5" font-family="Helvetica,sans-Serif" font-size="10.00">BtVerseKeyMenu</text>
<polyline fill="none" stroke="black" points="310.5,-363.5 445.5,-363.5 "/>
<text text-anchor="start" x="318.5" y="-351.5" font-family="Helvetica,sans-Serif" font-size="10.00">&#45; m_firstClickLock</text>
<text text-anchor="start" x="318.5" y="-340.5" font-family="Helvetica,sans-Serif" font-size="10.00">&#45; m_timerId</text>
<polyline fill="none" stroke="black" points="310.5,-333.5 445.5,-333.5 "/>
<text text-anchor="start" x="318.5" y="-321.5" font-family="Helvetica,sans-Serif" font-size="10.00">+ BtVerseKeyMenu()</text>
<text text-anchor="start" x="318.5" y="-310.5" font-family="Helvetica,sans-Serif" font-size="10.00"># mouseReleaseEvent()</text>
<text text-anchor="start" x="318.5" y="-299.5" font-family="Helvetica,sans-Serif" font-size="10.00"># timerEvent()</text>
</a>
</g>
</g>
<!-- Node1&#45;&gt;Node6 -->
<g id="edge5" class="edge">
<title>Node1&#45;&gt;Node6</title>
<path fill="none" stroke="midnightblue" d="M270.64,-470.33C280.65,-460.24 291.51,-448.87 301,-438 316.23,-420.56 332.05,-400.51 345.36,-382.99"/>
<polygon fill="none" stroke="midnightblue" points="268.14,-467.88 263.55,-477.43 273.09,-472.83 268.14,-467.88"/>
</g>
<!-- Node4 -->
<g id="node4" class="node">
<title>Node4</title>
<g id="a_node4"><a xlink:href="../../d3/de9/classBtModuleChooserMenu.html" target="_top" xlink:title=" ">
<polygon fill="white" stroke="black" points="78.5,-0.5 78.5,-200.5 227.5,-200.5 227.5,-0.5 78.5,-0.5"/>
<text text-anchor="middle" x="153" y="-188.5" font-family="Helvetica,sans-Serif" font-size="10.00">BtModuleChooserMenu</text>
<polyline fill="none" stroke="black" points="78.5,-181.5 227.5,-181.5 "/>
<text text-anchor="start" x="86.5" y="-169.5" font-family="Helvetica,sans-Serif" font-size="10.00">+ m_buttonIndex</text>
<text text-anchor="start" x="86.5" y="-158.5" font-family="Helvetica,sans-Serif" font-size="10.00">+ m_flags</text>
<text text-anchor="start" x="86.5" y="-147.5" font-family="Helvetica,sans-Serif" font-size="10.00">+ m_leftLikeModules</text>
<text text-anchor="start" x="86.5" y="-136.5" font-family="Helvetica,sans-Serif" font-size="10.00">+ m_moduleType</text>
<text text-anchor="start" x="86.5" y="-125.5" font-family="Helvetica,sans-Serif" font-size="10.00">+ m_newModulesToUse</text>
<text text-anchor="start" x="86.5" y="-114.5" font-family="Helvetica,sans-Serif" font-size="10.00">+ m_selectedModule</text>
<text text-anchor="start" x="86.5" y="-103.5" font-family="Helvetica,sans-Serif" font-size="10.00">+ m_sortedModel</text>
<polyline fill="none" stroke="black" points="78.5,-96.5 227.5,-96.5 "/>
<text text-anchor="start" x="86.5" y="-84.5" font-family="Helvetica,sans-Serif" font-size="10.00">+ BtModuleChooserMenu()</text>
<text text-anchor="start" x="86.5" y="-73.5" font-family="Helvetica,sans-Serif" font-size="10.00">+ buttonIndex()</text>
<text text-anchor="start" x="86.5" y="-62.5" font-family="Helvetica,sans-Serif" font-size="10.00">+ moduleType()</text>
<text text-anchor="start" x="86.5" y="-51.5" font-family="Helvetica,sans-Serif" font-size="10.00">+ selectedModule()</text>
<text text-anchor="start" x="86.5" y="-40.5" font-family="Helvetica,sans-Serif" font-size="10.00">+ setSelectedModule()</text>
<text text-anchor="start" x="86.5" y="-29.5" font-family="Helvetica,sans-Serif" font-size="10.00">+ update()</text>
<text text-anchor="start" x="86.5" y="-18.5" font-family="Helvetica,sans-Serif" font-size="10.00">&#45; newAction()</text>
<text text-anchor="start" x="86.5" y="-7.5" font-family="Helvetica,sans-Serif" font-size="10.00">&#45; preBuildMenu()</text>
</a>
</g>
</g>
<!-- Node3&#45;&gt;Node4 -->
<g id="edge3" class="edge">
<title>Node3&#45;&gt;Node4</title>
<path fill="none" stroke="midnightblue" d="M198.59,-227.55C195.37,-218.65 192.13,-209.67 188.93,-200.84"/>
<polygon fill="none" stroke="midnightblue" points="195.38,-228.97 202.08,-237.18 201.97,-226.59 195.38,-228.97"/>
</g>
<!-- Node5 -->
<g id="node5" class="node">
<title>Node5</title>
<g id="a_node5"><a xlink:href="../../de/d9e/classBtOpenWorkActionMenu.html" target="_top" xlink:title=" ">
<polygon fill="white" stroke="black" points="246,-17 246,-184 400,-184 400,-17 246,-17"/>
<text text-anchor="middle" x="323" y="-172" font-family="Helvetica,sans-Serif" font-size="10.00">BtOpenWorkActionMenu</text>
<polyline fill="none" stroke="black" points="246,-165 400,-165 "/>
<text text-anchor="start" x="254" y="-153" font-family="Helvetica,sans-Serif" font-size="10.00">&#45; m_groupingConfigGroup</text>
<text text-anchor="start" x="254" y="-142" font-family="Helvetica,sans-Serif" font-size="10.00">&#45; m_groupingConfigKey</text>
<text text-anchor="start" x="254" y="-131" font-family="Helvetica,sans-Serif" font-size="10.00">&#45; m_groupingMenu</text>
<text text-anchor="start" x="254" y="-120" font-family="Helvetica,sans-Serif" font-size="10.00">&#45; m_postFilterModel</text>
<text text-anchor="start" x="254" y="-109" font-family="Helvetica,sans-Serif" font-size="10.00">&#45; m_treeModel</text>
<polyline fill="none" stroke="black" points="246,-102 400,-102 "/>
<text text-anchor="start" x="254" y="-90" font-family="Helvetica,sans-Serif" font-size="10.00">+ BtOpenWorkActionMenu()</text>
<text text-anchor="start" x="254" y="-79" font-family="Helvetica,sans-Serif" font-size="10.00">+ postFilterModel()</text>
<text text-anchor="start" x="254" y="-68" font-family="Helvetica,sans-Serif" font-size="10.00">+ setSourceModel()</text>
<text text-anchor="start" x="254" y="-57" font-family="Helvetica,sans-Serif" font-size="10.00">+ sourceModel()</text>
<text text-anchor="start" x="254" y="-46" font-family="Helvetica,sans-Serif" font-size="10.00">+ treeModel()</text>
<text text-anchor="start" x="254" y="-35" font-family="Helvetica,sans-Serif" font-size="10.00">&#45; postBuildMenu()</text>
<text text-anchor="start" x="254" y="-24" font-family="Helvetica,sans-Serif" font-size="10.00">&#45; retranslateUi()</text>
</a>
</g>
</g>
<!-- Node3&#45;&gt;Node5 -->
<g id="edge4" class="edge">
<title>Node3&#45;&gt;Node5</title>
<path fill="none" stroke="midnightblue" d="M277.38,-227.61C282.67,-213 288.02,-198.21 293.1,-184.16"/>
<polygon fill="none" stroke="midnightblue" points="274.03,-226.59 273.92,-237.18 280.62,-228.97 274.03,-226.59"/>
</g>
</g>
</svg>
