<?xml version="1.0" encoding="UTF-8" standalone="no"?>
<!DOCTYPE svg PUBLIC "-//W3C//DTD SVG 1.1//EN"
 "http://www.w3.org/Graphics/SVG/1.1/DTD/svg11.dtd">
<!-- Generated by graphviz version 2.43.0 (0)
 -->
<!-- Title: QMenu Pages: 1 -->
<svg width="436pt" height="617pt"
 viewBox="0.00 0.00 435.50 617.00" xmlns="http://www.w3.org/2000/svg" xmlns:xlink="http://www.w3.org/1999/xlink">
<g id="graph0" class="graph" transform="scale(1 1) rotate(0) translate(4 613)">
<title>QMenu</title>
<!-- Node1 -->
<g id="Node000001" class="node">
<title>Node1</title>
<g id="a_Node000001"><a xlink:title=" ">
<polygon fill="#999999" stroke="transparent" points="251.5,-609 206.5,-609 206.5,-560 251.5,-560 251.5,-609"/>
<text text-anchor="start" x="212" y="-596.5" font-family="Helvetica,sans-Serif" font-size="10.00">QMenu</text>
<text text-anchor="start" x="227.5" y="-581.5" font-family="Helvetica,sans-Serif" font-size="10.00"> </text>
<text text-anchor="start" x="227.5" y="-566.5" font-family="Helvetica,sans-Serif" font-size="10.00"> </text>
<polygon fill="#666666" stroke="#666666" points="207,-591.5 207,-591.5 252,-591.5 252,-591.5 207,-591.5"/>
<polygon fill="#666666" stroke="#666666" points="207,-576.5 207,-576.5 252,-576.5 252,-576.5 207,-576.5"/>
<polygon fill="none" stroke="#666666" points="206.5,-560 206.5,-609 251.5,-609 251.5,-560 206.5,-560"/>
</a>
</g>
</g>
<!-- Node2 -->
<g id="Node000002" class="node">
<title>Node2</title>
<g id="a_Node000002"><a xlink:href="../../d7/ddf/classBtBookshelfGroupingMenu.html" target="_top" xlink:title=" ">
<polygon fill="white" stroke="transparent" points="160,-486.5 0,-486.5 0,-317.5 160,-317.5 160,-486.5"/>
<text text-anchor="start" x="14.5" y="-474" font-family="Helvetica,sans-Serif" font-size="10.00">BtBookshelfGroupingMenu</text>
<text text-anchor="start" x="6.5" y="-459" font-family="Helvetica,sans-Serif" font-size="10.00">&#45;</text>
<text text-anchor="start" x="17" y="-459" font-family="Helvetica,sans-Serif" font-size="10.00">m_groupingActionGroup</text>
<text text-anchor="start" x="6.5" y="-444" font-family="Helvetica,sans-Serif" font-size="10.00">&#45;</text>
<text text-anchor="start" x="17" y="-444" font-family="Helvetica,sans-Serif" font-size="10.00">m_groupingCatAction</text>
<text text-anchor="start" x="6.5" y="-429" font-family="Helvetica,sans-Serif" font-size="10.00">&#45;</text>
<text text-anchor="start" x="17" y="-429" font-family="Helvetica,sans-Serif" font-size="10.00">m_groupingCatLangAction</text>
<text text-anchor="start" x="6.5" y="-414" font-family="Helvetica,sans-Serif" font-size="10.00">&#45;</text>
<text text-anchor="start" x="17" y="-414" font-family="Helvetica,sans-Serif" font-size="10.00">m_groupingLangAction</text>
<text text-anchor="start" x="6.5" y="-399" font-family="Helvetica,sans-Serif" font-size="10.00">&#45;</text>
<text text-anchor="start" x="17" y="-399" font-family="Helvetica,sans-Serif" font-size="10.00">m_groupingLangCatAction</text>
<text text-anchor="start" x="6.5" y="-384" font-family="Helvetica,sans-Serif" font-size="10.00">&#45;</text>
<text text-anchor="start" x="17" y="-384" font-family="Helvetica,sans-Serif" font-size="10.00">m_groupingNoneAction</text>
<text text-anchor="start" x="4" y="-369" font-family="Helvetica,sans-Serif" font-size="10.00">+</text>
<text text-anchor="start" x="17" y="-369" font-family="Helvetica,sans-Serif" font-size="10.00">BtBookshelfGroupingMenu()</text>
<text text-anchor="start" x="4" y="-354" font-family="Helvetica,sans-Serif" font-size="10.00">+</text>
<text text-anchor="start" x="17" y="-354" font-family="Helvetica,sans-Serif" font-size="10.00">BtBookshelfGroupingMenu()</text>
<text text-anchor="start" x="6.5" y="-339" font-family="Helvetica,sans-Serif" font-size="10.00">&#45;</text>
<text text-anchor="start" x="17" y="-339" font-family="Helvetica,sans-Serif" font-size="10.00">initMenu()</text>
<text text-anchor="start" x="6.5" y="-324" font-family="Helvetica,sans-Serif" font-size="10.00">&#45;</text>
<text text-anchor="start" x="17" y="-324" font-family="Helvetica,sans-Serif" font-size="10.00">retranslateUi()</text>
<polygon fill="#666666" stroke="#666666" points="0,-469 0,-469 160,-469 160,-469 0,-469"/>
<polygon fill="#666666" stroke="#666666" points="0,-379 0,-379 15,-379 15,-379 0,-379"/>
<polygon fill="#666666" stroke="#666666" points="15,-379 15,-379 160,-379 160,-379 15,-379"/>
<polygon fill="none" stroke="#666666" points="0,-317.5 0,-486.5 160,-486.5 160,-317.5 0,-317.5"/>
</a>
</g>
</g>
<!-- Node1&#45;&gt;Node2 -->
<g id="edge1_Node000001_Node000002" class="edge">
<title>Node1&#45;&gt;Node2</title>
<g id="a_edge1_Node000001_Node000002"><a xlink:title=" ">
<path fill="none" stroke="#63b8ff" d="M198.9,-555.45C189.03,-545.79 178.24,-534.71 169,-524 158.86,-512.25 148.63,-499.43 138.9,-486.66"/>
<polygon fill="none" stroke="#63b8ff" points="196.59,-558.09 206.22,-562.52 201.46,-553.06 196.59,-558.09"/>
</a>
</g>
</g>
<!-- Node3 -->
<g id="Node000003" class="node">
<title>Node3</title>
<g id="a_Node000003"><a xlink:href="../../d9/de6/classBtMenuView.html" target="_top" xlink:title=" ">
<polygon fill="white" stroke="transparent" points="280,-524 178,-524 178,-280 280,-280 280,-524"/>
<text text-anchor="start" x="198" y="-512" font-family="Helvetica,sans-Serif" font-size="10.00">BtMenuView</text>
<text text-anchor="start" x="184.5" y="-497" font-family="Helvetica,sans-Serif" font-size="10.00">&#45;</text>
<text text-anchor="start" x="195" y="-497" font-family="Helvetica,sans-Serif" font-size="10.00">m_actions</text>
<text text-anchor="start" x="184.5" y="-482" font-family="Helvetica,sans-Serif" font-size="10.00">&#45;</text>
<text text-anchor="start" x="195" y="-482" font-family="Helvetica,sans-Serif" font-size="10.00">m_model</text>
<text text-anchor="start" x="182" y="-467" font-family="Helvetica,sans-Serif" font-size="10.00">+</text>
<text text-anchor="start" x="195" y="-467" font-family="Helvetica,sans-Serif" font-size="10.00">BtMenuView()</text>
<text text-anchor="start" x="182" y="-452" font-family="Helvetica,sans-Serif" font-size="10.00">+</text>
<text text-anchor="start" x="195" y="-452" font-family="Helvetica,sans-Serif" font-size="10.00">BtMenuView()</text>
<text text-anchor="start" x="182" y="-437" font-family="Helvetica,sans-Serif" font-size="10.00">+</text>
<text text-anchor="start" x="195" y="-437" font-family="Helvetica,sans-Serif" font-size="10.00">event()</text>
<text text-anchor="start" x="182" y="-422" font-family="Helvetica,sans-Serif" font-size="10.00">+</text>
<text text-anchor="start" x="195" y="-422" font-family="Helvetica,sans-Serif" font-size="10.00">model()</text>
<text text-anchor="start" x="182" y="-407" font-family="Helvetica,sans-Serif" font-size="10.00">+</text>
<text text-anchor="start" x="195" y="-407" font-family="Helvetica,sans-Serif" font-size="10.00">setModel()</text>
<text text-anchor="start" x="182" y="-392" font-family="Helvetica,sans-Serif" font-size="10.00">+</text>
<text text-anchor="start" x="195" y="-392" font-family="Helvetica,sans-Serif" font-size="10.00">~BtMenuView()</text>
<text text-anchor="start" x="182" y="-377" font-family="Helvetica,sans-Serif" font-size="10.00">#</text>
<text text-anchor="start" x="195" y="-377" font-family="Helvetica,sans-Serif" font-size="10.00">newAction()</text>
<text text-anchor="start" x="182" y="-362" font-family="Helvetica,sans-Serif" font-size="10.00">#</text>
<text text-anchor="start" x="195" y="-362" font-family="Helvetica,sans-Serif" font-size="10.00">newMenu()</text>
<text text-anchor="start" x="182" y="-347" font-family="Helvetica,sans-Serif" font-size="10.00">#</text>
<text text-anchor="start" x="195" y="-347" font-family="Helvetica,sans-Serif" font-size="10.00">postBuildMenu()</text>
<text text-anchor="start" x="182" y="-332" font-family="Helvetica,sans-Serif" font-size="10.00">#</text>
<text text-anchor="start" x="195" y="-332" font-family="Helvetica,sans-Serif" font-size="10.00">preBuildMenu()</text>
<text text-anchor="start" x="182" y="-317" font-family="Helvetica,sans-Serif" font-size="10.00">#</text>
<text text-anchor="start" x="195" y="-317" font-family="Helvetica,sans-Serif" font-size="10.00">rebuildMenu()</text>
<text text-anchor="start" x="184.5" y="-302" font-family="Helvetica,sans-Serif" font-size="10.00">&#45;</text>
<text text-anchor="start" x="195" y="-302" font-family="Helvetica,sans-Serif" font-size="10.00">buildMenu()</text>
<text text-anchor="start" x="184.5" y="-287" font-family="Helvetica,sans-Serif" font-size="10.00">&#45;</text>
<text text-anchor="start" x="195" y="-287" font-family="Helvetica,sans-Serif" font-size="10.00">removeMenus()</text>
<polygon fill="#666666" stroke="#666666" points="178,-507 178,-507 280,-507 280,-507 178,-507"/>
<polygon fill="#666666" stroke="#666666" points="178,-477 178,-477 193,-477 193,-477 178,-477"/>
<polygon fill="#666666" stroke="#666666" points="193,-477 193,-477 280,-477 280,-477 193,-477"/>
<polygon fill="none" stroke="#666666" points="178,-280 178,-524 280,-524 280,-280 178,-280"/>
</a>
</g>
</g>
<!-- Node1&#45;&gt;Node3 -->
<g id="edge2_Node000001_Node000003" class="edge">
<title>Node1&#45;&gt;Node3</title>
<g id="a_edge2_Node000001_Node000003"><a xlink:title=" ">
<path fill="none" stroke="#63b8ff" d="M229,-549.65C229,-541.93 229,-533.29 229,-524.18"/>
<polygon fill="none" stroke="#63b8ff" points="225.5,-549.9 229,-559.9 232.5,-549.9 225.5,-549.9"/>
</a>
</g>
</g>
<!-- Node6 -->
<g id="Node000006" class="node">
<title>Node6</title>
<g id="a_Node000006"><a xlink:href="../../d9/d12/classBtVerseKeyMenu.html" target="_top" xlink:title=" ">
<polygon fill="white" stroke="transparent" points="427.5,-449 298.5,-449 298.5,-355 427.5,-355 427.5,-449"/>
<text text-anchor="start" x="322" y="-437" font-family="Helvetica,sans-Serif" font-size="10.00">BtVerseKeyMenu</text>
<text text-anchor="start" x="305.5" y="-422" font-family="Helvetica,sans-Serif" font-size="10.00">&#45;</text>
<text text-anchor="start" x="316" y="-422" font-family="Helvetica,sans-Serif" font-size="10.00">m_firstClickLock</text>
<text text-anchor="start" x="305.5" y="-407" font-family="Helvetica,sans-Serif" font-size="10.00">&#45;</text>
<text text-anchor="start" x="316" y="-407" font-family="Helvetica,sans-Serif" font-size="10.00">m_timerId</text>
<text text-anchor="start" x="303" y="-392" font-family="Helvetica,sans-Serif" font-size="10.00">+</text>
<text text-anchor="start" x="316" y="-392" font-family="Helvetica,sans-Serif" font-size="10.00">BtVerseKeyMenu()</text>
<text text-anchor="start" x="303" y="-377" font-family="Helvetica,sans-Serif" font-size="10.00">#</text>
<text text-anchor="start" x="316" y="-377" font-family="Helvetica,sans-Serif" font-size="10.00">mouseReleaseEvent()</text>
<text text-anchor="start" x="303" y="-362" font-family="Helvetica,sans-Serif" font-size="10.00">#</text>
<text text-anchor="start" x="316" y="-362" font-family="Helvetica,sans-Serif" font-size="10.00">timerEvent()</text>
<polygon fill="#666666" stroke="#666666" points="299,-432 299,-432 428,-432 428,-432 299,-432"/>
<polygon fill="#666666" stroke="#666666" points="299,-402 299,-402 314,-402 314,-402 299,-402"/>
<polygon fill="#666666" stroke="#666666" points="314,-402 314,-402 428,-402 428,-402 314,-402"/>
<polygon fill="none" stroke="#666666" points="298.5,-355 298.5,-449 427.5,-449 427.5,-355 298.5,-355"/>
</a>
</g>
</g>
<!-- Node1&#45;&gt;Node6 -->
<g id="edge5_Node000001_Node000006" class="edge">
<title>Node1&#45;&gt;Node6</title>
<g id="a_edge5_Node000001_Node000006"><a xlink:title=" ">
<path fill="none" stroke="#63b8ff" d="M259.16,-556.37C269.19,-546.64 280.08,-535.28 289,-524 307.41,-500.73 324.88,-472.56 338.22,-449.25"/>
<polygon fill="none" stroke="#63b8ff" points="256.53,-554.04 251.69,-563.47 261.35,-559.11 256.53,-554.04"/>
</a>
</g>
</g>
<!-- Node4 -->
<g id="Node000004" class="node">
<title>Node4</title>
<g id="a_Node000004"><a xlink:href="../../d3/de9/classBtModuleChooserMenu.html" target="_top" xlink:title=" ">
<polygon fill="white" stroke="transparent" points="218,-244 76,-244 76,0 218,0 218,-244"/>
<text text-anchor="start" x="90" y="-232" font-family="Helvetica,sans-Serif" font-size="10.00">BtModuleChooserMenu</text>
<text text-anchor="start" x="80" y="-217" font-family="Helvetica,sans-Serif" font-size="10.00">+</text>
<text text-anchor="start" x="93" y="-217" font-family="Helvetica,sans-Serif" font-size="10.00">m_buttonIndex</text>
<text text-anchor="start" x="80" y="-202" font-family="Helvetica,sans-Serif" font-size="10.00">+</text>
<text text-anchor="start" x="93" y="-202" font-family="Helvetica,sans-Serif" font-size="10.00">m_flags</text>
<text text-anchor="start" x="80" y="-187" font-family="Helvetica,sans-Serif" font-size="10.00">+</text>
<text text-anchor="start" x="93" y="-187" font-family="Helvetica,sans-Serif" font-size="10.00">m_leftLikeModules</text>
<text text-anchor="start" x="80" y="-172" font-family="Helvetica,sans-Serif" font-size="10.00">+</text>
<text text-anchor="start" x="93" y="-172" font-family="Helvetica,sans-Serif" font-size="10.00">m_moduleType</text>
<text text-anchor="start" x="80" y="-157" font-family="Helvetica,sans-Serif" font-size="10.00">+</text>
<text text-anchor="start" x="93" y="-157" font-family="Helvetica,sans-Serif" font-size="10.00">m_newModulesToUse</text>
<text text-anchor="start" x="80" y="-142" font-family="Helvetica,sans-Serif" font-size="10.00">+</text>
<text text-anchor="start" x="93" y="-142" font-family="Helvetica,sans-Serif" font-size="10.00">m_selectedModule</text>
<text text-anchor="start" x="80" y="-127" font-family="Helvetica,sans-Serif" font-size="10.00">+</text>
<text text-anchor="start" x="93" y="-127" font-family="Helvetica,sans-Serif" font-size="10.00">m_sortedModel</text>
<text text-anchor="start" x="80" y="-112" font-family="Helvetica,sans-Serif" font-size="10.00">+</text>
<text text-anchor="start" x="93" y="-112" font-family="Helvetica,sans-Serif" font-size="10.00">BtModuleChooserMenu()</text>
<text text-anchor="start" x="80" y="-97" font-family="Helvetica,sans-Serif" font-size="10.00">+</text>
<text text-anchor="start" x="93" y="-97" font-family="Helvetica,sans-Serif" font-size="10.00">buttonIndex()</text>
<text text-anchor="start" x="80" y="-82" font-family="Helvetica,sans-Serif" font-size="10.00">+</text>
<text text-anchor="start" x="93" y="-82" font-family="Helvetica,sans-Serif" font-size="10.00">moduleType()</text>
<text text-anchor="start" x="80" y="-67" font-family="Helvetica,sans-Serif" font-size="10.00">+</text>
<text text-anchor="start" x="93" y="-67" font-family="Helvetica,sans-Serif" font-size="10.00">selectedModule()</text>
<text text-anchor="start" x="80" y="-52" font-family="Helvetica,sans-Serif" font-size="10.00">+</text>
<text text-anchor="start" x="93" y="-52" font-family="Helvetica,sans-Serif" font-size="10.00">setSelectedModule()</text>
<text text-anchor="start" x="80" y="-37" font-family="Helvetica,sans-Serif" font-size="10.00">+</text>
<text text-anchor="start" x="93" y="-37" font-family="Helvetica,sans-Serif" font-size="10.00">update()</text>
<text text-anchor="start" x="82.5" y="-22" font-family="Helvetica,sans-Serif" font-size="10.00">&#45;</text>
<text text-anchor="start" x="93" y="-22" font-family="Helvetica,sans-Serif" font-size="10.00">newAction()</text>
<text text-anchor="start" x="82.5" y="-7" font-family="Helvetica,sans-Serif" font-size="10.00">&#45;</text>
<text text-anchor="start" x="93" y="-7" font-family="Helvetica,sans-Serif" font-size="10.00">preBuildMenu()</text>
<polygon fill="#666666" stroke="#666666" points="76,-227 76,-227 218,-227 218,-227 76,-227"/>
<polygon fill="#666666" stroke="#666666" points="76,-122 76,-122 91,-122 91,-122 76,-122"/>
<polygon fill="#666666" stroke="#666666" points="91,-122 91,-122 218,-122 218,-122 91,-122"/>
<polygon fill="none" stroke="#666666" points="76,0 76,-244 218,-244 218,0 76,0"/>
</a>
</g>
</g>
<!-- Node3&#45;&gt;Node4 -->
<g id="edge3_Node000003_Node000004" class="edge">
<title>Node3&#45;&gt;Node4</title>
<g id="a_edge3_Node000003_Node000004"><a xlink:title=" ">
<path fill="none" stroke="#63b8ff" d="M190.39,-270.12C187.84,-261.46 185.27,-252.75 182.73,-244.14"/>
<polygon fill="none" stroke="#63b8ff" points="187.09,-271.27 193.27,-279.87 193.8,-269.29 187.09,-271.27"/>
</a>
</g>
</g>
<!-- Node5 -->
<g id="Node000005" class="node">
<title>Node5</title>
<g id="a_Node000005"><a xlink:href="../../de/d9e/classBtOpenWorkActionMenu.html" target="_top" xlink:title=" ">
<polygon fill="white" stroke="transparent" points="384,-221.5 236,-221.5 236,-22.5 384,-22.5 384,-221.5"/>
<text text-anchor="start" x="250.5" y="-209" font-family="Helvetica,sans-Serif" font-size="10.00">BtOpenWorkActionMenu</text>
<text text-anchor="start" x="242.5" y="-194" font-family="Helvetica,sans-Serif" font-size="10.00">&#45;</text>
<text text-anchor="start" x="253" y="-194" font-family="Helvetica,sans-Serif" font-size="10.00">m_groupingConfigGroup</text>
<text text-anchor="start" x="242.5" y="-179" font-family="Helvetica,sans-Serif" font-size="10.00">&#45;</text>
<text text-anchor="start" x="253" y="-179" font-family="Helvetica,sans-Serif" font-size="10.00">m_groupingConfigKey</text>
<text text-anchor="start" x="242.5" y="-164" font-family="Helvetica,sans-Serif" font-size="10.00">&#45;</text>
<text text-anchor="start" x="253" y="-164" font-family="Helvetica,sans-Serif" font-size="10.00">m_groupingMenu</text>
<text text-anchor="start" x="242.5" y="-149" font-family="Helvetica,sans-Serif" font-size="10.00">&#45;</text>
<text text-anchor="start" x="253" y="-149" font-family="Helvetica,sans-Serif" font-size="10.00">m_postFilterModel</text>
<text text-anchor="start" x="242.5" y="-134" font-family="Helvetica,sans-Serif" font-size="10.00">&#45;</text>
<text text-anchor="start" x="253" y="-134" font-family="Helvetica,sans-Serif" font-size="10.00">m_treeModel</text>
<text text-anchor="start" x="240" y="-119" font-family="Helvetica,sans-Serif" font-size="10.00">+</text>
<text text-anchor="start" x="253" y="-119" font-family="Helvetica,sans-Serif" font-size="10.00">BtOpenWorkActionMenu()</text>
<text text-anchor="start" x="240" y="-104" font-family="Helvetica,sans-Serif" font-size="10.00">+</text>
<text text-anchor="start" x="253" y="-104" font-family="Helvetica,sans-Serif" font-size="10.00">postFilterModel()</text>
<text text-anchor="start" x="240" y="-89" font-family="Helvetica,sans-Serif" font-size="10.00">+</text>
<text text-anchor="start" x="253" y="-89" font-family="Helvetica,sans-Serif" font-size="10.00">setSourceModel()</text>
<text text-anchor="start" x="240" y="-74" font-family="Helvetica,sans-Serif" font-size="10.00">+</text>
<text text-anchor="start" x="253" y="-74" font-family="Helvetica,sans-Serif" font-size="10.00">sourceModel()</text>
<text text-anchor="start" x="240" y="-59" font-family="Helvetica,sans-Serif" font-size="10.00">+</text>
<text text-anchor="start" x="253" y="-59" font-family="Helvetica,sans-Serif" font-size="10.00">treeModel()</text>
<text text-anchor="start" x="242.5" y="-44" font-family="Helvetica,sans-Serif" font-size="10.00">&#45;</text>
<text text-anchor="start" x="253" y="-44" font-family="Helvetica,sans-Serif" font-size="10.00">postBuildMenu()</text>
<text text-anchor="start" x="242.5" y="-29" font-family="Helvetica,sans-Serif" font-size="10.00">&#45;</text>
<text text-anchor="start" x="253" y="-29" font-family="Helvetica,sans-Serif" font-size="10.00">retranslateUi()</text>
<polygon fill="#666666" stroke="#666666" points="236,-204 236,-204 384,-204 384,-204 236,-204"/>
<polygon fill="#666666" stroke="#666666" points="236,-129 236,-129 251,-129 251,-129 236,-129"/>
<polygon fill="#666666" stroke="#666666" points="251,-129 251,-129 384,-129 384,-129 251,-129"/>
<polygon fill="none" stroke="#666666" points="236,-22.5 236,-221.5 384,-221.5 384,-22.5 236,-22.5"/>
</a>
</g>
</g>
<!-- Node3&#45;&gt;Node5 -->
<g id="edge4_Node000003_Node000005" class="edge">
<title>Node3&#45;&gt;Node5</title>
<g id="a_edge4_Node000003_Node000005"><a xlink:title=" ">
<path fill="none" stroke="#63b8ff" d="M267.09,-270.26C271.86,-253.9 276.67,-237.39 281.26,-221.63"/>
<polygon fill="none" stroke="#63b8ff" points="263.73,-269.29 264.29,-279.87 270.45,-271.25 263.73,-269.29"/>
</a>
</g>
</g>
</g>
</svg>
