<?xml version="1.0" encoding="UTF-8" standalone="no"?>
<!DOCTYPE svg PUBLIC "-//W3C//DTD SVG 1.1//EN"
 "http://www.w3.org/Graphics/SVG/1.1/DTD/svg11.dtd">
<!-- Generated by graphviz version 2.43.0 (0)
 -->
<!-- Title: cdisplaytemplatemgr.h Pages: 1 -->
<svg width="1018pt" height="84pt"
 viewBox="0.00 0.00 1018.00 84.00" xmlns="http://www.w3.org/2000/svg" xmlns:xlink="http://www.w3.org/1999/xlink">
<g id="graph0" class="graph" transform="scale(1 1) rotate(0) translate(4 80)">
<title>cdisplaytemplatemgr.h</title>
<polygon fill="white" stroke="transparent" points="-4,4 -4,-80 1014,-80 1014,4 -4,4"/>
<!-- Node1 -->
<g id="node1" class="node">
<title>Node1</title>
<g id="a_node1"><a xlink:title=" ">
<polygon fill="#bfbfbf" stroke="black" points="474.5,-56.5 474.5,-75.5 603.5,-75.5 603.5,-56.5 474.5,-56.5"/>
<text text-anchor="middle" x="539" y="-63.5" font-family="Helvetica,sans-Serif" font-size="10.00">cdisplaytemplatemgr.h</text>
</a>
</g>
</g>
<!-- Node2 -->
<g id="node2" class="node">
<title>Node2</title>
<g id="a_node2"><a xlink:href="../../d4/d47/cdisplaytemplatemgr_8cpp.html" target="_top" xlink:title=" ">
<polygon fill="white" stroke="black" points="0,-0.5 0,-19.5 140,-19.5 140,-0.5 0,-0.5"/>
<text text-anchor="middle" x="70" y="-7.5" font-family="Helvetica,sans-Serif" font-size="10.00">cdisplaytemplatemgr.cpp</text>
</a>
</g>
</g>
<!-- Node1&#45;&gt;Node2 -->
<g id="edge1" class="edge">
<title>Node1&#45;&gt;Node2</title>
<path fill="none" stroke="midnightblue" d="M464.24,-56.39C375.09,-46.13 227.24,-29.1 140.17,-19.08"/>
<polygon fill="midnightblue" stroke="midnightblue" points="463.95,-59.88 474.28,-57.55 464.75,-52.93 463.95,-59.88"/>
</g>
<!-- Node3 -->
<g id="node3" class="node">
<title>Node3</title>
<g id="a_node3"><a xlink:href="../../de/d8f/colormanager_8cpp.html" target="_top" xlink:title=" ">
<polygon fill="white" stroke="black" points="158,-0.5 158,-19.5 262,-19.5 262,-0.5 158,-0.5"/>
<text text-anchor="middle" x="210" y="-7.5" font-family="Helvetica,sans-Serif" font-size="10.00">colormanager.cpp</text>
</a>
</g>
</g>
<!-- Node1&#45;&gt;Node3 -->
<g id="edge2" class="edge">
<title>Node1&#45;&gt;Node3</title>
<path fill="none" stroke="midnightblue" d="M476.8,-54.79C414.63,-44.59 320.14,-29.08 261.89,-19.52"/>
<polygon fill="midnightblue" stroke="midnightblue" points="476.43,-58.28 486.87,-56.44 477.57,-51.37 476.43,-58.28"/>
</g>
<!-- Node4 -->
<g id="node4" class="node">
<title>Node4</title>
<g id="a_node4"><a xlink:href="../../da/d1a/btinforendering_8cpp.html" target="_top" xlink:title=" ">
<polygon fill="white" stroke="black" points="280,-0.5 280,-19.5 392,-19.5 392,-0.5 280,-0.5"/>
<text text-anchor="middle" x="336" y="-7.5" font-family="Helvetica,sans-Serif" font-size="10.00">btinforendering.cpp</text>
</a>
</g>
</g>
<!-- Node1&#45;&gt;Node4 -->
<g id="edge3" class="edge">
<title>Node1&#45;&gt;Node4</title>
<path fill="none" stroke="midnightblue" d="M497.01,-53.83C458.68,-43.63 402.85,-28.78 368.02,-19.52"/>
<polygon fill="midnightblue" stroke="midnightblue" points="496.27,-57.26 506.83,-56.44 498.07,-50.49 496.27,-57.26"/>
</g>
<!-- Node5 -->
<g id="node5" class="node">
<title>Node5</title>
<g id="a_node5"><a xlink:href="../../dc/d52/cdisplayrendering_8cpp.html" target="_top" xlink:title=" ">
<polygon fill="white" stroke="black" points="410,-0.5 410,-19.5 534,-19.5 534,-0.5 410,-0.5"/>
<text text-anchor="middle" x="472" y="-7.5" font-family="Helvetica,sans-Serif" font-size="10.00">cdisplayrendering.cpp</text>
</a>
</g>
</g>
<!-- Node1&#45;&gt;Node5 -->
<g id="edge4" class="edge">
<title>Node1&#45;&gt;Node5</title>
<path fill="none" stroke="midnightblue" d="M520.17,-49.82C508.16,-40.15 493.03,-27.95 482.96,-19.83"/>
<polygon fill="midnightblue" stroke="midnightblue" points="518.25,-52.77 528.24,-56.32 522.65,-47.32 518.25,-52.77"/>
</g>
<!-- Node6 -->
<g id="node6" class="node">
<title>Node6</title>
<g id="a_node6"><a xlink:href="../../db/d72/ctextrendering_8cpp.html" target="_top" xlink:title=" ">
<polygon fill="white" stroke="black" points="552,-0.5 552,-19.5 660,-19.5 660,-0.5 552,-0.5"/>
<text text-anchor="middle" x="606" y="-7.5" font-family="Helvetica,sans-Serif" font-size="10.00">ctextrendering.cpp</text>
</a>
</g>
</g>
<!-- Node1&#45;&gt;Node6 -->
<g id="edge5" class="edge">
<title>Node1&#45;&gt;Node6</title>
<path fill="none" stroke="midnightblue" d="M557.83,-49.82C569.84,-40.15 584.97,-27.95 595.04,-19.83"/>
<polygon fill="midnightblue" stroke="midnightblue" points="555.35,-47.32 549.76,-56.32 559.75,-52.77 555.35,-47.32"/>
</g>
<!-- Node7 -->
<g id="node7" class="node">
<title>Node7</title>
<g id="a_node7"><a xlink:href="../../d5/d86/bibletimeapp_8cpp.html" target="_top" xlink:title=" ">
<polygon fill="white" stroke="black" points="678.5,-0.5 678.5,-19.5 779.5,-19.5 779.5,-0.5 678.5,-0.5"/>
<text text-anchor="middle" x="729" y="-7.5" font-family="Helvetica,sans-Serif" font-size="10.00">bibletimeapp.cpp</text>
</a>
</g>
</g>
<!-- Node1&#45;&gt;Node7 -->
<g id="edge6" class="edge">
<title>Node1&#45;&gt;Node7</title>
<path fill="none" stroke="midnightblue" d="M578.76,-53.7C614.62,-43.51 666.57,-28.74 699.03,-19.52"/>
<polygon fill="midnightblue" stroke="midnightblue" points="577.77,-50.34 569.11,-56.44 579.68,-57.08 577.77,-50.34"/>
</g>
<!-- Node8 -->
<g id="node8" class="node">
<title>Node8</title>
<g id="a_node8"><a xlink:href="../../d0/dae/btprinter_8cpp.html" target="_top" xlink:title=" ">
<polygon fill="white" stroke="black" points="798,-0.5 798,-19.5 876,-19.5 876,-0.5 798,-0.5"/>
<text text-anchor="middle" x="837" y="-7.5" font-family="Helvetica,sans-Serif" font-size="10.00">btprinter.cpp</text>
</a>
</g>
</g>
<!-- Node1&#45;&gt;Node8 -->
<g id="edge7" class="edge">
<title>Node1&#45;&gt;Node8</title>
<path fill="none" stroke="midnightblue" d="M597.06,-54.67C647.74,-45.63 723.26,-32.08 789,-20 791.92,-19.46 794.94,-18.91 797.97,-18.34"/>
<polygon fill="midnightblue" stroke="midnightblue" points="596.18,-51.27 586.95,-56.48 597.4,-58.17 596.18,-51.27"/>
</g>
<!-- Node9 -->
<g id="node9" class="node">
<title>Node9</title>
<g id="a_node9"><a xlink:href="../../d4/dca/cdisplaysettings_8cpp.html" target="_top" xlink:title=" ">
<polygon fill="white" stroke="black" points="894,-0.5 894,-19.5 1010,-19.5 1010,-0.5 894,-0.5"/>
<text text-anchor="middle" x="952" y="-7.5" font-family="Helvetica,sans-Serif" font-size="10.00">cdisplaysettings.cpp</text>
</a>
</g>
</g>
<!-- Node1&#45;&gt;Node9 -->
<g id="edge8" class="edge">
<title>Node1&#45;&gt;Node9</title>
<path fill="none" stroke="midnightblue" d="M613.8,-55.36C683.88,-46.31 791.56,-32.35 885,-20 887.91,-19.62 890.89,-19.22 893.9,-18.82"/>
<polygon fill="midnightblue" stroke="midnightblue" points="613.21,-51.91 603.74,-56.66 614.1,-58.85 613.21,-51.91"/>
</g>
</g>
</svg>
