<?xml version="1.0" encoding="UTF-8" standalone="no"?>
<!DOCTYPE svg PUBLIC "-//W3C//DTD SVG 1.1//EN"
 "http://www.w3.org/Graphics/SVG/1.1/DTD/svg11.dtd">
<!-- Generated by graphviz version 2.43.0 (0)
 -->
<!-- Title: cdisplaytemplatemgr.h Pages: 1 -->
<svg width="1513pt" height="84pt"
 viewBox="0.00 0.00 1513.00 84.00" xmlns="http://www.w3.org/2000/svg" xmlns:xlink="http://www.w3.org/1999/xlink">
<g id="graph0" class="graph" transform="scale(1 1) rotate(0) translate(4 80)">
<title>cdisplaytemplatemgr.h</title>
<polygon fill="white" stroke="transparent" points="-4,4 -4,-80 1509,-80 1509,4 -4,4"/>
<!-- Node1 -->
<g id="node1" class="node">
<title>Node1</title>
<g id="a_node1"><a xlink:title=" ">
<polygon fill="#bfbfbf" stroke="black" points="722.5,-56.5 722.5,-75.5 851.5,-75.5 851.5,-56.5 722.5,-56.5"/>
<text text-anchor="middle" x="787" y="-63.5" font-family="Helvetica,sans-Serif" font-size="10.00">cdisplaytemplatemgr.h</text>
</a>
</g>
</g>
<!-- Node2 -->
<g id="node2" class="node">
<title>Node2</title>
<g id="a_node2"><a xlink:href="../../d4/d47/cdisplaytemplatemgr_8cpp.html" target="_top" xlink:title=" ">
<polygon fill="white" stroke="black" points="0,-0.5 0,-19.5 140,-19.5 140,-0.5 0,-0.5"/>
<text text-anchor="middle" x="70" y="-7.5" font-family="Helvetica,sans-Serif" font-size="10.00">cdisplaytemplatemgr.cpp</text>
</a>
</g>
</g>
<!-- Node1&#45;&gt;Node2 -->
<g id="edge1" class="edge">
<title>Node1&#45;&gt;Node2</title>
<path fill="none" stroke="midnightblue" d="M712.05,-60.76C592.75,-53.78 352.33,-38.74 149,-20 146.11,-19.73 143.17,-19.45 140.2,-19.16"/>
<polygon fill="midnightblue" stroke="midnightblue" points="711.99,-64.26 722.17,-61.35 712.39,-57.28 711.99,-64.26"/>
</g>
<!-- Node3 -->
<g id="node3" class="node">
<title>Node3</title>
<g id="a_node3"><a xlink:href="../../de/d8f/colormanager_8cpp.html" target="_top" xlink:title=" ">
<polygon fill="white" stroke="black" points="158,-0.5 158,-19.5 262,-19.5 262,-0.5 158,-0.5"/>
<text text-anchor="middle" x="210" y="-7.5" font-family="Helvetica,sans-Serif" font-size="10.00">colormanager.cpp</text>
</a>
</g>
</g>
<!-- Node1&#45;&gt;Node3 -->
<g id="edge2" class="edge">
<title>Node1&#45;&gt;Node3</title>
<path fill="none" stroke="midnightblue" d="M712.06,-59.87C611.52,-52.67 427.5,-38.35 271,-20 268.13,-19.66 265.19,-19.3 262.22,-18.91"/>
<polygon fill="midnightblue" stroke="midnightblue" points="711.89,-63.37 722.11,-60.59 712.39,-56.38 711.89,-63.37"/>
</g>
<!-- Node4 -->
<g id="node4" class="node">
<title>Node4</title>
<g id="a_node4"><a xlink:href="../../da/d1a/btinforendering_8cpp.html" target="_top" xlink:title=" ">
<polygon fill="white" stroke="black" points="280,-0.5 280,-19.5 392,-19.5 392,-0.5 280,-0.5"/>
<text text-anchor="middle" x="336" y="-7.5" font-family="Helvetica,sans-Serif" font-size="10.00">btinforendering.cpp</text>
</a>
</g>
</g>
<!-- Node1&#45;&gt;Node4 -->
<g id="edge3" class="edge">
<title>Node1&#45;&gt;Node4</title>
<path fill="none" stroke="midnightblue" d="M712.22,-56.76C634.42,-48.08 509.08,-33.78 401,-20 398.06,-19.63 395.05,-19.23 392.01,-18.83"/>
<polygon fill="midnightblue" stroke="midnightblue" points="712.08,-60.27 722.41,-57.9 712.86,-53.31 712.08,-60.27"/>
</g>
<!-- Node5 -->
<g id="node5" class="node">
<title>Node5</title>
<g id="a_node5"><a xlink:href="../../dc/d52/cdisplayrendering_8cpp.html" target="_top" xlink:title=" ">
<polygon fill="white" stroke="black" points="410,-0.5 410,-19.5 534,-19.5 534,-0.5 410,-0.5"/>
<text text-anchor="middle" x="472" y="-7.5" font-family="Helvetica,sans-Serif" font-size="10.00">cdisplayrendering.cpp</text>
</a>
</g>
</g>
<!-- Node1&#45;&gt;Node5 -->
<g id="edge4" class="edge">
<title>Node1&#45;&gt;Node5</title>
<path fill="none" stroke="midnightblue" d="M727.08,-54.73C667.55,-44.52 577.34,-29.06 521.68,-19.52"/>
<polygon fill="midnightblue" stroke="midnightblue" points="726.64,-58.2 737.09,-56.44 727.82,-51.3 726.64,-58.2"/>
</g>
<!-- Node6 -->
<g id="node6" class="node">
<title>Node6</title>
<g id="a_node6"><a xlink:href="../../da/d21/centrydisplay_8cpp.html" target="_top" xlink:title=" ">
<polygon fill="white" stroke="black" points="552.5,-0.5 552.5,-19.5 653.5,-19.5 653.5,-0.5 552.5,-0.5"/>
<text text-anchor="middle" x="603" y="-7.5" font-family="Helvetica,sans-Serif" font-size="10.00">centrydisplay.cpp</text>
</a>
</g>
</g>
<!-- Node1&#45;&gt;Node6 -->
<g id="edge5" class="edge">
<title>Node1&#45;&gt;Node6</title>
<path fill="none" stroke="midnightblue" d="M748.05,-53.57C713.34,-43.38 663.32,-28.7 632.02,-19.52"/>
<polygon fill="midnightblue" stroke="midnightblue" points="747.26,-56.99 757.84,-56.44 749.23,-50.27 747.26,-56.99"/>
</g>
<!-- Node7 -->
<g id="node7" class="node">
<title>Node7</title>
<g id="a_node7"><a xlink:href="../../db/d72/ctextrendering_8cpp.html" target="_top" xlink:title=" ">
<polygon fill="white" stroke="black" points="672,-0.5 672,-19.5 780,-19.5 780,-0.5 672,-0.5"/>
<text text-anchor="middle" x="726" y="-7.5" font-family="Helvetica,sans-Serif" font-size="10.00">ctextrendering.cpp</text>
</a>
</g>
</g>
<!-- Node1&#45;&gt;Node7 -->
<g id="edge6" class="edge">
<title>Node1&#45;&gt;Node7</title>
<path fill="none" stroke="midnightblue" d="M769.53,-49.54C758.66,-39.91 745.06,-27.87 735.98,-19.83"/>
<polygon fill="midnightblue" stroke="midnightblue" points="767.39,-52.32 777.2,-56.32 772.03,-47.07 767.39,-52.32"/>
</g>
<!-- Node8 -->
<g id="node8" class="node">
<title>Node8</title>
<g id="a_node8"><a xlink:href="../../d5/d86/bibletimeapp_8cpp.html" target="_top" xlink:title=" ">
<polygon fill="white" stroke="black" points="798.5,-0.5 798.5,-19.5 899.5,-19.5 899.5,-0.5 798.5,-0.5"/>
<text text-anchor="middle" x="849" y="-7.5" font-family="Helvetica,sans-Serif" font-size="10.00">bibletimeapp.cpp</text>
</a>
</g>
</g>
<!-- Node1&#45;&gt;Node8 -->
<g id="edge7" class="edge">
<title>Node1&#45;&gt;Node8</title>
<path fill="none" stroke="midnightblue" d="M804.75,-49.54C815.81,-39.91 829.63,-27.87 838.86,-19.83"/>
<polygon fill="midnightblue" stroke="midnightblue" points="802.2,-47.12 796.96,-56.32 806.8,-52.4 802.2,-47.12"/>
</g>
<!-- Node9 -->
<g id="node9" class="node">
<title>Node9</title>
<g id="a_node9"><a xlink:href="../../d0/dae/btprinter_8cpp.html" target="_top" xlink:title=" ">
<polygon fill="white" stroke="black" points="918,-0.5 918,-19.5 996,-19.5 996,-0.5 918,-0.5"/>
<text text-anchor="middle" x="957" y="-7.5" font-family="Helvetica,sans-Serif" font-size="10.00">btprinter.cpp</text>
</a>
</g>
</g>
<!-- Node1&#45;&gt;Node9 -->
<g id="edge8" class="edge">
<title>Node1&#45;&gt;Node9</title>
<path fill="none" stroke="midnightblue" d="M823.82,-53.3C855.85,-43.13 901.52,-28.62 930.19,-19.52"/>
<polygon fill="midnightblue" stroke="midnightblue" points="822.41,-50.08 813.94,-56.44 824.53,-56.75 822.41,-50.08"/>
</g>
<!-- Node10 -->
<g id="node10" class="node">
<title>Node10</title>
<g id="a_node10"><a xlink:href="../../d5/deb/cexportmanager_8cpp.html" target="_top" xlink:title=" ">
<polygon fill="white" stroke="black" points="1014,-0.5 1014,-19.5 1130,-19.5 1130,-0.5 1014,-0.5"/>
<text text-anchor="middle" x="1072" y="-7.5" font-family="Helvetica,sans-Serif" font-size="10.00">cexportmanager.cpp</text>
</a>
</g>
</g>
<!-- Node1&#45;&gt;Node10 -->
<g id="edge9" class="edge">
<title>Node1&#45;&gt;Node10</title>
<path fill="none" stroke="midnightblue" d="M842.22,-54.54C896.08,-44.33 977,-29 1027.05,-19.52"/>
<polygon fill="midnightblue" stroke="midnightblue" points="841.33,-51.14 832.16,-56.44 842.64,-58.02 841.33,-51.14"/>
</g>
<!-- Node11 -->
<g id="node11" class="node">
<title>Node11</title>
<g id="a_node11"><a xlink:href="../../d5/d80/cinfodisplay_8cpp.html" target="_top" xlink:title=" ">
<polygon fill="white" stroke="black" points="1148.5,-0.5 1148.5,-19.5 1243.5,-19.5 1243.5,-0.5 1148.5,-0.5"/>
<text text-anchor="middle" x="1196" y="-7.5" font-family="Helvetica,sans-Serif" font-size="10.00">cinfodisplay.cpp</text>
</a>
</g>
</g>
<!-- Node1&#45;&gt;Node11 -->
<g id="edge10" class="edge">
<title>Node1&#45;&gt;Node11</title>
<path fill="none" stroke="midnightblue" d="M861.86,-56.08C933.18,-47.42 1043.52,-33.64 1139,-20 1142.07,-19.56 1145.24,-19.1 1148.43,-18.62"/>
<polygon fill="midnightblue" stroke="midnightblue" points="861.14,-52.64 851.63,-57.32 861.98,-59.59 861.14,-52.64"/>
</g>
<!-- Node12 -->
<g id="node12" class="node">
<title>Node12</title>
<g id="a_node12"><a xlink:href="../../de/d6e/btqmlinterface_8cpp.html" target="_top" xlink:title=" ">
<polygon fill="white" stroke="black" points="1261.5,-0.5 1261.5,-19.5 1370.5,-19.5 1370.5,-0.5 1261.5,-0.5"/>
<text text-anchor="middle" x="1316" y="-7.5" font-family="Helvetica,sans-Serif" font-size="10.00">btqmlinterface.cpp</text>
</a>
</g>
</g>
<!-- Node1&#45;&gt;Node12 -->
<g id="edge11" class="edge">
<title>Node1&#45;&gt;Node12</title>
<path fill="none" stroke="midnightblue" d="M861.61,-58.85C953.73,-51.02 1115.12,-36.5 1253,-20 1255.74,-19.67 1258.55,-19.32 1261.38,-18.96"/>
<polygon fill="midnightblue" stroke="midnightblue" points="861.22,-55.37 851.55,-59.7 861.81,-62.35 861.22,-55.37"/>
</g>
<!-- Node13 -->
<g id="node13" class="node">
<title>Node13</title>
<g id="a_node13"><a xlink:href="../../d4/dca/cdisplaysettings_8cpp.html" target="_top" xlink:title=" ">
<polygon fill="white" stroke="black" points="1389,-0.5 1389,-19.5 1505,-19.5 1505,-0.5 1389,-0.5"/>
<text text-anchor="middle" x="1447" y="-7.5" font-family="Helvetica,sans-Serif" font-size="10.00">cdisplaysettings.cpp</text>
</a>
</g>
</g>
<!-- Node1&#45;&gt;Node13 -->
<g id="edge12" class="edge">
<title>Node1&#45;&gt;Node13</title>
<path fill="none" stroke="midnightblue" d="M861.83,-60.71C974.43,-53.95 1194.05,-39.53 1380,-20 1382.92,-19.69 1385.91,-19.36 1388.92,-19.01"/>
<polygon fill="midnightblue" stroke="midnightblue" points="861.38,-57.23 851.61,-61.32 861.8,-64.22 861.38,-57.23"/>
</g>
</g>
</svg>
