<?xml version="1.0" encoding="UTF-8" standalone="no"?>
<!DOCTYPE svg PUBLIC "-//W3C//DTD SVG 1.1//EN"
 "http://www.w3.org/Graphics/SVG/1.1/DTD/svg11.dtd">
<!-- Generated by graphviz version 2.43.0 (0)
 -->
<!-- Title: BtModuleChooserMenu Pages: 1 -->
<svg width="150pt" height="617pt"
 viewBox="0.00 0.00 150.00 617.00" xmlns="http://www.w3.org/2000/svg" xmlns:xlink="http://www.w3.org/1999/xlink">
<g id="graph0" class="graph" transform="scale(1 1) rotate(0) translate(4 613)">
<title>BtModuleChooserMenu</title>
<!-- Node1 -->
<g id="Node000001" class="node">
<title>Node1</title>
<g id="a_Node000001"><a xlink:title=" ">
<polygon fill="#999999" stroke="transparent" points="142,-244 0,-244 0,0 142,0 142,-244"/>
<text text-anchor="start" x="14" y="-232" font-family="Helvetica,sans-Serif" font-size="10.00">BtModuleChooserMenu</text>
<text text-anchor="start" x="4" y="-217" font-family="Helvetica,sans-Serif" font-size="10.00">+</text>
<text text-anchor="start" x="17" y="-217" font-family="Helvetica,sans-Serif" font-size="10.00">m_buttonIndex</text>
<text text-anchor="start" x="4" y="-202" font-family="Helvetica,sans-Serif" font-size="10.00">+</text>
<text text-anchor="start" x="17" y="-202" font-family="Helvetica,sans-Serif" font-size="10.00">m_flags</text>
<text text-anchor="start" x="4" y="-187" font-family="Helvetica,sans-Serif" font-size="10.00">+</text>
<text text-anchor="start" x="17" y="-187" font-family="Helvetica,sans-Serif" font-size="10.00">m_leftLikeModules</text>
<text text-anchor="start" x="4" y="-172" font-family="Helvetica,sans-Serif" font-size="10.00">+</text>
<text text-anchor="start" x="17" y="-172" font-family="Helvetica,sans-Serif" font-size="10.00">m_moduleType</text>
<text text-anchor="start" x="4" y="-157" font-family="Helvetica,sans-Serif" font-size="10.00">+</text>
<text text-anchor="start" x="17" y="-157" font-family="Helvetica,sans-Serif" font-size="10.00">m_newModulesToUse</text>
<text text-anchor="start" x="4" y="-142" font-family="Helvetica,sans-Serif" font-size="10.00">+</text>
<text text-anchor="start" x="17" y="-142" font-family="Helvetica,sans-Serif" font-size="10.00">m_selectedModule</text>
<text text-anchor="start" x="4" y="-127" font-family="Helvetica,sans-Serif" font-size="10.00">+</text>
<text text-anchor="start" x="17" y="-127" font-family="Helvetica,sans-Serif" font-size="10.00">m_sortedModel</text>
<text text-anchor="start" x="4" y="-112" font-family="Helvetica,sans-Serif" font-size="10.00">+</text>
<text text-anchor="start" x="17" y="-112" font-family="Helvetica,sans-Serif" font-size="10.00">BtModuleChooserMenu()</text>
<text text-anchor="start" x="4" y="-97" font-family="Helvetica,sans-Serif" font-size="10.00">+</text>
<text text-anchor="start" x="17" y="-97" font-family="Helvetica,sans-Serif" font-size="10.00">buttonIndex()</text>
<text text-anchor="start" x="4" y="-82" font-family="Helvetica,sans-Serif" font-size="10.00">+</text>
<text text-anchor="start" x="17" y="-82" font-family="Helvetica,sans-Serif" font-size="10.00">moduleType()</text>
<text text-anchor="start" x="4" y="-67" font-family="Helvetica,sans-Serif" font-size="10.00">+</text>
<text text-anchor="start" x="17" y="-67" font-family="Helvetica,sans-Serif" font-size="10.00">selectedModule()</text>
<text text-anchor="start" x="4" y="-52" font-family="Helvetica,sans-Serif" font-size="10.00">+</text>
<text text-anchor="start" x="17" y="-52" font-family="Helvetica,sans-Serif" font-size="10.00">setSelectedModule()</text>
<text text-anchor="start" x="4" y="-37" font-family="Helvetica,sans-Serif" font-size="10.00">+</text>
<text text-anchor="start" x="17" y="-37" font-family="Helvetica,sans-Serif" font-size="10.00">update()</text>
<text text-anchor="start" x="6.5" y="-22" font-family="Helvetica,sans-Serif" font-size="10.00">&#45;</text>
<text text-anchor="start" x="17" y="-22" font-family="Helvetica,sans-Serif" font-size="10.00">newAction()</text>
<text text-anchor="start" x="6.5" y="-7" font-family="Helvetica,sans-Serif" font-size="10.00">&#45;</text>
<text text-anchor="start" x="17" y="-7" font-family="Helvetica,sans-Serif" font-size="10.00">preBuildMenu()</text>
<polygon fill="#666666" stroke="#666666" points="0,-227 0,-227 142,-227 142,-227 0,-227"/>
<polygon fill="#666666" stroke="#666666" points="0,-122 0,-122 15,-122 15,-122 0,-122"/>
<polygon fill="#666666" stroke="#666666" points="15,-122 15,-122 142,-122 142,-122 15,-122"/>
<polygon fill="none" stroke="#666666" points="0,0 0,-244 142,-244 142,0 0,0"/>
</a>
</g>
</g>
<!-- Node2 -->
<g id="Node000002" class="node">
<title>Node2</title>
<g id="a_Node000002"><a xlink:href="../../d9/de6/classBtMenuView.html" target="_top" xlink:title=" ">
<polygon fill="white" stroke="transparent" points="122,-524 20,-524 20,-280 122,-280 122,-524"/>
<text text-anchor="start" x="40" y="-512" font-family="Helvetica,sans-Serif" font-size="10.00">BtMenuView</text>
<text text-anchor="start" x="26.5" y="-497" font-family="Helvetica,sans-Serif" font-size="10.00">&#45;</text>
<text text-anchor="start" x="37" y="-497" font-family="Helvetica,sans-Serif" font-size="10.00">m_actions</text>
<text text-anchor="start" x="26.5" y="-482" font-family="Helvetica,sans-Serif" font-size="10.00">&#45;</text>
<text text-anchor="start" x="37" y="-482" font-family="Helvetica,sans-Serif" font-size="10.00">m_model</text>
<text text-anchor="start" x="24" y="-467" font-family="Helvetica,sans-Serif" font-size="10.00">+</text>
<text text-anchor="start" x="37" y="-467" font-family="Helvetica,sans-Serif" font-size="10.00">BtMenuView()</text>
<text text-anchor="start" x="24" y="-452" font-family="Helvetica,sans-Serif" font-size="10.00">+</text>
<text text-anchor="start" x="37" y="-452" font-family="Helvetica,sans-Serif" font-size="10.00">BtMenuView()</text>
<text text-anchor="start" x="24" y="-437" font-family="Helvetica,sans-Serif" font-size="10.00">+</text>
<text text-anchor="start" x="37" y="-437" font-family="Helvetica,sans-Serif" font-size="10.00">event()</text>
<text text-anchor="start" x="24" y="-422" font-family="Helvetica,sans-Serif" font-size="10.00">+</text>
<text text-anchor="start" x="37" y="-422" font-family="Helvetica,sans-Serif" font-size="10.00">model()</text>
<text text-anchor="start" x="24" y="-407" font-family="Helvetica,sans-Serif" font-size="10.00">+</text>
<text text-anchor="start" x="37" y="-407" font-family="Helvetica,sans-Serif" font-size="10.00">setModel()</text>
<text text-anchor="start" x="24" y="-392" font-family="Helvetica,sans-Serif" font-size="10.00">+</text>
<text text-anchor="start" x="37" y="-392" font-family="Helvetica,sans-Serif" font-size="10.00">~BtMenuView()</text>
<text text-anchor="start" x="24" y="-377" font-family="Helvetica,sans-Serif" font-size="10.00">#</text>
<text text-anchor="start" x="37" y="-377" font-family="Helvetica,sans-Serif" font-size="10.00">newAction()</text>
<text text-anchor="start" x="24" y="-362" font-family="Helvetica,sans-Serif" font-size="10.00">#</text>
<text text-anchor="start" x="37" y="-362" font-family="Helvetica,sans-Serif" font-size="10.00">newMenu()</text>
<text text-anchor="start" x="24" y="-347" font-family="Helvetica,sans-Serif" font-size="10.00">#</text>
<text text-anchor="start" x="37" y="-347" font-family="Helvetica,sans-Serif" font-size="10.00">postBuildMenu()</text>
<text text-anchor="start" x="24" y="-332" font-family="Helvetica,sans-Serif" font-size="10.00">#</text>
<text text-anchor="start" x="37" y="-332" font-family="Helvetica,sans-Serif" font-size="10.00">preBuildMenu()</text>
<text text-anchor="start" x="24" y="-317" font-family="Helvetica,sans-Serif" font-size="10.00">#</text>
<text text-anchor="start" x="37" y="-317" font-family="Helvetica,sans-Serif" font-size="10.00">rebuildMenu()</text>
<text text-anchor="start" x="26.5" y="-302" font-family="Helvetica,sans-Serif" font-size="10.00">&#45;</text>
<text text-anchor="start" x="37" y="-302" font-family="Helvetica,sans-Serif" font-size="10.00">buildMenu()</text>
<text text-anchor="start" x="26.5" y="-287" font-family="Helvetica,sans-Serif" font-size="10.00">&#45;</text>
<text text-anchor="start" x="37" y="-287" font-family="Helvetica,sans-Serif" font-size="10.00">removeMenus()</text>
<polygon fill="#666666" stroke="#666666" points="20,-507 20,-507 122,-507 122,-507 20,-507"/>
<polygon fill="#666666" stroke="#666666" points="20,-477 20,-477 35,-477 35,-477 20,-477"/>
<polygon fill="#666666" stroke="#666666" points="35,-477 35,-477 122,-477 122,-477 35,-477"/>
<polygon fill="none" stroke="#666666" points="20,-280 20,-524 122,-524 122,-280 20,-280"/>
</a>
</g>
</g>
<!-- Node2&#45;&gt;Node1 -->
<g id="edge1_Node000001_Node000002" class="edge">
<title>Node2&#45;&gt;Node1</title>
<g id="a_edge1_Node000001_Node000002"><a xlink:title=" ">
<path fill="none" stroke="#63b8ff" d="M71,-269.84C71,-261.27 71,-252.66 71,-244.14"/>
<polygon fill="none" stroke="#63b8ff" points="67.5,-269.87 71,-279.87 74.5,-269.87 67.5,-269.87"/>
</a>
</g>
</g>
<!-- Node3 -->
<g id="Node000003" class="node">
<title>Node3</title>
<g id="a_Node000003"><a xlink:href="../../de/d3d/classQMenu.html" target="_top" xlink:title=" ">
<polygon fill="white" stroke="transparent" points="93.5,-609 48.5,-609 48.5,-560 93.5,-560 93.5,-609"/>
<text text-anchor="start" x="54" y="-596.5" font-family="Helvetica,sans-Serif" font-size="10.00">QMenu</text>
<text text-anchor="start" x="69.5" y="-581.5" font-family="Helvetica,sans-Serif" font-size="10.00"> </text>
<text text-anchor="start" x="69.5" y="-566.5" font-family="Helvetica,sans-Serif" font-size="10.00"> </text>
<polygon fill="#666666" stroke="#666666" points="49,-591.5 49,-591.5 94,-591.5 94,-591.5 49,-591.5"/>
<polygon fill="#666666" stroke="#666666" points="49,-576.5 49,-576.5 94,-576.5 94,-576.5 49,-576.5"/>
<polygon fill="none" stroke="#666666" points="48.5,-560 48.5,-609 93.5,-609 93.5,-560 48.5,-560"/>
</a>
</g>
</g>
<!-- Node3&#45;&gt;Node2 -->
<g id="edge2_Node000002_Node000003" class="edge">
<title>Node3&#45;&gt;Node2</title>
<g id="a_edge2_Node000002_Node000003"><a xlink:title=" ">
<path fill="none" stroke="#63b8ff" d="M71,-549.65C71,-541.93 71,-533.29 71,-524.18"/>
<polygon fill="none" stroke="#63b8ff" points="67.5,-549.9 71,-559.9 74.5,-549.9 67.5,-549.9"/>
</a>
</g>
</g>
</g>
</svg>
