<?xml version="1.0" encoding="UTF-8" standalone="no"?>
<!DOCTYPE svg PUBLIC "-//W3C//DTD SVG 1.1//EN"
 "http://www.w3.org/Graphics/SVG/1.1/DTD/svg11.dtd">
<!-- Generated by graphviz version 2.43.0 (0)
 -->
<!-- Title: BtPrinter Pages: 1 -->
<svg width="248pt" height="540pt"
 viewBox="0.00 0.00 247.50 540.00" xmlns="http://www.w3.org/2000/svg" xmlns:xlink="http://www.w3.org/1999/xlink">
<g id="graph0" class="graph" transform="scale(1 1) rotate(0) translate(4 536)">
<title>BtPrinter</title>
<polygon fill="white" stroke="transparent" points="-4,4 -4,-536 243.5,-536 243.5,4 -4,4"/>
<!-- Node1 -->
<g id="node1" class="node">
<title>Node1</title>
<g id="a_node1"><a xlink:title="Manages the print item queue and printing.">
<polygon fill="#bfbfbf" stroke="black" points="44,-0.5 44,-101.5 140,-101.5 140,-0.5 44,-0.5"/>
<text text-anchor="middle" x="92" y="-89.5" font-family="Helvetica,sans-Serif" font-size="10.00">BtPrinter</text>
<polyline fill="none" stroke="black" points="44,-82.5 140,-82.5 "/>
<text text-anchor="middle" x="92" y="-70.5" font-family="Helvetica,sans-Serif" font-size="10.00"> </text>
<polyline fill="none" stroke="black" points="44,-63.5 140,-63.5 "/>
<text text-anchor="start" x="52" y="-51.5" font-family="Helvetica,sans-Serif" font-size="10.00">+ BtPrinter()</text>
<text text-anchor="start" x="52" y="-40.5" font-family="Helvetica,sans-Serif" font-size="10.00">+ printKeyTree()</text>
<text text-anchor="start" x="52" y="-29.5" font-family="Helvetica,sans-Serif" font-size="10.00">&#45; entryLink()</text>
<text text-anchor="start" x="52" y="-18.5" font-family="Helvetica,sans-Serif" font-size="10.00">&#45; finishText()</text>
<text text-anchor="start" x="52" y="-7.5" font-family="Helvetica,sans-Serif" font-size="10.00">&#45; renderEntry()</text>
</a>
</g>
</g>
<!-- Node2 -->
<g id="node2" class="node">
<title>Node2</title>
<g id="a_node2"><a xlink:href="../../d9/d5b/classQObject.html" target="_top" xlink:title=" ">
<polygon fill="white" stroke="black" points="0,-177 0,-234 56,-234 56,-177 0,-177"/>
<text text-anchor="middle" x="28" y="-222" font-family="Helvetica,sans-Serif" font-size="10.00">QObject</text>
<polyline fill="none" stroke="black" points="0,-215 56,-215 "/>
<text text-anchor="middle" x="28" y="-203" font-family="Helvetica,sans-Serif" font-size="10.00"> </text>
<polyline fill="none" stroke="black" points="0,-196 56,-196 "/>
<text text-anchor="middle" x="28" y="-184" font-family="Helvetica,sans-Serif" font-size="10.00"> </text>
</a>
</g>
</g>
<!-- Node2&#45;&gt;Node1 -->
<g id="edge1" class="edge">
<title>Node2&#45;&gt;Node1</title>
<path fill="none" stroke="midnightblue" d="M43.49,-167.59C51.81,-147.77 62.17,-123.08 71.18,-101.61"/>
<polygon fill="none" stroke="midnightblue" points="40.23,-166.31 39.59,-176.88 46.69,-169.02 40.23,-166.31"/>
</g>
<!-- Node3 -->
<g id="node3" class="node">
<title>Node3</title>
<g id="a_node3"><a xlink:href="../../d3/d32/classRendering_1_1CDisplayRendering.html" target="_top" xlink:title="Rendering for the html display widget.">
<polygon fill="white" stroke="black" points="74.5,-138.5 74.5,-272.5 239.5,-272.5 239.5,-138.5 74.5,-138.5"/>
<text text-anchor="middle" x="157" y="-260.5" font-family="Helvetica,sans-Serif" font-size="10.00">Rendering::CDisplayRendering</text>
<polyline fill="none" stroke="black" points="74.5,-253.5 239.5,-253.5 "/>
<text text-anchor="start" x="82.5" y="-241.5" font-family="Helvetica,sans-Serif" font-size="10.00">&#45; m_displayTemplateName</text>
<polyline fill="none" stroke="black" points="74.5,-234.5 239.5,-234.5 "/>
<text text-anchor="start" x="82.5" y="-222.5" font-family="Helvetica,sans-Serif" font-size="10.00">+ CDisplayRendering()</text>
<text text-anchor="start" x="82.5" y="-211.5" font-family="Helvetica,sans-Serif" font-size="10.00">+ CDisplayRendering()</text>
<text text-anchor="start" x="82.5" y="-200.5" font-family="Helvetica,sans-Serif" font-size="10.00">+ displayTemplateName()</text>
<text text-anchor="start" x="82.5" y="-189.5" font-family="Helvetica,sans-Serif" font-size="10.00">+ renderDisplayEntry()</text>
<text text-anchor="start" x="82.5" y="-178.5" font-family="Helvetica,sans-Serif" font-size="10.00">+ setDisplayTemplateName()</text>
<text text-anchor="start" x="82.5" y="-167.5" font-family="Helvetica,sans-Serif" font-size="10.00">+ keyToHTMLAnchor()</text>
<text text-anchor="start" x="82.5" y="-156.5" font-family="Helvetica,sans-Serif" font-size="10.00"># entryLink()</text>
<text text-anchor="start" x="82.5" y="-145.5" font-family="Helvetica,sans-Serif" font-size="10.00"># finishText()</text>
</a>
</g>
</g>
<!-- Node3&#45;&gt;Node1 -->
<g id="edge2" class="edge">
<title>Node3&#45;&gt;Node1</title>
<path fill="none" stroke="midnightblue" d="M124.88,-129.15C120.89,-119.78 116.89,-110.39 113.12,-101.55"/>
<polygon fill="none" stroke="midnightblue" points="121.73,-130.67 128.87,-138.5 128.17,-127.93 121.73,-130.67"/>
</g>
<!-- Node4 -->
<g id="node4" class="node">
<title>Node4</title>
<g id="a_node4"><a xlink:href="../../dd/dea/classRendering_1_1CTextRendering.html" target="_top" xlink:title="Text rendering based on trees.">
<polygon fill="white" stroke="black" points="82.5,-309.5 82.5,-531.5 231.5,-531.5 231.5,-309.5 82.5,-309.5"/>
<text text-anchor="middle" x="157" y="-519.5" font-family="Helvetica,sans-Serif" font-size="10.00">Rendering::CTextRendering</text>
<polyline fill="none" stroke="black" points="82.5,-512.5 231.5,-512.5 "/>
<text text-anchor="start" x="90.5" y="-500.5" font-family="Helvetica,sans-Serif" font-size="10.00"># m_addText</text>
<text text-anchor="start" x="90.5" y="-489.5" font-family="Helvetica,sans-Serif" font-size="10.00"># m_displayOptions</text>
<text text-anchor="start" x="90.5" y="-478.5" font-family="Helvetica,sans-Serif" font-size="10.00"># m_filterOptions</text>
<polyline fill="none" stroke="black" points="82.5,-471.5 231.5,-471.5 "/>
<text text-anchor="start" x="90.5" y="-459.5" font-family="Helvetica,sans-Serif" font-size="10.00">+ CTextRendering()</text>
<text text-anchor="start" x="90.5" y="-448.5" font-family="Helvetica,sans-Serif" font-size="10.00">+ CTextRendering()</text>
<text text-anchor="start" x="90.5" y="-437.5" font-family="Helvetica,sans-Serif" font-size="10.00">+ displayOptions()</text>
<text text-anchor="start" x="90.5" y="-426.5" font-family="Helvetica,sans-Serif" font-size="10.00">+ filterOptions()</text>
<text text-anchor="start" x="90.5" y="-415.5" font-family="Helvetica,sans-Serif" font-size="10.00">+ renderKeyRange()</text>
<text text-anchor="start" x="90.5" y="-404.5" font-family="Helvetica,sans-Serif" font-size="10.00">+ renderKeyTree()</text>
<text text-anchor="start" x="90.5" y="-393.5" font-family="Helvetica,sans-Serif" font-size="10.00">+ renderSingleKey()</text>
<text text-anchor="start" x="90.5" y="-382.5" font-family="Helvetica,sans-Serif" font-size="10.00">+ setDisplayOptions()</text>
<text text-anchor="start" x="90.5" y="-371.5" font-family="Helvetica,sans-Serif" font-size="10.00">+ setFilterOptions()</text>
<text text-anchor="start" x="90.5" y="-360.5" font-family="Helvetica,sans-Serif" font-size="10.00">+ ~CTextRendering()</text>
<text text-anchor="start" x="90.5" y="-349.5" font-family="Helvetica,sans-Serif" font-size="10.00"># entryLink()</text>
<text text-anchor="start" x="90.5" y="-338.5" font-family="Helvetica,sans-Serif" font-size="10.00"># finishText()</text>
<text text-anchor="start" x="90.5" y="-327.5" font-family="Helvetica,sans-Serif" font-size="10.00"># renderEntry()</text>
<text text-anchor="start" x="90.5" y="-316.5" font-family="Helvetica,sans-Serif" font-size="10.00"># collectModules()</text>
</a>
</g>
</g>
<!-- Node4&#45;&gt;Node3 -->
<g id="edge3" class="edge">
<title>Node4&#45;&gt;Node3</title>
<path fill="none" stroke="midnightblue" d="M157,-299.04C157,-290.04 157,-281.17 157,-272.69"/>
<polygon fill="none" stroke="midnightblue" points="153.5,-299.26 157,-309.26 160.5,-299.26 153.5,-299.26"/>
</g>
</g>
</svg>
