<?xml version="1.0" encoding="UTF-8" standalone="no"?>
<!DOCTYPE svg PUBLIC "-//W3C//DTD SVG 1.1//EN"
 "http://www.w3.org/Graphics/SVG/1.1/DTD/svg11.dtd">
<!-- Generated by graphviz version 2.43.0 (0)
 -->
<!-- Title: BtPrinter Pages: 1 -->
<svg width="167pt" height="617pt"
 viewBox="0.00 0.00 167.00 617.00" xmlns="http://www.w3.org/2000/svg" xmlns:xlink="http://www.w3.org/1999/xlink">
<g id="graph0" class="graph" transform="scale(1 1) rotate(0) translate(4 613)">
<title>BtPrinter</title>
<!-- Node1 -->
<g id="Node000001" class="node">
<title>Node1</title>
<g id="a_Node000001"><a xlink:title="Manages the print item queue and printing.">
<polygon fill="#999999" stroke="transparent" points="124.5,-109 34.5,-109 34.5,0 124.5,0 124.5,-109"/>
<text text-anchor="start" x="58" y="-96.5" font-family="Helvetica,sans-Serif" font-size="10.00">BtPrinter</text>
<text text-anchor="start" x="77.5" y="-81.5" font-family="Helvetica,sans-Serif" font-size="10.00"> </text>
<text text-anchor="start" x="38.5" y="-66.5" font-family="Helvetica,sans-Serif" font-size="10.00">+</text>
<text text-anchor="start" x="51.5" y="-66.5" font-family="Helvetica,sans-Serif" font-size="10.00">BtPrinter()</text>
<text text-anchor="start" x="38.5" y="-51.5" font-family="Helvetica,sans-Serif" font-size="10.00">+</text>
<text text-anchor="start" x="51.5" y="-51.5" font-family="Helvetica,sans-Serif" font-size="10.00">printKeyTree()</text>
<text text-anchor="start" x="41" y="-36.5" font-family="Helvetica,sans-Serif" font-size="10.00">&#45;</text>
<text text-anchor="start" x="51.5" y="-36.5" font-family="Helvetica,sans-Serif" font-size="10.00">entryLink()</text>
<text text-anchor="start" x="41" y="-21.5" font-family="Helvetica,sans-Serif" font-size="10.00">&#45;</text>
<text text-anchor="start" x="51.5" y="-21.5" font-family="Helvetica,sans-Serif" font-size="10.00">finishText()</text>
<text text-anchor="start" x="41" y="-6.5" font-family="Helvetica,sans-Serif" font-size="10.00">&#45;</text>
<text text-anchor="start" x="51.5" y="-6.5" font-family="Helvetica,sans-Serif" font-size="10.00">renderEntry()</text>
<polygon fill="#666666" stroke="#666666" points="34.5,-91.5 34.5,-91.5 124.5,-91.5 124.5,-91.5 34.5,-91.5"/>
<polygon fill="#666666" stroke="#666666" points="34.5,-76.5 34.5,-76.5 124.5,-76.5 124.5,-76.5 34.5,-76.5"/>
<polygon fill="none" stroke="#666666" points="34.5,0 34.5,-109 124.5,-109 124.5,0 34.5,0"/>
</a>
</g>
</g>
<!-- Node2 -->
<g id="Node000002" class="node">
<title>Node2</title>
<g id="a_Node000002"><a xlink:href="../../d3/d32/classRendering_1_1CDisplayRendering.html" target="_top" xlink:title="Rendering for the html display widget.">
<polygon fill="white" stroke="transparent" points="159,-299 0,-299 0,-145 159,-145 159,-299"/>
<text text-anchor="start" x="5.5" y="-287" font-family="Helvetica,sans-Serif" font-size="10.00">Rendering::CDisplayRendering</text>
<text text-anchor="start" x="8" y="-272" font-family="Helvetica,sans-Serif" font-size="10.00">&#45;</text>
<text text-anchor="start" x="19.5" y="-272" font-family="Helvetica,sans-Serif" font-size="10.00">m_displayTemplateName</text>
<text text-anchor="start" x="5.5" y="-257" font-family="Helvetica,sans-Serif" font-size="10.00">+</text>
<text text-anchor="start" x="19.5" y="-257" font-family="Helvetica,sans-Serif" font-size="10.00">CDisplayRendering()</text>
<text text-anchor="start" x="5.5" y="-242" font-family="Helvetica,sans-Serif" font-size="10.00">+</text>
<text text-anchor="start" x="19.5" y="-242" font-family="Helvetica,sans-Serif" font-size="10.00">CDisplayRendering()</text>
<text text-anchor="start" x="5.5" y="-227" font-family="Helvetica,sans-Serif" font-size="10.00">+</text>
<text text-anchor="start" x="19.5" y="-227" font-family="Helvetica,sans-Serif" font-size="10.00">displayTemplateName()</text>
<text text-anchor="start" x="5.5" y="-212" font-family="Helvetica,sans-Serif" font-size="10.00">+</text>
<text text-anchor="start" x="19.5" y="-212" font-family="Helvetica,sans-Serif" font-size="10.00">renderDisplayEntry()</text>
<text text-anchor="start" x="5.5" y="-197" font-family="Helvetica,sans-Serif" font-size="10.00">+</text>
<text text-anchor="start" x="19.5" y="-197" font-family="Helvetica,sans-Serif" font-size="10.00">setDisplayTemplateName()</text>
<text text-anchor="start" x="5.5" y="-182" font-family="Helvetica,sans-Serif" font-size="10.00">+</text>
<text text-anchor="start" x="19.5" y="-182" font-family="Helvetica,sans-Serif" font-size="10.00">keyToHTMLAnchor()</text>
<text text-anchor="start" x="5.5" y="-167" font-family="Helvetica,sans-Serif" font-size="10.00">#</text>
<text text-anchor="start" x="19.5" y="-167" font-family="Helvetica,sans-Serif" font-size="10.00">entryLink()</text>
<text text-anchor="start" x="5.5" y="-152" font-family="Helvetica,sans-Serif" font-size="10.00">#</text>
<text text-anchor="start" x="19.5" y="-152" font-family="Helvetica,sans-Serif" font-size="10.00">finishText()</text>
<polygon fill="#666666" stroke="#666666" points="0.5,-282 0.5,-282 159.5,-282 159.5,-282 0.5,-282"/>
<polygon fill="#666666" stroke="#666666" points="0.5,-267 0.5,-267 17.5,-267 17.5,-267 0.5,-267"/>
<polygon fill="#666666" stroke="#666666" points="17.5,-267 17.5,-267 159.5,-267 159.5,-267 17.5,-267"/>
<polygon fill="none" stroke="#666666" points="0,-145 0,-299 159,-299 159,-145 0,-145"/>
</a>
</g>
</g>
<!-- Node2&#45;&gt;Node1 -->
<g id="edge1_Node000001_Node000002" class="edge">
<title>Node2&#45;&gt;Node1</title>
<g id="a_edge1_Node000001_Node000002"><a xlink:title=" ">
<path fill="none" stroke="#63b8ff" d="M79.5,-134.52C79.5,-125.99 79.5,-117.5 79.5,-109.44"/>
<polygon fill="none" stroke="#63b8ff" points="76,-134.55 79.5,-144.55 83,-134.55 76,-134.55"/>
</a>
</g>
</g>
<!-- Node3 -->
<g id="Node000003" class="node">
<title>Node3</title>
<g id="a_Node000003"><a xlink:href="../../dd/dea/classRendering_1_1CTextRendering.html" target="_top" xlink:title="Text rendering based on trees.">
<polygon fill="white" stroke="transparent" points="151,-609 8,-609 8,-335 151,-335 151,-609"/>
<text text-anchor="start" x="13.5" y="-597" font-family="Helvetica,sans-Serif" font-size="10.00">Rendering::CTextRendering</text>
<text text-anchor="start" x="18.5" y="-582" font-family="Helvetica,sans-Serif" font-size="10.00">#</text>
<text text-anchor="start" x="37.5" y="-582" font-family="Helvetica,sans-Serif" font-size="10.00">m_addText</text>
<text text-anchor="start" x="18.5" y="-567" font-family="Helvetica,sans-Serif" font-size="10.00">#</text>
<text text-anchor="start" x="37.5" y="-567" font-family="Helvetica,sans-Serif" font-size="10.00">m_displayOptions</text>
<text text-anchor="start" x="18.5" y="-552" font-family="Helvetica,sans-Serif" font-size="10.00">#</text>
<text text-anchor="start" x="37.5" y="-552" font-family="Helvetica,sans-Serif" font-size="10.00">m_filterOptions</text>
<text text-anchor="start" x="18.5" y="-537" font-family="Helvetica,sans-Serif" font-size="10.00">+</text>
<text text-anchor="start" x="37.5" y="-537" font-family="Helvetica,sans-Serif" font-size="10.00">CTextRendering()</text>
<text text-anchor="start" x="18.5" y="-522" font-family="Helvetica,sans-Serif" font-size="10.00">+</text>
<text text-anchor="start" x="37.5" y="-522" font-family="Helvetica,sans-Serif" font-size="10.00">CTextRendering()</text>
<text text-anchor="start" x="18.5" y="-507" font-family="Helvetica,sans-Serif" font-size="10.00">+</text>
<text text-anchor="start" x="37.5" y="-507" font-family="Helvetica,sans-Serif" font-size="10.00">displayOptions()</text>
<text text-anchor="start" x="18.5" y="-492" font-family="Helvetica,sans-Serif" font-size="10.00">+</text>
<text text-anchor="start" x="37.5" y="-492" font-family="Helvetica,sans-Serif" font-size="10.00">filterOptions()</text>
<text text-anchor="start" x="18.5" y="-477" font-family="Helvetica,sans-Serif" font-size="10.00">+</text>
<text text-anchor="start" x="37.5" y="-477" font-family="Helvetica,sans-Serif" font-size="10.00">renderKeyRange()</text>
<text text-anchor="start" x="18.5" y="-462" font-family="Helvetica,sans-Serif" font-size="10.00">+</text>
<text text-anchor="start" x="37.5" y="-462" font-family="Helvetica,sans-Serif" font-size="10.00">renderKeyTree()</text>
<text text-anchor="start" x="18.5" y="-447" font-family="Helvetica,sans-Serif" font-size="10.00">+</text>
<text text-anchor="start" x="37.5" y="-447" font-family="Helvetica,sans-Serif" font-size="10.00">renderSingleKey()</text>
<text text-anchor="start" x="18.5" y="-432" font-family="Helvetica,sans-Serif" font-size="10.00">+</text>
<text text-anchor="start" x="37.5" y="-432" font-family="Helvetica,sans-Serif" font-size="10.00">setDisplayOptions()</text>
<text text-anchor="start" x="18.5" y="-417" font-family="Helvetica,sans-Serif" font-size="10.00">+</text>
<text text-anchor="start" x="37.5" y="-417" font-family="Helvetica,sans-Serif" font-size="10.00">setFilterOptions()</text>
<text text-anchor="start" x="18.5" y="-402" font-family="Helvetica,sans-Serif" font-size="10.00">+</text>
<text text-anchor="start" x="37.5" y="-402" font-family="Helvetica,sans-Serif" font-size="10.00">~CTextRendering()</text>
<text text-anchor="start" x="18.5" y="-387" font-family="Helvetica,sans-Serif" font-size="10.00">#</text>
<text text-anchor="start" x="37.5" y="-387" font-family="Helvetica,sans-Serif" font-size="10.00">entryLink()</text>
<text text-anchor="start" x="18.5" y="-372" font-family="Helvetica,sans-Serif" font-size="10.00">#</text>
<text text-anchor="start" x="37.5" y="-372" font-family="Helvetica,sans-Serif" font-size="10.00">finishText()</text>
<text text-anchor="start" x="18.5" y="-357" font-family="Helvetica,sans-Serif" font-size="10.00">#</text>
<text text-anchor="start" x="37.5" y="-357" font-family="Helvetica,sans-Serif" font-size="10.00">renderEntry()</text>
<text text-anchor="start" x="18.5" y="-342" font-family="Helvetica,sans-Serif" font-size="10.00">#</text>
<text text-anchor="start" x="37.5" y="-342" font-family="Helvetica,sans-Serif" font-size="10.00">collectModules()</text>
<polygon fill="#666666" stroke="#666666" points="8.5,-592 8.5,-592 151.5,-592 151.5,-592 8.5,-592"/>
<polygon fill="#666666" stroke="#666666" points="8.5,-547 8.5,-547 35.5,-547 35.5,-547 8.5,-547"/>
<polygon fill="#666666" stroke="#666666" points="35.5,-547 35.5,-547 151.5,-547 151.5,-547 35.5,-547"/>
<polygon fill="none" stroke="#666666" points="8,-335 8,-609 151,-609 151,-335 8,-335"/>
</a>
</g>
</g>
<!-- Node3&#45;&gt;Node2 -->
<g id="edge2_Node000002_Node000003" class="edge">
<title>Node3&#45;&gt;Node2</title>
<g id="a_edge2_Node000002_Node000003"><a xlink:title=" ">
<path fill="none" stroke="#63b8ff" d="M79.5,-324.46C79.5,-315.81 79.5,-307.32 79.5,-299.15"/>
<polygon fill="none" stroke="#63b8ff" points="76,-324.67 79.5,-334.67 83,-324.67 76,-324.67"/>
</a>
</g>
</g>
</g>
</svg>
