<?xml version="1.0" encoding="UTF-8" standalone="no"?>
<!DOCTYPE svg PUBLIC "-//W3C//DTD SVG 1.1//EN"
 "http://www.w3.org/Graphics/SVG/1.1/DTD/svg11.dtd">
<!-- Generated by graphviz version 2.43.0 (0)
 -->
<!-- Title: BtPrinter Pages: 1 -->
<svg width="235pt" height="617pt"
 viewBox="0.00 0.00 234.50 617.00" xmlns="http://www.w3.org/2000/svg" xmlns:xlink="http://www.w3.org/1999/xlink">
<g id="graph0" class="graph" transform="scale(1 1) rotate(0) translate(4 613)">
<title>BtPrinter</title>
<!-- Node1 -->
<g id="Node000001" class="node">
<title>Node1</title>
<g id="a_Node000001"><a xlink:title="Manages the print item queue and printing.">
<polygon fill="#999999" stroke="transparent" points="131,-109 41,-109 41,0 131,0 131,-109"/>
<text text-anchor="start" x="64.5" y="-96.5" font-family="Helvetica,sans-Serif" font-size="10.00">BtPrinter</text>
<text text-anchor="start" x="84" y="-81.5" font-family="Helvetica,sans-Serif" font-size="10.00"> </text>
<text text-anchor="start" x="45" y="-66.5" font-family="Helvetica,sans-Serif" font-size="10.00">+</text>
<text text-anchor="start" x="58" y="-66.5" font-family="Helvetica,sans-Serif" font-size="10.00">BtPrinter()</text>
<text text-anchor="start" x="45" y="-51.5" font-family="Helvetica,sans-Serif" font-size="10.00">+</text>
<text text-anchor="start" x="58" y="-51.5" font-family="Helvetica,sans-Serif" font-size="10.00">printKeyTree()</text>
<text text-anchor="start" x="47.5" y="-36.5" font-family="Helvetica,sans-Serif" font-size="10.00">&#45;</text>
<text text-anchor="start" x="58" y="-36.5" font-family="Helvetica,sans-Serif" font-size="10.00">entryLink()</text>
<text text-anchor="start" x="47.5" y="-21.5" font-family="Helvetica,sans-Serif" font-size="10.00">&#45;</text>
<text text-anchor="start" x="58" y="-21.5" font-family="Helvetica,sans-Serif" font-size="10.00">finishText()</text>
<text text-anchor="start" x="47.5" y="-6.5" font-family="Helvetica,sans-Serif" font-size="10.00">&#45;</text>
<text text-anchor="start" x="58" y="-6.5" font-family="Helvetica,sans-Serif" font-size="10.00">renderEntry()</text>
<polygon fill="#666666" stroke="#666666" points="41,-91.5 41,-91.5 131,-91.5 131,-91.5 41,-91.5"/>
<polygon fill="#666666" stroke="#666666" points="41,-76.5 41,-76.5 131,-76.5 131,-76.5 41,-76.5"/>
<polygon fill="none" stroke="#666666" points="41,0 41,-109 131,-109 131,0 41,0"/>
</a>
</g>
</g>
<!-- Node2 -->
<g id="Node000002" class="node">
<title>Node2</title>
<g id="a_Node000002"><a xlink:href="../../d9/d5b/classQObject.html" target="_top" xlink:title=" ">
<polygon fill="white" stroke="transparent" points="50,-246.5 0,-246.5 0,-197.5 50,-197.5 50,-246.5"/>
<text text-anchor="start" x="5" y="-234" font-family="Helvetica,sans-Serif" font-size="10.00">QObject</text>
<text text-anchor="start" x="23" y="-219" font-family="Helvetica,sans-Serif" font-size="10.00"> </text>
<text text-anchor="start" x="23" y="-204" font-family="Helvetica,sans-Serif" font-size="10.00"> </text>
<polygon fill="#666666" stroke="#666666" points="0,-229 0,-229 50,-229 50,-229 0,-229"/>
<polygon fill="#666666" stroke="#666666" points="0,-214 0,-214 50,-214 50,-214 0,-214"/>
<polygon fill="none" stroke="#666666" points="0,-197.5 0,-246.5 50,-246.5 50,-197.5 0,-197.5"/>
</a>
</g>
</g>
<!-- Node2&#45;&gt;Node1 -->
<g id="edge1_Node000001_Node000002" class="edge">
<title>Node2&#45;&gt;Node1</title>
<g id="a_edge1_Node000001_Node000002"><a xlink:title=" ">
<path fill="none" stroke="#63b8ff" d="M37.22,-187.85C45.51,-165.36 56.65,-135.13 66.2,-109.23"/>
<polygon fill="none" stroke="#63b8ff" points="33.91,-186.69 33.74,-197.29 40.48,-189.12 33.91,-186.69"/>
</a>
</g>
</g>
<!-- Node3 -->
<g id="Node000003" class="node">
<title>Node3</title>
<g id="a_Node000003"><a xlink:href="../../d3/d32/classRendering_1_1CDisplayRendering.html" target="_top" xlink:title="Rendering for the html display widget.">
<polygon fill="white" stroke="transparent" points="226.5,-299 67.5,-299 67.5,-145 226.5,-145 226.5,-299"/>
<text text-anchor="start" x="73" y="-287" font-family="Helvetica,sans-Serif" font-size="10.00">Rendering::CDisplayRendering</text>
<text text-anchor="start" x="75.5" y="-272" font-family="Helvetica,sans-Serif" font-size="10.00">&#45;</text>
<text text-anchor="start" x="87" y="-272" font-family="Helvetica,sans-Serif" font-size="10.00">m_displayTemplateName</text>
<text text-anchor="start" x="73" y="-257" font-family="Helvetica,sans-Serif" font-size="10.00">+</text>
<text text-anchor="start" x="87" y="-257" font-family="Helvetica,sans-Serif" font-size="10.00">CDisplayRendering()</text>
<text text-anchor="start" x="73" y="-242" font-family="Helvetica,sans-Serif" font-size="10.00">+</text>
<text text-anchor="start" x="87" y="-242" font-family="Helvetica,sans-Serif" font-size="10.00">CDisplayRendering()</text>
<text text-anchor="start" x="73" y="-227" font-family="Helvetica,sans-Serif" font-size="10.00">+</text>
<text text-anchor="start" x="87" y="-227" font-family="Helvetica,sans-Serif" font-size="10.00">displayTemplateName()</text>
<text text-anchor="start" x="73" y="-212" font-family="Helvetica,sans-Serif" font-size="10.00">+</text>
<text text-anchor="start" x="87" y="-212" font-family="Helvetica,sans-Serif" font-size="10.00">renderDisplayEntry()</text>
<text text-anchor="start" x="73" y="-197" font-family="Helvetica,sans-Serif" font-size="10.00">+</text>
<text text-anchor="start" x="87" y="-197" font-family="Helvetica,sans-Serif" font-size="10.00">setDisplayTemplateName()</text>
<text text-anchor="start" x="73" y="-182" font-family="Helvetica,sans-Serif" font-size="10.00">+</text>
<text text-anchor="start" x="87" y="-182" font-family="Helvetica,sans-Serif" font-size="10.00">keyToHTMLAnchor()</text>
<text text-anchor="start" x="73" y="-167" font-family="Helvetica,sans-Serif" font-size="10.00">#</text>
<text text-anchor="start" x="87" y="-167" font-family="Helvetica,sans-Serif" font-size="10.00">entryLink()</text>
<text text-anchor="start" x="73" y="-152" font-family="Helvetica,sans-Serif" font-size="10.00">#</text>
<text text-anchor="start" x="87" y="-152" font-family="Helvetica,sans-Serif" font-size="10.00">finishText()</text>
<polygon fill="#666666" stroke="#666666" points="68,-282 68,-282 227,-282 227,-282 68,-282"/>
<polygon fill="#666666" stroke="#666666" points="68,-267 68,-267 85,-267 85,-267 68,-267"/>
<polygon fill="#666666" stroke="#666666" points="85,-267 85,-267 227,-267 227,-267 85,-267"/>
<polygon fill="none" stroke="#666666" points="67.5,-145 67.5,-299 226.5,-299 226.5,-145 67.5,-145"/>
</a>
</g>
</g>
<!-- Node3&#45;&gt;Node1 -->
<g id="edge2_Node000001_Node000003" class="edge">
<title>Node3&#45;&gt;Node1</title>
<g id="a_edge2_Node000001_Node000003"><a xlink:title=" ">
<path fill="none" stroke="#63b8ff" d="M115.33,-135.08C112.12,-126.36 108.92,-117.68 105.88,-109.44"/>
<polygon fill="none" stroke="#63b8ff" points="112.08,-136.38 118.82,-144.55 118.65,-133.95 112.08,-136.38"/>
</a>
</g>
</g>
<!-- Node4 -->
<g id="Node000004" class="node">
<title>Node4</title>
<g id="a_Node000004"><a xlink:href="../../dd/dea/classRendering_1_1CTextRendering.html" target="_top" xlink:title="Text rendering based on trees.">
<polygon fill="white" stroke="transparent" points="218.5,-609 75.5,-609 75.5,-335 218.5,-335 218.5,-609"/>
<text text-anchor="start" x="81" y="-597" font-family="Helvetica,sans-Serif" font-size="10.00">Rendering::CTextRendering</text>
<text text-anchor="start" x="86" y="-582" font-family="Helvetica,sans-Serif" font-size="10.00">#</text>
<text text-anchor="start" x="105" y="-582" font-family="Helvetica,sans-Serif" font-size="10.00">m_addText</text>
<text text-anchor="start" x="86" y="-567" font-family="Helvetica,sans-Serif" font-size="10.00">#</text>
<text text-anchor="start" x="105" y="-567" font-family="Helvetica,sans-Serif" font-size="10.00">m_displayOptions</text>
<text text-anchor="start" x="86" y="-552" font-family="Helvetica,sans-Serif" font-size="10.00">#</text>
<text text-anchor="start" x="105" y="-552" font-family="Helvetica,sans-Serif" font-size="10.00">m_filterOptions</text>
<text text-anchor="start" x="86" y="-537" font-family="Helvetica,sans-Serif" font-size="10.00">+</text>
<text text-anchor="start" x="105" y="-537" font-family="Helvetica,sans-Serif" font-size="10.00">CTextRendering()</text>
<text text-anchor="start" x="86" y="-522" font-family="Helvetica,sans-Serif" font-size="10.00">+</text>
<text text-anchor="start" x="105" y="-522" font-family="Helvetica,sans-Serif" font-size="10.00">CTextRendering()</text>
<text text-anchor="start" x="86" y="-507" font-family="Helvetica,sans-Serif" font-size="10.00">+</text>
<text text-anchor="start" x="105" y="-507" font-family="Helvetica,sans-Serif" font-size="10.00">displayOptions()</text>
<text text-anchor="start" x="86" y="-492" font-family="Helvetica,sans-Serif" font-size="10.00">+</text>
<text text-anchor="start" x="105" y="-492" font-family="Helvetica,sans-Serif" font-size="10.00">filterOptions()</text>
<text text-anchor="start" x="86" y="-477" font-family="Helvetica,sans-Serif" font-size="10.00">+</text>
<text text-anchor="start" x="105" y="-477" font-family="Helvetica,sans-Serif" font-size="10.00">renderKeyRange()</text>
<text text-anchor="start" x="86" y="-462" font-family="Helvetica,sans-Serif" font-size="10.00">+</text>
<text text-anchor="start" x="105" y="-462" font-family="Helvetica,sans-Serif" font-size="10.00">renderKeyTree()</text>
<text text-anchor="start" x="86" y="-447" font-family="Helvetica,sans-Serif" font-size="10.00">+</text>
<text text-anchor="start" x="105" y="-447" font-family="Helvetica,sans-Serif" font-size="10.00">renderSingleKey()</text>
<text text-anchor="start" x="86" y="-432" font-family="Helvetica,sans-Serif" font-size="10.00">+</text>
<text text-anchor="start" x="105" y="-432" font-family="Helvetica,sans-Serif" font-size="10.00">setDisplayOptions()</text>
<text text-anchor="start" x="86" y="-417" font-family="Helvetica,sans-Serif" font-size="10.00">+</text>
<text text-anchor="start" x="105" y="-417" font-family="Helvetica,sans-Serif" font-size="10.00">setFilterOptions()</text>
<text text-anchor="start" x="86" y="-402" font-family="Helvetica,sans-Serif" font-size="10.00">+</text>
<text text-anchor="start" x="105" y="-402" font-family="Helvetica,sans-Serif" font-size="10.00">~CTextRendering()</text>
<text text-anchor="start" x="86" y="-387" font-family="Helvetica,sans-Serif" font-size="10.00">#</text>
<text text-anchor="start" x="105" y="-387" font-family="Helvetica,sans-Serif" font-size="10.00">entryLink()</text>
<text text-anchor="start" x="86" y="-372" font-family="Helvetica,sans-Serif" font-size="10.00">#</text>
<text text-anchor="start" x="105" y="-372" font-family="Helvetica,sans-Serif" font-size="10.00">finishText()</text>
<text text-anchor="start" x="86" y="-357" font-family="Helvetica,sans-Serif" font-size="10.00">#</text>
<text text-anchor="start" x="105" y="-357" font-family="Helvetica,sans-Serif" font-size="10.00">renderEntry()</text>
<text text-anchor="start" x="86" y="-342" font-family="Helvetica,sans-Serif" font-size="10.00">#</text>
<text text-anchor="start" x="105" y="-342" font-family="Helvetica,sans-Serif" font-size="10.00">collectModules()</text>
<polygon fill="#666666" stroke="#666666" points="76,-592 76,-592 219,-592 219,-592 76,-592"/>
<polygon fill="#666666" stroke="#666666" points="76,-547 76,-547 103,-547 103,-547 76,-547"/>
<polygon fill="#666666" stroke="#666666" points="103,-547 103,-547 219,-547 219,-547 103,-547"/>
<polygon fill="none" stroke="#666666" points="75.5,-335 75.5,-609 218.5,-609 218.5,-335 75.5,-335"/>
</a>
</g>
</g>
<!-- Node4&#45;&gt;Node3 -->
<g id="edge3_Node000003_Node000004" class="edge">
<title>Node4&#45;&gt;Node3</title>
<g id="a_edge3_Node000003_Node000004"><a xlink:title=" ">
<path fill="none" stroke="#63b8ff" d="M147,-324.46C147,-315.81 147,-307.32 147,-299.15"/>
<polygon fill="none" stroke="#63b8ff" points="143.5,-324.67 147,-334.67 150.5,-324.67 143.5,-324.67"/>
</a>
</g>
</g>
</g>
</svg>
