<?xml version="1.0" encoding="UTF-8" standalone="no"?>
<!DOCTYPE svg PUBLIC "-//W3C//DTD SVG 1.1//EN"
 "http://www.w3.org/Graphics/SVG/1.1/DTD/svg11.dtd">
<!-- Generated by graphviz version 2.43.0 (0)
 -->
<!-- Title: QAbstractListModel Pages: 1 -->
<svg width="284pt" height="517pt"
 viewBox="0.00 0.00 284.00 517.00" xmlns="http://www.w3.org/2000/svg" xmlns:xlink="http://www.w3.org/1999/xlink">
<g id="graph0" class="graph" transform="scale(1 1) rotate(0) translate(4 513)">
<title>QAbstractListModel</title>
<!-- Node1 -->
<g id="Node000001" class="node">
<title>Node1</title>
<g id="a_Node000001"><a xlink:title=" ">
<polygon fill="#999999" stroke="transparent" points="192,-509 86,-509 86,-460 192,-460 192,-509"/>
<text text-anchor="start" x="91" y="-496.5" font-family="Helvetica,sans-Serif" font-size="10.00">QAbstractListModel</text>
<text text-anchor="start" x="137" y="-481.5" font-family="Helvetica,sans-Serif" font-size="10.00"> </text>
<text text-anchor="start" x="137" y="-466.5" font-family="Helvetica,sans-Serif" font-size="10.00"> </text>
<polygon fill="#666666" stroke="#666666" points="86,-491.5 86,-491.5 192,-491.5 192,-491.5 86,-491.5"/>
<polygon fill="#666666" stroke="#666666" points="86,-476.5 86,-476.5 192,-476.5 192,-476.5 86,-476.5"/>
<polygon fill="none" stroke="#666666" points="86,-460 86,-509 192,-509 192,-460 86,-460"/>
</a>
</g>
</g>
<!-- Node2 -->
<g id="Node000002" class="node">
<title>Node2</title>
<g id="a_Node000002"><a xlink:href="../../d4/db0/classBtBookshelfModel.html" target="_top" xlink:title=" ">
<polygon fill="white" stroke="transparent" points="132,-349 0,-349 0,-75 132,-75 132,-349"/>
<text text-anchor="start" x="21" y="-337" font-family="Helvetica,sans-Serif" font-size="10.00">BtBookshelfModel</text>
<text text-anchor="start" x="6.5" y="-322" font-family="Helvetica,sans-Serif" font-size="10.00">&#45;</text>
<text text-anchor="start" x="17" y="-322" font-family="Helvetica,sans-Serif" font-size="10.00">m_data</text>
<text text-anchor="start" x="4" y="-307" font-family="Helvetica,sans-Serif" font-size="10.00">+</text>
<text text-anchor="start" x="17" y="-307" font-family="Helvetica,sans-Serif" font-size="10.00">addModule()</text>
<text text-anchor="start" x="4" y="-292" font-family="Helvetica,sans-Serif" font-size="10.00">+</text>
<text text-anchor="start" x="17" y="-292" font-family="Helvetica,sans-Serif" font-size="10.00">BtBookshelfModel()</text>
<text text-anchor="start" x="4" y="-277" font-family="Helvetica,sans-Serif" font-size="10.00">+</text>
<text text-anchor="start" x="17" y="-277" font-family="Helvetica,sans-Serif" font-size="10.00">BtBookshelfModel()</text>
<text text-anchor="start" x="4" y="-262" font-family="Helvetica,sans-Serif" font-size="10.00">+</text>
<text text-anchor="start" x="17" y="-262" font-family="Helvetica,sans-Serif" font-size="10.00">BtBookshelfModel()</text>
<text text-anchor="start" x="4" y="-247" font-family="Helvetica,sans-Serif" font-size="10.00">+</text>
<text text-anchor="start" x="17" y="-247" font-family="Helvetica,sans-Serif" font-size="10.00">clear()</text>
<text text-anchor="start" x="4" y="-232" font-family="Helvetica,sans-Serif" font-size="10.00">+</text>
<text text-anchor="start" x="17" y="-232" font-family="Helvetica,sans-Serif" font-size="10.00">data()</text>
<text text-anchor="start" x="4" y="-217" font-family="Helvetica,sans-Serif" font-size="10.00">+</text>
<text text-anchor="start" x="17" y="-217" font-family="Helvetica,sans-Serif" font-size="10.00">data()</text>
<text text-anchor="start" x="4" y="-202" font-family="Helvetica,sans-Serif" font-size="10.00">+</text>
<text text-anchor="start" x="17" y="-202" font-family="Helvetica,sans-Serif" font-size="10.00">getModule()</text>
<text text-anchor="start" x="4" y="-187" font-family="Helvetica,sans-Serif" font-size="10.00">+</text>
<text text-anchor="start" x="17" y="-187" font-family="Helvetica,sans-Serif" font-size="10.00">headerData()</text>
<text text-anchor="start" x="4" y="-172" font-family="Helvetica,sans-Serif" font-size="10.00">+</text>
<text text-anchor="start" x="17" y="-172" font-family="Helvetica,sans-Serif" font-size="10.00">module()</text>
<text text-anchor="start" x="17" y="-157" font-family="Helvetica,sans-Serif" font-size="10.00">and 9 more...</text>
<text text-anchor="start" x="4" y="-142" font-family="Helvetica,sans-Serif" font-size="10.00">+</text>
<text text-anchor="start" x="17" y="-142" font-family="Helvetica,sans-Serif" font-size="10.00">newInstance()</text>
<text text-anchor="start" x="4" y="-127" font-family="Helvetica,sans-Serif" font-size="10.00">#</text>
<text text-anchor="start" x="17" y="-127" font-family="Helvetica,sans-Serif" font-size="10.00">moduleHidden()</text>
<text text-anchor="start" x="4" y="-112" font-family="Helvetica,sans-Serif" font-size="10.00">#</text>
<text text-anchor="start" x="17" y="-112" font-family="Helvetica,sans-Serif" font-size="10.00">moduleIndexed()</text>
<text text-anchor="start" x="4" y="-97" font-family="Helvetica,sans-Serif" font-size="10.00">#</text>
<text text-anchor="start" x="17" y="-97" font-family="Helvetica,sans-Serif" font-size="10.00">moduleUnlocked()</text>
<text text-anchor="start" x="6.5" y="-82" font-family="Helvetica,sans-Serif" font-size="10.00">&#45;</text>
<text text-anchor="start" x="17" y="-82" font-family="Helvetica,sans-Serif" font-size="10.00">moduleDataChanged()</text>
<polygon fill="#666666" stroke="#666666" points="0,-332 0,-332 132,-332 132,-332 0,-332"/>
<polygon fill="#666666" stroke="#666666" points="0,-317 0,-317 15,-317 15,-317 0,-317"/>
<polygon fill="#666666" stroke="#666666" points="15,-317 15,-317 132,-317 132,-317 15,-317"/>
<polygon fill="none" stroke="#666666" points="0,-75 0,-349 132,-349 132,-75 0,-75"/>
</a>
</g>
</g>
<!-- Node1&#45;&gt;Node2 -->
<g id="edge1_Node000001_Node000002" class="edge">
<title>Node1&#45;&gt;Node2</title>
<g id="a_edge1_Node000001_Node000002"><a xlink:title=" ">
<path fill="none" stroke="#63b8ff" d="M129.96,-449.99C122.99,-424.17 112.86,-386.63 102.71,-349.01"/>
<polygon fill="none" stroke="#63b8ff" points="126.66,-451.23 132.65,-459.97 133.42,-449.4 126.66,-451.23"/>
</a>
</g>
</g>
<!-- Node3 -->
<g id="Node000003" class="node">
<title>Node3</title>
<g id="a_Node000003"><a xlink:href="../../d6/d68/classBtModuleTextModel.html" target="_top" xlink:title="Model that represents the entire text of a given module.">
<polygon fill="white" stroke="transparent" points="276,-424 150,-424 150,0 276,0 276,-424"/>
<text text-anchor="start" x="164.5" y="-412" font-family="Helvetica,sans-Serif" font-size="10.00">BtModuleTextModel</text>
<text text-anchor="start" x="156.5" y="-397" font-family="Helvetica,sans-Serif" font-size="10.00">&#45;</text>
<text text-anchor="start" x="167" y="-397" font-family="Helvetica,sans-Serif" font-size="10.00">m_displayRendering</text>
<text text-anchor="start" x="156.5" y="-382" font-family="Helvetica,sans-Serif" font-size="10.00">&#45;</text>
<text text-anchor="start" x="167" y="-382" font-family="Helvetica,sans-Serif" font-size="10.00">m_findState</text>
<text text-anchor="start" x="156.5" y="-367" font-family="Helvetica,sans-Serif" font-size="10.00">&#45;</text>
<text text-anchor="start" x="167" y="-367" font-family="Helvetica,sans-Serif" font-size="10.00">m_firstEntry</text>
<text text-anchor="start" x="156.5" y="-352" font-family="Helvetica,sans-Serif" font-size="10.00">&#45;</text>
<text text-anchor="start" x="167" y="-352" font-family="Helvetica,sans-Serif" font-size="10.00">m_highlightWords</text>
<text text-anchor="start" x="156.5" y="-337" font-family="Helvetica,sans-Serif" font-size="10.00">&#45;</text>
<text text-anchor="start" x="167" y="-337" font-family="Helvetica,sans-Serif" font-size="10.00">m_maxEntries</text>
<text text-anchor="start" x="156.5" y="-322" font-family="Helvetica,sans-Serif" font-size="10.00">&#45;</text>
<text text-anchor="start" x="167" y="-322" font-family="Helvetica,sans-Serif" font-size="10.00">m_moduleInfoList</text>
<text text-anchor="start" x="156.5" y="-307" font-family="Helvetica,sans-Serif" font-size="10.00">&#45;</text>
<text text-anchor="start" x="167" y="-307" font-family="Helvetica,sans-Serif" font-size="10.00">m_modules</text>
<text text-anchor="start" x="154" y="-292" font-family="Helvetica,sans-Serif" font-size="10.00">+</text>
<text text-anchor="start" x="167" y="-292" font-family="Helvetica,sans-Serif" font-size="10.00">BtModuleTextModel()</text>
<text text-anchor="start" x="154" y="-277" font-family="Helvetica,sans-Serif" font-size="10.00">+</text>
<text text-anchor="start" x="167" y="-277" font-family="Helvetica,sans-Serif" font-size="10.00">columnCount()</text>
<text text-anchor="start" x="154" y="-262" font-family="Helvetica,sans-Serif" font-size="10.00">+</text>
<text text-anchor="start" x="167" y="-262" font-family="Helvetica,sans-Serif" font-size="10.00">data()</text>
<text text-anchor="start" x="154" y="-247" font-family="Helvetica,sans-Serif" font-size="10.00">+</text>
<text text-anchor="start" x="167" y="-247" font-family="Helvetica,sans-Serif" font-size="10.00">firstEntryIndex()</text>
<text text-anchor="start" x="154" y="-232" font-family="Helvetica,sans-Serif" font-size="10.00">+</text>
<text text-anchor="start" x="167" y="-232" font-family="Helvetica,sans-Serif" font-size="10.00">indexToKey()</text>
<text text-anchor="start" x="154" y="-217" font-family="Helvetica,sans-Serif" font-size="10.00">+</text>
<text text-anchor="start" x="167" y="-217" font-family="Helvetica,sans-Serif" font-size="10.00">indexToKeyName()</text>
<text text-anchor="start" x="154" y="-202" font-family="Helvetica,sans-Serif" font-size="10.00">+</text>
<text text-anchor="start" x="167" y="-202" font-family="Helvetica,sans-Serif" font-size="10.00">indexToVerse()</text>
<text text-anchor="start" x="154" y="-187" font-family="Helvetica,sans-Serif" font-size="10.00">+</text>
<text text-anchor="start" x="167" y="-187" font-family="Helvetica,sans-Serif" font-size="10.00">indexToVerseKey()</text>
<text text-anchor="start" x="154" y="-172" font-family="Helvetica,sans-Serif" font-size="10.00">+</text>
<text text-anchor="start" x="167" y="-172" font-family="Helvetica,sans-Serif" font-size="10.00">indexToVerseKey()</text>
<text text-anchor="start" x="154" y="-157" font-family="Helvetica,sans-Serif" font-size="10.00">+</text>
<text text-anchor="start" x="167" y="-157" font-family="Helvetica,sans-Serif" font-size="10.00">keyToIndex()</text>
<text text-anchor="start" x="167" y="-142" font-family="Helvetica,sans-Serif" font-size="10.00">and 9 more...</text>
<text text-anchor="start" x="156.5" y="-127" font-family="Helvetica,sans-Serif" font-size="10.00">&#45;</text>
<text text-anchor="start" x="167" y="-127" font-family="Helvetica,sans-Serif" font-size="10.00">bookData()</text>
<text text-anchor="start" x="156.5" y="-112" font-family="Helvetica,sans-Serif" font-size="10.00">&#45;</text>
<text text-anchor="start" x="167" y="-112" font-family="Helvetica,sans-Serif" font-size="10.00">indexToBookKey()</text>
<text text-anchor="start" x="156.5" y="-97" font-family="Helvetica,sans-Serif" font-size="10.00">&#45;</text>
<text text-anchor="start" x="167" y="-97" font-family="Helvetica,sans-Serif" font-size="10.00">isBible()</text>
<text text-anchor="start" x="156.5" y="-82" font-family="Helvetica,sans-Serif" font-size="10.00">&#45;</text>
<text text-anchor="start" x="167" y="-82" font-family="Helvetica,sans-Serif" font-size="10.00">isBook()</text>
<text text-anchor="start" x="156.5" y="-67" font-family="Helvetica,sans-Serif" font-size="10.00">&#45;</text>
<text text-anchor="start" x="167" y="-67" font-family="Helvetica,sans-Serif" font-size="10.00">isCommentary()</text>
<text text-anchor="start" x="156.5" y="-52" font-family="Helvetica,sans-Serif" font-size="10.00">&#45;</text>
<text text-anchor="start" x="167" y="-52" font-family="Helvetica,sans-Serif" font-size="10.00">isLexicon()</text>
<text text-anchor="start" x="156.5" y="-37" font-family="Helvetica,sans-Serif" font-size="10.00">&#45;</text>
<text text-anchor="start" x="167" y="-37" font-family="Helvetica,sans-Serif" font-size="10.00">isSelected()</text>
<text text-anchor="start" x="156.5" y="-22" font-family="Helvetica,sans-Serif" font-size="10.00">&#45;</text>
<text text-anchor="start" x="167" y="-22" font-family="Helvetica,sans-Serif" font-size="10.00">lexiconData()</text>
<text text-anchor="start" x="156.5" y="-7" font-family="Helvetica,sans-Serif" font-size="10.00">&#45;</text>
<text text-anchor="start" x="167" y="-7" font-family="Helvetica,sans-Serif" font-size="10.00">verseData()</text>
<polygon fill="#666666" stroke="#666666" points="150,-407 150,-407 276,-407 276,-407 150,-407"/>
<polygon fill="#666666" stroke="#666666" points="150,-302 150,-302 165,-302 165,-302 150,-302"/>
<polygon fill="#666666" stroke="#666666" points="165,-302 165,-302 276,-302 276,-302 165,-302"/>
<polygon fill="none" stroke="#666666" points="150,0 150,-424 276,-424 276,0 150,0"/>
</a>
</g>
</g>
<!-- Node1&#45;&gt;Node3 -->
<g id="edge2_Node000001_Node000003" class="edge">
<title>Node1&#45;&gt;Node3</title>
<g id="a_edge2_Node000001_Node000003"><a xlink:title=" ">
<path fill="none" stroke="#63b8ff" d="M148.14,-450.09C150.26,-442.35 152.66,-433.55 155.28,-424.01"/>
<polygon fill="none" stroke="#63b8ff" points="144.7,-449.4 145.44,-459.97 151.45,-451.25 144.7,-449.4"/>
</a>
</g>
</g>
</g>
</svg>
