<?xml version="1.0" encoding="UTF-8" standalone="no"?>
<!DOCTYPE svg PUBLIC "-//W3C//DTD SVG 1.1//EN"
 "http://www.w3.org/Graphics/SVG/1.1/DTD/svg11.dtd">
<!-- Generated by graphviz version 2.43.0 (0)
 -->
<!-- Title: QWizardPage Pages: 1 -->
<svg width="1285pt" height="815pt"
 viewBox="0.00 0.00 1285.00 815.00" xmlns="http://www.w3.org/2000/svg" xmlns:xlink="http://www.w3.org/1999/xlink">
<g id="graph0" class="graph" transform="scale(1 1) rotate(0) translate(4 811)">
<title>QWizardPage</title>
<polygon fill="white" stroke="transparent" points="-4,4 -4,-811 1281,-811 1281,4 -4,4"/>
<!-- Node1 -->
<g id="node1" class="node">
<title>Node1</title>
<g id="a_node1"><a xlink:title=" ">
<polygon fill="#bfbfbf" stroke="black" points="796,-749.5 796,-806.5 877,-806.5 877,-749.5 796,-749.5"/>
<text text-anchor="middle" x="836.5" y="-794.5" font-family="Helvetica,sans-Serif" font-size="10.00">QWizardPage</text>
<polyline fill="none" stroke="black" points="796,-787.5 877,-787.5 "/>
<text text-anchor="middle" x="836.5" y="-775.5" font-family="Helvetica,sans-Serif" font-size="10.00"> </text>
<polyline fill="none" stroke="black" points="796,-768.5 877,-768.5 "/>
<text text-anchor="middle" x="836.5" y="-756.5" font-family="Helvetica,sans-Serif" font-size="10.00"> </text>
</a>
</g>
</g>
<!-- Node2 -->
<g id="node2" class="node">
<title>Node2</title>
<g id="a_node2"><a xlink:href="../../da/dee/classBtBookshelfWizardPage.html" target="_top" xlink:title=" ">
<polygon fill="white" stroke="black" points="579.5,-490.5 579.5,-558.5 731.5,-558.5 731.5,-490.5 579.5,-490.5"/>
<text text-anchor="middle" x="655.5" y="-546.5" font-family="Helvetica,sans-Serif" font-size="10.00">BtBookshelfWizardPage</text>
<polyline fill="none" stroke="black" points="579.5,-539.5 731.5,-539.5 "/>
<text text-anchor="middle" x="655.5" y="-527.5" font-family="Helvetica,sans-Serif" font-size="10.00"> </text>
<polyline fill="none" stroke="black" points="579.5,-520.5 731.5,-520.5 "/>
<text text-anchor="start" x="587.5" y="-508.5" font-family="Helvetica,sans-Serif" font-size="10.00">+ BtBookshelfWizardPage()</text>
<text text-anchor="start" x="587.5" y="-497.5" font-family="Helvetica,sans-Serif" font-size="10.00">+ btWizard()</text>
</a>
</g>
</g>
<!-- Node1&#45;&gt;Node2 -->
<g id="edge1" class="edge">
<title>Node1&#45;&gt;Node2</title>
<path fill="none" stroke="midnightblue" d="M786.96,-750.89C770.95,-740.68 754.1,-727.84 741.5,-713 701.98,-666.46 676.95,-598.74 664.65,-558.7"/>
<polygon fill="none" stroke="midnightblue" points="785.38,-754.03 795.74,-756.29 789.05,-748.07 785.38,-754.03"/>
</g>
<!-- Node10 -->
<g id="node10" class="node">
<title>Node10</title>
<g id="a_node10"><a xlink:href="../../d9/d76/classBtEditTextPage.html" target="_top" xlink:title=" ">
<polygon fill="white" stroke="black" points="750,-336.5 750,-712.5 923,-712.5 923,-336.5 750,-336.5"/>
<text text-anchor="middle" x="836.5" y="-700.5" font-family="Helvetica,sans-Serif" font-size="10.00">BtEditTextPage</text>
<polyline fill="none" stroke="black" points="750,-693.5 923,-693.5 "/>
<text text-anchor="start" x="758" y="-681.5" font-family="Helvetica,sans-Serif" font-size="10.00">+ alignCenter</text>
<text text-anchor="start" x="758" y="-670.5" font-family="Helvetica,sans-Serif" font-size="10.00">+ alignLeft</text>
<text text-anchor="start" x="758" y="-659.5" font-family="Helvetica,sans-Serif" font-size="10.00">+ alignRight</text>
<text text-anchor="start" x="758" y="-648.5" font-family="Helvetica,sans-Serif" font-size="10.00">+ bold</text>
<text text-anchor="start" x="758" y="-637.5" font-family="Helvetica,sans-Serif" font-size="10.00">+ italic</text>
<text text-anchor="start" x="758" y="-626.5" font-family="Helvetica,sans-Serif" font-size="10.00">+ underline</text>
<text text-anchor="start" x="758" y="-615.5" font-family="Helvetica,sans-Serif" font-size="10.00">&#45; m_actions</text>
<text text-anchor="start" x="758" y="-604.5" font-family="Helvetica,sans-Serif" font-size="10.00">&#45; m_fontColorChooser</text>
<text text-anchor="start" x="758" y="-593.5" font-family="Helvetica,sans-Serif" font-size="10.00">&#45; m_fontFamilyComboBox</text>
<text text-anchor="start" x="758" y="-582.5" font-family="Helvetica,sans-Serif" font-size="10.00">&#45; m_fontSizeWidget</text>
<text text-anchor="start" x="758" y="-571.5" font-family="Helvetica,sans-Serif" font-size="10.00">&#45; m_handingFormatChangeFrom</text>
<text text-anchor="start" x="758" y="-560.5" font-family="Helvetica,sans-Serif" font-size="10.00">Editor</text>
<text text-anchor="start" x="758" y="-549.5" font-family="Helvetica,sans-Serif" font-size="10.00">&#45; m_htmlTextEdit</text>
<text text-anchor="start" x="758" y="-538.5" font-family="Helvetica,sans-Serif" font-size="10.00">&#45; m_plainTextEdit</text>
<text text-anchor="start" x="758" y="-527.5" font-family="Helvetica,sans-Serif" font-size="10.00">&#45; m_plainTextFont</text>
<text text-anchor="start" x="758" y="-516.5" font-family="Helvetica,sans-Serif" font-size="10.00">&#45; m_text</text>
<text text-anchor="start" x="758" y="-505.5" font-family="Helvetica,sans-Serif" font-size="10.00">&#45; m_toolBar</text>
<text text-anchor="start" x="758" y="-494.5" font-family="Helvetica,sans-Serif" font-size="10.00">&#45; m_wizard</text>
<polyline fill="none" stroke="black" points="750,-487.5 923,-487.5 "/>
<text text-anchor="start" x="758" y="-475.5" font-family="Helvetica,sans-Serif" font-size="10.00">+ BtEditTextPage()</text>
<text text-anchor="start" x="758" y="-464.5" font-family="Helvetica,sans-Serif" font-size="10.00">+ cleanupPage()</text>
<text text-anchor="start" x="758" y="-453.5" font-family="Helvetica,sans-Serif" font-size="10.00">+ initializePage()</text>
<text text-anchor="start" x="758" y="-442.5" font-family="Helvetica,sans-Serif" font-size="10.00">+ setFont()</text>
<text text-anchor="start" x="758" y="-431.5" font-family="Helvetica,sans-Serif" font-size="10.00">+ setText()</text>
<text text-anchor="start" x="758" y="-420.5" font-family="Helvetica,sans-Serif" font-size="10.00">+ setTitle()</text>
<text text-anchor="start" x="758" y="-409.5" font-family="Helvetica,sans-Serif" font-size="10.00">+ text()</text>
<text text-anchor="start" x="758" y="-398.5" font-family="Helvetica,sans-Serif" font-size="10.00">+ validatePage()</text>
<text text-anchor="start" x="758" y="-387.5" font-family="Helvetica,sans-Serif" font-size="10.00">&#45; alignmentChanged()</text>
<text text-anchor="start" x="758" y="-376.5" font-family="Helvetica,sans-Serif" font-size="10.00">&#45; initActions()</text>
<text text-anchor="start" x="758" y="-365.5" font-family="Helvetica,sans-Serif" font-size="10.00">&#45; initHtmlFont()</text>
<text text-anchor="start" x="758" y="-354.5" font-family="Helvetica,sans-Serif" font-size="10.00">&#45; retranslateUi()</text>
<text text-anchor="start" x="758" y="-343.5" font-family="Helvetica,sans-Serif" font-size="10.00">&#45; setupToolBar()</text>
</a>
</g>
</g>
<!-- Node1&#45;&gt;Node10 -->
<g id="edge9" class="edge">
<title>Node1&#45;&gt;Node10</title>
<path fill="none" stroke="midnightblue" d="M836.5,-738.9C836.5,-730.96 836.5,-722.09 836.5,-712.6"/>
<polygon fill="none" stroke="midnightblue" points="833,-739.12 836.5,-749.12 840,-739.12 833,-739.12"/>
</g>
<!-- Node11 -->
<g id="node11" class="node">
<title>Node11</title>
<g id="a_node11"><a xlink:href="../../d5/dcc/classBtPlainOrHtmlPage.html" target="_top" xlink:title=" ">
<polygon fill="white" stroke="black" points="941,-463 941,-586 1084,-586 1084,-463 941,-463"/>
<text text-anchor="middle" x="1012.5" y="-574" font-family="Helvetica,sans-Serif" font-size="10.00">BtPlainOrHtmlPage</text>
<polyline fill="none" stroke="black" points="941,-567 1084,-567 "/>
<text text-anchor="start" x="949" y="-555" font-family="Helvetica,sans-Serif" font-size="10.00">&#45; m_groupBox</text>
<text text-anchor="start" x="949" y="-544" font-family="Helvetica,sans-Serif" font-size="10.00">&#45; m_htmlRadioButton</text>
<text text-anchor="start" x="949" y="-533" font-family="Helvetica,sans-Serif" font-size="10.00">&#45; m_plainTextRadioButton</text>
<text text-anchor="start" x="949" y="-522" font-family="Helvetica,sans-Serif" font-size="10.00">&#45; m_verticalLayout</text>
<polyline fill="none" stroke="black" points="941,-515 1084,-515 "/>
<text text-anchor="start" x="949" y="-503" font-family="Helvetica,sans-Serif" font-size="10.00">+ BtPlainOrHtmlPage()</text>
<text text-anchor="start" x="949" y="-492" font-family="Helvetica,sans-Serif" font-size="10.00">+ htmlMode()</text>
<text text-anchor="start" x="949" y="-481" font-family="Helvetica,sans-Serif" font-size="10.00">+ setHtmlMode()</text>
<text text-anchor="start" x="949" y="-470" font-family="Helvetica,sans-Serif" font-size="10.00">&#45; retranslateUi()</text>
</a>
</g>
</g>
<!-- Node1&#45;&gt;Node11 -->
<g id="edge10" class="edge">
<title>Node1&#45;&gt;Node11</title>
<path fill="none" stroke="midnightblue" d="M886.38,-751.44C902.7,-741.21 919.87,-728.21 932.5,-713 963.25,-675.97 983.91,-625.37 996.52,-586.06"/>
<polygon fill="none" stroke="midnightblue" points="884.19,-748.67 877.43,-756.83 887.8,-754.67 884.19,-748.67"/>
</g>
<!-- Node3 -->
<g id="node3" class="node">
<title>Node3</title>
<g id="a_node3"><a xlink:href="../../de/d0a/classBtBookshelfInstallFinalPage.html" target="_top" xlink:title=" ">
<polygon fill="white" stroke="black" points="0,-0.5 0,-299.5 171,-299.5 171,-0.5 0,-0.5"/>
<text text-anchor="middle" x="85.5" y="-287.5" font-family="Helvetica,sans-Serif" font-size="10.00">BtBookshelfInstallFinalPage</text>
<polyline fill="none" stroke="black" points="0,-280.5 171,-280.5 "/>
<text text-anchor="start" x="8" y="-268.5" font-family="Helvetica,sans-Serif" font-size="10.00">&#45; m_installCompleted</text>
<text text-anchor="start" x="8" y="-257.5" font-family="Helvetica,sans-Serif" font-size="10.00">&#45; m_installFailed</text>
<text text-anchor="start" x="8" y="-246.5" font-family="Helvetica,sans-Serif" font-size="10.00">&#45; m_lastStatus</text>
<text text-anchor="start" x="8" y="-235.5" font-family="Helvetica,sans-Serif" font-size="10.00">&#45; m_modules</text>
<text text-anchor="start" x="8" y="-224.5" font-family="Helvetica,sans-Serif" font-size="10.00">&#45; m_msgLabel</text>
<text text-anchor="start" x="8" y="-213.5" font-family="Helvetica,sans-Serif" font-size="10.00">&#45; m_msgLabel2</text>
<text text-anchor="start" x="8" y="-202.5" font-family="Helvetica,sans-Serif" font-size="10.00">&#45; m_progressBar</text>
<text text-anchor="start" x="8" y="-191.5" font-family="Helvetica,sans-Serif" font-size="10.00">&#45; m_stopButton</text>
<text text-anchor="start" x="8" y="-180.5" font-family="Helvetica,sans-Serif" font-size="10.00">&#45; m_thread</text>
<text text-anchor="start" x="8" y="-169.5" font-family="Helvetica,sans-Serif" font-size="10.00">&#45; m_verticalLayout</text>
<polyline fill="none" stroke="black" points="0,-162.5 171,-162.5 "/>
<text text-anchor="start" x="8" y="-150.5" font-family="Helvetica,sans-Serif" font-size="10.00">+ BtBookshelfInstallFinalPage()</text>
<text text-anchor="start" x="8" y="-139.5" font-family="Helvetica,sans-Serif" font-size="10.00">+ destroyThread()</text>
<text text-anchor="start" x="8" y="-128.5" font-family="Helvetica,sans-Serif" font-size="10.00">+ initializePage()</text>
<text text-anchor="start" x="8" y="-117.5" font-family="Helvetica,sans-Serif" font-size="10.00">+ isComplete()</text>
<text text-anchor="start" x="8" y="-106.5" font-family="Helvetica,sans-Serif" font-size="10.00">+ nextId()</text>
<text text-anchor="start" x="8" y="-95.5" font-family="Helvetica,sans-Serif" font-size="10.00">+ selectedWorks()</text>
<text text-anchor="start" x="8" y="-84.5" font-family="Helvetica,sans-Serif" font-size="10.00">+ ~BtBookshelfInstallFinal</text>
<text text-anchor="start" x="8" y="-73.5" font-family="Helvetica,sans-Serif" font-size="10.00">Page()</text>
<text text-anchor="start" x="8" y="-62.5" font-family="Helvetica,sans-Serif" font-size="10.00">+ slotStopInstall()</text>
<text text-anchor="start" x="8" y="-51.5" font-family="Helvetica,sans-Serif" font-size="10.00">&#45; retranslateUi()</text>
<text text-anchor="start" x="8" y="-40.5" font-family="Helvetica,sans-Serif" font-size="10.00">&#45; slotInstallStarted()</text>
<text text-anchor="start" x="8" y="-29.5" font-family="Helvetica,sans-Serif" font-size="10.00">&#45; slotOneItemCompleted()</text>
<text text-anchor="start" x="8" y="-18.5" font-family="Helvetica,sans-Serif" font-size="10.00">&#45; slotStatusUpdated()</text>
<text text-anchor="start" x="8" y="-7.5" font-family="Helvetica,sans-Serif" font-size="10.00">&#45; slotThreadFinished()</text>
</a>
</g>
</g>
<!-- Node2&#45;&gt;Node3 -->
<g id="edge2" class="edge">
<title>Node2&#45;&gt;Node3</title>
<path fill="none" stroke="midnightblue" d="M569.68,-499.3C467.67,-467.14 296.67,-402.2 180.5,-300 177.28,-297.16 174.12,-294.19 171.03,-291.11"/>
<polygon fill="none" stroke="midnightblue" points="568.74,-502.67 579.33,-502.31 570.82,-495.99 568.74,-502.67"/>
</g>
<!-- Node4 -->
<g id="node4" class="node">
<title>Node4</title>
<g id="a_node4"><a xlink:href="../../d8/d7f/classBtBookshelfLanguagesPage.html" target="_top" xlink:title=" ">
<polygon fill="white" stroke="black" points="189.5,-61 189.5,-239 359.5,-239 359.5,-61 189.5,-61"/>
<text text-anchor="middle" x="274.5" y="-227" font-family="Helvetica,sans-Serif" font-size="10.00">BtBookshelfLanguagesPage</text>
<polyline fill="none" stroke="black" points="189.5,-220 359.5,-220 "/>
<text text-anchor="start" x="197.5" y="-208" font-family="Helvetica,sans-Serif" font-size="10.00">&#45; m_firstTimeInit</text>
<text text-anchor="start" x="197.5" y="-197" font-family="Helvetica,sans-Serif" font-size="10.00">&#45; m_languagesListView</text>
<text text-anchor="start" x="197.5" y="-186" font-family="Helvetica,sans-Serif" font-size="10.00">&#45; m_model</text>
<text text-anchor="start" x="197.5" y="-175" font-family="Helvetica,sans-Serif" font-size="10.00">&#45; m_verticalLayout</text>
<polyline fill="none" stroke="black" points="189.5,-168 359.5,-168 "/>
<text text-anchor="start" x="197.5" y="-156" font-family="Helvetica,sans-Serif" font-size="10.00">+ BtBookshelfLanguagesPage()</text>
<text text-anchor="start" x="197.5" y="-145" font-family="Helvetica,sans-Serif" font-size="10.00">+ initializeLanguages()</text>
<text text-anchor="start" x="197.5" y="-134" font-family="Helvetica,sans-Serif" font-size="10.00">+ initializePage()</text>
<text text-anchor="start" x="197.5" y="-123" font-family="Helvetica,sans-Serif" font-size="10.00">+ isComplete()</text>
<text text-anchor="start" x="197.5" y="-112" font-family="Helvetica,sans-Serif" font-size="10.00">+ nextId()</text>
<text text-anchor="start" x="197.5" y="-101" font-family="Helvetica,sans-Serif" font-size="10.00">+ selectedLanguages()</text>
<text text-anchor="start" x="197.5" y="-90" font-family="Helvetica,sans-Serif" font-size="10.00">+ skipPage()</text>
<text text-anchor="start" x="197.5" y="-79" font-family="Helvetica,sans-Serif" font-size="10.00">&#45; retranslateUi()</text>
<text text-anchor="start" x="197.5" y="-68" font-family="Helvetica,sans-Serif" font-size="10.00">&#45; slotDataChanged()</text>
</a>
</g>
</g>
<!-- Node2&#45;&gt;Node4 -->
<g id="edge3" class="edge">
<title>Node2&#45;&gt;Node4</title>
<path fill="none" stroke="midnightblue" d="M594.11,-484.91C532.31,-444.07 436.63,-375.22 368.5,-300 351.97,-281.75 336.54,-260.25 323.16,-239.34"/>
<polygon fill="none" stroke="midnightblue" points="592.32,-487.92 602.6,-490.48 596.16,-482.07 592.32,-487.92"/>
</g>
<!-- Node5 -->
<g id="node5" class="node">
<title>Node5</title>
<g id="a_node5"><a xlink:href="../../d0/dfd/classBtBookshelfRemoveFinalPage.html" target="_top" xlink:title=" ">
<polygon fill="white" stroke="black" points="377.5,-94 377.5,-206 559.5,-206 559.5,-94 377.5,-94"/>
<text text-anchor="middle" x="468.5" y="-194" font-family="Helvetica,sans-Serif" font-size="10.00">BtBookshelfRemoveFinalPage</text>
<polyline fill="none" stroke="black" points="377.5,-187 559.5,-187 "/>
<text text-anchor="start" x="385.5" y="-175" font-family="Helvetica,sans-Serif" font-size="10.00">&#45; m_msgLabel</text>
<text text-anchor="start" x="385.5" y="-164" font-family="Helvetica,sans-Serif" font-size="10.00">&#45; m_verticalLayout</text>
<polyline fill="none" stroke="black" points="377.5,-157 559.5,-157 "/>
<text text-anchor="start" x="385.5" y="-145" font-family="Helvetica,sans-Serif" font-size="10.00">+ BtBookshelfRemoveFinalPage()</text>
<text text-anchor="start" x="385.5" y="-134" font-family="Helvetica,sans-Serif" font-size="10.00">+ initializePage()</text>
<text text-anchor="start" x="385.5" y="-123" font-family="Helvetica,sans-Serif" font-size="10.00">+ isComplete()</text>
<text text-anchor="start" x="385.5" y="-112" font-family="Helvetica,sans-Serif" font-size="10.00">+ nextId()</text>
<text text-anchor="start" x="385.5" y="-101" font-family="Helvetica,sans-Serif" font-size="10.00">&#45; retranslateUi()</text>
</a>
</g>
</g>
<!-- Node2&#45;&gt;Node5 -->
<g id="edge4" class="edge">
<title>Node2&#45;&gt;Node5</title>
<path fill="none" stroke="midnightblue" d="M634.34,-481.35C600.4,-413.73 533.78,-281.04 496.13,-206.04"/>
<polygon fill="none" stroke="midnightblue" points="631.29,-483.08 638.9,-490.44 637.55,-479.94 631.29,-483.08"/>
</g>
<!-- Node6 -->
<g id="node6" class="node">
<title>Node6</title>
<g id="a_node6"><a xlink:href="../../d2/de4/classBtBookshelfSourcesPage.html" target="_top" xlink:title=" ">
<polygon fill="white" stroke="black" points="577.5,-61 577.5,-239 733.5,-239 733.5,-61 577.5,-61"/>
<text text-anchor="middle" x="655.5" y="-227" font-family="Helvetica,sans-Serif" font-size="10.00">BtBookshelfSourcesPage</text>
<polyline fill="none" stroke="black" points="577.5,-220 733.5,-220 "/>
<text text-anchor="start" x="585.5" y="-208" font-family="Helvetica,sans-Serif" font-size="10.00">&#45; m_firstTimeInit</text>
<text text-anchor="start" x="585.5" y="-197" font-family="Helvetica,sans-Serif" font-size="10.00">&#45; m_model</text>
<text text-anchor="start" x="585.5" y="-186" font-family="Helvetica,sans-Serif" font-size="10.00">&#45; m_sourcesTableView</text>
<text text-anchor="start" x="585.5" y="-175" font-family="Helvetica,sans-Serif" font-size="10.00">&#45; m_verticalLayout</text>
<polyline fill="none" stroke="black" points="577.5,-168 733.5,-168 "/>
<text text-anchor="start" x="585.5" y="-156" font-family="Helvetica,sans-Serif" font-size="10.00">+ BtBookshelfSourcesPage()</text>
<text text-anchor="start" x="585.5" y="-145" font-family="Helvetica,sans-Serif" font-size="10.00">+ initializePage()</text>
<text text-anchor="start" x="585.5" y="-134" font-family="Helvetica,sans-Serif" font-size="10.00">+ isComplete()</text>
<text text-anchor="start" x="585.5" y="-123" font-family="Helvetica,sans-Serif" font-size="10.00">+ nextId()</text>
<text text-anchor="start" x="585.5" y="-112" font-family="Helvetica,sans-Serif" font-size="10.00">+ selectedSources()</text>
<text text-anchor="start" x="585.5" y="-101" font-family="Helvetica,sans-Serif" font-size="10.00">&#45; retranslateUi()</text>
<text text-anchor="start" x="585.5" y="-90" font-family="Helvetica,sans-Serif" font-size="10.00">&#45; selectSourcesInModel()</text>
<text text-anchor="start" x="585.5" y="-79" font-family="Helvetica,sans-Serif" font-size="10.00">&#45; updateSourcesModel()</text>
<text text-anchor="start" x="585.5" y="-68" font-family="Helvetica,sans-Serif" font-size="10.00">&#45; slotButtonClicked()</text>
</a>
</g>
</g>
<!-- Node2&#45;&gt;Node6 -->
<g id="edge5" class="edge">
<title>Node2&#45;&gt;Node6</title>
<path fill="none" stroke="midnightblue" d="M655.5,-480.41C655.5,-421.74 655.5,-315.33 655.5,-239.33"/>
<polygon fill="none" stroke="midnightblue" points="652,-480.44 655.5,-490.44 659,-480.44 652,-480.44"/>
</g>
<!-- Node7 -->
<g id="node7" class="node">
<title>Node7</title>
<g id="a_node7"><a xlink:href="../../df/dcc/classBtBookshelfSourcesProgressPage.html" target="_top" xlink:title=" ">
<polygon fill="white" stroke="black" points="752,-44.5 752,-255.5 931,-255.5 931,-44.5 752,-44.5"/>
<text text-anchor="middle" x="841.5" y="-243.5" font-family="Helvetica,sans-Serif" font-size="10.00">BtBookshelfSourcesProgressPage</text>
<polyline fill="none" stroke="black" points="752,-236.5 931,-236.5 "/>
<text text-anchor="start" x="760" y="-224.5" font-family="Helvetica,sans-Serif" font-size="10.00">&#45; m_installCompleted</text>
<text text-anchor="start" x="760" y="-213.5" font-family="Helvetica,sans-Serif" font-size="10.00">&#45; m_msgLabel</text>
<text text-anchor="start" x="760" y="-202.5" font-family="Helvetica,sans-Serif" font-size="10.00">&#45; m_progressBar</text>
<text text-anchor="start" x="760" y="-191.5" font-family="Helvetica,sans-Serif" font-size="10.00">&#45; m_stopButton</text>
<text text-anchor="start" x="760" y="-180.5" font-family="Helvetica,sans-Serif" font-size="10.00">&#45; m_thread</text>
<polyline fill="none" stroke="black" points="752,-173.5 931,-173.5 "/>
<text text-anchor="start" x="760" y="-161.5" font-family="Helvetica,sans-Serif" font-size="10.00">+ BtBookshelfSourcesProgress</text>
<text text-anchor="start" x="760" y="-150.5" font-family="Helvetica,sans-Serif" font-size="10.00">Page()</text>
<text text-anchor="start" x="760" y="-139.5" font-family="Helvetica,sans-Serif" font-size="10.00">+ destroyThread()</text>
<text text-anchor="start" x="760" y="-128.5" font-family="Helvetica,sans-Serif" font-size="10.00">+ initializePage()</text>
<text text-anchor="start" x="760" y="-117.5" font-family="Helvetica,sans-Serif" font-size="10.00">+ isComplete()</text>
<text text-anchor="start" x="760" y="-106.5" font-family="Helvetica,sans-Serif" font-size="10.00">+ nextId()</text>
<text text-anchor="start" x="760" y="-95.5" font-family="Helvetica,sans-Serif" font-size="10.00">+ ~BtBookshelfSourcesProgress</text>
<text text-anchor="start" x="760" y="-84.5" font-family="Helvetica,sans-Serif" font-size="10.00">Page()</text>
<text text-anchor="start" x="760" y="-73.5" font-family="Helvetica,sans-Serif" font-size="10.00">+ slotStopInstall()</text>
<text text-anchor="start" x="760" y="-62.5" font-family="Helvetica,sans-Serif" font-size="10.00">&#45; retranslateUi()</text>
<text text-anchor="start" x="760" y="-51.5" font-family="Helvetica,sans-Serif" font-size="10.00">&#45; slotThreadFinished()</text>
</a>
</g>
</g>
<!-- Node2&#45;&gt;Node7 -->
<g id="edge6" class="edge">
<title>Node2&#45;&gt;Node7</title>
<path fill="none" stroke="midnightblue" d="M674.02,-481.05C690.93,-442.8 716.96,-385.19 741.5,-336 754.62,-309.7 769.38,-281.65 783.45,-255.55"/>
<polygon fill="none" stroke="midnightblue" points="670.76,-479.77 669.92,-490.34 677.16,-482.6 670.76,-479.77"/>
</g>
<!-- Node8 -->
<g id="node8" class="node">
<title>Node8</title>
<g id="a_node8"><a xlink:href="../../d3/d1b/classBtBookshelfTaskPage.html" target="_top" xlink:title=" ">
<polygon fill="white" stroke="black" points="949.5,-72 949.5,-228 1089.5,-228 1089.5,-72 949.5,-72"/>
<text text-anchor="middle" x="1019.5" y="-216" font-family="Helvetica,sans-Serif" font-size="10.00">BtBookshelfTaskPage</text>
<polyline fill="none" stroke="black" points="949.5,-209 1089.5,-209 "/>
<text text-anchor="start" x="957.5" y="-197" font-family="Helvetica,sans-Serif" font-size="10.00">&#45; m_groupBox</text>
<text text-anchor="start" x="957.5" y="-186" font-family="Helvetica,sans-Serif" font-size="10.00">&#45; m_installRadioButton</text>
<text text-anchor="start" x="957.5" y="-175" font-family="Helvetica,sans-Serif" font-size="10.00">&#45; m_removeRadioButton</text>
<text text-anchor="start" x="957.5" y="-164" font-family="Helvetica,sans-Serif" font-size="10.00">&#45; m_updateRadioButton</text>
<text text-anchor="start" x="957.5" y="-153" font-family="Helvetica,sans-Serif" font-size="10.00">&#45; m_verticalLayout</text>
<text text-anchor="start" x="957.5" y="-142" font-family="Helvetica,sans-Serif" font-size="10.00">&#45; m_warningLabel</text>
<polyline fill="none" stroke="black" points="949.5,-135 1089.5,-135 "/>
<text text-anchor="start" x="957.5" y="-123" font-family="Helvetica,sans-Serif" font-size="10.00">+ BtBookshelfTaskPage()</text>
<text text-anchor="start" x="957.5" y="-112" font-family="Helvetica,sans-Serif" font-size="10.00">+ nextId()</text>
<text text-anchor="start" x="957.5" y="-101" font-family="Helvetica,sans-Serif" font-size="10.00">+ taskType()</text>
<text text-anchor="start" x="957.5" y="-90" font-family="Helvetica,sans-Serif" font-size="10.00">&#45; retranslateUi()</text>
<text text-anchor="start" x="957.5" y="-79" font-family="Helvetica,sans-Serif" font-size="10.00">&#45; timeToUpdate()</text>
</a>
</g>
</g>
<!-- Node2&#45;&gt;Node8 -->
<g id="edge7" class="edge">
<title>Node2&#45;&gt;Node8</title>
<path fill="none" stroke="midnightblue" d="M663.31,-480.25C673.52,-436.84 695.79,-371.47 741.5,-336 812.51,-280.9 867.93,-353.03 940.5,-300 964.73,-282.29 982.22,-254.88 994.49,-228.37"/>
<polygon fill="none" stroke="midnightblue" points="659.85,-479.72 661.09,-490.24 666.68,-481.24 659.85,-479.72"/>
</g>
<!-- Node9 -->
<g id="node9" class="node">
<title>Node9</title>
<g id="a_node9"><a xlink:href="../../df/d7e/classBtBookshelfWorksPage.html" target="_top" xlink:title=" ">
<polygon fill="white" stroke="black" points="1108,-11.5 1108,-288.5 1277,-288.5 1277,-11.5 1108,-11.5"/>
<text text-anchor="middle" x="1192.5" y="-276.5" font-family="Helvetica,sans-Serif" font-size="10.00">BtBookshelfWorksPage</text>
<polyline fill="none" stroke="black" points="1108,-269.5 1277,-269.5 "/>
<text text-anchor="start" x="1116" y="-257.5" font-family="Helvetica,sans-Serif" font-size="10.00">&#45; m_bookshelfModel</text>
<text text-anchor="start" x="1116" y="-246.5" font-family="Helvetica,sans-Serif" font-size="10.00">&#45; m_bookshelfView</text>
<text text-anchor="start" x="1116" y="-235.5" font-family="Helvetica,sans-Serif" font-size="10.00">&#45; m_contextMenu</text>
<text text-anchor="start" x="1116" y="-224.5" font-family="Helvetica,sans-Serif" font-size="10.00">&#45; m_groupingButton</text>
<text text-anchor="start" x="1116" y="-213.5" font-family="Helvetica,sans-Serif" font-size="10.00">&#45; m_groupingLabel</text>
<text text-anchor="start" x="1116" y="-202.5" font-family="Helvetica,sans-Serif" font-size="10.00">&#45; m_groupingMenu</text>
<text text-anchor="start" x="1116" y="-191.5" font-family="Helvetica,sans-Serif" font-size="10.00">&#45; m_groupingOrder</text>
<text text-anchor="start" x="1116" y="-180.5" font-family="Helvetica,sans-Serif" font-size="10.00">&#45; m_installPageModel</text>
<text text-anchor="start" x="1116" y="-169.5" font-family="Helvetica,sans-Serif" font-size="10.00">&#45; m_itemContextMenu</text>
<text text-anchor="start" x="1116" y="-158.5" font-family="Helvetica,sans-Serif" font-size="10.00">&#45; m_msgLabel</text>
<text text-anchor="start" x="1116" y="-147.5" font-family="Helvetica,sans-Serif" font-size="10.00">and 6 more...</text>
<polyline fill="none" stroke="black" points="1108,-140.5 1277,-140.5 "/>
<text text-anchor="start" x="1116" y="-128.5" font-family="Helvetica,sans-Serif" font-size="10.00">+ BtBookshelfWorksPage()</text>
<text text-anchor="start" x="1116" y="-117.5" font-family="Helvetica,sans-Serif" font-size="10.00">+ checkedModules()</text>
<text text-anchor="start" x="1116" y="-106.5" font-family="Helvetica,sans-Serif" font-size="10.00">+ initializePage()</text>
<text text-anchor="start" x="1116" y="-95.5" font-family="Helvetica,sans-Serif" font-size="10.00">+ installPath()</text>
<text text-anchor="start" x="1116" y="-84.5" font-family="Helvetica,sans-Serif" font-size="10.00">+ isComplete()</text>
<text text-anchor="start" x="1116" y="-73.5" font-family="Helvetica,sans-Serif" font-size="10.00">+ nextId()</text>
<text text-anchor="start" x="1116" y="-62.5" font-family="Helvetica,sans-Serif" font-size="10.00">&#45; retranslateUi()</text>
<text text-anchor="start" x="1116" y="-51.5" font-family="Helvetica,sans-Serif" font-size="10.00">&#45; slotGroupingActionTriggered()</text>
<text text-anchor="start" x="1116" y="-40.5" font-family="Helvetica,sans-Serif" font-size="10.00">&#45; slotGroupingOrderChanged()</text>
<text text-anchor="start" x="1116" y="-29.5" font-family="Helvetica,sans-Serif" font-size="10.00">&#45; slotInitPathCombo()</text>
<text text-anchor="start" x="1116" y="-18.5" font-family="Helvetica,sans-Serif" font-size="10.00">&#45; slotPathChanged()</text>
</a>
</g>
</g>
<!-- Node2&#45;&gt;Node9 -->
<g id="edge8" class="edge">
<title>Node2&#45;&gt;Node9</title>
<path fill="none" stroke="midnightblue" d="M662.53,-480.54C672.18,-436.53 694.06,-369.91 741.5,-336 871.23,-243.26 962.9,-383.93 1098.5,-300 1103.96,-296.62 1109.16,-292.79 1114.1,-288.61"/>
<polygon fill="none" stroke="midnightblue" points="659.1,-479.88 660.5,-490.38 665.95,-481.3 659.1,-479.88"/>
</g>
</g>
</svg>
