<?xml version="1.0" encoding="UTF-8" standalone="no"?>
<!DOCTYPE svg PUBLIC "-//W3C//DTD SVG 1.1//EN"
 "http://www.w3.org/Graphics/SVG/1.1/DTD/svg11.dtd">
<!-- Generated by graphviz version 2.43.0 (0)
 -->
<!-- Title: QWizardPage Pages: 1 -->
<svg width="1247pt" height="984pt"
 viewBox="0.00 0.00 1247.00 984.00" xmlns="http://www.w3.org/2000/svg" xmlns:xlink="http://www.w3.org/1999/xlink">
<g id="graph0" class="graph" transform="scale(1 1) rotate(0) translate(4 980)">
<title>QWizardPage</title>
<!-- Node1 -->
<g id="Node000001" class="node">
<title>Node1</title>
<g id="a_Node000001"><a xlink:title=" ">
<polygon fill="#999999" stroke="transparent" points="849,-976 774,-976 774,-927 849,-927 849,-976"/>
<text text-anchor="start" x="779.5" y="-963.5" font-family="Helvetica,sans-Serif" font-size="10.00">QWizardPage</text>
<text text-anchor="start" x="810" y="-948.5" font-family="Helvetica,sans-Serif" font-size="10.00"> </text>
<text text-anchor="start" x="810" y="-933.5" font-family="Helvetica,sans-Serif" font-size="10.00"> </text>
<polygon fill="#666666" stroke="#666666" points="774.5,-958.5 774.5,-958.5 849.5,-958.5 849.5,-958.5 774.5,-958.5"/>
<polygon fill="#666666" stroke="#666666" points="774.5,-943.5 774.5,-943.5 849.5,-943.5 849.5,-943.5 774.5,-943.5"/>
<polygon fill="none" stroke="#666666" points="774,-927 774,-976 849,-976 849,-927 774,-927"/>
</a>
</g>
</g>
<!-- Node2 -->
<g id="Node000002" class="node">
<title>Node2</title>
<g id="a_Node000002"><a xlink:href="../../da/dee/classBtBookshelfWizardPage.html" target="_top" xlink:title=" ">
<polygon fill="white" stroke="transparent" points="707,-683 562,-683 562,-619 707,-619 707,-683"/>
<text text-anchor="start" x="576.5" y="-671" font-family="Helvetica,sans-Serif" font-size="10.00">BtBookshelfWizardPage</text>
<text text-anchor="start" x="633" y="-656" font-family="Helvetica,sans-Serif" font-size="10.00"> </text>
<text text-anchor="start" x="566.5" y="-641" font-family="Helvetica,sans-Serif" font-size="10.00">+</text>
<text text-anchor="start" x="579.5" y="-641" font-family="Helvetica,sans-Serif" font-size="10.00">BtBookshelfWizardPage()</text>
<text text-anchor="start" x="566.5" y="-626" font-family="Helvetica,sans-Serif" font-size="10.00">+</text>
<text text-anchor="start" x="579.5" y="-626" font-family="Helvetica,sans-Serif" font-size="10.00">btWizard()</text>
<polygon fill="#666666" stroke="#666666" points="562.5,-666 562.5,-666 707.5,-666 707.5,-666 562.5,-666"/>
<polygon fill="#666666" stroke="#666666" points="562.5,-651 562.5,-651 707.5,-651 707.5,-651 562.5,-651"/>
<polygon fill="none" stroke="#666666" points="562,-619 562,-683 707,-683 707,-619 562,-619"/>
</a>
</g>
</g>
<!-- Node1&#45;&gt;Node2 -->
<g id="edge1_Node000001_Node000002" class="edge">
<title>Node1&#45;&gt;Node2</title>
<g id="a_edge1_Node000001_Node000002"><a xlink:title=" ">
<path fill="none" stroke="#63b8ff" d="M764.88,-929.69C747.67,-920.04 729.28,-907.1 716.5,-891 666.32,-827.78 645.91,-731.97 638.4,-683.08"/>
<polygon fill="none" stroke="#63b8ff" points="763.27,-932.79 773.74,-934.43 766.58,-926.62 763.27,-932.79"/>
</a>
</g>
</g>
<!-- Node10 -->
<g id="Node000010" class="node">
<title>Node10</title>
<g id="a_Node000010"><a xlink:href="../../d9/d76/classBtEditTextPage.html" target="_top" xlink:title=" ">
<polygon fill="white" stroke="transparent" points="897.5,-891 725.5,-891 725.5,-411 897.5,-411 897.5,-891"/>
<text text-anchor="start" x="775" y="-879" font-family="Helvetica,sans-Serif" font-size="10.00">BtEditTextPage</text>
<text text-anchor="start" x="729.5" y="-864" font-family="Helvetica,sans-Serif" font-size="10.00">+</text>
<text text-anchor="start" x="742.5" y="-864" font-family="Helvetica,sans-Serif" font-size="10.00">alignCenter</text>
<text text-anchor="start" x="729.5" y="-849" font-family="Helvetica,sans-Serif" font-size="10.00">+</text>
<text text-anchor="start" x="742.5" y="-849" font-family="Helvetica,sans-Serif" font-size="10.00">alignLeft</text>
<text text-anchor="start" x="729.5" y="-834" font-family="Helvetica,sans-Serif" font-size="10.00">+</text>
<text text-anchor="start" x="742.5" y="-834" font-family="Helvetica,sans-Serif" font-size="10.00">alignRight</text>
<text text-anchor="start" x="729.5" y="-819" font-family="Helvetica,sans-Serif" font-size="10.00">+</text>
<text text-anchor="start" x="742.5" y="-819" font-family="Helvetica,sans-Serif" font-size="10.00">bold</text>
<text text-anchor="start" x="729.5" y="-804" font-family="Helvetica,sans-Serif" font-size="10.00">+</text>
<text text-anchor="start" x="742.5" y="-804" font-family="Helvetica,sans-Serif" font-size="10.00">italic</text>
<text text-anchor="start" x="729.5" y="-789" font-family="Helvetica,sans-Serif" font-size="10.00">+</text>
<text text-anchor="start" x="742.5" y="-789" font-family="Helvetica,sans-Serif" font-size="10.00">underline</text>
<text text-anchor="start" x="732" y="-774" font-family="Helvetica,sans-Serif" font-size="10.00">&#45;</text>
<text text-anchor="start" x="742.5" y="-774" font-family="Helvetica,sans-Serif" font-size="10.00">m_actions</text>
<text text-anchor="start" x="732" y="-759" font-family="Helvetica,sans-Serif" font-size="10.00">&#45;</text>
<text text-anchor="start" x="742.5" y="-759" font-family="Helvetica,sans-Serif" font-size="10.00">m_fontColorChooser</text>
<text text-anchor="start" x="732" y="-744" font-family="Helvetica,sans-Serif" font-size="10.00">&#45;</text>
<text text-anchor="start" x="742.5" y="-744" font-family="Helvetica,sans-Serif" font-size="10.00">m_fontFamilyComboBox</text>
<text text-anchor="start" x="732" y="-729" font-family="Helvetica,sans-Serif" font-size="10.00">&#45;</text>
<text text-anchor="start" x="742.5" y="-729" font-family="Helvetica,sans-Serif" font-size="10.00">m_fontSizeWidget</text>
<text text-anchor="start" x="732" y="-714" font-family="Helvetica,sans-Serif" font-size="10.00">&#45;</text>
<text text-anchor="start" x="742.5" y="-714" font-family="Helvetica,sans-Serif" font-size="10.00">m_handingFormatChangeFrom</text>
<text text-anchor="start" x="742.5" y="-703" font-family="Helvetica,sans-Serif" font-size="10.00">Editor</text>
<text text-anchor="start" x="732" y="-688" font-family="Helvetica,sans-Serif" font-size="10.00">&#45;</text>
<text text-anchor="start" x="742.5" y="-688" font-family="Helvetica,sans-Serif" font-size="10.00">m_htmlTextEdit</text>
<text text-anchor="start" x="732" y="-673" font-family="Helvetica,sans-Serif" font-size="10.00">&#45;</text>
<text text-anchor="start" x="742.5" y="-673" font-family="Helvetica,sans-Serif" font-size="10.00">m_plainTextEdit</text>
<text text-anchor="start" x="732" y="-658" font-family="Helvetica,sans-Serif" font-size="10.00">&#45;</text>
<text text-anchor="start" x="742.5" y="-658" font-family="Helvetica,sans-Serif" font-size="10.00">m_plainTextFont</text>
<text text-anchor="start" x="732" y="-643" font-family="Helvetica,sans-Serif" font-size="10.00">&#45;</text>
<text text-anchor="start" x="742.5" y="-643" font-family="Helvetica,sans-Serif" font-size="10.00">m_text</text>
<text text-anchor="start" x="732" y="-628" font-family="Helvetica,sans-Serif" font-size="10.00">&#45;</text>
<text text-anchor="start" x="742.5" y="-628" font-family="Helvetica,sans-Serif" font-size="10.00">m_toolBar</text>
<text text-anchor="start" x="732" y="-613" font-family="Helvetica,sans-Serif" font-size="10.00">&#45;</text>
<text text-anchor="start" x="742.5" y="-613" font-family="Helvetica,sans-Serif" font-size="10.00">m_wizard</text>
<text text-anchor="start" x="729.5" y="-598" font-family="Helvetica,sans-Serif" font-size="10.00">+</text>
<text text-anchor="start" x="742.5" y="-598" font-family="Helvetica,sans-Serif" font-size="10.00">BtEditTextPage()</text>
<text text-anchor="start" x="729.5" y="-583" font-family="Helvetica,sans-Serif" font-size="10.00">+</text>
<text text-anchor="start" x="742.5" y="-583" font-family="Helvetica,sans-Serif" font-size="10.00">cleanupPage()</text>
<text text-anchor="start" x="729.5" y="-568" font-family="Helvetica,sans-Serif" font-size="10.00">+</text>
<text text-anchor="start" x="742.5" y="-568" font-family="Helvetica,sans-Serif" font-size="10.00">initializePage()</text>
<text text-anchor="start" x="729.5" y="-553" font-family="Helvetica,sans-Serif" font-size="10.00">+</text>
<text text-anchor="start" x="742.5" y="-553" font-family="Helvetica,sans-Serif" font-size="10.00">setFont()</text>
<text text-anchor="start" x="729.5" y="-538" font-family="Helvetica,sans-Serif" font-size="10.00">+</text>
<text text-anchor="start" x="742.5" y="-538" font-family="Helvetica,sans-Serif" font-size="10.00">setText()</text>
<text text-anchor="start" x="729.5" y="-523" font-family="Helvetica,sans-Serif" font-size="10.00">+</text>
<text text-anchor="start" x="742.5" y="-523" font-family="Helvetica,sans-Serif" font-size="10.00">setTitle()</text>
<text text-anchor="start" x="729.5" y="-508" font-family="Helvetica,sans-Serif" font-size="10.00">+</text>
<text text-anchor="start" x="742.5" y="-508" font-family="Helvetica,sans-Serif" font-size="10.00">text()</text>
<text text-anchor="start" x="729.5" y="-493" font-family="Helvetica,sans-Serif" font-size="10.00">+</text>
<text text-anchor="start" x="742.5" y="-493" font-family="Helvetica,sans-Serif" font-size="10.00">validatePage()</text>
<text text-anchor="start" x="732" y="-478" font-family="Helvetica,sans-Serif" font-size="10.00">&#45;</text>
<text text-anchor="start" x="742.5" y="-478" font-family="Helvetica,sans-Serif" font-size="10.00">alignmentChanged()</text>
<text text-anchor="start" x="732" y="-463" font-family="Helvetica,sans-Serif" font-size="10.00">&#45;</text>
<text text-anchor="start" x="742.5" y="-463" font-family="Helvetica,sans-Serif" font-size="10.00">initActions()</text>
<text text-anchor="start" x="732" y="-448" font-family="Helvetica,sans-Serif" font-size="10.00">&#45;</text>
<text text-anchor="start" x="742.5" y="-448" font-family="Helvetica,sans-Serif" font-size="10.00">initHtmlFont()</text>
<text text-anchor="start" x="732" y="-433" font-family="Helvetica,sans-Serif" font-size="10.00">&#45;</text>
<text text-anchor="start" x="742.5" y="-433" font-family="Helvetica,sans-Serif" font-size="10.00">retranslateUi()</text>
<text text-anchor="start" x="732" y="-418" font-family="Helvetica,sans-Serif" font-size="10.00">&#45;</text>
<text text-anchor="start" x="742.5" y="-418" font-family="Helvetica,sans-Serif" font-size="10.00">setupToolBar()</text>
<polygon fill="#666666" stroke="#666666" points="725.5,-874 725.5,-874 897.5,-874 897.5,-874 725.5,-874"/>
<polygon fill="#666666" stroke="#666666" points="725.5,-608 725.5,-608 740.5,-608 740.5,-608 725.5,-608"/>
<polygon fill="#666666" stroke="#666666" points="740.5,-608 740.5,-608 897.5,-608 897.5,-608 740.5,-608"/>
<polygon fill="none" stroke="#666666" points="725.5,-411 725.5,-891 897.5,-891 897.5,-411 725.5,-411"/>
</a>
</g>
</g>
<!-- Node1&#45;&gt;Node10 -->
<g id="edge9_Node000001_Node000010" class="edge">
<title>Node1&#45;&gt;Node10</title>
<g id="a_edge9_Node000001_Node000010"><a xlink:title=" ">
<path fill="none" stroke="#63b8ff" d="M811.5,-916.81C811.5,-909.22 811.5,-900.61 811.5,-891.24"/>
<polygon fill="none" stroke="#63b8ff" points="808,-916.83 811.5,-926.83 815,-916.83 808,-916.83"/>
</a>
</g>
</g>
<!-- Node11 -->
<g id="Node000011" class="node">
<title>Node11</title>
<g id="a_Node000011"><a xlink:href="../../d5/dcc/classBtPlainOrHtmlPage.html" target="_top" xlink:title=" ">
<polygon fill="white" stroke="transparent" points="1057,-720.5 916,-720.5 916,-581.5 1057,-581.5 1057,-720.5"/>
<text text-anchor="start" x="940" y="-708" font-family="Helvetica,sans-Serif" font-size="10.00">BtPlainOrHtmlPage</text>
<text text-anchor="start" x="923" y="-693" font-family="Helvetica,sans-Serif" font-size="10.00">&#45;</text>
<text text-anchor="start" x="933.5" y="-693" font-family="Helvetica,sans-Serif" font-size="10.00">m_groupBox</text>
<text text-anchor="start" x="923" y="-678" font-family="Helvetica,sans-Serif" font-size="10.00">&#45;</text>
<text text-anchor="start" x="933.5" y="-678" font-family="Helvetica,sans-Serif" font-size="10.00">m_htmlRadioButton</text>
<text text-anchor="start" x="923" y="-663" font-family="Helvetica,sans-Serif" font-size="10.00">&#45;</text>
<text text-anchor="start" x="933.5" y="-663" font-family="Helvetica,sans-Serif" font-size="10.00">m_plainTextRadioButton</text>
<text text-anchor="start" x="923" y="-648" font-family="Helvetica,sans-Serif" font-size="10.00">&#45;</text>
<text text-anchor="start" x="933.5" y="-648" font-family="Helvetica,sans-Serif" font-size="10.00">m_verticalLayout</text>
<text text-anchor="start" x="920.5" y="-633" font-family="Helvetica,sans-Serif" font-size="10.00">+</text>
<text text-anchor="start" x="933.5" y="-633" font-family="Helvetica,sans-Serif" font-size="10.00">BtPlainOrHtmlPage()</text>
<text text-anchor="start" x="920.5" y="-618" font-family="Helvetica,sans-Serif" font-size="10.00">+</text>
<text text-anchor="start" x="933.5" y="-618" font-family="Helvetica,sans-Serif" font-size="10.00">htmlMode()</text>
<text text-anchor="start" x="920.5" y="-603" font-family="Helvetica,sans-Serif" font-size="10.00">+</text>
<text text-anchor="start" x="933.5" y="-603" font-family="Helvetica,sans-Serif" font-size="10.00">setHtmlMode()</text>
<text text-anchor="start" x="923" y="-588" font-family="Helvetica,sans-Serif" font-size="10.00">&#45;</text>
<text text-anchor="start" x="933.5" y="-588" font-family="Helvetica,sans-Serif" font-size="10.00">retranslateUi()</text>
<polygon fill="#666666" stroke="#666666" points="916.5,-703 916.5,-703 1057.5,-703 1057.5,-703 916.5,-703"/>
<polygon fill="#666666" stroke="#666666" points="916.5,-643 916.5,-643 931.5,-643 931.5,-643 916.5,-643"/>
<polygon fill="#666666" stroke="#666666" points="931.5,-643 931.5,-643 1057.5,-643 1057.5,-643 931.5,-643"/>
<polygon fill="none" stroke="#666666" points="916,-581.5 916,-720.5 1057,-720.5 1057,-581.5 916,-581.5"/>
</a>
</g>
</g>
<!-- Node1&#45;&gt;Node11 -->
<g id="edge10_Node000001_Node000011" class="edge">
<title>Node1&#45;&gt;Node11</title>
<g id="a_edge10_Node000001_Node000011"><a xlink:title=" ">
<path fill="none" stroke="#63b8ff" d="M858.18,-929.74C875.4,-920.09 893.79,-907.14 906.5,-891 945.55,-841.41 966,-771.83 976.4,-720.52"/>
<polygon fill="none" stroke="#63b8ff" points="856.48,-926.67 849.32,-934.48 859.79,-932.85 856.48,-926.67"/>
</a>
</g>
</g>
<!-- Node3 -->
<g id="Node000003" class="node">
<title>Node3</title>
<g id="a_Node000003"><a xlink:href="../../de/d0a/classBtBookshelfInstallFinalPage.html" target="_top" xlink:title=" ">
<polygon fill="white" stroke="transparent" points="165,-375 0,-375 0,0 165,0 165,-375"/>
<text text-anchor="start" x="15" y="-362.5" font-family="Helvetica,sans-Serif" font-size="10.00">BtBookshelfInstallFinalPage</text>
<text text-anchor="start" x="7" y="-347.5" font-family="Helvetica,sans-Serif" font-size="10.00">&#45;</text>
<text text-anchor="start" x="17.5" y="-347.5" font-family="Helvetica,sans-Serif" font-size="10.00">m_installCompleted</text>
<text text-anchor="start" x="7" y="-332.5" font-family="Helvetica,sans-Serif" font-size="10.00">&#45;</text>
<text text-anchor="start" x="17.5" y="-332.5" font-family="Helvetica,sans-Serif" font-size="10.00">m_installFailed</text>
<text text-anchor="start" x="7" y="-317.5" font-family="Helvetica,sans-Serif" font-size="10.00">&#45;</text>
<text text-anchor="start" x="17.5" y="-317.5" font-family="Helvetica,sans-Serif" font-size="10.00">m_lastStatus</text>
<text text-anchor="start" x="7" y="-302.5" font-family="Helvetica,sans-Serif" font-size="10.00">&#45;</text>
<text text-anchor="start" x="17.5" y="-302.5" font-family="Helvetica,sans-Serif" font-size="10.00">m_modules</text>
<text text-anchor="start" x="7" y="-287.5" font-family="Helvetica,sans-Serif" font-size="10.00">&#45;</text>
<text text-anchor="start" x="17.5" y="-287.5" font-family="Helvetica,sans-Serif" font-size="10.00">m_msgLabel</text>
<text text-anchor="start" x="7" y="-272.5" font-family="Helvetica,sans-Serif" font-size="10.00">&#45;</text>
<text text-anchor="start" x="17.5" y="-272.5" font-family="Helvetica,sans-Serif" font-size="10.00">m_msgLabel2</text>
<text text-anchor="start" x="7" y="-257.5" font-family="Helvetica,sans-Serif" font-size="10.00">&#45;</text>
<text text-anchor="start" x="17.5" y="-257.5" font-family="Helvetica,sans-Serif" font-size="10.00">m_progressBar</text>
<text text-anchor="start" x="7" y="-242.5" font-family="Helvetica,sans-Serif" font-size="10.00">&#45;</text>
<text text-anchor="start" x="17.5" y="-242.5" font-family="Helvetica,sans-Serif" font-size="10.00">m_stopButton</text>
<text text-anchor="start" x="7" y="-227.5" font-family="Helvetica,sans-Serif" font-size="10.00">&#45;</text>
<text text-anchor="start" x="17.5" y="-227.5" font-family="Helvetica,sans-Serif" font-size="10.00">m_thread</text>
<text text-anchor="start" x="7" y="-212.5" font-family="Helvetica,sans-Serif" font-size="10.00">&#45;</text>
<text text-anchor="start" x="17.5" y="-212.5" font-family="Helvetica,sans-Serif" font-size="10.00">m_verticalLayout</text>
<text text-anchor="start" x="4.5" y="-197.5" font-family="Helvetica,sans-Serif" font-size="10.00">+</text>
<text text-anchor="start" x="17.5" y="-197.5" font-family="Helvetica,sans-Serif" font-size="10.00">BtBookshelfInstallFinalPage()</text>
<text text-anchor="start" x="4.5" y="-182.5" font-family="Helvetica,sans-Serif" font-size="10.00">+</text>
<text text-anchor="start" x="17.5" y="-182.5" font-family="Helvetica,sans-Serif" font-size="10.00">destroyThread()</text>
<text text-anchor="start" x="4.5" y="-167.5" font-family="Helvetica,sans-Serif" font-size="10.00">+</text>
<text text-anchor="start" x="17.5" y="-167.5" font-family="Helvetica,sans-Serif" font-size="10.00">initializePage()</text>
<text text-anchor="start" x="4.5" y="-152.5" font-family="Helvetica,sans-Serif" font-size="10.00">+</text>
<text text-anchor="start" x="17.5" y="-152.5" font-family="Helvetica,sans-Serif" font-size="10.00">isComplete()</text>
<text text-anchor="start" x="4.5" y="-137.5" font-family="Helvetica,sans-Serif" font-size="10.00">+</text>
<text text-anchor="start" x="17.5" y="-137.5" font-family="Helvetica,sans-Serif" font-size="10.00">nextId()</text>
<text text-anchor="start" x="4.5" y="-122.5" font-family="Helvetica,sans-Serif" font-size="10.00">+</text>
<text text-anchor="start" x="17.5" y="-122.5" font-family="Helvetica,sans-Serif" font-size="10.00">selectedWorks()</text>
<text text-anchor="start" x="4.5" y="-107.5" font-family="Helvetica,sans-Serif" font-size="10.00">+</text>
<text text-anchor="start" x="17.5" y="-107.5" font-family="Helvetica,sans-Serif" font-size="10.00">~BtBookshelfInstallFinal</text>
<text text-anchor="start" x="17.5" y="-96.5" font-family="Helvetica,sans-Serif" font-size="10.00">Page()</text>
<text text-anchor="start" x="4.5" y="-81.5" font-family="Helvetica,sans-Serif" font-size="10.00">+</text>
<text text-anchor="start" x="17.5" y="-81.5" font-family="Helvetica,sans-Serif" font-size="10.00">slotStopInstall()</text>
<text text-anchor="start" x="7" y="-66.5" font-family="Helvetica,sans-Serif" font-size="10.00">&#45;</text>
<text text-anchor="start" x="17.5" y="-66.5" font-family="Helvetica,sans-Serif" font-size="10.00">retranslateUi()</text>
<text text-anchor="start" x="7" y="-51.5" font-family="Helvetica,sans-Serif" font-size="10.00">&#45;</text>
<text text-anchor="start" x="17.5" y="-51.5" font-family="Helvetica,sans-Serif" font-size="10.00">slotInstallStarted()</text>
<text text-anchor="start" x="7" y="-36.5" font-family="Helvetica,sans-Serif" font-size="10.00">&#45;</text>
<text text-anchor="start" x="17.5" y="-36.5" font-family="Helvetica,sans-Serif" font-size="10.00">slotOneItemCompleted()</text>
<text text-anchor="start" x="7" y="-21.5" font-family="Helvetica,sans-Serif" font-size="10.00">&#45;</text>
<text text-anchor="start" x="17.5" y="-21.5" font-family="Helvetica,sans-Serif" font-size="10.00">slotStatusUpdated()</text>
<text text-anchor="start" x="7" y="-6.5" font-family="Helvetica,sans-Serif" font-size="10.00">&#45;</text>
<text text-anchor="start" x="17.5" y="-6.5" font-family="Helvetica,sans-Serif" font-size="10.00">slotThreadFinished()</text>
<polygon fill="#666666" stroke="#666666" points="0.5,-357.5 0.5,-357.5 165.5,-357.5 165.5,-357.5 0.5,-357.5"/>
<polygon fill="#666666" stroke="#666666" points="0.5,-207.5 0.5,-207.5 15.5,-207.5 15.5,-207.5 0.5,-207.5"/>
<polygon fill="#666666" stroke="#666666" points="15.5,-207.5 15.5,-207.5 165.5,-207.5 165.5,-207.5 15.5,-207.5"/>
<polygon fill="none" stroke="#666666" points="0,0 0,-375 165,-375 165,0 0,0"/>
</a>
</g>
</g>
<!-- Node2&#45;&gt;Node3 -->
<g id="edge2_Node000002_Node000003" class="edge">
<title>Node2&#45;&gt;Node3</title>
<g id="a_edge2_Node000002_Node000003"><a xlink:title=" ">
<path fill="none" stroke="#63b8ff" d="M552.12,-618.03C451.83,-575.58 282.53,-492.1 174.5,-375 171.32,-371.55 168.22,-367.97 165.21,-364.28"/>
<polygon fill="none" stroke="#63b8ff" points="551.03,-621.36 561.6,-622.01 553.74,-614.91 551.03,-621.36"/>
</a>
</g>
</g>
<!-- Node4 -->
<g id="Node000004" class="node">
<title>Node4</title>
<g id="a_Node000004"><a xlink:href="../../d8/d7f/classBtBookshelfLanguagesPage.html" target="_top" xlink:title=" ">
<polygon fill="white" stroke="transparent" points="347.5,-294.5 183.5,-294.5 183.5,-80.5 347.5,-80.5 347.5,-294.5"/>
<text text-anchor="start" x="197.5" y="-282.5" font-family="Helvetica,sans-Serif" font-size="10.00">BtBookshelfLanguagesPage</text>
<text text-anchor="start" x="190" y="-267.5" font-family="Helvetica,sans-Serif" font-size="10.00">&#45;</text>
<text text-anchor="start" x="200.5" y="-267.5" font-family="Helvetica,sans-Serif" font-size="10.00">m_firstTimeInit</text>
<text text-anchor="start" x="190" y="-252.5" font-family="Helvetica,sans-Serif" font-size="10.00">&#45;</text>
<text text-anchor="start" x="200.5" y="-252.5" font-family="Helvetica,sans-Serif" font-size="10.00">m_languagesListView</text>
<text text-anchor="start" x="190" y="-237.5" font-family="Helvetica,sans-Serif" font-size="10.00">&#45;</text>
<text text-anchor="start" x="200.5" y="-237.5" font-family="Helvetica,sans-Serif" font-size="10.00">m_model</text>
<text text-anchor="start" x="190" y="-222.5" font-family="Helvetica,sans-Serif" font-size="10.00">&#45;</text>
<text text-anchor="start" x="200.5" y="-222.5" font-family="Helvetica,sans-Serif" font-size="10.00">m_verticalLayout</text>
<text text-anchor="start" x="187.5" y="-207.5" font-family="Helvetica,sans-Serif" font-size="10.00">+</text>
<text text-anchor="start" x="200.5" y="-207.5" font-family="Helvetica,sans-Serif" font-size="10.00">BtBookshelfLanguagesPage()</text>
<text text-anchor="start" x="187.5" y="-192.5" font-family="Helvetica,sans-Serif" font-size="10.00">+</text>
<text text-anchor="start" x="200.5" y="-192.5" font-family="Helvetica,sans-Serif" font-size="10.00">initializeLanguages()</text>
<text text-anchor="start" x="187.5" y="-177.5" font-family="Helvetica,sans-Serif" font-size="10.00">+</text>
<text text-anchor="start" x="200.5" y="-177.5" font-family="Helvetica,sans-Serif" font-size="10.00">initializePage()</text>
<text text-anchor="start" x="187.5" y="-162.5" font-family="Helvetica,sans-Serif" font-size="10.00">+</text>
<text text-anchor="start" x="200.5" y="-162.5" font-family="Helvetica,sans-Serif" font-size="10.00">isComplete()</text>
<text text-anchor="start" x="187.5" y="-147.5" font-family="Helvetica,sans-Serif" font-size="10.00">+</text>
<text text-anchor="start" x="200.5" y="-147.5" font-family="Helvetica,sans-Serif" font-size="10.00">nextId()</text>
<text text-anchor="start" x="187.5" y="-132.5" font-family="Helvetica,sans-Serif" font-size="10.00">+</text>
<text text-anchor="start" x="200.5" y="-132.5" font-family="Helvetica,sans-Serif" font-size="10.00">selectedLanguages()</text>
<text text-anchor="start" x="187.5" y="-117.5" font-family="Helvetica,sans-Serif" font-size="10.00">+</text>
<text text-anchor="start" x="200.5" y="-117.5" font-family="Helvetica,sans-Serif" font-size="10.00">skipPage()</text>
<text text-anchor="start" x="190" y="-102.5" font-family="Helvetica,sans-Serif" font-size="10.00">&#45;</text>
<text text-anchor="start" x="200.5" y="-102.5" font-family="Helvetica,sans-Serif" font-size="10.00">retranslateUi()</text>
<text text-anchor="start" x="190" y="-87.5" font-family="Helvetica,sans-Serif" font-size="10.00">&#45;</text>
<text text-anchor="start" x="200.5" y="-87.5" font-family="Helvetica,sans-Serif" font-size="10.00">slotDataChanged()</text>
<polygon fill="#666666" stroke="#666666" points="183.5,-277.5 183.5,-277.5 347.5,-277.5 347.5,-277.5 183.5,-277.5"/>
<polygon fill="#666666" stroke="#666666" points="183.5,-217.5 183.5,-217.5 198.5,-217.5 198.5,-217.5 183.5,-217.5"/>
<polygon fill="#666666" stroke="#666666" points="198.5,-217.5 198.5,-217.5 347.5,-217.5 347.5,-217.5 198.5,-217.5"/>
<polygon fill="none" stroke="#666666" points="183.5,-80.5 183.5,-294.5 347.5,-294.5 347.5,-80.5 183.5,-80.5"/>
</a>
</g>
</g>
<!-- Node2&#45;&gt;Node4 -->
<g id="edge3_Node000002_Node000004" class="edge">
<title>Node2&#45;&gt;Node4</title>
<g id="a_edge3_Node000002_Node000004"><a xlink:title=" ">
<path fill="none" stroke="#63b8ff" d="M587.6,-612.31C528.12,-562.7 425.06,-470.55 356.5,-375 338.86,-350.41 323,-321.88 309.64,-294.64"/>
<polygon fill="none" stroke="#63b8ff" points="585.41,-615.04 595.34,-618.73 589.88,-609.65 585.41,-615.04"/>
</a>
</g>
</g>
<!-- Node5 -->
<g id="Node000005" class="node">
<title>Node5</title>
<g id="a_Node000005"><a xlink:href="../../d0/dfd/classBtBookshelfRemoveFinalPage.html" target="_top" xlink:title=" ">
<polygon fill="white" stroke="transparent" points="541,-249.5 366,-249.5 366,-125.5 541,-125.5 541,-249.5"/>
<text text-anchor="start" x="380.5" y="-237.5" font-family="Helvetica,sans-Serif" font-size="10.00">BtBookshelfRemoveFinalPage</text>
<text text-anchor="start" x="373" y="-222.5" font-family="Helvetica,sans-Serif" font-size="10.00">&#45;</text>
<text text-anchor="start" x="383.5" y="-222.5" font-family="Helvetica,sans-Serif" font-size="10.00">m_msgLabel</text>
<text text-anchor="start" x="373" y="-207.5" font-family="Helvetica,sans-Serif" font-size="10.00">&#45;</text>
<text text-anchor="start" x="383.5" y="-207.5" font-family="Helvetica,sans-Serif" font-size="10.00">m_verticalLayout</text>
<text text-anchor="start" x="370.5" y="-192.5" font-family="Helvetica,sans-Serif" font-size="10.00">+</text>
<text text-anchor="start" x="383.5" y="-192.5" font-family="Helvetica,sans-Serif" font-size="10.00">BtBookshelfRemoveFinalPage()</text>
<text text-anchor="start" x="370.5" y="-177.5" font-family="Helvetica,sans-Serif" font-size="10.00">+</text>
<text text-anchor="start" x="383.5" y="-177.5" font-family="Helvetica,sans-Serif" font-size="10.00">initializePage()</text>
<text text-anchor="start" x="370.5" y="-162.5" font-family="Helvetica,sans-Serif" font-size="10.00">+</text>
<text text-anchor="start" x="383.5" y="-162.5" font-family="Helvetica,sans-Serif" font-size="10.00">isComplete()</text>
<text text-anchor="start" x="370.5" y="-147.5" font-family="Helvetica,sans-Serif" font-size="10.00">+</text>
<text text-anchor="start" x="383.5" y="-147.5" font-family="Helvetica,sans-Serif" font-size="10.00">nextId()</text>
<text text-anchor="start" x="373" y="-132.5" font-family="Helvetica,sans-Serif" font-size="10.00">&#45;</text>
<text text-anchor="start" x="383.5" y="-132.5" font-family="Helvetica,sans-Serif" font-size="10.00">retranslateUi()</text>
<polygon fill="#666666" stroke="#666666" points="366.5,-232.5 366.5,-232.5 541.5,-232.5 541.5,-232.5 366.5,-232.5"/>
<polygon fill="#666666" stroke="#666666" points="366.5,-202.5 366.5,-202.5 381.5,-202.5 381.5,-202.5 366.5,-202.5"/>
<polygon fill="#666666" stroke="#666666" points="381.5,-202.5 381.5,-202.5 541.5,-202.5 541.5,-202.5 381.5,-202.5"/>
<polygon fill="none" stroke="#666666" points="366,-125.5 366,-249.5 541,-249.5 541,-125.5 366,-125.5"/>
</a>
</g>
</g>
<!-- Node2&#45;&gt;Node5 -->
<g id="edge4_Node000002_Node000005" class="edge">
<title>Node2&#45;&gt;Node5</title>
<g id="a_edge4_Node000002_Node000005"><a xlink:title=" ">
<path fill="none" stroke="#63b8ff" d="M618.52,-609.25C586.64,-527.98 515.03,-345.37 477.49,-249.66"/>
<polygon fill="none" stroke="#63b8ff" points="615.29,-610.61 622.2,-618.64 621.81,-608.05 615.29,-610.61"/>
</a>
</g>
</g>
<!-- Node6 -->
<g id="Node000006" class="node">
<title>Node6</title>
<g id="a_Node000006"><a xlink:href="../../d2/de4/classBtBookshelfSourcesPage.html" target="_top" xlink:title=" ">
<polygon fill="white" stroke="transparent" points="709.5,-294.5 559.5,-294.5 559.5,-80.5 709.5,-80.5 709.5,-294.5"/>
<text text-anchor="start" x="574" y="-282.5" font-family="Helvetica,sans-Serif" font-size="10.00">BtBookshelfSourcesPage</text>
<text text-anchor="start" x="566" y="-267.5" font-family="Helvetica,sans-Serif" font-size="10.00">&#45;</text>
<text text-anchor="start" x="576.5" y="-267.5" font-family="Helvetica,sans-Serif" font-size="10.00">m_firstTimeInit</text>
<text text-anchor="start" x="566" y="-252.5" font-family="Helvetica,sans-Serif" font-size="10.00">&#45;</text>
<text text-anchor="start" x="576.5" y="-252.5" font-family="Helvetica,sans-Serif" font-size="10.00">m_model</text>
<text text-anchor="start" x="566" y="-237.5" font-family="Helvetica,sans-Serif" font-size="10.00">&#45;</text>
<text text-anchor="start" x="576.5" y="-237.5" font-family="Helvetica,sans-Serif" font-size="10.00">m_sourcesTableView</text>
<text text-anchor="start" x="566" y="-222.5" font-family="Helvetica,sans-Serif" font-size="10.00">&#45;</text>
<text text-anchor="start" x="576.5" y="-222.5" font-family="Helvetica,sans-Serif" font-size="10.00">m_verticalLayout</text>
<text text-anchor="start" x="563.5" y="-207.5" font-family="Helvetica,sans-Serif" font-size="10.00">+</text>
<text text-anchor="start" x="576.5" y="-207.5" font-family="Helvetica,sans-Serif" font-size="10.00">BtBookshelfSourcesPage()</text>
<text text-anchor="start" x="563.5" y="-192.5" font-family="Helvetica,sans-Serif" font-size="10.00">+</text>
<text text-anchor="start" x="576.5" y="-192.5" font-family="Helvetica,sans-Serif" font-size="10.00">initializePage()</text>
<text text-anchor="start" x="563.5" y="-177.5" font-family="Helvetica,sans-Serif" font-size="10.00">+</text>
<text text-anchor="start" x="576.5" y="-177.5" font-family="Helvetica,sans-Serif" font-size="10.00">isComplete()</text>
<text text-anchor="start" x="563.5" y="-162.5" font-family="Helvetica,sans-Serif" font-size="10.00">+</text>
<text text-anchor="start" x="576.5" y="-162.5" font-family="Helvetica,sans-Serif" font-size="10.00">nextId()</text>
<text text-anchor="start" x="563.5" y="-147.5" font-family="Helvetica,sans-Serif" font-size="10.00">+</text>
<text text-anchor="start" x="576.5" y="-147.5" font-family="Helvetica,sans-Serif" font-size="10.00">selectedSources()</text>
<text text-anchor="start" x="566" y="-132.5" font-family="Helvetica,sans-Serif" font-size="10.00">&#45;</text>
<text text-anchor="start" x="576.5" y="-132.5" font-family="Helvetica,sans-Serif" font-size="10.00">retranslateUi()</text>
<text text-anchor="start" x="566" y="-117.5" font-family="Helvetica,sans-Serif" font-size="10.00">&#45;</text>
<text text-anchor="start" x="576.5" y="-117.5" font-family="Helvetica,sans-Serif" font-size="10.00">selectSourcesInModel()</text>
<text text-anchor="start" x="566" y="-102.5" font-family="Helvetica,sans-Serif" font-size="10.00">&#45;</text>
<text text-anchor="start" x="576.5" y="-102.5" font-family="Helvetica,sans-Serif" font-size="10.00">updateSourcesModel()</text>
<text text-anchor="start" x="566" y="-87.5" font-family="Helvetica,sans-Serif" font-size="10.00">&#45;</text>
<text text-anchor="start" x="576.5" y="-87.5" font-family="Helvetica,sans-Serif" font-size="10.00">slotButtonClicked()</text>
<polygon fill="#666666" stroke="#666666" points="559.5,-277.5 559.5,-277.5 709.5,-277.5 709.5,-277.5 559.5,-277.5"/>
<polygon fill="#666666" stroke="#666666" points="559.5,-217.5 559.5,-217.5 574.5,-217.5 574.5,-217.5 559.5,-217.5"/>
<polygon fill="#666666" stroke="#666666" points="574.5,-217.5 574.5,-217.5 709.5,-217.5 709.5,-217.5 574.5,-217.5"/>
<polygon fill="none" stroke="#666666" points="559.5,-80.5 559.5,-294.5 709.5,-294.5 709.5,-80.5 559.5,-80.5"/>
</a>
</g>
</g>
<!-- Node2&#45;&gt;Node6 -->
<g id="edge5_Node000002_Node000006" class="edge">
<title>Node2&#45;&gt;Node6</title>
<g id="a_edge5_Node000002_Node000006"><a xlink:title=" ">
<path fill="none" stroke="#63b8ff" d="M634.5,-608.44C634.5,-538.33 634.5,-394.43 634.5,-294.77"/>
<polygon fill="none" stroke="#63b8ff" points="631,-608.64 634.5,-618.64 638,-608.64 631,-608.64"/>
</a>
</g>
</g>
<!-- Node7 -->
<g id="Node000007" class="node">
<title>Node7</title>
<g id="a_Node000007"><a xlink:href="../../df/dcc/classBtBookshelfSourcesProgressPage.html" target="_top" xlink:title=" ">
<polygon fill="white" stroke="transparent" points="901,-313 728,-313 728,-62 901,-62 901,-313"/>
<text text-anchor="start" x="733.5" y="-300.5" font-family="Helvetica,sans-Serif" font-size="10.00">BtBookshelfSourcesProgressPage</text>
<text text-anchor="start" x="736" y="-285.5" font-family="Helvetica,sans-Serif" font-size="10.00">&#45;</text>
<text text-anchor="start" x="747.5" y="-285.5" font-family="Helvetica,sans-Serif" font-size="10.00">m_installCompleted</text>
<text text-anchor="start" x="736" y="-270.5" font-family="Helvetica,sans-Serif" font-size="10.00">&#45;</text>
<text text-anchor="start" x="747.5" y="-270.5" font-family="Helvetica,sans-Serif" font-size="10.00">m_msgLabel</text>
<text text-anchor="start" x="736" y="-255.5" font-family="Helvetica,sans-Serif" font-size="10.00">&#45;</text>
<text text-anchor="start" x="747.5" y="-255.5" font-family="Helvetica,sans-Serif" font-size="10.00">m_progressBar</text>
<text text-anchor="start" x="736" y="-240.5" font-family="Helvetica,sans-Serif" font-size="10.00">&#45;</text>
<text text-anchor="start" x="747.5" y="-240.5" font-family="Helvetica,sans-Serif" font-size="10.00">m_stopButton</text>
<text text-anchor="start" x="736" y="-225.5" font-family="Helvetica,sans-Serif" font-size="10.00">&#45;</text>
<text text-anchor="start" x="747.5" y="-225.5" font-family="Helvetica,sans-Serif" font-size="10.00">m_thread</text>
<text text-anchor="start" x="733.5" y="-210.5" font-family="Helvetica,sans-Serif" font-size="10.00">+</text>
<text text-anchor="start" x="747.5" y="-210.5" font-family="Helvetica,sans-Serif" font-size="10.00">BtBookshelfSourcesProgress</text>
<text text-anchor="start" x="747.5" y="-199.5" font-family="Helvetica,sans-Serif" font-size="10.00">Page()</text>
<text text-anchor="start" x="733.5" y="-184.5" font-family="Helvetica,sans-Serif" font-size="10.00">+</text>
<text text-anchor="start" x="747.5" y="-184.5" font-family="Helvetica,sans-Serif" font-size="10.00">destroyThread()</text>
<text text-anchor="start" x="733.5" y="-169.5" font-family="Helvetica,sans-Serif" font-size="10.00">+</text>
<text text-anchor="start" x="747.5" y="-169.5" font-family="Helvetica,sans-Serif" font-size="10.00">initializePage()</text>
<text text-anchor="start" x="733.5" y="-154.5" font-family="Helvetica,sans-Serif" font-size="10.00">+</text>
<text text-anchor="start" x="747.5" y="-154.5" font-family="Helvetica,sans-Serif" font-size="10.00">isComplete()</text>
<text text-anchor="start" x="733.5" y="-139.5" font-family="Helvetica,sans-Serif" font-size="10.00">+</text>
<text text-anchor="start" x="747.5" y="-139.5" font-family="Helvetica,sans-Serif" font-size="10.00">nextId()</text>
<text text-anchor="start" x="733.5" y="-124.5" font-family="Helvetica,sans-Serif" font-size="10.00">+</text>
<text text-anchor="start" x="747.5" y="-124.5" font-family="Helvetica,sans-Serif" font-size="10.00">~BtBookshelfSourcesProgress</text>
<text text-anchor="start" x="747.5" y="-113.5" font-family="Helvetica,sans-Serif" font-size="10.00">Page()</text>
<text text-anchor="start" x="733.5" y="-98.5" font-family="Helvetica,sans-Serif" font-size="10.00">+</text>
<text text-anchor="start" x="747.5" y="-98.5" font-family="Helvetica,sans-Serif" font-size="10.00">slotStopInstall()</text>
<text text-anchor="start" x="736" y="-83.5" font-family="Helvetica,sans-Serif" font-size="10.00">&#45;</text>
<text text-anchor="start" x="747.5" y="-83.5" font-family="Helvetica,sans-Serif" font-size="10.00">retranslateUi()</text>
<text text-anchor="start" x="736" y="-68.5" font-family="Helvetica,sans-Serif" font-size="10.00">&#45;</text>
<text text-anchor="start" x="747.5" y="-68.5" font-family="Helvetica,sans-Serif" font-size="10.00">slotThreadFinished()</text>
<polygon fill="#666666" stroke="#666666" points="728.5,-295.5 728.5,-295.5 901.5,-295.5 901.5,-295.5 728.5,-295.5"/>
<polygon fill="#666666" stroke="#666666" points="728.5,-220.5 728.5,-220.5 745.5,-220.5 745.5,-220.5 728.5,-220.5"/>
<polygon fill="#666666" stroke="#666666" points="745.5,-220.5 745.5,-220.5 901.5,-220.5 901.5,-220.5 745.5,-220.5"/>
<polygon fill="none" stroke="#666666" points="728,-62 728,-313 901,-313 901,-62 728,-62"/>
</a>
</g>
</g>
<!-- Node2&#45;&gt;Node7 -->
<g id="edge6_Node000002_Node000007" class="edge">
<title>Node2&#45;&gt;Node7</title>
<g id="a_edge6_Node000002_Node000007"><a xlink:title=" ">
<path fill="none" stroke="#63b8ff" d="M647.38,-609.06C662.72,-561.16 689.66,-479.66 716.5,-411 729.03,-378.96 743.51,-344.77 757.43,-313.05"/>
<polygon fill="none" stroke="#63b8ff" points="643.99,-608.17 644.29,-618.76 650.66,-610.3 643.99,-608.17"/>
</a>
</g>
</g>
<!-- Node8 -->
<g id="Node000008" class="node">
<title>Node8</title>
<g id="a_Node000008"><a xlink:href="../../d3/d1b/classBtBookshelfTaskPage.html" target="_top" xlink:title=" ">
<polygon fill="white" stroke="transparent" points="1053.5,-279.5 919.5,-279.5 919.5,-95.5 1053.5,-95.5 1053.5,-279.5"/>
<text text-anchor="start" x="934" y="-267.5" font-family="Helvetica,sans-Serif" font-size="10.00">BtBookshelfTaskPage</text>
<text text-anchor="start" x="926" y="-252.5" font-family="Helvetica,sans-Serif" font-size="10.00">&#45;</text>
<text text-anchor="start" x="936.5" y="-252.5" font-family="Helvetica,sans-Serif" font-size="10.00">m_groupBox</text>
<text text-anchor="start" x="926" y="-237.5" font-family="Helvetica,sans-Serif" font-size="10.00">&#45;</text>
<text text-anchor="start" x="936.5" y="-237.5" font-family="Helvetica,sans-Serif" font-size="10.00">m_installRadioButton</text>
<text text-anchor="start" x="926" y="-222.5" font-family="Helvetica,sans-Serif" font-size="10.00">&#45;</text>
<text text-anchor="start" x="936.5" y="-222.5" font-family="Helvetica,sans-Serif" font-size="10.00">m_removeRadioButton</text>
<text text-anchor="start" x="926" y="-207.5" font-family="Helvetica,sans-Serif" font-size="10.00">&#45;</text>
<text text-anchor="start" x="936.5" y="-207.5" font-family="Helvetica,sans-Serif" font-size="10.00">m_updateRadioButton</text>
<text text-anchor="start" x="926" y="-192.5" font-family="Helvetica,sans-Serif" font-size="10.00">&#45;</text>
<text text-anchor="start" x="936.5" y="-192.5" font-family="Helvetica,sans-Serif" font-size="10.00">m_verticalLayout</text>
<text text-anchor="start" x="926" y="-177.5" font-family="Helvetica,sans-Serif" font-size="10.00">&#45;</text>
<text text-anchor="start" x="936.5" y="-177.5" font-family="Helvetica,sans-Serif" font-size="10.00">m_warningLabel</text>
<text text-anchor="start" x="923.5" y="-162.5" font-family="Helvetica,sans-Serif" font-size="10.00">+</text>
<text text-anchor="start" x="936.5" y="-162.5" font-family="Helvetica,sans-Serif" font-size="10.00">BtBookshelfTaskPage()</text>
<text text-anchor="start" x="923.5" y="-147.5" font-family="Helvetica,sans-Serif" font-size="10.00">+</text>
<text text-anchor="start" x="936.5" y="-147.5" font-family="Helvetica,sans-Serif" font-size="10.00">nextId()</text>
<text text-anchor="start" x="923.5" y="-132.5" font-family="Helvetica,sans-Serif" font-size="10.00">+</text>
<text text-anchor="start" x="936.5" y="-132.5" font-family="Helvetica,sans-Serif" font-size="10.00">taskType()</text>
<text text-anchor="start" x="926" y="-117.5" font-family="Helvetica,sans-Serif" font-size="10.00">&#45;</text>
<text text-anchor="start" x="936.5" y="-117.5" font-family="Helvetica,sans-Serif" font-size="10.00">retranslateUi()</text>
<text text-anchor="start" x="926" y="-102.5" font-family="Helvetica,sans-Serif" font-size="10.00">&#45;</text>
<text text-anchor="start" x="936.5" y="-102.5" font-family="Helvetica,sans-Serif" font-size="10.00">timeToUpdate()</text>
<polygon fill="#666666" stroke="#666666" points="919.5,-262.5 919.5,-262.5 1053.5,-262.5 1053.5,-262.5 919.5,-262.5"/>
<polygon fill="#666666" stroke="#666666" points="919.5,-172.5 919.5,-172.5 934.5,-172.5 934.5,-172.5 919.5,-172.5"/>
<polygon fill="#666666" stroke="#666666" points="934.5,-172.5 934.5,-172.5 1053.5,-172.5 1053.5,-172.5 934.5,-172.5"/>
<polygon fill="none" stroke="#666666" points="919.5,-95.5 919.5,-279.5 1053.5,-279.5 1053.5,-95.5 919.5,-95.5"/>
</a>
</g>
</g>
<!-- Node2&#45;&gt;Node8 -->
<g id="edge7_Node000002_Node000008" class="edge">
<title>Node2&#45;&gt;Node8</title>
<g id="a_edge7_Node000002_Node000008"><a xlink:title=" ">
<path fill="none" stroke="#63b8ff" d="M636.45,-608.71C641.34,-554.75 658.27,-461.24 716.5,-411 782.9,-353.71 842.51,-430.39 910.5,-375 939.77,-351.15 957.88,-314.23 969.02,-279.51"/>
<polygon fill="none" stroke="#63b8ff" points="632.94,-608.7 635.62,-618.95 639.92,-609.26 632.94,-608.7"/>
</a>
</g>
</g>
<!-- Node9 -->
<g id="Node000009" class="node">
<title>Node9</title>
<g id="a_Node000009"><a xlink:href="../../df/d7e/classBtBookshelfWorksPage.html" target="_top" xlink:title=" ">
<polygon fill="white" stroke="transparent" points="1239,-362 1072,-362 1072,-13 1239,-13 1239,-362"/>
<text text-anchor="start" x="1099.5" y="-349.5" font-family="Helvetica,sans-Serif" font-size="10.00">BtBookshelfWorksPage</text>
<text text-anchor="start" x="1079" y="-334.5" font-family="Helvetica,sans-Serif" font-size="10.00">&#45;</text>
<text text-anchor="start" x="1089.5" y="-334.5" font-family="Helvetica,sans-Serif" font-size="10.00">m_bookshelfModel</text>
<text text-anchor="start" x="1079" y="-319.5" font-family="Helvetica,sans-Serif" font-size="10.00">&#45;</text>
<text text-anchor="start" x="1089.5" y="-319.5" font-family="Helvetica,sans-Serif" font-size="10.00">m_bookshelfView</text>
<text text-anchor="start" x="1079" y="-304.5" font-family="Helvetica,sans-Serif" font-size="10.00">&#45;</text>
<text text-anchor="start" x="1089.5" y="-304.5" font-family="Helvetica,sans-Serif" font-size="10.00">m_contextMenu</text>
<text text-anchor="start" x="1079" y="-289.5" font-family="Helvetica,sans-Serif" font-size="10.00">&#45;</text>
<text text-anchor="start" x="1089.5" y="-289.5" font-family="Helvetica,sans-Serif" font-size="10.00">m_groupingButton</text>
<text text-anchor="start" x="1079" y="-274.5" font-family="Helvetica,sans-Serif" font-size="10.00">&#45;</text>
<text text-anchor="start" x="1089.5" y="-274.5" font-family="Helvetica,sans-Serif" font-size="10.00">m_groupingLabel</text>
<text text-anchor="start" x="1079" y="-259.5" font-family="Helvetica,sans-Serif" font-size="10.00">&#45;</text>
<text text-anchor="start" x="1089.5" y="-259.5" font-family="Helvetica,sans-Serif" font-size="10.00">m_groupingMenu</text>
<text text-anchor="start" x="1079" y="-244.5" font-family="Helvetica,sans-Serif" font-size="10.00">&#45;</text>
<text text-anchor="start" x="1089.5" y="-244.5" font-family="Helvetica,sans-Serif" font-size="10.00">m_groupingOrder</text>
<text text-anchor="start" x="1079" y="-229.5" font-family="Helvetica,sans-Serif" font-size="10.00">&#45;</text>
<text text-anchor="start" x="1089.5" y="-229.5" font-family="Helvetica,sans-Serif" font-size="10.00">m_installPageModel</text>
<text text-anchor="start" x="1079" y="-214.5" font-family="Helvetica,sans-Serif" font-size="10.00">&#45;</text>
<text text-anchor="start" x="1089.5" y="-214.5" font-family="Helvetica,sans-Serif" font-size="10.00">m_itemContextMenu</text>
<text text-anchor="start" x="1079" y="-199.5" font-family="Helvetica,sans-Serif" font-size="10.00">&#45;</text>
<text text-anchor="start" x="1089.5" y="-199.5" font-family="Helvetica,sans-Serif" font-size="10.00">m_msgLabel</text>
<text text-anchor="start" x="1089.5" y="-184.5" font-family="Helvetica,sans-Serif" font-size="10.00">and 6 more...</text>
<text text-anchor="start" x="1076.5" y="-169.5" font-family="Helvetica,sans-Serif" font-size="10.00">+</text>
<text text-anchor="start" x="1089.5" y="-169.5" font-family="Helvetica,sans-Serif" font-size="10.00">BtBookshelfWorksPage()</text>
<text text-anchor="start" x="1076.5" y="-154.5" font-family="Helvetica,sans-Serif" font-size="10.00">+</text>
<text text-anchor="start" x="1089.5" y="-154.5" font-family="Helvetica,sans-Serif" font-size="10.00">checkedModules()</text>
<text text-anchor="start" x="1076.5" y="-139.5" font-family="Helvetica,sans-Serif" font-size="10.00">+</text>
<text text-anchor="start" x="1089.5" y="-139.5" font-family="Helvetica,sans-Serif" font-size="10.00">initializePage()</text>
<text text-anchor="start" x="1076.5" y="-124.5" font-family="Helvetica,sans-Serif" font-size="10.00">+</text>
<text text-anchor="start" x="1089.5" y="-124.5" font-family="Helvetica,sans-Serif" font-size="10.00">installPath()</text>
<text text-anchor="start" x="1076.5" y="-109.5" font-family="Helvetica,sans-Serif" font-size="10.00">+</text>
<text text-anchor="start" x="1089.5" y="-109.5" font-family="Helvetica,sans-Serif" font-size="10.00">isComplete()</text>
<text text-anchor="start" x="1076.5" y="-94.5" font-family="Helvetica,sans-Serif" font-size="10.00">+</text>
<text text-anchor="start" x="1089.5" y="-94.5" font-family="Helvetica,sans-Serif" font-size="10.00">nextId()</text>
<text text-anchor="start" x="1079" y="-79.5" font-family="Helvetica,sans-Serif" font-size="10.00">&#45;</text>
<text text-anchor="start" x="1089.5" y="-79.5" font-family="Helvetica,sans-Serif" font-size="10.00">retranslateUi()</text>
<text text-anchor="start" x="1079" y="-64.5" font-family="Helvetica,sans-Serif" font-size="10.00">&#45;</text>
<text text-anchor="start" x="1089.5" y="-64.5" font-family="Helvetica,sans-Serif" font-size="10.00">slotGroupingActionTriggered()</text>
<text text-anchor="start" x="1079" y="-49.5" font-family="Helvetica,sans-Serif" font-size="10.00">&#45;</text>
<text text-anchor="start" x="1089.5" y="-49.5" font-family="Helvetica,sans-Serif" font-size="10.00">slotGroupingOrderChanged()</text>
<text text-anchor="start" x="1079" y="-34.5" font-family="Helvetica,sans-Serif" font-size="10.00">&#45;</text>
<text text-anchor="start" x="1089.5" y="-34.5" font-family="Helvetica,sans-Serif" font-size="10.00">slotInitPathCombo()</text>
<text text-anchor="start" x="1079" y="-19.5" font-family="Helvetica,sans-Serif" font-size="10.00">&#45;</text>
<text text-anchor="start" x="1089.5" y="-19.5" font-family="Helvetica,sans-Serif" font-size="10.00">slotPathChanged()</text>
<polygon fill="#666666" stroke="#666666" points="1072.5,-344.5 1072.5,-344.5 1239.5,-344.5 1239.5,-344.5 1072.5,-344.5"/>
<polygon fill="#666666" stroke="#666666" points="1072.5,-179.5 1072.5,-179.5 1087.5,-179.5 1087.5,-179.5 1072.5,-179.5"/>
<polygon fill="#666666" stroke="#666666" points="1087.5,-179.5 1087.5,-179.5 1239.5,-179.5 1239.5,-179.5 1087.5,-179.5"/>
<polygon fill="none" stroke="#666666" points="1072,-13 1072,-362 1239,-362 1239,-13 1072,-13"/>
</a>
</g>
</g>
<!-- Node2&#45;&gt;Node9 -->
<g id="edge8_Node000002_Node000009" class="edge">
<title>Node2&#45;&gt;Node9</title>
<g id="a_edge8_Node000002_Node000009"><a xlink:title=" ">
<path fill="none" stroke="#63b8ff" d="M635.81,-608.79C639.95,-554.16 656.03,-459.1 716.5,-411 837.49,-314.75 935.42,-463.06 1062.5,-375 1068.15,-371.08 1073.47,-366.72 1078.49,-362"/>
<polygon fill="none" stroke="#63b8ff" points="632.31,-608.61 635.15,-618.82 639.3,-609.07 632.31,-608.61"/>
</a>
</g>
</g>
</g>
</svg>
