<?xml version="1.0" encoding="UTF-8" standalone="no"?>
<!DOCTYPE svg PUBLIC "-//W3C//DTD SVG 1.1//EN"
 "http://www.w3.org/Graphics/SVG/1.1/DTD/svg11.dtd">
<!-- Generated by graphviz version 2.43.0 (0)
 -->
<!-- Title: QWizardPage Pages: 1 -->
<svg width="1319pt" height="782pt"
 viewBox="0.00 0.00 1319.00 782.00" xmlns="http://www.w3.org/2000/svg" xmlns:xlink="http://www.w3.org/1999/xlink">
<g id="graph0" class="graph" transform="scale(1 1) rotate(0) translate(4 778)">
<title>QWizardPage</title>
<polygon fill="white" stroke="transparent" points="-4,4 -4,-778 1315,-778 1315,4 -4,4"/>
<!-- Node1 -->
<g id="node1" class="node">
<title>Node1</title>
<g id="a_node1"><a xlink:title=" ">
<polygon fill="#bfbfbf" stroke="black" points="804,-716.5 804,-773.5 885,-773.5 885,-716.5 804,-716.5"/>
<text text-anchor="middle" x="844.5" y="-761.5" font-family="Helvetica,sans-Serif" font-size="10.00">QWizardPage</text>
<polyline fill="none" stroke="black" points="804,-754.5 885,-754.5 "/>
<text text-anchor="middle" x="844.5" y="-742.5" font-family="Helvetica,sans-Serif" font-size="10.00"> </text>
<polyline fill="none" stroke="black" points="804,-735.5 885,-735.5 "/>
<text text-anchor="middle" x="844.5" y="-723.5" font-family="Helvetica,sans-Serif" font-size="10.00"> </text>
</a>
</g>
</g>
<!-- Node2 -->
<g id="node2" class="node">
<title>Node2</title>
<g id="a_node2"><a xlink:href="../../da/dee/classBtBookshelfWizardPage.html" target="_top" xlink:title=" ">
<polygon fill="white" stroke="black" points="587.5,-468.5 587.5,-536.5 739.5,-536.5 739.5,-468.5 587.5,-468.5"/>
<text text-anchor="middle" x="663.5" y="-524.5" font-family="Helvetica,sans-Serif" font-size="10.00">BtBookshelfWizardPage</text>
<polyline fill="none" stroke="black" points="587.5,-517.5 739.5,-517.5 "/>
<text text-anchor="middle" x="663.5" y="-505.5" font-family="Helvetica,sans-Serif" font-size="10.00"> </text>
<polyline fill="none" stroke="black" points="587.5,-498.5 739.5,-498.5 "/>
<text text-anchor="start" x="595.5" y="-486.5" font-family="Helvetica,sans-Serif" font-size="10.00">+ BtBookshelfWizardPage()</text>
<text text-anchor="start" x="595.5" y="-475.5" font-family="Helvetica,sans-Serif" font-size="10.00">+ btWizard()</text>
</a>
</g>
</g>
<!-- Node1&#45;&gt;Node2 -->
<g id="edge1" class="edge">
<title>Node1&#45;&gt;Node2</title>
<path fill="none" stroke="midnightblue" d="M795.16,-717.72C779.16,-707.5 762.27,-694.69 749.5,-680 712.04,-636.91 686.78,-574.65 673.8,-536.75"/>
<polygon fill="none" stroke="midnightblue" points="793.57,-720.86 803.92,-723.13 797.25,-714.9 793.57,-720.86"/>
</g>
<!-- Node10 -->
<g id="node10" class="node">
<title>Node10</title>
<g id="a_node10"><a xlink:href="../../d9/d76/classBtEditTextPage.html" target="_top" xlink:title=" ">
<polygon fill="white" stroke="black" points="758,-325.5 758,-679.5 931,-679.5 931,-325.5 758,-325.5"/>
<text text-anchor="middle" x="844.5" y="-667.5" font-family="Helvetica,sans-Serif" font-size="10.00">BtEditTextPage</text>
<polyline fill="none" stroke="black" points="758,-660.5 931,-660.5 "/>
<text text-anchor="start" x="766" y="-648.5" font-family="Helvetica,sans-Serif" font-size="10.00">+ alignCenter</text>
<text text-anchor="start" x="766" y="-637.5" font-family="Helvetica,sans-Serif" font-size="10.00">+ alignLeft</text>
<text text-anchor="start" x="766" y="-626.5" font-family="Helvetica,sans-Serif" font-size="10.00">+ alignRight</text>
<text text-anchor="start" x="766" y="-615.5" font-family="Helvetica,sans-Serif" font-size="10.00">+ bold</text>
<text text-anchor="start" x="766" y="-604.5" font-family="Helvetica,sans-Serif" font-size="10.00">+ italic</text>
<text text-anchor="start" x="766" y="-593.5" font-family="Helvetica,sans-Serif" font-size="10.00">+ underline</text>
<text text-anchor="start" x="766" y="-582.5" font-family="Helvetica,sans-Serif" font-size="10.00">&#45; m_actions</text>
<text text-anchor="start" x="766" y="-571.5" font-family="Helvetica,sans-Serif" font-size="10.00">&#45; m_handingFormatChangeFrom</text>
<text text-anchor="start" x="766" y="-560.5" font-family="Helvetica,sans-Serif" font-size="10.00">Editor</text>
<text text-anchor="start" x="766" y="-549.5" font-family="Helvetica,sans-Serif" font-size="10.00">&#45; m_htmlMode</text>
<text text-anchor="start" x="766" y="-538.5" font-family="Helvetica,sans-Serif" font-size="10.00">&#45; m_htmlTextEdit</text>
<text text-anchor="start" x="766" y="-527.5" font-family="Helvetica,sans-Serif" font-size="10.00">&#45; m_plainTextEdit</text>
<text text-anchor="start" x="766" y="-516.5" font-family="Helvetica,sans-Serif" font-size="10.00">&#45; m_plainTextFont</text>
<text text-anchor="start" x="766" y="-505.5" font-family="Helvetica,sans-Serif" font-size="10.00">&#45; m_text</text>
<text text-anchor="start" x="766" y="-494.5" font-family="Helvetica,sans-Serif" font-size="10.00">&#45; m_toolBar</text>
<text text-anchor="start" x="766" y="-483.5" font-family="Helvetica,sans-Serif" font-size="10.00">&#45; m_wizard</text>
<polyline fill="none" stroke="black" points="758,-476.5 931,-476.5 "/>
<text text-anchor="start" x="766" y="-464.5" font-family="Helvetica,sans-Serif" font-size="10.00">+ BtEditTextPage()</text>
<text text-anchor="start" x="766" y="-453.5" font-family="Helvetica,sans-Serif" font-size="10.00">+ cleanupPage()</text>
<text text-anchor="start" x="766" y="-442.5" font-family="Helvetica,sans-Serif" font-size="10.00">+ initializePage()</text>
<text text-anchor="start" x="766" y="-431.5" font-family="Helvetica,sans-Serif" font-size="10.00">+ setFont()</text>
<text text-anchor="start" x="766" y="-420.5" font-family="Helvetica,sans-Serif" font-size="10.00">+ setText()</text>
<text text-anchor="start" x="766" y="-409.5" font-family="Helvetica,sans-Serif" font-size="10.00">+ setTitle()</text>
<text text-anchor="start" x="766" y="-398.5" font-family="Helvetica,sans-Serif" font-size="10.00">+ text()</text>
<text text-anchor="start" x="766" y="-387.5" font-family="Helvetica,sans-Serif" font-size="10.00">+ validatePage()</text>
<text text-anchor="start" x="766" y="-376.5" font-family="Helvetica,sans-Serif" font-size="10.00">&#45; alignmentChanged()</text>
<text text-anchor="start" x="766" y="-365.5" font-family="Helvetica,sans-Serif" font-size="10.00">&#45; initActions()</text>
<text text-anchor="start" x="766" y="-354.5" font-family="Helvetica,sans-Serif" font-size="10.00">&#45; initHtmlFont()</text>
<text text-anchor="start" x="766" y="-343.5" font-family="Helvetica,sans-Serif" font-size="10.00">&#45; retranslateUi()</text>
<text text-anchor="start" x="766" y="-332.5" font-family="Helvetica,sans-Serif" font-size="10.00">&#45; setupToolBar()</text>
</a>
</g>
</g>
<!-- Node1&#45;&gt;Node10 -->
<g id="edge9" class="edge">
<title>Node1&#45;&gt;Node10</title>
<path fill="none" stroke="midnightblue" d="M844.5,-706.18C844.5,-698.22 844.5,-689.35 844.5,-679.87"/>
<polygon fill="none" stroke="midnightblue" points="841,-706.41 844.5,-716.41 848,-706.41 841,-706.41"/>
</g>
<!-- Node11 -->
<g id="node11" class="node">
<title>Node11</title>
<g id="a_node11"><a xlink:href="../../d5/dcc/classBtPlainOrHtmlPage.html" target="_top" xlink:title=" ">
<polygon fill="white" stroke="black" points="949,-441 949,-564 1092,-564 1092,-441 949,-441"/>
<text text-anchor="middle" x="1020.5" y="-552" font-family="Helvetica,sans-Serif" font-size="10.00">BtPlainOrHtmlPage</text>
<polyline fill="none" stroke="black" points="949,-545 1092,-545 "/>
<text text-anchor="start" x="957" y="-533" font-family="Helvetica,sans-Serif" font-size="10.00">&#45; m_groupBox</text>
<text text-anchor="start" x="957" y="-522" font-family="Helvetica,sans-Serif" font-size="10.00">&#45; m_htmlRadioButton</text>
<text text-anchor="start" x="957" y="-511" font-family="Helvetica,sans-Serif" font-size="10.00">&#45; m_plainTextRadioButton</text>
<text text-anchor="start" x="957" y="-500" font-family="Helvetica,sans-Serif" font-size="10.00">&#45; m_verticalLayout</text>
<polyline fill="none" stroke="black" points="949,-493 1092,-493 "/>
<text text-anchor="start" x="957" y="-481" font-family="Helvetica,sans-Serif" font-size="10.00">+ BtPlainOrHtmlPage()</text>
<text text-anchor="start" x="957" y="-470" font-family="Helvetica,sans-Serif" font-size="10.00">+ htmlMode()</text>
<text text-anchor="start" x="957" y="-459" font-family="Helvetica,sans-Serif" font-size="10.00">+ setHtmlMode()</text>
<text text-anchor="start" x="957" y="-448" font-family="Helvetica,sans-Serif" font-size="10.00">&#45; retranslateUi()</text>
</a>
</g>
</g>
<!-- Node1&#45;&gt;Node11 -->
<g id="edge10" class="edge">
<title>Node1&#45;&gt;Node11</title>
<path fill="none" stroke="midnightblue" d="M894.19,-718.28C910.49,-708.04 927.7,-695.07 940.5,-680 969.14,-646.28 989.47,-600.63 1002.46,-564.21"/>
<polygon fill="none" stroke="midnightblue" points="892,-715.51 885.25,-723.68 895.62,-721.5 892,-715.51"/>
</g>
<!-- Node3 -->
<g id="node3" class="node">
<title>Node3</title>
<g id="a_node3"><a xlink:href="../../de/d0a/classBtBookshelfInstallFinalPage.html" target="_top" xlink:title=" ">
<polygon fill="white" stroke="black" points="0,-0.5 0,-288.5 179,-288.5 179,-0.5 0,-0.5"/>
<text text-anchor="middle" x="89.5" y="-276.5" font-family="Helvetica,sans-Serif" font-size="10.00">BtBookshelfInstallFinalPage</text>
<polyline fill="none" stroke="black" points="0,-269.5 179,-269.5 "/>
<text text-anchor="start" x="8" y="-257.5" font-family="Helvetica,sans-Serif" font-size="10.00">&#45; m_installCompleted</text>
<text text-anchor="start" x="8" y="-246.5" font-family="Helvetica,sans-Serif" font-size="10.00">&#45; m_installFailed</text>
<text text-anchor="start" x="8" y="-235.5" font-family="Helvetica,sans-Serif" font-size="10.00">&#45; m_lastStatus</text>
<text text-anchor="start" x="8" y="-224.5" font-family="Helvetica,sans-Serif" font-size="10.00">&#45; m_modules</text>
<text text-anchor="start" x="8" y="-213.5" font-family="Helvetica,sans-Serif" font-size="10.00">&#45; m_msgLabel</text>
<text text-anchor="start" x="8" y="-202.5" font-family="Helvetica,sans-Serif" font-size="10.00">&#45; m_msgLabel2</text>
<text text-anchor="start" x="8" y="-191.5" font-family="Helvetica,sans-Serif" font-size="10.00">&#45; m_progressBar</text>
<text text-anchor="start" x="8" y="-180.5" font-family="Helvetica,sans-Serif" font-size="10.00">&#45; m_stopButton</text>
<text text-anchor="start" x="8" y="-169.5" font-family="Helvetica,sans-Serif" font-size="10.00">&#45; m_thread</text>
<text text-anchor="start" x="8" y="-158.5" font-family="Helvetica,sans-Serif" font-size="10.00">&#45; m_verticalLayout</text>
<polyline fill="none" stroke="black" points="0,-151.5 179,-151.5 "/>
<text text-anchor="start" x="8" y="-139.5" font-family="Helvetica,sans-Serif" font-size="10.00">+ BtBookshelfInstallFinalPage()</text>
<text text-anchor="start" x="8" y="-128.5" font-family="Helvetica,sans-Serif" font-size="10.00">+ destroyThread()</text>
<text text-anchor="start" x="8" y="-117.5" font-family="Helvetica,sans-Serif" font-size="10.00">+ initializePage()</text>
<text text-anchor="start" x="8" y="-106.5" font-family="Helvetica,sans-Serif" font-size="10.00">+ isComplete()</text>
<text text-anchor="start" x="8" y="-95.5" font-family="Helvetica,sans-Serif" font-size="10.00">+ nextId()</text>
<text text-anchor="start" x="8" y="-84.5" font-family="Helvetica,sans-Serif" font-size="10.00">+ selectedWorks()</text>
<text text-anchor="start" x="8" y="-73.5" font-family="Helvetica,sans-Serif" font-size="10.00">+ ~BtBookshelfInstallFinalPage()</text>
<text text-anchor="start" x="8" y="-62.5" font-family="Helvetica,sans-Serif" font-size="10.00">+ slotStopInstall()</text>
<text text-anchor="start" x="8" y="-51.5" font-family="Helvetica,sans-Serif" font-size="10.00">&#45; retranslateUi()</text>
<text text-anchor="start" x="8" y="-40.5" font-family="Helvetica,sans-Serif" font-size="10.00">&#45; slotInstallStarted()</text>
<text text-anchor="start" x="8" y="-29.5" font-family="Helvetica,sans-Serif" font-size="10.00">&#45; slotOneItemCompleted()</text>
<text text-anchor="start" x="8" y="-18.5" font-family="Helvetica,sans-Serif" font-size="10.00">&#45; slotStatusUpdated()</text>
<text text-anchor="start" x="8" y="-7.5" font-family="Helvetica,sans-Serif" font-size="10.00">&#45; slotThreadFinished()</text>
</a>
</g>
</g>
<!-- Node2&#45;&gt;Node3 -->
<g id="edge2" class="edge">
<title>Node2&#45;&gt;Node3</title>
<path fill="none" stroke="midnightblue" d="M577.84,-478.67C476.36,-448.35 306.25,-386.94 188.5,-289 185.36,-286.39 182.27,-283.65 179.25,-280.81"/>
<polygon fill="none" stroke="midnightblue" points="576.86,-482.03 587.44,-481.5 578.84,-475.31 576.86,-482.03"/>
</g>
<!-- Node4 -->
<g id="node4" class="node">
<title>Node4</title>
<g id="a_node4"><a xlink:href="../../d8/d7f/classBtBookshelfLanguagesPage.html" target="_top" xlink:title=" ">
<polygon fill="white" stroke="black" points="197.5,-55.5 197.5,-233.5 367.5,-233.5 367.5,-55.5 197.5,-55.5"/>
<text text-anchor="middle" x="282.5" y="-221.5" font-family="Helvetica,sans-Serif" font-size="10.00">BtBookshelfLanguagesPage</text>
<polyline fill="none" stroke="black" points="197.5,-214.5 367.5,-214.5 "/>
<text text-anchor="start" x="205.5" y="-202.5" font-family="Helvetica,sans-Serif" font-size="10.00">&#45; m_firstTimeInit</text>
<text text-anchor="start" x="205.5" y="-191.5" font-family="Helvetica,sans-Serif" font-size="10.00">&#45; m_languagesListView</text>
<text text-anchor="start" x="205.5" y="-180.5" font-family="Helvetica,sans-Serif" font-size="10.00">&#45; m_model</text>
<text text-anchor="start" x="205.5" y="-169.5" font-family="Helvetica,sans-Serif" font-size="10.00">&#45; m_verticalLayout</text>
<polyline fill="none" stroke="black" points="197.5,-162.5 367.5,-162.5 "/>
<text text-anchor="start" x="205.5" y="-150.5" font-family="Helvetica,sans-Serif" font-size="10.00">+ BtBookshelfLanguagesPage()</text>
<text text-anchor="start" x="205.5" y="-139.5" font-family="Helvetica,sans-Serif" font-size="10.00">+ initializeLanguages()</text>
<text text-anchor="start" x="205.5" y="-128.5" font-family="Helvetica,sans-Serif" font-size="10.00">+ initializePage()</text>
<text text-anchor="start" x="205.5" y="-117.5" font-family="Helvetica,sans-Serif" font-size="10.00">+ isComplete()</text>
<text text-anchor="start" x="205.5" y="-106.5" font-family="Helvetica,sans-Serif" font-size="10.00">+ nextId()</text>
<text text-anchor="start" x="205.5" y="-95.5" font-family="Helvetica,sans-Serif" font-size="10.00">+ selectedLanguages()</text>
<text text-anchor="start" x="205.5" y="-84.5" font-family="Helvetica,sans-Serif" font-size="10.00">+ skipPage()</text>
<text text-anchor="start" x="205.5" y="-73.5" font-family="Helvetica,sans-Serif" font-size="10.00">&#45; retranslateUi()</text>
<text text-anchor="start" x="205.5" y="-62.5" font-family="Helvetica,sans-Serif" font-size="10.00">&#45; slotDataChanged()</text>
</a>
</g>
</g>
<!-- Node2&#45;&gt;Node4 -->
<g id="edge3" class="edge">
<title>Node2&#45;&gt;Node4</title>
<path fill="none" stroke="midnightblue" d="M598.89,-463.11C537.11,-424.34 443.67,-360.15 376.5,-289 360.86,-272.43 346.17,-252.95 333.26,-233.78"/>
<polygon fill="none" stroke="midnightblue" points="597.05,-466.08 607.39,-468.4 600.75,-460.14 597.05,-466.08"/>
</g>
<!-- Node5 -->
<g id="node5" class="node">
<title>Node5</title>
<g id="a_node5"><a xlink:href="../../d0/dfd/classBtBookshelfRemoveFinalPage.html" target="_top" xlink:title=" ">
<polygon fill="white" stroke="black" points="385.5,-88.5 385.5,-200.5 567.5,-200.5 567.5,-88.5 385.5,-88.5"/>
<text text-anchor="middle" x="476.5" y="-188.5" font-family="Helvetica,sans-Serif" font-size="10.00">BtBookshelfRemoveFinalPage</text>
<polyline fill="none" stroke="black" points="385.5,-181.5 567.5,-181.5 "/>
<text text-anchor="start" x="393.5" y="-169.5" font-family="Helvetica,sans-Serif" font-size="10.00">&#45; m_msgLabel</text>
<text text-anchor="start" x="393.5" y="-158.5" font-family="Helvetica,sans-Serif" font-size="10.00">&#45; m_verticalLayout</text>
<polyline fill="none" stroke="black" points="385.5,-151.5 567.5,-151.5 "/>
<text text-anchor="start" x="393.5" y="-139.5" font-family="Helvetica,sans-Serif" font-size="10.00">+ BtBookshelfRemoveFinalPage()</text>
<text text-anchor="start" x="393.5" y="-128.5" font-family="Helvetica,sans-Serif" font-size="10.00">+ initializePage()</text>
<text text-anchor="start" x="393.5" y="-117.5" font-family="Helvetica,sans-Serif" font-size="10.00">+ isComplete()</text>
<text text-anchor="start" x="393.5" y="-106.5" font-family="Helvetica,sans-Serif" font-size="10.00">+ nextId()</text>
<text text-anchor="start" x="393.5" y="-95.5" font-family="Helvetica,sans-Serif" font-size="10.00">&#45; retranslateUi()</text>
</a>
</g>
</g>
<!-- Node2&#45;&gt;Node5 -->
<g id="edge4" class="edge">
<title>Node2&#45;&gt;Node5</title>
<path fill="none" stroke="midnightblue" d="M641.31,-459.26C607.48,-394.85 542.97,-272.04 505.48,-200.66"/>
<polygon fill="none" stroke="midnightblue" points="638.33,-461.1 646.08,-468.33 644.52,-457.85 638.33,-461.1"/>
</g>
<!-- Node6 -->
<g id="node6" class="node">
<title>Node6</title>
<g id="a_node6"><a xlink:href="../../d2/de4/classBtBookshelfSourcesPage.html" target="_top" xlink:title=" ">
<polygon fill="white" stroke="black" points="585.5,-55.5 585.5,-233.5 741.5,-233.5 741.5,-55.5 585.5,-55.5"/>
<text text-anchor="middle" x="663.5" y="-221.5" font-family="Helvetica,sans-Serif" font-size="10.00">BtBookshelfSourcesPage</text>
<polyline fill="none" stroke="black" points="585.5,-214.5 741.5,-214.5 "/>
<text text-anchor="start" x="593.5" y="-202.5" font-family="Helvetica,sans-Serif" font-size="10.00">&#45; m_firstTimeInit</text>
<text text-anchor="start" x="593.5" y="-191.5" font-family="Helvetica,sans-Serif" font-size="10.00">&#45; m_model</text>
<text text-anchor="start" x="593.5" y="-180.5" font-family="Helvetica,sans-Serif" font-size="10.00">&#45; m_sourcesTableView</text>
<text text-anchor="start" x="593.5" y="-169.5" font-family="Helvetica,sans-Serif" font-size="10.00">&#45; m_verticalLayout</text>
<polyline fill="none" stroke="black" points="585.5,-162.5 741.5,-162.5 "/>
<text text-anchor="start" x="593.5" y="-150.5" font-family="Helvetica,sans-Serif" font-size="10.00">+ BtBookshelfSourcesPage()</text>
<text text-anchor="start" x="593.5" y="-139.5" font-family="Helvetica,sans-Serif" font-size="10.00">+ initializePage()</text>
<text text-anchor="start" x="593.5" y="-128.5" font-family="Helvetica,sans-Serif" font-size="10.00">+ isComplete()</text>
<text text-anchor="start" x="593.5" y="-117.5" font-family="Helvetica,sans-Serif" font-size="10.00">+ nextId()</text>
<text text-anchor="start" x="593.5" y="-106.5" font-family="Helvetica,sans-Serif" font-size="10.00">+ selectedSources()</text>
<text text-anchor="start" x="593.5" y="-95.5" font-family="Helvetica,sans-Serif" font-size="10.00">&#45; retranslateUi()</text>
<text text-anchor="start" x="593.5" y="-84.5" font-family="Helvetica,sans-Serif" font-size="10.00">&#45; selectSourcesInModel()</text>
<text text-anchor="start" x="593.5" y="-73.5" font-family="Helvetica,sans-Serif" font-size="10.00">&#45; updateSourcesModel()</text>
<text text-anchor="start" x="593.5" y="-62.5" font-family="Helvetica,sans-Serif" font-size="10.00">&#45; slotButtonClicked()</text>
</a>
</g>
</g>
<!-- Node2&#45;&gt;Node6 -->
<g id="edge5" class="edge">
<title>Node2&#45;&gt;Node6</title>
<path fill="none" stroke="midnightblue" d="M663.5,-458.14C663.5,-402.67 663.5,-305.23 663.5,-233.83"/>
<polygon fill="none" stroke="midnightblue" points="660,-458.33 663.5,-468.33 667,-458.33 660,-458.33"/>
</g>
<!-- Node7 -->
<g id="node7" class="node">
<title>Node7</title>
<g id="a_node7"><a xlink:href="../../df/dcc/classBtBookshelfSourcesProgressPage.html" target="_top" xlink:title=" ">
<polygon fill="white" stroke="black" points="759.5,-50 759.5,-239 965.5,-239 965.5,-50 759.5,-50"/>
<text text-anchor="middle" x="862.5" y="-227" font-family="Helvetica,sans-Serif" font-size="10.00">BtBookshelfSourcesProgressPage</text>
<polyline fill="none" stroke="black" points="759.5,-220 965.5,-220 "/>
<text text-anchor="start" x="767.5" y="-208" font-family="Helvetica,sans-Serif" font-size="10.00">&#45; m_installCompleted</text>
<text text-anchor="start" x="767.5" y="-197" font-family="Helvetica,sans-Serif" font-size="10.00">&#45; m_msgLabel</text>
<text text-anchor="start" x="767.5" y="-186" font-family="Helvetica,sans-Serif" font-size="10.00">&#45; m_progressBar</text>
<text text-anchor="start" x="767.5" y="-175" font-family="Helvetica,sans-Serif" font-size="10.00">&#45; m_stopButton</text>
<text text-anchor="start" x="767.5" y="-164" font-family="Helvetica,sans-Serif" font-size="10.00">&#45; m_thread</text>
<polyline fill="none" stroke="black" points="759.5,-157 965.5,-157 "/>
<text text-anchor="start" x="767.5" y="-145" font-family="Helvetica,sans-Serif" font-size="10.00">+ BtBookshelfSourcesProgressPage()</text>
<text text-anchor="start" x="767.5" y="-134" font-family="Helvetica,sans-Serif" font-size="10.00">+ destroyThread()</text>
<text text-anchor="start" x="767.5" y="-123" font-family="Helvetica,sans-Serif" font-size="10.00">+ initializePage()</text>
<text text-anchor="start" x="767.5" y="-112" font-family="Helvetica,sans-Serif" font-size="10.00">+ isComplete()</text>
<text text-anchor="start" x="767.5" y="-101" font-family="Helvetica,sans-Serif" font-size="10.00">+ nextId()</text>
<text text-anchor="start" x="767.5" y="-90" font-family="Helvetica,sans-Serif" font-size="10.00">+ ~BtBookshelfSourcesProgressPage()</text>
<text text-anchor="start" x="767.5" y="-79" font-family="Helvetica,sans-Serif" font-size="10.00">+ slotStopInstall()</text>
<text text-anchor="start" x="767.5" y="-68" font-family="Helvetica,sans-Serif" font-size="10.00">&#45; retranslateUi()</text>
<text text-anchor="start" x="767.5" y="-57" font-family="Helvetica,sans-Serif" font-size="10.00">&#45; slotThreadFinished()</text>
</a>
</g>
</g>
<!-- Node2&#45;&gt;Node7 -->
<g id="edge6" class="edge">
<title>Node2&#45;&gt;Node7</title>
<path fill="none" stroke="midnightblue" d="M682.56,-459.15C699.21,-422.98 724.56,-369.85 749.5,-325 765.25,-296.68 783.53,-266.62 800.73,-239.36"/>
<polygon fill="none" stroke="midnightblue" points="679.29,-457.88 678.31,-468.43 685.66,-460.79 679.29,-457.88"/>
</g>
<!-- Node8 -->
<g id="node8" class="node">
<title>Node8</title>
<g id="a_node8"><a xlink:href="../../d3/d1b/classBtBookshelfTaskPage.html" target="_top" xlink:title=" ">
<polygon fill="white" stroke="black" points="983.5,-66.5 983.5,-222.5 1123.5,-222.5 1123.5,-66.5 983.5,-66.5"/>
<text text-anchor="middle" x="1053.5" y="-210.5" font-family="Helvetica,sans-Serif" font-size="10.00">BtBookshelfTaskPage</text>
<polyline fill="none" stroke="black" points="983.5,-203.5 1123.5,-203.5 "/>
<text text-anchor="start" x="991.5" y="-191.5" font-family="Helvetica,sans-Serif" font-size="10.00">&#45; m_groupBox</text>
<text text-anchor="start" x="991.5" y="-180.5" font-family="Helvetica,sans-Serif" font-size="10.00">&#45; m_installRadioButton</text>
<text text-anchor="start" x="991.5" y="-169.5" font-family="Helvetica,sans-Serif" font-size="10.00">&#45; m_removeRadioButton</text>
<text text-anchor="start" x="991.5" y="-158.5" font-family="Helvetica,sans-Serif" font-size="10.00">&#45; m_updateRadioButton</text>
<text text-anchor="start" x="991.5" y="-147.5" font-family="Helvetica,sans-Serif" font-size="10.00">&#45; m_verticalLayout</text>
<text text-anchor="start" x="991.5" y="-136.5" font-family="Helvetica,sans-Serif" font-size="10.00">&#45; m_warningLabel</text>
<polyline fill="none" stroke="black" points="983.5,-129.5 1123.5,-129.5 "/>
<text text-anchor="start" x="991.5" y="-117.5" font-family="Helvetica,sans-Serif" font-size="10.00">+ BtBookshelfTaskPage()</text>
<text text-anchor="start" x="991.5" y="-106.5" font-family="Helvetica,sans-Serif" font-size="10.00">+ nextId()</text>
<text text-anchor="start" x="991.5" y="-95.5" font-family="Helvetica,sans-Serif" font-size="10.00">+ taskType()</text>
<text text-anchor="start" x="991.5" y="-84.5" font-family="Helvetica,sans-Serif" font-size="10.00">&#45; retranslateUi()</text>
<text text-anchor="start" x="991.5" y="-73.5" font-family="Helvetica,sans-Serif" font-size="10.00">&#45; timeToUpdate()</text>
</a>
</g>
</g>
<!-- Node2&#45;&gt;Node8 -->
<g id="edge7" class="edge">
<title>Node2&#45;&gt;Node8</title>
<path fill="none" stroke="midnightblue" d="M672.45,-458.51C683.36,-417.47 705.99,-357.26 749.5,-325 830.85,-264.68 891.67,-347.27 974.5,-289 997.64,-272.72 1014.73,-247.41 1026.97,-222.56"/>
<polygon fill="none" stroke="midnightblue" points="669.05,-457.69 669.99,-468.24 675.84,-459.41 669.05,-457.69"/>
</g>
<!-- Node9 -->
<g id="node9" class="node">
<title>Node9</title>
<g id="a_node9"><a xlink:href="../../df/d7e/classBtBookshelfWorksPage.html" target="_top" xlink:title=" ">
<polygon fill="white" stroke="black" points="1142,-6 1142,-283 1311,-283 1311,-6 1142,-6"/>
<text text-anchor="middle" x="1226.5" y="-271" font-family="Helvetica,sans-Serif" font-size="10.00">BtBookshelfWorksPage</text>
<polyline fill="none" stroke="black" points="1142,-264 1311,-264 "/>
<text text-anchor="start" x="1150" y="-252" font-family="Helvetica,sans-Serif" font-size="10.00">&#45; m_bookshelfModel</text>
<text text-anchor="start" x="1150" y="-241" font-family="Helvetica,sans-Serif" font-size="10.00">&#45; m_bookshelfView</text>
<text text-anchor="start" x="1150" y="-230" font-family="Helvetica,sans-Serif" font-size="10.00">&#45; m_contextMenu</text>
<text text-anchor="start" x="1150" y="-219" font-family="Helvetica,sans-Serif" font-size="10.00">&#45; m_groupingButton</text>
<text text-anchor="start" x="1150" y="-208" font-family="Helvetica,sans-Serif" font-size="10.00">&#45; m_groupingLabel</text>
<text text-anchor="start" x="1150" y="-197" font-family="Helvetica,sans-Serif" font-size="10.00">&#45; m_groupingMenu</text>
<text text-anchor="start" x="1150" y="-186" font-family="Helvetica,sans-Serif" font-size="10.00">&#45; m_groupingOrder</text>
<text text-anchor="start" x="1150" y="-175" font-family="Helvetica,sans-Serif" font-size="10.00">&#45; m_installPageModel</text>
<text text-anchor="start" x="1150" y="-164" font-family="Helvetica,sans-Serif" font-size="10.00">&#45; m_itemContextMenu</text>
<text text-anchor="start" x="1150" y="-153" font-family="Helvetica,sans-Serif" font-size="10.00">&#45; m_msgLabel</text>
<text text-anchor="start" x="1150" y="-142" font-family="Helvetica,sans-Serif" font-size="10.00">and 6 more...</text>
<polyline fill="none" stroke="black" points="1142,-135 1311,-135 "/>
<text text-anchor="start" x="1150" y="-123" font-family="Helvetica,sans-Serif" font-size="10.00">+ BtBookshelfWorksPage()</text>
<text text-anchor="start" x="1150" y="-112" font-family="Helvetica,sans-Serif" font-size="10.00">+ checkedModules()</text>
<text text-anchor="start" x="1150" y="-101" font-family="Helvetica,sans-Serif" font-size="10.00">+ initializePage()</text>
<text text-anchor="start" x="1150" y="-90" font-family="Helvetica,sans-Serif" font-size="10.00">+ installPath()</text>
<text text-anchor="start" x="1150" y="-79" font-family="Helvetica,sans-Serif" font-size="10.00">+ isComplete()</text>
<text text-anchor="start" x="1150" y="-68" font-family="Helvetica,sans-Serif" font-size="10.00">+ nextId()</text>
<text text-anchor="start" x="1150" y="-57" font-family="Helvetica,sans-Serif" font-size="10.00">&#45; retranslateUi()</text>
<text text-anchor="start" x="1150" y="-46" font-family="Helvetica,sans-Serif" font-size="10.00">&#45; slotGroupingActionTriggered()</text>
<text text-anchor="start" x="1150" y="-35" font-family="Helvetica,sans-Serif" font-size="10.00">&#45; slotGroupingOrderChanged()</text>
<text text-anchor="start" x="1150" y="-24" font-family="Helvetica,sans-Serif" font-size="10.00">&#45; slotInitPathCombo()</text>
<text text-anchor="start" x="1150" y="-13" font-family="Helvetica,sans-Serif" font-size="10.00">&#45; slotPathChanged()</text>
</a>
</g>
</g>
<!-- Node2&#45;&gt;Node9 -->
<g id="edge8" class="edge">
<title>Node2&#45;&gt;Node9</title>
<path fill="none" stroke="midnightblue" d="M671.83,-458.61C682.33,-417.09 704.71,-356.01 749.5,-325 890.07,-227.68 986.06,-377.24 1132.5,-289 1135.69,-287.08 1138.79,-285 1141.81,-282.79"/>
<polygon fill="none" stroke="midnightblue" points="668.4,-457.92 669.47,-468.46 675.2,-459.55 668.4,-457.92"/>
</g>
</g>
</svg>
