<?xml version="1.0" encoding="UTF-8" standalone="no"?>
<!DOCTYPE svg PUBLIC "-//W3C//DTD SVG 1.1//EN"
 "http://www.w3.org/Graphics/SVG/1.1/DTD/svg11.dtd">
<!-- Generated by graphviz version 2.43.0 (0)
 -->
<!-- Title: BtBookshelfTaskPage Pages: 1 -->
<svg width="160pt" height="364pt"
 viewBox="0.00 0.00 160.00 364.00" xmlns="http://www.w3.org/2000/svg" xmlns:xlink="http://www.w3.org/1999/xlink">
<g id="graph0" class="graph" transform="scale(1 1) rotate(0) translate(4 360)">
<title>BtBookshelfTaskPage</title>
<polygon fill="white" stroke="transparent" points="-4,4 -4,-360 156,-360 156,4 -4,4"/>
<!-- Node1 -->
<g id="node1" class="node">
<title>Node1</title>
<g id="a_node1"><a xlink:title=" ">
<polygon fill="#bfbfbf" stroke="black" points="6,-0.5 6,-156.5 146,-156.5 146,-0.5 6,-0.5"/>
<text text-anchor="middle" x="76" y="-144.5" font-family="Helvetica,sans-Serif" font-size="10.00">BtBookshelfTaskPage</text>
<polyline fill="none" stroke="black" points="6,-137.5 146,-137.5 "/>
<text text-anchor="start" x="14" y="-125.5" font-family="Helvetica,sans-Serif" font-size="10.00">&#45; m_groupBox</text>
<text text-anchor="start" x="14" y="-114.5" font-family="Helvetica,sans-Serif" font-size="10.00">&#45; m_installRadioButton</text>
<text text-anchor="start" x="14" y="-103.5" font-family="Helvetica,sans-Serif" font-size="10.00">&#45; m_removeRadioButton</text>
<text text-anchor="start" x="14" y="-92.5" font-family="Helvetica,sans-Serif" font-size="10.00">&#45; m_updateRadioButton</text>
<text text-anchor="start" x="14" y="-81.5" font-family="Helvetica,sans-Serif" font-size="10.00">&#45; m_verticalLayout</text>
<text text-anchor="start" x="14" y="-70.5" font-family="Helvetica,sans-Serif" font-size="10.00">&#45; m_warningLabel</text>
<polyline fill="none" stroke="black" points="6,-63.5 146,-63.5 "/>
<text text-anchor="start" x="14" y="-51.5" font-family="Helvetica,sans-Serif" font-size="10.00">+ BtBookshelfTaskPage()</text>
<text text-anchor="start" x="14" y="-40.5" font-family="Helvetica,sans-Serif" font-size="10.00">+ nextId()</text>
<text text-anchor="start" x="14" y="-29.5" font-family="Helvetica,sans-Serif" font-size="10.00">+ taskType()</text>
<text text-anchor="start" x="14" y="-18.5" font-family="Helvetica,sans-Serif" font-size="10.00">&#45; retranslateUi()</text>
<text text-anchor="start" x="14" y="-7.5" font-family="Helvetica,sans-Serif" font-size="10.00">&#45; timeToUpdate()</text>
</a>
</g>
</g>
<!-- Node2 -->
<g id="node2" class="node">
<title>Node2</title>
<g id="a_node2"><a xlink:href="../../da/dee/classBtBookshelfWizardPage.html" target="_top" xlink:title=" ">
<polygon fill="white" stroke="black" points="0,-193.5 0,-261.5 152,-261.5 152,-193.5 0,-193.5"/>
<text text-anchor="middle" x="76" y="-249.5" font-family="Helvetica,sans-Serif" font-size="10.00">BtBookshelfWizardPage</text>
<polyline fill="none" stroke="black" points="0,-242.5 152,-242.5 "/>
<text text-anchor="middle" x="76" y="-230.5" font-family="Helvetica,sans-Serif" font-size="10.00"> </text>
<polyline fill="none" stroke="black" points="0,-223.5 152,-223.5 "/>
<text text-anchor="start" x="8" y="-211.5" font-family="Helvetica,sans-Serif" font-size="10.00">+ BtBookshelfWizardPage()</text>
<text text-anchor="start" x="8" y="-200.5" font-family="Helvetica,sans-Serif" font-size="10.00">+ btWizard()</text>
</a>
</g>
</g>
<!-- Node2&#45;&gt;Node1 -->
<g id="edge1" class="edge">
<title>Node2&#45;&gt;Node1</title>
<path fill="none" stroke="midnightblue" d="M76,-183C76,-174.7 76,-165.78 76,-156.79"/>
<polygon fill="none" stroke="midnightblue" points="72.5,-183.14 76,-193.14 79.5,-183.14 72.5,-183.14"/>
</g>
<!-- Node3 -->
<g id="node3" class="node">
<title>Node3</title>
<g id="a_node3"><a xlink:href="../../dc/d67/classQWizardPage.html" target="_top" xlink:title=" ">
<polygon fill="white" stroke="black" points="35.5,-298.5 35.5,-355.5 116.5,-355.5 116.5,-298.5 35.5,-298.5"/>
<text text-anchor="middle" x="76" y="-343.5" font-family="Helvetica,sans-Serif" font-size="10.00">QWizardPage</text>
<polyline fill="none" stroke="black" points="35.5,-336.5 116.5,-336.5 "/>
<text text-anchor="middle" x="76" y="-324.5" font-family="Helvetica,sans-Serif" font-size="10.00"> </text>
<polyline fill="none" stroke="black" points="35.5,-317.5 116.5,-317.5 "/>
<text text-anchor="middle" x="76" y="-305.5" font-family="Helvetica,sans-Serif" font-size="10.00"> </text>
</a>
</g>
</g>
<!-- Node3&#45;&gt;Node2 -->
<g id="edge2" class="edge">
<title>Node3&#45;&gt;Node2</title>
<path fill="none" stroke="midnightblue" d="M76,-288.06C76,-279.39 76,-270.24 76,-261.79"/>
<polygon fill="none" stroke="midnightblue" points="72.5,-288.32 76,-298.32 79.5,-288.32 72.5,-288.32"/>
</g>
</g>
</svg>
