<?xml version="1.0" encoding="UTF-8" standalone="no"?>
<!DOCTYPE svg PUBLIC "-//W3C//DTD SVG 1.1//EN"
 "http://www.w3.org/Graphics/SVG/1.1/DTD/svg11.dtd">
<!-- Generated by graphviz version 2.43.0 (0)
 -->
<!-- Title: anonymous_namespace{btmodulechoosermenu.cpp}::SortModel Pages: 1 -->
<svg width="163pt" height="235pt"
 viewBox="0.00 0.00 163.00 235.00" xmlns="http://www.w3.org/2000/svg" xmlns:xlink="http://www.w3.org/1999/xlink">
<g id="graph0" class="graph" transform="scale(1 1) rotate(0) translate(4 231)">
<title>anonymous_namespace{btmodulechoosermenu.cpp}::SortModel</title>
<!-- Node1 -->
<g id="Node000001" class="node">
<title>Node1</title>
<g id="a_Node000001"><a xlink:title=" ">
<polygon fill="#999999" stroke="transparent" points="155,-142 0,-142 0,0 155,0 155,-142"/>
<text text-anchor="start" x="5.5" y="-130" font-family="Helvetica,sans-Serif" font-size="10.00">anonymous_namespace</text>
<text text-anchor="start" x="5.5" y="-119" font-family="Helvetica,sans-Serif" font-size="10.00">{btmodulechoosermenu.cpp}</text>
<text text-anchor="start" x="50" y="-108" font-family="Helvetica,sans-Serif" font-size="10.00">::SortModel</text>
<text text-anchor="start" x="5.5" y="-93" font-family="Helvetica,sans-Serif" font-size="10.00">+</text>
<text text-anchor="start" x="19.5" y="-93" font-family="Helvetica,sans-Serif" font-size="10.00">m_moduleType</text>
<text text-anchor="start" x="5.5" y="-78" font-family="Helvetica,sans-Serif" font-size="10.00">+</text>
<text text-anchor="start" x="19.5" y="-78" font-family="Helvetica,sans-Serif" font-size="10.00">m_showHidden</text>
<text text-anchor="start" x="5.5" y="-63" font-family="Helvetica,sans-Serif" font-size="10.00">+</text>
<text text-anchor="start" x="19.5" y="-63" font-family="Helvetica,sans-Serif" font-size="10.00">m_sourceModel</text>
<text text-anchor="start" x="5.5" y="-48" font-family="Helvetica,sans-Serif" font-size="10.00">+</text>
<text text-anchor="start" x="19.5" y="-48" font-family="Helvetica,sans-Serif" font-size="10.00">filterAcceptsRow()</text>
<text text-anchor="start" x="5.5" y="-33" font-family="Helvetica,sans-Serif" font-size="10.00">+</text>
<text text-anchor="start" x="19.5" y="-33" font-family="Helvetica,sans-Serif" font-size="10.00">filterAcceptsRowNoHidden</text>
<text text-anchor="start" x="19.5" y="-22" font-family="Helvetica,sans-Serif" font-size="10.00">Check()</text>
<text text-anchor="start" x="5.5" y="-7" font-family="Helvetica,sans-Serif" font-size="10.00">+</text>
<text text-anchor="start" x="19.5" y="-7" font-family="Helvetica,sans-Serif" font-size="10.00">SortModel()</text>
<polygon fill="#666666" stroke="#666666" points="0.5,-103 0.5,-103 155.5,-103 155.5,-103 0.5,-103"/>
<polygon fill="#666666" stroke="#666666" points="0.5,-58 0.5,-58 17.5,-58 17.5,-58 0.5,-58"/>
<polygon fill="#666666" stroke="#666666" points="17.5,-58 17.5,-58 155.5,-58 155.5,-58 17.5,-58"/>
<polygon fill="none" stroke="#666666" points="0,0 0,-142 155,-142 155,0 0,0"/>
</a>
</g>
</g>
<!-- Node2 -->
<g id="Node000002" class="node">
<title>Node2</title>
<g id="a_Node000002"><a xlink:href="../../d1/dde/classQSortFilterProxyModel.html" target="_top" xlink:title=" ">
<polygon fill="white" stroke="transparent" points="137.5,-227 17.5,-227 17.5,-178 137.5,-178 137.5,-227"/>
<text text-anchor="start" x="22.5" y="-214.5" font-family="Helvetica,sans-Serif" font-size="10.00">QSortFilterProxyModel</text>
<text text-anchor="start" x="75.5" y="-199.5" font-family="Helvetica,sans-Serif" font-size="10.00"> </text>
<text text-anchor="start" x="75.5" y="-184.5" font-family="Helvetica,sans-Serif" font-size="10.00"> </text>
<polygon fill="#666666" stroke="#666666" points="17.5,-209.5 17.5,-209.5 137.5,-209.5 137.5,-209.5 17.5,-209.5"/>
<polygon fill="#666666" stroke="#666666" points="17.5,-194.5 17.5,-194.5 137.5,-194.5 137.5,-194.5 17.5,-194.5"/>
<polygon fill="none" stroke="#666666" points="17.5,-178 17.5,-227 137.5,-227 137.5,-178 17.5,-178"/>
</a>
</g>
</g>
<!-- Node2&#45;&gt;Node1 -->
<g id="edge1_Node000001_Node000002" class="edge">
<title>Node2&#45;&gt;Node1</title>
<g id="a_edge1_Node000001_Node000002"><a xlink:title=" ">
<path fill="none" stroke="#63b8ff" d="M77.5,-167.55C77.5,-159.66 77.5,-150.98 77.5,-142.16"/>
<polygon fill="none" stroke="#63b8ff" points="74,-167.75 77.5,-177.75 81,-167.75 74,-167.75"/>
</a>
</g>
</g>
</g>
</svg>
