<?xml version="1.0" encoding="UTF-8" standalone="no"?>
<!DOCTYPE svg PUBLIC "-//W3C//DTD SVG 1.1//EN"
 "http://www.w3.org/Graphics/SVG/1.1/DTD/svg11.dtd">
<!-- Generated by graphviz version 2.43.0 (0)
 -->
<!-- Title: BtBookshelfGroupingMenu Pages: 1 -->
<svg width="174pt" height="248pt"
 viewBox="0.00 0.00 174.00 248.00" xmlns="http://www.w3.org/2000/svg" xmlns:xlink="http://www.w3.org/1999/xlink">
<g id="graph0" class="graph" transform="scale(1 1) rotate(0) translate(4 244)">
<title>BtBookshelfGroupingMenu</title>
<polygon fill="white" stroke="transparent" points="-4,4 -4,-244 170,-244 170,4 -4,4"/>
<!-- Node1 -->
<g id="node1" class="node">
<title>Node1</title>
<g id="a_node1"><a xlink:title=" ">
<polygon fill="#bfbfbf" stroke="black" points="0,-0.5 0,-145.5 166,-145.5 166,-0.5 0,-0.5"/>
<text text-anchor="middle" x="83" y="-133.5" font-family="Helvetica,sans-Serif" font-size="10.00">BtBookshelfGroupingMenu</text>
<polyline fill="none" stroke="black" points="0,-126.5 166,-126.5 "/>
<text text-anchor="start" x="8" y="-114.5" font-family="Helvetica,sans-Serif" font-size="10.00">&#45; m_groupingActionGroup</text>
<text text-anchor="start" x="8" y="-103.5" font-family="Helvetica,sans-Serif" font-size="10.00">&#45; m_groupingCatAction</text>
<text text-anchor="start" x="8" y="-92.5" font-family="Helvetica,sans-Serif" font-size="10.00">&#45; m_groupingCatLangAction</text>
<text text-anchor="start" x="8" y="-81.5" font-family="Helvetica,sans-Serif" font-size="10.00">&#45; m_groupingLangAction</text>
<text text-anchor="start" x="8" y="-70.5" font-family="Helvetica,sans-Serif" font-size="10.00">&#45; m_groupingLangCatAction</text>
<text text-anchor="start" x="8" y="-59.5" font-family="Helvetica,sans-Serif" font-size="10.00">&#45; m_groupingNoneAction</text>
<polyline fill="none" stroke="black" points="0,-52.5 166,-52.5 "/>
<text text-anchor="start" x="8" y="-40.5" font-family="Helvetica,sans-Serif" font-size="10.00">+ BtBookshelfGroupingMenu()</text>
<text text-anchor="start" x="8" y="-29.5" font-family="Helvetica,sans-Serif" font-size="10.00">+ BtBookshelfGroupingMenu()</text>
<text text-anchor="start" x="8" y="-18.5" font-family="Helvetica,sans-Serif" font-size="10.00">&#45; initMenu()</text>
<text text-anchor="start" x="8" y="-7.5" font-family="Helvetica,sans-Serif" font-size="10.00">&#45; retranslateUi()</text>
</a>
</g>
</g>
<!-- Node2 -->
<g id="node2" class="node">
<title>Node2</title>
<g id="a_node2"><a xlink:href="../../de/d3d/classQMenu.html" target="_top" xlink:title=" ">
<polygon fill="white" stroke="black" points="57.5,-182.5 57.5,-239.5 108.5,-239.5 108.5,-182.5 57.5,-182.5"/>
<text text-anchor="middle" x="83" y="-227.5" font-family="Helvetica,sans-Serif" font-size="10.00">QMenu</text>
<polyline fill="none" stroke="black" points="57.5,-220.5 108.5,-220.5 "/>
<text text-anchor="middle" x="83" y="-208.5" font-family="Helvetica,sans-Serif" font-size="10.00"> </text>
<polyline fill="none" stroke="black" points="57.5,-201.5 108.5,-201.5 "/>
<text text-anchor="middle" x="83" y="-189.5" font-family="Helvetica,sans-Serif" font-size="10.00"> </text>
</a>
</g>
</g>
<!-- Node2&#45;&gt;Node1 -->
<g id="edge1" class="edge">
<title>Node2&#45;&gt;Node1</title>
<path fill="none" stroke="midnightblue" d="M83,-172.36C83,-164 83,-154.87 83,-145.66"/>
<polygon fill="none" stroke="midnightblue" points="79.5,-172.48 83,-182.48 86.5,-172.48 79.5,-172.48"/>
</g>
</g>
</svg>
