<?xml version="1.0" encoding="UTF-8" standalone="no"?>
<!DOCTYPE svg PUBLIC "-//W3C//DTD SVG 1.1//EN"
 "http://www.w3.org/Graphics/SVG/1.1/DTD/svg11.dtd">
<!-- Generated by graphviz version 2.43.0 (0)
 -->
<!-- Title: anonymous_namespace{language.cpp}::LanguageMap Pages: 1 -->
<svg width="170pt" height="175pt"
 viewBox="0.00 0.00 170.00 175.00" xmlns="http://www.w3.org/2000/svg" xmlns:xlink="http://www.w3.org/1999/xlink">

<svg id="main" version="1.1" xmlns="http://www.w3.org/2000/svg" xmlns:xlink="http://www.w3.org/1999/xlink" xml:space="preserve" onload="init(evt)">
<style type="text/css"><![CDATA[
.node, .edge {opacity: 0.7;}
.node.selected, .edge.selected {opacity: 1;}
.edge:hover path { stroke: red; }
.edge:hover polygon { stroke: red; fill: red; }
]]></style>
<script type="application/ecmascript" xlink:href="../../svg.min.js"/>
<svg id="graph" class="graph">
<g id="graph0" class="graph" transform="scale(1 1) rotate(0) translate(4 171)">
<title>anonymous_namespace{language.cpp}::LanguageMap</title>
<!-- Node1 -->
<g id="Node000001" class="node">
<title>Node1</title>
<g id="a_Node000001"><a xlink:title=" ">
<polygon fill="#999999" stroke="transparent" points="162,-60 0,-60 0,0 162,0 162,-60"/>
<text text-anchor="start" x="5" y="-48" font-family="Helvetica,sans-Serif" font-size="10.00">anonymous_namespace</text>
<text text-anchor="start" x="5" y="-37" font-family="Helvetica,sans-Serif" font-size="10.00">{language.cpp}::LanguageMap</text>
<text text-anchor="start" x="79" y="-22" font-family="Helvetica,sans-Serif" font-size="10.00"> </text>
<text text-anchor="start" x="20" y="-7" font-family="Helvetica,sans-Serif" font-size="10.00">+</text>
<text text-anchor="start" x="49" y="-7" font-family="Helvetica,sans-Serif" font-size="10.00">LanguageMap()</text>
<polygon fill="#666666" stroke="#666666" points="0,-32 0,-32 162,-32 162,-32 0,-32"/>
<polygon fill="#666666" stroke="#666666" points="0,-17 0,-17 162,-17 162,-17 0,-17"/>
<polygon fill="none" stroke="#666666" points="0,0 0,-60 162,-60 162,0 0,0"/>
</a>
</g>
</g>
<!-- Node2 -->
<g id="Node000002" class="node">
<title>Node2</title>
<g id="a_Node000002"><a xlink:href="../../da/da1/classQHash.html" target="_top" xlink:title=" ">
<polygon fill="white" stroke="transparent" points="144.5,-167 17.5,-167 17.5,-96 144.5,-96 144.5,-167"/>
<text text-anchor="start" x="23" y="-154.5" font-family="Helvetica,sans-Serif" font-size="10.00">QHash&lt; QString, std</text>
<text text-anchor="start" x="23" y="-143.5" font-family="Helvetica,sans-Serif" font-size="10.00">::shared_ptr&lt; Language</text>
<text text-anchor="start" x="54" y="-132.5" font-family="Helvetica,sans-Serif" font-size="10.00"> const &#160;&gt; &gt;</text>
<text text-anchor="start" x="79.5" y="-117.5" font-family="Helvetica,sans-Serif" font-size="10.00"> </text>
<text text-anchor="start" x="79.5" y="-102.5" font-family="Helvetica,sans-Serif" font-size="10.00"> </text>
<polygon fill="#666666" stroke="#666666" points="18,-127.5 18,-127.5 145,-127.5 145,-127.5 18,-127.5"/>
<polygon fill="#666666" stroke="#666666" points="18,-112.5 18,-112.5 145,-112.5 145,-112.5 18,-112.5"/>
<polygon fill="none" stroke="#666666" points="17.5,-96 17.5,-167 144.5,-167 144.5,-96 17.5,-96"/>
</a>
</g>
</g>
<!-- Node2&#45;&gt;Node1 -->
<g id="edge1_Node000001_Node000002" class="edge">
<title>Node2&#45;&gt;Node1</title>
<g id="a_edge1_Node000001_Node000002"><a xlink:title=" ">
<path fill="none" stroke="#63b8ff" d="M81,-85.9C81,-77.17 81,-68.24 81,-60.17"/>
<polygon fill="none" stroke="#63b8ff" points="77.5,-85.98 81,-95.98 84.5,-85.98 77.5,-85.98"/>
</a>
</g>
</g>
</g>
</svg>
</svg>

<style type='text/css'>
<![CDATA[
[data-mouse-over-selected='false'] { opacity: 0.7; }
[data-mouse-over-selected='true']  { opacity: 1.0; }
]]>
</style>
<script type="application/ecmascript"><![CDATA[
document.addEventListener('DOMContentLoaded', (event) => {
  highlightEdges();
  highlightAdjacentNodes();
});
]]></script>
</svg>
