<?xml version="1.0" encoding="UTF-8" standalone="no"?>
<!DOCTYPE svg PUBLIC "-//W3C//DTD SVG 1.1//EN"
 "http://www.w3.org/Graphics/SVG/1.1/DTD/svg11.dtd">
<!-- Generated by graphviz version 2.43.0 (0)
 -->
<!-- Title: anonymous_namespace{language.cpp}::LanguageMap Pages: 1 -->
<svg width="176pt" height="193pt"
 viewBox="0.00 0.00 176.00 193.00" xmlns="http://www.w3.org/2000/svg" xmlns:xlink="http://www.w3.org/1999/xlink">
<g id="graph0" class="graph" transform="scale(1 1) rotate(0) translate(4 189)">
<title>anonymous_namespace{language.cpp}::LanguageMap</title>
<polygon fill="white" stroke="transparent" points="-4,4 -4,-189 172,-189 172,4 -4,4"/>
<!-- Node1 -->
<g id="node1" class="node">
<title>Node1</title>
<g id="a_node1"><a xlink:title=" ">
<polygon fill="#bfbfbf" stroke="black" points="0,-0.5 0,-68.5 168,-68.5 168,-0.5 0,-0.5"/>
<text text-anchor="start" x="8" y="-56.5" font-family="Helvetica,sans-Serif" font-size="10.00">anonymous_namespace</text>
<text text-anchor="middle" x="84" y="-45.5" font-family="Helvetica,sans-Serif" font-size="10.00">{language.cpp}::LanguageMap</text>
<polyline fill="none" stroke="black" points="0,-38.5 168,-38.5 "/>
<text text-anchor="middle" x="84" y="-26.5" font-family="Helvetica,sans-Serif" font-size="10.00"> </text>
<polyline fill="none" stroke="black" points="0,-19.5 168,-19.5 "/>
<text text-anchor="start" x="8" y="-7.5" font-family="Helvetica,sans-Serif" font-size="10.00">+ LanguageMap()</text>
</a>
</g>
</g>
<!-- Node2 -->
<g id="node2" class="node">
<title>Node2</title>
<g id="a_node2"><a xlink:href="../../da/da1/classQHash.html" target="_top" xlink:title=" ">
<polygon fill="white" stroke="black" points="17.5,-105.5 17.5,-184.5 150.5,-184.5 150.5,-105.5 17.5,-105.5"/>
<text text-anchor="start" x="25.5" y="-172.5" font-family="Helvetica,sans-Serif" font-size="10.00">QHash&lt; QString, std</text>
<text text-anchor="start" x="25.5" y="-161.5" font-family="Helvetica,sans-Serif" font-size="10.00">::shared_ptr&lt; Language</text>
<text text-anchor="middle" x="84" y="-150.5" font-family="Helvetica,sans-Serif" font-size="10.00"> const &gt; &gt;</text>
<polyline fill="none" stroke="black" points="17.5,-143.5 150.5,-143.5 "/>
<text text-anchor="middle" x="84" y="-131.5" font-family="Helvetica,sans-Serif" font-size="10.00"> </text>
<polyline fill="none" stroke="black" points="17.5,-124.5 150.5,-124.5 "/>
<text text-anchor="middle" x="84" y="-112.5" font-family="Helvetica,sans-Serif" font-size="10.00"> </text>
</a>
</g>
</g>
<!-- Node2&#45;&gt;Node1 -->
<g id="edge1" class="edge">
<title>Node2&#45;&gt;Node1</title>
<path fill="none" stroke="midnightblue" d="M84,-95.35C84,-86.28 84,-77 84,-68.54"/>
<polygon fill="none" stroke="midnightblue" points="80.5,-95.44 84,-105.44 87.5,-95.44 80.5,-95.44"/>
</g>
</g>
</svg>
