<?xml version="1.0" encoding="UTF-8" standalone="no"?>
<!DOCTYPE svg PUBLIC "-//W3C//DTD SVG 1.1//EN"
 "http://www.w3.org/Graphics/SVG/1.1/DTD/svg11.dtd">
<!-- Generated by graphviz version 2.43.0 (0)
 -->
<!-- Title: BtConfigDialog::Page Pages: 1 -->
<!--zoomable 485 -->
<svg id="main" version="1.1" xmlns="http://www.w3.org/2000/svg" xmlns:xlink="http://www.w3.org/1999/xlink" xml:space="preserve" onload="init(evt)">
<style type="text/css"><![CDATA[
.edge:hover path { stroke: red; }
.edge:hover polygon { stroke: red; fill: red; }
]]></style>
<script type="text/javascript"><![CDATA[
var edges = document.getElementsByTagName('g');
if (edges && edges.length) {
  for (var i=0;i<edges.length;i++) {
    if (edges[i].id.substr(0,4)=='edge') {
      edges[i].setAttribute('class','edge');
    }
  }
}
]]></script>
        <defs>
                <circle id="rim" cx="0" cy="0" r="7"/>
                <circle id="rim2" cx="0" cy="0" r="3.5"/>
                <g id="zoomPlus">
                        <use xlink:href="#rim" fill="#404040">
                                <set attributeName="fill" to="#808080" begin="zoomplus.mouseover" end="zoomplus.mouseout"/>
                        </use>
                        <path d="M-4,0h8M0,-4v8" fill="none" stroke="white" stroke-width="1.5" pointer-events="none"/>
                </g>
                <g id="zoomMin">
                        <use xlink:href="#rim" fill="#404040">
                                <set attributeName="fill" to="#808080" begin="zoomminus.mouseover" end="zoomminus.mouseout"/>
                        </use>
                        <path d="M-4,0h8" fill="none" stroke="white" stroke-width="1.5" pointer-events="none"/>
                </g>
                <g id="dirArrow">
                        <path fill="none" stroke="white" stroke-width="1.5" d="M0,-3.0v7 M-2.5,-0.5L0,-3.0L2.5,-0.5"/>
                </g>
               <g id="resetDef">
                       <use xlink:href="#rim2" fill="#404040">
                               <set attributeName="fill" to="#808080" begin="reset.mouseover" end="reset.mouseout"/>
                       </use>
               </g>
        </defs>

<script type="text/javascript">
var viewWidth = 654;
var viewHeight = 485;
var sectionId = 'dynsection-0';
</script>
<script xlink:href="../../svgpan.js"/>
<svg id="graph" class="graph">
<g id="viewport">
<title>BtConfigDialog::Page</title>
<polygon fill="white" stroke="transparent" points="-4,4 -4,-481 650,-481 650,4 -4,4"/>
<!-- Node1 -->
<g id="node1" class="node">
<title>Node1</title>
<g id="a_node1"><a xlink:title=" ">
<polygon fill="#bfbfbf" stroke="black" points="255.5,-281.5 255.5,-382.5 393.5,-382.5 393.5,-281.5 255.5,-281.5"/>
<text text-anchor="middle" x="324.5" y="-370.5" font-family="Helvetica,sans-Serif" font-size="10.00">BtConfigDialog::Page</text>
<polyline fill="none" stroke="black" points="255.5,-363.5 393.5,-363.5 "/>
<text text-anchor="start" x="263.5" y="-351.5" font-family="Helvetica,sans-Serif" font-size="10.00">&#45; m_listWidgetItem</text>
<text text-anchor="start" x="263.5" y="-340.5" font-family="Helvetica,sans-Serif" font-size="10.00">&#45; m_ownsListWidgetItem</text>
<polyline fill="none" stroke="black" points="255.5,-333.5 393.5,-333.5 "/>
<text text-anchor="start" x="263.5" y="-321.5" font-family="Helvetica,sans-Serif" font-size="10.00">+ Page()</text>
<text text-anchor="start" x="263.5" y="-310.5" font-family="Helvetica,sans-Serif" font-size="10.00">+ save()</text>
<text text-anchor="start" x="263.5" y="-299.5" font-family="Helvetica,sans-Serif" font-size="10.00">+ setHeaderText()</text>
<text text-anchor="start" x="263.5" y="-288.5" font-family="Helvetica,sans-Serif" font-size="10.00">+ ~Page()</text>
</a>
</g>
</g>
<!-- Node3 -->
<g id="node3" class="node">
<title>Node3</title>
<g id="a_node3"><a xlink:href="../../d7/dc3/classBtFontSettingsPage.html" target="_top" xlink:title=" ">
<polygon fill="white" stroke="black" points="0,-50 0,-195 137,-195 137,-50 0,-50"/>
<text text-anchor="middle" x="68.5" y="-183" font-family="Helvetica,sans-Serif" font-size="10.00">BtFontSettingsPage</text>
<polyline fill="none" stroke="black" points="0,-176 137,-176 "/>
<text text-anchor="start" x="8" y="-164" font-family="Helvetica,sans-Serif" font-size="10.00">&#45; m_fontChooser</text>
<text text-anchor="start" x="8" y="-153" font-family="Helvetica,sans-Serif" font-size="10.00">&#45; m_fontsGroupBox</text>
<text text-anchor="start" x="8" y="-142" font-family="Helvetica,sans-Serif" font-size="10.00">&#45; m_languageCheckBox</text>
<text text-anchor="start" x="8" y="-131" font-family="Helvetica,sans-Serif" font-size="10.00">&#45; m_languageComboBox</text>
<text text-anchor="start" x="8" y="-120" font-family="Helvetica,sans-Serif" font-size="10.00">&#45; m_languageLabel</text>
<text text-anchor="start" x="8" y="-109" font-family="Helvetica,sans-Serif" font-size="10.00">&#45; m_workSettings</text>
<polyline fill="none" stroke="black" points="0,-102 137,-102 "/>
<text text-anchor="start" x="8" y="-90" font-family="Helvetica,sans-Serif" font-size="10.00">+ BtFontSettingsPage()</text>
<text text-anchor="start" x="8" y="-79" font-family="Helvetica,sans-Serif" font-size="10.00">+ save()</text>
<text text-anchor="start" x="8" y="-68" font-family="Helvetica,sans-Serif" font-size="10.00"># useOwnFontClicked()</text>
<text text-anchor="start" x="8" y="-57" font-family="Helvetica,sans-Serif" font-size="10.00">&#45; retranslateUi()</text>
</a>
</g>
</g>
<!-- Node1&#45;&gt;Node3 -->
<g id="edge2" class="edge">
<title>Node1&#45;&gt;Node3</title>
<path fill="none" stroke="midnightblue" d="M246.08,-304.5C212.51,-290.48 174.46,-270.76 145.5,-245 129.73,-230.98 115.98,-212.97 104.64,-195.14"/>
<polygon fill="none" stroke="midnightblue" points="244.84,-307.77 255.42,-308.3 247.48,-301.29 244.84,-307.77"/>
</g>
<!-- Node4 -->
<g id="node4" class="node">
<title>Node4</title>
<g id="a_node4"><a xlink:href="../../d7/d1f/classCAcceleratorSettingsPage.html" target="_top" xlink:title="The shortcut settings page.">
<polygon fill="white" stroke="black" points="155,-39 155,-206 316,-206 316,-39 155,-39"/>
<text text-anchor="middle" x="235.5" y="-194" font-family="Helvetica,sans-Serif" font-size="10.00">CAcceleratorSettingsPage</text>
<polyline fill="none" stroke="black" points="155,-187 316,-187 "/>
<text text-anchor="start" x="163" y="-175" font-family="Helvetica,sans-Serif" font-size="10.00">&#45; m_actionGroupLabel</text>
<text text-anchor="start" x="163" y="-164" font-family="Helvetica,sans-Serif" font-size="10.00">&#45; m_application</text>
<text text-anchor="start" x="163" y="-153" font-family="Helvetica,sans-Serif" font-size="10.00">&#45; m_bible</text>
<text text-anchor="start" x="163" y="-142" font-family="Helvetica,sans-Serif" font-size="10.00">&#45; m_book</text>
<text text-anchor="start" x="163" y="-131" font-family="Helvetica,sans-Serif" font-size="10.00">&#45; m_commentary</text>
<text text-anchor="start" x="163" y="-120" font-family="Helvetica,sans-Serif" font-size="10.00">&#45; m_general</text>
<text text-anchor="start" x="163" y="-109" font-family="Helvetica,sans-Serif" font-size="10.00">&#45; m_keyChooserStack</text>
<text text-anchor="start" x="163" y="-98" font-family="Helvetica,sans-Serif" font-size="10.00">&#45; m_lexicon</text>
<text text-anchor="start" x="163" y="-87" font-family="Helvetica,sans-Serif" font-size="10.00">&#45; m_typeChooser</text>
<polyline fill="none" stroke="black" points="155,-80 316,-80 "/>
<text text-anchor="start" x="163" y="-68" font-family="Helvetica,sans-Serif" font-size="10.00">+ CAcceleratorSettingsPage()</text>
<text text-anchor="start" x="163" y="-57" font-family="Helvetica,sans-Serif" font-size="10.00">+ save()</text>
<text text-anchor="start" x="163" y="-46" font-family="Helvetica,sans-Serif" font-size="10.00"># retranslateUi()</text>
</a>
</g>
</g>
<!-- Node1&#45;&gt;Node4 -->
<g id="edge3" class="edge">
<title>Node1&#45;&gt;Node4</title>
<path fill="none" stroke="midnightblue" d="M299.23,-272.08C290.42,-251.55 280.37,-228.11 270.89,-206.02"/>
<polygon fill="none" stroke="midnightblue" points="296.02,-273.49 303.18,-281.3 302.46,-270.73 296.02,-273.49"/>
</g>
<!-- Node5 -->
<g id="node5" class="node">
<title>Node5</title>
<g id="a_node5"><a xlink:href="../../de/d34/classCDisplaySettingsPage.html" target="_top" xlink:title=" ">
<polygon fill="white" stroke="black" points="334.5,-0.5 334.5,-244.5 492.5,-244.5 492.5,-0.5 334.5,-0.5"/>
<text text-anchor="middle" x="413.5" y="-232.5" font-family="Helvetica,sans-Serif" font-size="10.00">CDisplaySettingsPage</text>
<polyline fill="none" stroke="black" points="334.5,-225.5 492.5,-225.5 "/>
<text text-anchor="start" x="342.5" y="-213.5" font-family="Helvetica,sans-Serif" font-size="10.00">&#45; m_availableLabel</text>
<text text-anchor="start" x="342.5" y="-202.5" font-family="Helvetica,sans-Serif" font-size="10.00">&#45; m_languageNamesLabel</text>
<text text-anchor="start" x="342.5" y="-191.5" font-family="Helvetica,sans-Serif" font-size="10.00">&#45; m_lightDarkCombo</text>
<text text-anchor="start" x="342.5" y="-180.5" font-family="Helvetica,sans-Serif" font-size="10.00">&#45; m_lightDarkLabel</text>
<text text-anchor="start" x="342.5" y="-169.5" font-family="Helvetica,sans-Serif" font-size="10.00">&#45; m_previewLabel</text>
<text text-anchor="start" x="342.5" y="-158.5" font-family="Helvetica,sans-Serif" font-size="10.00">&#45; m_showLogoCheck</text>
<text text-anchor="start" x="342.5" y="-147.5" font-family="Helvetica,sans-Serif" font-size="10.00">&#45; m_showLogoLabel</text>
<text text-anchor="start" x="342.5" y="-136.5" font-family="Helvetica,sans-Serif" font-size="10.00">&#45; m_styleChooserCombo</text>
<text text-anchor="start" x="342.5" y="-125.5" font-family="Helvetica,sans-Serif" font-size="10.00">&#45; m_stylePreviewViewer</text>
<text text-anchor="start" x="342.5" y="-114.5" font-family="Helvetica,sans-Serif" font-size="10.00">&#45; m_swordLocaleCombo</text>
<text text-anchor="start" x="342.5" y="-103.5" font-family="Helvetica,sans-Serif" font-size="10.00">&#45; m_transifexLabel</text>
<polyline fill="none" stroke="black" points="334.5,-96.5 492.5,-96.5 "/>
<text text-anchor="start" x="342.5" y="-84.5" font-family="Helvetica,sans-Serif" font-size="10.00">+ CDisplaySettingsPage()</text>
<text text-anchor="start" x="342.5" y="-73.5" font-family="Helvetica,sans-Serif" font-size="10.00">+ save()</text>
<text text-anchor="start" x="342.5" y="-62.5" font-family="Helvetica,sans-Serif" font-size="10.00">+ resetLanguage()</text>
<text text-anchor="start" x="342.5" y="-51.5" font-family="Helvetica,sans-Serif" font-size="10.00"># retranslateUi()</text>
<text text-anchor="start" x="342.5" y="-40.5" font-family="Helvetica,sans-Serif" font-size="10.00">&#45; initSwordLocaleCombo()</text>
<text text-anchor="start" x="342.5" y="-29.5" font-family="Helvetica,sans-Serif" font-size="10.00">&#45; bookNameAbbreviationsTry</text>
<text text-anchor="start" x="342.5" y="-18.5" font-family="Helvetica,sans-Serif" font-size="10.00">Vector()</text>
<text text-anchor="start" x="342.5" y="-7.5" font-family="Helvetica,sans-Serif" font-size="10.00">&#45; updateStylePreview()</text>
</a>
</g>
</g>
<!-- Node1&#45;&gt;Node5 -->
<g id="edge4" class="edge">
<title>Node1&#45;&gt;Node5</title>
<path fill="none" stroke="midnightblue" d="M349.77,-272.08C353.5,-263.39 357.45,-254.17 361.49,-244.76"/>
<polygon fill="none" stroke="midnightblue" points="346.54,-270.73 345.82,-281.3 352.98,-273.49 346.54,-270.73"/>
</g>
<!-- Node6 -->
<g id="node6" class="node">
<title>Node6</title>
<g id="a_node6"><a xlink:href="../../da/dab/classCSwordSettingsPage.html" target="_top" xlink:title=" ">
<polygon fill="white" stroke="black" points="511,-72 511,-173 646,-173 646,-72 511,-72"/>
<text text-anchor="middle" x="578.5" y="-161" font-family="Helvetica,sans-Serif" font-size="10.00">CSwordSettingsPage</text>
<polyline fill="none" stroke="black" points="511,-154 646,-154 "/>
<text text-anchor="start" x="519" y="-142" font-family="Helvetica,sans-Serif" font-size="10.00">&#45; m_filtersTab</text>
<text text-anchor="start" x="519" y="-131" font-family="Helvetica,sans-Serif" font-size="10.00">&#45; m_tabWidget</text>
<text text-anchor="start" x="519" y="-120" font-family="Helvetica,sans-Serif" font-size="10.00">&#45; m_worksTab</text>
<polyline fill="none" stroke="black" points="511,-113 646,-113 "/>
<text text-anchor="start" x="519" y="-101" font-family="Helvetica,sans-Serif" font-size="10.00">+ CSwordSettingsPage()</text>
<text text-anchor="start" x="519" y="-90" font-family="Helvetica,sans-Serif" font-size="10.00">+ save()</text>
<text text-anchor="start" x="519" y="-79" font-family="Helvetica,sans-Serif" font-size="10.00"># retranslateUi()</text>
</a>
</g>
</g>
<!-- Node1&#45;&gt;Node6 -->
<g id="edge5" class="edge">
<title>Node1&#45;&gt;Node6</title>
<path fill="none" stroke="midnightblue" d="M403.27,-303.81C436.16,-289.8 473.21,-270.27 501.5,-245 523.85,-225.04 542.16,-197.09 555.32,-173.03"/>
<polygon fill="none" stroke="midnightblue" points="401.56,-300.74 393.67,-307.8 404.25,-307.2 401.56,-300.74"/>
</g>
<!-- Node2 -->
<g id="node2" class="node">
<title>Node2</title>
<g id="a_node2"><a xlink:href="../../d8/ded/classQWidget.html" target="_top" xlink:title=" ">
<polygon fill="white" stroke="black" points="295,-419.5 295,-476.5 354,-476.5 354,-419.5 295,-419.5"/>
<text text-anchor="middle" x="324.5" y="-464.5" font-family="Helvetica,sans-Serif" font-size="10.00">QWidget</text>
<polyline fill="none" stroke="black" points="295,-457.5 354,-457.5 "/>
<text text-anchor="middle" x="324.5" y="-445.5" font-family="Helvetica,sans-Serif" font-size="10.00"> </text>
<polyline fill="none" stroke="black" points="295,-438.5 354,-438.5 "/>
<text text-anchor="middle" x="324.5" y="-426.5" font-family="Helvetica,sans-Serif" font-size="10.00"> </text>
</a>
</g>
</g>
<!-- Node2&#45;&gt;Node1 -->
<g id="edge1" class="edge">
<title>Node2&#45;&gt;Node1</title>
<path fill="none" stroke="midnightblue" d="M324.5,-409.35C324.5,-400.8 324.5,-391.58 324.5,-382.61"/>
<polygon fill="none" stroke="midnightblue" points="321,-409.4 324.5,-419.4 328,-409.4 321,-409.4"/>
</g>
</g>
</svg>
        <g id="navigator" transform="translate(0 0)" fill="#404254">
                <rect fill="#f2f5e9" fill-opacity="0.5" stroke="#606060" stroke-width=".5" x="0" y="0" width="60" height="60"/>
                <use id="zoomplus" xlink:href="#zoomPlus" x="17" y="9" onmousedown="handleZoom(evt,'in')"/>
                <use id="zoomminus" xlink:href="#zoomMin" x="42" y="9" onmousedown="handleZoom(evt,'out')"/>
                <use id="reset" xlink:href="#resetDef" x="30" y="36" onmousedown="handleReset()"/>
                <g id="arrowUp" xlink:href="#dirArrow" transform="translate(30 24)" onmousedown="handlePan(0,-1)">
                  <use xlink:href="#rim" fill="#404040">
                        <set attributeName="fill" to="#808080" begin="arrowUp.mouseover" end="arrowUp.mouseout"/>
                  </use>
                  <path fill="none" stroke="white" stroke-width="1.5" d="M0,-3.0v7 M-2.5,-0.5L0,-3.0L2.5,-0.5"/>
                </g>
                <g id="arrowRight" xlink:href="#dirArrow" transform="rotate(90) translate(36 -43)" onmousedown="handlePan(1,0)">
                  <use xlink:href="#rim" fill="#404040">
                        <set attributeName="fill" to="#808080" begin="arrowRight.mouseover" end="arrowRight.mouseout"/>
                  </use>
                  <path fill="none" stroke="white" stroke-width="1.5" d="M0,-3.0v7 M-2.5,-0.5L0,-3.0L2.5,-0.5"/>
                </g>
                <g id="arrowDown" xlink:href="#dirArrow" transform="rotate(180) translate(-30 -48)" onmousedown="handlePan(0,1)">
                  <use xlink:href="#rim" fill="#404040">
                        <set attributeName="fill" to="#808080" begin="arrowDown.mouseover" end="arrowDown.mouseout"/>
                  </use>
                  <path fill="none" stroke="white" stroke-width="1.5" d="M0,-3.0v7 M-2.5,-0.5L0,-3.0L2.5,-0.5"/>
                </g>
                <g id="arrowLeft" xlink:href="#dirArrow" transform="rotate(270) translate(-36 17)" onmousedown="handlePan(-1,0)">
                  <use xlink:href="#rim" fill="#404040">
                        <set attributeName="fill" to="#808080" begin="arrowLeft.mouseover" end="arrowLeft.mouseout"/>
                  </use>
                  <path fill="none" stroke="white" stroke-width="1.5" d="M0,-3.0v7 M-2.5,-0.5L0,-3.0L2.5,-0.5"/>
                </g>
        </g>
        <svg viewBox="0 0 15 15" width="100%" height="30px" preserveAspectRatio="xMaxYMin meet">
         <g id="arrow_out" transform="scale(0.3 0.3)">
          <a xlink:href="classBtConfigDialog_1_1Page__inherit__graph_org.svg" target="_base">
           <rect id="button" ry="5" rx="5" y="6" x="6" height="38" width="38"
                fill="#f2f5e9" fill-opacity="0.5" stroke="#606060" stroke-width="1.0"/>
           <path id="arrow"
             d="M 11.500037,31.436501 C 11.940474,20.09759 22.043105,11.32322 32.158766,21.979434 L 37.068811,17.246167 C 37.068811,17.246167 37.088388,32 37.088388,32 L 22.160133,31.978069 C 22.160133,31.978069 26.997745,27.140456 26.997745,27.140456 C 18.528582,18.264221 13.291696,25.230495 11.500037,31.436501 z"
             style="fill:#404040;"/>
          </a>
         </g>
        </svg>
</svg>
