<?xml version="1.0" encoding="UTF-8" standalone="no"?>
<!DOCTYPE svg PUBLIC "-//W3C//DTD SVG 1.1//EN"
 "http://www.w3.org/Graphics/SVG/1.1/DTD/svg11.dtd">
<!-- Generated by graphviz version 2.43.0 (0)
 -->
<!-- Title: BtOpenWorkActionMenu Pages: 1 -->
<svg width="156pt" height="572pt"
 viewBox="0.00 0.00 156.00 572.00" xmlns="http://www.w3.org/2000/svg" xmlns:xlink="http://www.w3.org/1999/xlink">
<g id="graph0" class="graph" transform="scale(1 1) rotate(0) translate(4 568)">
<title>BtOpenWorkActionMenu</title>
<!-- Node1 -->
<g id="Node000001" class="node">
<title>Node1</title>
<g id="a_Node000001"><a xlink:title=" ">
<polygon fill="#999999" stroke="transparent" points="148,-199 0,-199 0,0 148,0 148,-199"/>
<text text-anchor="start" x="14.5" y="-186.5" font-family="Helvetica,sans-Serif" font-size="10.00">BtOpenWorkActionMenu</text>
<text text-anchor="start" x="6.5" y="-171.5" font-family="Helvetica,sans-Serif" font-size="10.00">&#45;</text>
<text text-anchor="start" x="17" y="-171.5" font-family="Helvetica,sans-Serif" font-size="10.00">m_groupingConfigGroup</text>
<text text-anchor="start" x="6.5" y="-156.5" font-family="Helvetica,sans-Serif" font-size="10.00">&#45;</text>
<text text-anchor="start" x="17" y="-156.5" font-family="Helvetica,sans-Serif" font-size="10.00">m_groupingConfigKey</text>
<text text-anchor="start" x="6.5" y="-141.5" font-family="Helvetica,sans-Serif" font-size="10.00">&#45;</text>
<text text-anchor="start" x="17" y="-141.5" font-family="Helvetica,sans-Serif" font-size="10.00">m_groupingMenu</text>
<text text-anchor="start" x="6.5" y="-126.5" font-family="Helvetica,sans-Serif" font-size="10.00">&#45;</text>
<text text-anchor="start" x="17" y="-126.5" font-family="Helvetica,sans-Serif" font-size="10.00">m_postFilterModel</text>
<text text-anchor="start" x="6.5" y="-111.5" font-family="Helvetica,sans-Serif" font-size="10.00">&#45;</text>
<text text-anchor="start" x="17" y="-111.5" font-family="Helvetica,sans-Serif" font-size="10.00">m_treeModel</text>
<text text-anchor="start" x="4" y="-96.5" font-family="Helvetica,sans-Serif" font-size="10.00">+</text>
<text text-anchor="start" x="17" y="-96.5" font-family="Helvetica,sans-Serif" font-size="10.00">BtOpenWorkActionMenu()</text>
<text text-anchor="start" x="4" y="-81.5" font-family="Helvetica,sans-Serif" font-size="10.00">+</text>
<text text-anchor="start" x="17" y="-81.5" font-family="Helvetica,sans-Serif" font-size="10.00">postFilterModel()</text>
<text text-anchor="start" x="4" y="-66.5" font-family="Helvetica,sans-Serif" font-size="10.00">+</text>
<text text-anchor="start" x="17" y="-66.5" font-family="Helvetica,sans-Serif" font-size="10.00">setSourceModel()</text>
<text text-anchor="start" x="4" y="-51.5" font-family="Helvetica,sans-Serif" font-size="10.00">+</text>
<text text-anchor="start" x="17" y="-51.5" font-family="Helvetica,sans-Serif" font-size="10.00">sourceModel()</text>
<text text-anchor="start" x="4" y="-36.5" font-family="Helvetica,sans-Serif" font-size="10.00">+</text>
<text text-anchor="start" x="17" y="-36.5" font-family="Helvetica,sans-Serif" font-size="10.00">treeModel()</text>
<text text-anchor="start" x="6.5" y="-21.5" font-family="Helvetica,sans-Serif" font-size="10.00">&#45;</text>
<text text-anchor="start" x="17" y="-21.5" font-family="Helvetica,sans-Serif" font-size="10.00">postBuildMenu()</text>
<text text-anchor="start" x="6.5" y="-6.5" font-family="Helvetica,sans-Serif" font-size="10.00">&#45;</text>
<text text-anchor="start" x="17" y="-6.5" font-family="Helvetica,sans-Serif" font-size="10.00">retranslateUi()</text>
<polygon fill="#666666" stroke="#666666" points="0,-181.5 0,-181.5 148,-181.5 148,-181.5 0,-181.5"/>
<polygon fill="#666666" stroke="#666666" points="0,-106.5 0,-106.5 15,-106.5 15,-106.5 0,-106.5"/>
<polygon fill="#666666" stroke="#666666" points="15,-106.5 15,-106.5 148,-106.5 148,-106.5 15,-106.5"/>
<polygon fill="none" stroke="#666666" points="0,0 0,-199 148,-199 148,0 0,0"/>
</a>
</g>
</g>
<!-- Node2 -->
<g id="Node000002" class="node">
<title>Node2</title>
<g id="a_Node000002"><a xlink:href="../../d9/de6/classBtMenuView.html" target="_top" xlink:title=" ">
<polygon fill="white" stroke="transparent" points="125,-479 23,-479 23,-235 125,-235 125,-479"/>
<text text-anchor="start" x="43" y="-467" font-family="Helvetica,sans-Serif" font-size="10.00">BtMenuView</text>
<text text-anchor="start" x="29.5" y="-452" font-family="Helvetica,sans-Serif" font-size="10.00">&#45;</text>
<text text-anchor="start" x="40" y="-452" font-family="Helvetica,sans-Serif" font-size="10.00">m_actions</text>
<text text-anchor="start" x="29.5" y="-437" font-family="Helvetica,sans-Serif" font-size="10.00">&#45;</text>
<text text-anchor="start" x="40" y="-437" font-family="Helvetica,sans-Serif" font-size="10.00">m_model</text>
<text text-anchor="start" x="27" y="-422" font-family="Helvetica,sans-Serif" font-size="10.00">+</text>
<text text-anchor="start" x="40" y="-422" font-family="Helvetica,sans-Serif" font-size="10.00">BtMenuView()</text>
<text text-anchor="start" x="27" y="-407" font-family="Helvetica,sans-Serif" font-size="10.00">+</text>
<text text-anchor="start" x="40" y="-407" font-family="Helvetica,sans-Serif" font-size="10.00">BtMenuView()</text>
<text text-anchor="start" x="27" y="-392" font-family="Helvetica,sans-Serif" font-size="10.00">+</text>
<text text-anchor="start" x="40" y="-392" font-family="Helvetica,sans-Serif" font-size="10.00">event()</text>
<text text-anchor="start" x="27" y="-377" font-family="Helvetica,sans-Serif" font-size="10.00">+</text>
<text text-anchor="start" x="40" y="-377" font-family="Helvetica,sans-Serif" font-size="10.00">model()</text>
<text text-anchor="start" x="27" y="-362" font-family="Helvetica,sans-Serif" font-size="10.00">+</text>
<text text-anchor="start" x="40" y="-362" font-family="Helvetica,sans-Serif" font-size="10.00">setModel()</text>
<text text-anchor="start" x="27" y="-347" font-family="Helvetica,sans-Serif" font-size="10.00">+</text>
<text text-anchor="start" x="40" y="-347" font-family="Helvetica,sans-Serif" font-size="10.00">~BtMenuView()</text>
<text text-anchor="start" x="27" y="-332" font-family="Helvetica,sans-Serif" font-size="10.00">#</text>
<text text-anchor="start" x="40" y="-332" font-family="Helvetica,sans-Serif" font-size="10.00">newAction()</text>
<text text-anchor="start" x="27" y="-317" font-family="Helvetica,sans-Serif" font-size="10.00">#</text>
<text text-anchor="start" x="40" y="-317" font-family="Helvetica,sans-Serif" font-size="10.00">newMenu()</text>
<text text-anchor="start" x="27" y="-302" font-family="Helvetica,sans-Serif" font-size="10.00">#</text>
<text text-anchor="start" x="40" y="-302" font-family="Helvetica,sans-Serif" font-size="10.00">postBuildMenu()</text>
<text text-anchor="start" x="27" y="-287" font-family="Helvetica,sans-Serif" font-size="10.00">#</text>
<text text-anchor="start" x="40" y="-287" font-family="Helvetica,sans-Serif" font-size="10.00">preBuildMenu()</text>
<text text-anchor="start" x="27" y="-272" font-family="Helvetica,sans-Serif" font-size="10.00">#</text>
<text text-anchor="start" x="40" y="-272" font-family="Helvetica,sans-Serif" font-size="10.00">rebuildMenu()</text>
<text text-anchor="start" x="29.5" y="-257" font-family="Helvetica,sans-Serif" font-size="10.00">&#45;</text>
<text text-anchor="start" x="40" y="-257" font-family="Helvetica,sans-Serif" font-size="10.00">buildMenu()</text>
<text text-anchor="start" x="29.5" y="-242" font-family="Helvetica,sans-Serif" font-size="10.00">&#45;</text>
<text text-anchor="start" x="40" y="-242" font-family="Helvetica,sans-Serif" font-size="10.00">removeMenus()</text>
<polygon fill="#666666" stroke="#666666" points="23,-462 23,-462 125,-462 125,-462 23,-462"/>
<polygon fill="#666666" stroke="#666666" points="23,-432 23,-432 38,-432 38,-432 23,-432"/>
<polygon fill="#666666" stroke="#666666" points="38,-432 38,-432 125,-432 125,-432 38,-432"/>
<polygon fill="none" stroke="#666666" points="23,-235 23,-479 125,-479 125,-235 23,-235"/>
</a>
</g>
</g>
<!-- Node2&#45;&gt;Node1 -->
<g id="edge1_Node000001_Node000002" class="edge">
<title>Node2&#45;&gt;Node1</title>
<g id="a_edge1_Node000001_Node000002"><a xlink:title=" ">
<path fill="none" stroke="#63b8ff" d="M74,-224.85C74,-216.22 74,-207.62 74,-199.18"/>
<polygon fill="none" stroke="#63b8ff" points="70.5,-224.98 74,-234.98 77.5,-224.98 70.5,-224.98"/>
</a>
</g>
</g>
<!-- Node3 -->
<g id="Node000003" class="node">
<title>Node3</title>
<g id="a_Node000003"><a xlink:href="../../de/d3d/classQMenu.html" target="_top" xlink:title=" ">
<polygon fill="white" stroke="transparent" points="96.5,-564 51.5,-564 51.5,-515 96.5,-515 96.5,-564"/>
<text text-anchor="start" x="57" y="-551.5" font-family="Helvetica,sans-Serif" font-size="10.00">QMenu</text>
<text text-anchor="start" x="72.5" y="-536.5" font-family="Helvetica,sans-Serif" font-size="10.00"> </text>
<text text-anchor="start" x="72.5" y="-521.5" font-family="Helvetica,sans-Serif" font-size="10.00"> </text>
<polygon fill="#666666" stroke="#666666" points="52,-546.5 52,-546.5 97,-546.5 97,-546.5 52,-546.5"/>
<polygon fill="#666666" stroke="#666666" points="52,-531.5 52,-531.5 97,-531.5 97,-531.5 52,-531.5"/>
<polygon fill="none" stroke="#666666" points="51.5,-515 51.5,-564 96.5,-564 96.5,-515 51.5,-515"/>
</a>
</g>
</g>
<!-- Node3&#45;&gt;Node2 -->
<g id="edge2_Node000002_Node000003" class="edge">
<title>Node3&#45;&gt;Node2</title>
<g id="a_edge2_Node000002_Node000003"><a xlink:title=" ">
<path fill="none" stroke="#63b8ff" d="M74,-504.65C74,-496.93 74,-488.29 74,-479.18"/>
<polygon fill="none" stroke="#63b8ff" points="70.5,-504.9 74,-514.9 77.5,-504.9 70.5,-504.9"/>
</a>
</g>
</g>
</g>
</svg>
