<?xml version="1.0" encoding="UTF-8" standalone="no"?>
<!DOCTYPE svg PUBLIC "-//W3C//DTD SVG 1.1//EN"
 "http://www.w3.org/Graphics/SVG/1.1/DTD/svg11.dtd">
<!-- Generated by graphviz version 2.43.0 (0)
 -->
<!-- Title: bticons.h Pages: 1 -->
<!--zoomable 140 -->
<svg id="main" version="1.1" xmlns="http://www.w3.org/2000/svg" xmlns:xlink="http://www.w3.org/1999/xlink" xml:space="preserve" onload="init(evt)">
<style type="text/css"><![CDATA[
.edge:hover path { stroke: red; }
.edge:hover polygon { stroke: red; fill: red; }
]]></style>
<script type="text/javascript"><![CDATA[
var edges = document.getElementsByTagName('g');
if (edges && edges.length) {
  for (var i=0;i<edges.length;i++) {
    if (edges[i].id.substr(0,4)=='edge') {
      edges[i].setAttribute('class','edge');
    }
  }
}
]]></script>
        <defs>
                <circle id="rim" cx="0" cy="0" r="7"/>
                <circle id="rim2" cx="0" cy="0" r="3.5"/>
                <g id="zoomPlus">
                        <use xlink:href="#rim" fill="#404040">
                                <set attributeName="fill" to="#808080" begin="zoomplus.mouseover" end="zoomplus.mouseout"/>
                        </use>
                        <path d="M-4,0h8M0,-4v8" fill="none" stroke="white" stroke-width="1.5" pointer-events="none"/>
                </g>
                <g id="zoomMin">
                        <use xlink:href="#rim" fill="#404040">
                                <set attributeName="fill" to="#808080" begin="zoomminus.mouseover" end="zoomminus.mouseout"/>
                        </use>
                        <path d="M-4,0h8" fill="none" stroke="white" stroke-width="1.5" pointer-events="none"/>
                </g>
                <g id="dirArrow">
                        <path fill="none" stroke="white" stroke-width="1.5" d="M0,-3.0v7 M-2.5,-0.5L0,-3.0L2.5,-0.5"/>
                </g>
               <g id="resetDef">
                       <use xlink:href="#rim2" fill="#404040">
                               <set attributeName="fill" to="#808080" begin="reset.mouseover" end="reset.mouseout"/>
                       </use>
               </g>
        </defs>

<script type="text/javascript">
var viewWidth = 5046;
var viewHeight = 140;
var sectionId = 'dynsection-0';
</script>
<script xlink:href="../../svgpan.js"/>
<svg id="graph" class="graph">
<g id="viewport">
<title>bticons.h</title>
<polygon fill="white" stroke="transparent" points="-4,4 -4,-136 5042,-136 5042,4 -4,4"/>
<!-- Node1 -->
<g id="node1" class="node">
<title>Node1</title>
<g id="a_node1"><a xlink:title=" ">
<polygon fill="#bfbfbf" stroke="black" points="1295,-112.5 1295,-131.5 1356,-131.5 1356,-112.5 1295,-112.5"/>
<text text-anchor="middle" x="1325.5" y="-119.5" font-family="Helvetica,sans-Serif" font-size="10.00">bticons.h</text>
</a>
</g>
</g>
<!-- Node2 -->
<g id="node2" class="node">
<title>Node2</title>
<g id="a_node2"><a xlink:href="../../d5/d86/bibletimeapp_8cpp.html" target="_top" xlink:title=" ">
<polygon fill="white" stroke="black" points="1120,-56.5 1120,-75.5 1221,-75.5 1221,-56.5 1120,-56.5"/>
<text text-anchor="middle" x="1170.5" y="-63.5" font-family="Helvetica,sans-Serif" font-size="10.00">bibletimeapp.cpp</text>
</a>
</g>
</g>
<!-- Node1&#45;&gt;Node2 -->
<g id="edge1" class="edge">
<title>Node1&#45;&gt;Node2</title>
<path fill="none" stroke="midnightblue" d="M1291.17,-109.04C1262,-98.88 1220.86,-84.55 1194.95,-75.52"/>
<polygon fill="midnightblue" stroke="midnightblue" points="1290.34,-112.46 1300.94,-112.44 1292.65,-105.85 1290.34,-112.46"/>
</g>
<!-- Node3 -->
<g id="node3" class="node">
<title>Node3</title>
<g id="a_node3"><a xlink:href="../../d9/de6/cbookmarkindex_8cpp.html" target="_top" xlink:title=" ">
<polygon fill="white" stroke="black" points="0,-0.5 0,-19.5 119,-19.5 119,-0.5 0,-0.5"/>
<text text-anchor="middle" x="59.5" y="-7.5" font-family="Helvetica,sans-Serif" font-size="10.00">cbookmarkindex.cpp</text>
</a>
</g>
</g>
<!-- Node1&#45;&gt;Node3 -->
<g id="edge2" class="edge">
<title>Node1&#45;&gt;Node3</title>
<path fill="none" stroke="midnightblue" d="M1305.62,-106.52C1280.31,-88.21 1238.82,-58.72 1230.5,-56 1113.96,-17.85 249.71,-30.06 127.5,-20 124.77,-19.78 121.98,-19.52 119.17,-19.24"/>
<polygon fill="midnightblue" stroke="midnightblue" points="1303.67,-109.43 1313.82,-112.46 1307.78,-103.76 1303.67,-109.43"/>
</g>
<!-- Node4 -->
<g id="node4" class="node">
<title>Node4</title>
<g id="a_node4"><a xlink:href="../../d1/dd7/btaboutdialog_8cpp.html" target="_top" xlink:title=" ">
<polygon fill="white" stroke="black" points="2459.5,-56.5 2459.5,-75.5 2563.5,-75.5 2563.5,-56.5 2459.5,-56.5"/>
<text text-anchor="middle" x="2511.5" y="-63.5" font-family="Helvetica,sans-Serif" font-size="10.00">btaboutdialog.cpp</text>
</a>
</g>
</g>
<!-- Node1&#45;&gt;Node4 -->
<g id="edge3" class="edge">
<title>Node1&#45;&gt;Node4</title>
<path fill="none" stroke="midnightblue" d="M1366.33,-120.93C1513.16,-120.37 2028.04,-115.5 2450.5,-76 2453.38,-75.73 2456.33,-75.42 2459.3,-75.07"/>
<polygon fill="midnightblue" stroke="midnightblue" points="1365.99,-117.44 1356.01,-120.97 1366.02,-124.44 1365.99,-117.44"/>
</g>
<!-- Node5 -->
<g id="node5" class="node">
<title>Node5</title>
<g id="a_node5"><a xlink:href="../../d9/d08/bttipdialog_8cpp.html" target="_top" xlink:title=" ">
<polygon fill="white" stroke="black" points="137,-0.5 137,-19.5 226,-19.5 226,-0.5 137,-0.5"/>
<text text-anchor="middle" x="181.5" y="-7.5" font-family="Helvetica,sans-Serif" font-size="10.00">bttipdialog.cpp</text>
</a>
</g>
</g>
<!-- Node1&#45;&gt;Node5 -->
<g id="edge4" class="edge">
<title>Node1&#45;&gt;Node5</title>
<path fill="none" stroke="midnightblue" d="M1314.6,-103.46C1303.79,-87.83 1285.65,-65.94 1263.5,-56 1159.23,-9.19 349.22,-31.42 235.5,-20 232.47,-19.7 229.36,-19.33 226.23,-18.92"/>
<polygon fill="midnightblue" stroke="midnightblue" points="1311.94,-105.79 1320.36,-112.22 1317.79,-101.94 1311.94,-105.79"/>
</g>
<!-- Node6 -->
<g id="node6" class="node">
<title>Node6</title>
<g id="a_node6"><a xlink:href="../../dd/deb/btwelcomedialog_8cpp.html" target="_top" xlink:title=" ">
<polygon fill="white" stroke="black" points="244,-0.5 244,-19.5 365,-19.5 365,-0.5 244,-0.5"/>
<text text-anchor="middle" x="304.5" y="-7.5" font-family="Helvetica,sans-Serif" font-size="10.00">btwelcomedialog.cpp</text>
</a>
</g>
</g>
<!-- Node1&#45;&gt;Node6 -->
<g id="edge5" class="edge">
<title>Node1&#45;&gt;Node6</title>
<path fill="none" stroke="midnightblue" d="M1324.07,-102.19C1321.82,-87.04 1316.08,-66.59 1301.5,-56 1259.79,-25.72 425.86,-24.29 374.5,-20 371.45,-19.74 368.32,-19.45 365.17,-19.14"/>
<polygon fill="midnightblue" stroke="midnightblue" points="1320.63,-102.93 1325.19,-112.49 1327.58,-102.17 1320.63,-102.93"/>
</g>
<!-- Node7 -->
<g id="node7" class="node">
<title>Node7</title>
<g id="a_node7"><a xlink:href="../../db/d95/bticons_8cpp.html" target="_top" xlink:title=" ">
<polygon fill="white" stroke="black" points="2581.5,-56.5 2581.5,-75.5 2653.5,-75.5 2653.5,-56.5 2581.5,-56.5"/>
<text text-anchor="middle" x="2617.5" y="-63.5" font-family="Helvetica,sans-Serif" font-size="10.00">bticons.cpp</text>
</a>
</g>
</g>
<!-- Node1&#45;&gt;Node7 -->
<g id="edge6" class="edge">
<title>Node1&#45;&gt;Node7</title>
<path fill="none" stroke="midnightblue" d="M1366.48,-120.41C1553.95,-117.58 2330.97,-104.32 2572.5,-76 2575.35,-75.67 2578.29,-75.25 2581.23,-74.78"/>
<polygon fill="midnightblue" stroke="midnightblue" points="1366.19,-116.91 1356.24,-120.56 1366.29,-123.91 1366.19,-116.91"/>
</g>
<!-- Node8 -->
<g id="node8" class="node">
<title>Node8</title>
<g id="a_node8"><a xlink:href="../../dc/deb/cresmgr_8h.html" target="_top" xlink:title=" ">
<polygon fill="white" stroke="black" points="2376,-56.5 2376,-75.5 2441,-75.5 2441,-56.5 2376,-56.5"/>
<text text-anchor="middle" x="2408.5" y="-63.5" font-family="Helvetica,sans-Serif" font-size="10.00">cresmgr.h</text>
</a>
</g>
</g>
<!-- Node1&#45;&gt;Node8 -->
<g id="edge7" class="edge">
<title>Node1&#45;&gt;Node8</title>
<path fill="none" stroke="midnightblue" d="M1366.18,-118.97C1539.95,-110.31 2218.32,-76.48 2375.75,-68.63"/>
<polygon fill="midnightblue" stroke="midnightblue" points="1365.98,-115.48 1356.17,-119.47 1366.33,-122.47 1365.98,-115.48"/>
</g>
<!-- Node8&#45;&gt;Node3 -->
<g id="edge14" class="edge">
<title>Node8&#45;&gt;Node3</title>
<path fill="none" stroke="midnightblue" d="M2365.6,-64.81C2091.88,-63.5 586.42,-54.79 127.5,-20 124.77,-19.79 121.98,-19.55 119.16,-19.28"/>
<polygon fill="midnightblue" stroke="midnightblue" points="2365.89,-68.31 2375.91,-64.86 2365.92,-61.31 2365.89,-68.31"/>
</g>
<!-- Node8&#45;&gt;Node5 -->
<g id="edge40" class="edge">
<title>Node8&#45;&gt;Node5</title>
<path fill="none" stroke="midnightblue" d="M2365.26,-64.48C2078.39,-60.99 454.59,-40.42 235.5,-20 232.47,-19.72 229.36,-19.37 226.22,-18.97"/>
<polygon fill="midnightblue" stroke="midnightblue" points="2365.62,-67.99 2375.66,-64.61 2365.7,-60.99 2365.62,-67.99"/>
</g>
<!-- Node8&#45;&gt;Node6 -->
<g id="edge41" class="edge">
<title>Node8&#45;&gt;Node6</title>
<path fill="none" stroke="midnightblue" d="M2365.51,-64.67C2109.32,-62.6 781.19,-50.56 374.5,-20 371.45,-19.77 368.32,-19.5 365.17,-19.2"/>
<polygon fill="midnightblue" stroke="midnightblue" points="2365.85,-68.17 2375.88,-64.75 2365.91,-61.17 2365.85,-68.17"/>
</g>
<!-- Node9 -->
<g id="node9" class="node">
<title>Node9</title>
<g id="a_node9"><a xlink:href="../../d9/d6e/languageitem_8cpp.html" target="_top" xlink:title=" ">
<polygon fill="white" stroke="black" points="3754.5,-0.5 3754.5,-19.5 3858.5,-19.5 3858.5,-0.5 3754.5,-0.5"/>
<text text-anchor="middle" x="3806.5" y="-7.5" font-family="Helvetica,sans-Serif" font-size="10.00">languageitem.cpp</text>
</a>
</g>
</g>
<!-- Node8&#45;&gt;Node9 -->
<g id="edge8" class="edge">
<title>Node8&#45;&gt;Node9</title>
<path fill="none" stroke="midnightblue" d="M2451.58,-56.14C3023.94,11.64 3175.27,-69.82 3745.5,-20 3748.38,-19.75 3751.33,-19.45 3754.3,-19.12"/>
<polygon fill="midnightblue" stroke="midnightblue" points="2450.93,-52.69 2441.42,-57.35 2451.76,-59.64 2450.93,-52.69"/>
</g>
<!-- Node10 -->
<g id="node10" class="node">
<title>Node10</title>
<g id="a_node10"><a xlink:href="../../d7/dd0/btbookmarksmodel_8cpp.html" target="_top" xlink:title=" ">
<polygon fill="white" stroke="black" points="3876.5,-0.5 3876.5,-19.5 4008.5,-19.5 4008.5,-0.5 3876.5,-0.5"/>
<text text-anchor="middle" x="3942.5" y="-7.5" font-family="Helvetica,sans-Serif" font-size="10.00">btbookmarksmodel.cpp</text>
</a>
</g>
</g>
<!-- Node8&#45;&gt;Node10 -->
<g id="edge9" class="edge">
<title>Node8&#45;&gt;Node10</title>
<path fill="none" stroke="midnightblue" d="M2451.6,-56.14C3077.85,17.42 3242.54,-65.34 3867.5,-20 3870.38,-19.79 3873.31,-19.55 3876.28,-19.29"/>
<polygon fill="midnightblue" stroke="midnightblue" points="2450.94,-52.69 2441.42,-57.34 2451.76,-59.64 2450.94,-52.69"/>
</g>
<!-- Node11 -->
<g id="node11" class="node">
<title>Node11</title>
<g id="a_node11"><a xlink:href="../../d3/db9/cswordmoduleinfo_8cpp.html" target="_top" xlink:title=" ">
<polygon fill="white" stroke="black" points="4027,-0.5 4027,-19.5 4154,-19.5 4154,-0.5 4027,-0.5"/>
<text text-anchor="middle" x="4090.5" y="-7.5" font-family="Helvetica,sans-Serif" font-size="10.00">cswordmoduleinfo.cpp</text>
</a>
</g>
</g>
<!-- Node8&#45;&gt;Node11 -->
<g id="edge10" class="edge">
<title>Node8&#45;&gt;Node11</title>
<path fill="none" stroke="midnightblue" d="M2451.39,-56.17C3144.09,24.43 3326.03,-70.44 4017.5,-20 4020.56,-19.78 4023.68,-19.52 4026.84,-19.23"/>
<polygon fill="midnightblue" stroke="midnightblue" points="2450.94,-52.69 2441.42,-57.33 2451.76,-59.65 2450.94,-52.69"/>
</g>
<!-- Node12 -->
<g id="node12" class="node">
<title>Node12</title>
<g id="a_node12"><a xlink:href="../../d1/df6/bibletime_8cpp.html" target="_top" xlink:title=" ">
<polygon fill="white" stroke="black" points="4172,-0.5 4172,-19.5 4255,-19.5 4255,-0.5 4172,-0.5"/>
<text text-anchor="middle" x="4213.5" y="-7.5" font-family="Helvetica,sans-Serif" font-size="10.00">bibletime.cpp</text>
</a>
</g>
</g>
<!-- Node8&#45;&gt;Node12 -->
<g id="edge11" class="edge">
<title>Node8&#45;&gt;Node12</title>
<path fill="none" stroke="midnightblue" d="M2451.48,-56.16C3208.64,31.06 3409.1,-95.35 4163.5,-20 4166.22,-19.73 4169.02,-19.39 4171.83,-19.01"/>
<polygon fill="midnightblue" stroke="midnightblue" points="2450.95,-52.7 2441.42,-57.33 2451.75,-59.65 2450.95,-52.7"/>
</g>
<!-- Node13 -->
<g id="node13" class="node">
<title>Node13</title>
<g id="a_node13"><a xlink:href="../../da/dc7/bibletime__init_8cpp.html" target="_top" xlink:title=" ">
<polygon fill="white" stroke="black" points="4273.5,-0.5 4273.5,-19.5 4377.5,-19.5 4377.5,-0.5 4273.5,-0.5"/>
<text text-anchor="middle" x="4325.5" y="-7.5" font-family="Helvetica,sans-Serif" font-size="10.00">bibletime_init.cpp</text>
</a>
</g>
</g>
<!-- Node8&#45;&gt;Node13 -->
<g id="edge12" class="edge">
<title>Node8&#45;&gt;Node13</title>
<path fill="none" stroke="midnightblue" d="M2451.43,-56.19C2867.27,-10.25 3865.94,-53.22 4264.5,-20 4267.38,-19.76 4270.33,-19.47 4273.31,-19.14"/>
<polygon fill="midnightblue" stroke="midnightblue" points="2450.96,-52.72 2441.42,-57.32 2451.75,-59.67 2450.96,-52.72"/>
</g>
<!-- Node14 -->
<g id="node14" class="node">
<title>Node14</title>
<g id="a_node14"><a xlink:href="../../d8/d38/bteditbookmarkdialog_8cpp.html" target="_top" xlink:title=" ">
<polygon fill="white" stroke="black" points="4396,-0.5 4396,-19.5 4541,-19.5 4541,-0.5 4396,-0.5"/>
<text text-anchor="middle" x="4468.5" y="-7.5" font-family="Helvetica,sans-Serif" font-size="10.00">bteditbookmarkdialog.cpp</text>
</a>
</g>
</g>
<!-- Node8&#45;&gt;Node14 -->
<g id="edge13" class="edge">
<title>Node8&#45;&gt;Node14</title>
<path fill="none" stroke="midnightblue" d="M2451.44,-56.19C2894.26,-7.31 3960.33,-47.29 4386.5,-20 4389.5,-19.81 4392.56,-19.59 4395.65,-19.34"/>
<polygon fill="midnightblue" stroke="midnightblue" points="2450.96,-52.72 2441.42,-57.32 2451.75,-59.67 2450.96,-52.72"/>
</g>
<!-- Node15 -->
<g id="node15" class="node">
<title>Node15</title>
<g id="a_node15"><a xlink:href="../../df/d88/btbookshelfdockwidget_8cpp.html" target="_top" xlink:title=" ">
<polygon fill="white" stroke="black" points="4559,-0.5 4559,-19.5 4710,-19.5 4710,-0.5 4559,-0.5"/>
<text text-anchor="middle" x="4634.5" y="-7.5" font-family="Helvetica,sans-Serif" font-size="10.00">btbookshelfdockwidget.cpp</text>
</a>
</g>
</g>
<!-- Node8&#45;&gt;Node15 -->
<g id="edge15" class="edge">
<title>Node8&#45;&gt;Node15</title>
<path fill="none" stroke="midnightblue" d="M2451.56,-56.17C2930.74,-3.5 4087.96,-48.69 4550.5,-20 4553.28,-19.83 4556.11,-19.63 4558.97,-19.42"/>
<polygon fill="midnightblue" stroke="midnightblue" points="2450.96,-52.72 2441.42,-57.32 2451.74,-59.68 2450.96,-52.72"/>
</g>
<!-- Node16 -->
<g id="node16" class="node">
<title>Node16</title>
<g id="a_node16"><a xlink:href="../../d8/d44/btbookshelfgroupingmenu_8cpp.html" target="_top" xlink:title=" ">
<polygon fill="white" stroke="black" points="4728,-0.5 4728,-19.5 4893,-19.5 4893,-0.5 4728,-0.5"/>
<text text-anchor="middle" x="4810.5" y="-7.5" font-family="Helvetica,sans-Serif" font-size="10.00">btbookshelfgroupingmenu.cpp</text>
</a>
</g>
</g>
<!-- Node8&#45;&gt;Node16 -->
<g id="edge16" class="edge">
<title>Node8&#45;&gt;Node16</title>
<path fill="none" stroke="midnightblue" d="M2451.6,-56.17C2968.18,0.45 4219.36,-48.65 4719.5,-20 4722.19,-19.85 4724.93,-19.67 4727.7,-19.48"/>
<polygon fill="midnightblue" stroke="midnightblue" points="2450.96,-52.72 2441.41,-57.31 2451.74,-59.68 2450.96,-52.72"/>
</g>
<!-- Node17 -->
<g id="node17" class="node">
<title>Node17</title>
<g id="a_node17"><a xlink:href="../../d9/d70/btbookshelfwidget_8cpp.html" target="_top" xlink:title=" ">
<polygon fill="white" stroke="black" points="4911,-0.5 4911,-19.5 5038,-19.5 5038,-0.5 4911,-0.5"/>
<text text-anchor="middle" x="4974.5" y="-7.5" font-family="Helvetica,sans-Serif" font-size="10.00">btbookshelfwidget.cpp</text>
</a>
</g>
</g>
<!-- Node8&#45;&gt;Node17 -->
<g id="edge17" class="edge">
<title>Node8&#45;&gt;Node17</title>
<path fill="none" stroke="midnightblue" d="M2451.59,-56.17C3008.63,4.62 4362.19,-57.62 4902.5,-20 4905.26,-19.81 4908.09,-19.58 4910.93,-19.33"/>
<polygon fill="midnightblue" stroke="midnightblue" points="2450.96,-52.72 2441.41,-57.31 2451.74,-59.68 2450.96,-52.72"/>
</g>
<!-- Node18 -->
<g id="node18" class="node">
<title>Node18</title>
<g id="a_node18"><a xlink:href="../../d1/d5b/btmessageinputdialog_8cpp.html" target="_top" xlink:title=" ">
<polygon fill="white" stroke="black" points="383.5,-0.5 383.5,-19.5 529.5,-19.5 529.5,-0.5 383.5,-0.5"/>
<text text-anchor="middle" x="456.5" y="-7.5" font-family="Helvetica,sans-Serif" font-size="10.00">btmessageinputdialog.cpp</text>
</a>
</g>
</g>
<!-- Node8&#45;&gt;Node18 -->
<g id="edge18" class="edge">
<title>Node8&#45;&gt;Node18</title>
<path fill="none" stroke="midnightblue" d="M2365.55,-65.32C2161.35,-66.55 1268.27,-68.74 538.5,-20 535.64,-19.81 532.73,-19.59 529.79,-19.36"/>
<polygon fill="midnightblue" stroke="midnightblue" points="2365.87,-68.82 2375.85,-65.25 2365.82,-61.82 2365.87,-68.82"/>
</g>
<!-- Node19 -->
<g id="node19" class="node">
<title>Node19</title>
<g id="a_node19"><a xlink:href="../../d9/d62/btopenworkaction_8cpp.html" target="_top" xlink:title=" ">
<polygon fill="white" stroke="black" points="547.5,-0.5 547.5,-19.5 671.5,-19.5 671.5,-0.5 547.5,-0.5"/>
<text text-anchor="middle" x="609.5" y="-7.5" font-family="Helvetica,sans-Serif" font-size="10.00">btopenworkaction.cpp</text>
</a>
</g>
</g>
<!-- Node8&#45;&gt;Node19 -->
<g id="edge19" class="edge">
<title>Node8&#45;&gt;Node19</title>
<path fill="none" stroke="midnightblue" d="M2365.89,-64.47C2134.11,-61.5 1022.91,-46.09 680.5,-20 677.65,-19.78 674.74,-19.53 671.8,-19.26"/>
<polygon fill="midnightblue" stroke="midnightblue" points="2365.91,-67.97 2375.95,-64.6 2365.99,-60.97 2365.91,-67.97"/>
</g>
<!-- Node20 -->
<g id="node20" class="node">
<title>Node20</title>
<g id="a_node20"><a xlink:href="../../de/dee/btfindwidget_8cpp.html" target="_top" xlink:title=" ">
<polygon fill="white" stroke="black" points="689.5,-0.5 689.5,-19.5 787.5,-19.5 787.5,-0.5 689.5,-0.5"/>
<text text-anchor="middle" x="738.5" y="-7.5" font-family="Helvetica,sans-Serif" font-size="10.00">btfindwidget.cpp</text>
</a>
</g>
</g>
<!-- Node8&#45;&gt;Node20 -->
<g id="edge20" class="edge">
<title>Node8&#45;&gt;Node20</title>
<path fill="none" stroke="midnightblue" d="M2365.6,-64.54C2142.61,-62.01 1114.03,-48.95 796.5,-20 793.66,-19.74 790.74,-19.43 787.81,-19.08"/>
<polygon fill="midnightblue" stroke="midnightblue" points="2365.86,-68.04 2375.9,-64.65 2365.94,-61.04 2365.86,-68.04"/>
</g>
<!-- Node21 -->
<g id="node21" class="node">
<title>Node21</title>
<g id="a_node21"><a xlink:href="../../d5/dcf/btdisplaysettingsbutton_8cpp.html" target="_top" xlink:title=" ">
<polygon fill="white" stroke="black" points="805.5,-0.5 805.5,-19.5 957.5,-19.5 957.5,-0.5 805.5,-0.5"/>
<text text-anchor="middle" x="881.5" y="-7.5" font-family="Helvetica,sans-Serif" font-size="10.00">btdisplaysettingsbutton.cpp</text>
</a>
</g>
</g>
<!-- Node8&#45;&gt;Node21 -->
<g id="edge21" class="edge">
<title>Node8&#45;&gt;Node21</title>
<path fill="none" stroke="midnightblue" d="M2365.97,-64.81C2192.23,-63.77 1519.35,-57.44 967.5,-20 964.35,-19.79 961.15,-19.55 957.91,-19.29"/>
<polygon fill="midnightblue" stroke="midnightblue" points="2365.97,-68.31 2375.99,-64.86 2366.01,-61.31 2365.97,-68.31"/>
</g>
<!-- Node22 -->
<g id="node22" class="node">
<title>Node22</title>
<g id="a_node22"><a xlink:href="../../d7/df1/btmodulechooserbutton_8cpp.html" target="_top" xlink:title=" ">
<polygon fill="white" stroke="black" points="976,-0.5 976,-19.5 1129,-19.5 1129,-0.5 976,-0.5"/>
<text text-anchor="middle" x="1052.5" y="-7.5" font-family="Helvetica,sans-Serif" font-size="10.00">btmodulechooserbutton.cpp</text>
</a>
</g>
</g>
<!-- Node8&#45;&gt;Node22 -->
<g id="edge22" class="edge">
<title>Node8&#45;&gt;Node22</title>
<path fill="none" stroke="midnightblue" d="M2365.58,-64.55C2204.32,-62.63 1619.29,-53.64 1138.5,-20 1135.5,-19.79 1132.45,-19.56 1129.37,-19.31"/>
<polygon fill="midnightblue" stroke="midnightblue" points="2365.55,-68.05 2375.59,-64.67 2365.63,-61.05 2365.55,-68.05"/>
</g>
<!-- Node23 -->
<g id="node23" class="node">
<title>Node23</title>
<g id="a_node23"><a xlink:href="../../dc/da2/bttextwindowheaderwidget_8cpp.html" target="_top" xlink:title=" ">
<polygon fill="white" stroke="black" points="1147.5,-0.5 1147.5,-19.5 1317.5,-19.5 1317.5,-0.5 1147.5,-0.5"/>
<text text-anchor="middle" x="1232.5" y="-7.5" font-family="Helvetica,sans-Serif" font-size="10.00">bttextwindowheaderwidget.cpp</text>
</a>
</g>
</g>
<!-- Node8&#45;&gt;Node23 -->
<g id="edge23" class="edge">
<title>Node8&#45;&gt;Node23</title>
<path fill="none" stroke="midnightblue" d="M2365.44,-64.03C2219.56,-60.55 1730.63,-47.47 1327.5,-20 1324.28,-19.78 1320.99,-19.54 1317.68,-19.29"/>
<polygon fill="midnightblue" stroke="midnightblue" points="2365.66,-67.53 2375.74,-64.27 2365.83,-60.53 2365.66,-67.53"/>
</g>
<!-- Node24 -->
<g id="node24" class="node">
<title>Node24</title>
<g id="a_node24"><a xlink:href="../../de/da4/cbiblereadwindow_8cpp.html" target="_top" xlink:title=" ">
<polygon fill="white" stroke="black" points="1336,-0.5 1336,-19.5 1461,-19.5 1461,-0.5 1336,-0.5"/>
<text text-anchor="middle" x="1398.5" y="-7.5" font-family="Helvetica,sans-Serif" font-size="10.00">cbiblereadwindow.cpp</text>
</a>
</g>
</g>
<!-- Node8&#45;&gt;Node24 -->
<g id="edge24" class="edge">
<title>Node8&#45;&gt;Node24</title>
<path fill="none" stroke="midnightblue" d="M2365.43,-64.1C2232.18,-61.08 1814.87,-49.74 1470.5,-20 1467.49,-19.74 1464.41,-19.45 1461.3,-19.14"/>
<polygon fill="midnightblue" stroke="midnightblue" points="2365.55,-67.61 2375.62,-64.33 2365.7,-60.61 2365.55,-67.61"/>
</g>
<!-- Node25 -->
<g id="node25" class="node">
<title>Node25</title>
<g id="a_node25"><a xlink:href="../../d7/d67/cbookreadwindow_8cpp.html" target="_top" xlink:title=" ">
<polygon fill="white" stroke="black" points="1479,-0.5 1479,-19.5 1604,-19.5 1604,-0.5 1479,-0.5"/>
<text text-anchor="middle" x="1541.5" y="-7.5" font-family="Helvetica,sans-Serif" font-size="10.00">cbookreadwindow.cpp</text>
</a>
</g>
</g>
<!-- Node8&#45;&gt;Node25 -->
<g id="edge25" class="edge">
<title>Node8&#45;&gt;Node25</title>
<path fill="none" stroke="midnightblue" d="M2365.71,-63.6C2246.43,-59.47 1900.16,-46 1613.5,-20 1610.49,-19.73 1607.41,-19.43 1604.3,-19.1"/>
<polygon fill="midnightblue" stroke="midnightblue" points="2365.77,-67.1 2375.88,-63.95 2366,-60.11 2365.77,-67.1"/>
</g>
<!-- Node26 -->
<g id="node26" class="node">
<title>Node26</title>
<g id="a_node26"><a xlink:href="../../d0/d6f/ccommentaryreadwindow_8cpp.html" target="_top" xlink:title=" ">
<polygon fill="white" stroke="black" points="1622,-0.5 1622,-19.5 1785,-19.5 1785,-0.5 1622,-0.5"/>
<text text-anchor="middle" x="1703.5" y="-7.5" font-family="Helvetica,sans-Serif" font-size="10.00">ccommentaryreadwindow.cpp</text>
</a>
</g>
</g>
<!-- Node8&#45;&gt;Node26 -->
<g id="edge26" class="edge">
<title>Node8&#45;&gt;Node26</title>
<path fill="none" stroke="midnightblue" d="M2365.85,-62.25C2265.94,-55.72 2008.94,-38.46 1794.5,-20 1791.49,-19.74 1788.43,-19.47 1785.34,-19.19"/>
<polygon fill="midnightblue" stroke="midnightblue" points="2365.65,-65.74 2375.86,-62.9 2366.11,-58.76 2365.65,-65.74"/>
</g>
<!-- Node27 -->
<g id="node27" class="node">
<title>Node27</title>
<g id="a_node27"><a xlink:href="../../d2/d26/cdisplaywindow_8cpp.html" target="_top" xlink:title=" ">
<polygon fill="white" stroke="black" points="1803.5,-0.5 1803.5,-19.5 1917.5,-19.5 1917.5,-0.5 1803.5,-0.5"/>
<text text-anchor="middle" x="1860.5" y="-7.5" font-family="Helvetica,sans-Serif" font-size="10.00">cdisplaywindow.cpp</text>
</a>
</g>
</g>
<!-- Node8&#45;&gt;Node27 -->
<g id="edge27" class="edge">
<title>Node8&#45;&gt;Node27</title>
<path fill="none" stroke="midnightblue" d="M2365.51,-61.6C2281.19,-54.8 2088.24,-38.57 1926.5,-20 1923.63,-19.67 1920.69,-19.32 1917.72,-18.95"/>
<polygon fill="midnightblue" stroke="midnightblue" points="2365.47,-65.11 2375.72,-62.42 2366.03,-58.13 2365.47,-65.11"/>
</g>
<!-- Node28 -->
<g id="node28" class="node">
<title>Node28</title>
<g id="a_node28"><a xlink:href="../../d8/d19/clexiconreadwindow_8cpp.html" target="_top" xlink:title=" ">
<polygon fill="white" stroke="black" points="1935.5,-0.5 1935.5,-19.5 2071.5,-19.5 2071.5,-0.5 1935.5,-0.5"/>
<text text-anchor="middle" x="2003.5" y="-7.5" font-family="Helvetica,sans-Serif" font-size="10.00">clexiconreadwindow.cpp</text>
</a>
</g>
</g>
<!-- Node8&#45;&gt;Node28 -->
<g id="edge28" class="edge">
<title>Node8&#45;&gt;Node28</title>
<path fill="none" stroke="midnightblue" d="M2365.72,-59.3C2294.39,-49.79 2150.8,-30.64 2067.43,-19.52"/>
<polygon fill="midnightblue" stroke="midnightblue" points="2365.33,-62.77 2375.7,-60.63 2366.25,-55.84 2365.33,-62.77"/>
</g>
<!-- Node29 -->
<g id="node29" class="node">
<title>Node29</title>
<g id="a_node29"><a xlink:href="../../d4/d78/btedittextpage_8cpp.html" target="_top" xlink:title=" ">
<polygon fill="white" stroke="black" points="2090,-0.5 2090,-19.5 2199,-19.5 2199,-0.5 2090,-0.5"/>
<text text-anchor="middle" x="2144.5" y="-7.5" font-family="Helvetica,sans-Serif" font-size="10.00">btedittextpage.cpp</text>
</a>
</g>
</g>
<!-- Node8&#45;&gt;Node29 -->
<g id="edge29" class="edge">
<title>Node8&#45;&gt;Node29</title>
<path fill="none" stroke="midnightblue" d="M2365.8,-56.27C2316.3,-46.14 2235.25,-29.56 2186.18,-19.53"/>
<polygon fill="midnightblue" stroke="midnightblue" points="2365.37,-59.75 2375.86,-58.32 2366.77,-52.89 2365.37,-59.75"/>
</g>
<!-- Node30 -->
<g id="node30" class="node">
<title>Node30</title>
<g id="a_node30"><a xlink:href="../../d7/d92/btbiblekeywidget_8cpp.html" target="_top" xlink:title=" ">
<polygon fill="white" stroke="black" points="2217,-0.5 2217,-19.5 2338,-19.5 2338,-0.5 2217,-0.5"/>
<text text-anchor="middle" x="2277.5" y="-7.5" font-family="Helvetica,sans-Serif" font-size="10.00">btbiblekeywidget.cpp</text>
</a>
</g>
</g>
<!-- Node8&#45;&gt;Node30 -->
<g id="edge30" class="edge">
<title>Node8&#45;&gt;Node30</title>
<path fill="none" stroke="midnightblue" d="M2378.18,-52.5C2353.62,-42.38 2319.68,-28.39 2298.16,-19.52"/>
<polygon fill="midnightblue" stroke="midnightblue" points="2377.16,-55.87 2387.74,-56.44 2379.83,-49.4 2377.16,-55.87"/>
</g>
<!-- Node31 -->
<g id="node31" class="node">
<title>Node31</title>
<g id="a_node31"><a xlink:href="../../d4/d57/btindexdialog_8cpp.html" target="_top" xlink:title=" ">
<polygon fill="white" stroke="black" points="2356.5,-0.5 2356.5,-19.5 2460.5,-19.5 2460.5,-0.5 2356.5,-0.5"/>
<text text-anchor="middle" x="2408.5" y="-7.5" font-family="Helvetica,sans-Serif" font-size="10.00">btindexdialog.cpp</text>
</a>
</g>
</g>
<!-- Node8&#45;&gt;Node31 -->
<g id="edge31" class="edge">
<title>Node8&#45;&gt;Node31</title>
<path fill="none" stroke="midnightblue" d="M2408.5,-45.8C2408.5,-36.91 2408.5,-26.78 2408.5,-19.75"/>
<polygon fill="midnightblue" stroke="midnightblue" points="2405,-46.08 2408.5,-56.08 2412,-46.08 2405,-46.08"/>
</g>
<!-- Node32 -->
<g id="node32" class="node">
<title>Node32</title>
<g id="a_node32"><a xlink:href="../../d4/d4d/btsearchoptionsarea_8cpp.html" target="_top" xlink:title=" ">
<polygon fill="white" stroke="black" points="2479,-0.5 2479,-19.5 2616,-19.5 2616,-0.5 2479,-0.5"/>
<text text-anchor="middle" x="2547.5" y="-7.5" font-family="Helvetica,sans-Serif" font-size="10.00">btsearchoptionsarea.cpp</text>
</a>
</g>
</g>
<!-- Node8&#45;&gt;Node32 -->
<g id="edge32" class="edge">
<title>Node8&#45;&gt;Node32</title>
<path fill="none" stroke="midnightblue" d="M2439.98,-52.77C2466.09,-42.63 2502.54,-28.47 2525.58,-19.52"/>
<polygon fill="midnightblue" stroke="midnightblue" points="2438.58,-49.56 2430.52,-56.44 2441.11,-56.08 2438.58,-49.56"/>
</g>
<!-- Node33 -->
<g id="node33" class="node">
<title>Node33</title>
<g id="a_node33"><a xlink:href="../../d7/d5d/cmoduleresultview_8cpp.html" target="_top" xlink:title=" ">
<polygon fill="white" stroke="black" points="2634,-0.5 2634,-19.5 2763,-19.5 2763,-0.5 2634,-0.5"/>
<text text-anchor="middle" x="2698.5" y="-7.5" font-family="Helvetica,sans-Serif" font-size="10.00">cmoduleresultview.cpp</text>
</a>
</g>
</g>
<!-- Node8&#45;&gt;Node33 -->
<g id="edge33" class="edge">
<title>Node8&#45;&gt;Node33</title>
<path fill="none" stroke="midnightblue" d="M2451.12,-55.93C2525.98,-41.2 2601.04,-27.86 2649.01,-19.51"/>
<polygon fill="midnightblue" stroke="midnightblue" points="2450.17,-52.55 2441.04,-57.92 2451.53,-59.42 2450.17,-52.55"/>
</g>
<!-- Node34 -->
<g id="node34" class="node">
<title>Node34</title>
<g id="a_node34"><a xlink:href="../../d2/d1a/csearchdialog_8cpp.html" target="_top" xlink:title=" ">
<polygon fill="white" stroke="black" points="2781.5,-0.5 2781.5,-19.5 2885.5,-19.5 2885.5,-0.5 2781.5,-0.5"/>
<text text-anchor="middle" x="2833.5" y="-7.5" font-family="Helvetica,sans-Serif" font-size="10.00">csearchdialog.cpp</text>
</a>
</g>
</g>
<!-- Node8&#45;&gt;Node34 -->
<g id="edge34" class="edge">
<title>Node8&#45;&gt;Node34</title>
<path fill="none" stroke="midnightblue" d="M2451.47,-55.99C2594.35,-33.13 2632.9,-38.1 2772.5,-20 2775.37,-19.63 2778.31,-19.24 2781.27,-18.83"/>
<polygon fill="midnightblue" stroke="midnightblue" points="2450.77,-52.56 2441.46,-57.61 2451.89,-59.47 2450.77,-52.56"/>
</g>
<!-- Node35 -->
<g id="node35" class="node">
<title>Node35</title>
<g id="a_node35"><a xlink:href="../../db/d51/csearchresultview_8cpp.html" target="_top" xlink:title=" ">
<polygon fill="white" stroke="black" points="2904,-0.5 2904,-19.5 3029,-19.5 3029,-0.5 2904,-0.5"/>
<text text-anchor="middle" x="2966.5" y="-7.5" font-family="Helvetica,sans-Serif" font-size="10.00">csearchresultview.cpp</text>
</a>
</g>
</g>
<!-- Node8&#45;&gt;Node35 -->
<g id="edge35" class="edge">
<title>Node8&#45;&gt;Node35</title>
<path fill="none" stroke="midnightblue" d="M2451.52,-56.04C2648.11,-27.62 2700.83,-39.95 2894.5,-20 2897.51,-19.69 2900.58,-19.36 2903.69,-19.01"/>
<polygon fill="midnightblue" stroke="midnightblue" points="2450.83,-52.61 2441.44,-57.52 2451.84,-59.53 2450.83,-52.61"/>
</g>
<!-- Node36 -->
<g id="node36" class="node">
<title>Node36</title>
<g id="a_node36"><a xlink:href="../../d5/d72/btfontsettings_8cpp.html" target="_top" xlink:title=" ">
<polygon fill="white" stroke="black" points="3047,-0.5 3047,-19.5 3152,-19.5 3152,-0.5 3047,-0.5"/>
<text text-anchor="middle" x="3099.5" y="-7.5" font-family="Helvetica,sans-Serif" font-size="10.00">btfontsettings.cpp</text>
</a>
</g>
</g>
<!-- Node8&#45;&gt;Node36 -->
<g id="edge36" class="edge">
<title>Node8&#45;&gt;Node36</title>
<path fill="none" stroke="midnightblue" d="M2451.56,-56.08C2711.66,-21.14 2781.39,-46.79 3038.5,-20 3041.27,-19.71 3044.1,-19.39 3046.96,-19.04"/>
<polygon fill="midnightblue" stroke="midnightblue" points="2450.87,-52.64 2441.43,-57.46 2451.81,-59.57 2450.87,-52.64"/>
</g>
<!-- Node37 -->
<g id="node37" class="node">
<title>Node37</title>
<g id="a_node37"><a xlink:href="../../dc/d6a/cacceleratorsettings_8cpp.html" target="_top" xlink:title=" ">
<polygon fill="white" stroke="black" points="3170.5,-0.5 3170.5,-19.5 3306.5,-19.5 3306.5,-0.5 3170.5,-0.5"/>
<text text-anchor="middle" x="3238.5" y="-7.5" font-family="Helvetica,sans-Serif" font-size="10.00">cacceleratorsettings.cpp</text>
</a>
</g>
</g>
<!-- Node8&#45;&gt;Node37 -->
<g id="edge37" class="edge">
<title>Node8&#45;&gt;Node37</title>
<path fill="none" stroke="midnightblue" d="M2451.75,-56.07C2765.99,-15.39 2849.58,-46.1 3161.5,-20 3164.32,-19.76 3167.19,-19.51 3170.09,-19.23"/>
<polygon fill="midnightblue" stroke="midnightblue" points="2450.89,-52.65 2441.43,-57.42 2451.8,-59.59 2450.89,-52.65"/>
</g>
<!-- Node38 -->
<g id="node38" class="node">
<title>Node38</title>
<g id="a_node38"><a xlink:href="../../d4/dca/cdisplaysettings_8cpp.html" target="_top" xlink:title=" ">
<polygon fill="white" stroke="black" points="3324.5,-0.5 3324.5,-19.5 3440.5,-19.5 3440.5,-0.5 3324.5,-0.5"/>
<text text-anchor="middle" x="3382.5" y="-7.5" font-family="Helvetica,sans-Serif" font-size="10.00">cdisplaysettings.cpp</text>
</a>
</g>
</g>
<!-- Node8&#45;&gt;Node38 -->
<g id="edge38" class="edge">
<title>Node8&#45;&gt;Node38</title>
<path fill="none" stroke="midnightblue" d="M2451.38,-56.14C2833.94,-8.3 2935.47,-53.36 3315.5,-20 3318.42,-19.74 3321.41,-19.45 3324.43,-19.13"/>
<polygon fill="midnightblue" stroke="midnightblue" points="2450.91,-52.67 2441.42,-57.39 2451.78,-59.61 2450.91,-52.67"/>
</g>
<!-- Node39 -->
<g id="node39" class="node">
<title>Node39</title>
<g id="a_node39"><a xlink:href="../../d3/dba/cswordsettings_8cpp.html" target="_top" xlink:title=" ">
<polygon fill="white" stroke="black" points="3458.5,-0.5 3458.5,-19.5 3568.5,-19.5 3568.5,-0.5 3458.5,-0.5"/>
<text text-anchor="middle" x="3513.5" y="-7.5" font-family="Helvetica,sans-Serif" font-size="10.00">cswordsettings.cpp</text>
</a>
</g>
</g>
<!-- Node8&#45;&gt;Node39 -->
<g id="edge39" class="edge">
<title>Node8&#45;&gt;Node39</title>
<path fill="none" stroke="midnightblue" d="M2451.58,-56.12C2893.17,-2.11 3010.28,-58.69 3449.5,-20 3452.41,-19.74 3455.38,-19.45 3458.38,-19.12"/>
<polygon fill="midnightblue" stroke="midnightblue" points="2450.92,-52.68 2441.42,-57.38 2451.78,-59.62 2450.92,-52.68"/>
</g>
<!-- Node40 -->
<g id="node40" class="node">
<title>Node40</title>
<g id="a_node40"><a xlink:href="../../d9/d56/cresmgr_8cpp.html" target="_top" xlink:title=" ">
<polygon fill="white" stroke="black" points="3586.5,-0.5 3586.5,-19.5 3662.5,-19.5 3662.5,-0.5 3586.5,-0.5"/>
<text text-anchor="middle" x="3624.5" y="-7.5" font-family="Helvetica,sans-Serif" font-size="10.00">cresmgr.cpp</text>
</a>
</g>
</g>
<!-- Node8&#45;&gt;Node40 -->
<g id="edge42" class="edge">
<title>Node8&#45;&gt;Node40</title>
<path fill="none" stroke="midnightblue" d="M2451.39,-56.15C2949.7,3.7 3082.7,-74.93 3577.5,-20 3580.39,-19.68 3583.37,-19.28 3586.36,-18.82"/>
<polygon fill="midnightblue" stroke="midnightblue" points="2450.93,-52.68 2441.42,-57.36 2451.77,-59.63 2450.93,-52.68"/>
</g>
<!-- Node41 -->
<g id="node41" class="node">
<title>Node41</title>
<g id="a_node41"><a xlink:href="../../db/d89/tool_8cpp.html" target="_top" xlink:title=" ">
<polygon fill="white" stroke="black" points="3680.5,-0.5 3680.5,-19.5 3736.5,-19.5 3736.5,-0.5 3680.5,-0.5"/>
<text text-anchor="middle" x="3708.5" y="-7.5" font-family="Helvetica,sans-Serif" font-size="10.00">tool.cpp</text>
</a>
</g>
</g>
<!-- Node8&#45;&gt;Node41 -->
<g id="edge43" class="edge">
<title>Node8&#45;&gt;Node41</title>
<path fill="none" stroke="midnightblue" d="M2451.41,-56.16C2991.25,7.91 3136.75,-92.11 3671.5,-20 3674.38,-19.61 3677.37,-19.09 3680.33,-18.49"/>
<polygon fill="midnightblue" stroke="midnightblue" points="2450.93,-52.69 2441.42,-57.35 2451.77,-59.64 2450.93,-52.69"/>
</g>
</g>
</svg>
        <g id="navigator" transform="translate(0 0)" fill="#404254">
                <rect fill="#f2f5e9" fill-opacity="0.5" stroke="#606060" stroke-width=".5" x="0" y="0" width="60" height="60"/>
                <use id="zoomplus" xlink:href="#zoomPlus" x="17" y="9" onmousedown="handleZoom(evt,'in')"/>
                <use id="zoomminus" xlink:href="#zoomMin" x="42" y="9" onmousedown="handleZoom(evt,'out')"/>
                <use id="reset" xlink:href="#resetDef" x="30" y="36" onmousedown="handleReset()"/>
                <g id="arrowUp" xlink:href="#dirArrow" transform="translate(30 24)" onmousedown="handlePan(0,-1)">
                  <use xlink:href="#rim" fill="#404040">
                        <set attributeName="fill" to="#808080" begin="arrowUp.mouseover" end="arrowUp.mouseout"/>
                  </use>
                  <path fill="none" stroke="white" stroke-width="1.5" d="M0,-3.0v7 M-2.5,-0.5L0,-3.0L2.5,-0.5"/>
                </g>
                <g id="arrowRight" xlink:href="#dirArrow" transform="rotate(90) translate(36 -43)" onmousedown="handlePan(1,0)">
                  <use xlink:href="#rim" fill="#404040">
                        <set attributeName="fill" to="#808080" begin="arrowRight.mouseover" end="arrowRight.mouseout"/>
                  </use>
                  <path fill="none" stroke="white" stroke-width="1.5" d="M0,-3.0v7 M-2.5,-0.5L0,-3.0L2.5,-0.5"/>
                </g>
                <g id="arrowDown" xlink:href="#dirArrow" transform="rotate(180) translate(-30 -48)" onmousedown="handlePan(0,1)">
                  <use xlink:href="#rim" fill="#404040">
                        <set attributeName="fill" to="#808080" begin="arrowDown.mouseover" end="arrowDown.mouseout"/>
                  </use>
                  <path fill="none" stroke="white" stroke-width="1.5" d="M0,-3.0v7 M-2.5,-0.5L0,-3.0L2.5,-0.5"/>
                </g>
                <g id="arrowLeft" xlink:href="#dirArrow" transform="rotate(270) translate(-36 17)" onmousedown="handlePan(-1,0)">
                  <use xlink:href="#rim" fill="#404040">
                        <set attributeName="fill" to="#808080" begin="arrowLeft.mouseover" end="arrowLeft.mouseout"/>
                  </use>
                  <path fill="none" stroke="white" stroke-width="1.5" d="M0,-3.0v7 M-2.5,-0.5L0,-3.0L2.5,-0.5"/>
                </g>
        </g>
        <svg viewBox="0 0 15 15" width="100%" height="30px" preserveAspectRatio="xMaxYMin meet">
         <g id="arrow_out" transform="scale(0.3 0.3)">
          <a xlink:href="bticons_8h__dep__incl_org.svg" target="_base">
           <rect id="button" ry="5" rx="5" y="6" x="6" height="38" width="38"
                fill="#f2f5e9" fill-opacity="0.5" stroke="#606060" stroke-width="1.0"/>
           <path id="arrow"
             d="M 11.500037,31.436501 C 11.940474,20.09759 22.043105,11.32322 32.158766,21.979434 L 37.068811,17.246167 C 37.068811,17.246167 37.088388,32 37.088388,32 L 22.160133,31.978069 C 22.160133,31.978069 26.997745,27.140456 26.997745,27.140456 C 18.528582,18.264221 13.291696,25.230495 11.500037,31.436501 z"
             style="fill:#404040;"/>
          </a>
         </g>
        </svg>
</svg>
