<?xml version="1.0" encoding="UTF-8" standalone="no"?>
<!DOCTYPE svg PUBLIC "-//W3C//DTD SVG 1.1//EN"
 "http://www.w3.org/Graphics/SVG/1.1/DTD/svg11.dtd">
<!-- Generated by graphviz version 2.43.0 (0)
 -->
<!-- Title: bticons.h Pages: 1 -->
<svg width="5236pt" height="137pt"
 viewBox="0.00 0.00 5236.00 137.00" xmlns="http://www.w3.org/2000/svg" xmlns:xlink="http://www.w3.org/1999/xlink">
<g id="graph0" class="graph" transform="scale(1 1) rotate(0) translate(4 133)">
<title>bticons.h</title>
<!-- Node1 -->
<g id="Node000001" class="node">
<title>Node1</title>
<g id="a_Node000001"><a xlink:title=" ">
<polygon fill="#999999" stroke="#666666" points="372,-129 311,-129 311,-110 372,-110 372,-129"/>
<text text-anchor="middle" x="341.5" y="-117" font-family="Helvetica,sans-Serif" font-size="10.00">bticons.h</text>
</a>
</g>
</g>
<!-- Node2 -->
<g id="Node000002" class="node">
<title>Node2</title>
<g id="a_Node000002"><a xlink:href="../../d5/d86/bibletimeapp_8cpp.html" target="_top" xlink:title=" ">
<polygon fill="white" stroke="#666666" points="101,-74 0,-74 0,-55 101,-55 101,-74"/>
<text text-anchor="middle" x="50.5" y="-62" font-family="Helvetica,sans-Serif" font-size="10.00">bibletimeapp.cpp</text>
</a>
</g>
</g>
<!-- Node1&#45;&gt;Node2 -->
<g id="edge1_Node000001_Node000002" class="edge">
<title>Node1&#45;&gt;Node2</title>
<g id="a_edge1_Node000001_Node000002"><a xlink:title=" ">
<path fill="none" stroke="#63b8ff" d="M300.78,-111.08C247.33,-101.35 153.73,-84.3 97.39,-74.04"/>
<polygon fill="#63b8ff" stroke="#63b8ff" points="300.44,-114.58 310.91,-112.93 301.7,-107.69 300.44,-114.58"/>
</a>
</g>
</g>
<!-- Node3 -->
<g id="Node000003" class="node">
<title>Node3</title>
<g id="a_Node000003"><a xlink:href="../../d1/dd7/btaboutdialog_8cpp.html" target="_top" xlink:title=" ">
<polygon fill="white" stroke="#666666" points="223.5,-74 119.5,-74 119.5,-55 223.5,-55 223.5,-74"/>
<text text-anchor="middle" x="171.5" y="-62" font-family="Helvetica,sans-Serif" font-size="10.00">btaboutdialog.cpp</text>
</a>
</g>
</g>
<!-- Node1&#45;&gt;Node3 -->
<g id="edge2_Node000001_Node000003" class="edge">
<title>Node1&#45;&gt;Node3</title>
<g id="a_edge2_Node000001_Node000003"><a xlink:title=" ">
<path fill="none" stroke="#63b8ff" d="M304.38,-106.93C272.63,-97.03 227.65,-83.01 199.03,-74.08"/>
<polygon fill="#63b8ff" stroke="#63b8ff" points="303.6,-110.35 314.19,-109.98 305.68,-103.67 303.6,-110.35"/>
</a>
</g>
</g>
<!-- Node4 -->
<g id="Node000004" class="node">
<title>Node4</title>
<g id="a_Node000004"><a xlink:href="../../db/d95/bticons_8cpp.html" target="_top" xlink:title=" ">
<polygon fill="white" stroke="#666666" points="313.5,-74 241.5,-74 241.5,-55 313.5,-55 313.5,-74"/>
<text text-anchor="middle" x="277.5" y="-62" font-family="Helvetica,sans-Serif" font-size="10.00">bticons.cpp</text>
</a>
</g>
</g>
<!-- Node1&#45;&gt;Node4 -->
<g id="edge3_Node000001_Node000004" class="edge">
<title>Node1&#45;&gt;Node4</title>
<g id="a_edge3_Node000001_Node000004"><a xlink:title=" ">
<path fill="none" stroke="#63b8ff" d="M323.51,-103.6C312.04,-94.11 297.59,-82.13 287.97,-74.17"/>
<polygon fill="#63b8ff" stroke="#63b8ff" points="321.28,-106.3 331.22,-109.98 325.75,-100.91 321.28,-106.3"/>
</a>
</g>
</g>
<!-- Node5 -->
<g id="Node000005" class="node">
<title>Node5</title>
<g id="a_Node000005"><a xlink:href="../../d9/d08/bttipdialog_8cpp.html" target="_top" xlink:title=" ">
<polygon fill="white" stroke="#666666" points="276,-19 187,-19 187,0 276,0 276,-19"/>
<text text-anchor="middle" x="231.5" y="-7" font-family="Helvetica,sans-Serif" font-size="10.00">bttipdialog.cpp</text>
</a>
</g>
</g>
<!-- Node1&#45;&gt;Node5 -->
<g id="edge4_Node000001_Node000005" class="edge">
<title>Node1&#45;&gt;Node5</title>
<g id="a_edge4_Node000001_Node000005"><a xlink:title=" ">
<path fill="none" stroke="#63b8ff" d="M339.85,-99.41C337.77,-85.68 333.08,-67.48 322.5,-55 307.37,-37.16 283.4,-25.85 263.86,-19.09"/>
<polygon fill="#63b8ff" stroke="#63b8ff" points="336.41,-100.13 341.05,-109.65 343.36,-99.31 336.41,-100.13"/>
</a>
</g>
</g>
<!-- Node6 -->
<g id="Node000006" class="node">
<title>Node6</title>
<g id="a_Node000006"><a xlink:href="../../dd/deb/btwelcomedialog_8cpp.html" target="_top" xlink:title=" ">
<polygon fill="white" stroke="#666666" points="415,-19 294,-19 294,0 415,0 415,-19"/>
<text text-anchor="middle" x="354.5" y="-7" font-family="Helvetica,sans-Serif" font-size="10.00">btwelcomedialog.cpp</text>
</a>
</g>
</g>
<!-- Node1&#45;&gt;Node6 -->
<g id="edge5_Node000001_Node000006" class="edge">
<title>Node1&#45;&gt;Node6</title>
<g id="a_edge5_Node000001_Node000006"><a xlink:title=" ">
<path fill="none" stroke="#63b8ff" d="M348.65,-100.18C351.37,-92.26 354.15,-82.81 355.5,-74 358.48,-54.6 356.83,-31.48 355.55,-19.19"/>
<polygon fill="#63b8ff" stroke="#63b8ff" points="345.27,-99.23 345.1,-109.82 351.84,-101.65 345.27,-99.23"/>
</a>
</g>
</g>
<!-- Node7 -->
<g id="Node000007" class="node">
<title>Node7</title>
<g id="a_Node000007"><a xlink:href="../../d9/de6/cbookmarkindex_8cpp.html" target="_top" xlink:title=" ">
<polygon fill="white" stroke="#666666" points="552,-19 433,-19 433,0 552,0 552,-19"/>
<text text-anchor="middle" x="492.5" y="-7" font-family="Helvetica,sans-Serif" font-size="10.00">cbookmarkindex.cpp</text>
</a>
</g>
</g>
<!-- Node1&#45;&gt;Node7 -->
<g id="edge6_Node000001_Node000007" class="edge">
<title>Node1&#45;&gt;Node7</title>
<g id="a_edge6_Node000001_Node000007"><a xlink:title=" ">
<path fill="none" stroke="#63b8ff" d="M361.77,-104.01C393.62,-81.22 454.45,-37.72 480.34,-19.2"/>
<polygon fill="#63b8ff" stroke="#63b8ff" points="359.7,-101.18 353.6,-109.84 363.77,-106.87 359.7,-101.18"/>
</a>
</g>
</g>
<!-- Node8 -->
<g id="Node000008" class="node">
<title>Node8</title>
<g id="a_Node000008"><a xlink:href="../../dc/deb/cresmgr_8h.html" target="_top" xlink:title=" ">
<polygon fill="white" stroke="#666666" points="2727,-74 2662,-74 2662,-55 2727,-55 2727,-74"/>
<text text-anchor="middle" x="2694.5" y="-62" font-family="Helvetica,sans-Serif" font-size="10.00">cresmgr.h</text>
</a>
</g>
</g>
<!-- Node1&#45;&gt;Node8 -->
<g id="edge7_Node000001_Node000008" class="edge">
<title>Node1&#45;&gt;Node8</title>
<g id="a_edge7_Node000001_Node000008"><a xlink:title=" ">
<path fill="none" stroke="#63b8ff" d="M382.13,-117.58C670.33,-111.09 2401.81,-72.09 2661.82,-66.24"/>
<polygon fill="#63b8ff" stroke="#63b8ff" points="382.03,-114.09 372.11,-117.81 382.19,-121.08 382.03,-114.09"/>
</a>
</g>
</g>
<!-- Node8&#45;&gt;Node5 -->
<g id="edge26_Node000008_Node000005" class="edge">
<title>Node8&#45;&gt;Node5</title>
<g id="a_edge26_Node000008_Node000005"><a xlink:title=" ">
<path fill="none" stroke="#63b8ff" d="M2651.43,-63.52C2368.36,-63.5 770.97,-61.49 285.5,-19 282.47,-18.74 279.36,-18.4 276.23,-18.03"/>
<polygon fill="#63b8ff" stroke="#63b8ff" points="2651.69,-67.02 2661.69,-63.52 2651.69,-60.02 2651.69,-67.02"/>
</a>
</g>
</g>
<!-- Node8&#45;&gt;Node6 -->
<g id="edge27_Node000008_Node000006" class="edge">
<title>Node8&#45;&gt;Node6</title>
<g id="a_edge27_Node000008_Node000006"><a xlink:title=" ">
<path fill="none" stroke="#63b8ff" d="M2651.38,-63.25C2377.85,-61.59 881.15,-51.12 424.5,-19 421.45,-18.79 418.32,-18.53 415.17,-18.25"/>
<polygon fill="#63b8ff" stroke="#63b8ff" points="2651.66,-66.75 2661.68,-63.31 2651.7,-59.75 2651.66,-66.75"/>
</a>
</g>
</g>
<!-- Node8&#45;&gt;Node7 -->
<g id="edge30_Node000008_Node000007" class="edge">
<title>Node8&#45;&gt;Node7</title>
<g id="a_edge30_Node000008_Node000007"><a xlink:title=" ">
<path fill="none" stroke="#63b8ff" d="M2651.52,-63.2C2388.11,-61.27 989.2,-49.73 561.5,-19 558.49,-18.78 555.41,-18.53 552.3,-18.24"/>
<polygon fill="#63b8ff" stroke="#63b8ff" points="2651.79,-66.7 2661.81,-63.27 2651.84,-59.7 2651.79,-66.7"/>
</a>
</g>
</g>
<!-- Node9 -->
<g id="Node000009" class="node">
<title>Node9</title>
<g id="a_Node000009"><a xlink:href="../../d1/df6/bibletime_8cpp.html" target="_top" xlink:title=" ">
<polygon fill="white" stroke="#666666" points="3984,-19 3901,-19 3901,0 3984,0 3984,-19"/>
<text text-anchor="middle" x="3942.5" y="-7" font-family="Helvetica,sans-Serif" font-size="10.00">bibletime.cpp</text>
</a>
</g>
</g>
<!-- Node8&#45;&gt;Node9 -->
<g id="edge8_Node000008_Node000009" class="edge">
<title>Node8&#45;&gt;Node9</title>
<g id="a_edge8_Node000008_Node000009"><a xlink:title=" ">
<path fill="none" stroke="#63b8ff" d="M2737.56,-63.89C2893.34,-64.86 3442.01,-64.62 3891.5,-19 3894.54,-18.69 3897.67,-18.32 3900.81,-17.89"/>
<polygon fill="#63b8ff" stroke="#63b8ff" points="2737.48,-60.39 2727.45,-63.82 2737.43,-67.38 2737.48,-60.39"/>
</a>
</g>
</g>
<!-- Node10 -->
<g id="Node000010" class="node">
<title>Node10</title>
<g id="a_Node000010"><a xlink:href="../../da/dc7/bibletime__init_8cpp.html" target="_top" xlink:title=" ">
<polygon fill="white" stroke="#666666" points="4106.5,-19 4002.5,-19 4002.5,0 4106.5,0 4106.5,-19"/>
<text text-anchor="middle" x="4054.5" y="-7" font-family="Helvetica,sans-Serif" font-size="10.00">bibletime_init.cpp</text>
</a>
</g>
</g>
<!-- Node8&#45;&gt;Node10 -->
<g id="edge9_Node000008_Node000010" class="edge">
<title>Node8&#45;&gt;Node10</title>
<g id="a_edge9_Node000008_Node000010"><a xlink:title=" ">
<path fill="none" stroke="#63b8ff" d="M2737.34,-63.65C2900.85,-63.88 3501.29,-61.61 3993.5,-19 3996.38,-18.75 3999.32,-18.46 4002.3,-18.14"/>
<polygon fill="#63b8ff" stroke="#63b8ff" points="2737.21,-60.15 2727.2,-63.63 2737.2,-67.15 2737.21,-60.15"/>
</a>
</g>
</g>
<!-- Node11 -->
<g id="Node000011" class="node">
<title>Node11</title>
<g id="a_Node000011"><a xlink:href="../../d7/d92/btbiblekeywidget_8cpp.html" target="_top" xlink:title=" ">
<polygon fill="white" stroke="#666666" points="4246,-19 4125,-19 4125,0 4246,0 4246,-19"/>
<text text-anchor="middle" x="4185.5" y="-7" font-family="Helvetica,sans-Serif" font-size="10.00">btbiblekeywidget.cpp</text>
</a>
</g>
</g>
<!-- Node8&#45;&gt;Node11 -->
<g id="edge10_Node000008_Node000011" class="edge">
<title>Node8&#45;&gt;Node11</title>
<g id="a_edge10_Node000008_Node000011"><a xlink:title=" ">
<path fill="none" stroke="#63b8ff" d="M2737.28,-63.56C2909.99,-63.49 3572.51,-60.39 4115.5,-19 4118.55,-18.77 4121.67,-18.5 4124.83,-18.2"/>
<polygon fill="#63b8ff" stroke="#63b8ff" points="2737.09,-60.06 2727.09,-63.56 2737.09,-67.06 2737.09,-60.06"/>
</a>
</g>
</g>
<!-- Node12 -->
<g id="Node000012" class="node">
<title>Node12</title>
<g id="a_Node000012"><a xlink:href="../../d7/dd0/btbookmarksmodel_8cpp.html" target="_top" xlink:title=" ">
<polygon fill="white" stroke="#666666" points="4396.5,-19 4264.5,-19 4264.5,0 4396.5,0 4396.5,-19"/>
<text text-anchor="middle" x="4330.5" y="-7" font-family="Helvetica,sans-Serif" font-size="10.00">btbookmarksmodel.cpp</text>
</a>
</g>
</g>
<!-- Node8&#45;&gt;Node12 -->
<g id="edge11_Node000008_Node000012" class="edge">
<title>Node8&#45;&gt;Node12</title>
<g id="a_edge11_Node000008_Node000012"><a xlink:title=" ">
<path fill="none" stroke="#63b8ff" d="M2737.25,-63.6C2920.09,-63.76 3654.29,-61.56 4255.5,-19 4258.38,-18.8 4261.31,-18.57 4264.27,-18.31"/>
<polygon fill="#63b8ff" stroke="#63b8ff" points="2737.24,-60.1 2727.23,-63.59 2737.23,-67.1 2737.24,-60.1"/>
</a>
</g>
</g>
<!-- Node13 -->
<g id="Node000013" class="node">
<title>Node13</title>
<g id="a_Node000013"><a xlink:href="../../df/d88/btbookshelfdockwidget_8cpp.html" target="_top" xlink:title=" ">
<polygon fill="white" stroke="#666666" points="4566,-19 4415,-19 4415,0 4566,0 4566,-19"/>
<text text-anchor="middle" x="4490.5" y="-7" font-family="Helvetica,sans-Serif" font-size="10.00">btbookshelfdockwidget.cpp</text>
</a>
</g>
</g>
<!-- Node8&#45;&gt;Node13 -->
<g id="edge12_Node000008_Node000013" class="edge">
<title>Node8&#45;&gt;Node13</title>
<g id="a_edge12_Node000008_Node000013"><a xlink:title=" ">
<path fill="none" stroke="#63b8ff" d="M2737.19,-63.55C2930.3,-63.52 3741.55,-60.77 4405.5,-19 4408.61,-18.8 4411.78,-18.58 4414.98,-18.34"/>
<polygon fill="#63b8ff" stroke="#63b8ff" points="2737.16,-60.05 2727.16,-63.55 2737.16,-67.05 2737.16,-60.05"/>
</a>
</g>
</g>
<!-- Node14 -->
<g id="Node000014" class="node">
<title>Node14</title>
<g id="a_Node000014"><a xlink:href="../../d8/d44/btbookshelfgroupingmenu_8cpp.html" target="_top" xlink:title=" ">
<polygon fill="white" stroke="#666666" points="4749,-19 4584,-19 4584,0 4749,0 4749,-19"/>
<text text-anchor="middle" x="4666.5" y="-7" font-family="Helvetica,sans-Serif" font-size="10.00">btbookshelfgroupingmenu.cpp</text>
</a>
</g>
</g>
<!-- Node8&#45;&gt;Node14 -->
<g id="edge13_Node000008_Node000014" class="edge">
<title>Node8&#45;&gt;Node14</title>
<g id="a_edge13_Node000008_Node000014"><a xlink:title=" ">
<path fill="none" stroke="#63b8ff" d="M2737.05,-63.59C2941.15,-63.77 3840.3,-61.98 4575.5,-19 4578.19,-18.84 4580.93,-18.67 4583.69,-18.48"/>
<polygon fill="#63b8ff" stroke="#63b8ff" points="2737.04,-60.09 2727.03,-63.58 2737.03,-67.09 2737.04,-60.09"/>
</a>
</g>
</g>
<!-- Node15 -->
<g id="Node000015" class="node">
<title>Node15</title>
<g id="a_Node000015"><a xlink:href="../../d9/d70/btbookshelfwidget_8cpp.html" target="_top" xlink:title=" ">
<polygon fill="white" stroke="#666666" points="4894,-19 4767,-19 4767,0 4894,0 4894,-19"/>
<text text-anchor="middle" x="4830.5" y="-7" font-family="Helvetica,sans-Serif" font-size="10.00">btbookshelfwidget.cpp</text>
</a>
</g>
</g>
<!-- Node8&#45;&gt;Node15 -->
<g id="edge14_Node000008_Node000015" class="edge">
<title>Node8&#45;&gt;Node15</title>
<g id="a_edge14_Node000008_Node000015"><a xlink:title=" ">
<path fill="none" stroke="#63b8ff" d="M2737.32,-63.14C2995.29,-60.87 4345.22,-47.78 4758.5,-19 4761.26,-18.81 4764.08,-18.59 4766.93,-18.34"/>
<polygon fill="#63b8ff" stroke="#63b8ff" points="2737.2,-59.64 2727.23,-63.23 2737.26,-66.64 2737.2,-59.64"/>
</a>
</g>
</g>
<!-- Node16 -->
<g id="Node000016" class="node">
<title>Node16</title>
<g id="a_Node000016"><a xlink:href="../../d5/dcf/btdisplaysettingsbutton_8cpp.html" target="_top" xlink:title=" ">
<polygon fill="white" stroke="#666666" points="5064.5,-19 4912.5,-19 4912.5,0 5064.5,0 5064.5,-19"/>
<text text-anchor="middle" x="4988.5" y="-7" font-family="Helvetica,sans-Serif" font-size="10.00">btdisplaysettingsbutton.cpp</text>
</a>
</g>
</g>
<!-- Node8&#45;&gt;Node16 -->
<g id="edge15_Node000008_Node000016" class="edge">
<title>Node8&#45;&gt;Node16</title>
<g id="a_edge15_Node000008_Node000016"><a xlink:title=" ">
<path fill="none" stroke="#63b8ff" d="M2737.31,-63.1C3005.68,-60.55 4459.29,-45.64 4903.5,-19 4906.31,-18.83 4909.18,-18.64 4912.07,-18.43"/>
<polygon fill="#63b8ff" stroke="#63b8ff" points="2737.16,-59.6 2727.19,-63.2 2737.22,-66.6 2737.16,-59.6"/>
</a>
</g>
</g>
<!-- Node17 -->
<g id="Node000017" class="node">
<title>Node17</title>
<g id="a_Node000017"><a xlink:href="../../d8/d38/bteditbookmarkdialog_8cpp.html" target="_top" xlink:title=" ">
<polygon fill="white" stroke="#666666" points="5228,-19 5083,-19 5083,0 5228,0 5228,-19"/>
<text text-anchor="middle" x="5155.5" y="-7" font-family="Helvetica,sans-Serif" font-size="10.00">bteditbookmarkdialog.cpp</text>
</a>
</g>
</g>
<!-- Node8&#45;&gt;Node17 -->
<g id="edge16_Node000008_Node000017" class="edge">
<title>Node8&#45;&gt;Node17</title>
<g id="a_edge16_Node000008_Node000017"><a xlink:title=" ">
<path fill="none" stroke="#63b8ff" d="M2737.46,-63.19C3018.08,-61.12 4593.39,-48.32 5073.5,-19 5076.5,-18.82 5079.56,-18.61 5082.65,-18.37"/>
<polygon fill="#63b8ff" stroke="#63b8ff" points="2737.25,-59.7 2727.28,-63.27 2737.31,-66.7 2737.25,-59.7"/>
</a>
</g>
</g>
<!-- Node18 -->
<g id="Node000018" class="node">
<title>Node18</title>
<g id="a_Node000018"><a xlink:href="../../d4/d78/btedittextpage_8cpp.html" target="_top" xlink:title=" ">
<polygon fill="white" stroke="#666666" points="679,-19 570,-19 570,0 679,0 679,-19"/>
<text text-anchor="middle" x="624.5" y="-7" font-family="Helvetica,sans-Serif" font-size="10.00">btedittextpage.cpp</text>
</a>
</g>
</g>
<!-- Node8&#45;&gt;Node18 -->
<g id="edge17_Node000008_Node000018" class="edge">
<title>Node8&#45;&gt;Node18</title>
<g id="a_edge17_Node000008_Node000018"><a xlink:title=" ">
<path fill="none" stroke="#63b8ff" d="M2651.7,-63.19C2398.03,-61.27 1089.32,-49.97 688.5,-19 685.48,-18.77 682.39,-18.49 679.27,-18.18"/>
<polygon fill="#63b8ff" stroke="#63b8ff" points="2651.94,-66.69 2661.97,-63.27 2651.99,-59.69 2651.94,-66.69"/>
</a>
</g>
</g>
<!-- Node19 -->
<g id="Node000019" class="node">
<title>Node19</title>
<g id="a_Node000019"><a xlink:href="../../de/dee/btfindwidget_8cpp.html" target="_top" xlink:title=" ">
<polygon fill="white" stroke="#666666" points="795.5,-19 697.5,-19 697.5,0 795.5,0 795.5,-19"/>
<text text-anchor="middle" x="746.5" y="-7" font-family="Helvetica,sans-Serif" font-size="10.00">btfindwidget.cpp</text>
</a>
</g>
</g>
<!-- Node8&#45;&gt;Node19 -->
<g id="edge18_Node000008_Node000019" class="edge">
<title>Node8&#45;&gt;Node19</title>
<g id="a_edge18_Node000008_Node000019"><a xlink:title=" ">
<path fill="none" stroke="#63b8ff" d="M2651.5,-63.19C2406.18,-61.29 1181.37,-50.39 805.5,-19 802.3,-18.73 799.02,-18.41 795.71,-18.04"/>
<polygon fill="#63b8ff" stroke="#63b8ff" points="2651.76,-66.69 2661.78,-63.27 2651.81,-59.69 2651.76,-66.69"/>
</a>
</g>
</g>
<!-- Node20 -->
<g id="Node000020" class="node">
<title>Node20</title>
<g id="a_Node000020"><a xlink:href="../../d5/d72/btfontsettings_8cpp.html" target="_top" xlink:title=" ">
<polygon fill="white" stroke="#666666" points="919,-19 814,-19 814,0 919,0 919,-19"/>
<text text-anchor="middle" x="866.5" y="-7" font-family="Helvetica,sans-Serif" font-size="10.00">btfontsettings.cpp</text>
</a>
</g>
</g>
<!-- Node8&#45;&gt;Node20 -->
<g id="edge19_Node000008_Node000020" class="edge">
<title>Node8&#45;&gt;Node20</title>
<g id="a_edge19_Node000008_Node000020"><a xlink:title=" ">
<path fill="none" stroke="#63b8ff" d="M2651.71,-63.07C2416.49,-60.59 1278.68,-47.33 928.5,-19 925.47,-18.75 922.36,-18.46 919.22,-18.13"/>
<polygon fill="#63b8ff" stroke="#63b8ff" points="2651.88,-66.57 2661.91,-63.17 2651.95,-59.57 2651.88,-66.57"/>
</a>
</g>
</g>
<!-- Node21 -->
<g id="Node000021" class="node">
<title>Node21</title>
<g id="a_Node000021"><a xlink:href="../../d4/d57/btindexdialog_8cpp.html" target="_top" xlink:title=" ">
<polygon fill="white" stroke="#666666" points="1041.5,-19 937.5,-19 937.5,0 1041.5,0 1041.5,-19"/>
<text text-anchor="middle" x="989.5" y="-7" font-family="Helvetica,sans-Serif" font-size="10.00">btindexdialog.cpp</text>
</a>
</g>
</g>
<!-- Node8&#45;&gt;Node21 -->
<g id="edge20_Node000008_Node000021" class="edge">
<title>Node8&#45;&gt;Node21</title>
<g id="a_edge20_Node000008_Node000021"><a xlink:title=" ">
<path fill="none" stroke="#63b8ff" d="M2651.83,-62.99C2426.69,-60.2 1375.06,-45.92 1050.5,-19 1047.62,-18.76 1044.67,-18.48 1041.7,-18.16"/>
<polygon fill="#63b8ff" stroke="#63b8ff" points="2651.87,-66.49 2661.92,-63.11 2651.96,-59.49 2651.87,-66.49"/>
</a>
</g>
</g>
<!-- Node22 -->
<g id="Node000022" class="node">
<title>Node22</title>
<g id="a_Node000022"><a xlink:href="../../d1/d5b/btmessageinputdialog_8cpp.html" target="_top" xlink:title=" ">
<polygon fill="white" stroke="#666666" points="1205.5,-19 1059.5,-19 1059.5,0 1205.5,0 1205.5,-19"/>
<text text-anchor="middle" x="1132.5" y="-7" font-family="Helvetica,sans-Serif" font-size="10.00">btmessageinputdialog.cpp</text>
</a>
</g>
</g>
<!-- Node8&#45;&gt;Node22 -->
<g id="edge21_Node000008_Node000022" class="edge">
<title>Node8&#45;&gt;Node22</title>
<g id="a_edge21_Node000008_Node000022"><a xlink:title=" ">
<path fill="none" stroke="#63b8ff" d="M2651.74,-63.34C2474.84,-62.43 1782.89,-56.54 1215.5,-19 1212.32,-18.79 1209.07,-18.55 1205.8,-18.3"/>
<polygon fill="#63b8ff" stroke="#63b8ff" points="2651.91,-66.84 2661.93,-63.39 2651.95,-59.84 2651.91,-66.84"/>
</a>
</g>
</g>
<!-- Node23 -->
<g id="Node000023" class="node">
<title>Node23</title>
<g id="a_Node000023"><a xlink:href="../../d7/df1/btmodulechooserbutton_8cpp.html" target="_top" xlink:title=" ">
<polygon fill="white" stroke="#666666" points="1377,-19 1224,-19 1224,0 1377,0 1377,-19"/>
<text text-anchor="middle" x="1300.5" y="-7" font-family="Helvetica,sans-Serif" font-size="10.00">btmodulechooserbutton.cpp</text>
</a>
</g>
</g>
<!-- Node8&#45;&gt;Node23 -->
<g id="edge22_Node000008_Node000023" class="edge">
<title>Node8&#45;&gt;Node23</title>
<g id="a_edge22_Node000008_Node000023"><a xlink:title=" ">
<path fill="none" stroke="#63b8ff" d="M2651.42,-63.04C2486.94,-61.09 1882.88,-51.94 1386.5,-19 1383.51,-18.8 1380.45,-18.58 1377.37,-18.35"/>
<polygon fill="#63b8ff" stroke="#63b8ff" points="2651.57,-66.55 2661.61,-63.16 2651.65,-59.55 2651.57,-66.55"/>
</a>
</g>
</g>
<!-- Node24 -->
<g id="Node000024" class="node">
<title>Node24</title>
<g id="a_Node000024"><a xlink:href="../../d9/d62/btopenworkaction_8cpp.html" target="_top" xlink:title=" ">
<polygon fill="white" stroke="#666666" points="1519.5,-19 1395.5,-19 1395.5,0 1519.5,0 1519.5,-19"/>
<text text-anchor="middle" x="1457.5" y="-7" font-family="Helvetica,sans-Serif" font-size="10.00">btopenworkaction.cpp</text>
</a>
</g>
</g>
<!-- Node8&#45;&gt;Node24 -->
<g id="edge23_Node000008_Node000024" class="edge">
<title>Node8&#45;&gt;Node24</title>
<g id="a_edge23_Node000008_Node000024"><a xlink:title=" ">
<path fill="none" stroke="#63b8ff" d="M2651.17,-63.08C2497.8,-61.35 1966.48,-53.09 1529.5,-19 1526.24,-18.75 1522.89,-18.46 1519.52,-18.14"/>
<polygon fill="#63b8ff" stroke="#63b8ff" points="2651.51,-66.59 2661.55,-63.2 2651.59,-59.59 2651.51,-66.59"/>
</a>
</g>
</g>
<!-- Node25 -->
<g id="Node000025" class="node">
<title>Node25</title>
<g id="a_Node000025"><a xlink:href="../../d4/d4d/btsearchoptionsarea_8cpp.html" target="_top" xlink:title=" ">
<polygon fill="white" stroke="#666666" points="1675,-19 1538,-19 1538,0 1675,0 1675,-19"/>
<text text-anchor="middle" x="1606.5" y="-7" font-family="Helvetica,sans-Serif" font-size="10.00">btsearchoptionsarea.cpp</text>
</a>
</g>
</g>
<!-- Node8&#45;&gt;Node25 -->
<g id="edge24_Node000008_Node000025" class="edge">
<title>Node8&#45;&gt;Node25</title>
<g id="a_edge24_Node000008_Node000025"><a xlink:title=" ">
<path fill="none" stroke="#63b8ff" d="M2651.49,-62.6C2511.82,-59.45 2058.46,-47.58 1684.5,-19 1681.51,-18.77 1678.46,-18.52 1675.38,-18.25"/>
<polygon fill="#63b8ff" stroke="#63b8ff" points="2651.68,-66.1 2661.76,-62.83 2651.84,-59.1 2651.68,-66.1"/>
</a>
</g>
</g>
<!-- Node26 -->
<g id="Node000026" class="node">
<title>Node26</title>
<g id="a_Node000026"><a xlink:href="../../dc/da2/bttextwindowheaderwidget_8cpp.html" target="_top" xlink:title=" ">
<polygon fill="white" stroke="#666666" points="1863.5,-19 1693.5,-19 1693.5,0 1863.5,0 1863.5,-19"/>
<text text-anchor="middle" x="1778.5" y="-7" font-family="Helvetica,sans-Serif" font-size="10.00">bttextwindowheaderwidget.cpp</text>
</a>
</g>
</g>
<!-- Node8&#45;&gt;Node26 -->
<g id="edge25_Node000008_Node000026" class="edge">
<title>Node8&#45;&gt;Node26</title>
<g id="a_edge25_Node000008_Node000026"><a xlink:title=" ">
<path fill="none" stroke="#63b8ff" d="M2651.95,-61.74C2530.3,-56.59 2170.64,-40.54 1872.5,-19 1869.56,-18.79 1866.57,-18.56 1863.54,-18.33"/>
<polygon fill="#63b8ff" stroke="#63b8ff" points="2651.83,-65.24 2661.97,-62.16 2652.13,-58.24 2651.83,-65.24"/>
</a>
</g>
</g>
<!-- Node27 -->
<g id="Node000027" class="node">
<title>Node27</title>
<g id="a_Node000027"><a xlink:href="../../dc/d6a/cacceleratorsettings_8cpp.html" target="_top" xlink:title=" ">
<polygon fill="white" stroke="#666666" points="2017.5,-19 1881.5,-19 1881.5,0 2017.5,0 2017.5,-19"/>
<text text-anchor="middle" x="1949.5" y="-7" font-family="Helvetica,sans-Serif" font-size="10.00">cacceleratorsettings.cpp</text>
</a>
</g>
</g>
<!-- Node8&#45;&gt;Node27 -->
<g id="edge28_Node000008_Node000027" class="edge">
<title>Node8&#45;&gt;Node27</title>
<g id="a_edge28_Node000008_Node000027"><a xlink:title=" ">
<path fill="none" stroke="#63b8ff" d="M2651.55,-61.26C2545.5,-55.59 2262.78,-39.66 2027.5,-19 2024.24,-18.71 2020.91,-18.41 2017.55,-18.09"/>
<polygon fill="#63b8ff" stroke="#63b8ff" points="2651.67,-64.77 2661.84,-61.81 2652.04,-57.78 2651.67,-64.77"/>
</a>
</g>
</g>
<!-- Node28 -->
<g id="Node000028" class="node">
<title>Node28</title>
<g id="a_Node000028"><a xlink:href="../../de/da4/cbiblereadwindow_8cpp.html" target="_top" xlink:title=" ">
<polygon fill="white" stroke="#666666" points="2161,-19 2036,-19 2036,0 2161,0 2161,-19"/>
<text text-anchor="middle" x="2098.5" y="-7" font-family="Helvetica,sans-Serif" font-size="10.00">cbiblereadwindow.cpp</text>
</a>
</g>
</g>
<!-- Node8&#45;&gt;Node28 -->
<g id="edge29_Node000008_Node000028" class="edge">
<title>Node8&#45;&gt;Node28</title>
<g id="a_edge29_Node000008_Node000028"><a xlink:title=" ">
<path fill="none" stroke="#63b8ff" d="M2651.95,-60.36C2562.66,-53.67 2349.18,-37.13 2170.5,-19 2167.49,-18.7 2164.42,-18.37 2161.32,-18.04"/>
<polygon fill="#63b8ff" stroke="#63b8ff" points="2651.73,-63.86 2661.97,-61.11 2652.25,-56.87 2651.73,-63.86"/>
</a>
</g>
</g>
<!-- Node29 -->
<g id="Node000029" class="node">
<title>Node29</title>
<g id="a_Node000029"><a xlink:href="../../d7/d67/cbookreadwindow_8cpp.html" target="_top" xlink:title=" ">
<polygon fill="white" stroke="#666666" points="2304,-19 2179,-19 2179,0 2304,0 2304,-19"/>
<text text-anchor="middle" x="2241.5" y="-7" font-family="Helvetica,sans-Serif" font-size="10.00">cbookreadwindow.cpp</text>
</a>
</g>
</g>
<!-- Node8&#45;&gt;Node29 -->
<g id="edge31_Node000008_Node000029" class="edge">
<title>Node8&#45;&gt;Node29</title>
<g id="a_edge31_Node000008_Node000029"><a xlink:title=" ">
<path fill="none" stroke="#63b8ff" d="M2651.62,-58.51C2581.09,-50.3 2436.18,-33.41 2313.5,-19 2310.5,-18.65 2307.43,-18.29 2304.33,-17.92"/>
<polygon fill="#63b8ff" stroke="#63b8ff" points="2651.54,-62.02 2661.88,-59.7 2652.35,-55.07 2651.54,-62.02"/>
</a>
</g>
</g>
<!-- Node30 -->
<g id="Node000030" class="node">
<title>Node30</title>
<g id="a_Node000030"><a xlink:href="../../d0/d6f/ccommentaryreadwindow_8cpp.html" target="_top" xlink:title=" ">
<polygon fill="white" stroke="#666666" points="2485,-19 2322,-19 2322,0 2485,0 2485,-19"/>
<text text-anchor="middle" x="2403.5" y="-7" font-family="Helvetica,sans-Serif" font-size="10.00">ccommentaryreadwindow.cpp</text>
</a>
</g>
</g>
<!-- Node8&#45;&gt;Node30 -->
<g id="edge32_Node000008_Node000030" class="edge">
<title>Node8&#45;&gt;Node30</title>
<g id="a_edge32_Node000008_Node000030"><a xlink:title=" ">
<path fill="none" stroke="#63b8ff" d="M2652.07,-55.77C2598.29,-45.98 2505.91,-29.15 2450.18,-19"/>
<polygon fill="#63b8ff" stroke="#63b8ff" points="2651.5,-59.23 2661.97,-57.57 2652.75,-52.34 2651.5,-59.23"/>
</a>
</g>
</g>
<!-- Node31 -->
<g id="Node000031" class="node">
<title>Node31</title>
<g id="a_Node000031"><a xlink:href="../../d4/dca/cdisplaysettings_8cpp.html" target="_top" xlink:title=" ">
<polygon fill="white" stroke="#666666" points="2619.5,-19 2503.5,-19 2503.5,0 2619.5,0 2619.5,-19"/>
<text text-anchor="middle" x="2561.5" y="-7" font-family="Helvetica,sans-Serif" font-size="10.00">cdisplaysettings.cpp</text>
</a>
</g>
</g>
<!-- Node8&#45;&gt;Node31 -->
<g id="edge33_Node000008_Node000031" class="edge">
<title>Node8&#45;&gt;Node31</title>
<g id="a_edge33_Node000008_Node000031"><a xlink:title=" ">
<path fill="none" stroke="#63b8ff" d="M2663.53,-51.16C2638.91,-41.35 2605.09,-27.87 2583.26,-19.17"/>
<polygon fill="#63b8ff" stroke="#63b8ff" points="2662.55,-54.53 2673.13,-54.98 2665.14,-48.03 2662.55,-54.53"/>
</a>
</g>
</g>
<!-- Node32 -->
<g id="Node000032" class="node">
<title>Node32</title>
<g id="a_Node000032"><a xlink:href="../../d2/d26/cdisplaywindow_8cpp.html" target="_top" xlink:title=" ">
<polygon fill="white" stroke="#666666" points="2751.5,-19 2637.5,-19 2637.5,0 2751.5,0 2751.5,-19"/>
<text text-anchor="middle" x="2694.5" y="-7" font-family="Helvetica,sans-Serif" font-size="10.00">cdisplaywindow.cpp</text>
</a>
</g>
</g>
<!-- Node8&#45;&gt;Node32 -->
<g id="edge34_Node000008_Node000032" class="edge">
<title>Node8&#45;&gt;Node32</title>
<g id="a_edge34_Node000008_Node000032"><a xlink:title=" ">
<path fill="none" stroke="#63b8ff" d="M2694.5,-44.66C2694.5,-35.93 2694.5,-25.99 2694.5,-19.09"/>
<polygon fill="#63b8ff" stroke="#63b8ff" points="2691,-44.75 2694.5,-54.75 2698,-44.75 2691,-44.75"/>
</a>
</g>
</g>
<!-- Node33 -->
<g id="Node000033" class="node">
<title>Node33</title>
<g id="a_Node000033"><a xlink:href="../../d8/d19/clexiconreadwindow_8cpp.html" target="_top" xlink:title=" ">
<polygon fill="white" stroke="#666666" points="2905.5,-19 2769.5,-19 2769.5,0 2905.5,0 2905.5,-19"/>
<text text-anchor="middle" x="2837.5" y="-7" font-family="Helvetica,sans-Serif" font-size="10.00">clexiconreadwindow.cpp</text>
</a>
</g>
</g>
<!-- Node8&#45;&gt;Node33 -->
<g id="edge35_Node000008_Node000033" class="edge">
<title>Node8&#45;&gt;Node33</title>
<g id="a_edge35_Node000008_Node000033"><a xlink:title=" ">
<path fill="none" stroke="#63b8ff" d="M2727.09,-51.42C2753.62,-41.59 2790.43,-27.95 2814.11,-19.17"/>
<polygon fill="#63b8ff" stroke="#63b8ff" points="2725.64,-48.23 2717.48,-54.98 2728.07,-54.79 2725.64,-48.23"/>
</a>
</g>
</g>
<!-- Node34 -->
<g id="Node000034" class="node">
<title>Node34</title>
<g id="a_Node000034"><a xlink:href="../../d7/d5d/cmoduleresultview_8cpp.html" target="_top" xlink:title=" ">
<polygon fill="white" stroke="#666666" points="3053,-19 2924,-19 2924,0 3053,0 3053,-19"/>
<text text-anchor="middle" x="2988.5" y="-7" font-family="Helvetica,sans-Serif" font-size="10.00">cmoduleresultview.cpp</text>
</a>
</g>
</g>
<!-- Node8&#45;&gt;Node34 -->
<g id="edge36_Node000008_Node000034" class="edge">
<title>Node8&#45;&gt;Node34</title>
<g id="a_edge36_Node000008_Node000034"><a xlink:title=" ">
<path fill="none" stroke="#63b8ff" d="M2737.07,-55.83C2791.32,-46.05 2884.82,-29.19 2941.23,-19.02"/>
<polygon fill="#63b8ff" stroke="#63b8ff" points="2736.31,-52.41 2727.09,-57.63 2737.55,-59.3 2736.31,-52.41"/>
</a>
</g>
</g>
<!-- Node35 -->
<g id="Node000035" class="node">
<title>Node35</title>
<g id="a_Node000035"><a xlink:href="../../d9/d56/cresmgr_8cpp.html" target="_top" xlink:title=" ">
<polygon fill="white" stroke="#666666" points="3147.5,-19 3071.5,-19 3071.5,0 3147.5,0 3147.5,-19"/>
<text text-anchor="middle" x="3109.5" y="-7" font-family="Helvetica,sans-Serif" font-size="10.00">cresmgr.cpp</text>
</a>
</g>
</g>
<!-- Node8&#45;&gt;Node35 -->
<g id="edge37_Node000008_Node000035" class="edge">
<title>Node8&#45;&gt;Node35</title>
<g id="a_edge37_Node000008_Node000035"><a xlink:title=" ">
<path fill="none" stroke="#63b8ff" d="M2737.08,-59.17C2805.73,-52.01 2945.08,-36.7 3062.5,-19 3065.37,-18.57 3068.33,-18.09 3071.31,-17.6"/>
<polygon fill="#63b8ff" stroke="#63b8ff" points="2736.66,-55.69 2727.08,-60.21 2737.38,-62.66 2736.66,-55.69"/>
</a>
</g>
</g>
<!-- Node36 -->
<g id="Node000036" class="node">
<title>Node36</title>
<g id="a_Node000036"><a xlink:href="../../d2/d1a/csearchdialog_8cpp.html" target="_top" xlink:title=" ">
<polygon fill="white" stroke="#666666" points="3269.5,-19 3165.5,-19 3165.5,0 3269.5,0 3269.5,-19"/>
<text text-anchor="middle" x="3217.5" y="-7" font-family="Helvetica,sans-Serif" font-size="10.00">csearchdialog.cpp</text>
</a>
</g>
</g>
<!-- Node8&#45;&gt;Node36 -->
<g id="edge38_Node000008_Node000036" class="edge">
<title>Node8&#45;&gt;Node36</title>
<g id="a_edge38_Node000008_Node000036"><a xlink:title=" ">
<path fill="none" stroke="#63b8ff" d="M2737.41,-59.98C2819.11,-53.14 3002.56,-37.13 3156.5,-19 3159.37,-18.66 3162.31,-18.3 3165.28,-17.93"/>
<polygon fill="#63b8ff" stroke="#63b8ff" points="2736.71,-56.53 2727.04,-60.84 2737.29,-63.5 2736.71,-56.53"/>
</a>
</g>
</g>
<!-- Node37 -->
<g id="Node000037" class="node">
<title>Node37</title>
<g id="a_Node000037"><a xlink:href="../../db/d51/csearchresultview_8cpp.html" target="_top" xlink:title=" ">
<polygon fill="white" stroke="#666666" points="3413,-19 3288,-19 3288,0 3413,0 3413,-19"/>
<text text-anchor="middle" x="3350.5" y="-7" font-family="Helvetica,sans-Serif" font-size="10.00">csearchresultview.cpp</text>
</a>
</g>
</g>
<!-- Node8&#45;&gt;Node37 -->
<g id="edge39_Node000008_Node000037" class="edge">
<title>Node8&#45;&gt;Node37</title>
<g id="a_edge39_Node000008_Node000037"><a xlink:title=" ">
<path fill="none" stroke="#63b8ff" d="M2737.4,-60.84C2834.08,-54.72 3076.33,-38.63 3278.5,-19 3281.51,-18.71 3284.58,-18.4 3287.69,-18.07"/>
<polygon fill="#63b8ff" stroke="#63b8ff" points="2736.91,-57.37 2727.15,-61.49 2737.35,-64.35 2736.91,-57.37"/>
</a>
</g>
</g>
<!-- Node38 -->
<g id="Node000038" class="node">
<title>Node38</title>
<g id="a_Node000038"><a xlink:href="../../d3/db9/cswordmoduleinfo_8cpp.html" target="_top" xlink:title=" ">
<polygon fill="white" stroke="#666666" points="3558,-19 3431,-19 3431,0 3558,0 3558,-19"/>
<text text-anchor="middle" x="3494.5" y="-7" font-family="Helvetica,sans-Serif" font-size="10.00">cswordmoduleinfo.cpp</text>
</a>
</g>
</g>
<!-- Node8&#45;&gt;Node38 -->
<g id="edge40_Node000008_Node000038" class="edge">
<title>Node8&#45;&gt;Node38</title>
<g id="a_edge40_Node000008_Node000038"><a xlink:title=" ">
<path fill="none" stroke="#63b8ff" d="M2737.46,-61.72C2850.04,-56.88 3162.87,-42.24 3422.5,-19 3425.26,-18.75 3428.07,-18.49 3430.92,-18.2"/>
<polygon fill="#63b8ff" stroke="#63b8ff" points="2737.04,-58.24 2727.2,-62.16 2737.34,-65.23 2737.04,-58.24"/>
</a>
</g>
</g>
<!-- Node39 -->
<g id="Node000039" class="node">
<title>Node39</title>
<g id="a_Node000039"><a xlink:href="../../d3/dba/cswordsettings_8cpp.html" target="_top" xlink:title=" ">
<polygon fill="white" stroke="#666666" points="3686.5,-19 3576.5,-19 3576.5,0 3686.5,0 3686.5,-19"/>
<text text-anchor="middle" x="3631.5" y="-7" font-family="Helvetica,sans-Serif" font-size="10.00">cswordsettings.cpp</text>
</a>
</g>
</g>
<!-- Node8&#45;&gt;Node39 -->
<g id="edge41_Node000008_Node000039" class="edge">
<title>Node8&#45;&gt;Node39</title>
<g id="a_edge41_Node000008_Node000039"><a xlink:title=" ">
<path fill="none" stroke="#63b8ff" d="M2737.14,-62.55C2863.87,-59.47 3249.26,-48.2 3567.5,-19 3570.4,-18.73 3573.37,-18.43 3576.37,-18.11"/>
<polygon fill="#63b8ff" stroke="#63b8ff" points="2736.98,-59.05 2727.07,-62.79 2737.15,-66.05 2736.98,-59.05"/>
</a>
</g>
</g>
<!-- Node40 -->
<g id="Node000040" class="node">
<title>Node40</title>
<g id="a_Node000040"><a xlink:href="../../d9/d6e/languageitem_8cpp.html" target="_top" xlink:title=" ">
<polygon fill="white" stroke="#666666" points="3808.5,-19 3704.5,-19 3704.5,0 3808.5,0 3808.5,-19"/>
<text text-anchor="middle" x="3756.5" y="-7" font-family="Helvetica,sans-Serif" font-size="10.00">languageitem.cpp</text>
</a>
</g>
</g>
<!-- Node8&#45;&gt;Node40 -->
<g id="edge42_Node000008_Node000040" class="edge">
<title>Node8&#45;&gt;Node40</title>
<g id="a_edge42_Node000008_Node000040"><a xlink:title=" ">
<path fill="none" stroke="#63b8ff" d="M2737.64,-63.03C2876.73,-61.21 3325.76,-52.9 3695.5,-19 3698.37,-18.74 3701.32,-18.43 3704.29,-18.1"/>
<polygon fill="#63b8ff" stroke="#63b8ff" points="2737.37,-59.53 2727.41,-63.16 2737.46,-66.53 2737.37,-59.53"/>
</a>
</g>
</g>
<!-- Node41 -->
<g id="Node000041" class="node">
<title>Node41</title>
<g id="a_Node000041"><a xlink:href="../../db/d89/tool_8cpp.html" target="_top" xlink:title=" ">
<polygon fill="white" stroke="#666666" points="3882.5,-19 3826.5,-19 3826.5,0 3882.5,0 3882.5,-19"/>
<text text-anchor="middle" x="3854.5" y="-7" font-family="Helvetica,sans-Serif" font-size="10.00">tool.cpp</text>
</a>
</g>
</g>
<!-- Node8&#45;&gt;Node41 -->
<g id="edge43_Node000008_Node000041" class="edge">
<title>Node8&#45;&gt;Node41</title>
<g id="a_edge43_Node000008_Node000041"><a xlink:title=" ">
<path fill="none" stroke="#63b8ff" d="M2737.12,-62.87C2915.49,-60.09 3602.75,-47.67 3817.5,-19 3820.37,-18.62 3823.35,-18.11 3826.32,-17.54"/>
<polygon fill="#63b8ff" stroke="#63b8ff" points="2737.02,-59.37 2727.07,-63.03 2737.13,-66.37 2737.02,-59.37"/>
</a>
</g>
</g>
</g>
</svg>
