<?xml version="1.0" encoding="UTF-8" standalone="no"?>
<!DOCTYPE svg PUBLIC "-//W3C//DTD SVG 1.1//EN"
 "http://www.w3.org/Graphics/SVG/1.1/DTD/svg11.dtd">
<!-- Generated by graphviz version 2.43.0 (0)
 -->
<!-- Title: bticons.h Pages: 1 -->
<!--zoomable 137 -->

<svg id="main" version="1.1" xmlns="http://www.w3.org/2000/svg" xmlns:xlink="http://www.w3.org/1999/xlink" xml:space="preserve" onload="init(evt)">
<style type="text/css"><![CDATA[
.node, .edge {opacity: 0.7;}
.node.selected, .edge.selected {opacity: 1;}
.edge:hover path { stroke: red; }
.edge:hover polygon { stroke: red; fill: red; }
]]></style>

<defs>
  <circle id="rim" cx="0" cy="0" r="7"/>
  <circle id="rim2" cx="0" cy="0" r="3.5"/>
  <g id="zoomPlus">
    <use xlink:href="#rim" fill="#404040"><set attributeName="fill" to="#808080" begin="zoomplus.mouseover" end="zoomplus.mouseout"/></use>
    <path d="M-4,0h8M0,-4v8" fill="none" stroke="white" stroke-width="1.5" pointer-events="none"/>
  </g>
  <g id="zoomMin">
    <use xlink:href="#rim" fill="#404040"><set attributeName="fill" to="#808080" begin="zoomminus.mouseover" end="zoomminus.mouseout"/></use>
    <path d="M-4,0h8" fill="none" stroke="white" stroke-width="1.5" pointer-events="none"/>
  </g>
  <g id="arrowUp" transform="translate(30 24)">
    <use xlink:href="#rim"/>
    <path pointer-events="none" fill="none" stroke="white" stroke-width="1.5" d="M0,-3.0v7 M-2.5,-0.5L0,-3.0L2.5,-0.5"/>
  </g>
  <g id="arrowRight" transform="rotate(90) translate(36 -43)">
    <use xlink:href="#rim"/>
    <path pointer-events="none" fill="none" stroke="white" stroke-width="1.5" d="M0,-3.0v7 M-2.5,-0.5L0,-3.0L2.5,-0.5"/>
  </g>
  <g id="arrowDown" transform="rotate(180) translate(-30 -48)">
    <use xlink:href="#rim"/>
    <path pointer-events="none" fill="none" stroke="white" stroke-width="1.5" d="M0,-3.0v7 M-2.5,-0.5L0,-3.0L2.5,-0.5"/>
  </g>
  <g id="arrowLeft" transform="rotate(270) translate(-36 17)">
    <use xlink:href="#rim"/>
    <path pointer-events="none" fill="none" stroke="white" stroke-width="1.5" d="M0,-3.0v7 M-2.5,-0.5L0,-3.0L2.5,-0.5"/>
  </g>
  <g id="resetDef">
    <use xlink:href="#rim2" fill="#404040"><set attributeName="fill" to="#808080" begin="reset.mouseover" end="reset.mouseout"/></use>
  </g>
</defs>
<script type="application/ecmascript">
var viewWidth = 4871;
var viewHeight = 137;
var sectionId = 'dynsection-0';
</script>
<script type="application/ecmascript" xlink:href="../../svg.min.js"/>
<svg id="graph" class="graph">
<g id="viewport">
<title>bticons.h</title>
<!-- Node1 -->
<g id="Node000001" class="node">
<title>Node1</title>
<g id="a_Node000001"><a xlink:title=" ">
<polygon fill="#999999" stroke="#666666" points="271.5,-129 210.5,-129 210.5,-110 271.5,-110 271.5,-129"/>
<text text-anchor="middle" x="241" y="-117" font-family="Helvetica,sans-Serif" font-size="10.00">bticons.h</text>
</a>
</g>
</g>
<!-- Node2 -->
<g id="Node000002" class="node">
<title>Node2</title>
<g id="a_Node000002"><a xlink:href="../../d1/dd7/btaboutdialog_8cpp.html" target="_top" xlink:title=" ">
<polygon fill="white" stroke="#666666" points="104,-74 0,-74 0,-55 104,-55 104,-74"/>
<text text-anchor="middle" x="52" y="-62" font-family="Helvetica,sans-Serif" font-size="10.00">btaboutdialog.cpp</text>
</a>
</g>
</g>
<!-- Node1&#45;&gt;Node2 -->
<g id="edge1_Node000001_Node000002" class="edge">
<title>Node1&#45;&gt;Node2</title>
<g id="a_edge1_Node000001_Node000002"><a xlink:title=" ">
<path fill="none" stroke="#63b8ff" d="M200.65,-107.18C165.3,-97.27 114.7,-83.08 82.6,-74.08"/>
<polygon fill="#63b8ff" stroke="#63b8ff" points="200.06,-110.65 210.63,-109.98 201.95,-103.91 200.06,-110.65"/>
</a>
</g>
</g>
<!-- Node3 -->
<g id="Node000003" class="node">
<title>Node3</title>
<g id="a_Node000003"><a xlink:href="../../db/d95/bticons_8cpp.html" target="_top" xlink:title=" ">
<polygon fill="white" stroke="#666666" points="194,-74 122,-74 122,-55 194,-55 194,-74"/>
<text text-anchor="middle" x="158" y="-62" font-family="Helvetica,sans-Serif" font-size="10.00">bticons.cpp</text>
</a>
</g>
</g>
<!-- Node1&#45;&gt;Node3 -->
<g id="edge2_Node000001_Node000003" class="edge">
<title>Node1&#45;&gt;Node3</title>
<g id="a_edge2_Node000001_Node000003"><a xlink:title=" ">
<path fill="none" stroke="#63b8ff" d="M218.96,-104.42C203.89,-94.81 184.41,-82.37 171.58,-74.17"/>
<polygon fill="#63b8ff" stroke="#63b8ff" points="217.35,-107.55 227.66,-109.98 221.12,-101.65 217.35,-107.55"/>
</a>
</g>
</g>
<!-- Node4 -->
<g id="Node000004" class="node">
<title>Node4</title>
<g id="a_Node000004"><a xlink:href="../../d9/d08/bttipdialog_8cpp.html" target="_top" xlink:title=" ">
<polygon fill="white" stroke="#666666" points="156.5,-19 67.5,-19 67.5,0 156.5,0 156.5,-19"/>
<text text-anchor="middle" x="112" y="-7" font-family="Helvetica,sans-Serif" font-size="10.00">bttipdialog.cpp</text>
</a>
</g>
</g>
<!-- Node1&#45;&gt;Node4 -->
<g id="edge3_Node000001_Node000004" class="edge">
<title>Node1&#45;&gt;Node4</title>
<g id="a_edge3_Node000001_Node000004"><a xlink:title=" ">
<path fill="none" stroke="#63b8ff" d="M233.5,-100.16C227.09,-86.31 216.72,-67.61 203,-55 184.61,-38.1 158.62,-26.26 139.13,-19.06"/>
<polygon fill="#63b8ff" stroke="#63b8ff" points="230.42,-101.85 237.63,-109.62 236.84,-99.05 230.42,-101.85"/>
</a>
</g>
</g>
<!-- Node5 -->
<g id="Node000005" class="node">
<title>Node5</title>
<g id="a_Node000005"><a xlink:href="../../dd/deb/btwelcomedialog_8cpp.html" target="_top" xlink:title=" ">
<polygon fill="white" stroke="#666666" points="295.5,-19 174.5,-19 174.5,0 295.5,0 295.5,-19"/>
<text text-anchor="middle" x="235" y="-7" font-family="Helvetica,sans-Serif" font-size="10.00">btwelcomedialog.cpp</text>
</a>
</g>
</g>
<!-- Node1&#45;&gt;Node5 -->
<g id="edge4_Node000001_Node000005" class="edge">
<title>Node1&#45;&gt;Node5</title>
<g id="a_edge4_Node000001_Node000005"><a xlink:title=" ">
<path fill="none" stroke="#63b8ff" d="M239.94,-99.48C238.63,-75.84 236.44,-36.5 235.48,-19.16"/>
<polygon fill="#63b8ff" stroke="#63b8ff" points="236.46,-99.87 240.51,-109.66 243.45,-99.48 236.46,-99.87"/>
</a>
</g>
</g>
<!-- Node6 -->
<g id="Node000006" class="node">
<title>Node6</title>
<g id="a_Node000006"><a xlink:href="../../d9/de6/cbookmarkindex_8cpp.html" target="_top" xlink:title=" ">
<polygon fill="white" stroke="#666666" points="432.5,-19 313.5,-19 313.5,0 432.5,0 432.5,-19"/>
<text text-anchor="middle" x="373" y="-7" font-family="Helvetica,sans-Serif" font-size="10.00">cbookmarkindex.cpp</text>
</a>
</g>
</g>
<!-- Node1&#45;&gt;Node6 -->
<g id="edge5_Node000001_Node000006" class="edge">
<title>Node1&#45;&gt;Node6</title>
<g id="a_edge5_Node000001_Node000006"><a xlink:title=" ">
<path fill="none" stroke="#63b8ff" d="M259.69,-103.21C287.81,-80.2 340.07,-37.44 362.42,-19.16"/>
<polygon fill="#63b8ff" stroke="#63b8ff" points="257.33,-100.62 251.8,-109.66 261.76,-106.04 257.33,-100.62"/>
</a>
</g>
</g>
<!-- Node7 -->
<g id="Node000007" class="node">
<title>Node7</title>
<g id="a_Node000007"><a xlink:href="../../dc/deb/cresmgr_8h.html" target="_top" xlink:title=" ">
<polygon fill="white" stroke="#666666" points="2435.5,-74 2370.5,-74 2370.5,-55 2435.5,-55 2435.5,-74"/>
<text text-anchor="middle" x="2403" y="-62" font-family="Helvetica,sans-Serif" font-size="10.00">cresmgr.h</text>
</a>
</g>
</g>
<!-- Node1&#45;&gt;Node7 -->
<g id="edge6_Node000001_Node000007" class="edge">
<title>Node1&#45;&gt;Node7</title>
<g id="a_edge6_Node000001_Node000007"><a xlink:title=" ">
<path fill="none" stroke="#63b8ff" d="M281.85,-117.5C555.95,-110.78 2124.11,-72.34 2370.44,-66.3"/>
<polygon fill="#63b8ff" stroke="#63b8ff" points="281.47,-114.01 271.56,-117.75 281.65,-121 281.47,-114.01"/>
</a>
</g>
</g>
<!-- Node7&#45;&gt;Node4 -->
<g id="edge24_Node000007_Node000004" class="edge">
<title>Node7&#45;&gt;Node4</title>
<g id="a_edge24_Node000007_Node000004"><a xlink:title=" ">
<path fill="none" stroke="#63b8ff" d="M2360.06,-63.45C2089.27,-62.98 615.14,-58.63 166,-19 162.97,-18.73 159.86,-18.4 156.73,-18.02"/>
<polygon fill="#63b8ff" stroke="#63b8ff" points="2360.26,-66.95 2370.26,-63.46 2360.27,-59.95 2360.26,-66.95"/>
</a>
</g>
</g>
<!-- Node7&#45;&gt;Node5 -->
<g id="edge25_Node000007_Node000005" class="edge">
<title>Node7&#45;&gt;Node5</title>
<g id="a_edge25_Node000007_Node000005"><a xlink:title=" ">
<path fill="none" stroke="#63b8ff" d="M2360.31,-63.18C2100.17,-61.11 725.48,-48.91 305,-19 301.95,-18.78 298.82,-18.53 295.67,-18.24"/>
<polygon fill="#63b8ff" stroke="#63b8ff" points="2360.45,-66.68 2370.48,-63.26 2360.51,-59.68 2360.45,-66.68"/>
</a>
</g>
</g>
<!-- Node7&#45;&gt;Node6 -->
<g id="edge28_Node000007_Node000006" class="edge">
<title>Node7&#45;&gt;Node6</title>
<g id="a_edge28_Node000007_Node000006"><a xlink:title=" ">
<path fill="none" stroke="#63b8ff" d="M2360.36,-63.11C2110.47,-60.76 833.54,-47.49 442,-19 438.99,-18.78 435.91,-18.52 432.8,-18.24"/>
<polygon fill="#63b8ff" stroke="#63b8ff" points="2360.46,-66.61 2370.49,-63.21 2360.52,-59.61 2360.46,-66.61"/>
</a>
</g>
</g>
<!-- Node8 -->
<g id="Node000008" class="node">
<title>Node8</title>
<g id="a_Node000008"><a xlink:href="../../d1/df6/bibletime_8cpp.html" target="_top" xlink:title=" ">
<polygon fill="white" stroke="#666666" points="3618.5,-19 3535.5,-19 3535.5,0 3618.5,0 3618.5,-19"/>
<text text-anchor="middle" x="3577" y="-7" font-family="Helvetica,sans-Serif" font-size="10.00">bibletime.cpp</text>
</a>
</g>
</g>
<!-- Node7&#45;&gt;Node8 -->
<g id="edge7_Node000007_Node000008" class="edge">
<title>Node7&#45;&gt;Node8</title>
<g id="a_edge7_Node000007_Node000008"><a xlink:title=" ">
<path fill="none" stroke="#63b8ff" d="M2445.84,-63.73C2595.2,-64.14 3106.63,-62.08 3526,-19 3529.04,-18.69 3532.17,-18.31 3535.31,-17.89"/>
<polygon fill="#63b8ff" stroke="#63b8ff" points="2445.73,-60.23 2435.72,-63.7 2445.71,-67.23 2445.73,-60.23"/>
</a>
</g>
</g>
<!-- Node9 -->
<g id="Node000009" class="node">
<title>Node9</title>
<g id="a_Node000009"><a xlink:href="../../da/dc7/bibletime__init_8cpp.html" target="_top" xlink:title=" ">
<polygon fill="white" stroke="#666666" points="3741,-19 3637,-19 3637,0 3741,0 3741,-19"/>
<text text-anchor="middle" x="3689" y="-7" font-family="Helvetica,sans-Serif" font-size="10.00">bibletime_init.cpp</text>
</a>
</g>
</g>
<!-- Node7&#45;&gt;Node9 -->
<g id="edge8_Node000007_Node000009" class="edge">
<title>Node7&#45;&gt;Node9</title>
<g id="a_edge8_Node000007_Node000009"><a xlink:title=" ">
<path fill="none" stroke="#63b8ff" d="M2445.96,-63.53C2603.78,-63.28 3166.37,-59.44 3628,-19 3630.88,-18.75 3633.82,-18.45 3636.8,-18.13"/>
<polygon fill="#63b8ff" stroke="#63b8ff" points="2445.72,-60.03 2435.73,-63.54 2445.73,-67.03 2445.72,-60.03"/>
</a>
</g>
</g>
<!-- Node10 -->
<g id="Node000010" class="node">
<title>Node10</title>
<g id="a_Node000010"><a xlink:href="../../d7/d92/btbiblekeywidget_8cpp.html" target="_top" xlink:title=" ">
<polygon fill="white" stroke="#666666" points="3880.5,-19 3759.5,-19 3759.5,0 3880.5,0 3880.5,-19"/>
<text text-anchor="middle" x="3820" y="-7" font-family="Helvetica,sans-Serif" font-size="10.00">btbiblekeywidget.cpp</text>
</a>
</g>
</g>
<!-- Node7&#45;&gt;Node10 -->
<g id="edge9_Node000007_Node000010" class="edge">
<title>Node7&#45;&gt;Node10</title>
<g id="a_edge9_Node000007_Node000010"><a xlink:title=" ">
<path fill="none" stroke="#63b8ff" d="M2445.99,-63.45C2613.39,-62.97 3237.8,-58.48 3750,-19 3753.05,-18.76 3756.17,-18.49 3759.33,-18.2"/>
<polygon fill="#63b8ff" stroke="#63b8ff" points="2445.62,-59.95 2435.63,-63.48 2445.63,-66.95 2445.62,-59.95"/>
</a>
</g>
</g>
<!-- Node11 -->
<g id="Node000011" class="node">
<title>Node11</title>
<g id="a_Node000011"><a xlink:href="../../d7/dd0/btbookmarksmodel_8cpp.html" target="_top" xlink:title=" ">
<polygon fill="white" stroke="#666666" points="4031,-19 3899,-19 3899,0 4031,0 4031,-19"/>
<text text-anchor="middle" x="3965" y="-7" font-family="Helvetica,sans-Serif" font-size="10.00">btbookmarksmodel.cpp</text>
</a>
</g>
</g>
<!-- Node7&#45;&gt;Node11 -->
<g id="edge10_Node000007_Node000011" class="edge">
<title>Node7&#45;&gt;Node11</title>
<g id="a_edge10_Node000007_Node000011"><a xlink:title=" ">
<path fill="none" stroke="#63b8ff" d="M2446,-63.52C2623.91,-63.31 3319.76,-59.78 3890,-19 3892.88,-18.79 3895.81,-18.56 3898.77,-18.31"/>
<polygon fill="#63b8ff" stroke="#63b8ff" points="2445.75,-60.02 2435.75,-63.52 2445.76,-67.02 2445.75,-60.02"/>
</a>
</g>
</g>
<!-- Node12 -->
<g id="Node000012" class="node">
<title>Node12</title>
<g id="a_Node000012"><a xlink:href="../../df/d88/btbookshelfdockwidget_8cpp.html" target="_top" xlink:title=" ">
<polygon fill="white" stroke="#666666" points="4200.5,-19 4049.5,-19 4049.5,0 4200.5,0 4200.5,-19"/>
<text text-anchor="middle" x="4125" y="-7" font-family="Helvetica,sans-Serif" font-size="10.00">btbookshelfdockwidget.cpp</text>
</a>
</g>
</g>
<!-- Node7&#45;&gt;Node12 -->
<g id="edge11_Node000007_Node000012" class="edge">
<title>Node7&#45;&gt;Node12</title>
<g id="a_edge11_Node000007_Node000012"><a xlink:title=" ">
<path fill="none" stroke="#63b8ff" d="M2445.66,-63.48C2633.63,-63.13 3406.83,-59.21 4040,-19 4043.11,-18.8 4046.28,-18.58 4049.48,-18.34"/>
<polygon fill="#63b8ff" stroke="#63b8ff" points="2445.62,-59.98 2435.63,-63.49 2445.63,-66.98 2445.62,-59.98"/>
</a>
</g>
</g>
<!-- Node13 -->
<g id="Node000013" class="node">
<title>Node13</title>
<g id="a_Node000013"><a xlink:href="../../d8/d44/btbookshelfgroupingmenu_8cpp.html" target="_top" xlink:title=" ">
<polygon fill="white" stroke="#666666" points="4383.5,-19 4218.5,-19 4218.5,0 4383.5,0 4383.5,-19"/>
<text text-anchor="middle" x="4301" y="-7" font-family="Helvetica,sans-Serif" font-size="10.00">btbookshelfgroupingmenu.cpp</text>
</a>
</g>
</g>
<!-- Node7&#45;&gt;Node13 -->
<g id="edge12_Node000007_Node000013" class="edge">
<title>Node7&#45;&gt;Node13</title>
<g id="a_edge12_Node000007_Node000013"><a xlink:title=" ">
<path fill="none" stroke="#63b8ff" d="M2445.79,-63.53C2645.51,-63.43 3506,-60.5 4210,-19 4212.69,-18.84 4215.43,-18.67 4218.19,-18.48"/>
<polygon fill="#63b8ff" stroke="#63b8ff" points="2445.7,-60.03 2435.71,-63.53 2445.71,-67.03 2445.7,-60.03"/>
</a>
</g>
</g>
<!-- Node14 -->
<g id="Node000014" class="node">
<title>Node14</title>
<g id="a_Node000014"><a xlink:href="../../d9/d70/btbookshelfwidget_8cpp.html" target="_top" xlink:title=" ">
<polygon fill="white" stroke="#666666" points="4528.5,-19 4401.5,-19 4401.5,0 4528.5,0 4528.5,-19"/>
<text text-anchor="middle" x="4465" y="-7" font-family="Helvetica,sans-Serif" font-size="10.00">btbookshelfwidget.cpp</text>
</a>
</g>
</g>
<!-- Node7&#45;&gt;Node14 -->
<g id="edge13_Node000007_Node000014" class="edge">
<title>Node7&#45;&gt;Node14</title>
<g id="a_edge13_Node000007_Node000014"><a xlink:title=" ">
<path fill="none" stroke="#63b8ff" d="M2445.86,-63.1C2698.45,-60.64 3995.38,-46.85 4393,-19 4395.76,-18.81 4398.58,-18.58 4401.43,-18.34"/>
<polygon fill="#63b8ff" stroke="#63b8ff" points="2445.59,-59.6 2435.63,-63.2 2445.66,-66.6 2445.59,-59.6"/>
</a>
</g>
</g>
<!-- Node15 -->
<g id="Node000015" class="node">
<title>Node15</title>
<g id="a_Node000015"><a xlink:href="../../d5/dcf/btdisplaysettingsbutton_8cpp.html" target="_top" xlink:title=" ">
<polygon fill="white" stroke="#666666" points="4699,-19 4547,-19 4547,0 4699,0 4699,-19"/>
<text text-anchor="middle" x="4623" y="-7" font-family="Helvetica,sans-Serif" font-size="10.00">btdisplaysettingsbutton.cpp</text>
</a>
</g>
</g>
<!-- Node7&#45;&gt;Node15 -->
<g id="edge14_Node000007_Node000015" class="edge">
<title>Node7&#45;&gt;Node15</title>
<g id="a_edge14_Node000007_Node000015"><a xlink:title=" ">
<path fill="none" stroke="#63b8ff" d="M2446.01,-63.07C2709.62,-60.34 4109.57,-44.85 4538,-19 4540.81,-18.83 4543.68,-18.64 4546.57,-18.43"/>
<polygon fill="#63b8ff" stroke="#63b8ff" points="2445.67,-59.57 2435.71,-63.17 2445.75,-66.57 2445.67,-59.57"/>
</a>
</g>
</g>
<!-- Node16 -->
<g id="Node000016" class="node">
<title>Node16</title>
<g id="a_Node000016"><a xlink:href="../../d8/d38/bteditbookmarkdialog_8cpp.html" target="_top" xlink:title=" ">
<polygon fill="white" stroke="#666666" points="4862.5,-19 4717.5,-19 4717.5,0 4862.5,0 4862.5,-19"/>
<text text-anchor="middle" x="4790" y="-7" font-family="Helvetica,sans-Serif" font-size="10.00">bteditbookmarkdialog.cpp</text>
</a>
</g>
</g>
<!-- Node7&#45;&gt;Node16 -->
<g id="edge15_Node000007_Node000016" class="edge">
<title>Node7&#45;&gt;Node16</title>
<g id="a_edge15_Node000007_Node000016"><a xlink:title=" ">
<path fill="none" stroke="#63b8ff" d="M2445.9,-63.16C2721.25,-60.94 4243.55,-47.51 4708,-19 4711,-18.82 4714.06,-18.6 4717.15,-18.37"/>
<polygon fill="#63b8ff" stroke="#63b8ff" points="2445.51,-59.67 2435.53,-63.25 2445.56,-66.67 2445.51,-59.67"/>
</a>
</g>
</g>
<!-- Node17 -->
<g id="Node000017" class="node">
<title>Node17</title>
<g id="a_Node000017"><a xlink:href="../../d4/d78/btedittextpage_8cpp.html" target="_top" xlink:title=" ">
<polygon fill="white" stroke="#666666" points="559.5,-19 450.5,-19 450.5,0 559.5,0 559.5,-19"/>
<text text-anchor="middle" x="505" y="-7" font-family="Helvetica,sans-Serif" font-size="10.00">btedittextpage.cpp</text>
</a>
</g>
</g>
<!-- Node7&#45;&gt;Node17 -->
<g id="edge16_Node000007_Node000017" class="edge">
<title>Node7&#45;&gt;Node17</title>
<g id="a_edge16_Node000007_Node000017"><a xlink:title=" ">
<path fill="none" stroke="#63b8ff" d="M2360.1,-63.09C2119.29,-60.68 933.5,-47.54 569,-19 565.98,-18.76 562.89,-18.48 559.77,-18.17"/>
<polygon fill="#63b8ff" stroke="#63b8ff" points="2360.17,-66.59 2370.21,-63.19 2360.24,-59.59 2360.17,-66.59"/>
</a>
</g>
</g>
<!-- Node18 -->
<g id="Node000018" class="node">
<title>Node18</title>
<g id="a_Node000018"><a xlink:href="../../de/dee/btfindwidget_8cpp.html" target="_top" xlink:title=" ">
<polygon fill="white" stroke="#666666" points="676,-19 578,-19 578,0 676,0 676,-19"/>
<text text-anchor="middle" x="627" y="-7" font-family="Helvetica,sans-Serif" font-size="10.00">btfindwidget.cpp</text>
</a>
</g>
</g>
<!-- Node7&#45;&gt;Node18 -->
<g id="edge17_Node000007_Node000018" class="edge">
<title>Node7&#45;&gt;Node18</title>
<g id="a_edge17_Node000007_Node000018"><a xlink:title=" ">
<path fill="none" stroke="#63b8ff" d="M2360.28,-63.07C2129.12,-60.66 1025.82,-47.78 686,-19 682.8,-18.73 679.52,-18.4 676.21,-18.03"/>
<polygon fill="#63b8ff" stroke="#63b8ff" points="2360.28,-66.57 2370.32,-63.18 2360.35,-59.57 2360.28,-66.57"/>
</a>
</g>
</g>
<!-- Node19 -->
<g id="Node000019" class="node">
<title>Node19</title>
<g id="a_Node000019"><a xlink:href="../../d5/d72/btfontsettings_8cpp.html" target="_top" xlink:title=" ">
<polygon fill="white" stroke="#666666" points="799.5,-19 694.5,-19 694.5,0 799.5,0 799.5,-19"/>
<text text-anchor="middle" x="747" y="-7" font-family="Helvetica,sans-Serif" font-size="10.00">btfontsettings.cpp</text>
</a>
</g>
</g>
<!-- Node7&#45;&gt;Node19 -->
<g id="edge18_Node000007_Node000019" class="edge">
<title>Node7&#45;&gt;Node19</title>
<g id="a_edge18_Node000007_Node000019"><a xlink:title=" ">
<path fill="none" stroke="#63b8ff" d="M2360.23,-62.93C2139.03,-59.91 1123.05,-44.84 809,-19 805.97,-18.75 802.86,-18.45 799.72,-18.12"/>
<polygon fill="#63b8ff" stroke="#63b8ff" points="2360.4,-66.44 2370.45,-63.07 2360.5,-59.44 2360.4,-66.44"/>
</a>
</g>
</g>
<!-- Node20 -->
<g id="Node000020" class="node">
<title>Node20</title>
<g id="a_Node000020"><a xlink:href="../../d4/d57/btindexdialog_8cpp.html" target="_top" xlink:title=" ">
<polygon fill="white" stroke="#666666" points="922,-19 818,-19 818,0 922,0 922,-19"/>
<text text-anchor="middle" x="870" y="-7" font-family="Helvetica,sans-Serif" font-size="10.00">btindexdialog.cpp</text>
</a>
</g>
</g>
<!-- Node7&#45;&gt;Node20 -->
<g id="edge19_Node000007_Node000020" class="edge">
<title>Node7&#45;&gt;Node20</title>
<g id="a_edge19_Node000007_Node000020"><a xlink:title=" ">
<path fill="none" stroke="#63b8ff" d="M2360.11,-63.9C2183.4,-65.18 1494.61,-66.65 931,-19 928.12,-18.76 925.17,-18.47 922.2,-18.15"/>
<polygon fill="#63b8ff" stroke="#63b8ff" points="2360.32,-67.4 2370.29,-63.82 2360.26,-60.4 2360.32,-67.4"/>
</a>
</g>
</g>
<!-- Node21 -->
<g id="Node000021" class="node">
<title>Node21</title>
<g id="a_Node000021"><a xlink:href="../../d1/d5b/btmessageinputdialog_8cpp.html" target="_top" xlink:title=" ">
<polygon fill="white" stroke="#666666" points="1086,-19 940,-19 940,0 1086,0 1086,-19"/>
<text text-anchor="middle" x="1013" y="-7" font-family="Helvetica,sans-Serif" font-size="10.00">btmessageinputdialog.cpp</text>
</a>
</g>
</g>
<!-- Node7&#45;&gt;Node21 -->
<g id="edge20_Node000007_Node000021" class="edge">
<title>Node7&#45;&gt;Node21</title>
<g id="a_edge20_Node000007_Node000021"><a xlink:title=" ">
<path fill="none" stroke="#63b8ff" d="M2359.91,-63.12C2195.41,-61.43 1591.3,-53.12 1095,-19 1092.14,-18.8 1089.23,-18.59 1086.3,-18.35"/>
<polygon fill="#63b8ff" stroke="#63b8ff" points="2360.07,-66.62 2370.1,-63.22 2360.14,-59.62 2360.07,-66.62"/>
</a>
</g>
</g>
<!-- Node22 -->
<g id="Node000022" class="node">
<title>Node22</title>
<g id="a_Node000022"><a xlink:href="../../d9/d62/btopenworkaction_8cpp.html" target="_top" xlink:title=" ">
<polygon fill="white" stroke="#666666" points="1228,-19 1104,-19 1104,0 1228,0 1228,-19"/>
<text text-anchor="middle" x="1166" y="-7" font-family="Helvetica,sans-Serif" font-size="10.00">btopenworkaction.cpp</text>
</a>
</g>
</g>
<!-- Node7&#45;&gt;Node22 -->
<g id="edge21_Node000007_Node000022" class="edge">
<title>Node7&#45;&gt;Node22</title>
<g id="a_edge21_Node000007_Node000022"><a xlink:title=" ">
<path fill="none" stroke="#63b8ff" d="M2359.67,-63.08C2206.3,-61.35 1674.98,-53.09 1238,-19 1234.74,-18.75 1231.39,-18.46 1228.02,-18.14"/>
<polygon fill="#63b8ff" stroke="#63b8ff" points="2360.01,-66.59 2370.05,-63.2 2360.09,-59.59 2360.01,-66.59"/>
</a>
</g>
</g>
<!-- Node23 -->
<g id="Node000023" class="node">
<title>Node23</title>
<g id="a_Node000023"><a xlink:href="../../d4/d4d/btsearchoptionsarea_8cpp.html" target="_top" xlink:title=" ">
<polygon fill="white" stroke="#666666" points="1383.5,-19 1246.5,-19 1246.5,0 1383.5,0 1383.5,-19"/>
<text text-anchor="middle" x="1315" y="-7" font-family="Helvetica,sans-Serif" font-size="10.00">btsearchoptionsarea.cpp</text>
</a>
</g>
</g>
<!-- Node7&#45;&gt;Node23 -->
<g id="edge22_Node000007_Node000023" class="edge">
<title>Node7&#45;&gt;Node23</title>
<g id="a_edge22_Node000007_Node000023"><a xlink:title=" ">
<path fill="none" stroke="#63b8ff" d="M2359.99,-62.6C2220.32,-59.45 1766.96,-47.58 1393,-19 1390.01,-18.77 1386.96,-18.52 1383.88,-18.25"/>
<polygon fill="#63b8ff" stroke="#63b8ff" points="2360.18,-66.1 2370.26,-62.83 2360.34,-59.1 2360.18,-66.1"/>
</a>
</g>
</g>
<!-- Node24 -->
<g id="Node000024" class="node">
<title>Node24</title>
<g id="a_Node000024"><a xlink:href="../../dc/da2/bttextwindowheaderwidget_8cpp.html" target="_top" xlink:title=" ">
<polygon fill="white" stroke="#666666" points="1572,-19 1402,-19 1402,0 1572,0 1572,-19"/>
<text text-anchor="middle" x="1487" y="-7" font-family="Helvetica,sans-Serif" font-size="10.00">bttextwindowheaderwidget.cpp</text>
</a>
</g>
</g>
<!-- Node7&#45;&gt;Node24 -->
<g id="edge23_Node000007_Node000024" class="edge">
<title>Node7&#45;&gt;Node24</title>
<g id="a_edge23_Node000007_Node000024"><a xlink:title=" ">
<path fill="none" stroke="#63b8ff" d="M2360.45,-61.74C2238.8,-56.59 1879.14,-40.54 1581,-19 1578.06,-18.79 1575.07,-18.56 1572.04,-18.33"/>
<polygon fill="#63b8ff" stroke="#63b8ff" points="2360.33,-65.24 2370.47,-62.16 2360.63,-58.24 2360.33,-65.24"/>
</a>
</g>
</g>
<!-- Node25 -->
<g id="Node000025" class="node">
<title>Node25</title>
<g id="a_Node000025"><a xlink:href="../../dc/d6a/cacceleratorsettings_8cpp.html" target="_top" xlink:title=" ">
<polygon fill="white" stroke="#666666" points="1726,-19 1590,-19 1590,0 1726,0 1726,-19"/>
<text text-anchor="middle" x="1658" y="-7" font-family="Helvetica,sans-Serif" font-size="10.00">cacceleratorsettings.cpp</text>
</a>
</g>
</g>
<!-- Node7&#45;&gt;Node25 -->
<g id="edge26_Node000007_Node000025" class="edge">
<title>Node7&#45;&gt;Node25</title>
<g id="a_edge26_Node000007_Node000025"><a xlink:title=" ">
<path fill="none" stroke="#63b8ff" d="M2360.05,-61.26C2254,-55.59 1971.28,-39.66 1736,-19 1732.74,-18.71 1729.41,-18.41 1726.05,-18.09"/>
<polygon fill="#63b8ff" stroke="#63b8ff" points="2360.17,-64.77 2370.34,-61.81 2360.54,-57.78 2360.17,-64.77"/>
</a>
</g>
</g>
<!-- Node26 -->
<g id="Node000026" class="node">
<title>Node26</title>
<g id="a_Node000026"><a xlink:href="../../de/da4/cbiblereadwindow_8cpp.html" target="_top" xlink:title=" ">
<polygon fill="white" stroke="#666666" points="1869.5,-19 1744.5,-19 1744.5,0 1869.5,0 1869.5,-19"/>
<text text-anchor="middle" x="1807" y="-7" font-family="Helvetica,sans-Serif" font-size="10.00">cbiblereadwindow.cpp</text>
</a>
</g>
</g>
<!-- Node7&#45;&gt;Node26 -->
<g id="edge27_Node000007_Node000026" class="edge">
<title>Node7&#45;&gt;Node26</title>
<g id="a_edge27_Node000007_Node000026"><a xlink:title=" ">
<path fill="none" stroke="#63b8ff" d="M2360.45,-60.36C2271.16,-53.67 2057.68,-37.13 1879,-19 1875.99,-18.7 1872.92,-18.37 1869.82,-18.04"/>
<polygon fill="#63b8ff" stroke="#63b8ff" points="2360.23,-63.86 2370.47,-61.11 2360.75,-56.87 2360.23,-63.86"/>
</a>
</g>
</g>
<!-- Node27 -->
<g id="Node000027" class="node">
<title>Node27</title>
<g id="a_Node000027"><a xlink:href="../../d7/d67/cbookreadwindow_8cpp.html" target="_top" xlink:title=" ">
<polygon fill="white" stroke="#666666" points="2012.5,-19 1887.5,-19 1887.5,0 2012.5,0 2012.5,-19"/>
<text text-anchor="middle" x="1950" y="-7" font-family="Helvetica,sans-Serif" font-size="10.00">cbookreadwindow.cpp</text>
</a>
</g>
</g>
<!-- Node7&#45;&gt;Node27 -->
<g id="edge29_Node000007_Node000027" class="edge">
<title>Node7&#45;&gt;Node27</title>
<g id="a_edge29_Node000007_Node000027"><a xlink:title=" ">
<path fill="none" stroke="#63b8ff" d="M2360.12,-58.51C2289.59,-50.3 2144.68,-33.41 2022,-19 2019,-18.65 2015.93,-18.29 2012.83,-17.92"/>
<polygon fill="#63b8ff" stroke="#63b8ff" points="2360.04,-62.02 2370.38,-59.7 2360.85,-55.07 2360.04,-62.02"/>
</a>
</g>
</g>
<!-- Node28 -->
<g id="Node000028" class="node">
<title>Node28</title>
<g id="a_Node000028"><a xlink:href="../../d0/d6f/ccommentaryreadwindow_8cpp.html" target="_top" xlink:title=" ">
<polygon fill="white" stroke="#666666" points="2193.5,-19 2030.5,-19 2030.5,0 2193.5,0 2193.5,-19"/>
<text text-anchor="middle" x="2112" y="-7" font-family="Helvetica,sans-Serif" font-size="10.00">ccommentaryreadwindow.cpp</text>
</a>
</g>
</g>
<!-- Node7&#45;&gt;Node28 -->
<g id="edge30_Node000007_Node000028" class="edge">
<title>Node7&#45;&gt;Node28</title>
<g id="a_edge30_Node000007_Node000028"><a xlink:title=" ">
<path fill="none" stroke="#63b8ff" d="M2360.57,-55.77C2306.79,-45.98 2214.41,-29.15 2158.68,-19"/>
<polygon fill="#63b8ff" stroke="#63b8ff" points="2360,-59.23 2370.47,-57.57 2361.25,-52.34 2360,-59.23"/>
</a>
</g>
</g>
<!-- Node29 -->
<g id="Node000029" class="node">
<title>Node29</title>
<g id="a_Node000029"><a xlink:href="../../d4/dca/cdisplaysettings_8cpp.html" target="_top" xlink:title=" ">
<polygon fill="white" stroke="#666666" points="2328,-19 2212,-19 2212,0 2328,0 2328,-19"/>
<text text-anchor="middle" x="2270" y="-7" font-family="Helvetica,sans-Serif" font-size="10.00">cdisplaysettings.cpp</text>
</a>
</g>
</g>
<!-- Node7&#45;&gt;Node29 -->
<g id="edge31_Node000007_Node000029" class="edge">
<title>Node7&#45;&gt;Node29</title>
<g id="a_edge31_Node000007_Node000029"><a xlink:title=" ">
<path fill="none" stroke="#63b8ff" d="M2372.03,-51.16C2347.41,-41.35 2313.59,-27.87 2291.76,-19.17"/>
<polygon fill="#63b8ff" stroke="#63b8ff" points="2371.05,-54.53 2381.63,-54.98 2373.64,-48.03 2371.05,-54.53"/>
</a>
</g>
</g>
<!-- Node30 -->
<g id="Node000030" class="node">
<title>Node30</title>
<g id="a_Node000030"><a xlink:href="../../d2/d26/cdisplaywindow_8cpp.html" target="_top" xlink:title=" ">
<polygon fill="white" stroke="#666666" points="2460,-19 2346,-19 2346,0 2460,0 2460,-19"/>
<text text-anchor="middle" x="2403" y="-7" font-family="Helvetica,sans-Serif" font-size="10.00">cdisplaywindow.cpp</text>
</a>
</g>
</g>
<!-- Node7&#45;&gt;Node30 -->
<g id="edge32_Node000007_Node000030" class="edge">
<title>Node7&#45;&gt;Node30</title>
<g id="a_edge32_Node000007_Node000030"><a xlink:title=" ">
<path fill="none" stroke="#63b8ff" d="M2403,-44.66C2403,-35.93 2403,-25.99 2403,-19.09"/>
<polygon fill="#63b8ff" stroke="#63b8ff" points="2399.5,-44.75 2403,-54.75 2406.5,-44.75 2399.5,-44.75"/>
</a>
</g>
</g>
<!-- Node31 -->
<g id="Node000031" class="node">
<title>Node31</title>
<g id="a_Node000031"><a xlink:href="../../d8/d19/clexiconreadwindow_8cpp.html" target="_top" xlink:title=" ">
<polygon fill="white" stroke="#666666" points="2614,-19 2478,-19 2478,0 2614,0 2614,-19"/>
<text text-anchor="middle" x="2546" y="-7" font-family="Helvetica,sans-Serif" font-size="10.00">clexiconreadwindow.cpp</text>
</a>
</g>
</g>
<!-- Node7&#45;&gt;Node31 -->
<g id="edge33_Node000007_Node000031" class="edge">
<title>Node7&#45;&gt;Node31</title>
<g id="a_edge33_Node000007_Node000031"><a xlink:title=" ">
<path fill="none" stroke="#63b8ff" d="M2435.59,-51.42C2462.12,-41.59 2498.93,-27.95 2522.61,-19.17"/>
<polygon fill="#63b8ff" stroke="#63b8ff" points="2434.14,-48.23 2425.98,-54.98 2436.57,-54.79 2434.14,-48.23"/>
</a>
</g>
</g>
<!-- Node32 -->
<g id="Node000032" class="node">
<title>Node32</title>
<g id="a_Node000032"><a xlink:href="../../d7/d5d/cmoduleresultview_8cpp.html" target="_top" xlink:title=" ">
<polygon fill="white" stroke="#666666" points="2761.5,-19 2632.5,-19 2632.5,0 2761.5,0 2761.5,-19"/>
<text text-anchor="middle" x="2697" y="-7" font-family="Helvetica,sans-Serif" font-size="10.00">cmoduleresultview.cpp</text>
</a>
</g>
</g>
<!-- Node7&#45;&gt;Node32 -->
<g id="edge34_Node000007_Node000032" class="edge">
<title>Node7&#45;&gt;Node32</title>
<g id="a_edge34_Node000007_Node000032"><a xlink:title=" ">
<path fill="none" stroke="#63b8ff" d="M2445.57,-55.83C2499.82,-46.05 2593.32,-29.19 2649.73,-19.02"/>
<polygon fill="#63b8ff" stroke="#63b8ff" points="2444.81,-52.41 2435.59,-57.63 2446.05,-59.3 2444.81,-52.41"/>
</a>
</g>
</g>
<!-- Node33 -->
<g id="Node000033" class="node">
<title>Node33</title>
<g id="a_Node000033"><a xlink:href="../../d9/d56/cresmgr_8cpp.html" target="_top" xlink:title=" ">
<polygon fill="white" stroke="#666666" points="2856,-19 2780,-19 2780,0 2856,0 2856,-19"/>
<text text-anchor="middle" x="2818" y="-7" font-family="Helvetica,sans-Serif" font-size="10.00">cresmgr.cpp</text>
</a>
</g>
</g>
<!-- Node7&#45;&gt;Node33 -->
<g id="edge35_Node000007_Node000033" class="edge">
<title>Node7&#45;&gt;Node33</title>
<g id="a_edge35_Node000007_Node000033"><a xlink:title=" ">
<path fill="none" stroke="#63b8ff" d="M2445.58,-59.17C2514.23,-52.01 2653.58,-36.7 2771,-19 2773.87,-18.57 2776.83,-18.09 2779.81,-17.6"/>
<polygon fill="#63b8ff" stroke="#63b8ff" points="2445.16,-55.69 2435.58,-60.21 2445.88,-62.66 2445.16,-55.69"/>
</a>
</g>
</g>
<!-- Node34 -->
<g id="Node000034" class="node">
<title>Node34</title>
<g id="a_Node000034"><a xlink:href="../../d2/d1a/csearchdialog_8cpp.html" target="_top" xlink:title=" ">
<polygon fill="white" stroke="#666666" points="2978,-19 2874,-19 2874,0 2978,0 2978,-19"/>
<text text-anchor="middle" x="2926" y="-7" font-family="Helvetica,sans-Serif" font-size="10.00">csearchdialog.cpp</text>
</a>
</g>
</g>
<!-- Node7&#45;&gt;Node34 -->
<g id="edge36_Node000007_Node000034" class="edge">
<title>Node7&#45;&gt;Node34</title>
<g id="a_edge36_Node000007_Node000034"><a xlink:title=" ">
<path fill="none" stroke="#63b8ff" d="M2445.91,-59.98C2527.61,-53.14 2711.06,-37.13 2865,-19 2867.87,-18.66 2870.81,-18.3 2873.78,-17.93"/>
<polygon fill="#63b8ff" stroke="#63b8ff" points="2445.21,-56.53 2435.54,-60.84 2445.79,-63.5 2445.21,-56.53"/>
</a>
</g>
</g>
<!-- Node35 -->
<g id="Node000035" class="node">
<title>Node35</title>
<g id="a_Node000035"><a xlink:href="../../db/d51/csearchresultview_8cpp.html" target="_top" xlink:title=" ">
<polygon fill="white" stroke="#666666" points="3121.5,-19 2996.5,-19 2996.5,0 3121.5,0 3121.5,-19"/>
<text text-anchor="middle" x="3059" y="-7" font-family="Helvetica,sans-Serif" font-size="10.00">csearchresultview.cpp</text>
</a>
</g>
</g>
<!-- Node7&#45;&gt;Node35 -->
<g id="edge37_Node000007_Node000035" class="edge">
<title>Node7&#45;&gt;Node35</title>
<g id="a_edge37_Node000007_Node000035"><a xlink:title=" ">
<path fill="none" stroke="#63b8ff" d="M2445.9,-60.84C2542.58,-54.72 2784.83,-38.63 2987,-19 2990.01,-18.71 2993.08,-18.4 2996.19,-18.07"/>
<polygon fill="#63b8ff" stroke="#63b8ff" points="2445.41,-57.37 2435.65,-61.49 2445.85,-64.35 2445.41,-57.37"/>
</a>
</g>
</g>
<!-- Node36 -->
<g id="Node000036" class="node">
<title>Node36</title>
<g id="a_Node000036"><a xlink:href="../../d3/db9/cswordmoduleinfo_8cpp.html" target="_top" xlink:title=" ">
<polygon fill="white" stroke="#666666" points="3266.5,-19 3139.5,-19 3139.5,0 3266.5,0 3266.5,-19"/>
<text text-anchor="middle" x="3203" y="-7" font-family="Helvetica,sans-Serif" font-size="10.00">cswordmoduleinfo.cpp</text>
</a>
</g>
</g>
<!-- Node7&#45;&gt;Node36 -->
<g id="edge38_Node000007_Node000036" class="edge">
<title>Node7&#45;&gt;Node36</title>
<g id="a_edge38_Node000007_Node000036"><a xlink:title=" ">
<path fill="none" stroke="#63b8ff" d="M2445.96,-61.72C2558.54,-56.88 2871.37,-42.24 3131,-19 3133.76,-18.75 3136.57,-18.49 3139.42,-18.2"/>
<polygon fill="#63b8ff" stroke="#63b8ff" points="2445.54,-58.24 2435.7,-62.16 2445.84,-65.23 2445.54,-58.24"/>
</a>
</g>
</g>
<!-- Node37 -->
<g id="Node000037" class="node">
<title>Node37</title>
<g id="a_Node000037"><a xlink:href="../../d3/dba/cswordsettings_8cpp.html" target="_top" xlink:title=" ">
<polygon fill="white" stroke="#666666" points="3395,-19 3285,-19 3285,0 3395,0 3395,-19"/>
<text text-anchor="middle" x="3340" y="-7" font-family="Helvetica,sans-Serif" font-size="10.00">cswordsettings.cpp</text>
</a>
</g>
</g>
<!-- Node7&#45;&gt;Node37 -->
<g id="edge39_Node000007_Node000037" class="edge">
<title>Node7&#45;&gt;Node37</title>
<g id="a_edge39_Node000007_Node000037"><a xlink:title=" ">
<path fill="none" stroke="#63b8ff" d="M2445.64,-62.55C2572.37,-59.47 2957.76,-48.2 3276,-19 3278.9,-18.73 3281.87,-18.43 3284.87,-18.11"/>
<polygon fill="#63b8ff" stroke="#63b8ff" points="2445.48,-59.05 2435.57,-62.79 2445.65,-66.05 2445.48,-59.05"/>
</a>
</g>
</g>
<!-- Node38 -->
<g id="Node000038" class="node">
<title>Node38</title>
<g id="a_Node000038"><a xlink:href="../../d9/d6e/languageitem_8cpp.html" target="_top" xlink:title=" ">
<polygon fill="white" stroke="#666666" points="3517,-19 3413,-19 3413,0 3517,0 3517,-19"/>
<text text-anchor="middle" x="3465" y="-7" font-family="Helvetica,sans-Serif" font-size="10.00">languageitem.cpp</text>
</a>
</g>
</g>
<!-- Node7&#45;&gt;Node38 -->
<g id="edge40_Node000007_Node000038" class="edge">
<title>Node7&#45;&gt;Node38</title>
<g id="a_edge40_Node000007_Node000038"><a xlink:title=" ">
<path fill="none" stroke="#63b8ff" d="M2446.14,-63.03C2585.23,-61.21 3034.26,-52.9 3404,-19 3406.87,-18.74 3409.82,-18.43 3412.79,-18.1"/>
<polygon fill="#63b8ff" stroke="#63b8ff" points="2445.87,-59.53 2435.91,-63.16 2445.96,-66.53 2445.87,-59.53"/>
</a>
</g>
</g>
</g>
</svg>

<g id="navigator" transform="translate(0 0)" fill="#404254">
  <rect fill="#f2f5e9" fill-opacity="0.5" stroke="#606060" stroke-width=".5" x="0" y="0" width="60" height="60"/>
  <use id="zoomplus" xlink:href="#zoomPlus" x="17" y="9" onmousedown="handleZoom(evt,'in')"/>
  <use id="zoomminus" xlink:href="#zoomMin" x="42" y="9" onmousedown="handleZoom(evt,'out')"/>
  <use id="reset" xlink:href="#resetDef" x="30" y="36" onmousedown="handleReset()"/>
   <use id="arrowup" xlink:href="#arrowUp" x="0" y="0" onmousedown="handlePan(0,-1)"/>
  <use id="arrowright" xlink:href="#arrowRight" x="0" y="0" onmousedown="handlePan(1,0)"/>
  <use id="arrowdown" xlink:href="#arrowDown" x="0" y="0" onmousedown="handlePan(0,1)"/>
  <use id="arrowleft" xlink:href="#arrowLeft" x="0" y="0" onmousedown="handlePan(-1,0)"/>
</g>
<svg viewBox="0 0 15 15" width="100%" height="30px" preserveAspectRatio="xMaxYMin meet">
 <g id="arrow_out" transform="scale(0.3 0.3)">
  <a xlink:href="bticons_8h__dep__incl_org.svg" target="_base">
   <rect id="button" ry="5" rx="5" y="6" x="6" height="38" width="38"
        fill="#f2f5e9" fill-opacity="0.5" stroke="#606060" stroke-width="1.0"/>
   <path id="arrow"
     d="M 11.500037,31.436501 C 11.940474,20.09759 22.043105,11.32322 32.158766,21.979434 L 37.068811,17.246167 C 37.068811,17.246167 37.088388,32 37.088388,32 L 22.160133,31.978069 C 22.160133,31.978069 26.997745,27.140456 26.997745,27.140456 C 18.528582,18.264221 13.291696,25.230495 11.500037,31.436501 z"
     style="fill:#404040;"/>
  </a>
 </g>
</svg>

<style type='text/css'>
<![CDATA[
[data-mouse-over-selected='false'] { opacity: 0.7; }
[data-mouse-over-selected='true']  { opacity: 1.0; }
]]>
</style>
<script type="application/ecmascript"><![CDATA[
document.addEventListener('DOMContentLoaded', (event) => {
  highlightEdges();
  highlightAdjacentNodes();
});
]]></script>
</svg>
