<?xml version="1.0" encoding="UTF-8" standalone="no"?>
<!DOCTYPE svg PUBLIC "-//W3C//DTD SVG 1.1//EN"
 "http://www.w3.org/Graphics/SVG/1.1/DTD/svg11.dtd">
<!-- Generated by graphviz version 2.43.0 (0)
 -->
<!-- Title: bticons.h Pages: 1 -->
<!--zoomable 137 -->

<svg id="main" version="1.1" xmlns="http://www.w3.org/2000/svg" xmlns:xlink="http://www.w3.org/1999/xlink" xml:space="preserve" onload="init(evt)">
<style type="text/css"><![CDATA[
.node, .edge {opacity: 0.7;}
.node.selected, .edge.selected {opacity: 1;}
.edge:hover path { stroke: red; }
.edge:hover polygon { stroke: red; fill: red; }
]]></style>

<defs>
  <circle id="rim" cx="0" cy="0" r="7"/>
  <circle id="rim2" cx="0" cy="0" r="3.5"/>
  <g id="zoomPlus">
    <use xlink:href="#rim" fill="#404040"><set attributeName="fill" to="#808080" begin="zoomplus.mouseover" end="zoomplus.mouseout"/></use>
    <path d="M-4,0h8M0,-4v8" fill="none" stroke="white" stroke-width="1.5" pointer-events="none"/>
  </g>
  <g id="zoomMin">
    <use xlink:href="#rim" fill="#404040"><set attributeName="fill" to="#808080" begin="zoomminus.mouseover" end="zoomminus.mouseout"/></use>
    <path d="M-4,0h8" fill="none" stroke="white" stroke-width="1.5" pointer-events="none"/>
  </g>
  <g id="arrowUp" transform="translate(30 24)">
    <use xlink:href="#rim"/>
    <path pointer-events="none" fill="none" stroke="white" stroke-width="1.5" d="M0,-3.0v7 M-2.5,-0.5L0,-3.0L2.5,-0.5"/>
  </g>
  <g id="arrowRight" transform="rotate(90) translate(36 -43)">
    <use xlink:href="#rim"/>
    <path pointer-events="none" fill="none" stroke="white" stroke-width="1.5" d="M0,-3.0v7 M-2.5,-0.5L0,-3.0L2.5,-0.5"/>
  </g>
  <g id="arrowDown" transform="rotate(180) translate(-30 -48)">
    <use xlink:href="#rim"/>
    <path pointer-events="none" fill="none" stroke="white" stroke-width="1.5" d="M0,-3.0v7 M-2.5,-0.5L0,-3.0L2.5,-0.5"/>
  </g>
  <g id="arrowLeft" transform="rotate(270) translate(-36 17)">
    <use xlink:href="#rim"/>
    <path pointer-events="none" fill="none" stroke="white" stroke-width="1.5" d="M0,-3.0v7 M-2.5,-0.5L0,-3.0L2.5,-0.5"/>
  </g>
  <g id="resetDef">
    <use xlink:href="#rim2" fill="#404040"><set attributeName="fill" to="#808080" begin="reset.mouseover" end="reset.mouseout"/></use>
  </g>
</defs>
<script type="application/ecmascript">
var viewWidth = 4990;
var viewHeight = 137;
var sectionId = 'dynsection-0';
</script>
<script type="application/ecmascript" xlink:href="../../svg.min.js"/>
<svg id="graph" class="graph">
<g id="viewport">
<title>bticons.h</title>
<!-- Node1 -->
<g id="Node000001" class="node">
<title>Node1</title>
<g id="a_Node000001"><a xlink:title=" ">
<polygon fill="#999999" stroke="#666666" points="372,-129 311,-129 311,-110 372,-110 372,-129"/>
<text text-anchor="middle" x="341.5" y="-117" font-family="Helvetica,sans-Serif" font-size="10.00">bticons.h</text>
</a>
</g>
</g>
<!-- Node2 -->
<g id="Node000002" class="node">
<title>Node2</title>
<g id="a_Node000002"><a xlink:href="../../d5/d86/bibletimeapp_8cpp.html" target="_top" xlink:title=" ">
<polygon fill="white" stroke="#666666" points="101,-74 0,-74 0,-55 101,-55 101,-74"/>
<text text-anchor="middle" x="50.5" y="-62" font-family="Helvetica,sans-Serif" font-size="10.00">bibletimeapp.cpp</text>
</a>
</g>
</g>
<!-- Node1&#45;&gt;Node2 -->
<g id="edge1_Node000001_Node000002" class="edge">
<title>Node1&#45;&gt;Node2</title>
<g id="a_edge1_Node000001_Node000002"><a xlink:title=" ">
<path fill="none" stroke="#63b8ff" d="M300.78,-111.08C247.33,-101.35 153.73,-84.3 97.39,-74.04"/>
<polygon fill="#63b8ff" stroke="#63b8ff" points="300.44,-114.58 310.91,-112.93 301.7,-107.69 300.44,-114.58"/>
</a>
</g>
</g>
<!-- Node3 -->
<g id="Node000003" class="node">
<title>Node3</title>
<g id="a_Node000003"><a xlink:href="../../d1/dd7/btaboutdialog_8cpp.html" target="_top" xlink:title=" ">
<polygon fill="white" stroke="#666666" points="223.5,-74 119.5,-74 119.5,-55 223.5,-55 223.5,-74"/>
<text text-anchor="middle" x="171.5" y="-62" font-family="Helvetica,sans-Serif" font-size="10.00">btaboutdialog.cpp</text>
</a>
</g>
</g>
<!-- Node1&#45;&gt;Node3 -->
<g id="edge2_Node000001_Node000003" class="edge">
<title>Node1&#45;&gt;Node3</title>
<g id="a_edge2_Node000001_Node000003"><a xlink:title=" ">
<path fill="none" stroke="#63b8ff" d="M304.38,-106.93C272.63,-97.03 227.65,-83.01 199.03,-74.08"/>
<polygon fill="#63b8ff" stroke="#63b8ff" points="303.6,-110.35 314.19,-109.98 305.68,-103.67 303.6,-110.35"/>
</a>
</g>
</g>
<!-- Node4 -->
<g id="Node000004" class="node">
<title>Node4</title>
<g id="a_Node000004"><a xlink:href="../../db/d95/bticons_8cpp.html" target="_top" xlink:title=" ">
<polygon fill="white" stroke="#666666" points="313.5,-74 241.5,-74 241.5,-55 313.5,-55 313.5,-74"/>
<text text-anchor="middle" x="277.5" y="-62" font-family="Helvetica,sans-Serif" font-size="10.00">bticons.cpp</text>
</a>
</g>
</g>
<!-- Node1&#45;&gt;Node4 -->
<g id="edge3_Node000001_Node000004" class="edge">
<title>Node1&#45;&gt;Node4</title>
<g id="a_edge3_Node000001_Node000004"><a xlink:title=" ">
<path fill="none" stroke="#63b8ff" d="M323.51,-103.6C312.04,-94.11 297.59,-82.13 287.97,-74.17"/>
<polygon fill="#63b8ff" stroke="#63b8ff" points="321.28,-106.3 331.22,-109.98 325.75,-100.91 321.28,-106.3"/>
</a>
</g>
</g>
<!-- Node5 -->
<g id="Node000005" class="node">
<title>Node5</title>
<g id="a_Node000005"><a xlink:href="../../d9/d08/bttipdialog_8cpp.html" target="_top" xlink:title=" ">
<polygon fill="white" stroke="#666666" points="276,-19 187,-19 187,0 276,0 276,-19"/>
<text text-anchor="middle" x="231.5" y="-7" font-family="Helvetica,sans-Serif" font-size="10.00">bttipdialog.cpp</text>
</a>
</g>
</g>
<!-- Node1&#45;&gt;Node5 -->
<g id="edge4_Node000001_Node000005" class="edge">
<title>Node1&#45;&gt;Node5</title>
<g id="a_edge4_Node000001_Node000005"><a xlink:title=" ">
<path fill="none" stroke="#63b8ff" d="M339.85,-99.41C337.77,-85.68 333.08,-67.48 322.5,-55 307.37,-37.16 283.4,-25.85 263.86,-19.09"/>
<polygon fill="#63b8ff" stroke="#63b8ff" points="336.41,-100.13 341.05,-109.65 343.36,-99.31 336.41,-100.13"/>
</a>
</g>
</g>
<!-- Node6 -->
<g id="Node000006" class="node">
<title>Node6</title>
<g id="a_Node000006"><a xlink:href="../../dd/deb/btwelcomedialog_8cpp.html" target="_top" xlink:title=" ">
<polygon fill="white" stroke="#666666" points="415,-19 294,-19 294,0 415,0 415,-19"/>
<text text-anchor="middle" x="354.5" y="-7" font-family="Helvetica,sans-Serif" font-size="10.00">btwelcomedialog.cpp</text>
</a>
</g>
</g>
<!-- Node1&#45;&gt;Node6 -->
<g id="edge5_Node000001_Node000006" class="edge">
<title>Node1&#45;&gt;Node6</title>
<g id="a_edge5_Node000001_Node000006"><a xlink:title=" ">
<path fill="none" stroke="#63b8ff" d="M348.65,-100.18C351.37,-92.26 354.15,-82.81 355.5,-74 358.48,-54.6 356.83,-31.48 355.55,-19.19"/>
<polygon fill="#63b8ff" stroke="#63b8ff" points="345.27,-99.23 345.1,-109.82 351.84,-101.65 345.27,-99.23"/>
</a>
</g>
</g>
<!-- Node7 -->
<g id="Node000007" class="node">
<title>Node7</title>
<g id="a_Node000007"><a xlink:href="../../d9/de6/cbookmarkindex_8cpp.html" target="_top" xlink:title=" ">
<polygon fill="white" stroke="#666666" points="552,-19 433,-19 433,0 552,0 552,-19"/>
<text text-anchor="middle" x="492.5" y="-7" font-family="Helvetica,sans-Serif" font-size="10.00">cbookmarkindex.cpp</text>
</a>
</g>
</g>
<!-- Node1&#45;&gt;Node7 -->
<g id="edge6_Node000001_Node000007" class="edge">
<title>Node1&#45;&gt;Node7</title>
<g id="a_edge6_Node000001_Node000007"><a xlink:title=" ">
<path fill="none" stroke="#63b8ff" d="M361.77,-104.01C393.62,-81.22 454.45,-37.72 480.34,-19.2"/>
<polygon fill="#63b8ff" stroke="#63b8ff" points="359.7,-101.18 353.6,-109.84 363.77,-106.87 359.7,-101.18"/>
</a>
</g>
</g>
<!-- Node8 -->
<g id="Node000008" class="node">
<title>Node8</title>
<g id="a_Node000008"><a xlink:href="../../dc/deb/cresmgr_8h.html" target="_top" xlink:title=" ">
<polygon fill="white" stroke="#666666" points="2555,-74 2490,-74 2490,-55 2555,-55 2555,-74"/>
<text text-anchor="middle" x="2522.5" y="-62" font-family="Helvetica,sans-Serif" font-size="10.00">cresmgr.h</text>
</a>
</g>
</g>
<!-- Node1&#45;&gt;Node8 -->
<g id="edge7_Node000001_Node000008" class="edge">
<title>Node1&#45;&gt;Node8</title>
<g id="a_edge7_Node000001_Node000008"><a xlink:title=" ">
<path fill="none" stroke="#63b8ff" d="M382.71,-117.5C659.22,-110.78 2241.16,-72.34 2489.65,-66.3"/>
<polygon fill="#63b8ff" stroke="#63b8ff" points="382.24,-114.01 372.33,-117.75 382.41,-121.01 382.24,-114.01"/>
</a>
</g>
</g>
<!-- Node8&#45;&gt;Node5 -->
<g id="edge25_Node000008_Node000005" class="edge">
<title>Node8&#45;&gt;Node5</title>
<g id="a_edge25_Node000008_Node000005"><a xlink:title=" ">
<path fill="none" stroke="#63b8ff" d="M2479.56,-63.45C2208.77,-62.98 734.64,-58.63 285.5,-19 282.47,-18.73 279.36,-18.4 276.23,-18.02"/>
<polygon fill="#63b8ff" stroke="#63b8ff" points="2479.76,-66.95 2489.76,-63.46 2479.77,-59.95 2479.76,-66.95"/>
</a>
</g>
</g>
<!-- Node8&#45;&gt;Node6 -->
<g id="edge26_Node000008_Node000006" class="edge">
<title>Node8&#45;&gt;Node6</title>
<g id="a_edge26_Node000008_Node000006"><a xlink:title=" ">
<path fill="none" stroke="#63b8ff" d="M2479.81,-63.18C2219.67,-61.11 844.98,-48.91 424.5,-19 421.45,-18.78 418.32,-18.53 415.17,-18.24"/>
<polygon fill="#63b8ff" stroke="#63b8ff" points="2479.95,-66.68 2489.98,-63.26 2480.01,-59.68 2479.95,-66.68"/>
</a>
</g>
</g>
<!-- Node8&#45;&gt;Node7 -->
<g id="edge29_Node000008_Node000007" class="edge">
<title>Node8&#45;&gt;Node7</title>
<g id="a_edge29_Node000008_Node000007"><a xlink:title=" ">
<path fill="none" stroke="#63b8ff" d="M2479.86,-63.11C2229.97,-60.76 953.04,-47.49 561.5,-19 558.49,-18.78 555.41,-18.52 552.3,-18.24"/>
<polygon fill="#63b8ff" stroke="#63b8ff" points="2479.96,-66.61 2489.99,-63.21 2480.02,-59.61 2479.96,-66.61"/>
</a>
</g>
</g>
<!-- Node9 -->
<g id="Node000009" class="node">
<title>Node9</title>
<g id="a_Node000009"><a xlink:href="../../d1/df6/bibletime_8cpp.html" target="_top" xlink:title=" ">
<polygon fill="white" stroke="#666666" points="3738,-19 3655,-19 3655,0 3738,0 3738,-19"/>
<text text-anchor="middle" x="3696.5" y="-7" font-family="Helvetica,sans-Serif" font-size="10.00">bibletime.cpp</text>
</a>
</g>
</g>
<!-- Node8&#45;&gt;Node9 -->
<g id="edge8_Node000008_Node000009" class="edge">
<title>Node8&#45;&gt;Node9</title>
<g id="a_edge8_Node000008_Node000009"><a xlink:title=" ">
<path fill="none" stroke="#63b8ff" d="M2565.34,-63.73C2714.7,-64.14 3226.13,-62.08 3645.5,-19 3648.54,-18.69 3651.67,-18.31 3654.81,-17.89"/>
<polygon fill="#63b8ff" stroke="#63b8ff" points="2565.23,-60.23 2555.22,-63.7 2565.21,-67.23 2565.23,-60.23"/>
</a>
</g>
</g>
<!-- Node10 -->
<g id="Node000010" class="node">
<title>Node10</title>
<g id="a_Node000010"><a xlink:href="../../da/dc7/bibletime__init_8cpp.html" target="_top" xlink:title=" ">
<polygon fill="white" stroke="#666666" points="3860.5,-19 3756.5,-19 3756.5,0 3860.5,0 3860.5,-19"/>
<text text-anchor="middle" x="3808.5" y="-7" font-family="Helvetica,sans-Serif" font-size="10.00">bibletime_init.cpp</text>
</a>
</g>
</g>
<!-- Node8&#45;&gt;Node10 -->
<g id="edge9_Node000008_Node000010" class="edge">
<title>Node8&#45;&gt;Node10</title>
<g id="a_edge9_Node000008_Node000010"><a xlink:title=" ">
<path fill="none" stroke="#63b8ff" d="M2565.46,-63.53C2723.28,-63.28 3285.87,-59.44 3747.5,-19 3750.38,-18.75 3753.32,-18.45 3756.3,-18.13"/>
<polygon fill="#63b8ff" stroke="#63b8ff" points="2565.22,-60.03 2555.23,-63.54 2565.23,-67.03 2565.22,-60.03"/>
</a>
</g>
</g>
<!-- Node11 -->
<g id="Node000011" class="node">
<title>Node11</title>
<g id="a_Node000011"><a xlink:href="../../d7/d92/btbiblekeywidget_8cpp.html" target="_top" xlink:title=" ">
<polygon fill="white" stroke="#666666" points="4000,-19 3879,-19 3879,0 4000,0 4000,-19"/>
<text text-anchor="middle" x="3939.5" y="-7" font-family="Helvetica,sans-Serif" font-size="10.00">btbiblekeywidget.cpp</text>
</a>
</g>
</g>
<!-- Node8&#45;&gt;Node11 -->
<g id="edge10_Node000008_Node000011" class="edge">
<title>Node8&#45;&gt;Node11</title>
<g id="a_edge10_Node000008_Node000011"><a xlink:title=" ">
<path fill="none" stroke="#63b8ff" d="M2565.49,-63.45C2732.89,-62.97 3357.3,-58.48 3869.5,-19 3872.55,-18.76 3875.67,-18.49 3878.83,-18.2"/>
<polygon fill="#63b8ff" stroke="#63b8ff" points="2565.12,-59.95 2555.13,-63.48 2565.13,-66.95 2565.12,-59.95"/>
</a>
</g>
</g>
<!-- Node12 -->
<g id="Node000012" class="node">
<title>Node12</title>
<g id="a_Node000012"><a xlink:href="../../d7/dd0/btbookmarksmodel_8cpp.html" target="_top" xlink:title=" ">
<polygon fill="white" stroke="#666666" points="4150.5,-19 4018.5,-19 4018.5,0 4150.5,0 4150.5,-19"/>
<text text-anchor="middle" x="4084.5" y="-7" font-family="Helvetica,sans-Serif" font-size="10.00">btbookmarksmodel.cpp</text>
</a>
</g>
</g>
<!-- Node8&#45;&gt;Node12 -->
<g id="edge11_Node000008_Node000012" class="edge">
<title>Node8&#45;&gt;Node12</title>
<g id="a_edge11_Node000008_Node000012"><a xlink:title=" ">
<path fill="none" stroke="#63b8ff" d="M2565.5,-63.52C2743.41,-63.31 3439.26,-59.78 4009.5,-19 4012.38,-18.79 4015.31,-18.56 4018.27,-18.31"/>
<polygon fill="#63b8ff" stroke="#63b8ff" points="2565.25,-60.02 2555.25,-63.52 2565.26,-67.02 2565.25,-60.02"/>
</a>
</g>
</g>
<!-- Node13 -->
<g id="Node000013" class="node">
<title>Node13</title>
<g id="a_Node000013"><a xlink:href="../../df/d88/btbookshelfdockwidget_8cpp.html" target="_top" xlink:title=" ">
<polygon fill="white" stroke="#666666" points="4320,-19 4169,-19 4169,0 4320,0 4320,-19"/>
<text text-anchor="middle" x="4244.5" y="-7" font-family="Helvetica,sans-Serif" font-size="10.00">btbookshelfdockwidget.cpp</text>
</a>
</g>
</g>
<!-- Node8&#45;&gt;Node13 -->
<g id="edge12_Node000008_Node000013" class="edge">
<title>Node8&#45;&gt;Node13</title>
<g id="a_edge12_Node000008_Node000013"><a xlink:title=" ">
<path fill="none" stroke="#63b8ff" d="M2565.16,-63.48C2753.13,-63.13 3526.33,-59.21 4159.5,-19 4162.61,-18.8 4165.78,-18.58 4168.98,-18.34"/>
<polygon fill="#63b8ff" stroke="#63b8ff" points="2565.12,-59.98 2555.13,-63.49 2565.13,-66.98 2565.12,-59.98"/>
</a>
</g>
</g>
<!-- Node14 -->
<g id="Node000014" class="node">
<title>Node14</title>
<g id="a_Node000014"><a xlink:href="../../d8/d44/btbookshelfgroupingmenu_8cpp.html" target="_top" xlink:title=" ">
<polygon fill="white" stroke="#666666" points="4503,-19 4338,-19 4338,0 4503,0 4503,-19"/>
<text text-anchor="middle" x="4420.5" y="-7" font-family="Helvetica,sans-Serif" font-size="10.00">btbookshelfgroupingmenu.cpp</text>
</a>
</g>
</g>
<!-- Node8&#45;&gt;Node14 -->
<g id="edge13_Node000008_Node000014" class="edge">
<title>Node8&#45;&gt;Node14</title>
<g id="a_edge13_Node000008_Node000014"><a xlink:title=" ">
<path fill="none" stroke="#63b8ff" d="M2565.29,-63.53C2765.01,-63.43 3625.5,-60.5 4329.5,-19 4332.19,-18.84 4334.93,-18.67 4337.69,-18.48"/>
<polygon fill="#63b8ff" stroke="#63b8ff" points="2565.2,-60.03 2555.21,-63.53 2565.21,-67.03 2565.2,-60.03"/>
</a>
</g>
</g>
<!-- Node15 -->
<g id="Node000015" class="node">
<title>Node15</title>
<g id="a_Node000015"><a xlink:href="../../d9/d70/btbookshelfwidget_8cpp.html" target="_top" xlink:title=" ">
<polygon fill="white" stroke="#666666" points="4648,-19 4521,-19 4521,0 4648,0 4648,-19"/>
<text text-anchor="middle" x="4584.5" y="-7" font-family="Helvetica,sans-Serif" font-size="10.00">btbookshelfwidget.cpp</text>
</a>
</g>
</g>
<!-- Node8&#45;&gt;Node15 -->
<g id="edge14_Node000008_Node000015" class="edge">
<title>Node8&#45;&gt;Node15</title>
<g id="a_edge14_Node000008_Node000015"><a xlink:title=" ">
<path fill="none" stroke="#63b8ff" d="M2565.36,-63.1C2817.95,-60.64 4114.88,-46.85 4512.5,-19 4515.26,-18.81 4518.08,-18.58 4520.93,-18.34"/>
<polygon fill="#63b8ff" stroke="#63b8ff" points="2565.09,-59.6 2555.13,-63.2 2565.16,-66.6 2565.09,-59.6"/>
</a>
</g>
</g>
<!-- Node16 -->
<g id="Node000016" class="node">
<title>Node16</title>
<g id="a_Node000016"><a xlink:href="../../d5/dcf/btdisplaysettingsbutton_8cpp.html" target="_top" xlink:title=" ">
<polygon fill="white" stroke="#666666" points="4818.5,-19 4666.5,-19 4666.5,0 4818.5,0 4818.5,-19"/>
<text text-anchor="middle" x="4742.5" y="-7" font-family="Helvetica,sans-Serif" font-size="10.00">btdisplaysettingsbutton.cpp</text>
</a>
</g>
</g>
<!-- Node8&#45;&gt;Node16 -->
<g id="edge15_Node000008_Node000016" class="edge">
<title>Node8&#45;&gt;Node16</title>
<g id="a_edge15_Node000008_Node000016"><a xlink:title=" ">
<path fill="none" stroke="#63b8ff" d="M2565.51,-63.07C2829.12,-60.34 4229.07,-44.85 4657.5,-19 4660.31,-18.83 4663.18,-18.64 4666.07,-18.43"/>
<polygon fill="#63b8ff" stroke="#63b8ff" points="2565.17,-59.57 2555.21,-63.17 2565.25,-66.57 2565.17,-59.57"/>
</a>
</g>
</g>
<!-- Node17 -->
<g id="Node000017" class="node">
<title>Node17</title>
<g id="a_Node000017"><a xlink:href="../../d8/d38/bteditbookmarkdialog_8cpp.html" target="_top" xlink:title=" ">
<polygon fill="white" stroke="#666666" points="4982,-19 4837,-19 4837,0 4982,0 4982,-19"/>
<text text-anchor="middle" x="4909.5" y="-7" font-family="Helvetica,sans-Serif" font-size="10.00">bteditbookmarkdialog.cpp</text>
</a>
</g>
</g>
<!-- Node8&#45;&gt;Node17 -->
<g id="edge16_Node000008_Node000017" class="edge">
<title>Node8&#45;&gt;Node17</title>
<g id="a_edge16_Node000008_Node000017"><a xlink:title=" ">
<path fill="none" stroke="#63b8ff" d="M2565.4,-63.16C2840.75,-60.94 4363.05,-47.51 4827.5,-19 4830.5,-18.82 4833.56,-18.6 4836.65,-18.37"/>
<polygon fill="#63b8ff" stroke="#63b8ff" points="2565.01,-59.67 2555.03,-63.25 2565.06,-66.67 2565.01,-59.67"/>
</a>
</g>
</g>
<!-- Node18 -->
<g id="Node000018" class="node">
<title>Node18</title>
<g id="a_Node000018"><a xlink:href="../../d4/d78/btedittextpage_8cpp.html" target="_top" xlink:title=" ">
<polygon fill="white" stroke="#666666" points="679,-19 570,-19 570,0 679,0 679,-19"/>
<text text-anchor="middle" x="624.5" y="-7" font-family="Helvetica,sans-Serif" font-size="10.00">btedittextpage.cpp</text>
</a>
</g>
</g>
<!-- Node8&#45;&gt;Node18 -->
<g id="edge17_Node000008_Node000018" class="edge">
<title>Node8&#45;&gt;Node18</title>
<g id="a_edge17_Node000008_Node000018"><a xlink:title=" ">
<path fill="none" stroke="#63b8ff" d="M2479.6,-63.09C2238.79,-60.68 1053,-47.54 688.5,-19 685.48,-18.76 682.39,-18.48 679.27,-18.17"/>
<polygon fill="#63b8ff" stroke="#63b8ff" points="2479.67,-66.59 2489.71,-63.19 2479.74,-59.59 2479.67,-66.59"/>
</a>
</g>
</g>
<!-- Node19 -->
<g id="Node000019" class="node">
<title>Node19</title>
<g id="a_Node000019"><a xlink:href="../../de/dee/btfindwidget_8cpp.html" target="_top" xlink:title=" ">
<polygon fill="white" stroke="#666666" points="795.5,-19 697.5,-19 697.5,0 795.5,0 795.5,-19"/>
<text text-anchor="middle" x="746.5" y="-7" font-family="Helvetica,sans-Serif" font-size="10.00">btfindwidget.cpp</text>
</a>
</g>
</g>
<!-- Node8&#45;&gt;Node19 -->
<g id="edge18_Node000008_Node000019" class="edge">
<title>Node8&#45;&gt;Node19</title>
<g id="a_edge18_Node000008_Node000019"><a xlink:title=" ">
<path fill="none" stroke="#63b8ff" d="M2479.78,-63.07C2248.62,-60.66 1145.32,-47.78 805.5,-19 802.3,-18.73 799.02,-18.4 795.71,-18.03"/>
<polygon fill="#63b8ff" stroke="#63b8ff" points="2479.78,-66.57 2489.82,-63.18 2479.85,-59.57 2479.78,-66.57"/>
</a>
</g>
</g>
<!-- Node20 -->
<g id="Node000020" class="node">
<title>Node20</title>
<g id="a_Node000020"><a xlink:href="../../d5/d72/btfontsettings_8cpp.html" target="_top" xlink:title=" ">
<polygon fill="white" stroke="#666666" points="919,-19 814,-19 814,0 919,0 919,-19"/>
<text text-anchor="middle" x="866.5" y="-7" font-family="Helvetica,sans-Serif" font-size="10.00">btfontsettings.cpp</text>
</a>
</g>
</g>
<!-- Node8&#45;&gt;Node20 -->
<g id="edge19_Node000008_Node000020" class="edge">
<title>Node8&#45;&gt;Node20</title>
<g id="a_edge19_Node000008_Node000020"><a xlink:title=" ">
<path fill="none" stroke="#63b8ff" d="M2479.73,-62.93C2258.53,-59.91 1242.55,-44.84 928.5,-19 925.47,-18.75 922.36,-18.45 919.22,-18.12"/>
<polygon fill="#63b8ff" stroke="#63b8ff" points="2479.9,-66.44 2489.95,-63.07 2480,-59.44 2479.9,-66.44"/>
</a>
</g>
</g>
<!-- Node21 -->
<g id="Node000021" class="node">
<title>Node21</title>
<g id="a_Node000021"><a xlink:href="../../d4/d57/btindexdialog_8cpp.html" target="_top" xlink:title=" ">
<polygon fill="white" stroke="#666666" points="1041.5,-19 937.5,-19 937.5,0 1041.5,0 1041.5,-19"/>
<text text-anchor="middle" x="989.5" y="-7" font-family="Helvetica,sans-Serif" font-size="10.00">btindexdialog.cpp</text>
</a>
</g>
</g>
<!-- Node8&#45;&gt;Node21 -->
<g id="edge20_Node000008_Node000021" class="edge">
<title>Node8&#45;&gt;Node21</title>
<g id="a_edge20_Node000008_Node000021"><a xlink:title=" ">
<path fill="none" stroke="#63b8ff" d="M2479.61,-63.9C2302.9,-65.18 1614.11,-66.65 1050.5,-19 1047.62,-18.76 1044.67,-18.47 1041.7,-18.15"/>
<polygon fill="#63b8ff" stroke="#63b8ff" points="2479.82,-67.4 2489.79,-63.82 2479.76,-60.4 2479.82,-67.4"/>
</a>
</g>
</g>
<!-- Node22 -->
<g id="Node000022" class="node">
<title>Node22</title>
<g id="a_Node000022"><a xlink:href="../../d1/d5b/btmessageinputdialog_8cpp.html" target="_top" xlink:title=" ">
<polygon fill="white" stroke="#666666" points="1205.5,-19 1059.5,-19 1059.5,0 1205.5,0 1205.5,-19"/>
<text text-anchor="middle" x="1132.5" y="-7" font-family="Helvetica,sans-Serif" font-size="10.00">btmessageinputdialog.cpp</text>
</a>
</g>
</g>
<!-- Node8&#45;&gt;Node22 -->
<g id="edge21_Node000008_Node000022" class="edge">
<title>Node8&#45;&gt;Node22</title>
<g id="a_edge21_Node000008_Node000022"><a xlink:title=" ">
<path fill="none" stroke="#63b8ff" d="M2479.41,-63.12C2314.91,-61.43 1710.8,-53.12 1214.5,-19 1211.64,-18.8 1208.73,-18.59 1205.8,-18.35"/>
<polygon fill="#63b8ff" stroke="#63b8ff" points="2479.57,-66.62 2489.6,-63.22 2479.64,-59.62 2479.57,-66.62"/>
</a>
</g>
</g>
<!-- Node23 -->
<g id="Node000023" class="node">
<title>Node23</title>
<g id="a_Node000023"><a xlink:href="../../d9/d62/btopenworkaction_8cpp.html" target="_top" xlink:title=" ">
<polygon fill="white" stroke="#666666" points="1347.5,-19 1223.5,-19 1223.5,0 1347.5,0 1347.5,-19"/>
<text text-anchor="middle" x="1285.5" y="-7" font-family="Helvetica,sans-Serif" font-size="10.00">btopenworkaction.cpp</text>
</a>
</g>
</g>
<!-- Node8&#45;&gt;Node23 -->
<g id="edge22_Node000008_Node000023" class="edge">
<title>Node8&#45;&gt;Node23</title>
<g id="a_edge22_Node000008_Node000023"><a xlink:title=" ">
<path fill="none" stroke="#63b8ff" d="M2479.17,-63.08C2325.8,-61.35 1794.48,-53.09 1357.5,-19 1354.24,-18.75 1350.89,-18.46 1347.52,-18.14"/>
<polygon fill="#63b8ff" stroke="#63b8ff" points="2479.51,-66.59 2489.55,-63.2 2479.59,-59.59 2479.51,-66.59"/>
</a>
</g>
</g>
<!-- Node24 -->
<g id="Node000024" class="node">
<title>Node24</title>
<g id="a_Node000024"><a xlink:href="../../d4/d4d/btsearchoptionsarea_8cpp.html" target="_top" xlink:title=" ">
<polygon fill="white" stroke="#666666" points="1503,-19 1366,-19 1366,0 1503,0 1503,-19"/>
<text text-anchor="middle" x="1434.5" y="-7" font-family="Helvetica,sans-Serif" font-size="10.00">btsearchoptionsarea.cpp</text>
</a>
</g>
</g>
<!-- Node8&#45;&gt;Node24 -->
<g id="edge23_Node000008_Node000024" class="edge">
<title>Node8&#45;&gt;Node24</title>
<g id="a_edge23_Node000008_Node000024"><a xlink:title=" ">
<path fill="none" stroke="#63b8ff" d="M2479.49,-62.6C2339.82,-59.45 1886.46,-47.58 1512.5,-19 1509.51,-18.77 1506.46,-18.52 1503.38,-18.25"/>
<polygon fill="#63b8ff" stroke="#63b8ff" points="2479.68,-66.1 2489.76,-62.83 2479.84,-59.1 2479.68,-66.1"/>
</a>
</g>
</g>
<!-- Node25 -->
<g id="Node000025" class="node">
<title>Node25</title>
<g id="a_Node000025"><a xlink:href="../../dc/da2/bttextwindowheaderwidget_8cpp.html" target="_top" xlink:title=" ">
<polygon fill="white" stroke="#666666" points="1691.5,-19 1521.5,-19 1521.5,0 1691.5,0 1691.5,-19"/>
<text text-anchor="middle" x="1606.5" y="-7" font-family="Helvetica,sans-Serif" font-size="10.00">bttextwindowheaderwidget.cpp</text>
</a>
</g>
</g>
<!-- Node8&#45;&gt;Node25 -->
<g id="edge24_Node000008_Node000025" class="edge">
<title>Node8&#45;&gt;Node25</title>
<g id="a_edge24_Node000008_Node000025"><a xlink:title=" ">
<path fill="none" stroke="#63b8ff" d="M2479.95,-61.74C2358.3,-56.59 1998.64,-40.54 1700.5,-19 1697.56,-18.79 1694.57,-18.56 1691.54,-18.33"/>
<polygon fill="#63b8ff" stroke="#63b8ff" points="2479.83,-65.24 2489.97,-62.16 2480.13,-58.24 2479.83,-65.24"/>
</a>
</g>
</g>
<!-- Node26 -->
<g id="Node000026" class="node">
<title>Node26</title>
<g id="a_Node000026"><a xlink:href="../../dc/d6a/cacceleratorsettings_8cpp.html" target="_top" xlink:title=" ">
<polygon fill="white" stroke="#666666" points="1845.5,-19 1709.5,-19 1709.5,0 1845.5,0 1845.5,-19"/>
<text text-anchor="middle" x="1777.5" y="-7" font-family="Helvetica,sans-Serif" font-size="10.00">cacceleratorsettings.cpp</text>
</a>
</g>
</g>
<!-- Node8&#45;&gt;Node26 -->
<g id="edge27_Node000008_Node000026" class="edge">
<title>Node8&#45;&gt;Node26</title>
<g id="a_edge27_Node000008_Node000026"><a xlink:title=" ">
<path fill="none" stroke="#63b8ff" d="M2479.55,-61.26C2373.5,-55.59 2090.78,-39.66 1855.5,-19 1852.24,-18.71 1848.91,-18.41 1845.55,-18.09"/>
<polygon fill="#63b8ff" stroke="#63b8ff" points="2479.67,-64.77 2489.84,-61.81 2480.04,-57.78 2479.67,-64.77"/>
</a>
</g>
</g>
<!-- Node27 -->
<g id="Node000027" class="node">
<title>Node27</title>
<g id="a_Node000027"><a xlink:href="../../de/da4/cbiblereadwindow_8cpp.html" target="_top" xlink:title=" ">
<polygon fill="white" stroke="#666666" points="1989,-19 1864,-19 1864,0 1989,0 1989,-19"/>
<text text-anchor="middle" x="1926.5" y="-7" font-family="Helvetica,sans-Serif" font-size="10.00">cbiblereadwindow.cpp</text>
</a>
</g>
</g>
<!-- Node8&#45;&gt;Node27 -->
<g id="edge28_Node000008_Node000027" class="edge">
<title>Node8&#45;&gt;Node27</title>
<g id="a_edge28_Node000008_Node000027"><a xlink:title=" ">
<path fill="none" stroke="#63b8ff" d="M2479.95,-60.36C2390.66,-53.67 2177.18,-37.13 1998.5,-19 1995.49,-18.7 1992.42,-18.37 1989.32,-18.04"/>
<polygon fill="#63b8ff" stroke="#63b8ff" points="2479.73,-63.86 2489.97,-61.11 2480.25,-56.87 2479.73,-63.86"/>
</a>
</g>
</g>
<!-- Node28 -->
<g id="Node000028" class="node">
<title>Node28</title>
<g id="a_Node000028"><a xlink:href="../../d7/d67/cbookreadwindow_8cpp.html" target="_top" xlink:title=" ">
<polygon fill="white" stroke="#666666" points="2132,-19 2007,-19 2007,0 2132,0 2132,-19"/>
<text text-anchor="middle" x="2069.5" y="-7" font-family="Helvetica,sans-Serif" font-size="10.00">cbookreadwindow.cpp</text>
</a>
</g>
</g>
<!-- Node8&#45;&gt;Node28 -->
<g id="edge30_Node000008_Node000028" class="edge">
<title>Node8&#45;&gt;Node28</title>
<g id="a_edge30_Node000008_Node000028"><a xlink:title=" ">
<path fill="none" stroke="#63b8ff" d="M2479.62,-58.51C2409.09,-50.3 2264.18,-33.41 2141.5,-19 2138.5,-18.65 2135.43,-18.29 2132.33,-17.92"/>
<polygon fill="#63b8ff" stroke="#63b8ff" points="2479.54,-62.02 2489.88,-59.7 2480.35,-55.07 2479.54,-62.02"/>
</a>
</g>
</g>
<!-- Node29 -->
<g id="Node000029" class="node">
<title>Node29</title>
<g id="a_Node000029"><a xlink:href="../../d0/d6f/ccommentaryreadwindow_8cpp.html" target="_top" xlink:title=" ">
<polygon fill="white" stroke="#666666" points="2313,-19 2150,-19 2150,0 2313,0 2313,-19"/>
<text text-anchor="middle" x="2231.5" y="-7" font-family="Helvetica,sans-Serif" font-size="10.00">ccommentaryreadwindow.cpp</text>
</a>
</g>
</g>
<!-- Node8&#45;&gt;Node29 -->
<g id="edge31_Node000008_Node000029" class="edge">
<title>Node8&#45;&gt;Node29</title>
<g id="a_edge31_Node000008_Node000029"><a xlink:title=" ">
<path fill="none" stroke="#63b8ff" d="M2480.07,-55.77C2426.29,-45.98 2333.91,-29.15 2278.18,-19"/>
<polygon fill="#63b8ff" stroke="#63b8ff" points="2479.5,-59.23 2489.97,-57.57 2480.75,-52.34 2479.5,-59.23"/>
</a>
</g>
</g>
<!-- Node30 -->
<g id="Node000030" class="node">
<title>Node30</title>
<g id="a_Node000030"><a xlink:href="../../d4/dca/cdisplaysettings_8cpp.html" target="_top" xlink:title=" ">
<polygon fill="white" stroke="#666666" points="2447.5,-19 2331.5,-19 2331.5,0 2447.5,0 2447.5,-19"/>
<text text-anchor="middle" x="2389.5" y="-7" font-family="Helvetica,sans-Serif" font-size="10.00">cdisplaysettings.cpp</text>
</a>
</g>
</g>
<!-- Node8&#45;&gt;Node30 -->
<g id="edge32_Node000008_Node000030" class="edge">
<title>Node8&#45;&gt;Node30</title>
<g id="a_edge32_Node000008_Node000030"><a xlink:title=" ">
<path fill="none" stroke="#63b8ff" d="M2491.53,-51.16C2466.91,-41.35 2433.09,-27.87 2411.26,-19.17"/>
<polygon fill="#63b8ff" stroke="#63b8ff" points="2490.55,-54.53 2501.13,-54.98 2493.14,-48.03 2490.55,-54.53"/>
</a>
</g>
</g>
<!-- Node31 -->
<g id="Node000031" class="node">
<title>Node31</title>
<g id="a_Node000031"><a xlink:href="../../d2/d26/cdisplaywindow_8cpp.html" target="_top" xlink:title=" ">
<polygon fill="white" stroke="#666666" points="2579.5,-19 2465.5,-19 2465.5,0 2579.5,0 2579.5,-19"/>
<text text-anchor="middle" x="2522.5" y="-7" font-family="Helvetica,sans-Serif" font-size="10.00">cdisplaywindow.cpp</text>
</a>
</g>
</g>
<!-- Node8&#45;&gt;Node31 -->
<g id="edge33_Node000008_Node000031" class="edge">
<title>Node8&#45;&gt;Node31</title>
<g id="a_edge33_Node000008_Node000031"><a xlink:title=" ">
<path fill="none" stroke="#63b8ff" d="M2522.5,-44.66C2522.5,-35.93 2522.5,-25.99 2522.5,-19.09"/>
<polygon fill="#63b8ff" stroke="#63b8ff" points="2519,-44.75 2522.5,-54.75 2526,-44.75 2519,-44.75"/>
</a>
</g>
</g>
<!-- Node32 -->
<g id="Node000032" class="node">
<title>Node32</title>
<g id="a_Node000032"><a xlink:href="../../d8/d19/clexiconreadwindow_8cpp.html" target="_top" xlink:title=" ">
<polygon fill="white" stroke="#666666" points="2733.5,-19 2597.5,-19 2597.5,0 2733.5,0 2733.5,-19"/>
<text text-anchor="middle" x="2665.5" y="-7" font-family="Helvetica,sans-Serif" font-size="10.00">clexiconreadwindow.cpp</text>
</a>
</g>
</g>
<!-- Node8&#45;&gt;Node32 -->
<g id="edge34_Node000008_Node000032" class="edge">
<title>Node8&#45;&gt;Node32</title>
<g id="a_edge34_Node000008_Node000032"><a xlink:title=" ">
<path fill="none" stroke="#63b8ff" d="M2555.09,-51.42C2581.62,-41.59 2618.43,-27.95 2642.11,-19.17"/>
<polygon fill="#63b8ff" stroke="#63b8ff" points="2553.64,-48.23 2545.48,-54.98 2556.07,-54.79 2553.64,-48.23"/>
</a>
</g>
</g>
<!-- Node33 -->
<g id="Node000033" class="node">
<title>Node33</title>
<g id="a_Node000033"><a xlink:href="../../d7/d5d/cmoduleresultview_8cpp.html" target="_top" xlink:title=" ">
<polygon fill="white" stroke="#666666" points="2881,-19 2752,-19 2752,0 2881,0 2881,-19"/>
<text text-anchor="middle" x="2816.5" y="-7" font-family="Helvetica,sans-Serif" font-size="10.00">cmoduleresultview.cpp</text>
</a>
</g>
</g>
<!-- Node8&#45;&gt;Node33 -->
<g id="edge35_Node000008_Node000033" class="edge">
<title>Node8&#45;&gt;Node33</title>
<g id="a_edge35_Node000008_Node000033"><a xlink:title=" ">
<path fill="none" stroke="#63b8ff" d="M2565.07,-55.83C2619.32,-46.05 2712.82,-29.19 2769.23,-19.02"/>
<polygon fill="#63b8ff" stroke="#63b8ff" points="2564.31,-52.41 2555.09,-57.63 2565.55,-59.3 2564.31,-52.41"/>
</a>
</g>
</g>
<!-- Node34 -->
<g id="Node000034" class="node">
<title>Node34</title>
<g id="a_Node000034"><a xlink:href="../../d9/d56/cresmgr_8cpp.html" target="_top" xlink:title=" ">
<polygon fill="white" stroke="#666666" points="2975.5,-19 2899.5,-19 2899.5,0 2975.5,0 2975.5,-19"/>
<text text-anchor="middle" x="2937.5" y="-7" font-family="Helvetica,sans-Serif" font-size="10.00">cresmgr.cpp</text>
</a>
</g>
</g>
<!-- Node8&#45;&gt;Node34 -->
<g id="edge36_Node000008_Node000034" class="edge">
<title>Node8&#45;&gt;Node34</title>
<g id="a_edge36_Node000008_Node000034"><a xlink:title=" ">
<path fill="none" stroke="#63b8ff" d="M2565.08,-59.17C2633.73,-52.01 2773.08,-36.7 2890.5,-19 2893.37,-18.57 2896.33,-18.09 2899.31,-17.6"/>
<polygon fill="#63b8ff" stroke="#63b8ff" points="2564.66,-55.69 2555.08,-60.21 2565.38,-62.66 2564.66,-55.69"/>
</a>
</g>
</g>
<!-- Node35 -->
<g id="Node000035" class="node">
<title>Node35</title>
<g id="a_Node000035"><a xlink:href="../../d2/d1a/csearchdialog_8cpp.html" target="_top" xlink:title=" ">
<polygon fill="white" stroke="#666666" points="3097.5,-19 2993.5,-19 2993.5,0 3097.5,0 3097.5,-19"/>
<text text-anchor="middle" x="3045.5" y="-7" font-family="Helvetica,sans-Serif" font-size="10.00">csearchdialog.cpp</text>
</a>
</g>
</g>
<!-- Node8&#45;&gt;Node35 -->
<g id="edge37_Node000008_Node000035" class="edge">
<title>Node8&#45;&gt;Node35</title>
<g id="a_edge37_Node000008_Node000035"><a xlink:title=" ">
<path fill="none" stroke="#63b8ff" d="M2565.41,-59.98C2647.11,-53.14 2830.56,-37.13 2984.5,-19 2987.37,-18.66 2990.31,-18.3 2993.28,-17.93"/>
<polygon fill="#63b8ff" stroke="#63b8ff" points="2564.71,-56.53 2555.04,-60.84 2565.29,-63.5 2564.71,-56.53"/>
</a>
</g>
</g>
<!-- Node36 -->
<g id="Node000036" class="node">
<title>Node36</title>
<g id="a_Node000036"><a xlink:href="../../db/d51/csearchresultview_8cpp.html" target="_top" xlink:title=" ">
<polygon fill="white" stroke="#666666" points="3241,-19 3116,-19 3116,0 3241,0 3241,-19"/>
<text text-anchor="middle" x="3178.5" y="-7" font-family="Helvetica,sans-Serif" font-size="10.00">csearchresultview.cpp</text>
</a>
</g>
</g>
<!-- Node8&#45;&gt;Node36 -->
<g id="edge38_Node000008_Node000036" class="edge">
<title>Node8&#45;&gt;Node36</title>
<g id="a_edge38_Node000008_Node000036"><a xlink:title=" ">
<path fill="none" stroke="#63b8ff" d="M2565.4,-60.84C2662.08,-54.72 2904.33,-38.63 3106.5,-19 3109.51,-18.71 3112.58,-18.4 3115.69,-18.07"/>
<polygon fill="#63b8ff" stroke="#63b8ff" points="2564.91,-57.37 2555.15,-61.49 2565.35,-64.35 2564.91,-57.37"/>
</a>
</g>
</g>
<!-- Node37 -->
<g id="Node000037" class="node">
<title>Node37</title>
<g id="a_Node000037"><a xlink:href="../../d3/db9/cswordmoduleinfo_8cpp.html" target="_top" xlink:title=" ">
<polygon fill="white" stroke="#666666" points="3386,-19 3259,-19 3259,0 3386,0 3386,-19"/>
<text text-anchor="middle" x="3322.5" y="-7" font-family="Helvetica,sans-Serif" font-size="10.00">cswordmoduleinfo.cpp</text>
</a>
</g>
</g>
<!-- Node8&#45;&gt;Node37 -->
<g id="edge39_Node000008_Node000037" class="edge">
<title>Node8&#45;&gt;Node37</title>
<g id="a_edge39_Node000008_Node000037"><a xlink:title=" ">
<path fill="none" stroke="#63b8ff" d="M2565.46,-61.72C2678.04,-56.88 2990.87,-42.24 3250.5,-19 3253.26,-18.75 3256.07,-18.49 3258.92,-18.2"/>
<polygon fill="#63b8ff" stroke="#63b8ff" points="2565.04,-58.24 2555.2,-62.16 2565.34,-65.23 2565.04,-58.24"/>
</a>
</g>
</g>
<!-- Node38 -->
<g id="Node000038" class="node">
<title>Node38</title>
<g id="a_Node000038"><a xlink:href="../../d3/dba/cswordsettings_8cpp.html" target="_top" xlink:title=" ">
<polygon fill="white" stroke="#666666" points="3514.5,-19 3404.5,-19 3404.5,0 3514.5,0 3514.5,-19"/>
<text text-anchor="middle" x="3459.5" y="-7" font-family="Helvetica,sans-Serif" font-size="10.00">cswordsettings.cpp</text>
</a>
</g>
</g>
<!-- Node8&#45;&gt;Node38 -->
<g id="edge40_Node000008_Node000038" class="edge">
<title>Node8&#45;&gt;Node38</title>
<g id="a_edge40_Node000008_Node000038"><a xlink:title=" ">
<path fill="none" stroke="#63b8ff" d="M2565.14,-62.55C2691.87,-59.47 3077.26,-48.2 3395.5,-19 3398.4,-18.73 3401.37,-18.43 3404.37,-18.11"/>
<polygon fill="#63b8ff" stroke="#63b8ff" points="2564.98,-59.05 2555.07,-62.79 2565.15,-66.05 2564.98,-59.05"/>
</a>
</g>
</g>
<!-- Node39 -->
<g id="Node000039" class="node">
<title>Node39</title>
<g id="a_Node000039"><a xlink:href="../../d9/d6e/languageitem_8cpp.html" target="_top" xlink:title=" ">
<polygon fill="white" stroke="#666666" points="3636.5,-19 3532.5,-19 3532.5,0 3636.5,0 3636.5,-19"/>
<text text-anchor="middle" x="3584.5" y="-7" font-family="Helvetica,sans-Serif" font-size="10.00">languageitem.cpp</text>
</a>
</g>
</g>
<!-- Node8&#45;&gt;Node39 -->
<g id="edge41_Node000008_Node000039" class="edge">
<title>Node8&#45;&gt;Node39</title>
<g id="a_edge41_Node000008_Node000039"><a xlink:title=" ">
<path fill="none" stroke="#63b8ff" d="M2565.64,-63.03C2704.73,-61.21 3153.76,-52.9 3523.5,-19 3526.37,-18.74 3529.32,-18.43 3532.29,-18.1"/>
<polygon fill="#63b8ff" stroke="#63b8ff" points="2565.37,-59.53 2555.41,-63.16 2565.46,-66.53 2565.37,-59.53"/>
</a>
</g>
</g>
</g>
</svg>

<g id="navigator" transform="translate(0 0)" fill="#404254">
  <rect fill="#f2f5e9" fill-opacity="0.5" stroke="#606060" stroke-width=".5" x="0" y="0" width="60" height="60"/>
  <use id="zoomplus" xlink:href="#zoomPlus" x="17" y="9" onmousedown="handleZoom(evt,'in')"/>
  <use id="zoomminus" xlink:href="#zoomMin" x="42" y="9" onmousedown="handleZoom(evt,'out')"/>
  <use id="reset" xlink:href="#resetDef" x="30" y="36" onmousedown="handleReset()"/>
   <use id="arrowup" xlink:href="#arrowUp" x="0" y="0" onmousedown="handlePan(0,-1)"/>
  <use id="arrowright" xlink:href="#arrowRight" x="0" y="0" onmousedown="handlePan(1,0)"/>
  <use id="arrowdown" xlink:href="#arrowDown" x="0" y="0" onmousedown="handlePan(0,1)"/>
  <use id="arrowleft" xlink:href="#arrowLeft" x="0" y="0" onmousedown="handlePan(-1,0)"/>
</g>
<svg viewBox="0 0 15 15" width="100%" height="30px" preserveAspectRatio="xMaxYMin meet">
 <g id="arrow_out" transform="scale(0.3 0.3)">
  <a xlink:href="bticons_8h__dep__incl_org.svg" target="_base">
   <rect id="button" ry="5" rx="5" y="6" x="6" height="38" width="38"
        fill="#f2f5e9" fill-opacity="0.5" stroke="#606060" stroke-width="1.0"/>
   <path id="arrow"
     d="M 11.500037,31.436501 C 11.940474,20.09759 22.043105,11.32322 32.158766,21.979434 L 37.068811,17.246167 C 37.068811,17.246167 37.088388,32 37.088388,32 L 22.160133,31.978069 C 22.160133,31.978069 26.997745,27.140456 26.997745,27.140456 C 18.528582,18.264221 13.291696,25.230495 11.500037,31.436501 z"
     style="fill:#404040;"/>
  </a>
 </g>
</svg>

<style type='text/css'>
<![CDATA[
[data-mouse-over-selected='false'] { opacity: 0.7; }
[data-mouse-over-selected='true']  { opacity: 1.0; }
]]>
</style>
<script type="application/ecmascript"><![CDATA[
document.addEventListener('DOMContentLoaded', (event) => {
  highlightEdges();
  highlightAdjacentNodes();
});
]]></script>
</svg>
