<?xml version="1.0" encoding="UTF-8" standalone="no"?>
<!DOCTYPE svg PUBLIC "-//W3C//DTD SVG 1.1//EN"
 "http://www.w3.org/Graphics/SVG/1.1/DTD/svg11.dtd">
<!-- Generated by graphviz version 2.43.0 (0)
 -->
<!-- Title: BtLocationEdit Pages: 1 -->
<svg width="108pt" height="172pt"
 viewBox="0.00 0.00 108.00 172.00" xmlns="http://www.w3.org/2000/svg" xmlns:xlink="http://www.w3.org/1999/xlink">
<g id="graph0" class="graph" transform="scale(1 1) rotate(0) translate(4 168)">
<title>BtLocationEdit</title>
<!-- Node1 -->
<g id="Node000001" class="node">
<title>Node1</title>
<g id="a_Node000001"><a xlink:title=" ">
<polygon fill="#999999" stroke="transparent" points="100,-79 0,-79 0,0 100,0 100,-79"/>
<text text-anchor="start" x="14.5" y="-66.5" font-family="Helvetica,sans-Serif" font-size="10.00">BtLocationEdit</text>
<text text-anchor="start" x="48" y="-51.5" font-family="Helvetica,sans-Serif" font-size="10.00"> </text>
<text text-anchor="start" x="4" y="-36.5" font-family="Helvetica,sans-Serif" font-size="10.00">+</text>
<text text-anchor="start" x="17" y="-36.5" font-family="Helvetica,sans-Serif" font-size="10.00">BtLocationEdit()</text>
<text text-anchor="start" x="4" y="-21.5" font-family="Helvetica,sans-Serif" font-size="10.00">#</text>
<text text-anchor="start" x="17" y="-21.5" font-family="Helvetica,sans-Serif" font-size="10.00">focusInEvent()</text>
<text text-anchor="start" x="4" y="-6.5" font-family="Helvetica,sans-Serif" font-size="10.00">#</text>
<text text-anchor="start" x="17" y="-6.5" font-family="Helvetica,sans-Serif" font-size="10.00">keyPressEvent()</text>
<polygon fill="#666666" stroke="#666666" points="0,-61.5 0,-61.5 100,-61.5 100,-61.5 0,-61.5"/>
<polygon fill="#666666" stroke="#666666" points="0,-46.5 0,-46.5 100,-46.5 100,-46.5 0,-46.5"/>
<polygon fill="none" stroke="#666666" points="0,0 0,-79 100,-79 100,0 0,0"/>
</a>
</g>
</g>
<!-- Node2 -->
<g id="Node000002" class="node">
<title>Node2</title>
<g id="a_Node000002"><a xlink:href="../../d3/d15/classQLineEdit.html" target="_top" xlink:title=" ">
<polygon fill="white" stroke="transparent" points="78.5,-164 21.5,-164 21.5,-115 78.5,-115 78.5,-164"/>
<text text-anchor="start" x="27" y="-151.5" font-family="Helvetica,sans-Serif" font-size="10.00">QLineEdit</text>
<text text-anchor="start" x="48.5" y="-136.5" font-family="Helvetica,sans-Serif" font-size="10.00"> </text>
<text text-anchor="start" x="48.5" y="-121.5" font-family="Helvetica,sans-Serif" font-size="10.00"> </text>
<polygon fill="#666666" stroke="#666666" points="22,-146.5 22,-146.5 79,-146.5 79,-146.5 22,-146.5"/>
<polygon fill="#666666" stroke="#666666" points="22,-131.5 22,-131.5 79,-131.5 79,-131.5 22,-131.5"/>
<polygon fill="none" stroke="#666666" points="21.5,-115 21.5,-164 78.5,-164 78.5,-115 21.5,-115"/>
</a>
</g>
</g>
<!-- Node2&#45;&gt;Node1 -->
<g id="edge1_Node000001_Node000002" class="edge">
<title>Node2&#45;&gt;Node1</title>
<g id="a_edge1_Node000001_Node000002"><a xlink:title=" ">
<path fill="none" stroke="#63b8ff" d="M50,-104.52C50,-96.38 50,-87.63 50,-79.29"/>
<polygon fill="none" stroke="#63b8ff" points="46.5,-104.78 50,-114.78 53.5,-104.78 46.5,-104.78"/>
</a>
</g>
</g>
</g>
</svg>
