<?xml version="1.0" encoding="UTF-8" standalone="no"?>
<!DOCTYPE svg PUBLIC "-//W3C//DTD SVG 1.1//EN"
 "http://www.w3.org/Graphics/SVG/1.1/DTD/svg11.dtd">
<!-- Generated by graphviz version 2.43.0 (0)
 -->
<!-- Title: teitohtml.h Pages: 1 -->
<!--zoomable 196 -->
<svg id="main" version="1.1" xmlns="http://www.w3.org/2000/svg" xmlns:xlink="http://www.w3.org/1999/xlink" xml:space="preserve" onload="init(evt)">
<style type="text/css"><![CDATA[
.edge:hover path { stroke: red; }
.edge:hover polygon { stroke: red; fill: red; }
]]></style>
<script type="text/javascript"><![CDATA[
var edges = document.getElementsByTagName('g');
if (edges && edges.length) {
  for (var i=0;i<edges.length;i++) {
    if (edges[i].id.substr(0,4)=='edge') {
      edges[i].setAttribute('class','edge');
    }
  }
}
]]></script>
        <defs>
                <circle id="rim" cx="0" cy="0" r="7"/>
                <circle id="rim2" cx="0" cy="0" r="3.5"/>
                <g id="zoomPlus">
                        <use xlink:href="#rim" fill="#404040">
                                <set attributeName="fill" to="#808080" begin="zoomplus.mouseover" end="zoomplus.mouseout"/>
                        </use>
                        <path d="M-4,0h8M0,-4v8" fill="none" stroke="white" stroke-width="1.5" pointer-events="none"/>
                </g>
                <g id="zoomMin">
                        <use xlink:href="#rim" fill="#404040">
                                <set attributeName="fill" to="#808080" begin="zoomminus.mouseover" end="zoomminus.mouseout"/>
                        </use>
                        <path d="M-4,0h8" fill="none" stroke="white" stroke-width="1.5" pointer-events="none"/>
                </g>
                <g id="dirArrow">
                        <path fill="none" stroke="white" stroke-width="1.5" d="M0,-3.0v7 M-2.5,-0.5L0,-3.0L2.5,-0.5"/>
                </g>
               <g id="resetDef">
                       <use xlink:href="#rim2" fill="#404040">
                               <set attributeName="fill" to="#808080" begin="reset.mouseover" end="reset.mouseout"/>
                       </use>
               </g>
        </defs>

<script type="text/javascript">
var viewWidth = 6326;
var viewHeight = 196;
var sectionId = 'dynsection-0';
</script>
<script xlink:href="../../svgpan.js"/>
<svg id="graph" class="graph">
<g id="viewport">
<title>teitohtml.h</title>
<polygon fill="white" stroke="transparent" points="-4,4 -4,-192 6322,-192 6322,4 -4,4"/>
<!-- Node1 -->
<g id="node1" class="node">
<title>Node1</title>
<g id="a_node1"><a xlink:title=" ">
<polygon fill="#bfbfbf" stroke="black" points="1460.5,-168.5 1460.5,-187.5 1531.5,-187.5 1531.5,-168.5 1460.5,-168.5"/>
<text text-anchor="middle" x="1496" y="-175.5" font-family="Helvetica,sans-Serif" font-size="10.00">teitohtml.h</text>
</a>
</g>
</g>
<!-- Node2 -->
<g id="node2" class="node">
<title>Node2</title>
<g id="a_node2"><a xlink:href="../../d5/de5/teitohtml_8cpp.html" target="_top" xlink:title=" ">
<polygon fill="white" stroke="black" points="0,-56.5 0,-75.5 82,-75.5 82,-56.5 0,-56.5"/>
<text text-anchor="middle" x="41" y="-63.5" font-family="Helvetica,sans-Serif" font-size="10.00">teitohtml.cpp</text>
</a>
</g>
</g>
<!-- Node1&#45;&gt;Node2 -->
<g id="edge1" class="edge">
<title>Node1&#45;&gt;Node2</title>
<path fill="none" stroke="midnightblue" d="M1450.1,-175.48C1273.7,-169.24 622.76,-142.78 91,-76 88.11,-75.64 85.14,-75.22 82.15,-74.76"/>
<polygon fill="midnightblue" stroke="midnightblue" points="1450.19,-178.98 1460.31,-175.83 1450.43,-171.98 1450.19,-178.98"/>
</g>
<!-- Node3 -->
<g id="node3" class="node">
<title>Node3</title>
<g id="a_node3"><a xlink:href="../../d0/d60/cswordbackend_8h.html" target="_top" xlink:title=" ">
<polygon fill="white" stroke="black" points="2813.5,-112.5 2813.5,-131.5 2914.5,-131.5 2914.5,-112.5 2813.5,-112.5"/>
<text text-anchor="middle" x="2864" y="-119.5" font-family="Helvetica,sans-Serif" font-size="10.00">cswordbackend.h</text>
</a>
</g>
</g>
<!-- Node1&#45;&gt;Node3 -->
<g id="edge2" class="edge">
<title>Node1&#45;&gt;Node3</title>
<path fill="none" stroke="midnightblue" d="M1541.75,-175.19C1748.7,-167.03 2596.62,-133.55 2813.36,-125"/>
<polygon fill="midnightblue" stroke="midnightblue" points="1541.39,-171.71 1531.54,-175.6 1541.67,-178.7 1541.39,-171.71"/>
</g>
<!-- Node3&#45;&gt;Node2 -->
<g id="edge12" class="edge">
<title>Node3&#45;&gt;Node2</title>
<path fill="none" stroke="midnightblue" d="M2803.16,-120.6C2421.91,-118.05 369.04,-103.1 91,-76 88.1,-75.72 85.12,-75.36 82.13,-74.95"/>
<polygon fill="midnightblue" stroke="midnightblue" points="2803.41,-124.11 2813.43,-120.67 2803.45,-117.11 2803.41,-124.11"/>
</g>
<!-- Node4 -->
<g id="node4" class="node">
<title>Node4</title>
<g id="a_node4"><a xlink:href="../../d7/dd0/btbookmarksmodel_8cpp.html" target="_top" xlink:title=" ">
<polygon fill="white" stroke="black" points="5924,-56.5 5924,-75.5 6056,-75.5 6056,-56.5 5924,-56.5"/>
<text text-anchor="middle" x="5990" y="-63.5" font-family="Helvetica,sans-Serif" font-size="10.00">btbookmarksmodel.cpp</text>
</a>
</g>
</g>
<!-- Node3&#45;&gt;Node4 -->
<g id="edge3" class="edge">
<title>Node3&#45;&gt;Node4</title>
<path fill="none" stroke="midnightblue" d="M2924.67,-120.97C3299.39,-120.67 5302.66,-117.14 5915,-76 5917.88,-75.81 5920.82,-75.58 5923.78,-75.33"/>
<polygon fill="midnightblue" stroke="midnightblue" points="2924.58,-117.47 2914.58,-120.98 2924.58,-124.47 2924.58,-117.47"/>
</g>
<!-- Node5 -->
<g id="node5" class="node">
<title>Node5</title>
<g id="a_node5"><a xlink:href="../../db/dd7/btinstallbackend_8cpp.html" target="_top" xlink:title=" ">
<polygon fill="white" stroke="black" points="6074.5,-56.5 6074.5,-75.5 6191.5,-75.5 6191.5,-56.5 6074.5,-56.5"/>
<text text-anchor="middle" x="6133" y="-63.5" font-family="Helvetica,sans-Serif" font-size="10.00">btinstallbackend.cpp</text>
</a>
</g>
</g>
<!-- Node3&#45;&gt;Node5 -->
<g id="edge4" class="edge">
<title>Node3&#45;&gt;Node5</title>
<path fill="none" stroke="midnightblue" d="M2924.88,-121.12C3310.81,-121.75 5421.28,-122.96 6065,-76 6068.09,-75.77 6071.25,-75.5 6074.44,-75.19"/>
<polygon fill="midnightblue" stroke="midnightblue" points="2924.76,-117.62 2914.76,-121.11 2924.75,-124.62 2924.76,-117.62"/>
</g>
<!-- Node6 -->
<g id="node6" class="node">
<title>Node6</title>
<g id="a_node6"><a xlink:href="../../d5/daf/btinstallthread_8cpp.html" target="_top" xlink:title=" ">
<polygon fill="white" stroke="black" points="6210,-56.5 6210,-75.5 6318,-75.5 6318,-56.5 6210,-56.5"/>
<text text-anchor="middle" x="6264" y="-63.5" font-family="Helvetica,sans-Serif" font-size="10.00">btinstallthread.cpp</text>
</a>
</g>
</g>
<!-- Node3&#45;&gt;Node6 -->
<g id="edge5" class="edge">
<title>Node3&#45;&gt;Node6</title>
<path fill="none" stroke="midnightblue" d="M2924.97,-120.65C3349.95,-118.15 5862.75,-102.33 6201,-76 6203.86,-75.78 6206.8,-75.51 6209.75,-75.2"/>
<polygon fill="midnightblue" stroke="midnightblue" points="2924.72,-117.15 2914.74,-120.71 2924.76,-124.15 2924.72,-117.15"/>
</g>
<!-- Node7 -->
<g id="node7" class="node">
<title>Node7</title>
<g id="a_node7"><a xlink:href="../../de/d4e/btconfig_8cpp.html" target="_top" xlink:title=" ">
<polygon fill="white" stroke="black" points="100,-56.5 100,-75.5 176,-75.5 176,-56.5 100,-56.5"/>
<text text-anchor="middle" x="138" y="-63.5" font-family="Helvetica,sans-Serif" font-size="10.00">btconfig.cpp</text>
</a>
</g>
</g>
<!-- Node3&#45;&gt;Node7 -->
<g id="edge6" class="edge">
<title>Node3&#45;&gt;Node7</title>
<path fill="none" stroke="midnightblue" d="M2803.44,-120.61C2430.52,-118.12 453.03,-103.7 185,-76 182.11,-75.7 179.13,-75.32 176.14,-74.87"/>
<polygon fill="midnightblue" stroke="midnightblue" points="2803.47,-124.11 2813.49,-120.68 2803.51,-117.11 2803.47,-124.11"/>
</g>
<!-- Node8 -->
<g id="node8" class="node">
<title>Node8</title>
<g id="a_node8"><a xlink:href="../../dd/d03/cswordmodulesearch_8cpp.html" target="_top" xlink:title=" ">
<polygon fill="white" stroke="black" points="194,-56.5 194,-75.5 334,-75.5 334,-56.5 194,-56.5"/>
<text text-anchor="middle" x="264" y="-63.5" font-family="Helvetica,sans-Serif" font-size="10.00">cswordmodulesearch.cpp</text>
</a>
</g>
</g>
<!-- Node3&#45;&gt;Node8 -->
<g id="edge7" class="edge">
<title>Node3&#45;&gt;Node8</title>
<path fill="none" stroke="midnightblue" d="M2802.81,-120.7C2466.83,-118.95 843.3,-108.89 343,-76 340.11,-75.81 337.16,-75.59 334.18,-75.35"/>
<polygon fill="midnightblue" stroke="midnightblue" points="2803.28,-124.21 2813.29,-120.76 2803.31,-117.21 2803.28,-124.21"/>
</g>
<!-- Node9 -->
<g id="node9" class="node">
<title>Node9</title>
<g id="a_node9"><a xlink:href="../../d4/d94/cswordbiblemoduleinfo_8cpp.html" target="_top" xlink:title=" ">
<polygon fill="white" stroke="black" points="352.5,-56.5 352.5,-75.5 503.5,-75.5 503.5,-56.5 352.5,-56.5"/>
<text text-anchor="middle" x="428" y="-63.5" font-family="Helvetica,sans-Serif" font-size="10.00">cswordbiblemoduleinfo.cpp</text>
</a>
</g>
</g>
<!-- Node3&#45;&gt;Node9 -->
<g id="edge8" class="edge">
<title>Node3&#45;&gt;Node9</title>
<path fill="none" stroke="midnightblue" d="M2803.05,-120.56C2481.23,-118.12 976.96,-105.3 512,-76 509.22,-75.82 506.39,-75.63 503.53,-75.41"/>
<polygon fill="midnightblue" stroke="midnightblue" points="2803.08,-124.06 2813.11,-120.63 2803.14,-117.06 2803.08,-124.06"/>
</g>
<!-- Node10 -->
<g id="node10" class="node">
<title>Node10</title>
<g id="a_node10"><a xlink:href="../../d3/db9/cswordmoduleinfo_8cpp.html" target="_top" xlink:title=" ">
<polygon fill="white" stroke="black" points="521.5,-56.5 521.5,-75.5 648.5,-75.5 648.5,-56.5 521.5,-56.5"/>
<text text-anchor="middle" x="585" y="-63.5" font-family="Helvetica,sans-Serif" font-size="10.00">cswordmoduleinfo.cpp</text>
</a>
</g>
</g>
<!-- Node3&#45;&gt;Node10 -->
<g id="edge9" class="edge">
<title>Node3&#45;&gt;Node10</title>
<path fill="none" stroke="midnightblue" d="M2803.38,-120.6C2494.38,-118.45 1092.23,-107.11 658,-76 654.94,-75.78 651.82,-75.52 648.66,-75.24"/>
<polygon fill="midnightblue" stroke="midnightblue" points="2803.46,-124.1 2813.49,-120.67 2803.51,-117.1 2803.46,-124.1"/>
</g>
<!-- Node11 -->
<g id="node11" class="node">
<title>Node11</title>
<g id="a_node11"><a xlink:href="../../d4/d4d/gbftohtml_8cpp.html" target="_top" xlink:title=" ">
<polygon fill="white" stroke="black" points="667,-56.5 667,-75.5 751,-75.5 751,-56.5 667,-56.5"/>
<text text-anchor="middle" x="709" y="-63.5" font-family="Helvetica,sans-Serif" font-size="10.00">gbftohtml.cpp</text>
</a>
</g>
</g>
<!-- Node3&#45;&gt;Node11 -->
<g id="edge10" class="edge">
<title>Node3&#45;&gt;Node11</title>
<path fill="none" stroke="midnightblue" d="M2802.75,-120.99C2501.04,-120.72 1170.8,-117.21 759,-76 756.45,-75.75 753.84,-75.43 751.22,-75.08"/>
<polygon fill="midnightblue" stroke="midnightblue" points="2803.05,-124.49 2813.05,-120.99 2803.05,-117.49 2803.05,-124.49"/>
</g>
<!-- Node12 -->
<g id="node12" class="node">
<title>Node12</title>
<g id="a_node12"><a xlink:href="../../db/d7a/osistohtml_8cpp.html" target="_top" xlink:title=" ">
<polygon fill="white" stroke="black" points="768.5,-56.5 768.5,-75.5 857.5,-75.5 857.5,-56.5 768.5,-56.5"/>
<text text-anchor="middle" x="813" y="-63.5" font-family="Helvetica,sans-Serif" font-size="10.00">osistohtml.cpp</text>
</a>
</g>
</g>
<!-- Node3&#45;&gt;Node12 -->
<g id="edge11" class="edge">
<title>Node3&#45;&gt;Node12</title>
<path fill="none" stroke="midnightblue" d="M2803.11,-120.8C2511.6,-119.66 1256.65,-112.67 867,-76 863.97,-75.72 860.86,-75.36 857.72,-74.96"/>
<polygon fill="midnightblue" stroke="midnightblue" points="2803.46,-124.3 2813.47,-120.84 2803.49,-117.3 2803.46,-124.3"/>
</g>
<!-- Node13 -->
<g id="node13" class="node">
<title>Node13</title>
<g id="a_node13"><a xlink:href="../../d9/de8/thmltohtml_8cpp.html" target="_top" xlink:title=" ">
<polygon fill="white" stroke="black" points="876,-56.5 876,-75.5 968,-75.5 968,-56.5 876,-56.5"/>
<text text-anchor="middle" x="922" y="-63.5" font-family="Helvetica,sans-Serif" font-size="10.00">thmltohtml.cpp</text>
</a>
</g>
</g>
<!-- Node3&#45;&gt;Node13 -->
<g id="edge13" class="edge">
<title>Node3&#45;&gt;Node13</title>
<path fill="none" stroke="midnightblue" d="M2803.26,-120.68C2521.95,-119.04 1343.82,-110.22 977,-76 974.11,-75.73 971.14,-75.4 968.15,-75.03"/>
<polygon fill="midnightblue" stroke="midnightblue" points="2803.26,-124.18 2813.28,-120.74 2803.3,-117.18 2803.26,-124.18"/>
</g>
<!-- Node14 -->
<g id="node14" class="node">
<title>Node14</title>
<g id="a_node14"><a xlink:href="../../d4/d47/cdisplaytemplatemgr_8cpp.html" target="_top" xlink:title=" ">
<polygon fill="white" stroke="black" points="986,-56.5 986,-75.5 1126,-75.5 1126,-56.5 986,-56.5"/>
<text text-anchor="middle" x="1056" y="-63.5" font-family="Helvetica,sans-Serif" font-size="10.00">cdisplaytemplatemgr.cpp</text>
</a>
</g>
</g>
<!-- Node3&#45;&gt;Node14 -->
<g id="edge14" class="edge">
<title>Node3&#45;&gt;Node14</title>
<path fill="none" stroke="midnightblue" d="M2803.18,-121.34C2580.26,-122.17 1787.02,-121.54 1135,-76 1132.11,-75.8 1129.16,-75.57 1126.18,-75.32"/>
<polygon fill="midnightblue" stroke="midnightblue" points="2803.37,-124.84 2813.36,-121.3 2803.34,-117.84 2803.37,-124.84"/>
</g>
<!-- Node15 -->
<g id="node15" class="node">
<title>Node15</title>
<g id="a_node15"><a xlink:href="../../d9/d7b/cswordbackend_8cpp.html" target="_top" xlink:title=" ">
<polygon fill="white" stroke="black" points="1144,-56.5 1144,-75.5 1256,-75.5 1256,-56.5 1144,-56.5"/>
<text text-anchor="middle" x="1200" y="-63.5" font-family="Helvetica,sans-Serif" font-size="10.00">cswordbackend.cpp</text>
</a>
</g>
</g>
<!-- Node3&#45;&gt;Node15 -->
<g id="edge15" class="edge">
<title>Node3&#45;&gt;Node15</title>
<path fill="none" stroke="midnightblue" d="M2803.3,-120.18C2549.49,-116.62 1572.27,-101.52 1265,-76 1262.16,-75.76 1259.26,-75.49 1256.33,-75.18"/>
<polygon fill="midnightblue" stroke="midnightblue" points="2803.38,-123.68 2813.43,-120.32 2803.48,-116.68 2803.38,-123.68"/>
</g>
<!-- Node16 -->
<g id="node16" class="node">
<title>Node16</title>
<g id="a_node16"><a xlink:href="../../d7/dfe/referencemanager_8cpp.html" target="_top" xlink:title=" ">
<polygon fill="white" stroke="black" points="1274,-56.5 1274,-75.5 1400,-75.5 1400,-56.5 1274,-56.5"/>
<text text-anchor="middle" x="1337" y="-63.5" font-family="Helvetica,sans-Serif" font-size="10.00">referencemanager.cpp</text>
</a>
</g>
</g>
<!-- Node3&#45;&gt;Node16 -->
<g id="edge16" class="edge">
<title>Node3&#45;&gt;Node16</title>
<path fill="none" stroke="midnightblue" d="M2803.33,-121.15C2603.59,-121.21 1948.58,-117.98 1409,-76 1406.11,-75.78 1403.16,-75.52 1400.18,-75.24"/>
<polygon fill="midnightblue" stroke="midnightblue" points="2803.33,-124.65 2813.33,-121.14 2803.33,-117.65 2803.33,-124.65"/>
</g>
<!-- Node17 -->
<g id="node17" class="node">
<title>Node17</title>
<g id="a_node17"><a xlink:href="../../de/d93/btmoduletextmodel_8cpp.html" target="_top" xlink:title=" ">
<polygon fill="white" stroke="black" points="1418,-56.5 1418,-75.5 1552,-75.5 1552,-56.5 1418,-56.5"/>
<text text-anchor="middle" x="1485" y="-63.5" font-family="Helvetica,sans-Serif" font-size="10.00">btmoduletextmodel.cpp</text>
</a>
</g>
</g>
<!-- Node3&#45;&gt;Node17 -->
<g id="edge17" class="edge">
<title>Node3&#45;&gt;Node17</title>
<path fill="none" stroke="midnightblue" d="M2803.17,-120.7C2617,-119.39 2038.62,-112.46 1561,-76 1558.09,-75.78 1555.11,-75.53 1552.11,-75.25"/>
<polygon fill="midnightblue" stroke="midnightblue" points="2803.28,-124.2 2813.31,-120.77 2803.33,-117.2 2803.28,-124.2"/>
</g>
<!-- Node18 -->
<g id="node18" class="node">
<title>Node18</title>
<g id="a_node18"><a xlink:href="../../da/d1a/btinforendering_8cpp.html" target="_top" xlink:title=" ">
<polygon fill="white" stroke="black" points="1570,-56.5 1570,-75.5 1682,-75.5 1682,-56.5 1570,-56.5"/>
<text text-anchor="middle" x="1626" y="-63.5" font-family="Helvetica,sans-Serif" font-size="10.00">btinforendering.cpp</text>
</a>
</g>
</g>
<!-- Node3&#45;&gt;Node18 -->
<g id="edge18" class="edge">
<title>Node3&#45;&gt;Node18</title>
<path fill="none" stroke="midnightblue" d="M2803.07,-120.79C2629.13,-119.74 2115.5,-113.44 1691,-76 1688.16,-75.75 1685.26,-75.46 1682.33,-75.15"/>
<polygon fill="midnightblue" stroke="midnightblue" points="2803.28,-124.29 2813.3,-120.85 2803.32,-117.29 2803.28,-124.29"/>
</g>
<!-- Node19 -->
<g id="node19" class="node">
<title>Node19</title>
<g id="a_node19"><a xlink:href="../../db/d72/ctextrendering_8cpp.html" target="_top" xlink:title=" ">
<polygon fill="white" stroke="black" points="1700,-56.5 1700,-75.5 1808,-75.5 1808,-56.5 1700,-56.5"/>
<text text-anchor="middle" x="1754" y="-63.5" font-family="Helvetica,sans-Serif" font-size="10.00">ctextrendering.cpp</text>
</a>
</g>
</g>
<!-- Node3&#45;&gt;Node19 -->
<g id="edge19" class="edge">
<title>Node3&#45;&gt;Node19</title>
<path fill="none" stroke="midnightblue" d="M2803.32,-120.25C2642.83,-117.87 2193.98,-108.58 1822,-76 1817.49,-75.61 1812.82,-75.13 1808.14,-74.6"/>
<polygon fill="midnightblue" stroke="midnightblue" points="2803.42,-123.76 2813.47,-120.4 2803.53,-116.76 2803.42,-123.76"/>
</g>
<!-- Node20 -->
<g id="node20" class="node">
<title>Node20</title>
<g id="a_node20"><a xlink:href="../../d1/df6/bibletime_8cpp.html" target="_top" xlink:title=" ">
<polygon fill="white" stroke="black" points="1722.5,-0.5 1722.5,-19.5 1805.5,-19.5 1805.5,-0.5 1722.5,-0.5"/>
<text text-anchor="middle" x="1764" y="-7.5" font-family="Helvetica,sans-Serif" font-size="10.00">bibletime.cpp</text>
</a>
</g>
</g>
<!-- Node3&#45;&gt;Node20 -->
<g id="edge20" class="edge">
<title>Node3&#45;&gt;Node20</title>
<path fill="none" stroke="midnightblue" d="M2803.28,-119.92C2602.03,-116.09 1964.61,-102.03 1876,-76 1835.23,-64.03 1793.61,-34.3 1774.62,-19.57"/>
<polygon fill="midnightblue" stroke="midnightblue" points="2803.31,-123.42 2813.38,-120.11 2803.45,-116.42 2803.31,-123.42"/>
</g>
<!-- Node21 -->
<g id="node21" class="node">
<title>Node21</title>
<g id="a_node21"><a xlink:href="../../d6/d96/bibletime__slots_8cpp.html" target="_top" xlink:title=" ">
<polygon fill="white" stroke="black" points="2048,-56.5 2048,-75.5 2160,-75.5 2160,-56.5 2048,-56.5"/>
<text text-anchor="middle" x="2104" y="-63.5" font-family="Helvetica,sans-Serif" font-size="10.00">bibletime_slots.cpp</text>
</a>
</g>
</g>
<!-- Node3&#45;&gt;Node21 -->
<g id="edge21" class="edge">
<title>Node3&#45;&gt;Node21</title>
<path fill="none" stroke="midnightblue" d="M2803.14,-118.55C2682.13,-113.36 2402.78,-99.72 2169,-76 2166.17,-75.71 2163.27,-75.4 2160.34,-75.06"/>
<polygon fill="midnightblue" stroke="midnightblue" points="2803.18,-122.06 2813.32,-118.99 2803.47,-115.06 2803.18,-122.06"/>
</g>
<!-- Node22 -->
<g id="node22" class="node">
<title>Node22</title>
<g id="a_node22"><a xlink:href="../../d5/d86/bibletimeapp_8cpp.html" target="_top" xlink:title=" ">
<polygon fill="white" stroke="black" points="1823.5,-0.5 1823.5,-19.5 1924.5,-19.5 1924.5,-0.5 1823.5,-0.5"/>
<text text-anchor="middle" x="1874" y="-7.5" font-family="Helvetica,sans-Serif" font-size="10.00">bibletimeapp.cpp</text>
</a>
</g>
</g>
<!-- Node3&#45;&gt;Node22 -->
<g id="edge22" class="edge">
<title>Node3&#45;&gt;Node22</title>
<path fill="none" stroke="midnightblue" d="M2803.21,-120.11C2596.09,-116.85 1928.83,-104.18 1893,-76 1875.81,-62.48 1873.57,-34.29 1873.63,-19.89"/>
<polygon fill="midnightblue" stroke="midnightblue" points="2803.24,-123.62 2813.3,-120.27 2803.35,-116.62 2803.24,-123.62"/>
</g>
<!-- Node23 -->
<g id="node23" class="node">
<title>Node23</title>
<g id="a_node23"><a xlink:href="../../d5/d00/bibletimeapp_8h.html" target="_top" xlink:title=" ">
<polygon fill="white" stroke="black" points="1902,-56.5 1902,-75.5 1992,-75.5 1992,-56.5 1902,-56.5"/>
<text text-anchor="middle" x="1947" y="-63.5" font-family="Helvetica,sans-Serif" font-size="10.00">bibletimeapp.h</text>
</a>
</g>
</g>
<!-- Node3&#45;&gt;Node23 -->
<g id="edge23" class="edge">
<title>Node3&#45;&gt;Node23</title>
<path fill="none" stroke="midnightblue" d="M2802.93,-119.87C2662.12,-116.82 2303.86,-106.45 2006,-76 2001.46,-75.54 1996.75,-74.97 1992.04,-74.34"/>
<polygon fill="midnightblue" stroke="midnightblue" points="2803.02,-123.37 2813.09,-120.09 2803.17,-116.38 2803.02,-123.37"/>
</g>
<!-- Node25 -->
<g id="node25" class="node">
<title>Node25</title>
<g id="a_node25"><a xlink:href="../../df/d0a/main_8cpp.html" target="_top" xlink:title=" ">
<polygon fill="white" stroke="black" points="2065,-0.5 2065,-19.5 2127,-19.5 2127,-0.5 2065,-0.5"/>
<text text-anchor="middle" x="2096" y="-7.5" font-family="Helvetica,sans-Serif" font-size="10.00">main.cpp</text>
</a>
</g>
</g>
<!-- Node3&#45;&gt;Node25 -->
<g id="edge47" class="edge">
<title>Node3&#45;&gt;Node25</title>
<path fill="none" stroke="midnightblue" d="M2803.18,-119.95C2616.9,-116.42 2065.21,-103.68 2039,-76 2020.42,-56.38 2056.15,-32.22 2079,-19.6"/>
<polygon fill="midnightblue" stroke="midnightblue" points="2803.28,-123.45 2813.35,-120.14 2803.42,-116.45 2803.28,-123.45"/>
</g>
<!-- Node26 -->
<g id="node26" class="node">
<title>Node26</title>
<g id="a_node26"><a xlink:href="../../d9/de6/cbookmarkindex_8cpp.html" target="_top" xlink:title=" ">
<polygon fill="white" stroke="black" points="2178.5,-56.5 2178.5,-75.5 2297.5,-75.5 2297.5,-56.5 2178.5,-56.5"/>
<text text-anchor="middle" x="2238" y="-63.5" font-family="Helvetica,sans-Serif" font-size="10.00">cbookmarkindex.cpp</text>
</a>
</g>
</g>
<!-- Node3&#45;&gt;Node26 -->
<g id="edge28" class="edge">
<title>Node3&#45;&gt;Node26</title>
<path fill="none" stroke="midnightblue" d="M2802.96,-117.1C2700.23,-110.31 2486.33,-95.19 2306,-76 2303.28,-75.71 2300.49,-75.4 2297.68,-75.07"/>
<polygon fill="midnightblue" stroke="midnightblue" points="2802.93,-120.61 2813.14,-117.77 2803.39,-113.62 2802.93,-120.61"/>
</g>
<!-- Node27 -->
<g id="node27" class="node">
<title>Node27</title>
<g id="a_node27"><a xlink:href="../../dc/d04/btbookshelfinstallfinalpage_8cpp.html" target="_top" xlink:title=" ">
<polygon fill="white" stroke="black" points="2315.5,-56.5 2315.5,-75.5 2484.5,-75.5 2484.5,-56.5 2315.5,-56.5"/>
<text text-anchor="middle" x="2400" y="-63.5" font-family="Helvetica,sans-Serif" font-size="10.00">btbookshelfinstallfinalpage.cpp</text>
</a>
</g>
</g>
<!-- Node3&#45;&gt;Node27 -->
<g id="edge29" class="edge">
<title>Node3&#45;&gt;Node27</title>
<path fill="none" stroke="midnightblue" d="M2803.47,-113.96C2718.62,-104.08 2564.52,-86.15 2473.29,-75.53"/>
<polygon fill="midnightblue" stroke="midnightblue" points="2803.12,-117.44 2813.46,-115.12 2803.93,-110.49 2803.12,-117.44"/>
</g>
<!-- Node28 -->
<g id="node28" class="node">
<title>Node28</title>
<g id="a_node28"><a xlink:href="../../d0/da5/btbookshelflanguagespage_8cpp.html" target="_top" xlink:title=" ">
<polygon fill="white" stroke="black" points="2502,-56.5 2502,-75.5 2670,-75.5 2670,-56.5 2502,-56.5"/>
<text text-anchor="middle" x="2586" y="-63.5" font-family="Helvetica,sans-Serif" font-size="10.00">btbookshelflanguagespage.cpp</text>
</a>
</g>
</g>
<!-- Node3&#45;&gt;Node28 -->
<g id="edge30" class="edge">
<title>Node3&#45;&gt;Node28</title>
<path fill="none" stroke="midnightblue" d="M2809.81,-110.47C2757.27,-100.27 2678.56,-84.98 2629.84,-75.52"/>
<polygon fill="midnightblue" stroke="midnightblue" points="2809.47,-113.97 2819.95,-112.44 2810.8,-107.1 2809.47,-113.97"/>
</g>
<!-- Node29 -->
<g id="node29" class="node">
<title>Node29</title>
<g id="a_node29"><a xlink:href="../../d0/da0/btbookshelfremovefinalpage_8cpp.html" target="_top" xlink:title=" ">
<polygon fill="white" stroke="black" points="2687.5,-56.5 2687.5,-75.5 2864.5,-75.5 2864.5,-56.5 2687.5,-56.5"/>
<text text-anchor="middle" x="2776" y="-63.5" font-family="Helvetica,sans-Serif" font-size="10.00">btbookshelfremovefinalpage.cpp</text>
</a>
</g>
</g>
<!-- Node3&#45;&gt;Node29 -->
<g id="edge31" class="edge">
<title>Node3&#45;&gt;Node29</title>
<path fill="none" stroke="midnightblue" d="M2841.02,-106.9C2824.89,-97 2803.82,-84.07 2790.1,-75.65"/>
<polygon fill="midnightblue" stroke="midnightblue" points="2839.51,-110.08 2849.86,-112.32 2843.17,-104.11 2839.51,-110.08"/>
</g>
<!-- Node30 -->
<g id="node30" class="node">
<title>Node30</title>
<g id="a_node30"><a xlink:href="../../de/db2/btbookshelftaskpage_8cpp.html" target="_top" xlink:title=" ">
<polygon fill="white" stroke="black" points="2882.5,-56.5 2882.5,-75.5 3021.5,-75.5 3021.5,-56.5 2882.5,-56.5"/>
<text text-anchor="middle" x="2952" y="-63.5" font-family="Helvetica,sans-Serif" font-size="10.00">btbookshelftaskpage.cpp</text>
</a>
</g>
</g>
<!-- Node3&#45;&gt;Node30 -->
<g id="edge32" class="edge">
<title>Node3&#45;&gt;Node30</title>
<path fill="none" stroke="midnightblue" d="M2886.98,-106.9C2903.11,-97 2924.18,-84.07 2937.9,-75.65"/>
<polygon fill="midnightblue" stroke="midnightblue" points="2884.83,-104.11 2878.14,-112.32 2888.49,-110.08 2884.83,-104.11"/>
</g>
<!-- Node31 -->
<g id="node31" class="node">
<title>Node31</title>
<g id="a_node31"><a xlink:href="../../d9/d03/btbookshelfworkspage_8cpp.html" target="_top" xlink:title=" ">
<polygon fill="white" stroke="black" points="3082.5,-0.5 3082.5,-19.5 3229.5,-19.5 3229.5,-0.5 3082.5,-0.5"/>
<text text-anchor="middle" x="3156" y="-7.5" font-family="Helvetica,sans-Serif" font-size="10.00">btbookshelfworkspage.cpp</text>
</a>
</g>
</g>
<!-- Node3&#45;&gt;Node31 -->
<g id="edge33" class="edge">
<title>Node3&#45;&gt;Node31</title>
<path fill="none" stroke="midnightblue" d="M2924.64,-121.55C3008.13,-120.87 3151.94,-114.01 3185,-76 3199.76,-59.03 3178.87,-33.34 3165.57,-19.9"/>
<polygon fill="midnightblue" stroke="midnightblue" points="2924.5,-118.05 2914.52,-121.61 2924.54,-125.05 2924.5,-118.05"/>
</g>
<!-- Node32 -->
<g id="node32" class="node">
<title>Node32</title>
<g id="a_node32"><a xlink:href="../../d6/d8d/btbookshelfworkspage_8h.html" target="_top" xlink:title=" ">
<polygon fill="white" stroke="red" points="3040,-56.5 3040,-75.5 3176,-75.5 3176,-56.5 3040,-56.5"/>
<text text-anchor="middle" x="3108" y="-63.5" font-family="Helvetica,sans-Serif" font-size="10.00">btbookshelfworkspage.h</text>
</a>
</g>
</g>
<!-- Node3&#45;&gt;Node32 -->
<g id="edge34" class="edge">
<title>Node3&#45;&gt;Node32</title>
<path fill="none" stroke="midnightblue" d="M2912.43,-110.28C2958.54,-100.08 3027.03,-84.92 3069.52,-75.52"/>
<polygon fill="midnightblue" stroke="midnightblue" points="2911.67,-106.87 2902.66,-112.44 2913.18,-113.7 2911.67,-106.87"/>
</g>
<!-- Node34 -->
<g id="node33" class="node">
<title>Node34</title>
<g id="a_node33"><a xlink:href="../../dd/dba/btinstallpagemodel_8cpp.html" target="_top" xlink:title=" ">
<polygon fill="white" stroke="black" points="3232.5,-56.5 3232.5,-75.5 3363.5,-75.5 3363.5,-56.5 3232.5,-56.5"/>
<text text-anchor="middle" x="3298" y="-63.5" font-family="Helvetica,sans-Serif" font-size="10.00">btinstallpagemodel.cpp</text>
</a>
</g>
</g>
<!-- Node3&#45;&gt;Node34 -->
<g id="edge36" class="edge">
<title>Node3&#45;&gt;Node34</title>
<path fill="none" stroke="midnightblue" d="M2924.68,-113.45C3005.68,-103.37 3148.6,-85.59 3232.14,-75.19"/>
<polygon fill="midnightblue" stroke="midnightblue" points="2924.13,-109.99 2914.63,-114.7 2924.99,-116.94 2924.13,-109.99"/>
</g>
<!-- Node35 -->
<g id="node34" class="node">
<title>Node35</title>
<g id="a_node34"><a xlink:href="../../df/d88/btbookshelfdockwidget_8cpp.html" target="_top" xlink:title=" ">
<polygon fill="white" stroke="black" points="3381.5,-56.5 3381.5,-75.5 3532.5,-75.5 3532.5,-56.5 3381.5,-56.5"/>
<text text-anchor="middle" x="3457" y="-63.5" font-family="Helvetica,sans-Serif" font-size="10.00">btbookshelfdockwidget.cpp</text>
</a>
</g>
</g>
<!-- Node3&#45;&gt;Node35 -->
<g id="edge37" class="edge">
<title>Node3&#45;&gt;Node35</title>
<path fill="none" stroke="midnightblue" d="M2924.65,-116C3020.08,-108.06 3211.14,-91.82 3373,-76 3375.77,-75.73 3378.6,-75.45 3381.45,-75.16"/>
<polygon fill="midnightblue" stroke="midnightblue" points="2924.28,-112.52 2914.6,-116.84 2924.86,-119.5 2924.28,-112.52"/>
</g>
<!-- Node36 -->
<g id="node35" class="node">
<title>Node36</title>
<g id="a_node35"><a xlink:href="../../d9/d62/btopenworkaction_8cpp.html" target="_top" xlink:title=" ">
<polygon fill="white" stroke="black" points="3551,-56.5 3551,-75.5 3675,-75.5 3675,-56.5 3551,-56.5"/>
<text text-anchor="middle" x="3613" y="-63.5" font-family="Helvetica,sans-Serif" font-size="10.00">btopenworkaction.cpp</text>
</a>
</g>
</g>
<!-- Node3&#45;&gt;Node36 -->
<g id="edge38" class="edge">
<title>Node3&#45;&gt;Node36</title>
<path fill="none" stroke="midnightblue" d="M2925.04,-118.18C3043.94,-112.4 3314.89,-97.91 3542,-76 3544.84,-75.73 3547.75,-75.43 3550.69,-75.11"/>
<polygon fill="midnightblue" stroke="midnightblue" points="2924.51,-114.7 2914.69,-118.67 2924.85,-121.69 2924.51,-114.7"/>
</g>
<!-- Node37 -->
<g id="node36" class="node">
<title>Node37</title>
<g id="a_node36"><a xlink:href="../../d4/d3a/bttextbrowser_8cpp.html" target="_top" xlink:title=" ">
<polygon fill="white" stroke="black" points="3693,-56.5 3693,-75.5 3797,-75.5 3797,-56.5 3693,-56.5"/>
<text text-anchor="middle" x="3745" y="-63.5" font-family="Helvetica,sans-Serif" font-size="10.00">bttextbrowser.cpp</text>
</a>
</g>
</g>
<!-- Node3&#45;&gt;Node37 -->
<g id="edge39" class="edge">
<title>Node3&#45;&gt;Node37</title>
<path fill="none" stroke="midnightblue" d="M2924.74,-119.57C3060.92,-115.95 3400.93,-104.59 3684,-76 3686.88,-75.71 3689.82,-75.38 3692.8,-75.02"/>
<polygon fill="midnightblue" stroke="midnightblue" points="2924.42,-116.08 2914.51,-119.84 2924.6,-123.08 2924.42,-116.08"/>
</g>
<!-- Node38 -->
<g id="node37" class="node">
<title>Node38</title>
<g id="a_node37"><a xlink:href="../../de/db2/btmodelviewreaddisplay_8cpp.html" target="_top" xlink:title=" ">
<polygon fill="white" stroke="black" points="3815,-56.5 3815,-75.5 3971,-75.5 3971,-56.5 3815,-56.5"/>
<text text-anchor="middle" x="3893" y="-63.5" font-family="Helvetica,sans-Serif" font-size="10.00">btmodelviewreaddisplay.cpp</text>
</a>
</g>
</g>
<!-- Node3&#45;&gt;Node38 -->
<g id="edge40" class="edge">
<title>Node3&#45;&gt;Node38</title>
<path fill="none" stroke="midnightblue" d="M2924.97,-119.26C3074.99,-114.71 3473.97,-101.09 3806,-76 3808.88,-75.78 3811.81,-75.55 3814.76,-75.3"/>
<polygon fill="midnightblue" stroke="midnightblue" points="2924.5,-115.77 2914.61,-119.57 2924.71,-122.77 2924.5,-115.77"/>
</g>
<!-- Node39 -->
<g id="node38" class="node">
<title>Node39</title>
<g id="a_node38"><a xlink:href="../../de/d6e/btqmlinterface_8cpp.html" target="_top" xlink:title=" ">
<polygon fill="white" stroke="black" points="3989.5,-56.5 3989.5,-75.5 4098.5,-75.5 4098.5,-56.5 3989.5,-56.5"/>
<text text-anchor="middle" x="4044" y="-63.5" font-family="Helvetica,sans-Serif" font-size="10.00">btqmlinterface.cpp</text>
</a>
</g>
</g>
<!-- Node3&#45;&gt;Node39 -->
<g id="edge41" class="edge">
<title>Node3&#45;&gt;Node39</title>
<path fill="none" stroke="midnightblue" d="M2924.87,-120.67C3093.11,-119.29 3578.5,-112.23 3980,-76 3983.02,-75.73 3986.11,-75.41 3989.23,-75.07"/>
<polygon fill="midnightblue" stroke="midnightblue" points="2924.7,-117.17 2914.73,-120.75 2924.75,-124.17 2924.7,-117.17"/>
</g>
<!-- Node40 -->
<g id="node39" class="node">
<title>Node40</title>
<g id="a_node39"><a xlink:href="../../d9/d0c/btquickwidget_8cpp.html" target="_top" xlink:title=" ">
<polygon fill="white" stroke="black" points="4117,-56.5 4117,-75.5 4223,-75.5 4223,-56.5 4117,-56.5"/>
<text text-anchor="middle" x="4170" y="-63.5" font-family="Helvetica,sans-Serif" font-size="10.00">btquickwidget.cpp</text>
</a>
</g>
</g>
<!-- Node3&#45;&gt;Node40 -->
<g id="edge42" class="edge">
<title>Node3&#45;&gt;Node40</title>
<path fill="none" stroke="midnightblue" d="M2924.89,-121.12C3105.66,-120.99 3654.85,-116.97 4108,-76 4110.92,-75.74 4113.92,-75.43 4116.94,-75.09"/>
<polygon fill="midnightblue" stroke="midnightblue" points="2924.78,-117.62 2914.78,-121.13 2924.78,-124.62 2924.78,-117.62"/>
</g>
<!-- Node41 -->
<g id="node40" class="node">
<title>Node41</title>
<g id="a_node40"><a xlink:href="../../dd/ddc/btmodulechoosermenu_8cpp.html" target="_top" xlink:title=" ">
<polygon fill="white" stroke="black" points="4241.5,-56.5 4241.5,-75.5 4390.5,-75.5 4390.5,-56.5 4241.5,-56.5"/>
<text text-anchor="middle" x="4316" y="-63.5" font-family="Helvetica,sans-Serif" font-size="10.00">btmodulechoosermenu.cpp</text>
</a>
</g>
</g>
<!-- Node3&#45;&gt;Node41 -->
<g id="edge43" class="edge">
<title>Node3&#45;&gt;Node41</title>
<path fill="none" stroke="midnightblue" d="M2924.87,-120.6C3117,-118.99 3727.77,-111.26 4232,-76 4235.07,-75.79 4238.21,-75.55 4241.37,-75.29"/>
<polygon fill="midnightblue" stroke="midnightblue" points="2924.66,-117.1 2914.69,-120.68 2924.72,-124.1 2924.66,-117.1"/>
</g>
<!-- Node42 -->
<g id="node41" class="node">
<title>Node42</title>
<g id="a_node41"><a xlink:href="../../de/da4/cbiblereadwindow_8cpp.html" target="_top" xlink:title=" ">
<polygon fill="white" stroke="black" points="4408.5,-56.5 4408.5,-75.5 4533.5,-75.5 4533.5,-56.5 4408.5,-56.5"/>
<text text-anchor="middle" x="4471" y="-63.5" font-family="Helvetica,sans-Serif" font-size="10.00">cbiblereadwindow.cpp</text>
</a>
</g>
</g>
<!-- Node3&#45;&gt;Node42 -->
<g id="edge44" class="edge">
<title>Node3&#45;&gt;Node42</title>
<path fill="none" stroke="midnightblue" d="M2924.87,-121.33C3131.87,-122 3827.51,-120.57 4400,-76 4402.73,-75.79 4405.51,-75.55 4408.31,-75.28"/>
<polygon fill="midnightblue" stroke="midnightblue" points="2924.82,-117.83 2914.81,-121.29 2924.8,-124.83 2924.82,-117.83"/>
</g>
<!-- Node43 -->
<g id="node42" class="node">
<title>Node43</title>
<g id="a_node42"><a xlink:href="../../d0/d6f/ccommentaryreadwindow_8cpp.html" target="_top" xlink:title=" ">
<polygon fill="white" stroke="black" points="4551.5,-56.5 4551.5,-75.5 4714.5,-75.5 4714.5,-56.5 4551.5,-56.5"/>
<text text-anchor="middle" x="4633" y="-63.5" font-family="Helvetica,sans-Serif" font-size="10.00">ccommentaryreadwindow.cpp</text>
</a>
</g>
</g>
<!-- Node3&#45;&gt;Node43 -->
<g id="edge45" class="edge">
<title>Node3&#45;&gt;Node43</title>
<path fill="none" stroke="midnightblue" d="M2924.85,-120.97C3143.7,-120.52 3911.29,-116 4543,-76 4545.66,-75.83 4548.37,-75.65 4551.1,-75.45"/>
<polygon fill="midnightblue" stroke="midnightblue" points="2924.53,-117.47 2914.54,-120.99 2924.55,-124.47 2924.53,-117.47"/>
</g>
<!-- Node44 -->
<g id="node43" class="node">
<title>Node44</title>
<g id="a_node43"><a xlink:href="../../d2/d26/cdisplaywindow_8cpp.html" target="_top" xlink:title=" ">
<polygon fill="white" stroke="black" points="4733,-56.5 4733,-75.5 4847,-75.5 4847,-56.5 4733,-56.5"/>
<text text-anchor="middle" x="4790" y="-63.5" font-family="Helvetica,sans-Serif" font-size="10.00">cdisplaywindow.cpp</text>
</a>
</g>
</g>
<!-- Node3&#45;&gt;Node44 -->
<g id="edge46" class="edge">
<title>Node3&#45;&gt;Node44</title>
<path fill="none" stroke="midnightblue" d="M2925.18,-120.44C3204.75,-117.72 4362.59,-104.92 4724,-76 4726.88,-75.77 4729.83,-75.5 4732.8,-75.2"/>
<polygon fill="midnightblue" stroke="midnightblue" points="2924.8,-116.94 2914.84,-120.54 2924.87,-123.94 2924.8,-116.94"/>
</g>
<!-- Node45 -->
<g id="node44" class="node">
<title>Node45</title>
<g id="a_node44"><a xlink:href="../../d4/d57/btindexdialog_8cpp.html" target="_top" xlink:title=" ">
<polygon fill="white" stroke="black" points="4865,-56.5 4865,-75.5 4969,-75.5 4969,-56.5 4865,-56.5"/>
<text text-anchor="middle" x="4917" y="-63.5" font-family="Helvetica,sans-Serif" font-size="10.00">btindexdialog.cpp</text>
</a>
</g>
</g>
<!-- Node3&#45;&gt;Node45 -->
<g id="edge48" class="edge">
<title>Node3&#45;&gt;Node45</title>
<path fill="none" stroke="midnightblue" d="M2925.2,-120.64C3216.81,-118.77 4467.22,-108.94 4856,-76 4858.88,-75.76 4861.83,-75.46 4864.81,-75.13"/>
<polygon fill="midnightblue" stroke="midnightblue" points="2924.81,-117.14 2914.83,-120.71 2924.85,-124.14 2924.81,-117.14"/>
</g>
<!-- Node46 -->
<g id="node45" class="node">
<title>Node46</title>
<g id="a_node45"><a xlink:href="../../dc/dab/btsearchmodulechooserdialog_8cpp.html" target="_top" xlink:title=" ">
<polygon fill="white" stroke="black" points="4987,-56.5 4987,-75.5 5171,-75.5 5171,-56.5 4987,-56.5"/>
<text text-anchor="middle" x="5079" y="-63.5" font-family="Helvetica,sans-Serif" font-size="10.00">btsearchmodulechooserdialog.cpp</text>
</a>
</g>
</g>
<!-- Node3&#45;&gt;Node46 -->
<g id="edge49" class="edge">
<title>Node3&#45;&gt;Node46</title>
<path fill="none" stroke="midnightblue" d="M2924.83,-121.21C3177.19,-121.75 4166.37,-120.75 4978,-76 4980.9,-75.84 4983.85,-75.66 4986.82,-75.47"/>
<polygon fill="midnightblue" stroke="midnightblue" points="2924.78,-117.71 2914.77,-121.18 2924.76,-124.71 2924.78,-117.71"/>
</g>
<!-- Node47 -->
<g id="node46" class="node">
<title>Node47</title>
<g id="a_node46"><a xlink:href="../../d4/d4d/btsearchoptionsarea_8cpp.html" target="_top" xlink:title=" ">
<polygon fill="white" stroke="black" points="5189.5,-56.5 5189.5,-75.5 5326.5,-75.5 5326.5,-56.5 5189.5,-56.5"/>
<text text-anchor="middle" x="5258" y="-63.5" font-family="Helvetica,sans-Serif" font-size="10.00">btsearchoptionsarea.cpp</text>
</a>
</g>
</g>
<!-- Node3&#45;&gt;Node47 -->
<g id="edge50" class="edge">
<title>Node3&#45;&gt;Node47</title>
<path fill="none" stroke="midnightblue" d="M2925.01,-120.6C3244.01,-118.42 4722.75,-106.75 5180,-76 5182.99,-75.8 5186.05,-75.57 5189.13,-75.31"/>
<polygon fill="midnightblue" stroke="midnightblue" points="2924.57,-117.11 2914.6,-120.68 2924.62,-124.11 2924.57,-117.11"/>
</g>
<!-- Node48 -->
<g id="node47" class="node">
<title>Node48</title>
<g id="a_node47"><a xlink:href="../../d7/d5d/cmoduleresultview_8cpp.html" target="_top" xlink:title=" ">
<polygon fill="white" stroke="black" points="5344.5,-56.5 5344.5,-75.5 5473.5,-75.5 5473.5,-56.5 5344.5,-56.5"/>
<text text-anchor="middle" x="5409" y="-63.5" font-family="Helvetica,sans-Serif" font-size="10.00">cmoduleresultview.cpp</text>
</a>
</g>
</g>
<!-- Node3&#45;&gt;Node48 -->
<g id="edge51" class="edge">
<title>Node3&#45;&gt;Node48</title>
<path fill="none" stroke="midnightblue" d="M2925.35,-120.75C3257.78,-119.29 4846.24,-110.55 5336,-76 5338.67,-75.81 5341.4,-75.59 5344.16,-75.35"/>
<polygon fill="midnightblue" stroke="midnightblue" points="2924.95,-117.26 2914.97,-120.8 2924.98,-124.26 2924.95,-117.26"/>
</g>
<!-- Node49 -->
<g id="node48" class="node">
<title>Node49</title>
<g id="a_node48"><a xlink:href="../../d2/d9d/crangechooserdialog_8cpp.html" target="_top" xlink:title=" ">
<polygon fill="white" stroke="black" points="5492,-56.5 5492,-75.5 5630,-75.5 5630,-56.5 5492,-56.5"/>
<text text-anchor="middle" x="5561" y="-63.5" font-family="Helvetica,sans-Serif" font-size="10.00">crangechooserdialog.cpp</text>
</a>
</g>
</g>
<!-- Node3&#45;&gt;Node49 -->
<g id="edge52" class="edge">
<title>Node3&#45;&gt;Node49</title>
<path fill="none" stroke="midnightblue" d="M2924.82,-120.76C3267.65,-119.31 4961.89,-110.46 5483,-76 5485.86,-75.81 5488.77,-75.59 5491.71,-75.35"/>
<polygon fill="midnightblue" stroke="midnightblue" points="2924.59,-117.26 2914.6,-120.81 2924.62,-124.26 2924.59,-117.26"/>
</g>
<!-- Node50 -->
<g id="node49" class="node">
<title>Node50</title>
<g id="a_node49"><a xlink:href="../../d5/d72/btfontsettings_8cpp.html" target="_top" xlink:title=" ">
<polygon fill="white" stroke="black" points="5648.5,-56.5 5648.5,-75.5 5753.5,-75.5 5753.5,-56.5 5648.5,-56.5"/>
<text text-anchor="middle" x="5701" y="-63.5" font-family="Helvetica,sans-Serif" font-size="10.00">btfontsettings.cpp</text>
</a>
</g>
</g>
<!-- Node3&#45;&gt;Node50 -->
<g id="edge53" class="edge">
<title>Node3&#45;&gt;Node50</title>
<path fill="none" stroke="midnightblue" d="M2924.75,-121.07C3279.38,-121.34 5085.53,-120.48 5639,-76 5642.04,-75.76 5645.15,-75.46 5648.29,-75.12"/>
<polygon fill="midnightblue" stroke="midnightblue" points="2924.68,-117.57 2914.68,-121.07 2924.68,-124.57 2924.68,-117.57"/>
</g>
<!-- Node51 -->
<g id="node50" class="node">
<title>Node51</title>
<g id="a_node50"><a xlink:href="../../d6/dfe/btstandardworkstab_8cpp.html" target="_top" xlink:title=" ">
<polygon fill="white" stroke="black" points="5772,-56.5 5772,-75.5 5906,-75.5 5906,-56.5 5772,-56.5"/>
<text text-anchor="middle" x="5839" y="-63.5" font-family="Helvetica,sans-Serif" font-size="10.00">btstandardworkstab.cpp</text>
</a>
</g>
</g>
<!-- Node3&#45;&gt;Node51 -->
<g id="edge54" class="edge">
<title>Node3&#45;&gt;Node51</title>
<path fill="none" stroke="midnightblue" d="M2924.81,-120.91C3288.79,-120.21 5182.84,-114.75 5763,-76 5765.92,-75.81 5768.89,-75.58 5771.9,-75.32"/>
<polygon fill="midnightblue" stroke="midnightblue" points="2924.73,-117.41 2914.74,-120.92 2924.74,-124.41 2924.73,-117.41"/>
</g>
<!-- Node23&#45;&gt;Node20 -->
<g id="edge24" class="edge">
<title>Node23&#45;&gt;Node20</title>
<path fill="none" stroke="midnightblue" d="M1908.26,-53.57C1873.74,-43.38 1823.99,-28.7 1792.86,-19.52"/>
<polygon fill="midnightblue" stroke="midnightblue" points="1907.42,-56.97 1918,-56.44 1909.4,-50.26 1907.42,-56.97"/>
</g>
<!-- Node23&#45;&gt;Node22 -->
<g id="edge26" class="edge">
<title>Node23&#45;&gt;Node22</title>
<path fill="none" stroke="midnightblue" d="M1926.86,-50.1C1913.72,-40.38 1897.02,-28.03 1885.94,-19.83"/>
<polygon fill="midnightblue" stroke="midnightblue" points="1925.15,-53.19 1935.27,-56.32 1929.31,-47.56 1925.15,-53.19"/>
</g>
<!-- Node24 -->
<g id="node24" class="node">
<title>Node24</title>
<g id="a_node24"><a xlink:href="../../da/dc7/bibletime__init_8cpp.html" target="_top" xlink:title=" ">
<polygon fill="white" stroke="black" points="1943,-0.5 1943,-19.5 2047,-19.5 2047,-0.5 1943,-0.5"/>
<text text-anchor="middle" x="1995" y="-7.5" font-family="Helvetica,sans-Serif" font-size="10.00">bibletime_init.cpp</text>
</a>
</g>
</g>
<!-- Node23&#45;&gt;Node24 -->
<g id="edge25" class="edge">
<title>Node23&#45;&gt;Node24</title>
<path fill="none" stroke="midnightblue" d="M1961.73,-48.43C1970.14,-38.97 1980.35,-27.48 1987.22,-19.75"/>
<polygon fill="midnightblue" stroke="midnightblue" points="1958.95,-46.28 1954.93,-56.08 1964.19,-50.93 1958.95,-46.28"/>
</g>
<!-- Node23&#45;&gt;Node25 -->
<g id="edge27" class="edge">
<title>Node23&#45;&gt;Node25</title>
<path fill="none" stroke="midnightblue" d="M1980.37,-52.91C2008.38,-42.75 2047.7,-28.51 2072.5,-19.52"/>
<polygon fill="midnightblue" stroke="midnightblue" points="1978.82,-49.75 1970.61,-56.44 1981.2,-56.33 1978.82,-49.75"/>
</g>
<!-- Node32&#45;&gt;Node31 -->
<g id="edge35" class="edge">
<title>Node32&#45;&gt;Node31</title>
<path fill="none" stroke="midnightblue" d="M3122.73,-48.43C3131.14,-38.97 3141.35,-27.48 3148.22,-19.75"/>
<polygon fill="midnightblue" stroke="midnightblue" points="3119.95,-46.28 3115.93,-56.08 3125.19,-50.93 3119.95,-46.28"/>
</g>
</g>
</svg>
        <g id="navigator" transform="translate(0 0)" fill="#404254">
                <rect fill="#f2f5e9" fill-opacity="0.5" stroke="#606060" stroke-width=".5" x="0" y="0" width="60" height="60"/>
                <use id="zoomplus" xlink:href="#zoomPlus" x="17" y="9" onmousedown="handleZoom(evt,'in')"/>
                <use id="zoomminus" xlink:href="#zoomMin" x="42" y="9" onmousedown="handleZoom(evt,'out')"/>
                <use id="reset" xlink:href="#resetDef" x="30" y="36" onmousedown="handleReset()"/>
                <g id="arrowUp" xlink:href="#dirArrow" transform="translate(30 24)" onmousedown="handlePan(0,-1)">
                  <use xlink:href="#rim" fill="#404040">
                        <set attributeName="fill" to="#808080" begin="arrowUp.mouseover" end="arrowUp.mouseout"/>
                  </use>
                  <path fill="none" stroke="white" stroke-width="1.5" d="M0,-3.0v7 M-2.5,-0.5L0,-3.0L2.5,-0.5"/>
                </g>
                <g id="arrowRight" xlink:href="#dirArrow" transform="rotate(90) translate(36 -43)" onmousedown="handlePan(1,0)">
                  <use xlink:href="#rim" fill="#404040">
                        <set attributeName="fill" to="#808080" begin="arrowRight.mouseover" end="arrowRight.mouseout"/>
                  </use>
                  <path fill="none" stroke="white" stroke-width="1.5" d="M0,-3.0v7 M-2.5,-0.5L0,-3.0L2.5,-0.5"/>
                </g>
                <g id="arrowDown" xlink:href="#dirArrow" transform="rotate(180) translate(-30 -48)" onmousedown="handlePan(0,1)">
                  <use xlink:href="#rim" fill="#404040">
                        <set attributeName="fill" to="#808080" begin="arrowDown.mouseover" end="arrowDown.mouseout"/>
                  </use>
                  <path fill="none" stroke="white" stroke-width="1.5" d="M0,-3.0v7 M-2.5,-0.5L0,-3.0L2.5,-0.5"/>
                </g>
                <g id="arrowLeft" xlink:href="#dirArrow" transform="rotate(270) translate(-36 17)" onmousedown="handlePan(-1,0)">
                  <use xlink:href="#rim" fill="#404040">
                        <set attributeName="fill" to="#808080" begin="arrowLeft.mouseover" end="arrowLeft.mouseout"/>
                  </use>
                  <path fill="none" stroke="white" stroke-width="1.5" d="M0,-3.0v7 M-2.5,-0.5L0,-3.0L2.5,-0.5"/>
                </g>
        </g>
        <svg viewBox="0 0 15 15" width="100%" height="30px" preserveAspectRatio="xMaxYMin meet">
         <g id="arrow_out" transform="scale(0.3 0.3)">
          <a xlink:href="teitohtml_8h__dep__incl_org.svg" target="_base">
           <rect id="button" ry="5" rx="5" y="6" x="6" height="38" width="38"
                fill="#f2f5e9" fill-opacity="0.5" stroke="#606060" stroke-width="1.0"/>
           <path id="arrow"
             d="M 11.500037,31.436501 C 11.940474,20.09759 22.043105,11.32322 32.158766,21.979434 L 37.068811,17.246167 C 37.068811,17.246167 37.088388,32 37.088388,32 L 22.160133,31.978069 C 22.160133,31.978069 26.997745,27.140456 26.997745,27.140456 C 18.528582,18.264221 13.291696,25.230495 11.500037,31.436501 z"
             style="fill:#404040;"/>
          </a>
         </g>
        </svg>
</svg>
