<?xml version="1.0" encoding="UTF-8" standalone="no"?>
<!DOCTYPE svg PUBLIC "-//W3C//DTD SVG 1.1//EN"
 "http://www.w3.org/Graphics/SVG/1.1/DTD/svg11.dtd">
<!-- Generated by graphviz version 2.43.0 (0)
 -->
<!-- Title: btbookshelffiltermodel.h Pages: 1 -->
<svg width="609pt" height="82pt"
 viewBox="0.00 0.00 609.00 82.00" xmlns="http://www.w3.org/2000/svg" xmlns:xlink="http://www.w3.org/1999/xlink">
<g id="graph0" class="graph" transform="scale(1 1) rotate(0) translate(4 78)">
<title>btbookshelffiltermodel.h</title>
<!-- Node1 -->
<g id="Node000001" class="node">
<title>Node1</title>
<g id="a_Node000001"><a xlink:title=" ">
<polygon fill="#999999" stroke="#666666" points="375.5,-74 238.5,-74 238.5,-55 375.5,-55 375.5,-74"/>
<text text-anchor="middle" x="307" y="-62" font-family="Helvetica,sans-Serif" font-size="10.00">btbookshelffiltermodel.h</text>
</a>
</g>
</g>
<!-- Node2 -->
<g id="Node000002" class="node">
<title>Node2</title>
<g id="a_Node000002"><a xlink:href="../../d4/d3e/btbookshelffiltermodel_8cpp.html" target="_top" xlink:title=" ">
<polygon fill="white" stroke="#666666" points="148,-19 0,-19 0,0 148,0 148,-19"/>
<text text-anchor="middle" x="74" y="-7" font-family="Helvetica,sans-Serif" font-size="10.00">btbookshelffiltermodel.cpp</text>
</a>
</g>
</g>
<!-- Node1&#45;&gt;Node2 -->
<g id="edge1_Node000001_Node000002" class="edge">
<title>Node1&#45;&gt;Node2</title>
<g id="a_edge1_Node000001_Node000002"><a xlink:title=" ">
<path fill="none" stroke="#63b8ff" d="M259.75,-52.75C216.09,-42.82 152.06,-28.26 111.73,-19.08"/>
<polygon fill="#63b8ff" stroke="#63b8ff" points="259.04,-56.18 269.56,-54.98 260.59,-49.35 259.04,-56.18"/>
</a>
</g>
</g>
<!-- Node3 -->
<g id="Node000003" class="node">
<title>Node3</title>
<g id="a_Node000003"><a xlink:href="../../d9/d70/btbookshelfwidget_8cpp.html" target="_top" xlink:title=" ">
<polygon fill="white" stroke="#666666" points="293.5,-19 166.5,-19 166.5,0 293.5,0 293.5,-19"/>
<text text-anchor="middle" x="230" y="-7" font-family="Helvetica,sans-Serif" font-size="10.00">btbookshelfwidget.cpp</text>
</a>
</g>
</g>
<!-- Node1&#45;&gt;Node3 -->
<g id="edge2_Node000001_Node000003" class="edge">
<title>Node1&#45;&gt;Node3</title>
<g id="a_edge2_Node000001_Node000003"><a xlink:title=" ">
<path fill="none" stroke="#63b8ff" d="M286.15,-49.15C272.24,-39.57 254.39,-27.29 242.6,-19.17"/>
<polygon fill="#63b8ff" stroke="#63b8ff" points="284.41,-52.2 294.63,-54.98 288.38,-46.43 284.41,-52.2"/>
</a>
</g>
</g>
<!-- Node4 -->
<g id="Node000004" class="node">
<title>Node4</title>
<g id="a_Node000004"><a xlink:href="../../d9/d03/btbookshelfworkspage_8cpp.html" target="_top" xlink:title=" ">
<polygon fill="white" stroke="#666666" points="458.5,-19 311.5,-19 311.5,0 458.5,0 458.5,-19"/>
<text text-anchor="middle" x="385" y="-7" font-family="Helvetica,sans-Serif" font-size="10.00">btbookshelfworkspage.cpp</text>
</a>
</g>
</g>
<!-- Node1&#45;&gt;Node4 -->
<g id="edge3_Node000001_Node000004" class="edge">
<title>Node1&#45;&gt;Node4</title>
<g id="a_edge3_Node000001_Node000004"><a xlink:title=" ">
<path fill="none" stroke="#63b8ff" d="M328.12,-49.15C342.21,-39.57 360.29,-27.29 372.24,-19.17"/>
<polygon fill="#63b8ff" stroke="#63b8ff" points="325.84,-46.47 319.53,-54.98 329.77,-52.26 325.84,-46.47"/>
</a>
</g>
</g>
<!-- Node5 -->
<g id="Node000005" class="node">
<title>Node5</title>
<g id="a_Node000005"><a xlink:href="../../d9/d62/btopenworkaction_8cpp.html" target="_top" xlink:title=" ">
<polygon fill="white" stroke="#666666" points="601,-19 477,-19 477,0 601,0 601,-19"/>
<text text-anchor="middle" x="539" y="-7" font-family="Helvetica,sans-Serif" font-size="10.00">btopenworkaction.cpp</text>
</a>
</g>
</g>
<!-- Node1&#45;&gt;Node5 -->
<g id="edge4_Node000001_Node000005" class="edge">
<title>Node1&#45;&gt;Node5</title>
<g id="a_edge4_Node000001_Node000005"><a xlink:title=" ">
<path fill="none" stroke="#63b8ff" d="M354.04,-52.75C397.52,-42.82 461.27,-28.26 501.43,-19.08"/>
<polygon fill="#63b8ff" stroke="#63b8ff" points="353.24,-49.35 344.27,-54.98 354.8,-56.17 353.24,-49.35"/>
</a>
</g>
</g>
</g>
</svg>
