<?xml version="1.0" encoding="UTF-8" standalone="no"?>
<!DOCTYPE svg PUBLIC "-//W3C//DTD SVG 1.1//EN"
 "http://www.w3.org/Graphics/SVG/1.1/DTD/svg11.dtd">
<!-- Generated by graphviz version 2.43.0 (0)
 -->
<!-- Title: CCommentaryReadWindow Pages: 1 -->
<!--zoomable 1187 -->

<svg id="main" version="1.1" xmlns="http://www.w3.org/2000/svg" xmlns:xlink="http://www.w3.org/1999/xlink" xml:space="preserve" onload="init(evt)">
<style type="text/css"><![CDATA[
.node, .edge {opacity: 0.7;}
.node.selected, .edge.selected {opacity: 1;}
.edge:hover path { stroke: red; }
.edge:hover polygon { stroke: red; fill: red; }
]]></style>

<defs>
  <circle id="rim" cx="0" cy="0" r="7"/>
  <circle id="rim2" cx="0" cy="0" r="3.5"/>
  <g id="zoomPlus">
    <use xlink:href="#rim" fill="#404040"><set attributeName="fill" to="#808080" begin="zoomplus.mouseover" end="zoomplus.mouseout"/></use>
    <path d="M-4,0h8M0,-4v8" fill="none" stroke="white" stroke-width="1.5" pointer-events="none"/>
  </g>
  <g id="zoomMin">
    <use xlink:href="#rim" fill="#404040"><set attributeName="fill" to="#808080" begin="zoomminus.mouseover" end="zoomminus.mouseout"/></use>
    <path d="M-4,0h8" fill="none" stroke="white" stroke-width="1.5" pointer-events="none"/>
  </g>
  <g id="arrowUp" transform="translate(30 24)">
    <use xlink:href="#rim"/>
    <path pointer-events="none" fill="none" stroke="white" stroke-width="1.5" d="M0,-3.0v7 M-2.5,-0.5L0,-3.0L2.5,-0.5"/>
  </g>
  <g id="arrowRight" transform="rotate(90) translate(36 -43)">
    <use xlink:href="#rim"/>
    <path pointer-events="none" fill="none" stroke="white" stroke-width="1.5" d="M0,-3.0v7 M-2.5,-0.5L0,-3.0L2.5,-0.5"/>
  </g>
  <g id="arrowDown" transform="rotate(180) translate(-30 -48)">
    <use xlink:href="#rim"/>
    <path pointer-events="none" fill="none" stroke="white" stroke-width="1.5" d="M0,-3.0v7 M-2.5,-0.5L0,-3.0L2.5,-0.5"/>
  </g>
  <g id="arrowLeft" transform="rotate(270) translate(-36 17)">
    <use xlink:href="#rim"/>
    <path pointer-events="none" fill="none" stroke="white" stroke-width="1.5" d="M0,-3.0v7 M-2.5,-0.5L0,-3.0L2.5,-0.5"/>
  </g>
  <g id="resetDef">
    <use xlink:href="#rim2" fill="#404040"><set attributeName="fill" to="#808080" begin="reset.mouseover" end="reset.mouseout"/></use>
  </g>
</defs>
<script type="application/ecmascript">
var viewWidth = 186;
var viewHeight = 1187;
var sectionId = 'dynsection-0';
</script>
<script type="application/ecmascript" xlink:href="../../svg.min.js"/>
<svg id="graph" class="graph">
<g id="viewport">
<title>CCommentaryReadWindow</title>
<!-- Node1 -->
<g id="Node000001" class="node">
<title>Node1</title>
<g id="a_Node000001"><a xlink:title=" ">
<polygon fill="#999999" stroke="transparent" points="170.5,-274 7.5,-274 7.5,0 170.5,0 170.5,-274"/>
<text text-anchor="start" x="22" y="-262" font-family="Helvetica,sans-Serif" font-size="10.00">CCommentaryReadWindow</text>
<text text-anchor="start" x="14.5" y="-247" font-family="Helvetica,sans-Serif" font-size="10.00">&#45;</text>
<text text-anchor="start" x="25" y="-247" font-family="Helvetica,sans-Serif" font-size="10.00">m_syncButton</text>
<text text-anchor="start" x="12" y="-232" font-family="Helvetica,sans-Serif" font-size="10.00">+</text>
<text text-anchor="start" x="25" y="-232" font-family="Helvetica,sans-Serif" font-size="10.00">applyProfileSettings()</text>
<text text-anchor="start" x="12" y="-217" font-family="Helvetica,sans-Serif" font-size="10.00">+</text>
<text text-anchor="start" x="25" y="-217" font-family="Helvetica,sans-Serif" font-size="10.00">CCommentaryReadWindow()</text>
<text text-anchor="start" x="12" y="-202" font-family="Helvetica,sans-Serif" font-size="10.00">+</text>
<text text-anchor="start" x="25" y="-202" font-family="Helvetica,sans-Serif" font-size="10.00">moduleType()</text>
<text text-anchor="start" x="12" y="-187" font-family="Helvetica,sans-Serif" font-size="10.00">+</text>
<text text-anchor="start" x="25" y="-187" font-family="Helvetica,sans-Serif" font-size="10.00">storeProfileSettings()</text>
<text text-anchor="start" x="12" y="-172" font-family="Helvetica,sans-Serif" font-size="10.00">+</text>
<text text-anchor="start" x="25" y="-172" font-family="Helvetica,sans-Serif" font-size="10.00">syncAllowed()</text>
<text text-anchor="start" x="12" y="-157" font-family="Helvetica,sans-Serif" font-size="10.00">+</text>
<text text-anchor="start" x="25" y="-157" font-family="Helvetica,sans-Serif" font-size="10.00">nextBook()</text>
<text text-anchor="start" x="12" y="-142" font-family="Helvetica,sans-Serif" font-size="10.00">+</text>
<text text-anchor="start" x="25" y="-142" font-family="Helvetica,sans-Serif" font-size="10.00">nextChapter()</text>
<text text-anchor="start" x="12" y="-127" font-family="Helvetica,sans-Serif" font-size="10.00">+</text>
<text text-anchor="start" x="25" y="-127" font-family="Helvetica,sans-Serif" font-size="10.00">nextVerse()</text>
<text text-anchor="start" x="12" y="-112" font-family="Helvetica,sans-Serif" font-size="10.00">+</text>
<text text-anchor="start" x="25" y="-112" font-family="Helvetica,sans-Serif" font-size="10.00">previousBook()</text>
<text text-anchor="start" x="12" y="-97" font-family="Helvetica,sans-Serif" font-size="10.00">+</text>
<text text-anchor="start" x="25" y="-97" font-family="Helvetica,sans-Serif" font-size="10.00">previousChapter()</text>
<text text-anchor="start" x="12" y="-82" font-family="Helvetica,sans-Serif" font-size="10.00">+</text>
<text text-anchor="start" x="25" y="-82" font-family="Helvetica,sans-Serif" font-size="10.00">previousVerse()</text>
<text text-anchor="start" x="12" y="-67" font-family="Helvetica,sans-Serif" font-size="10.00">+</text>
<text text-anchor="start" x="25" y="-67" font-family="Helvetica,sans-Serif" font-size="10.00">reload()</text>
<text text-anchor="start" x="12" y="-52" font-family="Helvetica,sans-Serif" font-size="10.00">#</text>
<text text-anchor="start" x="25" y="-52" font-family="Helvetica,sans-Serif" font-size="10.00">initActions()</text>
<text text-anchor="start" x="12" y="-37" font-family="Helvetica,sans-Serif" font-size="10.00">#</text>
<text text-anchor="start" x="25" y="-37" font-family="Helvetica,sans-Serif" font-size="10.00">initToolbars()</text>
<text text-anchor="start" x="12" y="-22" font-family="Helvetica,sans-Serif" font-size="10.00">#</text>
<text text-anchor="start" x="25" y="-22" font-family="Helvetica,sans-Serif" font-size="10.00">setupMainWindowToolBars()</text>
<text text-anchor="start" x="14.5" y="-7" font-family="Helvetica,sans-Serif" font-size="10.00">&#45;</text>
<text text-anchor="start" x="25" y="-7" font-family="Helvetica,sans-Serif" font-size="10.00">verseKey()</text>
<polygon fill="#666666" stroke="#666666" points="8,-257 8,-257 171,-257 171,-257 8,-257"/>
<polygon fill="#666666" stroke="#666666" points="8,-242 8,-242 23,-242 23,-242 8,-242"/>
<polygon fill="#666666" stroke="#666666" points="23,-242 23,-242 171,-242 171,-242 23,-242"/>
<polygon fill="none" stroke="#666666" points="7.5,0 7.5,-274 170.5,-274 170.5,0 7.5,0"/>
</a>
</g>
</g>
<!-- Node2 -->
<g id="Node000002" class="node">
<title>Node2</title>
<g id="a_Node000002"><a xlink:href="../../dc/dc1/classCDisplayWindow.html" target="_top" xlink:title="The base class for all display windows of BibleTime.">
<polygon fill="white" stroke="transparent" points="178,-1094 0,-1094 0,-310 178,-310 178,-1094"/>
<text text-anchor="start" x="47.5" y="-1082" font-family="Helvetica,sans-Serif" font-size="10.00">CDisplayWindow</text>
<text text-anchor="start" x="4" y="-1067" font-family="Helvetica,sans-Serif" font-size="10.00">#</text>
<text text-anchor="start" x="17" y="-1067" font-family="Helvetica,sans-Serif" font-size="10.00">m_actions</text>
<text text-anchor="start" x="6.5" y="-1052" font-family="Helvetica,sans-Serif" font-size="10.00">&#45;</text>
<text text-anchor="start" x="17" y="-1052" font-family="Helvetica,sans-Serif" font-size="10.00">m_actionCollection</text>
<text text-anchor="start" x="6.5" y="-1037" font-family="Helvetica,sans-Serif" font-size="10.00">&#45;</text>
<text text-anchor="start" x="17" y="-1037" font-family="Helvetica,sans-Serif" font-size="10.00">m_buttonsToolBar</text>
<text text-anchor="start" x="6.5" y="-1022" font-family="Helvetica,sans-Serif" font-size="10.00">&#45;</text>
<text text-anchor="start" x="17" y="-1022" font-family="Helvetica,sans-Serif" font-size="10.00">m_displayOptions</text>
<text text-anchor="start" x="6.5" y="-1007" font-family="Helvetica,sans-Serif" font-size="10.00">&#45;</text>
<text text-anchor="start" x="17" y="-1007" font-family="Helvetica,sans-Serif" font-size="10.00">m_displayWidget</text>
<text text-anchor="start" x="6.5" y="-992" font-family="Helvetica,sans-Serif" font-size="10.00">&#45;</text>
<text text-anchor="start" x="17" y="-992" font-family="Helvetica,sans-Serif" font-size="10.00">m_filterOptions</text>
<text text-anchor="start" x="6.5" y="-977" font-family="Helvetica,sans-Serif" font-size="10.00">&#45;</text>
<text text-anchor="start" x="17" y="-977" font-family="Helvetica,sans-Serif" font-size="10.00">m_history</text>
<text text-anchor="start" x="6.5" y="-962" font-family="Helvetica,sans-Serif" font-size="10.00">&#45;</text>
<text text-anchor="start" x="17" y="-962" font-family="Helvetica,sans-Serif" font-size="10.00">m_isInitialized</text>
<text text-anchor="start" x="6.5" y="-947" font-family="Helvetica,sans-Serif" font-size="10.00">&#45;</text>
<text text-anchor="start" x="17" y="-947" font-family="Helvetica,sans-Serif" font-size="10.00">m_keyChooser</text>
<text text-anchor="start" x="6.5" y="-932" font-family="Helvetica,sans-Serif" font-size="10.00">&#45;</text>
<text text-anchor="start" x="17" y="-932" font-family="Helvetica,sans-Serif" font-size="10.00">m_mainToolBar</text>
<text text-anchor="start" x="6.5" y="-917" font-family="Helvetica,sans-Serif" font-size="10.00">&#45;</text>
<text text-anchor="start" x="17" y="-917" font-family="Helvetica,sans-Serif" font-size="10.00">m_mdi</text>
<text text-anchor="start" x="6.5" y="-902" font-family="Helvetica,sans-Serif" font-size="10.00">&#45;</text>
<text text-anchor="start" x="17" y="-902" font-family="Helvetica,sans-Serif" font-size="10.00">m_moduleChooserBar</text>
<text text-anchor="start" x="6.5" y="-887" font-family="Helvetica,sans-Serif" font-size="10.00">&#45;</text>
<text text-anchor="start" x="17" y="-887" font-family="Helvetica,sans-Serif" font-size="10.00">m_moduleNames</text>
<text text-anchor="start" x="6.5" y="-872" font-family="Helvetica,sans-Serif" font-size="10.00">&#45;</text>
<text text-anchor="start" x="17" y="-872" font-family="Helvetica,sans-Serif" font-size="10.00">m_modules</text>
<text text-anchor="start" x="6.5" y="-857" font-family="Helvetica,sans-Serif" font-size="10.00">&#45;</text>
<text text-anchor="start" x="17" y="-857" font-family="Helvetica,sans-Serif" font-size="10.00">m_swordKey</text>
<text text-anchor="start" x="4" y="-842" font-family="Helvetica,sans-Serif" font-size="10.00">+</text>
<text text-anchor="start" x="17" y="-842" font-family="Helvetica,sans-Serif" font-size="10.00">actionCollection()</text>
<text text-anchor="start" x="4" y="-827" font-family="Helvetica,sans-Serif" font-size="10.00">+</text>
<text text-anchor="start" x="17" y="-827" font-family="Helvetica,sans-Serif" font-size="10.00">applyProfileSettings()</text>
<text text-anchor="start" x="4" y="-812" font-family="Helvetica,sans-Serif" font-size="10.00">+</text>
<text text-anchor="start" x="17" y="-812" font-family="Helvetica,sans-Serif" font-size="10.00">btMainWindow()</text>
<text text-anchor="start" x="4" y="-797" font-family="Helvetica,sans-Serif" font-size="10.00">+</text>
<text text-anchor="start" x="17" y="-797" font-family="Helvetica,sans-Serif" font-size="10.00">buttonsToolBar()</text>
<text text-anchor="start" x="4" y="-782" font-family="Helvetica,sans-Serif" font-size="10.00">+</text>
<text text-anchor="start" x="17" y="-782" font-family="Helvetica,sans-Serif" font-size="10.00">constModules()</text>
<text text-anchor="start" x="4" y="-767" font-family="Helvetica,sans-Serif" font-size="10.00">+</text>
<text text-anchor="start" x="17" y="-767" font-family="Helvetica,sans-Serif" font-size="10.00">copyDisplayedText()</text>
<text text-anchor="start" x="4" y="-752" font-family="Helvetica,sans-Serif" font-size="10.00">+</text>
<text text-anchor="start" x="17" y="-752" font-family="Helvetica,sans-Serif" font-size="10.00">displayOptions()</text>
<text text-anchor="start" x="4" y="-737" font-family="Helvetica,sans-Serif" font-size="10.00">+</text>
<text text-anchor="start" x="17" y="-737" font-family="Helvetica,sans-Serif" font-size="10.00">displayWidget()</text>
<text text-anchor="start" x="4" y="-722" font-family="Helvetica,sans-Serif" font-size="10.00">+</text>
<text text-anchor="start" x="17" y="-722" font-family="Helvetica,sans-Serif" font-size="10.00">filterOptions()</text>
<text text-anchor="start" x="4" y="-707" font-family="Helvetica,sans-Serif" font-size="10.00">+</text>
<text text-anchor="start" x="17" y="-707" font-family="Helvetica,sans-Serif" font-size="10.00">firstModule()</text>
<text text-anchor="start" x="17" y="-692" font-family="Helvetica,sans-Serif" font-size="10.00">and 14 more...</text>
<text text-anchor="start" x="4" y="-677" font-family="Helvetica,sans-Serif" font-size="10.00">+</text>
<text text-anchor="start" x="17" y="-677" font-family="Helvetica,sans-Serif" font-size="10.00">lookupKey()</text>
<text text-anchor="start" x="4" y="-662" font-family="Helvetica,sans-Serif" font-size="10.00">+</text>
<text text-anchor="start" x="17" y="-662" font-family="Helvetica,sans-Serif" font-size="10.00">reload()</text>
<text text-anchor="start" x="4" y="-647" font-family="Helvetica,sans-Serif" font-size="10.00">+</text>
<text text-anchor="start" x="17" y="-647" font-family="Helvetica,sans-Serif" font-size="10.00">slotAddModule()</text>
<text text-anchor="start" x="4" y="-632" font-family="Helvetica,sans-Serif" font-size="10.00">+</text>
<text text-anchor="start" x="17" y="-632" font-family="Helvetica,sans-Serif" font-size="10.00">slotRemoveModule()</text>
<text text-anchor="start" x="4" y="-617" font-family="Helvetica,sans-Serif" font-size="10.00">+</text>
<text text-anchor="start" x="17" y="-617" font-family="Helvetica,sans-Serif" font-size="10.00">slotReplaceModule()</text>
<text text-anchor="start" x="4" y="-602" font-family="Helvetica,sans-Serif" font-size="10.00">#</text>
<text text-anchor="start" x="17" y="-602" font-family="Helvetica,sans-Serif" font-size="10.00">CDisplayWindow()</text>
<text text-anchor="start" x="4" y="-587" font-family="Helvetica,sans-Serif" font-size="10.00">#</text>
<text text-anchor="start" x="17" y="-587" font-family="Helvetica,sans-Serif" font-size="10.00">clearMainWindowToolBars()</text>
<text text-anchor="start" x="4" y="-572" font-family="Helvetica,sans-Serif" font-size="10.00">#</text>
<text text-anchor="start" x="17" y="-572" font-family="Helvetica,sans-Serif" font-size="10.00">history()</text>
<text text-anchor="start" x="4" y="-557" font-family="Helvetica,sans-Serif" font-size="10.00">#</text>
<text text-anchor="start" x="17" y="-557" font-family="Helvetica,sans-Serif" font-size="10.00">init()</text>
<text text-anchor="start" x="4" y="-542" font-family="Helvetica,sans-Serif" font-size="10.00">#</text>
<text text-anchor="start" x="17" y="-542" font-family="Helvetica,sans-Serif" font-size="10.00">initActions()</text>
<text text-anchor="start" x="4" y="-527" font-family="Helvetica,sans-Serif" font-size="10.00">#</text>
<text text-anchor="start" x="17" y="-527" font-family="Helvetica,sans-Serif" font-size="10.00">initAddAction()</text>
<text text-anchor="start" x="4" y="-512" font-family="Helvetica,sans-Serif" font-size="10.00">#</text>
<text text-anchor="start" x="17" y="-512" font-family="Helvetica,sans-Serif" font-size="10.00">initConnections()</text>
<text text-anchor="start" x="4" y="-497" font-family="Helvetica,sans-Serif" font-size="10.00">#</text>
<text text-anchor="start" x="17" y="-497" font-family="Helvetica,sans-Serif" font-size="10.00">initToolbars()</text>
<text text-anchor="start" x="4" y="-482" font-family="Helvetica,sans-Serif" font-size="10.00">#</text>
<text text-anchor="start" x="17" y="-482" font-family="Helvetica,sans-Serif" font-size="10.00">lookupSwordKey()</text>
<text text-anchor="start" x="4" y="-467" font-family="Helvetica,sans-Serif" font-size="10.00">#</text>
<text text-anchor="start" x="17" y="-467" font-family="Helvetica,sans-Serif" font-size="10.00">newDisplayWidgetPopupMenu()</text>
<text text-anchor="start" x="4" y="-452" font-family="Helvetica,sans-Serif" font-size="10.00">#</text>
<text text-anchor="start" x="17" y="-452" font-family="Helvetica,sans-Serif" font-size="10.00">setDisplayOptions()</text>
<text text-anchor="start" x="4" y="-437" font-family="Helvetica,sans-Serif" font-size="10.00">#</text>
<text text-anchor="start" x="17" y="-437" font-family="Helvetica,sans-Serif" font-size="10.00">setFilterOptions()</text>
<text text-anchor="start" x="4" y="-422" font-family="Helvetica,sans-Serif" font-size="10.00">#</text>
<text text-anchor="start" x="17" y="-422" font-family="Helvetica,sans-Serif" font-size="10.00">setupMainWindowToolBars()</text>
<text text-anchor="start" x="4" y="-407" font-family="Helvetica,sans-Serif" font-size="10.00">#</text>
<text text-anchor="start" x="17" y="-407" font-family="Helvetica,sans-Serif" font-size="10.00">~CDisplayWindow()</text>
<text text-anchor="start" x="4" y="-392" font-family="Helvetica,sans-Serif" font-size="10.00">#</text>
<text text-anchor="start" x="17" y="-392" font-family="Helvetica,sans-Serif" font-size="10.00">lookup()</text>
<text text-anchor="start" x="4" y="-377" font-family="Helvetica,sans-Serif" font-size="10.00">#</text>
<text text-anchor="start" x="17" y="-377" font-family="Helvetica,sans-Serif" font-size="10.00">modulesChanged()</text>
<text text-anchor="start" x="4" y="-362" font-family="Helvetica,sans-Serif" font-size="10.00">#</text>
<text text-anchor="start" x="17" y="-362" font-family="Helvetica,sans-Serif" font-size="10.00">printAll()</text>
<text text-anchor="start" x="4" y="-347" font-family="Helvetica,sans-Serif" font-size="10.00">#</text>
<text text-anchor="start" x="17" y="-347" font-family="Helvetica,sans-Serif" font-size="10.00">printAnchorOnly()</text>
<text text-anchor="start" x="4" y="-332" font-family="Helvetica,sans-Serif" font-size="10.00">#</text>
<text text-anchor="start" x="17" y="-332" font-family="Helvetica,sans-Serif" font-size="10.00">printAnchorWithText()</text>
<text text-anchor="start" x="6.5" y="-317" font-family="Helvetica,sans-Serif" font-size="10.00">&#45;</text>
<text text-anchor="start" x="17" y="-317" font-family="Helvetica,sans-Serif" font-size="10.00">initAction()</text>
<polygon fill="#666666" stroke="#666666" points="0,-1077 0,-1077 178,-1077 178,-1077 0,-1077"/>
<polygon fill="#666666" stroke="#666666" points="0,-852 0,-852 15,-852 15,-852 0,-852"/>
<polygon fill="#666666" stroke="#666666" points="15,-852 15,-852 178,-852 178,-852 15,-852"/>
<polygon fill="none" stroke="#666666" points="0,-310 0,-1094 178,-1094 178,-310 0,-310"/>
</a>
</g>
</g>
<!-- Node2&#45;&gt;Node1 -->
<g id="edge1_Node000001_Node000002" class="edge">
<title>Node2&#45;&gt;Node1</title>
<g id="a_edge1_Node000001_Node000002"><a xlink:title=" ">
<path fill="none" stroke="#63b8ff" d="M89,-299.97C89,-291.18 89,-282.58 89,-274.21"/>
<polygon fill="none" stroke="#63b8ff" points="85.5,-299.98 89,-309.98 92.5,-299.98 85.5,-299.98"/>
</a>
</g>
</g>
<!-- Node3 -->
<g id="Node000003" class="node">
<title>Node3</title>
<g id="a_Node000003"><a xlink:href="../../df/d90/classQMainWindow.html" target="_top" xlink:title=" ">
<polygon fill="white" stroke="transparent" points="129.5,-1179 48.5,-1179 48.5,-1130 129.5,-1130 129.5,-1179"/>
<text text-anchor="start" x="54" y="-1166.5" font-family="Helvetica,sans-Serif" font-size="10.00">QMainWindow</text>
<text text-anchor="start" x="87.5" y="-1151.5" font-family="Helvetica,sans-Serif" font-size="10.00"> </text>
<text text-anchor="start" x="87.5" y="-1136.5" font-family="Helvetica,sans-Serif" font-size="10.00"> </text>
<polygon fill="#666666" stroke="#666666" points="49,-1161.5 49,-1161.5 130,-1161.5 130,-1161.5 49,-1161.5"/>
<polygon fill="#666666" stroke="#666666" points="49,-1146.5 49,-1146.5 130,-1146.5 130,-1146.5 49,-1146.5"/>
<polygon fill="none" stroke="#666666" points="48.5,-1130 48.5,-1179 129.5,-1179 129.5,-1130 48.5,-1130"/>
</a>
</g>
</g>
<!-- Node3&#45;&gt;Node2 -->
<g id="edge2_Node000002_Node000003" class="edge">
<title>Node3&#45;&gt;Node2</title>
<g id="a_edge2_Node000002_Node000003"><a xlink:title=" ">
<path fill="none" stroke="#63b8ff" d="M89,-1119.65C89,-1112.11 89,-1103.5 89,-1094"/>
<polygon fill="none" stroke="#63b8ff" points="85.5,-1119.91 89,-1129.91 92.5,-1119.91 85.5,-1119.91"/>
</a>
</g>
</g>
</g>
</svg>

<g id="navigator" transform="translate(0 0)" fill="#404254">
  <rect fill="#f2f5e9" fill-opacity="0.5" stroke="#606060" stroke-width=".5" x="0" y="0" width="60" height="60"/>
  <use id="zoomplus" xlink:href="#zoomPlus" x="17" y="9" onmousedown="handleZoom(evt,'in')"/>
  <use id="zoomminus" xlink:href="#zoomMin" x="42" y="9" onmousedown="handleZoom(evt,'out')"/>
  <use id="reset" xlink:href="#resetDef" x="30" y="36" onmousedown="handleReset()"/>
   <use id="arrowup" xlink:href="#arrowUp" x="0" y="0" onmousedown="handlePan(0,-1)"/>
  <use id="arrowright" xlink:href="#arrowRight" x="0" y="0" onmousedown="handlePan(1,0)"/>
  <use id="arrowdown" xlink:href="#arrowDown" x="0" y="0" onmousedown="handlePan(0,1)"/>
  <use id="arrowleft" xlink:href="#arrowLeft" x="0" y="0" onmousedown="handlePan(-1,0)"/>
</g>
<svg viewBox="0 0 15 15" width="100%" height="30px" preserveAspectRatio="xMaxYMin meet">
 <g id="arrow_out" transform="scale(0.3 0.3)">
  <a xlink:href="classCCommentaryReadWindow__inherit__graph_org.svg" target="_base">
   <rect id="button" ry="5" rx="5" y="6" x="6" height="38" width="38"
        fill="#f2f5e9" fill-opacity="0.5" stroke="#606060" stroke-width="1.0"/>
   <path id="arrow"
     d="M 11.500037,31.436501 C 11.940474,20.09759 22.043105,11.32322 32.158766,21.979434 L 37.068811,17.246167 C 37.068811,17.246167 37.088388,32 37.088388,32 L 22.160133,31.978069 C 22.160133,31.978069 26.997745,27.140456 26.997745,27.140456 C 18.528582,18.264221 13.291696,25.230495 11.500037,31.436501 z"
     style="fill:#404040;"/>
  </a>
 </g>
</svg>

<style type='text/css'>
<![CDATA[
[data-mouse-over-selected='false'] { opacity: 0.7; }
[data-mouse-over-selected='true']  { opacity: 1.0; }
]]>
</style>
<script type="application/ecmascript"><![CDATA[
document.addEventListener('DOMContentLoaded', (event) => {
  highlightEdges();
  highlightAdjacentNodes();
});
]]></script>
</svg>
