<?xml version="1.0" encoding="UTF-8" standalone="no"?>
<!DOCTYPE svg PUBLIC "-//W3C//DTD SVG 1.1//EN"
 "http://www.w3.org/Graphics/SVG/1.1/DTD/svg11.dtd">
<!-- Generated by graphviz version 2.43.0 (0)
 -->
<!-- Title: csearchanalysisdialog.h Pages: 1 -->
<svg width="406pt" height="196pt"
 viewBox="0.00 0.00 405.50 196.00" xmlns="http://www.w3.org/2000/svg" xmlns:xlink="http://www.w3.org/1999/xlink">
<g id="graph0" class="graph" transform="scale(1 1) rotate(0) translate(4 192)">
<title>csearchanalysisdialog.h</title>
<polygon fill="white" stroke="transparent" points="-4,4 -4,-192 401.5,-192 401.5,4 -4,4"/>
<!-- Node1 -->
<g id="node1" class="node">
<title>Node1</title>
<g id="a_node1"><a xlink:title=" ">
<polygon fill="#bfbfbf" stroke="black" points="79.5,-168.5 79.5,-187.5 213.5,-187.5 213.5,-168.5 79.5,-168.5"/>
<text text-anchor="middle" x="146.5" y="-175.5" font-family="Helvetica,sans-Serif" font-size="10.00">csearchanalysisdialog.h</text>
</a>
</g>
</g>
<!-- Node2 -->
<g id="node2" class="node">
<title>Node2</title>
<g id="a_node2"><a xlink:href="../../d9/da2/csearchanalysisdialog_8cpp.html" target="_top" xlink:title=" ">
<polygon fill="white" stroke="black" points="0,-112.5 0,-131.5 145,-131.5 145,-112.5 0,-112.5"/>
<text text-anchor="middle" x="72.5" y="-119.5" font-family="Helvetica,sans-Serif" font-size="10.00">csearchanalysisdialog.cpp</text>
</a>
</g>
</g>
<!-- Node1&#45;&gt;Node2 -->
<g id="edge1" class="edge">
<title>Node1&#45;&gt;Node2</title>
<path fill="none" stroke="midnightblue" d="M126.47,-162.38C113.09,-152.62 95.94,-140.11 84.61,-131.83"/>
<polygon fill="midnightblue" stroke="midnightblue" points="124.47,-165.26 134.61,-168.32 128.6,-159.6 124.47,-165.26"/>
</g>
<!-- Node3 -->
<g id="node3" class="node">
<title>Node3</title>
<g id="a_node3"><a xlink:href="../../dd/d21/btsearchresultarea_8h.html" target="_top" xlink:title=" ">
<polygon fill="white" stroke="black" points="163,-112.5 163,-131.5 280,-131.5 280,-112.5 163,-112.5"/>
<text text-anchor="middle" x="221.5" y="-119.5" font-family="Helvetica,sans-Serif" font-size="10.00">btsearchresultarea.h</text>
</a>
</g>
</g>
<!-- Node1&#45;&gt;Node3 -->
<g id="edge2" class="edge">
<title>Node1&#45;&gt;Node3</title>
<path fill="none" stroke="midnightblue" d="M166.81,-162.38C180.36,-152.62 197.74,-140.11 209.23,-131.83"/>
<polygon fill="midnightblue" stroke="midnightblue" points="164.62,-159.64 158.55,-168.32 168.71,-165.32 164.62,-159.64"/>
</g>
<!-- Node4 -->
<g id="node4" class="node">
<title>Node4</title>
<g id="a_node4"><a xlink:href="../../dd/dde/btsearchresultarea_8cpp.html" target="_top" xlink:title=" ">
<polygon fill="white" stroke="black" points="40.5,-0.5 40.5,-19.5 168.5,-19.5 168.5,-0.5 40.5,-0.5"/>
<text text-anchor="middle" x="104.5" y="-7.5" font-family="Helvetica,sans-Serif" font-size="10.00">btsearchresultarea.cpp</text>
</a>
</g>
</g>
<!-- Node3&#45;&gt;Node4 -->
<g id="edge3" class="edge">
<title>Node3&#45;&gt;Node4</title>
<path fill="none" stroke="midnightblue" d="M160.7,-109.42C141.75,-102.78 122.64,-92.35 110.5,-76 98.07,-59.26 100.41,-33 102.71,-19.56"/>
<polygon fill="midnightblue" stroke="midnightblue" points="159.67,-112.77 170.26,-112.47 161.8,-106.1 159.67,-112.77"/>
</g>
<!-- Node5 -->
<g id="node5" class="node">
<title>Node5</title>
<g id="a_node5"><a xlink:href="../../d7/d5d/cmoduleresultview_8cpp.html" target="_top" xlink:title=" ">
<polygon fill="white" stroke="black" points="194,-0.5 194,-19.5 323,-19.5 323,-0.5 194,-0.5"/>
<text text-anchor="middle" x="258.5" y="-7.5" font-family="Helvetica,sans-Serif" font-size="10.00">cmoduleresultview.cpp</text>
</a>
</g>
</g>
<!-- Node3&#45;&gt;Node5 -->
<g id="edge4" class="edge">
<title>Node3&#45;&gt;Node5</title>
<path fill="none" stroke="midnightblue" d="M232.74,-103.89C237.63,-95.74 243.03,-85.67 246.5,-76 253.48,-56.56 256.58,-32.32 257.8,-19.64"/>
<polygon fill="midnightblue" stroke="midnightblue" points="229.72,-102.11 227.37,-112.44 235.65,-105.83 229.72,-102.11"/>
</g>
<!-- Node6 -->
<g id="node6" class="node">
<title>Node6</title>
<g id="a_node6"><a xlink:href="../../da/d50/cmoduleresultview_8h.html" target="_top" xlink:title=" ">
<polygon fill="white" stroke="black" points="119.5,-56.5 119.5,-75.5 237.5,-75.5 237.5,-56.5 119.5,-56.5"/>
<text text-anchor="middle" x="178.5" y="-63.5" font-family="Helvetica,sans-Serif" font-size="10.00">cmoduleresultview.h</text>
</a>
</g>
</g>
<!-- Node3&#45;&gt;Node6 -->
<g id="edge5" class="edge">
<title>Node3&#45;&gt;Node6</title>
<path fill="none" stroke="midnightblue" d="M208.08,-104.14C200.59,-94.74 191.56,-83.4 185.47,-75.75"/>
<polygon fill="midnightblue" stroke="midnightblue" points="205.43,-106.44 214.4,-112.08 210.91,-102.08 205.43,-106.44"/>
</g>
<!-- Node7 -->
<g id="node7" class="node">
<title>Node7</title>
<g id="a_node7"><a xlink:href="../../d2/d1a/csearchdialog_8cpp.html" target="_top" xlink:title=" ">
<polygon fill="white" stroke="black" points="293.5,-56.5 293.5,-75.5 397.5,-75.5 397.5,-56.5 293.5,-56.5"/>
<text text-anchor="middle" x="345.5" y="-63.5" font-family="Helvetica,sans-Serif" font-size="10.00">csearchdialog.cpp</text>
</a>
</g>
</g>
<!-- Node3&#45;&gt;Node7 -->
<g id="edge8" class="edge">
<title>Node3&#45;&gt;Node7</title>
<path fill="none" stroke="midnightblue" d="M250.51,-108.37C273.73,-98.26 305.66,-84.35 325.94,-75.52"/>
<polygon fill="midnightblue" stroke="midnightblue" points="248.92,-105.24 241.15,-112.44 251.71,-111.66 248.92,-105.24"/>
</g>
<!-- Node6&#45;&gt;Node4 -->
<g id="edge6" class="edge">
<title>Node6&#45;&gt;Node4</title>
<path fill="none" stroke="midnightblue" d="M158.47,-50.38C145.09,-40.62 127.94,-28.11 116.61,-19.83"/>
<polygon fill="midnightblue" stroke="midnightblue" points="156.47,-53.26 166.61,-56.32 160.6,-47.6 156.47,-53.26"/>
</g>
<!-- Node6&#45;&gt;Node5 -->
<g id="edge7" class="edge">
<title>Node6&#45;&gt;Node5</title>
<path fill="none" stroke="midnightblue" d="M199.8,-50.62C214.42,-40.76 233.33,-27.99 245.68,-19.65"/>
<polygon fill="midnightblue" stroke="midnightblue" points="197.68,-47.83 191.35,-56.32 201.6,-53.63 197.68,-47.83"/>
</g>
</g>
</svg>
