<?xml version="1.0" encoding="UTF-8" standalone="no"?>
<!DOCTYPE svg PUBLIC "-//W3C//DTD SVG 1.1//EN"
 "http://www.w3.org/Graphics/SVG/1.1/DTD/svg11.dtd">
<!-- Generated by graphviz version 2.43.0 (0)
 -->
<!-- Title: osistohtml.h Pages: 1 -->
<!--zoomable 196 -->
<svg id="main" version="1.1" xmlns="http://www.w3.org/2000/svg" xmlns:xlink="http://www.w3.org/1999/xlink" xml:space="preserve" onload="init(evt)">
<style type="text/css"><![CDATA[
.edge:hover path { stroke: red; }
.edge:hover polygon { stroke: red; fill: red; }
]]></style>
<script type="text/javascript"><![CDATA[
var edges = document.getElementsByTagName('g');
if (edges && edges.length) {
  for (var i=0;i<edges.length;i++) {
    if (edges[i].id.substr(0,4)=='edge') {
      edges[i].setAttribute('class','edge');
    }
  }
}
]]></script>
        <defs>
                <circle id="rim" cx="0" cy="0" r="7"/>
                <circle id="rim2" cx="0" cy="0" r="3.5"/>
                <g id="zoomPlus">
                        <use xlink:href="#rim" fill="#404040">
                                <set attributeName="fill" to="#808080" begin="zoomplus.mouseover" end="zoomplus.mouseout"/>
                        </use>
                        <path d="M-4,0h8M0,-4v8" fill="none" stroke="white" stroke-width="1.5" pointer-events="none"/>
                </g>
                <g id="zoomMin">
                        <use xlink:href="#rim" fill="#404040">
                                <set attributeName="fill" to="#808080" begin="zoomminus.mouseover" end="zoomminus.mouseout"/>
                        </use>
                        <path d="M-4,0h8" fill="none" stroke="white" stroke-width="1.5" pointer-events="none"/>
                </g>
                <g id="dirArrow">
                        <path fill="none" stroke="white" stroke-width="1.5" d="M0,-3.0v7 M-2.5,-0.5L0,-3.0L2.5,-0.5"/>
                </g>
               <g id="resetDef">
                       <use xlink:href="#rim2" fill="#404040">
                               <set attributeName="fill" to="#808080" begin="reset.mouseover" end="reset.mouseout"/>
                       </use>
               </g>
        </defs>

<script type="text/javascript">
var viewWidth = 6327;
var viewHeight = 196;
var sectionId = 'dynsection-0';
</script>
<script xlink:href="../../svgpan.js"/>
<svg id="graph" class="graph">
<g id="viewport">
<title>osistohtml.h</title>
<polygon fill="white" stroke="transparent" points="-4,4 -4,-192 6322.5,-192 6322.5,4 -4,4"/>
<!-- Node1 -->
<g id="node1" class="node">
<title>Node1</title>
<g id="a_node1"><a xlink:title=" ">
<polygon fill="#bfbfbf" stroke="black" points="1460,-168.5 1460,-187.5 1537,-187.5 1537,-168.5 1460,-168.5"/>
<text text-anchor="middle" x="1498.5" y="-175.5" font-family="Helvetica,sans-Serif" font-size="10.00">osistohtml.h</text>
</a>
</g>
</g>
<!-- Node2 -->
<g id="node2" class="node">
<title>Node2</title>
<g id="a_node2"><a xlink:href="../../db/d7a/osistohtml_8cpp.html" target="_top" xlink:title=" ">
<polygon fill="white" stroke="black" points="0,-56.5 0,-75.5 89,-75.5 89,-56.5 0,-56.5"/>
<text text-anchor="middle" x="44.5" y="-63.5" font-family="Helvetica,sans-Serif" font-size="10.00">osistohtml.cpp</text>
</a>
</g>
</g>
<!-- Node1&#45;&gt;Node2 -->
<g id="edge1" class="edge">
<title>Node1&#45;&gt;Node2</title>
<path fill="none" stroke="midnightblue" d="M1449.76,-175.13C1269.79,-167.87 625.79,-138.82 98.5,-76 95.48,-75.64 92.37,-75.23 89.24,-74.79"/>
<polygon fill="midnightblue" stroke="midnightblue" points="1449.83,-178.64 1459.96,-175.54 1450.11,-171.64 1449.83,-178.64"/>
</g>
<!-- Node3 -->
<g id="node3" class="node">
<title>Node3</title>
<g id="a_node3"><a xlink:href="../../d0/d60/cswordbackend_8h.html" target="_top" xlink:title=" ">
<polygon fill="white" stroke="black" points="2814,-112.5 2814,-131.5 2915,-131.5 2915,-112.5 2814,-112.5"/>
<text text-anchor="middle" x="2864.5" y="-119.5" font-family="Helvetica,sans-Serif" font-size="10.00">cswordbackend.h</text>
</a>
</g>
</g>
<!-- Node1&#45;&gt;Node3 -->
<g id="edge2" class="edge">
<title>Node1&#45;&gt;Node3</title>
<path fill="none" stroke="midnightblue" d="M1547.37,-175.07C1759.32,-166.69 2597.92,-133.54 2813.67,-125.01"/>
<polygon fill="midnightblue" stroke="midnightblue" points="1547.04,-171.58 1537.18,-175.47 1547.31,-178.57 1547.04,-171.58"/>
</g>
<!-- Node3&#45;&gt;Node2 -->
<g id="edge11" class="edge">
<title>Node3&#45;&gt;Node2</title>
<path fill="none" stroke="midnightblue" d="M2803.51,-120.55C2422.46,-117.69 375.93,-101.23 98.5,-76 95.47,-75.72 92.36,-75.38 89.22,-74.98"/>
<polygon fill="midnightblue" stroke="midnightblue" points="2803.75,-124.06 2813.78,-120.63 2803.8,-117.06 2803.75,-124.06"/>
</g>
<!-- Node4 -->
<g id="node4" class="node">
<title>Node4</title>
<g id="a_node4"><a xlink:href="../../d7/dd0/btbookmarksmodel_8cpp.html" target="_top" xlink:title=" ">
<polygon fill="white" stroke="black" points="5924.5,-56.5 5924.5,-75.5 6056.5,-75.5 6056.5,-56.5 5924.5,-56.5"/>
<text text-anchor="middle" x="5990.5" y="-63.5" font-family="Helvetica,sans-Serif" font-size="10.00">btbookmarksmodel.cpp</text>
</a>
</g>
</g>
<!-- Node3&#45;&gt;Node4 -->
<g id="edge3" class="edge">
<title>Node3&#45;&gt;Node4</title>
<path fill="none" stroke="midnightblue" d="M2925.17,-120.97C3299.89,-120.67 5303.16,-117.14 5915.5,-76 5918.38,-75.81 5921.32,-75.58 5924.28,-75.33"/>
<polygon fill="midnightblue" stroke="midnightblue" points="2925.08,-117.47 2915.08,-120.98 2925.08,-124.47 2925.08,-117.47"/>
</g>
<!-- Node5 -->
<g id="node5" class="node">
<title>Node5</title>
<g id="a_node5"><a xlink:href="../../db/dd7/btinstallbackend_8cpp.html" target="_top" xlink:title=" ">
<polygon fill="white" stroke="black" points="6075,-56.5 6075,-75.5 6192,-75.5 6192,-56.5 6075,-56.5"/>
<text text-anchor="middle" x="6133.5" y="-63.5" font-family="Helvetica,sans-Serif" font-size="10.00">btinstallbackend.cpp</text>
</a>
</g>
</g>
<!-- Node3&#45;&gt;Node5 -->
<g id="edge4" class="edge">
<title>Node3&#45;&gt;Node5</title>
<path fill="none" stroke="midnightblue" d="M2925.38,-121.12C3311.31,-121.75 5421.78,-122.96 6065.5,-76 6068.59,-75.77 6071.75,-75.5 6074.94,-75.19"/>
<polygon fill="midnightblue" stroke="midnightblue" points="2925.26,-117.62 2915.26,-121.11 2925.25,-124.62 2925.26,-117.62"/>
</g>
<!-- Node6 -->
<g id="node6" class="node">
<title>Node6</title>
<g id="a_node6"><a xlink:href="../../d5/daf/btinstallthread_8cpp.html" target="_top" xlink:title=" ">
<polygon fill="white" stroke="black" points="6210.5,-56.5 6210.5,-75.5 6318.5,-75.5 6318.5,-56.5 6210.5,-56.5"/>
<text text-anchor="middle" x="6264.5" y="-63.5" font-family="Helvetica,sans-Serif" font-size="10.00">btinstallthread.cpp</text>
</a>
</g>
</g>
<!-- Node3&#45;&gt;Node6 -->
<g id="edge5" class="edge">
<title>Node3&#45;&gt;Node6</title>
<path fill="none" stroke="midnightblue" d="M2925.47,-120.65C3350.45,-118.15 5863.25,-102.33 6201.5,-76 6204.36,-75.78 6207.3,-75.51 6210.25,-75.2"/>
<polygon fill="midnightblue" stroke="midnightblue" points="2925.22,-117.15 2915.24,-120.71 2925.26,-124.15 2925.22,-117.15"/>
</g>
<!-- Node7 -->
<g id="node7" class="node">
<title>Node7</title>
<g id="a_node7"><a xlink:href="../../de/d4e/btconfig_8cpp.html" target="_top" xlink:title=" ">
<polygon fill="white" stroke="black" points="107.5,-56.5 107.5,-75.5 183.5,-75.5 183.5,-56.5 107.5,-56.5"/>
<text text-anchor="middle" x="145.5" y="-63.5" font-family="Helvetica,sans-Serif" font-size="10.00">btconfig.cpp</text>
</a>
</g>
</g>
<!-- Node3&#45;&gt;Node7 -->
<g id="edge6" class="edge">
<title>Node3&#45;&gt;Node7</title>
<path fill="none" stroke="midnightblue" d="M2803.8,-120.61C2431.1,-118.1 459.76,-103.63 192.5,-76 189.61,-75.7 186.63,-75.32 183.64,-74.87"/>
<polygon fill="midnightblue" stroke="midnightblue" points="2803.82,-124.11 2813.84,-120.67 2803.87,-117.11 2803.82,-124.11"/>
</g>
<!-- Node8 -->
<g id="node8" class="node">
<title>Node8</title>
<g id="a_node8"><a xlink:href="../../dd/d03/cswordmodulesearch_8cpp.html" target="_top" xlink:title=" ">
<polygon fill="white" stroke="black" points="201.5,-56.5 201.5,-75.5 341.5,-75.5 341.5,-56.5 201.5,-56.5"/>
<text text-anchor="middle" x="271.5" y="-63.5" font-family="Helvetica,sans-Serif" font-size="10.00">cswordmodulesearch.cpp</text>
</a>
</g>
</g>
<!-- Node3&#45;&gt;Node8 -->
<g id="edge7" class="edge">
<title>Node3&#45;&gt;Node8</title>
<path fill="none" stroke="midnightblue" d="M2803.48,-120.7C2468.43,-118.93 849.41,-108.81 350.5,-76 347.61,-75.81 344.66,-75.59 341.68,-75.35"/>
<polygon fill="midnightblue" stroke="midnightblue" points="2803.92,-124.2 2813.93,-120.75 2803.95,-117.2 2803.92,-124.2"/>
</g>
<!-- Node9 -->
<g id="node9" class="node">
<title>Node9</title>
<g id="a_node9"><a xlink:href="../../d4/d94/cswordbiblemoduleinfo_8cpp.html" target="_top" xlink:title=" ">
<polygon fill="white" stroke="black" points="360,-56.5 360,-75.5 511,-75.5 511,-56.5 360,-56.5"/>
<text text-anchor="middle" x="435.5" y="-63.5" font-family="Helvetica,sans-Serif" font-size="10.00">cswordbiblemoduleinfo.cpp</text>
</a>
</g>
</g>
<!-- Node3&#45;&gt;Node9 -->
<g id="edge8" class="edge">
<title>Node3&#45;&gt;Node9</title>
<path fill="none" stroke="midnightblue" d="M2803.73,-120.56C2482.87,-118.1 983.08,-105.23 519.5,-76 516.72,-75.82 513.89,-75.63 511.03,-75.41"/>
<polygon fill="midnightblue" stroke="midnightblue" points="2803.73,-124.06 2813.76,-120.63 2803.79,-117.06 2803.73,-124.06"/>
</g>
<!-- Node10 -->
<g id="node10" class="node">
<title>Node10</title>
<g id="a_node10"><a xlink:href="../../d3/db9/cswordmoduleinfo_8cpp.html" target="_top" xlink:title=" ">
<polygon fill="white" stroke="black" points="529,-56.5 529,-75.5 656,-75.5 656,-56.5 529,-56.5"/>
<text text-anchor="middle" x="592.5" y="-63.5" font-family="Helvetica,sans-Serif" font-size="10.00">cswordmoduleinfo.cpp</text>
</a>
</g>
</g>
<!-- Node3&#45;&gt;Node10 -->
<g id="edge9" class="edge">
<title>Node3&#45;&gt;Node10</title>
<path fill="none" stroke="midnightblue" d="M2803.57,-120.6C2494.54,-118.42 1098.11,-107.01 665.5,-76 662.44,-75.78 659.32,-75.52 656.16,-75.24"/>
<polygon fill="midnightblue" stroke="midnightblue" points="2803.66,-124.1 2813.68,-120.67 2803.7,-117.1 2803.66,-124.1"/>
</g>
<!-- Node11 -->
<g id="node11" class="node">
<title>Node11</title>
<g id="a_node11"><a xlink:href="../../d4/d4d/gbftohtml_8cpp.html" target="_top" xlink:title=" ">
<polygon fill="white" stroke="black" points="674.5,-56.5 674.5,-75.5 758.5,-75.5 758.5,-56.5 674.5,-56.5"/>
<text text-anchor="middle" x="716.5" y="-63.5" font-family="Helvetica,sans-Serif" font-size="10.00">gbftohtml.cpp</text>
</a>
</g>
</g>
<!-- Node3&#45;&gt;Node11 -->
<g id="edge10" class="edge">
<title>Node3&#45;&gt;Node11</title>
<path fill="none" stroke="midnightblue" d="M2803.49,-120.95C2502.94,-120.53 1177.81,-116.37 767.5,-76 764.64,-75.72 761.69,-75.37 758.73,-74.97"/>
<polygon fill="midnightblue" stroke="midnightblue" points="2803.74,-124.45 2813.75,-120.97 2803.75,-117.45 2803.74,-124.45"/>
</g>
<!-- Node12 -->
<g id="node12" class="node">
<title>Node12</title>
<g id="a_node12"><a xlink:href="../../d5/de5/teitohtml_8cpp.html" target="_top" xlink:title=" ">
<polygon fill="white" stroke="black" points="776.5,-56.5 776.5,-75.5 858.5,-75.5 858.5,-56.5 776.5,-56.5"/>
<text text-anchor="middle" x="817.5" y="-63.5" font-family="Helvetica,sans-Serif" font-size="10.00">teitohtml.cpp</text>
</a>
</g>
</g>
<!-- Node3&#45;&gt;Node12 -->
<g id="edge12" class="edge">
<title>Node3&#45;&gt;Node12</title>
<path fill="none" stroke="midnightblue" d="M2803.6,-120.91C2512.04,-120.26 1256.9,-115.19 867.5,-76 864.6,-75.71 861.62,-75.34 858.63,-74.93"/>
<polygon fill="midnightblue" stroke="midnightblue" points="2803.96,-124.41 2813.97,-120.93 2803.97,-117.41 2803.96,-124.41"/>
</g>
<!-- Node13 -->
<g id="node13" class="node">
<title>Node13</title>
<g id="a_node13"><a xlink:href="../../d9/de8/thmltohtml_8cpp.html" target="_top" xlink:title=" ">
<polygon fill="white" stroke="black" points="876.5,-56.5 876.5,-75.5 968.5,-75.5 968.5,-56.5 876.5,-56.5"/>
<text text-anchor="middle" x="922.5" y="-63.5" font-family="Helvetica,sans-Serif" font-size="10.00">thmltohtml.cpp</text>
</a>
</g>
</g>
<!-- Node3&#45;&gt;Node13 -->
<g id="edge13" class="edge">
<title>Node3&#45;&gt;Node13</title>
<path fill="none" stroke="midnightblue" d="M2803.76,-120.68C2522.45,-119.04 1344.32,-110.22 977.5,-76 974.61,-75.73 971.64,-75.4 968.65,-75.03"/>
<polygon fill="midnightblue" stroke="midnightblue" points="2803.76,-124.18 2813.78,-120.74 2803.8,-117.18 2803.76,-124.18"/>
</g>
<!-- Node14 -->
<g id="node14" class="node">
<title>Node14</title>
<g id="a_node14"><a xlink:href="../../d4/d47/cdisplaytemplatemgr_8cpp.html" target="_top" xlink:title=" ">
<polygon fill="white" stroke="black" points="986.5,-56.5 986.5,-75.5 1126.5,-75.5 1126.5,-56.5 986.5,-56.5"/>
<text text-anchor="middle" x="1056.5" y="-63.5" font-family="Helvetica,sans-Serif" font-size="10.00">cdisplaytemplatemgr.cpp</text>
</a>
</g>
</g>
<!-- Node3&#45;&gt;Node14 -->
<g id="edge14" class="edge">
<title>Node3&#45;&gt;Node14</title>
<path fill="none" stroke="midnightblue" d="M2803.68,-121.34C2580.76,-122.17 1787.52,-121.54 1135.5,-76 1132.61,-75.8 1129.66,-75.57 1126.68,-75.32"/>
<polygon fill="midnightblue" stroke="midnightblue" points="2803.87,-124.84 2813.86,-121.3 2803.84,-117.84 2803.87,-124.84"/>
</g>
<!-- Node15 -->
<g id="node15" class="node">
<title>Node15</title>
<g id="a_node15"><a xlink:href="../../d9/d7b/cswordbackend_8cpp.html" target="_top" xlink:title=" ">
<polygon fill="white" stroke="black" points="1144.5,-56.5 1144.5,-75.5 1256.5,-75.5 1256.5,-56.5 1144.5,-56.5"/>
<text text-anchor="middle" x="1200.5" y="-63.5" font-family="Helvetica,sans-Serif" font-size="10.00">cswordbackend.cpp</text>
</a>
</g>
</g>
<!-- Node3&#45;&gt;Node15 -->
<g id="edge15" class="edge">
<title>Node3&#45;&gt;Node15</title>
<path fill="none" stroke="midnightblue" d="M2803.8,-120.18C2549.99,-116.62 1572.77,-101.52 1265.5,-76 1262.66,-75.76 1259.76,-75.49 1256.83,-75.18"/>
<polygon fill="midnightblue" stroke="midnightblue" points="2803.88,-123.68 2813.93,-120.32 2803.98,-116.68 2803.88,-123.68"/>
</g>
<!-- Node16 -->
<g id="node16" class="node">
<title>Node16</title>
<g id="a_node16"><a xlink:href="../../d7/dfe/referencemanager_8cpp.html" target="_top" xlink:title=" ">
<polygon fill="white" stroke="black" points="1274.5,-56.5 1274.5,-75.5 1400.5,-75.5 1400.5,-56.5 1274.5,-56.5"/>
<text text-anchor="middle" x="1337.5" y="-63.5" font-family="Helvetica,sans-Serif" font-size="10.00">referencemanager.cpp</text>
</a>
</g>
</g>
<!-- Node3&#45;&gt;Node16 -->
<g id="edge16" class="edge">
<title>Node3&#45;&gt;Node16</title>
<path fill="none" stroke="midnightblue" d="M2803.83,-121.15C2604.09,-121.21 1949.08,-117.98 1409.5,-76 1406.61,-75.78 1403.66,-75.52 1400.68,-75.24"/>
<polygon fill="midnightblue" stroke="midnightblue" points="2803.83,-124.65 2813.83,-121.14 2803.83,-117.65 2803.83,-124.65"/>
</g>
<!-- Node17 -->
<g id="node17" class="node">
<title>Node17</title>
<g id="a_node17"><a xlink:href="../../de/d93/btmoduletextmodel_8cpp.html" target="_top" xlink:title=" ">
<polygon fill="white" stroke="black" points="1418.5,-56.5 1418.5,-75.5 1552.5,-75.5 1552.5,-56.5 1418.5,-56.5"/>
<text text-anchor="middle" x="1485.5" y="-63.5" font-family="Helvetica,sans-Serif" font-size="10.00">btmoduletextmodel.cpp</text>
</a>
</g>
</g>
<!-- Node3&#45;&gt;Node17 -->
<g id="edge17" class="edge">
<title>Node3&#45;&gt;Node17</title>
<path fill="none" stroke="midnightblue" d="M2803.67,-120.7C2617.5,-119.39 2039.12,-112.46 1561.5,-76 1558.59,-75.78 1555.61,-75.53 1552.61,-75.25"/>
<polygon fill="midnightblue" stroke="midnightblue" points="2803.78,-124.2 2813.81,-120.77 2803.83,-117.2 2803.78,-124.2"/>
</g>
<!-- Node18 -->
<g id="node18" class="node">
<title>Node18</title>
<g id="a_node18"><a xlink:href="../../da/d1a/btinforendering_8cpp.html" target="_top" xlink:title=" ">
<polygon fill="white" stroke="black" points="1570.5,-56.5 1570.5,-75.5 1682.5,-75.5 1682.5,-56.5 1570.5,-56.5"/>
<text text-anchor="middle" x="1626.5" y="-63.5" font-family="Helvetica,sans-Serif" font-size="10.00">btinforendering.cpp</text>
</a>
</g>
</g>
<!-- Node3&#45;&gt;Node18 -->
<g id="edge18" class="edge">
<title>Node3&#45;&gt;Node18</title>
<path fill="none" stroke="midnightblue" d="M2803.57,-120.79C2629.63,-119.74 2116,-113.44 1691.5,-76 1688.66,-75.75 1685.76,-75.46 1682.83,-75.15"/>
<polygon fill="midnightblue" stroke="midnightblue" points="2803.78,-124.29 2813.8,-120.85 2803.82,-117.29 2803.78,-124.29"/>
</g>
<!-- Node19 -->
<g id="node19" class="node">
<title>Node19</title>
<g id="a_node19"><a xlink:href="../../db/d72/ctextrendering_8cpp.html" target="_top" xlink:title=" ">
<polygon fill="white" stroke="black" points="1700.5,-56.5 1700.5,-75.5 1808.5,-75.5 1808.5,-56.5 1700.5,-56.5"/>
<text text-anchor="middle" x="1754.5" y="-63.5" font-family="Helvetica,sans-Serif" font-size="10.00">ctextrendering.cpp</text>
</a>
</g>
</g>
<!-- Node3&#45;&gt;Node19 -->
<g id="edge19" class="edge">
<title>Node3&#45;&gt;Node19</title>
<path fill="none" stroke="midnightblue" d="M2803.82,-120.25C2643.33,-117.87 2194.48,-108.58 1822.5,-76 1817.99,-75.61 1813.32,-75.13 1808.64,-74.6"/>
<polygon fill="midnightblue" stroke="midnightblue" points="2803.92,-123.76 2813.97,-120.4 2804.03,-116.76 2803.92,-123.76"/>
</g>
<!-- Node20 -->
<g id="node20" class="node">
<title>Node20</title>
<g id="a_node20"><a xlink:href="../../d1/df6/bibletime_8cpp.html" target="_top" xlink:title=" ">
<polygon fill="white" stroke="black" points="1723,-0.5 1723,-19.5 1806,-19.5 1806,-0.5 1723,-0.5"/>
<text text-anchor="middle" x="1764.5" y="-7.5" font-family="Helvetica,sans-Serif" font-size="10.00">bibletime.cpp</text>
</a>
</g>
</g>
<!-- Node3&#45;&gt;Node20 -->
<g id="edge20" class="edge">
<title>Node3&#45;&gt;Node20</title>
<path fill="none" stroke="midnightblue" d="M2803.78,-119.92C2602.53,-116.09 1965.11,-102.03 1876.5,-76 1835.73,-64.03 1794.11,-34.3 1775.12,-19.57"/>
<polygon fill="midnightblue" stroke="midnightblue" points="2803.81,-123.42 2813.88,-120.11 2803.95,-116.42 2803.81,-123.42"/>
</g>
<!-- Node21 -->
<g id="node21" class="node">
<title>Node21</title>
<g id="a_node21"><a xlink:href="../../d6/d96/bibletime__slots_8cpp.html" target="_top" xlink:title=" ">
<polygon fill="white" stroke="black" points="2048.5,-56.5 2048.5,-75.5 2160.5,-75.5 2160.5,-56.5 2048.5,-56.5"/>
<text text-anchor="middle" x="2104.5" y="-63.5" font-family="Helvetica,sans-Serif" font-size="10.00">bibletime_slots.cpp</text>
</a>
</g>
</g>
<!-- Node3&#45;&gt;Node21 -->
<g id="edge21" class="edge">
<title>Node3&#45;&gt;Node21</title>
<path fill="none" stroke="midnightblue" d="M2803.64,-118.55C2682.63,-113.36 2403.28,-99.72 2169.5,-76 2166.67,-75.71 2163.77,-75.4 2160.84,-75.06"/>
<polygon fill="midnightblue" stroke="midnightblue" points="2803.68,-122.06 2813.82,-118.99 2803.97,-115.06 2803.68,-122.06"/>
</g>
<!-- Node22 -->
<g id="node22" class="node">
<title>Node22</title>
<g id="a_node22"><a xlink:href="../../d5/d86/bibletimeapp_8cpp.html" target="_top" xlink:title=" ">
<polygon fill="white" stroke="black" points="1824,-0.5 1824,-19.5 1925,-19.5 1925,-0.5 1824,-0.5"/>
<text text-anchor="middle" x="1874.5" y="-7.5" font-family="Helvetica,sans-Serif" font-size="10.00">bibletimeapp.cpp</text>
</a>
</g>
</g>
<!-- Node3&#45;&gt;Node22 -->
<g id="edge22" class="edge">
<title>Node3&#45;&gt;Node22</title>
<path fill="none" stroke="midnightblue" d="M2803.71,-120.11C2596.59,-116.85 1929.33,-104.18 1893.5,-76 1876.31,-62.48 1874.07,-34.29 1874.13,-19.89"/>
<polygon fill="midnightblue" stroke="midnightblue" points="2803.74,-123.62 2813.8,-120.27 2803.85,-116.62 2803.74,-123.62"/>
</g>
<!-- Node23 -->
<g id="node23" class="node">
<title>Node23</title>
<g id="a_node23"><a xlink:href="../../d5/d00/bibletimeapp_8h.html" target="_top" xlink:title=" ">
<polygon fill="white" stroke="black" points="1902.5,-56.5 1902.5,-75.5 1992.5,-75.5 1992.5,-56.5 1902.5,-56.5"/>
<text text-anchor="middle" x="1947.5" y="-63.5" font-family="Helvetica,sans-Serif" font-size="10.00">bibletimeapp.h</text>
</a>
</g>
</g>
<!-- Node3&#45;&gt;Node23 -->
<g id="edge23" class="edge">
<title>Node3&#45;&gt;Node23</title>
<path fill="none" stroke="midnightblue" d="M2803.43,-119.87C2662.62,-116.82 2304.36,-106.45 2006.5,-76 2001.96,-75.54 1997.25,-74.97 1992.54,-74.34"/>
<polygon fill="midnightblue" stroke="midnightblue" points="2803.52,-123.37 2813.59,-120.09 2803.67,-116.38 2803.52,-123.37"/>
</g>
<!-- Node25 -->
<g id="node25" class="node">
<title>Node25</title>
<g id="a_node25"><a xlink:href="../../df/d0a/main_8cpp.html" target="_top" xlink:title=" ">
<polygon fill="white" stroke="black" points="2065.5,-0.5 2065.5,-19.5 2127.5,-19.5 2127.5,-0.5 2065.5,-0.5"/>
<text text-anchor="middle" x="2096.5" y="-7.5" font-family="Helvetica,sans-Serif" font-size="10.00">main.cpp</text>
</a>
</g>
</g>
<!-- Node3&#45;&gt;Node25 -->
<g id="edge47" class="edge">
<title>Node3&#45;&gt;Node25</title>
<path fill="none" stroke="midnightblue" d="M2803.68,-119.95C2617.4,-116.42 2065.71,-103.68 2039.5,-76 2020.92,-56.38 2056.65,-32.22 2079.5,-19.6"/>
<polygon fill="midnightblue" stroke="midnightblue" points="2803.78,-123.45 2813.85,-120.14 2803.92,-116.45 2803.78,-123.45"/>
</g>
<!-- Node26 -->
<g id="node26" class="node">
<title>Node26</title>
<g id="a_node26"><a xlink:href="../../d9/de6/cbookmarkindex_8cpp.html" target="_top" xlink:title=" ">
<polygon fill="white" stroke="black" points="2179,-56.5 2179,-75.5 2298,-75.5 2298,-56.5 2179,-56.5"/>
<text text-anchor="middle" x="2238.5" y="-63.5" font-family="Helvetica,sans-Serif" font-size="10.00">cbookmarkindex.cpp</text>
</a>
</g>
</g>
<!-- Node3&#45;&gt;Node26 -->
<g id="edge28" class="edge">
<title>Node3&#45;&gt;Node26</title>
<path fill="none" stroke="midnightblue" d="M2803.46,-117.1C2700.73,-110.31 2486.83,-95.19 2306.5,-76 2303.78,-75.71 2300.99,-75.4 2298.18,-75.07"/>
<polygon fill="midnightblue" stroke="midnightblue" points="2803.43,-120.61 2813.64,-117.77 2803.89,-113.62 2803.43,-120.61"/>
</g>
<!-- Node27 -->
<g id="node27" class="node">
<title>Node27</title>
<g id="a_node27"><a xlink:href="../../dc/d04/btbookshelfinstallfinalpage_8cpp.html" target="_top" xlink:title=" ">
<polygon fill="white" stroke="black" points="2316,-56.5 2316,-75.5 2485,-75.5 2485,-56.5 2316,-56.5"/>
<text text-anchor="middle" x="2400.5" y="-63.5" font-family="Helvetica,sans-Serif" font-size="10.00">btbookshelfinstallfinalpage.cpp</text>
</a>
</g>
</g>
<!-- Node3&#45;&gt;Node27 -->
<g id="edge29" class="edge">
<title>Node3&#45;&gt;Node27</title>
<path fill="none" stroke="midnightblue" d="M2803.97,-113.96C2719.12,-104.08 2565.02,-86.15 2473.79,-75.53"/>
<polygon fill="midnightblue" stroke="midnightblue" points="2803.62,-117.44 2813.96,-115.12 2804.43,-110.49 2803.62,-117.44"/>
</g>
<!-- Node28 -->
<g id="node28" class="node">
<title>Node28</title>
<g id="a_node28"><a xlink:href="../../d0/da5/btbookshelflanguagespage_8cpp.html" target="_top" xlink:title=" ">
<polygon fill="white" stroke="black" points="2502.5,-56.5 2502.5,-75.5 2670.5,-75.5 2670.5,-56.5 2502.5,-56.5"/>
<text text-anchor="middle" x="2586.5" y="-63.5" font-family="Helvetica,sans-Serif" font-size="10.00">btbookshelflanguagespage.cpp</text>
</a>
</g>
</g>
<!-- Node3&#45;&gt;Node28 -->
<g id="edge30" class="edge">
<title>Node3&#45;&gt;Node28</title>
<path fill="none" stroke="midnightblue" d="M2810.31,-110.47C2757.77,-100.27 2679.06,-84.98 2630.34,-75.52"/>
<polygon fill="midnightblue" stroke="midnightblue" points="2809.97,-113.97 2820.45,-112.44 2811.3,-107.1 2809.97,-113.97"/>
</g>
<!-- Node29 -->
<g id="node29" class="node">
<title>Node29</title>
<g id="a_node29"><a xlink:href="../../d0/da0/btbookshelfremovefinalpage_8cpp.html" target="_top" xlink:title=" ">
<polygon fill="white" stroke="black" points="2688,-56.5 2688,-75.5 2865,-75.5 2865,-56.5 2688,-56.5"/>
<text text-anchor="middle" x="2776.5" y="-63.5" font-family="Helvetica,sans-Serif" font-size="10.00">btbookshelfremovefinalpage.cpp</text>
</a>
</g>
</g>
<!-- Node3&#45;&gt;Node29 -->
<g id="edge31" class="edge">
<title>Node3&#45;&gt;Node29</title>
<path fill="none" stroke="midnightblue" d="M2841.52,-106.9C2825.39,-97 2804.32,-84.07 2790.6,-75.65"/>
<polygon fill="midnightblue" stroke="midnightblue" points="2840.01,-110.08 2850.36,-112.32 2843.67,-104.11 2840.01,-110.08"/>
</g>
<!-- Node30 -->
<g id="node30" class="node">
<title>Node30</title>
<g id="a_node30"><a xlink:href="../../de/db2/btbookshelftaskpage_8cpp.html" target="_top" xlink:title=" ">
<polygon fill="white" stroke="black" points="2883,-56.5 2883,-75.5 3022,-75.5 3022,-56.5 2883,-56.5"/>
<text text-anchor="middle" x="2952.5" y="-63.5" font-family="Helvetica,sans-Serif" font-size="10.00">btbookshelftaskpage.cpp</text>
</a>
</g>
</g>
<!-- Node3&#45;&gt;Node30 -->
<g id="edge32" class="edge">
<title>Node3&#45;&gt;Node30</title>
<path fill="none" stroke="midnightblue" d="M2887.48,-106.9C2903.61,-97 2924.68,-84.07 2938.4,-75.65"/>
<polygon fill="midnightblue" stroke="midnightblue" points="2885.33,-104.11 2878.64,-112.32 2888.99,-110.08 2885.33,-104.11"/>
</g>
<!-- Node31 -->
<g id="node31" class="node">
<title>Node31</title>
<g id="a_node31"><a xlink:href="../../d9/d03/btbookshelfworkspage_8cpp.html" target="_top" xlink:title=" ">
<polygon fill="white" stroke="black" points="3083,-0.5 3083,-19.5 3230,-19.5 3230,-0.5 3083,-0.5"/>
<text text-anchor="middle" x="3156.5" y="-7.5" font-family="Helvetica,sans-Serif" font-size="10.00">btbookshelfworkspage.cpp</text>
</a>
</g>
</g>
<!-- Node3&#45;&gt;Node31 -->
<g id="edge33" class="edge">
<title>Node3&#45;&gt;Node31</title>
<path fill="none" stroke="midnightblue" d="M2925.14,-121.55C3008.63,-120.87 3152.44,-114.01 3185.5,-76 3200.26,-59.03 3179.37,-33.34 3166.07,-19.9"/>
<polygon fill="midnightblue" stroke="midnightblue" points="2925,-118.05 2915.02,-121.61 2925.04,-125.05 2925,-118.05"/>
</g>
<!-- Node32 -->
<g id="node32" class="node">
<title>Node32</title>
<g id="a_node32"><a xlink:href="../../d6/d8d/btbookshelfworkspage_8h.html" target="_top" xlink:title=" ">
<polygon fill="white" stroke="red" points="3040.5,-56.5 3040.5,-75.5 3176.5,-75.5 3176.5,-56.5 3040.5,-56.5"/>
<text text-anchor="middle" x="3108.5" y="-63.5" font-family="Helvetica,sans-Serif" font-size="10.00">btbookshelfworkspage.h</text>
</a>
</g>
</g>
<!-- Node3&#45;&gt;Node32 -->
<g id="edge34" class="edge">
<title>Node3&#45;&gt;Node32</title>
<path fill="none" stroke="midnightblue" d="M2912.93,-110.28C2959.04,-100.08 3027.53,-84.92 3070.02,-75.52"/>
<polygon fill="midnightblue" stroke="midnightblue" points="2912.17,-106.87 2903.16,-112.44 2913.68,-113.7 2912.17,-106.87"/>
</g>
<!-- Node34 -->
<g id="node33" class="node">
<title>Node34</title>
<g id="a_node33"><a xlink:href="../../dd/dba/btinstallpagemodel_8cpp.html" target="_top" xlink:title=" ">
<polygon fill="white" stroke="black" points="3233,-56.5 3233,-75.5 3364,-75.5 3364,-56.5 3233,-56.5"/>
<text text-anchor="middle" x="3298.5" y="-63.5" font-family="Helvetica,sans-Serif" font-size="10.00">btinstallpagemodel.cpp</text>
</a>
</g>
</g>
<!-- Node3&#45;&gt;Node34 -->
<g id="edge36" class="edge">
<title>Node3&#45;&gt;Node34</title>
<path fill="none" stroke="midnightblue" d="M2925.18,-113.45C3006.18,-103.37 3149.1,-85.59 3232.64,-75.19"/>
<polygon fill="midnightblue" stroke="midnightblue" points="2924.63,-109.99 2915.13,-114.7 2925.49,-116.94 2924.63,-109.99"/>
</g>
<!-- Node35 -->
<g id="node34" class="node">
<title>Node35</title>
<g id="a_node34"><a xlink:href="../../df/d88/btbookshelfdockwidget_8cpp.html" target="_top" xlink:title=" ">
<polygon fill="white" stroke="black" points="3382,-56.5 3382,-75.5 3533,-75.5 3533,-56.5 3382,-56.5"/>
<text text-anchor="middle" x="3457.5" y="-63.5" font-family="Helvetica,sans-Serif" font-size="10.00">btbookshelfdockwidget.cpp</text>
</a>
</g>
</g>
<!-- Node3&#45;&gt;Node35 -->
<g id="edge37" class="edge">
<title>Node3&#45;&gt;Node35</title>
<path fill="none" stroke="midnightblue" d="M2925.15,-116C3020.58,-108.06 3211.64,-91.82 3373.5,-76 3376.27,-75.73 3379.1,-75.45 3381.95,-75.16"/>
<polygon fill="midnightblue" stroke="midnightblue" points="2924.78,-112.52 2915.1,-116.84 2925.36,-119.5 2924.78,-112.52"/>
</g>
<!-- Node36 -->
<g id="node35" class="node">
<title>Node36</title>
<g id="a_node35"><a xlink:href="../../d9/d62/btopenworkaction_8cpp.html" target="_top" xlink:title=" ">
<polygon fill="white" stroke="black" points="3551.5,-56.5 3551.5,-75.5 3675.5,-75.5 3675.5,-56.5 3551.5,-56.5"/>
<text text-anchor="middle" x="3613.5" y="-63.5" font-family="Helvetica,sans-Serif" font-size="10.00">btopenworkaction.cpp</text>
</a>
</g>
</g>
<!-- Node3&#45;&gt;Node36 -->
<g id="edge38" class="edge">
<title>Node3&#45;&gt;Node36</title>
<path fill="none" stroke="midnightblue" d="M2925.54,-118.18C3044.44,-112.4 3315.39,-97.91 3542.5,-76 3545.34,-75.73 3548.25,-75.43 3551.19,-75.11"/>
<polygon fill="midnightblue" stroke="midnightblue" points="2925.01,-114.7 2915.19,-118.67 2925.35,-121.69 2925.01,-114.7"/>
</g>
<!-- Node37 -->
<g id="node36" class="node">
<title>Node37</title>
<g id="a_node36"><a xlink:href="../../d4/d3a/bttextbrowser_8cpp.html" target="_top" xlink:title=" ">
<polygon fill="white" stroke="black" points="3693.5,-56.5 3693.5,-75.5 3797.5,-75.5 3797.5,-56.5 3693.5,-56.5"/>
<text text-anchor="middle" x="3745.5" y="-63.5" font-family="Helvetica,sans-Serif" font-size="10.00">bttextbrowser.cpp</text>
</a>
</g>
</g>
<!-- Node3&#45;&gt;Node37 -->
<g id="edge39" class="edge">
<title>Node3&#45;&gt;Node37</title>
<path fill="none" stroke="midnightblue" d="M2925.24,-119.57C3061.42,-115.95 3401.43,-104.59 3684.5,-76 3687.38,-75.71 3690.32,-75.38 3693.3,-75.02"/>
<polygon fill="midnightblue" stroke="midnightblue" points="2924.92,-116.08 2915.01,-119.84 2925.1,-123.08 2924.92,-116.08"/>
</g>
<!-- Node38 -->
<g id="node37" class="node">
<title>Node38</title>
<g id="a_node37"><a xlink:href="../../de/db2/btmodelviewreaddisplay_8cpp.html" target="_top" xlink:title=" ">
<polygon fill="white" stroke="black" points="3815.5,-56.5 3815.5,-75.5 3971.5,-75.5 3971.5,-56.5 3815.5,-56.5"/>
<text text-anchor="middle" x="3893.5" y="-63.5" font-family="Helvetica,sans-Serif" font-size="10.00">btmodelviewreaddisplay.cpp</text>
</a>
</g>
</g>
<!-- Node3&#45;&gt;Node38 -->
<g id="edge40" class="edge">
<title>Node3&#45;&gt;Node38</title>
<path fill="none" stroke="midnightblue" d="M2925.47,-119.26C3075.49,-114.71 3474.47,-101.09 3806.5,-76 3809.38,-75.78 3812.31,-75.55 3815.26,-75.3"/>
<polygon fill="midnightblue" stroke="midnightblue" points="2925,-115.77 2915.11,-119.57 2925.21,-122.77 2925,-115.77"/>
</g>
<!-- Node39 -->
<g id="node38" class="node">
<title>Node39</title>
<g id="a_node38"><a xlink:href="../../de/d6e/btqmlinterface_8cpp.html" target="_top" xlink:title=" ">
<polygon fill="white" stroke="black" points="3990,-56.5 3990,-75.5 4099,-75.5 4099,-56.5 3990,-56.5"/>
<text text-anchor="middle" x="4044.5" y="-63.5" font-family="Helvetica,sans-Serif" font-size="10.00">btqmlinterface.cpp</text>
</a>
</g>
</g>
<!-- Node3&#45;&gt;Node39 -->
<g id="edge41" class="edge">
<title>Node3&#45;&gt;Node39</title>
<path fill="none" stroke="midnightblue" d="M2925.37,-120.67C3093.61,-119.29 3579,-112.23 3980.5,-76 3983.52,-75.73 3986.61,-75.41 3989.73,-75.07"/>
<polygon fill="midnightblue" stroke="midnightblue" points="2925.2,-117.17 2915.23,-120.75 2925.25,-124.17 2925.2,-117.17"/>
</g>
<!-- Node40 -->
<g id="node39" class="node">
<title>Node40</title>
<g id="a_node39"><a xlink:href="../../d9/d0c/btquickwidget_8cpp.html" target="_top" xlink:title=" ">
<polygon fill="white" stroke="black" points="4117.5,-56.5 4117.5,-75.5 4223.5,-75.5 4223.5,-56.5 4117.5,-56.5"/>
<text text-anchor="middle" x="4170.5" y="-63.5" font-family="Helvetica,sans-Serif" font-size="10.00">btquickwidget.cpp</text>
</a>
</g>
</g>
<!-- Node3&#45;&gt;Node40 -->
<g id="edge42" class="edge">
<title>Node3&#45;&gt;Node40</title>
<path fill="none" stroke="midnightblue" d="M2925.39,-121.12C3106.16,-120.99 3655.35,-116.97 4108.5,-76 4111.42,-75.74 4114.42,-75.43 4117.44,-75.09"/>
<polygon fill="midnightblue" stroke="midnightblue" points="2925.28,-117.62 2915.28,-121.13 2925.28,-124.62 2925.28,-117.62"/>
</g>
<!-- Node41 -->
<g id="node40" class="node">
<title>Node41</title>
<g id="a_node40"><a xlink:href="../../dd/ddc/btmodulechoosermenu_8cpp.html" target="_top" xlink:title=" ">
<polygon fill="white" stroke="black" points="4242,-56.5 4242,-75.5 4391,-75.5 4391,-56.5 4242,-56.5"/>
<text text-anchor="middle" x="4316.5" y="-63.5" font-family="Helvetica,sans-Serif" font-size="10.00">btmodulechoosermenu.cpp</text>
</a>
</g>
</g>
<!-- Node3&#45;&gt;Node41 -->
<g id="edge43" class="edge">
<title>Node3&#45;&gt;Node41</title>
<path fill="none" stroke="midnightblue" d="M2925.37,-120.6C3117.5,-118.99 3728.27,-111.26 4232.5,-76 4235.57,-75.79 4238.71,-75.55 4241.87,-75.29"/>
<polygon fill="midnightblue" stroke="midnightblue" points="2925.16,-117.1 2915.19,-120.68 2925.22,-124.1 2925.16,-117.1"/>
</g>
<!-- Node42 -->
<g id="node41" class="node">
<title>Node42</title>
<g id="a_node41"><a xlink:href="../../de/da4/cbiblereadwindow_8cpp.html" target="_top" xlink:title=" ">
<polygon fill="white" stroke="black" points="4409,-56.5 4409,-75.5 4534,-75.5 4534,-56.5 4409,-56.5"/>
<text text-anchor="middle" x="4471.5" y="-63.5" font-family="Helvetica,sans-Serif" font-size="10.00">cbiblereadwindow.cpp</text>
</a>
</g>
</g>
<!-- Node3&#45;&gt;Node42 -->
<g id="edge44" class="edge">
<title>Node3&#45;&gt;Node42</title>
<path fill="none" stroke="midnightblue" d="M2925.37,-121.33C3132.37,-122 3828.01,-120.57 4400.5,-76 4403.23,-75.79 4406.01,-75.55 4408.81,-75.28"/>
<polygon fill="midnightblue" stroke="midnightblue" points="2925.32,-117.83 2915.31,-121.29 2925.3,-124.83 2925.32,-117.83"/>
</g>
<!-- Node43 -->
<g id="node42" class="node">
<title>Node43</title>
<g id="a_node42"><a xlink:href="../../d0/d6f/ccommentaryreadwindow_8cpp.html" target="_top" xlink:title=" ">
<polygon fill="white" stroke="black" points="4552,-56.5 4552,-75.5 4715,-75.5 4715,-56.5 4552,-56.5"/>
<text text-anchor="middle" x="4633.5" y="-63.5" font-family="Helvetica,sans-Serif" font-size="10.00">ccommentaryreadwindow.cpp</text>
</a>
</g>
</g>
<!-- Node3&#45;&gt;Node43 -->
<g id="edge45" class="edge">
<title>Node3&#45;&gt;Node43</title>
<path fill="none" stroke="midnightblue" d="M2925.35,-120.97C3144.2,-120.52 3911.79,-116 4543.5,-76 4546.16,-75.83 4548.87,-75.65 4551.6,-75.45"/>
<polygon fill="midnightblue" stroke="midnightblue" points="2925.03,-117.47 2915.04,-120.99 2925.05,-124.47 2925.03,-117.47"/>
</g>
<!-- Node44 -->
<g id="node43" class="node">
<title>Node44</title>
<g id="a_node43"><a xlink:href="../../d2/d26/cdisplaywindow_8cpp.html" target="_top" xlink:title=" ">
<polygon fill="white" stroke="black" points="4733.5,-56.5 4733.5,-75.5 4847.5,-75.5 4847.5,-56.5 4733.5,-56.5"/>
<text text-anchor="middle" x="4790.5" y="-63.5" font-family="Helvetica,sans-Serif" font-size="10.00">cdisplaywindow.cpp</text>
</a>
</g>
</g>
<!-- Node3&#45;&gt;Node44 -->
<g id="edge46" class="edge">
<title>Node3&#45;&gt;Node44</title>
<path fill="none" stroke="midnightblue" d="M2925.68,-120.44C3205.25,-117.72 4363.09,-104.92 4724.5,-76 4727.38,-75.77 4730.33,-75.5 4733.3,-75.2"/>
<polygon fill="midnightblue" stroke="midnightblue" points="2925.3,-116.94 2915.34,-120.54 2925.37,-123.94 2925.3,-116.94"/>
</g>
<!-- Node45 -->
<g id="node44" class="node">
<title>Node45</title>
<g id="a_node44"><a xlink:href="../../d4/d57/btindexdialog_8cpp.html" target="_top" xlink:title=" ">
<polygon fill="white" stroke="black" points="4865.5,-56.5 4865.5,-75.5 4969.5,-75.5 4969.5,-56.5 4865.5,-56.5"/>
<text text-anchor="middle" x="4917.5" y="-63.5" font-family="Helvetica,sans-Serif" font-size="10.00">btindexdialog.cpp</text>
</a>
</g>
</g>
<!-- Node3&#45;&gt;Node45 -->
<g id="edge48" class="edge">
<title>Node3&#45;&gt;Node45</title>
<path fill="none" stroke="midnightblue" d="M2925.7,-120.64C3217.31,-118.77 4467.72,-108.94 4856.5,-76 4859.38,-75.76 4862.33,-75.46 4865.31,-75.13"/>
<polygon fill="midnightblue" stroke="midnightblue" points="2925.31,-117.14 2915.33,-120.71 2925.35,-124.14 2925.31,-117.14"/>
</g>
<!-- Node46 -->
<g id="node45" class="node">
<title>Node46</title>
<g id="a_node45"><a xlink:href="../../dc/dab/btsearchmodulechooserdialog_8cpp.html" target="_top" xlink:title=" ">
<polygon fill="white" stroke="black" points="4987.5,-56.5 4987.5,-75.5 5171.5,-75.5 5171.5,-56.5 4987.5,-56.5"/>
<text text-anchor="middle" x="5079.5" y="-63.5" font-family="Helvetica,sans-Serif" font-size="10.00">btsearchmodulechooserdialog.cpp</text>
</a>
</g>
</g>
<!-- Node3&#45;&gt;Node46 -->
<g id="edge49" class="edge">
<title>Node3&#45;&gt;Node46</title>
<path fill="none" stroke="midnightblue" d="M2925.33,-121.21C3177.69,-121.75 4166.87,-120.75 4978.5,-76 4981.4,-75.84 4984.35,-75.66 4987.32,-75.47"/>
<polygon fill="midnightblue" stroke="midnightblue" points="2925.28,-117.71 2915.27,-121.18 2925.26,-124.71 2925.28,-117.71"/>
</g>
<!-- Node47 -->
<g id="node46" class="node">
<title>Node47</title>
<g id="a_node46"><a xlink:href="../../d4/d4d/btsearchoptionsarea_8cpp.html" target="_top" xlink:title=" ">
<polygon fill="white" stroke="black" points="5190,-56.5 5190,-75.5 5327,-75.5 5327,-56.5 5190,-56.5"/>
<text text-anchor="middle" x="5258.5" y="-63.5" font-family="Helvetica,sans-Serif" font-size="10.00">btsearchoptionsarea.cpp</text>
</a>
</g>
</g>
<!-- Node3&#45;&gt;Node47 -->
<g id="edge50" class="edge">
<title>Node3&#45;&gt;Node47</title>
<path fill="none" stroke="midnightblue" d="M2925.51,-120.6C3244.51,-118.42 4723.25,-106.75 5180.5,-76 5183.49,-75.8 5186.55,-75.57 5189.63,-75.31"/>
<polygon fill="midnightblue" stroke="midnightblue" points="2925.07,-117.11 2915.1,-120.68 2925.12,-124.11 2925.07,-117.11"/>
</g>
<!-- Node48 -->
<g id="node47" class="node">
<title>Node48</title>
<g id="a_node47"><a xlink:href="../../d7/d5d/cmoduleresultview_8cpp.html" target="_top" xlink:title=" ">
<polygon fill="white" stroke="black" points="5345,-56.5 5345,-75.5 5474,-75.5 5474,-56.5 5345,-56.5"/>
<text text-anchor="middle" x="5409.5" y="-63.5" font-family="Helvetica,sans-Serif" font-size="10.00">cmoduleresultview.cpp</text>
</a>
</g>
</g>
<!-- Node3&#45;&gt;Node48 -->
<g id="edge51" class="edge">
<title>Node3&#45;&gt;Node48</title>
<path fill="none" stroke="midnightblue" d="M2925.85,-120.75C3258.28,-119.29 4846.74,-110.55 5336.5,-76 5339.17,-75.81 5341.9,-75.59 5344.66,-75.35"/>
<polygon fill="midnightblue" stroke="midnightblue" points="2925.45,-117.26 2915.47,-120.8 2925.48,-124.26 2925.45,-117.26"/>
</g>
<!-- Node49 -->
<g id="node48" class="node">
<title>Node49</title>
<g id="a_node48"><a xlink:href="../../d2/d9d/crangechooserdialog_8cpp.html" target="_top" xlink:title=" ">
<polygon fill="white" stroke="black" points="5492.5,-56.5 5492.5,-75.5 5630.5,-75.5 5630.5,-56.5 5492.5,-56.5"/>
<text text-anchor="middle" x="5561.5" y="-63.5" font-family="Helvetica,sans-Serif" font-size="10.00">crangechooserdialog.cpp</text>
</a>
</g>
</g>
<!-- Node3&#45;&gt;Node49 -->
<g id="edge52" class="edge">
<title>Node3&#45;&gt;Node49</title>
<path fill="none" stroke="midnightblue" d="M2925.32,-120.76C3268.15,-119.31 4962.39,-110.46 5483.5,-76 5486.36,-75.81 5489.27,-75.59 5492.21,-75.35"/>
<polygon fill="midnightblue" stroke="midnightblue" points="2925.09,-117.26 2915.1,-120.81 2925.12,-124.26 2925.09,-117.26"/>
</g>
<!-- Node50 -->
<g id="node49" class="node">
<title>Node50</title>
<g id="a_node49"><a xlink:href="../../d5/d72/btfontsettings_8cpp.html" target="_top" xlink:title=" ">
<polygon fill="white" stroke="black" points="5649,-56.5 5649,-75.5 5754,-75.5 5754,-56.5 5649,-56.5"/>
<text text-anchor="middle" x="5701.5" y="-63.5" font-family="Helvetica,sans-Serif" font-size="10.00">btfontsettings.cpp</text>
</a>
</g>
</g>
<!-- Node3&#45;&gt;Node50 -->
<g id="edge53" class="edge">
<title>Node3&#45;&gt;Node50</title>
<path fill="none" stroke="midnightblue" d="M2925.25,-121.07C3279.88,-121.34 5086.03,-120.48 5639.5,-76 5642.54,-75.76 5645.65,-75.46 5648.79,-75.12"/>
<polygon fill="midnightblue" stroke="midnightblue" points="2925.18,-117.57 2915.18,-121.07 2925.18,-124.57 2925.18,-117.57"/>
</g>
<!-- Node51 -->
<g id="node50" class="node">
<title>Node51</title>
<g id="a_node50"><a xlink:href="../../d6/dfe/btstandardworkstab_8cpp.html" target="_top" xlink:title=" ">
<polygon fill="white" stroke="black" points="5772.5,-56.5 5772.5,-75.5 5906.5,-75.5 5906.5,-56.5 5772.5,-56.5"/>
<text text-anchor="middle" x="5839.5" y="-63.5" font-family="Helvetica,sans-Serif" font-size="10.00">btstandardworkstab.cpp</text>
</a>
</g>
</g>
<!-- Node3&#45;&gt;Node51 -->
<g id="edge54" class="edge">
<title>Node3&#45;&gt;Node51</title>
<path fill="none" stroke="midnightblue" d="M2925.31,-120.91C3289.29,-120.21 5183.34,-114.75 5763.5,-76 5766.42,-75.81 5769.39,-75.58 5772.4,-75.32"/>
<polygon fill="midnightblue" stroke="midnightblue" points="2925.23,-117.41 2915.24,-120.92 2925.24,-124.41 2925.23,-117.41"/>
</g>
<!-- Node23&#45;&gt;Node20 -->
<g id="edge24" class="edge">
<title>Node23&#45;&gt;Node20</title>
<path fill="none" stroke="midnightblue" d="M1908.76,-53.57C1874.24,-43.38 1824.49,-28.7 1793.36,-19.52"/>
<polygon fill="midnightblue" stroke="midnightblue" points="1907.92,-56.97 1918.5,-56.44 1909.9,-50.26 1907.92,-56.97"/>
</g>
<!-- Node23&#45;&gt;Node22 -->
<g id="edge26" class="edge">
<title>Node23&#45;&gt;Node22</title>
<path fill="none" stroke="midnightblue" d="M1927.36,-50.1C1914.22,-40.38 1897.52,-28.03 1886.44,-19.83"/>
<polygon fill="midnightblue" stroke="midnightblue" points="1925.65,-53.19 1935.77,-56.32 1929.81,-47.56 1925.65,-53.19"/>
</g>
<!-- Node24 -->
<g id="node24" class="node">
<title>Node24</title>
<g id="a_node24"><a xlink:href="../../da/dc7/bibletime__init_8cpp.html" target="_top" xlink:title=" ">
<polygon fill="white" stroke="black" points="1943.5,-0.5 1943.5,-19.5 2047.5,-19.5 2047.5,-0.5 1943.5,-0.5"/>
<text text-anchor="middle" x="1995.5" y="-7.5" font-family="Helvetica,sans-Serif" font-size="10.00">bibletime_init.cpp</text>
</a>
</g>
</g>
<!-- Node23&#45;&gt;Node24 -->
<g id="edge25" class="edge">
<title>Node23&#45;&gt;Node24</title>
<path fill="none" stroke="midnightblue" d="M1962.23,-48.43C1970.64,-38.97 1980.85,-27.48 1987.72,-19.75"/>
<polygon fill="midnightblue" stroke="midnightblue" points="1959.45,-46.28 1955.43,-56.08 1964.69,-50.93 1959.45,-46.28"/>
</g>
<!-- Node23&#45;&gt;Node25 -->
<g id="edge27" class="edge">
<title>Node23&#45;&gt;Node25</title>
<path fill="none" stroke="midnightblue" d="M1980.87,-52.91C2008.88,-42.75 2048.2,-28.51 2073,-19.52"/>
<polygon fill="midnightblue" stroke="midnightblue" points="1979.32,-49.75 1971.11,-56.44 1981.7,-56.33 1979.32,-49.75"/>
</g>
<!-- Node32&#45;&gt;Node31 -->
<g id="edge35" class="edge">
<title>Node32&#45;&gt;Node31</title>
<path fill="none" stroke="midnightblue" d="M3123.23,-48.43C3131.64,-38.97 3141.85,-27.48 3148.72,-19.75"/>
<polygon fill="midnightblue" stroke="midnightblue" points="3120.45,-46.28 3116.43,-56.08 3125.69,-50.93 3120.45,-46.28"/>
</g>
</g>
</svg>
        <g id="navigator" transform="translate(0 0)" fill="#404254">
                <rect fill="#f2f5e9" fill-opacity="0.5" stroke="#606060" stroke-width=".5" x="0" y="0" width="60" height="60"/>
                <use id="zoomplus" xlink:href="#zoomPlus" x="17" y="9" onmousedown="handleZoom(evt,'in')"/>
                <use id="zoomminus" xlink:href="#zoomMin" x="42" y="9" onmousedown="handleZoom(evt,'out')"/>
                <use id="reset" xlink:href="#resetDef" x="30" y="36" onmousedown="handleReset()"/>
                <g id="arrowUp" xlink:href="#dirArrow" transform="translate(30 24)" onmousedown="handlePan(0,-1)">
                  <use xlink:href="#rim" fill="#404040">
                        <set attributeName="fill" to="#808080" begin="arrowUp.mouseover" end="arrowUp.mouseout"/>
                  </use>
                  <path fill="none" stroke="white" stroke-width="1.5" d="M0,-3.0v7 M-2.5,-0.5L0,-3.0L2.5,-0.5"/>
                </g>
                <g id="arrowRight" xlink:href="#dirArrow" transform="rotate(90) translate(36 -43)" onmousedown="handlePan(1,0)">
                  <use xlink:href="#rim" fill="#404040">
                        <set attributeName="fill" to="#808080" begin="arrowRight.mouseover" end="arrowRight.mouseout"/>
                  </use>
                  <path fill="none" stroke="white" stroke-width="1.5" d="M0,-3.0v7 M-2.5,-0.5L0,-3.0L2.5,-0.5"/>
                </g>
                <g id="arrowDown" xlink:href="#dirArrow" transform="rotate(180) translate(-30 -48)" onmousedown="handlePan(0,1)">
                  <use xlink:href="#rim" fill="#404040">
                        <set attributeName="fill" to="#808080" begin="arrowDown.mouseover" end="arrowDown.mouseout"/>
                  </use>
                  <path fill="none" stroke="white" stroke-width="1.5" d="M0,-3.0v7 M-2.5,-0.5L0,-3.0L2.5,-0.5"/>
                </g>
                <g id="arrowLeft" xlink:href="#dirArrow" transform="rotate(270) translate(-36 17)" onmousedown="handlePan(-1,0)">
                  <use xlink:href="#rim" fill="#404040">
                        <set attributeName="fill" to="#808080" begin="arrowLeft.mouseover" end="arrowLeft.mouseout"/>
                  </use>
                  <path fill="none" stroke="white" stroke-width="1.5" d="M0,-3.0v7 M-2.5,-0.5L0,-3.0L2.5,-0.5"/>
                </g>
        </g>
        <svg viewBox="0 0 15 15" width="100%" height="30px" preserveAspectRatio="xMaxYMin meet">
         <g id="arrow_out" transform="scale(0.3 0.3)">
          <a xlink:href="osistohtml_8h__dep__incl_org.svg" target="_base">
           <rect id="button" ry="5" rx="5" y="6" x="6" height="38" width="38"
                fill="#f2f5e9" fill-opacity="0.5" stroke="#606060" stroke-width="1.0"/>
           <path id="arrow"
             d="M 11.500037,31.436501 C 11.940474,20.09759 22.043105,11.32322 32.158766,21.979434 L 37.068811,17.246167 C 37.068811,17.246167 37.088388,32 37.088388,32 L 22.160133,31.978069 C 22.160133,31.978069 26.997745,27.140456 26.997745,27.140456 C 18.528582,18.264221 13.291696,25.230495 11.500037,31.436501 z"
             style="fill:#404040;"/>
          </a>
         </g>
        </svg>
</svg>
