<?xml version="1.0" encoding="UTF-8" standalone="no"?>
<!DOCTYPE svg PUBLIC "-//W3C//DTD SVG 1.1//EN"
 "http://www.w3.org/Graphics/SVG/1.1/DTD/svg11.dtd">
<!-- Generated by graphviz version 2.43.0 (0)
 -->
<!-- Title: Search::CSearchResultView Pages: 1 -->
<svg width="158pt" height="358pt"
 viewBox="0.00 0.00 158.00 358.00" xmlns="http://www.w3.org/2000/svg" xmlns:xlink="http://www.w3.org/1999/xlink">
<g id="graph0" class="graph" transform="scale(1 1) rotate(0) translate(4 354)">
<title>Search::CSearchResultView</title>
<polygon fill="white" stroke="transparent" points="-4,4 -4,-354 154,-354 154,4 -4,4"/>
<!-- Node1 -->
<g id="node1" class="node">
<title>Node1</title>
<g id="a_node1"><a xlink:title=" ">
<polygon fill="#bfbfbf" stroke="black" points="0,-0.5 0,-255.5 150,-255.5 150,-0.5 0,-0.5"/>
<text text-anchor="middle" x="75" y="-243.5" font-family="Helvetica,sans-Serif" font-size="10.00">Search::CSearchResultView</text>
<polyline fill="none" stroke="black" points="0,-236.5 150,-236.5 "/>
<text text-anchor="start" x="8" y="-224.5" font-family="Helvetica,sans-Serif" font-size="10.00">+ copy</text>
<text text-anchor="start" x="8" y="-213.5" font-family="Helvetica,sans-Serif" font-size="10.00">+ copyMenu</text>
<text text-anchor="start" x="8" y="-202.5" font-family="Helvetica,sans-Serif" font-size="10.00">+ print</text>
<text text-anchor="start" x="8" y="-191.5" font-family="Helvetica,sans-Serif" font-size="10.00">+ printMenu</text>
<text text-anchor="start" x="8" y="-180.5" font-family="Helvetica,sans-Serif" font-size="10.00">+ result</text>
<text text-anchor="start" x="8" y="-169.5" font-family="Helvetica,sans-Serif" font-size="10.00">+ resultWithText</text>
<text text-anchor="start" x="8" y="-158.5" font-family="Helvetica,sans-Serif" font-size="10.00">+ save</text>
<text text-anchor="start" x="8" y="-147.5" font-family="Helvetica,sans-Serif" font-size="10.00">+ saveMenu</text>
<text text-anchor="start" x="8" y="-136.5" font-family="Helvetica,sans-Serif" font-size="10.00">&#45; m_actions</text>
<text text-anchor="start" x="8" y="-125.5" font-family="Helvetica,sans-Serif" font-size="10.00">&#45; m_module</text>
<text text-anchor="start" x="8" y="-114.5" font-family="Helvetica,sans-Serif" font-size="10.00">&#45; m_popup</text>
<polyline fill="none" stroke="black" points="0,-107.5 150,-107.5 "/>
<text text-anchor="start" x="8" y="-95.5" font-family="Helvetica,sans-Serif" font-size="10.00">+ CSearchResultView()</text>
<text text-anchor="start" x="8" y="-84.5" font-family="Helvetica,sans-Serif" font-size="10.00">+ module()</text>
<text text-anchor="start" x="8" y="-73.5" font-family="Helvetica,sans-Serif" font-size="10.00">+ contextMenuEvent()</text>
<text text-anchor="start" x="8" y="-62.5" font-family="Helvetica,sans-Serif" font-size="10.00">+ setupStrongsTree()</text>
<text text-anchor="start" x="8" y="-51.5" font-family="Helvetica,sans-Serif" font-size="10.00">+ setupTree()</text>
<text text-anchor="start" x="8" y="-40.5" font-family="Helvetica,sans-Serif" font-size="10.00"># initConnections()</text>
<text text-anchor="start" x="8" y="-29.5" font-family="Helvetica,sans-Serif" font-size="10.00"># initView()</text>
<text text-anchor="start" x="8" y="-18.5" font-family="Helvetica,sans-Serif" font-size="10.00"># mimeData()</text>
<text text-anchor="start" x="8" y="-7.5" font-family="Helvetica,sans-Serif" font-size="10.00"># mimeTypes()</text>
</a>
</g>
</g>
<!-- Node2 -->
<g id="node2" class="node">
<title>Node2</title>
<g id="a_node2"><a xlink:href="../../d3/d5f/classQTreeWidget.html" target="_top" xlink:title=" ">
<polygon fill="white" stroke="black" points="35.5,-292.5 35.5,-349.5 114.5,-349.5 114.5,-292.5 35.5,-292.5"/>
<text text-anchor="middle" x="75" y="-337.5" font-family="Helvetica,sans-Serif" font-size="10.00">QTreeWidget</text>
<polyline fill="none" stroke="black" points="35.5,-330.5 114.5,-330.5 "/>
<text text-anchor="middle" x="75" y="-318.5" font-family="Helvetica,sans-Serif" font-size="10.00"> </text>
<polyline fill="none" stroke="black" points="35.5,-311.5 114.5,-311.5 "/>
<text text-anchor="middle" x="75" y="-299.5" font-family="Helvetica,sans-Serif" font-size="10.00"> </text>
</a>
</g>
</g>
<!-- Node2&#45;&gt;Node1 -->
<g id="edge1" class="edge">
<title>Node2&#45;&gt;Node1</title>
<path fill="none" stroke="midnightblue" d="M75,-282.2C75,-274.16 75,-265.25 75,-255.88"/>
<polygon fill="none" stroke="midnightblue" points="71.5,-282.23 75,-292.23 78.5,-282.23 71.5,-282.23"/>
</g>
</g>
</svg>
