<?xml version="1.0" encoding="UTF-8" standalone="no"?>
<!DOCTYPE svg PUBLIC "-//W3C//DTD SVG 1.1//EN"
 "http://www.w3.org/Graphics/SVG/1.1/DTD/svg11.dtd">
<!-- Generated by graphviz version 2.43.0 (0)
 -->
<!-- Title: BtTextWindowHeader Pages: 1 -->
<svg width="264pt" height="281pt"
 viewBox="0.00 0.00 264.00 281.00" xmlns="http://www.w3.org/2000/svg" xmlns:xlink="http://www.w3.org/1999/xlink">
<g id="graph0" class="graph" transform="scale(1 1) rotate(0) translate(4 277)">
<title>BtTextWindowHeader</title>
<polygon fill="white" stroke="transparent" points="-4,4 -4,-277 260,-277 260,4 -4,4"/>
<!-- Node1 -->
<g id="node1" class="node">
<title>Node1</title>
<g id="a_node1"><a xlink:title=" ">
<polygon fill="#bfbfbf" stroke="black" points="8,-0.5 8,-134.5 187,-134.5 187,-0.5 8,-0.5"/>
<text text-anchor="middle" x="97.5" y="-122.5" font-family="Helvetica,sans-Serif" font-size="10.00">BtTextWindowHeader</text>
<polyline fill="none" stroke="black" points="8,-115.5 187,-115.5 "/>
<text text-anchor="start" x="16" y="-103.5" font-family="Helvetica,sans-Serif" font-size="10.00">&#45; m_widgetList</text>
<polyline fill="none" stroke="black" points="8,-96.5 187,-96.5 "/>
<text text-anchor="start" x="16" y="-84.5" font-family="Helvetica,sans-Serif" font-size="10.00">+ BtTextWindowHeader()</text>
<text text-anchor="start" x="16" y="-73.5" font-family="Helvetica,sans-Serif" font-size="10.00">+ slotBackendModulesChanged()</text>
<text text-anchor="start" x="16" y="-62.5" font-family="Helvetica,sans-Serif" font-size="10.00">+ slotWindowModulesChanged()</text>
<text text-anchor="start" x="16" y="-51.5" font-family="Helvetica,sans-Serif" font-size="10.00">&#45; addWidget()</text>
<text text-anchor="start" x="16" y="-40.5" font-family="Helvetica,sans-Serif" font-size="10.00">&#45; adjustWidgetCount()</text>
<text text-anchor="start" x="16" y="-29.5" font-family="Helvetica,sans-Serif" font-size="10.00">&#45; initMenus()</text>
<text text-anchor="start" x="16" y="-18.5" font-family="Helvetica,sans-Serif" font-size="10.00">&#45; setModules()</text>
<text text-anchor="start" x="16" y="-7.5" font-family="Helvetica,sans-Serif" font-size="10.00">&#45; updateWidgets()</text>
</a>
</g>
</g>
<!-- Node2 -->
<g id="node2" class="node">
<title>Node2</title>
<g id="a_node2"><a xlink:href="../../d8/ded/classQWidget.html" target="_top" xlink:title=" ">
<polygon fill="white" stroke="black" points="0,-193.5 0,-250.5 59,-250.5 59,-193.5 0,-193.5"/>
<text text-anchor="middle" x="29.5" y="-238.5" font-family="Helvetica,sans-Serif" font-size="10.00">QWidget</text>
<polyline fill="none" stroke="black" points="0,-231.5 59,-231.5 "/>
<text text-anchor="middle" x="29.5" y="-219.5" font-family="Helvetica,sans-Serif" font-size="10.00"> </text>
<polyline fill="none" stroke="black" points="0,-212.5 59,-212.5 "/>
<text text-anchor="middle" x="29.5" y="-200.5" font-family="Helvetica,sans-Serif" font-size="10.00"> </text>
</a>
</g>
</g>
<!-- Node2&#45;&gt;Node1 -->
<g id="edge1" class="edge">
<title>Node2&#45;&gt;Node1</title>
<path fill="none" stroke="midnightblue" d="M45.98,-184.03C52.62,-169.14 60.49,-151.51 68.05,-134.56"/>
<polygon fill="none" stroke="midnightblue" points="42.69,-182.82 41.81,-193.38 49.08,-185.68 42.69,-182.82"/>
</g>
<!-- Node3 -->
<g id="node3" class="node">
<title>Node3</title>
<g id="a_node3"><a xlink:href="../../d9/d87/classBtWindowModuleChooser.html" target="_top" xlink:title=" ">
<polygon fill="white" stroke="black" points="77,-171.5 77,-272.5 256,-272.5 256,-171.5 77,-171.5"/>
<text text-anchor="middle" x="166.5" y="-260.5" font-family="Helvetica,sans-Serif" font-size="10.00">BtWindowModuleChooser</text>
<polyline fill="none" stroke="black" points="77,-253.5 256,-253.5 "/>
<text text-anchor="start" x="85" y="-241.5" font-family="Helvetica,sans-Serif" font-size="10.00"># m_modules</text>
<text text-anchor="start" x="85" y="-230.5" font-family="Helvetica,sans-Serif" font-size="10.00"># m_moduleType</text>
<text text-anchor="start" x="85" y="-219.5" font-family="Helvetica,sans-Serif" font-size="10.00"># m_window</text>
<polyline fill="none" stroke="black" points="77,-212.5 256,-212.5 "/>
<text text-anchor="start" x="85" y="-200.5" font-family="Helvetica,sans-Serif" font-size="10.00">+ BtWindowModuleChooser()</text>
<text text-anchor="start" x="85" y="-189.5" font-family="Helvetica,sans-Serif" font-size="10.00">+ slotBackendModulesChanged()</text>
<text text-anchor="start" x="85" y="-178.5" font-family="Helvetica,sans-Serif" font-size="10.00">+ slotWindowModulesChanged()</text>
</a>
</g>
</g>
<!-- Node3&#45;&gt;Node1 -->
<g id="edge2" class="edge">
<title>Node3&#45;&gt;Node1</title>
<path fill="none" stroke="midnightblue" d="M139.91,-162.24C135.83,-153.22 131.59,-143.85 127.45,-134.69"/>
<polygon fill="none" stroke="midnightblue" points="136.79,-163.82 144.1,-171.49 143.16,-160.93 136.79,-163.82"/>
</g>
</g>
</svg>
