<?xml version="1.0" encoding="UTF-8" standalone="no"?>
<!DOCTYPE svg PUBLIC "-//W3C//DTD SVG 1.1//EN"
 "http://www.w3.org/Graphics/SVG/1.1/DTD/svg11.dtd">
<!-- Generated by graphviz version 2.43.0 (0)
 -->
<!-- Title: ckeychooser.h Pages: 1 -->
<svg width="1681pt" height="137pt"
 viewBox="0.00 0.00 1681.00 137.00" xmlns="http://www.w3.org/2000/svg" xmlns:xlink="http://www.w3.org/1999/xlink">
<g id="graph0" class="graph" transform="scale(1 1) rotate(0) translate(4 133)">
<title>ckeychooser.h</title>
<!-- Node1 -->
<g id="Node000001" class="node">
<title>Node1</title>
<g id="a_Node000001"><a xlink:title=" ">
<polygon fill="#999999" stroke="#666666" points="876,-129 790,-129 790,-110 876,-110 876,-129"/>
<text text-anchor="middle" x="833" y="-117" font-family="Helvetica,sans-Serif" font-size="10.00">ckeychooser.h</text>
</a>
</g>
</g>
<!-- Node2 -->
<g id="Node000002" class="node">
<title>Node2</title>
<g id="a_Node000002"><a xlink:href="../../da/dc7/bibletime__init_8cpp.html" target="_top" xlink:title=" ">
<polygon fill="white" stroke="#666666" points="104,-74 0,-74 0,-55 104,-55 104,-74"/>
<text text-anchor="middle" x="52" y="-62" font-family="Helvetica,sans-Serif" font-size="10.00">bibletime_init.cpp</text>
</a>
</g>
</g>
<!-- Node1&#45;&gt;Node2 -->
<g id="edge1_Node000001_Node000002" class="edge">
<title>Node1&#45;&gt;Node2</title>
<g id="a_edge1_Node000001_Node000002"><a xlink:title=" ">
<path fill="none" stroke="#63b8ff" d="M779.56,-116.6C659.93,-112.04 361.57,-98.96 113,-74 110.13,-73.71 107.18,-73.39 104.21,-73.04"/>
<polygon fill="#63b8ff" stroke="#63b8ff" points="779.77,-120.11 789.9,-116.99 780.03,-113.12 779.77,-120.11"/>
</a>
</g>
</g>
<!-- Node3 -->
<g id="Node000003" class="node">
<title>Node3</title>
<g id="a_Node000003"><a xlink:href="../../d3/d2f/btcopybyreferencesdialog_8cpp.html" target="_top" xlink:title=" ">
<polygon fill="white" stroke="#666666" points="286,-74 122,-74 122,-55 286,-55 286,-74"/>
<text text-anchor="middle" x="204" y="-62" font-family="Helvetica,sans-Serif" font-size="10.00">btcopybyreferencesdialog.cpp</text>
</a>
</g>
</g>
<!-- Node1&#45;&gt;Node3 -->
<g id="edge2_Node000001_Node000003" class="edge">
<title>Node1&#45;&gt;Node3</title>
<g id="a_edge2_Node000001_Node000003"><a xlink:title=" ">
<path fill="none" stroke="#63b8ff" d="M779.64,-114.28C682.98,-106.58 472.45,-89.63 295,-74 292.15,-73.75 289.26,-73.49 286.34,-73.23"/>
<polygon fill="#63b8ff" stroke="#63b8ff" points="779.5,-117.78 789.75,-115.08 780.06,-110.8 779.5,-117.78"/>
</a>
</g>
</g>
<!-- Node4 -->
<g id="Node000004" class="node">
<title>Node4</title>
<g id="a_Node000004"><a xlink:href="../../de/db2/btmodelviewreaddisplay_8cpp.html" target="_top" xlink:title=" ">
<polygon fill="white" stroke="#666666" points="460,-74 304,-74 304,-55 460,-55 460,-74"/>
<text text-anchor="middle" x="382" y="-62" font-family="Helvetica,sans-Serif" font-size="10.00">btmodelviewreaddisplay.cpp</text>
</a>
</g>
</g>
<!-- Node1&#45;&gt;Node4 -->
<g id="edge3_Node000001_Node000004" class="edge">
<title>Node1&#45;&gt;Node4</title>
<g id="a_edge3_Node000001_Node000004"><a xlink:title=" ">
<path fill="none" stroke="#63b8ff" d="M779.81,-112.25C699.12,-102.77 545.56,-84.72 454.64,-74.04"/>
<polygon fill="#63b8ff" stroke="#63b8ff" points="779.42,-115.73 789.76,-113.42 780.23,-108.77 779.42,-115.73"/>
</a>
</g>
</g>
<!-- Node5 -->
<g id="Node000005" class="node">
<title>Node5</title>
<g id="a_Node000005"><a xlink:href="../../d7/d2f/cbiblekeychooser_8h.html" target="_top" xlink:title=" ">
<polygon fill="white" stroke="#666666" points="588,-74 478,-74 478,-55 588,-55 588,-74"/>
<text text-anchor="middle" x="533" y="-62" font-family="Helvetica,sans-Serif" font-size="10.00">cbiblekeychooser.h</text>
</a>
</g>
</g>
<!-- Node1&#45;&gt;Node5 -->
<g id="edge4_Node000001_Node000005" class="edge">
<title>Node1&#45;&gt;Node5</title>
<g id="a_edge4_Node000001_Node000005"><a xlink:title=" ">
<path fill="none" stroke="#63b8ff" d="M779.57,-109.06C723.31,-99.12 635.5,-83.61 581.26,-74.03"/>
<polygon fill="#63b8ff" stroke="#63b8ff" points="779.24,-112.56 789.7,-110.85 780.46,-105.66 779.24,-112.56"/>
</a>
</g>
</g>
<!-- Node7 -->
<g id="Node000007" class="node">
<title>Node7</title>
<g id="a_Node000007"><a xlink:href="../../d4/d0c/ckeychooser_8cpp.html" target="_top" xlink:title=" ">
<polygon fill="white" stroke="#666666" points="664.5,-19 567.5,-19 567.5,0 664.5,0 664.5,-19"/>
<text text-anchor="middle" x="616" y="-7" font-family="Helvetica,sans-Serif" font-size="10.00">ckeychooser.cpp</text>
</a>
</g>
</g>
<!-- Node1&#45;&gt;Node7 -->
<g id="edge17_Node000001_Node000007" class="edge">
<title>Node1&#45;&gt;Node7</title>
<g id="a_edge17_Node000001_Node000007"><a xlink:title=" ">
<path fill="none" stroke="#63b8ff" d="M779.8,-112.63C728.51,-105.92 655.71,-93.32 635,-74 619.52,-59.56 616.47,-33.07 615.99,-19.32"/>
<polygon fill="#63b8ff" stroke="#63b8ff" points="779.38,-116.1 789.75,-113.89 780.27,-109.16 779.38,-116.1"/>
</a>
</g>
</g>
<!-- Node8 -->
<g id="Node000008" class="node">
<title>Node8</title>
<g id="a_Node000008"><a xlink:href="../../de/da4/cbiblereadwindow_8cpp.html" target="_top" xlink:title=" ">
<polygon fill="white" stroke="#666666" points="1036.5,-74 911.5,-74 911.5,-55 1036.5,-55 1036.5,-74"/>
<text text-anchor="middle" x="974" y="-62" font-family="Helvetica,sans-Serif" font-size="10.00">cbiblereadwindow.cpp</text>
</a>
</g>
</g>
<!-- Node1&#45;&gt;Node8 -->
<g id="edge7_Node000001_Node000008" class="edge">
<title>Node1&#45;&gt;Node8</title>
<g id="a_edge7_Node000001_Node000008"><a xlink:title=" ">
<path fill="none" stroke="#63b8ff" d="M865.14,-106.42C891.29,-96.59 927.59,-82.95 950.93,-74.17"/>
<polygon fill="#63b8ff" stroke="#63b8ff" points="863.78,-103.19 855.65,-109.98 866.25,-109.74 863.78,-103.19"/>
</a>
</g>
</g>
<!-- Node9 -->
<g id="Node000009" class="node">
<title>Node9</title>
<g id="a_Node000009"><a xlink:href="../../d2/d64/cbookkeychooser_8h.html" target="_top" xlink:title=" ">
<polygon fill="white" stroke="#666666" points="754,-74 644,-74 644,-55 754,-55 754,-74"/>
<text text-anchor="middle" x="699" y="-62" font-family="Helvetica,sans-Serif" font-size="10.00">cbookkeychooser.h</text>
</a>
</g>
</g>
<!-- Node1&#45;&gt;Node9 -->
<g id="edge8_Node000001_Node000009" class="edge">
<title>Node1&#45;&gt;Node9</title>
<g id="a_edge8_Node000001_Node000009"><a xlink:title=" ">
<path fill="none" stroke="#63b8ff" d="M802.13,-106.29C777.3,-96.47 743.01,-82.91 720.92,-74.17"/>
<polygon fill="#63b8ff" stroke="#63b8ff" points="800.88,-109.56 811.47,-109.98 803.46,-103.05 800.88,-109.56"/>
</a>
</g>
</g>
<!-- Node11 -->
<g id="Node000011" class="node">
<title>Node11</title>
<g id="a_Node000011"><a xlink:href="../../d7/d67/cbookreadwindow_8cpp.html" target="_top" xlink:title=" ">
<polygon fill="white" stroke="#666666" points="1127.5,-19 1002.5,-19 1002.5,0 1127.5,0 1127.5,-19"/>
<text text-anchor="middle" x="1065" y="-7" font-family="Helvetica,sans-Serif" font-size="10.00">cbookreadwindow.cpp</text>
</a>
</g>
</g>
<!-- Node1&#45;&gt;Node11 -->
<g id="edge11_Node000001_Node000011" class="edge">
<title>Node1&#45;&gt;Node11</title>
<g id="a_edge11_Node000001_Node000011"><a xlink:title=" ">
<path fill="none" stroke="#63b8ff" d="M886.33,-113.44C941.3,-107.19 1022.11,-94.74 1045,-74 1060.76,-59.72 1064.2,-33.16 1064.88,-19.35"/>
<polygon fill="#63b8ff" stroke="#63b8ff" points="885.94,-109.97 876.39,-114.54 886.71,-116.92 885.94,-109.97"/>
</a>
</g>
</g>
<!-- Node12 -->
<g id="Node000012" class="node">
<title>Node12</title>
<g id="a_Node000012"><a xlink:href="../../d9/dca/cbooktreechooser_8h.html" target="_top" xlink:title=" ">
<polygon fill="white" stroke="#666666" points="1205,-74 1093,-74 1093,-55 1205,-55 1205,-74"/>
<text text-anchor="middle" x="1149" y="-62" font-family="Helvetica,sans-Serif" font-size="10.00">cbooktreechooser.h</text>
</a>
</g>
</g>
<!-- Node1&#45;&gt;Node12 -->
<g id="edge12_Node000001_Node000012" class="edge">
<title>Node1&#45;&gt;Node12</title>
<g id="a_edge12_Node000001_Node000012"><a xlink:title=" ">
<path fill="none" stroke="#63b8ff" d="M886.16,-109.58C945.26,-99.67 1040.01,-83.78 1098.16,-74.03"/>
<polygon fill="#63b8ff" stroke="#63b8ff" points="885.56,-106.14 876.28,-111.24 886.72,-113.04 885.56,-106.14"/>
</a>
</g>
</g>
<!-- Node14 -->
<g id="Node000014" class="node">
<title>Node14</title>
<g id="a_Node000014"><a xlink:href="../../d0/d6f/ccommentaryreadwindow_8cpp.html" target="_top" xlink:title=" ">
<polygon fill="white" stroke="#666666" points="1386.5,-74 1223.5,-74 1223.5,-55 1386.5,-55 1386.5,-74"/>
<text text-anchor="middle" x="1305" y="-62" font-family="Helvetica,sans-Serif" font-size="10.00">ccommentaryreadwindow.cpp</text>
</a>
</g>
</g>
<!-- Node1&#45;&gt;Node14 -->
<g id="edge15_Node000001_Node000014" class="edge">
<title>Node1&#45;&gt;Node14</title>
<g id="a_edge15_Node000001_Node000014"><a xlink:title=" ">
<path fill="none" stroke="#63b8ff" d="M886.19,-112.53C969.95,-103.12 1132.92,-84.82 1229,-74.03"/>
<polygon fill="#63b8ff" stroke="#63b8ff" points="885.69,-109.06 876.14,-113.66 886.47,-116.02 885.69,-109.06"/>
</a>
</g>
</g>
<!-- Node15 -->
<g id="Node000015" class="node">
<title>Node15</title>
<g id="a_Node000015"><a xlink:href="../../d2/d26/cdisplaywindow_8cpp.html" target="_top" xlink:title=" ">
<polygon fill="white" stroke="#666666" points="1519,-74 1405,-74 1405,-55 1519,-55 1519,-74"/>
<text text-anchor="middle" x="1462" y="-62" font-family="Helvetica,sans-Serif" font-size="10.00">cdisplaywindow.cpp</text>
</a>
</g>
</g>
<!-- Node1&#45;&gt;Node15 -->
<g id="edge16_Node000001_Node000015" class="edge">
<title>Node1&#45;&gt;Node15</title>
<g id="a_edge16_Node000001_Node000015"><a xlink:title=" ">
<path fill="none" stroke="#63b8ff" d="M886.31,-115.16C986.35,-108.71 1209.03,-93.42 1396,-74 1398.87,-73.7 1401.81,-73.38 1404.78,-73.04"/>
<polygon fill="#63b8ff" stroke="#63b8ff" points="885.91,-111.68 876.15,-115.82 886.36,-118.67 885.91,-111.68"/>
</a>
</g>
</g>
<!-- Node16 -->
<g id="Node000016" class="node">
<title>Node16</title>
<g id="a_Node000016"><a xlink:href="../../d1/ddf/clexiconkeychooser_8h.html" target="_top" xlink:title=" ">
<polygon fill="white" stroke="#666666" points="893.5,-74 772.5,-74 772.5,-55 893.5,-55 893.5,-74"/>
<text text-anchor="middle" x="833" y="-62" font-family="Helvetica,sans-Serif" font-size="10.00">clexiconkeychooser.h</text>
</a>
</g>
</g>
<!-- Node1&#45;&gt;Node16 -->
<g id="edge18_Node000001_Node000016" class="edge">
<title>Node1&#45;&gt;Node16</title>
<g id="a_edge18_Node000001_Node000016"><a xlink:title=" ">
<path fill="none" stroke="#63b8ff" d="M833,-99.66C833,-90.93 833,-80.99 833,-74.09"/>
<polygon fill="#63b8ff" stroke="#63b8ff" points="829.5,-99.75 833,-109.75 836.5,-99.75 829.5,-99.75"/>
</a>
</g>
</g>
<!-- Node18 -->
<g id="Node000018" class="node">
<title>Node18</title>
<g id="a_Node000018"><a xlink:href="../../d8/d19/clexiconreadwindow_8cpp.html" target="_top" xlink:title=" ">
<polygon fill="white" stroke="#666666" points="1673,-74 1537,-74 1537,-55 1673,-55 1673,-74"/>
<text text-anchor="middle" x="1605" y="-62" font-family="Helvetica,sans-Serif" font-size="10.00">clexiconreadwindow.cpp</text>
</a>
</g>
</g>
<!-- Node1&#45;&gt;Node18 -->
<g id="edge21_Node000001_Node000018" class="edge">
<title>Node1&#45;&gt;Node18</title>
<g id="a_edge21_Node000001_Node000018"><a xlink:title=" ">
<path fill="none" stroke="#63b8ff" d="M886.23,-115.93C1002.71,-110.12 1288.9,-94.84 1528,-74 1530.95,-73.74 1533.96,-73.47 1537,-73.18"/>
<polygon fill="#63b8ff" stroke="#63b8ff" points="885.97,-112.44 876.16,-116.43 886.32,-119.43 885.97,-112.44"/>
</a>
</g>
</g>
<!-- Node6 -->
<g id="Node000006" class="node">
<title>Node6</title>
<g id="a_Node000006"><a xlink:href="../../dc/d8f/cbiblekeychooser_8cpp.html" target="_top" xlink:title=" ">
<polygon fill="white" stroke="#666666" points="549.5,-19 428.5,-19 428.5,0 549.5,0 549.5,-19"/>
<text text-anchor="middle" x="489" y="-7" font-family="Helvetica,sans-Serif" font-size="10.00">cbiblekeychooser.cpp</text>
</a>
</g>
</g>
<!-- Node5&#45;&gt;Node6 -->
<g id="edge5_Node000005_Node000006" class="edge">
<title>Node5&#45;&gt;Node6</title>
<g id="a_edge5_Node000005_Node000006"><a xlink:title=" ">
<path fill="none" stroke="#63b8ff" d="M519.27,-46.96C511.6,-37.72 502.37,-26.6 496.13,-19.09"/>
<polygon fill="#63b8ff" stroke="#63b8ff" points="516.65,-49.29 525.73,-54.75 522.04,-44.82 516.65,-49.29"/>
</a>
</g>
</g>
<!-- Node5&#45;&gt;Node7 -->
<g id="edge6_Node000005_Node000007" class="edge">
<title>Node5&#45;&gt;Node7</title>
<g id="a_edge6_Node000005_Node000007"><a xlink:title=" ">
<path fill="none" stroke="#63b8ff" d="M555.04,-49.42C570.11,-39.81 589.59,-27.37 602.42,-19.17"/>
<polygon fill="#63b8ff" stroke="#63b8ff" points="552.88,-46.65 546.34,-54.98 556.65,-52.55 552.88,-46.65"/>
</a>
</g>
</g>
<!-- Node9&#45;&gt;Node7 -->
<g id="edge10_Node000009_Node000007" class="edge">
<title>Node9&#45;&gt;Node7</title>
<g id="a_edge10_Node000009_Node000007"><a xlink:title=" ">
<path fill="none" stroke="#63b8ff" d="M676.96,-49.42C661.89,-39.81 642.41,-27.37 629.58,-19.17"/>
<polygon fill="#63b8ff" stroke="#63b8ff" points="675.35,-52.55 685.66,-54.98 679.12,-46.65 675.35,-52.55"/>
</a>
</g>
</g>
<!-- Node10 -->
<g id="Node000010" class="node">
<title>Node10</title>
<g id="a_Node000010"><a xlink:href="../../dd/d72/cbookkeychooser_8cpp.html" target="_top" xlink:title=" ">
<polygon fill="white" stroke="#666666" points="803.5,-19 682.5,-19 682.5,0 803.5,0 803.5,-19"/>
<text text-anchor="middle" x="743" y="-7" font-family="Helvetica,sans-Serif" font-size="10.00">cbookkeychooser.cpp</text>
</a>
</g>
</g>
<!-- Node9&#45;&gt;Node10 -->
<g id="edge9_Node000009_Node000010" class="edge">
<title>Node9&#45;&gt;Node10</title>
<g id="a_edge9_Node000009_Node000010"><a xlink:title=" ">
<path fill="none" stroke="#63b8ff" d="M712.73,-46.96C720.4,-37.72 729.63,-26.6 735.87,-19.09"/>
<polygon fill="#63b8ff" stroke="#63b8ff" points="709.96,-44.82 706.27,-54.75 715.35,-49.29 709.96,-44.82"/>
</a>
</g>
</g>
<!-- Node12&#45;&gt;Node11 -->
<g id="edge13_Node000012_Node000011" class="edge">
<title>Node12&#45;&gt;Node11</title>
<g id="a_edge13_Node000012_Node000011"><a xlink:title=" ">
<path fill="none" stroke="#63b8ff" d="M1126.69,-49.42C1111.45,-39.81 1091.73,-27.37 1078.74,-19.17"/>
<polygon fill="#63b8ff" stroke="#63b8ff" points="1125.18,-52.61 1135.5,-54.98 1128.91,-46.69 1125.18,-52.61"/>
</a>
</g>
</g>
<!-- Node13 -->
<g id="Node000013" class="node">
<title>Node13</title>
<g id="a_Node000013"><a xlink:href="../../d0/da4/cbooktreechooser_8cpp.html" target="_top" xlink:title=" ">
<polygon fill="white" stroke="#666666" points="1268.5,-19 1145.5,-19 1145.5,0 1268.5,0 1268.5,-19"/>
<text text-anchor="middle" x="1207" y="-7" font-family="Helvetica,sans-Serif" font-size="10.00">cbooktreechooser.cpp</text>
</a>
</g>
</g>
<!-- Node12&#45;&gt;Node13 -->
<g id="edge14_Node000012_Node000013" class="edge">
<title>Node12&#45;&gt;Node13</title>
<g id="a_edge14_Node000012_Node000013"><a xlink:title=" ">
<path fill="none" stroke="#63b8ff" d="M1165.91,-48.04C1176.2,-38.64 1188.97,-26.98 1197.51,-19.17"/>
<polygon fill="#63b8ff" stroke="#63b8ff" points="1163.34,-45.66 1158.32,-54.98 1168.06,-50.82 1163.34,-45.66"/>
</a>
</g>
</g>
<!-- Node16&#45;&gt;Node7 -->
<g id="edge19_Node000016_Node000007" class="edge">
<title>Node16&#45;&gt;Node7</title>
<g id="a_edge19_Node000016_Node000007"><a xlink:title=" ">
<path fill="none" stroke="#63b8ff" d="M788.23,-52.56C747.58,-42.64 688.47,-28.2 651.14,-19.08"/>
<polygon fill="#63b8ff" stroke="#63b8ff" points="787.59,-56.01 798.14,-54.98 789.25,-49.21 787.59,-56.01"/>
</a>
</g>
</g>
<!-- Node17 -->
<g id="Node000017" class="node">
<title>Node17</title>
<g id="a_Node000017"><a xlink:href="../../d8/d14/clexiconkeychooser_8cpp.html" target="_top" xlink:title=" ">
<polygon fill="white" stroke="#666666" points="954,-19 822,-19 822,0 954,0 954,-19"/>
<text text-anchor="middle" x="888" y="-7" font-family="Helvetica,sans-Serif" font-size="10.00">clexiconkeychooser.cpp</text>
</a>
</g>
</g>
<!-- Node16&#45;&gt;Node17 -->
<g id="edge20_Node000016_Node000017" class="edge">
<title>Node16&#45;&gt;Node17</title>
<g id="a_edge20_Node000016_Node000017"><a xlink:title=" ">
<path fill="none" stroke="#63b8ff" d="M849.29,-47.8C859.04,-38.41 871.05,-26.83 879.09,-19.09"/>
<polygon fill="#63b8ff" stroke="#63b8ff" points="846.85,-45.29 842.08,-54.75 851.71,-50.33 846.85,-45.29"/>
</a>
</g>
</g>
</g>
</svg>
