<?xml version="1.0" encoding="UTF-8" standalone="no"?>
<!DOCTYPE svg PUBLIC "-//W3C//DTD SVG 1.1//EN"
 "http://www.w3.org/Graphics/SVG/1.1/DTD/svg11.dtd">
<!-- Generated by graphviz version 2.43.0 (0)
 -->
<!-- Title: BtBookshelfSourcesPage Pages: 1 -->
<svg width="158pt" height="407pt"
 viewBox="0.00 0.00 158.00 407.00" xmlns="http://www.w3.org/2000/svg" xmlns:xlink="http://www.w3.org/1999/xlink">
<g id="graph0" class="graph" transform="scale(1 1) rotate(0) translate(4 403)">
<title>BtBookshelfSourcesPage</title>
<!-- Node1 -->
<g id="Node000001" class="node">
<title>Node1</title>
<g id="a_Node000001"><a xlink:title=" ">
<polygon fill="#999999" stroke="transparent" points="150,-214 0,-214 0,0 150,0 150,-214"/>
<text text-anchor="start" x="14.5" y="-202" font-family="Helvetica,sans-Serif" font-size="10.00">BtBookshelfSourcesPage</text>
<text text-anchor="start" x="6.5" y="-187" font-family="Helvetica,sans-Serif" font-size="10.00">&#45;</text>
<text text-anchor="start" x="17" y="-187" font-family="Helvetica,sans-Serif" font-size="10.00">m_firstTimeInit</text>
<text text-anchor="start" x="6.5" y="-172" font-family="Helvetica,sans-Serif" font-size="10.00">&#45;</text>
<text text-anchor="start" x="17" y="-172" font-family="Helvetica,sans-Serif" font-size="10.00">m_model</text>
<text text-anchor="start" x="6.5" y="-157" font-family="Helvetica,sans-Serif" font-size="10.00">&#45;</text>
<text text-anchor="start" x="17" y="-157" font-family="Helvetica,sans-Serif" font-size="10.00">m_sourcesTableView</text>
<text text-anchor="start" x="6.5" y="-142" font-family="Helvetica,sans-Serif" font-size="10.00">&#45;</text>
<text text-anchor="start" x="17" y="-142" font-family="Helvetica,sans-Serif" font-size="10.00">m_verticalLayout</text>
<text text-anchor="start" x="4" y="-127" font-family="Helvetica,sans-Serif" font-size="10.00">+</text>
<text text-anchor="start" x="17" y="-127" font-family="Helvetica,sans-Serif" font-size="10.00">BtBookshelfSourcesPage()</text>
<text text-anchor="start" x="4" y="-112" font-family="Helvetica,sans-Serif" font-size="10.00">+</text>
<text text-anchor="start" x="17" y="-112" font-family="Helvetica,sans-Serif" font-size="10.00">initializePage()</text>
<text text-anchor="start" x="4" y="-97" font-family="Helvetica,sans-Serif" font-size="10.00">+</text>
<text text-anchor="start" x="17" y="-97" font-family="Helvetica,sans-Serif" font-size="10.00">isComplete()</text>
<text text-anchor="start" x="4" y="-82" font-family="Helvetica,sans-Serif" font-size="10.00">+</text>
<text text-anchor="start" x="17" y="-82" font-family="Helvetica,sans-Serif" font-size="10.00">nextId()</text>
<text text-anchor="start" x="4" y="-67" font-family="Helvetica,sans-Serif" font-size="10.00">+</text>
<text text-anchor="start" x="17" y="-67" font-family="Helvetica,sans-Serif" font-size="10.00">selectedSources()</text>
<text text-anchor="start" x="6.5" y="-52" font-family="Helvetica,sans-Serif" font-size="10.00">&#45;</text>
<text text-anchor="start" x="17" y="-52" font-family="Helvetica,sans-Serif" font-size="10.00">retranslateUi()</text>
<text text-anchor="start" x="6.5" y="-37" font-family="Helvetica,sans-Serif" font-size="10.00">&#45;</text>
<text text-anchor="start" x="17" y="-37" font-family="Helvetica,sans-Serif" font-size="10.00">selectSourcesInModel()</text>
<text text-anchor="start" x="6.5" y="-22" font-family="Helvetica,sans-Serif" font-size="10.00">&#45;</text>
<text text-anchor="start" x="17" y="-22" font-family="Helvetica,sans-Serif" font-size="10.00">updateSourcesModel()</text>
<text text-anchor="start" x="6.5" y="-7" font-family="Helvetica,sans-Serif" font-size="10.00">&#45;</text>
<text text-anchor="start" x="17" y="-7" font-family="Helvetica,sans-Serif" font-size="10.00">slotButtonClicked()</text>
<polygon fill="#666666" stroke="#666666" points="0,-197 0,-197 150,-197 150,-197 0,-197"/>
<polygon fill="#666666" stroke="#666666" points="0,-137 0,-137 15,-137 15,-137 0,-137"/>
<polygon fill="#666666" stroke="#666666" points="15,-137 15,-137 150,-137 150,-137 15,-137"/>
<polygon fill="none" stroke="#666666" points="0,0 0,-214 150,-214 150,0 0,0"/>
</a>
</g>
</g>
<!-- Node2 -->
<g id="Node000002" class="node">
<title>Node2</title>
<g id="a_Node000002"><a xlink:href="../../da/dee/classBtBookshelfWizardPage.html" target="_top" xlink:title=" ">
<polygon fill="white" stroke="transparent" points="147.5,-314 2.5,-314 2.5,-250 147.5,-250 147.5,-314"/>
<text text-anchor="start" x="17" y="-302" font-family="Helvetica,sans-Serif" font-size="10.00">BtBookshelfWizardPage</text>
<text text-anchor="start" x="73.5" y="-287" font-family="Helvetica,sans-Serif" font-size="10.00"> </text>
<text text-anchor="start" x="7" y="-272" font-family="Helvetica,sans-Serif" font-size="10.00">+</text>
<text text-anchor="start" x="20" y="-272" font-family="Helvetica,sans-Serif" font-size="10.00">BtBookshelfWizardPage()</text>
<text text-anchor="start" x="7" y="-257" font-family="Helvetica,sans-Serif" font-size="10.00">+</text>
<text text-anchor="start" x="20" y="-257" font-family="Helvetica,sans-Serif" font-size="10.00">btWizard()</text>
<polygon fill="#666666" stroke="#666666" points="3,-297 3,-297 148,-297 148,-297 3,-297"/>
<polygon fill="#666666" stroke="#666666" points="3,-282 3,-282 148,-282 148,-282 3,-282"/>
<polygon fill="none" stroke="#666666" points="2.5,-250 2.5,-314 147.5,-314 147.5,-250 2.5,-250"/>
</a>
</g>
</g>
<!-- Node2&#45;&gt;Node1 -->
<g id="edge1_Node000001_Node000002" class="edge">
<title>Node2&#45;&gt;Node1</title>
<g id="a_edge1_Node000001_Node000002"><a xlink:title=" ">
<path fill="none" stroke="#63b8ff" d="M75,-239.4C75,-231.54 75,-222.98 75,-214.14"/>
<polygon fill="none" stroke="#63b8ff" points="71.5,-239.67 75,-249.67 78.5,-239.67 71.5,-239.67"/>
</a>
</g>
</g>
<!-- Node3 -->
<g id="Node000003" class="node">
<title>Node3</title>
<g id="a_Node000003"><a xlink:href="../../dc/d67/classQWizardPage.html" target="_top" xlink:title=" ">
<polygon fill="white" stroke="transparent" points="112.5,-399 37.5,-399 37.5,-350 112.5,-350 112.5,-399"/>
<text text-anchor="start" x="43" y="-386.5" font-family="Helvetica,sans-Serif" font-size="10.00">QWizardPage</text>
<text text-anchor="start" x="73.5" y="-371.5" font-family="Helvetica,sans-Serif" font-size="10.00"> </text>
<text text-anchor="start" x="73.5" y="-356.5" font-family="Helvetica,sans-Serif" font-size="10.00"> </text>
<polygon fill="#666666" stroke="#666666" points="38,-381.5 38,-381.5 113,-381.5 113,-381.5 38,-381.5"/>
<polygon fill="#666666" stroke="#666666" points="38,-366.5 38,-366.5 113,-366.5 113,-366.5 38,-366.5"/>
<polygon fill="none" stroke="#666666" points="37.5,-350 37.5,-399 112.5,-399 112.5,-350 37.5,-350"/>
</a>
</g>
</g>
<!-- Node3&#45;&gt;Node2 -->
<g id="edge2_Node000002_Node000003" class="edge">
<title>Node3&#45;&gt;Node2</title>
<g id="a_edge2_Node000002_Node000003"><a xlink:title=" ">
<path fill="none" stroke="#63b8ff" d="M75,-339.54C75,-331.2 75,-322.31 75,-314.11"/>
<polygon fill="none" stroke="#63b8ff" points="71.5,-339.72 75,-349.72 78.5,-339.72 71.5,-339.72"/>
</a>
</g>
</g>
</g>
</svg>
