<?xml version="1.0" encoding="UTF-8" standalone="no"?>
<!DOCTYPE svg PUBLIC "-//W3C//DTD SVG 1.1//EN"
 "http://www.w3.org/Graphics/SVG/1.1/DTD/svg11.dtd">
<!-- Generated by graphviz version 2.43.0 (0)
 -->
<!-- Title: CBookKeyChooser Pages: 1 -->
<svg width="145pt" height="463pt"
 viewBox="0.00 0.00 145.00 463.00" xmlns="http://www.w3.org/2000/svg" xmlns:xlink="http://www.w3.org/1999/xlink">
<g id="graph0" class="graph" transform="scale(1 1) rotate(0) translate(4 459)">
<title>CBookKeyChooser</title>
<polygon fill="white" stroke="transparent" points="-4,4 -4,-459 141,-459 141,4 -4,4"/>
<!-- Node1 -->
<g id="node1" class="node">
<title>Node1</title>
<g id="a_node1"><a xlink:title=" ">
<polygon fill="#bfbfbf" stroke="black" points="3,-0.5 3,-189.5 134,-189.5 134,-0.5 3,-0.5"/>
<text text-anchor="middle" x="68.5" y="-177.5" font-family="Helvetica,sans-Serif" font-size="10.00">CBookKeyChooser</text>
<polyline fill="none" stroke="black" points="3,-170.5 134,-170.5 "/>
<text text-anchor="start" x="11" y="-158.5" font-family="Helvetica,sans-Serif" font-size="10.00">&#45; m_chooserWidgets</text>
<text text-anchor="start" x="11" y="-147.5" font-family="Helvetica,sans-Serif" font-size="10.00">&#45; m_key</text>
<text text-anchor="start" x="11" y="-136.5" font-family="Helvetica,sans-Serif" font-size="10.00">&#45; m_layout</text>
<text text-anchor="start" x="11" y="-125.5" font-family="Helvetica,sans-Serif" font-size="10.00">&#45; m_modules</text>
<polyline fill="none" stroke="black" points="3,-118.5 134,-118.5 "/>
<text text-anchor="start" x="11" y="-106.5" font-family="Helvetica,sans-Serif" font-size="10.00">+ CBookKeyChooser()</text>
<text text-anchor="start" x="11" y="-95.5" font-family="Helvetica,sans-Serif" font-size="10.00">+ key()</text>
<text text-anchor="start" x="11" y="-84.5" font-family="Helvetica,sans-Serif" font-size="10.00">+ refreshContent()</text>
<text text-anchor="start" x="11" y="-73.5" font-family="Helvetica,sans-Serif" font-size="10.00">+ setKey()</text>
<text text-anchor="start" x="11" y="-62.5" font-family="Helvetica,sans-Serif" font-size="10.00">+ setKey()</text>
<text text-anchor="start" x="11" y="-51.5" font-family="Helvetica,sans-Serif" font-size="10.00">+ setModules()</text>
<text text-anchor="start" x="11" y="-40.5" font-family="Helvetica,sans-Serif" font-size="10.00">+ updateKey()</text>
<text text-anchor="start" x="11" y="-29.5" font-family="Helvetica,sans-Serif" font-size="10.00"># setupCombo()</text>
<text text-anchor="start" x="11" y="-18.5" font-family="Helvetica,sans-Serif" font-size="10.00">&#45; adjustFont()</text>
<text text-anchor="start" x="11" y="-7.5" font-family="Helvetica,sans-Serif" font-size="10.00">&#45; keyChooserChanged()</text>
</a>
</g>
</g>
<!-- Node2 -->
<g id="node2" class="node">
<title>Node2</title>
<g id="a_node2"><a xlink:href="../../df/d40/classCKeyChooser.html" target="_top" xlink:title=" ">
<polygon fill="white" stroke="black" points="0,-226.5 0,-360.5 137,-360.5 137,-226.5 0,-226.5"/>
<text text-anchor="middle" x="68.5" y="-348.5" font-family="Helvetica,sans-Serif" font-size="10.00">CKeyChooser</text>
<polyline fill="none" stroke="black" points="0,-341.5 137,-341.5 "/>
<text text-anchor="middle" x="68.5" y="-329.5" font-family="Helvetica,sans-Serif" font-size="10.00"> </text>
<polyline fill="none" stroke="black" points="0,-322.5 137,-322.5 "/>
<text text-anchor="start" x="8" y="-310.5" font-family="Helvetica,sans-Serif" font-size="10.00">+ key()</text>
<text text-anchor="start" x="8" y="-299.5" font-family="Helvetica,sans-Serif" font-size="10.00">+ refreshContent()</text>
<text text-anchor="start" x="8" y="-288.5" font-family="Helvetica,sans-Serif" font-size="10.00">+ setKey()</text>
<text text-anchor="start" x="8" y="-277.5" font-family="Helvetica,sans-Serif" font-size="10.00">+ setModules()</text>
<text text-anchor="start" x="8" y="-266.5" font-family="Helvetica,sans-Serif" font-size="10.00">+ createInstance()</text>
<text text-anchor="start" x="8" y="-255.5" font-family="Helvetica,sans-Serif" font-size="10.00">+ handleHistoryMoved()</text>
<text text-anchor="start" x="8" y="-244.5" font-family="Helvetica,sans-Serif" font-size="10.00">+ updateKey()</text>
<text text-anchor="start" x="8" y="-233.5" font-family="Helvetica,sans-Serif" font-size="10.00"># CKeyChooser()</text>
</a>
</g>
</g>
<!-- Node2&#45;&gt;Node1 -->
<g id="edge1" class="edge">
<title>Node2&#45;&gt;Node1</title>
<path fill="none" stroke="midnightblue" d="M68.5,-216.14C68.5,-207.41 68.5,-198.45 68.5,-189.53"/>
<polygon fill="none" stroke="midnightblue" points="65,-216.25 68.5,-226.25 72,-216.25 65,-216.25"/>
</g>
<!-- Node3 -->
<g id="node3" class="node">
<title>Node3</title>
<g id="a_node3"><a xlink:href="../../d8/ded/classQWidget.html" target="_top" xlink:title=" ">
<polygon fill="white" stroke="black" points="39,-397.5 39,-454.5 98,-454.5 98,-397.5 39,-397.5"/>
<text text-anchor="middle" x="68.5" y="-442.5" font-family="Helvetica,sans-Serif" font-size="10.00">QWidget</text>
<polyline fill="none" stroke="black" points="39,-435.5 98,-435.5 "/>
<text text-anchor="middle" x="68.5" y="-423.5" font-family="Helvetica,sans-Serif" font-size="10.00"> </text>
<polyline fill="none" stroke="black" points="39,-416.5 98,-416.5 "/>
<text text-anchor="middle" x="68.5" y="-404.5" font-family="Helvetica,sans-Serif" font-size="10.00"> </text>
</a>
</g>
</g>
<!-- Node3&#45;&gt;Node2 -->
<g id="edge2" class="edge">
<title>Node3&#45;&gt;Node2</title>
<path fill="none" stroke="midnightblue" d="M68.5,-387.16C68.5,-378.78 68.5,-369.67 68.5,-360.53"/>
<polygon fill="none" stroke="midnightblue" points="65,-387.32 68.5,-397.32 72,-387.32 65,-387.32"/>
</g>
</g>
</svg>
