<?xml version="1.0" encoding="UTF-8" standalone="no"?>
<!DOCTYPE svg PUBLIC "-//W3C//DTD SVG 1.1//EN"
 "http://www.w3.org/Graphics/SVG/1.1/DTD/svg11.dtd">
<!-- Generated by graphviz version 2.43.0 (0)
 -->
<!-- Title: CBookReadWindow::ActionCollection Pages: 1 -->
<svg width="199pt" height="417pt"
 viewBox="0.00 0.00 199.00 417.00" xmlns="http://www.w3.org/2000/svg" xmlns:xlink="http://www.w3.org/1999/xlink">
<g id="graph0" class="graph" transform="scale(1 1) rotate(0) translate(4 413)">
<title>CBookReadWindow::ActionCollection</title>
<!-- Node1 -->
<g id="Node000001" class="node">
<title>Node1</title>
<g id="a_Node000001"><a xlink:title=" ">
<polygon fill="#999999" stroke="transparent" points="191,-49 0,-49 0,0 191,0 191,-49"/>
<text text-anchor="start" x="5.5" y="-36.5" font-family="Helvetica,sans-Serif" font-size="10.00">CBookReadWindow::ActionCollection</text>
<text text-anchor="start" x="94" y="-21.5" font-family="Helvetica,sans-Serif" font-size="10.00"> </text>
<text text-anchor="start" x="25" y="-6.5" font-family="Helvetica,sans-Serif" font-size="10.00">+</text>
<text text-anchor="start" x="58.5" y="-6.5" font-family="Helvetica,sans-Serif" font-size="10.00">ActionCollection()</text>
<polygon fill="#666666" stroke="#666666" points="0.5,-31.5 0.5,-31.5 191.5,-31.5 191.5,-31.5 0.5,-31.5"/>
<polygon fill="#666666" stroke="#666666" points="0.5,-16.5 0.5,-16.5 191.5,-16.5 191.5,-16.5 0.5,-16.5"/>
<polygon fill="none" stroke="#666666" points="0,0 0,-49 191,-49 191,0 0,0"/>
</a>
</g>
</g>
<!-- Node2 -->
<g id="Node000002" class="node">
<title>Node2</title>
<g id="a_Node000002"><a xlink:href="../../db/ddf/classCDisplayWindow_1_1ActionCollection.html" target="_top" xlink:title=" ">
<polygon fill="white" stroke="transparent" points="184.5,-134 6.5,-134 6.5,-85 184.5,-85 184.5,-134"/>
<text text-anchor="start" x="11.5" y="-121.5" font-family="Helvetica,sans-Serif" font-size="10.00">CDisplayWindow::ActionCollection</text>
<text text-anchor="start" x="93.5" y="-106.5" font-family="Helvetica,sans-Serif" font-size="10.00"> </text>
<text text-anchor="start" x="27.5" y="-91.5" font-family="Helvetica,sans-Serif" font-size="10.00">+</text>
<text text-anchor="start" x="57.5" y="-91.5" font-family="Helvetica,sans-Serif" font-size="10.00">ActionCollection()</text>
<polygon fill="#666666" stroke="#666666" points="6.5,-116.5 6.5,-116.5 184.5,-116.5 184.5,-116.5 6.5,-116.5"/>
<polygon fill="#666666" stroke="#666666" points="6.5,-101.5 6.5,-101.5 184.5,-101.5 184.5,-101.5 6.5,-101.5"/>
<polygon fill="none" stroke="#666666" points="6.5,-85 6.5,-134 184.5,-134 184.5,-85 6.5,-85"/>
</a>
</g>
</g>
<!-- Node2&#45;&gt;Node1 -->
<g id="edge1_Node000001_Node000002" class="edge">
<title>Node2&#45;&gt;Node1</title>
<g id="a_edge1_Node000001_Node000002"><a xlink:title=" ">
<path fill="none" stroke="#63b8ff" d="M95.5,-74.77C95.5,-66.17 95.5,-57.1 95.5,-49.12"/>
<polygon fill="none" stroke="#63b8ff" points="92,-74.94 95.5,-84.94 99,-74.94 92,-74.94"/>
</a>
</g>
</g>
<!-- Node3 -->
<g id="Node000003" class="node">
<title>Node3</title>
<g id="a_Node000003"><a xlink:href="../../d0/d28/classBtActionCollection.html" target="_top" xlink:title=" ">
<polygon fill="white" stroke="transparent" points="156,-324 35,-324 35,-170 156,-170 156,-324"/>
<text text-anchor="start" x="50.5" y="-312" font-family="Helvetica,sans-Serif" font-size="10.00">BtActionCollection</text>
<text text-anchor="start" x="42" y="-297" font-family="Helvetica,sans-Serif" font-size="10.00">&#45;</text>
<text text-anchor="start" x="52.5" y="-297" font-family="Helvetica,sans-Serif" font-size="10.00">m_actions</text>
<text text-anchor="start" x="39.5" y="-282" font-family="Helvetica,sans-Serif" font-size="10.00">+</text>
<text text-anchor="start" x="52.5" y="-282" font-family="Helvetica,sans-Serif" font-size="10.00">action()</text>
<text text-anchor="start" x="39.5" y="-267" font-family="Helvetica,sans-Serif" font-size="10.00">+</text>
<text text-anchor="start" x="52.5" y="-267" font-family="Helvetica,sans-Serif" font-size="10.00">actionAs()</text>
<text text-anchor="start" x="39.5" y="-252" font-family="Helvetica,sans-Serif" font-size="10.00">+</text>
<text text-anchor="start" x="52.5" y="-252" font-family="Helvetica,sans-Serif" font-size="10.00">actions()</text>
<text text-anchor="start" x="39.5" y="-237" font-family="Helvetica,sans-Serif" font-size="10.00">+</text>
<text text-anchor="start" x="52.5" y="-237" font-family="Helvetica,sans-Serif" font-size="10.00">addAction()</text>
<text text-anchor="start" x="39.5" y="-222" font-family="Helvetica,sans-Serif" font-size="10.00">+</text>
<text text-anchor="start" x="52.5" y="-222" font-family="Helvetica,sans-Serif" font-size="10.00">BtActionCollection()</text>
<text text-anchor="start" x="39.5" y="-207" font-family="Helvetica,sans-Serif" font-size="10.00">+</text>
<text text-anchor="start" x="52.5" y="-207" font-family="Helvetica,sans-Serif" font-size="10.00">readShortcuts()</text>
<text text-anchor="start" x="39.5" y="-192" font-family="Helvetica,sans-Serif" font-size="10.00">+</text>
<text text-anchor="start" x="52.5" y="-192" font-family="Helvetica,sans-Serif" font-size="10.00">writeShortcuts()</text>
<text text-anchor="start" x="39.5" y="-177" font-family="Helvetica,sans-Serif" font-size="10.00">+</text>
<text text-anchor="start" x="52.5" y="-177" font-family="Helvetica,sans-Serif" font-size="10.00">getDefaultShortcut()</text>
<polygon fill="#666666" stroke="#666666" points="35.5,-307 35.5,-307 156.5,-307 156.5,-307 35.5,-307"/>
<polygon fill="#666666" stroke="#666666" points="35.5,-292 35.5,-292 50.5,-292 50.5,-292 35.5,-292"/>
<polygon fill="#666666" stroke="#666666" points="50.5,-292 50.5,-292 156.5,-292 156.5,-292 50.5,-292"/>
<polygon fill="none" stroke="#666666" points="35,-170 35,-324 156,-324 156,-170 35,-170"/>
</a>
</g>
</g>
<!-- Node3&#45;&gt;Node2 -->
<g id="edge2_Node000002_Node000003" class="edge">
<title>Node3&#45;&gt;Node2</title>
<g id="a_edge2_Node000002_Node000003"><a xlink:title=" ">
<path fill="none" stroke="#63b8ff" d="M95.5,-159.67C95.5,-150.37 95.5,-141.57 95.5,-134.06"/>
<polygon fill="none" stroke="#63b8ff" points="92,-159.93 95.5,-169.93 99,-159.93 92,-159.93"/>
</a>
</g>
</g>
<!-- Node4 -->
<g id="Node000004" class="node">
<title>Node4</title>
<g id="a_Node000004"><a xlink:href="../../d9/d5b/classQObject.html" target="_top" xlink:title=" ">
<polygon fill="white" stroke="transparent" points="120.5,-409 70.5,-409 70.5,-360 120.5,-360 120.5,-409"/>
<text text-anchor="start" x="75.5" y="-396.5" font-family="Helvetica,sans-Serif" font-size="10.00">QObject</text>
<text text-anchor="start" x="93.5" y="-381.5" font-family="Helvetica,sans-Serif" font-size="10.00"> </text>
<text text-anchor="start" x="93.5" y="-366.5" font-family="Helvetica,sans-Serif" font-size="10.00"> </text>
<polygon fill="#666666" stroke="#666666" points="70.5,-391.5 70.5,-391.5 120.5,-391.5 120.5,-391.5 70.5,-391.5"/>
<polygon fill="#666666" stroke="#666666" points="70.5,-376.5 70.5,-376.5 120.5,-376.5 120.5,-376.5 70.5,-376.5"/>
<polygon fill="none" stroke="#666666" points="70.5,-360 70.5,-409 120.5,-409 120.5,-360 70.5,-360"/>
</a>
</g>
</g>
<!-- Node4&#45;&gt;Node3 -->
<g id="edge3_Node000003_Node000004" class="edge">
<title>Node4&#45;&gt;Node3</title>
<g id="a_edge3_Node000003_Node000004"><a xlink:title=" ">
<path fill="none" stroke="#63b8ff" d="M95.5,-349.66C95.5,-341.74 95.5,-332.97 95.5,-324.01"/>
<polygon fill="none" stroke="#63b8ff" points="92,-349.9 95.5,-359.9 99,-349.9 92,-349.9"/>
</a>
</g>
</g>
</g>
</svg>
