<?xml version="1.0" encoding="UTF-8" standalone="no"?>
<!DOCTYPE svg PUBLIC "-//W3C//DTD SVG 1.1//EN"
 "http://www.w3.org/Graphics/SVG/1.1/DTD/svg11.dtd">
<!-- Generated by graphviz version 2.43.0 (0)
 -->
<!-- Title: CBookReadWindow::ActionCollection Pages: 1 -->
<svg width="205pt" height="425pt"
 viewBox="0.00 0.00 205.00 425.00" xmlns="http://www.w3.org/2000/svg" xmlns:xlink="http://www.w3.org/1999/xlink">
<g id="graph0" class="graph" transform="scale(1 1) rotate(0) translate(4 421)">
<title>CBookReadWindow::ActionCollection</title>
<polygon fill="white" stroke="transparent" points="-4,4 -4,-421 201,-421 201,4 -4,4"/>
<!-- Node1 -->
<g id="node1" class="node">
<title>Node1</title>
<g id="a_node1"><a xlink:title=" ">
<polygon fill="#bfbfbf" stroke="black" points="0,-0.5 0,-57.5 197,-57.5 197,-0.5 0,-0.5"/>
<text text-anchor="middle" x="98.5" y="-45.5" font-family="Helvetica,sans-Serif" font-size="10.00">CBookReadWindow::ActionCollection</text>
<polyline fill="none" stroke="black" points="0,-38.5 197,-38.5 "/>
<text text-anchor="middle" x="98.5" y="-26.5" font-family="Helvetica,sans-Serif" font-size="10.00"> </text>
<polyline fill="none" stroke="black" points="0,-19.5 197,-19.5 "/>
<text text-anchor="start" x="8" y="-7.5" font-family="Helvetica,sans-Serif" font-size="10.00">+ ActionCollection()</text>
</a>
</g>
</g>
<!-- Node2 -->
<g id="node2" class="node">
<title>Node2</title>
<g id="a_node2"><a xlink:href="../../db/ddf/classCDisplayWindow_1_1ActionCollection.html" target="_top" xlink:title=" ">
<polygon fill="white" stroke="black" points="6.5,-94.5 6.5,-151.5 190.5,-151.5 190.5,-94.5 6.5,-94.5"/>
<text text-anchor="middle" x="98.5" y="-139.5" font-family="Helvetica,sans-Serif" font-size="10.00">CDisplayWindow::ActionCollection</text>
<polyline fill="none" stroke="black" points="6.5,-132.5 190.5,-132.5 "/>
<text text-anchor="middle" x="98.5" y="-120.5" font-family="Helvetica,sans-Serif" font-size="10.00"> </text>
<polyline fill="none" stroke="black" points="6.5,-113.5 190.5,-113.5 "/>
<text text-anchor="start" x="14.5" y="-101.5" font-family="Helvetica,sans-Serif" font-size="10.00">+ ActionCollection()</text>
</a>
</g>
</g>
<!-- Node2&#45;&gt;Node1 -->
<g id="edge1" class="edge">
<title>Node2&#45;&gt;Node1</title>
<path fill="none" stroke="midnightblue" d="M98.5,-84.21C98.5,-75.29 98.5,-65.95 98.5,-57.58"/>
<polygon fill="none" stroke="midnightblue" points="95,-84.4 98.5,-94.4 102,-84.4 95,-84.4"/>
</g>
<!-- Node3 -->
<g id="node3" class="node">
<title>Node3</title>
<g id="a_node3"><a xlink:href="../../d0/d28/classBtActionCollection.html" target="_top" xlink:title=" ">
<polygon fill="white" stroke="black" points="34.5,-188.5 34.5,-322.5 162.5,-322.5 162.5,-188.5 34.5,-188.5"/>
<text text-anchor="middle" x="98.5" y="-310.5" font-family="Helvetica,sans-Serif" font-size="10.00">BtActionCollection</text>
<polyline fill="none" stroke="black" points="34.5,-303.5 162.5,-303.5 "/>
<text text-anchor="start" x="42.5" y="-291.5" font-family="Helvetica,sans-Serif" font-size="10.00">&#45; m_actions</text>
<polyline fill="none" stroke="black" points="34.5,-284.5 162.5,-284.5 "/>
<text text-anchor="start" x="42.5" y="-272.5" font-family="Helvetica,sans-Serif" font-size="10.00">+ action()</text>
<text text-anchor="start" x="42.5" y="-261.5" font-family="Helvetica,sans-Serif" font-size="10.00">+ actionAs()</text>
<text text-anchor="start" x="42.5" y="-250.5" font-family="Helvetica,sans-Serif" font-size="10.00">+ actions()</text>
<text text-anchor="start" x="42.5" y="-239.5" font-family="Helvetica,sans-Serif" font-size="10.00">+ addAction()</text>
<text text-anchor="start" x="42.5" y="-228.5" font-family="Helvetica,sans-Serif" font-size="10.00">+ BtActionCollection()</text>
<text text-anchor="start" x="42.5" y="-217.5" font-family="Helvetica,sans-Serif" font-size="10.00">+ readShortcuts()</text>
<text text-anchor="start" x="42.5" y="-206.5" font-family="Helvetica,sans-Serif" font-size="10.00">+ writeShortcuts()</text>
<text text-anchor="start" x="42.5" y="-195.5" font-family="Helvetica,sans-Serif" font-size="10.00">+ getDefaultShortcut()</text>
</a>
</g>
</g>
<!-- Node3&#45;&gt;Node2 -->
<g id="edge2" class="edge">
<title>Node3&#45;&gt;Node2</title>
<path fill="none" stroke="midnightblue" d="M98.5,-178.46C98.5,-168.91 98.5,-159.68 98.5,-151.61"/>
<polygon fill="none" stroke="midnightblue" points="95,-178.49 98.5,-188.49 102,-178.49 95,-178.49"/>
</g>
<!-- Node4 -->
<g id="node4" class="node">
<title>Node4</title>
<g id="a_node4"><a xlink:href="../../d9/d5b/classQObject.html" target="_top" xlink:title=" ">
<polygon fill="white" stroke="black" points="70.5,-359.5 70.5,-416.5 126.5,-416.5 126.5,-359.5 70.5,-359.5"/>
<text text-anchor="middle" x="98.5" y="-404.5" font-family="Helvetica,sans-Serif" font-size="10.00">QObject</text>
<polyline fill="none" stroke="black" points="70.5,-397.5 126.5,-397.5 "/>
<text text-anchor="middle" x="98.5" y="-385.5" font-family="Helvetica,sans-Serif" font-size="10.00"> </text>
<polyline fill="none" stroke="black" points="70.5,-378.5 126.5,-378.5 "/>
<text text-anchor="middle" x="98.5" y="-366.5" font-family="Helvetica,sans-Serif" font-size="10.00"> </text>
</a>
</g>
</g>
<!-- Node4&#45;&gt;Node3 -->
<g id="edge3" class="edge">
<title>Node4&#45;&gt;Node3</title>
<path fill="none" stroke="midnightblue" d="M98.5,-349.16C98.5,-340.78 98.5,-331.67 98.5,-322.53"/>
<polygon fill="none" stroke="midnightblue" points="95,-349.32 98.5,-359.32 102,-349.32 95,-349.32"/>
</g>
</g>
</svg>
