<?xml version="1.0" encoding="UTF-8" standalone="no"?>
<!DOCTYPE svg PUBLIC "-//W3C//DTD SVG 1.1//EN"
 "http://www.w3.org/Graphics/SVG/1.1/DTD/svg11.dtd">
<!-- Generated by graphviz version 2.43.0 (0)
 -->
<!-- Title: btfindwidget.h Pages: 1 -->
<svg width="460pt" height="84pt"
 viewBox="0.00 0.00 459.50 84.00" xmlns="http://www.w3.org/2000/svg" xmlns:xlink="http://www.w3.org/1999/xlink">
<g id="graph0" class="graph" transform="scale(1 1) rotate(0) translate(4 80)">
<title>btfindwidget.h</title>
<polygon fill="white" stroke="transparent" points="-4,4 -4,-80 455.5,-80 455.5,4 -4,4"/>
<!-- Node1 -->
<g id="node1" class="node">
<title>Node1</title>
<g id="a_node1"><a xlink:title=" ">
<polygon fill="#bfbfbf" stroke="black" points="173.5,-56.5 173.5,-75.5 259.5,-75.5 259.5,-56.5 173.5,-56.5"/>
<text text-anchor="middle" x="216.5" y="-63.5" font-family="Helvetica,sans-Serif" font-size="10.00">btfindwidget.h</text>
</a>
</g>
</g>
<!-- Node2 -->
<g id="node2" class="node">
<title>Node2</title>
<g id="a_node2"><a xlink:href="../../d1/df6/bibletime_8cpp.html" target="_top" xlink:title=" ">
<polygon fill="white" stroke="black" points="0,-0.5 0,-19.5 83,-19.5 83,-0.5 0,-0.5"/>
<text text-anchor="middle" x="41.5" y="-7.5" font-family="Helvetica,sans-Serif" font-size="10.00">bibletime.cpp</text>
</a>
</g>
</g>
<!-- Node1&#45;&gt;Node2 -->
<g id="edge1" class="edge">
<title>Node1&#45;&gt;Node2</title>
<path fill="none" stroke="midnightblue" d="M179.03,-53.44C146.03,-43.26 98.74,-28.66 69.1,-19.52"/>
<polygon fill="midnightblue" stroke="midnightblue" points="178.18,-56.84 188.77,-56.44 180.25,-50.15 178.18,-56.84"/>
</g>
<!-- Node3 -->
<g id="node3" class="node">
<title>Node3</title>
<g id="a_node3"><a xlink:href="../../da/dc7/bibletime__init_8cpp.html" target="_top" xlink:title=" ">
<polygon fill="white" stroke="black" points="101.5,-0.5 101.5,-19.5 205.5,-19.5 205.5,-0.5 101.5,-0.5"/>
<text text-anchor="middle" x="153.5" y="-7.5" font-family="Helvetica,sans-Serif" font-size="10.00">bibletime_init.cpp</text>
</a>
</g>
</g>
<!-- Node1&#45;&gt;Node3 -->
<g id="edge2" class="edge">
<title>Node1&#45;&gt;Node3</title>
<path fill="none" stroke="midnightblue" d="M198.46,-49.54C187.23,-39.91 173.18,-27.87 163.81,-19.83"/>
<polygon fill="midnightblue" stroke="midnightblue" points="196.51,-52.47 206.38,-56.32 201.06,-47.16 196.51,-52.47"/>
</g>
<!-- Node4 -->
<g id="node4" class="node">
<title>Node4</title>
<g id="a_node4"><a xlink:href="../../d6/d96/bibletime__slots_8cpp.html" target="_top" xlink:title=" ">
<polygon fill="white" stroke="black" points="223.5,-0.5 223.5,-19.5 335.5,-19.5 335.5,-0.5 223.5,-0.5"/>
<text text-anchor="middle" x="279.5" y="-7.5" font-family="Helvetica,sans-Serif" font-size="10.00">bibletime_slots.cpp</text>
</a>
</g>
</g>
<!-- Node1&#45;&gt;Node4 -->
<g id="edge3" class="edge">
<title>Node1&#45;&gt;Node4</title>
<path fill="none" stroke="midnightblue" d="M234.54,-49.54C245.77,-39.91 259.82,-27.87 269.19,-19.83"/>
<polygon fill="midnightblue" stroke="midnightblue" points="231.94,-47.16 226.62,-56.32 236.49,-52.47 231.94,-47.16"/>
</g>
<!-- Node5 -->
<g id="node5" class="node">
<title>Node5</title>
<g id="a_node5"><a xlink:href="../../de/dee/btfindwidget_8cpp.html" target="_top" xlink:title=" ">
<polygon fill="white" stroke="black" points="353.5,-0.5 353.5,-19.5 451.5,-19.5 451.5,-0.5 353.5,-0.5"/>
<text text-anchor="middle" x="402.5" y="-7.5" font-family="Helvetica,sans-Serif" font-size="10.00">btfindwidget.cpp</text>
</a>
</g>
</g>
<!-- Node1&#45;&gt;Node5 -->
<g id="edge4" class="edge">
<title>Node1&#45;&gt;Node5</title>
<path fill="none" stroke="midnightblue" d="M255.88,-53.57C290.97,-43.38 341.52,-28.7 373.17,-19.52"/>
<polygon fill="midnightblue" stroke="midnightblue" points="254.6,-50.29 245.97,-56.44 256.55,-57.02 254.6,-50.29"/>
</g>
</g>
</svg>
