<?xml version="1.0" encoding="UTF-8" standalone="no"?>
<!DOCTYPE svg PUBLIC "-//W3C//DTD SVG 1.1//EN"
 "http://www.w3.org/Graphics/SVG/1.1/DTD/svg11.dtd">
<!-- Generated by graphviz version 2.43.0 (0)
 -->
<!-- Title: CSwordModuleInfo Pages: 1 -->
<!--zoomable 1302 -->

<svg id="main" version="1.1" xmlns="http://www.w3.org/2000/svg" xmlns:xlink="http://www.w3.org/1999/xlink" xml:space="preserve" onload="init(evt)">
<style type="text/css"><![CDATA[
.node, .edge {opacity: 0.7;}
.node.selected, .edge.selected {opacity: 1;}
.edge:hover path { stroke: red; }
.edge:hover polygon { stroke: red; fill: red; }
]]></style>

<defs>
  <circle id="rim" cx="0" cy="0" r="7"/>
  <circle id="rim2" cx="0" cy="0" r="3.5"/>
  <g id="zoomPlus">
    <use xlink:href="#rim" fill="#404040"><set attributeName="fill" to="#808080" begin="zoomplus.mouseover" end="zoomplus.mouseout"/></use>
    <path d="M-4,0h8M0,-4v8" fill="none" stroke="white" stroke-width="1.5" pointer-events="none"/>
  </g>
  <g id="zoomMin">
    <use xlink:href="#rim" fill="#404040"><set attributeName="fill" to="#808080" begin="zoomminus.mouseover" end="zoomminus.mouseout"/></use>
    <path d="M-4,0h8" fill="none" stroke="white" stroke-width="1.5" pointer-events="none"/>
  </g>
  <g id="arrowUp" transform="translate(30 24)">
    <use xlink:href="#rim"/>
    <path pointer-events="none" fill="none" stroke="white" stroke-width="1.5" d="M0,-3.0v7 M-2.5,-0.5L0,-3.0L2.5,-0.5"/>
  </g>
  <g id="arrowRight" transform="rotate(90) translate(36 -43)">
    <use xlink:href="#rim"/>
    <path pointer-events="none" fill="none" stroke="white" stroke-width="1.5" d="M0,-3.0v7 M-2.5,-0.5L0,-3.0L2.5,-0.5"/>
  </g>
  <g id="arrowDown" transform="rotate(180) translate(-30 -48)">
    <use xlink:href="#rim"/>
    <path pointer-events="none" fill="none" stroke="white" stroke-width="1.5" d="M0,-3.0v7 M-2.5,-0.5L0,-3.0L2.5,-0.5"/>
  </g>
  <g id="arrowLeft" transform="rotate(270) translate(-36 17)">
    <use xlink:href="#rim"/>
    <path pointer-events="none" fill="none" stroke="white" stroke-width="1.5" d="M0,-3.0v7 M-2.5,-0.5L0,-3.0L2.5,-0.5"/>
  </g>
  <g id="resetDef">
    <use xlink:href="#rim2" fill="#404040"><set attributeName="fill" to="#808080" begin="reset.mouseover" end="reset.mouseout"/></use>
  </g>
</defs>
<script type="application/ecmascript">
var viewWidth = 517;
var viewHeight = 1302;
var sectionId = 'dynsection-0';
</script>
<script type="application/ecmascript" xlink:href="../../svg.min.js"/>
<svg id="graph" class="graph">
<g id="viewport">
<title>CSwordModuleInfo</title>
<!-- Node1 -->
<g id="Node000001" class="node">
<title>Node1</title>
<g id="a_Node000001"><a xlink:title=" ">
<polygon fill="#999999" stroke="transparent" points="356.5,-1209 163.5,-1209 163.5,-470 356.5,-470 356.5,-1209"/>
<text text-anchor="start" x="214.5" y="-1196.5" font-family="Helvetica,sans-Serif" font-size="10.00">CSwordModuleInfo</text>
<text text-anchor="start" x="168" y="-1181.5" font-family="Helvetica,sans-Serif" font-size="10.00">+</text>
<text text-anchor="start" x="181" y="-1181.5" font-family="Helvetica,sans-Serif" font-size="10.00">footnotes</text>
<text text-anchor="start" x="168" y="-1166.5" font-family="Helvetica,sans-Serif" font-size="10.00">+</text>
<text text-anchor="start" x="181" y="-1166.5" font-family="Helvetica,sans-Serif" font-size="10.00">greekAccents</text>
<text text-anchor="start" x="168" y="-1151.5" font-family="Helvetica,sans-Serif" font-size="10.00">+</text>
<text text-anchor="start" x="181" y="-1151.5" font-family="Helvetica,sans-Serif" font-size="10.00">headings</text>
<text text-anchor="start" x="168" y="-1136.5" font-family="Helvetica,sans-Serif" font-size="10.00">+</text>
<text text-anchor="start" x="181" y="-1136.5" font-family="Helvetica,sans-Serif" font-size="10.00">hebrewCantillation</text>
<text text-anchor="start" x="168" y="-1121.5" font-family="Helvetica,sans-Serif" font-size="10.00">+</text>
<text text-anchor="start" x="181" y="-1121.5" font-family="Helvetica,sans-Serif" font-size="10.00">hebrewPoints</text>
<text text-anchor="start" x="168" y="-1106.5" font-family="Helvetica,sans-Serif" font-size="10.00">+</text>
<text text-anchor="start" x="181" y="-1106.5" font-family="Helvetica,sans-Serif" font-size="10.00">lemmas</text>
<text text-anchor="start" x="168" y="-1091.5" font-family="Helvetica,sans-Serif" font-size="10.00">+</text>
<text text-anchor="start" x="181" y="-1091.5" font-family="Helvetica,sans-Serif" font-size="10.00">morphSegmentation</text>
<text text-anchor="start" x="168" y="-1076.5" font-family="Helvetica,sans-Serif" font-size="10.00">+</text>
<text text-anchor="start" x="181" y="-1076.5" font-family="Helvetica,sans-Serif" font-size="10.00">morphTags</text>
<text text-anchor="start" x="168" y="-1061.5" font-family="Helvetica,sans-Serif" font-size="10.00">+</text>
<text text-anchor="start" x="181" y="-1061.5" font-family="Helvetica,sans-Serif" font-size="10.00">redLetterWords</text>
<text text-anchor="start" x="168" y="-1046.5" font-family="Helvetica,sans-Serif" font-size="10.00">+</text>
<text text-anchor="start" x="181" y="-1046.5" font-family="Helvetica,sans-Serif" font-size="10.00">scriptureReferences</text>
<text text-anchor="start" x="168" y="-1031.5" font-family="Helvetica,sans-Serif" font-size="10.00">+</text>
<text text-anchor="start" x="181" y="-1031.5" font-family="Helvetica,sans-Serif" font-size="10.00">strongNumbers</text>
<text text-anchor="start" x="168" y="-1016.5" font-family="Helvetica,sans-Serif" font-size="10.00">+</text>
<text text-anchor="start" x="181" y="-1016.5" font-family="Helvetica,sans-Serif" font-size="10.00">textualVariants</text>
<text text-anchor="start" x="170.5" y="-1001.5" font-family="Helvetica,sans-Serif" font-size="10.00">&#45;</text>
<text text-anchor="start" x="181" y="-1001.5" font-family="Helvetica,sans-Serif" font-size="10.00">m_backend</text>
<text text-anchor="start" x="170.5" y="-986.5" font-family="Helvetica,sans-Serif" font-size="10.00">&#45;</text>
<text text-anchor="start" x="181" y="-986.5" font-family="Helvetica,sans-Serif" font-size="10.00">m_cachedCategory</text>
<text text-anchor="start" x="170.5" y="-971.5" font-family="Helvetica,sans-Serif" font-size="10.00">&#45;</text>
<text text-anchor="start" x="181" y="-971.5" font-family="Helvetica,sans-Serif" font-size="10.00">m_cachedFeatures</text>
<text text-anchor="start" x="170.5" y="-956.5" font-family="Helvetica,sans-Serif" font-size="10.00">&#45;</text>
<text text-anchor="start" x="181" y="-956.5" font-family="Helvetica,sans-Serif" font-size="10.00">m_cachedGlossaryTargetLanguage</text>
<text text-anchor="start" x="170.5" y="-941.5" font-family="Helvetica,sans-Serif" font-size="10.00">&#45;</text>
<text text-anchor="start" x="181" y="-941.5" font-family="Helvetica,sans-Serif" font-size="10.00">m_cachedHasVersion</text>
<text text-anchor="start" x="170.5" y="-926.5" font-family="Helvetica,sans-Serif" font-size="10.00">&#45;</text>
<text text-anchor="start" x="181" y="-926.5" font-family="Helvetica,sans-Serif" font-size="10.00">m_cachedLanguage</text>
<text text-anchor="start" x="170.5" y="-911.5" font-family="Helvetica,sans-Serif" font-size="10.00">&#45;</text>
<text text-anchor="start" x="181" y="-911.5" font-family="Helvetica,sans-Serif" font-size="10.00">m_cachedName</text>
<text text-anchor="start" x="170.5" y="-896.5" font-family="Helvetica,sans-Serif" font-size="10.00">&#45;</text>
<text text-anchor="start" x="181" y="-896.5" font-family="Helvetica,sans-Serif" font-size="10.00">m_cancelIndexing</text>
<text text-anchor="start" x="170.5" y="-881.5" font-family="Helvetica,sans-Serif" font-size="10.00">&#45;</text>
<text text-anchor="start" x="181" y="-881.5" font-family="Helvetica,sans-Serif" font-size="10.00">m_hidden</text>
<text text-anchor="start" x="170.5" y="-866.5" font-family="Helvetica,sans-Serif" font-size="10.00">&#45;</text>
<text text-anchor="start" x="181" y="-866.5" font-family="Helvetica,sans-Serif" font-size="10.00">m_swordModule</text>
<text text-anchor="start" x="170.5" y="-851.5" font-family="Helvetica,sans-Serif" font-size="10.00">&#45;</text>
<text text-anchor="start" x="181" y="-851.5" font-family="Helvetica,sans-Serif" font-size="10.00">m_type</text>
<text text-anchor="start" x="168" y="-836.5" font-family="Helvetica,sans-Serif" font-size="10.00">+</text>
<text text-anchor="start" x="181" y="-836.5" font-family="Helvetica,sans-Serif" font-size="10.00">aboutText()</text>
<text text-anchor="start" x="168" y="-821.5" font-family="Helvetica,sans-Serif" font-size="10.00">+</text>
<text text-anchor="start" x="181" y="-821.5" font-family="Helvetica,sans-Serif" font-size="10.00">buildIndex()</text>
<text text-anchor="start" x="168" y="-806.5" font-family="Helvetica,sans-Serif" font-size="10.00">+</text>
<text text-anchor="start" x="181" y="-806.5" font-family="Helvetica,sans-Serif" font-size="10.00">category()</text>
<text text-anchor="start" x="168" y="-791.5" font-family="Helvetica,sans-Serif" font-size="10.00">+</text>
<text text-anchor="start" x="181" y="-791.5" font-family="Helvetica,sans-Serif" font-size="10.00">config()</text>
<text text-anchor="start" x="168" y="-776.5" font-family="Helvetica,sans-Serif" font-size="10.00">+</text>
<text text-anchor="start" x="181" y="-776.5" font-family="Helvetica,sans-Serif" font-size="10.00">createKey()</text>
<text text-anchor="start" x="168" y="-761.5" font-family="Helvetica,sans-Serif" font-size="10.00">+</text>
<text text-anchor="start" x="181" y="-761.5" font-family="Helvetica,sans-Serif" font-size="10.00">CSwordModuleInfo()</text>
<text text-anchor="start" x="168" y="-746.5" font-family="Helvetica,sans-Serif" font-size="10.00">+</text>
<text text-anchor="start" x="181" y="-746.5" font-family="Helvetica,sans-Serif" font-size="10.00">CSwordModuleInfo()</text>
<text text-anchor="start" x="168" y="-731.5" font-family="Helvetica,sans-Serif" font-size="10.00">+</text>
<text text-anchor="start" x="181" y="-731.5" font-family="Helvetica,sans-Serif" font-size="10.00">deleteIndex()</text>
<text text-anchor="start" x="168" y="-716.5" font-family="Helvetica,sans-Serif" font-size="10.00">+</text>
<text text-anchor="start" x="181" y="-716.5" font-family="Helvetica,sans-Serif" font-size="10.00">getModuleBaseIndexLocation()</text>
<text text-anchor="start" x="168" y="-701.5" font-family="Helvetica,sans-Serif" font-size="10.00">+</text>
<text text-anchor="start" x="181" y="-701.5" font-family="Helvetica,sans-Serif" font-size="10.00">getModuleStandardIndexLocation()</text>
<text text-anchor="start" x="181" y="-686.5" font-family="Helvetica,sans-Serif" font-size="10.00">and 28 more...</text>
<text text-anchor="start" x="168" y="-671.5" font-family="Helvetica,sans-Serif" font-size="10.00">+</text>
<text text-anchor="start" x="181" y="-671.5" font-family="Helvetica,sans-Serif" font-size="10.00">categoryIcon()</text>
<text text-anchor="start" x="168" y="-656.5" font-family="Helvetica,sans-Serif" font-size="10.00">+</text>
<text text-anchor="start" x="181" y="-656.5" font-family="Helvetica,sans-Serif" font-size="10.00">categoryIconAdd()</text>
<text text-anchor="start" x="168" y="-641.5" font-family="Helvetica,sans-Serif" font-size="10.00">+</text>
<text text-anchor="start" x="181" y="-641.5" font-family="Helvetica,sans-Serif" font-size="10.00">categoryIconAdd()</text>
<text text-anchor="start" x="168" y="-626.5" font-family="Helvetica,sans-Serif" font-size="10.00">+</text>
<text text-anchor="start" x="181" y="-626.5" font-family="Helvetica,sans-Serif" font-size="10.00">categoryIconLocked()</text>
<text text-anchor="start" x="168" y="-611.5" font-family="Helvetica,sans-Serif" font-size="10.00">+</text>
<text text-anchor="start" x="181" y="-611.5" font-family="Helvetica,sans-Serif" font-size="10.00">categoryName()</text>
<text text-anchor="start" x="168" y="-596.5" font-family="Helvetica,sans-Serif" font-size="10.00">+</text>
<text text-anchor="start" x="181" y="-596.5" font-family="Helvetica,sans-Serif" font-size="10.00">deleteIndexForModule()</text>
<text text-anchor="start" x="168" y="-581.5" font-family="Helvetica,sans-Serif" font-size="10.00">+</text>
<text text-anchor="start" x="181" y="-581.5" font-family="Helvetica,sans-Serif" font-size="10.00">getGlobalBaseIndexLocation()</text>
<text text-anchor="start" x="168" y="-566.5" font-family="Helvetica,sans-Serif" font-size="10.00">+</text>
<text text-anchor="start" x="181" y="-566.5" font-family="Helvetica,sans-Serif" font-size="10.00">cancelIndexing()</text>
<text text-anchor="start" x="168" y="-551.5" font-family="Helvetica,sans-Serif" font-size="10.00">#</text>
<text text-anchor="start" x="181" y="-551.5" font-family="Helvetica,sans-Serif" font-size="10.00">backend()</text>
<text text-anchor="start" x="168" y="-536.5" font-family="Helvetica,sans-Serif" font-size="10.00">#</text>
<text text-anchor="start" x="181" y="-536.5" font-family="Helvetica,sans-Serif" font-size="10.00">CSwordModuleInfo()</text>
<text text-anchor="start" x="168" y="-521.5" font-family="Helvetica,sans-Serif" font-size="10.00">#</text>
<text text-anchor="start" x="181" y="-521.5" font-family="Helvetica,sans-Serif" font-size="10.00">getFormattedConfigEntry()</text>
<text text-anchor="start" x="168" y="-506.5" font-family="Helvetica,sans-Serif" font-size="10.00">#</text>
<text text-anchor="start" x="181" y="-506.5" font-family="Helvetica,sans-Serif" font-size="10.00">getSimpleConfigEntry()</text>
<text text-anchor="start" x="168" y="-491.5" font-family="Helvetica,sans-Serif" font-size="10.00">#</text>
<text text-anchor="start" x="181" y="-491.5" font-family="Helvetica,sans-Serif" font-size="10.00">hasImportantFilterOption()</text>
<text text-anchor="start" x="168" y="-476.5" font-family="Helvetica,sans-Serif" font-size="10.00">#</text>
<text text-anchor="start" x="181" y="-476.5" font-family="Helvetica,sans-Serif" font-size="10.00">setImportantFilterOptions()</text>
<polygon fill="#666666" stroke="#666666" points="164,-1191.5 164,-1191.5 357,-1191.5 357,-1191.5 164,-1191.5"/>
<polygon fill="#666666" stroke="#666666" points="164,-846.5 164,-846.5 179,-846.5 179,-846.5 164,-846.5"/>
<polygon fill="#666666" stroke="#666666" points="179,-846.5 179,-846.5 357,-846.5 357,-846.5 179,-846.5"/>
<polygon fill="none" stroke="#666666" points="163.5,-470 163.5,-1209 356.5,-1209 356.5,-470 163.5,-470"/>
</a>
</g>
</g>
<!-- Node3 -->
<g id="Node000003" class="node">
<title>Node3</title>
<g id="a_Node000003"><a xlink:href="../../db/d50/classCSwordBibleModuleInfo.html" target="_top" xlink:title="Implementation for Sword Bibles.">
<polygon fill="white" stroke="transparent" points="169,-434 15,-434 15,-100 169,-100 169,-434"/>
<text text-anchor="start" x="33.5" y="-422" font-family="Helvetica,sans-Serif" font-size="10.00">CSwordBibleModuleInfo</text>
<text text-anchor="start" x="21.5" y="-407" font-family="Helvetica,sans-Serif" font-size="10.00">&#45;</text>
<text text-anchor="start" x="32" y="-407" font-family="Helvetica,sans-Serif" font-size="10.00">m_bookList</text>
<text text-anchor="start" x="21.5" y="-392" font-family="Helvetica,sans-Serif" font-size="10.00">&#45;</text>
<text text-anchor="start" x="32" y="-392" font-family="Helvetica,sans-Serif" font-size="10.00">m_boundsInitialized</text>
<text text-anchor="start" x="21.5" y="-377" font-family="Helvetica,sans-Serif" font-size="10.00">&#45;</text>
<text text-anchor="start" x="32" y="-377" font-family="Helvetica,sans-Serif" font-size="10.00">m_cachedLocale</text>
<text text-anchor="start" x="21.5" y="-362" font-family="Helvetica,sans-Serif" font-size="10.00">&#45;</text>
<text text-anchor="start" x="32" y="-362" font-family="Helvetica,sans-Serif" font-size="10.00">m_hasNT</text>
<text text-anchor="start" x="21.5" y="-347" font-family="Helvetica,sans-Serif" font-size="10.00">&#45;</text>
<text text-anchor="start" x="32" y="-347" font-family="Helvetica,sans-Serif" font-size="10.00">m_hasOT</text>
<text text-anchor="start" x="21.5" y="-332" font-family="Helvetica,sans-Serif" font-size="10.00">&#45;</text>
<text text-anchor="start" x="32" y="-332" font-family="Helvetica,sans-Serif" font-size="10.00">m_lowerBound</text>
<text text-anchor="start" x="21.5" y="-317" font-family="Helvetica,sans-Serif" font-size="10.00">&#45;</text>
<text text-anchor="start" x="32" y="-317" font-family="Helvetica,sans-Serif" font-size="10.00">m_upperBound</text>
<text text-anchor="start" x="19" y="-302" font-family="Helvetica,sans-Serif" font-size="10.00">+</text>
<text text-anchor="start" x="32" y="-302" font-family="Helvetica,sans-Serif" font-size="10.00">bookNumber()</text>
<text text-anchor="start" x="19" y="-287" font-family="Helvetica,sans-Serif" font-size="10.00">+</text>
<text text-anchor="start" x="32" y="-287" font-family="Helvetica,sans-Serif" font-size="10.00">books()</text>
<text text-anchor="start" x="19" y="-272" font-family="Helvetica,sans-Serif" font-size="10.00">+</text>
<text text-anchor="start" x="32" y="-272" font-family="Helvetica,sans-Serif" font-size="10.00">chapterCount()</text>
<text text-anchor="start" x="19" y="-257" font-family="Helvetica,sans-Serif" font-size="10.00">+</text>
<text text-anchor="start" x="32" y="-257" font-family="Helvetica,sans-Serif" font-size="10.00">chapterCount()</text>
<text text-anchor="start" x="19" y="-242" font-family="Helvetica,sans-Serif" font-size="10.00">+</text>
<text text-anchor="start" x="32" y="-242" font-family="Helvetica,sans-Serif" font-size="10.00">createKey()</text>
<text text-anchor="start" x="19" y="-227" font-family="Helvetica,sans-Serif" font-size="10.00">+</text>
<text text-anchor="start" x="32" y="-227" font-family="Helvetica,sans-Serif" font-size="10.00">CSwordBibleModuleInfo()</text>
<text text-anchor="start" x="19" y="-212" font-family="Helvetica,sans-Serif" font-size="10.00">+</text>
<text text-anchor="start" x="32" y="-212" font-family="Helvetica,sans-Serif" font-size="10.00">hasNewTestament()</text>
<text text-anchor="start" x="19" y="-197" font-family="Helvetica,sans-Serif" font-size="10.00">+</text>
<text text-anchor="start" x="32" y="-197" font-family="Helvetica,sans-Serif" font-size="10.00">hasOldTestament()</text>
<text text-anchor="start" x="19" y="-182" font-family="Helvetica,sans-Serif" font-size="10.00">+</text>
<text text-anchor="start" x="32" y="-182" font-family="Helvetica,sans-Serif" font-size="10.00">lowerBound()</text>
<text text-anchor="start" x="19" y="-167" font-family="Helvetica,sans-Serif" font-size="10.00">+</text>
<text text-anchor="start" x="32" y="-167" font-family="Helvetica,sans-Serif" font-size="10.00">upperBound()</text>
<text text-anchor="start" x="19" y="-152" font-family="Helvetica,sans-Serif" font-size="10.00">+</text>
<text text-anchor="start" x="32" y="-152" font-family="Helvetica,sans-Serif" font-size="10.00">verseCount()</text>
<text text-anchor="start" x="19" y="-137" font-family="Helvetica,sans-Serif" font-size="10.00">+</text>
<text text-anchor="start" x="32" y="-137" font-family="Helvetica,sans-Serif" font-size="10.00">verseCount()</text>
<text text-anchor="start" x="19" y="-122" font-family="Helvetica,sans-Serif" font-size="10.00">+</text>
<text text-anchor="start" x="32" y="-122" font-family="Helvetica,sans-Serif" font-size="10.00">~CSwordBibleModuleInfo()</text>
<text text-anchor="start" x="21.5" y="-107" font-family="Helvetica,sans-Serif" font-size="10.00">&#45;</text>
<text text-anchor="start" x="32" y="-107" font-family="Helvetica,sans-Serif" font-size="10.00">initBounds()</text>
<polygon fill="#666666" stroke="#666666" points="15,-417 15,-417 169,-417 169,-417 15,-417"/>
<polygon fill="#666666" stroke="#666666" points="15,-312 15,-312 30,-312 30,-312 15,-312"/>
<polygon fill="#666666" stroke="#666666" points="30,-312 30,-312 169,-312 169,-312 30,-312"/>
<polygon fill="none" stroke="#666666" points="15,-100 15,-434 169,-434 169,-100 15,-100"/>
</a>
</g>
</g>
<!-- Node1&#45;&gt;Node3 -->
<g id="edge2_Node000001_Node000003" class="edge">
<title>Node1&#45;&gt;Node3</title>
<g id="a_edge2_Node000001_Node000003"><a xlink:title=" ">
<path fill="none" stroke="#63b8ff" d="M160.59,-500.92C153.84,-478.01 147.23,-455.57 140.94,-434.21"/>
<polygon fill="none" stroke="#63b8ff" points="157.31,-502.17 163.49,-510.77 164.02,-500.19 157.31,-502.17"/>
</a>
</g>
</g>
<!-- Node5 -->
<g id="Node000005" class="node">
<title>Node5</title>
<g id="a_Node000005"><a xlink:href="../../db/d7a/classCSwordBookModuleInfo.html" target="_top" xlink:title="Class for generic book support.">
<polygon fill="white" stroke="transparent" points="332.5,-314 187.5,-314 187.5,-220 332.5,-220 332.5,-314"/>
<text text-anchor="start" x="202" y="-302" font-family="Helvetica,sans-Serif" font-size="10.00">CSwordBookModuleInfo</text>
<text text-anchor="start" x="194.5" y="-287" font-family="Helvetica,sans-Serif" font-size="10.00">&#45;</text>
<text text-anchor="start" x="205" y="-287" font-family="Helvetica,sans-Serif" font-size="10.00">m_depth</text>
<text text-anchor="start" x="192" y="-272" font-family="Helvetica,sans-Serif" font-size="10.00">+</text>
<text text-anchor="start" x="205" y="-272" font-family="Helvetica,sans-Serif" font-size="10.00">createKey()</text>
<text text-anchor="start" x="192" y="-257" font-family="Helvetica,sans-Serif" font-size="10.00">+</text>
<text text-anchor="start" x="205" y="-257" font-family="Helvetica,sans-Serif" font-size="10.00">CSwordBookModuleInfo()</text>
<text text-anchor="start" x="192" y="-242" font-family="Helvetica,sans-Serif" font-size="10.00">+</text>
<text text-anchor="start" x="205" y="-242" font-family="Helvetica,sans-Serif" font-size="10.00">depth()</text>
<text text-anchor="start" x="192" y="-227" font-family="Helvetica,sans-Serif" font-size="10.00">+</text>
<text text-anchor="start" x="205" y="-227" font-family="Helvetica,sans-Serif" font-size="10.00">tree()</text>
<polygon fill="#666666" stroke="#666666" points="188,-297 188,-297 333,-297 333,-297 188,-297"/>
<polygon fill="#666666" stroke="#666666" points="188,-282 188,-282 203,-282 203,-282 188,-282"/>
<polygon fill="#666666" stroke="#666666" points="203,-282 203,-282 333,-282 333,-282 203,-282"/>
<polygon fill="none" stroke="#666666" points="187.5,-220 187.5,-314 332.5,-314 332.5,-220 187.5,-220"/>
</a>
</g>
</g>
<!-- Node1&#45;&gt;Node5 -->
<g id="edge4_Node000001_Node000005" class="edge">
<title>Node1&#45;&gt;Node5</title>
<g id="a_edge4_Node000001_Node000005"><a xlink:title=" ">
<path fill="none" stroke="#63b8ff" d="M260,-459.8C260,-401.73 260,-349.46 260,-314.21"/>
<polygon fill="none" stroke="#63b8ff" points="256.5,-459.94 260,-469.94 263.5,-459.94 256.5,-459.94"/>
</a>
</g>
</g>
<!-- Node6 -->
<g id="Node000006" class="node">
<title>Node6</title>
<g id="a_Node000006"><a xlink:href="../../dd/d0a/classCSwordLexiconModuleInfo.html" target="_top" xlink:title=" ">
<polygon fill="white" stroke="transparent" points="509,-351.5 351,-351.5 351,-182.5 509,-182.5 509,-351.5"/>
<text text-anchor="start" x="365" y="-339" font-family="Helvetica,sans-Serif" font-size="10.00">CSwordLexiconModuleInfo</text>
<text text-anchor="start" x="357.5" y="-324" font-family="Helvetica,sans-Serif" font-size="10.00">&#45;</text>
<text text-anchor="start" x="368" y="-324" font-family="Helvetica,sans-Serif" font-size="10.00">m_entries</text>
<text text-anchor="start" x="357.5" y="-309" font-family="Helvetica,sans-Serif" font-size="10.00">&#45;</text>
<text text-anchor="start" x="368" y="-309" font-family="Helvetica,sans-Serif" font-size="10.00">m_hasLeadingStrongsLetter</text>
<text text-anchor="start" x="357.5" y="-294" font-family="Helvetica,sans-Serif" font-size="10.00">&#45;</text>
<text text-anchor="start" x="368" y="-294" font-family="Helvetica,sans-Serif" font-size="10.00">m_hasStrongsKeys</text>
<text text-anchor="start" x="357.5" y="-279" font-family="Helvetica,sans-Serif" font-size="10.00">&#45;</text>
<text text-anchor="start" x="368" y="-279" font-family="Helvetica,sans-Serif" font-size="10.00">m_strongsDigitsLength</text>
<text text-anchor="start" x="355" y="-264" font-family="Helvetica,sans-Serif" font-size="10.00">+</text>
<text text-anchor="start" x="368" y="-264" font-family="Helvetica,sans-Serif" font-size="10.00">createKey()</text>
<text text-anchor="start" x="355" y="-249" font-family="Helvetica,sans-Serif" font-size="10.00">+</text>
<text text-anchor="start" x="368" y="-249" font-family="Helvetica,sans-Serif" font-size="10.00">CSwordLexiconModuleInfo()</text>
<text text-anchor="start" x="355" y="-234" font-family="Helvetica,sans-Serif" font-size="10.00">+</text>
<text text-anchor="start" x="368" y="-234" font-family="Helvetica,sans-Serif" font-size="10.00">entries()</text>
<text text-anchor="start" x="355" y="-219" font-family="Helvetica,sans-Serif" font-size="10.00">+</text>
<text text-anchor="start" x="368" y="-219" font-family="Helvetica,sans-Serif" font-size="10.00">hasStrongsKeys()</text>
<text text-anchor="start" x="355" y="-204" font-family="Helvetica,sans-Serif" font-size="10.00">+</text>
<text text-anchor="start" x="368" y="-204" font-family="Helvetica,sans-Serif" font-size="10.00">normalizeStrongsKey()</text>
<text text-anchor="start" x="355" y="-189" font-family="Helvetica,sans-Serif" font-size="10.00">+</text>
<text text-anchor="start" x="368" y="-189" font-family="Helvetica,sans-Serif" font-size="10.00">snap()</text>
<polygon fill="#666666" stroke="#666666" points="351,-334 351,-334 509,-334 509,-334 351,-334"/>
<polygon fill="#666666" stroke="#666666" points="351,-274 351,-274 366,-274 366,-274 351,-274"/>
<polygon fill="#666666" stroke="#666666" points="366,-274 366,-274 509,-274 509,-274 366,-274"/>
<polygon fill="none" stroke="#666666" points="351,-182.5 351,-351.5 509,-351.5 509,-182.5 351,-182.5"/>
</a>
</g>
</g>
<!-- Node1&#45;&gt;Node6 -->
<g id="edge5_Node000001_Node000006" class="edge">
<title>Node1&#45;&gt;Node6</title>
<g id="a_edge5_Node000001_Node000006"><a xlink:title=" ">
<path fill="none" stroke="#63b8ff" d="M359.49,-504.63C376.39,-447.92 392.5,-393.85 405.04,-351.75"/>
<polygon fill="none" stroke="#63b8ff" points="356.05,-503.91 356.55,-514.5 362.76,-505.91 356.05,-503.91"/>
</a>
</g>
</g>
<!-- Node2 -->
<g id="Node000002" class="node">
<title>Node2</title>
<g id="a_Node000002"><a xlink:href="../../d9/d5b/classQObject.html" target="_top" xlink:title=" ">
<polygon fill="white" stroke="transparent" points="285,-1294 235,-1294 235,-1245 285,-1245 285,-1294"/>
<text text-anchor="start" x="240" y="-1281.5" font-family="Helvetica,sans-Serif" font-size="10.00">QObject</text>
<text text-anchor="start" x="258" y="-1266.5" font-family="Helvetica,sans-Serif" font-size="10.00"> </text>
<text text-anchor="start" x="258" y="-1251.5" font-family="Helvetica,sans-Serif" font-size="10.00"> </text>
<polygon fill="#666666" stroke="#666666" points="235,-1276.5 235,-1276.5 285,-1276.5 285,-1276.5 235,-1276.5"/>
<polygon fill="#666666" stroke="#666666" points="235,-1261.5 235,-1261.5 285,-1261.5 285,-1261.5 235,-1261.5"/>
<polygon fill="none" stroke="#666666" points="235,-1245 235,-1294 285,-1294 285,-1245 235,-1245"/>
</a>
</g>
</g>
<!-- Node2&#45;&gt;Node1 -->
<g id="edge1_Node000001_Node000002" class="edge">
<title>Node2&#45;&gt;Node1</title>
<g id="a_edge1_Node000001_Node000002"><a xlink:title=" ">
<path fill="none" stroke="#63b8ff" d="M260,-1234.68C260,-1227.18 260,-1218.64 260,-1209.23"/>
<polygon fill="none" stroke="#63b8ff" points="256.5,-1234.88 260,-1244.88 263.5,-1234.88 256.5,-1234.88"/>
</a>
</g>
</g>
<!-- Node4 -->
<g id="Node000004" class="node">
<title>Node4</title>
<g id="a_Node000004"><a xlink:href="../../d0/d59/classCSwordCommentaryModuleInfo.html" target="_top" xlink:title="Commentary module implementation.">
<polygon fill="white" stroke="transparent" points="184,-64 0,-64 0,0 184,0 184,-64"/>
<text text-anchor="start" x="14" y="-52" font-family="Helvetica,sans-Serif" font-size="10.00">CSwordCommentaryModuleInfo</text>
<text text-anchor="start" x="90" y="-37" font-family="Helvetica,sans-Serif" font-size="10.00"> </text>
<text text-anchor="start" x="4" y="-22" font-family="Helvetica,sans-Serif" font-size="10.00">+</text>
<text text-anchor="start" x="17" y="-22" font-family="Helvetica,sans-Serif" font-size="10.00">CSwordCommentaryModuleInfo()</text>
<text text-anchor="start" x="4" y="-7" font-family="Helvetica,sans-Serif" font-size="10.00">+</text>
<text text-anchor="start" x="17" y="-7" font-family="Helvetica,sans-Serif" font-size="10.00">isWritable()</text>
<polygon fill="#666666" stroke="#666666" points="0,-47 0,-47 184,-47 184,-47 0,-47"/>
<polygon fill="#666666" stroke="#666666" points="0,-32 0,-32 184,-32 184,-32 0,-32"/>
<polygon fill="none" stroke="#666666" points="0,0 0,-64 184,-64 184,0 0,0"/>
</a>
</g>
</g>
<!-- Node3&#45;&gt;Node4 -->
<g id="edge3_Node000003_Node000004" class="edge">
<title>Node3&#45;&gt;Node4</title>
<g id="a_edge3_Node000003_Node000004"><a xlink:title=" ">
<path fill="none" stroke="#63b8ff" d="M92,-89.76C92,-80.38 92,-71.71 92,-64.12"/>
<polygon fill="none" stroke="#63b8ff" points="88.5,-89.77 92,-99.77 95.5,-89.77 88.5,-89.77"/>
</a>
</g>
</g>
</g>
</svg>

<g id="navigator" transform="translate(0 0)" fill="#404254">
  <rect fill="#f2f5e9" fill-opacity="0.5" stroke="#606060" stroke-width=".5" x="0" y="0" width="60" height="60"/>
  <use id="zoomplus" xlink:href="#zoomPlus" x="17" y="9" onmousedown="handleZoom(evt,'in')"/>
  <use id="zoomminus" xlink:href="#zoomMin" x="42" y="9" onmousedown="handleZoom(evt,'out')"/>
  <use id="reset" xlink:href="#resetDef" x="30" y="36" onmousedown="handleReset()"/>
   <use id="arrowup" xlink:href="#arrowUp" x="0" y="0" onmousedown="handlePan(0,-1)"/>
  <use id="arrowright" xlink:href="#arrowRight" x="0" y="0" onmousedown="handlePan(1,0)"/>
  <use id="arrowdown" xlink:href="#arrowDown" x="0" y="0" onmousedown="handlePan(0,1)"/>
  <use id="arrowleft" xlink:href="#arrowLeft" x="0" y="0" onmousedown="handlePan(-1,0)"/>
</g>
<svg viewBox="0 0 15 15" width="100%" height="30px" preserveAspectRatio="xMaxYMin meet">
 <g id="arrow_out" transform="scale(0.3 0.3)">
  <a xlink:href="classCSwordModuleInfo__inherit__graph_org.svg" target="_base">
   <rect id="button" ry="5" rx="5" y="6" x="6" height="38" width="38"
        fill="#f2f5e9" fill-opacity="0.5" stroke="#606060" stroke-width="1.0"/>
   <path id="arrow"
     d="M 11.500037,31.436501 C 11.940474,20.09759 22.043105,11.32322 32.158766,21.979434 L 37.068811,17.246167 C 37.068811,17.246167 37.088388,32 37.088388,32 L 22.160133,31.978069 C 22.160133,31.978069 26.997745,27.140456 26.997745,27.140456 C 18.528582,18.264221 13.291696,25.230495 11.500037,31.436501 z"
     style="fill:#404040;"/>
  </a>
 </g>
</svg>

<style type='text/css'>
<![CDATA[
[data-mouse-over-selected='false'] { opacity: 0.7; }
[data-mouse-over-selected='true']  { opacity: 1.0; }
]]>
</style>
<script type="application/ecmascript"><![CDATA[
document.addEventListener('DOMContentLoaded', (event) => {
  highlightEdges();
  highlightAdjacentNodes();
});
]]></script>
</svg>
