<?xml version="1.0" encoding="UTF-8" standalone="no"?>
<!DOCTYPE svg PUBLIC "-//W3C//DTD SVG 1.1//EN"
 "http://www.w3.org/Graphics/SVG/1.1/DTD/svg11.dtd">
<!-- Generated by graphviz version 2.43.0 (0)
 -->
<!-- Title: QHash Pages: 1 -->
<svg width="176pt" height="193pt"
 viewBox="0.00 0.00 176.00 193.00" xmlns="http://www.w3.org/2000/svg" xmlns:xlink="http://www.w3.org/1999/xlink">
<g id="graph0" class="graph" transform="scale(1 1) rotate(0) translate(4 189)">
<title>QHash</title>
<polygon fill="white" stroke="transparent" points="-4,4 -4,-189 172,-189 172,4 -4,4"/>
<!-- Node1 -->
<g id="node1" class="node">
<title>Node1</title>
<g id="a_node1"><a xlink:title=" ">
<polygon fill="#bfbfbf" stroke="black" points="59.5,-127.5 59.5,-184.5 108.5,-184.5 108.5,-127.5 59.5,-127.5"/>
<text text-anchor="middle" x="84" y="-172.5" font-family="Helvetica,sans-Serif" font-size="10.00">QHash</text>
<polyline fill="none" stroke="black" points="59.5,-165.5 108.5,-165.5 "/>
<text text-anchor="middle" x="84" y="-153.5" font-family="Helvetica,sans-Serif" font-size="10.00"> </text>
<polyline fill="none" stroke="black" points="59.5,-146.5 108.5,-146.5 "/>
<text text-anchor="middle" x="84" y="-134.5" font-family="Helvetica,sans-Serif" font-size="10.00"> </text>
</a>
</g>
</g>
<!-- Node2 -->
<g id="node2" class="node">
<title>Node2</title>
<g id="a_node2"><a xlink:href="../../d3/dfd/structanonymous__namespace_02language_8cpp_03_1_1LanguageMap.html" target="_top" xlink:title=" ">
<polygon fill="white" stroke="black" points="0,-0.5 0,-90.5 168,-90.5 168,-0.5 0,-0.5"/>
<text text-anchor="start" x="8" y="-78.5" font-family="Helvetica,sans-Serif" font-size="10.00">anonymous_namespace</text>
<text text-anchor="start" x="8" y="-67.5" font-family="Helvetica,sans-Serif" font-size="10.00">{language.cpp}::LanguageMap</text>
<text text-anchor="start" x="8" y="-56.5" font-family="Helvetica,sans-Serif" font-size="10.00">&lt; QString, std::shared_ptr</text>
<text text-anchor="middle" x="84" y="-45.5" font-family="Helvetica,sans-Serif" font-size="10.00">&lt; Language const &gt; &gt;</text>
<polyline fill="none" stroke="black" points="0,-38.5 168,-38.5 "/>
<text text-anchor="middle" x="84" y="-26.5" font-family="Helvetica,sans-Serif" font-size="10.00"> </text>
<polyline fill="none" stroke="black" points="0,-19.5 168,-19.5 "/>
<text text-anchor="start" x="8" y="-7.5" font-family="Helvetica,sans-Serif" font-size="10.00">+ LanguageMap()</text>
</a>
</g>
</g>
<!-- Node1&#45;&gt;Node2 -->
<g id="edge1" class="edge">
<title>Node1&#45;&gt;Node2</title>
<path fill="none" stroke="midnightblue" d="M84,-117.21C84,-108.61 84,-99.39 84,-90.55"/>
<polygon fill="none" stroke="midnightblue" points="80.5,-117.34 84,-127.34 87.5,-117.34 80.5,-117.34"/>
</g>
</g>
</svg>
