<?xml version="1.0" encoding="UTF-8" standalone="no"?>
<!DOCTYPE svg PUBLIC "-//W3C//DTD SVG 1.1//EN"
 "http://www.w3.org/Graphics/SVG/1.1/DTD/svg11.dtd">
<!-- Generated by graphviz version 2.43.0 (0)
 -->
<!-- Title: Filters::ThmlToHtml::UserData Pages: 1 -->
<svg width="175pt" height="198pt"
 viewBox="0.00 0.00 175.00 198.00" xmlns="http://www.w3.org/2000/svg" xmlns:xlink="http://www.w3.org/1999/xlink">
<g id="graph0" class="graph" transform="scale(1 1) rotate(0) translate(4 194)">
<title>Filters::ThmlToHtml::UserData</title>
<!-- Node1 -->
<g id="Node000001" class="node">
<title>Node1</title>
<g id="a_Node000001"><a xlink:title=" ">
<polygon fill="#999999" stroke="transparent" points="136.5,-105 30.5,-105 30.5,0 136.5,0 136.5,-105"/>
<text text-anchor="start" x="35.5" y="-92.5" font-family="Helvetica,sans-Serif" font-size="10.00">Filters::ThmlToHtml</text>
<text text-anchor="start" x="57.5" y="-81.5" font-family="Helvetica,sans-Serif" font-size="10.00">::UserData</text>
<text text-anchor="start" x="37.5" y="-66.5" font-family="Helvetica,sans-Serif" font-size="10.00">+</text>
<text text-anchor="start" x="53.5" y="-66.5" font-family="Helvetica,sans-Serif" font-size="10.00">absolutePath</text>
<text text-anchor="start" x="37.5" y="-51.5" font-family="Helvetica,sans-Serif" font-size="10.00">+</text>
<text text-anchor="start" x="53.5" y="-51.5" font-family="Helvetica,sans-Serif" font-size="10.00">inFootnoteTag</text>
<text text-anchor="start" x="37.5" y="-36.5" font-family="Helvetica,sans-Serif" font-size="10.00">+</text>
<text text-anchor="start" x="53.5" y="-36.5" font-family="Helvetica,sans-Serif" font-size="10.00">inscriptRef</text>
<text text-anchor="start" x="37.5" y="-21.5" font-family="Helvetica,sans-Serif" font-size="10.00">+</text>
<text text-anchor="start" x="53.5" y="-21.5" font-family="Helvetica,sans-Serif" font-size="10.00">swordFootnote</text>
<text text-anchor="start" x="37.5" y="-6.5" font-family="Helvetica,sans-Serif" font-size="10.00">+</text>
<text text-anchor="start" x="53.5" y="-6.5" font-family="Helvetica,sans-Serif" font-size="10.00">UserData()</text>
<polygon fill="#666666" stroke="#666666" points="30.5,-76.5 30.5,-76.5 136.5,-76.5 136.5,-76.5 30.5,-76.5"/>
<polygon fill="#666666" stroke="#666666" points="30.5,-16.5 30.5,-16.5 51.5,-16.5 51.5,-16.5 30.5,-16.5"/>
<polygon fill="#666666" stroke="#666666" points="51.5,-16.5 51.5,-16.5 136.5,-16.5 136.5,-16.5 51.5,-16.5"/>
<polygon fill="none" stroke="#666666" points="30.5,0 30.5,-105 136.5,-105 136.5,0 30.5,0"/>
</a>
</g>
</g>
<!-- Node2 -->
<g id="Node000002" class="node">
<title>Node2</title>
<g id="a_Node000002"><a xlink:href="../../d1/dd7/classsword_1_1ThMLHTML_1_1MyUserData.html" target="_top" xlink:title=" ">
<polygon fill="white" stroke="transparent" points="167,-190 0,-190 0,-141 167,-141 167,-190"/>
<text text-anchor="start" x="5.5" y="-177.5" font-family="Helvetica,sans-Serif" font-size="10.00">sword::ThMLHTML::MyUserData</text>
<text text-anchor="start" x="82" y="-162.5" font-family="Helvetica,sans-Serif" font-size="10.00"> </text>
<text text-anchor="start" x="82" y="-147.5" font-family="Helvetica,sans-Serif" font-size="10.00"> </text>
<polygon fill="#666666" stroke="#666666" points="0.5,-172.5 0.5,-172.5 167.5,-172.5 167.5,-172.5 0.5,-172.5"/>
<polygon fill="#666666" stroke="#666666" points="0.5,-157.5 0.5,-157.5 167.5,-157.5 167.5,-157.5 0.5,-157.5"/>
<polygon fill="none" stroke="#666666" points="0,-141 0,-190 167,-190 167,-141 0,-141"/>
</a>
</g>
</g>
<!-- Node2&#45;&gt;Node1 -->
<g id="edge1_Node000001_Node000002" class="edge">
<title>Node2&#45;&gt;Node1</title>
<g id="a_edge1_Node000001_Node000002"><a xlink:title=" ">
<path fill="none" stroke="#63b8ff" d="M83.5,-130.85C83.5,-122.79 83.5,-114 83.5,-105.32"/>
<polygon fill="none" stroke="#63b8ff" points="80,-130.96 83.5,-140.96 87,-130.96 80,-130.96"/>
</a>
</g>
</g>
</g>
</svg>
