<?xml version="1.0" encoding="UTF-8" standalone="no"?>
<!DOCTYPE svg PUBLIC "-//W3C//DTD SVG 1.1//EN"
 "http://www.w3.org/Graphics/SVG/1.1/DTD/svg11.dtd">
<!-- Generated by graphviz version 2.43.0 (0)
 -->
<!-- Title: btbookshelfview.h Pages: 1 -->
<svg width="775pt" height="82pt"
 viewBox="0.00 0.00 774.50 82.00" xmlns="http://www.w3.org/2000/svg" xmlns:xlink="http://www.w3.org/1999/xlink">
<g id="graph0" class="graph" transform="scale(1 1) rotate(0) translate(4 78)">
<title>btbookshelfview.h</title>
<!-- Node1 -->
<g id="Node000001" class="node">
<title>Node1</title>
<g id="a_Node000001"><a xlink:title=" ">
<polygon fill="#999999" stroke="#666666" points="420.5,-74 314.5,-74 314.5,-55 420.5,-55 420.5,-74"/>
<text text-anchor="middle" x="367.5" y="-62" font-family="Helvetica,sans-Serif" font-size="10.00">btbookshelfview.h</text>
</a>
</g>
</g>
<!-- Node2 -->
<g id="Node000002" class="node">
<title>Node2</title>
<g id="a_Node000002"><a xlink:href="../../df/d88/btbookshelfdockwidget_8cpp.html" target="_top" xlink:title=" ">
<polygon fill="white" stroke="#666666" points="151,-19 0,-19 0,0 151,0 151,-19"/>
<text text-anchor="middle" x="75.5" y="-7" font-family="Helvetica,sans-Serif" font-size="10.00">btbookshelfdockwidget.cpp</text>
</a>
</g>
</g>
<!-- Node1&#45;&gt;Node2 -->
<g id="edge1_Node000001_Node000002" class="edge">
<title>Node1&#45;&gt;Node2</title>
<g id="a_edge1_Node000001_Node000002"><a xlink:title=" ">
<path fill="none" stroke="#63b8ff" d="M310.69,-53.19C255.95,-43.25 174.08,-28.39 122.78,-19.08"/>
<polygon fill="#63b8ff" stroke="#63b8ff" points="310.12,-56.64 320.59,-54.98 311.37,-49.75 310.12,-56.64"/>
</a>
</g>
</g>
<!-- Node3 -->
<g id="Node000003" class="node">
<title>Node3</title>
<g id="a_Node000003"><a xlink:href="../../de/dd4/btbookshelfview_8cpp.html" target="_top" xlink:title=" ">
<polygon fill="white" stroke="#666666" points="286,-19 169,-19 169,0 286,0 286,-19"/>
<text text-anchor="middle" x="227.5" y="-7" font-family="Helvetica,sans-Serif" font-size="10.00">btbookshelfview.cpp</text>
</a>
</g>
</g>
<!-- Node1&#45;&gt;Node3 -->
<g id="edge2_Node000001_Node000003" class="edge">
<title>Node1&#45;&gt;Node3</title>
<g id="a_edge2_Node000001_Node000003"><a xlink:title=" ">
<path fill="none" stroke="#63b8ff" d="M335.59,-51.42C309.62,-41.59 273.58,-27.95 250.4,-19.17"/>
<polygon fill="#63b8ff" stroke="#63b8ff" points="334.42,-54.72 345.01,-54.98 336.89,-48.17 334.42,-54.72"/>
</a>
</g>
</g>
<!-- Node4 -->
<g id="Node000004" class="node">
<title>Node4</title>
<g id="a_Node000004"><a xlink:href="../../d9/d70/btbookshelfwidget_8cpp.html" target="_top" xlink:title=" ">
<polygon fill="white" stroke="#666666" points="431,-19 304,-19 304,0 431,0 431,-19"/>
<text text-anchor="middle" x="367.5" y="-7" font-family="Helvetica,sans-Serif" font-size="10.00">btbookshelfwidget.cpp</text>
</a>
</g>
</g>
<!-- Node1&#45;&gt;Node4 -->
<g id="edge3_Node000001_Node000004" class="edge">
<title>Node1&#45;&gt;Node4</title>
<g id="a_edge3_Node000001_Node000004"><a xlink:title=" ">
<path fill="none" stroke="#63b8ff" d="M367.5,-44.66C367.5,-35.93 367.5,-25.99 367.5,-19.09"/>
<polygon fill="#63b8ff" stroke="#63b8ff" points="364,-44.75 367.5,-54.75 371,-44.75 364,-44.75"/>
</a>
</g>
</g>
<!-- Node5 -->
<g id="Node000005" class="node">
<title>Node5</title>
<g id="a_Node000005"><a xlink:href="../../d9/d03/btbookshelfworkspage_8cpp.html" target="_top" xlink:title=" ">
<polygon fill="white" stroke="#666666" points="596,-19 449,-19 449,0 596,0 596,-19"/>
<text text-anchor="middle" x="522.5" y="-7" font-family="Helvetica,sans-Serif" font-size="10.00">btbookshelfworkspage.cpp</text>
</a>
</g>
</g>
<!-- Node1&#45;&gt;Node5 -->
<g id="edge4_Node000001_Node000005" class="edge">
<title>Node1&#45;&gt;Node5</title>
<g id="a_edge4_Node000001_Node000005"><a xlink:title=" ">
<path fill="none" stroke="#63b8ff" d="M402.1,-51.67C431,-41.79 471.53,-27.93 497.4,-19.08"/>
<polygon fill="#63b8ff" stroke="#63b8ff" points="400.73,-48.44 392.4,-54.98 403,-55.06 400.73,-48.44"/>
</a>
</g>
</g>
<!-- Node6 -->
<g id="Node000006" class="node">
<title>Node6</title>
<g id="a_Node000006"><a xlink:href="../../d8/d68/btmodulechooserdialog_8cpp.html" target="_top" xlink:title=" ">
<polygon fill="white" stroke="#666666" points="766.5,-19 614.5,-19 614.5,0 766.5,0 766.5,-19"/>
<text text-anchor="middle" x="690.5" y="-7" font-family="Helvetica,sans-Serif" font-size="10.00">btmodulechooserdialog.cpp</text>
</a>
</g>
</g>
<!-- Node1&#45;&gt;Node6 -->
<g id="edge5_Node000001_Node000006" class="edge">
<title>Node1&#45;&gt;Node6</title>
<g id="a_edge5_Node000001_Node000006"><a xlink:title=" ">
<path fill="none" stroke="#63b8ff" d="M429.6,-53.31C490.26,-43.36 581.52,-28.38 638.47,-19.04"/>
<polygon fill="#63b8ff" stroke="#63b8ff" points="428.7,-49.91 419.4,-54.98 429.83,-56.82 428.7,-49.91"/>
</a>
</g>
</g>
</g>
</svg>
