<?xml version="1.0" encoding="UTF-8" standalone="no"?>
<!DOCTYPE svg PUBLIC "-//W3C//DTD SVG 1.1//EN"
 "http://www.w3.org/Graphics/SVG/1.1/DTD/svg11.dtd">
<!-- Generated by graphviz version 2.43.0 (0)
 -->
<!-- Title: btmodulechooserdialog.h Pages: 1 -->
<svg width="436pt" height="140pt"
 viewBox="0.00 0.00 435.50 140.00" xmlns="http://www.w3.org/2000/svg" xmlns:xlink="http://www.w3.org/1999/xlink">
<g id="graph0" class="graph" transform="scale(1 1) rotate(0) translate(4 136)">
<title>btmodulechooserdialog.h</title>
<polygon fill="white" stroke="transparent" points="-4,4 -4,-136 431.5,-136 431.5,4 -4,4"/>
<!-- Node1 -->
<g id="node1" class="node">
<title>Node1</title>
<g id="a_node1"><a xlink:title=" ">
<polygon fill="#bfbfbf" stroke="black" points="110,-112.5 110,-131.5 250,-131.5 250,-112.5 110,-112.5"/>
<text text-anchor="middle" x="180" y="-119.5" font-family="Helvetica,sans-Serif" font-size="10.00">btmodulechooserdialog.h</text>
</a>
</g>
</g>
<!-- Node2 -->
<g id="node2" class="node">
<title>Node2</title>
<g id="a_node2"><a xlink:href="../../d8/d68/btmodulechooserdialog_8cpp.html" target="_top" xlink:title=" ">
<polygon fill="white" stroke="black" points="0,-56.5 0,-75.5 152,-75.5 152,-56.5 0,-56.5"/>
<text text-anchor="middle" x="76" y="-63.5" font-family="Helvetica,sans-Serif" font-size="10.00">btmodulechooserdialog.cpp</text>
</a>
</g>
</g>
<!-- Node1&#45;&gt;Node2 -->
<g id="edge1" class="edge">
<title>Node1&#45;&gt;Node2</title>
<path fill="none" stroke="midnightblue" d="M154.17,-107.59C134.94,-97.61 109.26,-84.27 92.67,-75.65"/>
<polygon fill="midnightblue" stroke="midnightblue" points="152.8,-110.82 163.29,-112.32 156.03,-104.61 152.8,-110.82"/>
</g>
<!-- Node3 -->
<g id="node3" class="node">
<title>Node3</title>
<g id="a_node3"><a xlink:href="../../dc/dab/btsearchmodulechooserdialog_8cpp.html" target="_top" xlink:title=" ">
<polygon fill="white" stroke="black" points="88,-0.5 88,-19.5 272,-19.5 272,-0.5 88,-0.5"/>
<text text-anchor="middle" x="180" y="-7.5" font-family="Helvetica,sans-Serif" font-size="10.00">btsearchmodulechooserdialog.cpp</text>
</a>
</g>
</g>
<!-- Node1&#45;&gt;Node3 -->
<g id="edge2" class="edge">
<title>Node1&#45;&gt;Node3</title>
<path fill="none" stroke="midnightblue" d="M180,-102.35C180,-78.25 180,-37.31 180,-19.59"/>
<polygon fill="midnightblue" stroke="midnightblue" points="176.5,-102.37 180,-112.37 183.5,-102.37 176.5,-102.37"/>
</g>
<!-- Node4 -->
<g id="node4" class="node">
<title>Node4</title>
<g id="a_node4"><a xlink:href="../../dc/d13/btsearchmodulechooserdialog_8h.html" target="_top" xlink:title=" ">
<polygon fill="white" stroke="black" points="208.5,-56.5 208.5,-75.5 381.5,-75.5 381.5,-56.5 208.5,-56.5"/>
<text text-anchor="middle" x="295" y="-63.5" font-family="Helvetica,sans-Serif" font-size="10.00">btsearchmodulechooserdialog.h</text>
</a>
</g>
</g>
<!-- Node1&#45;&gt;Node4 -->
<g id="edge3" class="edge">
<title>Node1&#45;&gt;Node4</title>
<path fill="none" stroke="midnightblue" d="M207.48,-108.1C228.97,-98.01 258.22,-84.27 276.86,-75.52"/>
<polygon fill="midnightblue" stroke="midnightblue" points="205.79,-105.02 198.22,-112.44 208.76,-111.36 205.79,-105.02"/>
</g>
<!-- Node4&#45;&gt;Node3 -->
<g id="edge4" class="edge">
<title>Node4&#45;&gt;Node3</title>
<path fill="none" stroke="midnightblue" d="M267.52,-52.1C246.03,-42.01 216.78,-28.27 198.14,-19.52"/>
<polygon fill="midnightblue" stroke="midnightblue" points="266.24,-55.36 276.78,-56.44 269.21,-49.02 266.24,-55.36"/>
</g>
<!-- Node5 -->
<g id="node5" class="node">
<title>Node5</title>
<g id="a_node5"><a xlink:href="../../d4/d4d/btsearchoptionsarea_8cpp.html" target="_top" xlink:title=" ">
<polygon fill="white" stroke="black" points="290.5,-0.5 290.5,-19.5 427.5,-19.5 427.5,-0.5 290.5,-0.5"/>
<text text-anchor="middle" x="359" y="-7.5" font-family="Helvetica,sans-Serif" font-size="10.00">btsearchoptionsarea.cpp</text>
</a>
</g>
</g>
<!-- Node4&#45;&gt;Node5 -->
<g id="edge5" class="edge">
<title>Node4&#45;&gt;Node5</title>
<path fill="none" stroke="midnightblue" d="M312.99,-49.82C324.46,-40.15 338.91,-27.95 348.53,-19.83"/>
<polygon fill="midnightblue" stroke="midnightblue" points="310.67,-47.2 305.28,-56.32 315.18,-52.55 310.67,-47.2"/>
</g>
</g>
</svg>
