<?xml version="1.0" encoding="UTF-8" standalone="no"?>
<!DOCTYPE svg PUBLIC "-//W3C//DTD SVG 1.1//EN"
 "http://www.w3.org/Graphics/SVG/1.1/DTD/svg11.dtd">
<!-- Generated by graphviz version 2.43.0 (0)
 -->
<!-- Title: InfoDisplay::CInfoDisplay Pages: 1 -->
<svg width="148pt" height="259pt"
 viewBox="0.00 0.00 148.00 259.00" xmlns="http://www.w3.org/2000/svg" xmlns:xlink="http://www.w3.org/1999/xlink">
<g id="graph0" class="graph" transform="scale(1 1) rotate(0) translate(4 255)">
<title>InfoDisplay::CInfoDisplay</title>
<polygon fill="white" stroke="transparent" points="-4,4 -4,-255 144,-255 144,4 -4,4"/>
<!-- Node1 -->
<g id="node1" class="node">
<title>Node1</title>
<g id="a_node1"><a xlink:title=" ">
<polygon fill="#bfbfbf" stroke="black" points="0,-0.5 0,-156.5 140,-156.5 140,-0.5 0,-0.5"/>
<text text-anchor="middle" x="70" y="-144.5" font-family="Helvetica,sans-Serif" font-size="10.00">InfoDisplay::CInfoDisplay</text>
<polyline fill="none" stroke="black" points="0,-137.5 140,-137.5 "/>
<text text-anchor="start" x="8" y="-125.5" font-family="Helvetica,sans-Serif" font-size="10.00">&#45; m_mainWindow</text>
<text text-anchor="start" x="8" y="-114.5" font-family="Helvetica,sans-Serif" font-size="10.00">&#45; m_textBrowser</text>
<polyline fill="none" stroke="black" points="0,-107.5 140,-107.5 "/>
<text text-anchor="start" x="8" y="-95.5" font-family="Helvetica,sans-Serif" font-size="10.00">+ CInfoDisplay()</text>
<text text-anchor="start" x="8" y="-84.5" font-family="Helvetica,sans-Serif" font-size="10.00">+ setInfo()</text>
<text text-anchor="start" x="8" y="-73.5" font-family="Helvetica,sans-Serif" font-size="10.00">+ setInfo()</text>
<text text-anchor="start" x="8" y="-62.5" font-family="Helvetica,sans-Serif" font-size="10.00">+ sizeHint()</text>
<text text-anchor="start" x="8" y="-51.5" font-family="Helvetica,sans-Serif" font-size="10.00">+ unsetInfo()</text>
<text text-anchor="start" x="8" y="-40.5" font-family="Helvetica,sans-Serif" font-size="10.00">+ updateColors()</text>
<text text-anchor="start" x="8" y="-29.5" font-family="Helvetica,sans-Serif" font-size="10.00">+ setInfo()</text>
<text text-anchor="start" x="8" y="-18.5" font-family="Helvetica,sans-Serif" font-size="10.00">+ setInfo()</text>
<text text-anchor="start" x="8" y="-7.5" font-family="Helvetica,sans-Serif" font-size="10.00">&#45; setBrowserFont()</text>
</a>
</g>
</g>
<!-- Node2 -->
<g id="node2" class="node">
<title>Node2</title>
<g id="a_node2"><a xlink:href="../../d8/ded/classQWidget.html" target="_top" xlink:title=" ">
<polygon fill="white" stroke="black" points="40.5,-193.5 40.5,-250.5 99.5,-250.5 99.5,-193.5 40.5,-193.5"/>
<text text-anchor="middle" x="70" y="-238.5" font-family="Helvetica,sans-Serif" font-size="10.00">QWidget</text>
<polyline fill="none" stroke="black" points="40.5,-231.5 99.5,-231.5 "/>
<text text-anchor="middle" x="70" y="-219.5" font-family="Helvetica,sans-Serif" font-size="10.00"> </text>
<polyline fill="none" stroke="black" points="40.5,-212.5 99.5,-212.5 "/>
<text text-anchor="middle" x="70" y="-200.5" font-family="Helvetica,sans-Serif" font-size="10.00"> </text>
</a>
</g>
</g>
<!-- Node2&#45;&gt;Node1 -->
<g id="edge1" class="edge">
<title>Node2&#45;&gt;Node1</title>
<path fill="none" stroke="midnightblue" d="M70,-183.34C70,-175.04 70,-165.96 70,-156.74"/>
<polygon fill="none" stroke="midnightblue" points="66.5,-183.38 70,-193.38 73.5,-183.38 66.5,-183.38"/>
</g>
</g>
</svg>
