<?xml version="1.0" encoding="UTF-8" standalone="no"?>
<!DOCTYPE svg PUBLIC "-//W3C//DTD SVG 1.1//EN"
 "http://www.w3.org/Graphics/SVG/1.1/DTD/svg11.dtd">
<!-- Generated by graphviz version 2.43.0 (0)
 -->
<!-- Title: tool.h Pages: 1 -->
<svg width="2840pt" height="84pt"
 viewBox="0.00 0.00 2840.00 84.00" xmlns="http://www.w3.org/2000/svg" xmlns:xlink="http://www.w3.org/1999/xlink">
<g id="graph0" class="graph" transform="scale(1 1) rotate(0) translate(4 80)">
<title>tool.h</title>
<polygon fill="white" stroke="transparent" points="-4,4 -4,-80 2836,-80 2836,4 -4,4"/>
<!-- Node1 -->
<g id="node1" class="node">
<title>Node1</title>
<g id="a_node1"><a xlink:title=" ">
<polygon fill="#bfbfbf" stroke="black" points="1439,-56.5 1439,-75.5 1483,-75.5 1483,-56.5 1439,-56.5"/>
<text text-anchor="middle" x="1461" y="-63.5" font-family="Helvetica,sans-Serif" font-size="10.00">tool.h</text>
</a>
</g>
</g>
<!-- Node2 -->
<g id="node2" class="node">
<title>Node2</title>
<g id="a_node2"><a xlink:href="../../d7/dd0/btbookmarksmodel_8cpp.html" target="_top" xlink:title=" ">
<polygon fill="white" stroke="black" points="0,-0.5 0,-19.5 132,-19.5 132,-0.5 0,-0.5"/>
<text text-anchor="middle" x="66" y="-7.5" font-family="Helvetica,sans-Serif" font-size="10.00">btbookmarksmodel.cpp</text>
</a>
</g>
</g>
<!-- Node1&#45;&gt;Node2 -->
<g id="edge1" class="edge">
<title>Node1&#45;&gt;Node2</title>
<path fill="none" stroke="midnightblue" d="M1428.57,-64.91C1280.44,-64.31 653.44,-59.41 141,-20 138.12,-19.78 135.19,-19.53 132.22,-19.26"/>
<polygon fill="midnightblue" stroke="midnightblue" points="1428.77,-68.41 1438.78,-64.95 1428.79,-61.41 1428.77,-68.41"/>
</g>
<!-- Node3 -->
<g id="node3" class="node">
<title>Node3</title>
<g id="a_node3"><a xlink:href="../../dd/d03/cswordmodulesearch_8cpp.html" target="_top" xlink:title=" ">
<polygon fill="white" stroke="black" points="150,-0.5 150,-19.5 290,-19.5 290,-0.5 150,-0.5"/>
<text text-anchor="middle" x="220" y="-7.5" font-family="Helvetica,sans-Serif" font-size="10.00">cswordmodulesearch.cpp</text>
</a>
</g>
</g>
<!-- Node1&#45;&gt;Node3 -->
<g id="edge2" class="edge">
<title>Node1&#45;&gt;Node3</title>
<path fill="none" stroke="midnightblue" d="M1428.58,-64.63C1291.49,-62.89 745.87,-54.06 299,-20 296.11,-19.78 293.16,-19.53 290.19,-19.27"/>
<polygon fill="midnightblue" stroke="midnightblue" points="1428.77,-68.13 1438.81,-64.76 1428.85,-61.13 1428.77,-68.13"/>
</g>
<!-- Node4 -->
<g id="node4" class="node">
<title>Node4</title>
<g id="a_node4"><a xlink:href="../../d3/db9/cswordmoduleinfo_8cpp.html" target="_top" xlink:title=" ">
<polygon fill="white" stroke="black" points="308.5,-0.5 308.5,-19.5 435.5,-19.5 435.5,-0.5 308.5,-0.5"/>
<text text-anchor="middle" x="372" y="-7.5" font-family="Helvetica,sans-Serif" font-size="10.00">cswordmoduleinfo.cpp</text>
</a>
</g>
</g>
<!-- Node1&#45;&gt;Node4 -->
<g id="edge3" class="edge">
<title>Node1&#45;&gt;Node4</title>
<path fill="none" stroke="midnightblue" d="M1428.62,-64.51C1302.33,-62.4 830.73,-52.67 444,-20 441.24,-19.77 438.42,-19.51 435.57,-19.23"/>
<polygon fill="midnightblue" stroke="midnightblue" points="1428.72,-68.01 1438.77,-64.68 1428.83,-61.01 1428.72,-68.01"/>
</g>
<!-- Node5 -->
<g id="node5" class="node">
<title>Node5</title>
<g id="a_node5"><a xlink:href="../../d9/de6/cbookmarkindex_8cpp.html" target="_top" xlink:title=" ">
<polygon fill="white" stroke="black" points="453.5,-0.5 453.5,-19.5 572.5,-19.5 572.5,-0.5 453.5,-0.5"/>
<text text-anchor="middle" x="513" y="-7.5" font-family="Helvetica,sans-Serif" font-size="10.00">cbookmarkindex.cpp</text>
</a>
</g>
</g>
<!-- Node1&#45;&gt;Node5 -->
<g id="edge4" class="edge">
<title>Node1&#45;&gt;Node5</title>
<path fill="none" stroke="midnightblue" d="M1428.62,-64.26C1313.3,-61.43 911.86,-49.91 582,-20 578.99,-19.73 575.91,-19.42 572.81,-19.09"/>
<polygon fill="midnightblue" stroke="midnightblue" points="1428.8,-67.77 1438.88,-64.51 1428.96,-60.77 1428.8,-67.77"/>
</g>
<!-- Node6 -->
<g id="node6" class="node">
<title>Node6</title>
<g id="a_node6"><a xlink:href="../../d5/deb/cexportmanager_8cpp.html" target="_top" xlink:title=" ">
<polygon fill="white" stroke="black" points="591,-0.5 591,-19.5 707,-19.5 707,-0.5 591,-0.5"/>
<text text-anchor="middle" x="649" y="-7.5" font-family="Helvetica,sans-Serif" font-size="10.00">cexportmanager.cpp</text>
</a>
</g>
</g>
<!-- Node1&#45;&gt;Node6 -->
<g id="edge5" class="edge">
<title>Node1&#45;&gt;Node6</title>
<path fill="none" stroke="midnightblue" d="M1428.55,-63.89C1324.67,-60.15 990.97,-46.74 716,-20 713.08,-19.72 710.09,-19.4 707.07,-19.07"/>
<polygon fill="midnightblue" stroke="midnightblue" points="1428.59,-67.39 1438.71,-64.25 1428.84,-60.4 1428.59,-67.39"/>
</g>
<!-- Node7 -->
<g id="node7" class="node">
<title>Node7</title>
<g id="a_node7"><a xlink:href="../../de/db2/btmodelviewreaddisplay_8cpp.html" target="_top" xlink:title=" ">
<polygon fill="white" stroke="black" points="725,-0.5 725,-19.5 881,-19.5 881,-0.5 725,-0.5"/>
<text text-anchor="middle" x="803" y="-7.5" font-family="Helvetica,sans-Serif" font-size="10.00">btmodelviewreaddisplay.cpp</text>
</a>
</g>
</g>
<!-- Node1&#45;&gt;Node7 -->
<g id="edge6" class="edge">
<title>Node1&#45;&gt;Node7</title>
<path fill="none" stroke="midnightblue" d="M1428.92,-62.75C1342.07,-56.59 1095.1,-38.69 890,-20 887.13,-19.74 884.2,-19.47 881.25,-19.19"/>
<polygon fill="midnightblue" stroke="midnightblue" points="1428.72,-66.24 1438.94,-63.46 1429.21,-59.26 1428.72,-66.24"/>
</g>
<!-- Node8 -->
<g id="node8" class="node">
<title>Node8</title>
<g id="a_node8"><a xlink:href="../../de/da4/cbiblereadwindow_8cpp.html" target="_top" xlink:title=" ">
<polygon fill="white" stroke="black" points="899.5,-0.5 899.5,-19.5 1024.5,-19.5 1024.5,-0.5 899.5,-0.5"/>
<text text-anchor="middle" x="962" y="-7.5" font-family="Helvetica,sans-Serif" font-size="10.00">cbiblereadwindow.cpp</text>
</a>
</g>
</g>
<!-- Node1&#45;&gt;Node8 -->
<g id="edge7" class="edge">
<title>Node1&#45;&gt;Node8</title>
<path fill="none" stroke="midnightblue" d="M1428.54,-61.83C1357.03,-54.78 1180.54,-37.11 1033,-20 1030.28,-19.69 1027.51,-19.36 1024.71,-19.02"/>
<polygon fill="midnightblue" stroke="midnightblue" points="1428.41,-65.33 1438.7,-62.83 1429.09,-58.36 1428.41,-65.33"/>
</g>
<!-- Node9 -->
<g id="node9" class="node">
<title>Node9</title>
<g id="a_node9"><a xlink:href="../../d7/d67/cbookreadwindow_8cpp.html" target="_top" xlink:title=" ">
<polygon fill="white" stroke="black" points="1042.5,-0.5 1042.5,-19.5 1167.5,-19.5 1167.5,-0.5 1042.5,-0.5"/>
<text text-anchor="middle" x="1105" y="-7.5" font-family="Helvetica,sans-Serif" font-size="10.00">cbookreadwindow.cpp</text>
</a>
</g>
</g>
<!-- Node1&#45;&gt;Node9 -->
<g id="edge8" class="edge">
<title>Node1&#45;&gt;Node9</title>
<path fill="none" stroke="midnightblue" d="M1428.89,-60.13C1368.32,-50.94 1236.54,-30.95 1161.07,-19.5"/>
<polygon fill="midnightblue" stroke="midnightblue" points="1428.59,-63.62 1439,-61.66 1429.64,-56.7 1428.59,-63.62"/>
</g>
<!-- Node10 -->
<g id="node10" class="node">
<title>Node10</title>
<g id="a_node10"><a xlink:href="../../d2/d26/cdisplaywindow_8cpp.html" target="_top" xlink:title=" ">
<polygon fill="white" stroke="black" points="1186,-0.5 1186,-19.5 1300,-19.5 1300,-0.5 1186,-0.5"/>
<text text-anchor="middle" x="1243" y="-7.5" font-family="Helvetica,sans-Serif" font-size="10.00">cdisplaywindow.cpp</text>
</a>
</g>
</g>
<!-- Node1&#45;&gt;Node10 -->
<g id="edge9" class="edge">
<title>Node1&#45;&gt;Node10</title>
<path fill="none" stroke="midnightblue" d="M1429.04,-57.08C1388.63,-47.07 1319.31,-29.9 1277.66,-19.59"/>
<polygon fill="midnightblue" stroke="midnightblue" points="1428.35,-60.52 1438.9,-59.53 1430.03,-53.72 1428.35,-60.52"/>
</g>
<!-- Node11 -->
<g id="node11" class="node">
<title>Node11</title>
<g id="a_node11"><a xlink:href="../../d6/dd0/csearchanalysisscene_8cpp.html" target="_top" xlink:title=" ">
<polygon fill="white" stroke="black" points="1318.5,-0.5 1318.5,-19.5 1461.5,-19.5 1461.5,-0.5 1318.5,-0.5"/>
<text text-anchor="middle" x="1390" y="-7.5" font-family="Helvetica,sans-Serif" font-size="10.00">csearchanalysisscene.cpp</text>
</a>
</g>
</g>
<!-- Node1&#45;&gt;Node11 -->
<g id="edge10" class="edge">
<title>Node1&#45;&gt;Node11</title>
<path fill="none" stroke="midnightblue" d="M1441.41,-50.1C1428.63,-40.38 1412.39,-28.03 1401.61,-19.83"/>
<polygon fill="midnightblue" stroke="midnightblue" points="1439.51,-53.06 1449.59,-56.32 1443.75,-47.48 1439.51,-53.06"/>
</g>
<!-- Node12 -->
<g id="node12" class="node">
<title>Node12</title>
<g id="a_node12"><a xlink:href="../../d4/d57/btindexdialog_8cpp.html" target="_top" xlink:title=" ">
<polygon fill="white" stroke="black" points="1480,-0.5 1480,-19.5 1584,-19.5 1584,-0.5 1480,-0.5"/>
<text text-anchor="middle" x="1532" y="-7.5" font-family="Helvetica,sans-Serif" font-size="10.00">btindexdialog.cpp</text>
</a>
</g>
</g>
<!-- Node1&#45;&gt;Node12 -->
<g id="edge11" class="edge">
<title>Node1&#45;&gt;Node12</title>
<path fill="none" stroke="midnightblue" d="M1480.59,-50.1C1493.37,-40.38 1509.61,-28.03 1520.39,-19.83"/>
<polygon fill="midnightblue" stroke="midnightblue" points="1478.25,-47.48 1472.41,-56.32 1482.49,-53.06 1478.25,-47.48"/>
</g>
<!-- Node13 -->
<g id="node13" class="node">
<title>Node13</title>
<g id="a_node13"><a xlink:href="../../dc/dab/btsearchmodulechooserdialog_8cpp.html" target="_top" xlink:title=" ">
<polygon fill="white" stroke="black" points="1602,-0.5 1602,-19.5 1786,-19.5 1786,-0.5 1602,-0.5"/>
<text text-anchor="middle" x="1694" y="-7.5" font-family="Helvetica,sans-Serif" font-size="10.00">btsearchmodulechooserdialog.cpp</text>
</a>
</g>
</g>
<!-- Node1&#45;&gt;Node13 -->
<g id="edge12" class="edge">
<title>Node1&#45;&gt;Node13</title>
<path fill="none" stroke="midnightblue" d="M1493.27,-57.52C1536.27,-47.55 1612.17,-29.96 1657.3,-19.5"/>
<polygon fill="midnightblue" stroke="midnightblue" points="1492.29,-54.15 1483.34,-59.82 1493.87,-60.97 1492.29,-54.15"/>
</g>
<!-- Node14 -->
<g id="node14" class="node">
<title>Node14</title>
<g id="a_node14"><a xlink:href="../../d4/d4d/btsearchoptionsarea_8cpp.html" target="_top" xlink:title=" ">
<polygon fill="white" stroke="black" points="1804.5,-0.5 1804.5,-19.5 1941.5,-19.5 1941.5,-0.5 1804.5,-0.5"/>
<text text-anchor="middle" x="1873" y="-7.5" font-family="Helvetica,sans-Serif" font-size="10.00">btsearchoptionsarea.cpp</text>
</a>
</g>
</g>
<!-- Node1&#45;&gt;Node14 -->
<g id="edge13" class="edge">
<title>Node1&#45;&gt;Node14</title>
<path fill="none" stroke="midnightblue" d="M1493.19,-60.78C1560.71,-51.93 1718.28,-31.28 1807.8,-19.55"/>
<polygon fill="midnightblue" stroke="midnightblue" points="1492.61,-57.33 1483.15,-62.1 1493.52,-64.27 1492.61,-57.33"/>
</g>
<!-- Node15 -->
<g id="node15" class="node">
<title>Node15</title>
<g id="a_node15"><a xlink:href="../../dd/dde/btsearchresultarea_8cpp.html" target="_top" xlink:title=" ">
<polygon fill="white" stroke="black" points="1960,-0.5 1960,-19.5 2088,-19.5 2088,-0.5 1960,-0.5"/>
<text text-anchor="middle" x="2024" y="-7.5" font-family="Helvetica,sans-Serif" font-size="10.00">btsearchresultarea.cpp</text>
</a>
</g>
</g>
<!-- Node1&#45;&gt;Node15 -->
<g id="edge14" class="edge">
<title>Node1&#45;&gt;Node15</title>
<path fill="none" stroke="midnightblue" d="M1493.19,-62.39C1571.59,-55.97 1778.62,-38.54 1951,-20 1953.92,-19.69 1956.9,-19.36 1959.92,-19.01"/>
<polygon fill="midnightblue" stroke="midnightblue" points="1492.68,-58.92 1483,-63.22 1493.25,-65.9 1492.68,-58.92"/>
</g>
<!-- Node16 -->
<g id="node16" class="node">
<title>Node16</title>
<g id="a_node16"><a xlink:href="../../d7/d5d/cmoduleresultview_8cpp.html" target="_top" xlink:title=" ">
<polygon fill="white" stroke="black" points="2106.5,-0.5 2106.5,-19.5 2235.5,-19.5 2235.5,-0.5 2106.5,-0.5"/>
<text text-anchor="middle" x="2171" y="-7.5" font-family="Helvetica,sans-Serif" font-size="10.00">cmoduleresultview.cpp</text>
</a>
</g>
</g>
<!-- Node1&#45;&gt;Node16 -->
<g id="edge15" class="edge">
<title>Node1&#45;&gt;Node16</title>
<path fill="none" stroke="midnightblue" d="M1493.22,-63.3C1586.68,-58.23 1865.95,-42.21 2097,-20 2100.09,-19.7 2103.25,-19.38 2106.45,-19.05"/>
<polygon fill="midnightblue" stroke="midnightblue" points="1492.8,-59.81 1483,-63.85 1493.18,-66.8 1492.8,-59.81"/>
</g>
<!-- Node17 -->
<g id="node17" class="node">
<title>Node17</title>
<g id="a_node17"><a xlink:href="../../d6/dfe/btstandardworkstab_8cpp.html" target="_top" xlink:title=" ">
<polygon fill="white" stroke="black" points="2254,-0.5 2254,-19.5 2388,-19.5 2388,-0.5 2254,-0.5"/>
<text text-anchor="middle" x="2321" y="-7.5" font-family="Helvetica,sans-Serif" font-size="10.00">btstandardworkstab.cpp</text>
</a>
</g>
</g>
<!-- Node1&#45;&gt;Node17 -->
<g id="edge16" class="edge">
<title>Node1&#45;&gt;Node17</title>
<path fill="none" stroke="midnightblue" d="M1493.33,-63.85C1600.51,-59.87 1953.84,-45.57 2245,-20 2247.91,-19.74 2250.88,-19.47 2253.89,-19.17"/>
<polygon fill="midnightblue" stroke="midnightblue" points="1493.04,-60.35 1483.17,-64.22 1493.29,-67.35 1493.04,-60.35"/>
</g>
<!-- Node18 -->
<g id="node18" class="node">
<title>Node18</title>
<g id="a_node18"><a xlink:href="../../d0/d31/bttextfilterstab_8cpp.html" target="_top" xlink:title=" ">
<polygon fill="white" stroke="black" points="2406,-0.5 2406,-19.5 2516,-19.5 2516,-0.5 2406,-0.5"/>
<text text-anchor="middle" x="2461" y="-7.5" font-family="Helvetica,sans-Serif" font-size="10.00">bttextfilterstab.cpp</text>
</a>
</g>
</g>
<!-- Node1&#45;&gt;Node18 -->
<g id="edge17" class="edge">
<title>Node1&#45;&gt;Node18</title>
<path fill="none" stroke="midnightblue" d="M1493.5,-64.52C1613.64,-62.5 2043.99,-53.24 2397,-20 2399.9,-19.73 2402.88,-19.42 2405.88,-19.08"/>
<polygon fill="midnightblue" stroke="midnightblue" points="1493.11,-61.02 1483.16,-64.68 1493.22,-68.02 1493.11,-61.02"/>
</g>
<!-- Node19 -->
<g id="node19" class="node">
<title>Node19</title>
<g id="a_node19"><a xlink:href="../../d4/dca/cdisplaysettings_8cpp.html" target="_top" xlink:title=" ">
<polygon fill="white" stroke="black" points="2534,-0.5 2534,-19.5 2650,-19.5 2650,-0.5 2534,-0.5"/>
<text text-anchor="middle" x="2592" y="-7.5" font-family="Helvetica,sans-Serif" font-size="10.00">cdisplaysettings.cpp</text>
</a>
</g>
</g>
<!-- Node1&#45;&gt;Node19 -->
<g id="edge18" class="edge">
<title>Node1&#45;&gt;Node19</title>
<path fill="none" stroke="midnightblue" d="M1493.19,-64.71C1622.78,-63.31 2118.81,-55.8 2525,-20 2527.92,-19.74 2530.91,-19.45 2533.93,-19.13"/>
<polygon fill="midnightblue" stroke="midnightblue" points="1493.1,-61.21 1483.14,-64.81 1493.18,-68.21 1493.1,-61.21"/>
</g>
<!-- Node20 -->
<g id="node20" class="node">
<title>Node20</title>
<g id="a_node20"><a xlink:href="../../d8/d6b/clistwidget_8cpp.html" target="_top" xlink:title=" ">
<polygon fill="white" stroke="black" points="2668,-0.5 2668,-19.5 2758,-19.5 2758,-0.5 2668,-0.5"/>
<text text-anchor="middle" x="2713" y="-7.5" font-family="Helvetica,sans-Serif" font-size="10.00">clistwidget.cpp</text>
</a>
</g>
</g>
<!-- Node1&#45;&gt;Node20 -->
<g id="edge19" class="edge">
<title>Node1&#45;&gt;Node20</title>
<path fill="none" stroke="midnightblue" d="M1493.13,-65.29C1632.44,-66.25 2197.87,-66.89 2659,-20 2661.93,-19.7 2664.94,-19.34 2667.98,-18.95"/>
<polygon fill="midnightblue" stroke="midnightblue" points="1493.15,-61.79 1483.12,-65.22 1493.1,-68.79 1493.15,-61.79"/>
</g>
<!-- Node21 -->
<g id="node21" class="node">
<title>Node21</title>
<g id="a_node21"><a xlink:href="../../db/d89/tool_8cpp.html" target="_top" xlink:title=" ">
<polygon fill="white" stroke="black" points="2776,-0.5 2776,-19.5 2832,-19.5 2832,-0.5 2776,-0.5"/>
<text text-anchor="middle" x="2804" y="-7.5" font-family="Helvetica,sans-Serif" font-size="10.00">tool.cpp</text>
</a>
</g>
</g>
<!-- Node1&#45;&gt;Node21 -->
<g id="edge20" class="edge">
<title>Node1&#45;&gt;Node21</title>
<path fill="none" stroke="midnightblue" d="M1493.59,-64.78C1669.79,-63.45 2509.97,-55.31 2767,-20 2769.88,-19.6 2772.87,-19.08 2775.83,-18.48"/>
<polygon fill="midnightblue" stroke="midnightblue" points="1493.39,-61.28 1483.41,-64.85 1493.44,-68.28 1493.39,-61.28"/>
</g>
</g>
</svg>
