<?xml version="1.0" encoding="UTF-8" standalone="no"?>
<!DOCTYPE svg PUBLIC "-//W3C//DTD SVG 1.1//EN"
 "http://www.w3.org/Graphics/SVG/1.1/DTD/svg11.dtd">
<!-- Generated by graphviz version 2.43.0 (0)
 -->
<!-- Title: tool.h Pages: 1 -->
<svg width="2155pt" height="84pt"
 viewBox="0.00 0.00 2155.00 84.00" xmlns="http://www.w3.org/2000/svg" xmlns:xlink="http://www.w3.org/1999/xlink">
<g id="graph0" class="graph" transform="scale(1 1) rotate(0) translate(4 80)">
<title>tool.h</title>
<polygon fill="white" stroke="transparent" points="-4,4 -4,-80 2151,-80 2151,4 -4,4"/>
<!-- Node1 -->
<g id="node1" class="node">
<title>Node1</title>
<g id="a_node1"><a xlink:title=" ">
<polygon fill="#bfbfbf" stroke="black" points="1095,-56.5 1095,-75.5 1139,-75.5 1139,-56.5 1095,-56.5"/>
<text text-anchor="middle" x="1117" y="-63.5" font-family="Helvetica,sans-Serif" font-size="10.00">tool.h</text>
</a>
</g>
</g>
<!-- Node2 -->
<g id="node2" class="node">
<title>Node2</title>
<g id="a_node2"><a xlink:href="../../d7/dd0/btbookmarksmodel_8cpp.html" target="_top" xlink:title=" ">
<polygon fill="white" stroke="black" points="0,-0.5 0,-19.5 132,-19.5 132,-0.5 0,-0.5"/>
<text text-anchor="middle" x="66" y="-7.5" font-family="Helvetica,sans-Serif" font-size="10.00">btbookmarksmodel.cpp</text>
</a>
</g>
</g>
<!-- Node1&#45;&gt;Node2 -->
<g id="edge1" class="edge">
<title>Node1&#45;&gt;Node2</title>
<path fill="none" stroke="midnightblue" d="M1084.75,-64.37C961.84,-61.8 511.03,-50.69 141,-20 138.12,-19.76 135.19,-19.5 132.23,-19.21"/>
<polygon fill="midnightblue" stroke="midnightblue" points="1084.9,-67.88 1094.97,-64.58 1085.05,-60.88 1084.9,-67.88"/>
</g>
<!-- Node3 -->
<g id="node3" class="node">
<title>Node3</title>
<g id="a_node3"><a xlink:href="../../d3/db9/cswordmoduleinfo_8cpp.html" target="_top" xlink:title=" ">
<polygon fill="white" stroke="black" points="150.5,-0.5 150.5,-19.5 277.5,-19.5 277.5,-0.5 150.5,-0.5"/>
<text text-anchor="middle" x="214" y="-7.5" font-family="Helvetica,sans-Serif" font-size="10.00">cswordmoduleinfo.cpp</text>
</a>
</g>
</g>
<!-- Node1&#45;&gt;Node3 -->
<g id="edge2" class="edge">
<title>Node1&#45;&gt;Node3</title>
<path fill="none" stroke="midnightblue" d="M1084.58,-64.06C973.24,-60.68 596.22,-47.75 286,-20 283.24,-19.75 280.42,-19.48 277.58,-19.19"/>
<polygon fill="midnightblue" stroke="midnightblue" points="1084.71,-67.57 1094.81,-64.37 1084.92,-60.57 1084.71,-67.57"/>
</g>
<!-- Node4 -->
<g id="node4" class="node">
<title>Node4</title>
<g id="a_node4"><a xlink:href="../../d9/de6/cbookmarkindex_8cpp.html" target="_top" xlink:title=" ">
<polygon fill="white" stroke="black" points="295.5,-0.5 295.5,-19.5 414.5,-19.5 414.5,-0.5 295.5,-0.5"/>
<text text-anchor="middle" x="355" y="-7.5" font-family="Helvetica,sans-Serif" font-size="10.00">cbookmarkindex.cpp</text>
</a>
</g>
</g>
<!-- Node1&#45;&gt;Node4 -->
<g id="edge3" class="edge">
<title>Node1&#45;&gt;Node4</title>
<path fill="none" stroke="midnightblue" d="M1084.56,-63.64C985.45,-59.33 677.87,-44.77 424,-20 420.99,-19.71 417.92,-19.38 414.81,-19.04"/>
<polygon fill="midnightblue" stroke="midnightblue" points="1084.68,-67.15 1094.82,-64.08 1084.98,-60.16 1084.68,-67.15"/>
</g>
<!-- Node5 -->
<g id="node5" class="node">
<title>Node5</title>
<g id="a_node5"><a xlink:href="../../d5/deb/cexportmanager_8cpp.html" target="_top" xlink:title=" ">
<polygon fill="white" stroke="black" points="433,-0.5 433,-19.5 549,-19.5 549,-0.5 433,-0.5"/>
<text text-anchor="middle" x="491" y="-7.5" font-family="Helvetica,sans-Serif" font-size="10.00">cexportmanager.cpp</text>
</a>
</g>
</g>
<!-- Node1&#45;&gt;Node5 -->
<g id="edge4" class="edge">
<title>Node1&#45;&gt;Node5</title>
<path fill="none" stroke="midnightblue" d="M1084.71,-63C998.85,-57.57 757.83,-41.45 558,-20 555.08,-19.69 552.1,-19.35 549.08,-18.99"/>
<polygon fill="midnightblue" stroke="midnightblue" points="1084.66,-66.51 1094.86,-63.64 1085.1,-59.52 1084.66,-66.51"/>
</g>
<!-- Node6 -->
<g id="node6" class="node">
<title>Node6</title>
<g id="a_node6"><a xlink:href="../../de/db2/btmodelviewreaddisplay_8cpp.html" target="_top" xlink:title=" ">
<polygon fill="white" stroke="black" points="567,-0.5 567,-19.5 723,-19.5 723,-0.5 567,-0.5"/>
<text text-anchor="middle" x="645" y="-7.5" font-family="Helvetica,sans-Serif" font-size="10.00">btmodelviewreaddisplay.cpp</text>
</a>
</g>
</g>
<!-- Node1&#45;&gt;Node6 -->
<g id="edge5" class="edge">
<title>Node1&#45;&gt;Node6</title>
<path fill="none" stroke="midnightblue" d="M1084.68,-61.3C1010.03,-52.76 823.99,-31.48 719.41,-19.51"/>
<polygon fill="midnightblue" stroke="midnightblue" points="1084.53,-64.81 1094.87,-62.47 1085.33,-57.85 1084.53,-64.81"/>
</g>
<!-- Node7 -->
<g id="node7" class="node">
<title>Node7</title>
<g id="a_node7"><a xlink:href="../../d6/dd0/csearchanalysisscene_8cpp.html" target="_top" xlink:title=" ">
<polygon fill="white" stroke="black" points="741.5,-0.5 741.5,-19.5 884.5,-19.5 884.5,-0.5 741.5,-0.5"/>
<text text-anchor="middle" x="813" y="-7.5" font-family="Helvetica,sans-Serif" font-size="10.00">csearchanalysisscene.cpp</text>
</a>
</g>
</g>
<!-- Node1&#45;&gt;Node7 -->
<g id="edge6" class="edge">
<title>Node1&#45;&gt;Node7</title>
<path fill="none" stroke="midnightblue" d="M1084.68,-59.26C1031.09,-49.74 923.58,-30.64 861.07,-19.54"/>
<polygon fill="midnightblue" stroke="midnightblue" points="1084.19,-62.73 1094.65,-61.03 1085.41,-55.83 1084.19,-62.73"/>
</g>
<!-- Node8 -->
<g id="node8" class="node">
<title>Node8</title>
<g id="a_node8"><a xlink:href="../../d4/d57/btindexdialog_8cpp.html" target="_top" xlink:title=" ">
<polygon fill="white" stroke="black" points="903,-0.5 903,-19.5 1007,-19.5 1007,-0.5 903,-0.5"/>
<text text-anchor="middle" x="955" y="-7.5" font-family="Helvetica,sans-Serif" font-size="10.00">btindexdialog.cpp</text>
</a>
</g>
</g>
<!-- Node1&#45;&gt;Node8 -->
<g id="edge7" class="edge">
<title>Node1&#45;&gt;Node8</title>
<path fill="none" stroke="midnightblue" d="M1085.06,-54.35C1054.49,-44.16 1008.94,-28.98 980.65,-19.55"/>
<polygon fill="midnightblue" stroke="midnightblue" points="1084.22,-57.76 1094.81,-57.6 1086.43,-51.12 1084.22,-57.76"/>
</g>
<!-- Node9 -->
<g id="node9" class="node">
<title>Node9</title>
<g id="a_node9"><a xlink:href="../../dc/dab/btsearchmodulechooserdialog_8cpp.html" target="_top" xlink:title=" ">
<polygon fill="white" stroke="black" points="1025,-0.5 1025,-19.5 1209,-19.5 1209,-0.5 1025,-0.5"/>
<text text-anchor="middle" x="1117" y="-7.5" font-family="Helvetica,sans-Serif" font-size="10.00">btsearchmodulechooserdialog.cpp</text>
</a>
</g>
</g>
<!-- Node1&#45;&gt;Node9 -->
<g id="edge8" class="edge">
<title>Node1&#45;&gt;Node9</title>
<path fill="none" stroke="midnightblue" d="M1117,-45.8C1117,-36.91 1117,-26.78 1117,-19.75"/>
<polygon fill="midnightblue" stroke="midnightblue" points="1113.5,-46.08 1117,-56.08 1120.5,-46.08 1113.5,-46.08"/>
</g>
<!-- Node10 -->
<g id="node10" class="node">
<title>Node10</title>
<g id="a_node10"><a xlink:href="../../d4/d4d/btsearchoptionsarea_8cpp.html" target="_top" xlink:title=" ">
<polygon fill="white" stroke="black" points="1227.5,-0.5 1227.5,-19.5 1364.5,-19.5 1364.5,-0.5 1227.5,-0.5"/>
<text text-anchor="middle" x="1296" y="-7.5" font-family="Helvetica,sans-Serif" font-size="10.00">btsearchoptionsarea.cpp</text>
</a>
</g>
</g>
<!-- Node1&#45;&gt;Node10 -->
<g id="edge9" class="edge">
<title>Node1&#45;&gt;Node10</title>
<path fill="none" stroke="midnightblue" d="M1149.15,-55.3C1182.94,-45.11 1235.57,-29.23 1267.8,-19.51"/>
<polygon fill="midnightblue" stroke="midnightblue" points="1147.87,-52.03 1139.31,-58.27 1149.89,-58.73 1147.87,-52.03"/>
</g>
<!-- Node11 -->
<g id="node11" class="node">
<title>Node11</title>
<g id="a_node11"><a xlink:href="../../dd/dde/btsearchresultarea_8cpp.html" target="_top" xlink:title=" ">
<polygon fill="white" stroke="black" points="1383,-0.5 1383,-19.5 1511,-19.5 1511,-0.5 1383,-0.5"/>
<text text-anchor="middle" x="1447" y="-7.5" font-family="Helvetica,sans-Serif" font-size="10.00">btsearchresultarea.cpp</text>
</a>
</g>
</g>
<!-- Node1&#45;&gt;Node11 -->
<g id="edge10" class="edge">
<title>Node1&#45;&gt;Node11</title>
<path fill="none" stroke="midnightblue" d="M1149.07,-59.75C1206.14,-50.41 1325.81,-30.83 1394.86,-19.53"/>
<polygon fill="midnightblue" stroke="midnightblue" points="1148.47,-56.3 1139.16,-61.37 1149.6,-63.21 1148.47,-56.3"/>
</g>
<!-- Node12 -->
<g id="node12" class="node">
<title>Node12</title>
<g id="a_node12"><a xlink:href="../../d7/d5d/cmoduleresultview_8cpp.html" target="_top" xlink:title=" ">
<polygon fill="white" stroke="black" points="1529.5,-0.5 1529.5,-19.5 1658.5,-19.5 1658.5,-0.5 1529.5,-0.5"/>
<text text-anchor="middle" x="1594" y="-7.5" font-family="Helvetica,sans-Serif" font-size="10.00">cmoduleresultview.cpp</text>
</a>
</g>
</g>
<!-- Node1&#45;&gt;Node12 -->
<g id="edge11" class="edge">
<title>Node1&#45;&gt;Node12</title>
<path fill="none" stroke="midnightblue" d="M1149.44,-61.49C1217.92,-54.05 1382.27,-36.06 1520,-20 1523.09,-19.64 1526.24,-19.27 1529.43,-18.89"/>
<polygon fill="midnightblue" stroke="midnightblue" points="1148.85,-58.03 1139.29,-62.59 1149.61,-64.99 1148.85,-58.03"/>
</g>
<!-- Node13 -->
<g id="node13" class="node">
<title>Node13</title>
<g id="a_node13"><a xlink:href="../../d6/dfe/btstandardworkstab_8cpp.html" target="_top" xlink:title=" ">
<polygon fill="white" stroke="black" points="1677,-0.5 1677,-19.5 1811,-19.5 1811,-0.5 1677,-0.5"/>
<text text-anchor="middle" x="1744" y="-7.5" font-family="Helvetica,sans-Serif" font-size="10.00">btstandardworkstab.cpp</text>
</a>
</g>
</g>
<!-- Node1&#45;&gt;Node13 -->
<g id="edge12" class="edge">
<title>Node1&#45;&gt;Node13</title>
<path fill="none" stroke="midnightblue" d="M1149.11,-62.79C1233.95,-56.85 1471.09,-39.69 1668,-20 1670.91,-19.71 1673.88,-19.4 1676.88,-19.08"/>
<polygon fill="midnightblue" stroke="midnightblue" points="1148.8,-59.3 1139.07,-63.49 1149.29,-66.28 1148.8,-59.3"/>
</g>
<!-- Node14 -->
<g id="node14" class="node">
<title>Node14</title>
<g id="a_node14"><a xlink:href="../../d0/d31/bttextfilterstab_8cpp.html" target="_top" xlink:title=" ">
<polygon fill="white" stroke="black" points="1829,-0.5 1829,-19.5 1939,-19.5 1939,-0.5 1829,-0.5"/>
<text text-anchor="middle" x="1884" y="-7.5" font-family="Helvetica,sans-Serif" font-size="10.00">bttextfilterstab.cpp</text>
</a>
</g>
</g>
<!-- Node1&#45;&gt;Node14 -->
<g id="edge13" class="edge">
<title>Node1&#45;&gt;Node14</title>
<path fill="none" stroke="midnightblue" d="M1149.27,-63.81C1249.15,-59.92 1562.04,-46.36 1820,-20 1822.9,-19.7 1825.88,-19.37 1828.87,-19.02"/>
<polygon fill="midnightblue" stroke="midnightblue" points="1149.07,-60.31 1139.21,-64.19 1149.34,-67.31 1149.07,-60.31"/>
</g>
<!-- Node15 -->
<g id="node15" class="node">
<title>Node15</title>
<g id="a_node15"><a xlink:href="../../d4/dca/cdisplaysettings_8cpp.html" target="_top" xlink:title=" ">
<polygon fill="white" stroke="black" points="1957,-0.5 1957,-19.5 2073,-19.5 2073,-0.5 1957,-0.5"/>
<text text-anchor="middle" x="2015" y="-7.5" font-family="Helvetica,sans-Serif" font-size="10.00">cdisplaysettings.cpp</text>
</a>
</g>
</g>
<!-- Node1&#45;&gt;Node15 -->
<g id="edge14" class="edge">
<title>Node1&#45;&gt;Node15</title>
<path fill="none" stroke="midnightblue" d="M1149.43,-64.17C1260.8,-61.12 1637.91,-49.18 1948,-20 1950.92,-19.73 1953.91,-19.42 1956.93,-19.09"/>
<polygon fill="midnightblue" stroke="midnightblue" points="1149.1,-60.68 1139.2,-64.45 1149.29,-67.68 1149.1,-60.68"/>
</g>
<!-- Node16 -->
<g id="node16" class="node">
<title>Node16</title>
<g id="a_node16"><a xlink:href="../../db/d89/tool_8cpp.html" target="_top" xlink:title=" ">
<polygon fill="white" stroke="black" points="2091,-0.5 2091,-19.5 2147,-19.5 2147,-0.5 2091,-0.5"/>
<text text-anchor="middle" x="2119" y="-7.5" font-family="Helvetica,sans-Serif" font-size="10.00">tool.cpp</text>
</a>
</g>
</g>
<!-- Node1&#45;&gt;Node16 -->
<g id="edge15" class="edge">
<title>Node1&#45;&gt;Node16</title>
<path fill="none" stroke="midnightblue" d="M1149.47,-64.32C1295.93,-61.15 1895.95,-46.71 2082,-20 2084.88,-19.59 2087.86,-19.05 2090.83,-18.44"/>
<polygon fill="midnightblue" stroke="midnightblue" points="1149.27,-60.83 1139.34,-64.54 1149.42,-67.83 1149.27,-60.83"/>
</g>
</g>
</svg>
