<?xml version="1.0" encoding="UTF-8" standalone="no"?>
<!DOCTYPE svg PUBLIC "-//W3C//DTD SVG 1.1//EN"
 "http://www.w3.org/Graphics/SVG/1.1/DTD/svg11.dtd">
<!-- Generated by graphviz version 2.43.0 (0)
 -->
<!-- Title: BtWindowModuleChooser Pages: 1 -->
<svg width="384pt" height="303pt"
 viewBox="0.00 0.00 384.00 303.00" xmlns="http://www.w3.org/2000/svg" xmlns:xlink="http://www.w3.org/1999/xlink">
<g id="graph0" class="graph" transform="scale(1 1) rotate(0) translate(4 299)">
<title>BtWindowModuleChooser</title>
<polygon fill="white" stroke="transparent" points="-4,4 -4,-299 380,-299 380,4 -4,4"/>
<!-- Node1 -->
<g id="node1" class="node">
<title>Node1</title>
<g id="a_node1"><a xlink:title=" ">
<polygon fill="#bfbfbf" stroke="black" points="98,-193.5 98,-294.5 277,-294.5 277,-193.5 98,-193.5"/>
<text text-anchor="middle" x="187.5" y="-282.5" font-family="Helvetica,sans-Serif" font-size="10.00">BtWindowModuleChooser</text>
<polyline fill="none" stroke="black" points="98,-275.5 277,-275.5 "/>
<text text-anchor="start" x="106" y="-263.5" font-family="Helvetica,sans-Serif" font-size="10.00"># m_modules</text>
<text text-anchor="start" x="106" y="-252.5" font-family="Helvetica,sans-Serif" font-size="10.00"># m_moduleType</text>
<text text-anchor="start" x="106" y="-241.5" font-family="Helvetica,sans-Serif" font-size="10.00"># m_window</text>
<polyline fill="none" stroke="black" points="98,-234.5 277,-234.5 "/>
<text text-anchor="start" x="106" y="-222.5" font-family="Helvetica,sans-Serif" font-size="10.00">+ BtWindowModuleChooser()</text>
<text text-anchor="start" x="106" y="-211.5" font-family="Helvetica,sans-Serif" font-size="10.00">+ slotBackendModulesChanged()</text>
<text text-anchor="start" x="106" y="-200.5" font-family="Helvetica,sans-Serif" font-size="10.00">+ slotWindowModulesChanged()</text>
</a>
</g>
</g>
<!-- Node2 -->
<g id="node2" class="node">
<title>Node2</title>
<g id="a_node2"><a xlink:href="../../d6/d3e/classBtModuleChooserBar.html" target="_top" xlink:title=" ">
<polygon fill="white" stroke="black" points="0,-0.5 0,-156.5 179,-156.5 179,-0.5 0,-0.5"/>
<text text-anchor="middle" x="89.5" y="-144.5" font-family="Helvetica,sans-Serif" font-size="10.00">BtModuleChooserBar</text>
<polyline fill="none" stroke="black" points="0,-137.5 179,-137.5 "/>
<text text-anchor="start" x="8" y="-125.5" font-family="Helvetica,sans-Serif" font-size="10.00">&#45; m_buttonList</text>
<text text-anchor="start" x="8" y="-114.5" font-family="Helvetica,sans-Serif" font-size="10.00">&#45; m_idCounter</text>
<text text-anchor="start" x="8" y="-103.5" font-family="Helvetica,sans-Serif" font-size="10.00">&#45; m_moduleType</text>
<text text-anchor="start" x="8" y="-92.5" font-family="Helvetica,sans-Serif" font-size="10.00">&#45; m_window</text>
<polyline fill="none" stroke="black" points="0,-85.5 179,-85.5 "/>
<text text-anchor="start" x="8" y="-73.5" font-family="Helvetica,sans-Serif" font-size="10.00">+ BtModuleChooserBar()</text>
<text text-anchor="start" x="8" y="-62.5" font-family="Helvetica,sans-Serif" font-size="10.00">+ setModules()</text>
<text text-anchor="start" x="8" y="-51.5" font-family="Helvetica,sans-Serif" font-size="10.00">+ slotBackendModulesChanged()</text>
<text text-anchor="start" x="8" y="-40.5" font-family="Helvetica,sans-Serif" font-size="10.00">+ slotWindowModulesChanged()</text>
<text text-anchor="start" x="8" y="-29.5" font-family="Helvetica,sans-Serif" font-size="10.00">&#45; addButton()</text>
<text text-anchor="start" x="8" y="-18.5" font-family="Helvetica,sans-Serif" font-size="10.00">&#45; adjustButtonCount()</text>
<text text-anchor="start" x="8" y="-7.5" font-family="Helvetica,sans-Serif" font-size="10.00">&#45; updateButtonMenus()</text>
</a>
</g>
</g>
<!-- Node1&#45;&gt;Node2 -->
<g id="edge1" class="edge">
<title>Node1&#45;&gt;Node2</title>
<path fill="none" stroke="midnightblue" d="M152.27,-184.22C146.88,-175.24 141.26,-165.85 135.68,-156.54"/>
<polygon fill="none" stroke="midnightblue" points="149.42,-186.28 157.56,-193.06 155.43,-182.68 149.42,-186.28"/>
</g>
<!-- Node3 -->
<g id="node3" class="node">
<title>Node3</title>
<g id="a_node3"><a xlink:href="../../da/d70/classBtTextWindowHeader.html" target="_top" xlink:title=" ">
<polygon fill="white" stroke="black" points="197,-11.5 197,-145.5 376,-145.5 376,-11.5 197,-11.5"/>
<text text-anchor="middle" x="286.5" y="-133.5" font-family="Helvetica,sans-Serif" font-size="10.00">BtTextWindowHeader</text>
<polyline fill="none" stroke="black" points="197,-126.5 376,-126.5 "/>
<text text-anchor="start" x="205" y="-114.5" font-family="Helvetica,sans-Serif" font-size="10.00">&#45; m_widgetList</text>
<polyline fill="none" stroke="black" points="197,-107.5 376,-107.5 "/>
<text text-anchor="start" x="205" y="-95.5" font-family="Helvetica,sans-Serif" font-size="10.00">+ BtTextWindowHeader()</text>
<text text-anchor="start" x="205" y="-84.5" font-family="Helvetica,sans-Serif" font-size="10.00">+ slotBackendModulesChanged()</text>
<text text-anchor="start" x="205" y="-73.5" font-family="Helvetica,sans-Serif" font-size="10.00">+ slotWindowModulesChanged()</text>
<text text-anchor="start" x="205" y="-62.5" font-family="Helvetica,sans-Serif" font-size="10.00">&#45; addWidget()</text>
<text text-anchor="start" x="205" y="-51.5" font-family="Helvetica,sans-Serif" font-size="10.00">&#45; adjustWidgetCount()</text>
<text text-anchor="start" x="205" y="-40.5" font-family="Helvetica,sans-Serif" font-size="10.00">&#45; initMenus()</text>
<text text-anchor="start" x="205" y="-29.5" font-family="Helvetica,sans-Serif" font-size="10.00">&#45; setModules()</text>
<text text-anchor="start" x="205" y="-18.5" font-family="Helvetica,sans-Serif" font-size="10.00">&#45; updateWidgets()</text>
</a>
</g>
</g>
<!-- Node1&#45;&gt;Node3 -->
<g id="edge2" class="edge">
<title>Node1&#45;&gt;Node3</title>
<path fill="none" stroke="midnightblue" d="M222.92,-184.5C230.54,-171.92 238.63,-158.55 246.41,-145.71"/>
<polygon fill="none" stroke="midnightblue" points="219.93,-182.69 217.74,-193.06 225.91,-186.31 219.93,-182.69"/>
</g>
</g>
</svg>
