<?xml version="1.0" encoding="UTF-8" standalone="no"?>
<!DOCTYPE svg PUBLIC "-//W3C//DTD SVG 1.1//EN"
 "http://www.w3.org/Graphics/SVG/1.1/DTD/svg11.dtd">
<!-- Generated by graphviz version 2.43.0 (0)
 -->
<!-- Title: directory.h Pages: 1 -->
<!--zoomable 84 -->
<svg id="main" version="1.1" xmlns="http://www.w3.org/2000/svg" xmlns:xlink="http://www.w3.org/1999/xlink" xml:space="preserve" onload="init(evt)">
<style type="text/css"><![CDATA[
.edge:hover path { stroke: red; }
.edge:hover polygon { stroke: red; fill: red; }
]]></style>
<script type="text/javascript"><![CDATA[
var edges = document.getElementsByTagName('g');
if (edges && edges.length) {
  for (var i=0;i<edges.length;i++) {
    if (edges[i].id.substr(0,4)=='edge') {
      edges[i].setAttribute('class','edge');
    }
  }
}
]]></script>
        <defs>
                <circle id="rim" cx="0" cy="0" r="7"/>
                <circle id="rim2" cx="0" cy="0" r="3.5"/>
                <g id="zoomPlus">
                        <use xlink:href="#rim" fill="#404040">
                                <set attributeName="fill" to="#808080" begin="zoomplus.mouseover" end="zoomplus.mouseout"/>
                        </use>
                        <path d="M-4,0h8M0,-4v8" fill="none" stroke="white" stroke-width="1.5" pointer-events="none"/>
                </g>
                <g id="zoomMin">
                        <use xlink:href="#rim" fill="#404040">
                                <set attributeName="fill" to="#808080" begin="zoomminus.mouseover" end="zoomminus.mouseout"/>
                        </use>
                        <path d="M-4,0h8" fill="none" stroke="white" stroke-width="1.5" pointer-events="none"/>
                </g>
                <g id="dirArrow">
                        <path fill="none" stroke="white" stroke-width="1.5" d="M0,-3.0v7 M-2.5,-0.5L0,-3.0L2.5,-0.5"/>
                </g>
               <g id="resetDef">
                       <use xlink:href="#rim2" fill="#404040">
                               <set attributeName="fill" to="#808080" begin="reset.mouseover" end="reset.mouseout"/>
                       </use>
               </g>
        </defs>

<script type="text/javascript">
var viewWidth = 2727;
var viewHeight = 84;
var sectionId = 'dynsection-0';
</script>
<script xlink:href="../../svgpan.js"/>
<svg id="graph" class="graph">
<g id="viewport">
<title>directory.h</title>
<polygon fill="white" stroke="transparent" points="-4,4 -4,-80 2722.5,-80 2722.5,4 -4,4"/>
<!-- Node1 -->
<g id="node1" class="node">
<title>Node1</title>
<g id="a_node1"><a xlink:title=" ">
<polygon fill="#bfbfbf" stroke="black" points="1362,-56.5 1362,-75.5 1430,-75.5 1430,-56.5 1362,-56.5"/>
<text text-anchor="middle" x="1396" y="-63.5" font-family="Helvetica,sans-Serif" font-size="10.00">directory.h</text>
</a>
</g>
</g>
<!-- Node2 -->
<g id="node2" class="node">
<title>Node2</title>
<g id="a_node2"><a xlink:href="../../d7/dd0/btbookmarksmodel_8cpp.html" target="_top" xlink:title=" ">
<polygon fill="white" stroke="black" points="0,-0.5 0,-19.5 132,-19.5 132,-0.5 0,-0.5"/>
<text text-anchor="middle" x="66" y="-7.5" font-family="Helvetica,sans-Serif" font-size="10.00">btbookmarksmodel.cpp</text>
</a>
</g>
</g>
<!-- Node1&#45;&gt;Node2 -->
<g id="edge1" class="edge">
<title>Node1&#45;&gt;Node2</title>
<path fill="none" stroke="midnightblue" d="M1351.95,-64.75C1190.27,-63.56 614.25,-56.81 141,-20 138.12,-19.78 135.19,-19.52 132.22,-19.25"/>
<polygon fill="midnightblue" stroke="midnightblue" points="1351.97,-68.25 1362,-64.82 1352.02,-61.25 1351.97,-68.25"/>
</g>
<!-- Node3 -->
<g id="node3" class="node">
<title>Node3</title>
<g id="a_node3"><a xlink:href="../../db/dd7/btinstallbackend_8cpp.html" target="_top" xlink:title=" ">
<polygon fill="white" stroke="black" points="150.5,-0.5 150.5,-19.5 267.5,-19.5 267.5,-0.5 150.5,-0.5"/>
<text text-anchor="middle" x="209" y="-7.5" font-family="Helvetica,sans-Serif" font-size="10.00">btinstallbackend.cpp</text>
</a>
</g>
</g>
<!-- Node1&#45;&gt;Node3 -->
<g id="edge2" class="edge">
<title>Node1&#45;&gt;Node3</title>
<path fill="none" stroke="midnightblue" d="M1351.32,-64.67C1200.09,-63.23 693.65,-55.87 277,-20 273.92,-19.73 270.76,-19.43 267.57,-19.1"/>
<polygon fill="midnightblue" stroke="midnightblue" points="1351.56,-68.17 1361.59,-64.76 1351.62,-61.17 1351.56,-68.17"/>
</g>
<!-- Node4 -->
<g id="node4" class="node">
<title>Node4</title>
<g id="a_node4"><a xlink:href="../../de/d4e/btconfig_8cpp.html" target="_top" xlink:title=" ">
<polygon fill="white" stroke="black" points="286,-0.5 286,-19.5 362,-19.5 362,-0.5 286,-0.5"/>
<text text-anchor="middle" x="324" y="-7.5" font-family="Helvetica,sans-Serif" font-size="10.00">btconfig.cpp</text>
</a>
</g>
</g>
<!-- Node1&#45;&gt;Node4 -->
<g id="edge3" class="edge">
<title>Node1&#45;&gt;Node4</title>
<path fill="none" stroke="midnightblue" d="M1351.68,-65.35C1208.94,-65.98 748.55,-64.2 371,-20 368.11,-19.66 365.14,-19.25 362.15,-18.79"/>
<polygon fill="midnightblue" stroke="midnightblue" points="1351.81,-68.85 1361.79,-65.3 1351.77,-61.85 1351.81,-68.85"/>
</g>
<!-- Node5 -->
<g id="node5" class="node">
<title>Node5</title>
<g id="a_node5"><a xlink:href="../../d7/d25/cswordlexiconmoduleinfo_8cpp.html" target="_top" xlink:title=" ">
<polygon fill="white" stroke="black" points="380,-0.5 380,-19.5 542,-19.5 542,-0.5 380,-0.5"/>
<text text-anchor="middle" x="461" y="-7.5" font-family="Helvetica,sans-Serif" font-size="10.00">cswordlexiconmoduleinfo.cpp</text>
</a>
</g>
</g>
<!-- Node1&#45;&gt;Node5 -->
<g id="edge4" class="edge">
<title>Node1&#45;&gt;Node5</title>
<path fill="none" stroke="midnightblue" d="M1351.75,-63.37C1226.19,-58.58 856.97,-43.43 551,-20 548.18,-19.78 545.31,-19.55 542.42,-19.31"/>
<polygon fill="midnightblue" stroke="midnightblue" points="1351.63,-66.87 1361.75,-63.75 1351.89,-59.87 1351.63,-66.87"/>
</g>
<!-- Node6 -->
<g id="node6" class="node">
<title>Node6</title>
<g id="a_node6"><a xlink:href="../../d3/db9/cswordmoduleinfo_8cpp.html" target="_top" xlink:title=" ">
<polygon fill="white" stroke="black" points="560.5,-0.5 560.5,-19.5 687.5,-19.5 687.5,-0.5 560.5,-0.5"/>
<text text-anchor="middle" x="624" y="-7.5" font-family="Helvetica,sans-Serif" font-size="10.00">cswordmoduleinfo.cpp</text>
</a>
</g>
</g>
<!-- Node1&#45;&gt;Node6 -->
<g id="edge5" class="edge">
<title>Node1&#45;&gt;Node6</title>
<path fill="none" stroke="midnightblue" d="M1351.64,-63.04C1240.98,-57.97 943.9,-43.15 697,-20 693.95,-19.71 690.83,-19.4 687.68,-19.07"/>
<polygon fill="midnightblue" stroke="midnightblue" points="1351.61,-66.55 1361.76,-63.51 1351.93,-59.55 1351.61,-66.55"/>
</g>
<!-- Node7 -->
<g id="node7" class="node">
<title>Node7</title>
<g id="a_node7"><a xlink:href="../../d4/d47/cdisplaytemplatemgr_8cpp.html" target="_top" xlink:title=" ">
<polygon fill="white" stroke="black" points="706,-0.5 706,-19.5 846,-19.5 846,-0.5 706,-0.5"/>
<text text-anchor="middle" x="776" y="-7.5" font-family="Helvetica,sans-Serif" font-size="10.00">cdisplaytemplatemgr.cpp</text>
</a>
</g>
</g>
<!-- Node1&#45;&gt;Node7 -->
<g id="edge6" class="edge">
<title>Node1&#45;&gt;Node7</title>
<path fill="none" stroke="midnightblue" d="M1351.68,-61.77C1259.26,-54.94 1039.24,-38.15 855,-20 852.12,-19.72 849.17,-19.42 846.2,-19.11"/>
<polygon fill="midnightblue" stroke="midnightblue" points="1351.56,-65.27 1361.79,-62.52 1352.07,-58.29 1351.56,-65.27"/>
</g>
<!-- Node8 -->
<g id="node8" class="node">
<title>Node8</title>
<g id="a_node8"><a xlink:href="../../de/d8f/colormanager_8cpp.html" target="_top" xlink:title=" ">
<polygon fill="white" stroke="black" points="864,-0.5 864,-19.5 968,-19.5 968,-0.5 864,-0.5"/>
<text text-anchor="middle" x="916" y="-7.5" font-family="Helvetica,sans-Serif" font-size="10.00">colormanager.cpp</text>
</a>
</g>
</g>
<!-- Node1&#45;&gt;Node8 -->
<g id="edge7" class="edge">
<title>Node1&#45;&gt;Node8</title>
<path fill="none" stroke="midnightblue" d="M1351.5,-60.8C1274.89,-53.45 1113.2,-37.35 977,-20 974.13,-19.63 971.19,-19.25 968.22,-18.84"/>
<polygon fill="midnightblue" stroke="midnightblue" points="1351.44,-64.31 1361.73,-61.78 1352.11,-57.35 1351.44,-64.31"/>
</g>
<!-- Node9 -->
<g id="node9" class="node">
<title>Node9</title>
<g id="a_node9"><a xlink:href="../../d9/d7b/cswordbackend_8cpp.html" target="_top" xlink:title=" ">
<polygon fill="white" stroke="black" points="986,-0.5 986,-19.5 1098,-19.5 1098,-0.5 986,-0.5"/>
<text text-anchor="middle" x="1042" y="-7.5" font-family="Helvetica,sans-Serif" font-size="10.00">cswordbackend.cpp</text>
</a>
</g>
</g>
<!-- Node1&#45;&gt;Node9 -->
<g id="edge8" class="edge">
<title>Node1&#45;&gt;Node9</title>
<path fill="none" stroke="midnightblue" d="M1351.52,-58.21C1287.17,-48.4 1168.16,-30.25 1097.95,-19.53"/>
<polygon fill="midnightblue" stroke="midnightblue" points="1351.32,-61.73 1361.74,-59.77 1352.38,-54.81 1351.32,-61.73"/>
</g>
<!-- Node10 -->
<g id="node10" class="node">
<title>Node10</title>
<g id="a_node10"><a xlink:href="../../d1/df6/bibletime_8cpp.html" target="_top" xlink:title=" ">
<polygon fill="white" stroke="black" points="1116.5,-0.5 1116.5,-19.5 1199.5,-19.5 1199.5,-0.5 1116.5,-0.5"/>
<text text-anchor="middle" x="1158" y="-7.5" font-family="Helvetica,sans-Serif" font-size="10.00">bibletime.cpp</text>
</a>
</g>
</g>
<!-- Node1&#45;&gt;Node10 -->
<g id="edge9" class="edge">
<title>Node1&#45;&gt;Node10</title>
<path fill="none" stroke="midnightblue" d="M1352.14,-55.05C1307.2,-44.85 1238.07,-29.17 1195.57,-19.52"/>
<polygon fill="midnightblue" stroke="midnightblue" points="1351.37,-58.46 1361.9,-57.26 1352.92,-51.64 1351.37,-58.46"/>
</g>
<!-- Node11 -->
<g id="node11" class="node">
<title>Node11</title>
<g id="a_node11"><a xlink:href="../../da/dc7/bibletime__init_8cpp.html" target="_top" xlink:title=" ">
<polygon fill="white" stroke="black" points="1218,-0.5 1218,-19.5 1322,-19.5 1322,-0.5 1218,-0.5"/>
<text text-anchor="middle" x="1270" y="-7.5" font-family="Helvetica,sans-Serif" font-size="10.00">bibletime_init.cpp</text>
</a>
</g>
</g>
<!-- Node1&#45;&gt;Node11 -->
<g id="edge10" class="edge">
<title>Node1&#45;&gt;Node11</title>
<path fill="none" stroke="midnightblue" d="M1366.84,-52.5C1343.22,-42.38 1310.57,-28.39 1289.87,-19.52"/>
<polygon fill="midnightblue" stroke="midnightblue" points="1365.46,-55.72 1376.03,-56.44 1368.22,-49.29 1365.46,-55.72"/>
</g>
<!-- Node12 -->
<g id="node12" class="node">
<title>Node12</title>
<g id="a_node12"><a xlink:href="../../d6/d96/bibletime__slots_8cpp.html" target="_top" xlink:title=" ">
<polygon fill="white" stroke="black" points="1340,-0.5 1340,-19.5 1452,-19.5 1452,-0.5 1340,-0.5"/>
<text text-anchor="middle" x="1396" y="-7.5" font-family="Helvetica,sans-Serif" font-size="10.00">bibletime_slots.cpp</text>
</a>
</g>
</g>
<!-- Node1&#45;&gt;Node12 -->
<g id="edge11" class="edge">
<title>Node1&#45;&gt;Node12</title>
<path fill="none" stroke="midnightblue" d="M1396,-45.8C1396,-36.91 1396,-26.78 1396,-19.75"/>
<polygon fill="midnightblue" stroke="midnightblue" points="1392.5,-46.08 1396,-56.08 1399.5,-46.08 1392.5,-46.08"/>
</g>
<!-- Node13 -->
<g id="node13" class="node">
<title>Node13</title>
<g id="a_node13"><a xlink:href="../../d9/de6/cbookmarkindex_8cpp.html" target="_top" xlink:title=" ">
<polygon fill="white" stroke="black" points="1470.5,-0.5 1470.5,-19.5 1589.5,-19.5 1589.5,-0.5 1470.5,-0.5"/>
<text text-anchor="middle" x="1530" y="-7.5" font-family="Helvetica,sans-Serif" font-size="10.00">cbookmarkindex.cpp</text>
</a>
</g>
</g>
<!-- Node1&#45;&gt;Node13 -->
<g id="edge12" class="edge">
<title>Node1&#45;&gt;Node13</title>
<path fill="none" stroke="midnightblue" d="M1426.68,-52.64C1451.82,-42.5 1486.75,-28.43 1508.87,-19.52"/>
<polygon fill="midnightblue" stroke="midnightblue" points="1425.2,-49.46 1417.23,-56.44 1427.82,-55.95 1425.2,-49.46"/>
</g>
<!-- Node14 -->
<g id="node14" class="node">
<title>Node14</title>
<g id="a_node14"><a xlink:href="../../d9/d03/btbookshelfworkspage_8cpp.html" target="_top" xlink:title=" ">
<polygon fill="white" stroke="black" points="1607.5,-0.5 1607.5,-19.5 1754.5,-19.5 1754.5,-0.5 1607.5,-0.5"/>
<text text-anchor="middle" x="1681" y="-7.5" font-family="Helvetica,sans-Serif" font-size="10.00">btbookshelfworkspage.cpp</text>
</a>
</g>
</g>
<!-- Node1&#45;&gt;Node14 -->
<g id="edge13" class="edge">
<title>Node1&#45;&gt;Node14</title>
<path fill="none" stroke="midnightblue" d="M1439.92,-56.68C1493.16,-46.59 1582.41,-29.68 1636.09,-19.51"/>
<polygon fill="midnightblue" stroke="midnightblue" points="1439.27,-53.24 1430.09,-58.54 1440.57,-60.12 1439.27,-53.24"/>
</g>
<!-- Node15 -->
<g id="node15" class="node">
<title>Node15</title>
<g id="a_node15"><a xlink:href="../../d1/dd7/btaboutdialog_8cpp.html" target="_top" xlink:title=" ">
<polygon fill="white" stroke="black" points="1773,-0.5 1773,-19.5 1877,-19.5 1877,-0.5 1773,-0.5"/>
<text text-anchor="middle" x="1825" y="-7.5" font-family="Helvetica,sans-Serif" font-size="10.00">btaboutdialog.cpp</text>
</a>
</g>
</g>
<!-- Node1&#45;&gt;Node15 -->
<g id="edge14" class="edge">
<title>Node1&#45;&gt;Node15</title>
<path fill="none" stroke="midnightblue" d="M1440.12,-59.96C1509.23,-51.99 1647.21,-35.75 1764,-20 1766.86,-19.61 1769.8,-19.21 1772.77,-18.79"/>
<polygon fill="midnightblue" stroke="midnightblue" points="1439.56,-56.5 1430.03,-61.12 1440.36,-63.46 1439.56,-56.5"/>
</g>
<!-- Node16 -->
<g id="node16" class="node">
<title>Node16</title>
<g id="a_node16"><a xlink:href="../../de/db2/btmodelviewreaddisplay_8cpp.html" target="_top" xlink:title=" ">
<polygon fill="white" stroke="black" points="1895,-0.5 1895,-19.5 2051,-19.5 2051,-0.5 1895,-0.5"/>
<text text-anchor="middle" x="1973" y="-7.5" font-family="Helvetica,sans-Serif" font-size="10.00">btmodelviewreaddisplay.cpp</text>
</a>
</g>
</g>
<!-- Node1&#45;&gt;Node16 -->
<g id="edge15" class="edge">
<title>Node1&#45;&gt;Node16</title>
<path fill="none" stroke="midnightblue" d="M1440.35,-61.1C1526.34,-53.5 1721.74,-36.04 1886,-20 1888.87,-19.72 1891.8,-19.43 1894.75,-19.14"/>
<polygon fill="midnightblue" stroke="midnightblue" points="1439.82,-57.63 1430.17,-62 1440.44,-64.6 1439.82,-57.63"/>
</g>
<!-- Node17 -->
<g id="node17" class="node">
<title>Node17</title>
<g id="a_node17"><a xlink:href="../../de/db9/btqmlscrollview_8cpp.html" target="_top" xlink:title=" ">
<polygon fill="white" stroke="black" points="2069,-0.5 2069,-19.5 2183,-19.5 2183,-0.5 2069,-0.5"/>
<text text-anchor="middle" x="2126" y="-7.5" font-family="Helvetica,sans-Serif" font-size="10.00">btqmlscrollview.cpp</text>
</a>
</g>
</g>
<!-- Node1&#45;&gt;Node17 -->
<g id="edge16" class="edge">
<title>Node1&#45;&gt;Node17</title>
<path fill="none" stroke="midnightblue" d="M1440.37,-63.04C1547.22,-58.08 1827.23,-43.73 2060,-20 2062.88,-19.71 2065.82,-19.38 2068.79,-19.04"/>
<polygon fill="midnightblue" stroke="midnightblue" points="1440.11,-59.54 1430.28,-63.5 1440.43,-66.54 1440.11,-59.54"/>
</g>
<!-- Node18 -->
<g id="node18" class="node">
<title>Node18</title>
<g id="a_node18"><a xlink:href="../../d9/d0c/btquickwidget_8cpp.html" target="_top" xlink:title=" ">
<polygon fill="white" stroke="black" points="2201,-0.5 2201,-19.5 2307,-19.5 2307,-0.5 2201,-0.5"/>
<text text-anchor="middle" x="2254" y="-7.5" font-family="Helvetica,sans-Serif" font-size="10.00">btquickwidget.cpp</text>
</a>
</g>
</g>
<!-- Node1&#45;&gt;Node18 -->
<g id="edge17" class="edge">
<title>Node1&#45;&gt;Node18</title>
<path fill="none" stroke="midnightblue" d="M1440.56,-63.85C1561.61,-60.43 1906.58,-48.73 2192,-20 2194.92,-19.71 2197.92,-19.37 2200.94,-19.01"/>
<polygon fill="midnightblue" stroke="midnightblue" points="1440.12,-60.36 1430.22,-64.14 1440.31,-67.36 1440.12,-60.36"/>
</g>
<!-- Node19 -->
<g id="node19" class="node">
<title>Node19</title>
<g id="a_node19"><a xlink:href="../../de/da4/cbiblereadwindow_8cpp.html" target="_top" xlink:title=" ">
<polygon fill="white" stroke="black" points="2325.5,-0.5 2325.5,-19.5 2450.5,-19.5 2450.5,-0.5 2325.5,-0.5"/>
<text text-anchor="middle" x="2388" y="-7.5" font-family="Helvetica,sans-Serif" font-size="10.00">cbiblereadwindow.cpp</text>
</a>
</g>
</g>
<!-- Node1&#45;&gt;Node19 -->
<g id="edge18" class="edge">
<title>Node1&#45;&gt;Node19</title>
<path fill="none" stroke="midnightblue" d="M1440.52,-64.01C1573.64,-60.81 1980.18,-49.16 2316,-20 2319.01,-19.74 2322.09,-19.45 2325.2,-19.13"/>
<polygon fill="midnightblue" stroke="midnightblue" points="1440.23,-60.52 1430.32,-64.26 1440.4,-67.52 1440.23,-60.52"/>
</g>
<!-- Node20 -->
<g id="node20" class="node">
<title>Node20</title>
<g id="a_node20"><a xlink:href="../../df/d0a/main_8cpp.html" target="_top" xlink:title=" ">
<polygon fill="white" stroke="black" points="2469,-0.5 2469,-19.5 2531,-19.5 2531,-0.5 2469,-0.5"/>
<text text-anchor="middle" x="2500" y="-7.5" font-family="Helvetica,sans-Serif" font-size="10.00">main.cpp</text>
</a>
</g>
</g>
<!-- Node1&#45;&gt;Node20 -->
<g id="edge19" class="edge">
<title>Node1&#45;&gt;Node20</title>
<path fill="none" stroke="midnightblue" d="M1440.35,-64.18C1615.33,-60.8 2258.05,-46.77 2460,-20 2462.82,-19.63 2465.74,-19.15 2468.65,-18.61"/>
<polygon fill="midnightblue" stroke="midnightblue" points="1440.15,-60.69 1430.22,-64.38 1440.29,-67.69 1440.15,-60.69"/>
</g>
<!-- Node21 -->
<g id="node21" class="node">
<title>Node21</title>
<g id="a_node21"><a xlink:href="../../db/d95/bticons_8cpp.html" target="_top" xlink:title=" ">
<polygon fill="white" stroke="black" points="2549,-0.5 2549,-19.5 2621,-19.5 2621,-0.5 2549,-0.5"/>
<text text-anchor="middle" x="2585" y="-7.5" font-family="Helvetica,sans-Serif" font-size="10.00">bticons.cpp</text>
</a>
</g>
</g>
<!-- Node1&#45;&gt;Node21 -->
<g id="edge20" class="edge">
<title>Node1&#45;&gt;Node21</title>
<path fill="none" stroke="midnightblue" d="M1440.33,-64.19C1623.41,-60.72 2321.21,-46.02 2540,-20 2542.85,-19.66 2545.79,-19.24 2548.73,-18.77"/>
<polygon fill="midnightblue" stroke="midnightblue" points="1440.19,-60.7 1430.26,-64.38 1440.32,-67.69 1440.19,-60.7"/>
</g>
<!-- Node22 -->
<g id="node22" class="node">
<title>Node22</title>
<g id="a_node22"><a xlink:href="../../d3/d62/directory_8cpp.html" target="_top" xlink:title=" ">
<polygon fill="white" stroke="black" points="2639.5,-0.5 2639.5,-19.5 2718.5,-19.5 2718.5,-0.5 2639.5,-0.5"/>
<text text-anchor="middle" x="2679" y="-7.5" font-family="Helvetica,sans-Serif" font-size="10.00">directory.cpp</text>
</a>
</g>
</g>
<!-- Node1&#45;&gt;Node22 -->
<g id="edge21" class="edge">
<title>Node1&#45;&gt;Node22</title>
<path fill="none" stroke="midnightblue" d="M1440.3,-64.25C1632.15,-60.86 2392.35,-46.02 2630,-20 2633.1,-19.66 2636.29,-19.24 2639.49,-18.77"/>
<polygon fill="midnightblue" stroke="midnightblue" points="1439.97,-60.75 1430.03,-64.43 1440.09,-67.75 1439.97,-60.75"/>
</g>
</g>
</svg>
        <g id="navigator" transform="translate(0 0)" fill="#404254">
                <rect fill="#f2f5e9" fill-opacity="0.5" stroke="#606060" stroke-width=".5" x="0" y="0" width="60" height="60"/>
                <use id="zoomplus" xlink:href="#zoomPlus" x="17" y="9" onmousedown="handleZoom(evt,'in')"/>
                <use id="zoomminus" xlink:href="#zoomMin" x="42" y="9" onmousedown="handleZoom(evt,'out')"/>
                <use id="reset" xlink:href="#resetDef" x="30" y="36" onmousedown="handleReset()"/>
                <g id="arrowUp" xlink:href="#dirArrow" transform="translate(30 24)" onmousedown="handlePan(0,-1)">
                  <use xlink:href="#rim" fill="#404040">
                        <set attributeName="fill" to="#808080" begin="arrowUp.mouseover" end="arrowUp.mouseout"/>
                  </use>
                  <path fill="none" stroke="white" stroke-width="1.5" d="M0,-3.0v7 M-2.5,-0.5L0,-3.0L2.5,-0.5"/>
                </g>
                <g id="arrowRight" xlink:href="#dirArrow" transform="rotate(90) translate(36 -43)" onmousedown="handlePan(1,0)">
                  <use xlink:href="#rim" fill="#404040">
                        <set attributeName="fill" to="#808080" begin="arrowRight.mouseover" end="arrowRight.mouseout"/>
                  </use>
                  <path fill="none" stroke="white" stroke-width="1.5" d="M0,-3.0v7 M-2.5,-0.5L0,-3.0L2.5,-0.5"/>
                </g>
                <g id="arrowDown" xlink:href="#dirArrow" transform="rotate(180) translate(-30 -48)" onmousedown="handlePan(0,1)">
                  <use xlink:href="#rim" fill="#404040">
                        <set attributeName="fill" to="#808080" begin="arrowDown.mouseover" end="arrowDown.mouseout"/>
                  </use>
                  <path fill="none" stroke="white" stroke-width="1.5" d="M0,-3.0v7 M-2.5,-0.5L0,-3.0L2.5,-0.5"/>
                </g>
                <g id="arrowLeft" xlink:href="#dirArrow" transform="rotate(270) translate(-36 17)" onmousedown="handlePan(-1,0)">
                  <use xlink:href="#rim" fill="#404040">
                        <set attributeName="fill" to="#808080" begin="arrowLeft.mouseover" end="arrowLeft.mouseout"/>
                  </use>
                  <path fill="none" stroke="white" stroke-width="1.5" d="M0,-3.0v7 M-2.5,-0.5L0,-3.0L2.5,-0.5"/>
                </g>
        </g>
        <svg viewBox="0 0 15 15" width="100%" height="30px" preserveAspectRatio="xMaxYMin meet">
         <g id="arrow_out" transform="scale(0.3 0.3)">
          <a xlink:href="directory_8h__dep__incl_org.svg" target="_base">
           <rect id="button" ry="5" rx="5" y="6" x="6" height="38" width="38"
                fill="#f2f5e9" fill-opacity="0.5" stroke="#606060" stroke-width="1.0"/>
           <path id="arrow"
             d="M 11.500037,31.436501 C 11.940474,20.09759 22.043105,11.32322 32.158766,21.979434 L 37.068811,17.246167 C 37.068811,17.246167 37.088388,32 37.088388,32 L 22.160133,31.978069 C 22.160133,31.978069 26.997745,27.140456 26.997745,27.140456 C 18.528582,18.264221 13.291696,25.230495 11.500037,31.436501 z"
             style="fill:#404040;"/>
          </a>
         </g>
        </svg>
</svg>
