<?xml version="1.0" encoding="UTF-8" standalone="no"?>
<!DOCTYPE svg PUBLIC "-//W3C//DTD SVG 1.1//EN"
 "http://www.w3.org/Graphics/SVG/1.1/DTD/svg11.dtd">
<!-- Generated by graphviz version 2.43.0 (0)
 -->
<!-- Title: directory.h Pages: 1 -->
<!--zoomable 84 -->
<svg id="main" version="1.1" xmlns="http://www.w3.org/2000/svg" xmlns:xlink="http://www.w3.org/1999/xlink" xml:space="preserve" onload="init(evt)">
<style type="text/css"><![CDATA[
.edge:hover path { stroke: red; }
.edge:hover polygon { stroke: red; fill: red; }
]]></style>
<script type="text/javascript"><![CDATA[
var edges = document.getElementsByTagName('g');
if (edges && edges.length) {
  for (var i=0;i<edges.length;i++) {
    if (edges[i].id.substr(0,4)=='edge') {
      edges[i].setAttribute('class','edge');
    }
  }
}
]]></script>
        <defs>
                <circle id="rim" cx="0" cy="0" r="7"/>
                <circle id="rim2" cx="0" cy="0" r="3.5"/>
                <g id="zoomPlus">
                        <use xlink:href="#rim" fill="#404040">
                                <set attributeName="fill" to="#808080" begin="zoomplus.mouseover" end="zoomplus.mouseout"/>
                        </use>
                        <path d="M-4,0h8M0,-4v8" fill="none" stroke="white" stroke-width="1.5" pointer-events="none"/>
                </g>
                <g id="zoomMin">
                        <use xlink:href="#rim" fill="#404040">
                                <set attributeName="fill" to="#808080" begin="zoomminus.mouseover" end="zoomminus.mouseout"/>
                        </use>
                        <path d="M-4,0h8" fill="none" stroke="white" stroke-width="1.5" pointer-events="none"/>
                </g>
                <g id="dirArrow">
                        <path fill="none" stroke="white" stroke-width="1.5" d="M0,-3.0v7 M-2.5,-0.5L0,-3.0L2.5,-0.5"/>
                </g>
               <g id="resetDef">
                       <use xlink:href="#rim2" fill="#404040">
                               <set attributeName="fill" to="#808080" begin="reset.mouseover" end="reset.mouseout"/>
                       </use>
               </g>
        </defs>

<script type="text/javascript">
var viewWidth = 1728;
var viewHeight = 84;
var sectionId = 'dynsection-0';
</script>
<script xlink:href="../../svgpan.js"/>
<svg id="graph" class="graph">
<g id="viewport">
<title>directory.h</title>
<polygon fill="white" stroke="transparent" points="-4,4 -4,-80 1723.5,-80 1723.5,4 -4,4"/>
<!-- Node1 -->
<g id="node1" class="node">
<title>Node1</title>
<g id="a_node1"><a xlink:title=" ">
<polygon fill="#bfbfbf" stroke="black" points="945,-56.5 945,-75.5 1013,-75.5 1013,-56.5 945,-56.5"/>
<text text-anchor="middle" x="979" y="-63.5" font-family="Helvetica,sans-Serif" font-size="10.00">directory.h</text>
</a>
</g>
</g>
<!-- Node2 -->
<g id="node2" class="node">
<title>Node2</title>
<g id="a_node2"><a xlink:href="../../d7/dd0/btbookmarksmodel_8cpp.html" target="_top" xlink:title=" ">
<polygon fill="white" stroke="black" points="0,-0.5 0,-19.5 132,-19.5 132,-0.5 0,-0.5"/>
<text text-anchor="middle" x="66" y="-7.5" font-family="Helvetica,sans-Serif" font-size="10.00">btbookmarksmodel.cpp</text>
</a>
</g>
</g>
<!-- Node1&#45;&gt;Node2 -->
<g id="edge1" class="edge">
<title>Node1&#45;&gt;Node2</title>
<path fill="none" stroke="midnightblue" d="M934.28,-63.63C808.92,-59.58 443.53,-46.25 141,-20 138.13,-19.75 135.19,-19.48 132.23,-19.19"/>
<polygon fill="midnightblue" stroke="midnightblue" points="934.51,-67.14 944.62,-63.97 934.74,-60.15 934.51,-67.14"/>
</g>
<!-- Node3 -->
<g id="node3" class="node">
<title>Node3</title>
<g id="a_node3"><a xlink:href="../../db/dd7/btinstallbackend_8cpp.html" target="_top" xlink:title=" ">
<polygon fill="white" stroke="black" points="150.5,-0.5 150.5,-19.5 267.5,-19.5 267.5,-0.5 150.5,-0.5"/>
<text text-anchor="middle" x="209" y="-7.5" font-family="Helvetica,sans-Serif" font-size="10.00">btinstallbackend.cpp</text>
</a>
</g>
</g>
<!-- Node1&#45;&gt;Node3 -->
<g id="edge2" class="edge">
<title>Node1&#45;&gt;Node3</title>
<path fill="none" stroke="midnightblue" d="M934.83,-63.21C823.98,-58.48 525.14,-44.35 277,-20 273.92,-19.7 270.76,-19.36 267.58,-19.01"/>
<polygon fill="midnightblue" stroke="midnightblue" points="934.83,-66.71 944.96,-63.63 935.12,-59.72 934.83,-66.71"/>
</g>
<!-- Node4 -->
<g id="node4" class="node">
<title>Node4</title>
<g id="a_node4"><a xlink:href="../../de/d4e/btconfig_8cpp.html" target="_top" xlink:title=" ">
<polygon fill="white" stroke="black" points="286,-0.5 286,-19.5 362,-19.5 362,-0.5 286,-0.5"/>
<text text-anchor="middle" x="324" y="-7.5" font-family="Helvetica,sans-Serif" font-size="10.00">btconfig.cpp</text>
</a>
</g>
</g>
<!-- Node1&#45;&gt;Node4 -->
<g id="edge3" class="edge">
<title>Node1&#45;&gt;Node4</title>
<path fill="none" stroke="midnightblue" d="M934.82,-63.48C834.33,-59.63 581.03,-47.79 371,-20 368.12,-19.62 365.14,-19.17 362.16,-18.69"/>
<polygon fill="midnightblue" stroke="midnightblue" points="934.79,-66.98 944.91,-63.86 935.05,-59.98 934.79,-66.98"/>
</g>
<!-- Node5 -->
<g id="node5" class="node">
<title>Node5</title>
<g id="a_node5"><a xlink:href="../../d7/d25/cswordlexiconmoduleinfo_8cpp.html" target="_top" xlink:title=" ">
<polygon fill="white" stroke="black" points="380,-0.5 380,-19.5 542,-19.5 542,-0.5 380,-0.5"/>
<text text-anchor="middle" x="461" y="-7.5" font-family="Helvetica,sans-Serif" font-size="10.00">cswordlexiconmoduleinfo.cpp</text>
</a>
</g>
</g>
<!-- Node1&#45;&gt;Node5 -->
<g id="edge4" class="edge">
<title>Node1&#45;&gt;Node5</title>
<path fill="none" stroke="midnightblue" d="M934.52,-60.36C847.31,-51.27 652.72,-30.99 542.05,-19.45"/>
<polygon fill="midnightblue" stroke="midnightblue" points="934.3,-63.86 944.61,-61.42 935.03,-56.9 934.3,-63.86"/>
</g>
<!-- Node6 -->
<g id="node6" class="node">
<title>Node6</title>
<g id="a_node6"><a xlink:href="../../d3/db9/cswordmoduleinfo_8cpp.html" target="_top" xlink:title=" ">
<polygon fill="white" stroke="black" points="560.5,-0.5 560.5,-19.5 687.5,-19.5 687.5,-0.5 560.5,-0.5"/>
<text text-anchor="middle" x="624" y="-7.5" font-family="Helvetica,sans-Serif" font-size="10.00">cswordmoduleinfo.cpp</text>
</a>
</g>
</g>
<!-- Node1&#45;&gt;Node6 -->
<g id="edge5" class="edge">
<title>Node1&#45;&gt;Node6</title>
<path fill="none" stroke="midnightblue" d="M934.72,-58.26C870.21,-48.45 750.42,-30.23 679.91,-19.5"/>
<polygon fill="midnightblue" stroke="midnightblue" points="934.55,-61.78 944.96,-59.82 935.6,-54.86 934.55,-61.78"/>
</g>
<!-- Node7 -->
<g id="node7" class="node">
<title>Node7</title>
<g id="a_node7"><a xlink:href="../../d4/d47/cdisplaytemplatemgr_8cpp.html" target="_top" xlink:title=" ">
<polygon fill="white" stroke="black" points="706,-0.5 706,-19.5 846,-19.5 846,-0.5 706,-0.5"/>
<text text-anchor="middle" x="776" y="-7.5" font-family="Helvetica,sans-Serif" font-size="10.00">cdisplaytemplatemgr.cpp</text>
</a>
</g>
</g>
<!-- Node1&#45;&gt;Node7 -->
<g id="edge6" class="edge">
<title>Node1&#45;&gt;Node7</title>
<path fill="none" stroke="midnightblue" d="M937.01,-53.83C898.68,-43.63 842.85,-28.78 808.02,-19.52"/>
<polygon fill="midnightblue" stroke="midnightblue" points="936.27,-57.26 946.83,-56.44 938.07,-50.49 936.27,-57.26"/>
</g>
<!-- Node8 -->
<g id="node8" class="node">
<title>Node8</title>
<g id="a_node8"><a xlink:href="../../de/d8f/colormanager_8cpp.html" target="_top" xlink:title=" ">
<polygon fill="white" stroke="black" points="864,-0.5 864,-19.5 968,-19.5 968,-0.5 864,-0.5"/>
<text text-anchor="middle" x="916" y="-7.5" font-family="Helvetica,sans-Serif" font-size="10.00">colormanager.cpp</text>
</a>
</g>
</g>
<!-- Node1&#45;&gt;Node8 -->
<g id="edge7" class="edge">
<title>Node1&#45;&gt;Node8</title>
<path fill="none" stroke="midnightblue" d="M960.96,-49.54C949.73,-39.91 935.68,-27.87 926.31,-19.83"/>
<polygon fill="midnightblue" stroke="midnightblue" points="959.01,-52.47 968.88,-56.32 963.56,-47.16 959.01,-52.47"/>
</g>
<!-- Node9 -->
<g id="node9" class="node">
<title>Node9</title>
<g id="a_node9"><a xlink:href="../../d9/d7b/cswordbackend_8cpp.html" target="_top" xlink:title=" ">
<polygon fill="white" stroke="black" points="986,-0.5 986,-19.5 1098,-19.5 1098,-0.5 986,-0.5"/>
<text text-anchor="middle" x="1042" y="-7.5" font-family="Helvetica,sans-Serif" font-size="10.00">cswordbackend.cpp</text>
</a>
</g>
</g>
<!-- Node1&#45;&gt;Node9 -->
<g id="edge8" class="edge">
<title>Node1&#45;&gt;Node9</title>
<path fill="none" stroke="midnightblue" d="M997.04,-49.54C1008.27,-39.91 1022.32,-27.87 1031.69,-19.83"/>
<polygon fill="midnightblue" stroke="midnightblue" points="994.44,-47.16 989.12,-56.32 998.99,-52.47 994.44,-47.16"/>
</g>
<!-- Node10 -->
<g id="node10" class="node">
<title>Node10</title>
<g id="a_node10"><a xlink:href="../../d1/df6/bibletime_8cpp.html" target="_top" xlink:title=" ">
<polygon fill="white" stroke="black" points="1116.5,-0.5 1116.5,-19.5 1199.5,-19.5 1199.5,-0.5 1116.5,-0.5"/>
<text text-anchor="middle" x="1158" y="-7.5" font-family="Helvetica,sans-Serif" font-size="10.00">bibletime.cpp</text>
</a>
</g>
</g>
<!-- Node1&#45;&gt;Node10 -->
<g id="edge9" class="edge">
<title>Node1&#45;&gt;Node10</title>
<path fill="none" stroke="midnightblue" d="M1017.33,-53.44C1051.08,-43.26 1099.45,-28.66 1129.77,-19.52"/>
<polygon fill="midnightblue" stroke="midnightblue" points="1015.93,-50.2 1007.36,-56.44 1017.95,-56.91 1015.93,-50.2"/>
</g>
<!-- Node11 -->
<g id="node11" class="node">
<title>Node11</title>
<g id="a_node11"><a xlink:href="../../d6/d96/bibletime__slots_8cpp.html" target="_top" xlink:title=" ">
<polygon fill="white" stroke="black" points="1218,-0.5 1218,-19.5 1330,-19.5 1330,-0.5 1218,-0.5"/>
<text text-anchor="middle" x="1274" y="-7.5" font-family="Helvetica,sans-Serif" font-size="10.00">bibletime_slots.cpp</text>
</a>
</g>
</g>
<!-- Node1&#45;&gt;Node11 -->
<g id="edge10" class="edge">
<title>Node1&#45;&gt;Node11</title>
<path fill="none" stroke="midnightblue" d="M1023.25,-56.9C1078.15,-46.85 1171.36,-29.79 1227.35,-19.54"/>
<polygon fill="midnightblue" stroke="midnightblue" points="1022.33,-53.51 1013.13,-58.75 1023.6,-60.39 1022.33,-53.51"/>
</g>
<!-- Node12 -->
<g id="node12" class="node">
<title>Node12</title>
<g id="a_node12"><a xlink:href="../../d1/dd7/btaboutdialog_8cpp.html" target="_top" xlink:title=" ">
<polygon fill="white" stroke="black" points="1348,-0.5 1348,-19.5 1452,-19.5 1452,-0.5 1348,-0.5"/>
<text text-anchor="middle" x="1400" y="-7.5" font-family="Helvetica,sans-Serif" font-size="10.00">btaboutdialog.cpp</text>
</a>
</g>
</g>
<!-- Node1&#45;&gt;Node12 -->
<g id="edge11" class="edge">
<title>Node1&#45;&gt;Node12</title>
<path fill="none" stroke="midnightblue" d="M1023.36,-59.77C1091.36,-51.69 1225.41,-35.48 1339,-20 1341.86,-19.61 1344.8,-19.2 1347.77,-18.78"/>
<polygon fill="midnightblue" stroke="midnightblue" points="1022.55,-56.35 1013.03,-61 1023.37,-63.3 1022.55,-56.35"/>
</g>
<!-- Node13 -->
<g id="node13" class="node">
<title>Node13</title>
<g id="a_node13"><a xlink:href="../../df/d0a/main_8cpp.html" target="_top" xlink:title=" ">
<polygon fill="white" stroke="black" points="1470,-0.5 1470,-19.5 1532,-19.5 1532,-0.5 1470,-0.5"/>
<text text-anchor="middle" x="1501" y="-7.5" font-family="Helvetica,sans-Serif" font-size="10.00">main.cpp</text>
</a>
</g>
</g>
<!-- Node1&#45;&gt;Node13 -->
<g id="edge12" class="edge">
<title>Node1&#45;&gt;Node13</title>
<path fill="none" stroke="midnightblue" d="M1023.16,-62.78C1108.29,-58.07 1300.83,-45.39 1461,-20 1463.81,-19.55 1466.72,-19.03 1469.63,-18.46"/>
<polygon fill="midnightblue" stroke="midnightblue" points="1022.88,-59.29 1013.08,-63.32 1023.26,-66.28 1022.88,-59.29"/>
</g>
<!-- Node14 -->
<g id="node14" class="node">
<title>Node14</title>
<g id="a_node14"><a xlink:href="../../db/d95/bticons_8cpp.html" target="_top" xlink:title=" ">
<polygon fill="white" stroke="black" points="1550,-0.5 1550,-19.5 1622,-19.5 1622,-0.5 1550,-0.5"/>
<text text-anchor="middle" x="1586" y="-7.5" font-family="Helvetica,sans-Serif" font-size="10.00">bticons.cpp</text>
</a>
</g>
</g>
<!-- Node1&#45;&gt;Node14 -->
<g id="edge13" class="edge">
<title>Node1&#45;&gt;Node14</title>
<path fill="none" stroke="midnightblue" d="M1023.15,-63.23C1118.22,-59.04 1349.22,-46.76 1541,-20 1543.84,-19.6 1546.77,-19.14 1549.71,-18.64"/>
<polygon fill="midnightblue" stroke="midnightblue" points="1022.88,-59.74 1013.04,-63.67 1023.19,-66.73 1022.88,-59.74"/>
</g>
<!-- Node15 -->
<g id="node15" class="node">
<title>Node15</title>
<g id="a_node15"><a xlink:href="../../d3/d62/directory_8cpp.html" target="_top" xlink:title=" ">
<polygon fill="white" stroke="black" points="1640.5,-0.5 1640.5,-19.5 1719.5,-19.5 1719.5,-0.5 1640.5,-0.5"/>
<text text-anchor="middle" x="1680" y="-7.5" font-family="Helvetica,sans-Serif" font-size="10.00">directory.cpp</text>
</a>
</g>
</g>
<!-- Node1&#45;&gt;Node15 -->
<g id="edge14" class="edge">
<title>Node1&#45;&gt;Node15</title>
<path fill="none" stroke="midnightblue" d="M1023.34,-63.66C1128.95,-60.11 1403.53,-48.65 1631,-20 1634.09,-19.61 1637.28,-19.15 1640.48,-18.65"/>
<polygon fill="midnightblue" stroke="midnightblue" points="1022.95,-60.17 1013.07,-64 1023.18,-67.17 1022.95,-60.17"/>
</g>
</g>
</svg>
        <g id="navigator" transform="translate(0 0)" fill="#404254">
                <rect fill="#f2f5e9" fill-opacity="0.5" stroke="#606060" stroke-width=".5" x="0" y="0" width="60" height="60"/>
                <use id="zoomplus" xlink:href="#zoomPlus" x="17" y="9" onmousedown="handleZoom(evt,'in')"/>
                <use id="zoomminus" xlink:href="#zoomMin" x="42" y="9" onmousedown="handleZoom(evt,'out')"/>
                <use id="reset" xlink:href="#resetDef" x="30" y="36" onmousedown="handleReset()"/>
                <g id="arrowUp" xlink:href="#dirArrow" transform="translate(30 24)" onmousedown="handlePan(0,-1)">
                  <use xlink:href="#rim" fill="#404040">
                        <set attributeName="fill" to="#808080" begin="arrowUp.mouseover" end="arrowUp.mouseout"/>
                  </use>
                  <path fill="none" stroke="white" stroke-width="1.5" d="M0,-3.0v7 M-2.5,-0.5L0,-3.0L2.5,-0.5"/>
                </g>
                <g id="arrowRight" xlink:href="#dirArrow" transform="rotate(90) translate(36 -43)" onmousedown="handlePan(1,0)">
                  <use xlink:href="#rim" fill="#404040">
                        <set attributeName="fill" to="#808080" begin="arrowRight.mouseover" end="arrowRight.mouseout"/>
                  </use>
                  <path fill="none" stroke="white" stroke-width="1.5" d="M0,-3.0v7 M-2.5,-0.5L0,-3.0L2.5,-0.5"/>
                </g>
                <g id="arrowDown" xlink:href="#dirArrow" transform="rotate(180) translate(-30 -48)" onmousedown="handlePan(0,1)">
                  <use xlink:href="#rim" fill="#404040">
                        <set attributeName="fill" to="#808080" begin="arrowDown.mouseover" end="arrowDown.mouseout"/>
                  </use>
                  <path fill="none" stroke="white" stroke-width="1.5" d="M0,-3.0v7 M-2.5,-0.5L0,-3.0L2.5,-0.5"/>
                </g>
                <g id="arrowLeft" xlink:href="#dirArrow" transform="rotate(270) translate(-36 17)" onmousedown="handlePan(-1,0)">
                  <use xlink:href="#rim" fill="#404040">
                        <set attributeName="fill" to="#808080" begin="arrowLeft.mouseover" end="arrowLeft.mouseout"/>
                  </use>
                  <path fill="none" stroke="white" stroke-width="1.5" d="M0,-3.0v7 M-2.5,-0.5L0,-3.0L2.5,-0.5"/>
                </g>
        </g>
        <svg viewBox="0 0 15 15" width="100%" height="30px" preserveAspectRatio="xMaxYMin meet">
         <g id="arrow_out" transform="scale(0.3 0.3)">
          <a xlink:href="directory_8h__dep__incl_org.svg" target="_base">
           <rect id="button" ry="5" rx="5" y="6" x="6" height="38" width="38"
                fill="#f2f5e9" fill-opacity="0.5" stroke="#606060" stroke-width="1.0"/>
           <path id="arrow"
             d="M 11.500037,31.436501 C 11.940474,20.09759 22.043105,11.32322 32.158766,21.979434 L 37.068811,17.246167 C 37.068811,17.246167 37.088388,32 37.088388,32 L 22.160133,31.978069 C 22.160133,31.978069 26.997745,27.140456 26.997745,27.140456 C 18.528582,18.264221 13.291696,25.230495 11.500037,31.436501 z"
             style="fill:#404040;"/>
          </a>
         </g>
        </svg>
</svg>
