<?xml version="1.0" encoding="UTF-8" standalone="no"?>
<!DOCTYPE svg PUBLIC "-//W3C//DTD SVG 1.1//EN"
 "http://www.w3.org/Graphics/SVG/1.1/DTD/svg11.dtd">
<!-- Generated by graphviz version 2.43.0 (0)
 -->
<!-- Title: BookshelfModel::GroupItem&lt; TYPE &gt; Pages: 1 -->
<!--zoomable 636 -->
<svg id="main" version="1.1" xmlns="http://www.w3.org/2000/svg" xmlns:xlink="http://www.w3.org/1999/xlink" xml:space="preserve" onload="init(evt)">
<style type="text/css"><![CDATA[
.edge:hover path { stroke: red; }
.edge:hover polygon { stroke: red; fill: red; }
]]></style>
<script type="text/javascript"><![CDATA[
var edges = document.getElementsByTagName('g');
if (edges && edges.length) {
  for (var i=0;i<edges.length;i++) {
    if (edges[i].id.substr(0,4)=='edge') {
      edges[i].setAttribute('class','edge');
    }
  }
}
]]></script>
        <defs>
                <circle id="rim" cx="0" cy="0" r="7"/>
                <circle id="rim2" cx="0" cy="0" r="3.5"/>
                <g id="zoomPlus">
                        <use xlink:href="#rim" fill="#404040">
                                <set attributeName="fill" to="#808080" begin="zoomplus.mouseover" end="zoomplus.mouseout"/>
                        </use>
                        <path d="M-4,0h8M0,-4v8" fill="none" stroke="white" stroke-width="1.5" pointer-events="none"/>
                </g>
                <g id="zoomMin">
                        <use xlink:href="#rim" fill="#404040">
                                <set attributeName="fill" to="#808080" begin="zoomminus.mouseover" end="zoomminus.mouseout"/>
                        </use>
                        <path d="M-4,0h8" fill="none" stroke="white" stroke-width="1.5" pointer-events="none"/>
                </g>
                <g id="dirArrow">
                        <path fill="none" stroke="white" stroke-width="1.5" d="M0,-3.0v7 M-2.5,-0.5L0,-3.0L2.5,-0.5"/>
                </g>
               <g id="resetDef">
                       <use xlink:href="#rim2" fill="#404040">
                               <set attributeName="fill" to="#808080" begin="reset.mouseover" end="reset.mouseout"/>
                       </use>
               </g>
        </defs>

<script type="text/javascript">
var viewWidth = 565;
var viewHeight = 636;
var sectionId = 'dynsection-0';
</script>
<script xlink:href="../../svgpan.js"/>
<svg id="graph" class="graph">
<g id="viewport">
<title>BookshelfModel::GroupItem&lt; TYPE &gt;</title>
<polygon fill="white" stroke="transparent" points="-4,4 -4,-632 561,-632 561,4 -4,4"/>
<!-- Node1 -->
<g id="node1" class="node">
<title>Node1</title>
<g id="a_node1"><a xlink:title=" ">
<polygon fill="#bfbfbf" stroke="black" points="191.5,-266.5 191.5,-345.5 344.5,-345.5 344.5,-266.5 191.5,-266.5"/>
<text text-anchor="start" x="199.5" y="-333.5" font-family="Helvetica,sans-Serif" font-size="10.00">BookshelfModel::GroupItem</text>
<text text-anchor="middle" x="268" y="-322.5" font-family="Helvetica,sans-Serif" font-size="10.00">&lt; TYPE &gt;</text>
<polyline fill="none" stroke="black" points="191.5,-315.5 344.5,-315.5 "/>
<text text-anchor="middle" x="268" y="-303.5" font-family="Helvetica,sans-Serif" font-size="10.00"> </text>
<polyline fill="none" stroke="black" points="191.5,-296.5 344.5,-296.5 "/>
<text text-anchor="start" x="199.5" y="-284.5" font-family="Helvetica,sans-Serif" font-size="10.00">+ GroupItem()</text>
<text text-anchor="start" x="199.5" y="-273.5" font-family="Helvetica,sans-Serif" font-size="10.00">+ staticItemType()</text>
</a>
</g>
</g>
<!-- Node3 -->
<g id="node3" class="node">
<title>Node3</title>
<g id="a_node3"><a xlink:href="../../d1/dcc/classBookshelfModel_1_1GroupItem.html" target="_top" xlink:title=" ">
<polygon fill="white" stroke="black" points="13.5,-139.5 13.5,-218.5 166.5,-218.5 166.5,-139.5 13.5,-139.5"/>
<text text-anchor="start" x="21.5" y="-206.5" font-family="Helvetica,sans-Serif" font-size="10.00">BookshelfModel::GroupItem</text>
<text text-anchor="middle" x="90" y="-195.5" font-family="Helvetica,sans-Serif" font-size="10.00">&lt; Item::ITEM_INDEXING &gt;</text>
<polyline fill="none" stroke="black" points="13.5,-188.5 166.5,-188.5 "/>
<text text-anchor="middle" x="90" y="-176.5" font-family="Helvetica,sans-Serif" font-size="10.00"> </text>
<polyline fill="none" stroke="black" points="13.5,-169.5 166.5,-169.5 "/>
<text text-anchor="start" x="21.5" y="-157.5" font-family="Helvetica,sans-Serif" font-size="10.00">+ GroupItem()</text>
<text text-anchor="start" x="21.5" y="-146.5" font-family="Helvetica,sans-Serif" font-size="10.00">+ staticItemType()</text>
</a>
</g>
</g>
<!-- Node1&#45;&gt;Node3 -->
<g id="edge2" class="edge">
<title>Node1&#45;&gt;Node3</title>
<path fill="none" stroke="orange" d="M181.9,-278.98C163.83,-270.94 145.79,-260.74 131,-248 121.71,-239.99 113.92,-229.33 107.71,-218.83"/>
<polygon fill="orange" stroke="orange" points="180.76,-282.3 191.34,-282.98 183.5,-275.85 180.76,-282.3"/>
<text text-anchor="middle" x="197.5" y="-240" font-family="Helvetica,sans-Serif" font-size="10.00"> &lt; Item::ITEM_INDEXING &gt;</text>
</g>
<!-- Node5 -->
<g id="node5" class="node">
<title>Node5</title>
<g id="a_node5"><a xlink:href="../../d1/dcc/classBookshelfModel_1_1GroupItem.html" target="_top" xlink:title=" ">
<polygon fill="white" stroke="black" points="191.5,-139.5 191.5,-218.5 344.5,-218.5 344.5,-139.5 191.5,-139.5"/>
<text text-anchor="start" x="199.5" y="-206.5" font-family="Helvetica,sans-Serif" font-size="10.00">BookshelfModel::GroupItem</text>
<text text-anchor="middle" x="268" y="-195.5" font-family="Helvetica,sans-Serif" font-size="10.00">&lt; Item::ITEM_CATEGORY &gt;</text>
<polyline fill="none" stroke="black" points="191.5,-188.5 344.5,-188.5 "/>
<text text-anchor="middle" x="268" y="-176.5" font-family="Helvetica,sans-Serif" font-size="10.00"> </text>
<polyline fill="none" stroke="black" points="191.5,-169.5 344.5,-169.5 "/>
<text text-anchor="start" x="199.5" y="-157.5" font-family="Helvetica,sans-Serif" font-size="10.00">+ GroupItem()</text>
<text text-anchor="start" x="199.5" y="-146.5" font-family="Helvetica,sans-Serif" font-size="10.00">+ staticItemType()</text>
</a>
</g>
</g>
<!-- Node1&#45;&gt;Node5 -->
<g id="edge4" class="edge">
<title>Node1&#45;&gt;Node5</title>
<path fill="none" stroke="orange" d="M268,-256.22C268,-243.74 268,-230.5 268,-218.61"/>
<polygon fill="orange" stroke="orange" points="264.5,-256.48 268,-266.48 271.5,-256.48 264.5,-256.48"/>
<text text-anchor="middle" x="336" y="-240" font-family="Helvetica,sans-Serif" font-size="10.00"> &lt; Item::ITEM_CATEGORY &gt;</text>
</g>
<!-- Node7 -->
<g id="node7" class="node">
<title>Node7</title>
<g id="a_node7"><a xlink:href="../../d1/dcc/classBookshelfModel_1_1GroupItem.html" target="_top" xlink:title=" ">
<polygon fill="white" stroke="black" points="372.5,-139.5 372.5,-218.5 525.5,-218.5 525.5,-139.5 372.5,-139.5"/>
<text text-anchor="start" x="380.5" y="-206.5" font-family="Helvetica,sans-Serif" font-size="10.00">BookshelfModel::GroupItem</text>
<text text-anchor="middle" x="449" y="-195.5" font-family="Helvetica,sans-Serif" font-size="10.00">&lt; Item::ITEM_LANGUAGE &gt;</text>
<polyline fill="none" stroke="black" points="372.5,-188.5 525.5,-188.5 "/>
<text text-anchor="middle" x="449" y="-176.5" font-family="Helvetica,sans-Serif" font-size="10.00"> </text>
<polyline fill="none" stroke="black" points="372.5,-169.5 525.5,-169.5 "/>
<text text-anchor="start" x="380.5" y="-157.5" font-family="Helvetica,sans-Serif" font-size="10.00">+ GroupItem()</text>
<text text-anchor="start" x="380.5" y="-146.5" font-family="Helvetica,sans-Serif" font-size="10.00">+ staticItemType()</text>
</a>
</g>
</g>
<!-- Node1&#45;&gt;Node7 -->
<g id="edge6" class="edge">
<title>Node1&#45;&gt;Node7</title>
<path fill="none" stroke="orange" d="M353.9,-280.14C373.06,-271.96 392.32,-261.41 408,-248 417.43,-239.94 425.3,-229.14 431.53,-218.52"/>
<polygon fill="orange" stroke="orange" points="352.46,-276.95 344.52,-283.97 355.1,-283.43 352.46,-276.95"/>
<text text-anchor="middle" x="487.5" y="-240" font-family="Helvetica,sans-Serif" font-size="10.00"> &lt; Item::ITEM_LANGUAGE &gt;</text>
</g>
<!-- Node2 -->
<g id="node2" class="node">
<title>Node2</title>
<g id="a_node2"><a xlink:href="../../d5/d1c/classBookshelfModel_1_1Item.html" target="_top" xlink:title=" ">
<polygon fill="white" stroke="black" points="206,-383.5 206,-627.5 330,-627.5 330,-383.5 206,-383.5"/>
<text text-anchor="middle" x="268" y="-615.5" font-family="Helvetica,sans-Serif" font-size="10.00">BookshelfModel::Item</text>
<polyline fill="none" stroke="black" points="206,-608.5 330,-608.5 "/>
<text text-anchor="start" x="214" y="-596.5" font-family="Helvetica,sans-Serif" font-size="10.00">&#45; m_checkState</text>
<text text-anchor="start" x="214" y="-585.5" font-family="Helvetica,sans-Serif" font-size="10.00">&#45; m_children</text>
<text text-anchor="start" x="214" y="-574.5" font-family="Helvetica,sans-Serif" font-size="10.00">&#45; m_parent</text>
<text text-anchor="start" x="214" y="-563.5" font-family="Helvetica,sans-Serif" font-size="10.00">&#45; m_type</text>
<polyline fill="none" stroke="black" points="206,-556.5 330,-556.5 "/>
<text text-anchor="start" x="214" y="-544.5" font-family="Helvetica,sans-Serif" font-size="10.00">+ checkState()</text>
<text text-anchor="start" x="214" y="-533.5" font-family="Helvetica,sans-Serif" font-size="10.00">+ childIndex()</text>
<text text-anchor="start" x="214" y="-522.5" font-family="Helvetica,sans-Serif" font-size="10.00">+ children()</text>
<text text-anchor="start" x="214" y="-511.5" font-family="Helvetica,sans-Serif" font-size="10.00">+ data()</text>
<text text-anchor="start" x="214" y="-500.5" font-family="Helvetica,sans-Serif" font-size="10.00">+ fitFor()</text>
<text text-anchor="start" x="214" y="-489.5" font-family="Helvetica,sans-Serif" font-size="10.00">+ getGroupItem()</text>
<text text-anchor="start" x="214" y="-478.5" font-family="Helvetica,sans-Serif" font-size="10.00">+ indexFor()</text>
<text text-anchor="start" x="214" y="-467.5" font-family="Helvetica,sans-Serif" font-size="10.00">+ insertChild()</text>
<text text-anchor="start" x="214" y="-456.5" font-family="Helvetica,sans-Serif" font-size="10.00">+ Item()</text>
<text text-anchor="start" x="214" y="-445.5" font-family="Helvetica,sans-Serif" font-size="10.00">+ operator&lt;()</text>
<text text-anchor="start" x="214" y="-434.5" font-family="Helvetica,sans-Serif" font-size="10.00">+ parent()</text>
<text text-anchor="start" x="214" y="-423.5" font-family="Helvetica,sans-Serif" font-size="10.00">+ setCheckState()</text>
<text text-anchor="start" x="214" y="-412.5" font-family="Helvetica,sans-Serif" font-size="10.00">+ type()</text>
<text text-anchor="start" x="214" y="-401.5" font-family="Helvetica,sans-Serif" font-size="10.00">+ ~Item()</text>
<text text-anchor="start" x="214" y="-390.5" font-family="Helvetica,sans-Serif" font-size="10.00">&#45; setParent()</text>
</a>
</g>
</g>
<!-- Node2&#45;&gt;Node1 -->
<g id="edge1" class="edge">
<title>Node2&#45;&gt;Node1</title>
<path fill="none" stroke="midnightblue" d="M268,-373.31C268,-363.4 268,-353.99 268,-345.52"/>
<polygon fill="none" stroke="midnightblue" points="264.5,-373.36 268,-383.36 271.5,-373.36 264.5,-373.36"/>
</g>
<!-- Node4 -->
<g id="node4" class="node">
<title>Node4</title>
<g id="a_node4"><a xlink:href="../../d9/dea/classBookshelfModel_1_1IndexingItem.html" target="_top" xlink:title=" ">
<polygon fill="white" stroke="black" points="0,-11.5 0,-90.5 166,-90.5 166,-11.5 0,-11.5"/>
<text text-anchor="middle" x="83" y="-78.5" font-family="Helvetica,sans-Serif" font-size="10.00">BookshelfModel::IndexingItem</text>
<polyline fill="none" stroke="black" points="0,-71.5 166,-71.5 "/>
<text text-anchor="start" x="8" y="-59.5" font-family="Helvetica,sans-Serif" font-size="10.00">&#45; m_indexed</text>
<polyline fill="none" stroke="black" points="0,-52.5 166,-52.5 "/>
<text text-anchor="start" x="8" y="-40.5" font-family="Helvetica,sans-Serif" font-size="10.00">+ data()</text>
<text text-anchor="start" x="8" y="-29.5" font-family="Helvetica,sans-Serif" font-size="10.00">+ fitFor()</text>
<text text-anchor="start" x="8" y="-18.5" font-family="Helvetica,sans-Serif" font-size="10.00">+ IndexingItem()</text>
</a>
</g>
</g>
<!-- Node3&#45;&gt;Node4 -->
<g id="edge3" class="edge">
<title>Node3&#45;&gt;Node4</title>
<path fill="none" stroke="midnightblue" d="M87.27,-128.83C86.57,-116.25 85.83,-102.9 85.16,-90.92"/>
<polygon fill="none" stroke="midnightblue" points="83.79,-129.38 87.84,-139.17 90.78,-128.99 83.79,-129.38"/>
</g>
<!-- Node6 -->
<g id="node6" class="node">
<title>Node6</title>
<g id="a_node6"><a xlink:href="../../d8/d6d/classBookshelfModel_1_1CategoryItem.html" target="_top" xlink:title=" ">
<polygon fill="white" stroke="black" points="184,-0.5 184,-101.5 352,-101.5 352,-0.5 184,-0.5"/>
<text text-anchor="middle" x="268" y="-89.5" font-family="Helvetica,sans-Serif" font-size="10.00">BookshelfModel::CategoryItem</text>
<polyline fill="none" stroke="black" points="184,-82.5 352,-82.5 "/>
<text text-anchor="start" x="192" y="-70.5" font-family="Helvetica,sans-Serif" font-size="10.00">&#45; m_category</text>
<polyline fill="none" stroke="black" points="184,-63.5 352,-63.5 "/>
<text text-anchor="start" x="192" y="-51.5" font-family="Helvetica,sans-Serif" font-size="10.00">+ category()</text>
<text text-anchor="start" x="192" y="-40.5" font-family="Helvetica,sans-Serif" font-size="10.00">+ CategoryItem()</text>
<text text-anchor="start" x="192" y="-29.5" font-family="Helvetica,sans-Serif" font-size="10.00">+ data()</text>
<text text-anchor="start" x="192" y="-18.5" font-family="Helvetica,sans-Serif" font-size="10.00">+ fitFor()</text>
<text text-anchor="start" x="192" y="-7.5" font-family="Helvetica,sans-Serif" font-size="10.00">+ operator&lt;()</text>
</a>
</g>
</g>
<!-- Node5&#45;&gt;Node6 -->
<g id="edge5" class="edge">
<title>Node5&#45;&gt;Node6</title>
<path fill="none" stroke="midnightblue" d="M268,-128.89C268,-119.94 268,-110.6 268,-101.63"/>
<polygon fill="none" stroke="midnightblue" points="264.5,-129.17 268,-139.17 271.5,-129.17 264.5,-129.17"/>
</g>
<!-- Node8 -->
<g id="node8" class="node">
<title>Node8</title>
<g id="a_node8"><a xlink:href="../../db/da1/classBookshelfModel_1_1LanguageItem.html" target="_top" xlink:title=" ">
<polygon fill="white" stroke="black" points="370.5,-11.5 370.5,-90.5 541.5,-90.5 541.5,-11.5 370.5,-11.5"/>
<text text-anchor="middle" x="456" y="-78.5" font-family="Helvetica,sans-Serif" font-size="10.00">BookshelfModel::LanguageItem</text>
<polyline fill="none" stroke="black" points="370.5,-71.5 541.5,-71.5 "/>
<text text-anchor="start" x="378.5" y="-59.5" font-family="Helvetica,sans-Serif" font-size="10.00">&#45; m_language</text>
<polyline fill="none" stroke="black" points="370.5,-52.5 541.5,-52.5 "/>
<text text-anchor="start" x="378.5" y="-40.5" font-family="Helvetica,sans-Serif" font-size="10.00">+ data()</text>
<text text-anchor="start" x="378.5" y="-29.5" font-family="Helvetica,sans-Serif" font-size="10.00">+ fitFor()</text>
<text text-anchor="start" x="378.5" y="-18.5" font-family="Helvetica,sans-Serif" font-size="10.00">+ LanguageItem()</text>
</a>
</g>
</g>
<!-- Node7&#45;&gt;Node8 -->
<g id="edge7" class="edge">
<title>Node7&#45;&gt;Node8</title>
<path fill="none" stroke="midnightblue" d="M451.73,-128.83C452.43,-116.25 453.17,-102.9 453.84,-90.92"/>
<polygon fill="none" stroke="midnightblue" points="448.22,-128.99 451.16,-139.17 455.21,-129.38 448.22,-128.99"/>
</g>
</g>
</svg>
        <g id="navigator" transform="translate(0 0)" fill="#404254">
                <rect fill="#f2f5e9" fill-opacity="0.5" stroke="#606060" stroke-width=".5" x="0" y="0" width="60" height="60"/>
                <use id="zoomplus" xlink:href="#zoomPlus" x="17" y="9" onmousedown="handleZoom(evt,'in')"/>
                <use id="zoomminus" xlink:href="#zoomMin" x="42" y="9" onmousedown="handleZoom(evt,'out')"/>
                <use id="reset" xlink:href="#resetDef" x="30" y="36" onmousedown="handleReset()"/>
                <g id="arrowUp" xlink:href="#dirArrow" transform="translate(30 24)" onmousedown="handlePan(0,-1)">
                  <use xlink:href="#rim" fill="#404040">
                        <set attributeName="fill" to="#808080" begin="arrowUp.mouseover" end="arrowUp.mouseout"/>
                  </use>
                  <path fill="none" stroke="white" stroke-width="1.5" d="M0,-3.0v7 M-2.5,-0.5L0,-3.0L2.5,-0.5"/>
                </g>
                <g id="arrowRight" xlink:href="#dirArrow" transform="rotate(90) translate(36 -43)" onmousedown="handlePan(1,0)">
                  <use xlink:href="#rim" fill="#404040">
                        <set attributeName="fill" to="#808080" begin="arrowRight.mouseover" end="arrowRight.mouseout"/>
                  </use>
                  <path fill="none" stroke="white" stroke-width="1.5" d="M0,-3.0v7 M-2.5,-0.5L0,-3.0L2.5,-0.5"/>
                </g>
                <g id="arrowDown" xlink:href="#dirArrow" transform="rotate(180) translate(-30 -48)" onmousedown="handlePan(0,1)">
                  <use xlink:href="#rim" fill="#404040">
                        <set attributeName="fill" to="#808080" begin="arrowDown.mouseover" end="arrowDown.mouseout"/>
                  </use>
                  <path fill="none" stroke="white" stroke-width="1.5" d="M0,-3.0v7 M-2.5,-0.5L0,-3.0L2.5,-0.5"/>
                </g>
                <g id="arrowLeft" xlink:href="#dirArrow" transform="rotate(270) translate(-36 17)" onmousedown="handlePan(-1,0)">
                  <use xlink:href="#rim" fill="#404040">
                        <set attributeName="fill" to="#808080" begin="arrowLeft.mouseover" end="arrowLeft.mouseout"/>
                  </use>
                  <path fill="none" stroke="white" stroke-width="1.5" d="M0,-3.0v7 M-2.5,-0.5L0,-3.0L2.5,-0.5"/>
                </g>
        </g>
        <svg viewBox="0 0 15 15" width="100%" height="30px" preserveAspectRatio="xMaxYMin meet">
         <g id="arrow_out" transform="scale(0.3 0.3)">
          <a xlink:href="classBookshelfModel_1_1GroupItem__inherit__graph_org.svg" target="_base">
           <rect id="button" ry="5" rx="5" y="6" x="6" height="38" width="38"
                fill="#f2f5e9" fill-opacity="0.5" stroke="#606060" stroke-width="1.0"/>
           <path id="arrow"
             d="M 11.500037,31.436501 C 11.940474,20.09759 22.043105,11.32322 32.158766,21.979434 L 37.068811,17.246167 C 37.068811,17.246167 37.088388,32 37.088388,32 L 22.160133,31.978069 C 22.160133,31.978069 26.997745,27.140456 26.997745,27.140456 C 18.528582,18.264221 13.291696,25.230495 11.500037,31.436501 z"
             style="fill:#404040;"/>
          </a>
         </g>
        </svg>
</svg>
