<?xml version="1.0" encoding="UTF-8" standalone="no"?>
<!DOCTYPE svg PUBLIC "-//W3C//DTD SVG 1.1//EN"
 "http://www.w3.org/Graphics/SVG/1.1/DTD/svg11.dtd">
<!-- Generated by graphviz version 2.43.0 (0)
 -->
<!-- Title: BookshelfModel::GroupItem&lt; TYPE &gt; Pages: 1 -->
<!--zoomable 692 -->

<svg id="main" version="1.1" xmlns="http://www.w3.org/2000/svg" xmlns:xlink="http://www.w3.org/1999/xlink" xml:space="preserve" onload="init(evt)">
<style type="text/css"><![CDATA[
.node, .edge {opacity: 0.7;}
.node.selected, .edge.selected {opacity: 1;}
.edge:hover path { stroke: red; }
.edge:hover polygon { stroke: red; fill: red; }
]]></style>

<defs>
  <circle id="rim" cx="0" cy="0" r="7"/>
  <circle id="rim2" cx="0" cy="0" r="3.5"/>
  <g id="zoomPlus">
    <use xlink:href="#rim" fill="#404040"><set attributeName="fill" to="#808080" begin="zoomplus.mouseover" end="zoomplus.mouseout"/></use>
    <path d="M-4,0h8M0,-4v8" fill="none" stroke="white" stroke-width="1.5" pointer-events="none"/>
  </g>
  <g id="zoomMin">
    <use xlink:href="#rim" fill="#404040"><set attributeName="fill" to="#808080" begin="zoomminus.mouseover" end="zoomminus.mouseout"/></use>
    <path d="M-4,0h8" fill="none" stroke="white" stroke-width="1.5" pointer-events="none"/>
  </g>
  <g id="arrowUp" transform="translate(30 24)">
    <use xlink:href="#rim"/>
    <path pointer-events="none" fill="none" stroke="white" stroke-width="1.5" d="M0,-3.0v7 M-2.5,-0.5L0,-3.0L2.5,-0.5"/>
  </g>
  <g id="arrowRight" transform="rotate(90) translate(36 -43)">
    <use xlink:href="#rim"/>
    <path pointer-events="none" fill="none" stroke="white" stroke-width="1.5" d="M0,-3.0v7 M-2.5,-0.5L0,-3.0L2.5,-0.5"/>
  </g>
  <g id="arrowDown" transform="rotate(180) translate(-30 -48)">
    <use xlink:href="#rim"/>
    <path pointer-events="none" fill="none" stroke="white" stroke-width="1.5" d="M0,-3.0v7 M-2.5,-0.5L0,-3.0L2.5,-0.5"/>
  </g>
  <g id="arrowLeft" transform="rotate(270) translate(-36 17)">
    <use xlink:href="#rim"/>
    <path pointer-events="none" fill="none" stroke="white" stroke-width="1.5" d="M0,-3.0v7 M-2.5,-0.5L0,-3.0L2.5,-0.5"/>
  </g>
  <g id="resetDef">
    <use xlink:href="#rim2" fill="#404040"><set attributeName="fill" to="#808080" begin="reset.mouseover" end="reset.mouseout"/></use>
  </g>
</defs>
<script type="application/ecmascript">
var viewWidth = 553;
var viewHeight = 692;
var sectionId = 'dynsection-0';
</script>
<script type="application/ecmascript" xlink:href="../../svg.min.js"/>
<svg id="graph" class="graph">
<g id="viewport">
<title>BookshelfModel::GroupItem&lt; TYPE &gt;</title>
<!-- Node1 -->
<g id="Node000001" class="node">
<title>Node1</title>
<g id="a_Node000001"><a xlink:title=" ">
<polygon fill="#999999" stroke="transparent" points="333.5,-343 186.5,-343 186.5,-268 333.5,-268 333.5,-343"/>
<text text-anchor="start" x="192" y="-330.5" font-family="Helvetica,sans-Serif" font-size="10.00">BookshelfModel::GroupItem</text>
<text text-anchor="start" x="237" y="-319.5" font-family="Helvetica,sans-Serif" font-size="10.00">&lt; TYPE &gt;</text>
<text text-anchor="start" x="258.5" y="-304.5" font-family="Helvetica,sans-Serif" font-size="10.00"> </text>
<text text-anchor="start" x="202.5" y="-289.5" font-family="Helvetica,sans-Serif" font-size="10.00">+</text>
<text text-anchor="start" x="227" y="-289.5" font-family="Helvetica,sans-Serif" font-size="10.00">GroupItem()</text>
<text text-anchor="start" x="202.5" y="-274.5" font-family="Helvetica,sans-Serif" font-size="10.00">+</text>
<text text-anchor="start" x="227" y="-274.5" font-family="Helvetica,sans-Serif" font-size="10.00">staticItemType()</text>
<polygon fill="#666666" stroke="#666666" points="187,-314.5 187,-314.5 334,-314.5 334,-314.5 187,-314.5"/>
<polygon fill="#666666" stroke="#666666" points="187,-299.5 187,-299.5 334,-299.5 334,-299.5 187,-299.5"/>
<polygon fill="none" stroke="#666666" points="186.5,-268 186.5,-343 333.5,-343 333.5,-268 186.5,-268"/>
</a>
</g>
</g>
<!-- Node3 -->
<g id="Node000003" class="node">
<title>Node3</title>
<g id="a_Node000003"><a xlink:href="../../d1/dcc/classBookshelfModel_1_1GroupItem.html" target="_top" xlink:title=" ">
<polygon fill="white" stroke="transparent" points="161.5,-221 14.5,-221 14.5,-146 161.5,-146 161.5,-221"/>
<text text-anchor="start" x="20" y="-208.5" font-family="Helvetica,sans-Serif" font-size="10.00">BookshelfModel::GroupItem</text>
<text text-anchor="start" x="22" y="-197.5" font-family="Helvetica,sans-Serif" font-size="10.00">&lt; Item::ITEM_CATEGORY &gt;</text>
<text text-anchor="start" x="86.5" y="-182.5" font-family="Helvetica,sans-Serif" font-size="10.00"> </text>
<text text-anchor="start" x="30.5" y="-167.5" font-family="Helvetica,sans-Serif" font-size="10.00">+</text>
<text text-anchor="start" x="55" y="-167.5" font-family="Helvetica,sans-Serif" font-size="10.00">GroupItem()</text>
<text text-anchor="start" x="30.5" y="-152.5" font-family="Helvetica,sans-Serif" font-size="10.00">+</text>
<text text-anchor="start" x="55" y="-152.5" font-family="Helvetica,sans-Serif" font-size="10.00">staticItemType()</text>
<polygon fill="#666666" stroke="#666666" points="15,-192.5 15,-192.5 162,-192.5 162,-192.5 15,-192.5"/>
<polygon fill="#666666" stroke="#666666" points="15,-177.5 15,-177.5 162,-177.5 162,-177.5 15,-177.5"/>
<polygon fill="none" stroke="#666666" points="14.5,-146 14.5,-221 161.5,-221 161.5,-146 14.5,-146"/>
</a>
</g>
</g>
<!-- Node1&#45;&gt;Node3 -->
<g id="edge2_Node000001_Node000003" class="edge">
<title>Node1&#45;&gt;Node3</title>
<g id="a_edge2_Node000001_Node000003"><a xlink:title=" ">
<path fill="none" stroke="orange" d="M176.66,-283.64C156.4,-275.62 135.99,-264.71 120,-250 111.52,-242.2 105.03,-231.67 100.18,-221.34"/>
<polygon fill="orange" stroke="orange" points="175.66,-287.01 186.25,-287.24 178.12,-280.45 175.66,-287.01"/>
</a>
</g>
<text text-anchor="middle" x="188" y="-242" font-family="Helvetica,sans-Serif" font-size="10.00" fill="grey"> &lt; Item::ITEM_CATEGORY &gt;</text>
</g>
<!-- Node5 -->
<g id="Node000005" class="node">
<title>Node5</title>
<g id="a_Node000005"><a xlink:href="../../d1/dcc/classBookshelfModel_1_1GroupItem.html" target="_top" xlink:title=" ">
<polygon fill="white" stroke="transparent" points="333.5,-221 186.5,-221 186.5,-146 333.5,-146 333.5,-221"/>
<text text-anchor="start" x="192" y="-208.5" font-family="Helvetica,sans-Serif" font-size="10.00">BookshelfModel::GroupItem</text>
<text text-anchor="start" x="195.5" y="-197.5" font-family="Helvetica,sans-Serif" font-size="10.00">&lt; Item::ITEM_INDEXING &gt;</text>
<text text-anchor="start" x="258.5" y="-182.5" font-family="Helvetica,sans-Serif" font-size="10.00"> </text>
<text text-anchor="start" x="202.5" y="-167.5" font-family="Helvetica,sans-Serif" font-size="10.00">+</text>
<text text-anchor="start" x="227" y="-167.5" font-family="Helvetica,sans-Serif" font-size="10.00">GroupItem()</text>
<text text-anchor="start" x="202.5" y="-152.5" font-family="Helvetica,sans-Serif" font-size="10.00">+</text>
<text text-anchor="start" x="227" y="-152.5" font-family="Helvetica,sans-Serif" font-size="10.00">staticItemType()</text>
<polygon fill="#666666" stroke="#666666" points="187,-192.5 187,-192.5 334,-192.5 334,-192.5 187,-192.5"/>
<polygon fill="#666666" stroke="#666666" points="187,-177.5 187,-177.5 334,-177.5 334,-177.5 187,-177.5"/>
<polygon fill="none" stroke="#666666" points="186.5,-146 186.5,-221 333.5,-221 333.5,-146 186.5,-146"/>
</a>
</g>
</g>
<!-- Node1&#45;&gt;Node5 -->
<g id="edge4_Node000001_Node000005" class="edge">
<title>Node1&#45;&gt;Node5</title>
<g id="a_edge4_Node000001_Node000005"><a xlink:title=" ">
<path fill="none" stroke="orange" d="M260,-257.53C260,-245.51 260,-232.77 260,-221.35"/>
<polygon fill="orange" stroke="orange" points="256.5,-257.84 260,-267.84 263.5,-257.84 256.5,-257.84"/>
</a>
</g>
<text text-anchor="middle" x="326.5" y="-242" font-family="Helvetica,sans-Serif" font-size="10.00" fill="grey"> &lt; Item::ITEM_INDEXING &gt;</text>
</g>
<!-- Node7 -->
<g id="Node000007" class="node">
<title>Node7</title>
<g id="a_Node000007"><a xlink:href="../../d1/dcc/classBookshelfModel_1_1GroupItem.html" target="_top" xlink:title=" ">
<polygon fill="white" stroke="transparent" points="508.5,-221 361.5,-221 361.5,-146 508.5,-146 508.5,-221"/>
<text text-anchor="start" x="367" y="-208.5" font-family="Helvetica,sans-Serif" font-size="10.00">BookshelfModel::GroupItem</text>
<text text-anchor="start" x="367.5" y="-197.5" font-family="Helvetica,sans-Serif" font-size="10.00">&lt; Item::ITEM_LANGUAGE &gt;</text>
<text text-anchor="start" x="433.5" y="-182.5" font-family="Helvetica,sans-Serif" font-size="10.00"> </text>
<text text-anchor="start" x="377.5" y="-167.5" font-family="Helvetica,sans-Serif" font-size="10.00">+</text>
<text text-anchor="start" x="402" y="-167.5" font-family="Helvetica,sans-Serif" font-size="10.00">GroupItem()</text>
<text text-anchor="start" x="377.5" y="-152.5" font-family="Helvetica,sans-Serif" font-size="10.00">+</text>
<text text-anchor="start" x="402" y="-152.5" font-family="Helvetica,sans-Serif" font-size="10.00">staticItemType()</text>
<polygon fill="#666666" stroke="#666666" points="362,-192.5 362,-192.5 509,-192.5 509,-192.5 362,-192.5"/>
<polygon fill="#666666" stroke="#666666" points="362,-177.5 362,-177.5 509,-177.5 509,-177.5 362,-177.5"/>
<polygon fill="none" stroke="#666666" points="361.5,-146 361.5,-221 508.5,-221 508.5,-146 361.5,-146"/>
</a>
</g>
</g>
<!-- Node1&#45;&gt;Node7 -->
<g id="edge6_Node000001_Node000007" class="edge">
<title>Node1&#45;&gt;Node7</title>
<g id="a_edge6_Node000001_Node000007"><a xlink:title=" ">
<path fill="none" stroke="orange" d="M342.99,-281.71C362.13,-273.81 381.43,-263.44 397,-250 406.06,-242.18 413.48,-231.65 419.28,-221.32"/>
<polygon fill="orange" stroke="orange" points="341.64,-278.48 333.62,-285.4 344.21,-284.99 341.64,-278.48"/>
</a>
</g>
<text text-anchor="middle" x="475.5" y="-242" font-family="Helvetica,sans-Serif" font-size="10.00" fill="grey"> &lt; Item::ITEM_LANGUAGE &gt;</text>
</g>
<!-- Node2 -->
<g id="Node000002" class="node">
<title>Node2</title>
<g id="a_Node000002"><a xlink:href="../../d5/d1c/classBookshelfModel_1_1Item.html" target="_top" xlink:title=" ">
<polygon fill="white" stroke="transparent" points="319,-684 201,-684 201,-380 319,-380 319,-684"/>
<text text-anchor="start" x="206" y="-672" font-family="Helvetica,sans-Serif" font-size="10.00">BookshelfModel::Item</text>
<text text-anchor="start" x="212" y="-657" font-family="Helvetica,sans-Serif" font-size="10.00">&#45;</text>
<text text-anchor="start" x="227" y="-657" font-family="Helvetica,sans-Serif" font-size="10.00">m_checkState</text>
<text text-anchor="start" x="212" y="-642" font-family="Helvetica,sans-Serif" font-size="10.00">&#45;</text>
<text text-anchor="start" x="227" y="-642" font-family="Helvetica,sans-Serif" font-size="10.00">m_children</text>
<text text-anchor="start" x="212" y="-627" font-family="Helvetica,sans-Serif" font-size="10.00">&#45;</text>
<text text-anchor="start" x="227" y="-627" font-family="Helvetica,sans-Serif" font-size="10.00">m_parent</text>
<text text-anchor="start" x="212" y="-612" font-family="Helvetica,sans-Serif" font-size="10.00">&#45;</text>
<text text-anchor="start" x="227" y="-612" font-family="Helvetica,sans-Serif" font-size="10.00">m_type</text>
<text text-anchor="start" x="209.5" y="-597" font-family="Helvetica,sans-Serif" font-size="10.00">+</text>
<text text-anchor="start" x="227" y="-597" font-family="Helvetica,sans-Serif" font-size="10.00">checkState()</text>
<text text-anchor="start" x="209.5" y="-582" font-family="Helvetica,sans-Serif" font-size="10.00">+</text>
<text text-anchor="start" x="227" y="-582" font-family="Helvetica,sans-Serif" font-size="10.00">childIndex()</text>
<text text-anchor="start" x="209.5" y="-567" font-family="Helvetica,sans-Serif" font-size="10.00">+</text>
<text text-anchor="start" x="227" y="-567" font-family="Helvetica,sans-Serif" font-size="10.00">children()</text>
<text text-anchor="start" x="209.5" y="-552" font-family="Helvetica,sans-Serif" font-size="10.00">+</text>
<text text-anchor="start" x="227" y="-552" font-family="Helvetica,sans-Serif" font-size="10.00">data()</text>
<text text-anchor="start" x="209.5" y="-537" font-family="Helvetica,sans-Serif" font-size="10.00">+</text>
<text text-anchor="start" x="227" y="-537" font-family="Helvetica,sans-Serif" font-size="10.00">fitFor()</text>
<text text-anchor="start" x="209.5" y="-522" font-family="Helvetica,sans-Serif" font-size="10.00">+</text>
<text text-anchor="start" x="227" y="-522" font-family="Helvetica,sans-Serif" font-size="10.00">getGroupItem()</text>
<text text-anchor="start" x="209.5" y="-507" font-family="Helvetica,sans-Serif" font-size="10.00">+</text>
<text text-anchor="start" x="227" y="-507" font-family="Helvetica,sans-Serif" font-size="10.00">indexFor()</text>
<text text-anchor="start" x="209.5" y="-492" font-family="Helvetica,sans-Serif" font-size="10.00">+</text>
<text text-anchor="start" x="227" y="-492" font-family="Helvetica,sans-Serif" font-size="10.00">insertChild()</text>
<text text-anchor="start" x="209.5" y="-477" font-family="Helvetica,sans-Serif" font-size="10.00">+</text>
<text text-anchor="start" x="227" y="-477" font-family="Helvetica,sans-Serif" font-size="10.00">Item()</text>
<text text-anchor="start" x="209.5" y="-462" font-family="Helvetica,sans-Serif" font-size="10.00">+</text>
<text text-anchor="start" x="227" y="-462" font-family="Helvetica,sans-Serif" font-size="10.00">operator&lt;()</text>
<text text-anchor="start" x="209.5" y="-447" font-family="Helvetica,sans-Serif" font-size="10.00">+</text>
<text text-anchor="start" x="227" y="-447" font-family="Helvetica,sans-Serif" font-size="10.00">parent()</text>
<text text-anchor="start" x="209.5" y="-432" font-family="Helvetica,sans-Serif" font-size="10.00">+</text>
<text text-anchor="start" x="227" y="-432" font-family="Helvetica,sans-Serif" font-size="10.00">setCheckState()</text>
<text text-anchor="start" x="209.5" y="-417" font-family="Helvetica,sans-Serif" font-size="10.00">+</text>
<text text-anchor="start" x="227" y="-417" font-family="Helvetica,sans-Serif" font-size="10.00">type()</text>
<text text-anchor="start" x="209.5" y="-402" font-family="Helvetica,sans-Serif" font-size="10.00">+</text>
<text text-anchor="start" x="227" y="-402" font-family="Helvetica,sans-Serif" font-size="10.00">~Item()</text>
<text text-anchor="start" x="212" y="-387" font-family="Helvetica,sans-Serif" font-size="10.00">&#45;</text>
<text text-anchor="start" x="227" y="-387" font-family="Helvetica,sans-Serif" font-size="10.00">setParent()</text>
<polygon fill="#666666" stroke="#666666" points="201,-667 201,-667 319,-667 319,-667 201,-667"/>
<polygon fill="#666666" stroke="#666666" points="201,-607 201,-607 225,-607 225,-607 201,-607"/>
<polygon fill="#666666" stroke="#666666" points="225,-607 225,-607 319,-607 319,-607 225,-607"/>
<polygon fill="none" stroke="#666666" points="201,-380 201,-684 319,-684 319,-380 201,-380"/>
</a>
</g>
</g>
<!-- Node2&#45;&gt;Node1 -->
<g id="edge1_Node000001_Node000002" class="edge">
<title>Node2&#45;&gt;Node1</title>
<g id="a_edge1_Node000001_Node000002"><a xlink:title=" ">
<path fill="none" stroke="#63b8ff" d="M260,-369.61C260,-360.12 260,-351.21 260,-343.25"/>
<polygon fill="none" stroke="#63b8ff" points="256.5,-369.7 260,-379.7 263.5,-369.7 256.5,-369.7"/>
</a>
</g>
</g>
<!-- Node4 -->
<g id="Node000004" class="node">
<title>Node4</title>
<g id="a_Node000004"><a xlink:href="../../d8/d6d/classBookshelfModel_1_1CategoryItem.html" target="_top" xlink:title=" ">
<polygon fill="white" stroke="transparent" points="162,-109 0,-109 0,0 162,0 162,-109"/>
<text text-anchor="start" x="5" y="-96.5" font-family="Helvetica,sans-Serif" font-size="10.00">BookshelfModel::CategoryItem</text>
<text text-anchor="start" x="23" y="-81.5" font-family="Helvetica,sans-Serif" font-size="10.00">&#45;</text>
<text text-anchor="start" x="50" y="-81.5" font-family="Helvetica,sans-Serif" font-size="10.00">m_category</text>
<text text-anchor="start" x="20.5" y="-66.5" font-family="Helvetica,sans-Serif" font-size="10.00">+</text>
<text text-anchor="start" x="50" y="-66.5" font-family="Helvetica,sans-Serif" font-size="10.00">category()</text>
<text text-anchor="start" x="20.5" y="-51.5" font-family="Helvetica,sans-Serif" font-size="10.00">+</text>
<text text-anchor="start" x="50" y="-51.5" font-family="Helvetica,sans-Serif" font-size="10.00">CategoryItem()</text>
<text text-anchor="start" x="20.5" y="-36.5" font-family="Helvetica,sans-Serif" font-size="10.00">+</text>
<text text-anchor="start" x="50" y="-36.5" font-family="Helvetica,sans-Serif" font-size="10.00">data()</text>
<text text-anchor="start" x="20.5" y="-21.5" font-family="Helvetica,sans-Serif" font-size="10.00">+</text>
<text text-anchor="start" x="50" y="-21.5" font-family="Helvetica,sans-Serif" font-size="10.00">fitFor()</text>
<text text-anchor="start" x="20.5" y="-6.5" font-family="Helvetica,sans-Serif" font-size="10.00">+</text>
<text text-anchor="start" x="50" y="-6.5" font-family="Helvetica,sans-Serif" font-size="10.00">operator&lt;()</text>
<polygon fill="#666666" stroke="#666666" points="0,-91.5 0,-91.5 162,-91.5 162,-91.5 0,-91.5"/>
<polygon fill="#666666" stroke="#666666" points="0,-76.5 0,-76.5 48,-76.5 48,-76.5 0,-76.5"/>
<polygon fill="#666666" stroke="#666666" points="48,-76.5 48,-76.5 162,-76.5 162,-76.5 48,-76.5"/>
<polygon fill="none" stroke="#666666" points="0,0 0,-109 162,-109 162,0 0,0"/>
</a>
</g>
</g>
<!-- Node3&#45;&gt;Node4 -->
<g id="edge3_Node000003_Node000004" class="edge">
<title>Node3&#45;&gt;Node4</title>
<g id="a_edge3_Node000003_Node000004"><a xlink:title=" ">
<path fill="none" stroke="#63b8ff" d="M85.41,-135.55C84.94,-126.96 84.44,-117.93 83.96,-109.16"/>
<polygon fill="none" stroke="#63b8ff" points="81.93,-135.97 85.98,-145.77 88.92,-135.59 81.93,-135.97"/>
</a>
</g>
</g>
<!-- Node6 -->
<g id="Node000006" class="node">
<title>Node6</title>
<g id="a_Node000006"><a xlink:href="../../d9/dea/classBookshelfModel_1_1IndexingItem.html" target="_top" xlink:title=" ">
<polygon fill="white" stroke="transparent" points="340,-94 180,-94 180,-15 340,-15 340,-94"/>
<text text-anchor="start" x="185" y="-81.5" font-family="Helvetica,sans-Serif" font-size="10.00">BookshelfModel::IndexingItem</text>
<text text-anchor="start" x="203" y="-66.5" font-family="Helvetica,sans-Serif" font-size="10.00">&#45;</text>
<text text-anchor="start" x="230" y="-66.5" font-family="Helvetica,sans-Serif" font-size="10.00">m_indexed</text>
<text text-anchor="start" x="200.5" y="-51.5" font-family="Helvetica,sans-Serif" font-size="10.00">+</text>
<text text-anchor="start" x="230" y="-51.5" font-family="Helvetica,sans-Serif" font-size="10.00">data()</text>
<text text-anchor="start" x="200.5" y="-36.5" font-family="Helvetica,sans-Serif" font-size="10.00">+</text>
<text text-anchor="start" x="230" y="-36.5" font-family="Helvetica,sans-Serif" font-size="10.00">fitFor()</text>
<text text-anchor="start" x="200.5" y="-21.5" font-family="Helvetica,sans-Serif" font-size="10.00">+</text>
<text text-anchor="start" x="230" y="-21.5" font-family="Helvetica,sans-Serif" font-size="10.00">IndexingItem()</text>
<polygon fill="#666666" stroke="#666666" points="180,-76.5 180,-76.5 340,-76.5 340,-76.5 180,-76.5"/>
<polygon fill="#666666" stroke="#666666" points="180,-61.5 180,-61.5 228,-61.5 228,-61.5 180,-61.5"/>
<polygon fill="#666666" stroke="#666666" points="228,-61.5 228,-61.5 340,-61.5 340,-61.5 228,-61.5"/>
<polygon fill="none" stroke="#666666" points="180,-15 180,-94 340,-94 340,-15 180,-15"/>
</a>
</g>
</g>
<!-- Node5&#45;&gt;Node6 -->
<g id="edge5_Node000005_Node000006" class="edge">
<title>Node5&#45;&gt;Node6</title>
<g id="a_edge5_Node000005_Node000006"><a xlink:title=" ">
<path fill="none" stroke="#63b8ff" d="M260,-135.64C260,-122.06 260,-107.4 260,-94.36"/>
<polygon fill="none" stroke="#63b8ff" points="256.5,-135.77 260,-145.77 263.5,-135.77 256.5,-135.77"/>
</a>
</g>
</g>
<!-- Node8 -->
<g id="Node000008" class="node">
<title>Node8</title>
<g id="a_Node000008"><a xlink:href="../../db/da1/classBookshelfModel_1_1LanguageItem.html" target="_top" xlink:title=" ">
<polygon fill="white" stroke="transparent" points="523.5,-94 358.5,-94 358.5,-15 523.5,-15 523.5,-94"/>
<text text-anchor="start" x="364" y="-81.5" font-family="Helvetica,sans-Serif" font-size="10.00">BookshelfModel::LanguageItem</text>
<text text-anchor="start" x="382" y="-66.5" font-family="Helvetica,sans-Serif" font-size="10.00">&#45;</text>
<text text-anchor="start" x="409" y="-66.5" font-family="Helvetica,sans-Serif" font-size="10.00">m_language</text>
<text text-anchor="start" x="379.5" y="-51.5" font-family="Helvetica,sans-Serif" font-size="10.00">+</text>
<text text-anchor="start" x="409" y="-51.5" font-family="Helvetica,sans-Serif" font-size="10.00">data()</text>
<text text-anchor="start" x="379.5" y="-36.5" font-family="Helvetica,sans-Serif" font-size="10.00">+</text>
<text text-anchor="start" x="409" y="-36.5" font-family="Helvetica,sans-Serif" font-size="10.00">fitFor()</text>
<text text-anchor="start" x="379.5" y="-21.5" font-family="Helvetica,sans-Serif" font-size="10.00">+</text>
<text text-anchor="start" x="409" y="-21.5" font-family="Helvetica,sans-Serif" font-size="10.00">LanguageItem()</text>
<polygon fill="#666666" stroke="#666666" points="359,-76.5 359,-76.5 524,-76.5 524,-76.5 359,-76.5"/>
<polygon fill="#666666" stroke="#666666" points="359,-61.5 359,-61.5 407,-61.5 407,-61.5 359,-61.5"/>
<polygon fill="#666666" stroke="#666666" points="407,-61.5 407,-61.5 524,-61.5 524,-61.5 407,-61.5"/>
<polygon fill="none" stroke="#666666" points="358.5,-15 358.5,-94 523.5,-94 523.5,-15 358.5,-15"/>
</a>
</g>
</g>
<!-- Node7&#45;&gt;Node8 -->
<g id="edge7_Node000007_Node000008" class="edge">
<title>Node7&#45;&gt;Node8</title>
<g id="a_edge7_Node000007_Node000008"><a xlink:title=" ">
<path fill="none" stroke="#63b8ff" d="M437.21,-135.64C437.86,-122.06 438.55,-107.4 439.16,-94.36"/>
<polygon fill="none" stroke="#63b8ff" points="433.71,-135.61 436.74,-145.77 440.7,-135.94 433.71,-135.61"/>
</a>
</g>
</g>
</g>
</svg>

<g id="navigator" transform="translate(0 0)" fill="#404254">
  <rect fill="#f2f5e9" fill-opacity="0.5" stroke="#606060" stroke-width=".5" x="0" y="0" width="60" height="60"/>
  <use id="zoomplus" xlink:href="#zoomPlus" x="17" y="9" onmousedown="handleZoom(evt,'in')"/>
  <use id="zoomminus" xlink:href="#zoomMin" x="42" y="9" onmousedown="handleZoom(evt,'out')"/>
  <use id="reset" xlink:href="#resetDef" x="30" y="36" onmousedown="handleReset()"/>
   <use id="arrowup" xlink:href="#arrowUp" x="0" y="0" onmousedown="handlePan(0,-1)"/>
  <use id="arrowright" xlink:href="#arrowRight" x="0" y="0" onmousedown="handlePan(1,0)"/>
  <use id="arrowdown" xlink:href="#arrowDown" x="0" y="0" onmousedown="handlePan(0,1)"/>
  <use id="arrowleft" xlink:href="#arrowLeft" x="0" y="0" onmousedown="handlePan(-1,0)"/>
</g>
<svg viewBox="0 0 15 15" width="100%" height="30px" preserveAspectRatio="xMaxYMin meet">
 <g id="arrow_out" transform="scale(0.3 0.3)">
  <a xlink:href="classBookshelfModel_1_1GroupItem__inherit__graph_org.svg" target="_base">
   <rect id="button" ry="5" rx="5" y="6" x="6" height="38" width="38"
        fill="#f2f5e9" fill-opacity="0.5" stroke="#606060" stroke-width="1.0"/>
   <path id="arrow"
     d="M 11.500037,31.436501 C 11.940474,20.09759 22.043105,11.32322 32.158766,21.979434 L 37.068811,17.246167 C 37.068811,17.246167 37.088388,32 37.088388,32 L 22.160133,31.978069 C 22.160133,31.978069 26.997745,27.140456 26.997745,27.140456 C 18.528582,18.264221 13.291696,25.230495 11.500037,31.436501 z"
     style="fill:#404040;"/>
  </a>
 </g>
</svg>

<style type='text/css'>
<![CDATA[
[data-mouse-over-selected='false'] { opacity: 0.7; }
[data-mouse-over-selected='true']  { opacity: 1.0; }
]]>
</style>
<script type="application/ecmascript"><![CDATA[
document.addEventListener('DOMContentLoaded', (event) => {
  highlightEdges();
  highlightAdjacentNodes();
});
]]></script>
</svg>
