<?xml version="1.0" encoding="UTF-8" standalone="no"?>
<!DOCTYPE svg PUBLIC "-//W3C//DTD SVG 1.1//EN"
 "http://www.w3.org/Graphics/SVG/1.1/DTD/svg11.dtd">
<!-- Generated by graphviz version 2.43.0 (0)
 -->
<!-- Title: colormanager.h Pages: 1 -->
<svg width="786pt" height="82pt"
 viewBox="0.00 0.00 786.00 82.00" xmlns="http://www.w3.org/2000/svg" xmlns:xlink="http://www.w3.org/1999/xlink">
<g id="graph0" class="graph" transform="scale(1 1) rotate(0) translate(4 78)">
<title>colormanager.h</title>
<!-- Node1 -->
<g id="Node000001" class="node">
<title>Node1</title>
<g id="a_Node000001"><a xlink:title=" ">
<polygon fill="#999999" stroke="#666666" points="460,-74 368,-74 368,-55 460,-55 460,-74"/>
<text text-anchor="middle" x="414" y="-62" font-family="Helvetica,sans-Serif" font-size="10.00">colormanager.h</text>
</a>
</g>
</g>
<!-- Node2 -->
<g id="Node000002" class="node">
<title>Node2</title>
<g id="a_Node000002"><a xlink:href="../../de/d93/btmoduletextmodel_8cpp.html" target="_top" xlink:title=" ">
<polygon fill="white" stroke="#666666" points="134,-19 0,-19 0,0 134,0 134,-19"/>
<text text-anchor="middle" x="67" y="-7" font-family="Helvetica,sans-Serif" font-size="10.00">btmoduletextmodel.cpp</text>
</a>
</g>
</g>
<!-- Node1&#45;&gt;Node2 -->
<g id="edge1_Node000001_Node000002" class="edge">
<title>Node1&#45;&gt;Node2</title>
<g id="a_edge1_Node000001_Node000002"><a xlink:title=" ">
<path fill="none" stroke="#63b8ff" d="M357.9,-54.93C293.15,-45.04 187.34,-28.88 122.75,-19.01"/>
<polygon fill="#63b8ff" stroke="#63b8ff" points="357.51,-58.41 367.92,-56.46 358.56,-51.49 357.51,-58.41"/>
</a>
</g>
</g>
<!-- Node3 -->
<g id="Node000003" class="node">
<title>Node3</title>
<g id="a_Node000003"><a xlink:href="../../de/d6e/btqmlinterface_8cpp.html" target="_top" xlink:title=" ">
<polygon fill="white" stroke="#666666" points="261.5,-19 152.5,-19 152.5,0 261.5,0 261.5,-19"/>
<text text-anchor="middle" x="207" y="-7" font-family="Helvetica,sans-Serif" font-size="10.00">btqmlinterface.cpp</text>
</a>
</g>
</g>
<!-- Node1&#45;&gt;Node3 -->
<g id="edge2_Node000001_Node000003" class="edge">
<title>Node1&#45;&gt;Node3</title>
<g id="a_edge2_Node000001_Node000003"><a xlink:title=" ">
<path fill="none" stroke="#63b8ff" d="M370.79,-52.44C332.04,-42.52 275.97,-28.16 240.52,-19.08"/>
<polygon fill="#63b8ff" stroke="#63b8ff" points="370.19,-55.89 380.74,-54.98 371.92,-49.11 370.19,-55.89"/>
</a>
</g>
</g>
<!-- Node4 -->
<g id="Node000004" class="node">
<title>Node4</title>
<g id="a_Node000004"><a xlink:href="../../dd/dde/btsearchresultarea_8cpp.html" target="_top" xlink:title=" ">
<polygon fill="white" stroke="#666666" points="408,-19 280,-19 280,0 408,0 408,-19"/>
<text text-anchor="middle" x="344" y="-7" font-family="Helvetica,sans-Serif" font-size="10.00">btsearchresultarea.cpp</text>
</a>
</g>
</g>
<!-- Node1&#45;&gt;Node4 -->
<g id="edge3_Node000001_Node000004" class="edge">
<title>Node1&#45;&gt;Node4</title>
<g id="a_edge3_Node000001_Node000004"><a xlink:title=" ">
<path fill="none" stroke="#63b8ff" d="M394.69,-48.88C382.09,-39.34 366.07,-27.21 355.45,-19.17"/>
<polygon fill="#63b8ff" stroke="#63b8ff" points="392.67,-51.74 402.75,-54.98 396.89,-46.16 392.67,-51.74"/>
</a>
</g>
</g>
<!-- Node5 -->
<g id="Node000005" class="node">
<title>Node5</title>
<g id="a_Node000005"><a xlink:href="../../d4/dca/cdisplaysettings_8cpp.html" target="_top" xlink:title=" ">
<polygon fill="white" stroke="#666666" points="542,-19 426,-19 426,0 542,0 542,-19"/>
<text text-anchor="middle" x="484" y="-7" font-family="Helvetica,sans-Serif" font-size="10.00">cdisplaysettings.cpp</text>
</a>
</g>
</g>
<!-- Node1&#45;&gt;Node5 -->
<g id="edge4_Node000001_Node000005" class="edge">
<title>Node1&#45;&gt;Node5</title>
<g id="a_edge4_Node000001_Node000005"><a xlink:title=" ">
<path fill="none" stroke="#63b8ff" d="M433.31,-48.88C445.91,-39.34 461.93,-27.21 472.55,-19.17"/>
<polygon fill="#63b8ff" stroke="#63b8ff" points="431.11,-46.16 425.25,-54.98 435.33,-51.74 431.11,-46.16"/>
</a>
</g>
</g>
<!-- Node6 -->
<g id="Node000006" class="node">
<title>Node6</title>
<g id="a_Node000006"><a xlink:href="../../d5/d80/cinfodisplay_8cpp.html" target="_top" xlink:title=" ">
<polygon fill="white" stroke="#666666" points="655.5,-19 560.5,-19 560.5,0 655.5,0 655.5,-19"/>
<text text-anchor="middle" x="608" y="-7" font-family="Helvetica,sans-Serif" font-size="10.00">cinfodisplay.cpp</text>
</a>
</g>
</g>
<!-- Node1&#45;&gt;Node6 -->
<g id="edge5_Node000001_Node000006" class="edge">
<title>Node1&#45;&gt;Node6</title>
<g id="a_edge5_Node000001_Node000006"><a xlink:title=" ">
<path fill="none" stroke="#63b8ff" d="M454.96,-52.31C491.26,-42.39 543.5,-28.12 576.59,-19.08"/>
<polygon fill="#63b8ff" stroke="#63b8ff" points="453.89,-48.97 445.17,-54.98 455.74,-55.73 453.89,-48.97"/>
</a>
</g>
</g>
<!-- Node7 -->
<g id="Node000007" class="node">
<title>Node7</title>
<g id="a_Node000007"><a xlink:href="../../de/d8f/colormanager_8cpp.html" target="_top" xlink:title=" ">
<polygon fill="white" stroke="#666666" points="778,-19 674,-19 674,0 778,0 778,-19"/>
<text text-anchor="middle" x="726" y="-7" font-family="Helvetica,sans-Serif" font-size="10.00">colormanager.cpp</text>
</a>
</g>
</g>
<!-- Node1&#45;&gt;Node7 -->
<g id="edge6_Node000001_Node000007" class="edge">
<title>Node1&#45;&gt;Node7</title>
<g id="a_edge6_Node000001_Node000007"><a xlink:title=" ">
<path fill="none" stroke="#63b8ff" d="M470.22,-53.95C528.8,-44 619.71,-28.56 675.9,-19.01"/>
<polygon fill="#63b8ff" stroke="#63b8ff" points="469.31,-50.55 460.04,-55.68 470.48,-57.46 469.31,-50.55"/>
</a>
</g>
</g>
</g>
</svg>
