<?xml version="1.0" encoding="UTF-8" standalone="no"?>
<!DOCTYPE svg PUBLIC "-//W3C//DTD SVG 1.1//EN"
 "http://www.w3.org/Graphics/SVG/1.1/DTD/svg11.dtd">
<!-- Generated by graphviz version 2.43.0 (0)
 -->
<!-- Title: cswordlexiconmoduleinfo.h Pages: 1 -->
<svg width="1374pt" height="84pt"
 viewBox="0.00 0.00 1374.00 84.00" xmlns="http://www.w3.org/2000/svg" xmlns:xlink="http://www.w3.org/1999/xlink">
<g id="graph0" class="graph" transform="scale(1 1) rotate(0) translate(4 80)">
<title>cswordlexiconmoduleinfo.h</title>
<polygon fill="white" stroke="transparent" points="-4,4 -4,-80 1370,-80 1370,4 -4,4"/>
<!-- Node1 -->
<g id="node1" class="node">
<title>Node1</title>
<g id="a_node1"><a xlink:title=" ">
<polygon fill="#bfbfbf" stroke="black" points="646.5,-56.5 646.5,-75.5 797.5,-75.5 797.5,-56.5 646.5,-56.5"/>
<text text-anchor="middle" x="722" y="-63.5" font-family="Helvetica,sans-Serif" font-size="10.00">cswordlexiconmoduleinfo.h</text>
</a>
</g>
</g>
<!-- Node2 -->
<g id="node2" class="node">
<title>Node2</title>
<g id="a_node2"><a xlink:href="../../d7/d25/cswordlexiconmoduleinfo_8cpp.html" target="_top" xlink:title=" ">
<polygon fill="white" stroke="black" points="0,-0.5 0,-19.5 162,-19.5 162,-0.5 0,-0.5"/>
<text text-anchor="middle" x="81" y="-7.5" font-family="Helvetica,sans-Serif" font-size="10.00">cswordlexiconmoduleinfo.cpp</text>
</a>
</g>
</g>
<!-- Node1&#45;&gt;Node2 -->
<g id="edge1" class="edge">
<title>Node1&#45;&gt;Node2</title>
<path fill="none" stroke="midnightblue" d="M635.97,-58.46C527.52,-50.1 335.36,-34.93 171,-20 168.19,-19.74 165.32,-19.48 162.43,-19.21"/>
<polygon fill="midnightblue" stroke="midnightblue" points="635.97,-61.97 646.2,-59.25 636.5,-54.99 635.97,-61.97"/>
</g>
<!-- Node3 -->
<g id="node3" class="node">
<title>Node3</title>
<g id="a_node3"><a xlink:href="../../d3/db9/cswordmoduleinfo_8cpp.html" target="_top" xlink:title=" ">
<polygon fill="white" stroke="black" points="180.5,-0.5 180.5,-19.5 307.5,-19.5 307.5,-0.5 180.5,-0.5"/>
<text text-anchor="middle" x="244" y="-7.5" font-family="Helvetica,sans-Serif" font-size="10.00">cswordmoduleinfo.cpp</text>
</a>
</g>
</g>
<!-- Node1&#45;&gt;Node3 -->
<g id="edge2" class="edge">
<title>Node1&#45;&gt;Node3</title>
<path fill="none" stroke="midnightblue" d="M636.19,-55.77C554.18,-46.87 427.11,-32.9 317,-20 313.96,-19.64 310.84,-19.27 307.7,-18.9"/>
<polygon fill="midnightblue" stroke="midnightblue" points="635.89,-59.26 646.21,-56.85 636.64,-52.3 635.89,-59.26"/>
</g>
<!-- Node4 -->
<g id="node4" class="node">
<title>Node4</title>
<g id="a_node4"><a xlink:href="../../d9/d7b/cswordbackend_8cpp.html" target="_top" xlink:title=" ">
<polygon fill="white" stroke="black" points="326,-0.5 326,-19.5 438,-19.5 438,-0.5 326,-0.5"/>
<text text-anchor="middle" x="382" y="-7.5" font-family="Helvetica,sans-Serif" font-size="10.00">cswordbackend.cpp</text>
</a>
</g>
</g>
<!-- Node1&#45;&gt;Node4 -->
<g id="edge3" class="edge">
<title>Node1&#45;&gt;Node4</title>
<path fill="none" stroke="midnightblue" d="M658.12,-54.85C593.88,-44.65 495.95,-29.1 435.62,-19.52"/>
<polygon fill="midnightblue" stroke="midnightblue" points="657.7,-58.33 668.13,-56.44 658.8,-51.42 657.7,-58.33"/>
</g>
<!-- Node5 -->
<g id="node5" class="node">
<title>Node5</title>
<g id="a_node5"><a xlink:href="../../de/d93/btmoduletextmodel_8cpp.html" target="_top" xlink:title=" ">
<polygon fill="white" stroke="black" points="456,-0.5 456,-19.5 590,-19.5 590,-0.5 456,-0.5"/>
<text text-anchor="middle" x="523" y="-7.5" font-family="Helvetica,sans-Serif" font-size="10.00">btmoduletextmodel.cpp</text>
</a>
</g>
</g>
<!-- Node1&#45;&gt;Node5 -->
<g id="edge4" class="edge">
<title>Node1&#45;&gt;Node5</title>
<path fill="none" stroke="midnightblue" d="M680.35,-53.7C642.79,-43.51 588.39,-28.74 554.38,-19.52"/>
<polygon fill="midnightblue" stroke="midnightblue" points="679.9,-57.2 690.47,-56.44 681.73,-50.45 679.9,-57.2"/>
</g>
<!-- Node6 -->
<g id="node6" class="node">
<title>Node6</title>
<g id="a_node6"><a xlink:href="../../da/d1a/btinforendering_8cpp.html" target="_top" xlink:title=" ">
<polygon fill="white" stroke="black" points="608,-0.5 608,-19.5 720,-19.5 720,-0.5 608,-0.5"/>
<text text-anchor="middle" x="664" y="-7.5" font-family="Helvetica,sans-Serif" font-size="10.00">btinforendering.cpp</text>
</a>
</g>
</g>
<!-- Node1&#45;&gt;Node6 -->
<g id="edge5" class="edge">
<title>Node1&#45;&gt;Node6</title>
<path fill="none" stroke="midnightblue" d="M705.09,-49.25C694.8,-39.67 682.03,-27.79 673.49,-19.83"/>
<polygon fill="midnightblue" stroke="midnightblue" points="702.98,-52.07 712.68,-56.32 707.75,-46.95 702.98,-52.07"/>
</g>
<!-- Node7 -->
<g id="node7" class="node">
<title>Node7</title>
<g id="a_node7"><a xlink:href="../../d1/df6/bibletime_8cpp.html" target="_top" xlink:title=" ">
<polygon fill="white" stroke="black" points="738.5,-0.5 738.5,-19.5 821.5,-19.5 821.5,-0.5 738.5,-0.5"/>
<text text-anchor="middle" x="780" y="-7.5" font-family="Helvetica,sans-Serif" font-size="10.00">bibletime.cpp</text>
</a>
</g>
</g>
<!-- Node1&#45;&gt;Node7 -->
<g id="edge6" class="edge">
<title>Node1&#45;&gt;Node7</title>
<path fill="none" stroke="midnightblue" d="M738.91,-49.25C749.2,-39.67 761.97,-27.79 770.51,-19.83"/>
<polygon fill="midnightblue" stroke="midnightblue" points="736.25,-46.95 731.32,-56.32 741.02,-52.07 736.25,-46.95"/>
</g>
<!-- Node8 -->
<g id="node8" class="node">
<title>Node8</title>
<g id="a_node8"><a xlink:href="../../de/d6e/btqmlinterface_8cpp.html" target="_top" xlink:title=" ">
<polygon fill="white" stroke="black" points="839.5,-0.5 839.5,-19.5 948.5,-19.5 948.5,-0.5 839.5,-0.5"/>
<text text-anchor="middle" x="894" y="-7.5" font-family="Helvetica,sans-Serif" font-size="10.00">btqmlinterface.cpp</text>
</a>
</g>
</g>
<!-- Node1&#45;&gt;Node8 -->
<g id="edge7" class="edge">
<title>Node1&#45;&gt;Node8</title>
<path fill="none" stroke="midnightblue" d="M758.83,-53.44C791.26,-43.26 837.74,-28.66 866.87,-19.52"/>
<polygon fill="midnightblue" stroke="midnightblue" points="757.75,-50.11 749.25,-56.44 759.84,-56.79 757.75,-50.11"/>
</g>
<!-- Node9 -->
<g id="node9" class="node">
<title>Node9</title>
<g id="a_node9"><a xlink:href="../../d4/d0c/ckeychooser_8cpp.html" target="_top" xlink:title=" ">
<polygon fill="white" stroke="black" points="966.5,-0.5 966.5,-19.5 1063.5,-19.5 1063.5,-0.5 966.5,-0.5"/>
<text text-anchor="middle" x="1015" y="-7.5" font-family="Helvetica,sans-Serif" font-size="10.00">ckeychooser.cpp</text>
</a>
</g>
</g>
<!-- Node1&#45;&gt;Node9 -->
<g id="edge8" class="edge">
<title>Node1&#45;&gt;Node9</title>
<path fill="none" stroke="midnightblue" d="M778.43,-54.6C833.8,-44.4 917.23,-29.02 968.79,-19.52"/>
<polygon fill="midnightblue" stroke="midnightblue" points="777.63,-51.19 768.43,-56.44 778.9,-58.07 777.63,-51.19"/>
</g>
<!-- Node10 -->
<g id="node10" class="node">
<title>Node10</title>
<g id="a_node10"><a xlink:href="../../d8/d14/clexiconkeychooser_8cpp.html" target="_top" xlink:title=" ">
<polygon fill="white" stroke="black" points="1082,-0.5 1082,-19.5 1214,-19.5 1214,-0.5 1082,-0.5"/>
<text text-anchor="middle" x="1148" y="-7.5" font-family="Helvetica,sans-Serif" font-size="10.00">clexiconkeychooser.cpp</text>
</a>
</g>
</g>
<!-- Node1&#45;&gt;Node10 -->
<g id="edge9" class="edge">
<title>Node1&#45;&gt;Node10</title>
<path fill="none" stroke="midnightblue" d="M799.62,-55.16C880.42,-44.92 1005.61,-29.05 1081.87,-19.38"/>
<polygon fill="midnightblue" stroke="midnightblue" points="798.98,-51.71 789.5,-56.44 799.86,-58.66 798.98,-51.71"/>
</g>
<!-- Node11 -->
<g id="node11" class="node">
<title>Node11</title>
<g id="a_node11"><a xlink:href="../../d6/dfe/btstandardworkstab_8cpp.html" target="_top" xlink:title=" ">
<polygon fill="white" stroke="black" points="1232,-0.5 1232,-19.5 1366,-19.5 1366,-0.5 1232,-0.5"/>
<text text-anchor="middle" x="1299" y="-7.5" font-family="Helvetica,sans-Serif" font-size="10.00">btstandardworkstab.cpp</text>
</a>
</g>
</g>
<!-- Node1&#45;&gt;Node11 -->
<g id="edge10" class="edge">
<title>Node1&#45;&gt;Node11</title>
<path fill="none" stroke="midnightblue" d="M807.64,-58.05C907.44,-49.78 1077.3,-35.17 1223,-20 1225.91,-19.7 1228.88,-19.38 1231.87,-19.05"/>
<polygon fill="midnightblue" stroke="midnightblue" points="807.28,-54.57 797.6,-58.88 807.86,-61.54 807.28,-54.57"/>
</g>
</g>
</svg>
