<?xml version="1.0" encoding="UTF-8" standalone="no"?>
<!DOCTYPE svg PUBLIC "-//W3C//DTD SVG 1.1//EN"
 "http://www.w3.org/Graphics/SVG/1.1/DTD/svg11.dtd">
<!-- Generated by graphviz version 2.43.0 (0)
 -->
<!-- Title: ctextrendering.h Pages: 1 -->
<svg width="1502pt" height="308pt"
 viewBox="0.00 0.00 1502.00 308.00" xmlns="http://www.w3.org/2000/svg" xmlns:xlink="http://www.w3.org/1999/xlink">
<g id="graph0" class="graph" transform="scale(1 1) rotate(0) translate(4 304)">
<title>ctextrendering.h</title>
<polygon fill="white" stroke="transparent" points="-4,4 -4,-304 1498,-304 1498,4 -4,4"/>
<!-- Node1 -->
<g id="node1" class="node">
<title>Node1</title>
<g id="a_node1"><a xlink:title=" ">
<polygon fill="#bfbfbf" stroke="black" points="919.5,-280.5 919.5,-299.5 1016.5,-299.5 1016.5,-280.5 919.5,-280.5"/>
<text text-anchor="middle" x="968" y="-287.5" font-family="Helvetica,sans-Serif" font-size="10.00">ctextrendering.h</text>
</a>
</g>
</g>
<!-- Node2 -->
<g id="node2" class="node">
<title>Node2</title>
<g id="a_node2"><a xlink:href="../../de/d93/btmoduletextmodel_8cpp.html" target="_top" xlink:title=" ">
<polygon fill="white" stroke="black" points="0,-112.5 0,-131.5 134,-131.5 134,-112.5 0,-112.5"/>
<text text-anchor="middle" x="67" y="-119.5" font-family="Helvetica,sans-Serif" font-size="10.00">btmoduletextmodel.cpp</text>
</a>
</g>
</g>
<!-- Node1&#45;&gt;Node2 -->
<g id="edge1" class="edge">
<title>Node1&#45;&gt;Node2</title>
<path fill="none" stroke="midnightblue" d="M909.09,-286.93C717.55,-279.58 121.52,-251.73 66,-188 52.36,-172.34 58.84,-145.61 63.57,-131.82"/>
<polygon fill="midnightblue" stroke="midnightblue" points="909.12,-290.43 919.25,-287.31 909.39,-283.43 909.12,-290.43"/>
</g>
<!-- Node3 -->
<g id="node3" class="node">
<title>Node3</title>
<g id="a_node3"><a xlink:href="../../da/d1a/btinforendering_8cpp.html" target="_top" xlink:title=" ">
<polygon fill="white" stroke="black" points="870,-168.5 870,-187.5 982,-187.5 982,-168.5 870,-168.5"/>
<text text-anchor="middle" x="926" y="-175.5" font-family="Helvetica,sans-Serif" font-size="10.00">btinforendering.cpp</text>
</a>
</g>
</g>
<!-- Node1&#45;&gt;Node3 -->
<g id="edge2" class="edge">
<title>Node1&#45;&gt;Node3</title>
<path fill="none" stroke="midnightblue" d="M958.54,-271.28C954.39,-263.11 949.64,-253.2 946,-244 938.18,-224.24 931.47,-200.13 928.17,-187.56"/>
<polygon fill="midnightblue" stroke="midnightblue" points="955.47,-272.97 963.2,-280.22 961.68,-269.73 955.47,-272.97"/>
</g>
<!-- Node4 -->
<g id="node4" class="node">
<title>Node4</title>
<g id="a_node4"><a xlink:href="../../d2/db7/cdisplayrendering_8h.html" target="_top" xlink:title=" ">
<polygon fill="white" stroke="black" points="480.5,-224.5 480.5,-243.5 593.5,-243.5 593.5,-224.5 480.5,-224.5"/>
<text text-anchor="middle" x="537" y="-231.5" font-family="Helvetica,sans-Serif" font-size="10.00">cdisplayrendering.h</text>
</a>
</g>
</g>
<!-- Node1&#45;&gt;Node4 -->
<g id="edge3" class="edge">
<title>Node1&#45;&gt;Node4</title>
<path fill="none" stroke="midnightblue" d="M909.37,-281.65C826.34,-271.25 675.5,-252.35 593.59,-242.09"/>
<polygon fill="midnightblue" stroke="midnightblue" points="909.04,-285.14 919.4,-282.91 909.91,-278.19 909.04,-285.14"/>
</g>
<!-- Node10 -->
<g id="node10" class="node">
<title>Node10</title>
<g id="a_node10"><a xlink:href="../../de/d6e/btqmlinterface_8cpp.html" target="_top" xlink:title=" ">
<polygon fill="white" stroke="black" points="1265.5,-56.5 1265.5,-75.5 1374.5,-75.5 1374.5,-56.5 1265.5,-56.5"/>
<text text-anchor="middle" x="1320" y="-63.5" font-family="Helvetica,sans-Serif" font-size="10.00">btqmlinterface.cpp</text>
</a>
</g>
</g>
<!-- Node1&#45;&gt;Node10 -->
<g id="edge33" class="edge">
<title>Node1&#45;&gt;Node10</title>
<path fill="none" stroke="midnightblue" d="M1026.74,-282.16C1122.16,-269.64 1303.77,-239.5 1339,-188 1363.49,-152.2 1336.88,-96.62 1325.06,-75.52"/>
<polygon fill="midnightblue" stroke="midnightblue" points="1026.14,-278.71 1016.67,-283.46 1027.03,-285.65 1026.14,-278.71"/>
</g>
<!-- Node18 -->
<g id="node18" class="node">
<title>Node18</title>
<g id="a_node18"><a xlink:href="../../d5/deb/cexportmanager_8cpp.html" target="_top" xlink:title=" ">
<polygon fill="white" stroke="black" points="994,-112.5 994,-131.5 1110,-131.5 1110,-112.5 994,-112.5"/>
<text text-anchor="middle" x="1052" y="-119.5" font-family="Helvetica,sans-Serif" font-size="10.00">cexportmanager.cpp</text>
</a>
</g>
</g>
<!-- Node1&#45;&gt;Node18 -->
<g id="edge32" class="edge">
<title>Node1&#45;&gt;Node18</title>
<path fill="none" stroke="midnightblue" d="M1012.18,-277.41C1053.18,-263.83 1110.82,-236.73 1131,-188 1134.4,-179.79 1135.47,-175.69 1131,-168 1120.45,-149.85 1099.54,-138.41 1081.88,-131.61"/>
<polygon fill="midnightblue" stroke="midnightblue" points="1010.89,-274.14 1002.41,-280.49 1013,-280.82 1010.89,-274.14"/>
</g>
<!-- Node20 -->
<g id="node20" class="node">
<title>Node20</title>
<g id="a_node20"><a xlink:href="../../d7/d5d/cmoduleresultview_8cpp.html" target="_top" xlink:title=" ">
<polygon fill="white" stroke="black" points="588.5,-168.5 588.5,-187.5 717.5,-187.5 717.5,-168.5 588.5,-168.5"/>
<text text-anchor="middle" x="653" y="-175.5" font-family="Helvetica,sans-Serif" font-size="10.00">cmoduleresultview.cpp</text>
</a>
</g>
</g>
<!-- Node1&#45;&gt;Node20 -->
<g id="edge34" class="edge">
<title>Node1&#45;&gt;Node20</title>
<path fill="none" stroke="midnightblue" d="M933.93,-277.1C870.02,-254.79 733.56,-207.13 677.66,-187.61"/>
<polygon fill="midnightblue" stroke="midnightblue" points="932.95,-280.47 943.54,-280.46 935.26,-273.86 932.95,-280.47"/>
</g>
<!-- Node21 -->
<g id="node21" class="node">
<title>Node21</title>
<g id="a_node21"><a xlink:href="../../d4/dca/cdisplaysettings_8cpp.html" target="_top" xlink:title=" ">
<polygon fill="white" stroke="black" points="736,-168.5 736,-187.5 852,-187.5 852,-168.5 736,-168.5"/>
<text text-anchor="middle" x="794" y="-175.5" font-family="Helvetica,sans-Serif" font-size="10.00">cdisplaysettings.cpp</text>
</a>
</g>
</g>
<!-- Node1&#45;&gt;Node21 -->
<g id="edge35" class="edge">
<title>Node1&#45;&gt;Node21</title>
<path fill="none" stroke="midnightblue" d="M945.87,-275.01C909.34,-251.92 837.52,-206.51 807.59,-187.59"/>
<polygon fill="midnightblue" stroke="midnightblue" points="944.02,-277.98 954.35,-280.37 947.76,-272.07 944.02,-277.98"/>
</g>
<!-- Node22 -->
<g id="node22" class="node">
<title>Node22</title>
<g id="a_node22"><a xlink:href="../../d8/d8c/cplaintextexportrendering_8h.html" target="_top" xlink:title=" ">
<polygon fill="white" stroke="black" points="1178,-168.5 1178,-187.5 1330,-187.5 1330,-168.5 1178,-168.5"/>
<text text-anchor="middle" x="1254" y="-175.5" font-family="Helvetica,sans-Serif" font-size="10.00">cplaintextexportrendering.h</text>
</a>
</g>
</g>
<!-- Node1&#45;&gt;Node22 -->
<g id="edge24" class="edge">
<title>Node1&#45;&gt;Node22</title>
<path fill="none" stroke="midnightblue" d="M1026.98,-281.74C1066.96,-275.33 1120.27,-263.82 1164,-244 1196.65,-229.2 1229.37,-201.59 1244.82,-187.6"/>
<polygon fill="midnightblue" stroke="midnightblue" points="1026.21,-278.32 1016.86,-283.3 1027.27,-285.24 1026.21,-278.32"/>
</g>
<!-- Node24 -->
<g id="node24" class="node">
<title>Node24</title>
<g id="a_node24"><a xlink:href="../../d6/d05/crossrefrendering_8h.html" target="_top" xlink:title=" ">
<polygon fill="white" stroke="black" points="954.5,-224.5 954.5,-243.5 1065.5,-243.5 1065.5,-224.5 954.5,-224.5"/>
<text text-anchor="middle" x="1010" y="-231.5" font-family="Helvetica,sans-Serif" font-size="10.00">crossrefrendering.h</text>
</a>
</g>
</g>
<!-- Node1&#45;&gt;Node24 -->
<g id="edge28" class="edge">
<title>Node1&#45;&gt;Node24</title>
<path fill="none" stroke="midnightblue" d="M981.11,-272.14C988.43,-262.74 997.24,-251.4 1003.19,-243.75"/>
<polygon fill="midnightblue" stroke="midnightblue" points="978.31,-270.04 974.94,-280.08 983.84,-274.34 978.31,-270.04"/>
</g>
<!-- Node26 -->
<g id="node26" class="node">
<title>Node26</title>
<g id="a_node26"><a xlink:href="../../db/d72/ctextrendering_8cpp.html" target="_top" xlink:title=" ">
<polygon fill="white" stroke="black" points="1386,-224.5 1386,-243.5 1494,-243.5 1494,-224.5 1386,-224.5"/>
<text text-anchor="middle" x="1440" y="-231.5" font-family="Helvetica,sans-Serif" font-size="10.00">ctextrendering.cpp</text>
</a>
</g>
</g>
<!-- Node1&#45;&gt;Node26 -->
<g id="edge31" class="edge">
<title>Node1&#45;&gt;Node26</title>
<path fill="none" stroke="midnightblue" d="M1026.74,-282.84C1105.41,-274.51 1249.31,-258.95 1372,-244 1376.49,-243.45 1381.15,-242.87 1385.82,-242.27"/>
<polygon fill="midnightblue" stroke="midnightblue" points="1026.12,-279.39 1016.54,-283.92 1026.86,-286.35 1026.12,-279.39"/>
</g>
<!-- Node5 -->
<g id="node5" class="node">
<title>Node5</title>
<g id="a_node5"><a xlink:href="../../df/d72/btmoduletextmodel_8h.html" target="_top" xlink:title=" ">
<polygon fill="white" stroke="black" points="221,-168.5 221,-187.5 343,-187.5 343,-168.5 221,-168.5"/>
<text text-anchor="middle" x="282" y="-175.5" font-family="Helvetica,sans-Serif" font-size="10.00">btmoduletextmodel.h</text>
</a>
</g>
</g>
<!-- Node4&#45;&gt;Node5 -->
<g id="edge4" class="edge">
<title>Node4&#45;&gt;Node5</title>
<path fill="none" stroke="midnightblue" d="M486.69,-222.35C438.5,-212.14 366.72,-196.94 322.22,-187.52"/>
<polygon fill="midnightblue" stroke="midnightblue" points="486.09,-225.8 496.59,-224.44 487.54,-218.95 486.09,-225.8"/>
</g>
<!-- Node14 -->
<g id="node14" class="node">
<title>Node14</title>
<g id="a_node14"><a xlink:href="../../dc/d52/cdisplayrendering_8cpp.html" target="_top" xlink:title=" ">
<polygon fill="white" stroke="black" points="361,-168.5 361,-187.5 485,-187.5 485,-168.5 361,-168.5"/>
<text text-anchor="middle" x="423" y="-175.5" font-family="Helvetica,sans-Serif" font-size="10.00">cdisplayrendering.cpp</text>
</a>
</g>
</g>
<!-- Node4&#45;&gt;Node14 -->
<g id="edge16" class="edge">
<title>Node4&#45;&gt;Node14</title>
<path fill="none" stroke="midnightblue" d="M509.76,-220.1C488.46,-210.01 459.46,-196.27 440.98,-187.52"/>
<polygon fill="midnightblue" stroke="midnightblue" points="508.4,-223.33 518.94,-224.44 511.4,-217 508.4,-223.33"/>
</g>
<!-- Node15 -->
<g id="node15" class="node">
<title>Node15</title>
<g id="a_node15"><a xlink:href="../../dd/dcb/btprinter_8h.html" target="_top" xlink:title=" ">
<polygon fill="white" stroke="black" points="503.5,-168.5 503.5,-187.5 570.5,-187.5 570.5,-168.5 503.5,-168.5"/>
<text text-anchor="middle" x="537" y="-175.5" font-family="Helvetica,sans-Serif" font-size="10.00">btprinter.h</text>
</a>
</g>
</g>
<!-- Node4&#45;&gt;Node15 -->
<g id="edge17" class="edge">
<title>Node4&#45;&gt;Node15</title>
<path fill="none" stroke="midnightblue" d="M537,-213.8C537,-204.91 537,-194.78 537,-187.75"/>
<polygon fill="midnightblue" stroke="midnightblue" points="533.5,-214.08 537,-224.08 540.5,-214.08 533.5,-214.08"/>
</g>
<!-- Node19 -->
<g id="node19" class="node">
<title>Node19</title>
<g id="a_node19"><a xlink:href="../../dd/dde/btsearchresultarea_8cpp.html" target="_top" xlink:title=" ">
<polygon fill="white" stroke="black" points="75,-168.5 75,-187.5 203,-187.5 203,-168.5 75,-168.5"/>
<text text-anchor="middle" x="139" y="-175.5" font-family="Helvetica,sans-Serif" font-size="10.00">btsearchresultarea.cpp</text>
</a>
</g>
</g>
<!-- Node4&#45;&gt;Node19 -->
<g id="edge21" class="edge">
<title>Node4&#45;&gt;Node19</title>
<path fill="none" stroke="midnightblue" d="M470.16,-223.93C395.37,-213.78 275.14,-197.47 201.97,-187.54"/>
<polygon fill="midnightblue" stroke="midnightblue" points="470.02,-227.44 480.4,-225.32 470.96,-220.51 470.02,-227.44"/>
</g>
<!-- Node4&#45;&gt;Node20 -->
<g id="edge22" class="edge">
<title>Node4&#45;&gt;Node20</title>
<path fill="none" stroke="midnightblue" d="M564.72,-220.1C586.39,-210.01 615.9,-196.27 634.71,-187.52"/>
<polygon fill="midnightblue" stroke="midnightblue" points="562.97,-217.05 555.38,-224.44 565.92,-223.4 562.97,-217.05"/>
</g>
<!-- Node4&#45;&gt;Node21 -->
<g id="edge23" class="edge">
<title>Node4&#45;&gt;Node21</title>
<path fill="none" stroke="midnightblue" d="M587.71,-222.35C636.28,-212.14 708.62,-196.94 753.47,-187.52"/>
<polygon fill="midnightblue" stroke="midnightblue" points="586.79,-218.96 577.72,-224.44 588.23,-225.81 586.79,-218.96"/>
</g>
<!-- Node5&#45;&gt;Node2 -->
<g id="edge5" class="edge">
<title>Node5&#45;&gt;Node2</title>
<path fill="none" stroke="midnightblue" d="M238.04,-165.96C197.43,-155.76 137.96,-140.82 100.91,-131.52"/>
<polygon fill="midnightblue" stroke="midnightblue" points="237.38,-169.4 247.93,-168.44 239.09,-162.61 237.38,-169.4"/>
</g>
<!-- Node6 -->
<g id="node6" class="node">
<title>Node6</title>
<g id="a_node6"><a xlink:href="../../d3/d2f/btcopybyreferencesdialog_8cpp.html" target="_top" xlink:title=" ">
<polygon fill="white" stroke="black" points="239,-0.5 239,-19.5 403,-19.5 403,-0.5 239,-0.5"/>
<text text-anchor="middle" x="321" y="-7.5" font-family="Helvetica,sans-Serif" font-size="10.00">btcopybyreferencesdialog.cpp</text>
</a>
</g>
</g>
<!-- Node5&#45;&gt;Node6 -->
<g id="edge6" class="edge">
<title>Node5&#45;&gt;Node6</title>
<path fill="none" stroke="midnightblue" d="M263.47,-161.67C237.36,-138.17 195.43,-92.16 219,-56 231.42,-36.95 253.93,-25.9 274.64,-19.53"/>
<polygon fill="midnightblue" stroke="midnightblue" points="261.44,-164.55 271.29,-168.47 266.04,-159.27 261.44,-164.55"/>
</g>
<!-- Node7 -->
<g id="node7" class="node">
<title>Node7</title>
<g id="a_node7"><a xlink:href="../../d1/d48/btqmlinterface_8h.html" target="_top" xlink:title=" ">
<polygon fill="white" stroke="black" points="361,-112.5 361,-131.5 459,-131.5 459,-112.5 361,-112.5"/>
<text text-anchor="middle" x="410" y="-119.5" font-family="Helvetica,sans-Serif" font-size="10.00">btqmlinterface.h</text>
</a>
</g>
</g>
<!-- Node5&#45;&gt;Node7 -->
<g id="edge7" class="edge">
<title>Node5&#45;&gt;Node7</title>
<path fill="none" stroke="midnightblue" d="M311.62,-164.5C335.62,-154.38 368.78,-140.39 389.81,-131.52"/>
<polygon fill="midnightblue" stroke="midnightblue" points="310.14,-161.33 302.28,-168.44 312.86,-167.78 310.14,-161.33"/>
</g>
<!-- Node8 -->
<g id="node8" class="node">
<title>Node8</title>
<g id="a_node8"><a xlink:href="../../d7/dad/btcopybyreferencesdialog_8h.html" target="_top" xlink:title=" ">
<polygon fill="white" stroke="black" points="440,-56.5 440,-75.5 592,-75.5 592,-56.5 440,-56.5"/>
<text text-anchor="middle" x="516" y="-63.5" font-family="Helvetica,sans-Serif" font-size="10.00">btcopybyreferencesdialog.h</text>
</a>
</g>
</g>
<!-- Node7&#45;&gt;Node8 -->
<g id="edge8" class="edge">
<title>Node7&#45;&gt;Node8</title>
<path fill="none" stroke="midnightblue" d="M436.06,-107.73C455.68,-97.73 482.03,-84.31 499.01,-75.65"/>
<polygon fill="midnightblue" stroke="midnightblue" points="434.35,-104.67 427.03,-112.32 437.53,-110.9 434.35,-104.67"/>
</g>
<!-- Node9 -->
<g id="node9" class="node">
<title>Node9</title>
<g id="a_node9"><a xlink:href="../../de/db2/btmodelviewreaddisplay_8cpp.html" target="_top" xlink:title=" ">
<polygon fill="white" stroke="black" points="490,-0.5 490,-19.5 646,-19.5 646,-0.5 490,-0.5"/>
<text text-anchor="middle" x="568" y="-7.5" font-family="Helvetica,sans-Serif" font-size="10.00">btmodelviewreaddisplay.cpp</text>
</a>
</g>
</g>
<!-- Node7&#45;&gt;Node9 -->
<g id="edge11" class="edge">
<title>Node7&#45;&gt;Node9</title>
<path fill="none" stroke="midnightblue" d="M469.04,-110.87C522,-101.19 592.66,-86.54 601,-76 615.3,-57.94 592.59,-32.71 578.26,-19.63"/>
<polygon fill="midnightblue" stroke="midnightblue" points="468.26,-107.46 459.04,-112.68 469.51,-114.34 468.26,-107.46"/>
</g>
<!-- Node7&#45;&gt;Node10 -->
<g id="edge12" class="edge">
<title>Node7&#45;&gt;Node10</title>
<path fill="none" stroke="midnightblue" d="M468.97,-112.01C775.56,-80.68 1130.81,-70.78 1265.03,-67.98"/>
<polygon fill="midnightblue" stroke="midnightblue" points="468.59,-108.53 459,-113.04 469.31,-115.5 468.59,-108.53"/>
</g>
<!-- Node11 -->
<g id="node11" class="node">
<title>Node11</title>
<g id="a_node11"><a xlink:href="../../d9/d0c/btquickwidget_8cpp.html" target="_top" xlink:title=" ">
<polygon fill="white" stroke="black" points="648,-56.5 648,-75.5 754,-75.5 754,-56.5 648,-56.5"/>
<text text-anchor="middle" x="701" y="-63.5" font-family="Helvetica,sans-Serif" font-size="10.00">btquickwidget.cpp</text>
</a>
</g>
</g>
<!-- Node7&#45;&gt;Node11 -->
<g id="edge13" class="edge">
<title>Node7&#45;&gt;Node11</title>
<path fill="none" stroke="midnightblue" d="M466.04,-110.6C521.04,-100.4 603.9,-85.02 655.11,-75.52"/>
<polygon fill="midnightblue" stroke="midnightblue" points="465.3,-107.18 456.11,-112.44 466.58,-114.06 465.3,-107.18"/>
</g>
<!-- Node12 -->
<g id="node12" class="node">
<title>Node12</title>
<g id="a_node12"><a xlink:href="../../d2/d26/cdisplaywindow_8cpp.html" target="_top" xlink:title=" ">
<polygon fill="white" stroke="black" points="228,-56.5 228,-75.5 342,-75.5 342,-56.5 228,-56.5"/>
<text text-anchor="middle" x="285" y="-63.5" font-family="Helvetica,sans-Serif" font-size="10.00">cdisplaywindow.cpp</text>
</a>
</g>
</g>
<!-- Node7&#45;&gt;Node12 -->
<g id="edge14" class="edge">
<title>Node7&#45;&gt;Node12</title>
<path fill="none" stroke="midnightblue" d="M380.76,-108.37C357.35,-98.26 325.16,-84.35 304.71,-75.52"/>
<polygon fill="midnightblue" stroke="midnightblue" points="379.63,-111.69 390.19,-112.44 382.4,-105.26 379.63,-111.69"/>
</g>
<!-- Node13 -->
<g id="node13" class="node">
<title>Node13</title>
<g id="a_node13"><a xlink:href="../../df/d0a/main_8cpp.html" target="_top" xlink:title=" ">
<polygon fill="white" stroke="black" points="360,-56.5 360,-75.5 422,-75.5 422,-56.5 360,-56.5"/>
<text text-anchor="middle" x="391" y="-63.5" font-family="Helvetica,sans-Serif" font-size="10.00">main.cpp</text>
</a>
</g>
</g>
<!-- Node7&#45;&gt;Node13 -->
<g id="edge15" class="edge">
<title>Node7&#45;&gt;Node13</title>
<path fill="none" stroke="midnightblue" d="M403.45,-102.4C400.28,-93.36 396.61,-82.94 394.08,-75.75"/>
<polygon fill="midnightblue" stroke="midnightblue" points="400.24,-103.81 406.86,-112.08 406.85,-101.49 400.24,-103.81"/>
</g>
<!-- Node8&#45;&gt;Node6 -->
<g id="edge9" class="edge">
<title>Node8&#45;&gt;Node6</title>
<path fill="none" stroke="midnightblue" d="M475.19,-53.7C438.39,-43.51 385.07,-28.74 351.75,-19.52"/>
<polygon fill="midnightblue" stroke="midnightblue" points="474.53,-57.15 485.1,-56.44 476.4,-50.4 474.53,-57.15"/>
</g>
<!-- Node8&#45;&gt;Node9 -->
<g id="edge10" class="edge">
<title>Node8&#45;&gt;Node9</title>
<path fill="none" stroke="midnightblue" d="M531.68,-48.72C540.84,-39.2 552.05,-27.56 559.57,-19.75"/>
<polygon fill="midnightblue" stroke="midnightblue" points="529,-46.45 524.59,-56.08 534.04,-51.31 529,-46.45"/>
</g>
<!-- Node16 -->
<g id="node16" class="node">
<title>Node16</title>
<g id="a_node16"><a xlink:href="../../d9/de6/cbookmarkindex_8cpp.html" target="_top" xlink:title=" ">
<polygon fill="white" stroke="black" points="477.5,-112.5 477.5,-131.5 596.5,-131.5 596.5,-112.5 477.5,-112.5"/>
<text text-anchor="middle" x="537" y="-119.5" font-family="Helvetica,sans-Serif" font-size="10.00">cbookmarkindex.cpp</text>
</a>
</g>
</g>
<!-- Node15&#45;&gt;Node16 -->
<g id="edge18" class="edge">
<title>Node15&#45;&gt;Node16</title>
<path fill="none" stroke="midnightblue" d="M537,-157.8C537,-148.91 537,-138.78 537,-131.75"/>
<polygon fill="midnightblue" stroke="midnightblue" points="533.5,-158.08 537,-168.08 540.5,-158.08 533.5,-158.08"/>
</g>
<!-- Node17 -->
<g id="node17" class="node">
<title>Node17</title>
<g id="a_node17"><a xlink:href="../../d0/dae/btprinter_8cpp.html" target="_top" xlink:title=" ">
<polygon fill="white" stroke="black" points="615,-112.5 615,-131.5 693,-131.5 693,-112.5 615,-112.5"/>
<text text-anchor="middle" x="654" y="-119.5" font-family="Helvetica,sans-Serif" font-size="10.00">btprinter.cpp</text>
</a>
</g>
</g>
<!-- Node15&#45;&gt;Node17 -->
<g id="edge19" class="edge">
<title>Node15&#45;&gt;Node17</title>
<path fill="none" stroke="midnightblue" d="M564.66,-164.23C586.55,-154.13 616.5,-140.31 635.55,-131.52"/>
<polygon fill="midnightblue" stroke="midnightblue" points="563.15,-161.08 555.54,-168.44 566.09,-167.43 563.15,-161.08"/>
</g>
<!-- Node15&#45;&gt;Node18 -->
<g id="edge20" class="edge">
<title>Node15&#45;&gt;Node18</title>
<path fill="none" stroke="midnightblue" d="M580.99,-167.84C735.14,-144.53 906.26,-131.87 993.84,-126.35"/>
<polygon fill="midnightblue" stroke="midnightblue" points="580.22,-164.42 570.86,-169.39 581.28,-171.34 580.22,-164.42"/>
</g>
<!-- Node22&#45;&gt;Node10 -->
<g id="edge27" class="edge">
<title>Node22&#45;&gt;Node10</title>
<path fill="none" stroke="midnightblue" d="M1273.95,-162.03C1283.36,-154.04 1294.02,-143.5 1301,-132 1312.11,-113.71 1317.02,-88.57 1318.94,-75.57"/>
<polygon fill="midnightblue" stroke="midnightblue" points="1271.71,-159.33 1266.14,-168.34 1276.11,-164.78 1271.71,-159.33"/>
</g>
<!-- Node22&#45;&gt;Node18 -->
<g id="edge26" class="edge">
<title>Node22&#45;&gt;Node18</title>
<path fill="none" stroke="midnightblue" d="M1212.21,-165.83C1174.07,-155.63 1118.52,-140.78 1083.86,-131.52"/>
<polygon fill="midnightblue" stroke="midnightblue" points="1211.43,-169.24 1221.99,-168.44 1213.24,-162.48 1211.43,-169.24"/>
</g>
<!-- Node23 -->
<g id="node23" class="node">
<title>Node23</title>
<g id="a_node23"><a xlink:href="../../d7/d71/cplaintextexportrendering_8cpp.html" target="_top" xlink:title=" ">
<polygon fill="white" stroke="black" points="1128,-112.5 1128,-131.5 1292,-131.5 1292,-112.5 1128,-112.5"/>
<text text-anchor="middle" x="1210" y="-119.5" font-family="Helvetica,sans-Serif" font-size="10.00">cplaintextexportrendering.cpp</text>
</a>
</g>
</g>
<!-- Node22&#45;&gt;Node23 -->
<g id="edge25" class="edge">
<title>Node22&#45;&gt;Node23</title>
<path fill="none" stroke="midnightblue" d="M1240.27,-160.14C1232.6,-150.74 1223.37,-139.4 1217.13,-131.75"/>
<polygon fill="midnightblue" stroke="midnightblue" points="1237.7,-162.54 1246.73,-168.08 1243.13,-158.12 1237.7,-162.54"/>
</g>
<!-- Node24&#45;&gt;Node3 -->
<g id="edge29" class="edge">
<title>Node24&#45;&gt;Node3</title>
<path fill="none" stroke="midnightblue" d="M988.07,-218.9C972.66,-209 952.55,-196.07 939.46,-187.65"/>
<polygon fill="midnightblue" stroke="midnightblue" points="986.2,-221.86 996.5,-224.32 989.98,-215.97 986.2,-221.86"/>
</g>
<!-- Node25 -->
<g id="node25" class="node">
<title>Node25</title>
<g id="a_node25"><a xlink:href="../../d5/d19/crossrefrendering_8cpp.html" target="_top" xlink:title=" ">
<polygon fill="white" stroke="black" points="1000,-168.5 1000,-187.5 1122,-187.5 1122,-168.5 1000,-168.5"/>
<text text-anchor="middle" x="1061" y="-175.5" font-family="Helvetica,sans-Serif" font-size="10.00">crossrefrendering.cpp</text>
</a>
</g>
</g>
<!-- Node24&#45;&gt;Node25 -->
<g id="edge30" class="edge">
<title>Node24&#45;&gt;Node25</title>
<path fill="none" stroke="midnightblue" d="M1025.38,-216.72C1034.37,-207.2 1045.36,-195.56 1052.74,-187.75"/>
<polygon fill="midnightblue" stroke="midnightblue" points="1022.74,-214.41 1018.42,-224.08 1027.83,-219.22 1022.74,-214.41"/>
</g>
</g>
</svg>
