<?xml version="1.0" encoding="UTF-8" standalone="no"?>
<!DOCTYPE svg PUBLIC "-//W3C//DTD SVG 1.1//EN"
 "http://www.w3.org/Graphics/SVG/1.1/DTD/svg11.dtd">
<!-- Generated by graphviz version 2.43.0 (0)
 -->
<!-- Title: QSet Pages: 1 -->
<svg width="332pt" height="183pt"
 viewBox="0.00 0.00 332.00 183.00" xmlns="http://www.w3.org/2000/svg" xmlns:xlink="http://www.w3.org/1999/xlink">
<g id="graph0" class="graph" transform="scale(1 1) rotate(0) translate(4 179)">
<title>QSet</title>
<!-- Node1 -->
<g id="Node000001" class="node">
<title>Node1</title>
<g id="a_Node000001"><a xlink:title=" ">
<polygon fill="#999999" stroke="transparent" points="176.5,-175 142.5,-175 142.5,-126 176.5,-126 176.5,-175"/>
<text text-anchor="start" x="147.5" y="-162.5" font-family="Helvetica,sans-Serif" font-size="10.00">QSet</text>
<text text-anchor="start" x="157.5" y="-147.5" font-family="Helvetica,sans-Serif" font-size="10.00"> </text>
<text text-anchor="start" x="157.5" y="-132.5" font-family="Helvetica,sans-Serif" font-size="10.00"> </text>
<polygon fill="#666666" stroke="#666666" points="142.5,-157.5 142.5,-157.5 176.5,-157.5 176.5,-157.5 142.5,-157.5"/>
<polygon fill="#666666" stroke="#666666" points="142.5,-142.5 142.5,-142.5 176.5,-142.5 176.5,-142.5 142.5,-142.5"/>
<polygon fill="none" stroke="#666666" points="142.5,-126 142.5,-175 176.5,-175 176.5,-126 142.5,-126"/>
</a>
</g>
</g>
<!-- Node2 -->
<g id="Node000002" class="node">
<title>Node2</title>
<g id="a_Node000002"><a xlink:href="../../de/daa/classBtConstModuleSet.html" target="_top" xlink:title=" ">
<polygon fill="white" stroke="transparent" points="149,-82.5 0,-82.5 0,-7.5 149,-7.5 149,-82.5"/>
<text text-anchor="start" x="5.5" y="-70" font-family="Helvetica,sans-Serif" font-size="10.00">BtConstModuleSet&lt; CSword</text>
<text text-anchor="start" x="23" y="-59" font-family="Helvetica,sans-Serif" font-size="10.00">ModuleInfo const * &gt;</text>
<text text-anchor="start" x="73" y="-44" font-family="Helvetica,sans-Serif" font-size="10.00"> </text>
<text text-anchor="start" x="12" y="-29" font-family="Helvetica,sans-Serif" font-size="10.00">+</text>
<text text-anchor="start" x="32.5" y="-29" font-family="Helvetica,sans-Serif" font-size="10.00">BtConstModuleSet()</text>
<text text-anchor="start" x="12" y="-14" font-family="Helvetica,sans-Serif" font-size="10.00">+</text>
<text text-anchor="start" x="32.5" y="-14" font-family="Helvetica,sans-Serif" font-size="10.00">BtConstModuleSet()</text>
<polygon fill="#666666" stroke="#666666" points="0.5,-54 0.5,-54 149.5,-54 149.5,-54 0.5,-54"/>
<polygon fill="#666666" stroke="#666666" points="0.5,-39 0.5,-39 149.5,-39 149.5,-39 0.5,-39"/>
<polygon fill="none" stroke="#666666" points="0,-7.5 0,-82.5 149,-82.5 149,-7.5 0,-7.5"/>
</a>
</g>
</g>
<!-- Node1&#45;&gt;Node2 -->
<g id="edge1_Node000001_Node000002" class="edge">
<title>Node1&#45;&gt;Node2</title>
<g id="a_edge1_Node000001_Node000002"><a xlink:title=" ">
<path fill="none" stroke="#63b8ff" d="M135.91,-120.78C126.27,-109.04 114.99,-95.3 104.75,-82.83"/>
<polygon fill="none" stroke="#63b8ff" points="133.25,-123.05 142.3,-128.56 138.66,-118.61 133.25,-123.05"/>
</a>
</g>
</g>
<!-- Node3 -->
<g id="Node000003" class="node">
<title>Node3</title>
<g id="a_Node000003"><a xlink:href="../../d3/d2a/classBtModuleSet.html" target="_top" xlink:title=" ">
<polygon fill="white" stroke="transparent" points="324,-90 167,-90 167,0 324,0 324,-90"/>
<text text-anchor="start" x="172.5" y="-78" font-family="Helvetica,sans-Serif" font-size="10.00">BtModuleSet&lt; CSwordModule</text>
<text text-anchor="start" x="226.5" y="-67" font-family="Helvetica,sans-Serif" font-size="10.00">Info * &gt;</text>
<text text-anchor="start" x="244" y="-52" font-family="Helvetica,sans-Serif" font-size="10.00"> </text>
<text text-anchor="start" x="188" y="-37" font-family="Helvetica,sans-Serif" font-size="10.00">+</text>
<text text-anchor="start" x="217.5" y="-37" font-family="Helvetica,sans-Serif" font-size="10.00">BtModuleSet()</text>
<text text-anchor="start" x="188" y="-22" font-family="Helvetica,sans-Serif" font-size="10.00">+</text>
<text text-anchor="start" x="217.5" y="-22" font-family="Helvetica,sans-Serif" font-size="10.00">BtModuleSet()</text>
<text text-anchor="start" x="188" y="-7" font-family="Helvetica,sans-Serif" font-size="10.00">+</text>
<text text-anchor="start" x="217.5" y="-7" font-family="Helvetica,sans-Serif" font-size="10.00">contains()</text>
<polygon fill="#666666" stroke="#666666" points="167.5,-62 167.5,-62 324.5,-62 324.5,-62 167.5,-62"/>
<polygon fill="#666666" stroke="#666666" points="167.5,-47 167.5,-47 324.5,-47 324.5,-47 167.5,-47"/>
<polygon fill="none" stroke="#666666" points="167,0 167,-90 324,-90 324,0 167,0"/>
</a>
</g>
</g>
<!-- Node1&#45;&gt;Node3 -->
<g id="edge2_Node000001_Node000003" class="edge">
<title>Node1&#45;&gt;Node3</title>
<g id="a_edge2_Node000001_Node000003"><a xlink:title=" ">
<path fill="none" stroke="#63b8ff" d="M183.45,-120.68C191.24,-111.3 200.08,-100.67 208.59,-90.42"/>
<polygon fill="none" stroke="#63b8ff" points="180.6,-118.63 176.9,-128.56 185.99,-123.1 180.6,-118.63"/>
</a>
</g>
</g>
</g>
</svg>
