<?xml version="1.0" encoding="UTF-8" standalone="no"?>
<!DOCTYPE svg PUBLIC "-//W3C//DTD SVG 1.1//EN"
 "http://www.w3.org/Graphics/SVG/1.1/DTD/svg11.dtd">
<!-- Generated by graphviz version 2.43.0 (0)
 -->
<!-- Title: QSet Pages: 1 -->
<svg width="344pt" height="193pt"
 viewBox="0.00 0.00 344.00 193.00" xmlns="http://www.w3.org/2000/svg" xmlns:xlink="http://www.w3.org/1999/xlink">
<g id="graph0" class="graph" transform="scale(1 1) rotate(0) translate(4 189)">
<title>QSet</title>
<polygon fill="white" stroke="transparent" points="-4,4 -4,-189 340,-189 340,4 -4,4"/>
<!-- Node1 -->
<g id="node1" class="node">
<title>Node1</title>
<g id="a_node1"><a xlink:title=" ">
<polygon fill="#bfbfbf" stroke="black" points="145.5,-127.5 145.5,-184.5 185.5,-184.5 185.5,-127.5 145.5,-127.5"/>
<text text-anchor="middle" x="165.5" y="-172.5" font-family="Helvetica,sans-Serif" font-size="10.00">QSet</text>
<polyline fill="none" stroke="black" points="145.5,-165.5 185.5,-165.5 "/>
<text text-anchor="middle" x="165.5" y="-153.5" font-family="Helvetica,sans-Serif" font-size="10.00"> </text>
<polyline fill="none" stroke="black" points="145.5,-146.5 185.5,-146.5 "/>
<text text-anchor="middle" x="165.5" y="-134.5" font-family="Helvetica,sans-Serif" font-size="10.00"> </text>
</a>
</g>
</g>
<!-- Node2 -->
<g id="node2" class="node">
<title>Node2</title>
<g id="a_node2"><a xlink:href="../../de/daa/classBtConstModuleSet.html" target="_top" xlink:title=" ">
<polygon fill="white" stroke="black" points="0,-6 0,-85 155,-85 155,-6 0,-6"/>
<text text-anchor="start" x="8" y="-73" font-family="Helvetica,sans-Serif" font-size="10.00">BtConstModuleSet&lt; CSword</text>
<text text-anchor="middle" x="77.5" y="-62" font-family="Helvetica,sans-Serif" font-size="10.00">ModuleInfo const * &gt;</text>
<polyline fill="none" stroke="black" points="0,-55 155,-55 "/>
<text text-anchor="middle" x="77.5" y="-43" font-family="Helvetica,sans-Serif" font-size="10.00"> </text>
<polyline fill="none" stroke="black" points="0,-36 155,-36 "/>
<text text-anchor="start" x="8" y="-24" font-family="Helvetica,sans-Serif" font-size="10.00">+ BtConstModuleSet()</text>
<text text-anchor="start" x="8" y="-13" font-family="Helvetica,sans-Serif" font-size="10.00">+ BtConstModuleSet()</text>
</a>
</g>
</g>
<!-- Node1&#45;&gt;Node2 -->
<g id="edge1" class="edge">
<title>Node1&#45;&gt;Node2</title>
<path fill="none" stroke="midnightblue" d="M139,-122.33C129.55,-110.67 118.81,-97.43 108.98,-85.31"/>
<polygon fill="none" stroke="midnightblue" points="136.29,-124.55 145.31,-130.11 141.73,-120.14 136.29,-124.55"/>
</g>
<!-- Node3 -->
<g id="node3" class="node">
<title>Node3</title>
<g id="a_node3"><a xlink:href="../../d3/d2a/classBtModuleSet.html" target="_top" xlink:title=" ">
<polygon fill="white" stroke="black" points="173,-0.5 173,-90.5 336,-90.5 336,-0.5 173,-0.5"/>
<text text-anchor="start" x="181" y="-78.5" font-family="Helvetica,sans-Serif" font-size="10.00">BtModuleSet&lt; CSwordModule</text>
<text text-anchor="middle" x="254.5" y="-67.5" font-family="Helvetica,sans-Serif" font-size="10.00">Info * &gt;</text>
<polyline fill="none" stroke="black" points="173,-60.5 336,-60.5 "/>
<text text-anchor="middle" x="254.5" y="-48.5" font-family="Helvetica,sans-Serif" font-size="10.00"> </text>
<polyline fill="none" stroke="black" points="173,-41.5 336,-41.5 "/>
<text text-anchor="start" x="181" y="-29.5" font-family="Helvetica,sans-Serif" font-size="10.00">+ BtModuleSet()</text>
<text text-anchor="start" x="181" y="-18.5" font-family="Helvetica,sans-Serif" font-size="10.00">+ BtModuleSet()</text>
<text text-anchor="start" x="181" y="-7.5" font-family="Helvetica,sans-Serif" font-size="10.00">+ contains()</text>
</a>
</g>
</g>
<!-- Node1&#45;&gt;Node3 -->
<g id="edge2" class="edge">
<title>Node1&#45;&gt;Node3</title>
<path fill="none" stroke="midnightblue" d="M192.06,-122.62C200.3,-112.58 209.52,-101.33 218.3,-90.64"/>
<polygon fill="none" stroke="midnightblue" points="189.33,-120.43 185.7,-130.38 194.74,-124.87 189.33,-120.43"/>
</g>
</g>
</svg>
