<?xml version="1.0" encoding="UTF-8" standalone="no"?>
<!DOCTYPE svg PUBLIC "-//W3C//DTD SVG 1.1//EN"
 "http://www.w3.org/Graphics/SVG/1.1/DTD/svg11.dtd">
<!-- Generated by graphviz version 2.43.0 (0)
 -->
<!-- Title: btbookshelfwizardenums.h Pages: 1 -->
<!--zoomable 140 -->
<svg id="main" version="1.1" xmlns="http://www.w3.org/2000/svg" xmlns:xlink="http://www.w3.org/1999/xlink" xml:space="preserve" onload="init(evt)">
<style type="text/css"><![CDATA[
.edge:hover path { stroke: red; }
.edge:hover polygon { stroke: red; fill: red; }
]]></style>
<script type="text/javascript"><![CDATA[
var edges = document.getElementsByTagName('g');
if (edges && edges.length) {
  for (var i=0;i<edges.length;i++) {
    if (edges[i].id.substr(0,4)=='edge') {
      edges[i].setAttribute('class','edge');
    }
  }
}
]]></script>
        <defs>
                <circle id="rim" cx="0" cy="0" r="7"/>
                <circle id="rim2" cx="0" cy="0" r="3.5"/>
                <g id="zoomPlus">
                        <use xlink:href="#rim" fill="#404040">
                                <set attributeName="fill" to="#808080" begin="zoomplus.mouseover" end="zoomplus.mouseout"/>
                        </use>
                        <path d="M-4,0h8M0,-4v8" fill="none" stroke="white" stroke-width="1.5" pointer-events="none"/>
                </g>
                <g id="zoomMin">
                        <use xlink:href="#rim" fill="#404040">
                                <set attributeName="fill" to="#808080" begin="zoomminus.mouseover" end="zoomminus.mouseout"/>
                        </use>
                        <path d="M-4,0h8" fill="none" stroke="white" stroke-width="1.5" pointer-events="none"/>
                </g>
                <g id="dirArrow">
                        <path fill="none" stroke="white" stroke-width="1.5" d="M0,-3.0v7 M-2.5,-0.5L0,-3.0L2.5,-0.5"/>
                </g>
               <g id="resetDef">
                       <use xlink:href="#rim2" fill="#404040">
                               <set attributeName="fill" to="#808080" begin="reset.mouseover" end="reset.mouseout"/>
                       </use>
               </g>
        </defs>

<script type="text/javascript">
var viewWidth = 1713;
var viewHeight = 140;
var sectionId = 'dynsection-0';
</script>
<script xlink:href="../../svgpan.js"/>
<svg id="graph" class="graph">
<g id="viewport">
<title>btbookshelfwizardenums.h</title>
<polygon fill="white" stroke="transparent" points="-4,4 -4,-136 1708.5,-136 1708.5,4 -4,4"/>
<!-- Node1 -->
<g id="node1" class="node">
<title>Node1</title>
<g id="a_node1"><a xlink:title=" ">
<polygon fill="#bfbfbf" stroke="black" points="968.5,-112.5 968.5,-131.5 1116.5,-131.5 1116.5,-112.5 968.5,-112.5"/>
<text text-anchor="middle" x="1042.5" y="-119.5" font-family="Helvetica,sans-Serif" font-size="10.00">btbookshelfwizardenums.h</text>
</a>
</g>
</g>
<!-- Node2 -->
<g id="node2" class="node">
<title>Node2</title>
<g id="a_node2"><a xlink:href="../../d9/d64/btbookshelfwizard_8h.html" target="_top" xlink:title=" ">
<polygon fill="white" stroke="black" points="889,-56.5 889,-75.5 1004,-75.5 1004,-56.5 889,-56.5"/>
<text text-anchor="middle" x="946.5" y="-63.5" font-family="Helvetica,sans-Serif" font-size="10.00">btbookshelfwizard.h</text>
</a>
</g>
</g>
<!-- Node1&#45;&gt;Node2 -->
<g id="edge1" class="edge">
<title>Node1&#45;&gt;Node2</title>
<path fill="none" stroke="midnightblue" d="M1017.93,-107.18C1000.26,-97.24 976.99,-84.15 961.89,-75.65"/>
<polygon fill="midnightblue" stroke="midnightblue" points="1016.64,-110.47 1027.08,-112.32 1020.08,-104.37 1016.64,-110.47"/>
</g>
<!-- Node4 -->
<g id="node4" class="node">
<title>Node4</title>
<g id="a_node4"><a xlink:href="../../dc/d04/btbookshelfinstallfinalpage_8cpp.html" target="_top" xlink:title=" ">
<polygon fill="white" stroke="black" points="0,-0.5 0,-19.5 169,-19.5 169,-0.5 0,-0.5"/>
<text text-anchor="middle" x="84.5" y="-7.5" font-family="Helvetica,sans-Serif" font-size="10.00">btbookshelfinstallfinalpage.cpp</text>
</a>
</g>
</g>
<!-- Node1&#45;&gt;Node4 -->
<g id="edge12" class="edge">
<title>Node1&#45;&gt;Node4</title>
<path fill="none" stroke="midnightblue" d="M958.35,-114.27C861.89,-106.29 699.09,-92.05 559.5,-76 407.97,-58.58 229.99,-32.79 141.07,-19.54"/>
<polygon fill="midnightblue" stroke="midnightblue" points="958.09,-117.76 968.34,-115.09 958.66,-110.78 958.09,-117.76"/>
</g>
<!-- Node5 -->
<g id="node5" class="node">
<title>Node5</title>
<g id="a_node5"><a xlink:href="../../d0/da5/btbookshelflanguagespage_8cpp.html" target="_top" xlink:title=" ">
<polygon fill="white" stroke="black" points="186.5,-0.5 186.5,-19.5 354.5,-19.5 354.5,-0.5 186.5,-0.5"/>
<text text-anchor="middle" x="270.5" y="-7.5" font-family="Helvetica,sans-Serif" font-size="10.00">btbookshelflanguagespage.cpp</text>
</a>
</g>
</g>
<!-- Node1&#45;&gt;Node5 -->
<g id="edge13" class="edge">
<title>Node1&#45;&gt;Node5</title>
<path fill="none" stroke="midnightblue" d="M960.79,-111.22C889.19,-102.5 782.35,-89.12 689.5,-76 557.02,-57.28 401.46,-32.38 322.36,-19.51"/>
<polygon fill="midnightblue" stroke="midnightblue" points="960.75,-114.74 971.1,-112.47 961.59,-107.79 960.75,-114.74"/>
</g>
<!-- Node7 -->
<g id="node7" class="node">
<title>Node7</title>
<g id="a_node7"><a xlink:href="../../da/dde/btbookshelfsourcespage_8cpp.html" target="_top" xlink:title=" ">
<polygon fill="white" stroke="black" points="372.5,-0.5 372.5,-19.5 528.5,-19.5 528.5,-0.5 372.5,-0.5"/>
<text text-anchor="middle" x="450.5" y="-7.5" font-family="Helvetica,sans-Serif" font-size="10.00">btbookshelfsourcespage.cpp</text>
</a>
</g>
</g>
<!-- Node1&#45;&gt;Node7 -->
<g id="edge14" class="edge">
<title>Node1&#45;&gt;Node7</title>
<path fill="none" stroke="midnightblue" d="M986.41,-110.58C869.89,-88.93 603.6,-39.45 496.43,-19.53"/>
<polygon fill="midnightblue" stroke="midnightblue" points="986.07,-114.07 996.54,-112.46 987.35,-107.19 986.07,-114.07"/>
</g>
<!-- Node8 -->
<g id="node8" class="node">
<title>Node8</title>
<g id="a_node8"><a xlink:href="../../d4/d54/btbookshelfsourcesprogresspage_8cpp.html" target="_top" xlink:title=" ">
<polygon fill="white" stroke="black" points="1039.5,-0.5 1039.5,-19.5 1237.5,-19.5 1237.5,-0.5 1039.5,-0.5"/>
<text text-anchor="middle" x="1138.5" y="-7.5" font-family="Helvetica,sans-Serif" font-size="10.00">btbookshelfsourcesprogresspage.cpp</text>
</a>
</g>
</g>
<!-- Node1&#45;&gt;Node8 -->
<g id="edge15" class="edge">
<title>Node1&#45;&gt;Node8</title>
<path fill="none" stroke="midnightblue" d="M1056.83,-104.59C1077.52,-80.87 1115.05,-37.87 1131,-19.59"/>
<polygon fill="midnightblue" stroke="midnightblue" points="1053.97,-102.53 1050.03,-112.37 1059.25,-107.14 1053.97,-102.53"/>
</g>
<!-- Node10 -->
<g id="node10" class="node">
<title>Node10</title>
<g id="a_node10"><a xlink:href="../../d6/d54/btbookshelfwizard_8cpp.html" target="_top" xlink:title=" ">
<polygon fill="white" stroke="black" points="1578.5,-0.5 1578.5,-19.5 1704.5,-19.5 1704.5,-0.5 1578.5,-0.5"/>
<text text-anchor="middle" x="1641.5" y="-7.5" font-family="Helvetica,sans-Serif" font-size="10.00">btbookshelfwizard.cpp</text>
</a>
</g>
</g>
<!-- Node1&#45;&gt;Node10 -->
<g id="edge19" class="edge">
<title>Node1&#45;&gt;Node10</title>
<path fill="none" stroke="midnightblue" d="M1126.6,-119.82C1253.35,-117.03 1486.66,-107.62 1563.5,-76 1594.15,-63.39 1621.85,-34.24 1634.4,-19.65"/>
<polygon fill="midnightblue" stroke="midnightblue" points="1126.47,-116.33 1116.55,-120.04 1126.62,-123.32 1126.47,-116.33"/>
</g>
<!-- Node13 -->
<g id="node13" class="node">
<title>Node13</title>
<g id="a_node13"><a xlink:href="../../d7/d8a/btbookshelftaskpage_8h.html" target="_top" xlink:title=" ">
<polygon fill="white" stroke="black" points="1261.5,-56.5 1261.5,-75.5 1389.5,-75.5 1389.5,-56.5 1261.5,-56.5"/>
<text text-anchor="middle" x="1325.5" y="-63.5" font-family="Helvetica,sans-Serif" font-size="10.00">btbookshelftaskpage.h</text>
</a>
</g>
</g>
<!-- Node1&#45;&gt;Node13 -->
<g id="edge16" class="edge">
<title>Node1&#45;&gt;Node13</title>
<path fill="none" stroke="midnightblue" d="M1097.33,-110.54C1150.82,-100.33 1231.17,-85 1280.87,-75.52"/>
<polygon fill="midnightblue" stroke="midnightblue" points="1096.51,-107.13 1087.34,-112.44 1097.82,-114.01 1096.51,-107.13"/>
</g>
<!-- Node14 -->
<g id="node14" class="node">
<title>Node14</title>
<g id="a_node14"><a xlink:href="../../d6/d8d/btbookshelfworkspage_8h.html" target="_top" xlink:title=" ">
<polygon fill="white" stroke="black" points="1418.5,-56.5 1418.5,-75.5 1554.5,-75.5 1554.5,-56.5 1418.5,-56.5"/>
<text text-anchor="middle" x="1486.5" y="-63.5" font-family="Helvetica,sans-Serif" font-size="10.00">btbookshelfworkspage.h</text>
</a>
</g>
</g>
<!-- Node1&#45;&gt;Node14 -->
<g id="edge20" class="edge">
<title>Node1&#45;&gt;Node14</title>
<path fill="none" stroke="midnightblue" d="M1122.91,-111.22C1207.37,-100.95 1338.74,-84.97 1418.3,-75.29"/>
<polygon fill="midnightblue" stroke="midnightblue" points="1122.36,-107.76 1112.85,-112.44 1123.2,-114.71 1122.36,-107.76"/>
</g>
<!-- Node3 -->
<g id="node3" class="node">
<title>Node3</title>
<g id="a_node3"><a xlink:href="../../d6/d96/bibletime__slots_8cpp.html" target="_top" xlink:title=" ">
<polygon fill="white" stroke="black" points="546.5,-0.5 546.5,-19.5 658.5,-19.5 658.5,-0.5 546.5,-0.5"/>
<text text-anchor="middle" x="602.5" y="-7.5" font-family="Helvetica,sans-Serif" font-size="10.00">bibletime_slots.cpp</text>
</a>
</g>
</g>
<!-- Node2&#45;&gt;Node3 -->
<g id="edge2" class="edge">
<title>Node2&#45;&gt;Node3</title>
<path fill="none" stroke="midnightblue" d="M881.86,-54.85C816.87,-44.65 717.79,-29.1 656.75,-19.52"/>
<polygon fill="midnightblue" stroke="midnightblue" points="881.57,-58.35 891.99,-56.44 882.66,-51.44 881.57,-58.35"/>
</g>
<!-- Node2&#45;&gt;Node4 -->
<g id="edge3" class="edge">
<title>Node2&#45;&gt;Node4</title>
<path fill="none" stroke="midnightblue" d="M878.44,-61.89C744.25,-55.56 436.1,-40.07 177.5,-20 174.75,-19.79 171.96,-19.56 169.14,-19.33"/>
<polygon fill="midnightblue" stroke="midnightblue" points="878.41,-65.39 888.57,-62.36 878.74,-58.4 878.41,-65.39"/>
</g>
<!-- Node2&#45;&gt;Node5 -->
<g id="edge4" class="edge">
<title>Node2&#45;&gt;Node5</title>
<path fill="none" stroke="midnightblue" d="M878.79,-60.2C770.08,-52.4 549.9,-36.21 363.5,-20 360.59,-19.75 357.63,-19.49 354.64,-19.22"/>
<polygon fill="midnightblue" stroke="midnightblue" points="878.73,-63.71 888.96,-60.93 879.23,-56.73 878.73,-63.71"/>
</g>
<!-- Node6 -->
<g id="node6" class="node">
<title>Node6</title>
<g id="a_node6"><a xlink:href="../../d0/da0/btbookshelfremovefinalpage_8cpp.html" target="_top" xlink:title=" ">
<polygon fill="white" stroke="black" points="677,-0.5 677,-19.5 854,-19.5 854,-0.5 677,-0.5"/>
<text text-anchor="middle" x="765.5" y="-7.5" font-family="Helvetica,sans-Serif" font-size="10.00">btbookshelfremovefinalpage.cpp</text>
</a>
</g>
</g>
<!-- Node2&#45;&gt;Node6 -->
<g id="edge5" class="edge">
<title>Node2&#45;&gt;Node6</title>
<path fill="none" stroke="midnightblue" d="M908.18,-53.57C874.04,-43.38 824.84,-28.7 794.05,-19.52"/>
<polygon fill="midnightblue" stroke="midnightblue" points="907.24,-56.94 917.82,-56.44 909.24,-50.23 907.24,-56.94"/>
</g>
<!-- Node2&#45;&gt;Node7 -->
<g id="edge6" class="edge">
<title>Node2&#45;&gt;Node7</title>
<path fill="none" stroke="midnightblue" d="M878.67,-57.61C787.32,-47.67 625.15,-30.01 528.76,-19.52"/>
<polygon fill="midnightblue" stroke="midnightblue" points="878.31,-61.1 888.63,-58.7 879.07,-54.14 878.31,-61.1"/>
</g>
<!-- Node2&#45;&gt;Node8 -->
<g id="edge7" class="edge">
<title>Node2&#45;&gt;Node8</title>
<path fill="none" stroke="midnightblue" d="M986.68,-53.7C1022.92,-43.51 1075.41,-28.74 1108.22,-19.52"/>
<polygon fill="midnightblue" stroke="midnightblue" points="985.6,-50.37 976.92,-56.44 987.5,-57.11 985.6,-50.37"/>
</g>
<!-- Node9 -->
<g id="node9" class="node">
<title>Node9</title>
<g id="a_node9"><a xlink:href="../../de/db2/btbookshelftaskpage_8cpp.html" target="_top" xlink:title=" ">
<polygon fill="white" stroke="black" points="1256,-0.5 1256,-19.5 1395,-19.5 1395,-0.5 1256,-0.5"/>
<text text-anchor="middle" x="1325.5" y="-7.5" font-family="Helvetica,sans-Serif" font-size="10.00">btbookshelftaskpage.cpp</text>
</a>
</g>
</g>
<!-- Node2&#45;&gt;Node9 -->
<g id="edge8" class="edge">
<title>Node2&#45;&gt;Node9</title>
<path fill="none" stroke="midnightblue" d="M1014.32,-55.34C1085.87,-45.14 1197.52,-29.23 1265.83,-19.5"/>
<polygon fill="midnightblue" stroke="midnightblue" points="1013.47,-51.92 1004.06,-56.8 1014.46,-58.85 1013.47,-51.92"/>
</g>
<!-- Node2&#45;&gt;Node10 -->
<g id="edge9" class="edge">
<title>Node2&#45;&gt;Node10</title>
<path fill="none" stroke="midnightblue" d="M1014.15,-61.27C1128.65,-54.71 1367.84,-39.87 1569.5,-20 1572.38,-19.72 1575.33,-19.41 1578.3,-19.09"/>
<polygon fill="midnightblue" stroke="midnightblue" points="1013.92,-57.78 1004.13,-61.85 1014.32,-64.77 1013.92,-57.78"/>
</g>
<!-- Node11 -->
<g id="node11" class="node">
<title>Node11</title>
<g id="a_node11"><a xlink:href="../../da/da3/btbookshelfwizardpage_8cpp.html" target="_top" xlink:title=" ">
<polygon fill="white" stroke="black" points="871.5,-0.5 871.5,-19.5 1021.5,-19.5 1021.5,-0.5 871.5,-0.5"/>
<text text-anchor="middle" x="946.5" y="-7.5" font-family="Helvetica,sans-Serif" font-size="10.00">btbookshelfwizardpage.cpp</text>
</a>
</g>
</g>
<!-- Node2&#45;&gt;Node11 -->
<g id="edge10" class="edge">
<title>Node2&#45;&gt;Node11</title>
<path fill="none" stroke="midnightblue" d="M946.5,-45.8C946.5,-36.91 946.5,-26.78 946.5,-19.75"/>
<polygon fill="midnightblue" stroke="midnightblue" points="943,-46.08 946.5,-56.08 950,-46.08 943,-46.08"/>
</g>
<!-- Node12 -->
<g id="node12" class="node">
<title>Node12</title>
<g id="a_node12"><a xlink:href="../../d9/d03/btbookshelfworkspage_8cpp.html" target="_top" xlink:title=" ">
<polygon fill="white" stroke="black" points="1413,-0.5 1413,-19.5 1560,-19.5 1560,-0.5 1413,-0.5"/>
<text text-anchor="middle" x="1486.5" y="-7.5" font-family="Helvetica,sans-Serif" font-size="10.00">btbookshelfworkspage.cpp</text>
</a>
</g>
</g>
<!-- Node2&#45;&gt;Node12 -->
<g id="edge11" class="edge">
<title>Node2&#45;&gt;Node12</title>
<path fill="none" stroke="midnightblue" d="M1014.22,-58.54C1103.46,-49.98 1265.29,-34.3 1403.5,-20 1406.53,-19.69 1409.62,-19.36 1412.74,-19.04"/>
<polygon fill="midnightblue" stroke="midnightblue" points="1013.85,-55.06 1004.23,-59.5 1014.52,-62.03 1013.85,-55.06"/>
</g>
<!-- Node13&#45;&gt;Node9 -->
<g id="edge17" class="edge">
<title>Node13&#45;&gt;Node9</title>
<path fill="none" stroke="midnightblue" d="M1325.5,-45.8C1325.5,-36.91 1325.5,-26.78 1325.5,-19.75"/>
<polygon fill="midnightblue" stroke="midnightblue" points="1322,-46.08 1325.5,-56.08 1329,-46.08 1322,-46.08"/>
</g>
<!-- Node13&#45;&gt;Node10 -->
<g id="edge18" class="edge">
<title>Node13&#45;&gt;Node10</title>
<path fill="none" stroke="midnightblue" d="M1385.61,-54.73C1445.33,-44.52 1535.83,-29.06 1591.66,-19.52"/>
<polygon fill="midnightblue" stroke="midnightblue" points="1384.84,-51.31 1375.57,-56.44 1386.02,-58.21 1384.84,-51.31"/>
</g>
<!-- Node14&#45;&gt;Node10 -->
<g id="edge21" class="edge">
<title>Node14&#45;&gt;Node10</title>
<path fill="none" stroke="midnightblue" d="M1520.83,-53.04C1550,-42.88 1591.14,-28.55 1617.05,-19.52"/>
<polygon fill="midnightblue" stroke="midnightblue" points="1519.35,-49.85 1511.06,-56.44 1521.66,-56.46 1519.35,-49.85"/>
</g>
<!-- Node14&#45;&gt;Node12 -->
<g id="edge22" class="edge">
<title>Node14&#45;&gt;Node12</title>
<path fill="none" stroke="midnightblue" d="M1486.5,-45.8C1486.5,-36.91 1486.5,-26.78 1486.5,-19.75"/>
<polygon fill="midnightblue" stroke="midnightblue" points="1483,-46.08 1486.5,-56.08 1490,-46.08 1483,-46.08"/>
</g>
</g>
</svg>
        <g id="navigator" transform="translate(0 0)" fill="#404254">
                <rect fill="#f2f5e9" fill-opacity="0.5" stroke="#606060" stroke-width=".5" x="0" y="0" width="60" height="60"/>
                <use id="zoomplus" xlink:href="#zoomPlus" x="17" y="9" onmousedown="handleZoom(evt,'in')"/>
                <use id="zoomminus" xlink:href="#zoomMin" x="42" y="9" onmousedown="handleZoom(evt,'out')"/>
                <use id="reset" xlink:href="#resetDef" x="30" y="36" onmousedown="handleReset()"/>
                <g id="arrowUp" xlink:href="#dirArrow" transform="translate(30 24)" onmousedown="handlePan(0,-1)">
                  <use xlink:href="#rim" fill="#404040">
                        <set attributeName="fill" to="#808080" begin="arrowUp.mouseover" end="arrowUp.mouseout"/>
                  </use>
                  <path fill="none" stroke="white" stroke-width="1.5" d="M0,-3.0v7 M-2.5,-0.5L0,-3.0L2.5,-0.5"/>
                </g>
                <g id="arrowRight" xlink:href="#dirArrow" transform="rotate(90) translate(36 -43)" onmousedown="handlePan(1,0)">
                  <use xlink:href="#rim" fill="#404040">
                        <set attributeName="fill" to="#808080" begin="arrowRight.mouseover" end="arrowRight.mouseout"/>
                  </use>
                  <path fill="none" stroke="white" stroke-width="1.5" d="M0,-3.0v7 M-2.5,-0.5L0,-3.0L2.5,-0.5"/>
                </g>
                <g id="arrowDown" xlink:href="#dirArrow" transform="rotate(180) translate(-30 -48)" onmousedown="handlePan(0,1)">
                  <use xlink:href="#rim" fill="#404040">
                        <set attributeName="fill" to="#808080" begin="arrowDown.mouseover" end="arrowDown.mouseout"/>
                  </use>
                  <path fill="none" stroke="white" stroke-width="1.5" d="M0,-3.0v7 M-2.5,-0.5L0,-3.0L2.5,-0.5"/>
                </g>
                <g id="arrowLeft" xlink:href="#dirArrow" transform="rotate(270) translate(-36 17)" onmousedown="handlePan(-1,0)">
                  <use xlink:href="#rim" fill="#404040">
                        <set attributeName="fill" to="#808080" begin="arrowLeft.mouseover" end="arrowLeft.mouseout"/>
                  </use>
                  <path fill="none" stroke="white" stroke-width="1.5" d="M0,-3.0v7 M-2.5,-0.5L0,-3.0L2.5,-0.5"/>
                </g>
        </g>
        <svg viewBox="0 0 15 15" width="100%" height="30px" preserveAspectRatio="xMaxYMin meet">
         <g id="arrow_out" transform="scale(0.3 0.3)">
          <a xlink:href="btbookshelfwizardenums_8h__dep__incl_org.svg" target="_base">
           <rect id="button" ry="5" rx="5" y="6" x="6" height="38" width="38"
                fill="#f2f5e9" fill-opacity="0.5" stroke="#606060" stroke-width="1.0"/>
           <path id="arrow"
             d="M 11.500037,31.436501 C 11.940474,20.09759 22.043105,11.32322 32.158766,21.979434 L 37.068811,17.246167 C 37.068811,17.246167 37.088388,32 37.088388,32 L 22.160133,31.978069 C 22.160133,31.978069 26.997745,27.140456 26.997745,27.140456 C 18.528582,18.264221 13.291696,25.230495 11.500037,31.436501 z"
             style="fill:#404040;"/>
          </a>
         </g>
        </svg>
</svg>
