<?xml version="1.0" encoding="UTF-8" standalone="no"?>
<!DOCTYPE svg PUBLIC "-//W3C//DTD SVG 1.1//EN"
 "http://www.w3.org/Graphics/SVG/1.1/DTD/svg11.dtd">
<!-- Generated by graphviz version 2.43.0 (0)
 -->
<!-- Title: btbookshelfwizardenums.h Pages: 1 -->
<!--zoomable 140 -->
<svg id="main" version="1.1" xmlns="http://www.w3.org/2000/svg" xmlns:xlink="http://www.w3.org/1999/xlink" xml:space="preserve" onload="init(evt)">
<style type="text/css"><![CDATA[
.edge:hover path { stroke: red; }
.edge:hover polygon { stroke: red; fill: red; }
]]></style>
<script type="text/javascript"><![CDATA[
var edges = document.getElementsByTagName('g');
if (edges && edges.length) {
  for (var i=0;i<edges.length;i++) {
    if (edges[i].id.substr(0,4)=='edge') {
      edges[i].setAttribute('class','edge');
    }
  }
}
]]></script>
        <defs>
                <circle id="rim" cx="0" cy="0" r="7"/>
                <circle id="rim2" cx="0" cy="0" r="3.5"/>
                <g id="zoomPlus">
                        <use xlink:href="#rim" fill="#404040">
                                <set attributeName="fill" to="#808080" begin="zoomplus.mouseover" end="zoomplus.mouseout"/>
                        </use>
                        <path d="M-4,0h8M0,-4v8" fill="none" stroke="white" stroke-width="1.5" pointer-events="none"/>
                </g>
                <g id="zoomMin">
                        <use xlink:href="#rim" fill="#404040">
                                <set attributeName="fill" to="#808080" begin="zoomminus.mouseover" end="zoomminus.mouseout"/>
                        </use>
                        <path d="M-4,0h8" fill="none" stroke="white" stroke-width="1.5" pointer-events="none"/>
                </g>
                <g id="dirArrow">
                        <path fill="none" stroke="white" stroke-width="1.5" d="M0,-3.0v7 M-2.5,-0.5L0,-3.0L2.5,-0.5"/>
                </g>
               <g id="resetDef">
                       <use xlink:href="#rim2" fill="#404040">
                               <set attributeName="fill" to="#808080" begin="reset.mouseover" end="reset.mouseout"/>
                       </use>
               </g>
        </defs>

<script type="text/javascript">
var viewWidth = 1713;
var viewHeight = 140;
var sectionId = 'dynsection-0';
</script>
<script xlink:href="../../svgpan.js"/>
<svg id="graph" class="graph">
<g id="viewport">
<title>btbookshelfwizardenums.h</title>
<polygon fill="white" stroke="transparent" points="-4,4 -4,-136 1708.5,-136 1708.5,4 -4,4"/>
<!-- Node1 -->
<g id="node1" class="node">
<title>Node1</title>
<g id="a_node1"><a xlink:title=" ">
<polygon fill="#bfbfbf" stroke="black" points="700.5,-112.5 700.5,-131.5 848.5,-131.5 848.5,-112.5 700.5,-112.5"/>
<text text-anchor="middle" x="774.5" y="-119.5" font-family="Helvetica,sans-Serif" font-size="10.00">btbookshelfwizardenums.h</text>
</a>
</g>
</g>
<!-- Node2 -->
<g id="node2" class="node">
<title>Node2</title>
<g id="a_node2"><a xlink:href="../../dc/d04/btbookshelfinstallfinalpage_8cpp.html" target="_top" xlink:title=" ">
<polygon fill="white" stroke="black" points="0,-0.5 0,-19.5 169,-19.5 169,-0.5 0,-0.5"/>
<text text-anchor="middle" x="84.5" y="-7.5" font-family="Helvetica,sans-Serif" font-size="10.00">btbookshelfinstallfinalpage.cpp</text>
</a>
</g>
</g>
<!-- Node1&#45;&gt;Node2 -->
<g id="edge1" class="edge">
<title>Node1&#45;&gt;Node2</title>
<path fill="none" stroke="midnightblue" d="M705.44,-111.02C644.39,-102.11 552.97,-88.58 473.5,-76 351.26,-56.65 207.71,-32.22 133.89,-19.53"/>
<polygon fill="midnightblue" stroke="midnightblue" points="704.94,-114.48 715.34,-112.46 705.95,-107.56 704.94,-114.48"/>
</g>
<!-- Node3 -->
<g id="node3" class="node">
<title>Node3</title>
<g id="a_node3"><a xlink:href="../../d0/da5/btbookshelflanguagespage_8cpp.html" target="_top" xlink:title=" ">
<polygon fill="white" stroke="black" points="186.5,-0.5 186.5,-19.5 354.5,-19.5 354.5,-0.5 186.5,-0.5"/>
<text text-anchor="middle" x="270.5" y="-7.5" font-family="Helvetica,sans-Serif" font-size="10.00">btbookshelflanguagespage.cpp</text>
</a>
</g>
</g>
<!-- Node1&#45;&gt;Node3 -->
<g id="edge2" class="edge">
<title>Node1&#45;&gt;Node3</title>
<path fill="none" stroke="midnightblue" d="M725.54,-110.31C625.72,-88.53 400.47,-39.37 309.6,-19.53"/>
<polygon fill="midnightblue" stroke="midnightblue" points="724.85,-113.75 735.37,-112.46 726.35,-106.91 724.85,-113.75"/>
</g>
<!-- Node4 -->
<g id="node4" class="node">
<title>Node4</title>
<g id="a_node4"><a xlink:href="../../da/dde/btbookshelfsourcespage_8cpp.html" target="_top" xlink:title=" ">
<polygon fill="white" stroke="black" points="372.5,-0.5 372.5,-19.5 528.5,-19.5 528.5,-0.5 372.5,-0.5"/>
<text text-anchor="middle" x="450.5" y="-7.5" font-family="Helvetica,sans-Serif" font-size="10.00">btbookshelfsourcespage.cpp</text>
</a>
</g>
</g>
<!-- Node1&#45;&gt;Node4 -->
<g id="edge3" class="edge">
<title>Node1&#45;&gt;Node4</title>
<path fill="none" stroke="midnightblue" d="M739.87,-109.24C674.3,-86.98 533.48,-39.17 475.86,-19.61"/>
<polygon fill="midnightblue" stroke="midnightblue" points="738.75,-112.56 749.35,-112.46 741,-105.93 738.75,-112.56"/>
</g>
<!-- Node5 -->
<g id="node5" class="node">
<title>Node5</title>
<g id="a_node5"><a xlink:href="../../d4/d54/btbookshelfsourcesprogresspage_8cpp.html" target="_top" xlink:title=" ">
<polygon fill="white" stroke="black" points="546.5,-0.5 546.5,-19.5 744.5,-19.5 744.5,-0.5 546.5,-0.5"/>
<text text-anchor="middle" x="645.5" y="-7.5" font-family="Helvetica,sans-Serif" font-size="10.00">btbookshelfsourcesprogresspage.cpp</text>
</a>
</g>
</g>
<!-- Node1&#45;&gt;Node5 -->
<g id="edge4" class="edge">
<title>Node1&#45;&gt;Node5</title>
<path fill="none" stroke="midnightblue" d="M756.69,-105.82C729.22,-82.39 677.39,-38.19 655.58,-19.59"/>
<polygon fill="midnightblue" stroke="midnightblue" points="754.5,-108.54 764.38,-112.37 759.04,-103.22 754.5,-108.54"/>
</g>
<!-- Node6 -->
<g id="node6" class="node">
<title>Node6</title>
<g id="a_node6"><a xlink:href="../../d7/d8a/btbookshelftaskpage_8h.html" target="_top" xlink:title=" ">
<polygon fill="white" stroke="black" points="1261.5,-56.5 1261.5,-75.5 1389.5,-75.5 1389.5,-56.5 1261.5,-56.5"/>
<text text-anchor="middle" x="1325.5" y="-63.5" font-family="Helvetica,sans-Serif" font-size="10.00">btbookshelftaskpage.h</text>
</a>
</g>
</g>
<!-- Node1&#45;&gt;Node6 -->
<g id="edge5" class="edge">
<title>Node1&#45;&gt;Node6</title>
<path fill="none" stroke="midnightblue" d="M858.65,-112.75C969.35,-101.9 1161.51,-83.07 1261.26,-73.3"/>
<polygon fill="midnightblue" stroke="midnightblue" points="858.14,-109.29 848.52,-113.75 858.82,-116.25 858.14,-109.29"/>
</g>
<!-- Node8 -->
<g id="node8" class="node">
<title>Node8</title>
<g id="a_node8"><a xlink:href="../../d6/d54/btbookshelfwizard_8cpp.html" target="_top" xlink:title=" ">
<polygon fill="white" stroke="black" points="1578.5,-0.5 1578.5,-19.5 1704.5,-19.5 1704.5,-0.5 1578.5,-0.5"/>
<text text-anchor="middle" x="1641.5" y="-7.5" font-family="Helvetica,sans-Serif" font-size="10.00">btbookshelfwizard.cpp</text>
</a>
</g>
</g>
<!-- Node1&#45;&gt;Node8 -->
<g id="edge8" class="edge">
<title>Node1&#45;&gt;Node8</title>
<path fill="none" stroke="midnightblue" d="M858.73,-119.18C1048.77,-114.64 1499.31,-101.33 1563.5,-76 1594.33,-63.84 1621.94,-34.48 1634.44,-19.75"/>
<polygon fill="midnightblue" stroke="midnightblue" points="858.43,-115.68 848.51,-119.42 858.59,-122.68 858.43,-115.68"/>
</g>
<!-- Node9 -->
<g id="node9" class="node">
<title>Node9</title>
<g id="a_node9"><a xlink:href="../../d9/d64/btbookshelfwizard_8h.html" target="_top" xlink:title=" ">
<polygon fill="white" stroke="black" points="761,-56.5 761,-75.5 876,-75.5 876,-56.5 761,-56.5"/>
<text text-anchor="middle" x="818.5" y="-63.5" font-family="Helvetica,sans-Serif" font-size="10.00">btbookshelfwizard.h</text>
</a>
</g>
</g>
<!-- Node1&#45;&gt;Node9 -->
<g id="edge9" class="edge">
<title>Node1&#45;&gt;Node9</title>
<path fill="none" stroke="midnightblue" d="M788.23,-104.14C795.9,-94.74 805.13,-83.4 811.37,-75.75"/>
<polygon fill="midnightblue" stroke="midnightblue" points="785.37,-102.12 781.77,-112.08 790.8,-106.54 785.37,-102.12"/>
</g>
<!-- Node14 -->
<g id="node14" class="node">
<title>Node14</title>
<g id="a_node14"><a xlink:href="../../d6/d8d/btbookshelfworkspage_8h.html" target="_top" xlink:title=" ">
<polygon fill="white" stroke="black" points="1418.5,-56.5 1418.5,-75.5 1554.5,-75.5 1554.5,-56.5 1418.5,-56.5"/>
<text text-anchor="middle" x="1486.5" y="-63.5" font-family="Helvetica,sans-Serif" font-size="10.00">btbookshelfworkspage.h</text>
</a>
</g>
</g>
<!-- Node1&#45;&gt;Node14 -->
<g id="edge20" class="edge">
<title>Node1&#45;&gt;Node14</title>
<path fill="none" stroke="midnightblue" d="M858.73,-115.73C978.68,-108.04 1205.57,-92.82 1398.5,-76 1404.93,-75.44 1411.61,-74.82 1418.3,-74.18"/>
<polygon fill="midnightblue" stroke="midnightblue" points="858.28,-112.25 848.52,-116.38 858.72,-119.24 858.28,-112.25"/>
</g>
<!-- Node7 -->
<g id="node7" class="node">
<title>Node7</title>
<g id="a_node7"><a xlink:href="../../de/db2/btbookshelftaskpage_8cpp.html" target="_top" xlink:title=" ">
<polygon fill="white" stroke="black" points="1256,-0.5 1256,-19.5 1395,-19.5 1395,-0.5 1256,-0.5"/>
<text text-anchor="middle" x="1325.5" y="-7.5" font-family="Helvetica,sans-Serif" font-size="10.00">btbookshelftaskpage.cpp</text>
</a>
</g>
</g>
<!-- Node6&#45;&gt;Node7 -->
<g id="edge6" class="edge">
<title>Node6&#45;&gt;Node7</title>
<path fill="none" stroke="midnightblue" d="M1325.5,-45.8C1325.5,-36.91 1325.5,-26.78 1325.5,-19.75"/>
<polygon fill="midnightblue" stroke="midnightblue" points="1322,-46.08 1325.5,-56.08 1329,-46.08 1322,-46.08"/>
</g>
<!-- Node6&#45;&gt;Node8 -->
<g id="edge7" class="edge">
<title>Node6&#45;&gt;Node8</title>
<path fill="none" stroke="midnightblue" d="M1385.61,-54.73C1445.33,-44.52 1535.83,-29.06 1591.66,-19.52"/>
<polygon fill="midnightblue" stroke="midnightblue" points="1384.84,-51.31 1375.57,-56.44 1386.02,-58.21 1384.84,-51.31"/>
</g>
<!-- Node9&#45;&gt;Node2 -->
<g id="edge11" class="edge">
<title>Node9&#45;&gt;Node2</title>
<path fill="none" stroke="midnightblue" d="M750.32,-60.81C633.14,-53.47 386.05,-37.41 177.5,-20 174.75,-19.77 171.96,-19.53 169.14,-19.29"/>
<polygon fill="midnightblue" stroke="midnightblue" points="750.37,-64.32 760.57,-61.45 750.8,-57.33 750.37,-64.32"/>
</g>
<!-- Node9&#45;&gt;Node3 -->
<g id="edge12" class="edge">
<title>Node9&#45;&gt;Node3</title>
<path fill="none" stroke="midnightblue" d="M750.91,-58.34C650.94,-48.49 463.8,-30.05 354.94,-19.32"/>
<polygon fill="midnightblue" stroke="midnightblue" points="750.6,-61.83 760.89,-59.32 751.28,-54.86 750.6,-61.83"/>
</g>
<!-- Node9&#45;&gt;Node4 -->
<g id="edge14" class="edge">
<title>Node9&#45;&gt;Node4</title>
<path fill="none" stroke="midnightblue" d="M750.63,-55.04C681.17,-44.85 574.38,-29.18 508.67,-19.54"/>
<polygon fill="midnightblue" stroke="midnightblue" points="750.19,-58.51 760.6,-56.5 751.21,-51.59 750.19,-58.51"/>
</g>
<!-- Node9&#45;&gt;Node5 -->
<g id="edge15" class="edge">
<title>Node9&#45;&gt;Node5</title>
<path fill="none" stroke="midnightblue" d="M781.45,-53.44C748.84,-43.26 702.09,-28.66 672.78,-19.52"/>
<polygon fill="midnightblue" stroke="midnightblue" points="780.5,-56.8 791.09,-56.44 782.58,-50.12 780.5,-56.8"/>
</g>
<!-- Node9&#45;&gt;Node7 -->
<g id="edge16" class="edge">
<title>Node9&#45;&gt;Node7</title>
<path fill="none" stroke="midnightblue" d="M886.29,-58.06C970.7,-49.37 1119.28,-33.93 1246.5,-20 1249.52,-19.67 1252.6,-19.33 1255.72,-18.98"/>
<polygon fill="midnightblue" stroke="midnightblue" points="885.91,-54.58 876.32,-59.08 886.63,-61.54 885.91,-54.58"/>
</g>
<!-- Node9&#45;&gt;Node8 -->
<g id="edge17" class="edge">
<title>Node9&#45;&gt;Node8</title>
<path fill="none" stroke="midnightblue" d="M886.41,-62.4C1018.28,-57.03 1318.13,-43.22 1569.5,-20 1572.39,-19.73 1575.33,-19.44 1578.31,-19.13"/>
<polygon fill="midnightblue" stroke="midnightblue" points="885.92,-58.92 876.07,-62.82 886.2,-65.91 885.92,-58.92"/>
</g>
<!-- Node10 -->
<g id="node10" class="node">
<title>Node10</title>
<g id="a_node10"><a xlink:href="../../d6/d96/bibletime__slots_8cpp.html" target="_top" xlink:title=" ">
<polygon fill="white" stroke="black" points="762.5,-0.5 762.5,-19.5 874.5,-19.5 874.5,-0.5 762.5,-0.5"/>
<text text-anchor="middle" x="818.5" y="-7.5" font-family="Helvetica,sans-Serif" font-size="10.00">bibletime_slots.cpp</text>
</a>
</g>
</g>
<!-- Node9&#45;&gt;Node10 -->
<g id="edge10" class="edge">
<title>Node9&#45;&gt;Node10</title>
<path fill="none" stroke="midnightblue" d="M818.5,-45.8C818.5,-36.91 818.5,-26.78 818.5,-19.75"/>
<polygon fill="midnightblue" stroke="midnightblue" points="815,-46.08 818.5,-56.08 822,-46.08 815,-46.08"/>
</g>
<!-- Node11 -->
<g id="node11" class="node">
<title>Node11</title>
<g id="a_node11"><a xlink:href="../../d0/da0/btbookshelfremovefinalpage_8cpp.html" target="_top" xlink:title=" ">
<polygon fill="white" stroke="black" points="893,-0.5 893,-19.5 1070,-19.5 1070,-0.5 893,-0.5"/>
<text text-anchor="middle" x="981.5" y="-7.5" font-family="Helvetica,sans-Serif" font-size="10.00">btbookshelfremovefinalpage.cpp</text>
</a>
</g>
</g>
<!-- Node9&#45;&gt;Node11 -->
<g id="edge13" class="edge">
<title>Node9&#45;&gt;Node11</title>
<path fill="none" stroke="midnightblue" d="M854.2,-53.17C884.9,-43 928.42,-28.59 955.79,-19.52"/>
<polygon fill="midnightblue" stroke="midnightblue" points="852.72,-49.98 844.33,-56.44 854.92,-56.62 852.72,-49.98"/>
</g>
<!-- Node12 -->
<g id="node12" class="node">
<title>Node12</title>
<g id="a_node12"><a xlink:href="../../da/da3/btbookshelfwizardpage_8cpp.html" target="_top" xlink:title=" ">
<polygon fill="white" stroke="black" points="1087.5,-0.5 1087.5,-19.5 1237.5,-19.5 1237.5,-0.5 1087.5,-0.5"/>
<text text-anchor="middle" x="1162.5" y="-7.5" font-family="Helvetica,sans-Serif" font-size="10.00">btbookshelfwizardpage.cpp</text>
</a>
</g>
</g>
<!-- Node9&#45;&gt;Node12 -->
<g id="edge18" class="edge">
<title>Node9&#45;&gt;Node12</title>
<path fill="none" stroke="midnightblue" d="M883.14,-54.85C948.13,-44.65 1047.21,-29.1 1108.25,-19.52"/>
<polygon fill="midnightblue" stroke="midnightblue" points="882.34,-51.44 873.01,-56.44 883.43,-58.35 882.34,-51.44"/>
</g>
<!-- Node13 -->
<g id="node13" class="node">
<title>Node13</title>
<g id="a_node13"><a xlink:href="../../d9/d03/btbookshelfworkspage_8cpp.html" target="_top" xlink:title=" ">
<polygon fill="white" stroke="black" points="1413,-0.5 1413,-19.5 1560,-19.5 1560,-0.5 1413,-0.5"/>
<text text-anchor="middle" x="1486.5" y="-7.5" font-family="Helvetica,sans-Serif" font-size="10.00">btbookshelfworkspage.cpp</text>
</a>
</g>
</g>
<!-- Node9&#45;&gt;Node13 -->
<g id="edge19" class="edge">
<title>Node9&#45;&gt;Node13</title>
<path fill="none" stroke="midnightblue" d="M886.46,-60.46C995.58,-53.03 1216.56,-37.32 1403.5,-20 1406.53,-19.72 1409.62,-19.42 1412.75,-19.12"/>
<polygon fill="midnightblue" stroke="midnightblue" points="886,-56.99 876.26,-61.16 886.47,-63.97 886,-56.99"/>
</g>
<!-- Node14&#45;&gt;Node8 -->
<g id="edge21" class="edge">
<title>Node14&#45;&gt;Node8</title>
<path fill="none" stroke="midnightblue" d="M1520.83,-53.04C1550,-42.88 1591.14,-28.55 1617.05,-19.52"/>
<polygon fill="midnightblue" stroke="midnightblue" points="1519.35,-49.85 1511.06,-56.44 1521.66,-56.46 1519.35,-49.85"/>
</g>
<!-- Node14&#45;&gt;Node13 -->
<g id="edge22" class="edge">
<title>Node14&#45;&gt;Node13</title>
<path fill="none" stroke="midnightblue" d="M1486.5,-45.8C1486.5,-36.91 1486.5,-26.78 1486.5,-19.75"/>
<polygon fill="midnightblue" stroke="midnightblue" points="1483,-46.08 1486.5,-56.08 1490,-46.08 1483,-46.08"/>
</g>
</g>
</svg>
        <g id="navigator" transform="translate(0 0)" fill="#404254">
                <rect fill="#f2f5e9" fill-opacity="0.5" stroke="#606060" stroke-width=".5" x="0" y="0" width="60" height="60"/>
                <use id="zoomplus" xlink:href="#zoomPlus" x="17" y="9" onmousedown="handleZoom(evt,'in')"/>
                <use id="zoomminus" xlink:href="#zoomMin" x="42" y="9" onmousedown="handleZoom(evt,'out')"/>
                <use id="reset" xlink:href="#resetDef" x="30" y="36" onmousedown="handleReset()"/>
                <g id="arrowUp" xlink:href="#dirArrow" transform="translate(30 24)" onmousedown="handlePan(0,-1)">
                  <use xlink:href="#rim" fill="#404040">
                        <set attributeName="fill" to="#808080" begin="arrowUp.mouseover" end="arrowUp.mouseout"/>
                  </use>
                  <path fill="none" stroke="white" stroke-width="1.5" d="M0,-3.0v7 M-2.5,-0.5L0,-3.0L2.5,-0.5"/>
                </g>
                <g id="arrowRight" xlink:href="#dirArrow" transform="rotate(90) translate(36 -43)" onmousedown="handlePan(1,0)">
                  <use xlink:href="#rim" fill="#404040">
                        <set attributeName="fill" to="#808080" begin="arrowRight.mouseover" end="arrowRight.mouseout"/>
                  </use>
                  <path fill="none" stroke="white" stroke-width="1.5" d="M0,-3.0v7 M-2.5,-0.5L0,-3.0L2.5,-0.5"/>
                </g>
                <g id="arrowDown" xlink:href="#dirArrow" transform="rotate(180) translate(-30 -48)" onmousedown="handlePan(0,1)">
                  <use xlink:href="#rim" fill="#404040">
                        <set attributeName="fill" to="#808080" begin="arrowDown.mouseover" end="arrowDown.mouseout"/>
                  </use>
                  <path fill="none" stroke="white" stroke-width="1.5" d="M0,-3.0v7 M-2.5,-0.5L0,-3.0L2.5,-0.5"/>
                </g>
                <g id="arrowLeft" xlink:href="#dirArrow" transform="rotate(270) translate(-36 17)" onmousedown="handlePan(-1,0)">
                  <use xlink:href="#rim" fill="#404040">
                        <set attributeName="fill" to="#808080" begin="arrowLeft.mouseover" end="arrowLeft.mouseout"/>
                  </use>
                  <path fill="none" stroke="white" stroke-width="1.5" d="M0,-3.0v7 M-2.5,-0.5L0,-3.0L2.5,-0.5"/>
                </g>
        </g>
        <svg viewBox="0 0 15 15" width="100%" height="30px" preserveAspectRatio="xMaxYMin meet">
         <g id="arrow_out" transform="scale(0.3 0.3)">
          <a xlink:href="btbookshelfwizardenums_8h__dep__incl_org.svg" target="_base">
           <rect id="button" ry="5" rx="5" y="6" x="6" height="38" width="38"
                fill="#f2f5e9" fill-opacity="0.5" stroke="#606060" stroke-width="1.0"/>
           <path id="arrow"
             d="M 11.500037,31.436501 C 11.940474,20.09759 22.043105,11.32322 32.158766,21.979434 L 37.068811,17.246167 C 37.068811,17.246167 37.088388,32 37.088388,32 L 22.160133,31.978069 C 22.160133,31.978069 26.997745,27.140456 26.997745,27.140456 C 18.528582,18.264221 13.291696,25.230495 11.500037,31.436501 z"
             style="fill:#404040;"/>
          </a>
         </g>
        </svg>
</svg>
