<?xml version="1.0" encoding="UTF-8" standalone="no"?>
<!DOCTYPE svg PUBLIC "-//W3C//DTD SVG 1.1//EN"
 "http://www.w3.org/Graphics/SVG/1.1/DTD/svg11.dtd">
<!-- Generated by graphviz version 2.43.0 (0)
 -->
<!-- Title: CKeyChooser Pages: 1 -->
<!--zoomable 512 -->

<svg id="main" version="1.1" xmlns="http://www.w3.org/2000/svg" xmlns:xlink="http://www.w3.org/1999/xlink" xml:space="preserve" onload="init(evt)">
<style type="text/css"><![CDATA[
.node, .edge {opacity: 0.7;}
.node.selected, .edge.selected {opacity: 1;}
.edge:hover path { stroke: red; }
.edge:hover polygon { stroke: red; fill: red; }
]]></style>

<defs>
  <circle id="rim" cx="0" cy="0" r="7"/>
  <circle id="rim2" cx="0" cy="0" r="3.5"/>
  <g id="zoomPlus">
    <use xlink:href="#rim" fill="#404040"><set attributeName="fill" to="#808080" begin="zoomplus.mouseover" end="zoomplus.mouseout"/></use>
    <path d="M-4,0h8M0,-4v8" fill="none" stroke="white" stroke-width="1.5" pointer-events="none"/>
  </g>
  <g id="zoomMin">
    <use xlink:href="#rim" fill="#404040"><set attributeName="fill" to="#808080" begin="zoomminus.mouseover" end="zoomminus.mouseout"/></use>
    <path d="M-4,0h8" fill="none" stroke="white" stroke-width="1.5" pointer-events="none"/>
  </g>
  <g id="arrowUp" transform="translate(30 24)">
    <use xlink:href="#rim"/>
    <path pointer-events="none" fill="none" stroke="white" stroke-width="1.5" d="M0,-3.0v7 M-2.5,-0.5L0,-3.0L2.5,-0.5"/>
  </g>
  <g id="arrowRight" transform="rotate(90) translate(36 -43)">
    <use xlink:href="#rim"/>
    <path pointer-events="none" fill="none" stroke="white" stroke-width="1.5" d="M0,-3.0v7 M-2.5,-0.5L0,-3.0L2.5,-0.5"/>
  </g>
  <g id="arrowDown" transform="rotate(180) translate(-30 -48)">
    <use xlink:href="#rim"/>
    <path pointer-events="none" fill="none" stroke="white" stroke-width="1.5" d="M0,-3.0v7 M-2.5,-0.5L0,-3.0L2.5,-0.5"/>
  </g>
  <g id="arrowLeft" transform="rotate(270) translate(-36 17)">
    <use xlink:href="#rim"/>
    <path pointer-events="none" fill="none" stroke="white" stroke-width="1.5" d="M0,-3.0v7 M-2.5,-0.5L0,-3.0L2.5,-0.5"/>
  </g>
  <g id="resetDef">
    <use xlink:href="#rim2" fill="#404040"><set attributeName="fill" to="#808080" begin="reset.mouseover" end="reset.mouseout"/></use>
  </g>
</defs>
<script type="application/ecmascript">
var viewWidth = 562;
var viewHeight = 512;
var sectionId = 'dynsection-0';
</script>
<script type="application/ecmascript" xlink:href="../../svg.min.js"/>
<svg id="graph" class="graph">
<g id="viewport">
<title>CKeyChooser</title>
<!-- Node1 -->
<g id="Node000001" class="node">
<title>Node1</title>
<g id="a_Node000001"><a xlink:title=" ">
<polygon fill="#999999" stroke="transparent" points="337,-419 207,-419 207,-265 337,-265 337,-419"/>
<text text-anchor="start" x="239.5" y="-407" font-family="Helvetica,sans-Serif" font-size="10.00">CKeyChooser</text>
<text text-anchor="start" x="270" y="-392" font-family="Helvetica,sans-Serif" font-size="10.00"> </text>
<text text-anchor="start" x="211" y="-377" font-family="Helvetica,sans-Serif" font-size="10.00">+</text>
<text text-anchor="start" x="224" y="-377" font-family="Helvetica,sans-Serif" font-size="10.00">key()</text>
<text text-anchor="start" x="211" y="-362" font-family="Helvetica,sans-Serif" font-size="10.00">+</text>
<text text-anchor="start" x="224" y="-362" font-family="Helvetica,sans-Serif" font-size="10.00">refreshContent()</text>
<text text-anchor="start" x="211" y="-347" font-family="Helvetica,sans-Serif" font-size="10.00">+</text>
<text text-anchor="start" x="224" y="-347" font-family="Helvetica,sans-Serif" font-size="10.00">setKey()</text>
<text text-anchor="start" x="211" y="-332" font-family="Helvetica,sans-Serif" font-size="10.00">+</text>
<text text-anchor="start" x="224" y="-332" font-family="Helvetica,sans-Serif" font-size="10.00">setModules()</text>
<text text-anchor="start" x="211" y="-317" font-family="Helvetica,sans-Serif" font-size="10.00">+</text>
<text text-anchor="start" x="224" y="-317" font-family="Helvetica,sans-Serif" font-size="10.00">createInstance()</text>
<text text-anchor="start" x="211" y="-302" font-family="Helvetica,sans-Serif" font-size="10.00">+</text>
<text text-anchor="start" x="224" y="-302" font-family="Helvetica,sans-Serif" font-size="10.00">handleHistoryMoved()</text>
<text text-anchor="start" x="211" y="-287" font-family="Helvetica,sans-Serif" font-size="10.00">+</text>
<text text-anchor="start" x="224" y="-287" font-family="Helvetica,sans-Serif" font-size="10.00">updateKey()</text>
<text text-anchor="start" x="211" y="-272" font-family="Helvetica,sans-Serif" font-size="10.00">#</text>
<text text-anchor="start" x="224" y="-272" font-family="Helvetica,sans-Serif" font-size="10.00">CKeyChooser()</text>
<polygon fill="#666666" stroke="#666666" points="207,-402 207,-402 337,-402 337,-402 207,-402"/>
<polygon fill="#666666" stroke="#666666" points="207,-387 207,-387 337,-387 337,-387 207,-387"/>
<polygon fill="none" stroke="#666666" points="207,-265 207,-419 337,-419 337,-265 207,-265"/>
</a>
</g>
</g>
<!-- Node3 -->
<g id="Node000003" class="node">
<title>Node3</title>
<g id="a_Node000003"><a xlink:href="../../d8/d57/classCBibleKeyChooser.html" target="_top" xlink:title="A key chooser for bibles and commentaries.">
<polygon fill="white" stroke="transparent" points="118,-191.5 0,-191.5 0,-37.5 118,-37.5 118,-191.5"/>
<text text-anchor="start" x="14" y="-179.5" font-family="Helvetica,sans-Serif" font-size="10.00">CBibleKeyChooser</text>
<text text-anchor="start" x="6.5" y="-164.5" font-family="Helvetica,sans-Serif" font-size="10.00">&#45;</text>
<text text-anchor="start" x="17" y="-164.5" font-family="Helvetica,sans-Serif" font-size="10.00">m_key</text>
<text text-anchor="start" x="6.5" y="-149.5" font-family="Helvetica,sans-Serif" font-size="10.00">&#45;</text>
<text text-anchor="start" x="17" y="-149.5" font-family="Helvetica,sans-Serif" font-size="10.00">m_modules</text>
<text text-anchor="start" x="6.5" y="-134.5" font-family="Helvetica,sans-Serif" font-size="10.00">&#45;</text>
<text text-anchor="start" x="17" y="-134.5" font-family="Helvetica,sans-Serif" font-size="10.00">m_widget</text>
<text text-anchor="start" x="4" y="-119.5" font-family="Helvetica,sans-Serif" font-size="10.00">+</text>
<text text-anchor="start" x="17" y="-119.5" font-family="Helvetica,sans-Serif" font-size="10.00">CBibleKeyChooser()</text>
<text text-anchor="start" x="4" y="-104.5" font-family="Helvetica,sans-Serif" font-size="10.00">+</text>
<text text-anchor="start" x="17" y="-104.5" font-family="Helvetica,sans-Serif" font-size="10.00">key()</text>
<text text-anchor="start" x="4" y="-89.5" font-family="Helvetica,sans-Serif" font-size="10.00">+</text>
<text text-anchor="start" x="17" y="-89.5" font-family="Helvetica,sans-Serif" font-size="10.00">refreshContent()</text>
<text text-anchor="start" x="4" y="-74.5" font-family="Helvetica,sans-Serif" font-size="10.00">+</text>
<text text-anchor="start" x="17" y="-74.5" font-family="Helvetica,sans-Serif" font-size="10.00">setKey()</text>
<text text-anchor="start" x="4" y="-59.5" font-family="Helvetica,sans-Serif" font-size="10.00">+</text>
<text text-anchor="start" x="17" y="-59.5" font-family="Helvetica,sans-Serif" font-size="10.00">setModules()</text>
<text text-anchor="start" x="4" y="-44.5" font-family="Helvetica,sans-Serif" font-size="10.00">+</text>
<text text-anchor="start" x="17" y="-44.5" font-family="Helvetica,sans-Serif" font-size="10.00">updateKey()</text>
<polygon fill="#666666" stroke="#666666" points="0,-174.5 0,-174.5 118,-174.5 118,-174.5 0,-174.5"/>
<polygon fill="#666666" stroke="#666666" points="0,-129.5 0,-129.5 15,-129.5 15,-129.5 0,-129.5"/>
<polygon fill="#666666" stroke="#666666" points="15,-129.5 15,-129.5 118,-129.5 118,-129.5 15,-129.5"/>
<polygon fill="none" stroke="#666666" points="0,-37.5 0,-191.5 118,-191.5 118,-37.5 0,-37.5"/>
</a>
</g>
</g>
<!-- Node1&#45;&gt;Node3 -->
<g id="edge2_Node000001_Node000003" class="edge">
<title>Node1&#45;&gt;Node3</title>
<g id="a_edge2_Node000001_Node000003"><a xlink:title=" ">
<path fill="none" stroke="#63b8ff" d="M198.76,-292.76C174.25,-274.55 147.88,-252.5 127,-229 116.93,-217.67 107.53,-204.63 99.13,-191.53"/>
<polygon fill="none" stroke="#63b8ff" points="196.85,-295.7 206.99,-298.79 200.99,-290.06 196.85,-295.7"/>
</a>
</g>
</g>
<!-- Node4 -->
<g id="Node000004" class="node">
<title>Node4</title>
<g id="a_Node000004"><a xlink:href="../../df/d01/classCBookKeyChooser.html" target="_top" xlink:title=" ">
<polygon fill="white" stroke="transparent" points="265.5,-229 136.5,-229 136.5,0 265.5,0 265.5,-229"/>
<text text-anchor="start" x="156.5" y="-216.5" font-family="Helvetica,sans-Serif" font-size="10.00">CBookKeyChooser</text>
<text text-anchor="start" x="143.5" y="-201.5" font-family="Helvetica,sans-Serif" font-size="10.00">&#45;</text>
<text text-anchor="start" x="154" y="-201.5" font-family="Helvetica,sans-Serif" font-size="10.00">m_chooserWidgets</text>
<text text-anchor="start" x="143.5" y="-186.5" font-family="Helvetica,sans-Serif" font-size="10.00">&#45;</text>
<text text-anchor="start" x="154" y="-186.5" font-family="Helvetica,sans-Serif" font-size="10.00">m_key</text>
<text text-anchor="start" x="143.5" y="-171.5" font-family="Helvetica,sans-Serif" font-size="10.00">&#45;</text>
<text text-anchor="start" x="154" y="-171.5" font-family="Helvetica,sans-Serif" font-size="10.00">m_layout</text>
<text text-anchor="start" x="143.5" y="-156.5" font-family="Helvetica,sans-Serif" font-size="10.00">&#45;</text>
<text text-anchor="start" x="154" y="-156.5" font-family="Helvetica,sans-Serif" font-size="10.00">m_modules</text>
<text text-anchor="start" x="141" y="-141.5" font-family="Helvetica,sans-Serif" font-size="10.00">+</text>
<text text-anchor="start" x="154" y="-141.5" font-family="Helvetica,sans-Serif" font-size="10.00">CBookKeyChooser()</text>
<text text-anchor="start" x="141" y="-126.5" font-family="Helvetica,sans-Serif" font-size="10.00">+</text>
<text text-anchor="start" x="154" y="-126.5" font-family="Helvetica,sans-Serif" font-size="10.00">key()</text>
<text text-anchor="start" x="141" y="-111.5" font-family="Helvetica,sans-Serif" font-size="10.00">+</text>
<text text-anchor="start" x="154" y="-111.5" font-family="Helvetica,sans-Serif" font-size="10.00">refreshContent()</text>
<text text-anchor="start" x="141" y="-96.5" font-family="Helvetica,sans-Serif" font-size="10.00">+</text>
<text text-anchor="start" x="154" y="-96.5" font-family="Helvetica,sans-Serif" font-size="10.00">setKey()</text>
<text text-anchor="start" x="141" y="-81.5" font-family="Helvetica,sans-Serif" font-size="10.00">+</text>
<text text-anchor="start" x="154" y="-81.5" font-family="Helvetica,sans-Serif" font-size="10.00">setKey()</text>
<text text-anchor="start" x="141" y="-66.5" font-family="Helvetica,sans-Serif" font-size="10.00">+</text>
<text text-anchor="start" x="154" y="-66.5" font-family="Helvetica,sans-Serif" font-size="10.00">setModules()</text>
<text text-anchor="start" x="141" y="-51.5" font-family="Helvetica,sans-Serif" font-size="10.00">+</text>
<text text-anchor="start" x="154" y="-51.5" font-family="Helvetica,sans-Serif" font-size="10.00">updateKey()</text>
<text text-anchor="start" x="141" y="-36.5" font-family="Helvetica,sans-Serif" font-size="10.00">#</text>
<text text-anchor="start" x="154" y="-36.5" font-family="Helvetica,sans-Serif" font-size="10.00">setupCombo()</text>
<text text-anchor="start" x="143.5" y="-21.5" font-family="Helvetica,sans-Serif" font-size="10.00">&#45;</text>
<text text-anchor="start" x="154" y="-21.5" font-family="Helvetica,sans-Serif" font-size="10.00">adjustFont()</text>
<text text-anchor="start" x="143.5" y="-6.5" font-family="Helvetica,sans-Serif" font-size="10.00">&#45;</text>
<text text-anchor="start" x="154" y="-6.5" font-family="Helvetica,sans-Serif" font-size="10.00">keyChooserChanged()</text>
<polygon fill="#666666" stroke="#666666" points="137,-211.5 137,-211.5 266,-211.5 266,-211.5 137,-211.5"/>
<polygon fill="#666666" stroke="#666666" points="137,-151.5 137,-151.5 152,-151.5 152,-151.5 137,-151.5"/>
<polygon fill="#666666" stroke="#666666" points="152,-151.5 152,-151.5 266,-151.5 266,-151.5 152,-151.5"/>
<polygon fill="none" stroke="#666666" points="136.5,0 136.5,-229 265.5,-229 265.5,0 136.5,0"/>
</a>
</g>
</g>
<!-- Node1&#45;&gt;Node4 -->
<g id="edge3_Node000001_Node000004" class="edge">
<title>Node1&#45;&gt;Node4</title>
<g id="a_edge3_Node000001_Node000004"><a xlink:title=" ">
<path fill="none" stroke="#63b8ff" d="M245.05,-255.41C242.36,-246.86 239.59,-238.07 236.83,-229.29"/>
<polygon fill="none" stroke="#63b8ff" points="241.72,-256.48 248.06,-264.97 248.4,-254.38 241.72,-256.48"/>
</a>
</g>
</g>
<!-- Node5 -->
<g id="Node000005" class="node">
<title>Node5</title>
<g id="a_Node000005"><a xlink:href="../../d1/dca/classCBookTreeChooser.html" target="_top" xlink:title=" ">
<polygon fill="white" stroke="transparent" points="404.5,-229 283.5,-229 283.5,0 404.5,0 404.5,-229"/>
<text text-anchor="start" x="298.5" y="-216.5" font-family="Helvetica,sans-Serif" font-size="10.00">CBookTreeChooser</text>
<text text-anchor="start" x="290.5" y="-201.5" font-family="Helvetica,sans-Serif" font-size="10.00">&#45;</text>
<text text-anchor="start" x="301" y="-201.5" font-family="Helvetica,sans-Serif" font-size="10.00">m_key</text>
<text text-anchor="start" x="290.5" y="-186.5" font-family="Helvetica,sans-Serif" font-size="10.00">&#45;</text>
<text text-anchor="start" x="301" y="-186.5" font-family="Helvetica,sans-Serif" font-size="10.00">m_modules</text>
<text text-anchor="start" x="290.5" y="-171.5" font-family="Helvetica,sans-Serif" font-size="10.00">&#45;</text>
<text text-anchor="start" x="301" y="-171.5" font-family="Helvetica,sans-Serif" font-size="10.00">m_treeView</text>
<text text-anchor="start" x="288" y="-156.5" font-family="Helvetica,sans-Serif" font-size="10.00">+</text>
<text text-anchor="start" x="301" y="-156.5" font-family="Helvetica,sans-Serif" font-size="10.00">CBookTreeChooser()</text>
<text text-anchor="start" x="288" y="-141.5" font-family="Helvetica,sans-Serif" font-size="10.00">+</text>
<text text-anchor="start" x="301" y="-141.5" font-family="Helvetica,sans-Serif" font-size="10.00">key()</text>
<text text-anchor="start" x="288" y="-126.5" font-family="Helvetica,sans-Serif" font-size="10.00">+</text>
<text text-anchor="start" x="301" y="-126.5" font-family="Helvetica,sans-Serif" font-size="10.00">refreshContent()</text>
<text text-anchor="start" x="288" y="-111.5" font-family="Helvetica,sans-Serif" font-size="10.00">+</text>
<text text-anchor="start" x="301" y="-111.5" font-family="Helvetica,sans-Serif" font-size="10.00">setKey()</text>
<text text-anchor="start" x="288" y="-96.5" font-family="Helvetica,sans-Serif" font-size="10.00">+</text>
<text text-anchor="start" x="301" y="-96.5" font-family="Helvetica,sans-Serif" font-size="10.00">setModules()</text>
<text text-anchor="start" x="288" y="-81.5" font-family="Helvetica,sans-Serif" font-size="10.00">+</text>
<text text-anchor="start" x="301" y="-81.5" font-family="Helvetica,sans-Serif" font-size="10.00">updateKey()</text>
<text text-anchor="start" x="288" y="-66.5" font-family="Helvetica,sans-Serif" font-size="10.00">#</text>
<text text-anchor="start" x="301" y="-66.5" font-family="Helvetica,sans-Serif" font-size="10.00">showEvent()</text>
<text text-anchor="start" x="290.5" y="-51.5" font-family="Helvetica,sans-Serif" font-size="10.00">&#45;</text>
<text text-anchor="start" x="301" y="-51.5" font-family="Helvetica,sans-Serif" font-size="10.00">addKeyChildren()</text>
<text text-anchor="start" x="290.5" y="-36.5" font-family="Helvetica,sans-Serif" font-size="10.00">&#45;</text>
<text text-anchor="start" x="301" y="-36.5" font-family="Helvetica,sans-Serif" font-size="10.00">adjustFont()</text>
<text text-anchor="start" x="290.5" y="-21.5" font-family="Helvetica,sans-Serif" font-size="10.00">&#45;</text>
<text text-anchor="start" x="301" y="-21.5" font-family="Helvetica,sans-Serif" font-size="10.00">setupTree()</text>
<text text-anchor="start" x="290.5" y="-6.5" font-family="Helvetica,sans-Serif" font-size="10.00">&#45;</text>
<text text-anchor="start" x="301" y="-6.5" font-family="Helvetica,sans-Serif" font-size="10.00">itemActivated()</text>
<polygon fill="#666666" stroke="#666666" points="284,-211.5 284,-211.5 405,-211.5 405,-211.5 284,-211.5"/>
<polygon fill="#666666" stroke="#666666" points="284,-166.5 284,-166.5 299,-166.5 299,-166.5 284,-166.5"/>
<polygon fill="#666666" stroke="#666666" points="299,-166.5 299,-166.5 405,-166.5 405,-166.5 299,-166.5"/>
<polygon fill="none" stroke="#666666" points="283.5,0 283.5,-229 404.5,-229 404.5,0 283.5,0"/>
</a>
</g>
</g>
<!-- Node1&#45;&gt;Node5 -->
<g id="edge4_Node000001_Node000005" class="edge">
<title>Node1&#45;&gt;Node5</title>
<g id="a_edge4_Node000001_Node000005"><a xlink:title=" ">
<path fill="none" stroke="#63b8ff" d="M299.33,-255.41C302.06,-246.86 304.86,-238.07 307.67,-229.29"/>
<polygon fill="none" stroke="#63b8ff" points="295.98,-254.38 296.28,-264.97 302.65,-256.51 295.98,-254.38"/>
</a>
</g>
</g>
<!-- Node6 -->
<g id="Node000006" class="node">
<title>Node6</title>
<g id="a_Node000006"><a xlink:href="../../d6/d9b/classCLexiconKeyChooser.html" target="_top" xlink:title=" ">
<polygon fill="white" stroke="transparent" points="553.5,-191.5 422.5,-191.5 422.5,-37.5 553.5,-37.5 553.5,-191.5"/>
<text text-anchor="start" x="437" y="-179.5" font-family="Helvetica,sans-Serif" font-size="10.00">CLexiconKeyChooser</text>
<text text-anchor="start" x="429.5" y="-164.5" font-family="Helvetica,sans-Serif" font-size="10.00">&#45;</text>
<text text-anchor="start" x="440" y="-164.5" font-family="Helvetica,sans-Serif" font-size="10.00">m_key</text>
<text text-anchor="start" x="429.5" y="-149.5" font-family="Helvetica,sans-Serif" font-size="10.00">&#45;</text>
<text text-anchor="start" x="440" y="-149.5" font-family="Helvetica,sans-Serif" font-size="10.00">m_modules</text>
<text text-anchor="start" x="429.5" y="-134.5" font-family="Helvetica,sans-Serif" font-size="10.00">&#45;</text>
<text text-anchor="start" x="440" y="-134.5" font-family="Helvetica,sans-Serif" font-size="10.00">m_widget</text>
<text text-anchor="start" x="427" y="-119.5" font-family="Helvetica,sans-Serif" font-size="10.00">+</text>
<text text-anchor="start" x="440" y="-119.5" font-family="Helvetica,sans-Serif" font-size="10.00">CLexiconKeyChooser()</text>
<text text-anchor="start" x="427" y="-104.5" font-family="Helvetica,sans-Serif" font-size="10.00">+</text>
<text text-anchor="start" x="440" y="-104.5" font-family="Helvetica,sans-Serif" font-size="10.00">key()</text>
<text text-anchor="start" x="427" y="-89.5" font-family="Helvetica,sans-Serif" font-size="10.00">+</text>
<text text-anchor="start" x="440" y="-89.5" font-family="Helvetica,sans-Serif" font-size="10.00">refreshContent()</text>
<text text-anchor="start" x="427" y="-74.5" font-family="Helvetica,sans-Serif" font-size="10.00">+</text>
<text text-anchor="start" x="440" y="-74.5" font-family="Helvetica,sans-Serif" font-size="10.00">setKey()</text>
<text text-anchor="start" x="427" y="-59.5" font-family="Helvetica,sans-Serif" font-size="10.00">+</text>
<text text-anchor="start" x="440" y="-59.5" font-family="Helvetica,sans-Serif" font-size="10.00">setModules()</text>
<text text-anchor="start" x="427" y="-44.5" font-family="Helvetica,sans-Serif" font-size="10.00">+</text>
<text text-anchor="start" x="440" y="-44.5" font-family="Helvetica,sans-Serif" font-size="10.00">updateKey()</text>
<polygon fill="#666666" stroke="#666666" points="423,-174.5 423,-174.5 554,-174.5 554,-174.5 423,-174.5"/>
<polygon fill="#666666" stroke="#666666" points="423,-129.5 423,-129.5 438,-129.5 438,-129.5 423,-129.5"/>
<polygon fill="#666666" stroke="#666666" points="438,-129.5 438,-129.5 554,-129.5 554,-129.5 438,-129.5"/>
<polygon fill="none" stroke="#666666" points="422.5,-37.5 422.5,-191.5 553.5,-191.5 553.5,-37.5 422.5,-37.5"/>
</a>
</g>
</g>
<!-- Node1&#45;&gt;Node6 -->
<g id="edge5_Node000001_Node000006" class="edge">
<title>Node1&#45;&gt;Node6</title>
<g id="a_edge5_Node000001_Node000006"><a xlink:title=" ">
<path fill="none" stroke="#63b8ff" d="M345.45,-290.35C368.76,-272.44 393.73,-251.19 414,-229 424.39,-217.63 434.31,-204.64 443.32,-191.62"/>
<polygon fill="none" stroke="#63b8ff" points="343.14,-287.72 337.28,-296.55 347.37,-293.29 343.14,-287.72"/>
</a>
</g>
</g>
<!-- Node2 -->
<g id="Node000002" class="node">
<title>Node2</title>
<g id="a_Node000002"><a xlink:href="../../d8/ded/classQWidget.html" target="_top" xlink:title=" ">
<polygon fill="white" stroke="transparent" points="298.5,-504 245.5,-504 245.5,-455 298.5,-455 298.5,-504"/>
<text text-anchor="start" x="251" y="-491.5" font-family="Helvetica,sans-Serif" font-size="10.00">QWidget</text>
<text text-anchor="start" x="270.5" y="-476.5" font-family="Helvetica,sans-Serif" font-size="10.00"> </text>
<text text-anchor="start" x="270.5" y="-461.5" font-family="Helvetica,sans-Serif" font-size="10.00"> </text>
<polygon fill="#666666" stroke="#666666" points="246,-486.5 246,-486.5 299,-486.5 299,-486.5 246,-486.5"/>
<polygon fill="#666666" stroke="#666666" points="246,-471.5 246,-471.5 299,-471.5 299,-471.5 246,-471.5"/>
<polygon fill="none" stroke="#666666" points="245.5,-455 245.5,-504 298.5,-504 298.5,-455 245.5,-455"/>
</a>
</g>
</g>
<!-- Node2&#45;&gt;Node1 -->
<g id="edge1_Node000001_Node000002" class="edge">
<title>Node2&#45;&gt;Node1</title>
<g id="a_edge1_Node000001_Node000002"><a xlink:title=" ">
<path fill="none" stroke="#63b8ff" d="M272,-444.66C272,-436.74 272,-427.97 272,-419.01"/>
<polygon fill="none" stroke="#63b8ff" points="268.5,-444.9 272,-454.9 275.5,-444.9 268.5,-444.9"/>
</a>
</g>
</g>
</g>
</svg>

<g id="navigator" transform="translate(0 0)" fill="#404254">
  <rect fill="#f2f5e9" fill-opacity="0.5" stroke="#606060" stroke-width=".5" x="0" y="0" width="60" height="60"/>
  <use id="zoomplus" xlink:href="#zoomPlus" x="17" y="9" onmousedown="handleZoom(evt,'in')"/>
  <use id="zoomminus" xlink:href="#zoomMin" x="42" y="9" onmousedown="handleZoom(evt,'out')"/>
  <use id="reset" xlink:href="#resetDef" x="30" y="36" onmousedown="handleReset()"/>
   <use id="arrowup" xlink:href="#arrowUp" x="0" y="0" onmousedown="handlePan(0,-1)"/>
  <use id="arrowright" xlink:href="#arrowRight" x="0" y="0" onmousedown="handlePan(1,0)"/>
  <use id="arrowdown" xlink:href="#arrowDown" x="0" y="0" onmousedown="handlePan(0,1)"/>
  <use id="arrowleft" xlink:href="#arrowLeft" x="0" y="0" onmousedown="handlePan(-1,0)"/>
</g>
<svg viewBox="0 0 15 15" width="100%" height="30px" preserveAspectRatio="xMaxYMin meet">
 <g id="arrow_out" transform="scale(0.3 0.3)">
  <a xlink:href="classCKeyChooser__inherit__graph_org.svg" target="_base">
   <rect id="button" ry="5" rx="5" y="6" x="6" height="38" width="38"
        fill="#f2f5e9" fill-opacity="0.5" stroke="#606060" stroke-width="1.0"/>
   <path id="arrow"
     d="M 11.500037,31.436501 C 11.940474,20.09759 22.043105,11.32322 32.158766,21.979434 L 37.068811,17.246167 C 37.068811,17.246167 37.088388,32 37.088388,32 L 22.160133,31.978069 C 22.160133,31.978069 26.997745,27.140456 26.997745,27.140456 C 18.528582,18.264221 13.291696,25.230495 11.500037,31.436501 z"
     style="fill:#404040;"/>
  </a>
 </g>
</svg>

<style type='text/css'>
<![CDATA[
[data-mouse-over-selected='false'] { opacity: 0.7; }
[data-mouse-over-selected='true']  { opacity: 1.0; }
]]>
</style>
<script type="application/ecmascript"><![CDATA[
document.addEventListener('DOMContentLoaded', (event) => {
  highlightEdges();
  highlightAdjacentNodes();
});
]]></script>
</svg>
