<?xml version="1.0" encoding="UTF-8" standalone="no"?>
<!DOCTYPE svg PUBLIC "-//W3C//DTD SVG 1.1//EN"
 "http://www.w3.org/Graphics/SVG/1.1/DTD/svg11.dtd">
<!-- Generated by graphviz version 2.43.0 (0)
 -->
<!-- Title: CKeyChooser Pages: 1 -->
<svg width="562pt" height="512pt"
 viewBox="0.00 0.00 561.50 512.00" xmlns="http://www.w3.org/2000/svg" xmlns:xlink="http://www.w3.org/1999/xlink">
<g id="graph0" class="graph" transform="scale(1 1) rotate(0) translate(4 508)">
<title>CKeyChooser</title>
<!-- Node1 -->
<g id="Node000001" class="node">
<title>Node1</title>
<g id="a_Node000001"><a xlink:title=" ">
<polygon fill="#999999" stroke="transparent" points="337,-419 207,-419 207,-265 337,-265 337,-419"/>
<text text-anchor="start" x="239.5" y="-407" font-family="Helvetica,sans-Serif" font-size="10.00">CKeyChooser</text>
<text text-anchor="start" x="270" y="-392" font-family="Helvetica,sans-Serif" font-size="10.00"> </text>
<text text-anchor="start" x="211" y="-377" font-family="Helvetica,sans-Serif" font-size="10.00">+</text>
<text text-anchor="start" x="224" y="-377" font-family="Helvetica,sans-Serif" font-size="10.00">key()</text>
<text text-anchor="start" x="211" y="-362" font-family="Helvetica,sans-Serif" font-size="10.00">+</text>
<text text-anchor="start" x="224" y="-362" font-family="Helvetica,sans-Serif" font-size="10.00">refreshContent()</text>
<text text-anchor="start" x="211" y="-347" font-family="Helvetica,sans-Serif" font-size="10.00">+</text>
<text text-anchor="start" x="224" y="-347" font-family="Helvetica,sans-Serif" font-size="10.00">setKey()</text>
<text text-anchor="start" x="211" y="-332" font-family="Helvetica,sans-Serif" font-size="10.00">+</text>
<text text-anchor="start" x="224" y="-332" font-family="Helvetica,sans-Serif" font-size="10.00">setModules()</text>
<text text-anchor="start" x="211" y="-317" font-family="Helvetica,sans-Serif" font-size="10.00">+</text>
<text text-anchor="start" x="224" y="-317" font-family="Helvetica,sans-Serif" font-size="10.00">createInstance()</text>
<text text-anchor="start" x="211" y="-302" font-family="Helvetica,sans-Serif" font-size="10.00">+</text>
<text text-anchor="start" x="224" y="-302" font-family="Helvetica,sans-Serif" font-size="10.00">handleHistoryMoved()</text>
<text text-anchor="start" x="211" y="-287" font-family="Helvetica,sans-Serif" font-size="10.00">+</text>
<text text-anchor="start" x="224" y="-287" font-family="Helvetica,sans-Serif" font-size="10.00">updateKey()</text>
<text text-anchor="start" x="211" y="-272" font-family="Helvetica,sans-Serif" font-size="10.00">#</text>
<text text-anchor="start" x="224" y="-272" font-family="Helvetica,sans-Serif" font-size="10.00">CKeyChooser()</text>
<polygon fill="#666666" stroke="#666666" points="207,-402 207,-402 337,-402 337,-402 207,-402"/>
<polygon fill="#666666" stroke="#666666" points="207,-387 207,-387 337,-387 337,-387 207,-387"/>
<polygon fill="none" stroke="#666666" points="207,-265 207,-419 337,-419 337,-265 207,-265"/>
</a>
</g>
</g>
<!-- Node3 -->
<g id="Node000003" class="node">
<title>Node3</title>
<g id="a_Node000003"><a xlink:href="../../d8/d57/classCBibleKeyChooser.html" target="_top" xlink:title="A key chooser for bibles and commentaries.">
<polygon fill="white" stroke="transparent" points="118,-191.5 0,-191.5 0,-37.5 118,-37.5 118,-191.5"/>
<text text-anchor="start" x="14" y="-179.5" font-family="Helvetica,sans-Serif" font-size="10.00">CBibleKeyChooser</text>
<text text-anchor="start" x="6.5" y="-164.5" font-family="Helvetica,sans-Serif" font-size="10.00">&#45;</text>
<text text-anchor="start" x="17" y="-164.5" font-family="Helvetica,sans-Serif" font-size="10.00">m_key</text>
<text text-anchor="start" x="6.5" y="-149.5" font-family="Helvetica,sans-Serif" font-size="10.00">&#45;</text>
<text text-anchor="start" x="17" y="-149.5" font-family="Helvetica,sans-Serif" font-size="10.00">m_modules</text>
<text text-anchor="start" x="6.5" y="-134.5" font-family="Helvetica,sans-Serif" font-size="10.00">&#45;</text>
<text text-anchor="start" x="17" y="-134.5" font-family="Helvetica,sans-Serif" font-size="10.00">m_widget</text>
<text text-anchor="start" x="4" y="-119.5" font-family="Helvetica,sans-Serif" font-size="10.00">+</text>
<text text-anchor="start" x="17" y="-119.5" font-family="Helvetica,sans-Serif" font-size="10.00">CBibleKeyChooser()</text>
<text text-anchor="start" x="4" y="-104.5" font-family="Helvetica,sans-Serif" font-size="10.00">+</text>
<text text-anchor="start" x="17" y="-104.5" font-family="Helvetica,sans-Serif" font-size="10.00">key()</text>
<text text-anchor="start" x="4" y="-89.5" font-family="Helvetica,sans-Serif" font-size="10.00">+</text>
<text text-anchor="start" x="17" y="-89.5" font-family="Helvetica,sans-Serif" font-size="10.00">refreshContent()</text>
<text text-anchor="start" x="4" y="-74.5" font-family="Helvetica,sans-Serif" font-size="10.00">+</text>
<text text-anchor="start" x="17" y="-74.5" font-family="Helvetica,sans-Serif" font-size="10.00">setKey()</text>
<text text-anchor="start" x="4" y="-59.5" font-family="Helvetica,sans-Serif" font-size="10.00">+</text>
<text text-anchor="start" x="17" y="-59.5" font-family="Helvetica,sans-Serif" font-size="10.00">setModules()</text>
<text text-anchor="start" x="4" y="-44.5" font-family="Helvetica,sans-Serif" font-size="10.00">+</text>
<text text-anchor="start" x="17" y="-44.5" font-family="Helvetica,sans-Serif" font-size="10.00">updateKey()</text>
<polygon fill="#666666" stroke="#666666" points="0,-174.5 0,-174.5 118,-174.5 118,-174.5 0,-174.5"/>
<polygon fill="#666666" stroke="#666666" points="0,-129.5 0,-129.5 15,-129.5 15,-129.5 0,-129.5"/>
<polygon fill="#666666" stroke="#666666" points="15,-129.5 15,-129.5 118,-129.5 118,-129.5 15,-129.5"/>
<polygon fill="none" stroke="#666666" points="0,-37.5 0,-191.5 118,-191.5 118,-37.5 0,-37.5"/>
</a>
</g>
</g>
<!-- Node1&#45;&gt;Node3 -->
<g id="edge2_Node000001_Node000003" class="edge">
<title>Node1&#45;&gt;Node3</title>
<g id="a_edge2_Node000001_Node000003"><a xlink:title=" ">
<path fill="none" stroke="#63b8ff" d="M198.76,-292.76C174.25,-274.55 147.88,-252.5 127,-229 116.93,-217.67 107.53,-204.63 99.13,-191.53"/>
<polygon fill="none" stroke="#63b8ff" points="196.85,-295.7 206.99,-298.79 200.99,-290.06 196.85,-295.7"/>
</a>
</g>
</g>
<!-- Node4 -->
<g id="Node000004" class="node">
<title>Node4</title>
<g id="a_Node000004"><a xlink:href="../../df/d01/classCBookKeyChooser.html" target="_top" xlink:title=" ">
<polygon fill="white" stroke="transparent" points="265.5,-229 136.5,-229 136.5,0 265.5,0 265.5,-229"/>
<text text-anchor="start" x="156.5" y="-216.5" font-family="Helvetica,sans-Serif" font-size="10.00">CBookKeyChooser</text>
<text text-anchor="start" x="143.5" y="-201.5" font-family="Helvetica,sans-Serif" font-size="10.00">&#45;</text>
<text text-anchor="start" x="154" y="-201.5" font-family="Helvetica,sans-Serif" font-size="10.00">m_chooserWidgets</text>
<text text-anchor="start" x="143.5" y="-186.5" font-family="Helvetica,sans-Serif" font-size="10.00">&#45;</text>
<text text-anchor="start" x="154" y="-186.5" font-family="Helvetica,sans-Serif" font-size="10.00">m_key</text>
<text text-anchor="start" x="143.5" y="-171.5" font-family="Helvetica,sans-Serif" font-size="10.00">&#45;</text>
<text text-anchor="start" x="154" y="-171.5" font-family="Helvetica,sans-Serif" font-size="10.00">m_layout</text>
<text text-anchor="start" x="143.5" y="-156.5" font-family="Helvetica,sans-Serif" font-size="10.00">&#45;</text>
<text text-anchor="start" x="154" y="-156.5" font-family="Helvetica,sans-Serif" font-size="10.00">m_modules</text>
<text text-anchor="start" x="141" y="-141.5" font-family="Helvetica,sans-Serif" font-size="10.00">+</text>
<text text-anchor="start" x="154" y="-141.5" font-family="Helvetica,sans-Serif" font-size="10.00">CBookKeyChooser()</text>
<text text-anchor="start" x="141" y="-126.5" font-family="Helvetica,sans-Serif" font-size="10.00">+</text>
<text text-anchor="start" x="154" y="-126.5" font-family="Helvetica,sans-Serif" font-size="10.00">key()</text>
<text text-anchor="start" x="141" y="-111.5" font-family="Helvetica,sans-Serif" font-size="10.00">+</text>
<text text-anchor="start" x="154" y="-111.5" font-family="Helvetica,sans-Serif" font-size="10.00">refreshContent()</text>
<text text-anchor="start" x="141" y="-96.5" font-family="Helvetica,sans-Serif" font-size="10.00">+</text>
<text text-anchor="start" x="154" y="-96.5" font-family="Helvetica,sans-Serif" font-size="10.00">setKey()</text>
<text text-anchor="start" x="141" y="-81.5" font-family="Helvetica,sans-Serif" font-size="10.00">+</text>
<text text-anchor="start" x="154" y="-81.5" font-family="Helvetica,sans-Serif" font-size="10.00">setKey()</text>
<text text-anchor="start" x="141" y="-66.5" font-family="Helvetica,sans-Serif" font-size="10.00">+</text>
<text text-anchor="start" x="154" y="-66.5" font-family="Helvetica,sans-Serif" font-size="10.00">setModules()</text>
<text text-anchor="start" x="141" y="-51.5" font-family="Helvetica,sans-Serif" font-size="10.00">+</text>
<text text-anchor="start" x="154" y="-51.5" font-family="Helvetica,sans-Serif" font-size="10.00">updateKey()</text>
<text text-anchor="start" x="141" y="-36.5" font-family="Helvetica,sans-Serif" font-size="10.00">#</text>
<text text-anchor="start" x="154" y="-36.5" font-family="Helvetica,sans-Serif" font-size="10.00">setupCombo()</text>
<text text-anchor="start" x="143.5" y="-21.5" font-family="Helvetica,sans-Serif" font-size="10.00">&#45;</text>
<text text-anchor="start" x="154" y="-21.5" font-family="Helvetica,sans-Serif" font-size="10.00">adjustFont()</text>
<text text-anchor="start" x="143.5" y="-6.5" font-family="Helvetica,sans-Serif" font-size="10.00">&#45;</text>
<text text-anchor="start" x="154" y="-6.5" font-family="Helvetica,sans-Serif" font-size="10.00">keyChooserChanged()</text>
<polygon fill="#666666" stroke="#666666" points="137,-211.5 137,-211.5 266,-211.5 266,-211.5 137,-211.5"/>
<polygon fill="#666666" stroke="#666666" points="137,-151.5 137,-151.5 152,-151.5 152,-151.5 137,-151.5"/>
<polygon fill="#666666" stroke="#666666" points="152,-151.5 152,-151.5 266,-151.5 266,-151.5 152,-151.5"/>
<polygon fill="none" stroke="#666666" points="136.5,0 136.5,-229 265.5,-229 265.5,0 136.5,0"/>
</a>
</g>
</g>
<!-- Node1&#45;&gt;Node4 -->
<g id="edge3_Node000001_Node000004" class="edge">
<title>Node1&#45;&gt;Node4</title>
<g id="a_edge3_Node000001_Node000004"><a xlink:title=" ">
<path fill="none" stroke="#63b8ff" d="M245.05,-255.41C242.36,-246.86 239.59,-238.07 236.83,-229.29"/>
<polygon fill="none" stroke="#63b8ff" points="241.72,-256.48 248.06,-264.97 248.4,-254.38 241.72,-256.48"/>
</a>
</g>
</g>
<!-- Node5 -->
<g id="Node000005" class="node">
<title>Node5</title>
<g id="a_Node000005"><a xlink:href="../../d1/dca/classCBookTreeChooser.html" target="_top" xlink:title=" ">
<polygon fill="white" stroke="transparent" points="404.5,-229 283.5,-229 283.5,0 404.5,0 404.5,-229"/>
<text text-anchor="start" x="298.5" y="-216.5" font-family="Helvetica,sans-Serif" font-size="10.00">CBookTreeChooser</text>
<text text-anchor="start" x="290.5" y="-201.5" font-family="Helvetica,sans-Serif" font-size="10.00">&#45;</text>
<text text-anchor="start" x="301" y="-201.5" font-family="Helvetica,sans-Serif" font-size="10.00">m_key</text>
<text text-anchor="start" x="290.5" y="-186.5" font-family="Helvetica,sans-Serif" font-size="10.00">&#45;</text>
<text text-anchor="start" x="301" y="-186.5" font-family="Helvetica,sans-Serif" font-size="10.00">m_modules</text>
<text text-anchor="start" x="290.5" y="-171.5" font-family="Helvetica,sans-Serif" font-size="10.00">&#45;</text>
<text text-anchor="start" x="301" y="-171.5" font-family="Helvetica,sans-Serif" font-size="10.00">m_treeView</text>
<text text-anchor="start" x="288" y="-156.5" font-family="Helvetica,sans-Serif" font-size="10.00">+</text>
<text text-anchor="start" x="301" y="-156.5" font-family="Helvetica,sans-Serif" font-size="10.00">CBookTreeChooser()</text>
<text text-anchor="start" x="288" y="-141.5" font-family="Helvetica,sans-Serif" font-size="10.00">+</text>
<text text-anchor="start" x="301" y="-141.5" font-family="Helvetica,sans-Serif" font-size="10.00">key()</text>
<text text-anchor="start" x="288" y="-126.5" font-family="Helvetica,sans-Serif" font-size="10.00">+</text>
<text text-anchor="start" x="301" y="-126.5" font-family="Helvetica,sans-Serif" font-size="10.00">refreshContent()</text>
<text text-anchor="start" x="288" y="-111.5" font-family="Helvetica,sans-Serif" font-size="10.00">+</text>
<text text-anchor="start" x="301" y="-111.5" font-family="Helvetica,sans-Serif" font-size="10.00">setKey()</text>
<text text-anchor="start" x="288" y="-96.5" font-family="Helvetica,sans-Serif" font-size="10.00">+</text>
<text text-anchor="start" x="301" y="-96.5" font-family="Helvetica,sans-Serif" font-size="10.00">setModules()</text>
<text text-anchor="start" x="288" y="-81.5" font-family="Helvetica,sans-Serif" font-size="10.00">+</text>
<text text-anchor="start" x="301" y="-81.5" font-family="Helvetica,sans-Serif" font-size="10.00">updateKey()</text>
<text text-anchor="start" x="288" y="-66.5" font-family="Helvetica,sans-Serif" font-size="10.00">#</text>
<text text-anchor="start" x="301" y="-66.5" font-family="Helvetica,sans-Serif" font-size="10.00">showEvent()</text>
<text text-anchor="start" x="290.5" y="-51.5" font-family="Helvetica,sans-Serif" font-size="10.00">&#45;</text>
<text text-anchor="start" x="301" y="-51.5" font-family="Helvetica,sans-Serif" font-size="10.00">addKeyChildren()</text>
<text text-anchor="start" x="290.5" y="-36.5" font-family="Helvetica,sans-Serif" font-size="10.00">&#45;</text>
<text text-anchor="start" x="301" y="-36.5" font-family="Helvetica,sans-Serif" font-size="10.00">adjustFont()</text>
<text text-anchor="start" x="290.5" y="-21.5" font-family="Helvetica,sans-Serif" font-size="10.00">&#45;</text>
<text text-anchor="start" x="301" y="-21.5" font-family="Helvetica,sans-Serif" font-size="10.00">setupTree()</text>
<text text-anchor="start" x="290.5" y="-6.5" font-family="Helvetica,sans-Serif" font-size="10.00">&#45;</text>
<text text-anchor="start" x="301" y="-6.5" font-family="Helvetica,sans-Serif" font-size="10.00">itemActivated()</text>
<polygon fill="#666666" stroke="#666666" points="284,-211.5 284,-211.5 405,-211.5 405,-211.5 284,-211.5"/>
<polygon fill="#666666" stroke="#666666" points="284,-166.5 284,-166.5 299,-166.5 299,-166.5 284,-166.5"/>
<polygon fill="#666666" stroke="#666666" points="299,-166.5 299,-166.5 405,-166.5 405,-166.5 299,-166.5"/>
<polygon fill="none" stroke="#666666" points="283.5,0 283.5,-229 404.5,-229 404.5,0 283.5,0"/>
</a>
</g>
</g>
<!-- Node1&#45;&gt;Node5 -->
<g id="edge4_Node000001_Node000005" class="edge">
<title>Node1&#45;&gt;Node5</title>
<g id="a_edge4_Node000001_Node000005"><a xlink:title=" ">
<path fill="none" stroke="#63b8ff" d="M299.33,-255.41C302.06,-246.86 304.86,-238.07 307.67,-229.29"/>
<polygon fill="none" stroke="#63b8ff" points="295.98,-254.38 296.28,-264.97 302.65,-256.51 295.98,-254.38"/>
</a>
</g>
</g>
<!-- Node6 -->
<g id="Node000006" class="node">
<title>Node6</title>
<g id="a_Node000006"><a xlink:href="../../d6/d9b/classCLexiconKeyChooser.html" target="_top" xlink:title=" ">
<polygon fill="white" stroke="transparent" points="553.5,-191.5 422.5,-191.5 422.5,-37.5 553.5,-37.5 553.5,-191.5"/>
<text text-anchor="start" x="437" y="-179.5" font-family="Helvetica,sans-Serif" font-size="10.00">CLexiconKeyChooser</text>
<text text-anchor="start" x="429.5" y="-164.5" font-family="Helvetica,sans-Serif" font-size="10.00">&#45;</text>
<text text-anchor="start" x="440" y="-164.5" font-family="Helvetica,sans-Serif" font-size="10.00">m_key</text>
<text text-anchor="start" x="429.5" y="-149.5" font-family="Helvetica,sans-Serif" font-size="10.00">&#45;</text>
<text text-anchor="start" x="440" y="-149.5" font-family="Helvetica,sans-Serif" font-size="10.00">m_modules</text>
<text text-anchor="start" x="429.5" y="-134.5" font-family="Helvetica,sans-Serif" font-size="10.00">&#45;</text>
<text text-anchor="start" x="440" y="-134.5" font-family="Helvetica,sans-Serif" font-size="10.00">m_widget</text>
<text text-anchor="start" x="427" y="-119.5" font-family="Helvetica,sans-Serif" font-size="10.00">+</text>
<text text-anchor="start" x="440" y="-119.5" font-family="Helvetica,sans-Serif" font-size="10.00">CLexiconKeyChooser()</text>
<text text-anchor="start" x="427" y="-104.5" font-family="Helvetica,sans-Serif" font-size="10.00">+</text>
<text text-anchor="start" x="440" y="-104.5" font-family="Helvetica,sans-Serif" font-size="10.00">key()</text>
<text text-anchor="start" x="427" y="-89.5" font-family="Helvetica,sans-Serif" font-size="10.00">+</text>
<text text-anchor="start" x="440" y="-89.5" font-family="Helvetica,sans-Serif" font-size="10.00">refreshContent()</text>
<text text-anchor="start" x="427" y="-74.5" font-family="Helvetica,sans-Serif" font-size="10.00">+</text>
<text text-anchor="start" x="440" y="-74.5" font-family="Helvetica,sans-Serif" font-size="10.00">setKey()</text>
<text text-anchor="start" x="427" y="-59.5" font-family="Helvetica,sans-Serif" font-size="10.00">+</text>
<text text-anchor="start" x="440" y="-59.5" font-family="Helvetica,sans-Serif" font-size="10.00">setModules()</text>
<text text-anchor="start" x="427" y="-44.5" font-family="Helvetica,sans-Serif" font-size="10.00">+</text>
<text text-anchor="start" x="440" y="-44.5" font-family="Helvetica,sans-Serif" font-size="10.00">updateKey()</text>
<polygon fill="#666666" stroke="#666666" points="423,-174.5 423,-174.5 554,-174.5 554,-174.5 423,-174.5"/>
<polygon fill="#666666" stroke="#666666" points="423,-129.5 423,-129.5 438,-129.5 438,-129.5 423,-129.5"/>
<polygon fill="#666666" stroke="#666666" points="438,-129.5 438,-129.5 554,-129.5 554,-129.5 438,-129.5"/>
<polygon fill="none" stroke="#666666" points="422.5,-37.5 422.5,-191.5 553.5,-191.5 553.5,-37.5 422.5,-37.5"/>
</a>
</g>
</g>
<!-- Node1&#45;&gt;Node6 -->
<g id="edge5_Node000001_Node000006" class="edge">
<title>Node1&#45;&gt;Node6</title>
<g id="a_edge5_Node000001_Node000006"><a xlink:title=" ">
<path fill="none" stroke="#63b8ff" d="M345.45,-290.35C368.76,-272.44 393.73,-251.19 414,-229 424.39,-217.63 434.31,-204.64 443.32,-191.62"/>
<polygon fill="none" stroke="#63b8ff" points="343.14,-287.72 337.28,-296.55 347.37,-293.29 343.14,-287.72"/>
</a>
</g>
</g>
<!-- Node2 -->
<g id="Node000002" class="node">
<title>Node2</title>
<g id="a_Node000002"><a xlink:href="../../d8/ded/classQWidget.html" target="_top" xlink:title=" ">
<polygon fill="white" stroke="transparent" points="298.5,-504 245.5,-504 245.5,-455 298.5,-455 298.5,-504"/>
<text text-anchor="start" x="251" y="-491.5" font-family="Helvetica,sans-Serif" font-size="10.00">QWidget</text>
<text text-anchor="start" x="270.5" y="-476.5" font-family="Helvetica,sans-Serif" font-size="10.00"> </text>
<text text-anchor="start" x="270.5" y="-461.5" font-family="Helvetica,sans-Serif" font-size="10.00"> </text>
<polygon fill="#666666" stroke="#666666" points="246,-486.5 246,-486.5 299,-486.5 299,-486.5 246,-486.5"/>
<polygon fill="#666666" stroke="#666666" points="246,-471.5 246,-471.5 299,-471.5 299,-471.5 246,-471.5"/>
<polygon fill="none" stroke="#666666" points="245.5,-455 245.5,-504 298.5,-504 298.5,-455 245.5,-455"/>
</a>
</g>
</g>
<!-- Node2&#45;&gt;Node1 -->
<g id="edge1_Node000001_Node000002" class="edge">
<title>Node2&#45;&gt;Node1</title>
<g id="a_edge1_Node000001_Node000002"><a xlink:title=" ">
<path fill="none" stroke="#63b8ff" d="M272,-444.66C272,-436.74 272,-427.97 272,-419.01"/>
<polygon fill="none" stroke="#63b8ff" points="268.5,-444.9 272,-454.9 275.5,-444.9 268.5,-444.9"/>
</a>
</g>
</g>
</g>
</svg>
