<?xml version="1.0" encoding="UTF-8" standalone="no"?>
<!DOCTYPE svg PUBLIC "-//W3C//DTD SVG 1.1//EN"
 "http://www.w3.org/Graphics/SVG/1.1/DTD/svg11.dtd">
<!-- Generated by graphviz version 2.43.0 (0)
 -->
<!-- Title: BookshelfModel::IndexingItem Pages: 1 -->
<svg width="271pt" height="614pt"
 viewBox="0.00 0.00 271.00 614.00" xmlns="http://www.w3.org/2000/svg" xmlns:xlink="http://www.w3.org/1999/xlink">
<g id="graph0" class="graph" transform="scale(1 1) rotate(0) translate(4 610)">
<title>BookshelfModel::IndexingItem</title>
<polygon fill="white" stroke="transparent" points="-4,4 -4,-610 267,-610 267,4 -4,4"/>
<!-- Node1 -->
<g id="node1" class="node">
<title>Node1</title>
<g id="a_node1"><a xlink:title=" ">
<polygon fill="#bfbfbf" stroke="black" points="0,-0.5 0,-79.5 166,-79.5 166,-0.5 0,-0.5"/>
<text text-anchor="middle" x="83" y="-67.5" font-family="Helvetica,sans-Serif" font-size="10.00">BookshelfModel::IndexingItem</text>
<polyline fill="none" stroke="black" points="0,-60.5 166,-60.5 "/>
<text text-anchor="start" x="8" y="-48.5" font-family="Helvetica,sans-Serif" font-size="10.00">&#45; m_indexed</text>
<polyline fill="none" stroke="black" points="0,-41.5 166,-41.5 "/>
<text text-anchor="start" x="8" y="-29.5" font-family="Helvetica,sans-Serif" font-size="10.00">+ data()</text>
<text text-anchor="start" x="8" y="-18.5" font-family="Helvetica,sans-Serif" font-size="10.00">+ fitFor()</text>
<text text-anchor="start" x="8" y="-7.5" font-family="Helvetica,sans-Serif" font-size="10.00">+ IndexingItem()</text>
</a>
</g>
</g>
<!-- Node2 -->
<g id="node2" class="node">
<title>Node2</title>
<g id="a_node2"><a xlink:href="../../d1/dcc/classBookshelfModel_1_1GroupItem.html" target="_top" xlink:title=" ">
<polygon fill="white" stroke="black" points="6.5,-117.5 6.5,-196.5 159.5,-196.5 159.5,-117.5 6.5,-117.5"/>
<text text-anchor="start" x="14.5" y="-184.5" font-family="Helvetica,sans-Serif" font-size="10.00">BookshelfModel::GroupItem</text>
<text text-anchor="middle" x="83" y="-173.5" font-family="Helvetica,sans-Serif" font-size="10.00">&lt; Item::ITEM_INDEXING &gt;</text>
<polyline fill="none" stroke="black" points="6.5,-166.5 159.5,-166.5 "/>
<text text-anchor="middle" x="83" y="-154.5" font-family="Helvetica,sans-Serif" font-size="10.00"> </text>
<polyline fill="none" stroke="black" points="6.5,-147.5 159.5,-147.5 "/>
<text text-anchor="start" x="14.5" y="-135.5" font-family="Helvetica,sans-Serif" font-size="10.00">+ GroupItem()</text>
<text text-anchor="start" x="14.5" y="-124.5" font-family="Helvetica,sans-Serif" font-size="10.00">+ staticItemType()</text>
</a>
</g>
</g>
<!-- Node2&#45;&gt;Node1 -->
<g id="edge1" class="edge">
<title>Node2&#45;&gt;Node1</title>
<path fill="none" stroke="midnightblue" d="M83,-107.2C83,-98.02 83,-88.53 83,-79.71"/>
<polygon fill="none" stroke="midnightblue" points="79.5,-107.39 83,-117.39 86.5,-107.39 79.5,-107.39"/>
</g>
<!-- Node3 -->
<g id="node3" class="node">
<title>Node3</title>
<g id="a_node3"><a xlink:href="../../d5/d1c/classBookshelfModel_1_1Item.html" target="_top" xlink:title=" ">
<polygon fill="white" stroke="black" points="17,-361.5 17,-605.5 141,-605.5 141,-361.5 17,-361.5"/>
<text text-anchor="middle" x="79" y="-593.5" font-family="Helvetica,sans-Serif" font-size="10.00">BookshelfModel::Item</text>
<polyline fill="none" stroke="black" points="17,-586.5 141,-586.5 "/>
<text text-anchor="start" x="25" y="-574.5" font-family="Helvetica,sans-Serif" font-size="10.00">&#45; m_checkState</text>
<text text-anchor="start" x="25" y="-563.5" font-family="Helvetica,sans-Serif" font-size="10.00">&#45; m_children</text>
<text text-anchor="start" x="25" y="-552.5" font-family="Helvetica,sans-Serif" font-size="10.00">&#45; m_parent</text>
<text text-anchor="start" x="25" y="-541.5" font-family="Helvetica,sans-Serif" font-size="10.00">&#45; m_type</text>
<polyline fill="none" stroke="black" points="17,-534.5 141,-534.5 "/>
<text text-anchor="start" x="25" y="-522.5" font-family="Helvetica,sans-Serif" font-size="10.00">+ checkState()</text>
<text text-anchor="start" x="25" y="-511.5" font-family="Helvetica,sans-Serif" font-size="10.00">+ childIndex()</text>
<text text-anchor="start" x="25" y="-500.5" font-family="Helvetica,sans-Serif" font-size="10.00">+ children()</text>
<text text-anchor="start" x="25" y="-489.5" font-family="Helvetica,sans-Serif" font-size="10.00">+ data()</text>
<text text-anchor="start" x="25" y="-478.5" font-family="Helvetica,sans-Serif" font-size="10.00">+ fitFor()</text>
<text text-anchor="start" x="25" y="-467.5" font-family="Helvetica,sans-Serif" font-size="10.00">+ getGroupItem()</text>
<text text-anchor="start" x="25" y="-456.5" font-family="Helvetica,sans-Serif" font-size="10.00">+ indexFor()</text>
<text text-anchor="start" x="25" y="-445.5" font-family="Helvetica,sans-Serif" font-size="10.00">+ insertChild()</text>
<text text-anchor="start" x="25" y="-434.5" font-family="Helvetica,sans-Serif" font-size="10.00">+ Item()</text>
<text text-anchor="start" x="25" y="-423.5" font-family="Helvetica,sans-Serif" font-size="10.00">+ operator&lt;()</text>
<text text-anchor="start" x="25" y="-412.5" font-family="Helvetica,sans-Serif" font-size="10.00">+ parent()</text>
<text text-anchor="start" x="25" y="-401.5" font-family="Helvetica,sans-Serif" font-size="10.00">+ setCheckState()</text>
<text text-anchor="start" x="25" y="-390.5" font-family="Helvetica,sans-Serif" font-size="10.00">+ type()</text>
<text text-anchor="start" x="25" y="-379.5" font-family="Helvetica,sans-Serif" font-size="10.00">+ ~Item()</text>
<text text-anchor="start" x="25" y="-368.5" font-family="Helvetica,sans-Serif" font-size="10.00">&#45; setParent()</text>
</a>
</g>
</g>
<!-- Node3&#45;&gt;Node2 -->
<g id="edge2" class="edge">
<title>Node3&#45;&gt;Node2</title>
<path fill="none" stroke="midnightblue" d="M80.62,-350.91C81.31,-295.45 82.05,-235.03 82.52,-196.86"/>
<polygon fill="none" stroke="midnightblue" points="77.12,-351.16 80.5,-361.21 84.12,-351.25 77.12,-351.16"/>
</g>
<!-- Node4 -->
<g id="node4" class="node">
<title>Node4</title>
<g id="a_node4"><a xlink:href="../../d1/dcc/classBookshelfModel_1_1GroupItem.html" target="_top" xlink:title=" ">
<polygon fill="white" stroke="black" points="95.5,-244.5 95.5,-323.5 248.5,-323.5 248.5,-244.5 95.5,-244.5"/>
<text text-anchor="start" x="103.5" y="-311.5" font-family="Helvetica,sans-Serif" font-size="10.00">BookshelfModel::GroupItem</text>
<text text-anchor="middle" x="172" y="-300.5" font-family="Helvetica,sans-Serif" font-size="10.00">&lt; TYPE &gt;</text>
<polyline fill="none" stroke="black" points="95.5,-293.5 248.5,-293.5 "/>
<text text-anchor="middle" x="172" y="-281.5" font-family="Helvetica,sans-Serif" font-size="10.00"> </text>
<polyline fill="none" stroke="black" points="95.5,-274.5 248.5,-274.5 "/>
<text text-anchor="start" x="103.5" y="-262.5" font-family="Helvetica,sans-Serif" font-size="10.00">+ GroupItem()</text>
<text text-anchor="start" x="103.5" y="-251.5" font-family="Helvetica,sans-Serif" font-size="10.00">+ staticItemType()</text>
</a>
</g>
</g>
<!-- Node3&#45;&gt;Node4 -->
<g id="edge4" class="edge">
<title>Node3&#45;&gt;Node4</title>
<path fill="none" stroke="midnightblue" d="M140.34,-352.24C145.16,-341.99 149.75,-332.25 153.86,-323.52"/>
<polygon fill="none" stroke="midnightblue" points="137.14,-350.82 136.04,-361.36 143.47,-353.8 137.14,-350.82"/>
</g>
<!-- Node4&#45;&gt;Node2 -->
<g id="edge3" class="edge">
<title>Node4&#45;&gt;Node2</title>
<path fill="none" stroke="orange" d="M138.6,-236.09C129.33,-223.07 119.38,-209.09 110.49,-196.61"/>
<polygon fill="orange" stroke="orange" points="135.92,-238.36 144.57,-244.48 141.62,-234.3 135.92,-238.36"/>
<text text-anchor="middle" x="196.5" y="-218" font-family="Helvetica,sans-Serif" font-size="10.00"> &lt; Item::ITEM_INDEXING &gt;</text>
</g>
</g>
</svg>
