<?xml version="1.0" encoding="UTF-8" standalone="no"?>
<!DOCTYPE svg PUBLIC "-//W3C//DTD SVG 1.1//EN"
 "http://www.w3.org/Graphics/SVG/1.1/DTD/svg11.dtd">
<!-- Generated by graphviz version 2.43.0 (0)
 -->
<!-- Title: cswordbiblemoduleinfo.h Pages: 1 -->
<svg width="1603pt" height="137pt"
 viewBox="0.00 0.00 1602.50 137.00" xmlns="http://www.w3.org/2000/svg" xmlns:xlink="http://www.w3.org/1999/xlink">
<g id="graph0" class="graph" transform="scale(1 1) rotate(0) translate(4 133)">
<title>cswordbiblemoduleinfo.h</title>
<!-- Node1 -->
<g id="Node000001" class="node">
<title>Node1</title>
<g id="a_Node000001"><a xlink:title=" ">
<polygon fill="#999999" stroke="#666666" points="919.5,-129 779.5,-129 779.5,-110 919.5,-110 919.5,-129"/>
<text text-anchor="middle" x="849.5" y="-117" font-family="Helvetica,sans-Serif" font-size="10.00">cswordbiblemoduleinfo.h</text>
</a>
</g>
</g>
<!-- Node2 -->
<g id="Node000002" class="node">
<title>Node2</title>
<g id="a_Node000002"><a xlink:href="../../db/dc9/btbiblekeywidget_8h.html" target="_top" xlink:title=" ">
<polygon fill="white" stroke="#666666" points="276.5,-74 166.5,-74 166.5,-55 276.5,-55 276.5,-74"/>
<text text-anchor="middle" x="221.5" y="-62" font-family="Helvetica,sans-Serif" font-size="10.00">btbiblekeywidget.h</text>
</a>
</g>
</g>
<!-- Node1&#45;&gt;Node2 -->
<g id="edge1_Node000001_Node000002" class="edge">
<title>Node1&#45;&gt;Node2</title>
<g id="a_edge1_Node000001_Node000002"><a xlink:title=" ">
<path fill="none" stroke="#63b8ff" d="M769.02,-113.19C660.32,-105.76 460.57,-91.24 290.5,-74 286.06,-73.55 281.46,-73.05 276.84,-72.53"/>
<polygon fill="#63b8ff" stroke="#63b8ff" points="769.04,-116.7 779.26,-113.88 769.52,-109.71 769.04,-116.7"/>
</a>
</g>
</g>
<!-- Node5 -->
<g id="Node000005" class="node">
<title>Node5</title>
<g id="a_Node000005"><a xlink:href="../../dc/d8f/cbiblekeychooser_8cpp.html" target="_top" xlink:title=" ">
<polygon fill="white" stroke="#666666" points="443,-19 322,-19 322,0 443,0 443,-19"/>
<text text-anchor="middle" x="382.5" y="-7" font-family="Helvetica,sans-Serif" font-size="10.00">cbiblekeychooser.cpp</text>
</a>
</g>
</g>
<!-- Node1&#45;&gt;Node5 -->
<g id="edge7_Node000001_Node000005" class="edge">
<title>Node1&#45;&gt;Node5</title>
<g id="a_edge7_Node000001_Node000005"><a xlink:title=" ">
<path fill="none" stroke="#63b8ff" d="M769.04,-117.55C629.13,-115.06 352.99,-106.09 323.5,-74 305.38,-54.28 340.98,-31.28 364.36,-19.1"/>
<polygon fill="#63b8ff" stroke="#63b8ff" points="769.23,-121.06 779.29,-117.73 769.35,-114.06 769.23,-121.06"/>
</a>
</g>
</g>
<!-- Node6 -->
<g id="Node000006" class="node">
<title>Node6</title>
<g id="a_Node000006"><a xlink:href="../../de/db2/btmodelviewreaddisplay_8cpp.html" target="_top" xlink:title=" ">
<polygon fill="white" stroke="#666666" points="488.5,-74 332.5,-74 332.5,-55 488.5,-55 488.5,-74"/>
<text text-anchor="middle" x="410.5" y="-62" font-family="Helvetica,sans-Serif" font-size="10.00">btmodelviewreaddisplay.cpp</text>
</a>
</g>
</g>
<!-- Node1&#45;&gt;Node6 -->
<g id="edge5_Node000001_Node000006" class="edge">
<title>Node1&#45;&gt;Node6</title>
<g id="a_edge5_Node000001_Node000006"><a xlink:title=" ">
<path fill="none" stroke="#63b8ff" d="M769.38,-108.83C686.94,-98.87 559.76,-83.52 481.02,-74.01"/>
<polygon fill="#63b8ff" stroke="#63b8ff" points="769.11,-112.32 779.45,-110.04 769.95,-105.37 769.11,-112.32"/>
</a>
</g>
</g>
<!-- Node7 -->
<g id="Node000007" class="node">
<title>Node7</title>
<g id="a_Node000007"><a xlink:href="../../de/d93/btmoduletextmodel_8cpp.html" target="_top" xlink:title=" ">
<polygon fill="white" stroke="#666666" points="640.5,-74 506.5,-74 506.5,-55 640.5,-55 640.5,-74"/>
<text text-anchor="middle" x="573.5" y="-62" font-family="Helvetica,sans-Serif" font-size="10.00">btmoduletextmodel.cpp</text>
</a>
</g>
</g>
<!-- Node1&#45;&gt;Node7 -->
<g id="edge6_Node000001_Node000007" class="edge">
<title>Node1&#45;&gt;Node7</title>
<g id="a_edge6_Node000001_Node000007"><a xlink:title=" ">
<path fill="none" stroke="#63b8ff" d="M795.16,-108.07C743.42,-98.13 666.47,-83.35 618.19,-74.08"/>
<polygon fill="#63b8ff" stroke="#63b8ff" points="794.68,-111.54 805.16,-109.98 796,-104.66 794.68,-111.54"/>
</a>
</g>
</g>
<!-- Node8 -->
<g id="Node000008" class="node">
<title>Node8</title>
<g id="a_Node000008"><a xlink:href="../../d7/d2f/cbiblekeychooser_8h.html" target="_top" xlink:title=" ">
<polygon fill="white" stroke="#666666" points="768.5,-74 658.5,-74 658.5,-55 768.5,-55 768.5,-74"/>
<text text-anchor="middle" x="713.5" y="-62" font-family="Helvetica,sans-Serif" font-size="10.00">cbiblekeychooser.h</text>
</a>
</g>
</g>
<!-- Node1&#45;&gt;Node8 -->
<g id="edge8_Node000001_Node000008" class="edge">
<title>Node1&#45;&gt;Node8</title>
<g id="a_edge8_Node000001_Node000008"><a xlink:title=" ">
<path fill="none" stroke="#63b8ff" d="M818.17,-106.29C792.96,-96.47 758.17,-82.91 735.75,-74.17"/>
<polygon fill="#63b8ff" stroke="#63b8ff" points="817.06,-109.61 827.65,-109.98 819.6,-103.09 817.06,-109.61"/>
</a>
</g>
</g>
<!-- Node10 -->
<g id="Node000010" class="node">
<title>Node10</title>
<g id="a_Node000010"><a xlink:href="../../de/da4/cbiblereadwindow_8cpp.html" target="_top" xlink:title=" ">
<polygon fill="white" stroke="#666666" points="912,-74 787,-74 787,-55 912,-55 912,-74"/>
<text text-anchor="middle" x="849.5" y="-62" font-family="Helvetica,sans-Serif" font-size="10.00">cbiblereadwindow.cpp</text>
</a>
</g>
</g>
<!-- Node1&#45;&gt;Node10 -->
<g id="edge11_Node000001_Node000010" class="edge">
<title>Node1&#45;&gt;Node10</title>
<g id="a_edge11_Node000001_Node000010"><a xlink:title=" ">
<path fill="none" stroke="#63b8ff" d="M849.5,-99.66C849.5,-90.93 849.5,-80.99 849.5,-74.09"/>
<polygon fill="#63b8ff" stroke="#63b8ff" points="846,-99.75 849.5,-109.75 853,-99.75 846,-99.75"/>
</a>
</g>
</g>
<!-- Node11 -->
<g id="Node000011" class="node">
<title>Node11</title>
<g id="a_Node000011"><a xlink:href="../../d9/d7b/cswordbackend_8cpp.html" target="_top" xlink:title=" ">
<polygon fill="white" stroke="#666666" points="1055.5,-19 943.5,-19 943.5,0 1055.5,0 1055.5,-19"/>
<text text-anchor="middle" x="999.5" y="-7" font-family="Helvetica,sans-Serif" font-size="10.00">cswordbackend.cpp</text>
</a>
</g>
</g>
<!-- Node1&#45;&gt;Node11 -->
<g id="edge12_Node000001_Node000011" class="edge">
<title>Node1&#45;&gt;Node11</title>
<g id="a_edge12_Node000001_Node000011"><a xlink:title=" ">
<path fill="none" stroke="#63b8ff" d="M872.83,-104.82C886.9,-96.34 905.04,-85 920.5,-74 946.31,-55.64 974.88,-31.7 989.57,-19.11"/>
<polygon fill="#63b8ff" stroke="#63b8ff" points="871.03,-101.82 864.24,-109.95 874.62,-107.83 871.03,-101.82"/>
</a>
</g>
</g>
<!-- Node12 -->
<g id="Node000012" class="node">
<title>Node12</title>
<g id="a_Node000012"><a xlink:href="../../d4/d94/cswordbiblemoduleinfo_8cpp.html" target="_top" xlink:title=" ">
<polygon fill="white" stroke="#666666" points="1120,-74 969,-74 969,-55 1120,-55 1120,-74"/>
<text text-anchor="middle" x="1044.5" y="-62" font-family="Helvetica,sans-Serif" font-size="10.00">cswordbiblemoduleinfo.cpp</text>
</a>
</g>
</g>
<!-- Node1&#45;&gt;Node12 -->
<g id="edge13_Node000001_Node000012" class="edge">
<title>Node1&#45;&gt;Node12</title>
<g id="a_edge13_Node000001_Node000012"><a xlink:title=" ">
<path fill="none" stroke="#63b8ff" d="M890.67,-107.31C927.16,-97.39 979.67,-83.12 1012.92,-74.08"/>
<polygon fill="#63b8ff" stroke="#63b8ff" points="889.56,-103.98 880.83,-109.98 891.4,-110.74 889.56,-103.98"/>
</a>
</g>
</g>
<!-- Node13 -->
<g id="Node000013" class="node">
<title>Node13</title>
<g id="a_Node000013"><a xlink:href="../../de/dcf/cswordcommentarymoduleinfo_8h.html" target="_top" xlink:title=" ">
<polygon fill="white" stroke="#666666" points="1316.5,-74 1138.5,-74 1138.5,-55 1316.5,-55 1316.5,-74"/>
<text text-anchor="middle" x="1227.5" y="-62" font-family="Helvetica,sans-Serif" font-size="10.00">cswordcommentarymoduleinfo.h</text>
</a>
</g>
</g>
<!-- Node1&#45;&gt;Node13 -->
<g id="edge14_Node000001_Node000013" class="edge">
<title>Node1&#45;&gt;Node13</title>
<g id="a_edge14_Node000001_Node000013"><a xlink:title=" ">
<path fill="none" stroke="#63b8ff" d="M920.42,-108.56C991.39,-98.61 1099.41,-83.46 1166.61,-74.04"/>
<polygon fill="#63b8ff" stroke="#63b8ff" points="919.65,-105.13 910.23,-109.98 920.62,-112.06 919.65,-105.13"/>
</a>
</g>
</g>
<!-- Node15 -->
<g id="Node000015" class="node">
<title>Node15</title>
<g id="a_Node000015"><a xlink:href="../../d3/db9/cswordmoduleinfo_8cpp.html" target="_top" xlink:title=" ">
<polygon fill="white" stroke="#666666" points="1462,-74 1335,-74 1335,-55 1462,-55 1462,-74"/>
<text text-anchor="middle" x="1398.5" y="-62" font-family="Helvetica,sans-Serif" font-size="10.00">cswordmoduleinfo.cpp</text>
</a>
</g>
</g>
<!-- Node1&#45;&gt;Node15 -->
<g id="edge17_Node000001_Node000015" class="edge">
<title>Node1&#45;&gt;Node15</title>
<g id="a_edge17_Node000001_Node000015"><a xlink:title=" ">
<path fill="none" stroke="#63b8ff" d="M929.79,-111.55C1024.46,-103.23 1186.52,-88.59 1325.5,-74 1328.55,-73.68 1331.66,-73.35 1334.81,-73"/>
<polygon fill="#63b8ff" stroke="#63b8ff" points="929.37,-108.08 919.72,-112.44 929.98,-115.05 929.37,-108.08"/>
</a>
</g>
</g>
<!-- Node16 -->
<g id="Node000016" class="node">
<title>Node16</title>
<g id="a_Node000016"><a xlink:href="../../d1/ddc/cswordversekey_8cpp.html" target="_top" xlink:title=" ">
<polygon fill="white" stroke="#666666" points="1594.5,-74 1480.5,-74 1480.5,-55 1594.5,-55 1594.5,-74"/>
<text text-anchor="middle" x="1537.5" y="-62" font-family="Helvetica,sans-Serif" font-size="10.00">cswordversekey.cpp</text>
</a>
</g>
</g>
<!-- Node1&#45;&gt;Node16 -->
<g id="edge18_Node000001_Node000016" class="edge">
<title>Node1&#45;&gt;Node16</title>
<g id="a_edge18_Node000001_Node000016"><a xlink:title=" ">
<path fill="none" stroke="#63b8ff" d="M929.65,-114.22C1048.24,-107.56 1277.33,-93.43 1471.5,-74 1474.37,-73.71 1477.32,-73.4 1480.29,-73.07"/>
<polygon fill="#63b8ff" stroke="#63b8ff" points="929.36,-110.73 919.57,-114.78 929.75,-117.72 929.36,-110.73"/>
</a>
</g>
</g>
<!-- Node3 -->
<g id="Node000003" class="node">
<title>Node3</title>
<g id="a_Node000003"><a xlink:href="../../d7/d92/btbiblekeywidget_8cpp.html" target="_top" xlink:title=" ">
<polygon fill="white" stroke="#666666" points="121,-19 0,-19 0,0 121,0 121,-19"/>
<text text-anchor="middle" x="60.5" y="-7" font-family="Helvetica,sans-Serif" font-size="10.00">btbiblekeywidget.cpp</text>
</a>
</g>
</g>
<!-- Node2&#45;&gt;Node3 -->
<g id="edge2_Node000002_Node000003" class="edge">
<title>Node2&#45;&gt;Node3</title>
<g id="a_edge2_Node000002_Node000003"><a xlink:title=" ">
<path fill="none" stroke="#63b8ff" d="M185.95,-51.8C155.91,-41.91 113.56,-27.97 86.57,-19.08"/>
<polygon fill="#63b8ff" stroke="#63b8ff" points="185.04,-55.18 195.63,-54.98 187.23,-48.53 185.04,-55.18"/>
</a>
</g>
</g>
<!-- Node4 -->
<g id="Node000004" class="node">
<title>Node4</title>
<g id="a_Node000004"><a xlink:href="../../df/dae/btdropdownchooserbutton_8cpp.html" target="_top" xlink:title=" ">
<polygon fill="white" stroke="#666666" points="303.5,-19 139.5,-19 139.5,0 303.5,0 303.5,-19"/>
<text text-anchor="middle" x="221.5" y="-7" font-family="Helvetica,sans-Serif" font-size="10.00">btdropdownchooserbutton.cpp</text>
</a>
</g>
</g>
<!-- Node2&#45;&gt;Node4 -->
<g id="edge3_Node000002_Node000004" class="edge">
<title>Node2&#45;&gt;Node4</title>
<g id="a_edge3_Node000002_Node000004"><a xlink:title=" ">
<path fill="none" stroke="#63b8ff" d="M221.5,-44.66C221.5,-35.93 221.5,-25.99 221.5,-19.09"/>
<polygon fill="#63b8ff" stroke="#63b8ff" points="218,-44.75 221.5,-54.75 225,-44.75 218,-44.75"/>
</a>
</g>
</g>
<!-- Node2&#45;&gt;Node5 -->
<g id="edge4_Node000002_Node000005" class="edge">
<title>Node2&#45;&gt;Node5</title>
<g id="a_edge4_Node000002_Node000005"><a xlink:title=" ">
<path fill="none" stroke="#63b8ff" d="M257.05,-51.8C287.09,-41.91 329.44,-27.97 356.43,-19.08"/>
<polygon fill="#63b8ff" stroke="#63b8ff" points="255.77,-48.53 247.37,-54.98 257.96,-55.18 255.77,-48.53"/>
</a>
</g>
</g>
<!-- Node8&#45;&gt;Node5 -->
<g id="edge9_Node000008_Node000005" class="edge">
<title>Node8&#45;&gt;Node5</title>
<g id="a_edge9_Node000008_Node000005"><a xlink:title=" ">
<path fill="none" stroke="#63b8ff" d="M650.24,-53.37C588.09,-43.42 494.3,-28.4 435.82,-19.04"/>
<polygon fill="#63b8ff" stroke="#63b8ff" points="649.89,-56.86 660.32,-54.98 651,-49.95 649.89,-56.86"/>
</a>
</g>
</g>
<!-- Node9 -->
<g id="Node000009" class="node">
<title>Node9</title>
<g id="a_Node000009"><a xlink:href="../../d4/d0c/ckeychooser_8cpp.html" target="_top" xlink:title=" ">
<polygon fill="white" stroke="#666666" points="762,-19 665,-19 665,0 762,0 762,-19"/>
<text text-anchor="middle" x="713.5" y="-7" font-family="Helvetica,sans-Serif" font-size="10.00">ckeychooser.cpp</text>
</a>
</g>
</g>
<!-- Node8&#45;&gt;Node9 -->
<g id="edge10_Node000008_Node000009" class="edge">
<title>Node8&#45;&gt;Node9</title>
<g id="a_edge10_Node000008_Node000009"><a xlink:title=" ">
<path fill="none" stroke="#63b8ff" d="M713.5,-44.66C713.5,-35.93 713.5,-25.99 713.5,-19.09"/>
<polygon fill="#63b8ff" stroke="#63b8ff" points="710,-44.75 713.5,-54.75 717,-44.75 710,-44.75"/>
</a>
</g>
</g>
<!-- Node13&#45;&gt;Node11 -->
<g id="edge15_Node000013_Node000011" class="edge">
<title>Node13&#45;&gt;Node11</title>
<g id="a_edge15_Node000013_Node000011"><a xlink:title=" ">
<path fill="none" stroke="#63b8ff" d="M1181,-52.69C1138.28,-42.76 1075.8,-28.24 1036.42,-19.08"/>
<polygon fill="#63b8ff" stroke="#63b8ff" points="1180.34,-56.13 1190.87,-54.98 1181.92,-49.31 1180.34,-56.13"/>
</a>
</g>
</g>
<!-- Node14 -->
<g id="Node000014" class="node">
<title>Node14</title>
<g id="a_Node000014"><a xlink:href="../../d9/db8/cswordcommentarymoduleinfo_8cpp.html" target="_top" xlink:title=" ">
<polygon fill="white" stroke="#666666" points="1322,-19 1133,-19 1133,0 1322,0 1322,-19"/>
<text text-anchor="middle" x="1227.5" y="-7" font-family="Helvetica,sans-Serif" font-size="10.00">cswordcommentarymoduleinfo.cpp</text>
</a>
</g>
</g>
<!-- Node13&#45;&gt;Node14 -->
<g id="edge16_Node000013_Node000014" class="edge">
<title>Node13&#45;&gt;Node14</title>
<g id="a_edge16_Node000013_Node000014"><a xlink:title=" ">
<path fill="none" stroke="#63b8ff" d="M1227.5,-44.66C1227.5,-35.93 1227.5,-25.99 1227.5,-19.09"/>
<polygon fill="#63b8ff" stroke="#63b8ff" points="1224,-44.75 1227.5,-54.75 1231,-44.75 1224,-44.75"/>
</a>
</g>
</g>
</g>
</svg>
