<?xml version="1.0" encoding="UTF-8" standalone="no"?>
<!DOCTYPE svg PUBLIC "-//W3C//DTD SVG 1.1//EN"
 "http://www.w3.org/Graphics/SVG/1.1/DTD/svg11.dtd">
<!-- Generated by graphviz version 2.43.0 (0)
 -->
<!-- Title: cswordbiblemoduleinfo.h Pages: 1 -->
<svg width="1609pt" height="140pt"
 viewBox="0.00 0.00 1608.50 140.00" xmlns="http://www.w3.org/2000/svg" xmlns:xlink="http://www.w3.org/1999/xlink">
<g id="graph0" class="graph" transform="scale(1 1) rotate(0) translate(4 136)">
<title>cswordbiblemoduleinfo.h</title>
<polygon fill="white" stroke="transparent" points="-4,4 -4,-136 1604.5,-136 1604.5,4 -4,4"/>
<!-- Node1 -->
<g id="node1" class="node">
<title>Node1</title>
<g id="a_node1"><a xlink:title=" ">
<polygon fill="#bfbfbf" stroke="black" points="603,-112.5 603,-131.5 743,-131.5 743,-112.5 603,-112.5"/>
<text text-anchor="middle" x="673" y="-119.5" font-family="Helvetica,sans-Serif" font-size="10.00">cswordbiblemoduleinfo.h</text>
</a>
</g>
</g>
<!-- Node2 -->
<g id="node2" class="node">
<title>Node2</title>
<g id="a_node2"><a xlink:href="../../d4/d94/cswordbiblemoduleinfo_8cpp.html" target="_top" xlink:title=" ">
<polygon fill="white" stroke="black" points="59.5,-56.5 59.5,-75.5 210.5,-75.5 210.5,-56.5 59.5,-56.5"/>
<text text-anchor="middle" x="135" y="-63.5" font-family="Helvetica,sans-Serif" font-size="10.00">cswordbiblemoduleinfo.cpp</text>
</a>
</g>
</g>
<!-- Node1&#45;&gt;Node2 -->
<g id="edge1" class="edge">
<title>Node1&#45;&gt;Node2</title>
<path fill="none" stroke="midnightblue" d="M592.89,-112.96C489.69,-102.6 311.61,-84.73 210.64,-74.59"/>
<polygon fill="midnightblue" stroke="midnightblue" points="592.64,-116.45 602.94,-113.97 593.34,-109.49 592.64,-116.45"/>
</g>
<!-- Node3 -->
<g id="node3" class="node">
<title>Node3</title>
<g id="a_node3"><a xlink:href="../../de/dcf/cswordcommentarymoduleinfo_8h.html" target="_top" xlink:title=" ">
<polygon fill="white" stroke="black" points="305,-56.5 305,-75.5 483,-75.5 483,-56.5 305,-56.5"/>
<text text-anchor="middle" x="394" y="-63.5" font-family="Helvetica,sans-Serif" font-size="10.00">cswordcommentarymoduleinfo.h</text>
</a>
</g>
</g>
<!-- Node1&#45;&gt;Node3 -->
<g id="edge2" class="edge">
<title>Node1&#45;&gt;Node3</title>
<path fill="none" stroke="midnightblue" d="M618.94,-110.54C566.21,-100.33 487,-85 438,-75.52"/>
<polygon fill="midnightblue" stroke="midnightblue" points="618.31,-113.98 628.79,-112.44 619.64,-107.11 618.31,-113.98"/>
</g>
<!-- Node5 -->
<g id="node5" class="node">
<title>Node5</title>
<g id="a_node5"><a xlink:href="../../d1/ddc/cswordversekey_8cpp.html" target="_top" xlink:title=" ">
<polygon fill="white" stroke="black" points="0,-0.5 0,-19.5 114,-19.5 114,-0.5 0,-0.5"/>
<text text-anchor="middle" x="57" y="-7.5" font-family="Helvetica,sans-Serif" font-size="10.00">cswordversekey.cpp</text>
</a>
</g>
</g>
<!-- Node1&#45;&gt;Node5 -->
<g id="edge9" class="edge">
<title>Node1&#45;&gt;Node5</title>
<path fill="none" stroke="midnightblue" d="M592.67,-121.74C507.06,-120.39 368.49,-112 255,-76 237.55,-70.47 235.94,-62.94 219,-56 179.03,-39.61 131.13,-27.13 97.83,-19.52"/>
<polygon fill="midnightblue" stroke="midnightblue" points="592.8,-125.25 602.85,-121.88 592.89,-118.25 592.8,-125.25"/>
</g>
<!-- Node6 -->
<g id="node6" class="node">
<title>Node6</title>
<g id="a_node6"><a xlink:href="../../d9/d7b/cswordbackend_8cpp.html" target="_top" xlink:title=" ">
<polygon fill="white" stroke="black" points="132,-0.5 132,-19.5 244,-19.5 244,-0.5 132,-0.5"/>
<text text-anchor="middle" x="188" y="-7.5" font-family="Helvetica,sans-Serif" font-size="10.00">cswordbackend.cpp</text>
</a>
</g>
</g>
<!-- Node1&#45;&gt;Node6 -->
<g id="edge10" class="edge">
<title>Node1&#45;&gt;Node6</title>
<path fill="none" stroke="midnightblue" d="M592.74,-121.11C514.9,-118.99 394.46,-109.76 296,-76 276.02,-69.15 224.78,-35.68 200.77,-19.63"/>
<polygon fill="midnightblue" stroke="midnightblue" points="592.88,-124.62 602.96,-121.36 593.04,-117.62 592.88,-124.62"/>
</g>
<!-- Node7 -->
<g id="node7" class="node">
<title>Node7</title>
<g id="a_node7"><a xlink:href="../../d1/df6/bibletime_8cpp.html" target="_top" xlink:title=" ">
<polygon fill="white" stroke="black" points="469.5,-0.5 469.5,-19.5 552.5,-19.5 552.5,-0.5 469.5,-0.5"/>
<text text-anchor="middle" x="511" y="-7.5" font-family="Helvetica,sans-Serif" font-size="10.00">bibletime.cpp</text>
</a>
</g>
</g>
<!-- Node1&#45;&gt;Node7 -->
<g id="edge13" class="edge">
<title>Node1&#45;&gt;Node7</title>
<path fill="none" stroke="midnightblue" d="M629.25,-109.43C607.32,-102.2 581.2,-91.31 561,-76 540.12,-60.18 523.43,-33.52 515.69,-19.78"/>
<polygon fill="midnightblue" stroke="midnightblue" points="628.41,-112.83 639,-112.49 630.51,-106.16 628.41,-112.83"/>
</g>
<!-- Node8 -->
<g id="node8" class="node">
<title>Node8</title>
<g id="a_node8"><a xlink:href="../../d4/d0c/ckeychooser_8cpp.html" target="_top" xlink:title=" ">
<polygon fill="white" stroke="black" points="570.5,-0.5 570.5,-19.5 667.5,-19.5 667.5,-0.5 570.5,-0.5"/>
<text text-anchor="middle" x="619" y="-7.5" font-family="Helvetica,sans-Serif" font-size="10.00">ckeychooser.cpp</text>
</a>
</g>
</g>
<!-- Node1&#45;&gt;Node8 -->
<g id="edge16" class="edge">
<title>Node1&#45;&gt;Node8</title>
<path fill="none" stroke="midnightblue" d="M614.31,-109.17C596.39,-102.51 578.64,-92.14 568,-76 554.02,-54.8 583.75,-31.85 603.43,-19.69"/>
<polygon fill="midnightblue" stroke="midnightblue" points="613.63,-112.63 624.23,-112.5 615.86,-106 613.63,-112.63"/>
</g>
<!-- Node9 -->
<g id="node9" class="node">
<title>Node9</title>
<g id="a_node9"><a xlink:href="../../d3/db9/cswordmoduleinfo_8cpp.html" target="_top" xlink:title=" ">
<polygon fill="white" stroke="black" points="871.5,-56.5 871.5,-75.5 998.5,-75.5 998.5,-56.5 871.5,-56.5"/>
<text text-anchor="middle" x="935" y="-63.5" font-family="Helvetica,sans-Serif" font-size="10.00">cswordmoduleinfo.cpp</text>
</a>
</g>
</g>
<!-- Node1&#45;&gt;Node9 -->
<g id="edge8" class="edge">
<title>Node1&#45;&gt;Node9</title>
<path fill="none" stroke="midnightblue" d="M724.38,-110.41C773.9,-100.2 847.86,-84.96 893.68,-75.52"/>
<polygon fill="midnightblue" stroke="midnightblue" points="723.6,-107 714.51,-112.44 725.02,-113.85 723.6,-107"/>
</g>
<!-- Node10 -->
<g id="node10" class="node">
<title>Node10</title>
<g id="a_node10"><a xlink:href="../../de/d93/btmoduletextmodel_8cpp.html" target="_top" xlink:title=" ">
<polygon fill="white" stroke="black" points="1017,-56.5 1017,-75.5 1151,-75.5 1151,-56.5 1017,-56.5"/>
<text text-anchor="middle" x="1084" y="-63.5" font-family="Helvetica,sans-Serif" font-size="10.00">btmoduletextmodel.cpp</text>
</a>
</g>
</g>
<!-- Node1&#45;&gt;Node10 -->
<g id="edge11" class="edge">
<title>Node1&#45;&gt;Node10</title>
<path fill="none" stroke="midnightblue" d="M748.32,-111.1C825.93,-100.91 945.66,-85.18 1019.18,-75.52"/>
<polygon fill="midnightblue" stroke="midnightblue" points="747.58,-107.67 738.12,-112.44 748.49,-114.61 747.58,-107.67"/>
</g>
<!-- Node11 -->
<g id="node11" class="node">
<title>Node11</title>
<g id="a_node11"><a xlink:href="../../d0/d6c/cchapterdisplay_8cpp.html" target="_top" xlink:title=" ">
<polygon fill="white" stroke="black" points="1169.5,-56.5 1169.5,-75.5 1282.5,-75.5 1282.5,-56.5 1169.5,-56.5"/>
<text text-anchor="middle" x="1226" y="-63.5" font-family="Helvetica,sans-Serif" font-size="10.00">cchapterdisplay.cpp</text>
</a>
</g>
</g>
<!-- Node1&#45;&gt;Node11 -->
<g id="edge12" class="edge">
<title>Node1&#45;&gt;Node11</title>
<path fill="none" stroke="midnightblue" d="M753.25,-114.66C849.87,-106.78 1017.01,-92.35 1160,-76 1163.1,-75.65 1166.28,-75.27 1169.49,-74.87"/>
<polygon fill="midnightblue" stroke="midnightblue" points="752.95,-111.17 743.26,-115.47 753.51,-118.15 752.95,-111.17"/>
</g>
<!-- Node12 -->
<g id="node12" class="node">
<title>Node12</title>
<g id="a_node12"><a xlink:href="../../de/db2/btmodelviewreaddisplay_8cpp.html" target="_top" xlink:title=" ">
<polygon fill="white" stroke="black" points="1301,-56.5 1301,-75.5 1457,-75.5 1457,-56.5 1301,-56.5"/>
<text text-anchor="middle" x="1379" y="-63.5" font-family="Helvetica,sans-Serif" font-size="10.00">btmodelviewreaddisplay.cpp</text>
</a>
</g>
</g>
<!-- Node1&#45;&gt;Node12 -->
<g id="edge14" class="edge">
<title>Node1&#45;&gt;Node12</title>
<path fill="none" stroke="midnightblue" d="M753.18,-115.96C871.25,-108.35 1098.8,-93.01 1292,-76 1294.87,-75.75 1297.8,-75.48 1300.76,-75.21"/>
<polygon fill="midnightblue" stroke="midnightblue" points="752.9,-112.47 743.14,-116.6 753.35,-119.45 752.9,-112.47"/>
</g>
<!-- Node13 -->
<g id="node13" class="node">
<title>Node13</title>
<g id="a_node13"><a xlink:href="../../de/da4/cbiblereadwindow_8cpp.html" target="_top" xlink:title=" ">
<polygon fill="white" stroke="black" points="1475.5,-56.5 1475.5,-75.5 1600.5,-75.5 1600.5,-56.5 1475.5,-56.5"/>
<text text-anchor="middle" x="1538" y="-63.5" font-family="Helvetica,sans-Serif" font-size="10.00">cbiblereadwindow.cpp</text>
</a>
</g>
</g>
<!-- Node1&#45;&gt;Node13 -->
<g id="edge15" class="edge">
<title>Node1&#45;&gt;Node13</title>
<path fill="none" stroke="midnightblue" d="M753.15,-118.25C896.43,-112.92 1205.82,-99.62 1466,-76 1469.01,-75.73 1472.09,-75.43 1475.2,-75.1"/>
<polygon fill="midnightblue" stroke="midnightblue" points="752.99,-114.75 743.13,-118.62 753.25,-121.74 752.99,-114.75"/>
</g>
<!-- Node14 -->
<g id="node14" class="node">
<title>Node14</title>
<g id="a_node14"><a xlink:href="../../d7/d2f/cbiblekeychooser_8h.html" target="_top" xlink:title=" ">
<polygon fill="white" stroke="black" points="577,-56.5 577,-75.5 687,-75.5 687,-56.5 577,-56.5"/>
<text text-anchor="middle" x="632" y="-63.5" font-family="Helvetica,sans-Serif" font-size="10.00">cbiblekeychooser.h</text>
</a>
</g>
</g>
<!-- Node1&#45;&gt;Node14 -->
<g id="edge17" class="edge">
<title>Node1&#45;&gt;Node14</title>
<path fill="none" stroke="midnightblue" d="M659.98,-103.86C652.88,-94.5 644.4,-83.33 638.64,-75.75"/>
<polygon fill="midnightblue" stroke="midnightblue" points="657.39,-106.24 666.23,-112.08 662.97,-102 657.39,-106.24"/>
</g>
<!-- Node15 -->
<g id="node15" class="node">
<title>Node15</title>
<g id="a_node15"><a xlink:href="../../dc/d8f/cbiblekeychooser_8cpp.html" target="_top" xlink:title=" ">
<polygon fill="white" stroke="black" points="685.5,-0.5 685.5,-19.5 806.5,-19.5 806.5,-0.5 685.5,-0.5"/>
<text text-anchor="middle" x="746" y="-7.5" font-family="Helvetica,sans-Serif" font-size="10.00">cbiblekeychooser.cpp</text>
</a>
</g>
</g>
<!-- Node1&#45;&gt;Node15 -->
<g id="edge24" class="edge">
<title>Node1&#45;&gt;Node15</title>
<path fill="none" stroke="midnightblue" d="M684.31,-103.96C700.13,-80.12 728.28,-37.71 740.3,-19.59"/>
<polygon fill="midnightblue" stroke="midnightblue" points="681.34,-102.1 678.73,-112.37 687.17,-105.97 681.34,-102.1"/>
</g>
<!-- Node16 -->
<g id="node16" class="node">
<title>Node16</title>
<g id="a_node16"><a xlink:href="../../db/dc9/btbiblekeywidget_8h.html" target="_top" xlink:title=" ">
<polygon fill="white" stroke="black" points="743,-56.5 743,-75.5 853,-75.5 853,-56.5 743,-56.5"/>
<text text-anchor="middle" x="798" y="-63.5" font-family="Helvetica,sans-Serif" font-size="10.00">btbiblekeywidget.h</text>
</a>
</g>
</g>
<!-- Node1&#45;&gt;Node16 -->
<g id="edge20" class="edge">
<title>Node1&#45;&gt;Node16</title>
<path fill="none" stroke="midnightblue" d="M702.24,-108.37C725.65,-98.26 757.84,-84.35 778.29,-75.52"/>
<polygon fill="midnightblue" stroke="midnightblue" points="700.6,-105.26 692.81,-112.44 703.37,-111.69 700.6,-105.26"/>
</g>
<!-- Node4 -->
<g id="node4" class="node">
<title>Node4</title>
<g id="a_node4"><a xlink:href="../../d9/db8/cswordcommentarymoduleinfo_8cpp.html" target="_top" xlink:title=" ">
<polygon fill="white" stroke="black" points="262.5,-0.5 262.5,-19.5 451.5,-19.5 451.5,-0.5 262.5,-0.5"/>
<text text-anchor="middle" x="357" y="-7.5" font-family="Helvetica,sans-Serif" font-size="10.00">cswordcommentarymoduleinfo.cpp</text>
</a>
</g>
</g>
<!-- Node3&#45;&gt;Node4 -->
<g id="edge3" class="edge">
<title>Node3&#45;&gt;Node4</title>
<path fill="none" stroke="midnightblue" d="M382.05,-47.57C375.69,-38.27 368.13,-27.25 363,-19.75"/>
<polygon fill="midnightblue" stroke="midnightblue" points="379.35,-49.81 387.89,-56.08 385.13,-45.86 379.35,-49.81"/>
</g>
<!-- Node3&#45;&gt;Node5 -->
<g id="edge4" class="edge">
<title>Node3&#45;&gt;Node5</title>
<path fill="none" stroke="midnightblue" d="M330.68,-54.85C267.01,-44.65 169.94,-29.1 110.15,-19.52"/>
<polygon fill="midnightblue" stroke="midnightblue" points="330.17,-58.32 340.6,-56.44 331.28,-51.41 330.17,-58.32"/>
</g>
<!-- Node3&#45;&gt;Node6 -->
<g id="edge5" class="edge">
<title>Node3&#45;&gt;Node6</title>
<path fill="none" stroke="midnightblue" d="M351.38,-53.83C312.49,-43.63 255.84,-28.78 220.49,-19.52"/>
<polygon fill="midnightblue" stroke="midnightblue" points="350.8,-57.29 361.36,-56.44 352.57,-50.52 350.8,-57.29"/>
</g>
<!-- Node3&#45;&gt;Node7 -->
<g id="edge6" class="edge">
<title>Node3&#45;&gt;Node7</title>
<path fill="none" stroke="midnightblue" d="M421.66,-52.23C443.55,-42.13 473.5,-28.31 492.55,-19.52"/>
<polygon fill="midnightblue" stroke="midnightblue" points="420.15,-49.08 412.54,-56.44 423.09,-55.43 420.15,-49.08"/>
</g>
<!-- Node3&#45;&gt;Node8 -->
<g id="edge7" class="edge">
<title>Node3&#45;&gt;Node8</title>
<path fill="none" stroke="midnightblue" d="M439.47,-54.09C481.97,-43.89 544.58,-28.86 583.51,-19.52"/>
<polygon fill="midnightblue" stroke="midnightblue" points="438.56,-50.71 429.65,-56.44 440.19,-57.51 438.56,-50.71"/>
</g>
<!-- Node14&#45;&gt;Node8 -->
<g id="edge18" class="edge">
<title>Node14&#45;&gt;Node8</title>
<path fill="none" stroke="midnightblue" d="M627.45,-46.1C625.29,-37.14 622.82,-26.86 621.11,-19.75"/>
<polygon fill="midnightblue" stroke="midnightblue" points="624.11,-47.18 629.85,-56.08 630.92,-45.54 624.11,-47.18"/>
</g>
<!-- Node14&#45;&gt;Node15 -->
<g id="edge19" class="edge">
<title>Node14&#45;&gt;Node15</title>
<path fill="none" stroke="midnightblue" d="M659.24,-52.1C680.54,-42.01 709.54,-28.27 728.02,-19.52"/>
<polygon fill="midnightblue" stroke="midnightblue" points="657.6,-49 650.06,-56.44 660.6,-55.33 657.6,-49"/>
</g>
<!-- Node16&#45;&gt;Node15 -->
<g id="edge23" class="edge">
<title>Node16&#45;&gt;Node15</title>
<path fill="none" stroke="midnightblue" d="M782.32,-48.72C773.16,-39.2 761.95,-27.56 754.43,-19.75"/>
<polygon fill="midnightblue" stroke="midnightblue" points="779.96,-51.31 789.41,-56.08 785,-46.45 779.96,-51.31"/>
</g>
<!-- Node17 -->
<g id="node17" class="node">
<title>Node17</title>
<g id="a_node17"><a xlink:href="../../d7/d92/btbiblekeywidget_8cpp.html" target="_top" xlink:title=" ">
<polygon fill="white" stroke="black" points="824.5,-0.5 824.5,-19.5 945.5,-19.5 945.5,-0.5 824.5,-0.5"/>
<text text-anchor="middle" x="885" y="-7.5" font-family="Helvetica,sans-Serif" font-size="10.00">btbiblekeywidget.cpp</text>
</a>
</g>
</g>
<!-- Node16&#45;&gt;Node17 -->
<g id="edge21" class="edge">
<title>Node16&#45;&gt;Node17</title>
<path fill="none" stroke="midnightblue" d="M820.72,-50.9C836.67,-41 857.5,-28.07 871.06,-19.65"/>
<polygon fill="midnightblue" stroke="midnightblue" points="818.63,-48.08 811.98,-56.32 822.32,-54.02 818.63,-48.08"/>
</g>
<!-- Node18 -->
<g id="node18" class="node">
<title>Node18</title>
<g id="a_node18"><a xlink:href="../../df/dae/btdropdownchooserbutton_8cpp.html" target="_top" xlink:title=" ">
<polygon fill="white" stroke="black" points="964,-0.5 964,-19.5 1128,-19.5 1128,-0.5 964,-0.5"/>
<text text-anchor="middle" x="1046" y="-7.5" font-family="Helvetica,sans-Serif" font-size="10.00">btdropdownchooserbutton.cpp</text>
</a>
</g>
</g>
<!-- Node16&#45;&gt;Node18 -->
<g id="edge22" class="edge">
<title>Node16&#45;&gt;Node18</title>
<path fill="none" stroke="midnightblue" d="M847.23,-54.28C894.09,-44.08 963.7,-28.92 1006.89,-19.52"/>
<polygon fill="midnightblue" stroke="midnightblue" points="846.32,-50.9 837.3,-56.44 847.81,-57.74 846.32,-50.9"/>
</g>
</g>
</svg>
