<?xml version="1.0" encoding="UTF-8" standalone="no"?>
<!DOCTYPE svg PUBLIC "-//W3C//DTD SVG 1.1//EN"
 "http://www.w3.org/Graphics/SVG/1.1/DTD/svg11.dtd">
<!-- Generated by graphviz version 2.43.0 (0)
 -->
<!-- Title: btsourcesthread.h Pages: 1 -->
<svg width="340pt" height="82pt"
 viewBox="0.00 0.00 340.00 82.00" xmlns="http://www.w3.org/2000/svg" xmlns:xlink="http://www.w3.org/1999/xlink">
<g id="graph0" class="graph" transform="scale(1 1) rotate(0) translate(4 78)">
<title>btsourcesthread.h</title>
<!-- Node1 -->
<g id="Node000001" class="node">
<title>Node1</title>
<g id="a_Node000001"><a xlink:title=" ">
<polygon fill="#999999" stroke="#666666" points="238,-74 134,-74 134,-55 238,-55 238,-74"/>
<text text-anchor="middle" x="186" y="-62" font-family="Helvetica,sans-Serif" font-size="10.00">btsourcesthread.h</text>
</a>
</g>
</g>
<!-- Node2 -->
<g id="Node000002" class="node">
<title>Node2</title>
<g id="a_Node000002"><a xlink:href="../../d4/d54/btbookshelfsourcesprogresspage_8cpp.html" target="_top" xlink:title=" ">
<polygon fill="white" stroke="#666666" points="198,-19 0,-19 0,0 198,0 198,-19"/>
<text text-anchor="middle" x="99" y="-7" font-family="Helvetica,sans-Serif" font-size="10.00">btbookshelfsourcesprogresspage.cpp</text>
</a>
</g>
</g>
<!-- Node1&#45;&gt;Node2 -->
<g id="edge1_Node000001_Node000002" class="edge">
<title>Node1&#45;&gt;Node2</title>
<g id="a_edge1_Node000001_Node000002"><a xlink:title=" ">
<path fill="none" stroke="#63b8ff" d="M163.34,-49.7C147.49,-40.04 126.81,-27.44 113.23,-19.17"/>
<polygon fill="#63b8ff" stroke="#63b8ff" points="161.66,-52.77 172.02,-54.98 165.3,-46.79 161.66,-52.77"/>
</a>
</g>
</g>
<!-- Node3 -->
<g id="Node000003" class="node">
<title>Node3</title>
<g id="a_Node000003"><a xlink:href="../../de/d0c/btsourcesthread_8cpp.html" target="_top" xlink:title=" ">
<polygon fill="white" stroke="#666666" points="332,-19 216,-19 216,0 332,0 332,-19"/>
<text text-anchor="middle" x="274" y="-7" font-family="Helvetica,sans-Serif" font-size="10.00">btsourcesthread.cpp</text>
</a>
</g>
</g>
<!-- Node1&#45;&gt;Node3 -->
<g id="edge2_Node000001_Node000003" class="edge">
<title>Node1&#45;&gt;Node3</title>
<g id="a_edge2_Node000001_Node000003"><a xlink:title=" ">
<path fill="none" stroke="#63b8ff" d="M208.92,-49.7C224.95,-40.04 245.87,-27.44 259.6,-19.17"/>
<polygon fill="#63b8ff" stroke="#63b8ff" points="206.9,-46.83 200.14,-54.98 210.51,-52.82 206.9,-46.83"/>
</a>
</g>
</g>
</g>
</svg>
