<?xml version="1.0" encoding="UTF-8" standalone="no"?>
<!DOCTYPE svg PUBLIC "-//W3C//DTD SVG 1.1//EN"
 "http://www.w3.org/Graphics/SVG/1.1/DTD/svg11.dtd">
<!-- Generated by graphviz version 2.43.0 (0)
 -->
<!-- Title: Rendering::CrossRefRendering Pages: 1 -->
<svg width="167pt" height="397pt"
 viewBox="0.00 0.00 167.00 397.00" xmlns="http://www.w3.org/2000/svg" xmlns:xlink="http://www.w3.org/1999/xlink">

<svg id="main" version="1.1" xmlns="http://www.w3.org/2000/svg" xmlns:xlink="http://www.w3.org/1999/xlink" xml:space="preserve" onload="init(evt)">
<style type="text/css"><![CDATA[
.node, .edge {opacity: 0.7;}
.node.selected, .edge.selected {opacity: 1;}
.edge:hover path { stroke: red; }
.edge:hover polygon { stroke: red; fill: red; }
]]></style>
<script type="application/ecmascript" xlink:href="../../svg.min.js"/>
<svg id="graph" class="graph">
<g id="graph0" class="graph" transform="scale(1 1) rotate(0) translate(4 393)">
<title>Rendering::CrossRefRendering</title>
<!-- Node1 -->
<g id="Node000001" class="node">
<title>Node1</title>
<g id="a_Node000001"><a xlink:title=" ">
<polygon fill="#999999" stroke="transparent" points="159,-79 0,-79 0,0 159,0 159,-79"/>
<text text-anchor="start" x="5.5" y="-66.5" font-family="Helvetica,sans-Serif" font-size="10.00">Rendering::CrossRefRendering</text>
<text text-anchor="start" x="78" y="-51.5" font-family="Helvetica,sans-Serif" font-size="10.00"> </text>
<text text-anchor="start" x="13.5" y="-36.5" font-family="Helvetica,sans-Serif" font-size="10.00">+</text>
<text text-anchor="start" x="35.5" y="-36.5" font-family="Helvetica,sans-Serif" font-size="10.00">CrossRefRendering()</text>
<text text-anchor="start" x="13.5" y="-21.5" font-family="Helvetica,sans-Serif" font-size="10.00">#</text>
<text text-anchor="start" x="35.5" y="-21.5" font-family="Helvetica,sans-Serif" font-size="10.00">entryLink()</text>
<text text-anchor="start" x="13.5" y="-6.5" font-family="Helvetica,sans-Serif" font-size="10.00">#</text>
<text text-anchor="start" x="35.5" y="-6.5" font-family="Helvetica,sans-Serif" font-size="10.00">finishText()</text>
<polygon fill="#666666" stroke="#666666" points="0.5,-61.5 0.5,-61.5 159.5,-61.5 159.5,-61.5 0.5,-61.5"/>
<polygon fill="#666666" stroke="#666666" points="0.5,-46.5 0.5,-46.5 159.5,-46.5 159.5,-46.5 0.5,-46.5"/>
<polygon fill="none" stroke="#666666" points="0,0 0,-79 159,-79 159,0 0,0"/>
</a>
</g>
</g>
<!-- Node2 -->
<g id="Node000002" class="node">
<title>Node2</title>
<g id="a_Node000002"><a xlink:href="../../dd/dea/classRendering_1_1CTextRendering.html" target="_top" xlink:title="Text rendering based on trees.">
<polygon fill="white" stroke="transparent" points="151,-389 8,-389 8,-115 151,-115 151,-389"/>
<text text-anchor="start" x="13.5" y="-377" font-family="Helvetica,sans-Serif" font-size="10.00">Rendering::CTextRendering</text>
<text text-anchor="start" x="18.5" y="-362" font-family="Helvetica,sans-Serif" font-size="10.00">#</text>
<text text-anchor="start" x="37.5" y="-362" font-family="Helvetica,sans-Serif" font-size="10.00">m_addText</text>
<text text-anchor="start" x="18.5" y="-347" font-family="Helvetica,sans-Serif" font-size="10.00">#</text>
<text text-anchor="start" x="37.5" y="-347" font-family="Helvetica,sans-Serif" font-size="10.00">m_displayOptions</text>
<text text-anchor="start" x="18.5" y="-332" font-family="Helvetica,sans-Serif" font-size="10.00">#</text>
<text text-anchor="start" x="37.5" y="-332" font-family="Helvetica,sans-Serif" font-size="10.00">m_filterOptions</text>
<text text-anchor="start" x="18.5" y="-317" font-family="Helvetica,sans-Serif" font-size="10.00">+</text>
<text text-anchor="start" x="37.5" y="-317" font-family="Helvetica,sans-Serif" font-size="10.00">CTextRendering()</text>
<text text-anchor="start" x="18.5" y="-302" font-family="Helvetica,sans-Serif" font-size="10.00">+</text>
<text text-anchor="start" x="37.5" y="-302" font-family="Helvetica,sans-Serif" font-size="10.00">CTextRendering()</text>
<text text-anchor="start" x="18.5" y="-287" font-family="Helvetica,sans-Serif" font-size="10.00">+</text>
<text text-anchor="start" x="37.5" y="-287" font-family="Helvetica,sans-Serif" font-size="10.00">displayOptions()</text>
<text text-anchor="start" x="18.5" y="-272" font-family="Helvetica,sans-Serif" font-size="10.00">+</text>
<text text-anchor="start" x="37.5" y="-272" font-family="Helvetica,sans-Serif" font-size="10.00">filterOptions()</text>
<text text-anchor="start" x="18.5" y="-257" font-family="Helvetica,sans-Serif" font-size="10.00">+</text>
<text text-anchor="start" x="37.5" y="-257" font-family="Helvetica,sans-Serif" font-size="10.00">renderKeyRange()</text>
<text text-anchor="start" x="18.5" y="-242" font-family="Helvetica,sans-Serif" font-size="10.00">+</text>
<text text-anchor="start" x="37.5" y="-242" font-family="Helvetica,sans-Serif" font-size="10.00">renderKeyTree()</text>
<text text-anchor="start" x="18.5" y="-227" font-family="Helvetica,sans-Serif" font-size="10.00">+</text>
<text text-anchor="start" x="37.5" y="-227" font-family="Helvetica,sans-Serif" font-size="10.00">renderSingleKey()</text>
<text text-anchor="start" x="18.5" y="-212" font-family="Helvetica,sans-Serif" font-size="10.00">+</text>
<text text-anchor="start" x="37.5" y="-212" font-family="Helvetica,sans-Serif" font-size="10.00">setDisplayOptions()</text>
<text text-anchor="start" x="18.5" y="-197" font-family="Helvetica,sans-Serif" font-size="10.00">+</text>
<text text-anchor="start" x="37.5" y="-197" font-family="Helvetica,sans-Serif" font-size="10.00">setFilterOptions()</text>
<text text-anchor="start" x="18.5" y="-182" font-family="Helvetica,sans-Serif" font-size="10.00">+</text>
<text text-anchor="start" x="37.5" y="-182" font-family="Helvetica,sans-Serif" font-size="10.00">~CTextRendering()</text>
<text text-anchor="start" x="18.5" y="-167" font-family="Helvetica,sans-Serif" font-size="10.00">#</text>
<text text-anchor="start" x="37.5" y="-167" font-family="Helvetica,sans-Serif" font-size="10.00">entryLink()</text>
<text text-anchor="start" x="18.5" y="-152" font-family="Helvetica,sans-Serif" font-size="10.00">#</text>
<text text-anchor="start" x="37.5" y="-152" font-family="Helvetica,sans-Serif" font-size="10.00">finishText()</text>
<text text-anchor="start" x="18.5" y="-137" font-family="Helvetica,sans-Serif" font-size="10.00">#</text>
<text text-anchor="start" x="37.5" y="-137" font-family="Helvetica,sans-Serif" font-size="10.00">renderEntry()</text>
<text text-anchor="start" x="18.5" y="-122" font-family="Helvetica,sans-Serif" font-size="10.00">#</text>
<text text-anchor="start" x="37.5" y="-122" font-family="Helvetica,sans-Serif" font-size="10.00">collectModules()</text>
<polygon fill="#666666" stroke="#666666" points="8.5,-372 8.5,-372 151.5,-372 151.5,-372 8.5,-372"/>
<polygon fill="#666666" stroke="#666666" points="8.5,-327 8.5,-327 35.5,-327 35.5,-327 8.5,-327"/>
<polygon fill="#666666" stroke="#666666" points="35.5,-327 35.5,-327 151.5,-327 151.5,-327 35.5,-327"/>
<polygon fill="none" stroke="#666666" points="8,-115 8,-389 151,-389 151,-115 8,-115"/>
</a>
</g>
</g>
<!-- Node2&#45;&gt;Node1 -->
<g id="edge1_Node000001_Node000002" class="edge">
<title>Node2&#45;&gt;Node1</title>
<g id="a_edge1_Node000001_Node000002"><a xlink:title=" ">
<path fill="none" stroke="#63b8ff" d="M79.5,-104.67C79.5,-95.57 79.5,-86.96 79.5,-79.18"/>
<polygon fill="none" stroke="#63b8ff" points="76,-104.71 79.5,-114.71 83,-104.71 76,-104.71"/>
</a>
</g>
</g>
</g>
</svg>
</svg>

<style type='text/css'>
<![CDATA[
[data-mouse-over-selected='false'] { opacity: 0.7; }
[data-mouse-over-selected='true']  { opacity: 1.0; }
]]>
</style>
<script type="application/ecmascript"><![CDATA[
document.addEventListener('DOMContentLoaded', (event) => {
  highlightEdges();
  highlightAdjacentNodes();
});
]]></script>
</svg>
