<?xml version="1.0" encoding="UTF-8" standalone="no"?>
<!DOCTYPE svg PUBLIC "-//W3C//DTD SVG 1.1//EN"
 "http://www.w3.org/Graphics/SVG/1.1/DTD/svg11.dtd">
<!-- Generated by graphviz version 2.43.0 (0)
 -->
<!-- Title: BibleTimeApp Pages: 1 -->
<svg width="184pt" height="270pt"
 viewBox="0.00 0.00 184.00 270.00" xmlns="http://www.w3.org/2000/svg" xmlns:xlink="http://www.w3.org/1999/xlink">
<g id="graph0" class="graph" transform="scale(1 1) rotate(0) translate(4 266)">
<title>BibleTimeApp</title>
<polygon fill="white" stroke="transparent" points="-4,4 -4,-266 180,-266 180,4 -4,4"/>
<!-- Node1 -->
<g id="node1" class="node">
<title>Node1</title>
<g id="a_node1"><a xlink:title=" ">
<polygon fill="#bfbfbf" stroke="black" points="0,-0.5 0,-167.5 176,-167.5 176,-0.5 0,-0.5"/>
<text text-anchor="middle" x="88" y="-155.5" font-family="Helvetica,sans-Serif" font-size="10.00">BibleTimeApp</text>
<polyline fill="none" stroke="black" points="0,-148.5 176,-148.5 "/>
<text text-anchor="start" x="8" y="-136.5" font-family="Helvetica,sans-Serif" font-size="10.00">&#45; m_debugMode</text>
<text text-anchor="start" x="8" y="-125.5" font-family="Helvetica,sans-Serif" font-size="10.00">&#45; m_icons</text>
<text text-anchor="start" x="8" y="-114.5" font-family="Helvetica,sans-Serif" font-size="10.00">&#45; m_init</text>
<polyline fill="none" stroke="black" points="0,-107.5 176,-107.5 "/>
<text text-anchor="start" x="8" y="-95.5" font-family="Helvetica,sans-Serif" font-size="10.00">+ BibleTimeApp()</text>
<text text-anchor="start" x="8" y="-84.5" font-family="Helvetica,sans-Serif" font-size="10.00">+ debugMode()</text>
<text text-anchor="start" x="8" y="-73.5" font-family="Helvetica,sans-Serif" font-size="10.00">+ initBtConfig()</text>
<text text-anchor="start" x="8" y="-62.5" font-family="Helvetica,sans-Serif" font-size="10.00">+ initColorManager()</text>
<text text-anchor="start" x="8" y="-51.5" font-family="Helvetica,sans-Serif" font-size="10.00">+ initDisplayTemplateManager()</text>
<text text-anchor="start" x="8" y="-40.5" font-family="Helvetica,sans-Serif" font-size="10.00">+ initIcons()</text>
<text text-anchor="start" x="8" y="-29.5" font-family="Helvetica,sans-Serif" font-size="10.00">+ setDebugMode()</text>
<text text-anchor="start" x="8" y="-18.5" font-family="Helvetica,sans-Serif" font-size="10.00">+ startInit()</text>
<text text-anchor="start" x="8" y="-7.5" font-family="Helvetica,sans-Serif" font-size="10.00">+ ~BibleTimeApp()</text>
</a>
</g>
</g>
<!-- Node2 -->
<g id="node2" class="node">
<title>Node2</title>
<g id="a_node2"><a xlink:href="../../d8/dd1/classQApplication.html" target="_top" xlink:title=" ">
<polygon fill="white" stroke="black" points="48.5,-204.5 48.5,-261.5 127.5,-261.5 127.5,-204.5 48.5,-204.5"/>
<text text-anchor="middle" x="88" y="-249.5" font-family="Helvetica,sans-Serif" font-size="10.00">QApplication</text>
<polyline fill="none" stroke="black" points="48.5,-242.5 127.5,-242.5 "/>
<text text-anchor="middle" x="88" y="-230.5" font-family="Helvetica,sans-Serif" font-size="10.00"> </text>
<polyline fill="none" stroke="black" points="48.5,-223.5 127.5,-223.5 "/>
<text text-anchor="middle" x="88" y="-211.5" font-family="Helvetica,sans-Serif" font-size="10.00"> </text>
</a>
</g>
</g>
<!-- Node2&#45;&gt;Node1 -->
<g id="edge1" class="edge">
<title>Node2&#45;&gt;Node1</title>
<path fill="none" stroke="midnightblue" d="M88,-194.35C88,-186.08 88,-177.01 88,-167.74"/>
<polygon fill="none" stroke="midnightblue" points="84.5,-194.35 88,-204.35 91.5,-194.35 84.5,-194.35"/>
</g>
</g>
</svg>
