<?xml version="1.0" encoding="UTF-8" standalone="no"?>
<!DOCTYPE svg PUBLIC "-//W3C//DTD SVG 1.1//EN"
 "http://www.w3.org/Graphics/SVG/1.1/DTD/svg11.dtd">
<!-- Generated by graphviz version 2.43.0 (0)
 -->
<!-- Title: Filters::OsisToHtml Pages: 1 -->
<svg width="130pt" height="172pt"
 viewBox="0.00 0.00 130.00 172.00" xmlns="http://www.w3.org/2000/svg" xmlns:xlink="http://www.w3.org/1999/xlink">
<g id="graph0" class="graph" transform="scale(1 1) rotate(0) translate(4 168)">
<title>Filters::OsisToHtml</title>
<!-- Node1 -->
<g id="Node000001" class="node">
<title>Node1</title>
<g id="a_Node000001"><a xlink:title="OSIS to HTMl conversion filter.">
<polygon fill="#999999" stroke="transparent" points="114,-79 8,-79 8,0 114,0 114,-79"/>
<text text-anchor="start" x="15" y="-66.5" font-family="Helvetica,sans-Serif" font-size="10.00">Filters::OsisToHtml</text>
<text text-anchor="start" x="59" y="-51.5" font-family="Helvetica,sans-Serif" font-size="10.00"> </text>
<text text-anchor="start" x="12" y="-36.5" font-family="Helvetica,sans-Serif" font-size="10.00">+</text>
<text text-anchor="start" x="25" y="-36.5" font-family="Helvetica,sans-Serif" font-size="10.00">handleToken()</text>
<text text-anchor="start" x="12" y="-21.5" font-family="Helvetica,sans-Serif" font-size="10.00">+</text>
<text text-anchor="start" x="25" y="-21.5" font-family="Helvetica,sans-Serif" font-size="10.00">OsisToHtml()</text>
<text text-anchor="start" x="12" y="-6.5" font-family="Helvetica,sans-Serif" font-size="10.00">#</text>
<text text-anchor="start" x="25" y="-6.5" font-family="Helvetica,sans-Serif" font-size="10.00">createUserData()</text>
<polygon fill="#666666" stroke="#666666" points="8,-61.5 8,-61.5 114,-61.5 114,-61.5 8,-61.5"/>
<polygon fill="#666666" stroke="#666666" points="8,-46.5 8,-46.5 114,-46.5 114,-46.5 8,-46.5"/>
<polygon fill="none" stroke="#666666" points="8,0 8,-79 114,-79 114,0 8,0"/>
</a>
</g>
</g>
<!-- Node2 -->
<g id="Node000002" class="node">
<title>Node2</title>
<g id="a_Node000002"><a xlink:title=" ">
<polygon fill="white" stroke="transparent" points="122,-164 0,-164 0,-115 122,-115 122,-164"/>
<text text-anchor="start" x="5" y="-151.5" font-family="Helvetica,sans-Serif" font-size="10.00">sword::OSISHTMLHREF</text>
<text text-anchor="start" x="59" y="-136.5" font-family="Helvetica,sans-Serif" font-size="10.00"> </text>
<text text-anchor="start" x="59" y="-121.5" font-family="Helvetica,sans-Serif" font-size="10.00"> </text>
<polygon fill="#666666" stroke="#666666" points="0,-146.5 0,-146.5 122,-146.5 122,-146.5 0,-146.5"/>
<polygon fill="#666666" stroke="#666666" points="0,-131.5 0,-131.5 122,-131.5 122,-131.5 0,-131.5"/>
<polygon fill="none" stroke="#666666" points="0,-115 0,-164 122,-164 122,-115 0,-115"/>
</a>
</g>
</g>
<!-- Node2&#45;&gt;Node1 -->
<g id="edge1_Node000001_Node000002" class="edge">
<title>Node2&#45;&gt;Node1</title>
<g id="a_edge1_Node000001_Node000002"><a xlink:title=" ">
<path fill="none" stroke="#63b8ff" d="M61,-104.52C61,-96.38 61,-87.63 61,-79.29"/>
<polygon fill="none" stroke="#63b8ff" points="57.5,-104.78 61,-114.78 64.5,-104.78 57.5,-104.78"/>
</a>
</g>
</g>
</g>
</svg>
