<?xml version="1.0" encoding="UTF-8" standalone="no"?>
<!DOCTYPE svg PUBLIC "-//W3C//DTD SVG 1.1//EN"
 "http://www.w3.org/Graphics/SVG/1.1/DTD/svg11.dtd">
<!-- Generated by graphviz version 2.43.0 (0)
 -->
<!-- Title: BibleTime::ActionCollection Pages: 1 -->
<svg width="154pt" height="497pt"
 viewBox="0.00 0.00 154.00 497.00" xmlns="http://www.w3.org/2000/svg" xmlns:xlink="http://www.w3.org/1999/xlink">
<g id="graph0" class="graph" transform="scale(1 1) rotate(0) translate(4 493)">
<title>BibleTime::ActionCollection</title>
<!-- Node1 -->
<g id="Node000001" class="node">
<title>Node1</title>
<g id="a_Node000001"><a xlink:title=" ">
<polygon fill="#999999" stroke="transparent" points="146,-214 0,-214 0,0 146,0 146,-214"/>
<text text-anchor="start" x="5" y="-202" font-family="Helvetica,sans-Serif" font-size="10.00">BibleTime::ActionCollection</text>
<text text-anchor="start" x="10" y="-187" font-family="Helvetica,sans-Serif" font-size="10.00">+</text>
<text text-anchor="start" x="29" y="-187" font-family="Helvetica,sans-Serif" font-size="10.00">arrangementMode</text>
<text text-anchor="start" x="10" y="-172" font-family="Helvetica,sans-Serif" font-size="10.00">+</text>
<text text-anchor="start" x="29" y="-172" font-family="Helvetica,sans-Serif" font-size="10.00">autoCascade</text>
<text text-anchor="start" x="10" y="-157" font-family="Helvetica,sans-Serif" font-size="10.00">+</text>
<text text-anchor="start" x="29" y="-157" font-family="Helvetica,sans-Serif" font-size="10.00">autoScrollDown</text>
<text text-anchor="start" x="10" y="-142" font-family="Helvetica,sans-Serif" font-size="10.00">+</text>
<text text-anchor="start" x="29" y="-142" font-family="Helvetica,sans-Serif" font-size="10.00">autoScrollUp</text>
<text text-anchor="start" x="10" y="-127" font-family="Helvetica,sans-Serif" font-size="10.00">+</text>
<text text-anchor="start" x="29" y="-127" font-family="Helvetica,sans-Serif" font-size="10.00">autoTile</text>
<text text-anchor="start" x="10" y="-112" font-family="Helvetica,sans-Serif" font-size="10.00">+</text>
<text text-anchor="start" x="29" y="-112" font-family="Helvetica,sans-Serif" font-size="10.00">autoTileHorizontally</text>
<text text-anchor="start" x="10" y="-97" font-family="Helvetica,sans-Serif" font-size="10.00">+</text>
<text text-anchor="start" x="29" y="-97" font-family="Helvetica,sans-Serif" font-size="10.00">autoTileVertically</text>
<text text-anchor="start" x="10" y="-82" font-family="Helvetica,sans-Serif" font-size="10.00">+</text>
<text text-anchor="start" x="29" y="-82" font-family="Helvetica,sans-Serif" font-size="10.00">bookshelfManager</text>
<text text-anchor="start" x="10" y="-67" font-family="Helvetica,sans-Serif" font-size="10.00">+</text>
<text text-anchor="start" x="29" y="-67" font-family="Helvetica,sans-Serif" font-size="10.00">cascade</text>
<text text-anchor="start" x="10" y="-52" font-family="Helvetica,sans-Serif" font-size="10.00">+</text>
<text text-anchor="start" x="29" y="-52" font-family="Helvetica,sans-Serif" font-size="10.00">closeAllWindows</text>
<text text-anchor="start" x="29" y="-37" font-family="Helvetica,sans-Serif" font-size="10.00">and 32 more...</text>
<text text-anchor="start" x="10" y="-22" font-family="Helvetica,sans-Serif" font-size="10.00">+</text>
<text text-anchor="start" x="29" y="-22" font-family="Helvetica,sans-Serif" font-size="10.00">ActionCollection()</text>
<text text-anchor="start" x="10" y="-7" font-family="Helvetica,sans-Serif" font-size="10.00">+</text>
<text text-anchor="start" x="29" y="-7" font-family="Helvetica,sans-Serif" font-size="10.00">retranslateUi()</text>
<polygon fill="#666666" stroke="#666666" points="0,-197 0,-197 146,-197 146,-197 0,-197"/>
<polygon fill="#666666" stroke="#666666" points="0,-32 0,-32 27,-32 27,-32 0,-32"/>
<polygon fill="#666666" stroke="#666666" points="27,-32 27,-32 146,-32 146,-32 27,-32"/>
<polygon fill="none" stroke="#666666" points="0,0 0,-214 146,-214 146,0 0,0"/>
</a>
</g>
</g>
<!-- Node2 -->
<g id="Node000002" class="node">
<title>Node2</title>
<g id="a_Node000002"><a xlink:href="../../d0/d28/classBtActionCollection.html" target="_top" xlink:title=" ">
<polygon fill="white" stroke="transparent" points="133.5,-404 12.5,-404 12.5,-250 133.5,-250 133.5,-404"/>
<text text-anchor="start" x="28" y="-392" font-family="Helvetica,sans-Serif" font-size="10.00">BtActionCollection</text>
<text text-anchor="start" x="19.5" y="-377" font-family="Helvetica,sans-Serif" font-size="10.00">&#45;</text>
<text text-anchor="start" x="30" y="-377" font-family="Helvetica,sans-Serif" font-size="10.00">m_actions</text>
<text text-anchor="start" x="17" y="-362" font-family="Helvetica,sans-Serif" font-size="10.00">+</text>
<text text-anchor="start" x="30" y="-362" font-family="Helvetica,sans-Serif" font-size="10.00">action()</text>
<text text-anchor="start" x="17" y="-347" font-family="Helvetica,sans-Serif" font-size="10.00">+</text>
<text text-anchor="start" x="30" y="-347" font-family="Helvetica,sans-Serif" font-size="10.00">actionAs()</text>
<text text-anchor="start" x="17" y="-332" font-family="Helvetica,sans-Serif" font-size="10.00">+</text>
<text text-anchor="start" x="30" y="-332" font-family="Helvetica,sans-Serif" font-size="10.00">actions()</text>
<text text-anchor="start" x="17" y="-317" font-family="Helvetica,sans-Serif" font-size="10.00">+</text>
<text text-anchor="start" x="30" y="-317" font-family="Helvetica,sans-Serif" font-size="10.00">addAction()</text>
<text text-anchor="start" x="17" y="-302" font-family="Helvetica,sans-Serif" font-size="10.00">+</text>
<text text-anchor="start" x="30" y="-302" font-family="Helvetica,sans-Serif" font-size="10.00">BtActionCollection()</text>
<text text-anchor="start" x="17" y="-287" font-family="Helvetica,sans-Serif" font-size="10.00">+</text>
<text text-anchor="start" x="30" y="-287" font-family="Helvetica,sans-Serif" font-size="10.00">readShortcuts()</text>
<text text-anchor="start" x="17" y="-272" font-family="Helvetica,sans-Serif" font-size="10.00">+</text>
<text text-anchor="start" x="30" y="-272" font-family="Helvetica,sans-Serif" font-size="10.00">writeShortcuts()</text>
<text text-anchor="start" x="17" y="-257" font-family="Helvetica,sans-Serif" font-size="10.00">+</text>
<text text-anchor="start" x="30" y="-257" font-family="Helvetica,sans-Serif" font-size="10.00">getDefaultShortcut()</text>
<polygon fill="#666666" stroke="#666666" points="13,-387 13,-387 134,-387 134,-387 13,-387"/>
<polygon fill="#666666" stroke="#666666" points="13,-372 13,-372 28,-372 28,-372 13,-372"/>
<polygon fill="#666666" stroke="#666666" points="28,-372 28,-372 134,-372 134,-372 28,-372"/>
<polygon fill="none" stroke="#666666" points="12.5,-250 12.5,-404 133.5,-404 133.5,-250 12.5,-250"/>
</a>
</g>
</g>
<!-- Node2&#45;&gt;Node1 -->
<g id="edge1_Node000001_Node000002" class="edge">
<title>Node2&#45;&gt;Node1</title>
<g id="a_edge1_Node000001_Node000002"><a xlink:title=" ">
<path fill="none" stroke="#63b8ff" d="M73,-239.62C73,-231.23 73,-222.65 73,-214.1"/>
<polygon fill="none" stroke="#63b8ff" points="69.5,-239.75 73,-249.75 76.5,-239.75 69.5,-239.75"/>
</a>
</g>
</g>
<!-- Node3 -->
<g id="Node000003" class="node">
<title>Node3</title>
<g id="a_Node000003"><a xlink:href="../../d9/d5b/classQObject.html" target="_top" xlink:title=" ">
<polygon fill="white" stroke="transparent" points="98,-489 48,-489 48,-440 98,-440 98,-489"/>
<text text-anchor="start" x="53" y="-476.5" font-family="Helvetica,sans-Serif" font-size="10.00">QObject</text>
<text text-anchor="start" x="71" y="-461.5" font-family="Helvetica,sans-Serif" font-size="10.00"> </text>
<text text-anchor="start" x="71" y="-446.5" font-family="Helvetica,sans-Serif" font-size="10.00"> </text>
<polygon fill="#666666" stroke="#666666" points="48,-471.5 48,-471.5 98,-471.5 98,-471.5 48,-471.5"/>
<polygon fill="#666666" stroke="#666666" points="48,-456.5 48,-456.5 98,-456.5 98,-456.5 48,-456.5"/>
<polygon fill="none" stroke="#666666" points="48,-440 48,-489 98,-489 98,-440 48,-440"/>
</a>
</g>
</g>
<!-- Node3&#45;&gt;Node2 -->
<g id="edge2_Node000002_Node000003" class="edge">
<title>Node3&#45;&gt;Node2</title>
<g id="a_edge2_Node000002_Node000003"><a xlink:title=" ">
<path fill="none" stroke="#63b8ff" d="M73,-429.66C73,-421.74 73,-412.97 73,-404.01"/>
<polygon fill="none" stroke="#63b8ff" points="69.5,-429.9 73,-439.9 76.5,-429.9 69.5,-429.9"/>
</a>
</g>
</g>
</g>
</svg>
