<?xml version="1.0" encoding="UTF-8" standalone="no"?>
<!DOCTYPE svg PUBLIC "-//W3C//DTD SVG 1.1//EN"
 "http://www.w3.org/Graphics/SVG/1.1/DTD/svg11.dtd">
<!-- Generated by graphviz version 2.43.0 (0)
 -->
<!-- Title: bibletime.h Pages: 1 -->
<svg width="1846pt" height="82pt"
 viewBox="0.00 0.00 1845.50 82.00" xmlns="http://www.w3.org/2000/svg" xmlns:xlink="http://www.w3.org/1999/xlink">
<g id="graph0" class="graph" transform="scale(1 1) rotate(0) translate(4 78)">
<title>bibletime.h</title>
<!-- Node1 -->
<g id="Node000001" class="node">
<title>Node1</title>
<g id="a_Node000001"><a xlink:title=" ">
<polygon fill="#999999" stroke="#666666" points="983.5,-74 911.5,-74 911.5,-55 983.5,-55 983.5,-74"/>
<text text-anchor="middle" x="947.5" y="-62" font-family="Helvetica,sans-Serif" font-size="10.00">bibletime.h</text>
</a>
</g>
</g>
<!-- Node2 -->
<g id="Node000002" class="node">
<title>Node2</title>
<g id="a_Node000002"><a xlink:href="../../d1/df6/bibletime_8cpp.html" target="_top" xlink:title=" ">
<polygon fill="white" stroke="#666666" points="83,-19 0,-19 0,0 83,0 83,-19"/>
<text text-anchor="middle" x="41.5" y="-7" font-family="Helvetica,sans-Serif" font-size="10.00">bibletime.cpp</text>
</a>
</g>
</g>
<!-- Node1&#45;&gt;Node2 -->
<g id="edge1_Node000001_Node000002" class="edge">
<title>Node1&#45;&gt;Node2</title>
<g id="a_edge1_Node000001_Node000002"><a xlink:title=" ">
<path fill="none" stroke="#63b8ff" d="M900.84,-62.92C771.85,-60.93 399.71,-52.49 92.5,-19 89.47,-18.67 86.34,-18.28 83.2,-17.84"/>
<polygon fill="#63b8ff" stroke="#63b8ff" points="901.08,-66.43 911.13,-63.08 901.18,-59.43 901.08,-66.43"/>
</a>
</g>
</g>
<!-- Node3 -->
<g id="Node000003" class="node">
<title>Node3</title>
<g id="a_Node000003"><a xlink:href="../../da/dc7/bibletime__init_8cpp.html" target="_top" xlink:title=" ">
<polygon fill="white" stroke="#666666" points="205.5,-19 101.5,-19 101.5,0 205.5,0 205.5,-19"/>
<text text-anchor="middle" x="153.5" y="-7" font-family="Helvetica,sans-Serif" font-size="10.00">bibletime_init.cpp</text>
</a>
</g>
</g>
<!-- Node1&#45;&gt;Node3 -->
<g id="edge2_Node000001_Node000003" class="edge">
<title>Node1&#45;&gt;Node3</title>
<g id="a_edge2_Node000001_Node000003"><a xlink:title=" ">
<path fill="none" stroke="#63b8ff" d="M900.89,-61.93C784.75,-57.74 473.15,-44.83 214.5,-19 211.63,-18.71 208.68,-18.39 205.71,-18.05"/>
<polygon fill="#63b8ff" stroke="#63b8ff" points="901.07,-65.44 911.19,-62.3 901.32,-58.44 901.07,-65.44"/>
</a>
</g>
</g>
<!-- Node4 -->
<g id="Node000004" class="node">
<title>Node4</title>
<g id="a_Node000004"><a xlink:href="../../d6/d96/bibletime__slots_8cpp.html" target="_top" xlink:title=" ">
<polygon fill="white" stroke="#666666" points="335.5,-19 223.5,-19 223.5,0 335.5,0 335.5,-19"/>
<text text-anchor="middle" x="279.5" y="-7" font-family="Helvetica,sans-Serif" font-size="10.00">bibletime_slots.cpp</text>
</a>
</g>
</g>
<!-- Node1&#45;&gt;Node4 -->
<g id="edge3_Node000001_Node000004" class="edge">
<title>Node1&#45;&gt;Node4</title>
<g id="a_edge3_Node000001_Node000004"><a xlink:title=" ">
<path fill="none" stroke="#63b8ff" d="M901.24,-60.98C800.1,-55.27 551.77,-40.18 344.5,-19 341.67,-18.71 338.77,-18.4 335.85,-18.07"/>
<polygon fill="#63b8ff" stroke="#63b8ff" points="901.24,-64.48 911.42,-61.55 901.63,-57.49 901.24,-64.48"/>
</a>
</g>
</g>
<!-- Node5 -->
<g id="Node000005" class="node">
<title>Node5</title>
<g id="a_Node000005"><a xlink:href="../../df/d88/btbookshelfdockwidget_8cpp.html" target="_top" xlink:title=" ">
<polygon fill="white" stroke="#666666" points="505,-19 354,-19 354,0 505,0 505,-19"/>
<text text-anchor="middle" x="429.5" y="-7" font-family="Helvetica,sans-Serif" font-size="10.00">btbookshelfdockwidget.cpp</text>
</a>
</g>
</g>
<!-- Node1&#45;&gt;Node5 -->
<g id="edge4_Node000001_Node000005" class="edge">
<title>Node1&#45;&gt;Node5</title>
<g id="a_edge4_Node000001_Node000005"><a xlink:title=" ">
<path fill="none" stroke="#63b8ff" d="M901.38,-58.78C811.94,-49.63 614.13,-29.39 505.17,-18.24"/>
<polygon fill="#63b8ff" stroke="#63b8ff" points="901.18,-62.28 911.49,-59.82 901.89,-55.32 901.18,-62.28"/>
</a>
</g>
</g>
<!-- Node6 -->
<g id="Node000006" class="node">
<title>Node6</title>
<g id="a_Node000006"><a xlink:href="../../de/db2/btmodelviewreaddisplay_8cpp.html" target="_top" xlink:title=" ">
<polygon fill="white" stroke="#666666" points="679.5,-19 523.5,-19 523.5,0 679.5,0 679.5,-19"/>
<text text-anchor="middle" x="601.5" y="-7" font-family="Helvetica,sans-Serif" font-size="10.00">btmodelviewreaddisplay.cpp</text>
</a>
</g>
</g>
<!-- Node1&#45;&gt;Node6 -->
<g id="edge5_Node000001_Node000006" class="edge">
<title>Node1&#45;&gt;Node6</title>
<g id="a_edge5_Node000001_Node000006"><a xlink:title=" ">
<path fill="none" stroke="#63b8ff" d="M901.38,-56.44C838.2,-46.76 724.85,-29.39 657.07,-19.01"/>
<polygon fill="#63b8ff" stroke="#63b8ff" points="901.04,-59.92 911.45,-57.98 902.1,-53 901.04,-59.92"/>
</a>
</g>
</g>
<!-- Node7 -->
<g id="Node000007" class="node">
<title>Node7</title>
<g id="a_Node000007"><a xlink:href="../../de/d6e/btqmlinterface_8cpp.html" target="_top" xlink:title=" ">
<polygon fill="white" stroke="#666666" points="807,-19 698,-19 698,0 807,0 807,-19"/>
<text text-anchor="middle" x="752.5" y="-7" font-family="Helvetica,sans-Serif" font-size="10.00">btqmlinterface.cpp</text>
</a>
</g>
</g>
<!-- Node1&#45;&gt;Node7 -->
<g id="edge6_Node000001_Node000007" class="edge">
<title>Node1&#45;&gt;Node7</title>
<g id="a_edge6_Node000001_Node000007"><a xlink:title=" ">
<path fill="none" stroke="#63b8ff" d="M906.33,-52.31C869.84,-42.39 817.33,-28.12 784.08,-19.08"/>
<polygon fill="#63b8ff" stroke="#63b8ff" points="905.6,-55.74 916.17,-54.98 907.44,-48.98 905.6,-55.74"/>
</a>
</g>
</g>
<!-- Node8 -->
<g id="Node000008" class="node">
<title>Node8</title>
<g id="a_Node000008"><a xlink:href="../../d9/d0c/btquickwidget_8cpp.html" target="_top" xlink:title=" ">
<polygon fill="white" stroke="#666666" points="931.5,-19 825.5,-19 825.5,0 931.5,0 931.5,-19"/>
<text text-anchor="middle" x="878.5" y="-7" font-family="Helvetica,sans-Serif" font-size="10.00">btquickwidget.cpp</text>
</a>
</g>
</g>
<!-- Node1&#45;&gt;Node8 -->
<g id="edge7_Node000001_Node000008" class="edge">
<title>Node1&#45;&gt;Node8</title>
<g id="a_edge7_Node000001_Node000008"><a xlink:title=" ">
<path fill="none" stroke="#63b8ff" d="M928.46,-48.88C916.04,-39.34 900.26,-27.21 889.79,-19.17"/>
<polygon fill="#63b8ff" stroke="#63b8ff" points="926.35,-51.67 936.41,-54.98 930.62,-46.12 926.35,-51.67"/>
</a>
</g>
</g>
<!-- Node9 -->
<g id="Node000009" class="node">
<title>Node9</title>
<g id="a_Node000009"><a xlink:href="../../dc/d6a/cacceleratorsettings_8cpp.html" target="_top" xlink:title=" ">
<polygon fill="white" stroke="#666666" points="1085.5,-19 949.5,-19 949.5,0 1085.5,0 1085.5,-19"/>
<text text-anchor="middle" x="1017.5" y="-7" font-family="Helvetica,sans-Serif" font-size="10.00">cacceleratorsettings.cpp</text>
</a>
</g>
</g>
<!-- Node1&#45;&gt;Node9 -->
<g id="edge8_Node000001_Node000009" class="edge">
<title>Node1&#45;&gt;Node9</title>
<g id="a_edge8_Node000001_Node000009"><a xlink:title=" ">
<path fill="none" stroke="#63b8ff" d="M966.81,-48.88C979.41,-39.34 995.43,-27.21 1006.05,-19.17"/>
<polygon fill="#63b8ff" stroke="#63b8ff" points="964.61,-46.16 958.75,-54.98 968.83,-51.74 964.61,-46.16"/>
</a>
</g>
</g>
<!-- Node10 -->
<g id="Node000010" class="node">
<title>Node10</title>
<g id="a_Node000010"><a xlink:href="../../d7/d67/cbookreadwindow_8cpp.html" target="_top" xlink:title=" ">
<polygon fill="white" stroke="#666666" points="1229,-19 1104,-19 1104,0 1229,0 1229,-19"/>
<text text-anchor="middle" x="1166.5" y="-7" font-family="Helvetica,sans-Serif" font-size="10.00">cbookreadwindow.cpp</text>
</a>
</g>
</g>
<!-- Node1&#45;&gt;Node10 -->
<g id="edge9_Node000001_Node000010" class="edge">
<title>Node1&#45;&gt;Node10</title>
<g id="a_edge9_Node000001_Node000010"><a xlink:title=" ">
<path fill="none" stroke="#63b8ff" d="M992.43,-52.63C1033.45,-42.7 1093.29,-28.22 1131.04,-19.08"/>
<polygon fill="#63b8ff" stroke="#63b8ff" points="991.58,-49.23 982.69,-54.98 993.23,-56.03 991.58,-49.23"/>
</a>
</g>
</g>
<!-- Node11 -->
<g id="Node000011" class="node">
<title>Node11</title>
<g id="a_Node000011"><a xlink:href="../../d0/d6f/ccommentaryreadwindow_8cpp.html" target="_top" xlink:title=" ">
<polygon fill="white" stroke="#666666" points="1410,-19 1247,-19 1247,0 1410,0 1410,-19"/>
<text text-anchor="middle" x="1328.5" y="-7" font-family="Helvetica,sans-Serif" font-size="10.00">ccommentaryreadwindow.cpp</text>
</a>
</g>
</g>
<!-- Node1&#45;&gt;Node11 -->
<g id="edge10_Node000001_Node000011" class="edge">
<title>Node1&#45;&gt;Node11</title>
<g id="a_edge10_Node000001_Node000011"><a xlink:title=" ">
<path fill="none" stroke="#63b8ff" d="M993.76,-57.07C1062.33,-47.53 1191.05,-29.62 1267.34,-19.01"/>
<polygon fill="#63b8ff" stroke="#63b8ff" points="993.11,-53.62 983.69,-58.47 994.07,-60.55 993.11,-53.62"/>
</a>
</g>
</g>
<!-- Node12 -->
<g id="Node000012" class="node">
<title>Node12</title>
<g id="a_Node000012"><a xlink:href="../../d2/d26/cdisplaywindow_8cpp.html" target="_top" xlink:title=" ">
<polygon fill="white" stroke="#666666" points="1542.5,-19 1428.5,-19 1428.5,0 1542.5,0 1542.5,-19"/>
<text text-anchor="middle" x="1485.5" y="-7" font-family="Helvetica,sans-Serif" font-size="10.00">cdisplaywindow.cpp</text>
</a>
</g>
</g>
<!-- Node1&#45;&gt;Node12 -->
<g id="edge11_Node000001_Node000012" class="edge">
<title>Node1&#45;&gt;Node12</title>
<g id="a_edge11_Node000001_Node000012"><a xlink:title=" ">
<path fill="none" stroke="#63b8ff" d="M993.71,-59.67C1078.29,-52.54 1263.63,-36.38 1419.5,-19 1422.37,-18.68 1425.31,-18.34 1428.28,-17.99"/>
<polygon fill="#63b8ff" stroke="#63b8ff" points="993.34,-56.19 983.66,-60.51 993.92,-63.16 993.34,-56.19"/>
</a>
</g>
</g>
<!-- Node13 -->
<g id="Node000013" class="node">
<title>Node13</title>
<g id="a_Node000013"><a xlink:href="../../d5/d80/cinfodisplay_8cpp.html" target="_top" xlink:title=" ">
<polygon fill="white" stroke="#666666" points="1656,-19 1561,-19 1561,0 1656,0 1656,-19"/>
<text text-anchor="middle" x="1608.5" y="-7" font-family="Helvetica,sans-Serif" font-size="10.00">cinfodisplay.cpp</text>
</a>
</g>
</g>
<!-- Node1&#45;&gt;Node13 -->
<g id="edge12_Node000001_Node000013" class="edge">
<title>Node1&#45;&gt;Node13</title>
<g id="a_edge12_Node000001_Node000013"><a xlink:title=" ">
<path fill="none" stroke="#63b8ff" d="M993.87,-61.26C1095.23,-56.12 1344.09,-42.07 1551.5,-19 1554.58,-18.66 1557.75,-18.27 1560.95,-17.86"/>
<polygon fill="#63b8ff" stroke="#63b8ff" points="993.48,-57.78 983.67,-61.78 993.83,-64.77 993.48,-57.78"/>
</a>
</g>
</g>
<!-- Node14 -->
<g id="Node000014" class="node">
<title>Node14</title>
<g id="a_Node000014"><a xlink:href="../../d2/db3/cmdiarea_8cpp.html" target="_top" xlink:title=" ">
<polygon fill="white" stroke="#666666" points="1757,-19 1674,-19 1674,0 1757,0 1757,-19"/>
<text text-anchor="middle" x="1715.5" y="-7" font-family="Helvetica,sans-Serif" font-size="10.00">cmdiarea.cpp</text>
</a>
</g>
</g>
<!-- Node1&#45;&gt;Node14 -->
<g id="edge13_Node000001_Node000014" class="edge">
<title>Node1&#45;&gt;Node14</title>
<g id="a_edge13_Node000001_Node000014"><a xlink:title=" ">
<path fill="none" stroke="#63b8ff" d="M994.02,-62.33C1108.54,-59.09 1413.15,-48.19 1665.5,-19 1668.21,-18.69 1671,-18.32 1673.81,-17.93"/>
<polygon fill="#63b8ff" stroke="#63b8ff" points="993.76,-58.84 983.86,-62.61 993.95,-65.84 993.76,-58.84"/>
</a>
</g>
</g>
<!-- Node15 -->
<g id="Node000015" class="node">
<title>Node15</title>
<g id="a_Node000015"><a xlink:href="../../df/d0a/main_8cpp.html" target="_top" xlink:title=" ">
<polygon fill="white" stroke="#666666" points="1837.5,-19 1775.5,-19 1775.5,0 1837.5,0 1837.5,-19"/>
<text text-anchor="middle" x="1806.5" y="-7" font-family="Helvetica,sans-Serif" font-size="10.00">main.cpp</text>
</a>
</g>
</g>
<!-- Node1&#45;&gt;Node15 -->
<g id="edge14_Node000001_Node000015" class="edge">
<title>Node1&#45;&gt;Node15</title>
<g id="a_edge14_Node000001_Node000015"><a xlink:title=" ">
<path fill="none" stroke="#63b8ff" d="M993.97,-63.49C1119.27,-62.93 1474.34,-57.74 1766.5,-19 1769.32,-18.63 1772.23,-18.16 1775.14,-17.65"/>
<polygon fill="#63b8ff" stroke="#63b8ff" points="993.6,-59.99 983.61,-63.53 993.62,-66.99 993.6,-59.99"/>
</a>
</g>
</g>
</g>
</svg>
