<?xml version="1.0" encoding="UTF-8" standalone="no"?>
<!DOCTYPE svg PUBLIC "-//W3C//DTD SVG 1.1//EN"
 "http://www.w3.org/Graphics/SVG/1.1/DTD/svg11.dtd">
<!-- Generated by graphviz version 2.43.0 (0)
 -->
<!-- Title: Rendering::CDisplayRendering Pages: 1 -->
<svg width="173pt" height="441pt"
 viewBox="0.00 0.00 173.00 441.00" xmlns="http://www.w3.org/2000/svg" xmlns:xlink="http://www.w3.org/1999/xlink">
<g id="graph0" class="graph" transform="scale(1 1) rotate(0) translate(4 437)">
<title>Rendering::CDisplayRendering</title>
<polygon fill="white" stroke="transparent" points="-4,4 -4,-437 169,-437 169,4 -4,4"/>
<!-- Node1 -->
<g id="node1" class="node">
<title>Node1</title>
<g id="a_node1"><a xlink:title="Rendering for the html display widget.">
<polygon fill="#bfbfbf" stroke="black" points="0,-138.5 0,-228.5 165,-228.5 165,-138.5 0,-138.5"/>
<text text-anchor="middle" x="82.5" y="-216.5" font-family="Helvetica,sans-Serif" font-size="10.00">Rendering::CDisplayRendering</text>
<polyline fill="none" stroke="black" points="0,-209.5 165,-209.5 "/>
<text text-anchor="middle" x="82.5" y="-197.5" font-family="Helvetica,sans-Serif" font-size="10.00"> </text>
<polyline fill="none" stroke="black" points="0,-190.5 165,-190.5 "/>
<text text-anchor="start" x="8" y="-178.5" font-family="Helvetica,sans-Serif" font-size="10.00">+ CDisplayRendering()</text>
<text text-anchor="start" x="8" y="-167.5" font-family="Helvetica,sans-Serif" font-size="10.00">+ keyToHTMLAnchor()</text>
<text text-anchor="start" x="8" y="-156.5" font-family="Helvetica,sans-Serif" font-size="10.00"># entryLink()</text>
<text text-anchor="start" x="8" y="-145.5" font-family="Helvetica,sans-Serif" font-size="10.00"># finishText()</text>
</a>
</g>
</g>
<!-- Node3 -->
<g id="node3" class="node">
<title>Node3</title>
<g id="a_node3"><a xlink:href="../../d5/d4a/classBtPrinter.html" target="_top" xlink:title="Manages the print item queue and printing.">
<polygon fill="white" stroke="black" points="34.5,-0.5 34.5,-101.5 130.5,-101.5 130.5,-0.5 34.5,-0.5"/>
<text text-anchor="middle" x="82.5" y="-89.5" font-family="Helvetica,sans-Serif" font-size="10.00">BtPrinter</text>
<polyline fill="none" stroke="black" points="34.5,-82.5 130.5,-82.5 "/>
<text text-anchor="middle" x="82.5" y="-70.5" font-family="Helvetica,sans-Serif" font-size="10.00"> </text>
<polyline fill="none" stroke="black" points="34.5,-63.5 130.5,-63.5 "/>
<text text-anchor="start" x="42.5" y="-51.5" font-family="Helvetica,sans-Serif" font-size="10.00">+ BtPrinter()</text>
<text text-anchor="start" x="42.5" y="-40.5" font-family="Helvetica,sans-Serif" font-size="10.00">+ printKeyTree()</text>
<text text-anchor="start" x="42.5" y="-29.5" font-family="Helvetica,sans-Serif" font-size="10.00">&#45; entryLink()</text>
<text text-anchor="start" x="42.5" y="-18.5" font-family="Helvetica,sans-Serif" font-size="10.00">&#45; finishText()</text>
<text text-anchor="start" x="42.5" y="-7.5" font-family="Helvetica,sans-Serif" font-size="10.00">&#45; renderEntry()</text>
</a>
</g>
</g>
<!-- Node1&#45;&gt;Node3 -->
<g id="edge2" class="edge">
<title>Node1&#45;&gt;Node3</title>
<path fill="none" stroke="midnightblue" d="M82.5,-128.13C82.5,-119.31 82.5,-110.22 82.5,-101.52"/>
<polygon fill="none" stroke="midnightblue" points="79,-128.32 82.5,-138.32 86,-128.32 79,-128.32"/>
</g>
<!-- Node2 -->
<g id="node2" class="node">
<title>Node2</title>
<g id="a_node2"><a xlink:href="../../dd/dea/classRendering_1_1CTextRendering.html" target="_top" xlink:title="Text rendering based on trees.">
<polygon fill="white" stroke="black" points="8,-265.5 8,-432.5 157,-432.5 157,-265.5 8,-265.5"/>
<text text-anchor="middle" x="82.5" y="-420.5" font-family="Helvetica,sans-Serif" font-size="10.00">Rendering::CTextRendering</text>
<polyline fill="none" stroke="black" points="8,-413.5 157,-413.5 "/>
<text text-anchor="start" x="16" y="-401.5" font-family="Helvetica,sans-Serif" font-size="10.00"># m_addText</text>
<text text-anchor="start" x="16" y="-390.5" font-family="Helvetica,sans-Serif" font-size="10.00"># m_displayOptions</text>
<text text-anchor="start" x="16" y="-379.5" font-family="Helvetica,sans-Serif" font-size="10.00"># m_filterOptions</text>
<polyline fill="none" stroke="black" points="8,-372.5 157,-372.5 "/>
<text text-anchor="start" x="16" y="-360.5" font-family="Helvetica,sans-Serif" font-size="10.00">+ CTextRendering()</text>
<text text-anchor="start" x="16" y="-349.5" font-family="Helvetica,sans-Serif" font-size="10.00">+ renderKeyRange()</text>
<text text-anchor="start" x="16" y="-338.5" font-family="Helvetica,sans-Serif" font-size="10.00">+ renderKeyTree()</text>
<text text-anchor="start" x="16" y="-327.5" font-family="Helvetica,sans-Serif" font-size="10.00">+ renderSingleKey()</text>
<text text-anchor="start" x="16" y="-316.5" font-family="Helvetica,sans-Serif" font-size="10.00">+ ~CTextRendering()</text>
<text text-anchor="start" x="16" y="-305.5" font-family="Helvetica,sans-Serif" font-size="10.00"># collectModules()</text>
<text text-anchor="start" x="16" y="-294.5" font-family="Helvetica,sans-Serif" font-size="10.00"># entryLink()</text>
<text text-anchor="start" x="16" y="-283.5" font-family="Helvetica,sans-Serif" font-size="10.00"># finishText()</text>
<text text-anchor="start" x="16" y="-272.5" font-family="Helvetica,sans-Serif" font-size="10.00"># renderEntry()</text>
</a>
</g>
</g>
<!-- Node2&#45;&gt;Node1 -->
<g id="edge1" class="edge">
<title>Node2&#45;&gt;Node1</title>
<path fill="none" stroke="midnightblue" d="M82.5,-255.22C82.5,-245.99 82.5,-236.95 82.5,-228.58"/>
<polygon fill="none" stroke="midnightblue" points="79,-255.29 82.5,-265.29 86,-255.29 79,-255.29"/>
</g>
</g>
</svg>
