<?xml version="1.0" encoding="UTF-8" standalone="no"?>
<!DOCTYPE svg PUBLIC "-//W3C//DTD SVG 1.1//EN"
 "http://www.w3.org/Graphics/SVG/1.1/DTD/svg11.dtd">
<!-- Generated by graphviz version 2.43.0 (0)
 -->
<!-- Title: Rendering::CDisplayRendering Pages: 1 -->
<!--zoomable 617 -->

<svg id="main" version="1.1" xmlns="http://www.w3.org/2000/svg" xmlns:xlink="http://www.w3.org/1999/xlink" xml:space="preserve" onload="init(evt)">
<style type="text/css"><![CDATA[
.node, .edge {opacity: 0.7;}
.node.selected, .edge.selected {opacity: 1;}
.edge:hover path { stroke: red; }
.edge:hover polygon { stroke: red; fill: red; }
]]></style>

<defs>
  <circle id="rim" cx="0" cy="0" r="7"/>
  <circle id="rim2" cx="0" cy="0" r="3.5"/>
  <g id="zoomPlus">
    <use xlink:href="#rim" fill="#404040"><set attributeName="fill" to="#808080" begin="zoomplus.mouseover" end="zoomplus.mouseout"/></use>
    <path d="M-4,0h8M0,-4v8" fill="none" stroke="white" stroke-width="1.5" pointer-events="none"/>
  </g>
  <g id="zoomMin">
    <use xlink:href="#rim" fill="#404040"><set attributeName="fill" to="#808080" begin="zoomminus.mouseover" end="zoomminus.mouseout"/></use>
    <path d="M-4,0h8" fill="none" stroke="white" stroke-width="1.5" pointer-events="none"/>
  </g>
  <g id="arrowUp" transform="translate(30 24)">
    <use xlink:href="#rim"/>
    <path pointer-events="none" fill="none" stroke="white" stroke-width="1.5" d="M0,-3.0v7 M-2.5,-0.5L0,-3.0L2.5,-0.5"/>
  </g>
  <g id="arrowRight" transform="rotate(90) translate(36 -43)">
    <use xlink:href="#rim"/>
    <path pointer-events="none" fill="none" stroke="white" stroke-width="1.5" d="M0,-3.0v7 M-2.5,-0.5L0,-3.0L2.5,-0.5"/>
  </g>
  <g id="arrowDown" transform="rotate(180) translate(-30 -48)">
    <use xlink:href="#rim"/>
    <path pointer-events="none" fill="none" stroke="white" stroke-width="1.5" d="M0,-3.0v7 M-2.5,-0.5L0,-3.0L2.5,-0.5"/>
  </g>
  <g id="arrowLeft" transform="rotate(270) translate(-36 17)">
    <use xlink:href="#rim"/>
    <path pointer-events="none" fill="none" stroke="white" stroke-width="1.5" d="M0,-3.0v7 M-2.5,-0.5L0,-3.0L2.5,-0.5"/>
  </g>
  <g id="resetDef">
    <use xlink:href="#rim2" fill="#404040"><set attributeName="fill" to="#808080" begin="reset.mouseover" end="reset.mouseout"/></use>
  </g>
</defs>
<script type="application/ecmascript">
var viewWidth = 167;
var viewHeight = 617;
var sectionId = 'dynsection-0';
</script>
<script type="application/ecmascript" xlink:href="../../svg.min.js"/>
<svg id="graph" class="graph">
<g id="viewport">
<title>Rendering::CDisplayRendering</title>
<!-- Node1 -->
<g id="Node000001" class="node">
<title>Node1</title>
<g id="a_Node000001"><a xlink:title="Rendering for the html display widget.">
<polygon fill="#999999" stroke="transparent" points="159,-299 0,-299 0,-145 159,-145 159,-299"/>
<text text-anchor="start" x="5.5" y="-287" font-family="Helvetica,sans-Serif" font-size="10.00">Rendering::CDisplayRendering</text>
<text text-anchor="start" x="8" y="-272" font-family="Helvetica,sans-Serif" font-size="10.00">&#45;</text>
<text text-anchor="start" x="19.5" y="-272" font-family="Helvetica,sans-Serif" font-size="10.00">m_displayTemplateName</text>
<text text-anchor="start" x="5.5" y="-257" font-family="Helvetica,sans-Serif" font-size="10.00">+</text>
<text text-anchor="start" x="19.5" y="-257" font-family="Helvetica,sans-Serif" font-size="10.00">CDisplayRendering()</text>
<text text-anchor="start" x="5.5" y="-242" font-family="Helvetica,sans-Serif" font-size="10.00">+</text>
<text text-anchor="start" x="19.5" y="-242" font-family="Helvetica,sans-Serif" font-size="10.00">CDisplayRendering()</text>
<text text-anchor="start" x="5.5" y="-227" font-family="Helvetica,sans-Serif" font-size="10.00">+</text>
<text text-anchor="start" x="19.5" y="-227" font-family="Helvetica,sans-Serif" font-size="10.00">displayTemplateName()</text>
<text text-anchor="start" x="5.5" y="-212" font-family="Helvetica,sans-Serif" font-size="10.00">+</text>
<text text-anchor="start" x="19.5" y="-212" font-family="Helvetica,sans-Serif" font-size="10.00">renderDisplayEntry()</text>
<text text-anchor="start" x="5.5" y="-197" font-family="Helvetica,sans-Serif" font-size="10.00">+</text>
<text text-anchor="start" x="19.5" y="-197" font-family="Helvetica,sans-Serif" font-size="10.00">setDisplayTemplateName()</text>
<text text-anchor="start" x="5.5" y="-182" font-family="Helvetica,sans-Serif" font-size="10.00">+</text>
<text text-anchor="start" x="19.5" y="-182" font-family="Helvetica,sans-Serif" font-size="10.00">keyToHTMLAnchor()</text>
<text text-anchor="start" x="5.5" y="-167" font-family="Helvetica,sans-Serif" font-size="10.00">#</text>
<text text-anchor="start" x="19.5" y="-167" font-family="Helvetica,sans-Serif" font-size="10.00">entryLink()</text>
<text text-anchor="start" x="5.5" y="-152" font-family="Helvetica,sans-Serif" font-size="10.00">#</text>
<text text-anchor="start" x="19.5" y="-152" font-family="Helvetica,sans-Serif" font-size="10.00">finishText()</text>
<polygon fill="#666666" stroke="#666666" points="0.5,-282 0.5,-282 159.5,-282 159.5,-282 0.5,-282"/>
<polygon fill="#666666" stroke="#666666" points="0.5,-267 0.5,-267 17.5,-267 17.5,-267 0.5,-267"/>
<polygon fill="#666666" stroke="#666666" points="17.5,-267 17.5,-267 159.5,-267 159.5,-267 17.5,-267"/>
<polygon fill="none" stroke="#666666" points="0,-145 0,-299 159,-299 159,-145 0,-145"/>
</a>
</g>
</g>
<!-- Node3 -->
<g id="Node000003" class="node">
<title>Node3</title>
<g id="a_Node000003"><a xlink:href="../../d5/d4a/classBtPrinter.html" target="_top" xlink:title="Manages the print item queue and printing.">
<polygon fill="white" stroke="transparent" points="124.5,-109 34.5,-109 34.5,0 124.5,0 124.5,-109"/>
<text text-anchor="start" x="58" y="-96.5" font-family="Helvetica,sans-Serif" font-size="10.00">BtPrinter</text>
<text text-anchor="start" x="77.5" y="-81.5" font-family="Helvetica,sans-Serif" font-size="10.00"> </text>
<text text-anchor="start" x="38.5" y="-66.5" font-family="Helvetica,sans-Serif" font-size="10.00">+</text>
<text text-anchor="start" x="51.5" y="-66.5" font-family="Helvetica,sans-Serif" font-size="10.00">BtPrinter()</text>
<text text-anchor="start" x="38.5" y="-51.5" font-family="Helvetica,sans-Serif" font-size="10.00">+</text>
<text text-anchor="start" x="51.5" y="-51.5" font-family="Helvetica,sans-Serif" font-size="10.00">printKeyTree()</text>
<text text-anchor="start" x="41" y="-36.5" font-family="Helvetica,sans-Serif" font-size="10.00">&#45;</text>
<text text-anchor="start" x="51.5" y="-36.5" font-family="Helvetica,sans-Serif" font-size="10.00">entryLink()</text>
<text text-anchor="start" x="41" y="-21.5" font-family="Helvetica,sans-Serif" font-size="10.00">&#45;</text>
<text text-anchor="start" x="51.5" y="-21.5" font-family="Helvetica,sans-Serif" font-size="10.00">finishText()</text>
<text text-anchor="start" x="41" y="-6.5" font-family="Helvetica,sans-Serif" font-size="10.00">&#45;</text>
<text text-anchor="start" x="51.5" y="-6.5" font-family="Helvetica,sans-Serif" font-size="10.00">renderEntry()</text>
<polygon fill="#666666" stroke="#666666" points="34.5,-91.5 34.5,-91.5 124.5,-91.5 124.5,-91.5 34.5,-91.5"/>
<polygon fill="#666666" stroke="#666666" points="34.5,-76.5 34.5,-76.5 124.5,-76.5 124.5,-76.5 34.5,-76.5"/>
<polygon fill="none" stroke="#666666" points="34.5,0 34.5,-109 124.5,-109 124.5,0 34.5,0"/>
</a>
</g>
</g>
<!-- Node1&#45;&gt;Node3 -->
<g id="edge2_Node000001_Node000003" class="edge">
<title>Node1&#45;&gt;Node3</title>
<g id="a_edge2_Node000001_Node000003"><a xlink:title=" ">
<path fill="none" stroke="#63b8ff" d="M79.5,-134.52C79.5,-125.99 79.5,-117.5 79.5,-109.44"/>
<polygon fill="none" stroke="#63b8ff" points="76,-134.55 79.5,-144.55 83,-134.55 76,-134.55"/>
</a>
</g>
</g>
<!-- Node2 -->
<g id="Node000002" class="node">
<title>Node2</title>
<g id="a_Node000002"><a xlink:href="../../dd/dea/classRendering_1_1CTextRendering.html" target="_top" xlink:title="Text rendering based on trees.">
<polygon fill="white" stroke="transparent" points="151,-609 8,-609 8,-335 151,-335 151,-609"/>
<text text-anchor="start" x="13.5" y="-597" font-family="Helvetica,sans-Serif" font-size="10.00">Rendering::CTextRendering</text>
<text text-anchor="start" x="18.5" y="-582" font-family="Helvetica,sans-Serif" font-size="10.00">#</text>
<text text-anchor="start" x="37.5" y="-582" font-family="Helvetica,sans-Serif" font-size="10.00">m_addText</text>
<text text-anchor="start" x="18.5" y="-567" font-family="Helvetica,sans-Serif" font-size="10.00">#</text>
<text text-anchor="start" x="37.5" y="-567" font-family="Helvetica,sans-Serif" font-size="10.00">m_displayOptions</text>
<text text-anchor="start" x="18.5" y="-552" font-family="Helvetica,sans-Serif" font-size="10.00">#</text>
<text text-anchor="start" x="37.5" y="-552" font-family="Helvetica,sans-Serif" font-size="10.00">m_filterOptions</text>
<text text-anchor="start" x="18.5" y="-537" font-family="Helvetica,sans-Serif" font-size="10.00">+</text>
<text text-anchor="start" x="37.5" y="-537" font-family="Helvetica,sans-Serif" font-size="10.00">CTextRendering()</text>
<text text-anchor="start" x="18.5" y="-522" font-family="Helvetica,sans-Serif" font-size="10.00">+</text>
<text text-anchor="start" x="37.5" y="-522" font-family="Helvetica,sans-Serif" font-size="10.00">CTextRendering()</text>
<text text-anchor="start" x="18.5" y="-507" font-family="Helvetica,sans-Serif" font-size="10.00">+</text>
<text text-anchor="start" x="37.5" y="-507" font-family="Helvetica,sans-Serif" font-size="10.00">displayOptions()</text>
<text text-anchor="start" x="18.5" y="-492" font-family="Helvetica,sans-Serif" font-size="10.00">+</text>
<text text-anchor="start" x="37.5" y="-492" font-family="Helvetica,sans-Serif" font-size="10.00">filterOptions()</text>
<text text-anchor="start" x="18.5" y="-477" font-family="Helvetica,sans-Serif" font-size="10.00">+</text>
<text text-anchor="start" x="37.5" y="-477" font-family="Helvetica,sans-Serif" font-size="10.00">renderKeyRange()</text>
<text text-anchor="start" x="18.5" y="-462" font-family="Helvetica,sans-Serif" font-size="10.00">+</text>
<text text-anchor="start" x="37.5" y="-462" font-family="Helvetica,sans-Serif" font-size="10.00">renderKeyTree()</text>
<text text-anchor="start" x="18.5" y="-447" font-family="Helvetica,sans-Serif" font-size="10.00">+</text>
<text text-anchor="start" x="37.5" y="-447" font-family="Helvetica,sans-Serif" font-size="10.00">renderSingleKey()</text>
<text text-anchor="start" x="18.5" y="-432" font-family="Helvetica,sans-Serif" font-size="10.00">+</text>
<text text-anchor="start" x="37.5" y="-432" font-family="Helvetica,sans-Serif" font-size="10.00">setDisplayOptions()</text>
<text text-anchor="start" x="18.5" y="-417" font-family="Helvetica,sans-Serif" font-size="10.00">+</text>
<text text-anchor="start" x="37.5" y="-417" font-family="Helvetica,sans-Serif" font-size="10.00">setFilterOptions()</text>
<text text-anchor="start" x="18.5" y="-402" font-family="Helvetica,sans-Serif" font-size="10.00">+</text>
<text text-anchor="start" x="37.5" y="-402" font-family="Helvetica,sans-Serif" font-size="10.00">~CTextRendering()</text>
<text text-anchor="start" x="18.5" y="-387" font-family="Helvetica,sans-Serif" font-size="10.00">#</text>
<text text-anchor="start" x="37.5" y="-387" font-family="Helvetica,sans-Serif" font-size="10.00">entryLink()</text>
<text text-anchor="start" x="18.5" y="-372" font-family="Helvetica,sans-Serif" font-size="10.00">#</text>
<text text-anchor="start" x="37.5" y="-372" font-family="Helvetica,sans-Serif" font-size="10.00">finishText()</text>
<text text-anchor="start" x="18.5" y="-357" font-family="Helvetica,sans-Serif" font-size="10.00">#</text>
<text text-anchor="start" x="37.5" y="-357" font-family="Helvetica,sans-Serif" font-size="10.00">renderEntry()</text>
<text text-anchor="start" x="18.5" y="-342" font-family="Helvetica,sans-Serif" font-size="10.00">#</text>
<text text-anchor="start" x="37.5" y="-342" font-family="Helvetica,sans-Serif" font-size="10.00">collectModules()</text>
<polygon fill="#666666" stroke="#666666" points="8.5,-592 8.5,-592 151.5,-592 151.5,-592 8.5,-592"/>
<polygon fill="#666666" stroke="#666666" points="8.5,-547 8.5,-547 35.5,-547 35.5,-547 8.5,-547"/>
<polygon fill="#666666" stroke="#666666" points="35.5,-547 35.5,-547 151.5,-547 151.5,-547 35.5,-547"/>
<polygon fill="none" stroke="#666666" points="8,-335 8,-609 151,-609 151,-335 8,-335"/>
</a>
</g>
</g>
<!-- Node2&#45;&gt;Node1 -->
<g id="edge1_Node000001_Node000002" class="edge">
<title>Node2&#45;&gt;Node1</title>
<g id="a_edge1_Node000001_Node000002"><a xlink:title=" ">
<path fill="none" stroke="#63b8ff" d="M79.5,-324.46C79.5,-315.81 79.5,-307.32 79.5,-299.15"/>
<polygon fill="none" stroke="#63b8ff" points="76,-324.67 79.5,-334.67 83,-324.67 76,-324.67"/>
</a>
</g>
</g>
</g>
</svg>

<g id="navigator" transform="translate(0 0)" fill="#404254">
  <rect fill="#f2f5e9" fill-opacity="0.5" stroke="#606060" stroke-width=".5" x="0" y="0" width="60" height="60"/>
  <use id="zoomplus" xlink:href="#zoomPlus" x="17" y="9" onmousedown="handleZoom(evt,'in')"/>
  <use id="zoomminus" xlink:href="#zoomMin" x="42" y="9" onmousedown="handleZoom(evt,'out')"/>
  <use id="reset" xlink:href="#resetDef" x="30" y="36" onmousedown="handleReset()"/>
   <use id="arrowup" xlink:href="#arrowUp" x="0" y="0" onmousedown="handlePan(0,-1)"/>
  <use id="arrowright" xlink:href="#arrowRight" x="0" y="0" onmousedown="handlePan(1,0)"/>
  <use id="arrowdown" xlink:href="#arrowDown" x="0" y="0" onmousedown="handlePan(0,1)"/>
  <use id="arrowleft" xlink:href="#arrowLeft" x="0" y="0" onmousedown="handlePan(-1,0)"/>
</g>
<svg viewBox="0 0 15 15" width="100%" height="30px" preserveAspectRatio="xMaxYMin meet">
 <g id="arrow_out" transform="scale(0.3 0.3)">
  <a xlink:href="classRendering_1_1CDisplayRendering__inherit__graph_org.svg" target="_base">
   <rect id="button" ry="5" rx="5" y="6" x="6" height="38" width="38"
        fill="#f2f5e9" fill-opacity="0.5" stroke="#606060" stroke-width="1.0"/>
   <path id="arrow"
     d="M 11.500037,31.436501 C 11.940474,20.09759 22.043105,11.32322 32.158766,21.979434 L 37.068811,17.246167 C 37.068811,17.246167 37.088388,32 37.088388,32 L 22.160133,31.978069 C 22.160133,31.978069 26.997745,27.140456 26.997745,27.140456 C 18.528582,18.264221 13.291696,25.230495 11.500037,31.436501 z"
     style="fill:#404040;"/>
  </a>
 </g>
</svg>

<style type='text/css'>
<![CDATA[
[data-mouse-over-selected='false'] { opacity: 0.7; }
[data-mouse-over-selected='true']  { opacity: 1.0; }
]]>
</style>
<script type="application/ecmascript"><![CDATA[
document.addEventListener('DOMContentLoaded', (event) => {
  highlightEdges();
  highlightAdjacentNodes();
});
]]></script>
</svg>
