<?xml version="1.0" encoding="UTF-8" standalone="no"?>
<!DOCTYPE svg PUBLIC "-//W3C//DTD SVG 1.1//EN"
 "http://www.w3.org/Graphics/SVG/1.1/DTD/svg11.dtd">
<!-- Generated by graphviz version 2.43.0 (0)
 -->
<!-- Title: QThread Pages: 1 -->
<svg width="324pt" height="292pt"
 viewBox="0.00 0.00 324.00 292.00" xmlns="http://www.w3.org/2000/svg" xmlns:xlink="http://www.w3.org/1999/xlink">
<g id="graph0" class="graph" transform="scale(1 1) rotate(0) translate(4 288)">
<title>QThread</title>
<!-- Node1 -->
<g id="Node000001" class="node">
<title>Node1</title>
<g id="a_Node000001"><a xlink:title=" ">
<polygon fill="#999999" stroke="transparent" points="190,-284 138,-284 138,-235 190,-235 190,-284"/>
<text text-anchor="start" x="143" y="-271.5" font-family="Helvetica,sans-Serif" font-size="10.00">QThread</text>
<text text-anchor="start" x="162" y="-256.5" font-family="Helvetica,sans-Serif" font-size="10.00"> </text>
<text text-anchor="start" x="162" y="-241.5" font-family="Helvetica,sans-Serif" font-size="10.00"> </text>
<polygon fill="#666666" stroke="#666666" points="138,-266.5 138,-266.5 190,-266.5 190,-266.5 138,-266.5"/>
<polygon fill="#666666" stroke="#666666" points="138,-251.5 138,-251.5 190,-251.5 190,-251.5 138,-251.5"/>
<polygon fill="none" stroke="#666666" points="138,-235 138,-284 190,-284 190,-235 138,-235"/>
</a>
</g>
</g>
<!-- Node2 -->
<g id="Node000002" class="node">
<title>Node2</title>
<g id="a_Node000002"><a xlink:href="../../df/d12/classBtInstallThread.html" target="_top" xlink:title=" ">
<polygon fill="white" stroke="transparent" points="162,-199 0,-199 0,0 162,0 162,-199"/>
<text text-anchor="start" x="43.5" y="-186.5" font-family="Helvetica,sans-Serif" font-size="10.00">BtInstallThread</text>
<text text-anchor="start" x="6.5" y="-171.5" font-family="Helvetica,sans-Serif" font-size="10.00">&#45;</text>
<text text-anchor="start" x="17" y="-171.5" font-family="Helvetica,sans-Serif" font-size="10.00">m_currentModuleIndex</text>
<text text-anchor="start" x="6.5" y="-156.5" font-family="Helvetica,sans-Serif" font-size="10.00">&#45;</text>
<text text-anchor="start" x="17" y="-156.5" font-family="Helvetica,sans-Serif" font-size="10.00">m_destination</text>
<text text-anchor="start" x="6.5" y="-141.5" font-family="Helvetica,sans-Serif" font-size="10.00">&#45;</text>
<text text-anchor="start" x="17" y="-141.5" font-family="Helvetica,sans-Serif" font-size="10.00">m_iMgr</text>
<text text-anchor="start" x="6.5" y="-126.5" font-family="Helvetica,sans-Serif" font-size="10.00">&#45;</text>
<text text-anchor="start" x="17" y="-126.5" font-family="Helvetica,sans-Serif" font-size="10.00">m_modules</text>
<text text-anchor="start" x="6.5" y="-111.5" font-family="Helvetica,sans-Serif" font-size="10.00">&#45;</text>
<text text-anchor="start" x="17" y="-111.5" font-family="Helvetica,sans-Serif" font-size="10.00">m_stopRequested</text>
<text text-anchor="start" x="4" y="-96.5" font-family="Helvetica,sans-Serif" font-size="10.00">+</text>
<text text-anchor="start" x="17" y="-96.5" font-family="Helvetica,sans-Serif" font-size="10.00">BtInstallThread()</text>
<text text-anchor="start" x="4" y="-81.5" font-family="Helvetica,sans-Serif" font-size="10.00">+</text>
<text text-anchor="start" x="17" y="-81.5" font-family="Helvetica,sans-Serif" font-size="10.00">stopInstall()</text>
<text text-anchor="start" x="4" y="-66.5" font-family="Helvetica,sans-Serif" font-size="10.00">#</text>
<text text-anchor="start" x="17" y="-66.5" font-family="Helvetica,sans-Serif" font-size="10.00">run()</text>
<text text-anchor="start" x="6.5" y="-51.5" font-family="Helvetica,sans-Serif" font-size="10.00">&#45;</text>
<text text-anchor="start" x="17" y="-51.5" font-family="Helvetica,sans-Serif" font-size="10.00">installModule()</text>
<text text-anchor="start" x="6.5" y="-36.5" font-family="Helvetica,sans-Serif" font-size="10.00">&#45;</text>
<text text-anchor="start" x="17" y="-36.5" font-family="Helvetica,sans-Serif" font-size="10.00">removeModule()</text>
<text text-anchor="start" x="6.5" y="-21.5" font-family="Helvetica,sans-Serif" font-size="10.00">&#45;</text>
<text text-anchor="start" x="17" y="-21.5" font-family="Helvetica,sans-Serif" font-size="10.00">slotDownloadStarted()</text>
<text text-anchor="start" x="6.5" y="-6.5" font-family="Helvetica,sans-Serif" font-size="10.00">&#45;</text>
<text text-anchor="start" x="17" y="-6.5" font-family="Helvetica,sans-Serif" font-size="10.00">slotManagerStatusUpdated()</text>
<polygon fill="#666666" stroke="#666666" points="0,-181.5 0,-181.5 162,-181.5 162,-181.5 0,-181.5"/>
<polygon fill="#666666" stroke="#666666" points="0,-106.5 0,-106.5 15,-106.5 15,-106.5 0,-106.5"/>
<polygon fill="#666666" stroke="#666666" points="15,-106.5 15,-106.5 162,-106.5 162,-106.5 15,-106.5"/>
<polygon fill="none" stroke="#666666" points="0,0 0,-199 162,-199 162,0 0,0"/>
</a>
</g>
</g>
<!-- Node1&#45;&gt;Node2 -->
<g id="edge1_Node000001_Node000002" class="edge">
<title>Node1&#45;&gt;Node2</title>
<g id="a_edge1_Node000001_Node000002"><a xlink:title=" ">
<path fill="none" stroke="#63b8ff" d="M146.83,-225.81C142.56,-217.69 137.76,-208.56 132.75,-199.02"/>
<polygon fill="none" stroke="#63b8ff" points="143.82,-227.62 151.57,-234.85 150.02,-224.37 143.82,-227.62"/>
</a>
</g>
</g>
<!-- Node3 -->
<g id="Node000003" class="node">
<title>Node3</title>
<g id="a_Node000003"><a xlink:href="../../d4/d91/classBtSourcesThread.html" target="_top" xlink:title=" ">
<polygon fill="white" stroke="transparent" points="316,-161.5 180,-161.5 180,-37.5 316,-37.5 316,-161.5"/>
<text text-anchor="start" x="206.5" y="-149.5" font-family="Helvetica,sans-Serif" font-size="10.00">BtSourcesThread</text>
<text text-anchor="start" x="186.5" y="-134.5" font-family="Helvetica,sans-Serif" font-size="10.00">&#45;</text>
<text text-anchor="start" x="197" y="-134.5" font-family="Helvetica,sans-Serif" font-size="10.00">m_finishedSuccessfully</text>
<text text-anchor="start" x="186.5" y="-119.5" font-family="Helvetica,sans-Serif" font-size="10.00">&#45;</text>
<text text-anchor="start" x="197" y="-119.5" font-family="Helvetica,sans-Serif" font-size="10.00">m_stop</text>
<text text-anchor="start" x="184" y="-104.5" font-family="Helvetica,sans-Serif" font-size="10.00">+</text>
<text text-anchor="start" x="197" y="-104.5" font-family="Helvetica,sans-Serif" font-size="10.00">BtSourcesThread()</text>
<text text-anchor="start" x="184" y="-89.5" font-family="Helvetica,sans-Serif" font-size="10.00">+</text>
<text text-anchor="start" x="197" y="-89.5" font-family="Helvetica,sans-Serif" font-size="10.00">finishedSuccessfully()</text>
<text text-anchor="start" x="184" y="-74.5" font-family="Helvetica,sans-Serif" font-size="10.00">+</text>
<text text-anchor="start" x="197" y="-74.5" font-family="Helvetica,sans-Serif" font-size="10.00">stop()</text>
<text text-anchor="start" x="184" y="-59.5" font-family="Helvetica,sans-Serif" font-size="10.00">#</text>
<text text-anchor="start" x="197" y="-59.5" font-family="Helvetica,sans-Serif" font-size="10.00">run()</text>
<text text-anchor="start" x="186.5" y="-44.5" font-family="Helvetica,sans-Serif" font-size="10.00">&#45;</text>
<text text-anchor="start" x="197" y="-44.5" font-family="Helvetica,sans-Serif" font-size="10.00">shouldStop()</text>
<polygon fill="#666666" stroke="#666666" points="180,-144.5 180,-144.5 316,-144.5 316,-144.5 180,-144.5"/>
<polygon fill="#666666" stroke="#666666" points="180,-114.5 180,-114.5 195,-114.5 195,-114.5 180,-114.5"/>
<polygon fill="#666666" stroke="#666666" points="195,-114.5 195,-114.5 316,-114.5 316,-114.5 195,-114.5"/>
<polygon fill="none" stroke="#666666" points="180,-37.5 180,-161.5 316,-161.5 316,-37.5 180,-37.5"/>
</a>
</g>
</g>
<!-- Node1&#45;&gt;Node3 -->
<g id="edge2_Node000001_Node000003" class="edge">
<title>Node1&#45;&gt;Node3</title>
<g id="a_edge2_Node000001_Node000003"><a xlink:title=" ">
<path fill="none" stroke="#63b8ff" d="M181.32,-225.92C191.19,-207.35 203.88,-183.48 215.54,-161.56"/>
<polygon fill="none" stroke="#63b8ff" points="178.18,-224.37 176.58,-234.85 184.36,-227.66 178.18,-224.37"/>
</a>
</g>
</g>
</g>
</svg>
