<?xml version="1.0" encoding="UTF-8" standalone="no"?>
<!DOCTYPE svg PUBLIC "-//W3C//DTD SVG 1.1//EN"
 "http://www.w3.org/Graphics/SVG/1.1/DTD/svg11.dtd">
<!-- Generated by graphviz version 2.43.0 (0)
 -->
<!-- Title: cswordbackend.h Pages: 1 -->
<svg width="6343pt" height="137pt"
 viewBox="0.00 0.00 6342.50 137.00" xmlns="http://www.w3.org/2000/svg" xmlns:xlink="http://www.w3.org/1999/xlink">
<g id="graph0" class="graph" transform="scale(1 1) rotate(0) translate(4 133)">
<title>cswordbackend.h</title>
<!-- Node1 -->
<g id="Node000001" class="node">
<title>Node1</title>
<g id="a_Node000001"><a xlink:title=" ">
<polygon fill="#999999" stroke="#666666" points="3158,-129 3057,-129 3057,-110 3158,-110 3158,-129"/>
<text text-anchor="middle" x="3107.5" y="-117" font-family="Helvetica,sans-Serif" font-size="10.00">cswordbackend.h</text>
</a>
</g>
</g>
<!-- Node2 -->
<g id="Node000002" class="node">
<title>Node2</title>
<g id="a_Node000002"><a xlink:href="../../d1/df6/bibletime_8cpp.html" target="_top" xlink:title=" ">
<polygon fill="white" stroke="#666666" points="83,-19 0,-19 0,0 83,0 83,-19"/>
<text text-anchor="middle" x="41.5" y="-7" font-family="Helvetica,sans-Serif" font-size="10.00">bibletime.cpp</text>
</a>
</g>
</g>
<!-- Node1&#45;&gt;Node2 -->
<g id="edge1_Node000001_Node000002" class="edge">
<title>Node1&#45;&gt;Node2</title>
<g id="a_edge1_Node000001_Node000002"><a xlink:title=" ">
<path fill="none" stroke="#63b8ff" d="M3046.7,-118.4C2624.95,-117.59 149.73,-111.26 82.5,-74 60.92,-62.04 48.93,-33.4 44.07,-19.03"/>
<polygon fill="#63b8ff" stroke="#63b8ff" points="3046.85,-121.9 3056.86,-118.42 3046.86,-114.9 3046.85,-121.9"/>
</a>
</g>
</g>
<!-- Node3 -->
<g id="Node000003" class="node">
<title>Node3</title>
<g id="a_Node000003"><a xlink:href="../../d6/d96/bibletime__slots_8cpp.html" target="_top" xlink:title=" ">
<polygon fill="white" stroke="#666666" points="203.5,-74 91.5,-74 91.5,-55 203.5,-55 203.5,-74"/>
<text text-anchor="middle" x="147.5" y="-62" font-family="Helvetica,sans-Serif" font-size="10.00">bibletime_slots.cpp</text>
</a>
</g>
</g>
<!-- Node1&#45;&gt;Node3 -->
<g id="edge2_Node000001_Node000003" class="edge">
<title>Node1&#45;&gt;Node3</title>
<g id="a_edge2_Node000001_Node000003"><a xlink:title=" ">
<path fill="none" stroke="#63b8ff" d="M3046.77,-118.52C2683.25,-118.47 791.62,-116.18 212.5,-74 209.66,-73.79 206.76,-73.55 203.83,-73.27"/>
<polygon fill="#63b8ff" stroke="#63b8ff" points="3046.83,-122.02 3056.83,-118.52 3046.83,-115.02 3046.83,-122.02"/>
</a>
</g>
</g>
<!-- Node4 -->
<g id="Node000004" class="node">
<title>Node4</title>
<g id="a_Node000004"><a xlink:href="../../d5/d00/bibletimeapp_8h.html" target="_top" xlink:title=" ">
<polygon fill="white" stroke="#666666" points="311.5,-74 221.5,-74 221.5,-55 311.5,-55 311.5,-74"/>
<text text-anchor="middle" x="266.5" y="-62" font-family="Helvetica,sans-Serif" font-size="10.00">bibletimeapp.h</text>
</a>
</g>
</g>
<!-- Node1&#45;&gt;Node4 -->
<g id="edge3_Node000001_Node000004" class="edge">
<title>Node1&#45;&gt;Node4</title>
<g id="a_edge3_Node000001_Node000004"><a xlink:title=" ">
<path fill="none" stroke="#63b8ff" d="M3046.89,-118.58C2692.05,-118.89 880.55,-118.24 325.5,-74 320.96,-73.64 316.24,-73.15 311.53,-72.59"/>
<polygon fill="#63b8ff" stroke="#63b8ff" points="3046.96,-122.08 3056.96,-118.57 3046.96,-115.08 3046.96,-122.08"/>
</a>
</g>
</g>
<!-- Node7 -->
<g id="Node000007" class="node">
<title>Node7</title>
<g id="a_Node000007"><a xlink:href="../../df/d0a/main_8cpp.html" target="_top" xlink:title=" ">
<polygon fill="white" stroke="#666666" points="405.5,-19 343.5,-19 343.5,0 405.5,0 405.5,-19"/>
<text text-anchor="middle" x="374.5" y="-7" font-family="Helvetica,sans-Serif" font-size="10.00">main.cpp</text>
</a>
</g>
</g>
<!-- Node1&#45;&gt;Node7 -->
<g id="edge48_Node000001_Node000007" class="edge">
<title>Node1&#45;&gt;Node7</title>
<g id="a_edge48_Node000001_Node000007"><a xlink:title=" ">
<path fill="none" stroke="#63b8ff" d="M3046.72,-118.69C2646.8,-119.76 407.28,-123.57 358.5,-74 343.83,-59.09 358.51,-32.81 367.93,-19.2"/>
<polygon fill="#63b8ff" stroke="#63b8ff" points="3046.93,-122.18 3056.92,-118.66 3046.91,-115.18 3046.93,-122.18"/>
</a>
</g>
</g>
<!-- Node8 -->
<g id="Node000008" class="node">
<title>Node8</title>
<g id="a_Node000008"><a xlink:href="../../d7/dd0/btbookmarksmodel_8cpp.html" target="_top" xlink:title=" ">
<polygon fill="white" stroke="#666666" points="499.5,-74 367.5,-74 367.5,-55 499.5,-55 499.5,-74"/>
<text text-anchor="middle" x="433.5" y="-62" font-family="Helvetica,sans-Serif" font-size="10.00">btbookmarksmodel.cpp</text>
</a>
</g>
</g>
<!-- Node1&#45;&gt;Node8 -->
<g id="edge8_Node000001_Node000008" class="edge">
<title>Node1&#45;&gt;Node8</title>
<g id="a_edge8_Node000001_Node000008"><a xlink:title=" ">
<path fill="none" stroke="#63b8ff" d="M3046.59,-118.25C2705.13,-116.73 1025.39,-107.64 508.5,-74 505.62,-73.81 502.69,-73.59 499.72,-73.35"/>
<polygon fill="#63b8ff" stroke="#63b8ff" points="3046.76,-121.75 3056.77,-118.3 3046.79,-114.75 3046.76,-121.75"/>
</a>
</g>
</g>
<!-- Node9 -->
<g id="Node000009" class="node">
<title>Node9</title>
<g id="a_Node000009"><a xlink:href="../../df/d88/btbookshelfdockwidget_8cpp.html" target="_top" xlink:title=" ">
<polygon fill="white" stroke="#666666" points="669,-74 518,-74 518,-55 669,-55 669,-74"/>
<text text-anchor="middle" x="593.5" y="-62" font-family="Helvetica,sans-Serif" font-size="10.00">btbookshelfdockwidget.cpp</text>
</a>
</g>
</g>
<!-- Node1&#45;&gt;Node9 -->
<g id="edge9_Node000001_Node000009" class="edge">
<title>Node1&#45;&gt;Node9</title>
<g id="a_edge9_Node000001_Node000009"><a xlink:title=" ">
<path fill="none" stroke="#63b8ff" d="M3046.67,-118.07C2718.8,-115.64 1159.02,-102.72 677.5,-74 674.72,-73.83 671.89,-73.65 669.03,-73.44"/>
<polygon fill="#63b8ff" stroke="#63b8ff" points="3046.89,-121.57 3056.92,-118.14 3046.94,-114.57 3046.89,-121.57"/>
</a>
</g>
</g>
<!-- Node10 -->
<g id="Node000010" class="node">
<title>Node10</title>
<g id="a_Node000010"><a xlink:href="../../dc/d04/btbookshelfinstallfinalpage_8cpp.html" target="_top" xlink:title=" ">
<polygon fill="white" stroke="#666666" points="856,-74 687,-74 687,-55 856,-55 856,-74"/>
<text text-anchor="middle" x="771.5" y="-62" font-family="Helvetica,sans-Serif" font-size="10.00">btbookshelfinstallfinalpage.cpp</text>
</a>
</g>
</g>
<!-- Node1&#45;&gt;Node10 -->
<g id="edge10_Node000001_Node000010" class="edge">
<title>Node1&#45;&gt;Node10</title>
<g id="a_edge10_Node000001_Node000010"><a xlink:title=" ">
<path fill="none" stroke="#63b8ff" d="M3046.87,-118.88C2785.59,-120.19 1729.88,-122.07 864.5,-74 861.75,-73.85 858.95,-73.68 856.13,-73.49"/>
<polygon fill="#63b8ff" stroke="#63b8ff" points="3046.93,-122.38 3056.91,-118.83 3046.9,-115.38 3046.93,-122.38"/>
</a>
</g>
</g>
<!-- Node11 -->
<g id="Node000011" class="node">
<title>Node11</title>
<g id="a_Node000011"><a xlink:href="../../d0/da5/btbookshelflanguagespage_8cpp.html" target="_top" xlink:title=" ">
<polygon fill="white" stroke="#666666" points="1041.5,-74 873.5,-74 873.5,-55 1041.5,-55 1041.5,-74"/>
<text text-anchor="middle" x="957.5" y="-62" font-family="Helvetica,sans-Serif" font-size="10.00">btbookshelflanguagespage.cpp</text>
</a>
</g>
</g>
<!-- Node1&#45;&gt;Node11 -->
<g id="edge11_Node000001_Node000011" class="edge">
<title>Node1&#45;&gt;Node11</title>
<g id="a_edge11_Node000001_Node000011"><a xlink:title=" ">
<path fill="none" stroke="#63b8ff" d="M3046.67,-118.75C2798.42,-119.44 1837.85,-118.89 1049.5,-74 1046.94,-73.85 1044.34,-73.69 1041.71,-73.52"/>
<polygon fill="#63b8ff" stroke="#63b8ff" points="3046.93,-122.25 3056.92,-118.72 3046.91,-115.25 3046.93,-122.25"/>
</a>
</g>
</g>
<!-- Node12 -->
<g id="Node000012" class="node">
<title>Node12</title>
<g id="a_Node000012"><a xlink:href="../../d0/da0/btbookshelfremovefinalpage_8cpp.html" target="_top" xlink:title=" ">
<polygon fill="white" stroke="#666666" points="1236,-74 1059,-74 1059,-55 1236,-55 1236,-74"/>
<text text-anchor="middle" x="1147.5" y="-62" font-family="Helvetica,sans-Serif" font-size="10.00">btbookshelfremovefinalpage.cpp</text>
</a>
</g>
</g>
<!-- Node1&#45;&gt;Node12 -->
<g id="edge12_Node000001_Node000012" class="edge">
<title>Node1&#45;&gt;Node12</title>
<g id="a_edge12_Node000001_Node000012"><a xlink:title=" ">
<path fill="none" stroke="#63b8ff" d="M3046.36,-118.45C2812.46,-117.96 1951.96,-113.41 1244.5,-74 1241.72,-73.84 1238.89,-73.67 1236.03,-73.49"/>
<polygon fill="#63b8ff" stroke="#63b8ff" points="3046.69,-121.95 3056.7,-118.47 3046.71,-114.95 3046.69,-121.95"/>
</a>
</g>
</g>
<!-- Node13 -->
<g id="Node000013" class="node">
<title>Node13</title>
<g id="a_Node000013"><a xlink:href="../../de/db2/btbookshelftaskpage_8cpp.html" target="_top" xlink:title=" ">
<polygon fill="white" stroke="#666666" points="1393,-74 1254,-74 1254,-55 1393,-55 1393,-74"/>
<text text-anchor="middle" x="1323.5" y="-62" font-family="Helvetica,sans-Serif" font-size="10.00">btbookshelftaskpage.cpp</text>
</a>
</g>
</g>
<!-- Node1&#45;&gt;Node13 -->
<g id="edge13_Node000001_Node000013" class="edge">
<title>Node1&#45;&gt;Node13</title>
<g id="a_edge13_Node000001_Node000013"><a xlink:title=" ">
<path fill="none" stroke="#63b8ff" d="M3046.59,-118.55C2825.95,-118.37 2047.77,-114.72 1407.5,-74 1402.82,-73.7 1398,-73.35 1393.14,-72.95"/>
<polygon fill="#63b8ff" stroke="#63b8ff" points="3046.67,-122.05 3056.68,-118.55 3046.68,-115.05 3046.67,-122.05"/>
</a>
</g>
</g>
<!-- Node14 -->
<g id="Node000014" class="node">
<title>Node14</title>
<g id="a_Node000014"><a xlink:href="../../d9/d03/btbookshelfworkspage_8cpp.html" target="_top" xlink:title=" ">
<polygon fill="white" stroke="#666666" points="1495,-19 1348,-19 1348,0 1495,0 1495,-19"/>
<text text-anchor="middle" x="1421.5" y="-7" font-family="Helvetica,sans-Serif" font-size="10.00">btbookshelfworkspage.cpp</text>
</a>
</g>
</g>
<!-- Node1&#45;&gt;Node14 -->
<g id="edge14_Node000001_Node000014" class="edge">
<title>Node1&#45;&gt;Node14</title>
<g id="a_edge14_Node000001_Node000014"><a xlink:title=" ">
<path fill="none" stroke="#63b8ff" d="M3046.77,-117.85C2750.87,-114.55 1473.02,-98.89 1440.5,-74 1423.5,-60.99 1421.18,-33.36 1421.17,-19.23"/>
<polygon fill="#63b8ff" stroke="#63b8ff" points="3046.84,-121.35 3056.88,-117.96 3046.92,-114.35 3046.84,-121.35"/>
</a>
</g>
</g>
<!-- Node15 -->
<g id="Node000015" class="node">
<title>Node15</title>
<g id="a_Node000015"><a xlink:href="../../d6/d8d/btbookshelfworkspage_8h.html" target="_top" xlink:title=" ">
<polygon fill="white" stroke="#666666" points="1585.5,-74 1449.5,-74 1449.5,-55 1585.5,-55 1585.5,-74"/>
<text text-anchor="middle" x="1517.5" y="-62" font-family="Helvetica,sans-Serif" font-size="10.00">btbookshelfworkspage.h</text>
</a>
</g>
</g>
<!-- Node1&#45;&gt;Node15 -->
<g id="edge15_Node000001_Node000015" class="edge">
<title>Node1&#45;&gt;Node15</title>
<g id="a_edge15_Node000001_Node000015"><a xlink:title=" ">
<path fill="none" stroke="#63b8ff" d="M3046.56,-118.47C2841.5,-117.98 2157.83,-113.31 1594.5,-74 1591.68,-73.8 1588.81,-73.58 1585.91,-73.34"/>
<polygon fill="#63b8ff" stroke="#63b8ff" points="3046.81,-121.97 3056.82,-118.49 3046.82,-114.97 3046.81,-121.97"/>
</a>
</g>
</g>
<!-- Node17 -->
<g id="Node000017" class="node">
<title>Node17</title>
<g id="a_Node000017"><a xlink:href="../../de/d4e/btconfig_8cpp.html" target="_top" xlink:title=" ">
<polygon fill="white" stroke="#666666" points="1679.5,-74 1603.5,-74 1603.5,-55 1679.5,-55 1679.5,-74"/>
<text text-anchor="middle" x="1641.5" y="-62" font-family="Helvetica,sans-Serif" font-size="10.00">btconfig.cpp</text>
</a>
</g>
</g>
<!-- Node1&#45;&gt;Node17 -->
<g id="edge18_Node000001_Node000017" class="edge">
<title>Node1&#45;&gt;Node17</title>
<g id="a_edge18_Node000001_Node000017"><a xlink:title=" ">
<path fill="none" stroke="#63b8ff" d="M3046.79,-117.76C2811.41,-114.71 1958.81,-101.92 1689.5,-74 1686.3,-73.67 1682.99,-73.25 1679.68,-72.77"/>
<polygon fill="#63b8ff" stroke="#63b8ff" points="3046.83,-121.26 3056.87,-117.89 3046.92,-114.26 3046.83,-121.26"/>
</a>
</g>
</g>
<!-- Node18 -->
<g id="Node000018" class="node">
<title>Node18</title>
<g id="a_Node000018"><a xlink:href="../../d5/d72/btfontsettings_8cpp.html" target="_top" xlink:title=" ">
<polygon fill="white" stroke="#666666" points="1803,-74 1698,-74 1698,-55 1803,-55 1803,-74"/>
<text text-anchor="middle" x="1750.5" y="-62" font-family="Helvetica,sans-Serif" font-size="10.00">btfontsettings.cpp</text>
</a>
</g>
</g>
<!-- Node1&#45;&gt;Node18 -->
<g id="edge19_Node000001_Node000018" class="edge">
<title>Node1&#45;&gt;Node18</title>
<g id="a_edge19_Node000001_Node000018"><a xlink:title=" ">
<path fill="none" stroke="#63b8ff" d="M3046.69,-118.61C2861.23,-118.47 2286.56,-114.54 1812.5,-74 1809.47,-73.74 1806.36,-73.44 1803.22,-73.1"/>
<polygon fill="#63b8ff" stroke="#63b8ff" points="3046.79,-122.11 3056.79,-118.61 3046.79,-115.11 3046.79,-122.11"/>
</a>
</g>
</g>
<!-- Node19 -->
<g id="Node000019" class="node">
<title>Node19</title>
<g id="a_Node000019"><a xlink:href="../../d4/d57/btindexdialog_8cpp.html" target="_top" xlink:title=" ">
<polygon fill="white" stroke="#666666" points="1925.5,-74 1821.5,-74 1821.5,-55 1925.5,-55 1925.5,-74"/>
<text text-anchor="middle" x="1873.5" y="-62" font-family="Helvetica,sans-Serif" font-size="10.00">btindexdialog.cpp</text>
</a>
</g>
</g>
<!-- Node1&#45;&gt;Node19 -->
<g id="edge20_Node000001_Node000019" class="edge">
<title>Node1&#45;&gt;Node19</title>
<g id="a_edge20_Node000001_Node000019"><a xlink:title=" ">
<path fill="none" stroke="#63b8ff" d="M3046.56,-118.35C2872.62,-117.44 2358.98,-111.53 1934.5,-74 1931.62,-73.75 1928.68,-73.45 1925.7,-73.13"/>
<polygon fill="#63b8ff" stroke="#63b8ff" points="3046.78,-121.85 3056.8,-118.39 3046.81,-114.85 3046.78,-121.85"/>
</a>
</g>
</g>
<!-- Node20 -->
<g id="Node000020" class="node">
<title>Node20</title>
<g id="a_Node000020"><a xlink:href="../../da/d1a/btinforendering_8cpp.html" target="_top" xlink:title=" ">
<polygon fill="white" stroke="#666666" points="2055.5,-74 1943.5,-74 1943.5,-55 2055.5,-55 2055.5,-74"/>
<text text-anchor="middle" x="1999.5" y="-62" font-family="Helvetica,sans-Serif" font-size="10.00">btinforendering.cpp</text>
</a>
</g>
</g>
<!-- Node1&#45;&gt;Node20 -->
<g id="edge21_Node000001_Node000020" class="edge">
<title>Node1&#45;&gt;Node20</title>
<g id="a_edge21_Node000001_Node000020"><a xlink:title=" ">
<path fill="none" stroke="#63b8ff" d="M3046.83,-117.72C2886.36,-115.26 2437.54,-105.84 2065.5,-74 2062.28,-73.72 2058.97,-73.41 2055.63,-73.06"/>
<polygon fill="#63b8ff" stroke="#63b8ff" points="3046.93,-121.22 3056.98,-117.87 3047.03,-114.22 3046.93,-121.22"/>
</a>
</g>
</g>
<!-- Node21 -->
<g id="Node000021" class="node">
<title>Node21</title>
<g id="a_Node000021"><a xlink:href="../../db/dd7/btinstallbackend_8cpp.html" target="_top" xlink:title=" ">
<polygon fill="white" stroke="#666666" points="2191,-74 2074,-74 2074,-55 2191,-55 2191,-74"/>
<text text-anchor="middle" x="2132.5" y="-62" font-family="Helvetica,sans-Serif" font-size="10.00">btinstallbackend.cpp</text>
</a>
</g>
</g>
<!-- Node1&#45;&gt;Node21 -->
<g id="edge22_Node000001_Node000021" class="edge">
<title>Node1&#45;&gt;Node21</title>
<g id="a_edge22_Node000001_Node000021"><a xlink:title=" ">
<path fill="none" stroke="#63b8ff" d="M3046.66,-117.1C2900.55,-113.38 2518.38,-101.63 2200.5,-74 2197.42,-73.73 2194.26,-73.43 2191.08,-73.11"/>
<polygon fill="#63b8ff" stroke="#63b8ff" points="3046.68,-120.6 3056.77,-117.35 3046.86,-113.6 3046.68,-120.6"/>
</a>
</g>
</g>
<!-- Node22 -->
<g id="Node000022" class="node">
<title>Node22</title>
<g id="a_Node000022"><a xlink:href="../../dd/dba/btinstallpagemodel_8cpp.html" target="_top" xlink:title=" ">
<polygon fill="white" stroke="#666666" points="2340,-74 2209,-74 2209,-55 2340,-55 2340,-74"/>
<text text-anchor="middle" x="2274.5" y="-62" font-family="Helvetica,sans-Serif" font-size="10.00">btinstallpagemodel.cpp</text>
</a>
</g>
</g>
<!-- Node1&#45;&gt;Node22 -->
<g id="edge23_Node000001_Node000022" class="edge">
<title>Node1&#45;&gt;Node22</title>
<g id="a_edge23_Node000001_Node000022"><a xlink:title=" ">
<path fill="none" stroke="#63b8ff" d="M3046.82,-116.06C2918.14,-110.63 2608.45,-96.26 2349.5,-74 2346.5,-73.74 2343.43,-73.46 2340.33,-73.17"/>
<polygon fill="#63b8ff" stroke="#63b8ff" points="3046.73,-119.56 3056.87,-116.48 3047.02,-112.56 3046.73,-119.56"/>
</a>
</g>
</g>
<!-- Node23 -->
<g id="Node000023" class="node">
<title>Node23</title>
<g id="a_Node000023"><a xlink:href="../../d5/daf/btinstallthread_8cpp.html" target="_top" xlink:title=" ">
<polygon fill="white" stroke="#666666" points="2466.5,-74 2358.5,-74 2358.5,-55 2466.5,-55 2466.5,-74"/>
<text text-anchor="middle" x="2412.5" y="-62" font-family="Helvetica,sans-Serif" font-size="10.00">btinstallthread.cpp</text>
</a>
</g>
</g>
<!-- Node1&#45;&gt;Node23 -->
<g id="edge24_Node000001_Node000023" class="edge">
<title>Node1&#45;&gt;Node23</title>
<g id="a_edge24_Node000001_Node000023"><a xlink:title=" ">
<path fill="none" stroke="#63b8ff" d="M3046.44,-115.5C2933.53,-109.66 2684.53,-95.44 2475.5,-74 2472.65,-73.71 2469.72,-73.39 2466.77,-73.05"/>
<polygon fill="#63b8ff" stroke="#63b8ff" points="3046.45,-119 3056.61,-116.02 3046.81,-112.01 3046.45,-119"/>
</a>
</g>
</g>
<!-- Node24 -->
<g id="Node000024" class="node">
<title>Node24</title>
<g id="a_Node000024"><a xlink:href="../../de/db2/btmodelviewreaddisplay_8cpp.html" target="_top" xlink:title=" ">
<polygon fill="white" stroke="#666666" points="2640.5,-74 2484.5,-74 2484.5,-55 2640.5,-55 2640.5,-74"/>
<text text-anchor="middle" x="2562.5" y="-62" font-family="Helvetica,sans-Serif" font-size="10.00">btmodelviewreaddisplay.cpp</text>
</a>
</g>
</g>
<!-- Node1&#45;&gt;Node24 -->
<g id="edge25_Node000001_Node000024" class="edge">
<title>Node1&#45;&gt;Node24</title>
<g id="a_edge25_Node000001_Node000024"><a xlink:title=" ">
<path fill="none" stroke="#63b8ff" d="M3046.54,-112.57C2947.15,-102.91 2750.31,-83.76 2640.74,-73.11"/>
<polygon fill="#63b8ff" stroke="#63b8ff" points="3046.43,-116.08 3056.72,-113.56 3047.1,-109.11 3046.43,-116.08"/>
</a>
</g>
</g>
<!-- Node25 -->
<g id="Node000025" class="node">
<title>Node25</title>
<g id="a_Node000025"><a xlink:href="../../dd/ddc/btmodulechoosermenu_8cpp.html" target="_top" xlink:title=" ">
<polygon fill="white" stroke="#666666" points="2808,-74 2659,-74 2659,-55 2808,-55 2808,-74"/>
<text text-anchor="middle" x="2733.5" y="-62" font-family="Helvetica,sans-Serif" font-size="10.00">btmodulechoosermenu.cpp</text>
</a>
</g>
</g>
<!-- Node1&#45;&gt;Node25 -->
<g id="edge26_Node000001_Node000025" class="edge">
<title>Node1&#45;&gt;Node25</title>
<g id="a_edge26_Node000001_Node000025"><a xlink:title=" ">
<path fill="none" stroke="#63b8ff" d="M3046.7,-109.88C2976.86,-99.99 2862.99,-83.85 2793.49,-74"/>
<polygon fill="#63b8ff" stroke="#63b8ff" points="3046.28,-113.36 3056.67,-111.3 3047.26,-106.43 3046.28,-113.36"/>
</a>
</g>
</g>
<!-- Node26 -->
<g id="Node000026" class="node">
<title>Node26</title>
<g id="a_Node000026"><a xlink:href="../../de/d93/btmoduletextmodel_8cpp.html" target="_top" xlink:title=" ">
<polygon fill="white" stroke="#666666" points="2960.5,-74 2826.5,-74 2826.5,-55 2960.5,-55 2960.5,-74"/>
<text text-anchor="middle" x="2893.5" y="-62" font-family="Helvetica,sans-Serif" font-size="10.00">btmoduletextmodel.cpp</text>
</a>
</g>
</g>
<!-- Node1&#45;&gt;Node26 -->
<g id="edge27_Node000001_Node000026" class="edge">
<title>Node1&#45;&gt;Node26</title>
<g id="a_edge27_Node000001_Node000026"><a xlink:title=" ">
<path fill="none" stroke="#63b8ff" d="M3063.34,-107.56C3023.26,-97.64 2964.96,-83.2 2928.15,-74.08"/>
<polygon fill="#63b8ff" stroke="#63b8ff" points="3062.57,-110.98 3073.12,-109.98 3064.25,-104.18 3062.57,-110.98"/>
</a>
</g>
</g>
<!-- Node27 -->
<g id="Node000027" class="node">
<title>Node27</title>
<g id="a_Node000027"><a xlink:href="../../d9/d62/btopenworkaction_8cpp.html" target="_top" xlink:title=" ">
<polygon fill="white" stroke="#666666" points="3102.5,-74 2978.5,-74 2978.5,-55 3102.5,-55 3102.5,-74"/>
<text text-anchor="middle" x="3040.5" y="-62" font-family="Helvetica,sans-Serif" font-size="10.00">btopenworkaction.cpp</text>
</a>
</g>
</g>
<!-- Node1&#45;&gt;Node27 -->
<g id="edge28_Node000001_Node000027" class="edge">
<title>Node1&#45;&gt;Node27</title>
<g id="a_edge28_Node000001_Node000027"><a xlink:title=" ">
<path fill="none" stroke="#63b8ff" d="M3088.67,-103.6C3076.66,-94.11 3061.53,-82.13 3051.46,-74.17"/>
<polygon fill="#63b8ff" stroke="#63b8ff" points="3086.72,-106.53 3096.74,-109.98 3091.06,-101.04 3086.72,-106.53"/>
</a>
</g>
</g>
<!-- Node28 -->
<g id="Node000028" class="node">
<title>Node28</title>
<g id="a_Node000028"><a xlink:href="../../de/d6e/btqmlinterface_8cpp.html" target="_top" xlink:title=" ">
<polygon fill="white" stroke="#666666" points="3230,-74 3121,-74 3121,-55 3230,-55 3230,-74"/>
<text text-anchor="middle" x="3175.5" y="-62" font-family="Helvetica,sans-Serif" font-size="10.00">btqmlinterface.cpp</text>
</a>
</g>
</g>
<!-- Node1&#45;&gt;Node28 -->
<g id="edge29_Node000001_Node000028" class="edge">
<title>Node1&#45;&gt;Node28</title>
<g id="a_edge29_Node000001_Node000028"><a xlink:title=" ">
<path fill="none" stroke="#63b8ff" d="M3126.62,-103.6C3138.8,-94.11 3154.16,-82.13 3164.38,-74.17"/>
<polygon fill="#63b8ff" stroke="#63b8ff" points="3124.16,-101.08 3118.43,-109.98 3128.46,-106.6 3124.16,-101.08"/>
</a>
</g>
</g>
<!-- Node29 -->
<g id="Node000029" class="node">
<title>Node29</title>
<g id="a_Node000029"><a xlink:href="../../d9/d0c/btquickwidget_8cpp.html" target="_top" xlink:title=" ">
<polygon fill="white" stroke="#666666" points="3354.5,-74 3248.5,-74 3248.5,-55 3354.5,-55 3354.5,-74"/>
<text text-anchor="middle" x="3301.5" y="-62" font-family="Helvetica,sans-Serif" font-size="10.00">btquickwidget.cpp</text>
</a>
</g>
</g>
<!-- Node1&#45;&gt;Node29 -->
<g id="edge30_Node000001_Node000029" class="edge">
<title>Node1&#45;&gt;Node29</title>
<g id="a_edge30_Node000001_Node000029"><a xlink:title=" ">
<path fill="none" stroke="#63b8ff" d="M3148.46,-107.31C3184.76,-97.39 3237,-83.12 3270.09,-74.08"/>
<polygon fill="#63b8ff" stroke="#63b8ff" points="3147.39,-103.97 3138.67,-109.98 3149.24,-110.73 3147.39,-103.97"/>
</a>
</g>
</g>
<!-- Node30 -->
<g id="Node000030" class="node">
<title>Node30</title>
<g id="a_Node000030"><a xlink:href="../../dc/dab/btsearchmodulechooserdialog_8cpp.html" target="_top" xlink:title=" ">
<polygon fill="white" stroke="#666666" points="3556.5,-74 3372.5,-74 3372.5,-55 3556.5,-55 3556.5,-74"/>
<text text-anchor="middle" x="3464.5" y="-62" font-family="Helvetica,sans-Serif" font-size="10.00">btsearchmodulechooserdialog.cpp</text>
</a>
</g>
</g>
<!-- Node1&#45;&gt;Node30 -->
<g id="edge31_Node000001_Node000030" class="edge">
<title>Node1&#45;&gt;Node30</title>
<g id="a_edge31_Node000001_Node000030"><a xlink:title=" ">
<path fill="none" stroke="#63b8ff" d="M3168.24,-109.48C3235.06,-99.56 3341.65,-83.74 3407.11,-74.02"/>
<polygon fill="#63b8ff" stroke="#63b8ff" points="3167.65,-106.03 3158.27,-110.96 3168.68,-112.96 3167.65,-106.03"/>
</a>
</g>
</g>
<!-- Node31 -->
<g id="Node000031" class="node">
<title>Node31</title>
<g id="a_Node000031"><a xlink:href="../../d4/d4d/btsearchoptionsarea_8cpp.html" target="_top" xlink:title=" ">
<polygon fill="white" stroke="#666666" points="3712,-74 3575,-74 3575,-55 3712,-55 3712,-74"/>
<text text-anchor="middle" x="3643.5" y="-62" font-family="Helvetica,sans-Serif" font-size="10.00">btsearchoptionsarea.cpp</text>
</a>
</g>
</g>
<!-- Node1&#45;&gt;Node31 -->
<g id="edge32_Node000001_Node000031" class="edge">
<title>Node1&#45;&gt;Node31</title>
<g id="a_edge32_Node000001_Node000031"><a xlink:title=" ">
<path fill="none" stroke="#63b8ff" d="M3168.04,-112.84C3255.72,-104.6 3423.13,-88.67 3565.5,-74 3568.48,-73.69 3571.53,-73.38 3574.6,-73.05"/>
<polygon fill="#63b8ff" stroke="#63b8ff" points="3167.64,-109.37 3158.01,-113.79 3168.29,-116.34 3167.64,-109.37"/>
</a>
</g>
</g>
<!-- Node32 -->
<g id="Node000032" class="node">
<title>Node32</title>
<g id="a_Node000032"><a xlink:href="../../d6/dfe/btstandardworkstab_8cpp.html" target="_top" xlink:title=" ">
<polygon fill="white" stroke="#666666" points="3864.5,-74 3730.5,-74 3730.5,-55 3864.5,-55 3864.5,-74"/>
<text text-anchor="middle" x="3797.5" y="-62" font-family="Helvetica,sans-Serif" font-size="10.00">btstandardworkstab.cpp</text>
</a>
</g>
</g>
<!-- Node1&#45;&gt;Node32 -->
<g id="edge33_Node000001_Node000032" class="edge">
<title>Node1&#45;&gt;Node32</title>
<g id="a_edge33_Node000001_Node000032"><a xlink:title=" ">
<path fill="none" stroke="#63b8ff" d="M3168.36,-114.88C3278.72,-108.14 3519.17,-92.64 3721.5,-74 3724.41,-73.73 3727.38,-73.45 3730.38,-73.15"/>
<polygon fill="#63b8ff" stroke="#63b8ff" points="3167.87,-111.4 3158.1,-115.5 3168.29,-118.39 3167.87,-111.4"/>
</a>
</g>
</g>
<!-- Node33 -->
<g id="Node000033" class="node">
<title>Node33</title>
<g id="a_Node000033"><a xlink:href="../../d4/d3a/bttextbrowser_8cpp.html" target="_top" xlink:title=" ">
<polygon fill="white" stroke="#666666" points="3986.5,-74 3882.5,-74 3882.5,-55 3986.5,-55 3986.5,-74"/>
<text text-anchor="middle" x="3934.5" y="-62" font-family="Helvetica,sans-Serif" font-size="10.00">bttextbrowser.cpp</text>
</a>
</g>
</g>
<!-- Node1&#45;&gt;Node33 -->
<g id="edge34_Node000001_Node000033" class="edge">
<title>Node1&#45;&gt;Node33</title>
<g id="a_edge34_Node000001_Node000033"><a xlink:title=" ">
<path fill="none" stroke="#63b8ff" d="M3168.39,-116.63C3298.23,-112.27 3611.81,-99.79 3873.5,-74 3876.37,-73.72 3879.32,-73.4 3882.29,-73.06"/>
<polygon fill="#63b8ff" stroke="#63b8ff" points="3168.13,-113.13 3158.25,-116.96 3168.36,-120.13 3168.13,-113.13"/>
</a>
</g>
</g>
<!-- Node34 -->
<g id="Node000034" class="node">
<title>Node34</title>
<g id="a_Node000034"><a xlink:href="../../de/da4/cbiblereadwindow_8cpp.html" target="_top" xlink:title=" ">
<polygon fill="white" stroke="#666666" points="4130,-74 4005,-74 4005,-55 4130,-55 4130,-74"/>
<text text-anchor="middle" x="4067.5" y="-62" font-family="Helvetica,sans-Serif" font-size="10.00">cbiblereadwindow.cpp</text>
</a>
</g>
</g>
<!-- Node1&#45;&gt;Node34 -->
<g id="edge35_Node000001_Node000034" class="edge">
<title>Node1&#45;&gt;Node34</title>
<g id="a_edge35_Node000001_Node000034"><a xlink:title=" ">
<path fill="none" stroke="#63b8ff" d="M3168.53,-116.86C3312.63,-112.68 3685.24,-100.06 3995.5,-74 3998.51,-73.75 4001.59,-73.47 4004.7,-73.17"/>
<polygon fill="#63b8ff" stroke="#63b8ff" points="3168.04,-113.37 3158.14,-117.16 3168.24,-120.37 3168.04,-113.37"/>
</a>
</g>
</g>
<!-- Node35 -->
<g id="Node000035" class="node">
<title>Node35</title>
<g id="a_Node000035"><a xlink:href="../../d9/de6/cbookmarkindex_8cpp.html" target="_top" xlink:title=" ">
<polygon fill="white" stroke="#666666" points="4267,-74 4148,-74 4148,-55 4267,-55 4267,-74"/>
<text text-anchor="middle" x="4207.5" y="-62" font-family="Helvetica,sans-Serif" font-size="10.00">cbookmarkindex.cpp</text>
</a>
</g>
</g>
<!-- Node1&#45;&gt;Node35 -->
<g id="edge36_Node000001_Node000035" class="edge">
<title>Node1&#45;&gt;Node35</title>
<g id="a_edge36_Node000001_Node000035"><a xlink:title=" ">
<path fill="none" stroke="#63b8ff" d="M3168.15,-117.61C3327.55,-114.88 3771.41,-104.89 4139.5,-74 4142.23,-73.77 4145.01,-73.51 4147.82,-73.24"/>
<polygon fill="#63b8ff" stroke="#63b8ff" points="3168,-114.11 3158.06,-117.77 3168.12,-121.11 3168,-114.11"/>
</a>
</g>
</g>
<!-- Node36 -->
<g id="Node000036" class="node">
<title>Node36</title>
<g id="a_Node000036"><a xlink:href="../../d0/d6f/ccommentaryreadwindow_8cpp.html" target="_top" xlink:title=" ">
<polygon fill="white" stroke="#666666" points="4448,-74 4285,-74 4285,-55 4448,-55 4448,-74"/>
<text text-anchor="middle" x="4366.5" y="-62" font-family="Helvetica,sans-Serif" font-size="10.00">ccommentaryreadwindow.cpp</text>
</a>
</g>
</g>
<!-- Node1&#45;&gt;Node36 -->
<g id="edge37_Node000001_Node000036" class="edge">
<title>Node1&#45;&gt;Node36</title>
<g id="a_edge37_Node000001_Node000036"><a xlink:title=" ">
<path fill="none" stroke="#63b8ff" d="M3168.46,-117.39C3341.91,-113.95 3852.99,-102.04 4276.5,-74 4279.16,-73.82 4281.87,-73.63 4284.6,-73.43"/>
<polygon fill="#63b8ff" stroke="#63b8ff" points="3168.19,-113.89 3158.26,-117.59 3168.32,-120.89 3168.19,-113.89"/>
</a>
</g>
</g>
<!-- Node37 -->
<g id="Node000037" class="node">
<title>Node37</title>
<g id="a_Node000037"><a xlink:href="../../d4/d47/cdisplaytemplatemgr_8cpp.html" target="_top" xlink:title=" ">
<polygon fill="white" stroke="#666666" points="4606.5,-74 4466.5,-74 4466.5,-55 4606.5,-55 4606.5,-74"/>
<text text-anchor="middle" x="4536.5" y="-62" font-family="Helvetica,sans-Serif" font-size="10.00">cdisplaytemplatemgr.cpp</text>
</a>
</g>
</g>
<!-- Node1&#45;&gt;Node37 -->
<g id="edge38_Node000001_Node000037" class="edge">
<title>Node1&#45;&gt;Node37</title>
<g id="a_edge38_Node000001_Node000037"><a xlink:title=" ">
<path fill="none" stroke="#63b8ff" d="M3168.22,-118.1C3358.57,-116.52 3960.49,-108.88 4457.5,-74 4460.39,-73.8 4463.34,-73.57 4466.31,-73.33"/>
<polygon fill="#63b8ff" stroke="#63b8ff" points="3168.11,-114.6 3158.14,-118.18 3168.17,-121.6 3168.11,-114.6"/>
</a>
</g>
</g>
<!-- Node38 -->
<g id="Node000038" class="node">
<title>Node38</title>
<g id="a_Node000038"><a xlink:href="../../d2/d26/cdisplaywindow_8cpp.html" target="_top" xlink:title=" ">
<polygon fill="white" stroke="#666666" points="4738.5,-74 4624.5,-74 4624.5,-55 4738.5,-55 4738.5,-74"/>
<text text-anchor="middle" x="4681.5" y="-62" font-family="Helvetica,sans-Serif" font-size="10.00">cdisplaywindow.cpp</text>
</a>
</g>
</g>
<!-- Node1&#45;&gt;Node38 -->
<g id="edge39_Node000001_Node000038" class="edge">
<title>Node1&#45;&gt;Node38</title>
<g id="a_edge39_Node000001_Node000038"><a xlink:title=" ">
<path fill="none" stroke="#63b8ff" d="M3168.27,-118.85C3372.74,-119.58 4054.41,-118.3 4615.5,-74 4618.38,-73.77 4621.33,-73.51 4624.3,-73.22"/>
<polygon fill="#63b8ff" stroke="#63b8ff" points="3168.05,-115.35 3158.04,-118.81 3168.03,-122.35 3168.05,-115.35"/>
</a>
</g>
</g>
<!-- Node39 -->
<g id="Node000039" class="node">
<title>Node39</title>
<g id="a_Node000039"><a xlink:href="../../d7/d5d/cmoduleresultview_8cpp.html" target="_top" xlink:title=" ">
<polygon fill="white" stroke="#666666" points="4886,-74 4757,-74 4757,-55 4886,-55 4886,-74"/>
<text text-anchor="middle" x="4821.5" y="-62" font-family="Helvetica,sans-Serif" font-size="10.00">cmoduleresultview.cpp</text>
</a>
</g>
</g>
<!-- Node1&#45;&gt;Node39 -->
<g id="edge40_Node000001_Node000039" class="edge">
<title>Node1&#45;&gt;Node39</title>
<g id="a_edge40_Node000001_Node000039"><a xlink:title=" ">
<path fill="none" stroke="#63b8ff" d="M3168.42,-118.76C3384.19,-119.28 4132.17,-117.6 4747.5,-74 4750.6,-73.78 4753.76,-73.53 4756.96,-73.25"/>
<polygon fill="#63b8ff" stroke="#63b8ff" points="3168.26,-115.26 3158.25,-118.73 3168.24,-122.26 3168.26,-115.26"/>
</a>
</g>
</g>
<!-- Node40 -->
<g id="Node000040" class="node">
<title>Node40</title>
<g id="a_Node000040"><a xlink:href="../../d2/d9d/crangechooserdialog_8cpp.html" target="_top" xlink:title=" ">
<polygon fill="white" stroke="#666666" points="5042.5,-74 4904.5,-74 4904.5,-55 5042.5,-55 5042.5,-74"/>
<text text-anchor="middle" x="4973.5" y="-62" font-family="Helvetica,sans-Serif" font-size="10.00">crangechooserdialog.cpp</text>
</a>
</g>
</g>
<!-- Node1&#45;&gt;Node40 -->
<g id="edge41_Node000001_Node000040" class="edge">
<title>Node1&#45;&gt;Node40</title>
<g id="a_edge41_Node000001_Node000040"><a xlink:title=" ">
<path fill="none" stroke="#63b8ff" d="M3168.11,-118.83C3395.44,-119.67 4218.87,-119.21 4895.5,-74 4898.35,-73.81 4901.27,-73.59 4904.2,-73.36"/>
<polygon fill="#63b8ff" stroke="#63b8ff" points="3168.07,-115.33 3158.06,-118.79 3168.04,-122.33 3168.07,-115.33"/>
</a>
</g>
</g>
<!-- Node41 -->
<g id="Node000041" class="node">
<title>Node41</title>
<g id="a_Node000041"><a xlink:href="../../d9/d7b/cswordbackend_8cpp.html" target="_top" xlink:title=" ">
<polygon fill="white" stroke="#666666" points="5172.5,-74 5060.5,-74 5060.5,-55 5172.5,-55 5172.5,-74"/>
<text text-anchor="middle" x="5116.5" y="-62" font-family="Helvetica,sans-Serif" font-size="10.00">cswordbackend.cpp</text>
</a>
</g>
</g>
<!-- Node1&#45;&gt;Node41 -->
<g id="edge42_Node000001_Node000041" class="edge">
<title>Node1&#45;&gt;Node41</title>
<g id="a_edge42_Node000001_Node000041"><a xlink:title=" ">
<path fill="none" stroke="#63b8ff" d="M3168.62,-117.98C3455.75,-115.42 4672.46,-103.04 5051.5,-74 5054.34,-73.78 5057.24,-73.53 5060.17,-73.24"/>
<polygon fill="#63b8ff" stroke="#63b8ff" points="3168.38,-114.49 3158.41,-118.07 3168.44,-121.49 3168.38,-114.49"/>
</a>
</g>
</g>
<!-- Node42 -->
<g id="Node000042" class="node">
<title>Node42</title>
<g id="a_Node000042"><a xlink:href="../../d4/d94/cswordbiblemoduleinfo_8cpp.html" target="_top" xlink:title=" ">
<polygon fill="white" stroke="#666666" points="5342,-74 5191,-74 5191,-55 5342,-55 5342,-74"/>
<text text-anchor="middle" x="5266.5" y="-62" font-family="Helvetica,sans-Serif" font-size="10.00">cswordbiblemoduleinfo.cpp</text>
</a>
</g>
</g>
<!-- Node1&#45;&gt;Node42 -->
<g id="edge43_Node000001_Node000042" class="edge">
<title>Node1&#45;&gt;Node42</title>
<g id="a_edge43_Node000001_Node000042"><a xlink:title=" ">
<path fill="none" stroke="#63b8ff" d="M3168.4,-118.93C3417.95,-120.33 4386.75,-122.19 5181.5,-74 5184.61,-73.81 5187.78,-73.6 5190.98,-73.36"/>
<polygon fill="#63b8ff" stroke="#63b8ff" points="3168.11,-115.43 3158.09,-118.87 3168.07,-122.43 3168.11,-115.43"/>
</a>
</g>
</g>
<!-- Node43 -->
<g id="Node000043" class="node">
<title>Node43</title>
<g id="a_Node000043"><a xlink:href="../../d3/db9/cswordmoduleinfo_8cpp.html" target="_top" xlink:title=" ">
<polygon fill="white" stroke="#666666" points="5487,-74 5360,-74 5360,-55 5487,-55 5487,-74"/>
<text text-anchor="middle" x="5423.5" y="-62" font-family="Helvetica,sans-Serif" font-size="10.00">cswordmoduleinfo.cpp</text>
</a>
</g>
</g>
<!-- Node1&#45;&gt;Node43 -->
<g id="edge44_Node000001_Node000043" class="edge">
<title>Node1&#45;&gt;Node43</title>
<g id="a_edge44_Node000001_Node000043"><a xlink:title=" ">
<path fill="none" stroke="#63b8ff" d="M3168.64,-118.1C3481.91,-115.91 4909.47,-104.4 5351.5,-74 5354.26,-73.81 5357.08,-73.59 5359.93,-73.35"/>
<polygon fill="#63b8ff" stroke="#63b8ff" points="3168.38,-114.6 3158.4,-118.17 3168.43,-121.6 3168.38,-114.6"/>
</a>
</g>
</g>
<!-- Node44 -->
<g id="Node000044" class="node">
<title>Node44</title>
<g id="a_Node000044"><a xlink:href="../../dd/d03/cswordmodulesearch_8cpp.html" target="_top" xlink:title=" ">
<polygon fill="white" stroke="#666666" points="5645.5,-74 5505.5,-74 5505.5,-55 5645.5,-55 5645.5,-74"/>
<text text-anchor="middle" x="5575.5" y="-62" font-family="Helvetica,sans-Serif" font-size="10.00">cswordmodulesearch.cpp</text>
</a>
</g>
</g>
<!-- Node1&#45;&gt;Node44 -->
<g id="edge45_Node000001_Node000044" class="edge">
<title>Node1&#45;&gt;Node44</title>
<g id="a_edge45_Node000001_Node000044"><a xlink:title=" ">
<path fill="none" stroke="#63b8ff" d="M3168.35,-118.1C3492.98,-115.84 5023.71,-103.78 5496.5,-74 5499.39,-73.82 5502.34,-73.61 5505.32,-73.38"/>
<polygon fill="#63b8ff" stroke="#63b8ff" points="3168.18,-114.6 3158.21,-118.17 3168.23,-121.6 3168.18,-114.6"/>
</a>
</g>
</g>
<!-- Node45 -->
<g id="Node000045" class="node">
<title>Node45</title>
<g id="a_Node000045"><a xlink:href="../../db/d72/ctextrendering_8cpp.html" target="_top" xlink:title=" ">
<polygon fill="white" stroke="#666666" points="5771.5,-74 5663.5,-74 5663.5,-55 5771.5,-55 5771.5,-74"/>
<text text-anchor="middle" x="5717.5" y="-62" font-family="Helvetica,sans-Serif" font-size="10.00">ctextrendering.cpp</text>
</a>
</g>
</g>
<!-- Node1&#45;&gt;Node45 -->
<g id="edge46_Node000001_Node000045" class="edge">
<title>Node1&#45;&gt;Node45</title>
<g id="a_edge46_Node000001_Node000045"><a xlink:title=" ">
<path fill="none" stroke="#63b8ff" d="M3168.29,-118.4C3505.45,-117.71 5148.88,-112.39 5654.5,-74 5657.36,-73.78 5660.29,-73.52 5663.25,-73.23"/>
<polygon fill="#63b8ff" stroke="#63b8ff" points="3168.22,-114.9 3158.23,-118.42 3168.24,-121.9 3168.22,-114.9"/>
</a>
</g>
</g>
<!-- Node46 -->
<g id="Node000046" class="node">
<title>Node46</title>
<g id="a_Node000046"><a xlink:href="../../d4/d4d/gbftohtml_8cpp.html" target="_top" xlink:title=" ">
<polygon fill="white" stroke="#666666" points="5873.5,-74 5789.5,-74 5789.5,-55 5873.5,-55 5873.5,-74"/>
<text text-anchor="middle" x="5831.5" y="-62" font-family="Helvetica,sans-Serif" font-size="10.00">gbftohtml.cpp</text>
</a>
</g>
</g>
<!-- Node1&#45;&gt;Node46 -->
<g id="edge47_Node000001_Node000046" class="edge">
<title>Node1&#45;&gt;Node46</title>
<g id="a_edge47_Node000001_Node000046"><a xlink:title=" ">
<path fill="none" stroke="#63b8ff" d="M3168.22,-118.72C3515.11,-119.76 5248.99,-122.45 5780.5,-74 5783.36,-73.74 5786.3,-73.41 5789.26,-73.04"/>
<polygon fill="#63b8ff" stroke="#63b8ff" points="3168.14,-115.22 3158.13,-118.68 3168.12,-122.22 3168.14,-115.22"/>
</a>
</g>
</g>
<!-- Node47 -->
<g id="Node000047" class="node">
<title>Node47</title>
<g id="a_Node000047"><a xlink:href="../../db/d7a/osistohtml_8cpp.html" target="_top" xlink:title=" ">
<polygon fill="white" stroke="#666666" points="5980,-74 5891,-74 5891,-55 5980,-55 5980,-74"/>
<text text-anchor="middle" x="5935.5" y="-62" font-family="Helvetica,sans-Serif" font-size="10.00">osistohtml.cpp</text>
</a>
</g>
</g>
<!-- Node1&#45;&gt;Node47 -->
<g id="edge49_Node000001_Node000047" class="edge">
<title>Node1&#45;&gt;Node47</title>
<g id="a_edge49_Node000001_Node000047"><a xlink:title=" ">
<path fill="none" stroke="#63b8ff" d="M3168.26,-118.71C3522.95,-119.75 5329.37,-122.54 5882.5,-74 5885.19,-73.76 5887.95,-73.47 5890.74,-73.14"/>
<polygon fill="#63b8ff" stroke="#63b8ff" points="3168.2,-115.21 3158.19,-118.68 3168.18,-122.21 3168.2,-115.21"/>
</a>
</g>
</g>
<!-- Node48 -->
<g id="Node000048" class="node">
<title>Node48</title>
<g id="a_Node000048"><a xlink:href="../../d7/dfe/referencemanager_8cpp.html" target="_top" xlink:title=" ">
<polygon fill="white" stroke="#666666" points="6124.5,-74 5998.5,-74 5998.5,-55 6124.5,-55 6124.5,-74"/>
<text text-anchor="middle" x="6061.5" y="-62" font-family="Helvetica,sans-Serif" font-size="10.00">referencemanager.cpp</text>
</a>
</g>
</g>
<!-- Node1&#45;&gt;Node48 -->
<g id="edge50_Node000001_Node000048" class="edge">
<title>Node1&#45;&gt;Node48</title>
<g id="a_edge50_Node000001_Node000048"><a xlink:title=" ">
<path fill="none" stroke="#63b8ff" d="M3168.24,-118.41C3530.8,-117.73 5412.89,-112.39 5989.5,-74 5992.39,-73.81 5995.34,-73.58 5998.32,-73.33"/>
<polygon fill="#63b8ff" stroke="#63b8ff" points="3168.2,-114.91 3158.21,-118.43 3168.22,-121.91 3168.2,-114.91"/>
</a>
</g>
</g>
<!-- Node49 -->
<g id="Node000049" class="node">
<title>Node49</title>
<g id="a_Node000049"><a xlink:href="../../d5/de5/teitohtml_8cpp.html" target="_top" xlink:title=" ">
<polygon fill="white" stroke="#666666" points="6224.5,-74 6142.5,-74 6142.5,-55 6224.5,-55 6224.5,-74"/>
<text text-anchor="middle" x="6183.5" y="-62" font-family="Helvetica,sans-Serif" font-size="10.00">teitohtml.cpp</text>
</a>
</g>
</g>
<!-- Node1&#45;&gt;Node49 -->
<g id="edge51_Node000001_Node000049" class="edge">
<title>Node1&#45;&gt;Node49</title>
<g id="a_edge51_Node000001_Node000049"><a xlink:title=" ">
<path fill="none" stroke="#63b8ff" d="M3168.38,-118.17C3569.71,-115.9 5828.58,-101.99 6133.5,-74 6136.39,-73.73 6139.37,-73.4 6142.37,-73.01"/>
<polygon fill="#63b8ff" stroke="#63b8ff" points="3168.13,-114.67 3158.15,-118.23 3168.17,-121.67 3168.13,-114.67"/>
</a>
</g>
</g>
<!-- Node50 -->
<g id="Node000050" class="node">
<title>Node50</title>
<g id="a_Node000050"><a xlink:href="../../d9/de8/thmltohtml_8cpp.html" target="_top" xlink:title=" ">
<polygon fill="white" stroke="#666666" points="6334.5,-74 6242.5,-74 6242.5,-55 6334.5,-55 6334.5,-74"/>
<text text-anchor="middle" x="6288.5" y="-62" font-family="Helvetica,sans-Serif" font-size="10.00">thmltohtml.cpp</text>
</a>
</g>
</g>
<!-- Node1&#45;&gt;Node50 -->
<g id="edge52_Node000001_Node000050" class="edge">
<title>Node1&#45;&gt;Node50</title>
<g id="a_edge52_Node000001_Node000050"><a xlink:title=" ">
<path fill="none" stroke="#63b8ff" d="M3168.45,-118.14C3577.59,-115.68 5917.79,-100.51 6233.5,-74 6236.39,-73.76 6239.36,-73.45 6242.34,-73.11"/>
<polygon fill="#63b8ff" stroke="#63b8ff" points="3168.28,-114.64 3158.3,-118.2 3168.32,-121.64 3168.28,-114.64"/>
</a>
</g>
</g>
<!-- Node4&#45;&gt;Node2 -->
<g id="edge4_Node000004_Node000002" class="edge">
<title>Node4&#45;&gt;Node2</title>
<g id="a_edge4_Node000004_Node000002"><a xlink:title=" ">
<path fill="none" stroke="#63b8ff" d="M220.61,-52.69C178.45,-42.76 116.8,-28.24 77.93,-19.08"/>
<polygon fill="#63b8ff" stroke="#63b8ff" points="219.81,-56.1 230.35,-54.98 221.42,-49.28 219.81,-56.1"/>
</a>
</g>
</g>
<!-- Node5 -->
<g id="Node000005" class="node">
<title>Node5</title>
<g id="a_Node000005"><a xlink:href="../../da/dc7/bibletime__init_8cpp.html" target="_top" xlink:title=" ">
<polygon fill="white" stroke="#666666" points="205.5,-19 101.5,-19 101.5,0 205.5,0 205.5,-19"/>
<text text-anchor="middle" x="153.5" y="-7" font-family="Helvetica,sans-Serif" font-size="10.00">bibletime_init.cpp</text>
</a>
</g>
</g>
<!-- Node4&#45;&gt;Node5 -->
<g id="edge5_Node000004_Node000005" class="edge">
<title>Node4&#45;&gt;Node5</title>
<g id="a_edge5_Node000004_Node000005"><a xlink:title=" ">
<path fill="none" stroke="#63b8ff" d="M239.07,-50.63C218.25,-40.87 190.2,-27.71 171.99,-19.17"/>
<polygon fill="#63b8ff" stroke="#63b8ff" points="237.8,-53.91 248.34,-54.98 240.78,-47.57 237.8,-53.91"/>
</a>
</g>
</g>
<!-- Node6 -->
<g id="Node000006" class="node">
<title>Node6</title>
<g id="a_Node000006"><a xlink:href="../../d5/d86/bibletimeapp_8cpp.html" target="_top" xlink:title=" ">
<polygon fill="white" stroke="#666666" points="325,-19 224,-19 224,0 325,0 325,-19"/>
<text text-anchor="middle" x="274.5" y="-7" font-family="Helvetica,sans-Serif" font-size="10.00">bibletimeapp.cpp</text>
</a>
</g>
</g>
<!-- Node4&#45;&gt;Node6 -->
<g id="edge6_Node000004_Node000006" class="edge">
<title>Node4&#45;&gt;Node6</title>
<g id="a_edge6_Node000004_Node000006"><a xlink:title=" ">
<path fill="none" stroke="#63b8ff" d="M269.34,-44.66C270.66,-35.93 272.16,-25.99 273.2,-19.09"/>
<polygon fill="#63b8ff" stroke="#63b8ff" points="265.85,-44.34 267.82,-54.75 272.77,-45.38 265.85,-44.34"/>
</a>
</g>
</g>
<!-- Node4&#45;&gt;Node7 -->
<g id="edge7_Node000004_Node000007" class="edge">
<title>Node4&#45;&gt;Node7</title>
<g id="a_edge7_Node000004_Node000007"><a xlink:title=" ">
<path fill="none" stroke="#63b8ff" d="M292.99,-50.5C312.86,-40.75 339.5,-27.68 356.83,-19.17"/>
<polygon fill="#63b8ff" stroke="#63b8ff" points="291.29,-47.44 283.85,-54.98 294.37,-53.72 291.29,-47.44"/>
</a>
</g>
</g>
<!-- Node15&#45;&gt;Node14 -->
<g id="edge17_Node000015_Node000014" class="edge">
<title>Node15&#45;&gt;Node14</title>
<g id="a_edge17_Node000015_Node000014"><a xlink:title=" ">
<path fill="none" stroke="#63b8ff" d="M1492.98,-49.97C1475.44,-40.28 1452.33,-27.52 1437.2,-19.17"/>
<polygon fill="#63b8ff" stroke="#63b8ff" points="1491.63,-53.22 1502.08,-54.98 1495.01,-47.09 1491.63,-53.22"/>
</a>
</g>
</g>
<!-- Node16 -->
<g id="Node000016" class="node">
<title>Node16</title>
<g id="a_Node000016"><a xlink:href="../../d6/d54/btbookshelfwizard_8cpp.html" target="_top" xlink:title=" ">
<polygon fill="white" stroke="#666666" points="1639.5,-19 1513.5,-19 1513.5,0 1639.5,0 1639.5,-19"/>
<text text-anchor="middle" x="1576.5" y="-7" font-family="Helvetica,sans-Serif" font-size="10.00">btbookshelfwizard.cpp</text>
</a>
</g>
</g>
<!-- Node15&#45;&gt;Node16 -->
<g id="edge16_Node000015_Node000016" class="edge">
<title>Node15&#45;&gt;Node16</title>
<g id="a_edge16_Node000015_Node000016"><a xlink:title=" ">
<path fill="none" stroke="#63b8ff" d="M1534.7,-48.04C1545.17,-38.64 1558.15,-26.98 1566.85,-19.17"/>
<polygon fill="#63b8ff" stroke="#63b8ff" points="1532.08,-45.7 1526.98,-54.98 1536.76,-50.91 1532.08,-45.7"/>
</a>
</g>
</g>
</g>
</svg>
