<?xml version="1.0" encoding="UTF-8" standalone="no"?>
<!DOCTYPE svg PUBLIC "-//W3C//DTD SVG 1.1//EN"
 "http://www.w3.org/Graphics/SVG/1.1/DTD/svg11.dtd">
<!-- Generated by graphviz version 2.43.0 (0)
 -->
<!-- Title: gbftohtml.h Pages: 1 -->
<!--zoomable 192 -->

<svg id="main" version="1.1" xmlns="http://www.w3.org/2000/svg" xmlns:xlink="http://www.w3.org/1999/xlink" xml:space="preserve" onload="init(evt)">
<style type="text/css"><![CDATA[
.node, .edge {opacity: 0.7;}
.node.selected, .edge.selected {opacity: 1;}
.edge:hover path { stroke: red; }
.edge:hover polygon { stroke: red; fill: red; }
]]></style>

<defs>
  <circle id="rim" cx="0" cy="0" r="7"/>
  <circle id="rim2" cx="0" cy="0" r="3.5"/>
  <g id="zoomPlus">
    <use xlink:href="#rim" fill="#404040"><set attributeName="fill" to="#808080" begin="zoomplus.mouseover" end="zoomplus.mouseout"/></use>
    <path d="M-4,0h8M0,-4v8" fill="none" stroke="white" stroke-width="1.5" pointer-events="none"/>
  </g>
  <g id="zoomMin">
    <use xlink:href="#rim" fill="#404040"><set attributeName="fill" to="#808080" begin="zoomminus.mouseover" end="zoomminus.mouseout"/></use>
    <path d="M-4,0h8" fill="none" stroke="white" stroke-width="1.5" pointer-events="none"/>
  </g>
  <g id="arrowUp" transform="translate(30 24)">
    <use xlink:href="#rim"/>
    <path pointer-events="none" fill="none" stroke="white" stroke-width="1.5" d="M0,-3.0v7 M-2.5,-0.5L0,-3.0L2.5,-0.5"/>
  </g>
  <g id="arrowRight" transform="rotate(90) translate(36 -43)">
    <use xlink:href="#rim"/>
    <path pointer-events="none" fill="none" stroke="white" stroke-width="1.5" d="M0,-3.0v7 M-2.5,-0.5L0,-3.0L2.5,-0.5"/>
  </g>
  <g id="arrowDown" transform="rotate(180) translate(-30 -48)">
    <use xlink:href="#rim"/>
    <path pointer-events="none" fill="none" stroke="white" stroke-width="1.5" d="M0,-3.0v7 M-2.5,-0.5L0,-3.0L2.5,-0.5"/>
  </g>
  <g id="arrowLeft" transform="rotate(270) translate(-36 17)">
    <use xlink:href="#rim"/>
    <path pointer-events="none" fill="none" stroke="white" stroke-width="1.5" d="M0,-3.0v7 M-2.5,-0.5L0,-3.0L2.5,-0.5"/>
  </g>
  <g id="resetDef">
    <use xlink:href="#rim2" fill="#404040"><set attributeName="fill" to="#808080" begin="reset.mouseover" end="reset.mouseout"/></use>
  </g>
</defs>
<script type="application/ecmascript">
var viewWidth = 6344;
var viewHeight = 192;
var sectionId = 'dynsection-0';
</script>
<script type="application/ecmascript" xlink:href="../../svg.min.js"/>
<svg id="graph" class="graph">
<g id="viewport">
<title>gbftohtml.h</title>
<!-- Node1 -->
<g id="Node000001" class="node">
<title>Node1</title>
<g id="a_Node000001"><a xlink:title=" ">
<polygon fill="#999999" stroke="#666666" points="3251,-184 3178,-184 3178,-165 3251,-165 3251,-184"/>
<text text-anchor="middle" x="3214.5" y="-172" font-family="Helvetica,sans-Serif" font-size="10.00">gbftohtml.h</text>
</a>
</g>
</g>
<!-- Node2 -->
<g id="Node000002" class="node">
<title>Node2</title>
<g id="a_Node000002"><a xlink:href="../../d0/d60/cswordbackend_8h.html" target="_top" xlink:title=" ">
<polygon fill="white" stroke="#666666" points="3226,-129 3125,-129 3125,-110 3226,-110 3226,-129"/>
<text text-anchor="middle" x="3175.5" y="-117" font-family="Helvetica,sans-Serif" font-size="10.00">cswordbackend.h</text>
</a>
</g>
</g>
<!-- Node1&#45;&gt;Node2 -->
<g id="edge1_Node000001_Node000002" class="edge">
<title>Node1&#45;&gt;Node2</title>
<g id="a_edge1_Node000001_Node000002"><a xlink:title=" ">
<path fill="none" stroke="#63b8ff" d="M3202.12,-156.67C3195.36,-147.5 3187.29,-136.52 3181.82,-129.09"/>
<polygon fill="#63b8ff" stroke="#63b8ff" points="3199.31,-158.77 3208.06,-164.75 3204.95,-154.62 3199.31,-158.77"/>
</a>
</g>
</g>
<!-- Node47 -->
<g id="Node000047" class="node">
<title>Node47</title>
<g id="a_Node000047"><a xlink:href="../../d4/d4d/gbftohtml_8cpp.html" target="_top" xlink:title=" ">
<polygon fill="white" stroke="#666666" points="6335.5,-74 6251.5,-74 6251.5,-55 6335.5,-55 6335.5,-74"/>
<text text-anchor="middle" x="6293.5" y="-62" font-family="Helvetica,sans-Serif" font-size="10.00">gbftohtml.cpp</text>
</a>
</g>
</g>
<!-- Node1&#45;&gt;Node47 -->
<g id="edge53_Node000001_Node000047" class="edge">
<title>Node1&#45;&gt;Node47</title>
<g id="a_edge53_Node000001_Node000047"><a xlink:title=" ">
<path fill="none" stroke="#63b8ff" d="M3261.67,-172.81C3597.32,-167.75 5628.61,-134.97 6242.5,-74 6245.36,-73.72 6248.3,-73.37 6251.26,-72.98"/>
<polygon fill="#63b8ff" stroke="#63b8ff" points="3261.28,-169.31 3251.33,-172.96 3261.39,-176.31 3261.28,-169.31"/>
</a>
</g>
</g>
<!-- Node3 -->
<g id="Node000003" class="node">
<title>Node3</title>
<g id="a_Node000003"><a xlink:href="../../d1/df6/bibletime_8cpp.html" target="_top" xlink:title=" ">
<polygon fill="white" stroke="#666666" points="83,-19 0,-19 0,0 83,0 83,-19"/>
<text text-anchor="middle" x="41.5" y="-7" font-family="Helvetica,sans-Serif" font-size="10.00">bibletime.cpp</text>
</a>
</g>
</g>
<!-- Node2&#45;&gt;Node3 -->
<g id="edge2_Node000002_Node000003" class="edge">
<title>Node2&#45;&gt;Node3</title>
<g id="a_edge2_Node000002_Node000003"><a xlink:title=" ">
<path fill="none" stroke="#63b8ff" d="M3114.7,-118.42C2687.47,-117.74 151.32,-112.13 82.5,-74 60.92,-62.04 48.92,-33.4 44.07,-19.03"/>
<polygon fill="#63b8ff" stroke="#63b8ff" points="3114.97,-121.92 3124.98,-118.43 3114.99,-114.92 3114.97,-121.92"/>
</a>
</g>
</g>
<!-- Node4 -->
<g id="Node000004" class="node">
<title>Node4</title>
<g id="a_Node000004"><a xlink:href="../../d6/d96/bibletime__slots_8cpp.html" target="_top" xlink:title=" ">
<polygon fill="white" stroke="#666666" points="203.5,-74 91.5,-74 91.5,-55 203.5,-55 203.5,-74"/>
<text text-anchor="middle" x="147.5" y="-62" font-family="Helvetica,sans-Serif" font-size="10.00">bibletime_slots.cpp</text>
</a>
</g>
</g>
<!-- Node2&#45;&gt;Node4 -->
<g id="edge3_Node000002_Node000004" class="edge">
<title>Node2&#45;&gt;Node4</title>
<g id="a_edge3_Node000002_Node000004"><a xlink:title=" ">
<path fill="none" stroke="#63b8ff" d="M3114.53,-118.54C2745.44,-118.65 805.86,-117.11 212.5,-74 209.66,-73.79 206.76,-73.55 203.83,-73.27"/>
<polygon fill="#63b8ff" stroke="#63b8ff" points="3114.74,-122.04 3124.74,-118.54 3114.74,-115.04 3114.74,-122.04"/>
</a>
</g>
</g>
<!-- Node5 -->
<g id="Node000005" class="node">
<title>Node5</title>
<g id="a_Node000005"><a xlink:href="../../d5/d00/bibletimeapp_8h.html" target="_top" xlink:title=" ">
<polygon fill="white" stroke="#666666" points="311.5,-74 221.5,-74 221.5,-55 311.5,-55 311.5,-74"/>
<text text-anchor="middle" x="266.5" y="-62" font-family="Helvetica,sans-Serif" font-size="10.00">bibletimeapp.h</text>
</a>
</g>
</g>
<!-- Node2&#45;&gt;Node5 -->
<g id="edge4_Node000002_Node000005" class="edge">
<title>Node2&#45;&gt;Node5</title>
<g id="a_edge4_Node000002_Node000005"><a xlink:title=" ">
<path fill="none" stroke="#63b8ff" d="M3114.57,-118.61C2753.88,-119.08 894.73,-119.26 325.5,-74 320.96,-73.64 316.24,-73.15 311.53,-72.59"/>
<polygon fill="#63b8ff" stroke="#63b8ff" points="3114.81,-122.11 3124.8,-118.59 3114.8,-115.11 3114.81,-122.11"/>
</a>
</g>
</g>
<!-- Node8 -->
<g id="Node000008" class="node">
<title>Node8</title>
<g id="a_Node000008"><a xlink:href="../../df/d0a/main_8cpp.html" target="_top" xlink:title=" ">
<polygon fill="white" stroke="#666666" points="405.5,-19 343.5,-19 343.5,0 405.5,0 405.5,-19"/>
<text text-anchor="middle" x="374.5" y="-7" font-family="Helvetica,sans-Serif" font-size="10.00">main.cpp</text>
</a>
</g>
</g>
<!-- Node2&#45;&gt;Node8 -->
<g id="edge48_Node000002_Node000008" class="edge">
<title>Node2&#45;&gt;Node8</title>
<g id="a_edge48_Node000002_Node000008"><a xlink:title=" ">
<path fill="none" stroke="#63b8ff" d="M3114.82,-118.71C2709.42,-119.97 408.56,-124.86 358.5,-74 343.83,-59.09 358.51,-32.81 367.93,-19.21"/>
<polygon fill="#63b8ff" stroke="#63b8ff" points="3114.88,-122.21 3124.87,-118.68 3114.86,-115.21 3114.88,-122.21"/>
</a>
</g>
</g>
<!-- Node9 -->
<g id="Node000009" class="node">
<title>Node9</title>
<g id="a_Node000009"><a xlink:href="../../d7/dd0/btbookmarksmodel_8cpp.html" target="_top" xlink:title=" ">
<polygon fill="white" stroke="#666666" points="499.5,-74 367.5,-74 367.5,-55 499.5,-55 499.5,-74"/>
<text text-anchor="middle" x="433.5" y="-62" font-family="Helvetica,sans-Serif" font-size="10.00">btbookmarksmodel.cpp</text>
</a>
</g>
</g>
<!-- Node2&#45;&gt;Node9 -->
<g id="edge9_Node000002_Node000009" class="edge">
<title>Node2&#45;&gt;Node9</title>
<g id="a_edge9_Node000002_Node000009"><a xlink:title=" ">
<path fill="none" stroke="#63b8ff" d="M3114.67,-118.28C2768.1,-116.92 1039.76,-108.46 508.5,-74 505.62,-73.81 502.69,-73.6 499.72,-73.35"/>
<polygon fill="#63b8ff" stroke="#63b8ff" points="3114.74,-121.78 3124.75,-118.32 3114.77,-114.78 3114.74,-121.78"/>
</a>
</g>
</g>
<!-- Node10 -->
<g id="Node000010" class="node">
<title>Node10</title>
<g id="a_Node000010"><a xlink:href="../../df/d88/btbookshelfdockwidget_8cpp.html" target="_top" xlink:title=" ">
<polygon fill="white" stroke="#666666" points="669,-74 518,-74 518,-55 669,-55 669,-74"/>
<text text-anchor="middle" x="593.5" y="-62" font-family="Helvetica,sans-Serif" font-size="10.00">btbookshelfdockwidget.cpp</text>
</a>
</g>
</g>
<!-- Node2&#45;&gt;Node10 -->
<g id="edge10_Node000002_Node000010" class="edge">
<title>Node2&#45;&gt;Node10</title>
<g id="a_edge10_Node000002_Node000010"><a xlink:title=" ">
<path fill="none" stroke="#63b8ff" d="M3114.33,-118.1C2780.26,-115.81 1173.16,-103.44 677.5,-74 674.72,-73.83 671.89,-73.65 669.03,-73.44"/>
<polygon fill="#63b8ff" stroke="#63b8ff" points="3114.74,-121.6 3124.76,-118.17 3114.79,-114.6 3114.74,-121.6"/>
</a>
</g>
</g>
<!-- Node11 -->
<g id="Node000011" class="node">
<title>Node11</title>
<g id="a_Node000011"><a xlink:href="../../dc/d04/btbookshelfinstallfinalpage_8cpp.html" target="_top" xlink:title=" ">
<polygon fill="white" stroke="#666666" points="856,-74 687,-74 687,-55 856,-55 856,-74"/>
<text text-anchor="middle" x="771.5" y="-62" font-family="Helvetica,sans-Serif" font-size="10.00">btbookshelfinstallfinalpage.cpp</text>
</a>
</g>
</g>
<!-- Node2&#45;&gt;Node11 -->
<g id="edge11_Node000002_Node000011" class="edge">
<title>Node2&#45;&gt;Node11</title>
<g id="a_edge11_Node000002_Node000011"><a xlink:title=" ">
<path fill="none" stroke="#63b8ff" d="M3114.11,-117.92C2794.79,-114.79 1320.85,-99.22 864.5,-74 861.75,-73.85 858.95,-73.68 856.13,-73.49"/>
<polygon fill="#63b8ff" stroke="#63b8ff" points="3114.51,-121.42 3124.54,-118.02 3114.58,-114.42 3114.51,-121.42"/>
</a>
</g>
</g>
<!-- Node12 -->
<g id="Node000012" class="node">
<title>Node12</title>
<g id="a_Node000012"><a xlink:href="../../d0/da5/btbookshelflanguagespage_8cpp.html" target="_top" xlink:title=" ">
<polygon fill="white" stroke="#666666" points="1041.5,-74 873.5,-74 873.5,-55 1041.5,-55 1041.5,-74"/>
<text text-anchor="middle" x="957.5" y="-62" font-family="Helvetica,sans-Serif" font-size="10.00">btbookshelflanguagespage.cpp</text>
</a>
</g>
</g>
<!-- Node2&#45;&gt;Node12 -->
<g id="edge12_Node000002_Node000012" class="edge">
<title>Node2&#45;&gt;Node12</title>
<g id="a_edge12_Node000002_Node000012"><a xlink:title=" ">
<path fill="none" stroke="#63b8ff" d="M3114.74,-118.81C2861.62,-119.77 1866.12,-120.21 1049.5,-74 1046.94,-73.85 1044.34,-73.69 1041.71,-73.52"/>
<polygon fill="#63b8ff" stroke="#63b8ff" points="3114.85,-122.31 3124.83,-118.77 3114.82,-115.31 3114.85,-122.31"/>
</a>
</g>
</g>
<!-- Node13 -->
<g id="Node000013" class="node">
<title>Node13</title>
<g id="a_Node000013"><a xlink:href="../../d0/da0/btbookshelfremovefinalpage_8cpp.html" target="_top" xlink:title=" ">
<polygon fill="white" stroke="#666666" points="1236,-74 1059,-74 1059,-55 1236,-55 1236,-74"/>
<text text-anchor="middle" x="1147.5" y="-62" font-family="Helvetica,sans-Serif" font-size="10.00">btbookshelfremovefinalpage.cpp</text>
</a>
</g>
</g>
<!-- Node2&#45;&gt;Node13 -->
<g id="edge13_Node000002_Node000013" class="edge">
<title>Node2&#45;&gt;Node13</title>
<g id="a_edge13_Node000002_Node000013"><a xlink:title=" ">
<path fill="none" stroke="#63b8ff" d="M3114.51,-118.52C2875.59,-118.31 1980.21,-114.67 1244.5,-74 1241.71,-73.85 1238.89,-73.68 1236.03,-73.49"/>
<polygon fill="#63b8ff" stroke="#63b8ff" points="3114.73,-122.02 3124.73,-118.53 3114.73,-115.02 3114.73,-122.02"/>
</a>
</g>
</g>
<!-- Node14 -->
<g id="Node000014" class="node">
<title>Node14</title>
<g id="a_Node000014"><a xlink:href="../../de/db2/btbookshelftaskpage_8cpp.html" target="_top" xlink:title=" ">
<polygon fill="white" stroke="#666666" points="1393,-74 1254,-74 1254,-55 1393,-55 1393,-74"/>
<text text-anchor="middle" x="1323.5" y="-62" font-family="Helvetica,sans-Serif" font-size="10.00">btbookshelftaskpage.cpp</text>
</a>
</g>
</g>
<!-- Node2&#45;&gt;Node14 -->
<g id="edge14_Node000002_Node000014" class="edge">
<title>Node2&#45;&gt;Node14</title>
<g id="a_edge14_Node000002_Node000014"><a xlink:title=" ">
<path fill="none" stroke="#63b8ff" d="M3114.48,-118.64C2888.19,-118.78 2075.64,-116.15 1407.5,-74 1402.82,-73.7 1398,-73.35 1393.14,-72.96"/>
<polygon fill="#63b8ff" stroke="#63b8ff" points="3114.81,-122.14 3124.81,-118.63 3114.8,-115.14 3114.81,-122.14"/>
</a>
</g>
</g>
<!-- Node15 -->
<g id="Node000015" class="node">
<title>Node15</title>
<g id="a_Node000015"><a xlink:href="../../d9/d03/btbookshelfworkspage_8cpp.html" target="_top" xlink:title=" ">
<polygon fill="white" stroke="#666666" points="1543,-19 1396,-19 1396,0 1543,0 1543,-19"/>
<text text-anchor="middle" x="1469.5" y="-7" font-family="Helvetica,sans-Serif" font-size="10.00">btbookshelfworkspage.cpp</text>
</a>
</g>
</g>
<!-- Node2&#45;&gt;Node15 -->
<g id="edge15_Node000002_Node000015" class="edge">
<title>Node2&#45;&gt;Node15</title>
<g id="a_edge15_Node000002_Node000015"><a xlink:title=" ">
<path fill="none" stroke="#63b8ff" d="M3114.14,-118.09C2809.2,-115.91 1470.31,-104.59 1440.5,-74 1425.1,-58.2 1446.26,-32.77 1459.77,-19.39"/>
<polygon fill="#63b8ff" stroke="#63b8ff" points="3114.52,-121.59 3124.54,-118.16 3114.57,-114.59 3114.52,-121.59"/>
</a>
</g>
</g>
<!-- Node16 -->
<g id="Node000016" class="node">
<title>Node16</title>
<g id="a_Node000016"><a xlink:href="../../d6/d8d/btbookshelfworkspage_8h.html" target="_top" xlink:title=" ">
<polygon fill="#fff0f0" stroke="red" points="1585.5,-74 1449.5,-74 1449.5,-55 1585.5,-55 1585.5,-74"/>
<text text-anchor="middle" x="1517.5" y="-62" font-family="Helvetica,sans-Serif" font-size="10.00">btbookshelfworkspage.h</text>
</a>
</g>
</g>
<!-- Node2&#45;&gt;Node16 -->
<g id="edge16_Node000002_Node000016" class="edge">
<title>Node2&#45;&gt;Node16</title>
<g id="a_edge16_Node000002_Node000016"><a xlink:title=" ">
<path fill="none" stroke="#63b8ff" d="M3114.68,-118.58C2903.98,-118.46 2185.8,-114.89 1594.5,-74 1591.68,-73.81 1588.81,-73.59 1585.91,-73.35"/>
<polygon fill="#63b8ff" stroke="#63b8ff" points="3114.92,-122.08 3124.92,-118.58 3114.92,-115.08 3114.92,-122.08"/>
</a>
</g>
</g>
<!-- Node18 -->
<g id="Node000018" class="node">
<title>Node18</title>
<g id="a_Node000018"><a xlink:href="../../de/d4e/btconfig_8cpp.html" target="_top" xlink:title=" ">
<polygon fill="white" stroke="#666666" points="1679.5,-74 1603.5,-74 1603.5,-55 1679.5,-55 1679.5,-74"/>
<text text-anchor="middle" x="1641.5" y="-62" font-family="Helvetica,sans-Serif" font-size="10.00">btconfig.cpp</text>
</a>
</g>
</g>
<!-- Node2&#45;&gt;Node18 -->
<g id="edge18_Node000002_Node000018" class="edge">
<title>Node2&#45;&gt;Node18</title>
<g id="a_edge18_Node000002_Node000018"><a xlink:title=" ">
<path fill="none" stroke="#63b8ff" d="M3114.66,-117.89C2871.9,-115.27 1971.96,-103.71 1688.5,-74 1685.61,-73.7 1682.64,-73.32 1679.65,-72.89"/>
<polygon fill="#63b8ff" stroke="#63b8ff" points="3114.67,-121.39 3124.71,-118 3114.75,-114.39 3114.67,-121.39"/>
</a>
</g>
</g>
<!-- Node19 -->
<g id="Node000019" class="node">
<title>Node19</title>
<g id="a_Node000019"><a xlink:href="../../d5/d72/btfontsettings_8cpp.html" target="_top" xlink:title=" ">
<polygon fill="white" stroke="#666666" points="1803,-74 1698,-74 1698,-55 1803,-55 1803,-74"/>
<text text-anchor="middle" x="1750.5" y="-62" font-family="Helvetica,sans-Serif" font-size="10.00">btfontsettings.cpp</text>
</a>
</g>
</g>
<!-- Node2&#45;&gt;Node19 -->
<g id="edge19_Node000002_Node000019" class="edge">
<title>Node2&#45;&gt;Node19</title>
<g id="a_edge19_Node000002_Node000019"><a xlink:title=" ">
<path fill="none" stroke="#63b8ff" d="M3114.81,-118.76C2923.23,-119.09 2314.32,-116.48 1812.5,-74 1809.47,-73.74 1806.36,-73.44 1803.22,-73.11"/>
<polygon fill="#63b8ff" stroke="#63b8ff" points="3114.96,-122.26 3124.96,-118.74 3114.95,-115.26 3114.96,-122.26"/>
</a>
</g>
</g>
<!-- Node20 -->
<g id="Node000020" class="node">
<title>Node20</title>
<g id="a_Node000020"><a xlink:href="../../d4/d57/btindexdialog_8cpp.html" target="_top" xlink:title=" ">
<polygon fill="white" stroke="#666666" points="1925.5,-74 1821.5,-74 1821.5,-55 1925.5,-55 1925.5,-74"/>
<text text-anchor="middle" x="1873.5" y="-62" font-family="Helvetica,sans-Serif" font-size="10.00">btindexdialog.cpp</text>
</a>
</g>
</g>
<!-- Node2&#45;&gt;Node20 -->
<g id="edge20_Node000002_Node000020" class="edge">
<title>Node2&#45;&gt;Node20</title>
<g id="a_edge20_Node000002_Node000020"><a xlink:title=" ">
<path fill="none" stroke="#63b8ff" d="M3114.77,-118.53C2934.47,-118.13 2386.68,-113.51 1934.5,-74 1931.62,-73.75 1928.68,-73.46 1925.7,-73.13"/>
<polygon fill="#63b8ff" stroke="#63b8ff" points="3114.84,-122.03 3124.85,-118.54 3114.86,-115.03 3114.84,-122.03"/>
</a>
</g>
</g>
<!-- Node21 -->
<g id="Node000021" class="node">
<title>Node21</title>
<g id="a_Node000021"><a xlink:href="../../da/d1a/btinforendering_8cpp.html" target="_top" xlink:title=" ">
<polygon fill="white" stroke="#666666" points="2055.5,-74 1943.5,-74 1943.5,-55 2055.5,-55 2055.5,-74"/>
<text text-anchor="middle" x="1999.5" y="-62" font-family="Helvetica,sans-Serif" font-size="10.00">btinforendering.cpp</text>
</a>
</g>
</g>
<!-- Node2&#45;&gt;Node21 -->
<g id="edge21_Node000002_Node000021" class="edge">
<title>Node2&#45;&gt;Node21</title>
<g id="a_edge21_Node000002_Node000021"><a xlink:title=" ">
<path fill="none" stroke="#63b8ff" d="M3114.62,-117.98C2946.91,-116.15 2464.13,-108.06 2064.5,-74 2061.67,-73.76 2058.76,-73.48 2055.84,-73.18"/>
<polygon fill="#63b8ff" stroke="#63b8ff" points="3114.7,-121.48 3124.74,-118.09 3114.78,-114.49 3114.7,-121.48"/>
</a>
</g>
</g>
<!-- Node22 -->
<g id="Node000022" class="node">
<title>Node22</title>
<g id="a_Node000022"><a xlink:href="../../db/dd7/btinstallbackend_8cpp.html" target="_top" xlink:title=" ">
<polygon fill="white" stroke="#666666" points="2191,-74 2074,-74 2074,-55 2191,-55 2191,-74"/>
<text text-anchor="middle" x="2132.5" y="-62" font-family="Helvetica,sans-Serif" font-size="10.00">btinstallbackend.cpp</text>
</a>
</g>
</g>
<!-- Node2&#45;&gt;Node22 -->
<g id="edge22_Node000002_Node000022" class="edge">
<title>Node2&#45;&gt;Node22</title>
<g id="a_edge22_Node000002_Node000022"><a xlink:title=" ">
<path fill="none" stroke="#63b8ff" d="M3114.69,-117.43C2961.07,-114.36 2544.97,-103.74 2199.5,-74 2196.81,-73.77 2194.07,-73.51 2191.3,-73.23"/>
<polygon fill="#63b8ff" stroke="#63b8ff" points="3114.79,-120.93 3124.86,-117.63 3114.93,-113.93 3114.79,-120.93"/>
</a>
</g>
</g>
<!-- Node23 -->
<g id="Node000023" class="node">
<title>Node23</title>
<g id="a_Node000023"><a xlink:href="../../dd/dba/btinstallpagemodel_8cpp.html" target="_top" xlink:title=" ">
<polygon fill="white" stroke="#666666" points="2340,-74 2209,-74 2209,-55 2340,-55 2340,-74"/>
<text text-anchor="middle" x="2274.5" y="-62" font-family="Helvetica,sans-Serif" font-size="10.00">btinstallpagemodel.cpp</text>
</a>
</g>
</g>
<!-- Node2&#45;&gt;Node23 -->
<g id="edge23_Node000002_Node000023" class="edge">
<title>Node2&#45;&gt;Node23</title>
<g id="a_edge23_Node000002_Node000023"><a xlink:title=" ">
<path fill="none" stroke="#63b8ff" d="M3114.38,-116.44C2977.33,-111.56 2635.08,-97.85 2349.5,-74 2346.5,-73.75 2343.43,-73.47 2340.33,-73.18"/>
<polygon fill="#63b8ff" stroke="#63b8ff" points="3114.56,-119.95 3124.67,-116.81 3114.8,-112.96 3114.56,-119.95"/>
</a>
</g>
</g>
<!-- Node24 -->
<g id="Node000024" class="node">
<title>Node24</title>
<g id="a_Node000024"><a xlink:href="../../d5/daf/btinstallthread_8cpp.html" target="_top" xlink:title=" ">
<polygon fill="white" stroke="#666666" points="2466.5,-74 2358.5,-74 2358.5,-55 2466.5,-55 2466.5,-74"/>
<text text-anchor="middle" x="2412.5" y="-62" font-family="Helvetica,sans-Serif" font-size="10.00">btinstallthread.cpp</text>
</a>
</g>
</g>
<!-- Node2&#45;&gt;Node24 -->
<g id="edge24_Node000002_Node000024" class="edge">
<title>Node2&#45;&gt;Node24</title>
<g id="a_edge24_Node000002_Node000024"><a xlink:title=" ">
<path fill="none" stroke="#63b8ff" d="M3114.67,-116.08C2993.04,-110.92 2711.29,-97.37 2475.5,-74 2472.64,-73.72 2469.72,-73.4 2466.77,-73.07"/>
<polygon fill="#63b8ff" stroke="#63b8ff" points="3114.75,-119.59 3124.89,-116.51 3115.05,-112.59 3114.75,-119.59"/>
</a>
</g>
</g>
<!-- Node25 -->
<g id="Node000025" class="node">
<title>Node25</title>
<g id="a_Node000025"><a xlink:href="../../de/db2/btmodelviewreaddisplay_8cpp.html" target="_top" xlink:title=" ">
<polygon fill="white" stroke="#666666" points="2640.5,-74 2484.5,-74 2484.5,-55 2640.5,-55 2640.5,-74"/>
<text text-anchor="middle" x="2562.5" y="-62" font-family="Helvetica,sans-Serif" font-size="10.00">btmodelviewreaddisplay.cpp</text>
</a>
</g>
</g>
<!-- Node2&#45;&gt;Node25 -->
<g id="edge25_Node000002_Node000025" class="edge">
<title>Node2&#45;&gt;Node25</title>
<g id="a_edge25_Node000002_Node000025"><a xlink:title=" ">
<path fill="none" stroke="#63b8ff" d="M3114.69,-113.61C3016.71,-105.68 2817.86,-89.35 2649.5,-74 2646.63,-73.74 2643.7,-73.47 2640.75,-73.19"/>
<polygon fill="#63b8ff" stroke="#63b8ff" points="3114.45,-117.11 3124.7,-114.42 3115.02,-110.13 3114.45,-117.11"/>
</a>
</g>
</g>
<!-- Node26 -->
<g id="Node000026" class="node">
<title>Node26</title>
<g id="a_Node000026"><a xlink:href="../../dd/ddc/btmodulechoosermenu_8cpp.html" target="_top" xlink:title=" ">
<polygon fill="white" stroke="#666666" points="2808,-74 2659,-74 2659,-55 2808,-55 2808,-74"/>
<text text-anchor="middle" x="2733.5" y="-62" font-family="Helvetica,sans-Serif" font-size="10.00">btmodulechoosermenu.cpp</text>
</a>
</g>
</g>
<!-- Node2&#45;&gt;Node26 -->
<g id="edge26_Node000002_Node000026" class="edge">
<title>Node2&#45;&gt;Node26</title>
<g id="a_edge26_Node000002_Node000026"><a xlink:title=" ">
<path fill="none" stroke="#63b8ff" d="M3114.76,-111.22C3033.77,-101.5 2890.67,-84.35 2804.71,-74.04"/>
<polygon fill="#63b8ff" stroke="#63b8ff" points="3114.45,-114.7 3124.8,-112.42 3115.28,-107.75 3114.45,-114.7"/>
</a>
</g>
</g>
<!-- Node27 -->
<g id="Node000027" class="node">
<title>Node27</title>
<g id="a_Node000027"><a xlink:href="../../de/d93/btmoduletextmodel_8cpp.html" target="_top" xlink:title=" ">
<polygon fill="white" stroke="#666666" points="2960.5,-74 2826.5,-74 2826.5,-55 2960.5,-55 2960.5,-74"/>
<text text-anchor="middle" x="2893.5" y="-62" font-family="Helvetica,sans-Serif" font-size="10.00">btmoduletextmodel.cpp</text>
</a>
</g>
</g>
<!-- Node2&#45;&gt;Node27 -->
<g id="edge27_Node000002_Node000027" class="edge">
<title>Node2&#45;&gt;Node27</title>
<g id="a_edge27_Node000002_Node000027"><a xlink:title=" ">
<path fill="none" stroke="#63b8ff" d="M3120.31,-108.13C3067.44,-98.19 2988.6,-83.37 2939.16,-74.08"/>
<polygon fill="#63b8ff" stroke="#63b8ff" points="3119.72,-111.58 3130.19,-109.98 3121.01,-104.7 3119.72,-111.58"/>
</a>
</g>
</g>
<!-- Node28 -->
<g id="Node000028" class="node">
<title>Node28</title>
<g id="a_Node000028"><a xlink:href="../../d9/d62/btopenworkaction_8cpp.html" target="_top" xlink:title=" ">
<polygon fill="white" stroke="#666666" points="3102.5,-74 2978.5,-74 2978.5,-55 3102.5,-55 3102.5,-74"/>
<text text-anchor="middle" x="3040.5" y="-62" font-family="Helvetica,sans-Serif" font-size="10.00">btopenworkaction.cpp</text>
</a>
</g>
</g>
<!-- Node2&#45;&gt;Node28 -->
<g id="edge28_Node000002_Node000028" class="edge">
<title>Node2&#45;&gt;Node28</title>
<g id="a_edge28_Node000002_Node000028"><a xlink:title=" ">
<path fill="none" stroke="#63b8ff" d="M3144.4,-106.29C3119.38,-96.47 3084.84,-82.91 3062.58,-74.17"/>
<polygon fill="#63b8ff" stroke="#63b8ff" points="3143.22,-109.59 3153.81,-109.98 3145.78,-103.07 3143.22,-109.59"/>
</a>
</g>
</g>
<!-- Node29 -->
<g id="Node000029" class="node">
<title>Node29</title>
<g id="a_Node000029"><a xlink:href="../../de/d6e/btqmlinterface_8cpp.html" target="_top" xlink:title=" ">
<polygon fill="white" stroke="#666666" points="3230,-74 3121,-74 3121,-55 3230,-55 3230,-74"/>
<text text-anchor="middle" x="3175.5" y="-62" font-family="Helvetica,sans-Serif" font-size="10.00">btqmlinterface.cpp</text>
</a>
</g>
</g>
<!-- Node2&#45;&gt;Node29 -->
<g id="edge29_Node000002_Node000029" class="edge">
<title>Node2&#45;&gt;Node29</title>
<g id="a_edge29_Node000002_Node000029"><a xlink:title=" ">
<path fill="none" stroke="#63b8ff" d="M3175.5,-99.66C3175.5,-90.93 3175.5,-80.99 3175.5,-74.09"/>
<polygon fill="#63b8ff" stroke="#63b8ff" points="3172,-99.75 3175.5,-109.75 3179,-99.75 3172,-99.75"/>
</a>
</g>
</g>
<!-- Node30 -->
<g id="Node000030" class="node">
<title>Node30</title>
<g id="a_Node000030"><a xlink:href="../../d9/d0c/btquickwidget_8cpp.html" target="_top" xlink:title=" ">
<polygon fill="white" stroke="#666666" points="3354.5,-74 3248.5,-74 3248.5,-55 3354.5,-55 3354.5,-74"/>
<text text-anchor="middle" x="3301.5" y="-62" font-family="Helvetica,sans-Serif" font-size="10.00">btquickwidget.cpp</text>
</a>
</g>
</g>
<!-- Node2&#45;&gt;Node30 -->
<g id="edge30_Node000002_Node000030" class="edge">
<title>Node2&#45;&gt;Node30</title>
<g id="a_edge30_Node000002_Node000030"><a xlink:title=" ">
<path fill="none" stroke="#63b8ff" d="M3205.15,-106.03C3228.45,-96.23 3260.3,-82.83 3280.89,-74.17"/>
<polygon fill="#63b8ff" stroke="#63b8ff" points="3203.6,-102.88 3195.74,-109.98 3206.32,-109.33 3203.6,-102.88"/>
</a>
</g>
</g>
<!-- Node31 -->
<g id="Node000031" class="node">
<title>Node31</title>
<g id="a_Node000031"><a xlink:href="../../dc/dab/btsearchmodulechooserdialog_8cpp.html" target="_top" xlink:title=" ">
<polygon fill="white" stroke="#666666" points="3556.5,-74 3372.5,-74 3372.5,-55 3556.5,-55 3556.5,-74"/>
<text text-anchor="middle" x="3464.5" y="-62" font-family="Helvetica,sans-Serif" font-size="10.00">btsearchmodulechooserdialog.cpp</text>
</a>
</g>
</g>
<!-- Node2&#45;&gt;Node31 -->
<g id="edge31_Node000002_Node000031" class="edge">
<title>Node2&#45;&gt;Node31</title>
<g id="a_edge31_Node000002_Node000031"><a xlink:title=" ">
<path fill="none" stroke="#63b8ff" d="M3232.06,-108.13C3286.24,-98.19 3367.04,-83.37 3417.7,-74.08"/>
<polygon fill="#63b8ff" stroke="#63b8ff" points="3231.14,-104.74 3221.93,-109.98 3232.4,-111.62 3231.14,-104.74"/>
</a>
</g>
</g>
<!-- Node32 -->
<g id="Node000032" class="node">
<title>Node32</title>
<g id="a_Node000032"><a xlink:href="../../d4/d4d/btsearchoptionsarea_8cpp.html" target="_top" xlink:title=" ">
<polygon fill="white" stroke="#666666" points="3712,-74 3575,-74 3575,-55 3712,-55 3712,-74"/>
<text text-anchor="middle" x="3643.5" y="-62" font-family="Helvetica,sans-Serif" font-size="10.00">btsearchoptionsarea.cpp</text>
</a>
</g>
</g>
<!-- Node2&#45;&gt;Node32 -->
<g id="edge32_Node000002_Node000032" class="edge">
<title>Node2&#45;&gt;Node32</title>
<g id="a_edge32_Node000002_Node000032"><a xlink:title=" ">
<path fill="none" stroke="#63b8ff" d="M3236.02,-111.65C3323.08,-101.79 3483.23,-83.65 3574.68,-73.29"/>
<polygon fill="#63b8ff" stroke="#63b8ff" points="3235.57,-108.17 3226.03,-112.78 3236.36,-115.13 3235.57,-108.17"/>
</a>
</g>
</g>
<!-- Node33 -->
<g id="Node000033" class="node">
<title>Node33</title>
<g id="a_Node000033"><a xlink:href="../../d6/dfe/btstandardworkstab_8cpp.html" target="_top" xlink:title=" ">
<polygon fill="white" stroke="#666666" points="3864.5,-74 3730.5,-74 3730.5,-55 3864.5,-55 3864.5,-74"/>
<text text-anchor="middle" x="3797.5" y="-62" font-family="Helvetica,sans-Serif" font-size="10.00">btstandardworkstab.cpp</text>
</a>
</g>
</g>
<!-- Node2&#45;&gt;Node33 -->
<g id="edge33_Node000002_Node000033" class="edge">
<title>Node2&#45;&gt;Node33</title>
<g id="a_edge33_Node000002_Node000033"><a xlink:title=" ">
<path fill="none" stroke="#63b8ff" d="M3236.25,-114.11C3336.97,-106.7 3544.86,-90.86 3720.5,-74 3723.71,-73.69 3727,-73.37 3730.32,-73.03"/>
<polygon fill="#63b8ff" stroke="#63b8ff" points="3235.98,-110.62 3226.26,-114.84 3236.49,-117.6 3235.98,-110.62"/>
</a>
</g>
</g>
<!-- Node34 -->
<g id="Node000034" class="node">
<title>Node34</title>
<g id="a_Node000034"><a xlink:href="../../d4/d3a/bttextbrowser_8cpp.html" target="_top" xlink:title=" ">
<polygon fill="white" stroke="#666666" points="3986.5,-74 3882.5,-74 3882.5,-55 3986.5,-55 3986.5,-74"/>
<text text-anchor="middle" x="3934.5" y="-62" font-family="Helvetica,sans-Serif" font-size="10.00">bttextbrowser.cpp</text>
</a>
</g>
</g>
<!-- Node2&#45;&gt;Node34 -->
<g id="edge34_Node000002_Node000034" class="edge">
<title>Node2&#45;&gt;Node34</title>
<g id="a_edge34_Node000002_Node000034"><a xlink:title=" ">
<path fill="none" stroke="#63b8ff" d="M3236.62,-116.14C3358.16,-111.11 3638.73,-97.81 3873.5,-74 3876.37,-73.71 3879.32,-73.38 3882.29,-73.04"/>
<polygon fill="#63b8ff" stroke="#63b8ff" points="3236.25,-112.65 3226.4,-116.56 3236.54,-119.65 3236.25,-112.65"/>
</a>
</g>
</g>
<!-- Node35 -->
<g id="Node000035" class="node">
<title>Node35</title>
<g id="a_Node000035"><a xlink:href="../../de/da4/cbiblereadwindow_8cpp.html" target="_top" xlink:title=" ">
<polygon fill="white" stroke="#666666" points="4130,-74 4005,-74 4005,-55 4130,-55 4130,-74"/>
<text text-anchor="middle" x="4067.5" y="-62" font-family="Helvetica,sans-Serif" font-size="10.00">cbiblereadwindow.cpp</text>
</a>
</g>
</g>
<!-- Node2&#45;&gt;Node35 -->
<g id="edge35_Node000002_Node000035" class="edge">
<title>Node2&#45;&gt;Node35</title>
<g id="a_edge35_Node000002_Node000035"><a xlink:title=" ">
<path fill="none" stroke="#63b8ff" d="M3236.68,-116.5C3373.08,-111.77 3712.39,-98.37 3995.5,-74 3998.51,-73.74 4001.59,-73.46 4004.7,-73.15"/>
<polygon fill="#63b8ff" stroke="#63b8ff" points="3236.31,-113.02 3226.44,-116.86 3236.55,-120.01 3236.31,-113.02"/>
</a>
</g>
</g>
<!-- Node36 -->
<g id="Node000036" class="node">
<title>Node36</title>
<g id="a_Node000036"><a xlink:href="../../d9/de6/cbookmarkindex_8cpp.html" target="_top" xlink:title=" ">
<polygon fill="white" stroke="#666666" points="4267,-74 4148,-74 4148,-55 4267,-55 4267,-74"/>
<text text-anchor="middle" x="4207.5" y="-62" font-family="Helvetica,sans-Serif" font-size="10.00">cbookmarkindex.cpp</text>
</a>
</g>
</g>
<!-- Node2&#45;&gt;Node36 -->
<g id="edge36_Node000002_Node000036" class="edge">
<title>Node2&#45;&gt;Node36</title>
<g id="a_edge36_Node000002_Node000036"><a xlink:title=" ">
<path fill="none" stroke="#63b8ff" d="M3236.31,-117.3C3388.53,-113.95 3798.19,-102.78 4138.5,-74 4141.51,-73.75 4144.58,-73.46 4147.69,-73.15"/>
<polygon fill="#63b8ff" stroke="#63b8ff" points="3236.15,-113.8 3226.23,-117.52 3236.3,-120.8 3236.15,-113.8"/>
</a>
</g>
</g>
<!-- Node37 -->
<g id="Node000037" class="node">
<title>Node37</title>
<g id="a_Node000037"><a xlink:href="../../d0/d6f/ccommentaryreadwindow_8cpp.html" target="_top" xlink:title=" ">
<polygon fill="white" stroke="#666666" points="4448,-74 4285,-74 4285,-55 4448,-55 4448,-74"/>
<text text-anchor="middle" x="4366.5" y="-62" font-family="Helvetica,sans-Serif" font-size="10.00">ccommentaryreadwindow.cpp</text>
</a>
</g>
</g>
<!-- Node2&#45;&gt;Node37 -->
<g id="edge37_Node000002_Node000037" class="edge">
<title>Node2&#45;&gt;Node37</title>
<g id="a_edge37_Node000002_Node000037"><a xlink:title=" ">
<path fill="none" stroke="#63b8ff" d="M3236.3,-117.17C3402.74,-113.27 3879.74,-100.47 4275.5,-74 4278.51,-73.8 4281.57,-73.58 4284.66,-73.35"/>
<polygon fill="#63b8ff" stroke="#63b8ff" points="3236.18,-113.67 3226.26,-117.4 3236.34,-120.67 3236.18,-113.67"/>
</a>
</g>
</g>
<!-- Node38 -->
<g id="Node000038" class="node">
<title>Node38</title>
<g id="a_Node000038"><a xlink:href="../../d4/d47/cdisplaytemplatemgr_8cpp.html" target="_top" xlink:title=" ">
<polygon fill="white" stroke="#666666" points="4606.5,-74 4466.5,-74 4466.5,-55 4606.5,-55 4606.5,-74"/>
<text text-anchor="middle" x="4536.5" y="-62" font-family="Helvetica,sans-Serif" font-size="10.00">cdisplaytemplatemgr.cpp</text>
</a>
</g>
</g>
<!-- Node2&#45;&gt;Node38 -->
<g id="edge38_Node000002_Node000038" class="edge">
<title>Node2&#45;&gt;Node38</title>
<g id="a_edge38_Node000002_Node000038"><a xlink:title=" ">
<path fill="none" stroke="#63b8ff" d="M3236.24,-117.92C3420.23,-115.85 3987.55,-107.02 4456.5,-74 4459.7,-73.77 4462.98,-73.52 4466.28,-73.25"/>
<polygon fill="#63b8ff" stroke="#63b8ff" points="3236.18,-114.42 3226.22,-118.03 3236.26,-121.42 3236.18,-114.42"/>
</a>
</g>
</g>
<!-- Node39 -->
<g id="Node000039" class="node">
<title>Node39</title>
<g id="a_Node000039"><a xlink:href="../../d2/d26/cdisplaywindow_8cpp.html" target="_top" xlink:title=" ">
<polygon fill="white" stroke="#666666" points="4738.5,-74 4624.5,-74 4624.5,-55 4738.5,-55 4738.5,-74"/>
<text text-anchor="middle" x="4681.5" y="-62" font-family="Helvetica,sans-Serif" font-size="10.00">cdisplaywindow.cpp</text>
</a>
</g>
</g>
<!-- Node2&#45;&gt;Node39 -->
<g id="edge39_Node000002_Node000039" class="edge">
<title>Node2&#45;&gt;Node39</title>
<g id="a_edge39_Node000002_Node000039"><a xlink:title=" ">
<path fill="none" stroke="#63b8ff" d="M3236.53,-118.73C3435.38,-119.04 4082.43,-116.46 4615.5,-74 4618.38,-73.77 4621.33,-73.51 4624.3,-73.21"/>
<polygon fill="#63b8ff" stroke="#63b8ff" points="3236.3,-115.23 3226.29,-118.71 3236.29,-122.23 3236.3,-115.23"/>
</a>
</g>
</g>
<!-- Node40 -->
<g id="Node000040" class="node">
<title>Node40</title>
<g id="a_Node000040"><a xlink:href="../../d7/d5d/cmoduleresultview_8cpp.html" target="_top" xlink:title=" ">
<polygon fill="white" stroke="#666666" points="4886,-74 4757,-74 4757,-55 4886,-55 4886,-74"/>
<text text-anchor="middle" x="4821.5" y="-62" font-family="Helvetica,sans-Serif" font-size="10.00">cmoduleresultview.cpp</text>
</a>
</g>
</g>
<!-- Node2&#45;&gt;Node40 -->
<g id="edge40_Node000002_Node000040" class="edge">
<title>Node2&#45;&gt;Node40</title>
<g id="a_edge40_Node000002_Node000040"><a xlink:title=" ">
<path fill="none" stroke="#63b8ff" d="M3236.34,-118.66C3446.31,-118.81 4159.99,-115.98 4747.5,-74 4750.6,-73.78 4753.76,-73.52 4756.96,-73.24"/>
<polygon fill="#63b8ff" stroke="#63b8ff" points="3236.14,-115.16 3226.14,-118.65 3236.13,-122.16 3236.14,-115.16"/>
</a>
</g>
</g>
<!-- Node41 -->
<g id="Node000041" class="node">
<title>Node41</title>
<g id="a_Node000041"><a xlink:href="../../d2/d9d/crangechooserdialog_8cpp.html" target="_top" xlink:title=" ">
<polygon fill="white" stroke="#666666" points="5042.5,-74 4904.5,-74 4904.5,-55 5042.5,-55 5042.5,-74"/>
<text text-anchor="middle" x="4973.5" y="-62" font-family="Helvetica,sans-Serif" font-size="10.00">crangechooserdialog.cpp</text>
</a>
</g>
</g>
<!-- Node2&#45;&gt;Node41 -->
<g id="edge41_Node000002_Node000041" class="edge">
<title>Node2&#45;&gt;Node41</title>
<g id="a_edge41_Node000002_Node000041"><a xlink:title=" ">
<path fill="none" stroke="#63b8ff" d="M3236.34,-118.71C3458.45,-119.11 4246.48,-117.18 4894.5,-74 4897.67,-73.79 4900.9,-73.55 4904.17,-73.28"/>
<polygon fill="#63b8ff" stroke="#63b8ff" points="3236.2,-115.21 3226.19,-118.69 3236.19,-122.21 3236.2,-115.21"/>
</a>
</g>
</g>
<!-- Node42 -->
<g id="Node000042" class="node">
<title>Node42</title>
<g id="a_Node000042"><a xlink:href="../../d9/d7b/cswordbackend_8cpp.html" target="_top" xlink:title=" ">
<polygon fill="white" stroke="#666666" points="5172.5,-74 5060.5,-74 5060.5,-55 5172.5,-55 5172.5,-74"/>
<text text-anchor="middle" x="5116.5" y="-62" font-family="Helvetica,sans-Serif" font-size="10.00">cswordbackend.cpp</text>
</a>
</g>
</g>
<!-- Node2&#45;&gt;Node42 -->
<g id="edge42_Node000002_Node000042" class="edge">
<title>Node2&#45;&gt;Node42</title>
<g id="a_edge42_Node000002_Node000042"><a xlink:title=" ">
<path fill="none" stroke="#63b8ff" d="M3236.74,-117.92C3517.88,-115.15 4686.7,-102.1 5051.5,-74 5054.34,-73.78 5057.24,-73.52 5060.17,-73.24"/>
<polygon fill="#63b8ff" stroke="#63b8ff" points="3236.3,-114.43 3226.34,-118.03 3236.37,-121.43 3236.3,-114.43"/>
</a>
</g>
</g>
<!-- Node43 -->
<g id="Node000043" class="node">
<title>Node43</title>
<g id="a_Node000043"><a xlink:href="../../d4/d94/cswordbiblemoduleinfo_8cpp.html" target="_top" xlink:title=" ">
<polygon fill="white" stroke="#666666" points="5342,-74 5191,-74 5191,-55 5342,-55 5342,-74"/>
<text text-anchor="middle" x="5266.5" y="-62" font-family="Helvetica,sans-Serif" font-size="10.00">cswordbiblemoduleinfo.cpp</text>
</a>
</g>
</g>
<!-- Node2&#45;&gt;Node43 -->
<g id="edge43_Node000002_Node000043" class="edge">
<title>Node2&#45;&gt;Node43</title>
<g id="a_edge43_Node000002_Node000043"><a xlink:title=" ">
<path fill="none" stroke="#63b8ff" d="M3236.44,-118.87C3480.99,-119.98 4414.96,-120.76 5181.5,-74 5184.61,-73.81 5187.78,-73.59 5190.98,-73.36"/>
<polygon fill="#63b8ff" stroke="#63b8ff" points="3236.34,-115.37 3226.33,-118.82 3236.31,-122.37 3236.34,-115.37"/>
</a>
</g>
</g>
<!-- Node44 -->
<g id="Node000044" class="node">
<title>Node44</title>
<g id="a_Node000044"><a xlink:href="../../d3/db9/cswordmoduleinfo_8cpp.html" target="_top" xlink:title=" ">
<polygon fill="white" stroke="#666666" points="5487,-74 5360,-74 5360,-55 5487,-55 5487,-74"/>
<text text-anchor="middle" x="5423.5" y="-62" font-family="Helvetica,sans-Serif" font-size="10.00">cswordmoduleinfo.cpp</text>
</a>
</g>
</g>
<!-- Node2&#45;&gt;Node44 -->
<g id="edge44_Node000002_Node000044" class="edge">
<title>Node2&#45;&gt;Node44</title>
<g id="a_edge44_Node000002_Node000044"><a xlink:title=" ">
<path fill="none" stroke="#63b8ff" d="M3236.29,-118.06C3543.08,-115.69 4923.57,-103.57 5351.5,-74 5354.26,-73.81 5357.08,-73.59 5359.93,-73.34"/>
<polygon fill="#63b8ff" stroke="#63b8ff" points="3236.22,-114.56 3226.25,-118.13 3236.28,-121.56 3236.22,-114.56"/>
</a>
</g>
</g>
<!-- Node45 -->
<g id="Node000045" class="node">
<title>Node45</title>
<g id="a_Node000045"><a xlink:href="../../dd/d03/cswordmodulesearch_8cpp.html" target="_top" xlink:title=" ">
<polygon fill="white" stroke="#666666" points="5645.5,-74 5505.5,-74 5505.5,-55 5645.5,-55 5645.5,-74"/>
<text text-anchor="middle" x="5575.5" y="-62" font-family="Helvetica,sans-Serif" font-size="10.00">cswordmodulesearch.cpp</text>
</a>
</g>
</g>
<!-- Node2&#45;&gt;Node45 -->
<g id="edge45_Node000002_Node000045" class="edge">
<title>Node2&#45;&gt;Node45</title>
<g id="a_edge45_Node000002_Node000045"><a xlink:title=" ">
<path fill="none" stroke="#63b8ff" d="M3236.64,-118.06C3556.3,-115.63 5038.15,-103 5496.5,-74 5499.39,-73.82 5502.34,-73.61 5505.32,-73.38"/>
<polygon fill="#63b8ff" stroke="#63b8ff" points="3236.17,-114.56 3226.2,-118.14 3236.23,-121.56 3236.17,-114.56"/>
</a>
</g>
</g>
<!-- Node46 -->
<g id="Node000046" class="node">
<title>Node46</title>
<g id="a_Node000046"><a xlink:href="../../db/d72/ctextrendering_8cpp.html" target="_top" xlink:title=" ">
<polygon fill="white" stroke="#666666" points="5771.5,-74 5663.5,-74 5663.5,-55 5771.5,-55 5771.5,-74"/>
<text text-anchor="middle" x="5717.5" y="-62" font-family="Helvetica,sans-Serif" font-size="10.00">ctextrendering.cpp</text>
</a>
</g>
</g>
<!-- Node2&#45;&gt;Node46 -->
<g id="edge46_Node000002_Node000046" class="edge">
<title>Node2&#45;&gt;Node46</title>
<g id="a_edge46_Node000002_Node000046"><a xlink:title=" ">
<path fill="none" stroke="#63b8ff" d="M3236.49,-118.37C3568.71,-117.5 5163.29,-111.42 5654.5,-74 5657.36,-73.78 5660.29,-73.52 5663.25,-73.23"/>
<polygon fill="#63b8ff" stroke="#63b8ff" points="3236.11,-114.87 3226.12,-118.39 3236.13,-121.87 3236.11,-114.87"/>
</a>
</g>
</g>
<!-- Node2&#45;&gt;Node47 -->
<g id="edge47_Node000002_Node000047" class="edge">
<title>Node2&#45;&gt;Node47</title>
<g id="a_edge47_Node000002_Node000047"><a xlink:title=" ">
<path fill="none" stroke="#63b8ff" d="M3236.26,-118.17C3640.4,-115.9 5933.16,-101.86 6242.5,-74 6245.36,-73.74 6248.3,-73.42 6251.26,-73.04"/>
<polygon fill="#63b8ff" stroke="#63b8ff" points="3236.22,-114.67 3226.24,-118.23 3236.26,-121.67 3236.22,-114.67"/>
</a>
</g>
</g>
<!-- Node48 -->
<g id="Node000048" class="node">
<title>Node48</title>
<g id="a_Node000048"><a xlink:href="../../db/d7a/osistohtml_8cpp.html" target="_top" xlink:title=" ">
<polygon fill="white" stroke="#666666" points="5879,-74 5790,-74 5790,-55 5879,-55 5879,-74"/>
<text text-anchor="middle" x="5834.5" y="-62" font-family="Helvetica,sans-Serif" font-size="10.00">osistohtml.cpp</text>
</a>
</g>
</g>
<!-- Node2&#45;&gt;Node48 -->
<g id="edge49_Node000002_Node000048" class="edge">
<title>Node2&#45;&gt;Node48</title>
<g id="a_edge49_Node000002_Node000048"><a xlink:title=" ">
<path fill="none" stroke="#63b8ff" d="M3236.3,-118.61C3578.07,-119.06 5263.13,-118.92 5780.5,-74 5783.53,-73.74 5786.64,-73.41 5789.77,-73.03"/>
<polygon fill="#63b8ff" stroke="#63b8ff" points="3236.12,-115.11 3226.11,-118.6 3236.11,-122.11 3236.12,-115.11"/>
</a>
</g>
</g>
<!-- Node49 -->
<g id="Node000049" class="node">
<title>Node49</title>
<g id="a_Node000049"><a xlink:href="../../d7/dfe/referencemanager_8cpp.html" target="_top" xlink:title=" ">
<polygon fill="white" stroke="#666666" points="6023.5,-74 5897.5,-74 5897.5,-55 6023.5,-55 6023.5,-74"/>
<text text-anchor="middle" x="5960.5" y="-62" font-family="Helvetica,sans-Serif" font-size="10.00">referencemanager.cpp</text>
</a>
</g>
</g>
<!-- Node2&#45;&gt;Node49 -->
<g id="edge50_Node000002_Node000049" class="edge">
<title>Node2&#45;&gt;Node49</title>
<g id="a_edge50_Node000002_Node000049"><a xlink:title=" ">
<path fill="none" stroke="#63b8ff" d="M3236.25,-118.34C3586.16,-117.29 5347.58,-110.27 5888.5,-74 5891.39,-73.81 5894.34,-73.58 5897.32,-73.33"/>
<polygon fill="#63b8ff" stroke="#63b8ff" points="3236.06,-114.84 3226.07,-118.37 3236.08,-121.84 3236.06,-114.84"/>
</a>
</g>
</g>
<!-- Node50 -->
<g id="Node000050" class="node">
<title>Node50</title>
<g id="a_Node000050"><a xlink:href="../../d5/de5/teitohtml_8cpp.html" target="_top" xlink:title=" ">
<polygon fill="white" stroke="#666666" points="6123.5,-74 6041.5,-74 6041.5,-55 6123.5,-55 6123.5,-74"/>
<text text-anchor="middle" x="6082.5" y="-62" font-family="Helvetica,sans-Serif" font-size="10.00">teitohtml.cpp</text>
</a>
</g>
</g>
<!-- Node2&#45;&gt;Node50 -->
<g id="edge51_Node000002_Node000050" class="edge">
<title>Node2&#45;&gt;Node50</title>
<g id="a_edge51_Node000002_Node000050"><a xlink:title=" ">
<path fill="none" stroke="#63b8ff" d="M3236.33,-118.11C3624.27,-115.56 5745.45,-100.48 6032.5,-74 6035.39,-73.73 6038.37,-73.39 6041.36,-73.01"/>
<polygon fill="#63b8ff" stroke="#63b8ff" points="3236.13,-114.61 3226.15,-118.18 3236.18,-121.61 3236.13,-114.61"/>
</a>
</g>
</g>
<!-- Node51 -->
<g id="Node000051" class="node">
<title>Node51</title>
<g id="a_Node000051"><a xlink:href="../../d9/de8/thmltohtml_8cpp.html" target="_top" xlink:title=" ">
<polygon fill="white" stroke="#666666" points="6233.5,-74 6141.5,-74 6141.5,-55 6233.5,-55 6233.5,-74"/>
<text text-anchor="middle" x="6187.5" y="-62" font-family="Helvetica,sans-Serif" font-size="10.00">thmltohtml.cpp</text>
</a>
</g>
</g>
<!-- Node2&#45;&gt;Node51 -->
<g id="edge52_Node000002_Node000051" class="edge">
<title>Node2&#45;&gt;Node51</title>
<g id="a_edge52_Node000002_Node000051"><a xlink:title=" ">
<path fill="none" stroke="#63b8ff" d="M3236.25,-118.09C3631.83,-115.36 5834.65,-99.14 6132.5,-74 6135.39,-73.76 6138.36,-73.45 6141.34,-73.11"/>
<polygon fill="#63b8ff" stroke="#63b8ff" points="3236.13,-114.59 3226.15,-118.16 3236.18,-121.59 3236.13,-114.59"/>
</a>
</g>
</g>
<!-- Node5&#45;&gt;Node3 -->
<g id="edge5_Node000005_Node000003" class="edge">
<title>Node5&#45;&gt;Node3</title>
<g id="a_edge5_Node000005_Node000003"><a xlink:title=" ">
<path fill="none" stroke="#63b8ff" d="M220.61,-52.69C178.45,-42.76 116.8,-28.24 77.93,-19.08"/>
<polygon fill="#63b8ff" stroke="#63b8ff" points="219.81,-56.1 230.35,-54.98 221.42,-49.28 219.81,-56.1"/>
</a>
</g>
</g>
<!-- Node6 -->
<g id="Node000006" class="node">
<title>Node6</title>
<g id="a_Node000006"><a xlink:href="../../da/dc7/bibletime__init_8cpp.html" target="_top" xlink:title=" ">
<polygon fill="white" stroke="#666666" points="205.5,-19 101.5,-19 101.5,0 205.5,0 205.5,-19"/>
<text text-anchor="middle" x="153.5" y="-7" font-family="Helvetica,sans-Serif" font-size="10.00">bibletime_init.cpp</text>
</a>
</g>
</g>
<!-- Node5&#45;&gt;Node6 -->
<g id="edge6_Node000005_Node000006" class="edge">
<title>Node5&#45;&gt;Node6</title>
<g id="a_edge6_Node000005_Node000006"><a xlink:title=" ">
<path fill="none" stroke="#63b8ff" d="M239.07,-50.63C218.25,-40.87 190.2,-27.71 171.99,-19.17"/>
<polygon fill="#63b8ff" stroke="#63b8ff" points="237.8,-53.91 248.34,-54.98 240.78,-47.57 237.8,-53.91"/>
</a>
</g>
</g>
<!-- Node7 -->
<g id="Node000007" class="node">
<title>Node7</title>
<g id="a_Node000007"><a xlink:href="../../d5/d86/bibletimeapp_8cpp.html" target="_top" xlink:title=" ">
<polygon fill="white" stroke="#666666" points="325,-19 224,-19 224,0 325,0 325,-19"/>
<text text-anchor="middle" x="274.5" y="-7" font-family="Helvetica,sans-Serif" font-size="10.00">bibletimeapp.cpp</text>
</a>
</g>
</g>
<!-- Node5&#45;&gt;Node7 -->
<g id="edge7_Node000005_Node000007" class="edge">
<title>Node5&#45;&gt;Node7</title>
<g id="a_edge7_Node000005_Node000007"><a xlink:title=" ">
<path fill="none" stroke="#63b8ff" d="M269.34,-44.66C270.66,-35.93 272.16,-25.99 273.2,-19.09"/>
<polygon fill="#63b8ff" stroke="#63b8ff" points="265.85,-44.34 267.82,-54.75 272.77,-45.38 265.85,-44.34"/>
</a>
</g>
</g>
<!-- Node5&#45;&gt;Node8 -->
<g id="edge8_Node000005_Node000008" class="edge">
<title>Node5&#45;&gt;Node8</title>
<g id="a_edge8_Node000005_Node000008"><a xlink:title=" ">
<path fill="none" stroke="#63b8ff" d="M292.99,-50.5C312.86,-40.75 339.5,-27.68 356.83,-19.17"/>
<polygon fill="#63b8ff" stroke="#63b8ff" points="291.29,-47.44 283.85,-54.98 294.37,-53.72 291.29,-47.44"/>
</a>
</g>
</g>
<!-- Node16&#45;&gt;Node15 -->
<g id="edge17_Node000016_Node000015" class="edge">
<title>Node16&#45;&gt;Node15</title>
<g id="a_edge17_Node000016_Node000015"><a xlink:title=" ">
<path fill="none" stroke="#63b8ff" d="M1502.77,-47.24C1494.36,-37.95 1484.15,-26.68 1477.28,-19.09"/>
<polygon fill="#63b8ff" stroke="#63b8ff" points="1500.27,-49.69 1509.57,-54.75 1505.46,-44.99 1500.27,-49.69"/>
</a>
</g>
</g>
</g>
</svg>

<g id="navigator" transform="translate(0 0)" fill="#404254">
  <rect fill="#f2f5e9" fill-opacity="0.5" stroke="#606060" stroke-width=".5" x="0" y="0" width="60" height="60"/>
  <use id="zoomplus" xlink:href="#zoomPlus" x="17" y="9" onmousedown="handleZoom(evt,'in')"/>
  <use id="zoomminus" xlink:href="#zoomMin" x="42" y="9" onmousedown="handleZoom(evt,'out')"/>
  <use id="reset" xlink:href="#resetDef" x="30" y="36" onmousedown="handleReset()"/>
   <use id="arrowup" xlink:href="#arrowUp" x="0" y="0" onmousedown="handlePan(0,-1)"/>
  <use id="arrowright" xlink:href="#arrowRight" x="0" y="0" onmousedown="handlePan(1,0)"/>
  <use id="arrowdown" xlink:href="#arrowDown" x="0" y="0" onmousedown="handlePan(0,1)"/>
  <use id="arrowleft" xlink:href="#arrowLeft" x="0" y="0" onmousedown="handlePan(-1,0)"/>
</g>
<svg viewBox="0 0 15 15" width="100%" height="30px" preserveAspectRatio="xMaxYMin meet">
 <g id="arrow_out" transform="scale(0.3 0.3)">
  <a xlink:href="gbftohtml_8h__dep__incl_org.svg" target="_base">
   <rect id="button" ry="5" rx="5" y="6" x="6" height="38" width="38"
        fill="#f2f5e9" fill-opacity="0.5" stroke="#606060" stroke-width="1.0"/>
   <path id="arrow"
     d="M 11.500037,31.436501 C 11.940474,20.09759 22.043105,11.32322 32.158766,21.979434 L 37.068811,17.246167 C 37.068811,17.246167 37.088388,32 37.088388,32 L 22.160133,31.978069 C 22.160133,31.978069 26.997745,27.140456 26.997745,27.140456 C 18.528582,18.264221 13.291696,25.230495 11.500037,31.436501 z"
     style="fill:#404040;"/>
  </a>
 </g>
</svg>

<style type='text/css'>
<![CDATA[
[data-mouse-over-selected='false'] { opacity: 0.7; }
[data-mouse-over-selected='true']  { opacity: 1.0; }
]]>
</style>
<script type="application/ecmascript"><![CDATA[
document.addEventListener('DOMContentLoaded', (event) => {
  highlightEdges();
  highlightAdjacentNodes();
});
]]></script>
</svg>
