<?xml version="1.0" encoding="UTF-8" standalone="no"?>
<!DOCTYPE svg PUBLIC "-//W3C//DTD SVG 1.1//EN"
 "http://www.w3.org/Graphics/SVG/1.1/DTD/svg11.dtd">
<!-- Generated by graphviz version 2.43.0 (0)
 -->
<!-- Title: gbftohtml.h Pages: 1 -->
<!--zoomable 252 -->
<svg id="main" version="1.1" xmlns="http://www.w3.org/2000/svg" xmlns:xlink="http://www.w3.org/1999/xlink" xml:space="preserve" onload="init(evt)">
<style type="text/css"><![CDATA[
.edge:hover path { stroke: red; }
.edge:hover polygon { stroke: red; fill: red; }
]]></style>
<script type="text/javascript"><![CDATA[
var edges = document.getElementsByTagName('g');
if (edges && edges.length) {
  for (var i=0;i<edges.length;i++) {
    if (edges[i].id.substr(0,4)=='edge') {
      edges[i].setAttribute('class','edge');
    }
  }
}
]]></script>
        <defs>
                <circle id="rim" cx="0" cy="0" r="7"/>
                <circle id="rim2" cx="0" cy="0" r="3.5"/>
                <g id="zoomPlus">
                        <use xlink:href="#rim" fill="#404040">
                                <set attributeName="fill" to="#808080" begin="zoomplus.mouseover" end="zoomplus.mouseout"/>
                        </use>
                        <path d="M-4,0h8M0,-4v8" fill="none" stroke="white" stroke-width="1.5" pointer-events="none"/>
                </g>
                <g id="zoomMin">
                        <use xlink:href="#rim" fill="#404040">
                                <set attributeName="fill" to="#808080" begin="zoomminus.mouseover" end="zoomminus.mouseout"/>
                        </use>
                        <path d="M-4,0h8" fill="none" stroke="white" stroke-width="1.5" pointer-events="none"/>
                </g>
                <g id="dirArrow">
                        <path fill="none" stroke="white" stroke-width="1.5" d="M0,-3.0v7 M-2.5,-0.5L0,-3.0L2.5,-0.5"/>
                </g>
               <g id="resetDef">
                       <use xlink:href="#rim2" fill="#404040">
                               <set attributeName="fill" to="#808080" begin="reset.mouseover" end="reset.mouseout"/>
                       </use>
               </g>
        </defs>

<script type="text/javascript">
var viewWidth = 6227;
var viewHeight = 252;
var sectionId = 'dynsection-0';
</script>
<script xlink:href="../../svgpan.js"/>
<svg id="graph" class="graph">
<g id="viewport">
<title>gbftohtml.h</title>
<polygon fill="white" stroke="transparent" points="-4,4 -4,-248 6222.5,-248 6222.5,4 -4,4"/>
<!-- Node1 -->
<g id="node1" class="node">
<title>Node1</title>
<g id="a_node1"><a xlink:title=" ">
<polygon fill="#bfbfbf" stroke="black" points="1363.5,-224.5 1363.5,-243.5 1436.5,-243.5 1436.5,-224.5 1363.5,-224.5"/>
<text text-anchor="middle" x="1400" y="-231.5" font-family="Helvetica,sans-Serif" font-size="10.00">gbftohtml.h</text>
</a>
</g>
</g>
<!-- Node2 -->
<g id="node2" class="node">
<title>Node2</title>
<g id="a_node2"><a xlink:href="../../d0/d60/cswordbackend_8h.html" target="_top" xlink:title=" ">
<polygon fill="white" stroke="red" points="2708.5,-168.5 2708.5,-187.5 2809.5,-187.5 2809.5,-168.5 2708.5,-168.5"/>
<text text-anchor="middle" x="2759" y="-175.5" font-family="Helvetica,sans-Serif" font-size="10.00">cswordbackend.h</text>
</a>
</g>
</g>
<!-- Node1&#45;&gt;Node2 -->
<g id="edge1" class="edge">
<title>Node1&#45;&gt;Node2</title>
<path fill="none" stroke="midnightblue" d="M1446.98,-231.13C1655.01,-222.87 2492.54,-189.59 2708.17,-181.02"/>
<polygon fill="midnightblue" stroke="midnightblue" points="1446.55,-227.65 1436.7,-231.54 1446.83,-234.64 1446.55,-227.65"/>
</g>
<!-- Node10 -->
<g id="node10" class="node">
<title>Node10</title>
<g id="a_node10"><a xlink:href="../../d4/d4d/gbftohtml_8cpp.html" target="_top" xlink:title=" ">
<polygon fill="white" stroke="black" points="0,-112.5 0,-131.5 84,-131.5 84,-112.5 0,-112.5"/>
<text text-anchor="middle" x="42" y="-119.5" font-family="Helvetica,sans-Serif" font-size="10.00">gbftohtml.cpp</text>
</a>
</g>
</g>
<!-- Node1&#45;&gt;Node10 -->
<g id="edge55" class="edge">
<title>Node1&#45;&gt;Node10</title>
<path fill="none" stroke="midnightblue" d="M1353.41,-231.05C1183.86,-223.59 583.96,-194.14 93,-132 90.15,-131.64 87.21,-131.23 84.25,-130.78"/>
<polygon fill="midnightblue" stroke="midnightblue" points="1353.34,-234.55 1363.49,-231.49 1353.65,-227.55 1353.34,-234.55"/>
</g>
<!-- Node3 -->
<g id="node3" class="node">
<title>Node3</title>
<g id="a_node3"><a xlink:href="../../d7/dd0/btbookmarksmodel_8cpp.html" target="_top" xlink:title=" ">
<polygon fill="white" stroke="black" points="102,-112.5 102,-131.5 234,-131.5 234,-112.5 102,-112.5"/>
<text text-anchor="middle" x="168" y="-119.5" font-family="Helvetica,sans-Serif" font-size="10.00">btbookmarksmodel.cpp</text>
</a>
</g>
</g>
<!-- Node2&#45;&gt;Node3 -->
<g id="edge2" class="edge">
<title>Node2&#45;&gt;Node3</title>
<path fill="none" stroke="midnightblue" d="M2697.93,-176.75C2362.6,-175.25 742.21,-166.33 243,-132 240.12,-131.8 237.18,-131.57 234.22,-131.32"/>
<polygon fill="midnightblue" stroke="midnightblue" points="2698.38,-180.25 2708.39,-176.8 2698.41,-173.25 2698.38,-180.25"/>
</g>
<!-- Node4 -->
<g id="node4" class="node">
<title>Node4</title>
<g id="a_node4"><a xlink:href="../../db/dd7/btinstallbackend_8cpp.html" target="_top" xlink:title=" ">
<polygon fill="white" stroke="black" points="252.5,-112.5 252.5,-131.5 369.5,-131.5 369.5,-112.5 252.5,-112.5"/>
<text text-anchor="middle" x="311" y="-119.5" font-family="Helvetica,sans-Serif" font-size="10.00">btinstallbackend.cpp</text>
</a>
</g>
</g>
<!-- Node2&#45;&gt;Node4 -->
<g id="edge3" class="edge">
<title>Node2&#45;&gt;Node4</title>
<path fill="none" stroke="midnightblue" d="M2698.36,-176.78C2374.89,-175.47 849.61,-167.48 379,-132 375.91,-131.77 372.75,-131.49 369.56,-131.18"/>
<polygon fill="midnightblue" stroke="midnightblue" points="2698.46,-180.28 2708.47,-176.82 2698.49,-173.28 2698.46,-180.28"/>
</g>
<!-- Node5 -->
<g id="node5" class="node">
<title>Node5</title>
<g id="a_node5"><a xlink:href="../../d5/daf/btinstallthread_8cpp.html" target="_top" xlink:title=" ">
<polygon fill="white" stroke="black" points="388,-112.5 388,-131.5 496,-131.5 496,-112.5 388,-112.5"/>
<text text-anchor="middle" x="442" y="-119.5" font-family="Helvetica,sans-Serif" font-size="10.00">btinstallthread.cpp</text>
</a>
</g>
</g>
<!-- Node2&#45;&gt;Node5 -->
<g id="edge4" class="edge">
<title>Node2&#45;&gt;Node5</title>
<path fill="none" stroke="midnightblue" d="M2698.08,-176.79C2384.39,-175.55 948.84,-168 505,-132 502.14,-131.77 499.21,-131.49 496.25,-131.18"/>
<polygon fill="midnightblue" stroke="midnightblue" points="2698.32,-180.29 2708.33,-176.83 2698.35,-173.29 2698.32,-180.29"/>
</g>
<!-- Node6 -->
<g id="node6" class="node">
<title>Node6</title>
<g id="a_node6"><a xlink:href="../../de/d4e/btconfig_8cpp.html" target="_top" xlink:title=" ">
<polygon fill="white" stroke="black" points="514,-112.5 514,-131.5 590,-131.5 590,-112.5 514,-112.5"/>
<text text-anchor="middle" x="552" y="-119.5" font-family="Helvetica,sans-Serif" font-size="10.00">btconfig.cpp</text>
</a>
</g>
</g>
<!-- Node2&#45;&gt;Node6 -->
<g id="edge5" class="edge">
<title>Node2&#45;&gt;Node6</title>
<path fill="none" stroke="midnightblue" d="M2698.11,-177.12C2392.33,-177.49 1022.23,-176.61 599,-132 596.11,-131.7 593.13,-131.31 590.14,-130.86"/>
<polygon fill="midnightblue" stroke="midnightblue" points="2698.12,-180.62 2708.12,-177.1 2698.11,-173.62 2698.12,-180.62"/>
</g>
<!-- Node7 -->
<g id="node7" class="node">
<title>Node7</title>
<g id="a_node7"><a xlink:href="../../dd/d03/cswordmodulesearch_8cpp.html" target="_top" xlink:title=" ">
<polygon fill="white" stroke="black" points="608,-112.5 608,-131.5 748,-131.5 748,-112.5 608,-112.5"/>
<text text-anchor="middle" x="678" y="-119.5" font-family="Helvetica,sans-Serif" font-size="10.00">cswordmodulesearch.cpp</text>
</a>
</g>
</g>
<!-- Node2&#45;&gt;Node7 -->
<g id="edge6" class="edge">
<title>Node2&#45;&gt;Node7</title>
<path fill="none" stroke="midnightblue" d="M2697.99,-176.38C2405.91,-173.29 1148.44,-158.64 757,-132 754.11,-131.8 751.16,-131.58 748.18,-131.33"/>
<polygon fill="midnightblue" stroke="midnightblue" points="2698.34,-179.88 2708.38,-176.49 2698.41,-172.88 2698.34,-179.88"/>
</g>
<!-- Node8 -->
<g id="node8" class="node">
<title>Node8</title>
<g id="a_node8"><a xlink:href="../../d4/d94/cswordbiblemoduleinfo_8cpp.html" target="_top" xlink:title=" ">
<polygon fill="white" stroke="black" points="766.5,-112.5 766.5,-131.5 917.5,-131.5 917.5,-112.5 766.5,-112.5"/>
<text text-anchor="middle" x="842" y="-119.5" font-family="Helvetica,sans-Serif" font-size="10.00">cswordbiblemoduleinfo.cpp</text>
</a>
</g>
</g>
<!-- Node2&#45;&gt;Node8 -->
<g id="edge7" class="edge">
<title>Node2&#45;&gt;Node8</title>
<path fill="none" stroke="midnightblue" d="M2698.04,-177.32C2466.68,-178.15 1620.88,-177.68 926,-132 923.22,-131.82 920.39,-131.61 917.53,-131.39"/>
<polygon fill="midnightblue" stroke="midnightblue" points="2698.28,-180.82 2708.27,-177.28 2698.26,-173.82 2698.28,-180.82"/>
</g>
<!-- Node9 -->
<g id="node9" class="node">
<title>Node9</title>
<g id="a_node9"><a xlink:href="../../d3/db9/cswordmoduleinfo_8cpp.html" target="_top" xlink:title=" ">
<polygon fill="white" stroke="black" points="935.5,-112.5 935.5,-131.5 1062.5,-131.5 1062.5,-112.5 935.5,-112.5"/>
<text text-anchor="middle" x="999" y="-119.5" font-family="Helvetica,sans-Serif" font-size="10.00">cswordmoduleinfo.cpp</text>
</a>
</g>
</g>
<!-- Node2&#45;&gt;Node9 -->
<g id="edge8" class="edge">
<title>Node2&#45;&gt;Node9</title>
<path fill="none" stroke="midnightblue" d="M2698.12,-177.52C2478.4,-178.95 1705.86,-180.03 1071,-132 1068.24,-131.79 1065.42,-131.55 1062.57,-131.29"/>
<polygon fill="midnightblue" stroke="midnightblue" points="2698.18,-181.02 2708.16,-177.45 2698.13,-174.02 2698.18,-181.02"/>
</g>
<!-- Node2&#45;&gt;Node10 -->
<g id="edge9" class="edge">
<title>Node2&#45;&gt;Node10</title>
<path fill="none" stroke="midnightblue" d="M2698.44,-176.55C2326.61,-173.72 359.85,-157.64 93,-132 90.14,-131.72 87.19,-131.38 84.23,-130.98"/>
<polygon fill="midnightblue" stroke="midnightblue" points="2698.44,-180.05 2708.46,-176.63 2698.49,-173.05 2698.44,-180.05"/>
</g>
<!-- Node11 -->
<g id="node11" class="node">
<title>Node11</title>
<g id="a_node11"><a xlink:href="../../db/d7a/osistohtml_8cpp.html" target="_top" xlink:title=" ">
<polygon fill="white" stroke="black" points="1080.5,-112.5 1080.5,-131.5 1169.5,-131.5 1169.5,-112.5 1080.5,-112.5"/>
<text text-anchor="middle" x="1125" y="-119.5" font-family="Helvetica,sans-Serif" font-size="10.00">osistohtml.cpp</text>
</a>
</g>
</g>
<!-- Node2&#45;&gt;Node11 -->
<g id="edge10" class="edge">
<title>Node2&#45;&gt;Node11</title>
<path fill="none" stroke="midnightblue" d="M2698.16,-176.38C2445.98,-173.64 1481.9,-161.42 1179,-132 1175.97,-131.71 1172.86,-131.34 1169.73,-130.94"/>
<polygon fill="midnightblue" stroke="midnightblue" points="2698.19,-179.88 2708.23,-176.49 2698.27,-172.88 2698.19,-179.88"/>
</g>
<!-- Node12 -->
<g id="node12" class="node">
<title>Node12</title>
<g id="a_node12"><a xlink:href="../../d5/de5/teitohtml_8cpp.html" target="_top" xlink:title=" ">
<polygon fill="white" stroke="black" points="1188,-112.5 1188,-131.5 1270,-131.5 1270,-112.5 1188,-112.5"/>
<text text-anchor="middle" x="1229" y="-119.5" font-family="Helvetica,sans-Serif" font-size="10.00">teitohtml.cpp</text>
</a>
</g>
</g>
<!-- Node2&#45;&gt;Node12 -->
<g id="edge11" class="edge">
<title>Node2&#45;&gt;Node12</title>
<path fill="none" stroke="midnightblue" d="M2698.45,-176.35C2456.83,-173.59 1561.14,-161.52 1279,-132 1276.11,-131.7 1273.13,-131.32 1270.13,-130.9"/>
<polygon fill="midnightblue" stroke="midnightblue" points="2698.41,-179.85 2708.45,-176.47 2698.49,-172.85 2698.41,-179.85"/>
</g>
<!-- Node13 -->
<g id="node13" class="node">
<title>Node13</title>
<g id="a_node13"><a xlink:href="../../d9/de8/thmltohtml_8cpp.html" target="_top" xlink:title=" ">
<polygon fill="white" stroke="black" points="1288,-112.5 1288,-131.5 1380,-131.5 1380,-112.5 1288,-112.5"/>
<text text-anchor="middle" x="1334" y="-119.5" font-family="Helvetica,sans-Serif" font-size="10.00">thmltohtml.cpp</text>
</a>
</g>
</g>
<!-- Node2&#45;&gt;Node13 -->
<g id="edge12" class="edge">
<title>Node2&#45;&gt;Node13</title>
<path fill="none" stroke="midnightblue" d="M2698.09,-176.05C2467.56,-172.28 1648.5,-157.39 1389,-132 1386.11,-131.72 1383.14,-131.38 1380.16,-131"/>
<polygon fill="midnightblue" stroke="midnightblue" points="2698.24,-179.55 2708.3,-176.21 2698.35,-172.55 2698.24,-179.55"/>
</g>
<!-- Node14 -->
<g id="node14" class="node">
<title>Node14</title>
<g id="a_node14"><a xlink:href="../../d4/d47/cdisplaytemplatemgr_8cpp.html" target="_top" xlink:title=" ">
<polygon fill="white" stroke="black" points="1398,-112.5 1398,-131.5 1538,-131.5 1538,-112.5 1398,-112.5"/>
<text text-anchor="middle" x="1468" y="-119.5" font-family="Helvetica,sans-Serif" font-size="10.00">cdisplaytemplatemgr.cpp</text>
</a>
</g>
</g>
<!-- Node2&#45;&gt;Node14 -->
<g id="edge13" class="edge">
<title>Node2&#45;&gt;Node14</title>
<path fill="none" stroke="midnightblue" d="M2698.23,-176.38C2520.74,-174.23 1987.81,-165.24 1547,-132 1544.11,-131.78 1541.16,-131.54 1538.18,-131.28"/>
<polygon fill="midnightblue" stroke="midnightblue" points="2698.37,-179.88 2708.41,-176.5 2698.45,-172.88 2698.37,-179.88"/>
</g>
<!-- Node15 -->
<g id="node15" class="node">
<title>Node15</title>
<g id="a_node15"><a xlink:href="../../d9/d7b/cswordbackend_8cpp.html" target="_top" xlink:title=" ">
<polygon fill="white" stroke="black" points="1556,-112.5 1556,-131.5 1668,-131.5 1668,-112.5 1556,-112.5"/>
<text text-anchor="middle" x="1612" y="-119.5" font-family="Helvetica,sans-Serif" font-size="10.00">cswordbackend.cpp</text>
</a>
</g>
</g>
<!-- Node2&#45;&gt;Node15 -->
<g id="edge14" class="edge">
<title>Node2&#45;&gt;Node15</title>
<path fill="none" stroke="midnightblue" d="M2698.04,-176.51C2533.18,-174.76 2064.77,-166.83 1677,-132 1674.16,-131.75 1671.26,-131.45 1668.33,-131.14"/>
<polygon fill="midnightblue" stroke="midnightblue" points="2698.42,-180.02 2708.46,-176.62 2698.5,-173.02 2698.42,-180.02"/>
</g>
<!-- Node16 -->
<g id="node16" class="node">
<title>Node16</title>
<g id="a_node16"><a xlink:href="../../d7/dfe/referencemanager_8cpp.html" target="_top" xlink:title=" ">
<polygon fill="white" stroke="black" points="1686,-112.5 1686,-131.5 1812,-131.5 1812,-112.5 1686,-112.5"/>
<text text-anchor="middle" x="1749" y="-119.5" font-family="Helvetica,sans-Serif" font-size="10.00">referencemanager.cpp</text>
</a>
</g>
</g>
<!-- Node2&#45;&gt;Node16 -->
<g id="edge15" class="edge">
<title>Node2&#45;&gt;Node16</title>
<path fill="none" stroke="midnightblue" d="M2697.98,-175.69C2548.31,-172.11 2151.13,-160.51 1821,-132 1818.11,-131.75 1815.16,-131.47 1812.19,-131.18"/>
<polygon fill="midnightblue" stroke="midnightblue" points="2698.24,-179.19 2708.32,-175.93 2698.41,-172.2 2698.24,-179.19"/>
</g>
<!-- Node17 -->
<g id="node17" class="node">
<title>Node17</title>
<g id="a_node17"><a xlink:href="../../de/d93/btmoduletextmodel_8cpp.html" target="_top" xlink:title=" ">
<polygon fill="white" stroke="black" points="1830,-112.5 1830,-131.5 1964,-131.5 1964,-112.5 1830,-112.5"/>
<text text-anchor="middle" x="1897" y="-119.5" font-family="Helvetica,sans-Serif" font-size="10.00">btmoduletextmodel.cpp</text>
</a>
</g>
</g>
<!-- Node2&#45;&gt;Node17 -->
<g id="edge16" class="edge">
<title>Node2&#45;&gt;Node17</title>
<path fill="none" stroke="midnightblue" d="M2698.03,-174.77C2565.79,-169.66 2242.78,-155.67 1973,-132 1970.09,-131.74 1967.12,-131.47 1964.11,-131.17"/>
<polygon fill="midnightblue" stroke="midnightblue" points="2698.22,-178.28 2708.35,-175.17 2698.49,-171.29 2698.22,-178.28"/>
</g>
<!-- Node18 -->
<g id="node18" class="node">
<title>Node18</title>
<g id="a_node18"><a xlink:href="../../da/d1a/btinforendering_8cpp.html" target="_top" xlink:title=" ">
<polygon fill="white" stroke="black" points="1982,-112.5 1982,-131.5 2094,-131.5 2094,-112.5 1982,-112.5"/>
<text text-anchor="middle" x="2038" y="-119.5" font-family="Helvetica,sans-Serif" font-size="10.00">btinforendering.cpp</text>
</a>
</g>
</g>
<!-- Node2&#45;&gt;Node18 -->
<g id="edge17" class="edge">
<title>Node2&#45;&gt;Node18</title>
<path fill="none" stroke="midnightblue" d="M2698.18,-174.23C2582.21,-168.65 2321.52,-154.6 2103,-132 2100.17,-131.71 2097.27,-131.39 2094.34,-131.04"/>
<polygon fill="midnightblue" stroke="midnightblue" points="2698.12,-177.74 2708.28,-174.72 2698.46,-170.74 2698.12,-177.74"/>
</g>
<!-- Node19 -->
<g id="node19" class="node">
<title>Node19</title>
<g id="a_node19"><a xlink:href="../../db/d72/ctextrendering_8cpp.html" target="_top" xlink:title=" ">
<polygon fill="white" stroke="black" points="2112,-112.5 2112,-131.5 2220,-131.5 2220,-112.5 2112,-112.5"/>
<text text-anchor="middle" x="2166" y="-119.5" font-family="Helvetica,sans-Serif" font-size="10.00">ctextrendering.cpp</text>
</a>
</g>
</g>
<!-- Node2&#45;&gt;Node19 -->
<g id="edge18" class="edge">
<title>Node2&#45;&gt;Node19</title>
<path fill="none" stroke="midnightblue" d="M2698.24,-172.71C2600.36,-165.58 2401.76,-150.28 2234,-132 2229.5,-131.51 2224.84,-130.97 2220.16,-130.4"/>
<polygon fill="midnightblue" stroke="midnightblue" points="2698.02,-176.2 2708.24,-173.43 2698.52,-169.22 2698.02,-176.2"/>
</g>
<!-- Node20 -->
<g id="node20" class="node">
<title>Node20</title>
<g id="a_node20"><a xlink:href="../../d5/d2b/cdisplaywindow_8h.html" target="_top" xlink:title=" ">
<polygon fill="white" stroke="red" points="2276.5,-112.5 2276.5,-131.5 2379.5,-131.5 2379.5,-112.5 2276.5,-112.5"/>
<text text-anchor="middle" x="2328" y="-119.5" font-family="Helvetica,sans-Serif" font-size="10.00">cdisplaywindow.h</text>
</a>
</g>
</g>
<!-- Node2&#45;&gt;Node20 -->
<g id="edge19" class="edge">
<title>Node2&#45;&gt;Node20</title>
<path fill="none" stroke="midnightblue" d="M2698.19,-169.74C2625.71,-161.04 2500.97,-145.89 2394,-132 2389.3,-131.39 2384.41,-130.74 2379.51,-130.09"/>
<polygon fill="midnightblue" stroke="midnightblue" points="2698.15,-173.27 2708.49,-170.98 2698.98,-166.31 2698.15,-173.27"/>
</g>
<!-- Node29 -->
<g id="node21" class="node">
<title>Node29</title>
<g id="a_node21"><a xlink:href="../../d5/d06/clexiconreadwindow_8h.html" target="_top" xlink:title=" ">
<polygon fill="white" stroke="red" points="2168.5,-56.5 2168.5,-75.5 2293.5,-75.5 2293.5,-56.5 2168.5,-56.5"/>
<text text-anchor="middle" x="2231" y="-63.5" font-family="Helvetica,sans-Serif" font-size="10.00">clexiconreadwindow.h</text>
</a>
</g>
</g>
<!-- Node2&#45;&gt;Node29 -->
<g id="edge23" class="edge">
<title>Node2&#45;&gt;Node29</title>
<path fill="none" stroke="midnightblue" d="M2698.21,-174.61C2574.56,-169.28 2302.37,-155.08 2267,-132 2246.69,-118.75 2236.79,-89.9 2232.97,-75.52"/>
<polygon fill="midnightblue" stroke="midnightblue" points="2698.14,-178.11 2708.28,-175.03 2698.44,-171.11 2698.14,-178.11"/>
</g>
<!-- Node30 -->
<g id="node22" class="node">
<title>Node30</title>
<g id="a_node22"><a xlink:href="../../d8/d19/clexiconreadwindow_8cpp.html" target="_top" xlink:title=" ">
<polygon fill="white" stroke="black" points="2270,-0.5 2270,-19.5 2406,-19.5 2406,-0.5 2270,-0.5"/>
<text text-anchor="middle" x="2338" y="-7.5" font-family="Helvetica,sans-Serif" font-size="10.00">clexiconreadwindow.cpp</text>
</a>
</g>
</g>
<!-- Node2&#45;&gt;Node30 -->
<g id="edge45" class="edge">
<title>Node2&#45;&gt;Node30</title>
<path fill="none" stroke="midnightblue" d="M2698.16,-174.2C2623.16,-169.65 2501.18,-158.35 2465,-132 2434.47,-109.77 2453.64,-82.76 2427,-56 2409.78,-38.7 2384.53,-26.8 2365.32,-19.61"/>
<polygon fill="midnightblue" stroke="midnightblue" points="2698.23,-177.71 2708.42,-174.79 2698.64,-170.72 2698.23,-177.71"/>
</g>
<!-- Node35 -->
<g id="node23" class="node">
<title>Node35</title>
<g id="a_node23"><a xlink:href="../../d9/d0c/btquickwidget_8cpp.html" target="_top" xlink:title=" ">
<polygon fill="white" stroke="black" points="2312,-56.5 2312,-75.5 2418,-75.5 2418,-56.5 2312,-56.5"/>
<text text-anchor="middle" x="2365" y="-63.5" font-family="Helvetica,sans-Serif" font-size="10.00">btquickwidget.cpp</text>
</a>
</g>
</g>
<!-- Node2&#45;&gt;Node35 -->
<g id="edge41" class="edge">
<title>Node2&#45;&gt;Node35</title>
<path fill="none" stroke="midnightblue" d="M2698.39,-173.18C2617.1,-167.29 2477.7,-154.27 2432,-132 2404.9,-118.79 2381.81,-90.46 2371.21,-75.96"/>
<polygon fill="midnightblue" stroke="midnightblue" points="2698.27,-176.68 2708.49,-173.89 2698.76,-169.7 2698.27,-176.68"/>
</g>
<!-- Node39 -->
<g id="node24" class="node">
<title>Node39</title>
<g id="a_node24"><a xlink:href="../../d9/d67/csearchdialog_8h.html" target="_top" xlink:title=" ">
<polygon fill="white" stroke="red" points="2474.5,-112.5 2474.5,-131.5 2567.5,-131.5 2567.5,-112.5 2474.5,-112.5"/>
<text text-anchor="middle" x="2521" y="-119.5" font-family="Helvetica,sans-Serif" font-size="10.00">csearchdialog.h</text>
</a>
</g>
</g>
<!-- Node2&#45;&gt;Node39 -->
<g id="edge24" class="edge">
<title>Node2&#45;&gt;Node39</title>
<path fill="none" stroke="midnightblue" d="M2711.48,-166.22C2666.5,-156.01 2599.9,-140.9 2558.54,-131.52"/>
<polygon fill="midnightblue" stroke="midnightblue" points="2710.76,-169.64 2721.29,-168.44 2712.31,-162.82 2710.76,-169.64"/>
</g>
<!-- Node42 -->
<g id="node25" class="node">
<title>Node42</title>
<g id="a_node25"><a xlink:href="../../da/dc7/bibletime__init_8cpp.html" target="_top" xlink:title=" ">
<polygon fill="white" stroke="black" points="2586,-112.5 2586,-131.5 2690,-131.5 2690,-112.5 2586,-112.5"/>
<text text-anchor="middle" x="2638" y="-119.5" font-family="Helvetica,sans-Serif" font-size="10.00">bibletime_init.cpp</text>
</a>
</g>
</g>
<!-- Node2&#45;&gt;Node42 -->
<g id="edge25" class="edge">
<title>Node2&#45;&gt;Node42</title>
<path fill="none" stroke="midnightblue" d="M2730.69,-164.37C2708.03,-154.26 2676.87,-140.35 2657.08,-131.52"/>
<polygon fill="midnightblue" stroke="midnightblue" points="2729.27,-167.56 2739.83,-168.44 2732.12,-161.17 2729.27,-167.56"/>
</g>
<!-- Node43 -->
<g id="node26" class="node">
<title>Node43</title>
<g id="a_node26"><a xlink:href="../../d5/d86/bibletimeapp_8cpp.html" target="_top" xlink:title=" ">
<polygon fill="white" stroke="black" points="2708.5,-112.5 2708.5,-131.5 2809.5,-131.5 2809.5,-112.5 2708.5,-112.5"/>
<text text-anchor="middle" x="2759" y="-119.5" font-family="Helvetica,sans-Serif" font-size="10.00">bibletimeapp.cpp</text>
</a>
</g>
</g>
<!-- Node2&#45;&gt;Node43 -->
<g id="edge26" class="edge">
<title>Node2&#45;&gt;Node43</title>
<path fill="none" stroke="midnightblue" d="M2759,-157.8C2759,-148.91 2759,-138.78 2759,-131.75"/>
<polygon fill="midnightblue" stroke="midnightblue" points="2755.5,-158.08 2759,-168.08 2762.5,-158.08 2755.5,-158.08"/>
</g>
<!-- Node44 -->
<g id="node27" class="node">
<title>Node44</title>
<g id="a_node27"><a xlink:href="../../dd/dcb/btprinter_8h.html" target="_top" xlink:title=" ">
<polygon fill="white" stroke="red" points="2827.5,-112.5 2827.5,-131.5 2894.5,-131.5 2894.5,-112.5 2827.5,-112.5"/>
<text text-anchor="middle" x="2861" y="-119.5" font-family="Helvetica,sans-Serif" font-size="10.00">btprinter.h</text>
</a>
</g>
</g>
<!-- Node2&#45;&gt;Node44 -->
<g id="edge27" class="edge">
<title>Node2&#45;&gt;Node44</title>
<path fill="none" stroke="midnightblue" d="M2784.33,-163.59C2803.19,-153.61 2828.38,-140.27 2844.65,-131.65"/>
<polygon fill="midnightblue" stroke="midnightblue" points="2782.59,-160.55 2775.39,-168.32 2785.86,-166.74 2782.59,-160.55"/>
</g>
<!-- Node47 -->
<g id="node28" class="node">
<title>Node47</title>
<g id="a_node28"><a xlink:href="../../dc/d04/btbookshelfinstallfinalpage_8cpp.html" target="_top" xlink:title=" ">
<polygon fill="white" stroke="black" points="2912.5,-112.5 2912.5,-131.5 3081.5,-131.5 3081.5,-112.5 2912.5,-112.5"/>
<text text-anchor="middle" x="2997" y="-119.5" font-family="Helvetica,sans-Serif" font-size="10.00">btbookshelfinstallfinalpage.cpp</text>
</a>
</g>
</g>
<!-- Node2&#45;&gt;Node47 -->
<g id="edge28" class="edge">
<title>Node2&#45;&gt;Node47</title>
<path fill="none" stroke="midnightblue" d="M2806.52,-166.22C2851.5,-156.01 2918.1,-140.9 2959.46,-131.52"/>
<polygon fill="midnightblue" stroke="midnightblue" points="2805.69,-162.82 2796.71,-168.44 2807.24,-169.64 2805.69,-162.82"/>
</g>
<!-- Node48 -->
<g id="node29" class="node">
<title>Node48</title>
<g id="a_node29"><a xlink:href="../../d0/da5/btbookshelflanguagespage_8cpp.html" target="_top" xlink:title=" ">
<polygon fill="white" stroke="black" points="3099,-112.5 3099,-131.5 3267,-131.5 3267,-112.5 3099,-112.5"/>
<text text-anchor="middle" x="3183" y="-119.5" font-family="Helvetica,sans-Serif" font-size="10.00">btbookshelflanguagespage.cpp</text>
</a>
</g>
</g>
<!-- Node2&#45;&gt;Node48 -->
<g id="edge29" class="edge">
<title>Node2&#45;&gt;Node48</title>
<path fill="none" stroke="midnightblue" d="M2819.95,-169.24C2898.56,-159.23 3034.82,-141.87 3116.19,-131.51"/>
<polygon fill="midnightblue" stroke="midnightblue" points="2819.2,-165.8 2809.72,-170.54 2820.09,-172.75 2819.2,-165.8"/>
</g>
<!-- Node49 -->
<g id="node30" class="node">
<title>Node49</title>
<g id="a_node30"><a xlink:href="../../d0/da0/btbookshelfremovefinalpage_8cpp.html" target="_top" xlink:title=" ">
<polygon fill="white" stroke="black" points="3284.5,-112.5 3284.5,-131.5 3461.5,-131.5 3461.5,-112.5 3284.5,-112.5"/>
<text text-anchor="middle" x="3373" y="-119.5" font-family="Helvetica,sans-Serif" font-size="10.00">btbookshelfremovefinalpage.cpp</text>
</a>
</g>
</g>
<!-- Node2&#45;&gt;Node49 -->
<g id="edge30" class="edge">
<title>Node2&#45;&gt;Node49</title>
<path fill="none" stroke="midnightblue" d="M2819.81,-171.82C2916.46,-163.56 3111.07,-146.83 3276,-132 3278.78,-131.75 3281.6,-131.5 3284.45,-131.24"/>
<polygon fill="midnightblue" stroke="midnightblue" points="2819.31,-168.35 2809.64,-172.69 2819.91,-175.32 2819.31,-168.35"/>
</g>
<!-- Node50 -->
<g id="node31" class="node">
<title>Node50</title>
<g id="a_node31"><a xlink:href="../../de/db2/btbookshelftaskpage_8cpp.html" target="_top" xlink:title=" ">
<polygon fill="white" stroke="black" points="3479.5,-112.5 3479.5,-131.5 3618.5,-131.5 3618.5,-112.5 3479.5,-112.5"/>
<text text-anchor="middle" x="3549" y="-119.5" font-family="Helvetica,sans-Serif" font-size="10.00">btbookshelftaskpage.cpp</text>
</a>
</g>
</g>
<!-- Node2&#45;&gt;Node50 -->
<g id="edge31" class="edge">
<title>Node2&#45;&gt;Node50</title>
<path fill="none" stroke="midnightblue" d="M2820.28,-174.16C2943.5,-168.22 3229.97,-153.25 3470,-132 3473.03,-131.73 3476.11,-131.44 3479.23,-131.14"/>
<polygon fill="midnightblue" stroke="midnightblue" points="2819.75,-170.68 2809.93,-174.66 2820.09,-177.67 2819.75,-170.68"/>
</g>
<!-- Node51 -->
<g id="node32" class="node">
<title>Node51</title>
<g id="a_node32"><a xlink:href="../../d6/d8d/btbookshelfworkspage_8h.html" target="_top" xlink:title=" ">
<polygon fill="white" stroke="red" points="3637,-112.5 3637,-131.5 3773,-131.5 3773,-112.5 3637,-112.5"/>
<text text-anchor="middle" x="3705" y="-119.5" font-family="Helvetica,sans-Serif" font-size="10.00">btbookshelfworkspage.h</text>
</a>
</g>
</g>
<!-- Node2&#45;&gt;Node51 -->
<g id="edge32" class="edge">
<title>Node2&#45;&gt;Node51</title>
<path fill="none" stroke="midnightblue" d="M2820.19,-175.16C2962.14,-170.59 3324.79,-157.24 3627,-132 3630.26,-131.73 3633.59,-131.43 3636.96,-131.11"/>
<polygon fill="midnightblue" stroke="midnightblue" points="2819.83,-171.66 2809.95,-175.48 2820.06,-178.66 2819.83,-171.66"/>
</g>
<!-- Node53 -->
<g id="node33" class="node">
<title>Node53</title>
<g id="a_node33"><a xlink:href="../../d9/d03/btbookshelfworkspage_8cpp.html" target="_top" xlink:title=" ">
<polygon fill="white" stroke="black" points="3679.5,-56.5 3679.5,-75.5 3826.5,-75.5 3826.5,-56.5 3679.5,-56.5"/>
<text text-anchor="middle" x="3753" y="-63.5" font-family="Helvetica,sans-Serif" font-size="10.00">btbookshelfworkspage.cpp</text>
</a>
</g>
</g>
<!-- Node2&#45;&gt;Node53 -->
<g id="edge34" class="edge">
<title>Node2&#45;&gt;Node53</title>
<path fill="none" stroke="midnightblue" d="M2819.73,-176.62C3034.72,-174.97 3748.61,-166.89 3782,-132 3797.72,-115.57 3775.86,-89.18 3762.32,-75.63"/>
<polygon fill="midnightblue" stroke="midnightblue" points="2819.55,-173.12 2809.57,-176.69 2819.6,-180.12 2819.55,-173.12"/>
</g>
<!-- Node54 -->
<g id="node34" class="node">
<title>Node54</title>
<g id="a_node34"><a xlink:href="../../dd/dba/btinstallpagemodel_8cpp.html" target="_top" xlink:title=" ">
<polygon fill="white" stroke="black" points="3829.5,-112.5 3829.5,-131.5 3960.5,-131.5 3960.5,-112.5 3829.5,-112.5"/>
<text text-anchor="middle" x="3895" y="-119.5" font-family="Helvetica,sans-Serif" font-size="10.00">btinstallpagemodel.cpp</text>
</a>
</g>
</g>
<!-- Node2&#45;&gt;Node54 -->
<g id="edge35" class="edge">
<title>Node2&#45;&gt;Node54</title>
<path fill="none" stroke="midnightblue" d="M2819.88,-175.88C2981.94,-172.59 3437.27,-161.26 3815,-132 3819.6,-131.64 3824.34,-131.23 3829.11,-130.78"/>
<polygon fill="midnightblue" stroke="midnightblue" points="2819.56,-172.39 2809.63,-176.09 2819.7,-179.39 2819.56,-172.39"/>
</g>
<!-- Node55 -->
<g id="node35" class="node">
<title>Node55</title>
<g id="a_node35"><a xlink:href="../../df/d88/btbookshelfdockwidget_8cpp.html" target="_top" xlink:title=" ">
<polygon fill="white" stroke="black" points="3978.5,-112.5 3978.5,-131.5 4129.5,-131.5 4129.5,-112.5 3978.5,-112.5"/>
<text text-anchor="middle" x="4054" y="-119.5" font-family="Helvetica,sans-Serif" font-size="10.00">btbookshelfdockwidget.cpp</text>
</a>
</g>
</g>
<!-- Node2&#45;&gt;Node55 -->
<g id="edge36" class="edge">
<title>Node2&#45;&gt;Node55</title>
<path fill="none" stroke="midnightblue" d="M2819.97,-176.2C2997.44,-173.57 3529.05,-163.44 3969,-132 3972.11,-131.78 3975.28,-131.53 3978.48,-131.27"/>
<polygon fill="midnightblue" stroke="midnightblue" points="2819.73,-172.71 2809.79,-176.35 2819.84,-179.71 2819.73,-172.71"/>
</g>
<!-- Node56 -->
<g id="node36" class="node">
<title>Node56</title>
<g id="a_node36"><a xlink:href="../../dc/dc2/btmoduleindexdialog_8cpp.html" target="_top" xlink:title=" ">
<polygon fill="white" stroke="black" points="4148,-112.5 4148,-131.5 4288,-131.5 4288,-112.5 4148,-112.5"/>
<text text-anchor="middle" x="4218" y="-119.5" font-family="Helvetica,sans-Serif" font-size="10.00">btmoduleindexdialog.cpp</text>
</a>
</g>
</g>
<!-- Node2&#45;&gt;Node56 -->
<g id="edge37" class="edge">
<title>Node2&#45;&gt;Node56</title>
<path fill="none" stroke="midnightblue" d="M2820.03,-176.74C3013.36,-175.53 3629.52,-168.84 4138,-132 4141.21,-131.77 4144.48,-131.5 4147.79,-131.22"/>
<polygon fill="midnightblue" stroke="midnightblue" points="2819.77,-173.24 2809.79,-176.8 2819.81,-180.24 2819.77,-173.24"/>
</g>
<!-- Node57 -->
<g id="node37" class="node">
<title>Node57</title>
<g id="a_node37"><a xlink:href="../../d9/d62/btopenworkaction_8cpp.html" target="_top" xlink:title=" ">
<polygon fill="white" stroke="black" points="4306,-112.5 4306,-131.5 4430,-131.5 4430,-112.5 4306,-112.5"/>
<text text-anchor="middle" x="4368" y="-119.5" font-family="Helvetica,sans-Serif" font-size="10.00">btopenworkaction.cpp</text>
</a>
</g>
</g>
<!-- Node2&#45;&gt;Node57 -->
<g id="edge38" class="edge">
<title>Node2&#45;&gt;Node57</title>
<path fill="none" stroke="midnightblue" d="M2819.6,-177.33C3026.42,-178.02 3723.44,-176.64 4297,-132 4299.85,-131.78 4302.76,-131.52 4305.7,-131.24"/>
<polygon fill="midnightblue" stroke="midnightblue" points="2819.56,-173.83 2809.55,-177.3 2819.53,-180.83 2819.56,-173.83"/>
</g>
<!-- Node58 -->
<g id="node38" class="node">
<title>Node58</title>
<g id="a_node38"><a xlink:href="../../d4/d3a/bttextbrowser_8cpp.html" target="_top" xlink:title=" ">
<polygon fill="white" stroke="black" points="4448,-112.5 4448,-131.5 4552,-131.5 4552,-112.5 4448,-112.5"/>
<text text-anchor="middle" x="4500" y="-119.5" font-family="Helvetica,sans-Serif" font-size="10.00">bttextbrowser.cpp</text>
</a>
</g>
</g>
<!-- Node2&#45;&gt;Node58 -->
<g id="edge39" class="edge">
<title>Node2&#45;&gt;Node58</title>
<path fill="none" stroke="midnightblue" d="M2819.76,-176.35C3081.6,-173.39 4115.04,-160.14 4439,-132 4441.88,-131.75 4444.83,-131.45 4447.8,-131.12"/>
<polygon fill="midnightblue" stroke="midnightblue" points="2819.64,-172.85 2809.68,-176.46 2819.72,-179.85 2819.64,-172.85"/>
</g>
<!-- Node59 -->
<g id="node39" class="node">
<title>Node59</title>
<g id="a_node39"><a xlink:href="../../de/d6e/btqmlinterface_8cpp.html" target="_top" xlink:title=" ">
<polygon fill="white" stroke="black" points="4570.5,-112.5 4570.5,-131.5 4679.5,-131.5 4679.5,-112.5 4570.5,-112.5"/>
<text text-anchor="middle" x="4625" y="-119.5" font-family="Helvetica,sans-Serif" font-size="10.00">btqmlinterface.cpp</text>
</a>
</g>
</g>
<!-- Node2&#45;&gt;Node59 -->
<g id="edge40" class="edge">
<title>Node2&#45;&gt;Node59</title>
<path fill="none" stroke="midnightblue" d="M2819.62,-176.42C3092.84,-173.67 4211.51,-160.84 4561,-132 4564.02,-131.75 4567.11,-131.45 4570.23,-131.12"/>
<polygon fill="midnightblue" stroke="midnightblue" points="2819.47,-172.92 2809.51,-176.52 2819.54,-179.92 2819.47,-172.92"/>
</g>
<!-- Node60 -->
<g id="node40" class="node">
<title>Node60</title>
<g id="a_node40"><a xlink:href="../../d7/df1/btmodulechooserbutton_8cpp.html" target="_top" xlink:title=" ">
<polygon fill="white" stroke="black" points="4697.5,-112.5 4697.5,-131.5 4850.5,-131.5 4850.5,-112.5 4697.5,-112.5"/>
<text text-anchor="middle" x="4774" y="-119.5" font-family="Helvetica,sans-Serif" font-size="10.00">btmodulechooserbutton.cpp</text>
</a>
</g>
</g>
<!-- Node2&#45;&gt;Node60 -->
<g id="edge42" class="edge">
<title>Node2&#45;&gt;Node60</title>
<path fill="none" stroke="midnightblue" d="M2819.94,-177.37C3058.7,-178.45 3953.42,-178.93 4688,-132 4691,-131.81 4694.05,-131.59 4697.13,-131.36"/>
<polygon fill="midnightblue" stroke="midnightblue" points="2819.75,-173.87 2809.73,-177.32 2819.72,-180.87 2819.75,-173.87"/>
</g>
<!-- Node61 -->
<g id="node41" class="node">
<title>Node61</title>
<g id="a_node41"><a xlink:href="../../dd/ddc/btmodulechoosermenu_8cpp.html" target="_top" xlink:title=" ">
<polygon fill="white" stroke="black" points="4868.5,-112.5 4868.5,-131.5 5017.5,-131.5 5017.5,-112.5 4868.5,-112.5"/>
<text text-anchor="middle" x="4943" y="-119.5" font-family="Helvetica,sans-Serif" font-size="10.00">btmodulechoosermenu.cpp</text>
</a>
</g>
</g>
<!-- Node2&#45;&gt;Node61 -->
<g id="edge43" class="edge">
<title>Node2&#45;&gt;Node61</title>
<path fill="none" stroke="midnightblue" d="M2820.05,-176.4C3120.82,-173.31 4446.97,-158.44 4859,-132 4862.07,-131.8 4865.21,-131.58 4868.37,-131.33"/>
<polygon fill="midnightblue" stroke="midnightblue" points="2819.75,-172.9 2809.79,-176.5 2819.82,-179.9 2819.75,-172.9"/>
</g>
<!-- Node62 -->
<g id="node42" class="node">
<title>Node62</title>
<g id="a_node42"><a xlink:href="../../dc/da2/bttextwindowheaderwidget_8cpp.html" target="_top" xlink:title=" ">
<polygon fill="white" stroke="black" points="5036,-112.5 5036,-131.5 5206,-131.5 5206,-112.5 5036,-112.5"/>
<text text-anchor="middle" x="5121" y="-119.5" font-family="Helvetica,sans-Serif" font-size="10.00">bttextwindowheaderwidget.cpp</text>
</a>
</g>
</g>
<!-- Node2&#45;&gt;Node62 -->
<g id="edge44" class="edge">
<title>Node2&#45;&gt;Node62</title>
<path fill="none" stroke="midnightblue" d="M2820.24,-176.4C3135.61,-173.24 4578.87,-157.58 5026,-132 5029.23,-131.82 5032.51,-131.61 5035.83,-131.38"/>
<polygon fill="midnightblue" stroke="midnightblue" points="2819.9,-172.91 2809.94,-176.51 2819.97,-179.91 2819.9,-172.91"/>
</g>
<!-- Node63 -->
<g id="node43" class="node">
<title>Node63</title>
<g id="a_node43"><a xlink:href="../../df/d0a/main_8cpp.html" target="_top" xlink:title=" ">
<polygon fill="white" stroke="black" points="5224,-112.5 5224,-131.5 5286,-131.5 5286,-112.5 5224,-112.5"/>
<text text-anchor="middle" x="5255" y="-119.5" font-family="Helvetica,sans-Serif" font-size="10.00">main.cpp</text>
</a>
</g>
</g>
<!-- Node2&#45;&gt;Node63 -->
<g id="edge46" class="edge">
<title>Node2&#45;&gt;Node63</title>
<path fill="none" stroke="midnightblue" d="M2819.81,-176.62C3174.7,-174.34 4970.97,-161.38 5215,-132 5217.83,-131.66 5220.75,-131.21 5223.66,-130.68"/>
<polygon fill="midnightblue" stroke="midnightblue" points="2819.71,-173.13 2809.73,-176.69 2819.75,-180.13 2819.71,-173.13"/>
</g>
<!-- Node64 -->
<g id="node44" class="node">
<title>Node64</title>
<g id="a_node44"><a xlink:href="../../d4/d57/btindexdialog_8cpp.html" target="_top" xlink:title=" ">
<polygon fill="white" stroke="black" points="5304,-112.5 5304,-131.5 5408,-131.5 5408,-112.5 5304,-112.5"/>
<text text-anchor="middle" x="5356" y="-119.5" font-family="Helvetica,sans-Serif" font-size="10.00">btindexdialog.cpp</text>
</a>
</g>
</g>
<!-- Node2&#45;&gt;Node64 -->
<g id="edge47" class="edge">
<title>Node2&#45;&gt;Node64</title>
<path fill="none" stroke="midnightblue" d="M2819.53,-176.98C3155.28,-176.74 4791.82,-173.41 5295,-132 5297.88,-131.76 5300.83,-131.48 5303.81,-131.15"/>
<polygon fill="midnightblue" stroke="midnightblue" points="2819.52,-173.48 2809.52,-176.99 2819.52,-180.48 2819.52,-173.48"/>
</g>
<!-- Node65 -->
<g id="node45" class="node">
<title>Node65</title>
<g id="a_node45"><a xlink:href="../../dc/dab/btsearchmodulechooserdialog_8cpp.html" target="_top" xlink:title=" ">
<polygon fill="white" stroke="black" points="5426,-112.5 5426,-131.5 5610,-131.5 5610,-112.5 5426,-112.5"/>
<text text-anchor="middle" x="5518" y="-119.5" font-family="Helvetica,sans-Serif" font-size="10.00">btsearchmodulechooserdialog.cpp</text>
</a>
</g>
</g>
<!-- Node2&#45;&gt;Node65 -->
<g id="edge48" class="edge">
<title>Node2&#45;&gt;Node65</title>
<path fill="none" stroke="midnightblue" d="M2819.62,-176.57C3164.95,-174.02 4887.16,-160.06 5417,-132 5419.9,-131.85 5422.85,-131.68 5425.82,-131.49"/>
<polygon fill="midnightblue" stroke="midnightblue" points="2819.54,-173.07 2809.57,-176.64 2819.59,-180.07 2819.54,-173.07"/>
</g>
<!-- Node66 -->
<g id="node46" class="node">
<title>Node66</title>
<g id="a_node46"><a xlink:href="../../d4/d4d/btsearchoptionsarea_8cpp.html" target="_top" xlink:title=" ">
<polygon fill="white" stroke="black" points="5628.5,-112.5 5628.5,-131.5 5765.5,-131.5 5765.5,-112.5 5628.5,-112.5"/>
<text text-anchor="middle" x="5697" y="-119.5" font-family="Helvetica,sans-Serif" font-size="10.00">btsearchoptionsarea.cpp</text>
</a>
</g>
</g>
<!-- Node2&#45;&gt;Node66 -->
<g id="edge49" class="edge">
<title>Node2&#45;&gt;Node66</title>
<path fill="none" stroke="midnightblue" d="M2819.83,-176.87C3180.99,-175.94 5047.04,-169.41 5619,-132 5621.99,-131.8 5625.05,-131.58 5628.13,-131.32"/>
<polygon fill="midnightblue" stroke="midnightblue" points="2819.58,-173.37 2809.59,-176.89 2819.6,-180.37 2819.58,-173.37"/>
</g>
<!-- Node67 -->
<g id="node47" class="node">
<title>Node67</title>
<g id="a_node47"><a xlink:href="../../dd/d21/btsearchresultarea_8h.html" target="_top" xlink:title=" ">
<polygon fill="white" stroke="red" points="5783.5,-112.5 5783.5,-131.5 5900.5,-131.5 5900.5,-112.5 5783.5,-112.5"/>
<text text-anchor="middle" x="5842" y="-119.5" font-family="Helvetica,sans-Serif" font-size="10.00">btsearchresultarea.h</text>
</a>
</g>
</g>
<!-- Node2&#45;&gt;Node67 -->
<g id="edge50" class="edge">
<title>Node2&#45;&gt;Node67</title>
<path fill="none" stroke="midnightblue" d="M2819.56,-177.06C3191.41,-177.29 5169.47,-176.37 5774,-132 5777.09,-131.77 5780.25,-131.5 5783.44,-131.19"/>
<polygon fill="midnightblue" stroke="midnightblue" points="2819.54,-173.56 2809.54,-177.05 2819.54,-180.56 2819.54,-173.56"/>
</g>
<!-- Node69 -->
<g id="node48" class="node">
<title>Node69</title>
<g id="a_node48"><a xlink:href="../../d7/d5d/cmoduleresultview_8cpp.html" target="_top" xlink:title=" ">
<polygon fill="white" stroke="black" points="5820.5,-56.5 5820.5,-75.5 5949.5,-75.5 5949.5,-56.5 5820.5,-56.5"/>
<text text-anchor="middle" x="5885" y="-63.5" font-family="Helvetica,sans-Serif" font-size="10.00">cmoduleresultview.cpp</text>
</a>
</g>
</g>
<!-- Node2&#45;&gt;Node69 -->
<g id="edge52" class="edge">
<title>Node2&#45;&gt;Node69</title>
<path fill="none" stroke="midnightblue" d="M2819.78,-176.71C3255.04,-174.59 5881.82,-160.59 5910,-132 5925.62,-116.16 5905.87,-89.51 5893.53,-75.77"/>
<polygon fill="midnightblue" stroke="midnightblue" points="2819.59,-173.21 2809.61,-176.76 2819.62,-180.21 2819.59,-173.21"/>
</g>
<!-- Node70 -->
<g id="node49" class="node">
<title>Node70</title>
<g id="a_node49"><a xlink:href="../../d2/d9d/crangechooserdialog_8cpp.html" target="_top" xlink:title=" ">
<polygon fill="white" stroke="black" points="5957,-112.5 5957,-131.5 6095,-131.5 6095,-112.5 5957,-112.5"/>
<text text-anchor="middle" x="6026" y="-119.5" font-family="Helvetica,sans-Serif" font-size="10.00">crangechooserdialog.cpp</text>
</a>
</g>
</g>
<!-- Node2&#45;&gt;Node70 -->
<g id="edge53" class="edge">
<title>Node2&#45;&gt;Node70</title>
<path fill="none" stroke="midnightblue" d="M2819.85,-176.92C3204.46,-176.31 5302.37,-171.17 5943,-132 5947.48,-131.73 5952.1,-131.39 5956.75,-131"/>
<polygon fill="midnightblue" stroke="midnightblue" points="2819.76,-173.42 2809.76,-176.94 2819.77,-180.42 2819.76,-173.42"/>
</g>
<!-- Node71 -->
<g id="node50" class="node">
<title>Node71</title>
<g id="a_node50"><a xlink:href="../../d5/d72/btfontsettings_8cpp.html" target="_top" xlink:title=" ">
<polygon fill="white" stroke="black" points="6113.5,-112.5 6113.5,-131.5 6218.5,-131.5 6218.5,-112.5 6113.5,-112.5"/>
<text text-anchor="middle" x="6166" y="-119.5" font-family="Helvetica,sans-Serif" font-size="10.00">btfontsettings.cpp</text>
</a>
</g>
</g>
<!-- Node2&#45;&gt;Node71 -->
<g id="edge54" class="edge">
<title>Node2&#45;&gt;Node71</title>
<path fill="none" stroke="midnightblue" d="M2819.78,-176.66C3244.79,-174.23 5764.88,-158.78 6104,-132 6107.04,-131.76 6110.15,-131.47 6113.29,-131.13"/>
<polygon fill="midnightblue" stroke="midnightblue" points="2819.53,-173.16 2809.55,-176.72 2819.57,-180.16 2819.53,-173.16"/>
</g>
<!-- Node20&#45;&gt;Node29 -->
<g id="edge20" class="edge">
<title>Node20&#45;&gt;Node29</title>
<path fill="none" stroke="midnightblue" d="M2303.66,-107.45C2285.76,-97.48 2261.95,-84.23 2246.55,-75.65"/>
<polygon fill="midnightblue" stroke="midnightblue" points="2301.98,-110.52 2312.42,-112.32 2305.38,-104.4 2301.98,-110.52"/>
</g>
<!-- Node20&#45;&gt;Node35 -->
<g id="edge22" class="edge">
<title>Node20&#45;&gt;Node35</title>
<path fill="none" stroke="midnightblue" d="M2339.95,-103.57C2346.31,-94.27 2353.87,-83.25 2359,-75.75"/>
<polygon fill="midnightblue" stroke="midnightblue" points="2336.87,-101.86 2334.11,-112.08 2342.65,-105.81 2336.87,-101.86"/>
</g>
<!-- Node29&#45;&gt;Node30 -->
<g id="edge21" class="edge">
<title>Node29&#45;&gt;Node30</title>
<path fill="none" stroke="midnightblue" d="M2257.3,-51.73C2277.11,-41.73 2303.71,-28.31 2320.85,-19.65"/>
<polygon fill="midnightblue" stroke="midnightblue" points="2255.54,-48.69 2248.19,-56.32 2258.7,-54.94 2255.54,-48.69"/>
</g>
<!-- Node51&#45;&gt;Node53 -->
<g id="edge33" class="edge">
<title>Node51&#45;&gt;Node53</title>
<path fill="none" stroke="midnightblue" d="M3719.73,-104.43C3728.14,-94.97 3738.35,-83.48 3745.22,-75.75"/>
<polygon fill="midnightblue" stroke="midnightblue" points="3716.95,-102.28 3712.93,-112.08 3722.19,-106.93 3716.95,-102.28"/>
</g>
<!-- Node67&#45;&gt;Node69 -->
<g id="edge51" class="edge">
<title>Node67&#45;&gt;Node69</title>
<path fill="none" stroke="midnightblue" d="M5855.42,-104.14C5862.91,-94.74 5871.94,-83.4 5878.03,-75.75"/>
<polygon fill="midnightblue" stroke="midnightblue" points="5852.59,-102.08 5849.1,-112.08 5858.07,-106.44 5852.59,-102.08"/>
</g>
</g>
</svg>
        <g id="navigator" transform="translate(0 0)" fill="#404254">
                <rect fill="#f2f5e9" fill-opacity="0.5" stroke="#606060" stroke-width=".5" x="0" y="0" width="60" height="60"/>
                <use id="zoomplus" xlink:href="#zoomPlus" x="17" y="9" onmousedown="handleZoom(evt,'in')"/>
                <use id="zoomminus" xlink:href="#zoomMin" x="42" y="9" onmousedown="handleZoom(evt,'out')"/>
                <use id="reset" xlink:href="#resetDef" x="30" y="36" onmousedown="handleReset()"/>
                <g id="arrowUp" xlink:href="#dirArrow" transform="translate(30 24)" onmousedown="handlePan(0,-1)">
                  <use xlink:href="#rim" fill="#404040">
                        <set attributeName="fill" to="#808080" begin="arrowUp.mouseover" end="arrowUp.mouseout"/>
                  </use>
                  <path fill="none" stroke="white" stroke-width="1.5" d="M0,-3.0v7 M-2.5,-0.5L0,-3.0L2.5,-0.5"/>
                </g>
                <g id="arrowRight" xlink:href="#dirArrow" transform="rotate(90) translate(36 -43)" onmousedown="handlePan(1,0)">
                  <use xlink:href="#rim" fill="#404040">
                        <set attributeName="fill" to="#808080" begin="arrowRight.mouseover" end="arrowRight.mouseout"/>
                  </use>
                  <path fill="none" stroke="white" stroke-width="1.5" d="M0,-3.0v7 M-2.5,-0.5L0,-3.0L2.5,-0.5"/>
                </g>
                <g id="arrowDown" xlink:href="#dirArrow" transform="rotate(180) translate(-30 -48)" onmousedown="handlePan(0,1)">
                  <use xlink:href="#rim" fill="#404040">
                        <set attributeName="fill" to="#808080" begin="arrowDown.mouseover" end="arrowDown.mouseout"/>
                  </use>
                  <path fill="none" stroke="white" stroke-width="1.5" d="M0,-3.0v7 M-2.5,-0.5L0,-3.0L2.5,-0.5"/>
                </g>
                <g id="arrowLeft" xlink:href="#dirArrow" transform="rotate(270) translate(-36 17)" onmousedown="handlePan(-1,0)">
                  <use xlink:href="#rim" fill="#404040">
                        <set attributeName="fill" to="#808080" begin="arrowLeft.mouseover" end="arrowLeft.mouseout"/>
                  </use>
                  <path fill="none" stroke="white" stroke-width="1.5" d="M0,-3.0v7 M-2.5,-0.5L0,-3.0L2.5,-0.5"/>
                </g>
        </g>
        <svg viewBox="0 0 15 15" width="100%" height="30px" preserveAspectRatio="xMaxYMin meet">
         <g id="arrow_out" transform="scale(0.3 0.3)">
          <a xlink:href="gbftohtml_8h__dep__incl_org.svg" target="_base">
           <rect id="button" ry="5" rx="5" y="6" x="6" height="38" width="38"
                fill="#f2f5e9" fill-opacity="0.5" stroke="#606060" stroke-width="1.0"/>
           <path id="arrow"
             d="M 11.500037,31.436501 C 11.940474,20.09759 22.043105,11.32322 32.158766,21.979434 L 37.068811,17.246167 C 37.068811,17.246167 37.088388,32 37.088388,32 L 22.160133,31.978069 C 22.160133,31.978069 26.997745,27.140456 26.997745,27.140456 C 18.528582,18.264221 13.291696,25.230495 11.500037,31.436501 z"
             style="fill:#404040;"/>
          </a>
         </g>
        </svg>
</svg>
