<?xml version="1.0" encoding="UTF-8" standalone="no"?>
<!DOCTYPE svg PUBLIC "-//W3C//DTD SVG 1.1//EN"
 "http://www.w3.org/Graphics/SVG/1.1/DTD/svg11.dtd">
<!-- Generated by graphviz version 2.43.0 (0)
 -->
<!-- Title: btbookshelfdockwidget.h Pages: 1 -->
<svg width="383pt" height="84pt"
 viewBox="0.00 0.00 383.00 84.00" xmlns="http://www.w3.org/2000/svg" xmlns:xlink="http://www.w3.org/1999/xlink">
<g id="graph0" class="graph" transform="scale(1 1) rotate(0) translate(4 80)">
<title>btbookshelfdockwidget.h</title>
<polygon fill="white" stroke="transparent" points="-4,4 -4,-80 379,-80 379,4 -4,4"/>
<!-- Node1 -->
<g id="node1" class="node">
<title>Node1</title>
<g id="a_node1"><a xlink:title=" ">
<polygon fill="#bfbfbf" stroke="black" points="83.5,-56.5 83.5,-75.5 223.5,-75.5 223.5,-56.5 83.5,-56.5"/>
<text text-anchor="middle" x="153.5" y="-63.5" font-family="Helvetica,sans-Serif" font-size="10.00">btbookshelfdockwidget.h</text>
</a>
</g>
</g>
<!-- Node2 -->
<g id="node2" class="node">
<title>Node2</title>
<g id="a_node2"><a xlink:href="../../d1/df6/bibletime_8cpp.html" target="_top" xlink:title=" ">
<polygon fill="white" stroke="black" points="0,-0.5 0,-19.5 83,-19.5 83,-0.5 0,-0.5"/>
<text text-anchor="middle" x="41.5" y="-7.5" font-family="Helvetica,sans-Serif" font-size="10.00">bibletime.cpp</text>
</a>
</g>
</g>
<!-- Node1&#45;&gt;Node2 -->
<g id="edge1" class="edge">
<title>Node1&#45;&gt;Node2</title>
<path fill="none" stroke="midnightblue" d="M126.25,-51.86C105.48,-41.85 77.48,-28.35 59.45,-19.65"/>
<polygon fill="midnightblue" stroke="midnightblue" points="124.98,-55.13 135.51,-56.32 128.02,-48.83 124.98,-55.13"/>
</g>
<!-- Node3 -->
<g id="node3" class="node">
<title>Node3</title>
<g id="a_node3"><a xlink:href="../../da/dc7/bibletime__init_8cpp.html" target="_top" xlink:title=" ">
<polygon fill="white" stroke="black" points="101.5,-0.5 101.5,-19.5 205.5,-19.5 205.5,-0.5 101.5,-0.5"/>
<text text-anchor="middle" x="153.5" y="-7.5" font-family="Helvetica,sans-Serif" font-size="10.00">bibletime_init.cpp</text>
</a>
</g>
</g>
<!-- Node1&#45;&gt;Node3 -->
<g id="edge2" class="edge">
<title>Node1&#45;&gt;Node3</title>
<path fill="none" stroke="midnightblue" d="M153.5,-45.8C153.5,-36.91 153.5,-26.78 153.5,-19.75"/>
<polygon fill="midnightblue" stroke="midnightblue" points="150,-46.08 153.5,-56.08 157,-46.08 150,-46.08"/>
</g>
<!-- Node4 -->
<g id="node4" class="node">
<title>Node4</title>
<g id="a_node4"><a xlink:href="../../df/d88/btbookshelfdockwidget_8cpp.html" target="_top" xlink:title=" ">
<polygon fill="white" stroke="black" points="224,-0.5 224,-19.5 375,-19.5 375,-0.5 224,-0.5"/>
<text text-anchor="middle" x="299.5" y="-7.5" font-family="Helvetica,sans-Serif" font-size="10.00">btbookshelfdockwidget.cpp</text>
</a>
</g>
</g>
<!-- Node1&#45;&gt;Node4 -->
<g id="edge3" class="edge">
<title>Node1&#45;&gt;Node4</title>
<path fill="none" stroke="midnightblue" d="M186.2,-52.91C213.65,-42.75 252.17,-28.51 276.47,-19.52"/>
<polygon fill="midnightblue" stroke="midnightblue" points="184.8,-49.69 176.63,-56.44 187.23,-56.26 184.8,-49.69"/>
</g>
</g>
</svg>
