<?xml version="1.0" encoding="UTF-8" standalone="no"?>
<!DOCTYPE svg PUBLIC "-//W3C//DTD SVG 1.1//EN"
 "http://www.w3.org/Graphics/SVG/1.1/DTD/svg11.dtd">
<!-- Generated by graphviz version 2.43.0 (0)
 -->
<!-- Title: bthistory.h Pages: 1 -->
<svg width="905pt" height="84pt"
 viewBox="0.00 0.00 904.50 84.00" xmlns="http://www.w3.org/2000/svg" xmlns:xlink="http://www.w3.org/1999/xlink">
<g id="graph0" class="graph" transform="scale(1 1) rotate(0) translate(4 80)">
<title>bthistory.h</title>
<polygon fill="white" stroke="transparent" points="-4,4 -4,-80 900.5,-80 900.5,4 -4,4"/>
<!-- Node1 -->
<g id="node1" class="node">
<title>Node1</title>
<g id="a_node1"><a xlink:title=" ">
<polygon fill="#bfbfbf" stroke="black" points="396,-56.5 396,-75.5 464,-75.5 464,-56.5 396,-56.5"/>
<text text-anchor="middle" x="430" y="-63.5" font-family="Helvetica,sans-Serif" font-size="10.00">bthistory.h</text>
</a>
</g>
</g>
<!-- Node2 -->
<g id="node2" class="node">
<title>Node2</title>
<g id="a_node2"><a xlink:href="../../d2/d26/cdisplaywindow_8cpp.html" target="_top" xlink:title=" ">
<polygon fill="white" stroke="black" points="0,-0.5 0,-19.5 114,-19.5 114,-0.5 0,-0.5"/>
<text text-anchor="middle" x="57" y="-7.5" font-family="Helvetica,sans-Serif" font-size="10.00">cdisplaywindow.cpp</text>
</a>
</g>
</g>
<!-- Node1&#45;&gt;Node2 -->
<g id="edge1" class="edge">
<title>Node1&#45;&gt;Node2</title>
<path fill="none" stroke="midnightblue" d="M386,-58.63C318.35,-48.84 188.82,-30.08 114.05,-19.26"/>
<polygon fill="midnightblue" stroke="midnightblue" points="385.51,-62.1 395.91,-60.06 386.51,-55.17 385.51,-62.1"/>
</g>
<!-- Node3 -->
<g id="node3" class="node">
<title>Node3</title>
<g id="a_node3"><a xlink:href="../../d0/de0/bthistory_8cpp.html" target="_top" xlink:title=" ">
<polygon fill="white" stroke="black" points="132.5,-0.5 132.5,-19.5 211.5,-19.5 211.5,-0.5 132.5,-0.5"/>
<text text-anchor="middle" x="172" y="-7.5" font-family="Helvetica,sans-Serif" font-size="10.00">bthistory.cpp</text>
</a>
</g>
</g>
<!-- Node1&#45;&gt;Node3 -->
<g id="edge2" class="edge">
<title>Node1&#45;&gt;Node3</title>
<path fill="none" stroke="midnightblue" d="M385.78,-55.74C336.93,-45.52 258.97,-29.2 211.91,-19.35"/>
<polygon fill="midnightblue" stroke="midnightblue" points="385.23,-59.21 395.74,-57.83 386.67,-52.35 385.23,-59.21"/>
</g>
<!-- Node4 -->
<g id="node4" class="node">
<title>Node4</title>
<g id="a_node4"><a xlink:href="../../dd/d72/cbookkeychooser_8cpp.html" target="_top" xlink:title=" ">
<polygon fill="white" stroke="black" points="229.5,-0.5 229.5,-19.5 350.5,-19.5 350.5,-0.5 229.5,-0.5"/>
<text text-anchor="middle" x="290" y="-7.5" font-family="Helvetica,sans-Serif" font-size="10.00">cbookkeychooser.cpp</text>
</a>
</g>
</g>
<!-- Node1&#45;&gt;Node4 -->
<g id="edge3" class="edge">
<title>Node1&#45;&gt;Node4</title>
<path fill="none" stroke="midnightblue" d="M398.3,-52.77C372,-42.63 335.28,-28.47 312.08,-19.52"/>
<polygon fill="midnightblue" stroke="midnightblue" points="397.23,-56.11 407.82,-56.44 399.75,-49.58 397.23,-56.11"/>
</g>
<!-- Node5 -->
<g id="node5" class="node">
<title>Node5</title>
<g id="a_node5"><a xlink:href="../../d0/da4/cbooktreechooser_8cpp.html" target="_top" xlink:title=" ">
<polygon fill="white" stroke="black" points="368.5,-0.5 368.5,-19.5 491.5,-19.5 491.5,-0.5 368.5,-0.5"/>
<text text-anchor="middle" x="430" y="-7.5" font-family="Helvetica,sans-Serif" font-size="10.00">cbooktreechooser.cpp</text>
</a>
</g>
</g>
<!-- Node1&#45;&gt;Node5 -->
<g id="edge4" class="edge">
<title>Node1&#45;&gt;Node5</title>
<path fill="none" stroke="midnightblue" d="M430,-45.8C430,-36.91 430,-26.78 430,-19.75"/>
<polygon fill="midnightblue" stroke="midnightblue" points="426.5,-46.08 430,-56.08 433.5,-46.08 426.5,-46.08"/>
</g>
<!-- Node6 -->
<g id="node6" class="node">
<title>Node6</title>
<g id="a_node6"><a xlink:href="../../d4/d0c/ckeychooser_8cpp.html" target="_top" xlink:title=" ">
<polygon fill="white" stroke="black" points="509.5,-0.5 509.5,-19.5 606.5,-19.5 606.5,-0.5 509.5,-0.5"/>
<text text-anchor="middle" x="558" y="-7.5" font-family="Helvetica,sans-Serif" font-size="10.00">ckeychooser.cpp</text>
</a>
</g>
</g>
<!-- Node1&#45;&gt;Node6 -->
<g id="edge5" class="edge">
<title>Node1&#45;&gt;Node6</title>
<path fill="none" stroke="midnightblue" d="M459.62,-52.5C483.62,-42.38 516.78,-28.39 537.81,-19.52"/>
<polygon fill="midnightblue" stroke="midnightblue" points="458.14,-49.33 450.28,-56.44 460.86,-55.78 458.14,-49.33"/>
</g>
<!-- Node7 -->
<g id="node7" class="node">
<title>Node7</title>
<g id="a_node7"><a xlink:href="../../d8/d14/clexiconkeychooser_8cpp.html" target="_top" xlink:title=" ">
<polygon fill="white" stroke="black" points="625,-0.5 625,-19.5 757,-19.5 757,-0.5 625,-0.5"/>
<text text-anchor="middle" x="691" y="-7.5" font-family="Helvetica,sans-Serif" font-size="10.00">clexiconkeychooser.cpp</text>
</a>
</g>
</g>
<!-- Node1&#45;&gt;Node7 -->
<g id="edge6" class="edge">
<title>Node1&#45;&gt;Node7</title>
<path fill="none" stroke="midnightblue" d="M474.11,-55.87C523.12,-45.73 601.64,-29.49 649.55,-19.58"/>
<polygon fill="midnightblue" stroke="midnightblue" points="473.2,-52.49 464.12,-57.94 474.62,-59.34 473.2,-52.49"/>
</g>
<!-- Node8 -->
<g id="node8" class="node">
<title>Node8</title>
<g id="a_node8"><a xlink:href="../../dc/d8f/cbiblekeychooser_8cpp.html" target="_top" xlink:title=" ">
<polygon fill="white" stroke="black" points="775.5,-0.5 775.5,-19.5 896.5,-19.5 896.5,-0.5 775.5,-0.5"/>
<text text-anchor="middle" x="836" y="-7.5" font-family="Helvetica,sans-Serif" font-size="10.00">cbiblekeychooser.cpp</text>
</a>
</g>
</g>
<!-- Node1&#45;&gt;Node8 -->
<g id="edge7" class="edge">
<title>Node1&#45;&gt;Node8</title>
<path fill="none" stroke="midnightblue" d="M474.5,-59.08C547.54,-49.37 692.96,-30.02 775.36,-19.07"/>
<polygon fill="midnightblue" stroke="midnightblue" points="473.72,-55.65 464.27,-60.44 474.64,-62.59 473.72,-55.65"/>
</g>
</g>
</svg>
