<?xml version="1.0" encoding="UTF-8" standalone="no"?>
<!DOCTYPE svg PUBLIC "-//W3C//DTD SVG 1.1//EN"
 "http://www.w3.org/Graphics/SVG/1.1/DTD/svg11.dtd">
<!-- Generated by graphviz version 2.43.0 (0)
 -->
<!-- Title: Rendering::CTextRendering Pages: 1 -->
<!--zoomable 540 -->
<svg id="main" version="1.1" xmlns="http://www.w3.org/2000/svg" xmlns:xlink="http://www.w3.org/1999/xlink" xml:space="preserve" onload="init(evt)">
<style type="text/css"><![CDATA[
.edge:hover path { stroke: red; }
.edge:hover polygon { stroke: red; fill: red; }
]]></style>
<script type="text/javascript"><![CDATA[
var edges = document.getElementsByTagName('g');
if (edges && edges.length) {
  for (var i=0;i<edges.length;i++) {
    if (edges[i].id.substr(0,4)=='edge') {
      edges[i].setAttribute('class','edge');
    }
  }
}
]]></script>
        <defs>
                <circle id="rim" cx="0" cy="0" r="7"/>
                <circle id="rim2" cx="0" cy="0" r="3.5"/>
                <g id="zoomPlus">
                        <use xlink:href="#rim" fill="#404040">
                                <set attributeName="fill" to="#808080" begin="zoomplus.mouseover" end="zoomplus.mouseout"/>
                        </use>
                        <path d="M-4,0h8M0,-4v8" fill="none" stroke="white" stroke-width="1.5" pointer-events="none"/>
                </g>
                <g id="zoomMin">
                        <use xlink:href="#rim" fill="#404040">
                                <set attributeName="fill" to="#808080" begin="zoomminus.mouseover" end="zoomminus.mouseout"/>
                        </use>
                        <path d="M-4,0h8" fill="none" stroke="white" stroke-width="1.5" pointer-events="none"/>
                </g>
                <g id="dirArrow">
                        <path fill="none" stroke="white" stroke-width="1.5" d="M0,-3.0v7 M-2.5,-0.5L0,-3.0L2.5,-0.5"/>
                </g>
               <g id="resetDef">
                       <use xlink:href="#rim2" fill="#404040">
                               <set attributeName="fill" to="#808080" begin="reset.mouseover" end="reset.mouseout"/>
                       </use>
               </g>
        </defs>

<script type="text/javascript">
var viewWidth = 529;
var viewHeight = 540;
var sectionId = 'dynsection-0';
</script>
<script xlink:href="../../svgpan.js"/>
<svg id="graph" class="graph">
<g id="viewport">
<title>Rendering::CTextRendering</title>
<polygon fill="white" stroke="transparent" points="-4,4 -4,-536 525,-536 525,4 -4,4"/>
<!-- Node1 -->
<g id="node1" class="node">
<title>Node1</title>
<g id="a_node1"><a xlink:title="Text rendering based on trees.">
<polygon fill="#bfbfbf" stroke="black" points="186,-309.5 186,-531.5 335,-531.5 335,-309.5 186,-309.5"/>
<text text-anchor="middle" x="260.5" y="-519.5" font-family="Helvetica,sans-Serif" font-size="10.00">Rendering::CTextRendering</text>
<polyline fill="none" stroke="black" points="186,-512.5 335,-512.5 "/>
<text text-anchor="start" x="194" y="-500.5" font-family="Helvetica,sans-Serif" font-size="10.00"># m_addText</text>
<text text-anchor="start" x="194" y="-489.5" font-family="Helvetica,sans-Serif" font-size="10.00"># m_displayOptions</text>
<text text-anchor="start" x="194" y="-478.5" font-family="Helvetica,sans-Serif" font-size="10.00"># m_filterOptions</text>
<polyline fill="none" stroke="black" points="186,-471.5 335,-471.5 "/>
<text text-anchor="start" x="194" y="-459.5" font-family="Helvetica,sans-Serif" font-size="10.00">+ CTextRendering()</text>
<text text-anchor="start" x="194" y="-448.5" font-family="Helvetica,sans-Serif" font-size="10.00">+ CTextRendering()</text>
<text text-anchor="start" x="194" y="-437.5" font-family="Helvetica,sans-Serif" font-size="10.00">+ displayOptions()</text>
<text text-anchor="start" x="194" y="-426.5" font-family="Helvetica,sans-Serif" font-size="10.00">+ filterOptions()</text>
<text text-anchor="start" x="194" y="-415.5" font-family="Helvetica,sans-Serif" font-size="10.00">+ renderKeyRange()</text>
<text text-anchor="start" x="194" y="-404.5" font-family="Helvetica,sans-Serif" font-size="10.00">+ renderKeyTree()</text>
<text text-anchor="start" x="194" y="-393.5" font-family="Helvetica,sans-Serif" font-size="10.00">+ renderSingleKey()</text>
<text text-anchor="start" x="194" y="-382.5" font-family="Helvetica,sans-Serif" font-size="10.00">+ setDisplayOptions()</text>
<text text-anchor="start" x="194" y="-371.5" font-family="Helvetica,sans-Serif" font-size="10.00">+ setFilterOptions()</text>
<text text-anchor="start" x="194" y="-360.5" font-family="Helvetica,sans-Serif" font-size="10.00">+ ~CTextRendering()</text>
<text text-anchor="start" x="194" y="-349.5" font-family="Helvetica,sans-Serif" font-size="10.00"># entryLink()</text>
<text text-anchor="start" x="194" y="-338.5" font-family="Helvetica,sans-Serif" font-size="10.00"># finishText()</text>
<text text-anchor="start" x="194" y="-327.5" font-family="Helvetica,sans-Serif" font-size="10.00"># renderEntry()</text>
<text text-anchor="start" x="194" y="-316.5" font-family="Helvetica,sans-Serif" font-size="10.00"># collectModules()</text>
</a>
</g>
</g>
<!-- Node2 -->
<g id="node2" class="node">
<title>Node2</title>
<g id="a_node2"><a xlink:href="../../d3/d32/classRendering_1_1CDisplayRendering.html" target="_top" xlink:title="Rendering for the html display widget.">
<polygon fill="white" stroke="black" points="0,-138.5 0,-272.5 165,-272.5 165,-138.5 0,-138.5"/>
<text text-anchor="middle" x="82.5" y="-260.5" font-family="Helvetica,sans-Serif" font-size="10.00">Rendering::CDisplayRendering</text>
<polyline fill="none" stroke="black" points="0,-253.5 165,-253.5 "/>
<text text-anchor="start" x="8" y="-241.5" font-family="Helvetica,sans-Serif" font-size="10.00">&#45; m_displayTemplateName</text>
<polyline fill="none" stroke="black" points="0,-234.5 165,-234.5 "/>
<text text-anchor="start" x="8" y="-222.5" font-family="Helvetica,sans-Serif" font-size="10.00">+ CDisplayRendering()</text>
<text text-anchor="start" x="8" y="-211.5" font-family="Helvetica,sans-Serif" font-size="10.00">+ CDisplayRendering()</text>
<text text-anchor="start" x="8" y="-200.5" font-family="Helvetica,sans-Serif" font-size="10.00">+ displayTemplateName()</text>
<text text-anchor="start" x="8" y="-189.5" font-family="Helvetica,sans-Serif" font-size="10.00">+ renderDisplayEntry()</text>
<text text-anchor="start" x="8" y="-178.5" font-family="Helvetica,sans-Serif" font-size="10.00">+ setDisplayTemplateName()</text>
<text text-anchor="start" x="8" y="-167.5" font-family="Helvetica,sans-Serif" font-size="10.00">+ keyToHTMLAnchor()</text>
<text text-anchor="start" x="8" y="-156.5" font-family="Helvetica,sans-Serif" font-size="10.00"># entryLink()</text>
<text text-anchor="start" x="8" y="-145.5" font-family="Helvetica,sans-Serif" font-size="10.00"># finishText()</text>
</a>
</g>
</g>
<!-- Node1&#45;&gt;Node2 -->
<g id="edge1" class="edge">
<title>Node1&#45;&gt;Node2</title>
<path fill="none" stroke="midnightblue" d="M179.35,-322.39C165.29,-305.57 150.97,-288.44 137.81,-272.68"/>
<polygon fill="none" stroke="midnightblue" points="176.69,-324.67 185.79,-330.09 182.06,-320.18 176.69,-324.67"/>
</g>
<!-- Node4 -->
<g id="node4" class="node">
<title>Node4</title>
<g id="a_node4"><a xlink:href="../../db/d7d/classRendering_1_1CPlainTextExportRendering.html" target="_top" xlink:title="Text rendering as plain text.">
<polygon fill="white" stroke="black" points="183,-155 183,-256 338,-256 338,-155 183,-155"/>
<text text-anchor="start" x="191" y="-244" font-family="Helvetica,sans-Serif" font-size="10.00">Rendering::CPlainTextExport</text>
<text text-anchor="middle" x="260.5" y="-233" font-family="Helvetica,sans-Serif" font-size="10.00">Rendering</text>
<polyline fill="none" stroke="black" points="183,-226 338,-226 "/>
<text text-anchor="middle" x="260.5" y="-214" font-family="Helvetica,sans-Serif" font-size="10.00"> </text>
<polyline fill="none" stroke="black" points="183,-207 338,-207 "/>
<text text-anchor="start" x="191" y="-195" font-family="Helvetica,sans-Serif" font-size="10.00">+ CTextRendering()</text>
<text text-anchor="start" x="191" y="-184" font-family="Helvetica,sans-Serif" font-size="10.00">+ CTextRendering()</text>
<text text-anchor="start" x="191" y="-173" font-family="Helvetica,sans-Serif" font-size="10.00"># finishText()</text>
<text text-anchor="start" x="191" y="-162" font-family="Helvetica,sans-Serif" font-size="10.00"># renderEntry()</text>
</a>
</g>
</g>
<!-- Node1&#45;&gt;Node4 -->
<g id="edge3" class="edge">
<title>Node1&#45;&gt;Node4</title>
<path fill="none" stroke="midnightblue" d="M260.5,-298.84C260.5,-283.86 260.5,-269.25 260.5,-256.25"/>
<polygon fill="none" stroke="midnightblue" points="257,-299.26 260.5,-309.26 264,-299.26 257,-299.26"/>
</g>
<!-- Node5 -->
<g id="node5" class="node">
<title>Node5</title>
<g id="a_node5"><a xlink:href="../../d5/d70/classRendering_1_1CrossRefRendering.html" target="_top" xlink:title=" ">
<polygon fill="white" stroke="black" points="356,-166 356,-245 521,-245 521,-166 356,-166"/>
<text text-anchor="middle" x="438.5" y="-233" font-family="Helvetica,sans-Serif" font-size="10.00">Rendering::CrossRefRendering</text>
<polyline fill="none" stroke="black" points="356,-226 521,-226 "/>
<text text-anchor="middle" x="438.5" y="-214" font-family="Helvetica,sans-Serif" font-size="10.00"> </text>
<polyline fill="none" stroke="black" points="356,-207 521,-207 "/>
<text text-anchor="start" x="364" y="-195" font-family="Helvetica,sans-Serif" font-size="10.00">+ CrossRefRendering()</text>
<text text-anchor="start" x="364" y="-184" font-family="Helvetica,sans-Serif" font-size="10.00"># entryLink()</text>
<text text-anchor="start" x="364" y="-173" font-family="Helvetica,sans-Serif" font-size="10.00"># finishText()</text>
</a>
</g>
</g>
<!-- Node1&#45;&gt;Node5 -->
<g id="edge4" class="edge">
<title>Node1&#45;&gt;Node5</title>
<path fill="none" stroke="midnightblue" d="M341.64,-322.4C364.53,-295.02 388.11,-266.8 406.27,-245.06"/>
<polygon fill="none" stroke="midnightblue" points="338.94,-320.18 335.21,-330.09 344.31,-324.67 338.94,-320.18"/>
</g>
<!-- Node3 -->
<g id="node3" class="node">
<title>Node3</title>
<g id="a_node3"><a xlink:href="../../d5/d4a/classBtPrinter.html" target="_top" xlink:title="Manages the print item queue and printing.">
<polygon fill="white" stroke="black" points="34.5,-0.5 34.5,-101.5 130.5,-101.5 130.5,-0.5 34.5,-0.5"/>
<text text-anchor="middle" x="82.5" y="-89.5" font-family="Helvetica,sans-Serif" font-size="10.00">BtPrinter</text>
<polyline fill="none" stroke="black" points="34.5,-82.5 130.5,-82.5 "/>
<text text-anchor="middle" x="82.5" y="-70.5" font-family="Helvetica,sans-Serif" font-size="10.00"> </text>
<polyline fill="none" stroke="black" points="34.5,-63.5 130.5,-63.5 "/>
<text text-anchor="start" x="42.5" y="-51.5" font-family="Helvetica,sans-Serif" font-size="10.00">+ BtPrinter()</text>
<text text-anchor="start" x="42.5" y="-40.5" font-family="Helvetica,sans-Serif" font-size="10.00">+ printKeyTree()</text>
<text text-anchor="start" x="42.5" y="-29.5" font-family="Helvetica,sans-Serif" font-size="10.00">&#45; entryLink()</text>
<text text-anchor="start" x="42.5" y="-18.5" font-family="Helvetica,sans-Serif" font-size="10.00">&#45; finishText()</text>
<text text-anchor="start" x="42.5" y="-7.5" font-family="Helvetica,sans-Serif" font-size="10.00">&#45; renderEntry()</text>
</a>
</g>
</g>
<!-- Node2&#45;&gt;Node3 -->
<g id="edge2" class="edge">
<title>Node2&#45;&gt;Node3</title>
<path fill="none" stroke="midnightblue" d="M82.5,-128.27C82.5,-119.19 82.5,-110.11 82.5,-101.55"/>
<polygon fill="none" stroke="midnightblue" points="79,-128.5 82.5,-138.5 86,-128.5 79,-128.5"/>
</g>
</g>
</svg>
        <g id="navigator" transform="translate(0 0)" fill="#404254">
                <rect fill="#f2f5e9" fill-opacity="0.5" stroke="#606060" stroke-width=".5" x="0" y="0" width="60" height="60"/>
                <use id="zoomplus" xlink:href="#zoomPlus" x="17" y="9" onmousedown="handleZoom(evt,'in')"/>
                <use id="zoomminus" xlink:href="#zoomMin" x="42" y="9" onmousedown="handleZoom(evt,'out')"/>
                <use id="reset" xlink:href="#resetDef" x="30" y="36" onmousedown="handleReset()"/>
                <g id="arrowUp" xlink:href="#dirArrow" transform="translate(30 24)" onmousedown="handlePan(0,-1)">
                  <use xlink:href="#rim" fill="#404040">
                        <set attributeName="fill" to="#808080" begin="arrowUp.mouseover" end="arrowUp.mouseout"/>
                  </use>
                  <path fill="none" stroke="white" stroke-width="1.5" d="M0,-3.0v7 M-2.5,-0.5L0,-3.0L2.5,-0.5"/>
                </g>
                <g id="arrowRight" xlink:href="#dirArrow" transform="rotate(90) translate(36 -43)" onmousedown="handlePan(1,0)">
                  <use xlink:href="#rim" fill="#404040">
                        <set attributeName="fill" to="#808080" begin="arrowRight.mouseover" end="arrowRight.mouseout"/>
                  </use>
                  <path fill="none" stroke="white" stroke-width="1.5" d="M0,-3.0v7 M-2.5,-0.5L0,-3.0L2.5,-0.5"/>
                </g>
                <g id="arrowDown" xlink:href="#dirArrow" transform="rotate(180) translate(-30 -48)" onmousedown="handlePan(0,1)">
                  <use xlink:href="#rim" fill="#404040">
                        <set attributeName="fill" to="#808080" begin="arrowDown.mouseover" end="arrowDown.mouseout"/>
                  </use>
                  <path fill="none" stroke="white" stroke-width="1.5" d="M0,-3.0v7 M-2.5,-0.5L0,-3.0L2.5,-0.5"/>
                </g>
                <g id="arrowLeft" xlink:href="#dirArrow" transform="rotate(270) translate(-36 17)" onmousedown="handlePan(-1,0)">
                  <use xlink:href="#rim" fill="#404040">
                        <set attributeName="fill" to="#808080" begin="arrowLeft.mouseover" end="arrowLeft.mouseout"/>
                  </use>
                  <path fill="none" stroke="white" stroke-width="1.5" d="M0,-3.0v7 M-2.5,-0.5L0,-3.0L2.5,-0.5"/>
                </g>
        </g>
        <svg viewBox="0 0 15 15" width="100%" height="30px" preserveAspectRatio="xMaxYMin meet">
         <g id="arrow_out" transform="scale(0.3 0.3)">
          <a xlink:href="classRendering_1_1CTextRendering__inherit__graph_org.svg" target="_base">
           <rect id="button" ry="5" rx="5" y="6" x="6" height="38" width="38"
                fill="#f2f5e9" fill-opacity="0.5" stroke="#606060" stroke-width="1.0"/>
           <path id="arrow"
             d="M 11.500037,31.436501 C 11.940474,20.09759 22.043105,11.32322 32.158766,21.979434 L 37.068811,17.246167 C 37.068811,17.246167 37.088388,32 37.088388,32 L 22.160133,31.978069 C 22.160133,31.978069 26.997745,27.140456 26.997745,27.140456 C 18.528582,18.264221 13.291696,25.230495 11.500037,31.436501 z"
             style="fill:#404040;"/>
          </a>
         </g>
        </svg>
</svg>
