<?xml version="1.0" encoding="UTF-8" standalone="no"?>
<!DOCTYPE svg PUBLIC "-//W3C//DTD SVG 1.1//EN"
 "http://www.w3.org/Graphics/SVG/1.1/DTD/svg11.dtd">
<!-- Generated by graphviz version 2.43.0 (0)
 -->
<!-- Title: btsearchoptionsarea.h Pages: 1 -->
<svg width="327pt" height="140pt"
 viewBox="0.00 0.00 327.00 140.00" xmlns="http://www.w3.org/2000/svg" xmlns:xlink="http://www.w3.org/1999/xlink">
<g id="graph0" class="graph" transform="scale(1 1) rotate(0) translate(4 136)">
<title>btsearchoptionsarea.h</title>
<polygon fill="white" stroke="transparent" points="-4,4 -4,-136 323,-136 323,4 -4,4"/>
<!-- Node1 -->
<g id="node1" class="node">
<title>Node1</title>
<g id="a_node1"><a xlink:title=" ">
<polygon fill="#bfbfbf" stroke="black" points="103,-112.5 103,-131.5 228,-131.5 228,-112.5 103,-112.5"/>
<text text-anchor="middle" x="165.5" y="-119.5" font-family="Helvetica,sans-Serif" font-size="10.00">btsearchoptionsarea.h</text>
</a>
</g>
</g>
<!-- Node2 -->
<g id="node2" class="node">
<title>Node2</title>
<g id="a_node2"><a xlink:href="../../d4/d4d/btsearchoptionsarea_8cpp.html" target="_top" xlink:title=" ">
<polygon fill="white" stroke="black" points="0,-56.5 0,-75.5 137,-75.5 137,-56.5 0,-56.5"/>
<text text-anchor="middle" x="68.5" y="-63.5" font-family="Helvetica,sans-Serif" font-size="10.00">btsearchoptionsarea.cpp</text>
</a>
</g>
</g>
<!-- Node1&#45;&gt;Node2 -->
<g id="edge1" class="edge">
<title>Node1&#45;&gt;Node2</title>
<path fill="none" stroke="midnightblue" d="M141.16,-107.45C123.26,-97.48 99.45,-84.23 84.05,-75.65"/>
<polygon fill="midnightblue" stroke="midnightblue" points="139.48,-110.52 149.92,-112.32 142.88,-104.4 139.48,-110.52"/>
</g>
<!-- Node3 -->
<g id="node3" class="node">
<title>Node3</title>
<g id="a_node3"><a xlink:href="../../d2/d1a/csearchdialog_8cpp.html" target="_top" xlink:title=" ">
<polygon fill="white" stroke="black" points="113.5,-0.5 113.5,-19.5 217.5,-19.5 217.5,-0.5 113.5,-0.5"/>
<text text-anchor="middle" x="165.5" y="-7.5" font-family="Helvetica,sans-Serif" font-size="10.00">csearchdialog.cpp</text>
</a>
</g>
</g>
<!-- Node1&#45;&gt;Node3 -->
<g id="edge2" class="edge">
<title>Node1&#45;&gt;Node3</title>
<path fill="none" stroke="midnightblue" d="M165.5,-102.35C165.5,-78.25 165.5,-37.31 165.5,-19.59"/>
<polygon fill="midnightblue" stroke="midnightblue" points="162,-102.37 165.5,-112.37 169,-102.37 162,-102.37"/>
</g>
<!-- Node4 -->
<g id="node4" class="node">
<title>Node4</title>
<g id="a_node4"><a xlink:href="../../d9/d67/csearchdialog_8h.html" target="_top" xlink:title=" ">
<polygon fill="white" stroke="black" points="194,-56.5 194,-75.5 287,-75.5 287,-56.5 194,-56.5"/>
<text text-anchor="middle" x="240.5" y="-63.5" font-family="Helvetica,sans-Serif" font-size="10.00">csearchdialog.h</text>
</a>
</g>
</g>
<!-- Node1&#45;&gt;Node4 -->
<g id="edge3" class="edge">
<title>Node1&#45;&gt;Node4</title>
<path fill="none" stroke="midnightblue" d="M185.81,-106.38C199.36,-96.62 216.74,-84.11 228.23,-75.83"/>
<polygon fill="midnightblue" stroke="midnightblue" points="183.62,-103.64 177.55,-112.32 187.71,-109.32 183.62,-103.64"/>
</g>
<!-- Node4&#45;&gt;Node3 -->
<g id="edge5" class="edge">
<title>Node4&#45;&gt;Node3</title>
<path fill="none" stroke="midnightblue" d="M220.19,-50.38C206.64,-40.62 189.26,-28.11 177.77,-19.83"/>
<polygon fill="midnightblue" stroke="midnightblue" points="218.29,-53.32 228.45,-56.32 222.38,-47.64 218.29,-53.32"/>
</g>
<!-- Node5 -->
<g id="node5" class="node">
<title>Node5</title>
<g id="a_node5"><a xlink:href="../../d1/df6/bibletime_8cpp.html" target="_top" xlink:title=" ">
<polygon fill="white" stroke="black" points="236,-0.5 236,-19.5 319,-19.5 319,-0.5 236,-0.5"/>
<text text-anchor="middle" x="277.5" y="-7.5" font-family="Helvetica,sans-Serif" font-size="10.00">bibletime.cpp</text>
</a>
</g>
</g>
<!-- Node4&#45;&gt;Node5 -->
<g id="edge4" class="edge">
<title>Node4&#45;&gt;Node5</title>
<path fill="none" stroke="midnightblue" d="M252.45,-47.57C258.81,-38.27 266.37,-27.25 271.5,-19.75"/>
<polygon fill="midnightblue" stroke="midnightblue" points="249.37,-45.86 246.61,-56.08 255.15,-49.81 249.37,-45.86"/>
</g>
</g>
</svg>
