<?xml version="1.0" encoding="UTF-8" standalone="no"?>
<!DOCTYPE svg PUBLIC "-//W3C//DTD SVG 1.1//EN"
 "http://www.w3.org/Graphics/SVG/1.1/DTD/svg11.dtd">
<!-- Generated by graphviz version 2.43.0 (0)
 -->
<!-- Title: btqmlinterface.h Pages: 1 -->
<svg width="742pt" height="140pt"
 viewBox="0.00 0.00 742.00 140.00" xmlns="http://www.w3.org/2000/svg" xmlns:xlink="http://www.w3.org/1999/xlink">
<g id="graph0" class="graph" transform="scale(1 1) rotate(0) translate(4 136)">
<title>btqmlinterface.h</title>
<polygon fill="white" stroke="transparent" points="-4,4 -4,-136 738,-136 738,4 -4,4"/>
<!-- Node1 -->
<g id="node1" class="node">
<title>Node1</title>
<g id="a_node1"><a xlink:title=" ">
<polygon fill="#bfbfbf" stroke="black" points="357,-112.5 357,-131.5 455,-131.5 455,-112.5 357,-112.5"/>
<text text-anchor="middle" x="406" y="-119.5" font-family="Helvetica,sans-Serif" font-size="10.00">btqmlinterface.h</text>
</a>
</g>
</g>
<!-- Node2 -->
<g id="node2" class="node">
<title>Node2</title>
<g id="a_node2"><a xlink:href="../../d7/dad/btcopybyreferencesdialog_8h.html" target="_top" xlink:title=" ">
<polygon fill="white" stroke="black" points="80,-56.5 80,-75.5 232,-75.5 232,-56.5 80,-56.5"/>
<text text-anchor="middle" x="156" y="-63.5" font-family="Helvetica,sans-Serif" font-size="10.00">btcopybyreferencesdialog.h</text>
</a>
</g>
</g>
<!-- Node1&#45;&gt;Node2 -->
<g id="edge1" class="edge">
<title>Node1&#45;&gt;Node2</title>
<path fill="none" stroke="midnightblue" d="M356.38,-110.28C309.13,-100.08 238.96,-84.92 195.43,-75.52"/>
<polygon fill="midnightblue" stroke="midnightblue" points="355.87,-113.75 366.39,-112.44 357.35,-106.91 355.87,-113.75"/>
</g>
<!-- Node4 -->
<g id="node4" class="node">
<title>Node4</title>
<g id="a_node4"><a xlink:href="../../de/db2/btmodelviewreaddisplay_8cpp.html" target="_top" xlink:title=" ">
<polygon fill="white" stroke="black" points="182,-0.5 182,-19.5 338,-19.5 338,-0.5 182,-0.5"/>
<text text-anchor="middle" x="260" y="-7.5" font-family="Helvetica,sans-Serif" font-size="10.00">btmodelviewreaddisplay.cpp</text>
</a>
</g>
</g>
<!-- Node1&#45;&gt;Node4 -->
<g id="edge4" class="edge">
<title>Node1&#45;&gt;Node4</title>
<path fill="none" stroke="midnightblue" d="M346.91,-111.77C323.32,-105.33 297.63,-94.43 280,-76 264.98,-60.3 261.22,-33.59 260.29,-19.81"/>
<polygon fill="midnightblue" stroke="midnightblue" points="346.31,-115.23 356.86,-114.26 348.01,-108.44 346.31,-115.23"/>
</g>
<!-- Node5 -->
<g id="node5" class="node">
<title>Node5</title>
<g id="a_node5"><a xlink:href="../../de/d6e/btqmlinterface_8cpp.html" target="_top" xlink:title=" ">
<polygon fill="white" stroke="black" points="288.5,-56.5 288.5,-75.5 397.5,-75.5 397.5,-56.5 288.5,-56.5"/>
<text text-anchor="middle" x="343" y="-63.5" font-family="Helvetica,sans-Serif" font-size="10.00">btqmlinterface.cpp</text>
</a>
</g>
</g>
<!-- Node1&#45;&gt;Node5 -->
<g id="edge5" class="edge">
<title>Node1&#45;&gt;Node5</title>
<path fill="none" stroke="midnightblue" d="M387.96,-105.54C376.73,-95.91 362.68,-83.87 353.31,-75.83"/>
<polygon fill="midnightblue" stroke="midnightblue" points="386.01,-108.47 395.88,-112.32 390.56,-103.16 386.01,-108.47"/>
</g>
<!-- Node6 -->
<g id="node6" class="node">
<title>Node6</title>
<g id="a_node6"><a xlink:href="../../d9/d0c/btquickwidget_8cpp.html" target="_top" xlink:title=" ">
<polygon fill="white" stroke="black" points="416,-56.5 416,-75.5 522,-75.5 522,-56.5 416,-56.5"/>
<text text-anchor="middle" x="469" y="-63.5" font-family="Helvetica,sans-Serif" font-size="10.00">btquickwidget.cpp</text>
</a>
</g>
</g>
<!-- Node1&#45;&gt;Node6 -->
<g id="edge6" class="edge">
<title>Node1&#45;&gt;Node6</title>
<path fill="none" stroke="midnightblue" d="M424.04,-105.54C435.27,-95.91 449.32,-83.87 458.69,-75.83"/>
<polygon fill="midnightblue" stroke="midnightblue" points="421.44,-103.16 416.12,-112.32 425.99,-108.47 421.44,-103.16"/>
</g>
<!-- Node7 -->
<g id="node7" class="node">
<title>Node7</title>
<g id="a_node7"><a xlink:href="../../d2/d26/cdisplaywindow_8cpp.html" target="_top" xlink:title=" ">
<polygon fill="white" stroke="black" points="540,-56.5 540,-75.5 654,-75.5 654,-56.5 540,-56.5"/>
<text text-anchor="middle" x="597" y="-63.5" font-family="Helvetica,sans-Serif" font-size="10.00">cdisplaywindow.cpp</text>
</a>
</g>
</g>
<!-- Node1&#45;&gt;Node7 -->
<g id="edge7" class="edge">
<title>Node1&#45;&gt;Node7</title>
<path fill="none" stroke="midnightblue" d="M445.97,-109.7C482.02,-99.51 534.24,-84.74 566.88,-75.52"/>
<polygon fill="midnightblue" stroke="midnightblue" points="444.94,-106.35 436.26,-112.44 446.84,-113.09 444.94,-106.35"/>
</g>
<!-- Node8 -->
<g id="node8" class="node">
<title>Node8</title>
<g id="a_node8"><a xlink:href="../../df/d0a/main_8cpp.html" target="_top" xlink:title=" ">
<polygon fill="white" stroke="black" points="672,-56.5 672,-75.5 734,-75.5 734,-56.5 672,-56.5"/>
<text text-anchor="middle" x="703" y="-63.5" font-family="Helvetica,sans-Serif" font-size="10.00">main.cpp</text>
</a>
</g>
</g>
<!-- Node1&#45;&gt;Node8 -->
<g id="edge8" class="edge">
<title>Node1&#45;&gt;Node8</title>
<path fill="none" stroke="midnightblue" d="M465.48,-111.42C517.67,-102.81 595.54,-89.49 663,-76 665.79,-75.44 668.69,-74.84 671.59,-74.22"/>
<polygon fill="midnightblue" stroke="midnightblue" points="464.7,-108 455.4,-113.07 465.84,-114.91 464.7,-108"/>
</g>
<!-- Node3 -->
<g id="node3" class="node">
<title>Node3</title>
<g id="a_node3"><a xlink:href="../../d3/d2f/btcopybyreferencesdialog_8cpp.html" target="_top" xlink:title=" ">
<polygon fill="white" stroke="black" points="0,-0.5 0,-19.5 164,-19.5 164,-0.5 0,-0.5"/>
<text text-anchor="middle" x="82" y="-7.5" font-family="Helvetica,sans-Serif" font-size="10.00">btcopybyreferencesdialog.cpp</text>
</a>
</g>
</g>
<!-- Node2&#45;&gt;Node3 -->
<g id="edge2" class="edge">
<title>Node2&#45;&gt;Node3</title>
<path fill="none" stroke="midnightblue" d="M135.97,-50.38C122.59,-40.62 105.44,-28.11 94.11,-19.83"/>
<polygon fill="midnightblue" stroke="midnightblue" points="133.97,-53.26 144.11,-56.32 138.1,-47.6 133.97,-53.26"/>
</g>
<!-- Node2&#45;&gt;Node4 -->
<g id="edge3" class="edge">
<title>Node2&#45;&gt;Node4</title>
<path fill="none" stroke="midnightblue" d="M181.83,-51.59C201.06,-41.61 226.74,-28.27 243.33,-19.65"/>
<polygon fill="midnightblue" stroke="midnightblue" points="179.97,-48.61 172.71,-56.32 183.2,-54.82 179.97,-48.61"/>
</g>
</g>
</svg>
