<?xml version="1.0" encoding="UTF-8" standalone="no"?>
<!DOCTYPE svg PUBLIC "-//W3C//DTD SVG 1.1//EN"
 "http://www.w3.org/Graphics/SVG/1.1/DTD/svg11.dtd">
<!-- Generated by graphviz version 2.43.0 (0)
 -->
<!-- Title: CDisplayWindow::ActionCollection Pages: 1 -->
<svg width="684pt" height="436pt"
 viewBox="0.00 0.00 683.50 436.00" xmlns="http://www.w3.org/2000/svg" xmlns:xlink="http://www.w3.org/1999/xlink">
<g id="graph0" class="graph" transform="scale(1 1) rotate(0) translate(4 432)">
<title>CDisplayWindow::ActionCollection</title>
<polygon fill="white" stroke="transparent" points="-4,4 -4,-432 679.5,-432 679.5,4 -4,4"/>
<!-- Node1 -->
<g id="node1" class="node">
<title>Node1</title>
<g id="a_node1"><a xlink:title=" ">
<polygon fill="#bfbfbf" stroke="black" points="269,-105.5 269,-162.5 453,-162.5 453,-105.5 269,-105.5"/>
<text text-anchor="middle" x="361" y="-150.5" font-family="Helvetica,sans-Serif" font-size="10.00">CDisplayWindow::ActionCollection</text>
<polyline fill="none" stroke="black" points="269,-143.5 453,-143.5 "/>
<text text-anchor="middle" x="361" y="-131.5" font-family="Helvetica,sans-Serif" font-size="10.00"> </text>
<polyline fill="none" stroke="black" points="269,-124.5 453,-124.5 "/>
<text text-anchor="start" x="277" y="-112.5" font-family="Helvetica,sans-Serif" font-size="10.00">+ ActionCollection()</text>
</a>
</g>
</g>
<!-- Node4 -->
<g id="node4" class="node">
<title>Node4</title>
<g id="a_node4"><a xlink:href="../../d3/d5b/classCBibleReadWindow_1_1ActionCollection.html" target="_top" xlink:title=" ">
<polygon fill="white" stroke="black" points="0,-0.5 0,-68.5 148,-68.5 148,-0.5 0,-0.5"/>
<text text-anchor="start" x="8" y="-56.5" font-family="Helvetica,sans-Serif" font-size="10.00">CBibleReadWindow::Action</text>
<text text-anchor="middle" x="74" y="-45.5" font-family="Helvetica,sans-Serif" font-size="10.00">Collection</text>
<polyline fill="none" stroke="black" points="0,-38.5 148,-38.5 "/>
<text text-anchor="middle" x="74" y="-26.5" font-family="Helvetica,sans-Serif" font-size="10.00"> </text>
<polyline fill="none" stroke="black" points="0,-19.5 148,-19.5 "/>
<text text-anchor="start" x="8" y="-7.5" font-family="Helvetica,sans-Serif" font-size="10.00">+ ActionCollection()</text>
</a>
</g>
</g>
<!-- Node1&#45;&gt;Node4 -->
<g id="edge3" class="edge">
<title>Node1&#45;&gt;Node4</title>
<path fill="none" stroke="midnightblue" d="M259.23,-102.82C226.41,-92.62 190,-80.81 157,-69 154.07,-67.95 151.1,-66.86 148.1,-65.75"/>
<polygon fill="none" stroke="midnightblue" points="258.24,-106.18 268.83,-105.79 260.31,-99.49 258.24,-106.18"/>
</g>
<!-- Node5 -->
<g id="node5" class="node">
<title>Node5</title>
<g id="a_node5"><a xlink:href="../../d4/ddd/classCBookReadWindow_1_1ActionCollection.html" target="_top" xlink:title=" ">
<polygon fill="white" stroke="black" points="166.5,-6 166.5,-63 363.5,-63 363.5,-6 166.5,-6"/>
<text text-anchor="middle" x="265" y="-51" font-family="Helvetica,sans-Serif" font-size="10.00">CBookReadWindow::ActionCollection</text>
<polyline fill="none" stroke="black" points="166.5,-44 363.5,-44 "/>
<text text-anchor="middle" x="265" y="-32" font-family="Helvetica,sans-Serif" font-size="10.00"> </text>
<polyline fill="none" stroke="black" points="166.5,-25 363.5,-25 "/>
<text text-anchor="start" x="174.5" y="-13" font-family="Helvetica,sans-Serif" font-size="10.00">+ ActionCollection()</text>
</a>
</g>
</g>
<!-- Node1&#45;&gt;Node5 -->
<g id="edge4" class="edge">
<title>Node1&#45;&gt;Node5</title>
<path fill="none" stroke="midnightblue" d="M326.54,-98C315.3,-86.58 302.97,-74.06 292.32,-63.25"/>
<polygon fill="none" stroke="midnightblue" points="324.24,-100.65 333.75,-105.32 329.22,-95.74 324.24,-100.65"/>
</g>
<!-- Node6 -->
<g id="node6" class="node">
<title>Node6</title>
<g id="a_node6"><a xlink:href="../../d6/d60/classCCommentaryReadWindow_1_1ActionCollection.html" target="_top" xlink:title=" ">
<polygon fill="white" stroke="black" points="381.5,-0.5 381.5,-68.5 532.5,-68.5 532.5,-0.5 381.5,-0.5"/>
<text text-anchor="start" x="389.5" y="-56.5" font-family="Helvetica,sans-Serif" font-size="10.00">CCommentaryReadWindow</text>
<text text-anchor="middle" x="457" y="-45.5" font-family="Helvetica,sans-Serif" font-size="10.00">::ActionCollection</text>
<polyline fill="none" stroke="black" points="381.5,-38.5 532.5,-38.5 "/>
<text text-anchor="middle" x="457" y="-26.5" font-family="Helvetica,sans-Serif" font-size="10.00"> </text>
<polyline fill="none" stroke="black" points="381.5,-19.5 532.5,-19.5 "/>
<text text-anchor="start" x="389.5" y="-7.5" font-family="Helvetica,sans-Serif" font-size="10.00">+ ActionCollection()</text>
</a>
</g>
</g>
<!-- Node1&#45;&gt;Node6 -->
<g id="edge5" class="edge">
<title>Node1&#45;&gt;Node6</title>
<path fill="none" stroke="midnightblue" d="M395.28,-98.18C404.7,-88.62 414.89,-78.27 424.23,-68.79"/>
<polygon fill="none" stroke="midnightblue" points="392.78,-95.74 388.25,-105.32 397.76,-100.65 392.78,-95.74"/>
</g>
<!-- Node7 -->
<g id="node7" class="node">
<title>Node7</title>
<g id="a_node7"><a xlink:href="../../d4/da8/classCLexiconReadWindow_1_1ActionCollection.html" target="_top" xlink:title=" ">
<polygon fill="white" stroke="black" points="550.5,-0.5 550.5,-68.5 675.5,-68.5 675.5,-0.5 550.5,-0.5"/>
<text text-anchor="start" x="558.5" y="-56.5" font-family="Helvetica,sans-Serif" font-size="10.00">CLexiconReadWindow</text>
<text text-anchor="middle" x="613" y="-45.5" font-family="Helvetica,sans-Serif" font-size="10.00">::ActionCollection</text>
<polyline fill="none" stroke="black" points="550.5,-38.5 675.5,-38.5 "/>
<text text-anchor="middle" x="613" y="-26.5" font-family="Helvetica,sans-Serif" font-size="10.00"> </text>
<polyline fill="none" stroke="black" points="550.5,-19.5 675.5,-19.5 "/>
<text text-anchor="start" x="558.5" y="-7.5" font-family="Helvetica,sans-Serif" font-size="10.00">+ ActionCollection()</text>
</a>
</g>
</g>
<!-- Node1&#45;&gt;Node7 -->
<g id="edge6" class="edge">
<title>Node1&#45;&gt;Node7</title>
<path fill="none" stroke="midnightblue" d="M454.09,-102.1C482.54,-92.13 513.75,-80.62 542,-69 544.77,-67.86 547.59,-66.67 550.43,-65.44"/>
<polygon fill="none" stroke="midnightblue" points="452.85,-98.83 444.56,-105.43 455.16,-105.44 452.85,-98.83"/>
</g>
<!-- Node2 -->
<g id="node2" class="node">
<title>Node2</title>
<g id="a_node2"><a xlink:href="../../d0/d28/classBtActionCollection.html" target="_top" xlink:title=" ">
<polygon fill="white" stroke="black" points="297,-199.5 297,-333.5 425,-333.5 425,-199.5 297,-199.5"/>
<text text-anchor="middle" x="361" y="-321.5" font-family="Helvetica,sans-Serif" font-size="10.00">BtActionCollection</text>
<polyline fill="none" stroke="black" points="297,-314.5 425,-314.5 "/>
<text text-anchor="start" x="305" y="-302.5" font-family="Helvetica,sans-Serif" font-size="10.00">&#45; m_actions</text>
<polyline fill="none" stroke="black" points="297,-295.5 425,-295.5 "/>
<text text-anchor="start" x="305" y="-283.5" font-family="Helvetica,sans-Serif" font-size="10.00">+ action()</text>
<text text-anchor="start" x="305" y="-272.5" font-family="Helvetica,sans-Serif" font-size="10.00">+ actionAs()</text>
<text text-anchor="start" x="305" y="-261.5" font-family="Helvetica,sans-Serif" font-size="10.00">+ actions()</text>
<text text-anchor="start" x="305" y="-250.5" font-family="Helvetica,sans-Serif" font-size="10.00">+ addAction()</text>
<text text-anchor="start" x="305" y="-239.5" font-family="Helvetica,sans-Serif" font-size="10.00">+ BtActionCollection()</text>
<text text-anchor="start" x="305" y="-228.5" font-family="Helvetica,sans-Serif" font-size="10.00">+ readShortcuts()</text>
<text text-anchor="start" x="305" y="-217.5" font-family="Helvetica,sans-Serif" font-size="10.00">+ writeShortcuts()</text>
<text text-anchor="start" x="305" y="-206.5" font-family="Helvetica,sans-Serif" font-size="10.00">+ getDefaultShortcut()</text>
</a>
</g>
</g>
<!-- Node2&#45;&gt;Node1 -->
<g id="edge1" class="edge">
<title>Node2&#45;&gt;Node1</title>
<path fill="none" stroke="midnightblue" d="M361,-189.46C361,-179.91 361,-170.68 361,-162.61"/>
<polygon fill="none" stroke="midnightblue" points="357.5,-189.49 361,-199.49 364.5,-189.49 357.5,-189.49"/>
</g>
<!-- Node3 -->
<g id="node3" class="node">
<title>Node3</title>
<g id="a_node3"><a xlink:href="../../d9/d5b/classQObject.html" target="_top" xlink:title=" ">
<polygon fill="white" stroke="black" points="333,-370.5 333,-427.5 389,-427.5 389,-370.5 333,-370.5"/>
<text text-anchor="middle" x="361" y="-415.5" font-family="Helvetica,sans-Serif" font-size="10.00">QObject</text>
<polyline fill="none" stroke="black" points="333,-408.5 389,-408.5 "/>
<text text-anchor="middle" x="361" y="-396.5" font-family="Helvetica,sans-Serif" font-size="10.00"> </text>
<polyline fill="none" stroke="black" points="333,-389.5 389,-389.5 "/>
<text text-anchor="middle" x="361" y="-377.5" font-family="Helvetica,sans-Serif" font-size="10.00"> </text>
</a>
</g>
</g>
<!-- Node3&#45;&gt;Node2 -->
<g id="edge2" class="edge">
<title>Node3&#45;&gt;Node2</title>
<path fill="none" stroke="midnightblue" d="M361,-360.16C361,-351.78 361,-342.67 361,-333.53"/>
<polygon fill="none" stroke="midnightblue" points="357.5,-360.32 361,-370.32 364.5,-360.32 357.5,-360.32"/>
</g>
</g>
</svg>
