<?xml version="1.0" encoding="UTF-8" standalone="no"?>
<!DOCTYPE svg PUBLIC "-//W3C//DTD SVG 1.1//EN"
 "http://www.w3.org/Graphics/SVG/1.1/DTD/svg11.dtd">
<!-- Generated by graphviz version 2.43.0 (0)
 -->
<!-- Title: CDisplayWindow::ActionCollection Pages: 1 -->
<!--zoomable 428 -->

<svg id="main" version="1.1" xmlns="http://www.w3.org/2000/svg" xmlns:xlink="http://www.w3.org/1999/xlink" xml:space="preserve" onload="init(evt)">
<style type="text/css"><![CDATA[
.node, .edge {opacity: 0.7;}
.node.selected, .edge.selected {opacity: 1;}
.edge:hover path { stroke: red; }
.edge:hover polygon { stroke: red; fill: red; }
]]></style>

<defs>
  <circle id="rim" cx="0" cy="0" r="7"/>
  <circle id="rim2" cx="0" cy="0" r="3.5"/>
  <g id="zoomPlus">
    <use xlink:href="#rim" fill="#404040"><set attributeName="fill" to="#808080" begin="zoomplus.mouseover" end="zoomplus.mouseout"/></use>
    <path d="M-4,0h8M0,-4v8" fill="none" stroke="white" stroke-width="1.5" pointer-events="none"/>
  </g>
  <g id="zoomMin">
    <use xlink:href="#rim" fill="#404040"><set attributeName="fill" to="#808080" begin="zoomminus.mouseover" end="zoomminus.mouseout"/></use>
    <path d="M-4,0h8" fill="none" stroke="white" stroke-width="1.5" pointer-events="none"/>
  </g>
  <g id="arrowUp" transform="translate(30 24)">
    <use xlink:href="#rim"/>
    <path pointer-events="none" fill="none" stroke="white" stroke-width="1.5" d="M0,-3.0v7 M-2.5,-0.5L0,-3.0L2.5,-0.5"/>
  </g>
  <g id="arrowRight" transform="rotate(90) translate(36 -43)">
    <use xlink:href="#rim"/>
    <path pointer-events="none" fill="none" stroke="white" stroke-width="1.5" d="M0,-3.0v7 M-2.5,-0.5L0,-3.0L2.5,-0.5"/>
  </g>
  <g id="arrowDown" transform="rotate(180) translate(-30 -48)">
    <use xlink:href="#rim"/>
    <path pointer-events="none" fill="none" stroke="white" stroke-width="1.5" d="M0,-3.0v7 M-2.5,-0.5L0,-3.0L2.5,-0.5"/>
  </g>
  <g id="arrowLeft" transform="rotate(270) translate(-36 17)">
    <use xlink:href="#rim"/>
    <path pointer-events="none" fill="none" stroke="white" stroke-width="1.5" d="M0,-3.0v7 M-2.5,-0.5L0,-3.0L2.5,-0.5"/>
  </g>
  <g id="resetDef">
    <use xlink:href="#rim2" fill="#404040"><set attributeName="fill" to="#808080" begin="reset.mouseover" end="reset.mouseout"/></use>
  </g>
</defs>
<script type="application/ecmascript">
var viewWidth = 660;
var viewHeight = 428;
var sectionId = 'dynsection-0';
</script>
<script type="application/ecmascript" xlink:href="../../svg.min.js"/>
<svg id="graph" class="graph">
<g id="viewport">
<title>CDisplayWindow::ActionCollection</title>
<!-- Node1 -->
<g id="Node000001" class="node">
<title>Node1</title>
<g id="a_Node000001"><a xlink:title=" ">
<polygon fill="#999999" stroke="transparent" points="438,-145 260,-145 260,-96 438,-96 438,-145"/>
<text text-anchor="start" x="265" y="-132.5" font-family="Helvetica,sans-Serif" font-size="10.00">CDisplayWindow::ActionCollection</text>
<text text-anchor="start" x="347" y="-117.5" font-family="Helvetica,sans-Serif" font-size="10.00"> </text>
<text text-anchor="start" x="281" y="-102.5" font-family="Helvetica,sans-Serif" font-size="10.00">+</text>
<text text-anchor="start" x="311" y="-102.5" font-family="Helvetica,sans-Serif" font-size="10.00">ActionCollection()</text>
<polygon fill="#666666" stroke="#666666" points="260,-127.5 260,-127.5 438,-127.5 438,-127.5 260,-127.5"/>
<polygon fill="#666666" stroke="#666666" points="260,-112.5 260,-112.5 438,-112.5 438,-112.5 260,-112.5"/>
<polygon fill="none" stroke="#666666" points="260,-96 260,-145 438,-145 438,-96 260,-96"/>
</a>
</g>
</g>
<!-- Node4 -->
<g id="Node000004" class="node">
<title>Node4</title>
<g id="a_Node000004"><a xlink:href="../../d3/d5b/classCBibleReadWindow_1_1ActionCollection.html" target="_top" xlink:title=" ">
<polygon fill="white" stroke="transparent" points="142,-60 0,-60 0,0 142,0 142,-60"/>
<text text-anchor="start" x="5" y="-48" font-family="Helvetica,sans-Serif" font-size="10.00">CBibleReadWindow::Action</text>
<text text-anchor="start" x="46.5" y="-37" font-family="Helvetica,sans-Serif" font-size="10.00">Collection</text>
<text text-anchor="start" x="69" y="-22" font-family="Helvetica,sans-Serif" font-size="10.00"> </text>
<text text-anchor="start" x="12" y="-7" font-family="Helvetica,sans-Serif" font-size="10.00">+</text>
<text text-anchor="start" x="33" y="-7" font-family="Helvetica,sans-Serif" font-size="10.00">ActionCollection()</text>
<polygon fill="#666666" stroke="#666666" points="0,-32 0,-32 142,-32 142,-32 0,-32"/>
<polygon fill="#666666" stroke="#666666" points="0,-17 0,-17 142,-17 142,-17 0,-17"/>
<polygon fill="none" stroke="#666666" points="0,0 0,-60 142,-60 142,0 0,0"/>
</a>
</g>
</g>
<!-- Node1&#45;&gt;Node4 -->
<g id="edge3_Node000001_Node000004" class="edge">
<title>Node1&#45;&gt;Node4</title>
<g id="a_edge3_Node000001_Node000004"><a xlink:title=" ">
<path fill="none" stroke="#63b8ff" d="M257.02,-93.02C223.51,-83.07 185.42,-71.4 151,-60 148.05,-59.02 145.05,-58.01 142.03,-56.98"/>
<polygon fill="none" stroke="#63b8ff" points="256.21,-96.43 266.79,-95.91 258.2,-89.72 256.21,-96.43"/>
</a>
</g>
</g>
<!-- Node5 -->
<g id="Node000005" class="node">
<title>Node5</title>
<g id="a_Node000005"><a xlink:href="../../d4/ddd/classCBookReadWindow_1_1ActionCollection.html" target="_top" xlink:title=" ">
<polygon fill="white" stroke="transparent" points="351.5,-54.5 160.5,-54.5 160.5,-5.5 351.5,-5.5 351.5,-54.5"/>
<text text-anchor="start" x="166" y="-42" font-family="Helvetica,sans-Serif" font-size="10.00">CBookReadWindow::ActionCollection</text>
<text text-anchor="start" x="254.5" y="-27" font-family="Helvetica,sans-Serif" font-size="10.00"> </text>
<text text-anchor="start" x="185.5" y="-12" font-family="Helvetica,sans-Serif" font-size="10.00">+</text>
<text text-anchor="start" x="219" y="-12" font-family="Helvetica,sans-Serif" font-size="10.00">ActionCollection()</text>
<polygon fill="#666666" stroke="#666666" points="161,-37 161,-37 352,-37 352,-37 161,-37"/>
<polygon fill="#666666" stroke="#666666" points="161,-22 161,-22 352,-22 352,-22 161,-22"/>
<polygon fill="none" stroke="#666666" points="160.5,-5.5 160.5,-54.5 351.5,-54.5 351.5,-5.5 160.5,-5.5"/>
</a>
</g>
</g>
<!-- Node1&#45;&gt;Node5 -->
<g id="edge4_Node000001_Node000005" class="edge">
<title>Node1&#45;&gt;Node5</title>
<g id="a_edge4_Node000001_Node000005"><a xlink:title=" ">
<path fill="none" stroke="#63b8ff" d="M316.63,-88.69C304.94,-77.57 291.95,-65.21 280.99,-54.78"/>
<polygon fill="none" stroke="#63b8ff" points="314.42,-91.43 324.08,-95.78 319.25,-86.35 314.42,-91.43"/>
</a>
</g>
</g>
<!-- Node6 -->
<g id="Node000006" class="node">
<title>Node6</title>
<g id="a_Node000006"><a xlink:href="../../d6/d60/classCCommentaryReadWindow_1_1ActionCollection.html" target="_top" xlink:title=" ">
<polygon fill="white" stroke="transparent" points="514.5,-60 369.5,-60 369.5,0 514.5,0 514.5,-60"/>
<text text-anchor="start" x="375" y="-48" font-family="Helvetica,sans-Serif" font-size="10.00">CCommentaryReadWindow</text>
<text text-anchor="start" x="399.5" y="-37" font-family="Helvetica,sans-Serif" font-size="10.00">::ActionCollection</text>
<text text-anchor="start" x="440.5" y="-22" font-family="Helvetica,sans-Serif" font-size="10.00"> </text>
<text text-anchor="start" x="383" y="-7" font-family="Helvetica,sans-Serif" font-size="10.00">+</text>
<text text-anchor="start" x="405" y="-7" font-family="Helvetica,sans-Serif" font-size="10.00">ActionCollection()</text>
<polygon fill="#666666" stroke="#666666" points="370,-32 370,-32 515,-32 515,-32 370,-32"/>
<polygon fill="#666666" stroke="#666666" points="370,-17 370,-17 515,-17 515,-17 370,-17"/>
<polygon fill="none" stroke="#666666" points="369.5,0 369.5,-60 514.5,-60 514.5,0 369.5,0"/>
</a>
</g>
</g>
<!-- Node1&#45;&gt;Node6 -->
<g id="edge5_Node000001_Node000006" class="edge">
<title>Node1&#45;&gt;Node6</title>
<g id="a_edge5_Node000001_Node000006"><a xlink:title=" ">
<path fill="none" stroke="#63b8ff" d="M381.19,-88.87C390.97,-79.56 401.68,-69.36 411.36,-60.16"/>
<polygon fill="none" stroke="#63b8ff" points="378.75,-86.35 373.92,-95.78 383.58,-91.43 378.75,-86.35"/>
</a>
</g>
</g>
<!-- Node7 -->
<g id="Node000007" class="node">
<title>Node7</title>
<g id="a_Node000007"><a xlink:href="../../d4/da8/classCLexiconReadWindow_1_1ActionCollection.html" target="_top" xlink:title=" ">
<polygon fill="white" stroke="transparent" points="651.5,-60 532.5,-60 532.5,0 651.5,0 651.5,-60"/>
<text text-anchor="start" x="538" y="-48" font-family="Helvetica,sans-Serif" font-size="10.00">CLexiconReadWindow</text>
<text text-anchor="start" x="549.5" y="-37" font-family="Helvetica,sans-Serif" font-size="10.00">::ActionCollection</text>
<text text-anchor="start" x="590.5" y="-22" font-family="Helvetica,sans-Serif" font-size="10.00"> </text>
<text text-anchor="start" x="539.5" y="-7" font-family="Helvetica,sans-Serif" font-size="10.00">+</text>
<text text-anchor="start" x="555" y="-7" font-family="Helvetica,sans-Serif" font-size="10.00">ActionCollection()</text>
<polygon fill="#666666" stroke="#666666" points="533,-32 533,-32 652,-32 652,-32 533,-32"/>
<polygon fill="#666666" stroke="#666666" points="533,-17 533,-17 652,-17 652,-17 533,-17"/>
<polygon fill="none" stroke="#666666" points="532.5,0 532.5,-60 651.5,-60 651.5,0 532.5,0"/>
</a>
</g>
</g>
<!-- Node1&#45;&gt;Node7 -->
<g id="edge6_Node000001_Node000007" class="edge">
<title>Node1&#45;&gt;Node7</title>
<g id="a_edge6_Node000001_Node000007"><a xlink:title=" ">
<path fill="none" stroke="#63b8ff" d="M432,-92.7C461.25,-82.89 494.25,-71.38 524,-60 526.76,-58.95 529.57,-57.85 532.4,-56.72"/>
<polygon fill="none" stroke="#63b8ff" points="430.61,-89.48 422.24,-95.97 432.83,-96.12 430.61,-89.48"/>
</a>
</g>
</g>
<!-- Node2 -->
<g id="Node000002" class="node">
<title>Node2</title>
<g id="a_Node000002"><a xlink:href="../../d0/d28/classBtActionCollection.html" target="_top" xlink:title=" ">
<polygon fill="white" stroke="transparent" points="409.5,-335 288.5,-335 288.5,-181 409.5,-181 409.5,-335"/>
<text text-anchor="start" x="304" y="-323" font-family="Helvetica,sans-Serif" font-size="10.00">BtActionCollection</text>
<text text-anchor="start" x="295.5" y="-308" font-family="Helvetica,sans-Serif" font-size="10.00">&#45;</text>
<text text-anchor="start" x="306" y="-308" font-family="Helvetica,sans-Serif" font-size="10.00">m_actions</text>
<text text-anchor="start" x="293" y="-293" font-family="Helvetica,sans-Serif" font-size="10.00">+</text>
<text text-anchor="start" x="306" y="-293" font-family="Helvetica,sans-Serif" font-size="10.00">action()</text>
<text text-anchor="start" x="293" y="-278" font-family="Helvetica,sans-Serif" font-size="10.00">+</text>
<text text-anchor="start" x="306" y="-278" font-family="Helvetica,sans-Serif" font-size="10.00">actionAs()</text>
<text text-anchor="start" x="293" y="-263" font-family="Helvetica,sans-Serif" font-size="10.00">+</text>
<text text-anchor="start" x="306" y="-263" font-family="Helvetica,sans-Serif" font-size="10.00">actions()</text>
<text text-anchor="start" x="293" y="-248" font-family="Helvetica,sans-Serif" font-size="10.00">+</text>
<text text-anchor="start" x="306" y="-248" font-family="Helvetica,sans-Serif" font-size="10.00">addAction()</text>
<text text-anchor="start" x="293" y="-233" font-family="Helvetica,sans-Serif" font-size="10.00">+</text>
<text text-anchor="start" x="306" y="-233" font-family="Helvetica,sans-Serif" font-size="10.00">BtActionCollection()</text>
<text text-anchor="start" x="293" y="-218" font-family="Helvetica,sans-Serif" font-size="10.00">+</text>
<text text-anchor="start" x="306" y="-218" font-family="Helvetica,sans-Serif" font-size="10.00">readShortcuts()</text>
<text text-anchor="start" x="293" y="-203" font-family="Helvetica,sans-Serif" font-size="10.00">+</text>
<text text-anchor="start" x="306" y="-203" font-family="Helvetica,sans-Serif" font-size="10.00">writeShortcuts()</text>
<text text-anchor="start" x="293" y="-188" font-family="Helvetica,sans-Serif" font-size="10.00">+</text>
<text text-anchor="start" x="306" y="-188" font-family="Helvetica,sans-Serif" font-size="10.00">getDefaultShortcut()</text>
<polygon fill="#666666" stroke="#666666" points="289,-318 289,-318 410,-318 410,-318 289,-318"/>
<polygon fill="#666666" stroke="#666666" points="289,-303 289,-303 304,-303 304,-303 289,-303"/>
<polygon fill="#666666" stroke="#666666" points="304,-303 304,-303 410,-303 410,-303 304,-303"/>
<polygon fill="none" stroke="#666666" points="288.5,-181 288.5,-335 409.5,-335 409.5,-181 288.5,-181"/>
</a>
</g>
</g>
<!-- Node2&#45;&gt;Node1 -->
<g id="edge1_Node000001_Node000002" class="edge">
<title>Node2&#45;&gt;Node1</title>
<g id="a_edge1_Node000001_Node000002"><a xlink:title=" ">
<path fill="none" stroke="#63b8ff" d="M349,-170.67C349,-161.37 349,-152.57 349,-145.06"/>
<polygon fill="none" stroke="#63b8ff" points="345.5,-170.93 349,-180.93 352.5,-170.93 345.5,-170.93"/>
</a>
</g>
</g>
<!-- Node3 -->
<g id="Node000003" class="node">
<title>Node3</title>
<g id="a_Node000003"><a xlink:href="../../d9/d5b/classQObject.html" target="_top" xlink:title=" ">
<polygon fill="white" stroke="transparent" points="374,-420 324,-420 324,-371 374,-371 374,-420"/>
<text text-anchor="start" x="329" y="-407.5" font-family="Helvetica,sans-Serif" font-size="10.00">QObject</text>
<text text-anchor="start" x="347" y="-392.5" font-family="Helvetica,sans-Serif" font-size="10.00"> </text>
<text text-anchor="start" x="347" y="-377.5" font-family="Helvetica,sans-Serif" font-size="10.00"> </text>
<polygon fill="#666666" stroke="#666666" points="324,-402.5 324,-402.5 374,-402.5 374,-402.5 324,-402.5"/>
<polygon fill="#666666" stroke="#666666" points="324,-387.5 324,-387.5 374,-387.5 374,-387.5 324,-387.5"/>
<polygon fill="none" stroke="#666666" points="324,-371 324,-420 374,-420 374,-371 324,-371"/>
</a>
</g>
</g>
<!-- Node3&#45;&gt;Node2 -->
<g id="edge2_Node000002_Node000003" class="edge">
<title>Node3&#45;&gt;Node2</title>
<g id="a_edge2_Node000002_Node000003"><a xlink:title=" ">
<path fill="none" stroke="#63b8ff" d="M349,-360.66C349,-352.74 349,-343.97 349,-335.01"/>
<polygon fill="none" stroke="#63b8ff" points="345.5,-360.9 349,-370.9 352.5,-360.9 345.5,-360.9"/>
</a>
</g>
</g>
</g>
</svg>

<g id="navigator" transform="translate(0 0)" fill="#404254">
  <rect fill="#f2f5e9" fill-opacity="0.5" stroke="#606060" stroke-width=".5" x="0" y="0" width="60" height="60"/>
  <use id="zoomplus" xlink:href="#zoomPlus" x="17" y="9" onmousedown="handleZoom(evt,'in')"/>
  <use id="zoomminus" xlink:href="#zoomMin" x="42" y="9" onmousedown="handleZoom(evt,'out')"/>
  <use id="reset" xlink:href="#resetDef" x="30" y="36" onmousedown="handleReset()"/>
   <use id="arrowup" xlink:href="#arrowUp" x="0" y="0" onmousedown="handlePan(0,-1)"/>
  <use id="arrowright" xlink:href="#arrowRight" x="0" y="0" onmousedown="handlePan(1,0)"/>
  <use id="arrowdown" xlink:href="#arrowDown" x="0" y="0" onmousedown="handlePan(0,1)"/>
  <use id="arrowleft" xlink:href="#arrowLeft" x="0" y="0" onmousedown="handlePan(-1,0)"/>
</g>
<svg viewBox="0 0 15 15" width="100%" height="30px" preserveAspectRatio="xMaxYMin meet">
 <g id="arrow_out" transform="scale(0.3 0.3)">
  <a xlink:href="classCDisplayWindow_1_1ActionCollection__inherit__graph_org.svg" target="_base">
   <rect id="button" ry="5" rx="5" y="6" x="6" height="38" width="38"
        fill="#f2f5e9" fill-opacity="0.5" stroke="#606060" stroke-width="1.0"/>
   <path id="arrow"
     d="M 11.500037,31.436501 C 11.940474,20.09759 22.043105,11.32322 32.158766,21.979434 L 37.068811,17.246167 C 37.068811,17.246167 37.088388,32 37.088388,32 L 22.160133,31.978069 C 22.160133,31.978069 26.997745,27.140456 26.997745,27.140456 C 18.528582,18.264221 13.291696,25.230495 11.500037,31.436501 z"
     style="fill:#404040;"/>
  </a>
 </g>
</svg>

<style type='text/css'>
<![CDATA[
[data-mouse-over-selected='false'] { opacity: 0.7; }
[data-mouse-over-selected='true']  { opacity: 1.0; }
]]>
</style>
<script type="application/ecmascript"><![CDATA[
document.addEventListener('DOMContentLoaded', (event) => {
  highlightEdges();
  highlightAdjacentNodes();
});
]]></script>
</svg>
