<?xml version="1.0" encoding="UTF-8" standalone="no"?>
<!DOCTYPE svg PUBLIC "-//W3C//DTD SVG 1.1//EN"
 "http://www.w3.org/Graphics/SVG/1.1/DTD/svg11.dtd">
<!-- Generated by graphviz version 2.43.0 (0)
 -->
<!-- Title: BtBookshelfSourcesProgressPage Pages: 1 -->
<svg width="181pt" height="444pt"
 viewBox="0.00 0.00 181.00 444.00" xmlns="http://www.w3.org/2000/svg" xmlns:xlink="http://www.w3.org/1999/xlink">
<g id="graph0" class="graph" transform="scale(1 1) rotate(0) translate(4 440)">
<title>BtBookshelfSourcesProgressPage</title>
<!-- Node1 -->
<g id="Node000001" class="node">
<title>Node1</title>
<g id="a_Node000001"><a xlink:title=" ">
<polygon fill="#999999" stroke="transparent" points="173,-251 0,-251 0,0 173,0 173,-251"/>
<text text-anchor="start" x="5.5" y="-238.5" font-family="Helvetica,sans-Serif" font-size="10.00">BtBookshelfSourcesProgressPage</text>
<text text-anchor="start" x="8" y="-223.5" font-family="Helvetica,sans-Serif" font-size="10.00">&#45;</text>
<text text-anchor="start" x="19.5" y="-223.5" font-family="Helvetica,sans-Serif" font-size="10.00">m_installCompleted</text>
<text text-anchor="start" x="8" y="-208.5" font-family="Helvetica,sans-Serif" font-size="10.00">&#45;</text>
<text text-anchor="start" x="19.5" y="-208.5" font-family="Helvetica,sans-Serif" font-size="10.00">m_msgLabel</text>
<text text-anchor="start" x="8" y="-193.5" font-family="Helvetica,sans-Serif" font-size="10.00">&#45;</text>
<text text-anchor="start" x="19.5" y="-193.5" font-family="Helvetica,sans-Serif" font-size="10.00">m_progressBar</text>
<text text-anchor="start" x="8" y="-178.5" font-family="Helvetica,sans-Serif" font-size="10.00">&#45;</text>
<text text-anchor="start" x="19.5" y="-178.5" font-family="Helvetica,sans-Serif" font-size="10.00">m_stopButton</text>
<text text-anchor="start" x="8" y="-163.5" font-family="Helvetica,sans-Serif" font-size="10.00">&#45;</text>
<text text-anchor="start" x="19.5" y="-163.5" font-family="Helvetica,sans-Serif" font-size="10.00">m_thread</text>
<text text-anchor="start" x="5.5" y="-148.5" font-family="Helvetica,sans-Serif" font-size="10.00">+</text>
<text text-anchor="start" x="19.5" y="-148.5" font-family="Helvetica,sans-Serif" font-size="10.00">BtBookshelfSourcesProgress</text>
<text text-anchor="start" x="19.5" y="-137.5" font-family="Helvetica,sans-Serif" font-size="10.00">Page()</text>
<text text-anchor="start" x="5.5" y="-122.5" font-family="Helvetica,sans-Serif" font-size="10.00">+</text>
<text text-anchor="start" x="19.5" y="-122.5" font-family="Helvetica,sans-Serif" font-size="10.00">destroyThread()</text>
<text text-anchor="start" x="5.5" y="-107.5" font-family="Helvetica,sans-Serif" font-size="10.00">+</text>
<text text-anchor="start" x="19.5" y="-107.5" font-family="Helvetica,sans-Serif" font-size="10.00">initializePage()</text>
<text text-anchor="start" x="5.5" y="-92.5" font-family="Helvetica,sans-Serif" font-size="10.00">+</text>
<text text-anchor="start" x="19.5" y="-92.5" font-family="Helvetica,sans-Serif" font-size="10.00">isComplete()</text>
<text text-anchor="start" x="5.5" y="-77.5" font-family="Helvetica,sans-Serif" font-size="10.00">+</text>
<text text-anchor="start" x="19.5" y="-77.5" font-family="Helvetica,sans-Serif" font-size="10.00">nextId()</text>
<text text-anchor="start" x="5.5" y="-62.5" font-family="Helvetica,sans-Serif" font-size="10.00">+</text>
<text text-anchor="start" x="19.5" y="-62.5" font-family="Helvetica,sans-Serif" font-size="10.00">~BtBookshelfSourcesProgress</text>
<text text-anchor="start" x="19.5" y="-51.5" font-family="Helvetica,sans-Serif" font-size="10.00">Page()</text>
<text text-anchor="start" x="5.5" y="-36.5" font-family="Helvetica,sans-Serif" font-size="10.00">+</text>
<text text-anchor="start" x="19.5" y="-36.5" font-family="Helvetica,sans-Serif" font-size="10.00">slotStopInstall()</text>
<text text-anchor="start" x="8" y="-21.5" font-family="Helvetica,sans-Serif" font-size="10.00">&#45;</text>
<text text-anchor="start" x="19.5" y="-21.5" font-family="Helvetica,sans-Serif" font-size="10.00">retranslateUi()</text>
<text text-anchor="start" x="8" y="-6.5" font-family="Helvetica,sans-Serif" font-size="10.00">&#45;</text>
<text text-anchor="start" x="19.5" y="-6.5" font-family="Helvetica,sans-Serif" font-size="10.00">slotThreadFinished()</text>
<polygon fill="#666666" stroke="#666666" points="0.5,-233.5 0.5,-233.5 173.5,-233.5 173.5,-233.5 0.5,-233.5"/>
<polygon fill="#666666" stroke="#666666" points="0.5,-158.5 0.5,-158.5 17.5,-158.5 17.5,-158.5 0.5,-158.5"/>
<polygon fill="#666666" stroke="#666666" points="17.5,-158.5 17.5,-158.5 173.5,-158.5 173.5,-158.5 17.5,-158.5"/>
<polygon fill="none" stroke="#666666" points="0,0 0,-251 173,-251 173,0 0,0"/>
</a>
</g>
</g>
<!-- Node2 -->
<g id="Node000002" class="node">
<title>Node2</title>
<g id="a_Node000002"><a xlink:href="../../da/dee/classBtBookshelfWizardPage.html" target="_top" xlink:title=" ">
<polygon fill="white" stroke="transparent" points="159,-351 14,-351 14,-287 159,-287 159,-351"/>
<text text-anchor="start" x="28.5" y="-339" font-family="Helvetica,sans-Serif" font-size="10.00">BtBookshelfWizardPage</text>
<text text-anchor="start" x="85" y="-324" font-family="Helvetica,sans-Serif" font-size="10.00"> </text>
<text text-anchor="start" x="18.5" y="-309" font-family="Helvetica,sans-Serif" font-size="10.00">+</text>
<text text-anchor="start" x="31.5" y="-309" font-family="Helvetica,sans-Serif" font-size="10.00">BtBookshelfWizardPage()</text>
<text text-anchor="start" x="18.5" y="-294" font-family="Helvetica,sans-Serif" font-size="10.00">+</text>
<text text-anchor="start" x="31.5" y="-294" font-family="Helvetica,sans-Serif" font-size="10.00">btWizard()</text>
<polygon fill="#666666" stroke="#666666" points="14.5,-334 14.5,-334 159.5,-334 159.5,-334 14.5,-334"/>
<polygon fill="#666666" stroke="#666666" points="14.5,-319 14.5,-319 159.5,-319 159.5,-319 14.5,-319"/>
<polygon fill="none" stroke="#666666" points="14,-287 14,-351 159,-351 159,-287 14,-287"/>
</a>
</g>
</g>
<!-- Node2&#45;&gt;Node1 -->
<g id="edge1_Node000001_Node000002" class="edge">
<title>Node2&#45;&gt;Node1</title>
<g id="a_edge1_Node000001_Node000002"><a xlink:title=" ">
<path fill="none" stroke="#63b8ff" d="M86.5,-276.55C86.5,-268.67 86.5,-260.05 86.5,-251.06"/>
<polygon fill="none" stroke="#63b8ff" points="83,-276.81 86.5,-286.81 90,-276.81 83,-276.81"/>
</a>
</g>
</g>
<!-- Node3 -->
<g id="Node000003" class="node">
<title>Node3</title>
<g id="a_Node000003"><a xlink:href="../../dc/d67/classQWizardPage.html" target="_top" xlink:title=" ">
<polygon fill="white" stroke="transparent" points="124,-436 49,-436 49,-387 124,-387 124,-436"/>
<text text-anchor="start" x="54.5" y="-423.5" font-family="Helvetica,sans-Serif" font-size="10.00">QWizardPage</text>
<text text-anchor="start" x="85" y="-408.5" font-family="Helvetica,sans-Serif" font-size="10.00"> </text>
<text text-anchor="start" x="85" y="-393.5" font-family="Helvetica,sans-Serif" font-size="10.00"> </text>
<polygon fill="#666666" stroke="#666666" points="49.5,-418.5 49.5,-418.5 124.5,-418.5 124.5,-418.5 49.5,-418.5"/>
<polygon fill="#666666" stroke="#666666" points="49.5,-403.5 49.5,-403.5 124.5,-403.5 124.5,-403.5 49.5,-403.5"/>
<polygon fill="none" stroke="#666666" points="49,-387 49,-436 124,-436 124,-387 49,-387"/>
</a>
</g>
</g>
<!-- Node3&#45;&gt;Node2 -->
<g id="edge2_Node000002_Node000003" class="edge">
<title>Node3&#45;&gt;Node2</title>
<g id="a_edge2_Node000002_Node000003"><a xlink:title=" ">
<path fill="none" stroke="#63b8ff" d="M86.5,-376.54C86.5,-368.2 86.5,-359.31 86.5,-351.11"/>
<polygon fill="none" stroke="#63b8ff" points="83,-376.72 86.5,-386.72 90,-376.72 83,-376.72"/>
</a>
</g>
</g>
</g>
</svg>
