<?xml version="1.0" encoding="UTF-8" standalone="no"?>
<!DOCTYPE svg PUBLIC "-//W3C//DTD SVG 1.1//EN"
 "http://www.w3.org/Graphics/SVG/1.1/DTD/svg11.dtd">
<!-- Generated by graphviz version 2.43.0 (0)
 -->
<!-- Title: BtBookshelfSourcesProgressPage Pages: 1 -->
<svg width="187pt" height="419pt"
 viewBox="0.00 0.00 187.00 419.00" xmlns="http://www.w3.org/2000/svg" xmlns:xlink="http://www.w3.org/1999/xlink">
<g id="graph0" class="graph" transform="scale(1 1) rotate(0) translate(4 415)">
<title>BtBookshelfSourcesProgressPage</title>
<polygon fill="white" stroke="transparent" points="-4,4 -4,-415 183,-415 183,4 -4,4"/>
<!-- Node1 -->
<g id="node1" class="node">
<title>Node1</title>
<g id="a_node1"><a xlink:title=" ">
<polygon fill="#bfbfbf" stroke="black" points="0,-0.5 0,-211.5 179,-211.5 179,-0.5 0,-0.5"/>
<text text-anchor="middle" x="89.5" y="-199.5" font-family="Helvetica,sans-Serif" font-size="10.00">BtBookshelfSourcesProgressPage</text>
<polyline fill="none" stroke="black" points="0,-192.5 179,-192.5 "/>
<text text-anchor="start" x="8" y="-180.5" font-family="Helvetica,sans-Serif" font-size="10.00">&#45; m_installCompleted</text>
<text text-anchor="start" x="8" y="-169.5" font-family="Helvetica,sans-Serif" font-size="10.00">&#45; m_msgLabel</text>
<text text-anchor="start" x="8" y="-158.5" font-family="Helvetica,sans-Serif" font-size="10.00">&#45; m_progressBar</text>
<text text-anchor="start" x="8" y="-147.5" font-family="Helvetica,sans-Serif" font-size="10.00">&#45; m_stopButton</text>
<text text-anchor="start" x="8" y="-136.5" font-family="Helvetica,sans-Serif" font-size="10.00">&#45; m_thread</text>
<polyline fill="none" stroke="black" points="0,-129.5 179,-129.5 "/>
<text text-anchor="start" x="8" y="-117.5" font-family="Helvetica,sans-Serif" font-size="10.00">+ BtBookshelfSourcesProgress</text>
<text text-anchor="start" x="8" y="-106.5" font-family="Helvetica,sans-Serif" font-size="10.00">Page()</text>
<text text-anchor="start" x="8" y="-95.5" font-family="Helvetica,sans-Serif" font-size="10.00">+ destroyThread()</text>
<text text-anchor="start" x="8" y="-84.5" font-family="Helvetica,sans-Serif" font-size="10.00">+ initializePage()</text>
<text text-anchor="start" x="8" y="-73.5" font-family="Helvetica,sans-Serif" font-size="10.00">+ isComplete()</text>
<text text-anchor="start" x="8" y="-62.5" font-family="Helvetica,sans-Serif" font-size="10.00">+ nextId()</text>
<text text-anchor="start" x="8" y="-51.5" font-family="Helvetica,sans-Serif" font-size="10.00">+ ~BtBookshelfSourcesProgress</text>
<text text-anchor="start" x="8" y="-40.5" font-family="Helvetica,sans-Serif" font-size="10.00">Page()</text>
<text text-anchor="start" x="8" y="-29.5" font-family="Helvetica,sans-Serif" font-size="10.00">+ slotStopInstall()</text>
<text text-anchor="start" x="8" y="-18.5" font-family="Helvetica,sans-Serif" font-size="10.00">&#45; retranslateUi()</text>
<text text-anchor="start" x="8" y="-7.5" font-family="Helvetica,sans-Serif" font-size="10.00">&#45; slotThreadFinished()</text>
</a>
</g>
</g>
<!-- Node2 -->
<g id="node2" class="node">
<title>Node2</title>
<g id="a_node2"><a xlink:href="../../da/dee/classBtBookshelfWizardPage.html" target="_top" xlink:title=" ">
<polygon fill="white" stroke="black" points="13.5,-248.5 13.5,-316.5 165.5,-316.5 165.5,-248.5 13.5,-248.5"/>
<text text-anchor="middle" x="89.5" y="-304.5" font-family="Helvetica,sans-Serif" font-size="10.00">BtBookshelfWizardPage</text>
<polyline fill="none" stroke="black" points="13.5,-297.5 165.5,-297.5 "/>
<text text-anchor="middle" x="89.5" y="-285.5" font-family="Helvetica,sans-Serif" font-size="10.00"> </text>
<polyline fill="none" stroke="black" points="13.5,-278.5 165.5,-278.5 "/>
<text text-anchor="start" x="21.5" y="-266.5" font-family="Helvetica,sans-Serif" font-size="10.00">+ BtBookshelfWizardPage()</text>
<text text-anchor="start" x="21.5" y="-255.5" font-family="Helvetica,sans-Serif" font-size="10.00">+ btWizard()</text>
</a>
</g>
</g>
<!-- Node2&#45;&gt;Node1 -->
<g id="edge1" class="edge">
<title>Node2&#45;&gt;Node1</title>
<path fill="none" stroke="midnightblue" d="M89.5,-238.22C89.5,-229.96 89.5,-220.99 89.5,-211.75"/>
<polygon fill="none" stroke="midnightblue" points="86,-238.27 89.5,-248.27 93,-238.27 86,-238.27"/>
</g>
<!-- Node3 -->
<g id="node3" class="node">
<title>Node3</title>
<g id="a_node3"><a xlink:href="../../dc/d67/classQWizardPage.html" target="_top" xlink:title=" ">
<polygon fill="white" stroke="black" points="49,-353.5 49,-410.5 130,-410.5 130,-353.5 49,-353.5"/>
<text text-anchor="middle" x="89.5" y="-398.5" font-family="Helvetica,sans-Serif" font-size="10.00">QWizardPage</text>
<polyline fill="none" stroke="black" points="49,-391.5 130,-391.5 "/>
<text text-anchor="middle" x="89.5" y="-379.5" font-family="Helvetica,sans-Serif" font-size="10.00"> </text>
<polyline fill="none" stroke="black" points="49,-372.5 130,-372.5 "/>
<text text-anchor="middle" x="89.5" y="-360.5" font-family="Helvetica,sans-Serif" font-size="10.00"> </text>
</a>
</g>
</g>
<!-- Node3&#45;&gt;Node2 -->
<g id="edge2" class="edge">
<title>Node3&#45;&gt;Node2</title>
<path fill="none" stroke="midnightblue" d="M89.5,-343.06C89.5,-334.39 89.5,-325.24 89.5,-316.79"/>
<polygon fill="none" stroke="midnightblue" points="86,-343.32 89.5,-353.32 93,-343.32 86,-343.32"/>
</g>
</g>
</svg>
