<?xml version="1.0" encoding="UTF-8" standalone="no"?>
<!DOCTYPE svg PUBLIC "-//W3C//DTD SVG 1.1//EN"
 "http://www.w3.org/Graphics/SVG/1.1/DTD/svg11.dtd">
<!-- Generated by graphviz version 2.43.0 (0)
 -->
<!-- Title: QToolButton Pages: 1 -->
<!--zoomable 424 -->
<svg id="main" version="1.1" xmlns="http://www.w3.org/2000/svg" xmlns:xlink="http://www.w3.org/1999/xlink" xml:space="preserve" onload="init(evt)">
<style type="text/css"><![CDATA[
.edge:hover path { stroke: red; }
.edge:hover polygon { stroke: red; fill: red; }
]]></style>
<script type="text/javascript"><![CDATA[
var edges = document.getElementsByTagName('g');
if (edges && edges.length) {
  for (var i=0;i<edges.length;i++) {
    if (edges[i].id.substr(0,4)=='edge') {
      edges[i].setAttribute('class','edge');
    }
  }
}
]]></script>
        <defs>
                <circle id="rim" cx="0" cy="0" r="7"/>
                <circle id="rim2" cx="0" cy="0" r="3.5"/>
                <g id="zoomPlus">
                        <use xlink:href="#rim" fill="#404040">
                                <set attributeName="fill" to="#808080" begin="zoomplus.mouseover" end="zoomplus.mouseout"/>
                        </use>
                        <path d="M-4,0h8M0,-4v8" fill="none" stroke="white" stroke-width="1.5" pointer-events="none"/>
                </g>
                <g id="zoomMin">
                        <use xlink:href="#rim" fill="#404040">
                                <set attributeName="fill" to="#808080" begin="zoomminus.mouseover" end="zoomminus.mouseout"/>
                        </use>
                        <path d="M-4,0h8" fill="none" stroke="white" stroke-width="1.5" pointer-events="none"/>
                </g>
                <g id="dirArrow">
                        <path fill="none" stroke="white" stroke-width="1.5" d="M0,-3.0v7 M-2.5,-0.5L0,-3.0L2.5,-0.5"/>
                </g>
               <g id="resetDef">
                       <use xlink:href="#rim2" fill="#404040">
                               <set attributeName="fill" to="#808080" begin="reset.mouseover" end="reset.mouseout"/>
                       </use>
               </g>
        </defs>

<script type="text/javascript">
var viewWidth = 884;
var viewHeight = 424;
var sectionId = 'dynsection-0';
</script>
<script xlink:href="../../svgpan.js"/>
<svg id="graph" class="graph">
<g id="viewport">
<title>QToolButton</title>
<polygon fill="white" stroke="transparent" points="-4,4 -4,-420 879.5,-420 879.5,4 -4,4"/>
<!-- Node1 -->
<g id="node1" class="node">
<title>Node1</title>
<g id="a_node1"><a xlink:title=" ">
<polygon fill="#bfbfbf" stroke="black" points="436,-358.5 436,-415.5 512,-415.5 512,-358.5 436,-358.5"/>
<text text-anchor="middle" x="474" y="-403.5" font-family="Helvetica,sans-Serif" font-size="10.00">QToolButton</text>
<polyline fill="none" stroke="black" points="436,-396.5 512,-396.5 "/>
<text text-anchor="middle" x="474" y="-384.5" font-family="Helvetica,sans-Serif" font-size="10.00"> </text>
<polyline fill="none" stroke="black" points="436,-377.5 512,-377.5 "/>
<text text-anchor="middle" x="474" y="-365.5" font-family="Helvetica,sans-Serif" font-size="10.00"> </text>
</a>
</g>
</g>
<!-- Node2 -->
<g id="node2" class="node">
<title>Node2</title>
<g id="a_node2"><a xlink:href="../../d7/d32/classBtDisplaySettingsButton.html" target="_top" xlink:title=" ">
<polygon fill="white" stroke="black" points="0,-0.5 0,-321.5 194,-321.5 194,-0.5 0,-0.5"/>
<text text-anchor="middle" x="97" y="-309.5" font-family="Helvetica,sans-Serif" font-size="10.00">BtDisplaySettingsButton</text>
<polyline fill="none" stroke="black" points="0,-302.5 194,-302.5 "/>
<text text-anchor="start" x="8" y="-290.5" font-family="Helvetica,sans-Serif" font-size="10.00">&#45; m_displayOptions</text>
<text text-anchor="start" x="8" y="-279.5" font-family="Helvetica,sans-Serif" font-size="10.00">&#45; m_filterOptions</text>
<text text-anchor="start" x="8" y="-268.5" font-family="Helvetica,sans-Serif" font-size="10.00">&#45; m_footnotesAction</text>
<text text-anchor="start" x="8" y="-257.5" font-family="Helvetica,sans-Serif" font-size="10.00">&#45; m_greekAccentsAction</text>
<text text-anchor="start" x="8" y="-246.5" font-family="Helvetica,sans-Serif" font-size="10.00">&#45; m_headingsAction</text>
<text text-anchor="start" x="8" y="-235.5" font-family="Helvetica,sans-Serif" font-size="10.00">&#45; m_hebrewCantillationAction</text>
<text text-anchor="start" x="8" y="-224.5" font-family="Helvetica,sans-Serif" font-size="10.00">&#45; m_hebrewPointsAction</text>
<text text-anchor="start" x="8" y="-213.5" font-family="Helvetica,sans-Serif" font-size="10.00">&#45; m_modules</text>
<text text-anchor="start" x="8" y="-202.5" font-family="Helvetica,sans-Serif" font-size="10.00">&#45; m_morphSegmentationAction</text>
<text text-anchor="start" x="8" y="-191.5" font-family="Helvetica,sans-Serif" font-size="10.00">&#45; m_popup</text>
<text text-anchor="start" x="8" y="-180.5" font-family="Helvetica,sans-Serif" font-size="10.00">&#45; m_redWordsAction</text>
<text text-anchor="start" x="8" y="-169.5" font-family="Helvetica,sans-Serif" font-size="10.00">&#45; m_scriptureReferencesAction</text>
<text text-anchor="start" x="8" y="-158.5" font-family="Helvetica,sans-Serif" font-size="10.00">&#45; m_variantAction</text>
<text text-anchor="start" x="8" y="-147.5" font-family="Helvetica,sans-Serif" font-size="10.00">&#45; m_verseNumbersAction</text>
<polyline fill="none" stroke="black" points="0,-140.5 194,-140.5 "/>
<text text-anchor="start" x="8" y="-128.5" font-family="Helvetica,sans-Serif" font-size="10.00">+ BtDisplaySettingsButton()</text>
<text text-anchor="start" x="8" y="-117.5" font-family="Helvetica,sans-Serif" font-size="10.00">+ setDisplayOptionsNoRepopulate()</text>
<text text-anchor="start" x="8" y="-106.5" font-family="Helvetica,sans-Serif" font-size="10.00">+ setFilterOptionsNoRepopulate()</text>
<text text-anchor="start" x="8" y="-95.5" font-family="Helvetica,sans-Serif" font-size="10.00">+ setDisplayOptions()</text>
<text text-anchor="start" x="8" y="-84.5" font-family="Helvetica,sans-Serif" font-size="10.00">+ setFilterOptions()</text>
<text text-anchor="start" x="8" y="-73.5" font-family="Helvetica,sans-Serif" font-size="10.00">+ setModules()</text>
<text text-anchor="start" x="8" y="-62.5" font-family="Helvetica,sans-Serif" font-size="10.00"># addMenuEntry()</text>
<text text-anchor="start" x="8" y="-51.5" font-family="Helvetica,sans-Serif" font-size="10.00"># initMenu()</text>
<text text-anchor="start" x="8" y="-40.5" font-family="Helvetica,sans-Serif" font-size="10.00"># isOptionAvailable()</text>
<text text-anchor="start" x="8" y="-29.5" font-family="Helvetica,sans-Serif" font-size="10.00"># repopulateMenu()</text>
<text text-anchor="start" x="8" y="-18.5" font-family="Helvetica,sans-Serif" font-size="10.00"># retranslateToolTip()</text>
<text text-anchor="start" x="8" y="-7.5" font-family="Helvetica,sans-Serif" font-size="10.00"># retranslateUi()</text>
</a>
</g>
</g>
<!-- Node1&#45;&gt;Node2 -->
<g id="edge1" class="edge">
<title>Node1&#45;&gt;Node2</title>
<path fill="none" stroke="midnightblue" d="M425.69,-385.21C367.66,-382.03 269.68,-369.36 202,-322 199.41,-320.19 196.88,-318.29 194.38,-316.32"/>
<polygon fill="none" stroke="midnightblue" points="425.55,-388.71 435.7,-385.68 425.88,-381.71 425.55,-388.71"/>
</g>
<!-- Node3 -->
<g id="node3" class="node">
<title>Node3</title>
<g id="a_node3"><a xlink:href="../../d4/df7/classBtDropdownChooserButton.html" target="_top" xlink:title=" ">
<polygon fill="white" stroke="black" points="211.5,-116 211.5,-206 378.5,-206 378.5,-116 211.5,-116"/>
<text text-anchor="middle" x="295" y="-194" font-family="Helvetica,sans-Serif" font-size="10.00">BtDropdownChooserButton</text>
<polyline fill="none" stroke="black" points="211.5,-187 378.5,-187 "/>
<text text-anchor="start" x="219.5" y="-175" font-family="Helvetica,sans-Serif" font-size="10.00">&#45; m_parent</text>
<text text-anchor="start" x="219.5" y="-164" font-family="Helvetica,sans-Serif" font-size="10.00">&#45; m_populateMenu</text>
<polyline fill="none" stroke="black" points="211.5,-157 378.5,-157 "/>
<text text-anchor="start" x="219.5" y="-145" font-family="Helvetica,sans-Serif" font-size="10.00">+ BtDropdownChooserButton()</text>
<text text-anchor="start" x="219.5" y="-134" font-family="Helvetica,sans-Serif" font-size="10.00">+ mousePressEvent()</text>
<text text-anchor="start" x="219.5" y="-123" font-family="Helvetica,sans-Serif" font-size="10.00"># wheelEvent()</text>
</a>
</g>
</g>
<!-- Node1&#45;&gt;Node3 -->
<g id="edge2" class="edge">
<title>Node1&#45;&gt;Node3</title>
<path fill="none" stroke="midnightblue" d="M427.34,-356.56C413.69,-346.61 399.39,-334.76 388,-322 356.87,-287.13 331.08,-240.21 314.62,-206.2"/>
<polygon fill="none" stroke="midnightblue" points="425.54,-359.57 435.72,-362.49 429.59,-353.86 425.54,-359.57"/>
</g>
<!-- Node4 -->
<g id="node4" class="node">
<title>Node4</title>
<g id="a_node4"><a xlink:href="../../d0/da1/classBtModuleChooserButton.html" target="_top" xlink:title=" ">
<polygon fill="white" stroke="black" points="397,-116 397,-206 551,-206 551,-116 397,-116"/>
<text text-anchor="middle" x="474" y="-194" font-family="Helvetica,sans-Serif" font-size="10.00">BtModuleChooserButton</text>
<polyline fill="none" stroke="black" points="397,-187 551,-187 "/>
<text text-anchor="start" x="405" y="-175" font-family="Helvetica,sans-Serif" font-size="10.00">&#45; m_popup</text>
<polyline fill="none" stroke="black" points="397,-168 551,-168 "/>
<text text-anchor="start" x="405" y="-156" font-family="Helvetica,sans-Serif" font-size="10.00">+ BtModuleChooserButton()</text>
<text text-anchor="start" x="405" y="-145" font-family="Helvetica,sans-Serif" font-size="10.00">+ updateMenu()</text>
<text text-anchor="start" x="405" y="-134" font-family="Helvetica,sans-Serif" font-size="10.00">&#45; icon()</text>
<text text-anchor="start" x="405" y="-123" font-family="Helvetica,sans-Serif" font-size="10.00">&#45; moduleChosen()</text>
</a>
</g>
</g>
<!-- Node1&#45;&gt;Node4 -->
<g id="edge3" class="edge">
<title>Node1&#45;&gt;Node4</title>
<path fill="none" stroke="midnightblue" d="M474,-347.86C474,-308.59 474,-247.44 474,-206.11"/>
<polygon fill="none" stroke="midnightblue" points="470.5,-348.08 474,-358.08 477.5,-348.08 470.5,-348.08"/>
</g>
<!-- Node5 -->
<g id="node5" class="node">
<title>Node5</title>
<g id="a_node5"><a xlink:href="../../d8/d63/classCScrollButton.html" target="_top" xlink:title=" ">
<polygon fill="white" stroke="black" points="569.5,-110.5 569.5,-211.5 704.5,-211.5 704.5,-110.5 569.5,-110.5"/>
<text text-anchor="middle" x="637" y="-199.5" font-family="Helvetica,sans-Serif" font-size="10.00">CScrollButton</text>
<polyline fill="none" stroke="black" points="569.5,-192.5 704.5,-192.5 "/>
<text text-anchor="start" x="577.5" y="-180.5" font-family="Helvetica,sans-Serif" font-size="10.00"># m_isLocked</text>
<text text-anchor="start" x="577.5" y="-169.5" font-family="Helvetica,sans-Serif" font-size="10.00"># m_movement</text>
<polyline fill="none" stroke="black" points="569.5,-162.5 704.5,-162.5 "/>
<text text-anchor="start" x="577.5" y="-150.5" font-family="Helvetica,sans-Serif" font-size="10.00">+ CScrollButton()</text>
<text text-anchor="start" x="577.5" y="-139.5" font-family="Helvetica,sans-Serif" font-size="10.00"># mouseMoveEvent()</text>
<text text-anchor="start" x="577.5" y="-128.5" font-family="Helvetica,sans-Serif" font-size="10.00"># mousePressEvent()</text>
<text text-anchor="start" x="577.5" y="-117.5" font-family="Helvetica,sans-Serif" font-size="10.00"># mouseReleaseEvent()</text>
</a>
</g>
</g>
<!-- Node1&#45;&gt;Node5 -->
<g id="edge4" class="edge">
<title>Node1&#45;&gt;Node5</title>
<path fill="none" stroke="midnightblue" d="M520.91,-357.36C534.7,-347.38 549.02,-335.32 560,-322 587.07,-289.18 607.33,-245.25 620.26,-211.73"/>
<polygon fill="none" stroke="midnightblue" points="518.62,-354.69 512.43,-363.29 522.63,-360.43 518.62,-354.69"/>
</g>
<!-- Node6 -->
<g id="node6" class="node">
<title>Node6</title>
<g id="a_node6"><a xlink:href="../../d5/ddc/classanonymous__namespace_02bttoolbarpopupaction_8cpp_03_1_1BtToolButton.html" target="_top" xlink:title=" ">
<polygon fill="white" stroke="black" points="722.5,-116 722.5,-206 875.5,-206 875.5,-116 722.5,-116"/>
<text text-anchor="start" x="730.5" y="-194" font-family="Helvetica,sans-Serif" font-size="10.00">anonymous_namespace</text>
<text text-anchor="start" x="730.5" y="-183" font-family="Helvetica,sans-Serif" font-size="10.00">{bttoolbarpopupaction.cpp}</text>
<text text-anchor="middle" x="799" y="-172" font-family="Helvetica,sans-Serif" font-size="10.00">::BtToolButton</text>
<polyline fill="none" stroke="black" points="722.5,-165 875.5,-165 "/>
<text text-anchor="middle" x="799" y="-153" font-family="Helvetica,sans-Serif" font-size="10.00"> </text>
<polyline fill="none" stroke="black" points="722.5,-146 875.5,-146 "/>
<text text-anchor="start" x="730.5" y="-134" font-family="Helvetica,sans-Serif" font-size="10.00">+ BtToolButton()</text>
<text text-anchor="start" x="730.5" y="-123" font-family="Helvetica,sans-Serif" font-size="10.00">&#45; nextCheckState()</text>
</a>
</g>
</g>
<!-- Node1&#45;&gt;Node6 -->
<g id="edge5" class="edge">
<title>Node1&#45;&gt;Node6</title>
<path fill="none" stroke="midnightblue" d="M522.3,-384.27C574.7,-380.06 658.3,-366.27 714,-322 751.06,-292.55 773.92,-242.43 786.47,-206.12"/>
<polygon fill="none" stroke="midnightblue" points="521.98,-380.78 512.26,-384.99 522.48,-387.77 521.98,-380.78"/>
</g>
</g>
</svg>
        <g id="navigator" transform="translate(0 0)" fill="#404254">
                <rect fill="#f2f5e9" fill-opacity="0.5" stroke="#606060" stroke-width=".5" x="0" y="0" width="60" height="60"/>
                <use id="zoomplus" xlink:href="#zoomPlus" x="17" y="9" onmousedown="handleZoom(evt,'in')"/>
                <use id="zoomminus" xlink:href="#zoomMin" x="42" y="9" onmousedown="handleZoom(evt,'out')"/>
                <use id="reset" xlink:href="#resetDef" x="30" y="36" onmousedown="handleReset()"/>
                <g id="arrowUp" xlink:href="#dirArrow" transform="translate(30 24)" onmousedown="handlePan(0,-1)">
                  <use xlink:href="#rim" fill="#404040">
                        <set attributeName="fill" to="#808080" begin="arrowUp.mouseover" end="arrowUp.mouseout"/>
                  </use>
                  <path fill="none" stroke="white" stroke-width="1.5" d="M0,-3.0v7 M-2.5,-0.5L0,-3.0L2.5,-0.5"/>
                </g>
                <g id="arrowRight" xlink:href="#dirArrow" transform="rotate(90) translate(36 -43)" onmousedown="handlePan(1,0)">
                  <use xlink:href="#rim" fill="#404040">
                        <set attributeName="fill" to="#808080" begin="arrowRight.mouseover" end="arrowRight.mouseout"/>
                  </use>
                  <path fill="none" stroke="white" stroke-width="1.5" d="M0,-3.0v7 M-2.5,-0.5L0,-3.0L2.5,-0.5"/>
                </g>
                <g id="arrowDown" xlink:href="#dirArrow" transform="rotate(180) translate(-30 -48)" onmousedown="handlePan(0,1)">
                  <use xlink:href="#rim" fill="#404040">
                        <set attributeName="fill" to="#808080" begin="arrowDown.mouseover" end="arrowDown.mouseout"/>
                  </use>
                  <path fill="none" stroke="white" stroke-width="1.5" d="M0,-3.0v7 M-2.5,-0.5L0,-3.0L2.5,-0.5"/>
                </g>
                <g id="arrowLeft" xlink:href="#dirArrow" transform="rotate(270) translate(-36 17)" onmousedown="handlePan(-1,0)">
                  <use xlink:href="#rim" fill="#404040">
                        <set attributeName="fill" to="#808080" begin="arrowLeft.mouseover" end="arrowLeft.mouseout"/>
                  </use>
                  <path fill="none" stroke="white" stroke-width="1.5" d="M0,-3.0v7 M-2.5,-0.5L0,-3.0L2.5,-0.5"/>
                </g>
        </g>
        <svg viewBox="0 0 15 15" width="100%" height="30px" preserveAspectRatio="xMaxYMin meet">
         <g id="arrow_out" transform="scale(0.3 0.3)">
          <a xlink:href="classQToolButton__inherit__graph_org.svg" target="_base">
           <rect id="button" ry="5" rx="5" y="6" x="6" height="38" width="38"
                fill="#f2f5e9" fill-opacity="0.5" stroke="#606060" stroke-width="1.0"/>
           <path id="arrow"
             d="M 11.500037,31.436501 C 11.940474,20.09759 22.043105,11.32322 32.158766,21.979434 L 37.068811,17.246167 C 37.068811,17.246167 37.088388,32 37.088388,32 L 22.160133,31.978069 C 22.160133,31.978069 26.997745,27.140456 26.997745,27.140456 C 18.528582,18.264221 13.291696,25.230495 11.500037,31.436501 z"
             style="fill:#404040;"/>
          </a>
         </g>
        </svg>
</svg>
