<?xml version="1.0" encoding="UTF-8" standalone="no"?>
<!DOCTYPE svg PUBLIC "-//W3C//DTD SVG 1.1//EN"
 "http://www.w3.org/Graphics/SVG/1.1/DTD/svg11.dtd">
<!-- Generated by graphviz version 2.43.0 (0)
 -->
<!-- Title: QToolButton Pages: 1 -->
<svg width="884pt" height="424pt"
 viewBox="0.00 0.00 884.00 424.00" xmlns="http://www.w3.org/2000/svg" xmlns:xlink="http://www.w3.org/1999/xlink">
<g id="graph0" class="graph" transform="scale(1 1) rotate(0) translate(4 420)">
<title>QToolButton</title>
<polygon fill="white" stroke="transparent" points="-4,4 -4,-420 880,-420 880,4 -4,4"/>
<!-- Node1 -->
<g id="node1" class="node">
<title>Node1</title>
<g id="a_node1"><a xlink:title=" ">
<polygon fill="#bfbfbf" stroke="black" points="428.5,-358.5 428.5,-415.5 504.5,-415.5 504.5,-358.5 428.5,-358.5"/>
<text text-anchor="middle" x="466.5" y="-403.5" font-family="Helvetica,sans-Serif" font-size="10.00">QToolButton</text>
<polyline fill="none" stroke="black" points="428.5,-396.5 504.5,-396.5 "/>
<text text-anchor="middle" x="466.5" y="-384.5" font-family="Helvetica,sans-Serif" font-size="10.00"> </text>
<polyline fill="none" stroke="black" points="428.5,-377.5 504.5,-377.5 "/>
<text text-anchor="middle" x="466.5" y="-365.5" font-family="Helvetica,sans-Serif" font-size="10.00"> </text>
</a>
</g>
</g>
<!-- Node2 -->
<g id="node2" class="node">
<title>Node2</title>
<g id="a_node2"><a xlink:href="../../d5/ddc/classanonymous__namespace_02bttoolbarpopupaction_8cpp_03_1_1BtToolButton.html" target="_top" xlink:title=" ">
<polygon fill="white" stroke="black" points="0,-116 0,-206 153,-206 153,-116 0,-116"/>
<text text-anchor="start" x="8" y="-194" font-family="Helvetica,sans-Serif" font-size="10.00">anonymous_namespace</text>
<text text-anchor="start" x="8" y="-183" font-family="Helvetica,sans-Serif" font-size="10.00">{bttoolbarpopupaction.cpp}</text>
<text text-anchor="middle" x="76.5" y="-172" font-family="Helvetica,sans-Serif" font-size="10.00">::BtToolButton</text>
<polyline fill="none" stroke="black" points="0,-165 153,-165 "/>
<text text-anchor="middle" x="76.5" y="-153" font-family="Helvetica,sans-Serif" font-size="10.00"> </text>
<polyline fill="none" stroke="black" points="0,-146 153,-146 "/>
<text text-anchor="start" x="8" y="-134" font-family="Helvetica,sans-Serif" font-size="10.00">+ BtToolButton()</text>
<text text-anchor="start" x="8" y="-123" font-family="Helvetica,sans-Serif" font-size="10.00">&#45; nextCheckState()</text>
</a>
</g>
</g>
<!-- Node1&#45;&gt;Node2 -->
<g id="edge1" class="edge">
<title>Node1&#45;&gt;Node2</title>
<path fill="none" stroke="midnightblue" d="M418.3,-380.83C343.12,-371.96 202.4,-351.86 162.5,-322 124.38,-293.46 101.31,-242.93 88.79,-206.27"/>
<polygon fill="none" stroke="midnightblue" points="418.12,-384.34 428.46,-382.01 418.93,-377.38 418.12,-384.34"/>
</g>
<!-- Node3 -->
<g id="node3" class="node">
<title>Node3</title>
<g id="a_node3"><a xlink:href="../../d7/d32/classBtDisplaySettingsButton.html" target="_top" xlink:title=" ">
<polygon fill="white" stroke="black" points="171.5,-0.5 171.5,-321.5 365.5,-321.5 365.5,-0.5 171.5,-0.5"/>
<text text-anchor="middle" x="268.5" y="-309.5" font-family="Helvetica,sans-Serif" font-size="10.00">BtDisplaySettingsButton</text>
<polyline fill="none" stroke="black" points="171.5,-302.5 365.5,-302.5 "/>
<text text-anchor="start" x="179.5" y="-290.5" font-family="Helvetica,sans-Serif" font-size="10.00">&#45; m_displayOptions</text>
<text text-anchor="start" x="179.5" y="-279.5" font-family="Helvetica,sans-Serif" font-size="10.00">&#45; m_filterOptions</text>
<text text-anchor="start" x="179.5" y="-268.5" font-family="Helvetica,sans-Serif" font-size="10.00">&#45; m_footnotesAction</text>
<text text-anchor="start" x="179.5" y="-257.5" font-family="Helvetica,sans-Serif" font-size="10.00">&#45; m_greekAccentsAction</text>
<text text-anchor="start" x="179.5" y="-246.5" font-family="Helvetica,sans-Serif" font-size="10.00">&#45; m_headingsAction</text>
<text text-anchor="start" x="179.5" y="-235.5" font-family="Helvetica,sans-Serif" font-size="10.00">&#45; m_hebrewCantillationAction</text>
<text text-anchor="start" x="179.5" y="-224.5" font-family="Helvetica,sans-Serif" font-size="10.00">&#45; m_hebrewPointsAction</text>
<text text-anchor="start" x="179.5" y="-213.5" font-family="Helvetica,sans-Serif" font-size="10.00">&#45; m_modules</text>
<text text-anchor="start" x="179.5" y="-202.5" font-family="Helvetica,sans-Serif" font-size="10.00">&#45; m_morphSegmentationAction</text>
<text text-anchor="start" x="179.5" y="-191.5" font-family="Helvetica,sans-Serif" font-size="10.00">&#45; m_popup</text>
<text text-anchor="start" x="179.5" y="-180.5" font-family="Helvetica,sans-Serif" font-size="10.00">&#45; m_redWordsAction</text>
<text text-anchor="start" x="179.5" y="-169.5" font-family="Helvetica,sans-Serif" font-size="10.00">&#45; m_scriptureReferencesAction</text>
<text text-anchor="start" x="179.5" y="-158.5" font-family="Helvetica,sans-Serif" font-size="10.00">&#45; m_variantAction</text>
<text text-anchor="start" x="179.5" y="-147.5" font-family="Helvetica,sans-Serif" font-size="10.00">&#45; m_verseNumbersAction</text>
<polyline fill="none" stroke="black" points="171.5,-140.5 365.5,-140.5 "/>
<text text-anchor="start" x="179.5" y="-128.5" font-family="Helvetica,sans-Serif" font-size="10.00">+ BtDisplaySettingsButton()</text>
<text text-anchor="start" x="179.5" y="-117.5" font-family="Helvetica,sans-Serif" font-size="10.00">+ setDisplayOptionsNoRepopulate()</text>
<text text-anchor="start" x="179.5" y="-106.5" font-family="Helvetica,sans-Serif" font-size="10.00">+ setFilterOptionsNoRepopulate()</text>
<text text-anchor="start" x="179.5" y="-95.5" font-family="Helvetica,sans-Serif" font-size="10.00">+ setDisplayOptions()</text>
<text text-anchor="start" x="179.5" y="-84.5" font-family="Helvetica,sans-Serif" font-size="10.00">+ setFilterOptions()</text>
<text text-anchor="start" x="179.5" y="-73.5" font-family="Helvetica,sans-Serif" font-size="10.00">+ setModules()</text>
<text text-anchor="start" x="179.5" y="-62.5" font-family="Helvetica,sans-Serif" font-size="10.00"># addMenuEntry()</text>
<text text-anchor="start" x="179.5" y="-51.5" font-family="Helvetica,sans-Serif" font-size="10.00"># initMenu()</text>
<text text-anchor="start" x="179.5" y="-40.5" font-family="Helvetica,sans-Serif" font-size="10.00"># isOptionAvailable()</text>
<text text-anchor="start" x="179.5" y="-29.5" font-family="Helvetica,sans-Serif" font-size="10.00"># repopulateMenu()</text>
<text text-anchor="start" x="179.5" y="-18.5" font-family="Helvetica,sans-Serif" font-size="10.00"># retranslateToolTip()</text>
<text text-anchor="start" x="179.5" y="-7.5" font-family="Helvetica,sans-Serif" font-size="10.00"># retranslateUi()</text>
</a>
</g>
</g>
<!-- Node1&#45;&gt;Node3 -->
<g id="edge2" class="edge">
<title>Node1&#45;&gt;Node3</title>
<path fill="none" stroke="midnightblue" d="M419.8,-358.5C404.39,-348.18 387.81,-335.62 374.5,-322 371.47,-318.9 368.48,-315.71 365.52,-312.43"/>
<polygon fill="none" stroke="midnightblue" points="417.92,-361.45 428.21,-363.99 421.75,-355.59 417.92,-361.45"/>
</g>
<!-- Node4 -->
<g id="node4" class="node">
<title>Node4</title>
<g id="a_node4"><a xlink:href="../../d4/df7/classBtDropdownChooserButton.html" target="_top" xlink:title=" ">
<polygon fill="white" stroke="black" points="383,-116 383,-206 550,-206 550,-116 383,-116"/>
<text text-anchor="middle" x="466.5" y="-194" font-family="Helvetica,sans-Serif" font-size="10.00">BtDropdownChooserButton</text>
<polyline fill="none" stroke="black" points="383,-187 550,-187 "/>
<text text-anchor="start" x="391" y="-175" font-family="Helvetica,sans-Serif" font-size="10.00">&#45; m_parent</text>
<text text-anchor="start" x="391" y="-164" font-family="Helvetica,sans-Serif" font-size="10.00">&#45; m_populateMenu</text>
<polyline fill="none" stroke="black" points="383,-157 550,-157 "/>
<text text-anchor="start" x="391" y="-145" font-family="Helvetica,sans-Serif" font-size="10.00">+ BtDropdownChooserButton()</text>
<text text-anchor="start" x="391" y="-134" font-family="Helvetica,sans-Serif" font-size="10.00">+ mousePressEvent()</text>
<text text-anchor="start" x="391" y="-123" font-family="Helvetica,sans-Serif" font-size="10.00"># wheelEvent()</text>
</a>
</g>
</g>
<!-- Node1&#45;&gt;Node4 -->
<g id="edge3" class="edge">
<title>Node1&#45;&gt;Node4</title>
<path fill="none" stroke="midnightblue" d="M466.5,-347.86C466.5,-308.59 466.5,-247.44 466.5,-206.11"/>
<polygon fill="none" stroke="midnightblue" points="463,-348.08 466.5,-358.08 470,-348.08 463,-348.08"/>
</g>
<!-- Node5 -->
<g id="node5" class="node">
<title>Node5</title>
<g id="a_node5"><a xlink:href="../../d0/da1/classBtModuleChooserButton.html" target="_top" xlink:title=" ">
<polygon fill="white" stroke="black" points="568.5,-116 568.5,-206 722.5,-206 722.5,-116 568.5,-116"/>
<text text-anchor="middle" x="645.5" y="-194" font-family="Helvetica,sans-Serif" font-size="10.00">BtModuleChooserButton</text>
<polyline fill="none" stroke="black" points="568.5,-187 722.5,-187 "/>
<text text-anchor="start" x="576.5" y="-175" font-family="Helvetica,sans-Serif" font-size="10.00">&#45; m_popup</text>
<polyline fill="none" stroke="black" points="568.5,-168 722.5,-168 "/>
<text text-anchor="start" x="576.5" y="-156" font-family="Helvetica,sans-Serif" font-size="10.00">+ BtModuleChooserButton()</text>
<text text-anchor="start" x="576.5" y="-145" font-family="Helvetica,sans-Serif" font-size="10.00">+ updateMenu()</text>
<text text-anchor="start" x="576.5" y="-134" font-family="Helvetica,sans-Serif" font-size="10.00">&#45; icon()</text>
<text text-anchor="start" x="576.5" y="-123" font-family="Helvetica,sans-Serif" font-size="10.00">&#45; moduleChosen()</text>
</a>
</g>
</g>
<!-- Node1&#45;&gt;Node5 -->
<g id="edge4" class="edge">
<title>Node1&#45;&gt;Node5</title>
<path fill="none" stroke="midnightblue" d="M513.1,-359.68C528.79,-349.31 545.57,-336.43 558.5,-322 589.3,-287.62 613.27,-240.41 628.18,-206.19"/>
<polygon fill="none" stroke="midnightblue" points="511.06,-356.82 504.52,-365.17 514.83,-362.72 511.06,-356.82"/>
</g>
<!-- Node6 -->
<g id="node6" class="node">
<title>Node6</title>
<g id="a_node6"><a xlink:href="../../d8/d63/classCScrollButton.html" target="_top" xlink:title=" ">
<polygon fill="white" stroke="black" points="741,-110.5 741,-211.5 876,-211.5 876,-110.5 741,-110.5"/>
<text text-anchor="middle" x="808.5" y="-199.5" font-family="Helvetica,sans-Serif" font-size="10.00">CScrollButton</text>
<polyline fill="none" stroke="black" points="741,-192.5 876,-192.5 "/>
<text text-anchor="start" x="749" y="-180.5" font-family="Helvetica,sans-Serif" font-size="10.00"># m_isLocked</text>
<text text-anchor="start" x="749" y="-169.5" font-family="Helvetica,sans-Serif" font-size="10.00"># m_movement</text>
<polyline fill="none" stroke="black" points="741,-162.5 876,-162.5 "/>
<text text-anchor="start" x="749" y="-150.5" font-family="Helvetica,sans-Serif" font-size="10.00">+ CScrollButton()</text>
<text text-anchor="start" x="749" y="-139.5" font-family="Helvetica,sans-Serif" font-size="10.00"># mouseMoveEvent()</text>
<text text-anchor="start" x="749" y="-128.5" font-family="Helvetica,sans-Serif" font-size="10.00"># mousePressEvent()</text>
<text text-anchor="start" x="749" y="-117.5" font-family="Helvetica,sans-Serif" font-size="10.00"># mouseReleaseEvent()</text>
</a>
</g>
</g>
<!-- Node1&#45;&gt;Node6 -->
<g id="edge5" class="edge">
<title>Node1&#45;&gt;Node6</title>
<path fill="none" stroke="midnightblue" d="M515.01,-386.3C572.68,-384.19 668.94,-372.55 731.5,-322 765.79,-294.29 785.8,-247.62 796.78,-211.81"/>
<polygon fill="none" stroke="midnightblue" points="514.61,-382.81 504.71,-386.59 514.81,-389.81 514.61,-382.81"/>
</g>
</g>
</svg>
