<?xml version="1.0" encoding="UTF-8" standalone="no"?>
<!DOCTYPE svg PUBLIC "-//W3C//DTD SVG 1.1//EN"
 "http://www.w3.org/Graphics/SVG/1.1/DTD/svg11.dtd">
<!-- Generated by graphviz version 2.43.0 (0)
 -->
<!-- Title: QToolButton Pages: 1 -->
<!--zoomable 502 -->

<svg id="main" version="1.1" xmlns="http://www.w3.org/2000/svg" xmlns:xlink="http://www.w3.org/1999/xlink" xml:space="preserve" onload="init(evt)">
<style type="text/css"><![CDATA[
.node, .edge {opacity: 0.7;}
.node.selected, .edge.selected {opacity: 1;}
.edge:hover path { stroke: red; }
.edge:hover polygon { stroke: red; fill: red; }
]]></style>

<defs>
  <circle id="rim" cx="0" cy="0" r="7"/>
  <circle id="rim2" cx="0" cy="0" r="3.5"/>
  <g id="zoomPlus">
    <use xlink:href="#rim" fill="#404040"><set attributeName="fill" to="#808080" begin="zoomplus.mouseover" end="zoomplus.mouseout"/></use>
    <path d="M-4,0h8M0,-4v8" fill="none" stroke="white" stroke-width="1.5" pointer-events="none"/>
  </g>
  <g id="zoomMin">
    <use xlink:href="#rim" fill="#404040"><set attributeName="fill" to="#808080" begin="zoomminus.mouseover" end="zoomminus.mouseout"/></use>
    <path d="M-4,0h8" fill="none" stroke="white" stroke-width="1.5" pointer-events="none"/>
  </g>
  <g id="arrowUp" transform="translate(30 24)">
    <use xlink:href="#rim"/>
    <path pointer-events="none" fill="none" stroke="white" stroke-width="1.5" d="M0,-3.0v7 M-2.5,-0.5L0,-3.0L2.5,-0.5"/>
  </g>
  <g id="arrowRight" transform="rotate(90) translate(36 -43)">
    <use xlink:href="#rim"/>
    <path pointer-events="none" fill="none" stroke="white" stroke-width="1.5" d="M0,-3.0v7 M-2.5,-0.5L0,-3.0L2.5,-0.5"/>
  </g>
  <g id="arrowDown" transform="rotate(180) translate(-30 -48)">
    <use xlink:href="#rim"/>
    <path pointer-events="none" fill="none" stroke="white" stroke-width="1.5" d="M0,-3.0v7 M-2.5,-0.5L0,-3.0L2.5,-0.5"/>
  </g>
  <g id="arrowLeft" transform="rotate(270) translate(-36 17)">
    <use xlink:href="#rim"/>
    <path pointer-events="none" fill="none" stroke="white" stroke-width="1.5" d="M0,-3.0v7 M-2.5,-0.5L0,-3.0L2.5,-0.5"/>
  </g>
  <g id="resetDef">
    <use xlink:href="#rim2" fill="#404040"><set attributeName="fill" to="#808080" begin="reset.mouseover" end="reset.mouseout"/></use>
  </g>
</defs>
<script type="application/ecmascript">
var viewWidth = 853;
var viewHeight = 502;
var sectionId = 'dynsection-0';
</script>
<script type="application/ecmascript" xlink:href="../../svg.min.js"/>
<svg id="graph" class="graph">
<g id="viewport">
<title>QToolButton</title>
<!-- Node1 -->
<g id="Node000001" class="node">
<title>Node1</title>
<g id="a_Node000001"><a xlink:title=" ">
<polygon fill="#999999" stroke="transparent" points="493.5,-494 423.5,-494 423.5,-445 493.5,-445 493.5,-494"/>
<text text-anchor="start" x="428.5" y="-481.5" font-family="Helvetica,sans-Serif" font-size="10.00">QToolButton</text>
<text text-anchor="start" x="456.5" y="-466.5" font-family="Helvetica,sans-Serif" font-size="10.00"> </text>
<text text-anchor="start" x="456.5" y="-451.5" font-family="Helvetica,sans-Serif" font-size="10.00"> </text>
<polygon fill="#666666" stroke="#666666" points="423.5,-476.5 423.5,-476.5 493.5,-476.5 493.5,-476.5 423.5,-476.5"/>
<polygon fill="#666666" stroke="#666666" points="423.5,-461.5 423.5,-461.5 493.5,-461.5 493.5,-461.5 423.5,-461.5"/>
<polygon fill="none" stroke="#666666" points="423.5,-445 423.5,-494 493.5,-494 493.5,-445 423.5,-445"/>
</a>
</g>
</g>
<!-- Node2 -->
<g id="Node000002" class="node">
<title>Node2</title>
<g id="a_Node000002"><a xlink:href="../../d7/d32/classBtDisplaySettingsButton.html" target="_top" xlink:title=" ">
<polygon fill="white" stroke="transparent" points="187,-409 0,-409 0,0 187,0 187,-409"/>
<text text-anchor="start" x="34" y="-396.5" font-family="Helvetica,sans-Serif" font-size="10.00">BtDisplaySettingsButton</text>
<text text-anchor="start" x="7" y="-381.5" font-family="Helvetica,sans-Serif" font-size="10.00">&#45;</text>
<text text-anchor="start" x="17.5" y="-381.5" font-family="Helvetica,sans-Serif" font-size="10.00">m_displayOptions</text>
<text text-anchor="start" x="7" y="-366.5" font-family="Helvetica,sans-Serif" font-size="10.00">&#45;</text>
<text text-anchor="start" x="17.5" y="-366.5" font-family="Helvetica,sans-Serif" font-size="10.00">m_filterOptions</text>
<text text-anchor="start" x="7" y="-351.5" font-family="Helvetica,sans-Serif" font-size="10.00">&#45;</text>
<text text-anchor="start" x="17.5" y="-351.5" font-family="Helvetica,sans-Serif" font-size="10.00">m_footnotesAction</text>
<text text-anchor="start" x="7" y="-336.5" font-family="Helvetica,sans-Serif" font-size="10.00">&#45;</text>
<text text-anchor="start" x="17.5" y="-336.5" font-family="Helvetica,sans-Serif" font-size="10.00">m_greekAccentsAction</text>
<text text-anchor="start" x="7" y="-321.5" font-family="Helvetica,sans-Serif" font-size="10.00">&#45;</text>
<text text-anchor="start" x="17.5" y="-321.5" font-family="Helvetica,sans-Serif" font-size="10.00">m_headingsAction</text>
<text text-anchor="start" x="7" y="-306.5" font-family="Helvetica,sans-Serif" font-size="10.00">&#45;</text>
<text text-anchor="start" x="17.5" y="-306.5" font-family="Helvetica,sans-Serif" font-size="10.00">m_hebrewCantillationAction</text>
<text text-anchor="start" x="7" y="-291.5" font-family="Helvetica,sans-Serif" font-size="10.00">&#45;</text>
<text text-anchor="start" x="17.5" y="-291.5" font-family="Helvetica,sans-Serif" font-size="10.00">m_hebrewPointsAction</text>
<text text-anchor="start" x="7" y="-276.5" font-family="Helvetica,sans-Serif" font-size="10.00">&#45;</text>
<text text-anchor="start" x="17.5" y="-276.5" font-family="Helvetica,sans-Serif" font-size="10.00">m_modules</text>
<text text-anchor="start" x="7" y="-261.5" font-family="Helvetica,sans-Serif" font-size="10.00">&#45;</text>
<text text-anchor="start" x="17.5" y="-261.5" font-family="Helvetica,sans-Serif" font-size="10.00">m_morphSegmentationAction</text>
<text text-anchor="start" x="7" y="-246.5" font-family="Helvetica,sans-Serif" font-size="10.00">&#45;</text>
<text text-anchor="start" x="17.5" y="-246.5" font-family="Helvetica,sans-Serif" font-size="10.00">m_popup</text>
<text text-anchor="start" x="7" y="-231.5" font-family="Helvetica,sans-Serif" font-size="10.00">&#45;</text>
<text text-anchor="start" x="17.5" y="-231.5" font-family="Helvetica,sans-Serif" font-size="10.00">m_redWordsAction</text>
<text text-anchor="start" x="7" y="-216.5" font-family="Helvetica,sans-Serif" font-size="10.00">&#45;</text>
<text text-anchor="start" x="17.5" y="-216.5" font-family="Helvetica,sans-Serif" font-size="10.00">m_scriptureReferencesAction</text>
<text text-anchor="start" x="7" y="-201.5" font-family="Helvetica,sans-Serif" font-size="10.00">&#45;</text>
<text text-anchor="start" x="17.5" y="-201.5" font-family="Helvetica,sans-Serif" font-size="10.00">m_variantAction</text>
<text text-anchor="start" x="7" y="-186.5" font-family="Helvetica,sans-Serif" font-size="10.00">&#45;</text>
<text text-anchor="start" x="17.5" y="-186.5" font-family="Helvetica,sans-Serif" font-size="10.00">m_verseNumbersAction</text>
<text text-anchor="start" x="4.5" y="-171.5" font-family="Helvetica,sans-Serif" font-size="10.00">+</text>
<text text-anchor="start" x="17.5" y="-171.5" font-family="Helvetica,sans-Serif" font-size="10.00">BtDisplaySettingsButton()</text>
<text text-anchor="start" x="4.5" y="-156.5" font-family="Helvetica,sans-Serif" font-size="10.00">+</text>
<text text-anchor="start" x="17.5" y="-156.5" font-family="Helvetica,sans-Serif" font-size="10.00">setDisplayOptionsNoRepopulate()</text>
<text text-anchor="start" x="4.5" y="-141.5" font-family="Helvetica,sans-Serif" font-size="10.00">+</text>
<text text-anchor="start" x="17.5" y="-141.5" font-family="Helvetica,sans-Serif" font-size="10.00">setFilterOptionsNoRepopulate()</text>
<text text-anchor="start" x="4.5" y="-126.5" font-family="Helvetica,sans-Serif" font-size="10.00">+</text>
<text text-anchor="start" x="17.5" y="-126.5" font-family="Helvetica,sans-Serif" font-size="10.00">setDisplayOptions()</text>
<text text-anchor="start" x="4.5" y="-111.5" font-family="Helvetica,sans-Serif" font-size="10.00">+</text>
<text text-anchor="start" x="17.5" y="-111.5" font-family="Helvetica,sans-Serif" font-size="10.00">setFilterOptions()</text>
<text text-anchor="start" x="4.5" y="-96.5" font-family="Helvetica,sans-Serif" font-size="10.00">+</text>
<text text-anchor="start" x="17.5" y="-96.5" font-family="Helvetica,sans-Serif" font-size="10.00">setModules()</text>
<text text-anchor="start" x="4.5" y="-81.5" font-family="Helvetica,sans-Serif" font-size="10.00">#</text>
<text text-anchor="start" x="17.5" y="-81.5" font-family="Helvetica,sans-Serif" font-size="10.00">addMenuEntry()</text>
<text text-anchor="start" x="4.5" y="-66.5" font-family="Helvetica,sans-Serif" font-size="10.00">#</text>
<text text-anchor="start" x="17.5" y="-66.5" font-family="Helvetica,sans-Serif" font-size="10.00">initMenu()</text>
<text text-anchor="start" x="4.5" y="-51.5" font-family="Helvetica,sans-Serif" font-size="10.00">#</text>
<text text-anchor="start" x="17.5" y="-51.5" font-family="Helvetica,sans-Serif" font-size="10.00">isOptionAvailable()</text>
<text text-anchor="start" x="4.5" y="-36.5" font-family="Helvetica,sans-Serif" font-size="10.00">#</text>
<text text-anchor="start" x="17.5" y="-36.5" font-family="Helvetica,sans-Serif" font-size="10.00">repopulateMenu()</text>
<text text-anchor="start" x="4.5" y="-21.5" font-family="Helvetica,sans-Serif" font-size="10.00">#</text>
<text text-anchor="start" x="17.5" y="-21.5" font-family="Helvetica,sans-Serif" font-size="10.00">retranslateToolTip()</text>
<text text-anchor="start" x="4.5" y="-6.5" font-family="Helvetica,sans-Serif" font-size="10.00">#</text>
<text text-anchor="start" x="17.5" y="-6.5" font-family="Helvetica,sans-Serif" font-size="10.00">retranslateUi()</text>
<polygon fill="#666666" stroke="#666666" points="0.5,-391.5 0.5,-391.5 187.5,-391.5 187.5,-391.5 0.5,-391.5"/>
<polygon fill="#666666" stroke="#666666" points="0.5,-181.5 0.5,-181.5 15.5,-181.5 15.5,-181.5 0.5,-181.5"/>
<polygon fill="#666666" stroke="#666666" points="15.5,-181.5 15.5,-181.5 187.5,-181.5 187.5,-181.5 15.5,-181.5"/>
<polygon fill="none" stroke="#666666" points="0,0 0,-409 187,-409 187,0 0,0"/>
</a>
</g>
</g>
<!-- Node1&#45;&gt;Node2 -->
<g id="edge1_Node000001_Node000002" class="edge">
<title>Node1&#45;&gt;Node2</title>
<g id="a_edge1_Node000001_Node000002"><a xlink:title=" ">
<path fill="none" stroke="#63b8ff" d="M412.92,-462.94C346.91,-454.11 228.91,-435.16 195.5,-409 192.7,-406.81 189.97,-404.52 187.31,-402.14"/>
<polygon fill="none" stroke="#63b8ff" points="412.68,-466.44 423.05,-464.27 413.59,-459.5 412.68,-466.44"/>
</a>
</g>
</g>
<!-- Node3 -->
<g id="Node000003" class="node">
<title>Node3</title>
<g id="a_Node000003"><a xlink:href="../../d4/df7/classBtDropdownChooserButton.html" target="_top" xlink:title=" ">
<polygon fill="white" stroke="transparent" points="366,-251.5 205,-251.5 205,-157.5 366,-157.5 366,-251.5"/>
<text text-anchor="start" x="219.5" y="-239.5" font-family="Helvetica,sans-Serif" font-size="10.00">BtDropdownChooserButton</text>
<text text-anchor="start" x="212" y="-224.5" font-family="Helvetica,sans-Serif" font-size="10.00">&#45;</text>
<text text-anchor="start" x="222.5" y="-224.5" font-family="Helvetica,sans-Serif" font-size="10.00">m_parent</text>
<text text-anchor="start" x="212" y="-209.5" font-family="Helvetica,sans-Serif" font-size="10.00">&#45;</text>
<text text-anchor="start" x="222.5" y="-209.5" font-family="Helvetica,sans-Serif" font-size="10.00">m_populateMenu</text>
<text text-anchor="start" x="209.5" y="-194.5" font-family="Helvetica,sans-Serif" font-size="10.00">+</text>
<text text-anchor="start" x="222.5" y="-194.5" font-family="Helvetica,sans-Serif" font-size="10.00">BtDropdownChooserButton()</text>
<text text-anchor="start" x="209.5" y="-179.5" font-family="Helvetica,sans-Serif" font-size="10.00">+</text>
<text text-anchor="start" x="222.5" y="-179.5" font-family="Helvetica,sans-Serif" font-size="10.00">mousePressEvent()</text>
<text text-anchor="start" x="209.5" y="-164.5" font-family="Helvetica,sans-Serif" font-size="10.00">#</text>
<text text-anchor="start" x="222.5" y="-164.5" font-family="Helvetica,sans-Serif" font-size="10.00">wheelEvent()</text>
<polygon fill="#666666" stroke="#666666" points="205.5,-234.5 205.5,-234.5 366.5,-234.5 366.5,-234.5 205.5,-234.5"/>
<polygon fill="#666666" stroke="#666666" points="205.5,-204.5 205.5,-204.5 220.5,-204.5 220.5,-204.5 205.5,-204.5"/>
<polygon fill="#666666" stroke="#666666" points="220.5,-204.5 220.5,-204.5 366.5,-204.5 366.5,-204.5 220.5,-204.5"/>
<polygon fill="none" stroke="#666666" points="205,-157.5 205,-251.5 366,-251.5 366,-157.5 205,-157.5"/>
</a>
</g>
</g>
<!-- Node1&#45;&gt;Node3 -->
<g id="edge2_Node000001_Node000003" class="edge">
<title>Node1&#45;&gt;Node3</title>
<g id="a_edge2_Node000001_Node000003"><a xlink:title=" ">
<path fill="none" stroke="#63b8ff" d="M414.73,-443.56C400.86,-434.09 386.34,-422.33 375.5,-409 337.12,-361.79 311.9,-295.64 298.17,-251.73"/>
<polygon fill="none" stroke="#63b8ff" points="412.96,-446.59 423.24,-449.16 416.8,-440.74 412.96,-446.59"/>
</a>
</g>
</g>
<!-- Node4 -->
<g id="Node000004" class="node">
<title>Node4</title>
<g id="a_Node000004"><a xlink:href="../../d0/da1/classBtModuleChooserButton.html" target="_top" xlink:title=" ">
<polygon fill="white" stroke="transparent" points="532.5,-244 384.5,-244 384.5,-165 532.5,-165 532.5,-244"/>
<text text-anchor="start" x="399" y="-231.5" font-family="Helvetica,sans-Serif" font-size="10.00">BtModuleChooserButton</text>
<text text-anchor="start" x="391" y="-216.5" font-family="Helvetica,sans-Serif" font-size="10.00">&#45;</text>
<text text-anchor="start" x="401.5" y="-216.5" font-family="Helvetica,sans-Serif" font-size="10.00">m_popup</text>
<text text-anchor="start" x="388.5" y="-201.5" font-family="Helvetica,sans-Serif" font-size="10.00">+</text>
<text text-anchor="start" x="401.5" y="-201.5" font-family="Helvetica,sans-Serif" font-size="10.00">BtModuleChooserButton()</text>
<text text-anchor="start" x="388.5" y="-186.5" font-family="Helvetica,sans-Serif" font-size="10.00">+</text>
<text text-anchor="start" x="401.5" y="-186.5" font-family="Helvetica,sans-Serif" font-size="10.00">updateMenu()</text>
<text text-anchor="start" x="391" y="-171.5" font-family="Helvetica,sans-Serif" font-size="10.00">&#45;</text>
<text text-anchor="start" x="401.5" y="-171.5" font-family="Helvetica,sans-Serif" font-size="10.00">moduleChosen()</text>
<polygon fill="#666666" stroke="#666666" points="384.5,-226.5 384.5,-226.5 532.5,-226.5 532.5,-226.5 384.5,-226.5"/>
<polygon fill="#666666" stroke="#666666" points="384.5,-211.5 384.5,-211.5 399.5,-211.5 399.5,-211.5 384.5,-211.5"/>
<polygon fill="#666666" stroke="#666666" points="399.5,-211.5 399.5,-211.5 532.5,-211.5 532.5,-211.5 399.5,-211.5"/>
<polygon fill="none" stroke="#666666" points="384.5,-165 384.5,-244 532.5,-244 532.5,-165 384.5,-165"/>
</a>
</g>
</g>
<!-- Node1&#45;&gt;Node4 -->
<g id="edge3_Node000001_Node000004" class="edge">
<title>Node1&#45;&gt;Node4</title>
<g id="a_edge3_Node000001_Node000004"><a xlink:title=" ">
<path fill="none" stroke="#63b8ff" d="M458.5,-434.63C458.5,-385.75 458.5,-295.64 458.5,-244.19"/>
<polygon fill="none" stroke="#63b8ff" points="455,-434.7 458.5,-444.7 462,-434.7 455,-434.7"/>
</a>
</g>
</g>
<!-- Node5 -->
<g id="Node000005" class="node">
<title>Node5</title>
<g id="a_Node000005"><a xlink:href="../../d8/d63/classCScrollButton.html" target="_top" xlink:title=" ">
<polygon fill="white" stroke="transparent" points="680,-259 551,-259 551,-150 680,-150 680,-259"/>
<text text-anchor="start" x="582.5" y="-246.5" font-family="Helvetica,sans-Serif" font-size="10.00">CScrollButton</text>
<text text-anchor="start" x="555.5" y="-231.5" font-family="Helvetica,sans-Serif" font-size="10.00">#</text>
<text text-anchor="start" x="568.5" y="-231.5" font-family="Helvetica,sans-Serif" font-size="10.00">m_isLocked</text>
<text text-anchor="start" x="555.5" y="-216.5" font-family="Helvetica,sans-Serif" font-size="10.00">#</text>
<text text-anchor="start" x="568.5" y="-216.5" font-family="Helvetica,sans-Serif" font-size="10.00">m_movement</text>
<text text-anchor="start" x="555.5" y="-201.5" font-family="Helvetica,sans-Serif" font-size="10.00">+</text>
<text text-anchor="start" x="568.5" y="-201.5" font-family="Helvetica,sans-Serif" font-size="10.00">CScrollButton()</text>
<text text-anchor="start" x="555.5" y="-186.5" font-family="Helvetica,sans-Serif" font-size="10.00">#</text>
<text text-anchor="start" x="568.5" y="-186.5" font-family="Helvetica,sans-Serif" font-size="10.00">mouseMoveEvent()</text>
<text text-anchor="start" x="555.5" y="-171.5" font-family="Helvetica,sans-Serif" font-size="10.00">#</text>
<text text-anchor="start" x="568.5" y="-171.5" font-family="Helvetica,sans-Serif" font-size="10.00">mousePressEvent()</text>
<text text-anchor="start" x="555.5" y="-156.5" font-family="Helvetica,sans-Serif" font-size="10.00">#</text>
<text text-anchor="start" x="568.5" y="-156.5" font-family="Helvetica,sans-Serif" font-size="10.00">mouseReleaseEvent()</text>
<polygon fill="#666666" stroke="#666666" points="551.5,-241.5 551.5,-241.5 680.5,-241.5 680.5,-241.5 551.5,-241.5"/>
<polygon fill="#666666" stroke="#666666" points="551.5,-211.5 551.5,-211.5 566.5,-211.5 566.5,-211.5 551.5,-211.5"/>
<polygon fill="#666666" stroke="#666666" points="566.5,-211.5 566.5,-211.5 680.5,-211.5 680.5,-211.5 566.5,-211.5"/>
<polygon fill="none" stroke="#666666" points="551,-150 551,-259 680,-259 680,-150 551,-150"/>
</a>
</g>
</g>
<!-- Node1&#45;&gt;Node5 -->
<g id="edge4_Node000001_Node000005" class="edge">
<title>Node1&#45;&gt;Node5</title>
<g id="a_edge4_Node000001_Node000005"><a xlink:title=" ">
<path fill="none" stroke="#63b8ff" d="M502.45,-444.22C516.46,-434.74 531.03,-422.8 541.5,-409 575.35,-364.37 594.86,-302.75 605.26,-259.04"/>
<polygon fill="none" stroke="#63b8ff" points="500.32,-441.43 493.83,-449.8 504.13,-447.3 500.32,-441.43"/>
</a>
</g>
</g>
<!-- Node6 -->
<g id="Node000006" class="node">
<title>Node6</title>
<g id="a_Node000006"><a xlink:href="../../d5/ddc/classanonymous__namespace_02bttoolbarpopupaction_8cpp_03_1_1BtToolButton.html" target="_top" xlink:title=" ">
<polygon fill="white" stroke="transparent" points="845,-247.5 698,-247.5 698,-161.5 845,-161.5 845,-247.5"/>
<text text-anchor="start" x="703.5" y="-235.5" font-family="Helvetica,sans-Serif" font-size="10.00">anonymous_namespace</text>
<text text-anchor="start" x="703.5" y="-224.5" font-family="Helvetica,sans-Serif" font-size="10.00">{bttoolbarpopupaction.cpp}</text>
<text text-anchor="start" x="737.5" y="-213.5" font-family="Helvetica,sans-Serif" font-size="10.00">::BtToolButton</text>
<text text-anchor="start" x="770" y="-198.5" font-family="Helvetica,sans-Serif" font-size="10.00"> </text>
<text text-anchor="start" x="712.5" y="-183.5" font-family="Helvetica,sans-Serif" font-size="10.00">+</text>
<text text-anchor="start" x="735.5" y="-183.5" font-family="Helvetica,sans-Serif" font-size="10.00">BtToolButton()</text>
<text text-anchor="start" x="715" y="-168.5" font-family="Helvetica,sans-Serif" font-size="10.00">&#45;</text>
<text text-anchor="start" x="735.5" y="-168.5" font-family="Helvetica,sans-Serif" font-size="10.00">nextCheckState()</text>
<polygon fill="#666666" stroke="#666666" points="698.5,-208.5 698.5,-208.5 845.5,-208.5 845.5,-208.5 698.5,-208.5"/>
<polygon fill="#666666" stroke="#666666" points="698.5,-193.5 698.5,-193.5 845.5,-193.5 845.5,-193.5 698.5,-193.5"/>
<polygon fill="none" stroke="#666666" points="698,-161.5 698,-247.5 845,-247.5 845,-161.5 698,-161.5"/>
</a>
</g>
</g>
<!-- Node1&#45;&gt;Node6 -->
<g id="edge5_Node000001_Node000006" class="edge">
<title>Node1&#45;&gt;Node6</title>
<g id="a_edge5_Node000001_Node000006"><a xlink:title=" ">
<path fill="none" stroke="#63b8ff" d="M504,-468.46C555.05,-466.03 637.5,-454.6 689.5,-409 737.04,-367.31 757.4,-294.12 765.85,-247.81"/>
<polygon fill="none" stroke="#63b8ff" points="503.77,-464.97 493.91,-468.84 504.04,-471.96 503.77,-464.97"/>
</a>
</g>
</g>
</g>
</svg>

<g id="navigator" transform="translate(0 0)" fill="#404254">
  <rect fill="#f2f5e9" fill-opacity="0.5" stroke="#606060" stroke-width=".5" x="0" y="0" width="60" height="60"/>
  <use id="zoomplus" xlink:href="#zoomPlus" x="17" y="9" onmousedown="handleZoom(evt,'in')"/>
  <use id="zoomminus" xlink:href="#zoomMin" x="42" y="9" onmousedown="handleZoom(evt,'out')"/>
  <use id="reset" xlink:href="#resetDef" x="30" y="36" onmousedown="handleReset()"/>
   <use id="arrowup" xlink:href="#arrowUp" x="0" y="0" onmousedown="handlePan(0,-1)"/>
  <use id="arrowright" xlink:href="#arrowRight" x="0" y="0" onmousedown="handlePan(1,0)"/>
  <use id="arrowdown" xlink:href="#arrowDown" x="0" y="0" onmousedown="handlePan(0,1)"/>
  <use id="arrowleft" xlink:href="#arrowLeft" x="0" y="0" onmousedown="handlePan(-1,0)"/>
</g>
<svg viewBox="0 0 15 15" width="100%" height="30px" preserveAspectRatio="xMaxYMin meet">
 <g id="arrow_out" transform="scale(0.3 0.3)">
  <a xlink:href="classQToolButton__inherit__graph_org.svg" target="_base">
   <rect id="button" ry="5" rx="5" y="6" x="6" height="38" width="38"
        fill="#f2f5e9" fill-opacity="0.5" stroke="#606060" stroke-width="1.0"/>
   <path id="arrow"
     d="M 11.500037,31.436501 C 11.940474,20.09759 22.043105,11.32322 32.158766,21.979434 L 37.068811,17.246167 C 37.068811,17.246167 37.088388,32 37.088388,32 L 22.160133,31.978069 C 22.160133,31.978069 26.997745,27.140456 26.997745,27.140456 C 18.528582,18.264221 13.291696,25.230495 11.500037,31.436501 z"
     style="fill:#404040;"/>
  </a>
 </g>
</svg>

<style type='text/css'>
<![CDATA[
[data-mouse-over-selected='false'] { opacity: 0.7; }
[data-mouse-over-selected='true']  { opacity: 1.0; }
]]>
</style>
<script type="application/ecmascript"><![CDATA[
document.addEventListener('DOMContentLoaded', (event) => {
  highlightEdges();
  highlightAdjacentNodes();
});
]]></script>
</svg>
