<?xml version="1.0" encoding="UTF-8" standalone="no"?>
<!DOCTYPE svg PUBLIC "-//W3C//DTD SVG 1.1//EN"
 "http://www.w3.org/Graphics/SVG/1.1/DTD/svg11.dtd">
<!-- Generated by graphviz version 2.43.0 (0)
 -->
<!-- Title: Search::CSearchAnalysisLegendItem Pages: 1 -->
<svg width="202pt" height="171pt"
 viewBox="0.00 0.00 202.00 171.00" xmlns="http://www.w3.org/2000/svg" xmlns:xlink="http://www.w3.org/1999/xlink">
<g id="graph0" class="graph" transform="scale(1 1) rotate(0) translate(4 167)">
<title>Search::CSearchAnalysisLegendItem</title>
<polygon fill="white" stroke="transparent" points="-4,4 -4,-167 198,-167 198,4 -4,4"/>
<!-- Node1 -->
<g id="node1" class="node">
<title>Node1</title>
<g id="a_node1"><a xlink:title=" ">
<polygon fill="#bfbfbf" stroke="black" points="0,-0.5 0,-68.5 194,-68.5 194,-0.5 0,-0.5"/>
<text text-anchor="middle" x="97" y="-56.5" font-family="Helvetica,sans-Serif" font-size="10.00">Search::CSearchAnalysisLegendItem</text>
<polyline fill="none" stroke="black" points="0,-49.5 194,-49.5 "/>
<text text-anchor="start" x="8" y="-37.5" font-family="Helvetica,sans-Serif" font-size="10.00">&#45; m_results</text>
<polyline fill="none" stroke="black" points="0,-30.5 194,-30.5 "/>
<text text-anchor="start" x="8" y="-18.5" font-family="Helvetica,sans-Serif" font-size="10.00">+ CSearchAnalysisLegendItem()</text>
<text text-anchor="start" x="8" y="-7.5" font-family="Helvetica,sans-Serif" font-size="10.00">&#45; paint()</text>
</a>
</g>
</g>
<!-- Node2 -->
<g id="node2" class="node">
<title>Node2</title>
<g id="a_node2"><a xlink:href="../../d1/d33/classQGraphicsRectItem.html" target="_top" xlink:title=" ">
<polygon fill="white" stroke="black" points="41.5,-105.5 41.5,-162.5 152.5,-162.5 152.5,-105.5 41.5,-105.5"/>
<text text-anchor="middle" x="97" y="-150.5" font-family="Helvetica,sans-Serif" font-size="10.00">QGraphicsRectItem</text>
<polyline fill="none" stroke="black" points="41.5,-143.5 152.5,-143.5 "/>
<text text-anchor="middle" x="97" y="-131.5" font-family="Helvetica,sans-Serif" font-size="10.00"> </text>
<polyline fill="none" stroke="black" points="41.5,-124.5 152.5,-124.5 "/>
<text text-anchor="middle" x="97" y="-112.5" font-family="Helvetica,sans-Serif" font-size="10.00"> </text>
</a>
</g>
</g>
<!-- Node2&#45;&gt;Node1 -->
<g id="edge1" class="edge">
<title>Node2&#45;&gt;Node1</title>
<path fill="none" stroke="midnightblue" d="M97,-95.06C97,-86.39 97,-77.24 97,-68.79"/>
<polygon fill="none" stroke="midnightblue" points="93.5,-95.32 97,-105.32 100.5,-95.32 93.5,-95.32"/>
</g>
</g>
</svg>
