<?xml version="1.0" encoding="UTF-8" standalone="no"?>
<!DOCTYPE svg PUBLIC "-//W3C//DTD SVG 1.1//EN"
 "http://www.w3.org/Graphics/SVG/1.1/DTD/svg11.dtd">
<!-- Generated by graphviz version 2.43.0 (0)
 -->
<!-- Title: plaintohtml.h Pages: 1 -->
<!--zoomable 196 -->
<svg id="main" version="1.1" xmlns="http://www.w3.org/2000/svg" xmlns:xlink="http://www.w3.org/1999/xlink" xml:space="preserve" onload="init(evt)">
<style type="text/css"><![CDATA[
.edge:hover path { stroke: red; }
.edge:hover polygon { stroke: red; fill: red; }
]]></style>
<script type="text/javascript"><![CDATA[
var edges = document.getElementsByTagName('g');
if (edges && edges.length) {
  for (var i=0;i<edges.length;i++) {
    if (edges[i].id.substr(0,4)=='edge') {
      edges[i].setAttribute('class','edge');
    }
  }
}
]]></script>
        <defs>
                <circle id="rim" cx="0" cy="0" r="7"/>
                <circle id="rim2" cx="0" cy="0" r="3.5"/>
                <g id="zoomPlus">
                        <use xlink:href="#rim" fill="#404040">
                                <set attributeName="fill" to="#808080" begin="zoomplus.mouseover" end="zoomplus.mouseout"/>
                        </use>
                        <path d="M-4,0h8M0,-4v8" fill="none" stroke="white" stroke-width="1.5" pointer-events="none"/>
                </g>
                <g id="zoomMin">
                        <use xlink:href="#rim" fill="#404040">
                                <set attributeName="fill" to="#808080" begin="zoomminus.mouseover" end="zoomminus.mouseout"/>
                        </use>
                        <path d="M-4,0h8" fill="none" stroke="white" stroke-width="1.5" pointer-events="none"/>
                </g>
                <g id="dirArrow">
                        <path fill="none" stroke="white" stroke-width="1.5" d="M0,-3.0v7 M-2.5,-0.5L0,-3.0L2.5,-0.5"/>
                </g>
               <g id="resetDef">
                       <use xlink:href="#rim2" fill="#404040">
                               <set attributeName="fill" to="#808080" begin="reset.mouseover" end="reset.mouseout"/>
                       </use>
               </g>
        </defs>

<script type="text/javascript">
var viewWidth = 6326;
var viewHeight = 196;
var sectionId = 'dynsection-0';
</script>
<script xlink:href="../../svgpan.js"/>
<svg id="graph" class="graph">
<g id="viewport">
<title>plaintohtml.h</title>
<polygon fill="white" stroke="transparent" points="-4,4 -4,-192 6322,-192 6322,4 -4,4"/>
<!-- Node1 -->
<g id="node1" class="node">
<title>Node1</title>
<g id="a_node1"><a xlink:title=" ">
<polygon fill="#bfbfbf" stroke="black" points="2713,-168.5 2713,-187.5 2795,-187.5 2795,-168.5 2713,-168.5"/>
<text text-anchor="middle" x="2754" y="-175.5" font-family="Helvetica,sans-Serif" font-size="10.00">plaintohtml.h</text>
</a>
</g>
</g>
<!-- Node2 -->
<g id="node2" class="node">
<title>Node2</title>
<g id="a_node2"><a xlink:href="../../da/dd4/plaintohtml_8cpp.html" target="_top" xlink:title=" ">
<polygon fill="white" stroke="black" points="2650.5,-112.5 2650.5,-131.5 2743.5,-131.5 2743.5,-112.5 2650.5,-112.5"/>
<text text-anchor="middle" x="2697" y="-119.5" font-family="Helvetica,sans-Serif" font-size="10.00">plaintohtml.cpp</text>
</a>
</g>
</g>
<!-- Node1&#45;&gt;Node2 -->
<g id="edge1" class="edge">
<title>Node1&#45;&gt;Node2</title>
<path fill="none" stroke="midnightblue" d="M2737.38,-161.25C2727.27,-151.67 2714.72,-139.79 2706.32,-131.83"/>
<polygon fill="midnightblue" stroke="midnightblue" points="2735.18,-163.99 2744.84,-168.32 2739.99,-158.91 2735.18,-163.99"/>
</g>
<!-- Node3 -->
<g id="node3" class="node">
<title>Node3</title>
<g id="a_node3"><a xlink:href="../../d0/d60/cswordbackend_8h.html" target="_top" xlink:title=" ">
<polygon fill="white" stroke="black" points="2761.5,-112.5 2761.5,-131.5 2862.5,-131.5 2862.5,-112.5 2761.5,-112.5"/>
<text text-anchor="middle" x="2812" y="-119.5" font-family="Helvetica,sans-Serif" font-size="10.00">cswordbackend.h</text>
</a>
</g>
</g>
<!-- Node1&#45;&gt;Node3 -->
<g id="edge2" class="edge">
<title>Node1&#45;&gt;Node3</title>
<path fill="none" stroke="midnightblue" d="M2770.91,-161.25C2781.2,-151.67 2793.97,-139.79 2802.51,-131.83"/>
<polygon fill="midnightblue" stroke="midnightblue" points="2768.25,-158.95 2763.32,-168.32 2773.02,-164.07 2768.25,-158.95"/>
</g>
<!-- Node4 -->
<g id="node4" class="node">
<title>Node4</title>
<g id="a_node4"><a xlink:href="../../d7/dd0/btbookmarksmodel_8cpp.html" target="_top" xlink:title=" ">
<polygon fill="white" stroke="black" points="0,-56.5 0,-75.5 132,-75.5 132,-56.5 0,-56.5"/>
<text text-anchor="middle" x="66" y="-63.5" font-family="Helvetica,sans-Serif" font-size="10.00">btbookmarksmodel.cpp</text>
</a>
</g>
</g>
<!-- Node3&#45;&gt;Node4 -->
<g id="edge3" class="edge">
<title>Node3&#45;&gt;Node4</title>
<path fill="none" stroke="midnightblue" d="M2751.09,-112.07C1593.54,-18.5 1295.59,-153.02 141,-76 138.12,-75.81 135.18,-75.58 132.22,-75.33"/>
<polygon fill="midnightblue" stroke="midnightblue" points="2751.07,-115.58 2761.32,-112.91 2751.63,-108.61 2751.07,-115.58"/>
</g>
<!-- Node5 -->
<g id="node5" class="node">
<title>Node5</title>
<g id="a_node5"><a xlink:href="../../db/dd7/btinstallbackend_8cpp.html" target="_top" xlink:title=" ">
<polygon fill="white" stroke="black" points="150.5,-56.5 150.5,-75.5 267.5,-75.5 267.5,-56.5 150.5,-56.5"/>
<text text-anchor="middle" x="209" y="-63.5" font-family="Helvetica,sans-Serif" font-size="10.00">btinstallbackend.cpp</text>
</a>
</g>
</g>
<!-- Node3&#45;&gt;Node5 -->
<g id="edge4" class="edge">
<title>Node3&#45;&gt;Node5</title>
<path fill="none" stroke="midnightblue" d="M2751.22,-112.08C1653.83,-23.02 1370.83,-156.06 277,-76 273.91,-75.77 270.75,-75.5 267.56,-75.19"/>
<polygon fill="midnightblue" stroke="midnightblue" points="2751.07,-115.58 2761.32,-112.91 2751.63,-108.61 2751.07,-115.58"/>
</g>
<!-- Node6 -->
<g id="node6" class="node">
<title>Node6</title>
<g id="a_node6"><a xlink:href="../../d5/daf/btinstallthread_8cpp.html" target="_top" xlink:title=" ">
<polygon fill="white" stroke="black" points="286,-56.5 286,-75.5 394,-75.5 394,-56.5 286,-56.5"/>
<text text-anchor="middle" x="340" y="-63.5" font-family="Helvetica,sans-Serif" font-size="10.00">btinstallthread.cpp</text>
</a>
</g>
</g>
<!-- Node3&#45;&gt;Node6 -->
<g id="edge5" class="edge">
<title>Node3&#45;&gt;Node6</title>
<path fill="none" stroke="midnightblue" d="M2751.34,-112.09C1709.69,-27.2 1440.59,-157.73 403,-76 400.14,-75.77 397.2,-75.5 394.25,-75.19"/>
<polygon fill="midnightblue" stroke="midnightblue" points="2751.06,-115.58 2761.32,-112.91 2751.64,-108.61 2751.06,-115.58"/>
</g>
<!-- Node7 -->
<g id="node7" class="node">
<title>Node7</title>
<g id="a_node7"><a xlink:href="../../de/d4e/btconfig_8cpp.html" target="_top" xlink:title=" ">
<polygon fill="white" stroke="black" points="412,-56.5 412,-75.5 488,-75.5 488,-56.5 412,-56.5"/>
<text text-anchor="middle" x="450" y="-63.5" font-family="Helvetica,sans-Serif" font-size="10.00">btconfig.cpp</text>
</a>
</g>
</g>
<!-- Node3&#45;&gt;Node7 -->
<g id="edge6" class="edge">
<title>Node3&#45;&gt;Node7</title>
<path fill="none" stroke="midnightblue" d="M2751.16,-112.09C2235.99,-71.48 992.25,-126.98 497,-76 494.11,-75.7 491.13,-75.32 488.14,-74.88"/>
<polygon fill="midnightblue" stroke="midnightblue" points="2751.07,-115.6 2761.32,-112.91 2751.63,-108.62 2751.07,-115.6"/>
</g>
<!-- Node8 -->
<g id="node8" class="node">
<title>Node8</title>
<g id="a_node8"><a xlink:href="../../dd/d03/cswordmodulesearch_8cpp.html" target="_top" xlink:title=" ">
<polygon fill="white" stroke="black" points="506,-56.5 506,-75.5 646,-75.5 646,-56.5 506,-56.5"/>
<text text-anchor="middle" x="576" y="-63.5" font-family="Helvetica,sans-Serif" font-size="10.00">cswordmodulesearch.cpp</text>
</a>
</g>
</g>
<!-- Node3&#45;&gt;Node8 -->
<g id="edge7" class="edge">
<title>Node3&#45;&gt;Node8</title>
<path fill="none" stroke="midnightblue" d="M2751.04,-112.07C1821.32,-35.44 1581.74,-136.6 655,-76 652.11,-75.81 649.16,-75.59 646.18,-75.35"/>
<polygon fill="midnightblue" stroke="midnightblue" points="2751.06,-115.58 2761.32,-112.92 2751.64,-108.6 2751.06,-115.58"/>
</g>
<!-- Node9 -->
<g id="node9" class="node">
<title>Node9</title>
<g id="a_node9"><a xlink:href="../../d4/d94/cswordbiblemoduleinfo_8cpp.html" target="_top" xlink:title=" ">
<polygon fill="white" stroke="black" points="664.5,-56.5 664.5,-75.5 815.5,-75.5 815.5,-56.5 664.5,-56.5"/>
<text text-anchor="middle" x="740" y="-63.5" font-family="Helvetica,sans-Serif" font-size="10.00">cswordbiblemoduleinfo.cpp</text>
</a>
</g>
</g>
<!-- Node3&#45;&gt;Node9 -->
<g id="edge8" class="edge">
<title>Node3&#45;&gt;Node9</title>
<path fill="none" stroke="midnightblue" d="M2751.23,-112.08C1896.25,-40.98 1676.01,-129.49 824,-76 821.22,-75.83 818.39,-75.63 815.53,-75.41"/>
<polygon fill="midnightblue" stroke="midnightblue" points="2751.06,-115.58 2761.32,-112.92 2751.64,-108.6 2751.06,-115.58"/>
</g>
<!-- Node10 -->
<g id="node10" class="node">
<title>Node10</title>
<g id="a_node10"><a xlink:href="../../d3/db9/cswordmoduleinfo_8cpp.html" target="_top" xlink:title=" ">
<polygon fill="white" stroke="black" points="833.5,-56.5 833.5,-75.5 960.5,-75.5 960.5,-56.5 833.5,-56.5"/>
<text text-anchor="middle" x="897" y="-63.5" font-family="Helvetica,sans-Serif" font-size="10.00">cswordmoduleinfo.cpp</text>
</a>
</g>
</g>
<!-- Node3&#45;&gt;Node10 -->
<g id="edge9" class="edge">
<title>Node3&#45;&gt;Node10</title>
<path fill="none" stroke="midnightblue" d="M2751.11,-112.07C1960.93,-45.85 1756.77,-132.3 970,-76 966.94,-75.78 963.82,-75.52 960.66,-75.24"/>
<polygon fill="midnightblue" stroke="midnightblue" points="2751.06,-115.58 2761.31,-112.93 2751.64,-108.6 2751.06,-115.58"/>
</g>
<!-- Node11 -->
<g id="node11" class="node">
<title>Node11</title>
<g id="a_node11"><a xlink:href="../../d4/d4d/gbftohtml_8cpp.html" target="_top" xlink:title=" ">
<polygon fill="white" stroke="black" points="979,-56.5 979,-75.5 1063,-75.5 1063,-56.5 979,-56.5"/>
<text text-anchor="middle" x="1021" y="-63.5" font-family="Helvetica,sans-Serif" font-size="10.00">gbftohtml.cpp</text>
</a>
</g>
</g>
<!-- Node3&#45;&gt;Node11 -->
<g id="edge10" class="edge">
<title>Node3&#45;&gt;Node11</title>
<path fill="none" stroke="midnightblue" d="M2751.13,-112.07C2005.67,-49.36 1811.21,-150.08 1071,-76 1068.45,-75.75 1065.84,-75.43 1063.22,-75.08"/>
<polygon fill="midnightblue" stroke="midnightblue" points="2751.05,-115.58 2761.31,-112.93 2751.65,-108.6 2751.05,-115.58"/>
</g>
<!-- Node12 -->
<g id="node12" class="node">
<title>Node12</title>
<g id="a_node12"><a xlink:href="../../db/d7a/osistohtml_8cpp.html" target="_top" xlink:title=" ">
<polygon fill="white" stroke="black" points="1080.5,-56.5 1080.5,-75.5 1169.5,-75.5 1169.5,-56.5 1080.5,-56.5"/>
<text text-anchor="middle" x="1125" y="-63.5" font-family="Helvetica,sans-Serif" font-size="10.00">osistohtml.cpp</text>
</a>
</g>
</g>
<!-- Node3&#45;&gt;Node12 -->
<g id="edge11" class="edge">
<title>Node3&#45;&gt;Node12</title>
<path fill="none" stroke="midnightblue" d="M2751.27,-112.08C2053.56,-52.86 1871.89,-141.34 1179,-76 1175.97,-75.71 1172.86,-75.36 1169.72,-74.96"/>
<polygon fill="midnightblue" stroke="midnightblue" points="2751.05,-115.57 2761.31,-112.94 2751.65,-108.6 2751.05,-115.57"/>
</g>
<!-- Node13 -->
<g id="node13" class="node">
<title>Node13</title>
<g id="a_node13"><a xlink:href="../../d5/de5/teitohtml_8cpp.html" target="_top" xlink:title=" ">
<polygon fill="white" stroke="black" points="1188,-56.5 1188,-75.5 1270,-75.5 1270,-56.5 1188,-56.5"/>
<text text-anchor="middle" x="1229" y="-63.5" font-family="Helvetica,sans-Serif" font-size="10.00">teitohtml.cpp</text>
</a>
</g>
</g>
<!-- Node3&#45;&gt;Node13 -->
<g id="edge12" class="edge">
<title>Node3&#45;&gt;Node13</title>
<path fill="none" stroke="midnightblue" d="M2751.17,-112.07C2097.85,-56.21 1927.17,-141.86 1279,-76 1276.1,-75.71 1273.12,-75.34 1270.13,-74.92"/>
<polygon fill="midnightblue" stroke="midnightblue" points="2751.05,-115.57 2761.31,-112.94 2751.65,-108.6 2751.05,-115.57"/>
</g>
<!-- Node14 -->
<g id="node14" class="node">
<title>Node14</title>
<g id="a_node14"><a xlink:href="../../d9/de8/thmltohtml_8cpp.html" target="_top" xlink:title=" ">
<polygon fill="white" stroke="black" points="1288,-56.5 1288,-75.5 1380,-75.5 1380,-56.5 1288,-56.5"/>
<text text-anchor="middle" x="1334" y="-63.5" font-family="Helvetica,sans-Serif" font-size="10.00">thmltohtml.cpp</text>
</a>
</g>
</g>
<!-- Node3&#45;&gt;Node14 -->
<g id="edge13" class="edge">
<title>Node3&#45;&gt;Node14</title>
<path fill="none" stroke="midnightblue" d="M2751.03,-112.05C2146.57,-59.78 1988.91,-132.74 1389,-76 1386.11,-75.73 1383.14,-75.39 1380.15,-75.02"/>
<polygon fill="midnightblue" stroke="midnightblue" points="2751.05,-115.57 2761.31,-112.95 2751.66,-108.59 2751.05,-115.57"/>
</g>
<!-- Node15 -->
<g id="node15" class="node">
<title>Node15</title>
<g id="a_node15"><a xlink:href="../../d4/d47/cdisplaytemplatemgr_8cpp.html" target="_top" xlink:title=" ">
<polygon fill="white" stroke="black" points="1398,-56.5 1398,-75.5 1538,-75.5 1538,-56.5 1398,-56.5"/>
<text text-anchor="middle" x="1468" y="-63.5" font-family="Helvetica,sans-Serif" font-size="10.00">cdisplaytemplatemgr.cpp</text>
</a>
</g>
</g>
<!-- Node3&#45;&gt;Node15 -->
<g id="edge14" class="edge">
<title>Node3&#45;&gt;Node15</title>
<path fill="none" stroke="midnightblue" d="M2751.02,-112.05C2216.59,-64.81 2078.03,-114.11 1547,-76 1544.11,-75.79 1541.16,-75.56 1538.18,-75.3"/>
<polygon fill="midnightblue" stroke="midnightblue" points="2751.04,-115.56 2761.31,-112.96 2751.66,-108.59 2751.04,-115.56"/>
</g>
<!-- Node16 -->
<g id="node16" class="node">
<title>Node16</title>
<g id="a_node16"><a xlink:href="../../d9/d7b/cswordbackend_8cpp.html" target="_top" xlink:title=" ">
<polygon fill="white" stroke="black" points="1556,-56.5 1556,-75.5 1668,-75.5 1668,-56.5 1556,-56.5"/>
<text text-anchor="middle" x="1612" y="-63.5" font-family="Helvetica,sans-Serif" font-size="10.00">cswordbackend.cpp</text>
</a>
</g>
</g>
<!-- Node3&#45;&gt;Node16 -->
<g id="edge15" class="edge">
<title>Node3&#45;&gt;Node16</title>
<path fill="none" stroke="midnightblue" d="M2751.06,-112.04C2274.19,-69.15 2149.93,-116.55 1677,-76 1674.16,-75.76 1671.26,-75.48 1668.33,-75.16"/>
<polygon fill="midnightblue" stroke="midnightblue" points="2751.04,-115.56 2761.31,-112.98 2751.67,-108.59 2751.04,-115.56"/>
</g>
<!-- Node17 -->
<g id="node17" class="node">
<title>Node17</title>
<g id="a_node17"><a xlink:href="../../d7/dfe/referencemanager_8cpp.html" target="_top" xlink:title=" ">
<polygon fill="white" stroke="black" points="1686,-56.5 1686,-75.5 1812,-75.5 1812,-56.5 1686,-56.5"/>
<text text-anchor="middle" x="1749" y="-63.5" font-family="Helvetica,sans-Serif" font-size="10.00">referencemanager.cpp</text>
</a>
</g>
</g>
<!-- Node3&#45;&gt;Node17 -->
<g id="edge16" class="edge">
<title>Node3&#45;&gt;Node17</title>
<path fill="none" stroke="midnightblue" d="M2751.18,-112.05C2338,-73.81 2230.39,-109.44 1821,-76 1818.11,-75.76 1815.16,-75.5 1812.18,-75.21"/>
<polygon fill="midnightblue" stroke="midnightblue" points="2751.03,-115.55 2761.31,-112.99 2751.68,-108.58 2751.03,-115.55"/>
</g>
<!-- Node18 -->
<g id="node18" class="node">
<title>Node18</title>
<g id="a_node18"><a xlink:href="../../de/d93/btmoduletextmodel_8cpp.html" target="_top" xlink:title=" ">
<polygon fill="white" stroke="black" points="1830,-56.5 1830,-75.5 1964,-75.5 1964,-56.5 1830,-56.5"/>
<text text-anchor="middle" x="1897" y="-63.5" font-family="Helvetica,sans-Serif" font-size="10.00">btmoduletextmodel.cpp</text>
</a>
</g>
</g>
<!-- Node3&#45;&gt;Node18 -->
<g id="edge17" class="edge">
<title>Node3&#45;&gt;Node18</title>
<path fill="none" stroke="midnightblue" d="M2751.26,-112.05C2405.34,-78.74 2315.14,-104.13 1973,-76 1970.09,-75.76 1967.11,-75.5 1964.11,-75.21"/>
<polygon fill="midnightblue" stroke="midnightblue" points="2751.01,-115.54 2761.31,-113.02 2751.69,-108.57 2751.01,-115.54"/>
</g>
<!-- Node19 -->
<g id="node19" class="node">
<title>Node19</title>
<g id="a_node19"><a xlink:href="../../da/d1a/btinforendering_8cpp.html" target="_top" xlink:title=" ">
<polygon fill="white" stroke="black" points="1982,-56.5 1982,-75.5 2094,-75.5 2094,-56.5 1982,-56.5"/>
<text text-anchor="middle" x="2038" y="-63.5" font-family="Helvetica,sans-Serif" font-size="10.00">btinforendering.cpp</text>
</a>
</g>
</g>
<!-- Node3&#45;&gt;Node19 -->
<g id="edge18" class="edge">
<title>Node3&#45;&gt;Node19</title>
<path fill="none" stroke="midnightblue" d="M2750.96,-112C2462.85,-83.03 2387.17,-103.51 2103,-76 2100.17,-75.73 2097.26,-75.42 2094.34,-75.09"/>
<polygon fill="midnightblue" stroke="midnightblue" points="2751,-115.53 2761.3,-113.06 2751.71,-108.56 2751,-115.53"/>
</g>
<!-- Node20 -->
<g id="node20" class="node">
<title>Node20</title>
<g id="a_node20"><a xlink:href="../../db/d72/ctextrendering_8cpp.html" target="_top" xlink:title=" ">
<polygon fill="white" stroke="black" points="2112,-56.5 2112,-75.5 2220,-75.5 2220,-56.5 2112,-56.5"/>
<text text-anchor="middle" x="2166" y="-63.5" font-family="Helvetica,sans-Serif" font-size="10.00">ctextrendering.cpp</text>
</a>
</g>
</g>
<!-- Node3&#45;&gt;Node20 -->
<g id="edge19" class="edge">
<title>Node3&#45;&gt;Node20</title>
<path fill="none" stroke="midnightblue" d="M2751.26,-112.01C2520.89,-87.2 2460.36,-98.82 2234,-76 2229.5,-75.55 2224.83,-75.03 2220.16,-74.48"/>
<polygon fill="midnightblue" stroke="midnightblue" points="2750.98,-115.5 2761.3,-113.11 2751.74,-108.54 2750.98,-115.5"/>
</g>
<!-- Node21 -->
<g id="node21" class="node">
<title>Node21</title>
<g id="a_node21"><a xlink:href="../../d1/df6/bibletime_8cpp.html" target="_top" xlink:title=" ">
<polygon fill="white" stroke="black" points="2193.5,-0.5 2193.5,-19.5 2276.5,-19.5 2276.5,-0.5 2193.5,-0.5"/>
<text text-anchor="middle" x="2235" y="-7.5" font-family="Helvetica,sans-Serif" font-size="10.00">bibletime.cpp</text>
</a>
</g>
</g>
<!-- Node3&#45;&gt;Node21 -->
<g id="edge20" class="edge">
<title>Node3&#45;&gt;Node21</title>
<path fill="none" stroke="midnightblue" d="M2751.22,-112.1C2635.72,-101.55 2384.94,-118.74 2296,-76 2269.78,-63.4 2249.17,-34.25 2240.07,-19.65"/>
<polygon fill="midnightblue" stroke="midnightblue" points="2750.99,-115.6 2761.29,-113.14 2751.7,-108.64 2750.99,-115.6"/>
</g>
<!-- Node22 -->
<g id="node22" class="node">
<title>Node22</title>
<g id="a_node22"><a xlink:href="../../d6/d96/bibletime__slots_8cpp.html" target="_top" xlink:title=" ">
<polygon fill="white" stroke="black" points="2460,-56.5 2460,-75.5 2572,-75.5 2572,-56.5 2460,-56.5"/>
<text text-anchor="middle" x="2516" y="-63.5" font-family="Helvetica,sans-Serif" font-size="10.00">bibletime_slots.cpp</text>
</a>
</g>
</g>
<!-- Node3&#45;&gt;Node22 -->
<g id="edge21" class="edge">
<title>Node3&#45;&gt;Node22</title>
<path fill="none" stroke="midnightblue" d="M2755,-110.6C2699.06,-100.4 2614.77,-85.02 2562.68,-75.52"/>
<polygon fill="midnightblue" stroke="midnightblue" points="2754.63,-114.09 2765.1,-112.44 2755.89,-107.21 2754.63,-114.09"/>
</g>
<!-- Node23 -->
<g id="node23" class="node">
<title>Node23</title>
<g id="a_node23"><a xlink:href="../../d5/d86/bibletimeapp_8cpp.html" target="_top" xlink:title=" ">
<polygon fill="white" stroke="black" points="2294.5,-0.5 2294.5,-19.5 2395.5,-19.5 2395.5,-0.5 2294.5,-0.5"/>
<text text-anchor="middle" x="2345" y="-7.5" font-family="Helvetica,sans-Serif" font-size="10.00">bibletimeapp.cpp</text>
</a>
</g>
</g>
<!-- Node3&#45;&gt;Node23 -->
<g id="edge22" class="edge">
<title>Node3&#45;&gt;Node23</title>
<path fill="none" stroke="midnightblue" d="M2751.08,-112.26C2669.13,-106.8 2337.21,-110.9 2305,-76 2288.65,-58.28 2315.76,-32.9 2332.81,-19.71"/>
<polygon fill="midnightblue" stroke="midnightblue" points="2751.03,-115.77 2761.29,-113.14 2751.63,-108.8 2751.03,-115.77"/>
</g>
<!-- Node24 -->
<g id="node24" class="node">
<title>Node24</title>
<g id="a_node24"><a xlink:href="../../d5/d00/bibletimeapp_8h.html" target="_top" xlink:title=" ">
<polygon fill="white" stroke="red" points="2314,-56.5 2314,-75.5 2404,-75.5 2404,-56.5 2314,-56.5"/>
<text text-anchor="middle" x="2359" y="-63.5" font-family="Helvetica,sans-Serif" font-size="10.00">bibletimeapp.h</text>
</a>
</g>
</g>
<!-- Node3&#45;&gt;Node24 -->
<g id="edge23" class="edge">
<title>Node3&#45;&gt;Node24</title>
<path fill="none" stroke="midnightblue" d="M2751.3,-111.96C2602.24,-93.01 2562.88,-94.85 2418,-76 2413.48,-75.41 2408.77,-74.76 2404.07,-74.08"/>
<polygon fill="midnightblue" stroke="midnightblue" points="2750.92,-115.44 2761.28,-113.24 2751.81,-108.5 2750.92,-115.44"/>
</g>
<!-- Node26 -->
<g id="node25" class="node">
<title>Node26</title>
<g id="a_node25"><a xlink:href="../../df/d0a/main_8cpp.html" target="_top" xlink:title=" ">
<polygon fill="white" stroke="black" points="2414,-0.5 2414,-19.5 2476,-19.5 2476,-0.5 2414,-0.5"/>
<text text-anchor="middle" x="2445" y="-7.5" font-family="Helvetica,sans-Serif" font-size="10.00">main.cpp</text>
</a>
</g>
</g>
<!-- Node3&#45;&gt;Node26 -->
<g id="edge46" class="edge">
<title>Node3&#45;&gt;Node26</title>
<path fill="none" stroke="midnightblue" d="M2750.88,-112.12C2669.41,-104.7 2495.97,-122.2 2451,-76 2436.3,-60.9 2439.79,-33.43 2442.8,-19.53"/>
<polygon fill="midnightblue" stroke="midnightblue" points="2750.95,-115.65 2761.28,-113.28 2751.73,-108.7 2750.95,-115.65"/>
</g>
<!-- Node27 -->
<g id="node26" class="node">
<title>Node27</title>
<g id="a_node26"><a xlink:href="../../d9/de6/cbookmarkindex_8cpp.html" target="_top" xlink:title=" ">
<polygon fill="white" stroke="black" points="2590.5,-56.5 2590.5,-75.5 2709.5,-75.5 2709.5,-56.5 2590.5,-56.5"/>
<text text-anchor="middle" x="2650" y="-63.5" font-family="Helvetica,sans-Serif" font-size="10.00">cbookmarkindex.cpp</text>
</a>
</g>
</g>
<!-- Node3&#45;&gt;Node27 -->
<g id="edge27" class="edge">
<title>Node3&#45;&gt;Node27</title>
<path fill="none" stroke="midnightblue" d="M2776.52,-109.17C2746.01,-99 2702.76,-84.59 2675.55,-75.52"/>
<polygon fill="midnightblue" stroke="midnightblue" points="2775.74,-112.6 2786.33,-112.44 2777.95,-105.96 2775.74,-112.6"/>
</g>
<!-- Node28 -->
<g id="node27" class="node">
<title>Node28</title>
<g id="a_node27"><a xlink:href="../../dc/d04/btbookshelfinstallfinalpage_8cpp.html" target="_top" xlink:title=" ">
<polygon fill="white" stroke="black" points="2727.5,-56.5 2727.5,-75.5 2896.5,-75.5 2896.5,-56.5 2727.5,-56.5"/>
<text text-anchor="middle" x="2812" y="-63.5" font-family="Helvetica,sans-Serif" font-size="10.00">btbookshelfinstallfinalpage.cpp</text>
</a>
</g>
</g>
<!-- Node3&#45;&gt;Node28 -->
<g id="edge28" class="edge">
<title>Node3&#45;&gt;Node28</title>
<path fill="none" stroke="midnightblue" d="M2812,-101.8C2812,-92.91 2812,-82.78 2812,-75.75"/>
<polygon fill="midnightblue" stroke="midnightblue" points="2808.5,-102.08 2812,-112.08 2815.5,-102.08 2808.5,-102.08"/>
</g>
<!-- Node29 -->
<g id="node28" class="node">
<title>Node29</title>
<g id="a_node28"><a xlink:href="../../d0/da5/btbookshelflanguagespage_8cpp.html" target="_top" xlink:title=" ">
<polygon fill="white" stroke="black" points="2914,-56.5 2914,-75.5 3082,-75.5 3082,-56.5 2914,-56.5"/>
<text text-anchor="middle" x="2998" y="-63.5" font-family="Helvetica,sans-Serif" font-size="10.00">btbookshelflanguagespage.cpp</text>
</a>
</g>
</g>
<!-- Node3&#45;&gt;Node29 -->
<g id="edge29" class="edge">
<title>Node3&#45;&gt;Node29</title>
<path fill="none" stroke="midnightblue" d="M2851.38,-109.57C2886.47,-99.38 2937.02,-84.7 2968.67,-75.52"/>
<polygon fill="midnightblue" stroke="midnightblue" points="2850.1,-106.29 2841.47,-112.44 2852.05,-113.02 2850.1,-106.29"/>
</g>
<!-- Node30 -->
<g id="node29" class="node">
<title>Node30</title>
<g id="a_node29"><a xlink:href="../../d0/da0/btbookshelfremovefinalpage_8cpp.html" target="_top" xlink:title=" ">
<polygon fill="white" stroke="black" points="3099.5,-56.5 3099.5,-75.5 3276.5,-75.5 3276.5,-56.5 3099.5,-56.5"/>
<text text-anchor="middle" x="3188" y="-63.5" font-family="Helvetica,sans-Serif" font-size="10.00">btbookshelfremovefinalpage.cpp</text>
</a>
</g>
</g>
<!-- Node3&#45;&gt;Node30 -->
<g id="edge30" class="edge">
<title>Node3&#45;&gt;Node30</title>
<path fill="none" stroke="midnightblue" d="M2872.77,-112.27C2943.22,-102.15 3058.6,-85.58 3128.51,-75.54"/>
<polygon fill="midnightblue" stroke="midnightblue" points="2872.11,-108.83 2862.71,-113.72 2873.11,-115.76 2872.11,-108.83"/>
</g>
<!-- Node31 -->
<g id="node30" class="node">
<title>Node31</title>
<g id="a_node30"><a xlink:href="../../de/db2/btbookshelftaskpage_8cpp.html" target="_top" xlink:title=" ">
<polygon fill="white" stroke="black" points="3294.5,-56.5 3294.5,-75.5 3433.5,-75.5 3433.5,-56.5 3294.5,-56.5"/>
<text text-anchor="middle" x="3364" y="-63.5" font-family="Helvetica,sans-Serif" font-size="10.00">btbookshelftaskpage.cpp</text>
</a>
</g>
</g>
<!-- Node3&#45;&gt;Node31 -->
<g id="edge31" class="edge">
<title>Node3&#45;&gt;Node31</title>
<path fill="none" stroke="midnightblue" d="M2872.81,-115.58C2962.89,-107.47 3137.08,-91.46 3285,-76 3288.02,-75.68 3291.11,-75.36 3294.22,-75.02"/>
<polygon fill="midnightblue" stroke="midnightblue" points="2872.43,-112.1 2862.78,-116.48 2873.05,-119.07 2872.43,-112.1"/>
</g>
<!-- Node32 -->
<g id="node31" class="node">
<title>Node32</title>
<g id="a_node31"><a xlink:href="../../d9/d03/btbookshelfworkspage_8cpp.html" target="_top" xlink:title=" ">
<polygon fill="white" stroke="black" points="3494.5,-0.5 3494.5,-19.5 3641.5,-19.5 3641.5,-0.5 3494.5,-0.5"/>
<text text-anchor="middle" x="3568" y="-7.5" font-family="Helvetica,sans-Serif" font-size="10.00">btbookshelfworkspage.cpp</text>
</a>
</g>
</g>
<!-- Node3&#45;&gt;Node32 -->
<g id="edge32" class="edge">
<title>Node3&#45;&gt;Node32</title>
<path fill="none" stroke="midnightblue" d="M2872.62,-119.77C3052.48,-115.84 3572.22,-102.24 3597,-76 3612.61,-59.47 3590.8,-33.12 3577.3,-19.61"/>
<polygon fill="midnightblue" stroke="midnightblue" points="2872.46,-116.28 2862.53,-119.99 2872.61,-123.27 2872.46,-116.28"/>
</g>
<!-- Node33 -->
<g id="node32" class="node">
<title>Node33</title>
<g id="a_node32"><a xlink:href="../../d6/d8d/btbookshelfworkspage_8h.html" target="_top" xlink:title=" ">
<polygon fill="white" stroke="red" points="3452,-56.5 3452,-75.5 3588,-75.5 3588,-56.5 3452,-56.5"/>
<text text-anchor="middle" x="3520" y="-63.5" font-family="Helvetica,sans-Serif" font-size="10.00">btbookshelfworkspage.h</text>
</a>
</g>
</g>
<!-- Node3&#45;&gt;Node33 -->
<g id="edge33" class="edge">
<title>Node3&#45;&gt;Node33</title>
<path fill="none" stroke="midnightblue" d="M2872.83,-117.54C2985.32,-110.94 3233.43,-95.47 3442,-76 3445.26,-75.7 3448.59,-75.37 3451.95,-75.03"/>
<polygon fill="midnightblue" stroke="midnightblue" points="2872.47,-114.05 2862.69,-118.13 2872.88,-121.04 2872.47,-114.05"/>
</g>
<!-- Node35 -->
<g id="node33" class="node">
<title>Node35</title>
<g id="a_node33"><a xlink:href="../../dd/dba/btinstallpagemodel_8cpp.html" target="_top" xlink:title=" ">
<polygon fill="white" stroke="black" points="3644.5,-56.5 3644.5,-75.5 3775.5,-75.5 3775.5,-56.5 3644.5,-56.5"/>
<text text-anchor="middle" x="3710" y="-63.5" font-family="Helvetica,sans-Serif" font-size="10.00">btinstallpagemodel.cpp</text>
</a>
</g>
</g>
<!-- Node3&#45;&gt;Node35 -->
<g id="edge35" class="edge">
<title>Node3&#45;&gt;Node35</title>
<path fill="none" stroke="midnightblue" d="M2873.02,-118.83C3009.07,-113.75 3347.52,-99.64 3630,-76 3634.6,-75.62 3639.34,-75.18 3644.11,-74.71"/>
<polygon fill="midnightblue" stroke="midnightblue" points="2872.67,-115.35 2862.8,-119.21 2872.93,-122.34 2872.67,-115.35"/>
</g>
<!-- Node36 -->
<g id="node34" class="node">
<title>Node36</title>
<g id="a_node34"><a xlink:href="../../df/d88/btbookshelfdockwidget_8cpp.html" target="_top" xlink:title=" ">
<polygon fill="white" stroke="black" points="3793.5,-56.5 3793.5,-75.5 3944.5,-75.5 3944.5,-56.5 3793.5,-56.5"/>
<text text-anchor="middle" x="3869" y="-63.5" font-family="Helvetica,sans-Serif" font-size="10.00">btbookshelfdockwidget.cpp</text>
</a>
</g>
</g>
<!-- Node3&#45;&gt;Node36 -->
<g id="edge36" class="edge">
<title>Node3&#45;&gt;Node36</title>
<path fill="none" stroke="midnightblue" d="M2872.86,-119.47C3026.16,-115.32 3440.52,-102.4 3785,-76 3787.78,-75.79 3790.61,-75.56 3793.46,-75.31"/>
<polygon fill="midnightblue" stroke="midnightblue" points="2872.62,-115.97 2862.71,-119.74 2872.8,-122.97 2872.62,-115.97"/>
</g>
<!-- Node37 -->
<g id="node35" class="node">
<title>Node37</title>
<g id="a_node35"><a xlink:href="../../d9/d62/btopenworkaction_8cpp.html" target="_top" xlink:title=" ">
<polygon fill="white" stroke="black" points="3963,-56.5 3963,-75.5 4087,-75.5 4087,-56.5 3963,-56.5"/>
<text text-anchor="middle" x="4025" y="-63.5" font-family="Helvetica,sans-Serif" font-size="10.00">btopenworkaction.cpp</text>
</a>
</g>
</g>
<!-- Node3&#45;&gt;Node37 -->
<g id="edge37" class="edge">
<title>Node3&#45;&gt;Node37</title>
<path fill="none" stroke="midnightblue" d="M2872.8,-120.46C3043.52,-118.54 3541.73,-110.19 3954,-76 3956.85,-75.76 3959.76,-75.5 3962.69,-75.21"/>
<polygon fill="midnightblue" stroke="midnightblue" points="2872.71,-116.96 2862.75,-120.57 2872.79,-123.96 2872.71,-116.96"/>
</g>
<!-- Node38 -->
<g id="node36" class="node">
<title>Node38</title>
<g id="a_node36"><a xlink:href="../../d4/d3a/bttextbrowser_8cpp.html" target="_top" xlink:title=" ">
<polygon fill="white" stroke="black" points="4105,-56.5 4105,-75.5 4209,-75.5 4209,-56.5 4105,-56.5"/>
<text text-anchor="middle" x="4157" y="-63.5" font-family="Helvetica,sans-Serif" font-size="10.00">bttextbrowser.cpp</text>
</a>
</g>
</g>
<!-- Node3&#45;&gt;Node38 -->
<g id="edge38" class="edge">
<title>Node3&#45;&gt;Node38</title>
<path fill="none" stroke="midnightblue" d="M2872.63,-121.27C3056.91,-121.58 3626.45,-118.73 4096,-76 4098.88,-75.74 4101.83,-75.43 4104.8,-75.09"/>
<polygon fill="midnightblue" stroke="midnightblue" points="2872.6,-117.77 2862.6,-121.25 2872.59,-124.77 2872.6,-117.77"/>
</g>
<!-- Node39 -->
<g id="node37" class="node">
<title>Node39</title>
<g id="a_node37"><a xlink:href="../../de/db2/btmodelviewreaddisplay_8cpp.html" target="_top" xlink:title=" ">
<polygon fill="white" stroke="black" points="4227,-56.5 4227,-75.5 4383,-75.5 4383,-56.5 4227,-56.5"/>
<text text-anchor="middle" x="4305" y="-63.5" font-family="Helvetica,sans-Serif" font-size="10.00">btmodelviewreaddisplay.cpp</text>
</a>
</g>
</g>
<!-- Node3&#45;&gt;Node39 -->
<g id="edge39" class="edge">
<title>Node3&#45;&gt;Node39</title>
<path fill="none" stroke="midnightblue" d="M2872.56,-120.6C3067.76,-118.98 3697.94,-111.18 4218,-76 4220.88,-75.81 4223.81,-75.59 4226.77,-75.36"/>
<polygon fill="midnightblue" stroke="midnightblue" points="2872.48,-117.1 2862.5,-120.68 2872.53,-124.1 2872.48,-117.1"/>
</g>
<!-- Node40 -->
<g id="node38" class="node">
<title>Node40</title>
<g id="a_node38"><a xlink:href="../../de/d6e/btqmlinterface_8cpp.html" target="_top" xlink:title=" ">
<polygon fill="white" stroke="black" points="4401.5,-56.5 4401.5,-75.5 4510.5,-75.5 4510.5,-56.5 4401.5,-56.5"/>
<text text-anchor="middle" x="4456" y="-63.5" font-family="Helvetica,sans-Serif" font-size="10.00">btqmlinterface.cpp</text>
</a>
</g>
</g>
<!-- Node3&#45;&gt;Node40 -->
<g id="edge40" class="edge">
<title>Node3&#45;&gt;Node40</title>
<path fill="none" stroke="midnightblue" d="M2872.82,-120.17C3124.93,-116.61 4088.75,-101.56 4392,-76 4395.02,-75.75 4398.11,-75.44 4401.23,-75.11"/>
<polygon fill="midnightblue" stroke="midnightblue" points="2872.7,-116.68 2862.75,-120.32 2872.8,-123.67 2872.7,-116.68"/>
</g>
<!-- Node41 -->
<g id="node39" class="node">
<title>Node41</title>
<g id="a_node39"><a xlink:href="../../d9/d0c/btquickwidget_8cpp.html" target="_top" xlink:title=" ">
<polygon fill="white" stroke="black" points="4529,-56.5 4529,-75.5 4635,-75.5 4635,-56.5 4529,-56.5"/>
<text text-anchor="middle" x="4582" y="-63.5" font-family="Helvetica,sans-Serif" font-size="10.00">btquickwidget.cpp</text>
</a>
</g>
</g>
<!-- Node3&#45;&gt;Node41 -->
<g id="edge41" class="edge">
<title>Node3&#45;&gt;Node41</title>
<path fill="none" stroke="midnightblue" d="M2872.89,-120.36C3137.65,-117.42 4190.25,-104.18 4520,-76 4522.93,-75.75 4525.92,-75.45 4528.95,-75.12"/>
<polygon fill="midnightblue" stroke="midnightblue" points="2872.66,-116.86 2862.7,-120.47 2872.74,-123.86 2872.66,-116.86"/>
</g>
<!-- Node42 -->
<g id="node40" class="node">
<title>Node42</title>
<g id="a_node40"><a xlink:href="../../dd/ddc/btmodulechoosermenu_8cpp.html" target="_top" xlink:title=" ">
<polygon fill="white" stroke="black" points="4653.5,-56.5 4653.5,-75.5 4802.5,-75.5 4802.5,-56.5 4653.5,-56.5"/>
<text text-anchor="middle" x="4728" y="-63.5" font-family="Helvetica,sans-Serif" font-size="10.00">btmodulechoosermenu.cpp</text>
</a>
</g>
</g>
<!-- Node3&#45;&gt;Node42 -->
<g id="edge42" class="edge">
<title>Node3&#45;&gt;Node42</title>
<path fill="none" stroke="midnightblue" d="M2872.93,-121.32C3104.16,-122.14 3949.5,-121.66 4644,-76 4647.07,-75.8 4650.21,-75.57 4653.37,-75.32"/>
<polygon fill="midnightblue" stroke="midnightblue" points="2872.72,-117.82 2862.7,-121.28 2872.69,-124.82 2872.72,-117.82"/>
</g>
<!-- Node43 -->
<g id="node41" class="node">
<title>Node43</title>
<g id="a_node41"><a xlink:href="../../de/da4/cbiblereadwindow_8cpp.html" target="_top" xlink:title=" ">
<polygon fill="white" stroke="black" points="4820.5,-56.5 4820.5,-75.5 4945.5,-75.5 4945.5,-56.5 4820.5,-56.5"/>
<text text-anchor="middle" x="4883" y="-63.5" font-family="Helvetica,sans-Serif" font-size="10.00">cbiblereadwindow.cpp</text>
</a>
</g>
</g>
<!-- Node3&#45;&gt;Node43 -->
<g id="edge43" class="edge">
<title>Node3&#45;&gt;Node43</title>
<path fill="none" stroke="midnightblue" d="M2872.95,-120.48C3164.78,-117.87 4421.12,-105.09 4812,-76 4814.73,-75.8 4817.51,-75.56 4820.32,-75.3"/>
<polygon fill="midnightblue" stroke="midnightblue" points="2872.55,-116.98 2862.58,-120.57 2872.61,-123.98 2872.55,-116.98"/>
</g>
<!-- Node44 -->
<g id="node42" class="node">
<title>Node44</title>
<g id="a_node42"><a xlink:href="../../d0/d6f/ccommentaryreadwindow_8cpp.html" target="_top" xlink:title=" ">
<polygon fill="white" stroke="black" points="4963.5,-56.5 4963.5,-75.5 5126.5,-75.5 5126.5,-56.5 4963.5,-56.5"/>
<text text-anchor="middle" x="5045" y="-63.5" font-family="Helvetica,sans-Serif" font-size="10.00">ccommentaryreadwindow.cpp</text>
</a>
</g>
</g>
<!-- Node3&#45;&gt;Node44 -->
<g id="edge44" class="edge">
<title>Node3&#45;&gt;Node44</title>
<path fill="none" stroke="midnightblue" d="M2873.3,-120.37C3178.25,-117.11 4533.98,-101.43 4955,-76 4957.66,-75.84 4960.37,-75.66 4963.11,-75.47"/>
<polygon fill="midnightblue" stroke="midnightblue" points="2872.86,-116.87 2862.9,-120.48 2872.93,-123.87 2872.86,-116.87"/>
</g>
<!-- Node45 -->
<g id="node43" class="node">
<title>Node45</title>
<g id="a_node43"><a xlink:href="../../d2/d26/cdisplaywindow_8cpp.html" target="_top" xlink:title=" ">
<polygon fill="white" stroke="black" points="5145,-56.5 5145,-75.5 5259,-75.5 5259,-56.5 5145,-56.5"/>
<text text-anchor="middle" x="5202" y="-63.5" font-family="Helvetica,sans-Serif" font-size="10.00">cdisplaywindow.cpp</text>
</a>
</g>
</g>
<!-- Node3&#45;&gt;Node45 -->
<g id="edge45" class="edge">
<title>Node3&#45;&gt;Node45</title>
<path fill="none" stroke="midnightblue" d="M2873.24,-120.78C3193.39,-119.47 4677.51,-111.58 5136,-76 5138.88,-75.78 5141.83,-75.51 5144.81,-75.21"/>
<polygon fill="midnightblue" stroke="midnightblue" points="2872.77,-117.28 2862.78,-120.82 2872.79,-124.28 2872.77,-117.28"/>
</g>
<!-- Node46 -->
<g id="node44" class="node">
<title>Node46</title>
<g id="a_node44"><a xlink:href="../../d4/d57/btindexdialog_8cpp.html" target="_top" xlink:title=" ">
<polygon fill="white" stroke="black" points="5277,-56.5 5277,-75.5 5381,-75.5 5381,-56.5 5277,-56.5"/>
<text text-anchor="middle" x="5329" y="-63.5" font-family="Helvetica,sans-Serif" font-size="10.00">btindexdialog.cpp</text>
</a>
</g>
</g>
<!-- Node3&#45;&gt;Node46 -->
<g id="edge47" class="edge">
<title>Node3&#45;&gt;Node46</title>
<path fill="none" stroke="midnightblue" d="M2872.97,-120.94C3203.32,-120.48 4781.86,-116.15 5268,-76 5270.88,-75.76 5273.83,-75.47 5276.81,-75.15"/>
<polygon fill="midnightblue" stroke="midnightblue" points="2872.64,-117.44 2862.65,-120.96 2872.65,-124.44 2872.64,-117.44"/>
</g>
<!-- Node47 -->
<g id="node45" class="node">
<title>Node47</title>
<g id="a_node45"><a xlink:href="../../dc/dab/btsearchmodulechooserdialog_8cpp.html" target="_top" xlink:title=" ">
<polygon fill="white" stroke="black" points="5399,-56.5 5399,-75.5 5583,-75.5 5583,-56.5 5399,-56.5"/>
<text text-anchor="middle" x="5491" y="-63.5" font-family="Helvetica,sans-Serif" font-size="10.00">btsearchmodulechooserdialog.cpp</text>
</a>
</g>
</g>
<!-- Node3&#45;&gt;Node47 -->
<g id="edge48" class="edge">
<title>Node3&#45;&gt;Node47</title>
<path fill="none" stroke="midnightblue" d="M2872.68,-120.53C3211.95,-117.82 4877.07,-103.3 5390,-76 5392.9,-75.85 5395.85,-75.67 5398.82,-75.49"/>
<polygon fill="midnightblue" stroke="midnightblue" points="2872.53,-117.03 2862.56,-120.61 2872.59,-124.03 2872.53,-117.03"/>
</g>
<!-- Node48 -->
<g id="node46" class="node">
<title>Node48</title>
<g id="a_node46"><a xlink:href="../../d4/d4d/btsearchoptionsarea_8cpp.html" target="_top" xlink:title=" ">
<polygon fill="white" stroke="black" points="5601.5,-56.5 5601.5,-75.5 5738.5,-75.5 5738.5,-56.5 5601.5,-56.5"/>
<text text-anchor="middle" x="5670" y="-63.5" font-family="Helvetica,sans-Serif" font-size="10.00">btsearchoptionsarea.cpp</text>
</a>
</g>
</g>
<!-- Node3&#45;&gt;Node48 -->
<g id="edge49" class="edge">
<title>Node3&#45;&gt;Node48</title>
<path fill="none" stroke="midnightblue" d="M2872.84,-120.83C3228.01,-119.74 5036.94,-112.43 5592,-76 5594.99,-75.8 5598.05,-75.57 5601.13,-75.32"/>
<polygon fill="midnightblue" stroke="midnightblue" points="2872.74,-117.33 2862.76,-120.86 2872.77,-124.33 2872.74,-117.33"/>
</g>
<!-- Node49 -->
<g id="node47" class="node">
<title>Node49</title>
<g id="a_node47"><a xlink:href="../../d7/d5d/cmoduleresultview_8cpp.html" target="_top" xlink:title=" ">
<polygon fill="white" stroke="black" points="5756.5,-56.5 5756.5,-75.5 5885.5,-75.5 5885.5,-56.5 5756.5,-56.5"/>
<text text-anchor="middle" x="5821" y="-63.5" font-family="Helvetica,sans-Serif" font-size="10.00">cmoduleresultview.cpp</text>
</a>
</g>
</g>
<!-- Node3&#45;&gt;Node49 -->
<g id="edge50" class="edge">
<title>Node3&#45;&gt;Node49</title>
<path fill="none" stroke="midnightblue" d="M2872.7,-120.96C3239.14,-120.58 5160.06,-116.63 5748,-76 5750.68,-75.82 5753.4,-75.6 5756.16,-75.36"/>
<polygon fill="midnightblue" stroke="midnightblue" points="2872.56,-117.46 2862.57,-120.97 2872.57,-124.46 2872.56,-117.46"/>
</g>
<!-- Node50 -->
<g id="node48" class="node">
<title>Node50</title>
<g id="a_node48"><a xlink:href="../../d2/d9d/crangechooserdialog_8cpp.html" target="_top" xlink:title=" ">
<polygon fill="white" stroke="black" points="5904,-56.5 5904,-75.5 6042,-75.5 6042,-56.5 5904,-56.5"/>
<text text-anchor="middle" x="5973" y="-63.5" font-family="Helvetica,sans-Serif" font-size="10.00">crangechooserdialog.cpp</text>
</a>
</g>
</g>
<!-- Node3&#45;&gt;Node50 -->
<g id="edge51" class="edge">
<title>Node3&#45;&gt;Node50</title>
<path fill="none" stroke="midnightblue" d="M2872.7,-120.95C3249.77,-120.48 5275.81,-116.14 5895,-76 5897.86,-75.81 5900.77,-75.6 5903.71,-75.36"/>
<polygon fill="midnightblue" stroke="midnightblue" points="2872.54,-117.45 2862.55,-120.96 2872.55,-124.45 2872.54,-117.45"/>
</g>
<!-- Node51 -->
<g id="node49" class="node">
<title>Node51</title>
<g id="a_node49"><a xlink:href="../../d5/d72/btfontsettings_8cpp.html" target="_top" xlink:title=" ">
<polygon fill="white" stroke="black" points="6060.5,-56.5 6060.5,-75.5 6165.5,-75.5 6165.5,-56.5 6060.5,-56.5"/>
<text text-anchor="middle" x="6113" y="-63.5" font-family="Helvetica,sans-Serif" font-size="10.00">btfontsettings.cpp</text>
</a>
</g>
</g>
<!-- Node3&#45;&gt;Node51 -->
<g id="edge52" class="edge">
<title>Node3&#45;&gt;Node51</title>
<path fill="none" stroke="midnightblue" d="M2872.83,-120.63C3290.14,-118.05 5723.15,-101.96 6051,-76 6054.04,-75.76 6057.15,-75.46 6060.29,-75.13"/>
<polygon fill="midnightblue" stroke="midnightblue" points="2872.75,-117.13 2862.78,-120.69 2872.8,-124.13 2872.75,-117.13"/>
</g>
<!-- Node52 -->
<g id="node50" class="node">
<title>Node52</title>
<g id="a_node50"><a xlink:href="../../d6/dfe/btstandardworkstab_8cpp.html" target="_top" xlink:title=" ">
<polygon fill="white" stroke="black" points="6184,-56.5 6184,-75.5 6318,-75.5 6318,-56.5 6184,-56.5"/>
<text text-anchor="middle" x="6251" y="-63.5" font-family="Helvetica,sans-Serif" font-size="10.00">btstandardworkstab.cpp</text>
</a>
</g>
</g>
<!-- Node3&#45;&gt;Node52 -->
<g id="edge53" class="edge">
<title>Node3&#45;&gt;Node52</title>
<path fill="none" stroke="midnightblue" d="M2872.77,-121.06C3269.61,-121.29 5496.58,-120.59 6175,-76 6177.92,-75.81 6180.89,-75.58 6183.9,-75.33"/>
<polygon fill="midnightblue" stroke="midnightblue" points="2872.65,-117.56 2862.65,-121.05 2872.65,-124.56 2872.65,-117.56"/>
</g>
<!-- Node24&#45;&gt;Node21 -->
<g id="edge24" class="edge">
<title>Node24&#45;&gt;Node21</title>
<path fill="none" stroke="midnightblue" d="M2329.99,-52.37C2306.77,-42.26 2274.84,-28.35 2254.56,-19.52"/>
<polygon fill="midnightblue" stroke="midnightblue" points="2328.79,-55.66 2339.35,-56.44 2331.58,-49.24 2328.79,-55.66"/>
</g>
<!-- Node24&#45;&gt;Node23 -->
<g id="edge25" class="edge">
<title>Node24&#45;&gt;Node23</title>
<path fill="none" stroke="midnightblue" d="M2354.18,-46.4C2351.83,-37.36 2349.13,-26.94 2347.27,-19.75"/>
<polygon fill="midnightblue" stroke="midnightblue" points="2350.79,-47.28 2356.69,-56.08 2357.57,-45.52 2350.79,-47.28"/>
</g>
<!-- Node24&#45;&gt;Node26 -->
<g id="edge26" class="edge">
<title>Node24&#45;&gt;Node26</title>
<path fill="none" stroke="midnightblue" d="M2381.45,-50.9C2397.22,-41 2417.81,-28.07 2431.22,-19.65"/>
<polygon fill="midnightblue" stroke="midnightblue" points="2379.43,-48.04 2372.82,-56.32 2383.15,-53.97 2379.43,-48.04"/>
</g>
<!-- Node33&#45;&gt;Node32 -->
<g id="edge34" class="edge">
<title>Node33&#45;&gt;Node32</title>
<path fill="none" stroke="midnightblue" d="M3534.73,-48.43C3543.14,-38.97 3553.35,-27.48 3560.22,-19.75"/>
<polygon fill="midnightblue" stroke="midnightblue" points="3531.95,-46.28 3527.93,-56.08 3537.19,-50.93 3531.95,-46.28"/>
</g>
</g>
</svg>
        <g id="navigator" transform="translate(0 0)" fill="#404254">
                <rect fill="#f2f5e9" fill-opacity="0.5" stroke="#606060" stroke-width=".5" x="0" y="0" width="60" height="60"/>
                <use id="zoomplus" xlink:href="#zoomPlus" x="17" y="9" onmousedown="handleZoom(evt,'in')"/>
                <use id="zoomminus" xlink:href="#zoomMin" x="42" y="9" onmousedown="handleZoom(evt,'out')"/>
                <use id="reset" xlink:href="#resetDef" x="30" y="36" onmousedown="handleReset()"/>
                <g id="arrowUp" xlink:href="#dirArrow" transform="translate(30 24)" onmousedown="handlePan(0,-1)">
                  <use xlink:href="#rim" fill="#404040">
                        <set attributeName="fill" to="#808080" begin="arrowUp.mouseover" end="arrowUp.mouseout"/>
                  </use>
                  <path fill="none" stroke="white" stroke-width="1.5" d="M0,-3.0v7 M-2.5,-0.5L0,-3.0L2.5,-0.5"/>
                </g>
                <g id="arrowRight" xlink:href="#dirArrow" transform="rotate(90) translate(36 -43)" onmousedown="handlePan(1,0)">
                  <use xlink:href="#rim" fill="#404040">
                        <set attributeName="fill" to="#808080" begin="arrowRight.mouseover" end="arrowRight.mouseout"/>
                  </use>
                  <path fill="none" stroke="white" stroke-width="1.5" d="M0,-3.0v7 M-2.5,-0.5L0,-3.0L2.5,-0.5"/>
                </g>
                <g id="arrowDown" xlink:href="#dirArrow" transform="rotate(180) translate(-30 -48)" onmousedown="handlePan(0,1)">
                  <use xlink:href="#rim" fill="#404040">
                        <set attributeName="fill" to="#808080" begin="arrowDown.mouseover" end="arrowDown.mouseout"/>
                  </use>
                  <path fill="none" stroke="white" stroke-width="1.5" d="M0,-3.0v7 M-2.5,-0.5L0,-3.0L2.5,-0.5"/>
                </g>
                <g id="arrowLeft" xlink:href="#dirArrow" transform="rotate(270) translate(-36 17)" onmousedown="handlePan(-1,0)">
                  <use xlink:href="#rim" fill="#404040">
                        <set attributeName="fill" to="#808080" begin="arrowLeft.mouseover" end="arrowLeft.mouseout"/>
                  </use>
                  <path fill="none" stroke="white" stroke-width="1.5" d="M0,-3.0v7 M-2.5,-0.5L0,-3.0L2.5,-0.5"/>
                </g>
        </g>
        <svg viewBox="0 0 15 15" width="100%" height="30px" preserveAspectRatio="xMaxYMin meet">
         <g id="arrow_out" transform="scale(0.3 0.3)">
          <a xlink:href="plaintohtml_8h__dep__incl_org.svg" target="_base">
           <rect id="button" ry="5" rx="5" y="6" x="6" height="38" width="38"
                fill="#f2f5e9" fill-opacity="0.5" stroke="#606060" stroke-width="1.0"/>
           <path id="arrow"
             d="M 11.500037,31.436501 C 11.940474,20.09759 22.043105,11.32322 32.158766,21.979434 L 37.068811,17.246167 C 37.068811,17.246167 37.088388,32 37.088388,32 L 22.160133,31.978069 C 22.160133,31.978069 26.997745,27.140456 26.997745,27.140456 C 18.528582,18.264221 13.291696,25.230495 11.500037,31.436501 z"
             style="fill:#404040;"/>
          </a>
         </g>
        </svg>
</svg>
