<?xml version="1.0" encoding="UTF-8" standalone="no"?>
<!DOCTYPE svg PUBLIC "-//W3C//DTD SVG 1.1//EN"
 "http://www.w3.org/Graphics/SVG/1.1/DTD/svg11.dtd">
<!-- Generated by graphviz version 2.43.0 (0)
 -->
<!-- Title: plaintohtml.h Pages: 1 -->
<svg width="6258pt" height="192pt"
 viewBox="0.00 0.00 6257.50 192.00" xmlns="http://www.w3.org/2000/svg" xmlns:xlink="http://www.w3.org/1999/xlink">
<g id="graph0" class="graph" transform="scale(1 1) rotate(0) translate(4 188)">
<title>plaintohtml.h</title>
<!-- Node1 -->
<g id="Node000001" class="node">
<title>Node1</title>
<g id="a_Node000001"><a xlink:title=" ">
<polygon fill="#999999" stroke="#666666" points="3185.5,-184 3103.5,-184 3103.5,-165 3185.5,-165 3185.5,-184"/>
<text text-anchor="middle" x="3144.5" y="-172" font-family="Helvetica,sans-Serif" font-size="10.00">plaintohtml.h</text>
</a>
</g>
</g>
<!-- Node2 -->
<g id="Node000002" class="node">
<title>Node2</title>
<g id="a_Node000002"><a xlink:href="../../d0/d60/cswordbackend_8h.html" target="_top" xlink:title=" ">
<polygon fill="white" stroke="#666666" points="3138,-129 3037,-129 3037,-110 3138,-110 3138,-129"/>
<text text-anchor="middle" x="3087.5" y="-117" font-family="Helvetica,sans-Serif" font-size="10.00">cswordbackend.h</text>
</a>
</g>
</g>
<!-- Node1&#45;&gt;Node2 -->
<g id="edge1_Node000001_Node000002" class="edge">
<title>Node1&#45;&gt;Node2</title>
<g id="a_edge1_Node000001_Node000002"><a xlink:title=" ">
<path fill="none" stroke="#63b8ff" d="M3127.88,-158.04C3117.77,-148.64 3105.22,-136.98 3096.82,-129.17"/>
<polygon fill="#63b8ff" stroke="#63b8ff" points="3125.64,-160.74 3135.34,-164.98 3130.4,-155.61 3125.64,-160.74"/>
</a>
</g>
</g>
<!-- Node52 -->
<g id="Node000052" class="node">
<title>Node52</title>
<g id="a_Node000052"><a xlink:href="../../da/dd4/plaintohtml_8cpp.html" target="_top" xlink:title=" ">
<polygon fill="white" stroke="#666666" points="3249,-129 3156,-129 3156,-110 3249,-110 3249,-129"/>
<text text-anchor="middle" x="3202.5" y="-117" font-family="Helvetica,sans-Serif" font-size="10.00">plaintohtml.cpp</text>
</a>
</g>
</g>
<!-- Node1&#45;&gt;Node52 -->
<g id="edge53_Node000001_Node000052" class="edge">
<title>Node1&#45;&gt;Node52</title>
<g id="a_edge53_Node000001_Node000052"><a xlink:title=" ">
<path fill="none" stroke="#63b8ff" d="M3161.41,-158.04C3171.7,-148.64 3184.47,-136.98 3193.01,-129.17"/>
<polygon fill="#63b8ff" stroke="#63b8ff" points="3158.84,-155.66 3153.82,-164.98 3163.56,-160.82 3158.84,-155.66"/>
</a>
</g>
</g>
<!-- Node3 -->
<g id="Node000003" class="node">
<title>Node3</title>
<g id="a_Node000003"><a xlink:href="../../d1/df6/bibletime_8cpp.html" target="_top" xlink:title=" ">
<polygon fill="white" stroke="#666666" points="83,-19 0,-19 0,0 83,0 83,-19"/>
<text text-anchor="middle" x="41.5" y="-7" font-family="Helvetica,sans-Serif" font-size="10.00">bibletime.cpp</text>
</a>
</g>
</g>
<!-- Node2&#45;&gt;Node3 -->
<g id="edge2_Node000002_Node000003" class="edge">
<title>Node2&#45;&gt;Node3</title>
<g id="a_edge2_Node000002_Node000003"><a xlink:title=" ">
<path fill="none" stroke="#63b8ff" d="M3026.66,-118.66C2638.69,-119.52 517.44,-122.01 233.5,-74 168.25,-62.97 94.99,-33.75 60.9,-19.11"/>
<polygon fill="#63b8ff" stroke="#63b8ff" points="3026.85,-122.16 3036.84,-118.64 3026.83,-115.16 3026.85,-122.16"/>
</a>
</g>
</g>
<!-- Node4 -->
<g id="Node000004" class="node">
<title>Node4</title>
<g id="a_Node000004"><a xlink:href="../../d6/d96/bibletime__slots_8cpp.html" target="_top" xlink:title=" ">
<polygon fill="white" stroke="#666666" points="564.5,-74 452.5,-74 452.5,-55 564.5,-55 564.5,-74"/>
<text text-anchor="middle" x="508.5" y="-62" font-family="Helvetica,sans-Serif" font-size="10.00">bibletime_slots.cpp</text>
</a>
</g>
</g>
<!-- Node2&#45;&gt;Node4 -->
<g id="edge3_Node000002_Node000004" class="edge">
<title>Node2&#45;&gt;Node4</title>
<g id="a_edge3_Node000002_Node000004"><a xlink:title=" ">
<path fill="none" stroke="#63b8ff" d="M3026.47,-118.35C2691.37,-117.39 1072.12,-110.9 573.5,-74 570.66,-73.79 567.76,-73.54 564.83,-73.26"/>
<polygon fill="#63b8ff" stroke="#63b8ff" points="3026.92,-121.85 3036.93,-118.38 3026.94,-114.85 3026.92,-121.85"/>
</a>
</g>
</g>
<!-- Node5 -->
<g id="Node000005" class="node">
<title>Node5</title>
<g id="a_Node000005"><a xlink:href="../../d5/d00/bibletimeapp_8h.html" target="_top" xlink:title=" ">
<polygon fill="#fff0f0" stroke="red" points="332.5,-74 242.5,-74 242.5,-55 332.5,-55 332.5,-74"/>
<text text-anchor="middle" x="287.5" y="-62" font-family="Helvetica,sans-Serif" font-size="10.00">bibletimeapp.h</text>
</a>
</g>
</g>
<!-- Node2&#45;&gt;Node5 -->
<g id="edge4_Node000002_Node000005" class="edge">
<title>Node2&#45;&gt;Node5</title>
<g id="a_edge4_Node000002_Node000005"><a xlink:title=" ">
<path fill="none" stroke="#63b8ff" d="M3026.71,-118.19C2676.6,-116.32 914.12,-105.47 372.5,-74 359.62,-73.25 345.68,-72.03 332.88,-70.74"/>
<polygon fill="#63b8ff" stroke="#63b8ff" points="3026.88,-121.69 3036.9,-118.25 3026.91,-114.69 3026.88,-121.69"/>
</a>
</g>
</g>
<!-- Node8 -->
<g id="Node000008" class="node">
<title>Node8</title>
<g id="a_Node000008"><a xlink:href="../../d2/d26/cdisplaywindow_8cpp.html" target="_top" xlink:title=" ">
<polygon fill="white" stroke="#666666" points="457.5,-19 343.5,-19 343.5,0 457.5,0 457.5,-19"/>
<text text-anchor="middle" x="400.5" y="-7" font-family="Helvetica,sans-Serif" font-size="10.00">cdisplaywindow.cpp</text>
</a>
</g>
</g>
<!-- Node2&#45;&gt;Node8 -->
<g id="edge39_Node000002_Node000008" class="edge">
<title>Node2&#45;&gt;Node8</title>
<g id="a_edge39_Node000002_Node000008"><a xlink:title=" ">
<path fill="none" stroke="#63b8ff" d="M3026.64,-118.33C2635.66,-117.12 491.67,-108.89 434.5,-74 414.65,-61.88 405.69,-33.85 402.28,-19.43"/>
<polygon fill="#63b8ff" stroke="#63b8ff" points="3026.88,-121.83 3036.89,-118.36 3026.9,-114.83 3026.88,-121.83"/>
</a>
</g>
</g>
<!-- Node10 -->
<g id="Node000010" class="node">
<title>Node10</title>
<g id="a_Node000010"><a xlink:href="../../df/d0a/main_8cpp.html" target="_top" xlink:title=" ">
<polygon fill="white" stroke="#666666" points="537.5,-19 475.5,-19 475.5,0 537.5,0 537.5,-19"/>
<text text-anchor="middle" x="506.5" y="-7" font-family="Helvetica,sans-Serif" font-size="10.00">main.cpp</text>
</a>
</g>
</g>
<!-- Node2&#45;&gt;Node10 -->
<g id="edge48_Node000002_Node000010" class="edge">
<title>Node2&#45;&gt;Node10</title>
<g id="a_edge48_Node000002_Node000010"><a xlink:title=" ">
<path fill="none" stroke="#63b8ff" d="M3026.59,-118.65C2635.33,-119.44 490.3,-121.59 443.5,-74 424.12,-54.29 462.15,-31.29 487.12,-19.1"/>
<polygon fill="#63b8ff" stroke="#63b8ff" points="3026.85,-122.14 3036.85,-118.62 3026.84,-115.14 3026.85,-122.14"/>
</a>
</g>
</g>
<!-- Node11 -->
<g id="Node000011" class="node">
<title>Node11</title>
<g id="a_Node000011"><a xlink:href="../../d7/dd0/btbookmarksmodel_8cpp.html" target="_top" xlink:title=" ">
<polygon fill="white" stroke="#666666" points="714.5,-74 582.5,-74 582.5,-55 714.5,-55 714.5,-74"/>
<text text-anchor="middle" x="648.5" y="-62" font-family="Helvetica,sans-Serif" font-size="10.00">btbookmarksmodel.cpp</text>
</a>
</g>
</g>
<!-- Node2&#45;&gt;Node11 -->
<g id="edge10_Node000002_Node000011" class="edge">
<title>Node2&#45;&gt;Node11</title>
<g id="a_edge10_Node000002_Node000011"><a xlink:title=" ">
<path fill="none" stroke="#63b8ff" d="M3026.76,-118.13C2704.39,-116.06 1191,-104.82 723.5,-74 720.62,-73.81 717.69,-73.59 714.72,-73.35"/>
<polygon fill="#63b8ff" stroke="#63b8ff" points="3026.81,-121.63 3036.83,-118.2 3026.86,-114.63 3026.81,-121.63"/>
</a>
</g>
</g>
<!-- Node12 -->
<g id="Node000012" class="node">
<title>Node12</title>
<g id="a_Node000012"><a xlink:href="../../df/d88/btbookshelfdockwidget_8cpp.html" target="_top" xlink:title=" ">
<polygon fill="white" stroke="#666666" points="884,-74 733,-74 733,-55 884,-55 884,-74"/>
<text text-anchor="middle" x="808.5" y="-62" font-family="Helvetica,sans-Serif" font-size="10.00">btbookshelfdockwidget.cpp</text>
</a>
</g>
</g>
<!-- Node2&#45;&gt;Node12 -->
<g id="edge11_Node000002_Node000012" class="edge">
<title>Node2&#45;&gt;Node12</title>
<g id="a_edge11_Node000002_Node000012"><a xlink:title=" ">
<path fill="none" stroke="#63b8ff" d="M3026.7,-117.93C2718.28,-114.94 1324.64,-100.2 892.5,-74 889.72,-73.83 886.89,-73.64 884.03,-73.43"/>
<polygon fill="#63b8ff" stroke="#63b8ff" points="3026.75,-121.43 3036.78,-118.03 3026.82,-114.43 3026.75,-121.43"/>
</a>
</g>
</g>
<!-- Node13 -->
<g id="Node000013" class="node">
<title>Node13</title>
<g id="a_Node000013"><a xlink:href="../../dc/d04/btbookshelfinstallfinalpage_8cpp.html" target="_top" xlink:title=" ">
<polygon fill="white" stroke="#666666" points="1071,-74 902,-74 902,-55 1071,-55 1071,-74"/>
<text text-anchor="middle" x="986.5" y="-62" font-family="Helvetica,sans-Serif" font-size="10.00">btbookshelfinstallfinalpage.cpp</text>
</a>
</g>
</g>
<!-- Node2&#45;&gt;Node13 -->
<g id="edge12_Node000002_Node000013" class="edge">
<title>Node2&#45;&gt;Node13</title>
<g id="a_edge12_Node000002_Node000013"><a xlink:title=" ">
<path fill="none" stroke="#63b8ff" d="M3026.52,-118.68C2781.76,-119.09 1847,-117.53 1079.5,-74 1076.75,-73.84 1073.95,-73.67 1071.13,-73.48"/>
<polygon fill="#63b8ff" stroke="#63b8ff" points="3026.64,-122.18 3036.63,-118.66 3026.63,-115.18 3026.64,-122.18"/>
</a>
</g>
</g>
<!-- Node14 -->
<g id="Node000014" class="node">
<title>Node14</title>
<g id="a_Node000014"><a xlink:href="../../d0/da5/btbookshelflanguagespage_8cpp.html" target="_top" xlink:title=" ">
<polygon fill="white" stroke="#666666" points="1256.5,-74 1088.5,-74 1088.5,-55 1256.5,-55 1256.5,-74"/>
<text text-anchor="middle" x="1172.5" y="-62" font-family="Helvetica,sans-Serif" font-size="10.00">btbookshelflanguagespage.cpp</text>
</a>
</g>
</g>
<!-- Node2&#45;&gt;Node14 -->
<g id="edge13_Node000002_Node000014" class="edge">
<title>Node2&#45;&gt;Node14</title>
<g id="a_edge13_Node000002_Node000014"><a xlink:title=" ">
<path fill="none" stroke="#63b8ff" d="M3026.5,-118.51C2795.92,-118.22 1955.51,-114.31 1264.5,-74 1261.94,-73.85 1259.34,-73.69 1256.71,-73.51"/>
<polygon fill="#63b8ff" stroke="#63b8ff" points="3026.7,-122.01 3036.7,-118.52 3026.71,-115.01 3026.7,-122.01"/>
</a>
</g>
</g>
<!-- Node15 -->
<g id="Node000015" class="node">
<title>Node15</title>
<g id="a_Node000015"><a xlink:href="../../d0/da0/btbookshelfremovefinalpage_8cpp.html" target="_top" xlink:title=" ">
<polygon fill="white" stroke="#666666" points="1451,-74 1274,-74 1274,-55 1451,-55 1451,-74"/>
<text text-anchor="middle" x="1362.5" y="-62" font-family="Helvetica,sans-Serif" font-size="10.00">btbookshelfremovefinalpage.cpp</text>
</a>
</g>
</g>
<!-- Node2&#45;&gt;Node15 -->
<g id="edge14_Node000002_Node000015" class="edge">
<title>Node2&#45;&gt;Node15</title>
<g id="a_edge14_Node000002_Node000015"><a xlink:title=" ">
<path fill="none" stroke="#63b8ff" d="M3026.7,-118.15C2812.15,-116.65 2070.51,-109.09 1459.5,-74 1456.72,-73.84 1453.89,-73.67 1451.03,-73.48"/>
<polygon fill="#63b8ff" stroke="#63b8ff" points="3026.79,-121.66 3036.81,-118.22 3026.84,-114.66 3026.79,-121.66"/>
</a>
</g>
</g>
<!-- Node16 -->
<g id="Node000016" class="node">
<title>Node16</title>
<g id="a_Node000016"><a xlink:href="../../de/db2/btbookshelftaskpage_8cpp.html" target="_top" xlink:title=" ">
<polygon fill="white" stroke="#666666" points="1608,-74 1469,-74 1469,-55 1608,-55 1608,-74"/>
<text text-anchor="middle" x="1538.5" y="-62" font-family="Helvetica,sans-Serif" font-size="10.00">btbookshelftaskpage.cpp</text>
</a>
</g>
</g>
<!-- Node2&#45;&gt;Node16 -->
<g id="edge15_Node000002_Node000016" class="edge">
<title>Node2&#45;&gt;Node16</title>
<g id="a_edge15_Node000002_Node000016"><a xlink:title=" ">
<path fill="none" stroke="#63b8ff" d="M3026.92,-118.33C2826.04,-117.43 2163.62,-111.59 1617.5,-74 1614.47,-73.79 1611.38,-73.56 1608.26,-73.3"/>
<polygon fill="#63b8ff" stroke="#63b8ff" points="3026.96,-121.83 3036.98,-118.38 3026.99,-114.83 3026.96,-121.83"/>
</a>
</g>
</g>
<!-- Node17 -->
<g id="Node000017" class="node">
<title>Node17</title>
<g id="a_Node000017"><a xlink:href="../../d9/d03/btbookshelfworkspage_8cpp.html" target="_top" xlink:title=" ">
<polygon fill="white" stroke="#666666" points="1816,-19 1669,-19 1669,0 1816,0 1816,-19"/>
<text text-anchor="middle" x="1742.5" y="-7" font-family="Helvetica,sans-Serif" font-size="10.00">btbookshelfworkspage.cpp</text>
</a>
</g>
</g>
<!-- Node2&#45;&gt;Node17 -->
<g id="edge16_Node000002_Node000017" class="edge">
<title>Node2&#45;&gt;Node17</title>
<g id="a_edge16_Node000002_Node000017"><a xlink:title=" ">
<path fill="none" stroke="#63b8ff" d="M3026.61,-118.9C2787.75,-120.13 1922.3,-121.25 1809.5,-74 1781.71,-62.36 1758.6,-33.57 1748.29,-19.1"/>
<polygon fill="#63b8ff" stroke="#63b8ff" points="3026.86,-122.4 3036.84,-118.85 3026.83,-115.4 3026.86,-122.4"/>
</a>
</g>
</g>
<!-- Node18 -->
<g id="Node000018" class="node">
<title>Node18</title>
<g id="a_Node000018"><a xlink:href="../../d6/d8d/btbookshelfworkspage_8h.html" target="_top" xlink:title=" ">
<polygon fill="#fff0f0" stroke="red" points="1762.5,-74 1626.5,-74 1626.5,-55 1762.5,-55 1762.5,-74"/>
<text text-anchor="middle" x="1694.5" y="-62" font-family="Helvetica,sans-Serif" font-size="10.00">btbookshelfworkspage.h</text>
</a>
</g>
</g>
<!-- Node2&#45;&gt;Node18 -->
<g id="edge17_Node000002_Node000018" class="edge">
<title>Node2&#45;&gt;Node18</title>
<g id="a_edge17_Node000002_Node000018"><a xlink:title=" ">
<path fill="none" stroke="#63b8ff" d="M3026.65,-117.93C2839.75,-115.87 2257.59,-107.06 1776.5,-74 1772.07,-73.7 1767.52,-73.34 1762.93,-72.95"/>
<polygon fill="#63b8ff" stroke="#63b8ff" points="3026.78,-121.44 3036.82,-118.04 3026.86,-114.44 3026.78,-121.44"/>
</a>
</g>
</g>
<!-- Node20 -->
<g id="Node000020" class="node">
<title>Node20</title>
<g id="a_Node000020"><a xlink:href="../../de/d4e/btconfig_8cpp.html" target="_top" xlink:title=" ">
<polygon fill="white" stroke="#666666" points="1894.5,-74 1818.5,-74 1818.5,-55 1894.5,-55 1894.5,-74"/>
<text text-anchor="middle" x="1856.5" y="-62" font-family="Helvetica,sans-Serif" font-size="10.00">btconfig.cpp</text>
</a>
</g>
</g>
<!-- Node2&#45;&gt;Node20 -->
<g id="edge19_Node000002_Node000020" class="edge">
<title>Node2&#45;&gt;Node20</title>
<g id="a_edge19_Node000002_Node000020"><a xlink:title=" ">
<path fill="none" stroke="#63b8ff" d="M3026.85,-119.16C2852.07,-120.42 2332.55,-119.73 1904.5,-74 1901.3,-73.66 1898,-73.23 1894.68,-72.75"/>
<polygon fill="#63b8ff" stroke="#63b8ff" points="3026.9,-122.66 3036.88,-119.08 3026.85,-115.66 3026.9,-122.66"/>
</a>
</g>
</g>
<!-- Node21 -->
<g id="Node000021" class="node">
<title>Node21</title>
<g id="a_Node000021"><a xlink:href="../../d5/d72/btfontsettings_8cpp.html" target="_top" xlink:title=" ">
<polygon fill="white" stroke="#666666" points="2018,-74 1913,-74 1913,-55 2018,-55 2018,-74"/>
<text text-anchor="middle" x="1965.5" y="-62" font-family="Helvetica,sans-Serif" font-size="10.00">btfontsettings.cpp</text>
</a>
</g>
</g>
<!-- Node2&#45;&gt;Node21 -->
<g id="edge20_Node000002_Node000021" class="edge">
<title>Node2&#45;&gt;Node21</title>
<g id="a_edge20_Node000002_Node000021"><a xlink:title=" ">
<path fill="none" stroke="#63b8ff" d="M3026.64,-117.95C2864.11,-116.05 2406.51,-107.86 2027.5,-74 2024.47,-73.73 2021.36,-73.42 2018.23,-73.07"/>
<polygon fill="#63b8ff" stroke="#63b8ff" points="3026.87,-121.45 3036.91,-118.07 3026.95,-114.45 3026.87,-121.45"/>
</a>
</g>
</g>
<!-- Node22 -->
<g id="Node000022" class="node">
<title>Node22</title>
<g id="a_Node000022"><a xlink:href="../../d4/d57/btindexdialog_8cpp.html" target="_top" xlink:title=" ">
<polygon fill="white" stroke="#666666" points="2140.5,-74 2036.5,-74 2036.5,-55 2140.5,-55 2140.5,-74"/>
<text text-anchor="middle" x="2088.5" y="-62" font-family="Helvetica,sans-Serif" font-size="10.00">btindexdialog.cpp</text>
</a>
</g>
</g>
<!-- Node2&#45;&gt;Node22 -->
<g id="edge21_Node000002_Node000022" class="edge">
<title>Node2&#45;&gt;Node22</title>
<g id="a_edge21_Node000002_Node000022"><a xlink:title=" ">
<path fill="none" stroke="#63b8ff" d="M3026.45,-117.53C2876.72,-114.72 2479.42,-104.75 2149.5,-74 2146.63,-73.73 2143.68,-73.43 2140.71,-73.09"/>
<polygon fill="#63b8ff" stroke="#63b8ff" points="3026.74,-121.03 3036.8,-117.72 3026.87,-114.03 3026.74,-121.03"/>
</a>
</g>
</g>
<!-- Node23 -->
<g id="Node000023" class="node">
<title>Node23</title>
<g id="a_Node000023"><a xlink:href="../../da/d1a/btinforendering_8cpp.html" target="_top" xlink:title=" ">
<polygon fill="white" stroke="#666666" points="2270.5,-74 2158.5,-74 2158.5,-55 2270.5,-55 2270.5,-74"/>
<text text-anchor="middle" x="2214.5" y="-62" font-family="Helvetica,sans-Serif" font-size="10.00">btinforendering.cpp</text>
</a>
</g>
</g>
<!-- Node2&#45;&gt;Node23 -->
<g id="edge22_Node000002_Node000023" class="edge">
<title>Node2&#45;&gt;Node23</title>
<g id="a_edge22_Node000002_Node000023"><a xlink:title=" ">
<path fill="none" stroke="#63b8ff" d="M3026.78,-116.67C2892.18,-112.27 2558.65,-99.55 2280.5,-74 2277.28,-73.7 2273.97,-73.37 2270.64,-73.01"/>
<polygon fill="#63b8ff" stroke="#63b8ff" points="3026.78,-120.17 3036.89,-116.99 3027.01,-113.17 3026.78,-120.17"/>
</a>
</g>
</g>
<!-- Node24 -->
<g id="Node000024" class="node">
<title>Node24</title>
<g id="a_Node000024"><a xlink:href="../../db/dd7/btinstallbackend_8cpp.html" target="_top" xlink:title=" ">
<polygon fill="white" stroke="#666666" points="2406,-74 2289,-74 2289,-55 2406,-55 2406,-74"/>
<text text-anchor="middle" x="2347.5" y="-62" font-family="Helvetica,sans-Serif" font-size="10.00">btinstallbackend.cpp</text>
</a>
</g>
</g>
<!-- Node2&#45;&gt;Node24 -->
<g id="edge23_Node000002_Node000024" class="edge">
<title>Node2&#45;&gt;Node24</title>
<g id="a_edge23_Node000002_Node000024"><a xlink:title=" ">
<path fill="none" stroke="#63b8ff" d="M3026.56,-115.66C2908.48,-109.88 2640.33,-95.48 2415.5,-74 2412.42,-73.71 2409.27,-73.38 2406.08,-73.04"/>
<polygon fill="#63b8ff" stroke="#63b8ff" points="3026.68,-119.17 3036.84,-116.15 3027.02,-112.17 3026.68,-119.17"/>
</a>
</g>
</g>
<!-- Node25 -->
<g id="Node000025" class="node">
<title>Node25</title>
<g id="a_Node000025"><a xlink:href="../../dd/dba/btinstallpagemodel_8cpp.html" target="_top" xlink:title=" ">
<polygon fill="white" stroke="#666666" points="2555,-74 2424,-74 2424,-55 2555,-55 2555,-74"/>
<text text-anchor="middle" x="2489.5" y="-62" font-family="Helvetica,sans-Serif" font-size="10.00">btinstallpagemodel.cpp</text>
</a>
</g>
</g>
<!-- Node2&#45;&gt;Node25 -->
<g id="edge24_Node000002_Node000025" class="edge">
<title>Node2&#45;&gt;Node25</title>
<g id="a_edge24_Node000002_Node000025"><a xlink:title=" ">
<path fill="none" stroke="#63b8ff" d="M3026.71,-113.88C2929.15,-106.35 2731.61,-90.58 2564.5,-74 2561.5,-73.7 2558.44,-73.39 2555.34,-73.07"/>
<polygon fill="#63b8ff" stroke="#63b8ff" points="3026.73,-117.39 3036.97,-114.67 3027.27,-110.42 3026.73,-117.39"/>
</a>
</g>
</g>
<!-- Node26 -->
<g id="Node000026" class="node">
<title>Node26</title>
<g id="a_Node000026"><a xlink:href="../../d5/daf/btinstallthread_8cpp.html" target="_top" xlink:title=" ">
<polygon fill="white" stroke="#666666" points="2681.5,-74 2573.5,-74 2573.5,-55 2681.5,-55 2681.5,-74"/>
<text text-anchor="middle" x="2627.5" y="-62" font-family="Helvetica,sans-Serif" font-size="10.00">btinstallthread.cpp</text>
</a>
</g>
</g>
<!-- Node2&#45;&gt;Node26 -->
<g id="edge25_Node000002_Node000026" class="edge">
<title>Node2&#45;&gt;Node26</title>
<g id="a_edge25_Node000002_Node000026"><a xlink:title=" ">
<path fill="none" stroke="#63b8ff" d="M3026.57,-112.1C2948.61,-103.81 2809.4,-88.68 2690.5,-74 2687.65,-73.65 2684.73,-73.28 2681.79,-72.9"/>
<polygon fill="#63b8ff" stroke="#63b8ff" points="3026.38,-115.6 3036.7,-113.17 3027.12,-108.64 3026.38,-115.6"/>
</a>
</g>
</g>
<!-- Node27 -->
<g id="Node000027" class="node">
<title>Node27</title>
<g id="a_Node000027"><a xlink:href="../../de/db2/btmodelviewreaddisplay_8cpp.html" target="_top" xlink:title=" ">
<polygon fill="white" stroke="#666666" points="2855.5,-74 2699.5,-74 2699.5,-55 2855.5,-55 2855.5,-74"/>
<text text-anchor="middle" x="2777.5" y="-62" font-family="Helvetica,sans-Serif" font-size="10.00">btmodelviewreaddisplay.cpp</text>
</a>
</g>
</g>
<!-- Node2&#45;&gt;Node27 -->
<g id="edge26_Node000002_Node000027" class="edge">
<title>Node2&#45;&gt;Node27</title>
<g id="a_edge26_Node000002_Node000027"><a xlink:title=" ">
<path fill="none" stroke="#63b8ff" d="M3027.54,-108.25C2969.32,-98.3 2881.99,-83.36 2827.44,-74.04"/>
<polygon fill="#63b8ff" stroke="#63b8ff" points="3027.25,-111.75 3037.69,-109.98 3028.43,-104.85 3027.25,-111.75"/>
</a>
</g>
</g>
<!-- Node28 -->
<g id="Node000028" class="node">
<title>Node28</title>
<g id="a_Node000028"><a xlink:href="../../de/d93/btmoduletextmodel_8cpp.html" target="_top" xlink:title=" ">
<polygon fill="white" stroke="#666666" points="3007.5,-74 2873.5,-74 2873.5,-55 3007.5,-55 3007.5,-74"/>
<text text-anchor="middle" x="2940.5" y="-62" font-family="Helvetica,sans-Serif" font-size="10.00">btmoduletextmodel.cpp</text>
</a>
</g>
</g>
<!-- Node2&#45;&gt;Node28 -->
<g id="edge27_Node000002_Node000028" class="edge">
<title>Node2&#45;&gt;Node28</title>
<g id="a_edge27_Node000002_Node000028"><a xlink:title=" ">
<path fill="none" stroke="#63b8ff" d="M3054.36,-106.55C3027.06,-96.71 2989,-82.98 2964.55,-74.17"/>
<polygon fill="#63b8ff" stroke="#63b8ff" points="3053.29,-109.89 3063.88,-109.98 3055.66,-103.3 3053.29,-109.89"/>
</a>
</g>
</g>
<!-- Node29 -->
<g id="Node000029" class="node">
<title>Node29</title>
<g id="a_Node000029"><a xlink:href="../../d9/d62/btopenworkaction_8cpp.html" target="_top" xlink:title=" ">
<polygon fill="white" stroke="#666666" points="3149.5,-74 3025.5,-74 3025.5,-55 3149.5,-55 3149.5,-74"/>
<text text-anchor="middle" x="3087.5" y="-62" font-family="Helvetica,sans-Serif" font-size="10.00">btopenworkaction.cpp</text>
</a>
</g>
</g>
<!-- Node2&#45;&gt;Node29 -->
<g id="edge28_Node000002_Node000029" class="edge">
<title>Node2&#45;&gt;Node29</title>
<g id="a_edge28_Node000002_Node000029"><a xlink:title=" ">
<path fill="none" stroke="#63b8ff" d="M3087.5,-99.66C3087.5,-90.93 3087.5,-80.99 3087.5,-74.09"/>
<polygon fill="#63b8ff" stroke="#63b8ff" points="3084,-99.75 3087.5,-109.75 3091,-99.75 3084,-99.75"/>
</a>
</g>
</g>
<!-- Node30 -->
<g id="Node000030" class="node">
<title>Node30</title>
<g id="a_Node000030"><a xlink:href="../../de/d6e/btqmlinterface_8cpp.html" target="_top" xlink:title=" ">
<polygon fill="white" stroke="#666666" points="3277,-74 3168,-74 3168,-55 3277,-55 3277,-74"/>
<text text-anchor="middle" x="3222.5" y="-62" font-family="Helvetica,sans-Serif" font-size="10.00">btqmlinterface.cpp</text>
</a>
</g>
</g>
<!-- Node2&#45;&gt;Node30 -->
<g id="edge29_Node000002_Node000030" class="edge">
<title>Node2&#45;&gt;Node30</title>
<g id="a_edge29_Node000002_Node000030"><a xlink:title=" ">
<path fill="none" stroke="#63b8ff" d="M3118.6,-106.29C3143.62,-96.47 3178.16,-82.91 3200.42,-74.17"/>
<polygon fill="#63b8ff" stroke="#63b8ff" points="3117.22,-103.07 3109.19,-109.98 3119.78,-109.59 3117.22,-103.07"/>
</a>
</g>
</g>
<!-- Node31 -->
<g id="Node000031" class="node">
<title>Node31</title>
<g id="a_Node000031"><a xlink:href="../../d9/d0c/btquickwidget_8cpp.html" target="_top" xlink:title=" ">
<polygon fill="white" stroke="#666666" points="3401.5,-74 3295.5,-74 3295.5,-55 3401.5,-55 3401.5,-74"/>
<text text-anchor="middle" x="3348.5" y="-62" font-family="Helvetica,sans-Serif" font-size="10.00">btquickwidget.cpp</text>
</a>
</g>
</g>
<!-- Node2&#45;&gt;Node31 -->
<g id="edge30_Node000002_Node000031" class="edge">
<title>Node2&#45;&gt;Node31</title>
<g id="a_edge30_Node000002_Node000031"><a xlink:title=" ">
<path fill="none" stroke="#63b8ff" d="M3139.5,-107.94C3188.42,-98.01 3260.77,-83.31 3306.24,-74.08"/>
<polygon fill="#63b8ff" stroke="#63b8ff" points="3138.54,-104.56 3129.43,-109.98 3139.93,-111.42 3138.54,-104.56"/>
</a>
</g>
</g>
<!-- Node32 -->
<g id="Node000032" class="node">
<title>Node32</title>
<g id="a_Node000032"><a xlink:href="../../dc/dab/btsearchmodulechooserdialog_8cpp.html" target="_top" xlink:title=" ">
<polygon fill="white" stroke="#666666" points="3603.5,-74 3419.5,-74 3419.5,-55 3603.5,-55 3603.5,-74"/>
<text text-anchor="middle" x="3511.5" y="-62" font-family="Helvetica,sans-Serif" font-size="10.00">btsearchmodulechooserdialog.cpp</text>
</a>
</g>
</g>
<!-- Node2&#45;&gt;Node32 -->
<g id="edge31_Node000002_Node000032" class="edge">
<title>Node2&#45;&gt;Node32</title>
<g id="a_edge31_Node000002_Node000032"><a xlink:title=" ">
<path fill="none" stroke="#63b8ff" d="M3148.23,-109.93C3255.19,-95.87 3366.92,-82.45 3438.24,-74.04"/>
<polygon fill="#63b8ff" stroke="#63b8ff" points="3147.69,-106.47 3138.23,-111.24 3148.6,-113.41 3147.69,-106.47"/>
</a>
</g>
</g>
<!-- Node33 -->
<g id="Node000033" class="node">
<title>Node33</title>
<g id="a_Node000033"><a xlink:href="../../d4/d4d/btsearchoptionsarea_8cpp.html" target="_top" xlink:title=" ">
<polygon fill="white" stroke="#666666" points="3759,-74 3622,-74 3622,-55 3759,-55 3759,-74"/>
<text text-anchor="middle" x="3690.5" y="-62" font-family="Helvetica,sans-Serif" font-size="10.00">btsearchoptionsarea.cpp</text>
</a>
</g>
</g>
<!-- Node2&#45;&gt;Node33 -->
<g id="edge32_Node000002_Node000033" class="edge">
<title>Node2&#45;&gt;Node33</title>
<g id="a_edge32_Node000002_Node000033"><a xlink:title=" ">
<path fill="none" stroke="#63b8ff" d="M3148.19,-110C3355.23,-87.63 3409.33,-92.93 3612.5,-74 3615.48,-73.72 3618.53,-73.43 3621.61,-73.13"/>
<polygon fill="#63b8ff" stroke="#63b8ff" points="3147.77,-106.52 3138.21,-111.09 3148.53,-113.48 3147.77,-106.52"/>
</a>
</g>
</g>
<!-- Node34 -->
<g id="Node000034" class="node">
<title>Node34</title>
<g id="a_Node000034"><a xlink:href="../../d6/dfe/btstandardworkstab_8cpp.html" target="_top" xlink:title=" ">
<polygon fill="white" stroke="#666666" points="3911.5,-74 3777.5,-74 3777.5,-55 3911.5,-55 3911.5,-74"/>
<text text-anchor="middle" x="3844.5" y="-62" font-family="Helvetica,sans-Serif" font-size="10.00">btstandardworkstab.cpp</text>
</a>
</g>
</g>
<!-- Node2&#45;&gt;Node34 -->
<g id="edge33_Node000002_Node000034" class="edge">
<title>Node2&#45;&gt;Node34</title>
<g id="a_edge33_Node000002_Node000034"><a xlink:title=" ">
<path fill="none" stroke="#63b8ff" d="M3148.52,-109.99C3424.35,-82.94 3496.39,-97.09 3768.5,-74 3771.41,-73.75 3774.38,-73.49 3777.38,-73.2"/>
<polygon fill="#63b8ff" stroke="#63b8ff" points="3147.81,-106.55 3138.2,-111.02 3148.5,-113.51 3147.81,-106.55"/>
</a>
</g>
</g>
<!-- Node35 -->
<g id="Node000035" class="node">
<title>Node35</title>
<g id="a_Node000035"><a xlink:href="../../d4/d3a/bttextbrowser_8cpp.html" target="_top" xlink:title=" ">
<polygon fill="white" stroke="#666666" points="4033.5,-74 3929.5,-74 3929.5,-55 4033.5,-55 4033.5,-74"/>
<text text-anchor="middle" x="3981.5" y="-62" font-family="Helvetica,sans-Serif" font-size="10.00">bttextbrowser.cpp</text>
</a>
</g>
</g>
<!-- Node2&#45;&gt;Node35 -->
<g id="edge34_Node000002_Node000035" class="edge">
<title>Node2&#45;&gt;Node35</title>
<g id="a_edge34_Node000002_Node000035"><a xlink:title=" ">
<path fill="none" stroke="#63b8ff" d="M3148.17,-110.05C3491.62,-78.37 3581.3,-105.46 3920.5,-74 3923.37,-73.73 3926.32,-73.43 3929.29,-73.1"/>
<polygon fill="#63b8ff" stroke="#63b8ff" points="3147.83,-106.56 3138.2,-110.98 3148.48,-113.53 3147.83,-106.56"/>
</a>
</g>
</g>
<!-- Node36 -->
<g id="Node000036" class="node">
<title>Node36</title>
<g id="a_Node000036"><a xlink:href="../../de/da4/cbiblereadwindow_8cpp.html" target="_top" xlink:title=" ">
<polygon fill="white" stroke="#666666" points="4177,-74 4052,-74 4052,-55 4177,-55 4177,-74"/>
<text text-anchor="middle" x="4114.5" y="-62" font-family="Helvetica,sans-Serif" font-size="10.00">cbiblereadwindow.cpp</text>
</a>
</g>
</g>
<!-- Node2&#45;&gt;Node36 -->
<g id="edge35_Node000002_Node000036" class="edge">
<title>Node2&#45;&gt;Node36</title>
<g id="a_edge35_Node000002_Node000036"><a xlink:title=" ">
<path fill="none" stroke="#63b8ff" d="M3148.24,-110.05C3545.68,-74.55 3648.93,-105.1 4042.5,-74 4045.51,-73.76 4048.59,-73.49 4051.7,-73.2"/>
<polygon fill="#63b8ff" stroke="#63b8ff" points="3147.84,-106.57 3138.2,-110.95 3148.47,-113.54 3147.84,-106.57"/>
</a>
</g>
</g>
<!-- Node37 -->
<g id="Node000037" class="node">
<title>Node37</title>
<g id="a_Node000037"><a xlink:href="../../d9/de6/cbookmarkindex_8cpp.html" target="_top" xlink:title=" ">
<polygon fill="white" stroke="#666666" points="4314,-74 4195,-74 4195,-55 4314,-55 4314,-74"/>
<text text-anchor="middle" x="4254.5" y="-62" font-family="Helvetica,sans-Serif" font-size="10.00">cbookmarkindex.cpp</text>
</a>
</g>
</g>
<!-- Node2&#45;&gt;Node37 -->
<g id="edge36_Node000002_Node000037" class="edge">
<title>Node2&#45;&gt;Node37</title>
<g id="a_edge36_Node000002_Node000037"><a xlink:title=" ">
<path fill="none" stroke="#63b8ff" d="M3148.46,-110.04C3609.53,-70.14 3729.28,-110.42 4186.5,-74 4189.23,-73.78 4192.01,-73.54 4194.83,-73.27"/>
<polygon fill="#63b8ff" stroke="#63b8ff" points="3147.85,-106.58 3138.2,-110.93 3148.46,-113.55 3147.85,-106.58"/>
</a>
</g>
</g>
<!-- Node38 -->
<g id="Node000038" class="node">
<title>Node38</title>
<g id="a_Node000038"><a xlink:href="../../d0/d6f/ccommentaryreadwindow_8cpp.html" target="_top" xlink:title=" ">
<polygon fill="white" stroke="#666666" points="4495,-74 4332,-74 4332,-55 4495,-55 4495,-74"/>
<text text-anchor="middle" x="4413.5" y="-62" font-family="Helvetica,sans-Serif" font-size="10.00">ccommentaryreadwindow.cpp</text>
</a>
</g>
</g>
<!-- Node2&#45;&gt;Node38 -->
<g id="edge37_Node000002_Node000038" class="edge">
<title>Node2&#45;&gt;Node38</title>
<g id="a_edge37_Node000002_Node000038"><a xlink:title=" ">
<path fill="none" stroke="#63b8ff" d="M3148.24,-110.06C3670.2,-65.78 3804.92,-106.39 4323.5,-74 4326.16,-73.83 4328.87,-73.65 4331.6,-73.46"/>
<polygon fill="#63b8ff" stroke="#63b8ff" points="3147.86,-106.58 3138.19,-110.92 3148.46,-113.55 3147.86,-106.58"/>
</a>
</g>
</g>
<!-- Node39 -->
<g id="Node000039" class="node">
<title>Node39</title>
<g id="a_Node000039"><a xlink:href="../../d4/d47/cdisplaytemplatemgr_8cpp.html" target="_top" xlink:title=" ">
<polygon fill="white" stroke="#666666" points="4653.5,-74 4513.5,-74 4513.5,-55 4653.5,-55 4653.5,-74"/>
<text text-anchor="middle" x="4583.5" y="-62" font-family="Helvetica,sans-Serif" font-size="10.00">cdisplaytemplatemgr.cpp</text>
</a>
</g>
</g>
<!-- Node2&#45;&gt;Node39 -->
<g id="edge38_Node000002_Node000039" class="edge">
<title>Node2&#45;&gt;Node39</title>
<g id="a_edge38_Node000002_Node000039"><a xlink:title=" ">
<path fill="none" stroke="#63b8ff" d="M3148.43,-110.05C3750.46,-60.22 3905.9,-114.08 4504.5,-74 4507.39,-73.81 4510.34,-73.59 4513.31,-73.35"/>
<polygon fill="#63b8ff" stroke="#63b8ff" points="3147.87,-106.58 3138.19,-110.9 3148.45,-113.56 3147.87,-106.58"/>
</a>
</g>
</g>
<!-- Node40 -->
<g id="Node000040" class="node">
<title>Node40</title>
<g id="a_Node000040"><a xlink:href="../../d7/d5d/cmoduleresultview_8cpp.html" target="_top" xlink:title=" ">
<polygon fill="white" stroke="#666666" points="4801,-74 4672,-74 4672,-55 4801,-55 4801,-74"/>
<text text-anchor="middle" x="4736.5" y="-62" font-family="Helvetica,sans-Serif" font-size="10.00">cmoduleresultview.cpp</text>
</a>
</g>
</g>
<!-- Node2&#45;&gt;Node40 -->
<g id="edge40_Node000002_Node000040" class="edge">
<title>Node2&#45;&gt;Node40</title>
<g id="a_edge40_Node000002_Node000040"><a xlink:title=" ">
<path fill="none" stroke="#63b8ff" d="M3148.62,-110.04C3820.52,-55.34 3994.03,-120.24 4662.5,-74 4665.6,-73.79 4668.76,-73.54 4671.96,-73.26"/>
<polygon fill="#63b8ff" stroke="#63b8ff" points="3147.87,-106.59 3138.19,-110.89 3148.44,-113.56 3147.87,-106.59"/>
</a>
</g>
</g>
<!-- Node41 -->
<g id="Node000041" class="node">
<title>Node41</title>
<g id="a_Node000041"><a xlink:href="../../d2/d9d/crangechooserdialog_8cpp.html" target="_top" xlink:title=" ">
<polygon fill="white" stroke="#666666" points="4957.5,-74 4819.5,-74 4819.5,-55 4957.5,-55 4957.5,-74"/>
<text text-anchor="middle" x="4888.5" y="-62" font-family="Helvetica,sans-Serif" font-size="10.00">crangechooserdialog.cpp</text>
</a>
</g>
</g>
<!-- Node2&#45;&gt;Node41 -->
<g id="edge41_Node000002_Node000041" class="edge">
<title>Node2&#45;&gt;Node41</title>
<g id="a_edge41_Node000002_Node000041"><a xlink:title=" ">
<path fill="none" stroke="#63b8ff" d="M3148.27,-110.07C3886.06,-50.69 4076.11,-121.87 4810.5,-74 4813.35,-73.81 4816.27,-73.6 4819.2,-73.37"/>
<polygon fill="#63b8ff" stroke="#63b8ff" points="3147.88,-106.59 3138.19,-110.89 3148.44,-113.57 3147.88,-106.59"/>
</a>
</g>
</g>
<!-- Node42 -->
<g id="Node000042" class="node">
<title>Node42</title>
<g id="a_Node000042"><a xlink:href="../../d9/d7b/cswordbackend_8cpp.html" target="_top" xlink:title=" ">
<polygon fill="white" stroke="#666666" points="5087.5,-74 4975.5,-74 4975.5,-55 5087.5,-55 5087.5,-74"/>
<text text-anchor="middle" x="5031.5" y="-62" font-family="Helvetica,sans-Serif" font-size="10.00">cswordbackend.cpp</text>
</a>
</g>
</g>
<!-- Node2&#45;&gt;Node42 -->
<g id="edge42_Node000002_Node000042" class="edge">
<title>Node2&#45;&gt;Node42</title>
<g id="a_edge42_Node000002_Node000042"><a xlink:title=" ">
<path fill="none" stroke="#63b8ff" d="M3148.31,-110.07C3955.23,-45.91 4163.51,-134.26 4966.5,-74 4969.34,-73.79 4972.24,-73.53 4975.17,-73.25"/>
<polygon fill="#63b8ff" stroke="#63b8ff" points="3147.88,-106.59 3138.19,-110.88 3148.44,-113.57 3147.88,-106.59"/>
</a>
</g>
</g>
<!-- Node43 -->
<g id="Node000043" class="node">
<title>Node43</title>
<g id="a_Node000043"><a xlink:href="../../d4/d94/cswordbiblemoduleinfo_8cpp.html" target="_top" xlink:title=" ">
<polygon fill="white" stroke="#666666" points="5257,-74 5106,-74 5106,-55 5257,-55 5257,-74"/>
<text text-anchor="middle" x="5181.5" y="-62" font-family="Helvetica,sans-Serif" font-size="10.00">cswordbiblemoduleinfo.cpp</text>
</a>
</g>
</g>
<!-- Node2&#45;&gt;Node43 -->
<g id="edge43_Node000002_Node000043" class="edge">
<title>Node2&#45;&gt;Node43</title>
<g id="a_edge43_Node000002_Node000043"><a xlink:title=" ">
<path fill="none" stroke="#63b8ff" d="M3148.39,-110.06C4012.86,-41.76 4235.02,-124.95 5096.5,-74 5099.61,-73.82 5102.78,-73.61 5105.98,-73.37"/>
<polygon fill="#63b8ff" stroke="#63b8ff" points="3147.88,-106.59 3138.19,-110.87 3148.44,-113.57 3147.88,-106.59"/>
</a>
</g>
</g>
<!-- Node44 -->
<g id="Node000044" class="node">
<title>Node44</title>
<g id="a_Node000044"><a xlink:href="../../d3/db9/cswordmoduleinfo_8cpp.html" target="_top" xlink:title=" ">
<polygon fill="white" stroke="#666666" points="5402,-74 5275,-74 5275,-55 5402,-55 5402,-74"/>
<text text-anchor="middle" x="5338.5" y="-62" font-family="Helvetica,sans-Serif" font-size="10.00">cswordmoduleinfo.cpp</text>
</a>
</g>
</g>
<!-- Node2&#45;&gt;Node44 -->
<g id="edge44_Node000002_Node000044" class="edge">
<title>Node2&#45;&gt;Node44</title>
<g id="a_edge44_Node000002_Node000044"><a xlink:title=" ">
<path fill="none" stroke="#63b8ff" d="M3148.23,-110.08C4088.2,-36.52 4330.04,-137.07 5266.5,-74 5269.26,-73.81 5272.08,-73.6 5274.93,-73.36"/>
<polygon fill="#63b8ff" stroke="#63b8ff" points="3147.88,-106.6 3138.19,-110.87 3148.43,-113.57 3147.88,-106.6"/>
</a>
</g>
</g>
<!-- Node45 -->
<g id="Node000045" class="node">
<title>Node45</title>
<g id="a_Node000045"><a xlink:href="../../dd/d03/cswordmodulesearch_8cpp.html" target="_top" xlink:title=" ">
<polygon fill="white" stroke="#666666" points="5560.5,-74 5420.5,-74 5420.5,-55 5560.5,-55 5560.5,-74"/>
<text text-anchor="middle" x="5490.5" y="-62" font-family="Helvetica,sans-Serif" font-size="10.00">cswordmodulesearch.cpp</text>
</a>
</g>
</g>
<!-- Node2&#45;&gt;Node45 -->
<g id="edge45_Node000002_Node000045" class="edge">
<title>Node2&#45;&gt;Node45</title>
<g id="a_edge45_Node000002_Node000045"><a xlink:title=" ">
<path fill="none" stroke="#63b8ff" d="M3148.18,-110.08C4152.46,-31.96 4410.37,-135.69 5411.5,-74 5414.39,-73.82 5417.34,-73.62 5420.32,-73.39"/>
<polygon fill="#63b8ff" stroke="#63b8ff" points="3147.89,-106.6 3138.19,-110.87 3148.43,-113.58 3147.89,-106.6"/>
</a>
</g>
</g>
<!-- Node46 -->
<g id="Node000046" class="node">
<title>Node46</title>
<g id="a_Node000046"><a xlink:href="../../db/d72/ctextrendering_8cpp.html" target="_top" xlink:title=" ">
<polygon fill="white" stroke="#666666" points="5686.5,-74 5578.5,-74 5578.5,-55 5686.5,-55 5686.5,-74"/>
<text text-anchor="middle" x="5632.5" y="-62" font-family="Helvetica,sans-Serif" font-size="10.00">ctextrendering.cpp</text>
</a>
</g>
</g>
<!-- Node2&#45;&gt;Node46 -->
<g id="edge46_Node000002_Node000046" class="edge">
<title>Node2&#45;&gt;Node46</title>
<g id="a_edge46_Node000002_Node000046"><a xlink:title=" ">
<path fill="none" stroke="#63b8ff" d="M3148.47,-110.06C4222.56,-27.14 4499.33,-153.86 5569.5,-74 5572.36,-73.79 5575.29,-73.53 5578.25,-73.24"/>
<polygon fill="#63b8ff" stroke="#63b8ff" points="3147.89,-106.6 3138.19,-110.86 3148.43,-113.58 3147.89,-106.6"/>
</a>
</g>
</g>
<!-- Node47 -->
<g id="Node000047" class="node">
<title>Node47</title>
<g id="a_Node000047"><a xlink:href="../../d4/d4d/gbftohtml_8cpp.html" target="_top" xlink:title=" ">
<polygon fill="white" stroke="#666666" points="5788.5,-74 5704.5,-74 5704.5,-55 5788.5,-55 5788.5,-74"/>
<text text-anchor="middle" x="5746.5" y="-62" font-family="Helvetica,sans-Serif" font-size="10.00">gbftohtml.cpp</text>
</a>
</g>
</g>
<!-- Node2&#45;&gt;Node47 -->
<g id="edge47_Node000002_Node000047" class="edge">
<title>Node2&#45;&gt;Node47</title>
<g id="a_edge47_Node000002_Node000047"><a xlink:title=" ">
<path fill="none" stroke="#63b8ff" d="M3148.36,-110.08C3728.69,-66.88 5134.8,-124.4 5695.5,-74 5698.36,-73.74 5701.3,-73.42 5704.26,-73.04"/>
<polygon fill="#63b8ff" stroke="#63b8ff" points="3147.89,-106.61 3138.19,-110.86 3148.43,-113.59 3147.89,-106.61"/>
</a>
</g>
</g>
<!-- Node48 -->
<g id="Node000048" class="node">
<title>Node48</title>
<g id="a_Node000048"><a xlink:href="../../db/d7a/osistohtml_8cpp.html" target="_top" xlink:title=" ">
<polygon fill="white" stroke="#666666" points="5895,-74 5806,-74 5806,-55 5895,-55 5895,-74"/>
<text text-anchor="middle" x="5850.5" y="-62" font-family="Helvetica,sans-Serif" font-size="10.00">osistohtml.cpp</text>
</a>
</g>
</g>
<!-- Node2&#45;&gt;Node48 -->
<g id="edge49_Node000002_Node000048" class="edge">
<title>Node2&#45;&gt;Node48</title>
<g id="a_edge49_Node000002_Node000048"><a xlink:title=" ">
<path fill="none" stroke="#63b8ff" d="M3148.57,-110.06C4323.66,-20.12 4627.44,-175.23 5797.5,-74 5800.19,-73.77 5802.96,-73.48 5805.74,-73.15"/>
<polygon fill="#63b8ff" stroke="#63b8ff" points="3147.89,-106.6 3138.19,-110.86 3148.43,-113.58 3147.89,-106.6"/>
</a>
</g>
</g>
<!-- Node49 -->
<g id="Node000049" class="node">
<title>Node49</title>
<g id="a_Node000049"><a xlink:href="../../d7/dfe/referencemanager_8cpp.html" target="_top" xlink:title=" ">
<polygon fill="white" stroke="#666666" points="6039.5,-74 5913.5,-74 5913.5,-55 6039.5,-55 6039.5,-74"/>
<text text-anchor="middle" x="5976.5" y="-62" font-family="Helvetica,sans-Serif" font-size="10.00">referencemanager.cpp</text>
</a>
</g>
</g>
<!-- Node2&#45;&gt;Node49 -->
<g id="edge50_Node000002_Node000049" class="edge">
<title>Node2&#45;&gt;Node49</title>
<g id="a_edge50_Node000002_Node000049"><a xlink:title=" ">
<path fill="none" stroke="#63b8ff" d="M3148.54,-110.06C4371.08,-16.64 4685.11,-153.72 5904.5,-74 5907.39,-73.81 5910.34,-73.59 5913.32,-73.34"/>
<polygon fill="#63b8ff" stroke="#63b8ff" points="3147.89,-106.6 3138.19,-110.86 3148.43,-113.58 3147.89,-106.6"/>
</a>
</g>
</g>
<!-- Node50 -->
<g id="Node000050" class="node">
<title>Node50</title>
<g id="a_Node000050"><a xlink:href="../../d5/de5/teitohtml_8cpp.html" target="_top" xlink:title=" ">
<polygon fill="white" stroke="#666666" points="6139.5,-74 6057.5,-74 6057.5,-55 6139.5,-55 6139.5,-74"/>
<text text-anchor="middle" x="6098.5" y="-62" font-family="Helvetica,sans-Serif" font-size="10.00">teitohtml.cpp</text>
</a>
</g>
</g>
<!-- Node2&#45;&gt;Node50 -->
<g id="edge51_Node000002_Node000050" class="edge">
<title>Node2&#45;&gt;Node50</title>
<g id="a_edge51_Node000002_Node000050"><a xlink:title=" ">
<path fill="none" stroke="#63b8ff" d="M3148.3,-110.09C3806.87,-61.41 5409.71,-131.9 6048.5,-74 6051.39,-73.74 6054.37,-73.4 6057.37,-73.02"/>
<polygon fill="#63b8ff" stroke="#63b8ff" points="3147.9,-106.61 3138.19,-110.85 3148.42,-113.59 3147.9,-106.61"/>
</a>
</g>
</g>
<!-- Node51 -->
<g id="Node000051" class="node">
<title>Node51</title>
<g id="a_Node000051"><a xlink:href="../../d9/de8/thmltohtml_8cpp.html" target="_top" xlink:title=" ">
<polygon fill="white" stroke="#666666" points="6249.5,-74 6157.5,-74 6157.5,-55 6249.5,-55 6249.5,-74"/>
<text text-anchor="middle" x="6203.5" y="-62" font-family="Helvetica,sans-Serif" font-size="10.00">thmltohtml.cpp</text>
</a>
</g>
</g>
<!-- Node2&#45;&gt;Node51 -->
<g id="edge52_Node000002_Node000051" class="edge">
<title>Node2&#45;&gt;Node51</title>
<g id="a_edge52_Node000002_Node000051"><a xlink:title=" ">
<path fill="none" stroke="#63b8ff" d="M3148.39,-110.08C3829.2,-59.82 5487.17,-128.79 6148.5,-74 6151.39,-73.76 6154.36,-73.46 6157.34,-73.12"/>
<polygon fill="#63b8ff" stroke="#63b8ff" points="3147.9,-106.61 3138.19,-110.85 3148.42,-113.59 3147.9,-106.61"/>
</a>
</g>
</g>
<!-- Node5&#45;&gt;Node3 -->
<g id="edge5_Node000005_Node000003" class="edge">
<title>Node5&#45;&gt;Node3</title>
<g id="a_edge5_Node000005_Node000003"><a xlink:title=" ">
<path fill="none" stroke="#63b8ff" d="M238.2,-52.88C192.09,-42.94 124.1,-28.3 81.33,-19.08"/>
<polygon fill="#63b8ff" stroke="#63b8ff" points="237.46,-56.3 247.98,-54.98 238.94,-49.46 237.46,-56.3"/>
</a>
</g>
</g>
<!-- Node6 -->
<g id="Node000006" class="node">
<title>Node6</title>
<g id="a_Node000006"><a xlink:href="../../da/dc7/bibletime__init_8cpp.html" target="_top" xlink:title=" ">
<polygon fill="white" stroke="#666666" points="205.5,-19 101.5,-19 101.5,0 205.5,0 205.5,-19"/>
<text text-anchor="middle" x="153.5" y="-7" font-family="Helvetica,sans-Serif" font-size="10.00">bibletime_init.cpp</text>
</a>
</g>
</g>
<!-- Node5&#45;&gt;Node6 -->
<g id="edge6_Node000005_Node000006" class="edge">
<title>Node5&#45;&gt;Node6</title>
<g id="a_edge6_Node000005_Node000006"><a xlink:title=" ">
<path fill="none" stroke="#63b8ff" d="M256.63,-51.29C231.8,-41.47 197.51,-27.91 175.42,-19.17"/>
<polygon fill="#63b8ff" stroke="#63b8ff" points="255.38,-54.56 265.97,-54.98 257.96,-48.05 255.38,-54.56"/>
</a>
</g>
</g>
<!-- Node7 -->
<g id="Node000007" class="node">
<title>Node7</title>
<g id="a_Node000007"><a xlink:href="../../d5/d86/bibletimeapp_8cpp.html" target="_top" xlink:title=" ">
<polygon fill="white" stroke="#666666" points="325,-19 224,-19 224,0 325,0 325,-19"/>
<text text-anchor="middle" x="274.5" y="-7" font-family="Helvetica,sans-Serif" font-size="10.00">bibletimeapp.cpp</text>
</a>
</g>
</g>
<!-- Node5&#45;&gt;Node7 -->
<g id="edge7_Node000005_Node000007" class="edge">
<title>Node5&#45;&gt;Node7</title>
<g id="a_edge7_Node000005_Node000007"><a xlink:title=" ">
<path fill="none" stroke="#63b8ff" d="M282.95,-44.95C280.79,-36.15 278.32,-26.06 276.61,-19.09"/>
<polygon fill="#63b8ff" stroke="#63b8ff" points="279.57,-45.87 285.35,-54.75 286.37,-44.2 279.57,-45.87"/>
</a>
</g>
</g>
<!-- Node5&#45;&gt;Node8 -->
<g id="edge8_Node000005_Node000008" class="edge">
<title>Node5&#45;&gt;Node8</title>
<g id="a_edge8_Node000005_Node000008"><a xlink:title=" ">
<path fill="none" stroke="#63b8ff" d="M314.93,-50.63C335.75,-40.87 363.8,-27.71 382.01,-19.17"/>
<polygon fill="#63b8ff" stroke="#63b8ff" points="313.22,-47.57 305.66,-54.98 316.2,-53.91 313.22,-47.57"/>
</a>
</g>
</g>
<!-- Node5&#45;&gt;Node10 -->
<g id="edge9_Node000005_Node000010" class="edge">
<title>Node5&#45;&gt;Node10</title>
<g id="a_edge9_Node000005_Node000010"><a xlink:title=" ">
<path fill="none" stroke="#63b8ff" d="M332.52,-52.61C375.12,-42.29 437.95,-27.09 475.3,-18.05"/>
<polygon fill="#63b8ff" stroke="#63b8ff" points="331.58,-49.23 322.69,-54.98 333.23,-56.03 331.58,-49.23"/>
</a>
</g>
</g>
<!-- Node18&#45;&gt;Node17 -->
<g id="edge18_Node000018_Node000017" class="edge">
<title>Node18&#45;&gt;Node17</title>
<g id="a_edge18_Node000018_Node000017"><a xlink:title=" ">
<path fill="none" stroke="#63b8ff" d="M1709.23,-47.24C1717.64,-37.95 1727.85,-26.68 1734.72,-19.09"/>
<polygon fill="#63b8ff" stroke="#63b8ff" points="1706.54,-44.99 1702.43,-54.75 1711.73,-49.69 1706.54,-44.99"/>
</a>
</g>
</g>
</g>
</svg>
