<?xml version="1.0" encoding="UTF-8" standalone="no"?>
<!DOCTYPE svg PUBLIC "-//W3C//DTD SVG 1.1//EN"
 "http://www.w3.org/Graphics/SVG/1.1/DTD/svg11.dtd">
<!-- Generated by graphviz version 2.43.0 (0)
 -->
<!-- Title: plaintohtml.h Pages: 1 -->
<svg width="6378pt" height="192pt"
 viewBox="0.00 0.00 6377.50 192.00" xmlns="http://www.w3.org/2000/svg" xmlns:xlink="http://www.w3.org/1999/xlink">
<g id="graph0" class="graph" transform="scale(1 1) rotate(0) translate(4 188)">
<title>plaintohtml.h</title>
<!-- Node1 -->
<g id="Node000001" class="node">
<title>Node1</title>
<g id="a_Node000001"><a xlink:title=" ">
<polygon fill="#999999" stroke="#666666" points="3173.5,-184 3091.5,-184 3091.5,-165 3173.5,-165 3173.5,-184"/>
<text text-anchor="middle" x="3132.5" y="-172" font-family="Helvetica,sans-Serif" font-size="10.00">plaintohtml.h</text>
</a>
</g>
</g>
<!-- Node2 -->
<g id="Node000002" class="node">
<title>Node2</title>
<g id="a_Node000002"><a xlink:href="../../d0/d60/cswordbackend_8h.html" target="_top" xlink:title=" ">
<polygon fill="white" stroke="#666666" points="3126,-129 3025,-129 3025,-110 3126,-110 3126,-129"/>
<text text-anchor="middle" x="3075.5" y="-117" font-family="Helvetica,sans-Serif" font-size="10.00">cswordbackend.h</text>
</a>
</g>
</g>
<!-- Node1&#45;&gt;Node2 -->
<g id="edge1_Node000001_Node000002" class="edge">
<title>Node1&#45;&gt;Node2</title>
<g id="a_edge1_Node000001_Node000002"><a xlink:title=" ">
<path fill="none" stroke="#63b8ff" d="M3115.88,-158.04C3105.77,-148.64 3093.22,-136.98 3084.82,-129.17"/>
<polygon fill="#63b8ff" stroke="#63b8ff" points="3113.64,-160.74 3123.34,-164.98 3118.4,-155.61 3113.64,-160.74"/>
</a>
</g>
</g>
<!-- Node52 -->
<g id="Node000052" class="node">
<title>Node52</title>
<g id="a_Node000052"><a xlink:href="../../da/dd4/plaintohtml_8cpp.html" target="_top" xlink:title=" ">
<polygon fill="white" stroke="#666666" points="3237,-129 3144,-129 3144,-110 3237,-110 3237,-129"/>
<text text-anchor="middle" x="3190.5" y="-117" font-family="Helvetica,sans-Serif" font-size="10.00">plaintohtml.cpp</text>
</a>
</g>
</g>
<!-- Node1&#45;&gt;Node52 -->
<g id="edge53_Node000001_Node000052" class="edge">
<title>Node1&#45;&gt;Node52</title>
<g id="a_edge53_Node000001_Node000052"><a xlink:title=" ">
<path fill="none" stroke="#63b8ff" d="M3149.41,-158.04C3159.7,-148.64 3172.47,-136.98 3181.01,-129.17"/>
<polygon fill="#63b8ff" stroke="#63b8ff" points="3146.84,-155.66 3141.82,-164.98 3151.56,-160.82 3146.84,-155.66"/>
</a>
</g>
</g>
<!-- Node3 -->
<g id="Node000003" class="node">
<title>Node3</title>
<g id="a_Node000003"><a xlink:href="../../d1/df6/bibletime_8cpp.html" target="_top" xlink:title=" ">
<polygon fill="white" stroke="#666666" points="83,-19 0,-19 0,0 83,0 83,-19"/>
<text text-anchor="middle" x="41.5" y="-7" font-family="Helvetica,sans-Serif" font-size="10.00">bibletime.cpp</text>
</a>
</g>
</g>
<!-- Node2&#45;&gt;Node3 -->
<g id="edge2_Node000002_Node000003" class="edge">
<title>Node2&#45;&gt;Node3</title>
<g id="a_edge2_Node000002_Node000003"><a xlink:title=" ">
<path fill="none" stroke="#63b8ff" d="M3014.96,-118.2C2599.02,-116.06 178.27,-102.42 108.5,-74 80.6,-62.63 57.54,-33.72 47.26,-19.16"/>
<polygon fill="#63b8ff" stroke="#63b8ff" points="3014.97,-121.7 3024.98,-118.25 3015,-114.7 3014.97,-121.7"/>
</a>
</g>
</g>
<!-- Node4 -->
<g id="Node000004" class="node">
<title>Node4</title>
<g id="a_Node000004"><a xlink:href="../../d6/d96/bibletime__slots_8cpp.html" target="_top" xlink:title=" ">
<polygon fill="white" stroke="#666666" points="384.5,-74 272.5,-74 272.5,-55 384.5,-55 384.5,-74"/>
<text text-anchor="middle" x="328.5" y="-62" font-family="Helvetica,sans-Serif" font-size="10.00">bibletime_slots.cpp</text>
</a>
</g>
</g>
<!-- Node2&#45;&gt;Node4 -->
<g id="edge3_Node000002_Node000004" class="edge">
<title>Node2&#45;&gt;Node4</title>
<g id="a_edge3_Node000002_Node000004"><a xlink:title=" ">
<path fill="none" stroke="#63b8ff" d="M3014.88,-118.43C2667.61,-117.89 927.72,-113.23 393.5,-74 390.66,-73.79 387.76,-73.54 384.83,-73.26"/>
<polygon fill="#63b8ff" stroke="#63b8ff" points="3014.97,-121.93 3024.98,-118.45 3014.98,-114.93 3014.97,-121.93"/>
</a>
</g>
</g>
<!-- Node5 -->
<g id="Node000005" class="node">
<title>Node5</title>
<g id="a_Node000005"><a xlink:href="../../d5/d86/bibletimeapp_8cpp.html" target="_top" xlink:title=" ">
<polygon fill="white" stroke="#666666" points="202,-19 101,-19 101,0 202,0 202,-19"/>
<text text-anchor="middle" x="151.5" y="-7" font-family="Helvetica,sans-Serif" font-size="10.00">bibletimeapp.cpp</text>
</a>
</g>
</g>
<!-- Node2&#45;&gt;Node5 -->
<g id="edge4_Node000002_Node000005" class="edge">
<title>Node2&#45;&gt;Node5</title>
<g id="a_edge4_Node000002_Node000005"><a xlink:title=" ">
<path fill="none" stroke="#63b8ff" d="M3014.86,-118.17C2595.63,-115.79 143.87,-100.77 117.5,-74 101.44,-57.7 125.72,-32.25 140.87,-19.07"/>
<polygon fill="#63b8ff" stroke="#63b8ff" points="3014.93,-121.67 3024.95,-118.22 3014.97,-114.67 3014.93,-121.67"/>
</a>
</g>
</g>
<!-- Node6 -->
<g id="Node000006" class="node">
<title>Node6</title>
<g id="a_Node000006"><a xlink:href="../../d5/d00/bibletimeapp_8h.html" target="_top" xlink:title=" ">
<polygon fill="#fff0f0" stroke="red" points="216.5,-74 126.5,-74 126.5,-55 216.5,-55 216.5,-74"/>
<text text-anchor="middle" x="171.5" y="-62" font-family="Helvetica,sans-Serif" font-size="10.00">bibletimeapp.h</text>
</a>
</g>
</g>
<!-- Node2&#45;&gt;Node6 -->
<g id="edge5_Node000002_Node000006" class="edge">
<title>Node2&#45;&gt;Node6</title>
<g id="a_edge5_Node000002_Node000006"><a xlink:title=" ">
<path fill="none" stroke="#63b8ff" d="M3014.68,-118.61C2654.62,-119.07 798.73,-119.19 230.5,-74 225.96,-73.64 221.24,-73.15 216.53,-72.59"/>
<polygon fill="#63b8ff" stroke="#63b8ff" points="3014.9,-122.1 3024.89,-118.59 3014.89,-115.1 3014.9,-122.1"/>
</a>
</g>
</g>
<!-- Node8 -->
<g id="Node000008" class="node">
<title>Node8</title>
<g id="a_Node000008"><a xlink:href="../../df/d0a/main_8cpp.html" target="_top" xlink:title=" ">
<polygon fill="white" stroke="#666666" points="282.5,-19 220.5,-19 220.5,0 282.5,0 282.5,-19"/>
<text text-anchor="middle" x="251.5" y="-7" font-family="Helvetica,sans-Serif" font-size="10.00">main.cpp</text>
</a>
</g>
</g>
<!-- Node2&#45;&gt;Node8 -->
<g id="edge48_Node000002_Node000008" class="edge">
<title>Node2&#45;&gt;Node8</title>
<g id="a_edge48_Node000002_Node000008"><a xlink:title=" ">
<path fill="none" stroke="#63b8ff" d="M3014.71,-118.59C2609.83,-119.09 317.97,-119.87 263.5,-74 247.54,-60.56 248.44,-33.13 250.12,-19.13"/>
<polygon fill="#63b8ff" stroke="#63b8ff" points="3014.76,-122.09 3024.75,-118.58 3014.75,-115.09 3014.76,-122.09"/>
</a>
</g>
</g>
<!-- Node9 -->
<g id="Node000009" class="node">
<title>Node9</title>
<g id="a_Node000009"><a xlink:href="../../d7/dd0/btbookmarksmodel_8cpp.html" target="_top" xlink:title=" ">
<polygon fill="white" stroke="#666666" points="534.5,-74 402.5,-74 402.5,-55 534.5,-55 534.5,-74"/>
<text text-anchor="middle" x="468.5" y="-62" font-family="Helvetica,sans-Serif" font-size="10.00">btbookmarksmodel.cpp</text>
</a>
</g>
</g>
<!-- Node2&#45;&gt;Node9 -->
<g id="edge9_Node000002_Node000009" class="edge">
<title>Node2&#45;&gt;Node9</title>
<g id="a_edge9_Node000002_Node000009"><a xlink:title=" ">
<path fill="none" stroke="#63b8ff" d="M3014.81,-118.22C2679.09,-116.55 1046.38,-106.84 543.5,-74 540.62,-73.81 537.69,-73.59 534.72,-73.35"/>
<polygon fill="#63b8ff" stroke="#63b8ff" points="3014.81,-121.72 3024.83,-118.27 3014.84,-114.72 3014.81,-121.72"/>
</a>
</g>
</g>
<!-- Node10 -->
<g id="Node000010" class="node">
<title>Node10</title>
<g id="a_Node000010"><a xlink:href="../../df/d88/btbookshelfdockwidget_8cpp.html" target="_top" xlink:title=" ">
<polygon fill="white" stroke="#666666" points="704,-74 553,-74 553,-55 704,-55 704,-74"/>
<text text-anchor="middle" x="628.5" y="-62" font-family="Helvetica,sans-Serif" font-size="10.00">btbookshelfdockwidget.cpp</text>
</a>
</g>
</g>
<!-- Node2&#45;&gt;Node10 -->
<g id="edge10_Node000002_Node000010" class="edge">
<title>Node2&#45;&gt;Node10</title>
<g id="a_edge10_Node000002_Node000010"><a xlink:title=" ">
<path fill="none" stroke="#63b8ff" d="M3014.79,-118.03C2692.59,-115.45 1179.98,-102.01 712.5,-74 709.72,-73.83 706.89,-73.64 704.03,-73.44"/>
<polygon fill="#63b8ff" stroke="#63b8ff" points="3014.83,-121.53 3024.86,-118.11 3014.89,-114.53 3014.83,-121.53"/>
</a>
</g>
</g>
<!-- Node11 -->
<g id="Node000011" class="node">
<title>Node11</title>
<g id="a_Node000011"><a xlink:href="../../dc/d04/btbookshelfinstallfinalpage_8cpp.html" target="_top" xlink:title=" ">
<polygon fill="white" stroke="#666666" points="891,-74 722,-74 722,-55 891,-55 891,-74"/>
<text text-anchor="middle" x="806.5" y="-62" font-family="Helvetica,sans-Serif" font-size="10.00">btbookshelfinstallfinalpage.cpp</text>
</a>
</g>
</g>
<!-- Node2&#45;&gt;Node11 -->
<g id="edge11_Node000002_Node000011" class="edge">
<title>Node2&#45;&gt;Node11</title>
<g id="a_edge11_Node000002_Node000011"><a xlink:title=" ">
<path fill="none" stroke="#63b8ff" d="M3014.6,-118.83C2757.65,-119.89 1736.75,-120.76 899.5,-74 896.75,-73.85 893.95,-73.68 891.13,-73.49"/>
<polygon fill="#63b8ff" stroke="#63b8ff" points="3014.86,-122.33 3024.85,-118.79 3014.83,-115.33 3014.86,-122.33"/>
</a>
</g>
</g>
<!-- Node12 -->
<g id="Node000012" class="node">
<title>Node12</title>
<g id="a_Node000012"><a xlink:href="../../d0/da5/btbookshelflanguagespage_8cpp.html" target="_top" xlink:title=" ">
<polygon fill="white" stroke="#666666" points="1076.5,-74 908.5,-74 908.5,-55 1076.5,-55 1076.5,-74"/>
<text text-anchor="middle" x="992.5" y="-62" font-family="Helvetica,sans-Serif" font-size="10.00">btbookshelflanguagespage.cpp</text>
</a>
</g>
</g>
<!-- Node2&#45;&gt;Node12 -->
<g id="edge12_Node000002_Node000012" class="edge">
<title>Node2&#45;&gt;Node12</title>
<g id="a_edge12_Node000002_Node000012"><a xlink:title=" ">
<path fill="none" stroke="#63b8ff" d="M3014.62,-118.69C2771.3,-119.11 1845.05,-117.58 1084.5,-74 1081.94,-73.85 1079.34,-73.69 1076.71,-73.52"/>
<polygon fill="#63b8ff" stroke="#63b8ff" points="3014.69,-122.19 3024.68,-118.67 3014.68,-115.19 3014.69,-122.19"/>
</a>
</g>
</g>
<!-- Node13 -->
<g id="Node000013" class="node">
<title>Node13</title>
<g id="a_Node000013"><a xlink:href="../../d0/da0/btbookshelfremovefinalpage_8cpp.html" target="_top" xlink:title=" ">
<polygon fill="white" stroke="#666666" points="1271,-74 1094,-74 1094,-55 1271,-55 1271,-74"/>
<text text-anchor="middle" x="1182.5" y="-62" font-family="Helvetica,sans-Serif" font-size="10.00">btbookshelfremovefinalpage.cpp</text>
</a>
</g>
</g>
<!-- Node2&#45;&gt;Node13 -->
<g id="edge13_Node000002_Node000013" class="edge">
<title>Node2&#45;&gt;Node13</title>
<g id="a_edge13_Node000002_Node000013"><a xlink:title=" ">
<path fill="none" stroke="#63b8ff" d="M3014.64,-118.37C2786.4,-117.61 1959.6,-112.19 1279.5,-74 1276.72,-73.84 1273.89,-73.67 1271.03,-73.49"/>
<polygon fill="#63b8ff" stroke="#63b8ff" points="3014.73,-121.87 3024.74,-118.41 3014.75,-114.87 3014.73,-121.87"/>
</a>
</g>
</g>
<!-- Node14 -->
<g id="Node000014" class="node">
<title>Node14</title>
<g id="a_Node000014"><a xlink:href="../../de/db2/btbookshelftaskpage_8cpp.html" target="_top" xlink:title=" ">
<polygon fill="white" stroke="#666666" points="1428,-74 1289,-74 1289,-55 1428,-55 1428,-74"/>
<text text-anchor="middle" x="1358.5" y="-62" font-family="Helvetica,sans-Serif" font-size="10.00">btbookshelftaskpage.cpp</text>
</a>
</g>
</g>
<!-- Node2&#45;&gt;Node14 -->
<g id="edge14_Node000002_Node000014" class="edge">
<title>Node2&#45;&gt;Node14</title>
<g id="a_edge14_Node000002_Node000014"><a xlink:title=" ">
<path fill="none" stroke="#63b8ff" d="M3014.67,-118.6C2799.19,-118.59 2052.23,-115.35 1437.5,-74 1434.47,-73.8 1431.38,-73.56 1428.26,-73.31"/>
<polygon fill="#63b8ff" stroke="#63b8ff" points="3014.82,-122.1 3024.82,-118.6 3014.82,-115.1 3014.82,-122.1"/>
</a>
</g>
</g>
<!-- Node15 -->
<g id="Node000015" class="node">
<title>Node15</title>
<g id="a_Node000015"><a xlink:href="../../d9/d03/btbookshelfworkspage_8cpp.html" target="_top" xlink:title=" ">
<polygon fill="white" stroke="#666666" points="1636,-19 1489,-19 1489,0 1636,0 1636,-19"/>
<text text-anchor="middle" x="1562.5" y="-7" font-family="Helvetica,sans-Serif" font-size="10.00">btbookshelfworkspage.cpp</text>
</a>
</g>
</g>
<!-- Node2&#45;&gt;Node15 -->
<g id="edge15_Node000002_Node000015" class="edge">
<title>Node2&#45;&gt;Node15</title>
<g id="a_edge15_Node000002_Node000015"><a xlink:title=" ">
<path fill="none" stroke="#63b8ff" d="M3014.68,-117.84C2748.23,-114.77 1694.28,-100.98 1629.5,-74 1601.69,-62.42 1578.59,-33.6 1568.28,-19.11"/>
<polygon fill="#63b8ff" stroke="#63b8ff" points="3014.9,-121.34 3024.94,-117.95 3014.98,-114.34 3014.9,-121.34"/>
</a>
</g>
</g>
<!-- Node16 -->
<g id="Node000016" class="node">
<title>Node16</title>
<g id="a_Node000016"><a xlink:href="../../d6/d8d/btbookshelfworkspage_8h.html" target="_top" xlink:title=" ">
<polygon fill="#fff0f0" stroke="red" points="1582.5,-74 1446.5,-74 1446.5,-55 1582.5,-55 1582.5,-74"/>
<text text-anchor="middle" x="1514.5" y="-62" font-family="Helvetica,sans-Serif" font-size="10.00">btbookshelfworkspage.h</text>
</a>
</g>
</g>
<!-- Node2&#45;&gt;Node16 -->
<g id="edge16_Node000002_Node000016" class="edge">
<title>Node2&#45;&gt;Node16</title>
<g id="a_edge16_Node000002_Node000016"><a xlink:title=" ">
<path fill="none" stroke="#63b8ff" d="M3014.9,-118.27C2813.23,-117.15 2146.35,-110.72 1596.5,-74 1592.07,-73.7 1587.52,-73.36 1582.92,-72.97"/>
<polygon fill="#63b8ff" stroke="#63b8ff" points="3014.98,-121.77 3025,-118.32 3015.01,-114.77 3014.98,-121.77"/>
</a>
</g>
</g>
<!-- Node18 -->
<g id="Node000018" class="node">
<title>Node18</title>
<g id="a_Node000018"><a xlink:href="../../de/d4e/btconfig_8cpp.html" target="_top" xlink:title=" ">
<polygon fill="white" stroke="#666666" points="1714.5,-74 1638.5,-74 1638.5,-55 1714.5,-55 1714.5,-74"/>
<text text-anchor="middle" x="1676.5" y="-62" font-family="Helvetica,sans-Serif" font-size="10.00">btconfig.cpp</text>
</a>
</g>
</g>
<!-- Node2&#45;&gt;Node18 -->
<g id="edge18_Node000002_Node000018" class="edge">
<title>Node2&#45;&gt;Node18</title>
<g id="a_edge18_Node000002_Node000018"><a xlink:title=" ">
<path fill="none" stroke="#63b8ff" d="M3014.65,-117.65C2786.24,-114.27 1979.95,-100.69 1724.5,-74 1721.3,-73.67 1717.99,-73.24 1714.68,-72.77"/>
<polygon fill="#63b8ff" stroke="#63b8ff" points="3014.72,-121.15 3024.77,-117.8 3014.82,-114.15 3014.72,-121.15"/>
</a>
</g>
</g>
<!-- Node19 -->
<g id="Node000019" class="node">
<title>Node19</title>
<g id="a_Node000019"><a xlink:href="../../d5/d72/btfontsettings_8cpp.html" target="_top" xlink:title=" ">
<polygon fill="white" stroke="#666666" points="1838,-74 1733,-74 1733,-55 1838,-55 1838,-74"/>
<text text-anchor="middle" x="1785.5" y="-62" font-family="Helvetica,sans-Serif" font-size="10.00">btfontsettings.cpp</text>
</a>
</g>
</g>
<!-- Node2&#45;&gt;Node19 -->
<g id="edge19_Node000002_Node000019" class="edge">
<title>Node2&#45;&gt;Node19</title>
<g id="a_edge19_Node000002_Node000019"><a xlink:title=" ">
<path fill="none" stroke="#63b8ff" d="M3014.78,-118.45C2835.75,-117.83 2294.46,-112.64 1847.5,-74 1844.47,-73.74 1841.36,-73.43 1838.22,-73.09"/>
<polygon fill="#63b8ff" stroke="#63b8ff" points="3014.79,-121.95 3024.8,-118.48 3014.81,-114.95 3014.79,-121.95"/>
</a>
</g>
</g>
<!-- Node20 -->
<g id="Node000020" class="node">
<title>Node20</title>
<g id="a_Node000020"><a xlink:href="../../d4/d57/btindexdialog_8cpp.html" target="_top" xlink:title=" ">
<polygon fill="white" stroke="#666666" points="1960.5,-74 1856.5,-74 1856.5,-55 1960.5,-55 1960.5,-74"/>
<text text-anchor="middle" x="1908.5" y="-62" font-family="Helvetica,sans-Serif" font-size="10.00">btindexdialog.cpp</text>
</a>
</g>
</g>
<!-- Node2&#45;&gt;Node20 -->
<g id="edge20_Node000002_Node000020" class="edge">
<title>Node2&#45;&gt;Node20</title>
<g id="a_edge20_Node000002_Node000020"><a xlink:title=" ">
<path fill="none" stroke="#63b8ff" d="M3014.88,-118.15C2847.88,-116.73 2367.19,-109.62 1969.5,-74 1966.62,-73.74 1963.68,-73.44 1960.7,-73.12"/>
<polygon fill="#63b8ff" stroke="#63b8ff" points="3014.92,-121.65 3024.95,-118.23 3014.98,-114.65 3014.92,-121.65"/>
</a>
</g>
</g>
<!-- Node21 -->
<g id="Node000021" class="node">
<title>Node21</title>
<g id="a_Node000021"><a xlink:href="../../da/d1a/btinforendering_8cpp.html" target="_top" xlink:title=" ">
<polygon fill="white" stroke="#666666" points="2090.5,-74 1978.5,-74 1978.5,-55 2090.5,-55 2090.5,-74"/>
<text text-anchor="middle" x="2034.5" y="-62" font-family="Helvetica,sans-Serif" font-size="10.00">btinforendering.cpp</text>
</a>
</g>
</g>
<!-- Node2&#45;&gt;Node21 -->
<g id="edge21_Node000002_Node000021" class="edge">
<title>Node2&#45;&gt;Node21</title>
<g id="a_edge21_Node000002_Node000021"><a xlink:title=" ">
<path fill="none" stroke="#63b8ff" d="M3014.75,-117.47C2861.27,-114.48 2445.59,-104.05 2100.5,-74 2097.28,-73.72 2093.97,-73.4 2090.64,-73.05"/>
<polygon fill="#63b8ff" stroke="#63b8ff" points="3014.85,-120.97 3024.91,-117.66 3014.98,-113.97 3014.85,-120.97"/>
</a>
</g>
</g>
<!-- Node22 -->
<g id="Node000022" class="node">
<title>Node22</title>
<g id="a_Node000022"><a xlink:href="../../db/dd7/btinstallbackend_8cpp.html" target="_top" xlink:title=" ">
<polygon fill="white" stroke="#666666" points="2226,-74 2109,-74 2109,-55 2226,-55 2226,-74"/>
<text text-anchor="middle" x="2167.5" y="-62" font-family="Helvetica,sans-Serif" font-size="10.00">btinstallbackend.cpp</text>
</a>
</g>
</g>
<!-- Node2&#45;&gt;Node22 -->
<g id="edge22_Node000002_Node000022" class="edge">
<title>Node2&#45;&gt;Node22</title>
<g id="a_edge22_Node000002_Node000022"><a xlink:title=" ">
<path fill="none" stroke="#63b8ff" d="M3014.34,-116.76C2875.61,-112.48 2526.49,-99.86 2235.5,-74 2232.42,-73.73 2229.26,-73.42 2226.08,-73.09"/>
<polygon fill="#63b8ff" stroke="#63b8ff" points="3014.65,-120.27 3024.75,-117.08 3014.87,-113.27 3014.65,-120.27"/>
</a>
</g>
</g>
<!-- Node23 -->
<g id="Node000023" class="node">
<title>Node23</title>
<g id="a_Node000023"><a xlink:href="../../dd/dba/btinstallpagemodel_8cpp.html" target="_top" xlink:title=" ">
<polygon fill="white" stroke="#666666" points="2375,-74 2244,-74 2244,-55 2375,-55 2375,-74"/>
<text text-anchor="middle" x="2309.5" y="-62" font-family="Helvetica,sans-Serif" font-size="10.00">btinstallpagemodel.cpp</text>
</a>
</g>
</g>
<!-- Node2&#45;&gt;Node23 -->
<g id="edge23_Node000002_Node000023" class="edge">
<title>Node2&#45;&gt;Node23</title>
<g id="a_edge23_Node000002_Node000023"><a xlink:title=" ">
<path fill="none" stroke="#63b8ff" d="M3014.59,-115.57C2894.11,-109.56 2616.91,-94.64 2384.5,-74 2381.5,-73.73 2378.43,-73.45 2375.33,-73.14"/>
<polygon fill="#63b8ff" stroke="#63b8ff" points="3014.56,-119.08 3024.72,-116.08 3014.91,-112.08 3014.56,-119.08"/>
</a>
</g>
</g>
<!-- Node24 -->
<g id="Node000024" class="node">
<title>Node24</title>
<g id="a_Node000024"><a xlink:href="../../d5/daf/btinstallthread_8cpp.html" target="_top" xlink:title=" ">
<polygon fill="white" stroke="#666666" points="2501.5,-74 2393.5,-74 2393.5,-55 2501.5,-55 2501.5,-74"/>
<text text-anchor="middle" x="2447.5" y="-62" font-family="Helvetica,sans-Serif" font-size="10.00">btinstallthread.cpp</text>
</a>
</g>
</g>
<!-- Node2&#45;&gt;Node24 -->
<g id="edge24_Node000002_Node000024" class="edge">
<title>Node2&#45;&gt;Node24</title>
<g id="a_edge24_Node000002_Node000024"><a xlink:title=" ">
<path fill="none" stroke="#63b8ff" d="M3014.49,-114.81C2910.78,-108.29 2693.53,-93.54 2510.5,-74 2507.65,-73.7 2504.72,-73.36 2501.77,-73.02"/>
<polygon fill="#63b8ff" stroke="#63b8ff" points="3014.57,-118.32 3024.77,-115.45 3015,-111.33 3014.57,-118.32"/>
</a>
</g>
</g>
<!-- Node25 -->
<g id="Node000025" class="node">
<title>Node25</title>
<g id="a_Node000025"><a xlink:href="../../de/db2/btmodelviewreaddisplay_8cpp.html" target="_top" xlink:title=" ">
<polygon fill="white" stroke="#666666" points="2675.5,-74 2519.5,-74 2519.5,-55 2675.5,-55 2675.5,-74"/>
<text text-anchor="middle" x="2597.5" y="-62" font-family="Helvetica,sans-Serif" font-size="10.00">btmodelviewreaddisplay.cpp</text>
</a>
</g>
</g>
<!-- Node2&#45;&gt;Node25 -->
<g id="edge25_Node000002_Node000025" class="edge">
<title>Node2&#45;&gt;Node25</title>
<g id="a_edge25_Node000002_Node000025"><a xlink:title=" ">
<path fill="none" stroke="#63b8ff" d="M3014.6,-111.75C2927.92,-102.14 2769.02,-84.52 2674.35,-74.02"/>
<polygon fill="#63b8ff" stroke="#63b8ff" points="3014.47,-115.25 3024.8,-112.88 3015.24,-108.3 3014.47,-115.25"/>
</a>
</g>
</g>
<!-- Node26 -->
<g id="Node000026" class="node">
<title>Node26</title>
<g id="a_Node000026"><a xlink:href="../../dd/ddc/btmodulechoosermenu_8cpp.html" target="_top" xlink:title=" ">
<polygon fill="white" stroke="#666666" points="2843,-74 2694,-74 2694,-55 2843,-55 2843,-74"/>
<text text-anchor="middle" x="2768.5" y="-62" font-family="Helvetica,sans-Serif" font-size="10.00">btmodulechoosermenu.cpp</text>
</a>
</g>
</g>
<!-- Node2&#45;&gt;Node26 -->
<g id="edge26_Node000002_Node000026" class="edge">
<title>Node2&#45;&gt;Node26</title>
<g id="a_edge26_Node000002_Node000026"><a xlink:title=" ">
<path fill="none" stroke="#63b8ff" d="M3016.12,-108.25C2958.47,-98.3 2871.97,-83.36 2817.96,-74.04"/>
<polygon fill="#63b8ff" stroke="#63b8ff" points="3015.73,-111.73 3026.18,-109.98 3016.92,-104.83 3015.73,-111.73"/>
</a>
</g>
</g>
<!-- Node27 -->
<g id="Node000027" class="node">
<title>Node27</title>
<g id="a_Node000027"><a xlink:href="../../de/d93/btmoduletextmodel_8cpp.html" target="_top" xlink:title=" ">
<polygon fill="white" stroke="#666666" points="2995.5,-74 2861.5,-74 2861.5,-55 2995.5,-55 2995.5,-74"/>
<text text-anchor="middle" x="2928.5" y="-62" font-family="Helvetica,sans-Serif" font-size="10.00">btmoduletextmodel.cpp</text>
</a>
</g>
</g>
<!-- Node2&#45;&gt;Node27 -->
<g id="edge27_Node000002_Node000027" class="edge">
<title>Node2&#45;&gt;Node27</title>
<g id="a_edge27_Node000002_Node000027"><a xlink:title=" ">
<path fill="none" stroke="#63b8ff" d="M3042.36,-106.55C3015.06,-96.71 2977,-82.98 2952.55,-74.17"/>
<polygon fill="#63b8ff" stroke="#63b8ff" points="3041.29,-109.89 3051.88,-109.98 3043.66,-103.3 3041.29,-109.89"/>
</a>
</g>
</g>
<!-- Node28 -->
<g id="Node000028" class="node">
<title>Node28</title>
<g id="a_Node000028"><a xlink:href="../../d9/d62/btopenworkaction_8cpp.html" target="_top" xlink:title=" ">
<polygon fill="white" stroke="#666666" points="3137.5,-74 3013.5,-74 3013.5,-55 3137.5,-55 3137.5,-74"/>
<text text-anchor="middle" x="3075.5" y="-62" font-family="Helvetica,sans-Serif" font-size="10.00">btopenworkaction.cpp</text>
</a>
</g>
</g>
<!-- Node2&#45;&gt;Node28 -->
<g id="edge28_Node000002_Node000028" class="edge">
<title>Node2&#45;&gt;Node28</title>
<g id="a_edge28_Node000002_Node000028"><a xlink:title=" ">
<path fill="none" stroke="#63b8ff" d="M3075.5,-99.66C3075.5,-90.93 3075.5,-80.99 3075.5,-74.09"/>
<polygon fill="#63b8ff" stroke="#63b8ff" points="3072,-99.75 3075.5,-109.75 3079,-99.75 3072,-99.75"/>
</a>
</g>
</g>
<!-- Node29 -->
<g id="Node000029" class="node">
<title>Node29</title>
<g id="a_Node000029"><a xlink:href="../../de/d6e/btqmlinterface_8cpp.html" target="_top" xlink:title=" ">
<polygon fill="white" stroke="#666666" points="3265,-74 3156,-74 3156,-55 3265,-55 3265,-74"/>
<text text-anchor="middle" x="3210.5" y="-62" font-family="Helvetica,sans-Serif" font-size="10.00">btqmlinterface.cpp</text>
</a>
</g>
</g>
<!-- Node2&#45;&gt;Node29 -->
<g id="edge29_Node000002_Node000029" class="edge">
<title>Node2&#45;&gt;Node29</title>
<g id="a_edge29_Node000002_Node000029"><a xlink:title=" ">
<path fill="none" stroke="#63b8ff" d="M3106.6,-106.29C3131.62,-96.47 3166.16,-82.91 3188.42,-74.17"/>
<polygon fill="#63b8ff" stroke="#63b8ff" points="3105.22,-103.07 3097.19,-109.98 3107.78,-109.59 3105.22,-103.07"/>
</a>
</g>
</g>
<!-- Node30 -->
<g id="Node000030" class="node">
<title>Node30</title>
<g id="a_Node000030"><a xlink:href="../../d9/d0c/btquickwidget_8cpp.html" target="_top" xlink:title=" ">
<polygon fill="white" stroke="#666666" points="3389.5,-74 3283.5,-74 3283.5,-55 3389.5,-55 3389.5,-74"/>
<text text-anchor="middle" x="3336.5" y="-62" font-family="Helvetica,sans-Serif" font-size="10.00">btquickwidget.cpp</text>
</a>
</g>
</g>
<!-- Node2&#45;&gt;Node30 -->
<g id="edge30_Node000002_Node000030" class="edge">
<title>Node2&#45;&gt;Node30</title>
<g id="a_edge30_Node000002_Node000030"><a xlink:title=" ">
<path fill="none" stroke="#63b8ff" d="M3127.5,-107.94C3176.42,-98.01 3248.77,-83.31 3294.24,-74.08"/>
<polygon fill="#63b8ff" stroke="#63b8ff" points="3126.54,-104.56 3117.43,-109.98 3127.93,-111.42 3126.54,-104.56"/>
</a>
</g>
</g>
<!-- Node31 -->
<g id="Node000031" class="node">
<title>Node31</title>
<g id="a_Node000031"><a xlink:href="../../dc/dab/btsearchmodulechooserdialog_8cpp.html" target="_top" xlink:title=" ">
<polygon fill="white" stroke="#666666" points="3591.5,-74 3407.5,-74 3407.5,-55 3591.5,-55 3591.5,-74"/>
<text text-anchor="middle" x="3499.5" y="-62" font-family="Helvetica,sans-Serif" font-size="10.00">btsearchmodulechooserdialog.cpp</text>
</a>
</g>
</g>
<!-- Node2&#45;&gt;Node31 -->
<g id="edge31_Node000002_Node000031" class="edge">
<title>Node2&#45;&gt;Node31</title>
<g id="a_edge31_Node000002_Node000031"><a xlink:title=" ">
<path fill="none" stroke="#63b8ff" d="M3136.23,-109.93C3243.19,-95.87 3354.92,-82.45 3426.24,-74.04"/>
<polygon fill="#63b8ff" stroke="#63b8ff" points="3135.69,-106.47 3126.23,-111.24 3136.6,-113.41 3135.69,-106.47"/>
</a>
</g>
</g>
<!-- Node32 -->
<g id="Node000032" class="node">
<title>Node32</title>
<g id="a_Node000032"><a xlink:href="../../d4/d4d/btsearchoptionsarea_8cpp.html" target="_top" xlink:title=" ">
<polygon fill="white" stroke="#666666" points="3747,-74 3610,-74 3610,-55 3747,-55 3747,-74"/>
<text text-anchor="middle" x="3678.5" y="-62" font-family="Helvetica,sans-Serif" font-size="10.00">btsearchoptionsarea.cpp</text>
</a>
</g>
</g>
<!-- Node2&#45;&gt;Node32 -->
<g id="edge32_Node000002_Node000032" class="edge">
<title>Node2&#45;&gt;Node32</title>
<g id="a_edge32_Node000002_Node000032"><a xlink:title=" ">
<path fill="none" stroke="#63b8ff" d="M3136.19,-110C3343.23,-87.63 3397.33,-92.93 3600.5,-74 3603.48,-73.72 3606.53,-73.43 3609.61,-73.13"/>
<polygon fill="#63b8ff" stroke="#63b8ff" points="3135.77,-106.52 3126.21,-111.09 3136.53,-113.48 3135.77,-106.52"/>
</a>
</g>
</g>
<!-- Node33 -->
<g id="Node000033" class="node">
<title>Node33</title>
<g id="a_Node000033"><a xlink:href="../../d6/dfe/btstandardworkstab_8cpp.html" target="_top" xlink:title=" ">
<polygon fill="white" stroke="#666666" points="3899.5,-74 3765.5,-74 3765.5,-55 3899.5,-55 3899.5,-74"/>
<text text-anchor="middle" x="3832.5" y="-62" font-family="Helvetica,sans-Serif" font-size="10.00">btstandardworkstab.cpp</text>
</a>
</g>
</g>
<!-- Node2&#45;&gt;Node33 -->
<g id="edge33_Node000002_Node000033" class="edge">
<title>Node2&#45;&gt;Node33</title>
<g id="a_edge33_Node000002_Node000033"><a xlink:title=" ">
<path fill="none" stroke="#63b8ff" d="M3136.52,-109.99C3412.35,-82.94 3484.39,-97.09 3756.5,-74 3759.41,-73.75 3762.38,-73.49 3765.38,-73.2"/>
<polygon fill="#63b8ff" stroke="#63b8ff" points="3135.81,-106.55 3126.2,-111.02 3136.5,-113.51 3135.81,-106.55"/>
</a>
</g>
</g>
<!-- Node34 -->
<g id="Node000034" class="node">
<title>Node34</title>
<g id="a_Node000034"><a xlink:href="../../d4/d3a/bttextbrowser_8cpp.html" target="_top" xlink:title=" ">
<polygon fill="white" stroke="#666666" points="4021.5,-74 3917.5,-74 3917.5,-55 4021.5,-55 4021.5,-74"/>
<text text-anchor="middle" x="3969.5" y="-62" font-family="Helvetica,sans-Serif" font-size="10.00">bttextbrowser.cpp</text>
</a>
</g>
</g>
<!-- Node2&#45;&gt;Node34 -->
<g id="edge34_Node000002_Node000034" class="edge">
<title>Node2&#45;&gt;Node34</title>
<g id="a_edge34_Node000002_Node000034"><a xlink:title=" ">
<path fill="none" stroke="#63b8ff" d="M3136.17,-110.05C3479.62,-78.37 3569.3,-105.46 3908.5,-74 3911.37,-73.73 3914.32,-73.43 3917.29,-73.1"/>
<polygon fill="#63b8ff" stroke="#63b8ff" points="3135.83,-106.56 3126.2,-110.98 3136.48,-113.53 3135.83,-106.56"/>
</a>
</g>
</g>
<!-- Node35 -->
<g id="Node000035" class="node">
<title>Node35</title>
<g id="a_Node000035"><a xlink:href="../../de/da4/cbiblereadwindow_8cpp.html" target="_top" xlink:title=" ">
<polygon fill="white" stroke="#666666" points="4165,-74 4040,-74 4040,-55 4165,-55 4165,-74"/>
<text text-anchor="middle" x="4102.5" y="-62" font-family="Helvetica,sans-Serif" font-size="10.00">cbiblereadwindow.cpp</text>
</a>
</g>
</g>
<!-- Node2&#45;&gt;Node35 -->
<g id="edge35_Node000002_Node000035" class="edge">
<title>Node2&#45;&gt;Node35</title>
<g id="a_edge35_Node000002_Node000035"><a xlink:title=" ">
<path fill="none" stroke="#63b8ff" d="M3136.24,-110.05C3533.68,-74.55 3636.93,-105.1 4030.5,-74 4033.51,-73.76 4036.59,-73.49 4039.7,-73.2"/>
<polygon fill="#63b8ff" stroke="#63b8ff" points="3135.84,-106.57 3126.2,-110.95 3136.47,-113.54 3135.84,-106.57"/>
</a>
</g>
</g>
<!-- Node36 -->
<g id="Node000036" class="node">
<title>Node36</title>
<g id="a_Node000036"><a xlink:href="../../d9/de6/cbookmarkindex_8cpp.html" target="_top" xlink:title=" ">
<polygon fill="white" stroke="#666666" points="4302,-74 4183,-74 4183,-55 4302,-55 4302,-74"/>
<text text-anchor="middle" x="4242.5" y="-62" font-family="Helvetica,sans-Serif" font-size="10.00">cbookmarkindex.cpp</text>
</a>
</g>
</g>
<!-- Node2&#45;&gt;Node36 -->
<g id="edge36_Node000002_Node000036" class="edge">
<title>Node2&#45;&gt;Node36</title>
<g id="a_edge36_Node000002_Node000036"><a xlink:title=" ">
<path fill="none" stroke="#63b8ff" d="M3136.46,-110.04C3597.53,-70.14 3717.28,-110.42 4174.5,-74 4177.23,-73.78 4180.01,-73.54 4182.83,-73.27"/>
<polygon fill="#63b8ff" stroke="#63b8ff" points="3135.85,-106.58 3126.2,-110.93 3136.46,-113.55 3135.85,-106.58"/>
</a>
</g>
</g>
<!-- Node37 -->
<g id="Node000037" class="node">
<title>Node37</title>
<g id="a_Node000037"><a xlink:href="../../d0/d6f/ccommentaryreadwindow_8cpp.html" target="_top" xlink:title=" ">
<polygon fill="white" stroke="#666666" points="4483,-74 4320,-74 4320,-55 4483,-55 4483,-74"/>
<text text-anchor="middle" x="4401.5" y="-62" font-family="Helvetica,sans-Serif" font-size="10.00">ccommentaryreadwindow.cpp</text>
</a>
</g>
</g>
<!-- Node2&#45;&gt;Node37 -->
<g id="edge37_Node000002_Node000037" class="edge">
<title>Node2&#45;&gt;Node37</title>
<g id="a_edge37_Node000002_Node000037"><a xlink:title=" ">
<path fill="none" stroke="#63b8ff" d="M3136.24,-110.06C3658.2,-65.78 3792.92,-106.39 4311.5,-74 4314.16,-73.83 4316.87,-73.65 4319.6,-73.46"/>
<polygon fill="#63b8ff" stroke="#63b8ff" points="3135.86,-106.58 3126.19,-110.92 3136.46,-113.55 3135.86,-106.58"/>
</a>
</g>
</g>
<!-- Node38 -->
<g id="Node000038" class="node">
<title>Node38</title>
<g id="a_Node000038"><a xlink:href="../../d4/d47/cdisplaytemplatemgr_8cpp.html" target="_top" xlink:title=" ">
<polygon fill="white" stroke="#666666" points="4641.5,-74 4501.5,-74 4501.5,-55 4641.5,-55 4641.5,-74"/>
<text text-anchor="middle" x="4571.5" y="-62" font-family="Helvetica,sans-Serif" font-size="10.00">cdisplaytemplatemgr.cpp</text>
</a>
</g>
</g>
<!-- Node2&#45;&gt;Node38 -->
<g id="edge38_Node000002_Node000038" class="edge">
<title>Node2&#45;&gt;Node38</title>
<g id="a_edge38_Node000002_Node000038"><a xlink:title=" ">
<path fill="none" stroke="#63b8ff" d="M3136.43,-110.05C3738.46,-60.22 3893.9,-114.08 4492.5,-74 4495.39,-73.81 4498.34,-73.59 4501.31,-73.35"/>
<polygon fill="#63b8ff" stroke="#63b8ff" points="3135.87,-106.58 3126.19,-110.9 3136.45,-113.56 3135.87,-106.58"/>
</a>
</g>
</g>
<!-- Node39 -->
<g id="Node000039" class="node">
<title>Node39</title>
<g id="a_Node000039"><a xlink:href="../../d2/d26/cdisplaywindow_8cpp.html" target="_top" xlink:title=" ">
<polygon fill="white" stroke="#666666" points="4773.5,-74 4659.5,-74 4659.5,-55 4773.5,-55 4773.5,-74"/>
<text text-anchor="middle" x="4716.5" y="-62" font-family="Helvetica,sans-Serif" font-size="10.00">cdisplaywindow.cpp</text>
</a>
</g>
</g>
<!-- Node2&#45;&gt;Node39 -->
<g id="edge39_Node000002_Node000039" class="edge">
<title>Node2&#45;&gt;Node39</title>
<g id="a_edge39_Node000002_Node000039"><a xlink:title=" ">
<path fill="none" stroke="#63b8ff" d="M3136.62,-110.04C3808.53,-55.39 3982.36,-124.82 4650.5,-74 4653.38,-73.78 4656.33,-73.52 4659.3,-73.24"/>
<polygon fill="#63b8ff" stroke="#63b8ff" points="3135.87,-106.59 3126.19,-110.89 3136.44,-113.56 3135.87,-106.59"/>
</a>
</g>
</g>
<!-- Node40 -->
<g id="Node000040" class="node">
<title>Node40</title>
<g id="a_Node000040"><a xlink:href="../../d7/d5d/cmoduleresultview_8cpp.html" target="_top" xlink:title=" ">
<polygon fill="white" stroke="#666666" points="4921,-74 4792,-74 4792,-55 4921,-55 4921,-74"/>
<text text-anchor="middle" x="4856.5" y="-62" font-family="Helvetica,sans-Serif" font-size="10.00">cmoduleresultview.cpp</text>
</a>
</g>
</g>
<!-- Node2&#45;&gt;Node40 -->
<g id="edge40_Node000002_Node000040" class="edge">
<title>Node2&#45;&gt;Node40</title>
<g id="a_edge40_Node000002_Node000040"><a xlink:title=" ">
<path fill="none" stroke="#63b8ff" d="M3136.17,-110.08C3866.96,-51.2 4055.32,-123.6 4782.5,-74 4785.6,-73.79 4788.76,-73.54 4791.96,-73.27"/>
<polygon fill="#63b8ff" stroke="#63b8ff" points="3135.88,-106.59 3126.19,-110.89 3136.44,-113.57 3135.88,-106.59"/>
</a>
</g>
</g>
<!-- Node41 -->
<g id="Node000041" class="node">
<title>Node41</title>
<g id="a_Node000041"><a xlink:href="../../d2/d9d/crangechooserdialog_8cpp.html" target="_top" xlink:title=" ">
<polygon fill="white" stroke="#666666" points="5077.5,-74 4939.5,-74 4939.5,-55 5077.5,-55 5077.5,-74"/>
<text text-anchor="middle" x="5008.5" y="-62" font-family="Helvetica,sans-Serif" font-size="10.00">crangechooserdialog.cpp</text>
</a>
</g>
</g>
<!-- Node2&#45;&gt;Node41 -->
<g id="edge41_Node000002_Node000041" class="edge">
<title>Node2&#45;&gt;Node41</title>
<g id="a_edge41_Node000002_Node000041"><a xlink:title=" ">
<path fill="none" stroke="#63b8ff" d="M3136.18,-110.08C3932.56,-46.58 4137.52,-125.06 4930.5,-74 4933.35,-73.82 4936.27,-73.61 4939.21,-73.37"/>
<polygon fill="#63b8ff" stroke="#63b8ff" points="3135.88,-106.59 3126.19,-110.88 3136.44,-113.57 3135.88,-106.59"/>
</a>
</g>
</g>
<!-- Node42 -->
<g id="Node000042" class="node">
<title>Node42</title>
<g id="a_Node000042"><a xlink:href="../../d9/d7b/cswordbackend_8cpp.html" target="_top" xlink:title=" ">
<polygon fill="white" stroke="#666666" points="5207.5,-74 5095.5,-74 5095.5,-55 5207.5,-55 5207.5,-74"/>
<text text-anchor="middle" x="5151.5" y="-62" font-family="Helvetica,sans-Serif" font-size="10.00">cswordbackend.cpp</text>
</a>
</g>
</g>
<!-- Node2&#45;&gt;Node42 -->
<g id="edge42_Node000002_Node000042" class="edge">
<title>Node2&#45;&gt;Node42</title>
<g id="a_edge42_Node000002_Node000042"><a xlink:title=" ">
<path fill="none" stroke="#63b8ff" d="M3136.4,-110.06C4001.75,-41.81 4225.01,-138.08 5086.5,-74 5089.34,-73.79 5092.24,-73.54 5095.17,-73.26"/>
<polygon fill="#63b8ff" stroke="#63b8ff" points="3135.88,-106.59 3126.19,-110.87 3136.44,-113.57 3135.88,-106.59"/>
</a>
</g>
</g>
<!-- Node43 -->
<g id="Node000043" class="node">
<title>Node43</title>
<g id="a_Node000043"><a xlink:href="../../d4/d94/cswordbiblemoduleinfo_8cpp.html" target="_top" xlink:title=" ">
<polygon fill="white" stroke="#666666" points="5377,-74 5226,-74 5226,-55 5377,-55 5377,-74"/>
<text text-anchor="middle" x="5301.5" y="-62" font-family="Helvetica,sans-Serif" font-size="10.00">cswordbiblemoduleinfo.cpp</text>
</a>
</g>
</g>
<!-- Node2&#45;&gt;Node43 -->
<g id="edge43_Node000002_Node000043" class="edge">
<title>Node2&#45;&gt;Node43</title>
<g id="a_edge43_Node000002_Node000043"><a xlink:title=" ">
<path fill="none" stroke="#63b8ff" d="M3136.4,-110.07C4059.37,-37.65 4296.44,-127.87 5216.5,-74 5219.61,-73.82 5222.78,-73.61 5225.98,-73.38"/>
<polygon fill="#63b8ff" stroke="#63b8ff" points="3135.88,-106.59 3126.19,-110.87 3136.43,-113.57 3135.88,-106.59"/>
</a>
</g>
</g>
<!-- Node44 -->
<g id="Node000044" class="node">
<title>Node44</title>
<g id="a_Node000044"><a xlink:href="../../d3/db9/cswordmoduleinfo_8cpp.html" target="_top" xlink:title=" ">
<polygon fill="white" stroke="#666666" points="5522,-74 5395,-74 5395,-55 5522,-55 5522,-74"/>
<text text-anchor="middle" x="5458.5" y="-62" font-family="Helvetica,sans-Serif" font-size="10.00">cswordmoduleinfo.cpp</text>
</a>
</g>
</g>
<!-- Node2&#45;&gt;Node44 -->
<g id="edge44_Node000002_Node000044" class="edge">
<title>Node2&#45;&gt;Node44</title>
<g id="a_edge44_Node000002_Node000044"><a xlink:title=" ">
<path fill="none" stroke="#63b8ff" d="M3136.49,-110.06C4134.75,-32.42 4391.57,-140.51 5386.5,-74 5389.26,-73.82 5392.08,-73.6 5394.93,-73.36"/>
<polygon fill="#63b8ff" stroke="#63b8ff" points="3135.89,-106.6 3126.19,-110.87 3136.43,-113.58 3135.89,-106.6"/>
</a>
</g>
</g>
<!-- Node45 -->
<g id="Node000045" class="node">
<title>Node45</title>
<g id="a_Node000045"><a xlink:href="../../dd/d03/cswordmodulesearch_8cpp.html" target="_top" xlink:title=" ">
<polygon fill="white" stroke="#666666" points="5680.5,-74 5540.5,-74 5540.5,-55 5680.5,-55 5680.5,-74"/>
<text text-anchor="middle" x="5610.5" y="-62" font-family="Helvetica,sans-Serif" font-size="10.00">cswordmodulesearch.cpp</text>
</a>
</g>
</g>
<!-- Node2&#45;&gt;Node45 -->
<g id="edge45_Node000002_Node000045" class="edge">
<title>Node2&#45;&gt;Node45</title>
<g id="a_edge45_Node000002_Node000045"><a xlink:title=" ">
<path fill="none" stroke="#63b8ff" d="M3136.36,-110.07C4199.01,-27.85 4471.85,-138.83 5531.5,-74 5534.39,-73.82 5537.34,-73.62 5540.32,-73.39"/>
<polygon fill="#63b8ff" stroke="#63b8ff" points="3135.89,-106.6 3126.19,-110.86 3136.43,-113.58 3135.89,-106.6"/>
</a>
</g>
</g>
<!-- Node46 -->
<g id="Node000046" class="node">
<title>Node46</title>
<g id="a_Node000046"><a xlink:href="../../db/d72/ctextrendering_8cpp.html" target="_top" xlink:title=" ">
<polygon fill="white" stroke="#666666" points="5806.5,-74 5698.5,-74 5698.5,-55 5806.5,-55 5806.5,-74"/>
<text text-anchor="middle" x="5752.5" y="-62" font-family="Helvetica,sans-Serif" font-size="10.00">ctextrendering.cpp</text>
</a>
</g>
</g>
<!-- Node2&#45;&gt;Node46 -->
<g id="edge46_Node000002_Node000046" class="edge">
<title>Node2&#45;&gt;Node46</title>
<g id="a_edge46_Node000002_Node000046"><a xlink:title=" ">
<path fill="none" stroke="#63b8ff" d="M3136.2,-110.09C4269.03,-23 4560.71,-157.8 5689.5,-74 5692.36,-73.79 5695.29,-73.53 5698.25,-73.24"/>
<polygon fill="#63b8ff" stroke="#63b8ff" points="3135.89,-106.6 3126.19,-110.86 3136.43,-113.58 3135.89,-106.6"/>
</a>
</g>
</g>
<!-- Node47 -->
<g id="Node000047" class="node">
<title>Node47</title>
<g id="a_Node000047"><a xlink:href="../../d4/d4d/gbftohtml_8cpp.html" target="_top" xlink:title=" ">
<polygon fill="white" stroke="#666666" points="5908.5,-74 5824.5,-74 5824.5,-55 5908.5,-55 5908.5,-74"/>
<text text-anchor="middle" x="5866.5" y="-62" font-family="Helvetica,sans-Serif" font-size="10.00">gbftohtml.cpp</text>
</a>
</g>
</g>
<!-- Node2&#45;&gt;Node47 -->
<g id="edge47_Node000002_Node000047" class="edge">
<title>Node2&#45;&gt;Node47</title>
<g id="a_edge47_Node000002_Node000047"><a xlink:title=" ">
<path fill="none" stroke="#63b8ff" d="M3136.43,-110.08C3746.08,-64.84 5225.59,-126.81 5815.5,-74 5818.36,-73.74 5821.3,-73.42 5824.26,-73.05"/>
<polygon fill="#63b8ff" stroke="#63b8ff" points="3135.9,-106.61 3126.19,-110.86 3136.43,-113.59 3135.9,-106.61"/>
</a>
</g>
</g>
<!-- Node48 -->
<g id="Node000048" class="node">
<title>Node48</title>
<g id="a_Node000048"><a xlink:href="../../db/d7a/osistohtml_8cpp.html" target="_top" xlink:title=" ">
<polygon fill="white" stroke="#666666" points="6015,-74 5926,-74 5926,-55 6015,-55 6015,-74"/>
<text text-anchor="middle" x="5970.5" y="-62" font-family="Helvetica,sans-Serif" font-size="10.00">osistohtml.cpp</text>
</a>
</g>
</g>
<!-- Node2&#45;&gt;Node48 -->
<g id="edge49_Node000002_Node000048" class="edge">
<title>Node2&#45;&gt;Node48</title>
<g id="a_edge49_Node000002_Node000048"><a xlink:title=" ">
<path fill="none" stroke="#63b8ff" d="M3136.35,-110.09C3768.57,-63.23 5304.82,-126.81 5917.5,-74 5920.19,-73.77 5922.96,-73.48 5925.74,-73.15"/>
<polygon fill="#63b8ff" stroke="#63b8ff" points="3135.9,-106.61 3126.19,-110.85 3136.42,-113.59 3135.9,-106.61"/>
</a>
</g>
</g>
<!-- Node49 -->
<g id="Node000049" class="node">
<title>Node49</title>
<g id="a_Node000049"><a xlink:href="../../d7/dfe/referencemanager_8cpp.html" target="_top" xlink:title=" ">
<polygon fill="white" stroke="#666666" points="6159.5,-74 6033.5,-74 6033.5,-55 6159.5,-55 6159.5,-74"/>
<text text-anchor="middle" x="6096.5" y="-62" font-family="Helvetica,sans-Serif" font-size="10.00">referencemanager.cpp</text>
</a>
</g>
</g>
<!-- Node2&#45;&gt;Node49 -->
<g id="edge50_Node000002_Node000049" class="edge">
<title>Node2&#45;&gt;Node49</title>
<g id="a_edge50_Node000002_Node000049"><a xlink:title=" ">
<path fill="none" stroke="#63b8ff" d="M3136.56,-110.06C4417.6,-12.52 4746.55,-157.17 6024.5,-74 6027.39,-73.81 6030.34,-73.59 6033.32,-73.34"/>
<polygon fill="#63b8ff" stroke="#63b8ff" points="3135.89,-106.6 3126.19,-110.85 3136.43,-113.58 3135.89,-106.6"/>
</a>
</g>
</g>
<!-- Node50 -->
<g id="Node000050" class="node">
<title>Node50</title>
<g id="a_Node000050"><a xlink:href="../../d5/de5/teitohtml_8cpp.html" target="_top" xlink:title=" ">
<polygon fill="white" stroke="#666666" points="6259.5,-74 6177.5,-74 6177.5,-55 6259.5,-55 6259.5,-74"/>
<text text-anchor="middle" x="6218.5" y="-62" font-family="Helvetica,sans-Serif" font-size="10.00">teitohtml.cpp</text>
</a>
</g>
</g>
<!-- Node2&#45;&gt;Node50 -->
<g id="edge51_Node000002_Node000050" class="edge">
<title>Node2&#45;&gt;Node50</title>
<g id="a_edge51_Node000002_Node000050"><a xlink:title=" ">
<path fill="none" stroke="#63b8ff" d="M3136.24,-110.1C3824.06,-59.36 5500.47,-134.37 6168.5,-74 6171.39,-73.74 6174.37,-73.4 6177.37,-73.02"/>
<polygon fill="#63b8ff" stroke="#63b8ff" points="3135.9,-106.61 3126.19,-110.85 3136.42,-113.59 3135.9,-106.61"/>
</a>
</g>
</g>
<!-- Node51 -->
<g id="Node000051" class="node">
<title>Node51</title>
<g id="a_Node000051"><a xlink:href="../../d9/de8/thmltohtml_8cpp.html" target="_top" xlink:title=" ">
<polygon fill="white" stroke="#666666" points="6369.5,-74 6277.5,-74 6277.5,-55 6369.5,-55 6369.5,-74"/>
<text text-anchor="middle" x="6323.5" y="-62" font-family="Helvetica,sans-Serif" font-size="10.00">thmltohtml.cpp</text>
</a>
</g>
</g>
<!-- Node2&#45;&gt;Node51 -->
<g id="edge52_Node000002_Node000051" class="edge">
<title>Node2&#45;&gt;Node51</title>
<g id="a_edge52_Node000002_Node000051"><a xlink:title=" ">
<path fill="none" stroke="#63b8ff" d="M3136.31,-110.09C3846.34,-57.76 5577.9,-131.04 6268.5,-74 6271.39,-73.76 6274.36,-73.46 6277.34,-73.12"/>
<polygon fill="#63b8ff" stroke="#63b8ff" points="3135.9,-106.61 3126.19,-110.85 3136.42,-113.59 3135.9,-106.61"/>
</a>
</g>
</g>
<!-- Node6&#45;&gt;Node3 -->
<g id="edge6_Node000006_Node000003" class="edge">
<title>Node6&#45;&gt;Node3</title>
<g id="a_edge6_Node000006_Node000003"><a xlink:title=" ">
<path fill="none" stroke="#63b8ff" d="M141.23,-51.16C117.16,-41.35 84.1,-27.87 62.77,-19.17"/>
<polygon fill="#63b8ff" stroke="#63b8ff" points="140.03,-54.45 150.61,-54.98 142.67,-47.97 140.03,-54.45"/>
</a>
</g>
</g>
<!-- Node6&#45;&gt;Node5 -->
<g id="edge7_Node000006_Node000005" class="edge">
<title>Node6&#45;&gt;Node5</title>
<g id="a_edge7_Node000006_Node000005"><a xlink:title=" ">
<path fill="none" stroke="#63b8ff" d="M164.61,-45.24C161.26,-36.37 157.4,-26.14 154.74,-19.09"/>
<polygon fill="#63b8ff" stroke="#63b8ff" points="161.39,-46.63 168.2,-54.75 167.94,-44.16 161.39,-46.63"/>
</a>
</g>
</g>
<!-- Node6&#45;&gt;Node8 -->
<g id="edge8_Node000006_Node000008" class="edge">
<title>Node6&#45;&gt;Node8</title>
<g id="a_edge8_Node000006_Node000008"><a xlink:title=" ">
<path fill="none" stroke="#63b8ff" d="M192.75,-49.42C207.26,-39.81 226.04,-27.37 238.41,-19.17"/>
<polygon fill="#63b8ff" stroke="#63b8ff" points="190.76,-46.54 184.35,-54.98 194.62,-52.38 190.76,-46.54"/>
</a>
</g>
</g>
<!-- Node16&#45;&gt;Node15 -->
<g id="edge17_Node000016_Node000015" class="edge">
<title>Node16&#45;&gt;Node15</title>
<g id="a_edge17_Node000016_Node000015"><a xlink:title=" ">
<path fill="none" stroke="#63b8ff" d="M1529.23,-47.24C1537.64,-37.95 1547.85,-26.68 1554.72,-19.09"/>
<polygon fill="#63b8ff" stroke="#63b8ff" points="1526.54,-44.99 1522.43,-54.75 1531.73,-49.69 1526.54,-44.99"/>
</a>
</g>
</g>
</g>
</svg>
