<?xml version="1.0" encoding="UTF-8" standalone="no"?>
<!DOCTYPE svg PUBLIC "-//W3C//DTD SVG 1.1//EN"
 "http://www.w3.org/Graphics/SVG/1.1/DTD/svg11.dtd">
<!-- Generated by graphviz version 2.43.0 (0)
 -->
<!-- Title: plaintohtml.h Pages: 1 -->
<svg width="6175pt" height="192pt"
 viewBox="0.00 0.00 6174.50 192.00" xmlns="http://www.w3.org/2000/svg" xmlns:xlink="http://www.w3.org/1999/xlink">
<g id="graph0" class="graph" transform="scale(1 1) rotate(0) translate(4 188)">
<title>plaintohtml.h</title>
<!-- Node1 -->
<g id="Node000001" class="node">
<title>Node1</title>
<g id="a_Node000001"><a xlink:title=" ">
<polygon fill="#999999" stroke="#666666" points="3105.5,-184 3023.5,-184 3023.5,-165 3105.5,-165 3105.5,-184"/>
<text text-anchor="middle" x="3064.5" y="-172" font-family="Helvetica,sans-Serif" font-size="10.00">plaintohtml.h</text>
</a>
</g>
</g>
<!-- Node2 -->
<g id="Node000002" class="node">
<title>Node2</title>
<g id="a_Node000002"><a xlink:href="../../d0/d60/cswordbackend_8h.html" target="_top" xlink:title=" ">
<polygon fill="white" stroke="#666666" points="3058,-129 2957,-129 2957,-110 3058,-110 3058,-129"/>
<text text-anchor="middle" x="3007.5" y="-117" font-family="Helvetica,sans-Serif" font-size="10.00">cswordbackend.h</text>
</a>
</g>
</g>
<!-- Node1&#45;&gt;Node2 -->
<g id="edge1_Node000001_Node000002" class="edge">
<title>Node1&#45;&gt;Node2</title>
<g id="a_edge1_Node000001_Node000002"><a xlink:title=" ">
<path fill="none" stroke="#63b8ff" d="M3047.88,-158.04C3037.77,-148.64 3025.22,-136.98 3016.82,-129.17"/>
<polygon fill="#63b8ff" stroke="#63b8ff" points="3045.64,-160.74 3055.34,-164.98 3050.4,-155.61 3045.64,-160.74"/>
</a>
</g>
</g>
<!-- Node51 -->
<g id="Node000051" class="node">
<title>Node51</title>
<g id="a_Node000051"><a xlink:href="../../da/dd4/plaintohtml_8cpp.html" target="_top" xlink:title=" ">
<polygon fill="white" stroke="#666666" points="3169,-129 3076,-129 3076,-110 3169,-110 3169,-129"/>
<text text-anchor="middle" x="3122.5" y="-117" font-family="Helvetica,sans-Serif" font-size="10.00">plaintohtml.cpp</text>
</a>
</g>
</g>
<!-- Node1&#45;&gt;Node51 -->
<g id="edge52_Node000001_Node000051" class="edge">
<title>Node1&#45;&gt;Node51</title>
<g id="a_edge52_Node000001_Node000051"><a xlink:title=" ">
<path fill="none" stroke="#63b8ff" d="M3081.41,-158.04C3091.7,-148.64 3104.47,-136.98 3113.01,-129.17"/>
<polygon fill="#63b8ff" stroke="#63b8ff" points="3078.84,-155.66 3073.82,-164.98 3083.56,-160.82 3078.84,-155.66"/>
</a>
</g>
</g>
<!-- Node3 -->
<g id="Node000003" class="node">
<title>Node3</title>
<g id="a_Node000003"><a xlink:href="../../d1/df6/bibletime_8cpp.html" target="_top" xlink:title=" ">
<polygon fill="white" stroke="#666666" points="83,-19 0,-19 0,0 83,0 83,-19"/>
<text text-anchor="middle" x="41.5" y="-7" font-family="Helvetica,sans-Serif" font-size="10.00">bibletime.cpp</text>
</a>
</g>
</g>
<!-- Node2&#45;&gt;Node3 -->
<g id="edge2_Node000002_Node000003" class="edge">
<title>Node2&#45;&gt;Node3</title>
<g id="a_edge2_Node000002_Node000003"><a xlink:title=" ">
<path fill="none" stroke="#63b8ff" d="M2946.45,-118.37C2532.13,-117.35 147.38,-109.98 82.5,-74 60.93,-62.04 48.93,-33.4 44.07,-19.03"/>
<polygon fill="#63b8ff" stroke="#63b8ff" points="2946.71,-121.87 2956.72,-118.39 2946.73,-114.87 2946.71,-121.87"/>
</a>
</g>
</g>
<!-- Node4 -->
<g id="Node000004" class="node">
<title>Node4</title>
<g id="a_Node000004"><a xlink:href="../../d6/d96/bibletime__slots_8cpp.html" target="_top" xlink:title=" ">
<polygon fill="white" stroke="#666666" points="203.5,-74 91.5,-74 91.5,-55 203.5,-55 203.5,-74"/>
<text text-anchor="middle" x="147.5" y="-62" font-family="Helvetica,sans-Serif" font-size="10.00">bibletime_slots.cpp</text>
</a>
</g>
</g>
<!-- Node2&#45;&gt;Node4 -->
<g id="edge3_Node000002_Node000004" class="edge">
<title>Node2&#45;&gt;Node4</title>
<g id="a_edge3_Node000002_Node000004"><a xlink:title=" ">
<path fill="none" stroke="#63b8ff" d="M2946.9,-118.48C2591.14,-118.2 770.57,-114.8 212.5,-74 209.66,-73.79 206.76,-73.54 203.83,-73.27"/>
<polygon fill="#63b8ff" stroke="#63b8ff" points="2946.99,-121.98 2957,-118.48 2947,-114.98 2946.99,-121.98"/>
</a>
</g>
</g>
<!-- Node5 -->
<g id="Node000005" class="node">
<title>Node5</title>
<g id="a_Node000005"><a xlink:href="../../d5/d00/bibletimeapp_8h.html" target="_top" xlink:title=" ">
<polygon fill="white" stroke="#666666" points="311.5,-74 221.5,-74 221.5,-55 311.5,-55 311.5,-74"/>
<text text-anchor="middle" x="266.5" y="-62" font-family="Helvetica,sans-Serif" font-size="10.00">bibletimeapp.h</text>
</a>
</g>
</g>
<!-- Node2&#45;&gt;Node5 -->
<g id="edge4_Node000002_Node000005" class="edge">
<title>Node2&#45;&gt;Node5</title>
<g id="a_edge4_Node000002_Node000005"><a xlink:title=" ">
<path fill="none" stroke="#63b8ff" d="M2946.87,-118.54C2599.56,-118.6 859.45,-116.72 325.5,-74 320.96,-73.64 316.24,-73.15 311.53,-72.59"/>
<polygon fill="#63b8ff" stroke="#63b8ff" points="2946.97,-122.04 2956.97,-118.54 2946.97,-115.04 2946.97,-122.04"/>
</a>
</g>
</g>
<!-- Node8 -->
<g id="Node000008" class="node">
<title>Node8</title>
<g id="a_Node000008"><a xlink:href="../../df/d0a/main_8cpp.html" target="_top" xlink:title=" ">
<polygon fill="white" stroke="#666666" points="405.5,-19 343.5,-19 343.5,0 405.5,0 405.5,-19"/>
<text text-anchor="middle" x="374.5" y="-7" font-family="Helvetica,sans-Serif" font-size="10.00">main.cpp</text>
</a>
</g>
</g>
<!-- Node2&#45;&gt;Node8 -->
<g id="edge47_Node000002_Node000008" class="edge">
<title>Node2&#45;&gt;Node8</title>
<g id="a_edge47_Node000002_Node000008"><a xlink:title=" ">
<path fill="none" stroke="#63b8ff" d="M2946.47,-118.65C2554.48,-119.45 405.39,-121.68 358.5,-74 343.83,-59.08 358.52,-32.81 367.93,-19.2"/>
<polygon fill="#63b8ff" stroke="#63b8ff" points="2946.76,-122.15 2956.75,-118.63 2946.74,-115.15 2946.76,-122.15"/>
</a>
</g>
</g>
<!-- Node9 -->
<g id="Node000009" class="node">
<title>Node9</title>
<g id="a_Node000009"><a xlink:href="../../d7/dd0/btbookmarksmodel_8cpp.html" target="_top" xlink:title=" ">
<polygon fill="white" stroke="#666666" points="499.5,-74 367.5,-74 367.5,-55 499.5,-55 499.5,-74"/>
<text text-anchor="middle" x="433.5" y="-62" font-family="Helvetica,sans-Serif" font-size="10.00">btbookmarksmodel.cpp</text>
</a>
</g>
</g>
<!-- Node2&#45;&gt;Node9 -->
<g id="edge9_Node000002_Node000009" class="edge">
<title>Node2&#45;&gt;Node9</title>
<g id="a_edge9_Node000002_Node000009"><a xlink:title=" ">
<path fill="none" stroke="#63b8ff" d="M2946.57,-118.2C2612.93,-116.45 1004.31,-106.44 508.5,-74 505.62,-73.81 502.69,-73.59 499.72,-73.35"/>
<polygon fill="#63b8ff" stroke="#63b8ff" points="2946.97,-121.7 2956.99,-118.26 2947.01,-114.7 2946.97,-121.7"/>
</a>
</g>
</g>
<!-- Node10 -->
<g id="Node000010" class="node">
<title>Node10</title>
<g id="a_Node000010"><a xlink:href="../../df/d88/btbookshelfdockwidget_8cpp.html" target="_top" xlink:title=" ">
<polygon fill="white" stroke="#666666" points="669,-74 518,-74 518,-55 669,-55 669,-74"/>
<text text-anchor="middle" x="593.5" y="-62" font-family="Helvetica,sans-Serif" font-size="10.00">btbookshelfdockwidget.cpp</text>
</a>
</g>
</g>
<!-- Node2&#45;&gt;Node10 -->
<g id="edge10_Node000002_Node000010" class="edge">
<title>Node2&#45;&gt;Node10</title>
<g id="a_edge10_Node000002_Node000010"><a xlink:title=" ">
<path fill="none" stroke="#63b8ff" d="M2946.6,-118.01C2626.71,-115.35 1137.95,-101.65 677.5,-74 674.72,-73.83 671.89,-73.64 669.03,-73.44"/>
<polygon fill="#63b8ff" stroke="#63b8ff" points="2946.58,-121.51 2956.61,-118.1 2946.63,-114.51 2946.58,-121.51"/>
</a>
</g>
</g>
<!-- Node11 -->
<g id="Node000011" class="node">
<title>Node11</title>
<g id="a_Node000011"><a xlink:href="../../dc/d04/btbookshelfinstallfinalpage_8cpp.html" target="_top" xlink:title=" ">
<polygon fill="white" stroke="#666666" points="856,-74 687,-74 687,-55 856,-55 856,-74"/>
<text text-anchor="middle" x="771.5" y="-62" font-family="Helvetica,sans-Serif" font-size="10.00">btbookshelfinstallfinalpage.cpp</text>
</a>
</g>
</g>
<!-- Node2&#45;&gt;Node11 -->
<g id="edge11_Node000002_Node000011" class="edge">
<title>Node2&#45;&gt;Node11</title>
<g id="a_edge11_Node000002_Node000011"><a xlink:title=" ">
<path fill="none" stroke="#63b8ff" d="M2946.68,-118.8C2692.24,-119.74 1688.13,-120.13 864.5,-74 861.75,-73.85 858.95,-73.67 856.13,-73.49"/>
<polygon fill="#63b8ff" stroke="#63b8ff" points="2946.84,-122.3 2956.83,-118.76 2946.81,-115.3 2946.84,-122.3"/>
</a>
</g>
</g>
<!-- Node12 -->
<g id="Node000012" class="node">
<title>Node12</title>
<g id="a_Node000012"><a xlink:href="../../d0/da5/btbookshelflanguagespage_8cpp.html" target="_top" xlink:title=" ">
<polygon fill="white" stroke="#666666" points="1041.5,-74 873.5,-74 873.5,-55 1041.5,-55 1041.5,-74"/>
<text text-anchor="middle" x="957.5" y="-62" font-family="Helvetica,sans-Serif" font-size="10.00">btbookshelflanguagespage.cpp</text>
</a>
</g>
</g>
<!-- Node2&#45;&gt;Node12 -->
<g id="edge12_Node000002_Node000012" class="edge">
<title>Node2&#45;&gt;Node12</title>
<g id="a_edge12_Node000002_Node000012"><a xlink:title=" ">
<path fill="none" stroke="#63b8ff" d="M2946.47,-118.65C2705.4,-118.94 1796.24,-116.93 1049.5,-74 1046.94,-73.85 1044.34,-73.69 1041.71,-73.52"/>
<polygon fill="#63b8ff" stroke="#63b8ff" points="2946.78,-122.15 2956.77,-118.64 2946.77,-115.15 2946.78,-122.15"/>
</a>
</g>
</g>
<!-- Node13 -->
<g id="Node000013" class="node">
<title>Node13</title>
<g id="a_Node000013"><a xlink:href="../../d0/da0/btbookshelfremovefinalpage_8cpp.html" target="_top" xlink:title=" ">
<polygon fill="white" stroke="#666666" points="1236,-74 1059,-74 1059,-55 1236,-55 1236,-74"/>
<text text-anchor="middle" x="1147.5" y="-62" font-family="Helvetica,sans-Serif" font-size="10.00">btbookshelfremovefinalpage.cpp</text>
</a>
</g>
</g>
<!-- Node2&#45;&gt;Node13 -->
<g id="edge13_Node000002_Node000013" class="edge">
<title>Node2&#45;&gt;Node13</title>
<g id="a_edge13_Node000002_Node000013"><a xlink:title=" ">
<path fill="none" stroke="#63b8ff" d="M2946.67,-118.33C2721.08,-117.43 1911.02,-111.58 1244.5,-74 1241.72,-73.84 1238.89,-73.67 1236.03,-73.49"/>
<polygon fill="#63b8ff" stroke="#63b8ff" points="2946.95,-121.83 2956.96,-118.37 2946.98,-114.83 2946.95,-121.83"/>
</a>
</g>
</g>
<!-- Node14 -->
<g id="Node000014" class="node">
<title>Node14</title>
<g id="a_Node000014"><a xlink:href="../../de/db2/btbookshelftaskpage_8cpp.html" target="_top" xlink:title=" ">
<polygon fill="white" stroke="#666666" points="1393,-74 1254,-74 1254,-55 1393,-55 1393,-74"/>
<text text-anchor="middle" x="1323.5" y="-62" font-family="Helvetica,sans-Serif" font-size="10.00">btbookshelftaskpage.cpp</text>
</a>
</g>
</g>
<!-- Node2&#45;&gt;Node14 -->
<g id="edge14_Node000002_Node000014" class="edge">
<title>Node2&#45;&gt;Node14</title>
<g id="a_edge14_Node000002_Node000014"><a xlink:title=" ">
<path fill="none" stroke="#63b8ff" d="M2946.69,-118.41C2734.43,-117.74 2006.77,-112.6 1407.5,-74 1402.82,-73.7 1398,-73.34 1393.14,-72.94"/>
<polygon fill="#63b8ff" stroke="#63b8ff" points="2946.99,-121.91 2957,-118.44 2947.01,-114.91 2946.99,-121.91"/>
</a>
</g>
</g>
<!-- Node15 -->
<g id="Node000015" class="node">
<title>Node15</title>
<g id="a_Node000015"><a xlink:href="../../d9/d03/btbookshelfworkspage_8cpp.html" target="_top" xlink:title=" ">
<polygon fill="white" stroke="#666666" points="1543,-19 1396,-19 1396,0 1543,0 1543,-19"/>
<text text-anchor="middle" x="1469.5" y="-7" font-family="Helvetica,sans-Serif" font-size="10.00">btbookshelfworkspage.cpp</text>
</a>
</g>
</g>
<!-- Node2&#45;&gt;Node15 -->
<g id="edge15_Node000002_Node000015" class="edge">
<title>Node2&#45;&gt;Node15</title>
<g id="a_edge15_Node000002_Node000015"><a xlink:title=" ">
<path fill="none" stroke="#63b8ff" d="M2946.6,-117.92C2661.03,-115.06 1467.22,-101.49 1440.5,-74 1425.13,-58.18 1446.27,-32.76 1459.78,-19.39"/>
<polygon fill="#63b8ff" stroke="#63b8ff" points="2946.74,-121.42 2956.77,-118.02 2946.81,-114.42 2946.74,-121.42"/>
</a>
</g>
</g>
<!-- Node16 -->
<g id="Node000016" class="node">
<title>Node16</title>
<g id="a_Node000016"><a xlink:href="../../d6/d8d/btbookshelfworkspage_8h.html" target="_top" xlink:title=" ">
<polygon fill="#fff0f0" stroke="red" points="1585.5,-74 1449.5,-74 1449.5,-55 1585.5,-55 1585.5,-74"/>
<text text-anchor="middle" x="1517.5" y="-62" font-family="Helvetica,sans-Serif" font-size="10.00">btbookshelfworkspage.h</text>
</a>
</g>
</g>
<!-- Node2&#45;&gt;Node16 -->
<g id="edge16_Node000002_Node000016" class="edge">
<title>Node2&#45;&gt;Node16</title>
<g id="a_edge16_Node000002_Node000016"><a xlink:title=" ">
<path fill="none" stroke="#63b8ff" d="M2946.63,-118.29C2750.43,-117.24 2117.02,-111.01 1594.5,-74 1591.68,-73.8 1588.81,-73.58 1585.91,-73.33"/>
<polygon fill="#63b8ff" stroke="#63b8ff" points="2946.72,-121.79 2956.74,-118.34 2946.75,-114.79 2946.72,-121.79"/>
</a>
</g>
</g>
<!-- Node18 -->
<g id="Node000018" class="node">
<title>Node18</title>
<g id="a_Node000018"><a xlink:href="../../de/d4e/btconfig_8cpp.html" target="_top" xlink:title=" ">
<polygon fill="white" stroke="#666666" points="1679.5,-74 1603.5,-74 1603.5,-55 1679.5,-55 1679.5,-74"/>
<text text-anchor="middle" x="1641.5" y="-62" font-family="Helvetica,sans-Serif" font-size="10.00">btconfig.cpp</text>
</a>
</g>
</g>
<!-- Node2&#45;&gt;Node18 -->
<g id="edge18_Node000002_Node000018" class="edge">
<title>Node2&#45;&gt;Node18</title>
<g id="a_edge18_Node000002_Node000018"><a xlink:title=" ">
<path fill="none" stroke="#63b8ff" d="M2946.67,-117.59C2721.87,-114.05 1938.16,-100.08 1689.5,-74 1686.3,-73.66 1683,-73.24 1679.68,-72.76"/>
<polygon fill="#63b8ff" stroke="#63b8ff" points="2946.9,-121.09 2956.95,-117.75 2947.01,-114.1 2946.9,-121.09"/>
</a>
</g>
</g>
<!-- Node19 -->
<g id="Node000019" class="node">
<title>Node19</title>
<g id="a_Node000019"><a xlink:href="../../d5/d72/btfontsettings_8cpp.html" target="_top" xlink:title=" ">
<polygon fill="white" stroke="#666666" points="1803,-74 1698,-74 1698,-55 1803,-55 1803,-74"/>
<text text-anchor="middle" x="1750.5" y="-62" font-family="Helvetica,sans-Serif" font-size="10.00">btfontsettings.cpp</text>
</a>
</g>
</g>
<!-- Node2&#45;&gt;Node19 -->
<g id="edge19_Node000002_Node000019" class="edge">
<title>Node2&#45;&gt;Node19</title>
<g id="a_edge19_Node000002_Node000019"><a xlink:title=" ">
<path fill="none" stroke="#63b8ff" d="M2946.62,-118.36C2770.59,-117.49 2245.96,-111.69 1812.5,-74 1809.47,-73.74 1806.36,-73.43 1803.23,-73.09"/>
<polygon fill="#63b8ff" stroke="#63b8ff" points="2946.71,-121.86 2956.72,-118.41 2946.74,-114.86 2946.71,-121.86"/>
</a>
</g>
</g>
<!-- Node20 -->
<g id="Node000020" class="node">
<title>Node20</title>
<g id="a_Node000020"><a xlink:href="../../d4/d57/btindexdialog_8cpp.html" target="_top" xlink:title=" ">
<polygon fill="white" stroke="#666666" points="1925.5,-74 1821.5,-74 1821.5,-55 1925.5,-55 1925.5,-74"/>
<text text-anchor="middle" x="1873.5" y="-62" font-family="Helvetica,sans-Serif" font-size="10.00">btindexdialog.cpp</text>
</a>
</g>
</g>
<!-- Node2&#45;&gt;Node20 -->
<g id="edge20_Node000002_Node000020" class="edge">
<title>Node2&#45;&gt;Node20</title>
<g id="a_edge20_Node000002_Node000020"><a xlink:title=" ">
<path fill="none" stroke="#63b8ff" d="M2946.47,-118.04C2782.45,-116.35 2318.57,-108.64 1934.5,-74 1931.62,-73.74 1928.68,-73.44 1925.71,-73.11"/>
<polygon fill="#63b8ff" stroke="#63b8ff" points="2946.8,-121.54 2956.83,-118.14 2946.87,-114.54 2946.8,-121.54"/>
</a>
</g>
</g>
<!-- Node21 -->
<g id="Node000021" class="node">
<title>Node21</title>
<g id="a_Node000021"><a xlink:href="../../da/d1a/btinforendering_8cpp.html" target="_top" xlink:title=" ">
<polygon fill="white" stroke="#666666" points="2055.5,-74 1943.5,-74 1943.5,-55 2055.5,-55 2055.5,-74"/>
<text text-anchor="middle" x="1999.5" y="-62" font-family="Helvetica,sans-Serif" font-size="10.00">btinforendering.cpp</text>
</a>
</g>
</g>
<!-- Node2&#45;&gt;Node21 -->
<g id="edge21_Node000002_Node000021" class="edge">
<title>Node2&#45;&gt;Node21</title>
<g id="a_edge21_Node000002_Node000021"><a xlink:title=" ">
<path fill="none" stroke="#63b8ff" d="M2946.48,-117.33C2796.37,-114.07 2397.19,-103.14 2065.5,-74 2062.28,-73.72 2058.97,-73.39 2055.64,-73.04"/>
<polygon fill="#63b8ff" stroke="#63b8ff" points="2946.78,-120.83 2956.86,-117.55 2946.93,-113.84 2946.78,-120.83"/>
</a>
</g>
</g>
<!-- Node22 -->
<g id="Node000022" class="node">
<title>Node22</title>
<g id="a_Node000022"><a xlink:href="../../db/dd7/btinstallbackend_8cpp.html" target="_top" xlink:title=" ">
<polygon fill="white" stroke="#666666" points="2191,-74 2074,-74 2074,-55 2191,-55 2191,-74"/>
<text text-anchor="middle" x="2132.5" y="-62" font-family="Helvetica,sans-Serif" font-size="10.00">btinstallbackend.cpp</text>
</a>
</g>
</g>
<!-- Node2&#45;&gt;Node22 -->
<g id="edge22_Node000002_Node000022" class="edge">
<title>Node2&#45;&gt;Node22</title>
<g id="a_edge22_Node000002_Node000022"><a xlink:title=" ">
<path fill="none" stroke="#63b8ff" d="M2946.78,-116.59C2812.2,-112.04 2478.7,-99.03 2200.5,-74 2197.42,-73.72 2194.26,-73.41 2191.08,-73.08"/>
<polygon fill="#63b8ff" stroke="#63b8ff" points="2946.78,-120.09 2956.89,-116.93 2947.02,-113.1 2946.78,-120.09"/>
</a>
</g>
</g>
<!-- Node23 -->
<g id="Node000023" class="node">
<title>Node23</title>
<g id="a_Node000023"><a xlink:href="../../dd/dba/btinstallpagemodel_8cpp.html" target="_top" xlink:title=" ">
<polygon fill="white" stroke="#666666" points="2340,-74 2209,-74 2209,-55 2340,-55 2340,-74"/>
<text text-anchor="middle" x="2274.5" y="-62" font-family="Helvetica,sans-Serif" font-size="10.00">btinstallpagemodel.cpp</text>
</a>
</g>
</g>
<!-- Node2&#45;&gt;Node23 -->
<g id="edge23_Node000002_Node000023" class="edge">
<title>Node2&#45;&gt;Node23</title>
<g id="a_edge23_Node000002_Node000023"><a xlink:title=" ">
<path fill="none" stroke="#63b8ff" d="M2946.54,-115.3C2830.3,-109 2568.94,-93.85 2349.5,-74 2346.5,-73.73 2343.43,-73.44 2340.33,-73.13"/>
<polygon fill="#63b8ff" stroke="#63b8ff" points="2946.49,-118.81 2956.67,-115.85 2946.87,-111.82 2946.49,-118.81"/>
</a>
</g>
</g>
<!-- Node24 -->
<g id="Node000024" class="node">
<title>Node24</title>
<g id="a_Node000024"><a xlink:href="../../d5/daf/btinstallthread_8cpp.html" target="_top" xlink:title=" ">
<polygon fill="white" stroke="#666666" points="2466.5,-74 2358.5,-74 2358.5,-55 2466.5,-55 2466.5,-74"/>
<text text-anchor="middle" x="2412.5" y="-62" font-family="Helvetica,sans-Serif" font-size="10.00">btinstallthread.cpp</text>
</a>
</g>
</g>
<!-- Node2&#45;&gt;Node24 -->
<g id="edge24_Node000002_Node000024" class="edge">
<title>Node2&#45;&gt;Node24</title>
<g id="a_edge24_Node000002_Node000024"><a xlink:title=" ">
<path fill="none" stroke="#63b8ff" d="M2946.7,-114.42C2847.78,-107.56 2645.91,-92.61 2475.5,-74 2472.65,-73.69 2469.72,-73.35 2466.77,-73"/>
<polygon fill="#63b8ff" stroke="#63b8ff" points="2946.59,-117.92 2956.8,-115.12 2947.07,-110.94 2946.59,-117.92"/>
</a>
</g>
</g>
<!-- Node25 -->
<g id="Node000025" class="node">
<title>Node25</title>
<g id="a_Node000025"><a xlink:href="../../de/db2/btmodelviewreaddisplay_8cpp.html" target="_top" xlink:title=" ">
<polygon fill="white" stroke="#666666" points="2640.5,-74 2484.5,-74 2484.5,-55 2640.5,-55 2640.5,-74"/>
<text text-anchor="middle" x="2562.5" y="-62" font-family="Helvetica,sans-Serif" font-size="10.00">btmodelviewreaddisplay.cpp</text>
</a>
</g>
</g>
<!-- Node2&#45;&gt;Node25 -->
<g id="edge25_Node000002_Node000025" class="edge">
<title>Node2&#45;&gt;Node25</title>
<g id="a_edge25_Node000002_Node000025"><a xlink:title=" ">
<path fill="none" stroke="#63b8ff" d="M2946.78,-111.27C2865.25,-101.56 2720.64,-84.33 2633.96,-74.01"/>
<polygon fill="#63b8ff" stroke="#63b8ff" points="2946.54,-114.76 2956.89,-112.47 2947.37,-107.81 2946.54,-114.76"/>
</a>
</g>
</g>
<!-- Node26 -->
<g id="Node000026" class="node">
<title>Node26</title>
<g id="a_Node000026"><a xlink:href="../../de/d93/btmoduletextmodel_8cpp.html" target="_top" xlink:title=" ">
<polygon fill="white" stroke="#666666" points="2792.5,-74 2658.5,-74 2658.5,-55 2792.5,-55 2792.5,-74"/>
<text text-anchor="middle" x="2725.5" y="-62" font-family="Helvetica,sans-Serif" font-size="10.00">btmoduletextmodel.cpp</text>
</a>
</g>
</g>
<!-- Node2&#45;&gt;Node26 -->
<g id="edge26_Node000002_Node000026" class="edge">
<title>Node2&#45;&gt;Node26</title>
<g id="a_edge26_Node000002_Node000026"><a xlink:title=" ">
<path fill="none" stroke="#63b8ff" d="M2952.31,-108.13C2899.44,-98.19 2820.6,-83.37 2771.16,-74.08"/>
<polygon fill="#63b8ff" stroke="#63b8ff" points="2951.72,-111.58 2962.19,-109.98 2953.01,-104.7 2951.72,-111.58"/>
</a>
</g>
</g>
<!-- Node27 -->
<g id="Node000027" class="node">
<title>Node27</title>
<g id="a_Node000027"><a xlink:href="../../d9/d62/btopenworkaction_8cpp.html" target="_top" xlink:title=" ">
<polygon fill="white" stroke="#666666" points="2934.5,-74 2810.5,-74 2810.5,-55 2934.5,-55 2934.5,-74"/>
<text text-anchor="middle" x="2872.5" y="-62" font-family="Helvetica,sans-Serif" font-size="10.00">btopenworkaction.cpp</text>
</a>
</g>
</g>
<!-- Node2&#45;&gt;Node27 -->
<g id="edge27_Node000002_Node000027" class="edge">
<title>Node2&#45;&gt;Node27</title>
<g id="a_edge27_Node000002_Node000027"><a xlink:title=" ">
<path fill="none" stroke="#63b8ff" d="M2976.4,-106.29C2951.38,-96.47 2916.84,-82.91 2894.58,-74.17"/>
<polygon fill="#63b8ff" stroke="#63b8ff" points="2975.22,-109.59 2985.81,-109.98 2977.78,-103.07 2975.22,-109.59"/>
</a>
</g>
</g>
<!-- Node28 -->
<g id="Node000028" class="node">
<title>Node28</title>
<g id="a_Node000028"><a xlink:href="../../de/d6e/btqmlinterface_8cpp.html" target="_top" xlink:title=" ">
<polygon fill="white" stroke="#666666" points="3062,-74 2953,-74 2953,-55 3062,-55 3062,-74"/>
<text text-anchor="middle" x="3007.5" y="-62" font-family="Helvetica,sans-Serif" font-size="10.00">btqmlinterface.cpp</text>
</a>
</g>
</g>
<!-- Node2&#45;&gt;Node28 -->
<g id="edge28_Node000002_Node000028" class="edge">
<title>Node2&#45;&gt;Node28</title>
<g id="a_edge28_Node000002_Node000028"><a xlink:title=" ">
<path fill="none" stroke="#63b8ff" d="M3007.5,-99.66C3007.5,-90.93 3007.5,-80.99 3007.5,-74.09"/>
<polygon fill="#63b8ff" stroke="#63b8ff" points="3004,-99.75 3007.5,-109.75 3011,-99.75 3004,-99.75"/>
</a>
</g>
</g>
<!-- Node29 -->
<g id="Node000029" class="node">
<title>Node29</title>
<g id="a_Node000029"><a xlink:href="../../d9/d0c/btquickwidget_8cpp.html" target="_top" xlink:title=" ">
<polygon fill="white" stroke="#666666" points="3186.5,-74 3080.5,-74 3080.5,-55 3186.5,-55 3186.5,-74"/>
<text text-anchor="middle" x="3133.5" y="-62" font-family="Helvetica,sans-Serif" font-size="10.00">btquickwidget.cpp</text>
</a>
</g>
</g>
<!-- Node2&#45;&gt;Node29 -->
<g id="edge29_Node000002_Node000029" class="edge">
<title>Node2&#45;&gt;Node29</title>
<g id="a_edge29_Node000002_Node000029"><a xlink:title=" ">
<path fill="none" stroke="#63b8ff" d="M3037.15,-106.03C3060.45,-96.23 3092.3,-82.83 3112.89,-74.17"/>
<polygon fill="#63b8ff" stroke="#63b8ff" points="3035.6,-102.88 3027.74,-109.98 3038.32,-109.33 3035.6,-102.88"/>
</a>
</g>
</g>
<!-- Node30 -->
<g id="Node000030" class="node">
<title>Node30</title>
<g id="a_Node000030"><a xlink:href="../../dc/dab/btsearchmodulechooserdialog_8cpp.html" target="_top" xlink:title=" ">
<polygon fill="white" stroke="#666666" points="3388.5,-74 3204.5,-74 3204.5,-55 3388.5,-55 3388.5,-74"/>
<text text-anchor="middle" x="3296.5" y="-62" font-family="Helvetica,sans-Serif" font-size="10.00">btsearchmodulechooserdialog.cpp</text>
</a>
</g>
</g>
<!-- Node2&#45;&gt;Node30 -->
<g id="edge30_Node000002_Node000030" class="edge">
<title>Node2&#45;&gt;Node30</title>
<g id="a_edge30_Node000002_Node000030"><a xlink:title=" ">
<path fill="none" stroke="#63b8ff" d="M3064.06,-108.13C3118.24,-98.19 3199.04,-83.37 3249.7,-74.08"/>
<polygon fill="#63b8ff" stroke="#63b8ff" points="3063.14,-104.74 3053.93,-109.98 3064.4,-111.62 3063.14,-104.74"/>
</a>
</g>
</g>
<!-- Node31 -->
<g id="Node000031" class="node">
<title>Node31</title>
<g id="a_Node000031"><a xlink:href="../../d4/d4d/btsearchoptionsarea_8cpp.html" target="_top" xlink:title=" ">
<polygon fill="white" stroke="#666666" points="3544,-74 3407,-74 3407,-55 3544,-55 3544,-74"/>
<text text-anchor="middle" x="3475.5" y="-62" font-family="Helvetica,sans-Serif" font-size="10.00">btsearchoptionsarea.cpp</text>
</a>
</g>
</g>
<!-- Node2&#45;&gt;Node31 -->
<g id="edge31_Node000002_Node000031" class="edge">
<title>Node2&#45;&gt;Node31</title>
<g id="a_edge31_Node000002_Node000031"><a xlink:title=" ">
<path fill="none" stroke="#63b8ff" d="M3068.46,-110.02C3115.11,-104.78 3303.18,-84.28 3406.72,-73"/>
<polygon fill="#63b8ff" stroke="#63b8ff" points="3067.76,-106.58 3058.22,-111.2 3068.56,-113.53 3067.76,-106.58"/>
</a>
</g>
</g>
<!-- Node32 -->
<g id="Node000032" class="node">
<title>Node32</title>
<g id="a_Node000032"><a xlink:href="../../d6/dfe/btstandardworkstab_8cpp.html" target="_top" xlink:title=" ">
<polygon fill="white" stroke="#666666" points="3696.5,-74 3562.5,-74 3562.5,-55 3696.5,-55 3696.5,-74"/>
<text text-anchor="middle" x="3629.5" y="-62" font-family="Helvetica,sans-Serif" font-size="10.00">btstandardworkstab.cpp</text>
</a>
</g>
</g>
<!-- Node2&#45;&gt;Node32 -->
<g id="edge32_Node000002_Node000032" class="edge">
<title>Node2&#45;&gt;Node32</title>
<g id="a_edge32_Node000002_Node000032"><a xlink:title=" ">
<path fill="none" stroke="#63b8ff" d="M3068.29,-109.99C3284.55,-87.01 3341.1,-93.74 3553.5,-74 3556.41,-73.73 3559.38,-73.44 3562.38,-73.15"/>
<polygon fill="#63b8ff" stroke="#63b8ff" points="3067.78,-106.53 3058.21,-111.07 3068.53,-113.49 3067.78,-106.53"/>
</a>
</g>
</g>
<!-- Node33 -->
<g id="Node000033" class="node">
<title>Node33</title>
<g id="a_Node000033"><a xlink:href="../../d4/d3a/bttextbrowser_8cpp.html" target="_top" xlink:title=" ">
<polygon fill="white" stroke="#666666" points="3818.5,-74 3714.5,-74 3714.5,-55 3818.5,-55 3818.5,-74"/>
<text text-anchor="middle" x="3766.5" y="-62" font-family="Helvetica,sans-Serif" font-size="10.00">bttextbrowser.cpp</text>
</a>
</g>
</g>
<!-- Node2&#45;&gt;Node33 -->
<g id="edge33_Node000002_Node000033" class="edge">
<title>Node2&#45;&gt;Node33</title>
<g id="a_edge33_Node000002_Node000033"><a xlink:title=" ">
<path fill="none" stroke="#63b8ff" d="M3068.38,-110.01C3351.86,-82.51 3426.15,-101.3 3705.5,-74 3708.37,-73.72 3711.32,-73.4 3714.29,-73.06"/>
<polygon fill="#63b8ff" stroke="#63b8ff" points="3067.81,-106.55 3058.2,-111.01 3068.5,-113.52 3067.81,-106.55"/>
</a>
</g>
</g>
<!-- Node34 -->
<g id="Node000034" class="node">
<title>Node34</title>
<g id="a_Node000034"><a xlink:href="../../de/da4/cbiblereadwindow_8cpp.html" target="_top" xlink:title=" ">
<polygon fill="white" stroke="#666666" points="3962,-74 3837,-74 3837,-55 3962,-55 3962,-74"/>
<text text-anchor="middle" x="3899.5" y="-62" font-family="Helvetica,sans-Serif" font-size="10.00">cbiblereadwindow.cpp</text>
</a>
</g>
</g>
<!-- Node2&#45;&gt;Node34 -->
<g id="edge34_Node000002_Node000034" class="edge">
<title>Node2&#45;&gt;Node34</title>
<g id="a_edge34_Node000002_Node000034"><a xlink:title=" ">
<path fill="none" stroke="#63b8ff" d="M3068.26,-110.04C3405.87,-78.71 3493.78,-101.57 3827.5,-74 3830.51,-73.75 3833.59,-73.47 3836.7,-73.18"/>
<polygon fill="#63b8ff" stroke="#63b8ff" points="3067.83,-106.56 3058.2,-110.98 3068.48,-113.53 3067.83,-106.56"/>
</a>
</g>
</g>
<!-- Node35 -->
<g id="Node000035" class="node">
<title>Node35</title>
<g id="a_Node000035"><a xlink:href="../../d9/de6/cbookmarkindex_8cpp.html" target="_top" xlink:title=" ">
<polygon fill="white" stroke="#666666" points="4099,-74 3980,-74 3980,-55 4099,-55 4099,-74"/>
<text text-anchor="middle" x="4039.5" y="-62" font-family="Helvetica,sans-Serif" font-size="10.00">cbookmarkindex.cpp</text>
</a>
</g>
</g>
<!-- Node2&#45;&gt;Node35 -->
<g id="edge35_Node000002_Node000035" class="edge">
<title>Node2&#45;&gt;Node35</title>
<g id="a_edge35_Node000002_Node000035"><a xlink:title=" ">
<path fill="none" stroke="#63b8ff" d="M3068.34,-110.04C3469.69,-74.3 3574.08,-106.69 3971.5,-74 3974.23,-73.78 3977.01,-73.52 3979.83,-73.25"/>
<polygon fill="#63b8ff" stroke="#63b8ff" points="3067.84,-106.57 3058.2,-110.95 3068.47,-113.54 3067.84,-106.57"/>
</a>
</g>
</g>
<!-- Node36 -->
<g id="Node000036" class="node">
<title>Node36</title>
<g id="a_Node000036"><a xlink:href="../../d0/d6f/ccommentaryreadwindow_8cpp.html" target="_top" xlink:title=" ">
<polygon fill="white" stroke="#666666" points="4280,-74 4117,-74 4117,-55 4280,-55 4280,-74"/>
<text text-anchor="middle" x="4198.5" y="-62" font-family="Helvetica,sans-Serif" font-size="10.00">ccommentaryreadwindow.cpp</text>
</a>
</g>
</g>
<!-- Node2&#45;&gt;Node36 -->
<g id="edge36_Node000002_Node000036" class="edge">
<title>Node2&#45;&gt;Node36</title>
<g id="a_edge36_Node000002_Node000036"><a xlink:title=" ">
<path fill="none" stroke="#63b8ff" d="M3068.48,-110.03C3530.41,-69.97 3649.9,-103.56 4108.5,-74 4111.16,-73.83 4113.87,-73.64 4116.6,-73.44"/>
<polygon fill="#63b8ff" stroke="#63b8ff" points="3067.85,-106.57 3058.2,-110.93 3068.46,-113.55 3067.85,-106.57"/>
</a>
</g>
</g>
<!-- Node37 -->
<g id="Node000037" class="node">
<title>Node37</title>
<g id="a_Node000037"><a xlink:href="../../d4/d47/cdisplaytemplatemgr_8cpp.html" target="_top" xlink:title=" ">
<polygon fill="white" stroke="#666666" points="4438.5,-74 4298.5,-74 4298.5,-55 4438.5,-55 4438.5,-74"/>
<text text-anchor="middle" x="4368.5" y="-62" font-family="Helvetica,sans-Serif" font-size="10.00">cdisplaytemplatemgr.cpp</text>
</a>
</g>
</g>
<!-- Node2&#45;&gt;Node37 -->
<g id="edge37_Node000002_Node000037" class="edge">
<title>Node2&#45;&gt;Node37</title>
<g id="a_edge37_Node000002_Node000037"><a xlink:title=" ">
<path fill="none" stroke="#63b8ff" d="M3068.23,-110.06C3610.59,-64.4 3750.73,-110.86 4289.5,-74 4292.39,-73.8 4295.34,-73.58 4298.31,-73.34"/>
<polygon fill="#63b8ff" stroke="#63b8ff" points="3067.86,-106.58 3058.19,-110.91 3068.45,-113.56 3067.86,-106.58"/>
</a>
</g>
</g>
<!-- Node38 -->
<g id="Node000038" class="node">
<title>Node38</title>
<g id="a_Node000038"><a xlink:href="../../d2/d26/cdisplaywindow_8cpp.html" target="_top" xlink:title=" ">
<polygon fill="white" stroke="#666666" points="4570.5,-74 4456.5,-74 4456.5,-55 4570.5,-55 4570.5,-74"/>
<text text-anchor="middle" x="4513.5" y="-62" font-family="Helvetica,sans-Serif" font-size="10.00">cdisplaywindow.cpp</text>
</a>
</g>
</g>
<!-- Node2&#45;&gt;Node38 -->
<g id="edge38_Node000002_Node000038" class="edge">
<title>Node2&#45;&gt;Node38</title>
<g id="a_edge38_Node000002_Node000038"><a xlink:title=" ">
<path fill="none" stroke="#63b8ff" d="M3068.61,-110.04C3680.69,-59.58 3839.21,-120.98 4447.5,-74 4450.38,-73.78 4453.33,-73.52 4456.3,-73.23"/>
<polygon fill="#63b8ff" stroke="#63b8ff" points="3067.87,-106.59 3058.19,-110.9 3068.45,-113.56 3067.87,-106.59"/>
</a>
</g>
</g>
<!-- Node39 -->
<g id="Node000039" class="node">
<title>Node39</title>
<g id="a_Node000039"><a xlink:href="../../d7/d5d/cmoduleresultview_8cpp.html" target="_top" xlink:title=" ">
<polygon fill="white" stroke="#666666" points="4718,-74 4589,-74 4589,-55 4718,-55 4718,-74"/>
<text text-anchor="middle" x="4653.5" y="-62" font-family="Helvetica,sans-Serif" font-size="10.00">cmoduleresultview.cpp</text>
</a>
</g>
</g>
<!-- Node2&#45;&gt;Node39 -->
<g id="edge39_Node000002_Node000039" class="edge">
<title>Node2&#45;&gt;Node39</title>
<g id="a_edge39_Node000002_Node000039"><a xlink:title=" ">
<path fill="none" stroke="#63b8ff" d="M3068.6,-110.04C3739.19,-55.43 3912.35,-120.16 4579.5,-74 4582.6,-73.79 4585.76,-73.54 4588.96,-73.26"/>
<polygon fill="#63b8ff" stroke="#63b8ff" points="3067.87,-106.59 3058.19,-110.89 3068.44,-113.56 3067.87,-106.59"/>
</a>
</g>
</g>
<!-- Node40 -->
<g id="Node000040" class="node">
<title>Node40</title>
<g id="a_Node000040"><a xlink:href="../../d2/d9d/crangechooserdialog_8cpp.html" target="_top" xlink:title=" ">
<polygon fill="white" stroke="#666666" points="4874.5,-74 4736.5,-74 4736.5,-55 4874.5,-55 4874.5,-74"/>
<text text-anchor="middle" x="4805.5" y="-62" font-family="Helvetica,sans-Serif" font-size="10.00">crangechooserdialog.cpp</text>
</a>
</g>
</g>
<!-- Node2&#45;&gt;Node40 -->
<g id="edge40_Node000002_Node000040" class="edge">
<title>Node2&#45;&gt;Node40</title>
<g id="a_edge40_Node000002_Node000040"><a xlink:title=" ">
<path fill="none" stroke="#63b8ff" d="M3068.25,-110.07C3804.73,-50.79 3994.44,-121.8 4727.5,-74 4730.35,-73.81 4733.27,-73.6 4736.2,-73.37"/>
<polygon fill="#63b8ff" stroke="#63b8ff" points="3067.88,-106.59 3058.19,-110.89 3068.44,-113.57 3067.88,-106.59"/>
</a>
</g>
</g>
<!-- Node41 -->
<g id="Node000041" class="node">
<title>Node41</title>
<g id="a_Node000041"><a xlink:href="../../d9/d7b/cswordbackend_8cpp.html" target="_top" xlink:title=" ">
<polygon fill="white" stroke="#666666" points="5004.5,-74 4892.5,-74 4892.5,-55 5004.5,-55 5004.5,-74"/>
<text text-anchor="middle" x="4948.5" y="-62" font-family="Helvetica,sans-Serif" font-size="10.00">cswordbackend.cpp</text>
</a>
</g>
</g>
<!-- Node2&#45;&gt;Node41 -->
<g id="edge41_Node000002_Node000041" class="edge">
<title>Node2&#45;&gt;Node41</title>
<g id="a_edge41_Node000002_Node000041"><a xlink:title=" ">
<path fill="none" stroke="#63b8ff" d="M3068.29,-110.07C3873.89,-46 4081.84,-134.18 4883.5,-74 4886.34,-73.79 4889.24,-73.53 4892.17,-73.25"/>
<polygon fill="#63b8ff" stroke="#63b8ff" points="3067.88,-106.59 3058.19,-110.88 3068.44,-113.57 3067.88,-106.59"/>
</a>
</g>
</g>
<!-- Node42 -->
<g id="Node000042" class="node">
<title>Node42</title>
<g id="a_Node000042"><a xlink:href="../../d4/d94/cswordbiblemoduleinfo_8cpp.html" target="_top" xlink:title=" ">
<polygon fill="white" stroke="#666666" points="5174,-74 5023,-74 5023,-55 5174,-55 5174,-74"/>
<text text-anchor="middle" x="5098.5" y="-62" font-family="Helvetica,sans-Serif" font-size="10.00">cswordbiblemoduleinfo.cpp</text>
</a>
</g>
</g>
<!-- Node2&#45;&gt;Node42 -->
<g id="edge42_Node000002_Node000042" class="edge">
<title>Node2&#45;&gt;Node42</title>
<g id="a_edge42_Node000002_Node000042"><a xlink:title=" ">
<path fill="none" stroke="#63b8ff" d="M3068.38,-110.07C3931.53,-41.86 4153.35,-124.88 5013.5,-74 5016.61,-73.82 5019.78,-73.61 5022.98,-73.37"/>
<polygon fill="#63b8ff" stroke="#63b8ff" points="3067.88,-106.59 3058.19,-110.87 3068.44,-113.57 3067.88,-106.59"/>
</a>
</g>
</g>
<!-- Node43 -->
<g id="Node000043" class="node">
<title>Node43</title>
<g id="a_Node000043"><a xlink:href="../../d3/db9/cswordmoduleinfo_8cpp.html" target="_top" xlink:title=" ">
<polygon fill="white" stroke="#666666" points="5319,-74 5192,-74 5192,-55 5319,-55 5319,-74"/>
<text text-anchor="middle" x="5255.5" y="-62" font-family="Helvetica,sans-Serif" font-size="10.00">cswordmoduleinfo.cpp</text>
</a>
</g>
</g>
<!-- Node2&#45;&gt;Node43 -->
<g id="edge43_Node000002_Node000043" class="edge">
<title>Node2&#45;&gt;Node43</title>
<g id="a_edge43_Node000002_Node000043"><a xlink:title=" ">
<path fill="none" stroke="#63b8ff" d="M3068.22,-110.08C4006.86,-36.61 4248.37,-136.99 5183.5,-74 5186.26,-73.81 5189.08,-73.6 5191.93,-73.36"/>
<polygon fill="#63b8ff" stroke="#63b8ff" points="3067.88,-106.6 3058.19,-110.87 3068.43,-113.57 3067.88,-106.6"/>
</a>
</g>
</g>
<!-- Node44 -->
<g id="Node000044" class="node">
<title>Node44</title>
<g id="a_Node000044"><a xlink:href="../../dd/d03/cswordmodulesearch_8cpp.html" target="_top" xlink:title=" ">
<polygon fill="white" stroke="#666666" points="5477.5,-74 5337.5,-74 5337.5,-55 5477.5,-55 5477.5,-74"/>
<text text-anchor="middle" x="5407.5" y="-62" font-family="Helvetica,sans-Serif" font-size="10.00">cswordmodulesearch.cpp</text>
</a>
</g>
</g>
<!-- Node2&#45;&gt;Node44 -->
<g id="edge44_Node000002_Node000044" class="edge">
<title>Node2&#45;&gt;Node44</title>
<g id="a_edge44_Node000002_Node000044"><a xlink:title=" ">
<path fill="none" stroke="#63b8ff" d="M3068.16,-110.09C4071.13,-32.05 4328.69,-135.62 5328.5,-74 5331.39,-73.82 5334.34,-73.62 5337.32,-73.39"/>
<polygon fill="#63b8ff" stroke="#63b8ff" points="3067.89,-106.6 3058.19,-110.87 3068.43,-113.58 3067.89,-106.6"/>
</a>
</g>
</g>
<!-- Node45 -->
<g id="Node000045" class="node">
<title>Node45</title>
<g id="a_Node000045"><a xlink:href="../../db/d72/ctextrendering_8cpp.html" target="_top" xlink:title=" ">
<polygon fill="white" stroke="#666666" points="5603.5,-74 5495.5,-74 5495.5,-55 5603.5,-55 5603.5,-74"/>
<text text-anchor="middle" x="5549.5" y="-62" font-family="Helvetica,sans-Serif" font-size="10.00">ctextrendering.cpp</text>
</a>
</g>
</g>
<!-- Node2&#45;&gt;Node45 -->
<g id="edge45_Node000002_Node000045" class="edge">
<title>Node2&#45;&gt;Node45</title>
<g id="a_edge45_Node000002_Node000045"><a xlink:title=" ">
<path fill="none" stroke="#63b8ff" d="M3068.46,-110.06C4141.23,-27.23 4417.66,-153.77 5486.5,-74 5489.36,-73.79 5492.29,-73.53 5495.25,-73.24"/>
<polygon fill="#63b8ff" stroke="#63b8ff" points="3067.89,-106.6 3058.19,-110.86 3068.43,-113.58 3067.89,-106.6"/>
</a>
</g>
</g>
<!-- Node46 -->
<g id="Node000046" class="node">
<title>Node46</title>
<g id="a_Node000046"><a xlink:href="../../d4/d4d/gbftohtml_8cpp.html" target="_top" xlink:title=" ">
<polygon fill="white" stroke="#666666" points="5705.5,-74 5621.5,-74 5621.5,-55 5705.5,-55 5705.5,-74"/>
<text text-anchor="middle" x="5663.5" y="-62" font-family="Helvetica,sans-Serif" font-size="10.00">gbftohtml.cpp</text>
</a>
</g>
</g>
<!-- Node2&#45;&gt;Node46 -->
<g id="edge46_Node000002_Node000046" class="edge">
<title>Node2&#45;&gt;Node46</title>
<g id="a_edge46_Node000002_Node000046"><a xlink:title=" ">
<path fill="none" stroke="#63b8ff" d="M3068.35,-110.09C3648,-66.92 5052.46,-124.34 5612.5,-74 5615.36,-73.74 5618.3,-73.42 5621.26,-73.04"/>
<polygon fill="#63b8ff" stroke="#63b8ff" points="3067.89,-106.61 3058.19,-110.86 3068.43,-113.59 3067.89,-106.61"/>
</a>
</g>
</g>
<!-- Node47 -->
<g id="Node000047" class="node">
<title>Node47</title>
<g id="a_Node000047"><a xlink:href="../../db/d7a/osistohtml_8cpp.html" target="_top" xlink:title=" ">
<polygon fill="white" stroke="#666666" points="5812,-74 5723,-74 5723,-55 5812,-55 5812,-74"/>
<text text-anchor="middle" x="5767.5" y="-62" font-family="Helvetica,sans-Serif" font-size="10.00">osistohtml.cpp</text>
</a>
</g>
</g>
<!-- Node2&#45;&gt;Node47 -->
<g id="edge48_Node000002_Node000047" class="edge">
<title>Node2&#45;&gt;Node47</title>
<g id="a_edge48_Node000002_Node000047"><a xlink:title=" ">
<path fill="none" stroke="#63b8ff" d="M3068.56,-110.06C4242.33,-20.21 4545.76,-175.13 5714.5,-74 5717.19,-73.77 5719.96,-73.48 5722.74,-73.15"/>
<polygon fill="#63b8ff" stroke="#63b8ff" points="3067.89,-106.6 3058.19,-110.86 3068.43,-113.58 3067.89,-106.6"/>
</a>
</g>
</g>
<!-- Node48 -->
<g id="Node000048" class="node">
<title>Node48</title>
<g id="a_Node000048"><a xlink:href="../../d7/dfe/referencemanager_8cpp.html" target="_top" xlink:title=" ">
<polygon fill="white" stroke="#666666" points="5956.5,-74 5830.5,-74 5830.5,-55 5956.5,-55 5956.5,-74"/>
<text text-anchor="middle" x="5893.5" y="-62" font-family="Helvetica,sans-Serif" font-size="10.00">referencemanager.cpp</text>
</a>
</g>
</g>
<!-- Node2&#45;&gt;Node48 -->
<g id="edge49_Node000002_Node000048" class="edge">
<title>Node2&#45;&gt;Node48</title>
<g id="a_edge49_Node000002_Node000048"><a xlink:title=" ">
<path fill="none" stroke="#63b8ff" d="M3068.53,-110.06C4289.75,-16.73 4603.43,-153.64 5821.5,-74 5824.39,-73.81 5827.34,-73.59 5830.32,-73.34"/>
<polygon fill="#63b8ff" stroke="#63b8ff" points="3067.89,-106.6 3058.19,-110.86 3068.43,-113.58 3067.89,-106.6"/>
</a>
</g>
</g>
<!-- Node49 -->
<g id="Node000049" class="node">
<title>Node49</title>
<g id="a_Node000049"><a xlink:href="../../d5/de5/teitohtml_8cpp.html" target="_top" xlink:title=" ">
<polygon fill="white" stroke="#666666" points="6056.5,-74 5974.5,-74 5974.5,-55 6056.5,-55 6056.5,-74"/>
<text text-anchor="middle" x="6015.5" y="-62" font-family="Helvetica,sans-Serif" font-size="10.00">teitohtml.cpp</text>
</a>
</g>
</g>
<!-- Node2&#45;&gt;Node49 -->
<g id="edge50_Node000002_Node000049" class="edge">
<title>Node2&#45;&gt;Node49</title>
<g id="a_edge50_Node000002_Node000049"><a xlink:title=" ">
<path fill="none" stroke="#63b8ff" d="M3068.28,-110.09C3726.19,-61.46 5327.37,-131.85 5965.5,-74 5968.39,-73.74 5971.37,-73.4 5974.37,-73.02"/>
<polygon fill="#63b8ff" stroke="#63b8ff" points="3067.9,-106.61 3058.19,-110.85 3068.42,-113.59 3067.9,-106.61"/>
</a>
</g>
</g>
<!-- Node50 -->
<g id="Node000050" class="node">
<title>Node50</title>
<g id="a_Node000050"><a xlink:href="../../d9/de8/thmltohtml_8cpp.html" target="_top" xlink:title=" ">
<polygon fill="white" stroke="#666666" points="6166.5,-74 6074.5,-74 6074.5,-55 6166.5,-55 6166.5,-74"/>
<text text-anchor="middle" x="6120.5" y="-62" font-family="Helvetica,sans-Serif" font-size="10.00">thmltohtml.cpp</text>
</a>
</g>
</g>
<!-- Node2&#45;&gt;Node50 -->
<g id="edge51_Node000002_Node000050" class="edge">
<title>Node2&#45;&gt;Node50</title>
<g id="a_edge51_Node000002_Node000050"><a xlink:title=" ">
<path fill="none" stroke="#63b8ff" d="M3068.38,-110.08C3748.52,-59.86 5404.83,-128.74 6065.5,-74 6068.39,-73.76 6071.36,-73.46 6074.34,-73.12"/>
<polygon fill="#63b8ff" stroke="#63b8ff" points="3067.9,-106.61 3058.19,-110.85 3068.42,-113.59 3067.9,-106.61"/>
</a>
</g>
</g>
<!-- Node5&#45;&gt;Node3 -->
<g id="edge5_Node000005_Node000003" class="edge">
<title>Node5&#45;&gt;Node3</title>
<g id="a_edge5_Node000005_Node000003"><a xlink:title=" ">
<path fill="none" stroke="#63b8ff" d="M220.61,-52.69C178.45,-42.76 116.8,-28.24 77.93,-19.08"/>
<polygon fill="#63b8ff" stroke="#63b8ff" points="219.81,-56.1 230.35,-54.98 221.42,-49.28 219.81,-56.1"/>
</a>
</g>
</g>
<!-- Node6 -->
<g id="Node000006" class="node">
<title>Node6</title>
<g id="a_Node000006"><a xlink:href="../../da/dc7/bibletime__init_8cpp.html" target="_top" xlink:title=" ">
<polygon fill="white" stroke="#666666" points="205.5,-19 101.5,-19 101.5,0 205.5,0 205.5,-19"/>
<text text-anchor="middle" x="153.5" y="-7" font-family="Helvetica,sans-Serif" font-size="10.00">bibletime_init.cpp</text>
</a>
</g>
</g>
<!-- Node5&#45;&gt;Node6 -->
<g id="edge6_Node000005_Node000006" class="edge">
<title>Node5&#45;&gt;Node6</title>
<g id="a_edge6_Node000005_Node000006"><a xlink:title=" ">
<path fill="none" stroke="#63b8ff" d="M239.07,-50.63C218.25,-40.87 190.2,-27.71 171.99,-19.17"/>
<polygon fill="#63b8ff" stroke="#63b8ff" points="237.8,-53.91 248.34,-54.98 240.78,-47.57 237.8,-53.91"/>
</a>
</g>
</g>
<!-- Node7 -->
<g id="Node000007" class="node">
<title>Node7</title>
<g id="a_Node000007"><a xlink:href="../../d5/d86/bibletimeapp_8cpp.html" target="_top" xlink:title=" ">
<polygon fill="white" stroke="#666666" points="325,-19 224,-19 224,0 325,0 325,-19"/>
<text text-anchor="middle" x="274.5" y="-7" font-family="Helvetica,sans-Serif" font-size="10.00">bibletimeapp.cpp</text>
</a>
</g>
</g>
<!-- Node5&#45;&gt;Node7 -->
<g id="edge7_Node000005_Node000007" class="edge">
<title>Node5&#45;&gt;Node7</title>
<g id="a_edge7_Node000005_Node000007"><a xlink:title=" ">
<path fill="none" stroke="#63b8ff" d="M269.34,-44.66C270.66,-35.93 272.16,-25.99 273.2,-19.09"/>
<polygon fill="#63b8ff" stroke="#63b8ff" points="265.85,-44.34 267.82,-54.75 272.77,-45.38 265.85,-44.34"/>
</a>
</g>
</g>
<!-- Node5&#45;&gt;Node8 -->
<g id="edge8_Node000005_Node000008" class="edge">
<title>Node5&#45;&gt;Node8</title>
<g id="a_edge8_Node000005_Node000008"><a xlink:title=" ">
<path fill="none" stroke="#63b8ff" d="M292.99,-50.5C312.86,-40.75 339.5,-27.68 356.83,-19.17"/>
<polygon fill="#63b8ff" stroke="#63b8ff" points="291.29,-47.44 283.85,-54.98 294.37,-53.72 291.29,-47.44"/>
</a>
</g>
</g>
<!-- Node16&#45;&gt;Node15 -->
<g id="edge17_Node000016_Node000015" class="edge">
<title>Node16&#45;&gt;Node15</title>
<g id="a_edge17_Node000016_Node000015"><a xlink:title=" ">
<path fill="none" stroke="#63b8ff" d="M1502.77,-47.24C1494.36,-37.95 1484.15,-26.68 1477.28,-19.09"/>
<polygon fill="#63b8ff" stroke="#63b8ff" points="1500.27,-49.69 1509.57,-54.75 1505.46,-44.99 1500.27,-49.69"/>
</a>
</g>
</g>
</g>
</svg>
