<?xml version="1.0" encoding="UTF-8" standalone="no"?>
<!DOCTYPE svg PUBLIC "-//W3C//DTD SVG 1.1//EN"
 "http://www.w3.org/Graphics/SVG/1.1/DTD/svg11.dtd">
<!-- Generated by graphviz version 2.43.0 (0)
 -->
<!-- Title: cswordtreekey.h Pages: 1 -->
<!--zoomable 247 -->

<svg id="main" version="1.1" xmlns="http://www.w3.org/2000/svg" xmlns:xlink="http://www.w3.org/1999/xlink" xml:space="preserve" onload="init(evt)">
<style type="text/css"><![CDATA[
.node, .edge {opacity: 0.7;}
.node.selected, .edge.selected {opacity: 1;}
.edge:hover path { stroke: red; }
.edge:hover polygon { stroke: red; fill: red; }
]]></style>

<defs>
  <circle id="rim" cx="0" cy="0" r="7"/>
  <circle id="rim2" cx="0" cy="0" r="3.5"/>
  <g id="zoomPlus">
    <use xlink:href="#rim" fill="#404040"><set attributeName="fill" to="#808080" begin="zoomplus.mouseover" end="zoomplus.mouseout"/></use>
    <path d="M-4,0h8M0,-4v8" fill="none" stroke="white" stroke-width="1.5" pointer-events="none"/>
  </g>
  <g id="zoomMin">
    <use xlink:href="#rim" fill="#404040"><set attributeName="fill" to="#808080" begin="zoomminus.mouseover" end="zoomminus.mouseout"/></use>
    <path d="M-4,0h8" fill="none" stroke="white" stroke-width="1.5" pointer-events="none"/>
  </g>
  <g id="arrowUp" transform="translate(30 24)">
    <use xlink:href="#rim"/>
    <path pointer-events="none" fill="none" stroke="white" stroke-width="1.5" d="M0,-3.0v7 M-2.5,-0.5L0,-3.0L2.5,-0.5"/>
  </g>
  <g id="arrowRight" transform="rotate(90) translate(36 -43)">
    <use xlink:href="#rim"/>
    <path pointer-events="none" fill="none" stroke="white" stroke-width="1.5" d="M0,-3.0v7 M-2.5,-0.5L0,-3.0L2.5,-0.5"/>
  </g>
  <g id="arrowDown" transform="rotate(180) translate(-30 -48)">
    <use xlink:href="#rim"/>
    <path pointer-events="none" fill="none" stroke="white" stroke-width="1.5" d="M0,-3.0v7 M-2.5,-0.5L0,-3.0L2.5,-0.5"/>
  </g>
  <g id="arrowLeft" transform="rotate(270) translate(-36 17)">
    <use xlink:href="#rim"/>
    <path pointer-events="none" fill="none" stroke="white" stroke-width="1.5" d="M0,-3.0v7 M-2.5,-0.5L0,-3.0L2.5,-0.5"/>
  </g>
  <g id="resetDef">
    <use xlink:href="#rim2" fill="#404040"><set attributeName="fill" to="#808080" begin="reset.mouseover" end="reset.mouseout"/></use>
  </g>
</defs>
<script type="application/ecmascript">
var viewWidth = 858;
var viewHeight = 247;
var sectionId = 'dynsection-0';
</script>
<script type="application/ecmascript" xlink:href="../../svg.min.js"/>
<svg id="graph" class="graph">
<g id="viewport">
<title>cswordtreekey.h</title>
<!-- Node1 -->
<g id="Node000001" class="node">
<title>Node1</title>
<g id="a_Node000001"><a xlink:title=" ">
<polygon fill="#999999" stroke="#666666" points="462.5,-239 367.5,-239 367.5,-220 462.5,-220 462.5,-239"/>
<text text-anchor="middle" x="415" y="-227" font-family="Helvetica,sans-Serif" font-size="10.00">cswordtreekey.h</text>
</a>
</g>
</g>
<!-- Node2 -->
<g id="Node000002" class="node">
<title>Node2</title>
<g id="a_Node000002"><a xlink:href="../../de/d93/btmoduletextmodel_8cpp.html" target="_top" xlink:title=" ">
<polygon fill="white" stroke="#666666" points="134,-129 0,-129 0,-110 134,-110 134,-129"/>
<text text-anchor="middle" x="67" y="-117" font-family="Helvetica,sans-Serif" font-size="10.00">btmoduletextmodel.cpp</text>
</a>
</g>
</g>
<!-- Node1&#45;&gt;Node2 -->
<g id="edge1_Node000001_Node000002" class="edge">
<title>Node1&#45;&gt;Node2</title>
<g id="a_edge1_Node000001_Node000002"><a xlink:title=" ">
<path fill="none" stroke="#63b8ff" d="M357.2,-226.18C278.9,-222.04 144.27,-211.12 104,-184 84.32,-170.74 73.7,-143.23 69.37,-129.17"/>
<polygon fill="#63b8ff" stroke="#63b8ff" points="357.23,-229.68 367.4,-226.69 357.59,-222.69 357.23,-229.68"/>
</a>
</g>
</g>
<!-- Node3 -->
<g id="Node000003" class="node">
<title>Node3</title>
<g id="a_Node000003"><a xlink:href="../../df/d72/btmoduletextmodel_8h.html" target="_top" xlink:title=" ">
<polygon fill="white" stroke="#666666" points="235,-184 113,-184 113,-165 235,-165 235,-184"/>
<text text-anchor="middle" x="174" y="-172" font-family="Helvetica,sans-Serif" font-size="10.00">btmoduletextmodel.h</text>
</a>
</g>
</g>
<!-- Node1&#45;&gt;Node3 -->
<g id="edge2_Node000001_Node000003" class="edge">
<title>Node1&#45;&gt;Node3</title>
<g id="a_edge2_Node000001_Node000003"><a xlink:title=" ">
<path fill="none" stroke="#63b8ff" d="M366.42,-217.82C321.25,-207.88 254.83,-193.28 213.02,-184.08"/>
<polygon fill="#63b8ff" stroke="#63b8ff" points="365.76,-221.26 376.28,-219.98 367.26,-214.42 365.76,-221.26"/>
</a>
</g>
</g>
<!-- Node12 -->
<g id="Node000012" class="node">
<title>Node12</title>
<g id="a_Node000012"><a xlink:href="../../dd/d72/cbookkeychooser_8cpp.html" target="_top" xlink:title=" ">
<polygon fill="white" stroke="#666666" points="386.5,-184 265.5,-184 265.5,-165 386.5,-165 386.5,-184"/>
<text text-anchor="middle" x="326" y="-172" font-family="Helvetica,sans-Serif" font-size="10.00">cbookkeychooser.cpp</text>
</a>
</g>
</g>
<!-- Node1&#45;&gt;Node12 -->
<g id="edge14_Node000001_Node000012" class="edge">
<title>Node1&#45;&gt;Node12</title>
<g id="a_edge14_Node000001_Node000012"><a xlink:title=" ">
<path fill="none" stroke="#63b8ff" d="M391.82,-214.7C375.61,-205.04 354.45,-192.44 340.56,-184.17"/>
<polygon fill="#63b8ff" stroke="#63b8ff" points="390.32,-217.88 400.7,-219.98 393.9,-211.86 390.32,-217.88"/>
</a>
</g>
</g>
<!-- Node13 -->
<g id="Node000013" class="node">
<title>Node13</title>
<g id="a_Node000013"><a xlink:href="../../d0/da4/cbooktreechooser_8cpp.html" target="_top" xlink:title=" ">
<polygon fill="white" stroke="#666666" points="560.5,-129 437.5,-129 437.5,-110 560.5,-110 560.5,-129"/>
<text text-anchor="middle" x="499" y="-117" font-family="Helvetica,sans-Serif" font-size="10.00">cbooktreechooser.cpp</text>
</a>
</g>
</g>
<!-- Node1&#45;&gt;Node13 -->
<g id="edge15_Node000001_Node000013" class="edge">
<title>Node1&#45;&gt;Node13</title>
<g id="a_edge15_Node000001_Node000013"><a xlink:title=" ">
<path fill="none" stroke="#63b8ff" d="M417.21,-209.84C419.56,-196.34 424.35,-178.22 434,-165 445.85,-148.76 465.53,-136.5 480.13,-129"/>
<polygon fill="#63b8ff" stroke="#63b8ff" points="413.72,-209.49 415.75,-219.89 420.65,-210.5 413.72,-209.49"/>
</a>
</g>
</g>
<!-- Node14 -->
<g id="Node000014" class="node">
<title>Node14</title>
<g id="a_Node000014"><a xlink:href="../../d9/dca/cbooktreechooser_8h.html" target="_top" xlink:title=" ">
<polygon fill="white" stroke="#666666" points="555,-184 443,-184 443,-165 555,-165 555,-184"/>
<text text-anchor="middle" x="499" y="-172" font-family="Helvetica,sans-Serif" font-size="10.00">cbooktreechooser.h</text>
</a>
</g>
</g>
<!-- Node1&#45;&gt;Node14 -->
<g id="edge16_Node000001_Node000014" class="edge">
<title>Node1&#45;&gt;Node14</title>
<g id="a_edge16_Node000001_Node000014"><a xlink:title=" ">
<path fill="none" stroke="#63b8ff" d="M437.31,-214.42C452.55,-204.81 472.27,-192.37 485.26,-184.17"/>
<polygon fill="#63b8ff" stroke="#63b8ff" points="435.09,-211.69 428.5,-219.98 438.82,-217.61 435.09,-211.69"/>
</a>
</g>
</g>
<!-- Node16 -->
<g id="Node000016" class="node">
<title>Node16</title>
<g id="a_Node000016"><a xlink:href="../../db/dc6/cswordbookmoduleinfo_8cpp.html" target="_top" xlink:title=" ">
<polygon fill="white" stroke="#666666" points="724.5,-184 573.5,-184 573.5,-165 724.5,-165 724.5,-184"/>
<text text-anchor="middle" x="649" y="-172" font-family="Helvetica,sans-Serif" font-size="10.00">cswordbookmoduleinfo.cpp</text>
</a>
</g>
</g>
<!-- Node1&#45;&gt;Node16 -->
<g id="edge19_Node000001_Node000016" class="edge">
<title>Node1&#45;&gt;Node16</title>
<g id="a_edge19_Node000001_Node000016"><a xlink:title=" ">
<path fill="none" stroke="#63b8ff" d="M462.45,-217.75C506.3,-207.82 570.6,-193.26 611.11,-184.08"/>
<polygon fill="#63b8ff" stroke="#63b8ff" points="461.58,-214.36 452.6,-219.98 463.12,-221.19 461.58,-214.36"/>
</a>
</g>
</g>
<!-- Node17 -->
<g id="Node000017" class="node">
<title>Node17</title>
<g id="a_Node000017"><a xlink:href="../../d5/d47/cswordtreekey_8cpp.html" target="_top" xlink:title=" ">
<polygon fill="white" stroke="#666666" points="849.5,-184 742.5,-184 742.5,-165 849.5,-165 849.5,-184"/>
<text text-anchor="middle" x="796" y="-172" font-family="Helvetica,sans-Serif" font-size="10.00">cswordtreekey.cpp</text>
</a>
</g>
</g>
<!-- Node1&#45;&gt;Node17 -->
<g id="edge20_Node000001_Node000017" class="edge">
<title>Node1&#45;&gt;Node17</title>
<g id="a_edge20_Node000001_Node000017"><a xlink:title=" ">
<path fill="none" stroke="#63b8ff" d="M472.84,-220.45C546,-210.28 671,-192.89 742.2,-182.98"/>
<polygon fill="#63b8ff" stroke="#63b8ff" points="472.29,-217 462.87,-221.84 473.26,-223.93 472.29,-217"/>
</a>
</g>
</g>
<!-- Node3&#45;&gt;Node2 -->
<g id="edge4_Node000003_Node000002" class="edge">
<title>Node3&#45;&gt;Node2</title>
<g id="a_edge4_Node000003_Node000002"><a xlink:title=" ">
<path fill="none" stroke="#63b8ff" d="M147.76,-160.5C128.07,-150.75 101.68,-137.68 84.5,-129.17"/>
<polygon fill="#63b8ff" stroke="#63b8ff" points="146.29,-163.68 156.81,-164.98 149.4,-157.41 146.29,-163.68"/>
</a>
</g>
</g>
<!-- Node4 -->
<g id="Node000004" class="node">
<title>Node4</title>
<g id="a_Node000004"><a xlink:href="../../d3/d2f/btcopybyreferencesdialog_8cpp.html" target="_top" xlink:title=" ">
<polygon fill="white" stroke="#666666" points="259,-19 95,-19 95,0 259,0 259,-19"/>
<text text-anchor="middle" x="177" y="-7" font-family="Helvetica,sans-Serif" font-size="10.00">btcopybyreferencesdialog.cpp</text>
</a>
</g>
</g>
<!-- Node3&#45;&gt;Node4 -->
<g id="edge3_Node000003_Node000004" class="edge">
<title>Node3&#45;&gt;Node4</title>
<g id="a_edge3_Node000003_Node000004"><a xlink:title=" ">
<path fill="none" stroke="#63b8ff" d="M174.35,-154.37C175,-119.03 176.37,-44.79 176.84,-19.31"/>
<polygon fill="#63b8ff" stroke="#63b8ff" points="170.85,-154.67 174.16,-164.74 177.84,-154.8 170.85,-154.67"/>
</a>
</g>
</g>
<!-- Node5 -->
<g id="Node000005" class="node">
<title>Node5</title>
<g id="a_Node000005"><a xlink:href="../../d1/d48/btqmlinterface_8h.html" target="_top" xlink:title=" ">
<polygon fill="white" stroke="#666666" points="419,-129 321,-129 321,-110 419,-110 419,-129"/>
<text text-anchor="middle" x="370" y="-117" font-family="Helvetica,sans-Serif" font-size="10.00">btqmlinterface.h</text>
</a>
</g>
</g>
<!-- Node3&#45;&gt;Node5 -->
<g id="edge5_Node000003_Node000005" class="edge">
<title>Node3&#45;&gt;Node5</title>
<g id="a_edge5_Node000003_Node000005"><a xlink:title=" ">
<path fill="none" stroke="#63b8ff" d="M215.38,-162.31C252.05,-152.39 304.83,-138.12 338.26,-129.08"/>
<polygon fill="#63b8ff" stroke="#63b8ff" points="214.23,-159 205.49,-164.98 216.06,-165.75 214.23,-159"/>
</a>
</g>
</g>
<!-- Node6 -->
<g id="Node000006" class="node">
<title>Node6</title>
<g id="a_Node000006"><a xlink:href="../../d7/dad/btcopybyreferencesdialog_8h.html" target="_top" xlink:title=" ">
<polygon fill="white" stroke="#666666" points="342,-74 190,-74 190,-55 342,-55 342,-74"/>
<text text-anchor="middle" x="266" y="-62" font-family="Helvetica,sans-Serif" font-size="10.00">btcopybyreferencesdialog.h</text>
</a>
</g>
</g>
<!-- Node5&#45;&gt;Node6 -->
<g id="edge6_Node000005_Node000006" class="edge">
<title>Node5&#45;&gt;Node6</title>
<g id="a_edge6_Node000005_Node000006"><a xlink:title=" ">
<path fill="none" stroke="#63b8ff" d="M344.23,-105.37C325.13,-95.63 299.63,-82.64 283.01,-74.17"/>
<polygon fill="#63b8ff" stroke="#63b8ff" points="342.79,-108.56 353.29,-109.98 345.97,-102.33 342.79,-108.56"/>
</a>
</g>
</g>
<!-- Node7 -->
<g id="Node000007" class="node">
<title>Node7</title>
<g id="a_Node000007"><a xlink:href="../../de/db2/btmodelviewreaddisplay_8cpp.html" target="_top" xlink:title=" ">
<polygon fill="white" stroke="#666666" points="440,-19 284,-19 284,0 440,0 440,-19"/>
<text text-anchor="middle" x="362" y="-7" font-family="Helvetica,sans-Serif" font-size="10.00">btmodelviewreaddisplay.cpp</text>
</a>
</g>
</g>
<!-- Node5&#45;&gt;Node7 -->
<g id="edge9_Node000005_Node000007" class="edge">
<title>Node5&#45;&gt;Node7</title>
<g id="a_edge9_Node000005_Node000007"><a xlink:title=" ">
<path fill="none" stroke="#63b8ff" d="M368.59,-99.48C366.84,-75.84 363.93,-36.5 362.64,-19.16"/>
<polygon fill="#63b8ff" stroke="#63b8ff" points="365.12,-99.95 369.35,-109.66 372.1,-99.43 365.12,-99.95"/>
</a>
</g>
</g>
<!-- Node8 -->
<g id="Node000008" class="node">
<title>Node8</title>
<g id="a_Node000008"><a xlink:href="../../de/d6e/btqmlinterface_8cpp.html" target="_top" xlink:title=" ">
<polygon fill="white" stroke="#666666" points="507.5,-74 398.5,-74 398.5,-55 507.5,-55 507.5,-74"/>
<text text-anchor="middle" x="453" y="-62" font-family="Helvetica,sans-Serif" font-size="10.00">btqmlinterface.cpp</text>
</a>
</g>
</g>
<!-- Node5&#45;&gt;Node8 -->
<g id="edge10_Node000005_Node000008" class="edge">
<title>Node5&#45;&gt;Node8</title>
<g id="a_edge10_Node000005_Node000008"><a xlink:title=" ">
<path fill="none" stroke="#63b8ff" d="M392.04,-104.42C407.11,-94.81 426.59,-82.37 439.42,-74.17"/>
<polygon fill="#63b8ff" stroke="#63b8ff" points="389.88,-101.65 383.34,-109.98 393.65,-107.55 389.88,-101.65"/>
</a>
</g>
</g>
<!-- Node9 -->
<g id="Node000009" class="node">
<title>Node9</title>
<g id="a_Node000009"><a xlink:href="../../d9/d0c/btquickwidget_8cpp.html" target="_top" xlink:title=" ">
<polygon fill="white" stroke="#666666" points="632,-74 526,-74 526,-55 632,-55 632,-74"/>
<text text-anchor="middle" x="579" y="-62" font-family="Helvetica,sans-Serif" font-size="10.00">btquickwidget.cpp</text>
</a>
</g>
</g>
<!-- Node5&#45;&gt;Node9 -->
<g id="edge11_Node000005_Node000009" class="edge">
<title>Node5&#45;&gt;Node9</title>
<g id="a_edge11_Node000005_Node000009"><a xlink:title=" ">
<path fill="none" stroke="#63b8ff" d="M413.37,-107.5C452.51,-97.58 509.28,-83.18 545.16,-74.08"/>
<polygon fill="#63b8ff" stroke="#63b8ff" points="412.41,-104.13 403.58,-109.98 414.13,-110.92 412.41,-104.13"/>
</a>
</g>
</g>
<!-- Node10 -->
<g id="Node000010" class="node">
<title>Node10</title>
<g id="a_Node000010"><a xlink:href="../../d2/d26/cdisplaywindow_8cpp.html" target="_top" xlink:title=" ">
<polygon fill="white" stroke="#666666" points="764,-74 650,-74 650,-55 764,-55 764,-74"/>
<text text-anchor="middle" x="707" y="-62" font-family="Helvetica,sans-Serif" font-size="10.00">cdisplaywindow.cpp</text>
</a>
</g>
</g>
<!-- Node5&#45;&gt;Node10 -->
<g id="edge12_Node000005_Node000010" class="edge">
<title>Node5&#45;&gt;Node10</title>
<g id="a_edge12_Node000005_Node000010"><a xlink:title=" ">
<path fill="none" stroke="#63b8ff" d="M429.21,-109.19C492.43,-99.25 591.74,-83.63 652.92,-74.01"/>
<polygon fill="#63b8ff" stroke="#63b8ff" points="428.34,-105.78 419,-110.79 429.43,-112.7 428.34,-105.78"/>
</a>
</g>
</g>
<!-- Node11 -->
<g id="Node000011" class="node">
<title>Node11</title>
<g id="a_Node000011"><a xlink:href="../../df/d0a/main_8cpp.html" target="_top" xlink:title=" ">
<polygon fill="white" stroke="#666666" points="844,-74 782,-74 782,-55 844,-55 844,-74"/>
<text text-anchor="middle" x="813" y="-62" font-family="Helvetica,sans-Serif" font-size="10.00">main.cpp</text>
</a>
</g>
</g>
<!-- Node5&#45;&gt;Node11 -->
<g id="edge13_Node000005_Node000011" class="edge">
<title>Node5&#45;&gt;Node11</title>
<g id="a_edge13_Node000005_Node000011"><a xlink:title=" ">
<path fill="none" stroke="#63b8ff" d="M429.53,-109.99C583.3,-91.32 624.42,-97.49 773,-74 775.8,-73.56 778.71,-73.04 781.62,-72.5"/>
<polygon fill="#63b8ff" stroke="#63b8ff" points="428.73,-106.57 419.24,-111.26 429.59,-113.51 428.73,-106.57"/>
</a>
</g>
</g>
<!-- Node6&#45;&gt;Node4 -->
<g id="edge7_Node000006_Node000004" class="edge">
<title>Node6&#45;&gt;Node4</title>
<g id="a_edge7_Node000006_Node000004"><a xlink:title=" ">
<path fill="none" stroke="#63b8ff" d="M242.82,-49.7C226.61,-40.04 205.45,-27.44 191.56,-19.17"/>
<polygon fill="#63b8ff" stroke="#63b8ff" points="241.32,-52.88 251.7,-54.98 244.9,-46.86 241.32,-52.88"/>
</a>
</g>
</g>
<!-- Node6&#45;&gt;Node7 -->
<g id="edge8_Node000006_Node000007" class="edge">
<title>Node6&#45;&gt;Node7</title>
<g id="a_edge8_Node000006_Node000007"><a xlink:title=" ">
<path fill="none" stroke="#63b8ff" d="M290.52,-49.97C308.06,-40.28 331.17,-27.52 346.3,-19.17"/>
<polygon fill="#63b8ff" stroke="#63b8ff" points="288.49,-47.09 281.42,-54.98 291.87,-53.22 288.49,-47.09"/>
</a>
</g>
</g>
<!-- Node14&#45;&gt;Node13 -->
<g id="edge18_Node000014_Node000013" class="edge">
<title>Node14&#45;&gt;Node13</title>
<g id="a_edge18_Node000014_Node000013"><a xlink:title=" ">
<path fill="none" stroke="#63b8ff" d="M499,-154.66C499,-145.93 499,-135.99 499,-129.09"/>
<polygon fill="#63b8ff" stroke="#63b8ff" points="495.5,-154.75 499,-164.75 502.5,-154.75 495.5,-154.75"/>
</a>
</g>
</g>
<!-- Node15 -->
<g id="Node000015" class="node">
<title>Node15</title>
<g id="a_Node000015"><a xlink:href="../../d7/d67/cbookreadwindow_8cpp.html" target="_top" xlink:title=" ">
<polygon fill="white" stroke="#666666" points="703.5,-129 578.5,-129 578.5,-110 703.5,-110 703.5,-129"/>
<text text-anchor="middle" x="641" y="-117" font-family="Helvetica,sans-Serif" font-size="10.00">cbookreadwindow.cpp</text>
</a>
</g>
</g>
<!-- Node14&#45;&gt;Node15 -->
<g id="edge17_Node000014_Node000015" class="edge">
<title>Node14&#45;&gt;Node15</title>
<g id="a_edge17_Node000014_Node000015"><a xlink:title=" ">
<path fill="none" stroke="#63b8ff" d="M531.36,-161.42C557.71,-151.59 594.26,-137.95 617.77,-129.17"/>
<polygon fill="#63b8ff" stroke="#63b8ff" points="529.96,-158.21 521.81,-164.98 532.41,-164.77 529.96,-158.21"/>
</a>
</g>
</g>
</g>
</svg>

<g id="navigator" transform="translate(0 0)" fill="#404254">
  <rect fill="#f2f5e9" fill-opacity="0.5" stroke="#606060" stroke-width=".5" x="0" y="0" width="60" height="60"/>
  <use id="zoomplus" xlink:href="#zoomPlus" x="17" y="9" onmousedown="handleZoom(evt,'in')"/>
  <use id="zoomminus" xlink:href="#zoomMin" x="42" y="9" onmousedown="handleZoom(evt,'out')"/>
  <use id="reset" xlink:href="#resetDef" x="30" y="36" onmousedown="handleReset()"/>
   <use id="arrowup" xlink:href="#arrowUp" x="0" y="0" onmousedown="handlePan(0,-1)"/>
  <use id="arrowright" xlink:href="#arrowRight" x="0" y="0" onmousedown="handlePan(1,0)"/>
  <use id="arrowdown" xlink:href="#arrowDown" x="0" y="0" onmousedown="handlePan(0,1)"/>
  <use id="arrowleft" xlink:href="#arrowLeft" x="0" y="0" onmousedown="handlePan(-1,0)"/>
</g>
<svg viewBox="0 0 15 15" width="100%" height="30px" preserveAspectRatio="xMaxYMin meet">
 <g id="arrow_out" transform="scale(0.3 0.3)">
  <a xlink:href="cswordtreekey_8h__dep__incl_org.svg" target="_base">
   <rect id="button" ry="5" rx="5" y="6" x="6" height="38" width="38"
        fill="#f2f5e9" fill-opacity="0.5" stroke="#606060" stroke-width="1.0"/>
   <path id="arrow"
     d="M 11.500037,31.436501 C 11.940474,20.09759 22.043105,11.32322 32.158766,21.979434 L 37.068811,17.246167 C 37.068811,17.246167 37.088388,32 37.088388,32 L 22.160133,31.978069 C 22.160133,31.978069 26.997745,27.140456 26.997745,27.140456 C 18.528582,18.264221 13.291696,25.230495 11.500037,31.436501 z"
     style="fill:#404040;"/>
  </a>
 </g>
</svg>

<style type='text/css'>
<![CDATA[
[data-mouse-over-selected='false'] { opacity: 0.7; }
[data-mouse-over-selected='true']  { opacity: 1.0; }
]]>
</style>
<script type="application/ecmascript"><![CDATA[
document.addEventListener('DOMContentLoaded', (event) => {
  highlightEdges();
  highlightAdjacentNodes();
});
]]></script>
</svg>
