<?xml version="1.0" encoding="UTF-8" standalone="no"?>
<!DOCTYPE svg PUBLIC "-//W3C//DTD SVG 1.1//EN"
 "http://www.w3.org/Graphics/SVG/1.1/DTD/svg11.dtd">
<!-- Generated by graphviz version 2.43.0 (0)
 -->
<!-- Title: cswordtreekey.h Pages: 1 -->
<svg width="873pt" height="252pt"
 viewBox="0.00 0.00 873.00 252.00" xmlns="http://www.w3.org/2000/svg" xmlns:xlink="http://www.w3.org/1999/xlink">
<g id="graph0" class="graph" transform="scale(1 1) rotate(0) translate(4 248)">
<title>cswordtreekey.h</title>
<polygon fill="white" stroke="transparent" points="-4,4 -4,-248 869,-248 869,4 -4,4"/>
<!-- Node1 -->
<g id="node1" class="node">
<title>Node1</title>
<g id="a_node1"><a xlink:title=" ">
<polygon fill="#bfbfbf" stroke="black" points="346,-224.5 346,-243.5 441,-243.5 441,-224.5 346,-224.5"/>
<text text-anchor="middle" x="393.5" y="-231.5" font-family="Helvetica,sans-Serif" font-size="10.00">cswordtreekey.h</text>
</a>
</g>
</g>
<!-- Node2 -->
<g id="node2" class="node">
<title>Node2</title>
<g id="a_node2"><a xlink:href="../../d0/df1/cswordkey_8cpp.html" target="_top" xlink:title=" ">
<polygon fill="white" stroke="black" points="0,-168.5 0,-187.5 87,-187.5 87,-168.5 0,-168.5"/>
<text text-anchor="middle" x="43.5" y="-175.5" font-family="Helvetica,sans-Serif" font-size="10.00">cswordkey.cpp</text>
</a>
</g>
</g>
<!-- Node1&#45;&gt;Node2 -->
<g id="edge1" class="edge">
<title>Node1&#45;&gt;Node2</title>
<path fill="none" stroke="midnightblue" d="M335.92,-224.68C275.86,-215.91 178.99,-201.53 95.5,-188 92.79,-187.56 90,-187.1 87.18,-186.63"/>
<polygon fill="midnightblue" stroke="midnightblue" points="335.57,-228.17 345.97,-226.14 336.58,-221.24 335.57,-228.17"/>
</g>
<!-- Node3 -->
<g id="node3" class="node">
<title>Node3</title>
<g id="a_node3"><a xlink:href="../../d5/d47/cswordtreekey_8cpp.html" target="_top" xlink:title=" ">
<polygon fill="white" stroke="black" points="105,-168.5 105,-187.5 212,-187.5 212,-168.5 105,-168.5"/>
<text text-anchor="middle" x="158.5" y="-175.5" font-family="Helvetica,sans-Serif" font-size="10.00">cswordtreekey.cpp</text>
</a>
</g>
</g>
<!-- Node1&#45;&gt;Node3 -->
<g id="edge2" class="edge">
<title>Node1&#45;&gt;Node3</title>
<path fill="none" stroke="midnightblue" d="M346.29,-222.15C301.89,-211.95 236.31,-196.88 195.56,-187.52"/>
<polygon fill="midnightblue" stroke="midnightblue" points="345.73,-225.62 356.26,-224.44 347.3,-218.79 345.73,-225.62"/>
</g>
<!-- Node4 -->
<g id="node4" class="node">
<title>Node4</title>
<g id="a_node4"><a xlink:href="../../df/d72/btmoduletextmodel_8h.html" target="_top" xlink:title=" ">
<polygon fill="white" stroke="black" points="268.5,-168.5 268.5,-187.5 390.5,-187.5 390.5,-168.5 268.5,-168.5"/>
<text text-anchor="middle" x="329.5" y="-175.5" font-family="Helvetica,sans-Serif" font-size="10.00">btmoduletextmodel.h</text>
</a>
</g>
</g>
<!-- Node1&#45;&gt;Node4 -->
<g id="edge3" class="edge">
<title>Node1&#45;&gt;Node4</title>
<path fill="none" stroke="midnightblue" d="M375.51,-217.82C364.04,-208.15 349.59,-195.95 339.97,-187.83"/>
<polygon fill="midnightblue" stroke="midnightblue" points="373.32,-220.55 383.22,-224.32 377.83,-215.2 373.32,-220.55"/>
</g>
<!-- Node5 -->
<g id="node5" class="node">
<title>Node5</title>
<g id="a_node5"><a xlink:href="../../de/d93/btmoduletextmodel_8cpp.html" target="_top" xlink:title=" ">
<polygon fill="white" stroke="black" points="8.5,-112.5 8.5,-131.5 142.5,-131.5 142.5,-112.5 8.5,-112.5"/>
<text text-anchor="middle" x="75.5" y="-119.5" font-family="Helvetica,sans-Serif" font-size="10.00">btmoduletextmodel.cpp</text>
</a>
</g>
</g>
<!-- Node1&#45;&gt;Node5 -->
<g id="edge18" class="edge">
<title>Node1&#45;&gt;Node5</title>
<path fill="none" stroke="midnightblue" d="M354.16,-221.49C327.15,-213.18 290.68,-201.14 259.5,-188 241.55,-180.43 238.54,-175.36 220.5,-168 183.04,-152.72 138.37,-139.58 108.6,-131.51"/>
<polygon fill="midnightblue" stroke="midnightblue" points="353.43,-224.93 364.02,-224.49 355.47,-218.23 353.43,-224.93"/>
</g>
<!-- Node16 -->
<g id="node16" class="node">
<title>Node16</title>
<g id="a_node16"><a xlink:href="../../da/db4/cbookdisplay_8cpp.html" target="_top" xlink:title=" ">
<polygon fill="white" stroke="black" points="408.5,-168.5 408.5,-187.5 508.5,-187.5 508.5,-168.5 408.5,-168.5"/>
<text text-anchor="middle" x="458.5" y="-175.5" font-family="Helvetica,sans-Serif" font-size="10.00">cbookdisplay.cpp</text>
</a>
</g>
</g>
<!-- Node1&#45;&gt;Node16 -->
<g id="edge19" class="edge">
<title>Node1&#45;&gt;Node16</title>
<path fill="none" stroke="midnightblue" d="M411.77,-217.82C423.42,-208.15 438.1,-195.95 447.87,-187.83"/>
<polygon fill="midnightblue" stroke="midnightblue" points="409.4,-215.24 403.94,-224.32 413.87,-220.63 409.4,-215.24"/>
</g>
<!-- Node17 -->
<g id="node17" class="node">
<title>Node17</title>
<g id="a_node17"><a xlink:href="../../d9/dca/cbooktreechooser_8h.html" target="_top" xlink:title=" ">
<polygon fill="white" stroke="black" points="526.5,-168.5 526.5,-187.5 638.5,-187.5 638.5,-168.5 526.5,-168.5"/>
<text text-anchor="middle" x="582.5" y="-175.5" font-family="Helvetica,sans-Serif" font-size="10.00">cbooktreechooser.h</text>
</a>
</g>
</g>
<!-- Node1&#45;&gt;Node17 -->
<g id="edge20" class="edge">
<title>Node1&#45;&gt;Node17</title>
<path fill="none" stroke="midnightblue" d="M433.51,-221.57C469.17,-211.38 520.54,-196.7 552.69,-187.52"/>
<polygon fill="midnightblue" stroke="midnightblue" points="432.1,-218.33 423.45,-224.44 434.02,-225.06 432.1,-218.33"/>
</g>
<!-- Node19 -->
<g id="node19" class="node">
<title>Node19</title>
<g id="a_node19"><a xlink:href="../../d0/da4/cbooktreechooser_8cpp.html" target="_top" xlink:title=" ">
<polygon fill="white" stroke="black" points="663,-112.5 663,-131.5 786,-131.5 786,-112.5 663,-112.5"/>
<text text-anchor="middle" x="724.5" y="-119.5" font-family="Helvetica,sans-Serif" font-size="10.00">cbooktreechooser.cpp</text>
</a>
</g>
</g>
<!-- Node1&#45;&gt;Node19 -->
<g id="edge24" class="edge">
<title>Node1&#45;&gt;Node19</title>
<path fill="none" stroke="midnightblue" d="M451.4,-231.28C504.63,-227.76 584.58,-217.48 647.5,-188 676.96,-174.19 704.26,-146.14 716.99,-131.82"/>
<polygon fill="midnightblue" stroke="midnightblue" points="450.9,-227.8 441.12,-231.9 451.32,-234.79 450.9,-227.8"/>
</g>
<!-- Node20 -->
<g id="node20" class="node">
<title>Node20</title>
<g id="a_node20"><a xlink:href="../../dd/d72/cbookkeychooser_8cpp.html" target="_top" xlink:title=" ">
<polygon fill="white" stroke="black" points="695,-168.5 695,-187.5 816,-187.5 816,-168.5 695,-168.5"/>
<text text-anchor="middle" x="755.5" y="-175.5" font-family="Helvetica,sans-Serif" font-size="10.00">cbookkeychooser.cpp</text>
</a>
</g>
</g>
<!-- Node1&#45;&gt;Node20 -->
<g id="edge23" class="edge">
<title>Node1&#45;&gt;Node20</title>
<path fill="none" stroke="midnightblue" d="M451.29,-224.38C519.13,-214.26 630.93,-197.58 698.45,-187.51"/>
<polygon fill="midnightblue" stroke="midnightblue" points="450.57,-220.95 441.2,-225.88 451.6,-227.87 450.57,-220.95"/>
</g>
<!-- Node4&#45;&gt;Node5 -->
<g id="edge4" class="edge">
<title>Node4&#45;&gt;Node5</title>
<path fill="none" stroke="midnightblue" d="M279.38,-166.35C231.38,-156.14 159.88,-140.94 115.56,-131.52"/>
<polygon fill="midnightblue" stroke="midnightblue" points="278.74,-169.79 289.25,-168.44 280.2,-162.94 278.74,-169.79"/>
</g>
<!-- Node6 -->
<g id="node6" class="node">
<title>Node6</title>
<g id="a_node6"><a xlink:href="../../d3/d2f/btcopybyreferencesdialog_8cpp.html" target="_top" xlink:title=" ">
<polygon fill="white" stroke="black" points="198.5,-112.5 198.5,-131.5 362.5,-131.5 362.5,-112.5 198.5,-112.5"/>
<text text-anchor="middle" x="280.5" y="-119.5" font-family="Helvetica,sans-Serif" font-size="10.00">btcopybyreferencesdialog.cpp</text>
</a>
</g>
</g>
<!-- Node4&#45;&gt;Node6 -->
<g id="edge5" class="edge">
<title>Node4&#45;&gt;Node6</title>
<path fill="none" stroke="midnightblue" d="M314.47,-160.43C305.88,-150.97 295.46,-139.48 288.44,-131.75"/>
<polygon fill="midnightblue" stroke="midnightblue" points="312.1,-163.03 321.41,-168.08 317.28,-158.33 312.1,-163.03"/>
</g>
<!-- Node7 -->
<g id="node7" class="node">
<title>Node7</title>
<g id="a_node7"><a xlink:href="../../d1/d9d/bttextfilter_8h.html" target="_top" xlink:title=" ">
<polygon fill="white" stroke="black" points="381,-112.5 381,-131.5 458,-131.5 458,-112.5 381,-112.5"/>
<text text-anchor="middle" x="419.5" y="-119.5" font-family="Helvetica,sans-Serif" font-size="10.00">bttextfilter.h</text>
</a>
</g>
</g>
<!-- Node4&#45;&gt;Node7 -->
<g id="edge6" class="edge">
<title>Node4&#45;&gt;Node7</title>
<path fill="none" stroke="midnightblue" d="M352.54,-163.18C369.1,-153.24 390.92,-140.15 405.08,-131.65"/>
<polygon fill="midnightblue" stroke="midnightblue" points="350.73,-160.18 343.96,-168.32 354.34,-166.18 350.73,-160.18"/>
</g>
<!-- Node10 -->
<g id="node10" class="node">
<title>Node10</title>
<g id="a_node10"><a xlink:href="../../de/d6e/btqmlinterface_8cpp.html" target="_top" xlink:title=" ">
<polygon fill="white" stroke="black" points="756,-0.5 756,-19.5 865,-19.5 865,-0.5 756,-0.5"/>
<text text-anchor="middle" x="810.5" y="-7.5" font-family="Helvetica,sans-Serif" font-size="10.00">btqmlinterface.cpp</text>
</a>
</g>
</g>
<!-- Node4&#45;&gt;Node10 -->
<g id="edge16" class="edge">
<title>Node4&#45;&gt;Node10</title>
<path fill="none" stroke="midnightblue" d="M368.38,-165.47C396.03,-156.97 433.89,-144.72 466.5,-132 486.51,-124.19 490.52,-119.88 510.5,-112 608.66,-73.29 728.33,-35.83 782.03,-19.52"/>
<polygon fill="midnightblue" stroke="midnightblue" points="367.24,-162.16 358.69,-168.43 369.28,-168.86 367.24,-162.16"/>
</g>
<!-- Node11 -->
<g id="node11" class="node">
<title>Node11</title>
<g id="a_node11"><a xlink:href="../../de/db9/btqmlscrollview_8cpp.html" target="_top" xlink:title=" ">
<polygon fill="white" stroke="black" points="113.5,-0.5 113.5,-19.5 227.5,-19.5 227.5,-0.5 113.5,-0.5"/>
<text text-anchor="middle" x="170.5" y="-7.5" font-family="Helvetica,sans-Serif" font-size="10.00">btqmlscrollview.cpp</text>
</a>
</g>
</g>
<!-- Node4&#45;&gt;Node11 -->
<g id="edge17" class="edge">
<title>Node4&#45;&gt;Node11</title>
<path fill="none" stroke="midnightblue" d="M276.93,-166.13C242.26,-157.87 201.17,-145.64 189.5,-132 161.16,-98.88 166.02,-41.21 169.09,-19.55"/>
<polygon fill="midnightblue" stroke="midnightblue" points="276.44,-169.61 286.97,-168.45 278.02,-162.79 276.44,-169.61"/>
</g>
<!-- Node8 -->
<g id="node8" class="node">
<title>Node8</title>
<g id="a_node8"><a xlink:href="../../d1/d48/btqmlinterface_8h.html" target="_top" xlink:title=" ">
<polygon fill="white" stroke="black" points="365.5,-56.5 365.5,-75.5 463.5,-75.5 463.5,-56.5 365.5,-56.5"/>
<text text-anchor="middle" x="414.5" y="-63.5" font-family="Helvetica,sans-Serif" font-size="10.00">btqmlinterface.h</text>
</a>
</g>
</g>
<!-- Node7&#45;&gt;Node8 -->
<g id="edge7" class="edge">
<title>Node7&#45;&gt;Node8</title>
<path fill="none" stroke="midnightblue" d="M417.75,-102.1C416.92,-93.14 415.97,-82.86 415.31,-75.75"/>
<polygon fill="midnightblue" stroke="midnightblue" points="414.27,-102.45 418.67,-112.08 421.24,-101.8 414.27,-102.45"/>
</g>
<!-- Node7&#45;&gt;Node11 -->
<g id="edge14" class="edge">
<title>Node7&#45;&gt;Node11</title>
<path fill="none" stroke="midnightblue" d="M400.15,-106.23C380.49,-91.78 348.69,-69.98 318.5,-56 282.67,-39.42 239.19,-27.04 208.66,-19.51"/>
<polygon fill="midnightblue" stroke="midnightblue" points="398.18,-109.12 408.29,-112.29 402.36,-103.51 398.18,-109.12"/>
</g>
<!-- Node15 -->
<g id="node15" class="node">
<title>Node15</title>
<g id="a_node15"><a xlink:href="../../dc/dee/bttextfilter_8cpp.html" target="_top" xlink:title=" ">
<polygon fill="white" stroke="black" points="221.5,-56.5 221.5,-75.5 309.5,-75.5 309.5,-56.5 221.5,-56.5"/>
<text text-anchor="middle" x="265.5" y="-63.5" font-family="Helvetica,sans-Serif" font-size="10.00">bttextfilter.cpp</text>
</a>
</g>
</g>
<!-- Node7&#45;&gt;Node15 -->
<g id="edge15" class="edge">
<title>Node7&#45;&gt;Node15</title>
<path fill="none" stroke="midnightblue" d="M385.39,-109.04C356.41,-98.88 315.54,-84.55 289.79,-75.52"/>
<polygon fill="midnightblue" stroke="midnightblue" points="384.5,-112.44 395.1,-112.44 386.82,-105.83 384.5,-112.44"/>
</g>
<!-- Node9 -->
<g id="node9" class="node">
<title>Node9</title>
<g id="a_node9"><a xlink:href="../../de/db2/btmodelviewreaddisplay_8cpp.html" target="_top" xlink:title=" ">
<polygon fill="white" stroke="black" points="457.5,-0.5 457.5,-19.5 613.5,-19.5 613.5,-0.5 457.5,-0.5"/>
<text text-anchor="middle" x="535.5" y="-7.5" font-family="Helvetica,sans-Serif" font-size="10.00">btmodelviewreaddisplay.cpp</text>
</a>
</g>
</g>
<!-- Node8&#45;&gt;Node9 -->
<g id="edge8" class="edge">
<title>Node8&#45;&gt;Node9</title>
<path fill="none" stroke="midnightblue" d="M442.81,-52.37C465.47,-42.26 496.63,-28.35 516.42,-19.52"/>
<polygon fill="midnightblue" stroke="midnightblue" points="441.38,-49.17 433.67,-56.44 444.23,-55.56 441.38,-49.17"/>
</g>
<!-- Node8&#45;&gt;Node10 -->
<g id="edge9" class="edge">
<title>Node8&#45;&gt;Node10</title>
<path fill="none" stroke="midnightblue" d="M473.68,-56.53C474.96,-56.35 476.24,-56.17 477.5,-56 596.98,-39.47 627,-36.4 746.5,-20 749.5,-19.59 752.58,-19.16 755.69,-18.73"/>
<polygon fill="midnightblue" stroke="midnightblue" points="473.09,-53.08 463.67,-57.93 474.06,-60.01 473.09,-53.08"/>
</g>
<!-- Node8&#45;&gt;Node11 -->
<g id="edge10" class="edge">
<title>Node8&#45;&gt;Node11</title>
<path fill="none" stroke="midnightblue" d="M366.07,-54.28C319.96,-44.08 251.47,-28.92 208.98,-19.52"/>
<polygon fill="midnightblue" stroke="midnightblue" points="365.32,-57.7 375.84,-56.44 366.83,-50.87 365.32,-57.7"/>
</g>
<!-- Node12 -->
<g id="node12" class="node">
<title>Node12</title>
<g id="a_node12"><a xlink:href="../../d9/d0c/btquickwidget_8cpp.html" target="_top" xlink:title=" ">
<polygon fill="white" stroke="black" points="631.5,-0.5 631.5,-19.5 737.5,-19.5 737.5,-0.5 631.5,-0.5"/>
<text text-anchor="middle" x="684.5" y="-7.5" font-family="Helvetica,sans-Serif" font-size="10.00">btquickwidget.cpp</text>
</a>
</g>
</g>
<!-- Node8&#45;&gt;Node12 -->
<g id="edge11" class="edge">
<title>Node8&#45;&gt;Node12</title>
<path fill="none" stroke="midnightblue" d="M467.13,-54.47C518.16,-44.27 594.6,-28.98 641.92,-19.52"/>
<polygon fill="midnightblue" stroke="midnightblue" points="466.4,-51.05 457.28,-56.44 467.77,-57.91 466.4,-51.05"/>
</g>
<!-- Node13 -->
<g id="node13" class="node">
<title>Node13</title>
<g id="a_node13"><a xlink:href="../../d2/d26/cdisplaywindow_8cpp.html" target="_top" xlink:title=" ">
<polygon fill="white" stroke="black" points="245.5,-0.5 245.5,-19.5 359.5,-19.5 359.5,-0.5 245.5,-0.5"/>
<text text-anchor="middle" x="302.5" y="-7.5" font-family="Helvetica,sans-Serif" font-size="10.00">cdisplaywindow.cpp</text>
</a>
</g>
</g>
<!-- Node8&#45;&gt;Node13 -->
<g id="edge12" class="edge">
<title>Node8&#45;&gt;Node13</title>
<path fill="none" stroke="midnightblue" d="M387.25,-51.86C366.48,-41.85 338.48,-28.35 320.45,-19.65"/>
<polygon fill="midnightblue" stroke="midnightblue" points="385.98,-55.13 396.51,-56.32 389.02,-48.83 385.98,-55.13"/>
</g>
<!-- Node14 -->
<g id="node14" class="node">
<title>Node14</title>
<g id="a_node14"><a xlink:href="../../df/d0a/main_8cpp.html" target="_top" xlink:title=" ">
<polygon fill="white" stroke="black" points="377.5,-0.5 377.5,-19.5 439.5,-19.5 439.5,-0.5 377.5,-0.5"/>
<text text-anchor="middle" x="408.5" y="-7.5" font-family="Helvetica,sans-Serif" font-size="10.00">main.cpp</text>
</a>
</g>
</g>
<!-- Node8&#45;&gt;Node14 -->
<g id="edge13" class="edge">
<title>Node8&#45;&gt;Node14</title>
<path fill="none" stroke="midnightblue" d="M412.4,-46.1C411.4,-37.14 410.26,-26.86 409.47,-19.75"/>
<polygon fill="midnightblue" stroke="midnightblue" points="408.93,-46.53 413.51,-56.08 415.88,-45.76 408.93,-46.53"/>
</g>
<!-- Node18 -->
<g id="node18" class="node">
<title>Node18</title>
<g id="a_node18"><a xlink:href="../../d7/d67/cbookreadwindow_8cpp.html" target="_top" xlink:title=" ">
<polygon fill="white" stroke="black" points="520,-112.5 520,-131.5 645,-131.5 645,-112.5 520,-112.5"/>
<text text-anchor="middle" x="582.5" y="-119.5" font-family="Helvetica,sans-Serif" font-size="10.00">cbookreadwindow.cpp</text>
</a>
</g>
</g>
<!-- Node17&#45;&gt;Node18 -->
<g id="edge21" class="edge">
<title>Node17&#45;&gt;Node18</title>
<path fill="none" stroke="midnightblue" d="M582.5,-157.8C582.5,-148.91 582.5,-138.78 582.5,-131.75"/>
<polygon fill="midnightblue" stroke="midnightblue" points="579,-158.08 582.5,-168.08 586,-158.08 579,-158.08"/>
</g>
<!-- Node17&#45;&gt;Node19 -->
<g id="edge22" class="edge">
<title>Node17&#45;&gt;Node19</title>
<path fill="none" stroke="midnightblue" d="M614.66,-164.77C641.33,-154.63 678.57,-140.47 702.1,-131.52"/>
<polygon fill="midnightblue" stroke="midnightblue" points="613.1,-161.62 605,-168.44 615.59,-168.16 613.1,-161.62"/>
</g>
</g>
</svg>
