<?xml version="1.0" encoding="UTF-8" standalone="no"?>
<!DOCTYPE svg PUBLIC "-//W3C//DTD SVG 1.1//EN"
 "http://www.w3.org/Graphics/SVG/1.1/DTD/svg11.dtd">
<!-- Generated by graphviz version 2.43.0 (0)
 -->
<!-- Title: QDockWidget Pages: 1 -->
<svg width="156pt" height="397pt"
 viewBox="0.00 0.00 156.00 397.00" xmlns="http://www.w3.org/2000/svg" xmlns:xlink="http://www.w3.org/1999/xlink">
<g id="graph0" class="graph" transform="scale(1 1) rotate(0) translate(4 393)">
<title>QDockWidget</title>
<!-- Node1 -->
<g id="Node000001" class="node">
<title>Node1</title>
<g id="a_Node000001"><a xlink:title=" ">
<polygon fill="#999999" stroke="transparent" points="112.5,-389 35.5,-389 35.5,-340 112.5,-340 112.5,-389"/>
<text text-anchor="start" x="41" y="-376.5" font-family="Helvetica,sans-Serif" font-size="10.00">QDockWidget</text>
<text text-anchor="start" x="72.5" y="-361.5" font-family="Helvetica,sans-Serif" font-size="10.00"> </text>
<text text-anchor="start" x="72.5" y="-346.5" font-family="Helvetica,sans-Serif" font-size="10.00"> </text>
<polygon fill="#666666" stroke="#666666" points="36,-371.5 36,-371.5 113,-371.5 113,-371.5 36,-371.5"/>
<polygon fill="#666666" stroke="#666666" points="36,-356.5 36,-356.5 113,-356.5 113,-356.5 36,-356.5"/>
<polygon fill="none" stroke="#666666" points="35.5,-340 35.5,-389 112.5,-389 112.5,-340 35.5,-340"/>
</a>
</g>
</g>
<!-- Node2 -->
<g id="Node000002" class="node">
<title>Node2</title>
<g id="a_Node000002"><a xlink:href="../../d5/daf/classBtBookshelfDockWidget.html" target="_top" xlink:title=" ">
<polygon fill="white" stroke="transparent" points="148,-304 0,-304 0,0 148,0 148,-304"/>
<text text-anchor="start" x="14.5" y="-292" font-family="Helvetica,sans-Serif" font-size="10.00">BtBookshelfDockWidget</text>
<text text-anchor="start" x="4" y="-277" font-family="Helvetica,sans-Serif" font-size="10.00">#</text>
<text text-anchor="start" x="17" y="-277" font-family="Helvetica,sans-Serif" font-size="10.00">m_bookshelfWidget</text>
<text text-anchor="start" x="4" y="-262" font-family="Helvetica,sans-Serif" font-size="10.00">#</text>
<text text-anchor="start" x="17" y="-262" font-family="Helvetica,sans-Serif" font-size="10.00">m_installButton</text>
<text text-anchor="start" x="4" y="-247" font-family="Helvetica,sans-Serif" font-size="10.00">#</text>
<text text-anchor="start" x="17" y="-247" font-family="Helvetica,sans-Serif" font-size="10.00">m_installLabel</text>
<text text-anchor="start" x="4" y="-232" font-family="Helvetica,sans-Serif" font-size="10.00">#</text>
<text text-anchor="start" x="17" y="-232" font-family="Helvetica,sans-Serif" font-size="10.00">m_itemAboutAction</text>
<text text-anchor="start" x="4" y="-217" font-family="Helvetica,sans-Serif" font-size="10.00">#</text>
<text text-anchor="start" x="17" y="-217" font-family="Helvetica,sans-Serif" font-size="10.00">m_itemContextMenu</text>
<text text-anchor="start" x="4" y="-202" font-family="Helvetica,sans-Serif" font-size="10.00">#</text>
<text text-anchor="start" x="17" y="-202" font-family="Helvetica,sans-Serif" font-size="10.00">m_itemOpenAction</text>
<text text-anchor="start" x="4" y="-187" font-family="Helvetica,sans-Serif" font-size="10.00">#</text>
<text text-anchor="start" x="17" y="-187" font-family="Helvetica,sans-Serif" font-size="10.00">m_itemSearchAction</text>
<text text-anchor="start" x="4" y="-172" font-family="Helvetica,sans-Serif" font-size="10.00">#</text>
<text text-anchor="start" x="17" y="-172" font-family="Helvetica,sans-Serif" font-size="10.00">m_itemUnlockAction</text>
<text text-anchor="start" x="4" y="-157" font-family="Helvetica,sans-Serif" font-size="10.00">#</text>
<text text-anchor="start" x="17" y="-157" font-family="Helvetica,sans-Serif" font-size="10.00">m_stackedWidget</text>
<text text-anchor="start" x="4" y="-142" font-family="Helvetica,sans-Serif" font-size="10.00">#</text>
<text text-anchor="start" x="17" y="-142" font-family="Helvetica,sans-Serif" font-size="10.00">m_treeModel</text>
<text text-anchor="start" x="4" y="-127" font-family="Helvetica,sans-Serif" font-size="10.00">#</text>
<text text-anchor="start" x="17" y="-127" font-family="Helvetica,sans-Serif" font-size="10.00">m_welcomeWidget</text>
<text text-anchor="start" x="4" y="-112" font-family="Helvetica,sans-Serif" font-size="10.00">#</text>
<text text-anchor="start" x="17" y="-112" font-family="Helvetica,sans-Serif" font-size="10.00">m_instance</text>
<text text-anchor="start" x="4" y="-97" font-family="Helvetica,sans-Serif" font-size="10.00">+</text>
<text text-anchor="start" x="17" y="-97" font-family="Helvetica,sans-Serif" font-size="10.00">BtBookshelfDockWidget()</text>
<text text-anchor="start" x="4" y="-82" font-family="Helvetica,sans-Serif" font-size="10.00">+</text>
<text text-anchor="start" x="17" y="-82" font-family="Helvetica,sans-Serif" font-size="10.00">groupingOrder()</text>
<text text-anchor="start" x="4" y="-67" font-family="Helvetica,sans-Serif" font-size="10.00">+</text>
<text text-anchor="start" x="17" y="-67" font-family="Helvetica,sans-Serif" font-size="10.00">loadBookshelfState()</text>
<text text-anchor="start" x="4" y="-52" font-family="Helvetica,sans-Serif" font-size="10.00">+</text>
<text text-anchor="start" x="17" y="-52" font-family="Helvetica,sans-Serif" font-size="10.00">saveBookshelfState()</text>
<text text-anchor="start" x="4" y="-37" font-family="Helvetica,sans-Serif" font-size="10.00">+</text>
<text text-anchor="start" x="17" y="-37" font-family="Helvetica,sans-Serif" font-size="10.00">getInstance()</text>
<text text-anchor="start" x="4" y="-22" font-family="Helvetica,sans-Serif" font-size="10.00">#</text>
<text text-anchor="start" x="17" y="-22" font-family="Helvetica,sans-Serif" font-size="10.00">initMenus()</text>
<text text-anchor="start" x="4" y="-7" font-family="Helvetica,sans-Serif" font-size="10.00">#</text>
<text text-anchor="start" x="17" y="-7" font-family="Helvetica,sans-Serif" font-size="10.00">retranslateUi()</text>
<polygon fill="#666666" stroke="#666666" points="0,-287 0,-287 148,-287 148,-287 0,-287"/>
<polygon fill="#666666" stroke="#666666" points="0,-107 0,-107 15,-107 15,-107 0,-107"/>
<polygon fill="#666666" stroke="#666666" points="15,-107 15,-107 148,-107 148,-107 15,-107"/>
<polygon fill="none" stroke="#666666" points="0,0 0,-304 148,-304 148,0 0,0"/>
</a>
</g>
</g>
<!-- Node1&#45;&gt;Node2 -->
<g id="edge1_Node000001_Node000002" class="edge">
<title>Node1&#45;&gt;Node2</title>
<g id="a_edge1_Node000001_Node000002"><a xlink:title=" ">
<path fill="none" stroke="#63b8ff" d="M74,-329.65C74,-322.03 74,-313.46 74,-304.31"/>
<polygon fill="none" stroke="#63b8ff" points="70.5,-329.76 74,-339.76 77.5,-329.76 70.5,-329.76"/>
</a>
</g>
</g>
</g>
</svg>
