<?xml version="1.0" encoding="UTF-8" standalone="no"?>
<!DOCTYPE svg PUBLIC "-//W3C//DTD SVG 1.1//EN"
 "http://www.w3.org/Graphics/SVG/1.1/DTD/svg11.dtd">
<!-- Generated by graphviz version 2.43.0 (0)
 -->
<!-- Title: Rendering::CPlainTextExportRendering Pages: 1 -->
<svg width="157pt" height="423pt"
 viewBox="0.00 0.00 157.00 423.00" xmlns="http://www.w3.org/2000/svg" xmlns:xlink="http://www.w3.org/1999/xlink">
<g id="graph0" class="graph" transform="scale(1 1) rotate(0) translate(4 419)">
<title>Rendering::CPlainTextExportRendering</title>
<!-- Node1 -->
<g id="Node000001" class="node">
<title>Node1</title>
<g id="a_Node000001"><a xlink:title="Text rendering as plain text.">
<polygon fill="#999999" stroke="transparent" points="149,-105 0,-105 0,0 149,0 149,-105"/>
<text text-anchor="start" x="5.5" y="-92.5" font-family="Helvetica,sans-Serif" font-size="10.00">Rendering::CPlainTextExport</text>
<text text-anchor="start" x="50" y="-81.5" font-family="Helvetica,sans-Serif" font-size="10.00">Rendering</text>
<text text-anchor="start" x="73" y="-66.5" font-family="Helvetica,sans-Serif" font-size="10.00"> </text>
<text text-anchor="start" x="15" y="-51.5" font-family="Helvetica,sans-Serif" font-size="10.00">+</text>
<text text-anchor="start" x="38.5" y="-51.5" font-family="Helvetica,sans-Serif" font-size="10.00">CTextRendering()</text>
<text text-anchor="start" x="15" y="-36.5" font-family="Helvetica,sans-Serif" font-size="10.00">+</text>
<text text-anchor="start" x="38.5" y="-36.5" font-family="Helvetica,sans-Serif" font-size="10.00">CTextRendering()</text>
<text text-anchor="start" x="15" y="-21.5" font-family="Helvetica,sans-Serif" font-size="10.00">#</text>
<text text-anchor="start" x="38.5" y="-21.5" font-family="Helvetica,sans-Serif" font-size="10.00">finishText()</text>
<text text-anchor="start" x="15" y="-6.5" font-family="Helvetica,sans-Serif" font-size="10.00">#</text>
<text text-anchor="start" x="38.5" y="-6.5" font-family="Helvetica,sans-Serif" font-size="10.00">renderEntry()</text>
<polygon fill="#666666" stroke="#666666" points="0.5,-76.5 0.5,-76.5 149.5,-76.5 149.5,-76.5 0.5,-76.5"/>
<polygon fill="#666666" stroke="#666666" points="0.5,-61.5 0.5,-61.5 149.5,-61.5 149.5,-61.5 0.5,-61.5"/>
<polygon fill="none" stroke="#666666" points="0,0 0,-105 149,-105 149,0 0,0"/>
</a>
</g>
</g>
<!-- Node2 -->
<g id="Node000002" class="node">
<title>Node2</title>
<g id="a_Node000002"><a xlink:href="../../dd/dea/classRendering_1_1CTextRendering.html" target="_top" xlink:title="Text rendering based on trees.">
<polygon fill="white" stroke="transparent" points="146,-415 3,-415 3,-141 146,-141 146,-415"/>
<text text-anchor="start" x="8.5" y="-403" font-family="Helvetica,sans-Serif" font-size="10.00">Rendering::CTextRendering</text>
<text text-anchor="start" x="13.5" y="-388" font-family="Helvetica,sans-Serif" font-size="10.00">#</text>
<text text-anchor="start" x="32.5" y="-388" font-family="Helvetica,sans-Serif" font-size="10.00">m_addText</text>
<text text-anchor="start" x="13.5" y="-373" font-family="Helvetica,sans-Serif" font-size="10.00">#</text>
<text text-anchor="start" x="32.5" y="-373" font-family="Helvetica,sans-Serif" font-size="10.00">m_displayOptions</text>
<text text-anchor="start" x="13.5" y="-358" font-family="Helvetica,sans-Serif" font-size="10.00">#</text>
<text text-anchor="start" x="32.5" y="-358" font-family="Helvetica,sans-Serif" font-size="10.00">m_filterOptions</text>
<text text-anchor="start" x="13.5" y="-343" font-family="Helvetica,sans-Serif" font-size="10.00">+</text>
<text text-anchor="start" x="32.5" y="-343" font-family="Helvetica,sans-Serif" font-size="10.00">CTextRendering()</text>
<text text-anchor="start" x="13.5" y="-328" font-family="Helvetica,sans-Serif" font-size="10.00">+</text>
<text text-anchor="start" x="32.5" y="-328" font-family="Helvetica,sans-Serif" font-size="10.00">CTextRendering()</text>
<text text-anchor="start" x="13.5" y="-313" font-family="Helvetica,sans-Serif" font-size="10.00">+</text>
<text text-anchor="start" x="32.5" y="-313" font-family="Helvetica,sans-Serif" font-size="10.00">displayOptions()</text>
<text text-anchor="start" x="13.5" y="-298" font-family="Helvetica,sans-Serif" font-size="10.00">+</text>
<text text-anchor="start" x="32.5" y="-298" font-family="Helvetica,sans-Serif" font-size="10.00">filterOptions()</text>
<text text-anchor="start" x="13.5" y="-283" font-family="Helvetica,sans-Serif" font-size="10.00">+</text>
<text text-anchor="start" x="32.5" y="-283" font-family="Helvetica,sans-Serif" font-size="10.00">renderKeyRange()</text>
<text text-anchor="start" x="13.5" y="-268" font-family="Helvetica,sans-Serif" font-size="10.00">+</text>
<text text-anchor="start" x="32.5" y="-268" font-family="Helvetica,sans-Serif" font-size="10.00">renderKeyTree()</text>
<text text-anchor="start" x="13.5" y="-253" font-family="Helvetica,sans-Serif" font-size="10.00">+</text>
<text text-anchor="start" x="32.5" y="-253" font-family="Helvetica,sans-Serif" font-size="10.00">renderSingleKey()</text>
<text text-anchor="start" x="13.5" y="-238" font-family="Helvetica,sans-Serif" font-size="10.00">+</text>
<text text-anchor="start" x="32.5" y="-238" font-family="Helvetica,sans-Serif" font-size="10.00">setDisplayOptions()</text>
<text text-anchor="start" x="13.5" y="-223" font-family="Helvetica,sans-Serif" font-size="10.00">+</text>
<text text-anchor="start" x="32.5" y="-223" font-family="Helvetica,sans-Serif" font-size="10.00">setFilterOptions()</text>
<text text-anchor="start" x="13.5" y="-208" font-family="Helvetica,sans-Serif" font-size="10.00">+</text>
<text text-anchor="start" x="32.5" y="-208" font-family="Helvetica,sans-Serif" font-size="10.00">~CTextRendering()</text>
<text text-anchor="start" x="13.5" y="-193" font-family="Helvetica,sans-Serif" font-size="10.00">#</text>
<text text-anchor="start" x="32.5" y="-193" font-family="Helvetica,sans-Serif" font-size="10.00">entryLink()</text>
<text text-anchor="start" x="13.5" y="-178" font-family="Helvetica,sans-Serif" font-size="10.00">#</text>
<text text-anchor="start" x="32.5" y="-178" font-family="Helvetica,sans-Serif" font-size="10.00">finishText()</text>
<text text-anchor="start" x="13.5" y="-163" font-family="Helvetica,sans-Serif" font-size="10.00">#</text>
<text text-anchor="start" x="32.5" y="-163" font-family="Helvetica,sans-Serif" font-size="10.00">renderEntry()</text>
<text text-anchor="start" x="13.5" y="-148" font-family="Helvetica,sans-Serif" font-size="10.00">#</text>
<text text-anchor="start" x="32.5" y="-148" font-family="Helvetica,sans-Serif" font-size="10.00">collectModules()</text>
<polygon fill="#666666" stroke="#666666" points="3.5,-398 3.5,-398 146.5,-398 146.5,-398 3.5,-398"/>
<polygon fill="#666666" stroke="#666666" points="3.5,-353 3.5,-353 30.5,-353 30.5,-353 3.5,-353"/>
<polygon fill="#666666" stroke="#666666" points="30.5,-353 30.5,-353 146.5,-353 146.5,-353 30.5,-353"/>
<polygon fill="none" stroke="#666666" points="3,-141 3,-415 146,-415 146,-141 3,-141"/>
</a>
</g>
</g>
<!-- Node2&#45;&gt;Node1 -->
<g id="edge1_Node000001_Node000002" class="edge">
<title>Node2&#45;&gt;Node1</title>
<g id="a_edge1_Node000001_Node000002"><a xlink:title=" ">
<path fill="none" stroke="#63b8ff" d="M74.5,-130.66C74.5,-121.73 74.5,-113.13 74.5,-105.12"/>
<polygon fill="none" stroke="#63b8ff" points="71,-130.87 74.5,-140.87 78,-130.87 71,-130.87"/>
</a>
</g>
</g>
</g>
</svg>
