<?xml version="1.0" encoding="UTF-8" standalone="no"?>
<!DOCTYPE svg PUBLIC "-//W3C//DTD SVG 1.1//EN"
 "http://www.w3.org/Graphics/SVG/1.1/DTD/svg11.dtd">
<!-- Generated by graphviz version 2.43.0 (0)
 -->
<!-- Title: BtToolBarPopupAction Pages: 1 -->
<svg width="159pt" height="226pt"
 viewBox="0.00 0.00 159.00 226.00" xmlns="http://www.w3.org/2000/svg" xmlns:xlink="http://www.w3.org/1999/xlink">
<g id="graph0" class="graph" transform="scale(1 1) rotate(0) translate(4 222)">
<title>BtToolBarPopupAction</title>
<polygon fill="white" stroke="transparent" points="-4,4 -4,-222 155,-222 155,4 -4,4"/>
<!-- Node1 -->
<g id="node1" class="node">
<title>Node1</title>
<g id="a_node1"><a xlink:title=" ">
<polygon fill="#bfbfbf" stroke="black" points="0,-0.5 0,-123.5 151,-123.5 151,-0.5 0,-0.5"/>
<text text-anchor="middle" x="75.5" y="-111.5" font-family="Helvetica,sans-Serif" font-size="10.00">BtToolBarPopupAction</text>
<polyline fill="none" stroke="black" points="0,-104.5 151,-104.5 "/>
<text text-anchor="start" x="8" y="-92.5" font-family="Helvetica,sans-Serif" font-size="10.00">&#45; m_icon</text>
<text text-anchor="start" x="8" y="-81.5" font-family="Helvetica,sans-Serif" font-size="10.00">&#45; m_menu</text>
<text text-anchor="start" x="8" y="-70.5" font-family="Helvetica,sans-Serif" font-size="10.00">&#45; m_text</text>
<polyline fill="none" stroke="black" points="0,-63.5 151,-63.5 "/>
<text text-anchor="start" x="8" y="-51.5" font-family="Helvetica,sans-Serif" font-size="10.00">+ BtToolBarPopupAction()</text>
<text text-anchor="start" x="8" y="-40.5" font-family="Helvetica,sans-Serif" font-size="10.00">+ event()</text>
<text text-anchor="start" x="8" y="-29.5" font-family="Helvetica,sans-Serif" font-size="10.00">+ popupMenu()</text>
<text text-anchor="start" x="8" y="-18.5" font-family="Helvetica,sans-Serif" font-size="10.00">+ ~BtToolBarPopupAction()</text>
<text text-anchor="start" x="8" y="-7.5" font-family="Helvetica,sans-Serif" font-size="10.00"># createWidget()</text>
</a>
</g>
</g>
<!-- Node2 -->
<g id="node2" class="node">
<title>Node2</title>
<g id="a_node2"><a xlink:href="../../dd/d5d/classQWidgetAction.html" target="_top" xlink:title=" ">
<polygon fill="white" stroke="black" points="31,-160.5 31,-217.5 120,-217.5 120,-160.5 31,-160.5"/>
<text text-anchor="middle" x="75.5" y="-205.5" font-family="Helvetica,sans-Serif" font-size="10.00">QWidgetAction</text>
<polyline fill="none" stroke="black" points="31,-198.5 120,-198.5 "/>
<text text-anchor="middle" x="75.5" y="-186.5" font-family="Helvetica,sans-Serif" font-size="10.00"> </text>
<polyline fill="none" stroke="black" points="31,-179.5 120,-179.5 "/>
<text text-anchor="middle" x="75.5" y="-167.5" font-family="Helvetica,sans-Serif" font-size="10.00"> </text>
</a>
</g>
</g>
<!-- Node2&#45;&gt;Node1 -->
<g id="edge1" class="edge">
<title>Node2&#45;&gt;Node1</title>
<path fill="none" stroke="midnightblue" d="M75.5,-150.1C75.5,-141.74 75.5,-132.68 75.5,-123.67"/>
<polygon fill="none" stroke="midnightblue" points="72,-150.26 75.5,-160.26 79,-150.26 72,-150.26"/>
</g>
</g>
</svg>
