<?xml version="1.0" encoding="UTF-8" standalone="no"?>
<!DOCTYPE svg PUBLIC "-//W3C//DTD SVG 1.1//EN"
 "http://www.w3.org/Graphics/SVG/1.1/DTD/svg11.dtd">
<!-- Generated by graphviz version 2.43.0 (0)
 -->
<!-- Title: CSwordLDKey Pages: 1 -->
<svg width="110pt" height="577pt"
 viewBox="0.00 0.00 110.00 577.00" xmlns="http://www.w3.org/2000/svg" xmlns:xlink="http://www.w3.org/1999/xlink">
<g id="graph0" class="graph" transform="scale(1 1) rotate(0) translate(4 573)">
<title>CSwordLDKey</title>
<!-- Node1 -->
<g id="Node000001" class="node">
<title>Node1</title>
<g id="a_Node000001"><a xlink:title=" ">
<polygon fill="#999999" stroke="transparent" points="99.5,-229 2.5,-229 2.5,0 99.5,0 99.5,-229"/>
<text text-anchor="start" x="17.5" y="-216.5" font-family="Helvetica,sans-Serif" font-size="10.00">CSwordLDKey</text>
<text text-anchor="start" x="9.5" y="-201.5" font-family="Helvetica,sans-Serif" font-size="10.00">&#45;</text>
<text text-anchor="start" x="20" y="-201.5" font-family="Helvetica,sans-Serif" font-size="10.00">m_key</text>
<text text-anchor="start" x="7" y="-186.5" font-family="Helvetica,sans-Serif" font-size="10.00">+</text>
<text text-anchor="start" x="20" y="-186.5" font-family="Helvetica,sans-Serif" font-size="10.00">asSwordKey()</text>
<text text-anchor="start" x="7" y="-171.5" font-family="Helvetica,sans-Serif" font-size="10.00">+</text>
<text text-anchor="start" x="20" y="-171.5" font-family="Helvetica,sans-Serif" font-size="10.00">copy()</text>
<text text-anchor="start" x="7" y="-156.5" font-family="Helvetica,sans-Serif" font-size="10.00">+</text>
<text text-anchor="start" x="20" y="-156.5" font-family="Helvetica,sans-Serif" font-size="10.00">CSwordLDKey()</text>
<text text-anchor="start" x="7" y="-141.5" font-family="Helvetica,sans-Serif" font-size="10.00">+</text>
<text text-anchor="start" x="20" y="-141.5" font-family="Helvetica,sans-Serif" font-size="10.00">CSwordLDKey()</text>
<text text-anchor="start" x="7" y="-126.5" font-family="Helvetica,sans-Serif" font-size="10.00">+</text>
<text text-anchor="start" x="20" y="-126.5" font-family="Helvetica,sans-Serif" font-size="10.00">CSwordLDKey()</text>
<text text-anchor="start" x="7" y="-111.5" font-family="Helvetica,sans-Serif" font-size="10.00">+</text>
<text text-anchor="start" x="20" y="-111.5" font-family="Helvetica,sans-Serif" font-size="10.00">key()</text>
<text text-anchor="start" x="7" y="-96.5" font-family="Helvetica,sans-Serif" font-size="10.00">+</text>
<text text-anchor="start" x="20" y="-96.5" font-family="Helvetica,sans-Serif" font-size="10.00">NextEntry()</text>
<text text-anchor="start" x="7" y="-81.5" font-family="Helvetica,sans-Serif" font-size="10.00">+</text>
<text text-anchor="start" x="20" y="-81.5" font-family="Helvetica,sans-Serif" font-size="10.00">operator=()</text>
<text text-anchor="start" x="7" y="-66.5" font-family="Helvetica,sans-Serif" font-size="10.00">+</text>
<text text-anchor="start" x="20" y="-66.5" font-family="Helvetica,sans-Serif" font-size="10.00">PreviousEntry()</text>
<text text-anchor="start" x="7" y="-51.5" font-family="Helvetica,sans-Serif" font-size="10.00">+</text>
<text text-anchor="start" x="20" y="-51.5" font-family="Helvetica,sans-Serif" font-size="10.00">setKey()</text>
<text text-anchor="start" x="7" y="-36.5" font-family="Helvetica,sans-Serif" font-size="10.00">+</text>
<text text-anchor="start" x="20" y="-36.5" font-family="Helvetica,sans-Serif" font-size="10.00">setKey()</text>
<text text-anchor="start" x="7" y="-21.5" font-family="Helvetica,sans-Serif" font-size="10.00">+</text>
<text text-anchor="start" x="20" y="-21.5" font-family="Helvetica,sans-Serif" font-size="10.00">setModule()</text>
<text text-anchor="start" x="7" y="-6.5" font-family="Helvetica,sans-Serif" font-size="10.00">#</text>
<text text-anchor="start" x="20" y="-6.5" font-family="Helvetica,sans-Serif" font-size="10.00">rawKey()</text>
<polygon fill="#666666" stroke="#666666" points="3,-211.5 3,-211.5 100,-211.5 100,-211.5 3,-211.5"/>
<polygon fill="#666666" stroke="#666666" points="3,-196.5 3,-196.5 18,-196.5 18,-196.5 3,-196.5"/>
<polygon fill="#666666" stroke="#666666" points="18,-196.5 18,-196.5 100,-196.5 100,-196.5 18,-196.5"/>
<polygon fill="none" stroke="#666666" points="2.5,0 2.5,-229 99.5,-229 99.5,0 2.5,0"/>
</a>
</g>
</g>
<!-- Node2 -->
<g id="Node000002" class="node">
<title>Node2</title>
<g id="a_Node000002"><a xlink:href="../../dc/dd2/classCSwordKey.html" target="_top" xlink:title=" ">
<polygon fill="white" stroke="transparent" points="102,-569 0,-569 0,-265 102,-265 102,-569"/>
<text text-anchor="start" x="23.5" y="-557" font-family="Helvetica,sans-Serif" font-size="10.00">CSwordKey</text>
<text text-anchor="start" x="4" y="-542" font-family="Helvetica,sans-Serif" font-size="10.00">#</text>
<text text-anchor="start" x="17" y="-542" font-family="Helvetica,sans-Serif" font-size="10.00">m_module</text>
<text text-anchor="start" x="4" y="-527" font-family="Helvetica,sans-Serif" font-size="10.00">#</text>
<text text-anchor="start" x="17" y="-527" font-family="Helvetica,sans-Serif" font-size="10.00">m_valid</text>
<text text-anchor="start" x="4" y="-512" font-family="Helvetica,sans-Serif" font-size="10.00">+</text>
<text text-anchor="start" x="17" y="-512" font-family="Helvetica,sans-Serif" font-size="10.00">asSwordKey()</text>
<text text-anchor="start" x="4" y="-497" font-family="Helvetica,sans-Serif" font-size="10.00">+</text>
<text text-anchor="start" x="17" y="-497" font-family="Helvetica,sans-Serif" font-size="10.00">copy()</text>
<text text-anchor="start" x="4" y="-482" font-family="Helvetica,sans-Serif" font-size="10.00">+</text>
<text text-anchor="start" x="17" y="-482" font-family="Helvetica,sans-Serif" font-size="10.00">isValid()</text>
<text text-anchor="start" x="4" y="-467" font-family="Helvetica,sans-Serif" font-size="10.00">+</text>
<text text-anchor="start" x="17" y="-467" font-family="Helvetica,sans-Serif" font-size="10.00">key()</text>
<text text-anchor="start" x="4" y="-452" font-family="Helvetica,sans-Serif" font-size="10.00">+</text>
<text text-anchor="start" x="17" y="-452" font-family="Helvetica,sans-Serif" font-size="10.00">module()</text>
<text text-anchor="start" x="4" y="-437" font-family="Helvetica,sans-Serif" font-size="10.00">+</text>
<text text-anchor="start" x="17" y="-437" font-family="Helvetica,sans-Serif" font-size="10.00">normalizedKey()</text>
<text text-anchor="start" x="4" y="-422" font-family="Helvetica,sans-Serif" font-size="10.00">+</text>
<text text-anchor="start" x="17" y="-422" font-family="Helvetica,sans-Serif" font-size="10.00">operator=()</text>
<text text-anchor="start" x="4" y="-407" font-family="Helvetica,sans-Serif" font-size="10.00">+</text>
<text text-anchor="start" x="17" y="-407" font-family="Helvetica,sans-Serif" font-size="10.00">rawText()</text>
<text text-anchor="start" x="4" y="-392" font-family="Helvetica,sans-Serif" font-size="10.00">+</text>
<text text-anchor="start" x="17" y="-392" font-family="Helvetica,sans-Serif" font-size="10.00">renderedText()</text>
<text text-anchor="start" x="4" y="-377" font-family="Helvetica,sans-Serif" font-size="10.00">+</text>
<text text-anchor="start" x="17" y="-377" font-family="Helvetica,sans-Serif" font-size="10.00">setKey()</text>
<text text-anchor="start" x="4" y="-362" font-family="Helvetica,sans-Serif" font-size="10.00">+</text>
<text text-anchor="start" x="17" y="-362" font-family="Helvetica,sans-Serif" font-size="10.00">setKey()</text>
<text text-anchor="start" x="4" y="-347" font-family="Helvetica,sans-Serif" font-size="10.00">+</text>
<text text-anchor="start" x="17" y="-347" font-family="Helvetica,sans-Serif" font-size="10.00">setModule()</text>
<text text-anchor="start" x="4" y="-332" font-family="Helvetica,sans-Serif" font-size="10.00">+</text>
<text text-anchor="start" x="17" y="-332" font-family="Helvetica,sans-Serif" font-size="10.00">strippedText()</text>
<text text-anchor="start" x="4" y="-317" font-family="Helvetica,sans-Serif" font-size="10.00">+</text>
<text text-anchor="start" x="17" y="-317" font-family="Helvetica,sans-Serif" font-size="10.00">~CSwordKey()</text>
<text text-anchor="start" x="4" y="-302" font-family="Helvetica,sans-Serif" font-size="10.00">#</text>
<text text-anchor="start" x="17" y="-302" font-family="Helvetica,sans-Serif" font-size="10.00">CSwordKey()</text>
<text text-anchor="start" x="4" y="-287" font-family="Helvetica,sans-Serif" font-size="10.00">#</text>
<text text-anchor="start" x="17" y="-287" font-family="Helvetica,sans-Serif" font-size="10.00">CSwordKey()</text>
<text text-anchor="start" x="4" y="-272" font-family="Helvetica,sans-Serif" font-size="10.00">#</text>
<text text-anchor="start" x="17" y="-272" font-family="Helvetica,sans-Serif" font-size="10.00">rawKey()</text>
<polygon fill="#666666" stroke="#666666" points="0,-552 0,-552 102,-552 102,-552 0,-552"/>
<polygon fill="#666666" stroke="#666666" points="0,-522 0,-522 15,-522 15,-522 0,-522"/>
<polygon fill="#666666" stroke="#666666" points="15,-522 15,-522 102,-522 102,-522 15,-522"/>
<polygon fill="none" stroke="#666666" points="0,-265 0,-569 102,-569 102,-265 0,-265"/>
</a>
</g>
</g>
<!-- Node2&#45;&gt;Node1 -->
<g id="edge1_Node000001_Node000002" class="edge">
<title>Node2&#45;&gt;Node1</title>
<g id="a_edge1_Node000001_Node000002"><a xlink:title=" ">
<path fill="none" stroke="#63b8ff" d="M51,-254.77C51,-246.17 51,-237.63 51,-229.24"/>
<polygon fill="none" stroke="#63b8ff" points="47.5,-254.87 51,-264.87 54.5,-254.87 47.5,-254.87"/>
</a>
</g>
</g>
</g>
</svg>
