<?xml version="1.0" encoding="UTF-8" standalone="no"?>
<!DOCTYPE svg PUBLIC "-//W3C//DTD SVG 1.1//EN"
 "http://www.w3.org/Graphics/SVG/1.1/DTD/svg11.dtd">
<!-- Generated by graphviz version 2.43.0 (0)
 -->
<!-- Title: btmoduleset.h Pages: 1 -->
<!--zoomable 192 -->

<svg id="main" version="1.1" xmlns="http://www.w3.org/2000/svg" xmlns:xlink="http://www.w3.org/1999/xlink" xml:space="preserve" onload="init(evt)">
<style type="text/css"><![CDATA[
.node, .edge {opacity: 0.7;}
.node.selected, .edge.selected {opacity: 1;}
.edge:hover path { stroke: red; }
.edge:hover polygon { stroke: red; fill: red; }
]]></style>

<defs>
  <circle id="rim" cx="0" cy="0" r="7"/>
  <circle id="rim2" cx="0" cy="0" r="3.5"/>
  <g id="zoomPlus">
    <use xlink:href="#rim" fill="#404040"><set attributeName="fill" to="#808080" begin="zoomplus.mouseover" end="zoomplus.mouseout"/></use>
    <path d="M-4,0h8M0,-4v8" fill="none" stroke="white" stroke-width="1.5" pointer-events="none"/>
  </g>
  <g id="zoomMin">
    <use xlink:href="#rim" fill="#404040"><set attributeName="fill" to="#808080" begin="zoomminus.mouseover" end="zoomminus.mouseout"/></use>
    <path d="M-4,0h8" fill="none" stroke="white" stroke-width="1.5" pointer-events="none"/>
  </g>
  <g id="arrowUp" transform="translate(30 24)">
    <use xlink:href="#rim"/>
    <path pointer-events="none" fill="none" stroke="white" stroke-width="1.5" d="M0,-3.0v7 M-2.5,-0.5L0,-3.0L2.5,-0.5"/>
  </g>
  <g id="arrowRight" transform="rotate(90) translate(36 -43)">
    <use xlink:href="#rim"/>
    <path pointer-events="none" fill="none" stroke="white" stroke-width="1.5" d="M0,-3.0v7 M-2.5,-0.5L0,-3.0L2.5,-0.5"/>
  </g>
  <g id="arrowDown" transform="rotate(180) translate(-30 -48)">
    <use xlink:href="#rim"/>
    <path pointer-events="none" fill="none" stroke="white" stroke-width="1.5" d="M0,-3.0v7 M-2.5,-0.5L0,-3.0L2.5,-0.5"/>
  </g>
  <g id="arrowLeft" transform="rotate(270) translate(-36 17)">
    <use xlink:href="#rim"/>
    <path pointer-events="none" fill="none" stroke="white" stroke-width="1.5" d="M0,-3.0v7 M-2.5,-0.5L0,-3.0L2.5,-0.5"/>
  </g>
  <g id="resetDef">
    <use xlink:href="#rim2" fill="#404040"><set attributeName="fill" to="#808080" begin="reset.mouseover" end="reset.mouseout"/></use>
  </g>
</defs>
<script type="application/ecmascript">
var viewWidth = 2278;
var viewHeight = 192;
var sectionId = 'dynsection-0';
</script>
<script type="application/ecmascript" xlink:href="../../svg.min.js"/>
<svg id="graph" class="graph">
<g id="viewport">
<title>btmoduleset.h</title>
<!-- Node1 -->
<g id="Node000001" class="node">
<title>Node1</title>
<g id="a_Node000001"><a xlink:title=" ">
<polygon fill="#999999" stroke="#666666" points="280.69,-184 193.69,-184 193.69,-165 280.69,-165 280.69,-184"/>
<text text-anchor="middle" x="237.19" y="-172" font-family="Helvetica,sans-Serif" font-size="10.00">btmoduleset.h</text>
</a>
</g>
</g>
<!-- Node2 -->
<g id="Node000002" class="node">
<title>Node2</title>
<g id="a_Node000002"><a xlink:href="../../dc/d04/btbookshelfinstallfinalpage_8cpp.html" target="_top" xlink:title=" ">
<polygon fill="white" stroke="#666666" points="181.69,-74 12.69,-74 12.69,-55 181.69,-55 181.69,-74"/>
<text text-anchor="middle" x="97.19" y="-62" font-family="Helvetica,sans-Serif" font-size="10.00">btbookshelfinstallfinalpage.cpp</text>
</a>
</g>
</g>
<!-- Node1&#45;&gt;Node2 -->
<g id="edge1_Node000001_Node000002" class="edge">
<title>Node1&#45;&gt;Node2</title>
<g id="a_edge1_Node000001_Node000002"><a xlink:title=" ">
<path fill="none" stroke="#63b8ff" d="M183.55,-168.67C132.05,-162.79 59.59,-150.82 42.19,-129 26.09,-108.82 58.55,-86.19 80.11,-74.14"/>
<polygon fill="#63b8ff" stroke="#63b8ff" points="183.22,-172.15 193.54,-169.76 183.99,-165.2 183.22,-172.15"/>
</a>
</g>
</g>
<!-- Node3 -->
<g id="Node000003" class="node">
<title>Node3</title>
<g id="a_Node000003"><a xlink:href="../../d7/d33/btbookshelfinstallfinalpage_8h.html" target="_top" xlink:title=" ">
<polygon fill="white" stroke="#666666" points="209.19,-129 51.19,-129 51.19,-110 209.19,-110 209.19,-129"/>
<text text-anchor="middle" x="130.19" y="-117" font-family="Helvetica,sans-Serif" font-size="10.00">btbookshelfinstallfinalpage.h</text>
</a>
</g>
</g>
<!-- Node1&#45;&gt;Node3 -->
<g id="edge2_Node000001_Node000003" class="edge">
<title>Node1&#45;&gt;Node3</title>
<g id="a_edge2_Node000001_Node000003"><a xlink:title=" ">
<path fill="none" stroke="#63b8ff" d="M210.94,-160.5C191.26,-150.75 164.86,-137.68 147.69,-129.17"/>
<polygon fill="#63b8ff" stroke="#63b8ff" points="209.48,-163.68 220,-164.98 212.59,-157.41 209.48,-163.68"/>
</a>
</g>
</g>
<!-- Node4 -->
<g id="Node000004" class="node">
<title>Node4</title>
<g id="a_Node000004"><a xlink:href="../../d6/d54/btbookshelfwizard_8cpp.html" target="_top" xlink:title=" ">
<polygon fill="white" stroke="#666666" points="272.19,-19 146.19,-19 146.19,0 272.19,0 272.19,-19"/>
<text text-anchor="middle" x="209.19" y="-7" font-family="Helvetica,sans-Serif" font-size="10.00">btbookshelfwizard.cpp</text>
</a>
</g>
</g>
<!-- Node1&#45;&gt;Node4 -->
<g id="edge38_Node000001_Node000004" class="edge">
<title>Node1&#45;&gt;Node4</title>
<g id="a_edge38_Node000001_Node000004"><a xlink:title=" ">
<path fill="none" stroke="#63b8ff" d="M183.14,-173.43C139.13,-170.8 77.43,-160.97 34.19,-129 11.63,-112.32 10.31,-101.14 3.19,-74 1.04,-65.83 -2.12,-61.57 3.19,-55 20.94,-33 92.3,-21.35 146.09,-15.57"/>
<polygon fill="#63b8ff" stroke="#63b8ff" points="183.21,-176.94 193.37,-173.93 183.55,-169.95 183.21,-176.94"/>
</a>
</g>
</g>
<!-- Node5 -->
<g id="Node000005" class="node">
<title>Node5</title>
<g id="a_Node000005"><a xlink:href="../../d9/d03/btbookshelfworkspage_8cpp.html" target="_top" xlink:title=" ">
<polygon fill="white" stroke="#666666" points="789.69,-19 642.69,-19 642.69,0 789.69,0 789.69,-19"/>
<text text-anchor="middle" x="716.19" y="-7" font-family="Helvetica,sans-Serif" font-size="10.00">btbookshelfworkspage.cpp</text>
</a>
</g>
</g>
<!-- Node1&#45;&gt;Node5 -->
<g id="edge39_Node000001_Node000005" class="edge">
<title>Node1&#45;&gt;Node5</title>
<g id="a_edge39_Node000001_Node000005"><a xlink:title=" ">
<path fill="none" stroke="#63b8ff" d="M291.12,-169.82C347.51,-164.71 430.51,-153.22 450.19,-129 471.05,-103.33 420.75,-80.2 442.19,-55 467.44,-25.31 570.17,-15.38 642.39,-12.08"/>
<polygon fill="#63b8ff" stroke="#63b8ff" points="290.59,-166.35 280.92,-170.7 291.19,-173.32 290.59,-166.35"/>
</a>
</g>
</g>
<!-- Node6 -->
<g id="Node000006" class="node">
<title>Node6</title>
<g id="a_Node000006"><a xlink:href="../../d0/da0/btbookshelfremovefinalpage_8cpp.html" target="_top" xlink:title=" ">
<polygon fill="white" stroke="#666666" points="441.69,-129 264.69,-129 264.69,-110 441.69,-110 441.69,-129"/>
<text text-anchor="middle" x="353.19" y="-117" font-family="Helvetica,sans-Serif" font-size="10.00">btbookshelfremovefinalpage.cpp</text>
</a>
</g>
</g>
<!-- Node1&#45;&gt;Node6 -->
<g id="edge6_Node000001_Node000006" class="edge">
<title>Node1&#45;&gt;Node6</title>
<g id="a_edge6_Node000001_Node000006"><a xlink:title=" ">
<path fill="none" stroke="#63b8ff" d="M265.06,-160.77C286.46,-150.99 315.43,-137.75 334.21,-129.17"/>
<polygon fill="#63b8ff" stroke="#63b8ff" points="263.47,-157.65 255.82,-164.98 266.38,-164.01 263.47,-157.65"/>
</a>
</g>
</g>
<!-- Node7 -->
<g id="Node000007" class="node">
<title>Node7</title>
<g id="a_Node000007"><a xlink:href="../../d9/d0b/btbookshelftreemodel_8cpp.html" target="_top" xlink:title=" ">
<polygon fill="white" stroke="#666666" points="595.19,-74 451.19,-74 451.19,-55 595.19,-55 595.19,-74"/>
<text text-anchor="middle" x="523.19" y="-62" font-family="Helvetica,sans-Serif" font-size="10.00">btbookshelftreemodel.cpp</text>
</a>
</g>
</g>
<!-- Node1&#45;&gt;Node7 -->
<g id="edge7_Node000001_Node000007" class="edge">
<title>Node1&#45;&gt;Node7</title>
<g id="a_edge7_Node000001_Node000007"><a xlink:title=" ">
<path fill="none" stroke="#63b8ff" d="M237.41,-154.34C238.66,-140.02 242.79,-121.09 255.19,-110 283.4,-84.77 381.58,-73.69 450.91,-68.93"/>
<polygon fill="#63b8ff" stroke="#63b8ff" points="233.91,-154.44 236.93,-164.59 240.9,-154.77 233.91,-154.44"/>
</a>
</g>
</g>
<!-- Node8 -->
<g id="Node000008" class="node">
<title>Node8</title>
<g id="a_Node000008"><a xlink:href="../../d8/d4f/btbookshelftreemodel_8h.html" target="_top" xlink:title=" ">
<polygon fill="white" stroke="#666666" points="1247.69,-129 1114.69,-129 1114.69,-110 1247.69,-110 1247.69,-129"/>
<text text-anchor="middle" x="1181.19" y="-117" font-family="Helvetica,sans-Serif" font-size="10.00">btbookshelftreemodel.h</text>
</a>
</g>
</g>
<!-- Node1&#45;&gt;Node8 -->
<g id="edge8_Node000001_Node000008" class="edge">
<title>Node1&#45;&gt;Node8</title>
<g id="a_edge8_Node000001_Node000008"><a xlink:title=" ">
<path fill="none" stroke="#63b8ff" d="M291.04,-170.48C453.24,-161.37 936.88,-134.22 1114.66,-124.23"/>
<polygon fill="#63b8ff" stroke="#63b8ff" points="290.61,-166.99 280.83,-171.05 291.01,-173.98 290.61,-166.99"/>
</a>
</g>
</g>
<!-- Node3&#45;&gt;Node2 -->
<g id="edge3_Node000003_Node000002" class="edge">
<title>Node3&#45;&gt;Node2</title>
<g id="a_edge3_Node000003_Node000002"><a xlink:title=" ">
<path fill="none" stroke="#63b8ff" d="M119.36,-101.1C113.72,-92.04 107.07,-81.37 102.54,-74.09"/>
<polygon fill="#63b8ff" stroke="#63b8ff" points="116.48,-103.11 124.74,-109.75 122.42,-99.41 116.48,-103.11"/>
</a>
</g>
</g>
<!-- Node3&#45;&gt;Node4 -->
<g id="edge4_Node000003_Node000004" class="edge">
<title>Node3&#45;&gt;Node4</title>
<g id="a_edge4_Node000003_Node000004"><a xlink:title=" ">
<path fill="none" stroke="#63b8ff" d="M155.81,-104.71C167.8,-97.09 181.34,-86.61 190.19,-74 202.21,-56.85 206.74,-31.99 208.36,-19.05"/>
<polygon fill="#63b8ff" stroke="#63b8ff" points="153.83,-101.82 147.06,-109.97 157.43,-107.82 153.83,-101.82"/>
</a>
</g>
</g>
<!-- Node3&#45;&gt;Node5 -->
<g id="edge5_Node000003_Node000005" class="edge">
<title>Node3&#45;&gt;Node5</title>
<g id="a_edge5_Node000003_Node000005"><a xlink:title=" ">
<path fill="none" stroke="#63b8ff" d="M173.64,-107.48C228.33,-93.86 325.28,-70.6 409.19,-55 490.07,-39.96 583.73,-27.02 646.12,-19.04"/>
<polygon fill="#63b8ff" stroke="#63b8ff" points="172.79,-104.08 163.94,-109.9 174.49,-110.87 172.79,-104.08"/>
</a>
</g>
</g>
<!-- Node8&#45;&gt;Node5 -->
<g id="edge23_Node000008_Node000005" class="edge">
<title>Node8&#45;&gt;Node5</title>
<g id="a_edge23_Node000008_Node000005"><a xlink:title=" ">
<path fill="none" stroke="#63b8ff" d="M1104.09,-114.6C1008.09,-108.87 850.16,-96.38 796.19,-74 765.72,-61.37 737.29,-33.57 724.03,-19.31"/>
<polygon fill="#63b8ff" stroke="#63b8ff" points="1104.14,-118.1 1114.33,-115.19 1104.55,-111.12 1104.14,-118.1"/>
</a>
</g>
</g>
<!-- Node8&#45;&gt;Node7 -->
<g id="edge21_Node000008_Node000007" class="edge">
<title>Node8&#45;&gt;Node7</title>
<g id="a_edge21_Node000008_Node000007"><a xlink:title=" ">
<path fill="none" stroke="#63b8ff" d="M1104.44,-113.26C993.83,-105.55 783.21,-90.29 604.19,-74 601.37,-73.74 598.5,-73.48 595.6,-73.2"/>
<polygon fill="#63b8ff" stroke="#63b8ff" points="1104.28,-116.75 1114.5,-113.96 1104.77,-109.77 1104.28,-116.75"/>
</a>
</g>
</g>
<!-- Node9 -->
<g id="Node000009" class="node">
<title>Node9</title>
<g id="a_Node000009"><a xlink:href="../../df/d88/btbookshelfdockwidget_8cpp.html" target="_top" xlink:title=" ">
<polygon fill="white" stroke="#666666" points="2001.69,-19 1850.69,-19 1850.69,0 2001.69,0 2001.69,-19"/>
<text text-anchor="middle" x="1926.19" y="-7" font-family="Helvetica,sans-Serif" font-size="10.00">btbookshelfdockwidget.cpp</text>
</a>
</g>
</g>
<!-- Node8&#45;&gt;Node9 -->
<g id="edge9_Node000008_Node000009" class="edge">
<title>Node8&#45;&gt;Node9</title>
<g id="a_edge9_Node000008_Node000009"><a xlink:title=" ">
<path fill="none" stroke="#63b8ff" d="M1258,-116.21C1397.79,-111.48 1688.37,-98.94 1786.19,-74 1834.55,-61.67 1886.96,-33.47 1911.7,-19.17"/>
<polygon fill="#63b8ff" stroke="#63b8ff" points="1257.67,-112.72 1247.79,-116.55 1257.9,-119.71 1257.67,-112.72"/>
</a>
</g>
</g>
<!-- Node10 -->
<g id="Node000010" class="node">
<title>Node10</title>
<g id="a_Node000010"><a xlink:href="../../d4/d1c/btbookshelfdockwidget_8h.html" target="_top" xlink:title=" ">
<polygon fill="white" stroke="#666666" points="1996.19,-74 1856.19,-74 1856.19,-55 1996.19,-55 1996.19,-74"/>
<text text-anchor="middle" x="1926.19" y="-62" font-family="Helvetica,sans-Serif" font-size="10.00">btbookshelfdockwidget.h</text>
</a>
</g>
</g>
<!-- Node8&#45;&gt;Node10 -->
<g id="edge10_Node000008_Node000010" class="edge">
<title>Node8&#45;&gt;Node10</title>
<g id="a_edge10_Node000008_Node000010"><a xlink:title=" ">
<path fill="none" stroke="#63b8ff" d="M1257.97,-113.87C1380.06,-106.37 1625.97,-90.71 1834.19,-74 1841.22,-73.44 1848.56,-72.81 1855.88,-72.17"/>
<polygon fill="#63b8ff" stroke="#63b8ff" points="1257.74,-110.38 1247.97,-114.48 1258.17,-117.36 1257.74,-110.38"/>
</a>
</g>
</g>
<!-- Node14 -->
<g id="Node000014" class="node">
<title>Node14</title>
<g id="a_Node000014"><a xlink:href="../../d8/d44/btbookshelfgroupingmenu_8cpp.html" target="_top" xlink:title=" ">
<polygon fill="white" stroke="#666666" points="1709.69,-19 1544.69,-19 1544.69,0 1709.69,0 1709.69,-19"/>
<text text-anchor="middle" x="1627.19" y="-7" font-family="Helvetica,sans-Serif" font-size="10.00">btbookshelfgroupingmenu.cpp</text>
</a>
</g>
</g>
<!-- Node8&#45;&gt;Node14 -->
<g id="edge15_Node000008_Node000014" class="edge">
<title>Node8&#45;&gt;Node14</title>
<g id="a_edge15_Node000008_Node000014"><a xlink:title=" ">
<path fill="none" stroke="#63b8ff" d="M1258.21,-118.82C1362.66,-117.84 1542.27,-110.64 1595.19,-74 1614.07,-60.93 1622.4,-33.33 1625.55,-19.22"/>
<polygon fill="#63b8ff" stroke="#63b8ff" points="1258.01,-115.33 1248.03,-118.9 1258.06,-122.33 1258.01,-115.33"/>
</a>
</g>
</g>
<!-- Node15 -->
<g id="Node000015" class="node">
<title>Node15</title>
<g id="a_Node000015"><a xlink:href="../../dc/dd2/btbookshelfgroupingmenu_8h.html" target="_top" xlink:title=" ">
<polygon fill="white" stroke="#666666" points="1569.19,-74 1415.19,-74 1415.19,-55 1569.19,-55 1569.19,-74"/>
<text text-anchor="middle" x="1492.19" y="-62" font-family="Helvetica,sans-Serif" font-size="10.00">btbookshelfgroupingmenu.h</text>
</a>
</g>
</g>
<!-- Node8&#45;&gt;Node15 -->
<g id="edge16_Node000008_Node000015" class="edge">
<title>Node8&#45;&gt;Node15</title>
<g id="a_edge16_Node000008_Node000015"><a xlink:title=" ">
<path fill="none" stroke="#63b8ff" d="M1241.34,-108.25C1299.75,-98.3 1387.37,-83.36 1442.09,-74.04"/>
<polygon fill="#63b8ff" stroke="#63b8ff" points="1240.42,-104.85 1231.16,-109.98 1241.6,-111.75 1240.42,-104.85"/>
</a>
</g>
</g>
<!-- Node16 -->
<g id="Node000016" class="node">
<title>Node16</title>
<g id="a_Node000016"><a xlink:href="../../d9/d70/btbookshelfwidget_8cpp.html" target="_top" xlink:title=" ">
<polygon fill="white" stroke="#666666" points="1526.69,-19 1399.69,-19 1399.69,0 1526.69,0 1526.69,-19"/>
<text text-anchor="middle" x="1463.19" y="-7" font-family="Helvetica,sans-Serif" font-size="10.00">btbookshelfwidget.cpp</text>
</a>
</g>
</g>
<!-- Node8&#45;&gt;Node16 -->
<g id="edge22_Node000008_Node000016" class="edge">
<title>Node8&#45;&gt;Node16</title>
<g id="a_edge22_Node000008_Node000016"><a xlink:title=" ">
<path fill="none" stroke="#63b8ff" d="M1257.88,-115.31C1367.27,-109.97 1557.26,-97.41 1578.19,-74 1602.59,-46.71 1551.19,-28.68 1509.45,-19.03"/>
<polygon fill="#63b8ff" stroke="#63b8ff" points="1257.7,-111.82 1247.88,-115.79 1258.04,-118.81 1257.7,-111.82"/>
</a>
</g>
</g>
<!-- Node17 -->
<g id="Node000017" class="node">
<title>Node17</title>
<g id="a_Node000017"><a xlink:href="../../d9/d62/btopenworkaction_8cpp.html" target="_top" xlink:title=" ">
<polygon fill="white" stroke="#666666" points="1381.19,-19 1257.19,-19 1257.19,0 1381.19,0 1381.19,-19"/>
<text text-anchor="middle" x="1319.19" y="-7" font-family="Helvetica,sans-Serif" font-size="10.00">btopenworkaction.cpp</text>
</a>
</g>
</g>
<!-- Node8&#45;&gt;Node17 -->
<g id="edge31_Node000008_Node000017" class="edge">
<title>Node8&#45;&gt;Node17</title>
<g id="a_edge31_Node000008_Node000017"><a xlink:title=" ">
<path fill="none" stroke="#63b8ff" d="M1104.35,-113.64C1045.24,-107.04 978.58,-91.49 1010.19,-55 1041.46,-18.9 1176.14,-11.41 1257.01,-10.25"/>
<polygon fill="#63b8ff" stroke="#63b8ff" points="1104.2,-117.15 1114.51,-114.7 1104.93,-110.19 1104.2,-117.15"/>
</a>
</g>
</g>
<!-- Node18 -->
<g id="Node000018" class="node">
<title>Node18</title>
<g id="a_Node000018"><a xlink:href="../../d6/d8d/btbookshelfworkspage_8h.html" target="_top" xlink:title=" ">
<polygon fill="white" stroke="#666666" points="749.19,-74 613.19,-74 613.19,-55 749.19,-55 749.19,-74"/>
<text text-anchor="middle" x="681.19" y="-62" font-family="Helvetica,sans-Serif" font-size="10.00">btbookshelfworkspage.h</text>
</a>
</g>
</g>
<!-- Node8&#45;&gt;Node18 -->
<g id="edge24_Node000008_Node000018" class="edge">
<title>Node8&#45;&gt;Node18</title>
<g id="a_edge24_Node000008_Node000018"><a xlink:title=" ">
<path fill="none" stroke="#63b8ff" d="M1104.5,-110.37C1007.55,-100.09 842.13,-82.56 749.38,-72.73"/>
<polygon fill="#63b8ff" stroke="#63b8ff" points="1104.22,-113.86 1114.53,-111.43 1104.96,-106.9 1104.22,-113.86"/>
</a>
</g>
</g>
<!-- Node19 -->
<g id="Node000019" class="node">
<title>Node19</title>
<g id="a_Node000019"><a xlink:href="../../dd/dba/btinstallpagemodel_8cpp.html" target="_top" xlink:title=" ">
<polygon fill="white" stroke="#666666" points="974.69,-19 843.69,-19 843.69,0 974.69,0 974.69,-19"/>
<text text-anchor="middle" x="909.19" y="-7" font-family="Helvetica,sans-Serif" font-size="10.00">btinstallpagemodel.cpp</text>
</a>
</g>
</g>
<!-- Node8&#45;&gt;Node19 -->
<g id="edge27_Node000008_Node000019" class="edge">
<title>Node8&#45;&gt;Node19</title>
<g id="a_edge27_Node000008_Node000019"><a xlink:title=" ">
<path fill="none" stroke="#63b8ff" d="M1110.63,-108.07C1075.46,-101.23 1032.92,-90.44 997.19,-74 965.69,-59.51 934.01,-33.05 918.68,-19.31"/>
<polygon fill="#63b8ff" stroke="#63b8ff" points="1110.34,-111.58 1120.82,-109.98 1111.63,-104.7 1110.34,-111.58"/>
</a>
</g>
</g>
<!-- Node20 -->
<g id="Node000020" class="node">
<title>Node20</title>
<g id="a_Node000020"><a xlink:href="../../df/d56/btinstallpagemodel_8h.html" target="_top" xlink:title=" ">
<polygon fill="white" stroke="#666666" points="925.19,-74 805.19,-74 805.19,-55 925.19,-55 925.19,-74"/>
<text text-anchor="middle" x="865.19" y="-62" font-family="Helvetica,sans-Serif" font-size="10.00">btinstallpagemodel.h</text>
</a>
</g>
</g>
<!-- Node8&#45;&gt;Node20 -->
<g id="edge28_Node000008_Node000020" class="edge">
<title>Node8&#45;&gt;Node20</title>
<g id="a_edge28_Node000008_Node000020"><a xlink:title=" ">
<path fill="none" stroke="#63b8ff" d="M1120.43,-108.31C1061.09,-98.36 971.81,-83.38 916.09,-74.04"/>
<polygon fill="#63b8ff" stroke="#63b8ff" points="1119.98,-111.78 1130.42,-109.98 1121.13,-104.88 1119.98,-111.78"/>
</a>
</g>
</g>
<!-- Node21 -->
<g id="Node000021" class="node">
<title>Node21</title>
<g id="a_Node000021"><a xlink:href="../../dd/d87/btopenworkaction_8h.html" target="_top" xlink:title=" ">
<polygon fill="white" stroke="#666666" points="1776.69,-74 1663.69,-74 1663.69,-55 1776.69,-55 1776.69,-74"/>
<text text-anchor="middle" x="1720.19" y="-62" font-family="Helvetica,sans-Serif" font-size="10.00">btopenworkaction.h</text>
</a>
</g>
</g>
<!-- Node8&#45;&gt;Node21 -->
<g id="edge32_Node000008_Node000021" class="edge">
<title>Node8&#45;&gt;Node21</title>
<g id="a_edge32_Node000008_Node000021"><a xlink:title=" ">
<path fill="none" stroke="#63b8ff" d="M1258.03,-111.77C1350.8,-103.51 1511.52,-88.78 1649.19,-74 1653.88,-73.5 1658.74,-72.95 1663.62,-72.4"/>
<polygon fill="#63b8ff" stroke="#63b8ff" points="1257.54,-108.3 1247.89,-112.67 1258.16,-115.27 1257.54,-108.3"/>
</a>
</g>
</g>
<!-- Node22 -->
<g id="Node000022" class="node">
<title>Node22</title>
<g id="a_Node000022"><a xlink:href="../../dc/dab/btsearchmodulechooserdialog_8cpp.html" target="_top" xlink:title=" ">
<polygon fill="white" stroke="#666666" points="1203.19,-74 1019.19,-74 1019.19,-55 1203.19,-55 1203.19,-74"/>
<text text-anchor="middle" x="1111.19" y="-62" font-family="Helvetica,sans-Serif" font-size="10.00">btsearchmodulechooserdialog.cpp</text>
</a>
</g>
</g>
<!-- Node8&#45;&gt;Node22 -->
<g id="edge35_Node000008_Node000022" class="edge">
<title>Node8&#45;&gt;Node22</title>
<g id="a_edge35_Node000008_Node000022"><a xlink:title=" ">
<path fill="none" stroke="#63b8ff" d="M1161.87,-103.88C1149.28,-94.34 1133.26,-82.21 1122.64,-74.17"/>
<polygon fill="#63b8ff" stroke="#63b8ff" points="1159.86,-106.74 1169.94,-109.98 1164.08,-101.16 1159.86,-106.74"/>
</a>
</g>
</g>
<!-- Node23 -->
<g id="Node000023" class="node">
<title>Node23</title>
<g id="a_Node000023"><a xlink:href="../../df/d0a/main_8cpp.html" target="_top" xlink:title=" ">
<polygon fill="white" stroke="#666666" points="1283.19,-74 1221.19,-74 1221.19,-55 1283.19,-55 1283.19,-74"/>
<text text-anchor="middle" x="1252.19" y="-62" font-family="Helvetica,sans-Serif" font-size="10.00">main.cpp</text>
</a>
</g>
</g>
<!-- Node8&#45;&gt;Node23 -->
<g id="edge36_Node000008_Node000023" class="edge">
<title>Node8&#45;&gt;Node23</title>
<g id="a_edge36_Node000008_Node000023"><a xlink:title=" ">
<path fill="none" stroke="#63b8ff" d="M1200.78,-103.88C1213.56,-94.34 1229.8,-82.21 1240.57,-74.17"/>
<polygon fill="#63b8ff" stroke="#63b8ff" points="1198.51,-101.2 1192.59,-109.98 1202.7,-106.81 1198.51,-101.2"/>
</a>
</g>
</g>
<!-- Node24 -->
<g id="Node000024" class="node">
<title>Node24</title>
<g id="a_Node000024"><a xlink:href="../../dc/d32/moduleitem_8cpp.html" target="_top" xlink:title=" ">
<polygon fill="white" stroke="#666666" points="1397.19,-74 1301.19,-74 1301.19,-55 1397.19,-55 1397.19,-74"/>
<text text-anchor="middle" x="1349.19" y="-62" font-family="Helvetica,sans-Serif" font-size="10.00">moduleitem.cpp</text>
</a>
</g>
</g>
<!-- Node8&#45;&gt;Node24 -->
<g id="edge37_Node000008_Node000024" class="edge">
<title>Node8&#45;&gt;Node24</title>
<g id="a_edge37_Node000008_Node000024"><a xlink:title=" ">
<path fill="none" stroke="#63b8ff" d="M1217.87,-106.93C1249.25,-97.03 1293.7,-83.01 1321.98,-74.08"/>
<polygon fill="#63b8ff" stroke="#63b8ff" points="1216.66,-103.64 1208.18,-109.98 1218.77,-110.31 1216.66,-103.64"/>
</a>
</g>
</g>
<!-- Node10&#45;&gt;Node9 -->
<g id="edge13_Node000010_Node000009" class="edge">
<title>Node10&#45;&gt;Node9</title>
<g id="a_edge13_Node000010_Node000009"><a xlink:title=" ">
<path fill="none" stroke="#63b8ff" d="M1926.19,-44.66C1926.19,-35.93 1926.19,-25.99 1926.19,-19.09"/>
<polygon fill="#63b8ff" stroke="#63b8ff" points="1922.69,-44.75 1926.19,-54.75 1929.69,-44.75 1922.69,-44.75"/>
</a>
</g>
</g>
<!-- Node11 -->
<g id="Node000011" class="node">
<title>Node11</title>
<g id="a_Node000011"><a xlink:href="../../d1/df6/bibletime_8cpp.html" target="_top" xlink:title=" ">
<polygon fill="white" stroke="#666666" points="2102.69,-19 2019.69,-19 2019.69,0 2102.69,0 2102.69,-19"/>
<text text-anchor="middle" x="2061.19" y="-7" font-family="Helvetica,sans-Serif" font-size="10.00">bibletime.cpp</text>
</a>
</g>
</g>
<!-- Node10&#45;&gt;Node11 -->
<g id="edge11_Node000010_Node000011" class="edge">
<title>Node10&#45;&gt;Node11</title>
<g id="a_edge11_Node000010_Node000011"><a xlink:title=" ">
<path fill="none" stroke="#63b8ff" d="M1957.29,-51.29C1982.31,-41.47 2016.85,-27.91 2039.1,-19.17"/>
<polygon fill="#63b8ff" stroke="#63b8ff" points="1955.91,-48.07 1947.88,-54.98 1958.47,-54.59 1955.91,-48.07"/>
</a>
</g>
</g>
<!-- Node12 -->
<g id="Node000012" class="node">
<title>Node12</title>
<g id="a_Node000012"><a xlink:href="../../da/dc7/bibletime__init_8cpp.html" target="_top" xlink:title=" ">
<polygon fill="white" stroke="#666666" points="1832.19,-19 1728.19,-19 1728.19,0 1832.19,0 1832.19,-19"/>
<text text-anchor="middle" x="1780.19" y="-7" font-family="Helvetica,sans-Serif" font-size="10.00">bibletime_init.cpp</text>
</a>
</g>
</g>
<!-- Node10&#45;&gt;Node12 -->
<g id="edge12_Node000010_Node000012" class="edge">
<title>Node10&#45;&gt;Node12</title>
<g id="a_edge12_Node000010_Node000012"><a xlink:title=" ">
<path fill="none" stroke="#63b8ff" d="M1893.27,-51.55C1866.16,-41.71 1828.35,-27.98 1804.07,-19.17"/>
<polygon fill="#63b8ff" stroke="#63b8ff" points="1892.14,-54.86 1902.73,-54.98 1894.52,-48.28 1892.14,-54.86"/>
</a>
</g>
</g>
<!-- Node13 -->
<g id="Node000013" class="node">
<title>Node13</title>
<g id="a_Node000013"><a xlink:href="../../dd/ddc/btmodulechoosermenu_8cpp.html" target="_top" xlink:title=" ">
<polygon fill="white" stroke="#666666" points="2269.69,-19 2120.69,-19 2120.69,0 2269.69,0 2269.69,-19"/>
<text text-anchor="middle" x="2195.19" y="-7" font-family="Helvetica,sans-Serif" font-size="10.00">btmodulechoosermenu.cpp</text>
</a>
</g>
</g>
<!-- Node10&#45;&gt;Node13 -->
<g id="edge14_Node000010_Node000013" class="edge">
<title>Node10&#45;&gt;Node13</title>
<g id="a_edge14_Node000010_Node000013"><a xlink:title=" ">
<path fill="none" stroke="#63b8ff" d="M1979.47,-53C2029.89,-43.07 2104.67,-28.33 2151.63,-19.08"/>
<polygon fill="#63b8ff" stroke="#63b8ff" points="1978.54,-49.62 1969.41,-54.98 1979.9,-56.49 1978.54,-49.62"/>
</a>
</g>
</g>
<!-- Node15&#45;&gt;Node5 -->
<g id="edge19_Node000015_Node000005" class="edge">
<title>Node15&#45;&gt;Node5</title>
<g id="a_edge19_Node000015_Node000005"><a xlink:title=" ">
<path fill="none" stroke="#63b8ff" d="M1404.58,-54.9C1151.02,-34.53 1085.55,-35.83 835.19,-19 820.51,-18.01 804.83,-16.92 789.82,-15.86"/>
<polygon fill="#63b8ff" stroke="#63b8ff" points="1404.6,-58.41 1414.84,-55.72 1405.16,-51.43 1404.6,-58.41"/>
</a>
</g>
</g>
<!-- Node15&#45;&gt;Node14 -->
<g id="edge17_Node000015_Node000014" class="edge">
<title>Node15&#45;&gt;Node14</title>
<g id="a_edge17_Node000015_Node000014"><a xlink:title=" ">
<path fill="none" stroke="#63b8ff" d="M1523.29,-51.29C1548.31,-41.47 1582.85,-27.91 1605.1,-19.17"/>
<polygon fill="#63b8ff" stroke="#63b8ff" points="1521.91,-48.07 1513.88,-54.98 1524.47,-54.59 1521.91,-48.07"/>
</a>
</g>
</g>
<!-- Node15&#45;&gt;Node16 -->
<g id="edge18_Node000015_Node000016" class="edge">
<title>Node15&#45;&gt;Node16</title>
<g id="a_edge18_Node000015_Node000016"><a xlink:title=" ">
<path fill="none" stroke="#63b8ff" d="M1482.51,-45.82C1477.59,-36.82 1471.83,-26.29 1467.89,-19.09"/>
<polygon fill="#63b8ff" stroke="#63b8ff" points="1479.53,-47.66 1487.4,-54.75 1485.67,-44.3 1479.53,-47.66"/>
</a>
</g>
</g>
<!-- Node15&#45;&gt;Node17 -->
<g id="edge20_Node000015_Node000017" class="edge">
<title>Node15&#45;&gt;Node17</title>
<g id="a_edge20_Node000015_Node000017"><a xlink:title=" ">
<path fill="none" stroke="#63b8ff" d="M1454.41,-51.93C1422.1,-42.03 1376.33,-28.01 1347.2,-19.08"/>
<polygon fill="#63b8ff" stroke="#63b8ff" points="1453.81,-55.4 1464.39,-54.98 1455.86,-48.71 1453.81,-55.4"/>
</a>
</g>
</g>
<!-- Node18&#45;&gt;Node4 -->
<g id="edge25_Node000018_Node000004" class="edge">
<title>Node18&#45;&gt;Node4</title>
<g id="a_edge25_Node000018_Node000004"><a xlink:title=" ">
<path fill="none" stroke="#63b8ff" d="M602.9,-54.71C510.27,-44.31 357.87,-27.2 272.39,-17.6"/>
<polygon fill="#63b8ff" stroke="#63b8ff" points="602.73,-58.21 613.06,-55.85 603.51,-51.26 602.73,-58.21"/>
</a>
</g>
</g>
<!-- Node18&#45;&gt;Node5 -->
<g id="edge26_Node000018_Node000005" class="edge">
<title>Node18&#45;&gt;Node5</title>
<g id="a_edge26_Node000018_Node000005"><a xlink:title=" ">
<path fill="none" stroke="#63b8ff" d="M692.49,-46.39C698.51,-37.27 705.66,-26.45 710.52,-19.09"/>
<polygon fill="#63b8ff" stroke="#63b8ff" points="689.56,-44.47 686.97,-54.75 695.4,-48.33 689.56,-44.47"/>
</a>
</g>
</g>
<!-- Node20&#45;&gt;Node5 -->
<g id="edge29_Node000020_Node000005" class="edge">
<title>Node20&#45;&gt;Node5</title>
<g id="a_edge29_Node000020_Node000005"><a xlink:title=" ">
<path fill="none" stroke="#63b8ff" d="M831.59,-51.55C803.92,-41.71 765.34,-27.98 740.56,-19.17"/>
<polygon fill="#63b8ff" stroke="#63b8ff" points="830.65,-54.93 841.25,-54.98 833,-48.34 830.65,-54.93"/>
</a>
</g>
</g>
<!-- Node20&#45;&gt;Node19 -->
<g id="edge30_Node000020_Node000019" class="edge">
<title>Node20&#45;&gt;Node19</title>
<g id="a_edge30_Node000020_Node000019"><a xlink:title=" ">
<path fill="none" stroke="#63b8ff" d="M878.92,-46.96C886.59,-37.72 895.82,-26.6 902.06,-19.09"/>
<polygon fill="#63b8ff" stroke="#63b8ff" points="876.15,-44.82 872.45,-54.75 881.53,-49.29 876.15,-44.82"/>
</a>
</g>
</g>
<!-- Node21&#45;&gt;Node12 -->
<g id="edge33_Node000021_Node000012" class="edge">
<title>Node21&#45;&gt;Node12</title>
<g id="a_edge33_Node000021_Node000012"><a xlink:title=" ">
<path fill="none" stroke="#63b8ff" d="M1737.37,-48.32C1748.07,-38.87 1761.44,-27.06 1770.37,-19.17"/>
<polygon fill="#63b8ff" stroke="#63b8ff" points="1735.01,-45.74 1729.83,-54.98 1739.64,-50.99 1735.01,-45.74"/>
</a>
</g>
</g>
<!-- Node21&#45;&gt;Node17 -->
<g id="edge34_Node000021_Node000017" class="edge">
<title>Node21&#45;&gt;Node17</title>
<g id="a_edge34_Node000021_Node000017"><a xlink:title=" ">
<path fill="none" stroke="#63b8ff" d="M1653.22,-54.65C1577.49,-44.64 1455.16,-28.47 1381.43,-18.73"/>
<polygon fill="#63b8ff" stroke="#63b8ff" points="1653.21,-58.18 1663.58,-56.02 1654.13,-51.24 1653.21,-58.18"/>
</a>
</g>
</g>
</g>
</svg>

<g id="navigator" transform="translate(0 0)" fill="#404254">
  <rect fill="#f2f5e9" fill-opacity="0.5" stroke="#606060" stroke-width=".5" x="0" y="0" width="60" height="60"/>
  <use id="zoomplus" xlink:href="#zoomPlus" x="17" y="9" onmousedown="handleZoom(evt,'in')"/>
  <use id="zoomminus" xlink:href="#zoomMin" x="42" y="9" onmousedown="handleZoom(evt,'out')"/>
  <use id="reset" xlink:href="#resetDef" x="30" y="36" onmousedown="handleReset()"/>
   <use id="arrowup" xlink:href="#arrowUp" x="0" y="0" onmousedown="handlePan(0,-1)"/>
  <use id="arrowright" xlink:href="#arrowRight" x="0" y="0" onmousedown="handlePan(1,0)"/>
  <use id="arrowdown" xlink:href="#arrowDown" x="0" y="0" onmousedown="handlePan(0,1)"/>
  <use id="arrowleft" xlink:href="#arrowLeft" x="0" y="0" onmousedown="handlePan(-1,0)"/>
</g>
<svg viewBox="0 0 15 15" width="100%" height="30px" preserveAspectRatio="xMaxYMin meet">
 <g id="arrow_out" transform="scale(0.3 0.3)">
  <a xlink:href="btmoduleset_8h__dep__incl_org.svg" target="_base">
   <rect id="button" ry="5" rx="5" y="6" x="6" height="38" width="38"
        fill="#f2f5e9" fill-opacity="0.5" stroke="#606060" stroke-width="1.0"/>
   <path id="arrow"
     d="M 11.500037,31.436501 C 11.940474,20.09759 22.043105,11.32322 32.158766,21.979434 L 37.068811,17.246167 C 37.068811,17.246167 37.088388,32 37.088388,32 L 22.160133,31.978069 C 22.160133,31.978069 26.997745,27.140456 26.997745,27.140456 C 18.528582,18.264221 13.291696,25.230495 11.500037,31.436501 z"
     style="fill:#404040;"/>
  </a>
 </g>
</svg>

<style type='text/css'>
<![CDATA[
[data-mouse-over-selected='false'] { opacity: 0.7; }
[data-mouse-over-selected='true']  { opacity: 1.0; }
]]>
</style>
<script type="application/ecmascript"><![CDATA[
document.addEventListener('DOMContentLoaded', (event) => {
  highlightEdges();
  highlightAdjacentNodes();
});
]]></script>
</svg>
