<?xml version="1.0" encoding="UTF-8" standalone="no"?>
<!DOCTYPE svg PUBLIC "-//W3C//DTD SVG 1.1//EN"
 "http://www.w3.org/Graphics/SVG/1.1/DTD/svg11.dtd">
<!-- Generated by graphviz version 2.43.0 (0)
 -->
<!-- Title: btmoduleset.h Pages: 1 -->
<svg width="2338pt" height="196pt"
 viewBox="0.00 0.00 2337.50 196.00" xmlns="http://www.w3.org/2000/svg" xmlns:xlink="http://www.w3.org/1999/xlink">
<g id="graph0" class="graph" transform="scale(1 1) rotate(0) translate(4 192)">
<title>btmoduleset.h</title>
<polygon fill="white" stroke="transparent" points="-4,4 -4,-192 2333.5,-192 2333.5,4 -4,4"/>
<!-- Node1 -->
<g id="node1" class="node">
<title>Node1</title>
<g id="a_node1"><a xlink:title=" ">
<polygon fill="#bfbfbf" stroke="black" points="1848.5,-168.5 1848.5,-187.5 1935.5,-187.5 1935.5,-168.5 1848.5,-168.5"/>
<text text-anchor="middle" x="1892" y="-175.5" font-family="Helvetica,sans-Serif" font-size="10.00">btmoduleset.h</text>
</a>
</g>
</g>
<!-- Node2 -->
<g id="node2" class="node">
<title>Node2</title>
<g id="a_node2"><a xlink:href="../../d8/d4f/btbookshelftreemodel_8h.html" target="_top" xlink:title=" ">
<polygon fill="white" stroke="black" points="874.5,-112.5 874.5,-131.5 1007.5,-131.5 1007.5,-112.5 874.5,-112.5"/>
<text text-anchor="middle" x="941" y="-119.5" font-family="Helvetica,sans-Serif" font-size="10.00">btbookshelftreemodel.h</text>
</a>
</g>
</g>
<!-- Node1&#45;&gt;Node2 -->
<g id="edge1" class="edge">
<title>Node1&#45;&gt;Node2</title>
<path fill="none" stroke="midnightblue" d="M1838.08,-173.94C1674.93,-164.67 1186.77,-136.96 1007.76,-126.79"/>
<polygon fill="midnightblue" stroke="midnightblue" points="1838.17,-177.45 1848.35,-174.52 1838.57,-170.46 1838.17,-177.45"/>
</g>
<!-- Node3 -->
<g id="node3" class="node">
<title>Node3</title>
<g id="a_node3"><a xlink:href="../../d9/d0b/btbookshelftreemodel_8cpp.html" target="_top" xlink:title=" ">
<polygon fill="white" stroke="black" points="0,-56.5 0,-75.5 144,-75.5 144,-56.5 0,-56.5"/>
<text text-anchor="middle" x="72" y="-63.5" font-family="Helvetica,sans-Serif" font-size="10.00">btbookshelftreemodel.cpp</text>
</a>
</g>
</g>
<!-- Node1&#45;&gt;Node3 -->
<g id="edge32" class="edge">
<title>Node1&#45;&gt;Node3</title>
<path fill="none" stroke="midnightblue" d="M1838.39,-175.37C1685.99,-170.58 1237.18,-155.4 865,-132 598.92,-115.27 283.32,-86.82 144.1,-73.83"/>
<polygon fill="midnightblue" stroke="midnightblue" points="1838.32,-178.87 1848.42,-175.68 1838.54,-171.87 1838.32,-178.87"/>
</g>
<!-- Node12 -->
<g id="node12" class="node">
<title>Node12</title>
<g id="a_node12"><a xlink:href="../../d6/d54/btbookshelfwizard_8cpp.html" target="_top" xlink:title=" ">
<polygon fill="white" stroke="black" points="1848,-0.5 1848,-19.5 1974,-19.5 1974,-0.5 1848,-0.5"/>
<text text-anchor="middle" x="1911" y="-7.5" font-family="Helvetica,sans-Serif" font-size="10.00">btbookshelfwizard.cpp</text>
</a>
</g>
</g>
<!-- Node1&#45;&gt;Node12 -->
<g id="edge38" class="edge">
<title>Node1&#45;&gt;Node12</title>
<path fill="none" stroke="midnightblue" d="M1894.18,-157.93C1898.3,-121.92 1907.08,-45.23 1910.02,-19.57"/>
<polygon fill="midnightblue" stroke="midnightblue" points="1890.68,-157.74 1893.02,-168.08 1897.64,-158.54 1890.68,-157.74"/>
</g>
<!-- Node13 -->
<g id="node13" class="node">
<title>Node13</title>
<g id="a_node13"><a xlink:href="../../d9/d03/btbookshelfworkspage_8cpp.html" target="_top" xlink:title=" ">
<polygon fill="white" stroke="black" points="1173.5,-0.5 1173.5,-19.5 1320.5,-19.5 1320.5,-0.5 1173.5,-0.5"/>
<text text-anchor="middle" x="1247" y="-7.5" font-family="Helvetica,sans-Serif" font-size="10.00">btbookshelfworkspage.cpp</text>
</a>
</g>
</g>
<!-- Node1&#45;&gt;Node13 -->
<g id="edge39" class="edge">
<title>Node1&#45;&gt;Node13</title>
<path fill="none" stroke="midnightblue" d="M1892.19,-158.34C1891.34,-131.01 1885.32,-80.69 1854,-56 1808.08,-19.81 1387.24,-25.19 1329,-20 1326.29,-19.76 1323.53,-19.5 1320.74,-19.24"/>
<polygon fill="midnightblue" stroke="midnightblue" points="1888.69,-158.53 1892.29,-168.5 1895.69,-158.46 1888.69,-158.53"/>
</g>
<!-- Node21 -->
<g id="node21" class="node">
<title>Node21</title>
<g id="a_node21"><a xlink:href="../../dc/dab/btsearchmodulechooserdialog_8cpp.html" target="_top" xlink:title=" ">
<polygon fill="white" stroke="black" points="1661,-56.5 1661,-75.5 1845,-75.5 1845,-56.5 1661,-56.5"/>
<text text-anchor="middle" x="1753" y="-63.5" font-family="Helvetica,sans-Serif" font-size="10.00">btsearchmodulechooserdialog.cpp</text>
</a>
</g>
</g>
<!-- Node1&#45;&gt;Node21 -->
<g id="edge40" class="edge">
<title>Node1&#45;&gt;Node21</title>
<path fill="none" stroke="midnightblue" d="M1873.19,-162.12C1843.69,-138.77 1787.46,-94.27 1763.86,-75.59"/>
<polygon fill="midnightblue" stroke="midnightblue" points="1871.08,-164.91 1881.09,-168.37 1875.42,-159.42 1871.08,-164.91"/>
</g>
<!-- Node23 -->
<g id="node23" class="node">
<title>Node23</title>
<g id="a_node23"><a xlink:href="../../d7/d33/btbookshelfinstallfinalpage_8h.html" target="_top" xlink:title=" ">
<polygon fill="white" stroke="black" points="1939,-112.5 1939,-131.5 2097,-131.5 2097,-112.5 1939,-112.5"/>
<text text-anchor="middle" x="2018" y="-119.5" font-family="Helvetica,sans-Serif" font-size="10.00">btbookshelfinstallfinalpage.h</text>
</a>
</g>
</g>
<!-- Node1&#45;&gt;Node23 -->
<g id="edge33" class="edge">
<title>Node1&#45;&gt;Node23</title>
<path fill="none" stroke="midnightblue" d="M1921.16,-164.5C1944.78,-154.38 1977.43,-140.39 1998.13,-131.52"/>
<polygon fill="midnightblue" stroke="midnightblue" points="1919.78,-161.29 1911.97,-168.44 1922.54,-167.72 1919.78,-161.29"/>
</g>
<!-- Node24 -->
<g id="node24" class="node">
<title>Node24</title>
<g id="a_node24"><a xlink:href="../../dc/d04/btbookshelfinstallfinalpage_8cpp.html" target="_top" xlink:title=" ">
<polygon fill="white" stroke="black" points="2024.5,-56.5 2024.5,-75.5 2193.5,-75.5 2193.5,-56.5 2024.5,-56.5"/>
<text text-anchor="middle" x="2109" y="-63.5" font-family="Helvetica,sans-Serif" font-size="10.00">btbookshelfinstallfinalpage.cpp</text>
</a>
</g>
</g>
<!-- Node1&#45;&gt;Node24 -->
<g id="edge36" class="edge">
<title>Node1&#45;&gt;Node24</title>
<path fill="none" stroke="midnightblue" d="M1945.98,-173.05C2002.45,-167.69 2085.68,-155.89 2106,-132 2119.47,-116.17 2115.13,-89.51 2111.62,-75.78"/>
<polygon fill="midnightblue" stroke="midnightblue" points="1945.41,-169.59 1935.77,-173.98 1946.05,-176.56 1945.41,-169.59"/>
</g>
<!-- Node25 -->
<g id="node25" class="node">
<title>Node25</title>
<g id="a_node25"><a xlink:href="../../d0/da0/btbookshelfremovefinalpage_8cpp.html" target="_top" xlink:title=" ">
<polygon fill="white" stroke="black" points="2152.5,-112.5 2152.5,-131.5 2329.5,-131.5 2329.5,-112.5 2152.5,-112.5"/>
<text text-anchor="middle" x="2241" y="-119.5" font-family="Helvetica,sans-Serif" font-size="10.00">btbookshelfremovefinalpage.cpp</text>
</a>
</g>
</g>
<!-- Node1&#45;&gt;Node25 -->
<g id="edge37" class="edge">
<title>Node1&#45;&gt;Node25</title>
<path fill="none" stroke="midnightblue" d="M1945.92,-168.66C2011.08,-158.58 2120.13,-141.7 2185.84,-131.53"/>
<polygon fill="midnightblue" stroke="midnightblue" points="1945.19,-165.23 1935.85,-170.22 1946.27,-172.15 1945.19,-165.23"/>
</g>
<!-- Node2&#45;&gt;Node3 -->
<g id="edge2" class="edge">
<title>Node2&#45;&gt;Node3</title>
<path fill="none" stroke="midnightblue" d="M864.19,-117.78C723.83,-111.63 416.52,-96.94 158,-76 153.51,-75.64 148.89,-75.23 144.24,-74.81"/>
<polygon fill="midnightblue" stroke="midnightblue" points="864.27,-121.29 874.41,-118.23 864.58,-114.3 864.27,-121.29"/>
</g>
<!-- Node4 -->
<g id="node4" class="node">
<title>Node4</title>
<g id="a_node4"><a xlink:href="../../dc/d32/moduleitem_8cpp.html" target="_top" xlink:title=" ">
<polygon fill="white" stroke="black" points="436,-56.5 436,-75.5 532,-75.5 532,-56.5 436,-56.5"/>
<text text-anchor="middle" x="484" y="-63.5" font-family="Helvetica,sans-Serif" font-size="10.00">moduleitem.cpp</text>
</a>
</g>
</g>
<!-- Node2&#45;&gt;Node4 -->
<g id="edge3" class="edge">
<title>Node2&#45;&gt;Node4</title>
<path fill="none" stroke="midnightblue" d="M864.29,-113.4C783.68,-105.17 653.24,-91.17 541,-76 538.12,-75.61 535.16,-75.19 532.18,-74.76"/>
<polygon fill="midnightblue" stroke="midnightblue" points="864.06,-116.89 874.36,-114.42 864.76,-109.93 864.06,-116.89"/>
</g>
<!-- Node5 -->
<g id="node5" class="node">
<title>Node5</title>
<g id="a_node5"><a xlink:href="../../d4/d1c/btbookshelfdockwidget_8h.html" target="_top" xlink:title=" ">
<polygon fill="white" stroke="black" points="550,-56.5 550,-75.5 690,-75.5 690,-56.5 550,-56.5"/>
<text text-anchor="middle" x="620" y="-63.5" font-family="Helvetica,sans-Serif" font-size="10.00">btbookshelfdockwidget.h</text>
</a>
</g>
</g>
<!-- Node2&#45;&gt;Node5 -->
<g id="edge4" class="edge">
<title>Node2&#45;&gt;Node5</title>
<path fill="none" stroke="midnightblue" d="M879.94,-110.73C819.28,-100.52 727.35,-85.06 670.63,-75.52"/>
<polygon fill="midnightblue" stroke="midnightblue" points="879.69,-114.24 890.14,-112.44 880.86,-107.33 879.69,-114.24"/>
</g>
<!-- Node8 -->
<g id="node8" class="node">
<title>Node8</title>
<g id="a_node8"><a xlink:href="../../df/d88/btbookshelfdockwidget_8cpp.html" target="_top" xlink:title=" ">
<polygon fill="white" stroke="black" points="203.5,-0.5 203.5,-19.5 354.5,-19.5 354.5,-0.5 203.5,-0.5"/>
<text text-anchor="middle" x="279" y="-7.5" font-family="Helvetica,sans-Serif" font-size="10.00">btbookshelfdockwidget.cpp</text>
</a>
</g>
</g>
<!-- Node2&#45;&gt;Node8 -->
<g id="edge24" class="edge">
<title>Node2&#45;&gt;Node8</title>
<path fill="none" stroke="midnightblue" d="M864.22,-119.2C677.62,-114.45 213.83,-100.24 191,-76 168.47,-52.08 216.58,-30.8 250.14,-19.52"/>
<polygon fill="midnightblue" stroke="midnightblue" points="864.15,-122.7 874.24,-119.45 864.33,-115.7 864.15,-122.7"/>
</g>
<!-- Node9 -->
<g id="node9" class="node">
<title>Node9</title>
<g id="a_node9"><a xlink:href="../../dd/d87/btopenworkaction_8h.html" target="_top" xlink:title=" ">
<polygon fill="white" stroke="black" points="708.5,-56.5 708.5,-75.5 821.5,-75.5 821.5,-56.5 708.5,-56.5"/>
<text text-anchor="middle" x="765" y="-63.5" font-family="Helvetica,sans-Serif" font-size="10.00">btopenworkaction.h</text>
</a>
</g>
</g>
<!-- Node2&#45;&gt;Node9 -->
<g id="edge8" class="edge">
<title>Node2&#45;&gt;Node9</title>
<path fill="none" stroke="midnightblue" d="M903.31,-109.44C870.13,-99.26 822.57,-84.66 792.76,-75.52"/>
<polygon fill="midnightblue" stroke="midnightblue" points="902.53,-112.86 913.11,-112.44 904.58,-106.16 902.53,-112.86"/>
</g>
<!-- Node10 -->
<g id="node10" class="node">
<title>Node10</title>
<g id="a_node10"><a xlink:href="../../d9/d62/btopenworkaction_8cpp.html" target="_top" xlink:title=" ">
<polygon fill="white" stroke="black" points="703,-0.5 703,-19.5 827,-19.5 827,-0.5 703,-0.5"/>
<text text-anchor="middle" x="765" y="-7.5" font-family="Helvetica,sans-Serif" font-size="10.00">btopenworkaction.cpp</text>
</a>
</g>
</g>
<!-- Node2&#45;&gt;Node10 -->
<g id="edge27" class="edge">
<title>Node2&#45;&gt;Node10</title>
<path fill="none" stroke="midnightblue" d="M918.61,-107.01C881.67,-83.92 809.02,-38.51 778.75,-19.59"/>
<polygon fill="midnightblue" stroke="midnightblue" points="916.85,-110.04 927.19,-112.37 920.56,-104.1 916.85,-110.04"/>
</g>
<!-- Node11 -->
<g id="node11" class="node">
<title>Node11</title>
<g id="a_node11"><a xlink:href="../../d6/d8d/btbookshelfworkspage_8h.html" target="_top" xlink:title=" ">
<polygon fill="white" stroke="black" points="1507,-56.5 1507,-75.5 1643,-75.5 1643,-56.5 1507,-56.5"/>
<text text-anchor="middle" x="1575" y="-63.5" font-family="Helvetica,sans-Serif" font-size="10.00">btbookshelfworkspage.h</text>
</a>
</g>
</g>
<!-- Node2&#45;&gt;Node11 -->
<g id="edge11" class="edge">
<title>Node2&#45;&gt;Node11</title>
<path fill="none" stroke="midnightblue" d="M1017.92,-115.61C1125.28,-107.89 1326.14,-92.77 1497,-76 1500.26,-75.68 1503.59,-75.34 1506.95,-74.99"/>
<polygon fill="midnightblue" stroke="midnightblue" points="1017.55,-112.13 1007.82,-116.33 1018.05,-119.11 1017.55,-112.13"/>
</g>
<!-- Node2&#45;&gt;Node13 -->
<g id="edge14" class="edge">
<title>Node2&#45;&gt;Node13</title>
<path fill="none" stroke="midnightblue" d="M986.19,-109.88C1018.07,-101.62 1061.59,-89.47 1099,-76 1147.32,-58.6 1202.18,-32.86 1229.55,-19.6"/>
<polygon fill="midnightblue" stroke="midnightblue" points="985.08,-106.55 976.27,-112.43 986.82,-113.33 985.08,-106.55"/>
</g>
<!-- Node14 -->
<g id="node14" class="node">
<title>Node14</title>
<g id="a_node14"><a xlink:href="../../dc/dd2/btbookshelfgroupingmenu_8h.html" target="_top" xlink:title=" ">
<polygon fill="white" stroke="black" points="916,-56.5 916,-75.5 1070,-75.5 1070,-56.5 916,-56.5"/>
<text text-anchor="middle" x="993" y="-63.5" font-family="Helvetica,sans-Serif" font-size="10.00">btbookshelfgroupingmenu.h</text>
</a>
</g>
</g>
<!-- Node2&#45;&gt;Node14 -->
<g id="edge15" class="edge">
<title>Node2&#45;&gt;Node14</title>
<path fill="none" stroke="midnightblue" d="M956.68,-104.72C965.84,-95.2 977.05,-83.56 984.57,-75.75"/>
<polygon fill="midnightblue" stroke="midnightblue" points="954,-102.45 949.59,-112.08 959.04,-107.31 954,-102.45"/>
</g>
<!-- Node15 -->
<g id="node15" class="node">
<title>Node15</title>
<g id="a_node15"><a xlink:href="../../d8/d44/btbookshelfgroupingmenu_8cpp.html" target="_top" xlink:title=" ">
<polygon fill="white" stroke="black" points="845.5,-0.5 845.5,-19.5 1010.5,-19.5 1010.5,-0.5 845.5,-0.5"/>
<text text-anchor="middle" x="928" y="-7.5" font-family="Helvetica,sans-Serif" font-size="10.00">btbookshelfgroupingmenu.cpp</text>
</a>
</g>
</g>
<!-- Node2&#45;&gt;Node15 -->
<g id="edge25" class="edge">
<title>Node2&#45;&gt;Node15</title>
<path fill="none" stroke="midnightblue" d="M924.82,-104.96C917.9,-96.98 910.6,-86.75 907,-76 900.29,-55.99 913.06,-32.38 921.47,-19.85"/>
<polygon fill="midnightblue" stroke="midnightblue" points="922.35,-107.44 931.71,-112.39 927.48,-102.68 922.35,-107.44"/>
</g>
<!-- Node16 -->
<g id="node16" class="node">
<title>Node16</title>
<g id="a_node16"><a xlink:href="../../d9/d70/btbookshelfwidget_8cpp.html" target="_top" xlink:title=" ">
<polygon fill="white" stroke="black" points="1028.5,-0.5 1028.5,-19.5 1155.5,-19.5 1155.5,-0.5 1028.5,-0.5"/>
<text text-anchor="middle" x="1092" y="-7.5" font-family="Helvetica,sans-Serif" font-size="10.00">btbookshelfwidget.cpp</text>
</a>
</g>
</g>
<!-- Node2&#45;&gt;Node16 -->
<g id="edge26" class="edge">
<title>Node2&#45;&gt;Node16</title>
<path fill="none" stroke="midnightblue" d="M1017.27,-111.21C1040.02,-104.69 1063.11,-93.88 1079,-76 1093.07,-60.17 1093.63,-33.52 1092.83,-19.78"/>
<polygon fill="midnightblue" stroke="midnightblue" points="1016.35,-107.84 1007.56,-113.75 1018.12,-114.61 1016.35,-107.84"/>
</g>
<!-- Node17 -->
<g id="node17" class="node">
<title>Node17</title>
<g id="a_node17"><a xlink:href="../../df/d56/btinstallpagemodel_8h.html" target="_top" xlink:title=" ">
<polygon fill="white" stroke="black" points="1164,-56.5 1164,-75.5 1284,-75.5 1284,-56.5 1164,-56.5"/>
<text text-anchor="middle" x="1224" y="-63.5" font-family="Helvetica,sans-Serif" font-size="10.00">btinstallpagemodel.h</text>
</a>
</g>
</g>
<!-- Node2&#45;&gt;Node17 -->
<g id="edge20" class="edge">
<title>Node2&#45;&gt;Node17</title>
<path fill="none" stroke="midnightblue" d="M995.83,-110.54C1049.32,-100.33 1129.67,-85 1179.37,-75.52"/>
<polygon fill="midnightblue" stroke="midnightblue" points="995.01,-107.13 985.84,-112.44 996.32,-114.01 995.01,-107.13"/>
</g>
<!-- Node18 -->
<g id="node18" class="node">
<title>Node18</title>
<g id="a_node18"><a xlink:href="../../dd/dba/btinstallpagemodel_8cpp.html" target="_top" xlink:title=" ">
<polygon fill="white" stroke="black" points="1338.5,-0.5 1338.5,-19.5 1469.5,-19.5 1469.5,-0.5 1338.5,-0.5"/>
<text text-anchor="middle" x="1404" y="-7.5" font-family="Helvetica,sans-Serif" font-size="10.00">btinstallpagemodel.cpp</text>
</a>
</g>
</g>
<!-- Node2&#45;&gt;Node18 -->
<g id="edge23" class="edge">
<title>Node2&#45;&gt;Node18</title>
<path fill="none" stroke="midnightblue" d="M1018.09,-119.98C1090.77,-116.97 1201.85,-107.06 1293,-76 1303.3,-72.49 1362.31,-36.61 1389.85,-19.71"/>
<polygon fill="midnightblue" stroke="midnightblue" points="1017.51,-116.49 1007.65,-120.37 1017.78,-123.49 1017.51,-116.49"/>
</g>
<!-- Node19 -->
<g id="node19" class="node">
<title>Node19</title>
<g id="a_node19"><a xlink:href="../../dd/ddc/btmodulechoosermenu_8cpp.html" target="_top" xlink:title=" ">
<polygon fill="white" stroke="black" points="1339.5,-56.5 1339.5,-75.5 1488.5,-75.5 1488.5,-56.5 1339.5,-56.5"/>
<text text-anchor="middle" x="1414" y="-63.5" font-family="Helvetica,sans-Serif" font-size="10.00">btmodulechoosermenu.cpp</text>
</a>
</g>
</g>
<!-- Node2&#45;&gt;Node19 -->
<g id="edge28" class="edge">
<title>Node2&#45;&gt;Node19</title>
<path fill="none" stroke="midnightblue" d="M1017.77,-112.24C1106.51,-102.1 1251.57,-85.54 1339.39,-75.52"/>
<polygon fill="midnightblue" stroke="midnightblue" points="1017.3,-108.77 1007.77,-113.38 1018.1,-115.72 1017.3,-108.77"/>
</g>
<!-- Node20 -->
<g id="node20" class="node">
<title>Node20</title>
<g id="a_node20"><a xlink:href="../../df/d0a/main_8cpp.html" target="_top" xlink:title=" ">
<polygon fill="white" stroke="black" points="200,-56.5 200,-75.5 262,-75.5 262,-56.5 200,-56.5"/>
<text text-anchor="middle" x="231" y="-63.5" font-family="Helvetica,sans-Serif" font-size="10.00">main.cpp</text>
</a>
</g>
</g>
<!-- Node2&#45;&gt;Node20 -->
<g id="edge29" class="edge">
<title>Node2&#45;&gt;Node20</title>
<path fill="none" stroke="midnightblue" d="M863.83,-119.68C738.75,-116.67 484.21,-106.96 271,-76 268.18,-75.59 265.27,-75.09 262.36,-74.54"/>
<polygon fill="midnightblue" stroke="midnightblue" points="863.99,-123.18 874.07,-119.92 864.16,-116.18 863.99,-123.18"/>
</g>
<!-- Node2&#45;&gt;Node21 -->
<g id="edge30" class="edge">
<title>Node2&#45;&gt;Node21</title>
<path fill="none" stroke="midnightblue" d="M1017.98,-116.78C1148.48,-109.47 1421.46,-93.56 1652,-76 1654.9,-75.78 1657.84,-75.55 1660.81,-75.31"/>
<polygon fill="midnightblue" stroke="midnightblue" points="1017.49,-113.3 1007.7,-117.35 1017.88,-120.29 1017.49,-113.3"/>
</g>
<!-- Node22 -->
<g id="node22" class="node">
<title>Node22</title>
<g id="a_node22"><a xlink:href="../../d4/d4d/btsearchoptionsarea_8cpp.html" target="_top" xlink:title=" ">
<polygon fill="white" stroke="black" points="280.5,-56.5 280.5,-75.5 417.5,-75.5 417.5,-56.5 280.5,-56.5"/>
<text text-anchor="middle" x="349" y="-63.5" font-family="Helvetica,sans-Serif" font-size="10.00">btsearchoptionsarea.cpp</text>
</a>
</g>
</g>
<!-- Node2&#45;&gt;Node22 -->
<g id="edge31" class="edge">
<title>Node2&#45;&gt;Node22</title>
<path fill="none" stroke="midnightblue" d="M864.35,-114.95C763.85,-106.87 582.09,-91.73 427,-76 424.02,-75.7 420.97,-75.38 417.89,-75.05"/>
<polygon fill="midnightblue" stroke="midnightblue" points="864.16,-118.45 874.41,-115.76 864.72,-111.47 864.16,-118.45"/>
</g>
<!-- Node6 -->
<g id="node6" class="node">
<title>Node6</title>
<g id="a_node6"><a xlink:href="../../d1/df6/bibletime_8cpp.html" target="_top" xlink:title=" ">
<polygon fill="white" stroke="black" points="479.5,-0.5 479.5,-19.5 562.5,-19.5 562.5,-0.5 479.5,-0.5"/>
<text text-anchor="middle" x="521" y="-7.5" font-family="Helvetica,sans-Serif" font-size="10.00">bibletime.cpp</text>
</a>
</g>
</g>
<!-- Node5&#45;&gt;Node6 -->
<g id="edge5" class="edge">
<title>Node5&#45;&gt;Node6</title>
<path fill="none" stroke="midnightblue" d="M595.16,-51.45C576.89,-41.48 552.58,-28.23 536.87,-19.65"/>
<polygon fill="midnightblue" stroke="midnightblue" points="593.64,-54.61 604.09,-56.32 596.99,-48.46 593.64,-54.61"/>
</g>
<!-- Node7 -->
<g id="node7" class="node">
<title>Node7</title>
<g id="a_node7"><a xlink:href="../../da/dc7/bibletime__init_8cpp.html" target="_top" xlink:title=" ">
<polygon fill="white" stroke="black" points="581,-0.5 581,-19.5 685,-19.5 685,-0.5 581,-0.5"/>
<text text-anchor="middle" x="633" y="-7.5" font-family="Helvetica,sans-Serif" font-size="10.00">bibletime_init.cpp</text>
</a>
</g>
</g>
<!-- Node5&#45;&gt;Node7 -->
<g id="edge6" class="edge">
<title>Node5&#45;&gt;Node7</title>
<path fill="none" stroke="midnightblue" d="M624.55,-46.1C626.71,-37.14 629.18,-26.86 630.89,-19.75"/>
<polygon fill="midnightblue" stroke="midnightblue" points="621.08,-45.54 622.15,-56.08 627.89,-47.18 621.08,-45.54"/>
</g>
<!-- Node5&#45;&gt;Node8 -->
<g id="edge7" class="edge">
<title>Node5&#45;&gt;Node8</title>
<path fill="none" stroke="midnightblue" d="M555.93,-54.85C491.5,-44.65 393.28,-29.1 332.78,-19.52"/>
<polygon fill="midnightblue" stroke="midnightblue" points="555.54,-58.34 565.97,-56.44 556.64,-51.42 555.54,-58.34"/>
</g>
<!-- Node9&#45;&gt;Node7 -->
<g id="edge9" class="edge">
<title>Node9&#45;&gt;Node7</title>
<path fill="none" stroke="midnightblue" d="M734.78,-52.64C710.01,-42.5 675.6,-28.43 653.82,-19.52"/>
<polygon fill="midnightblue" stroke="midnightblue" points="733.5,-55.9 744.08,-56.44 736.15,-49.42 733.5,-55.9"/>
</g>
<!-- Node9&#45;&gt;Node10 -->
<g id="edge10" class="edge">
<title>Node9&#45;&gt;Node10</title>
<path fill="none" stroke="midnightblue" d="M765,-45.8C765,-36.91 765,-26.78 765,-19.75"/>
<polygon fill="midnightblue" stroke="midnightblue" points="761.5,-46.08 765,-56.08 768.5,-46.08 761.5,-46.08"/>
</g>
<!-- Node11&#45;&gt;Node12 -->
<g id="edge12" class="edge">
<title>Node11&#45;&gt;Node12</title>
<path fill="none" stroke="midnightblue" d="M1638.13,-54.85C1701.62,-44.65 1798.39,-29.1 1858.01,-19.52"/>
<polygon fill="midnightblue" stroke="midnightblue" points="1637.56,-51.4 1628.24,-56.44 1638.67,-58.31 1637.56,-51.4"/>
</g>
<!-- Node11&#45;&gt;Node13 -->
<g id="edge13" class="edge">
<title>Node11&#45;&gt;Node13</title>
<path fill="none" stroke="midnightblue" d="M1512.99,-54.79C1451.01,-44.59 1356.81,-29.08 1298.73,-19.52"/>
<polygon fill="midnightblue" stroke="midnightblue" points="1512.59,-58.27 1523.03,-56.44 1513.73,-51.37 1512.59,-58.27"/>
</g>
<!-- Node14&#45;&gt;Node10 -->
<g id="edge19" class="edge">
<title>Node14&#45;&gt;Node10</title>
<path fill="none" stroke="midnightblue" d="M946.93,-54.09C903.85,-43.89 840.41,-28.86 800.96,-19.52"/>
<polygon fill="midnightblue" stroke="midnightblue" points="946.34,-57.54 956.87,-56.44 947.95,-50.73 946.34,-57.54"/>
</g>
<!-- Node14&#45;&gt;Node13 -->
<g id="edge16" class="edge">
<title>Node14&#45;&gt;Node13</title>
<path fill="none" stroke="midnightblue" d="M1043.12,-54.35C1091.12,-44.14 1162.62,-28.94 1206.94,-19.52"/>
<polygon fill="midnightblue" stroke="midnightblue" points="1042.3,-50.94 1033.25,-56.44 1043.76,-57.79 1042.3,-50.94"/>
</g>
<!-- Node14&#45;&gt;Node15 -->
<g id="edge17" class="edge">
<title>Node14&#45;&gt;Node15</title>
<path fill="none" stroke="midnightblue" d="M974.73,-49.82C963.08,-40.15 948.4,-27.95 938.63,-19.83"/>
<polygon fill="midnightblue" stroke="midnightblue" points="972.63,-52.63 982.56,-56.32 977.1,-47.24 972.63,-52.63"/>
</g>
<!-- Node14&#45;&gt;Node16 -->
<g id="edge18" class="edge">
<title>Node14&#45;&gt;Node16</title>
<path fill="none" stroke="midnightblue" d="M1017.84,-51.45C1036.11,-41.48 1060.42,-28.23 1076.13,-19.65"/>
<polygon fill="midnightblue" stroke="midnightblue" points="1016.01,-48.46 1008.91,-56.32 1019.36,-54.61 1016.01,-48.46"/>
</g>
<!-- Node17&#45;&gt;Node13 -->
<g id="edge21" class="edge">
<title>Node17&#45;&gt;Node13</title>
<path fill="none" stroke="midnightblue" d="M1231.8,-46.69C1235.68,-37.59 1240.18,-27.01 1243.27,-19.75"/>
<polygon fill="midnightblue" stroke="midnightblue" points="1228.5,-45.51 1227.8,-56.08 1234.94,-48.25 1228.5,-45.51"/>
</g>
<!-- Node17&#45;&gt;Node18 -->
<g id="edge22" class="edge">
<title>Node17&#45;&gt;Node18</title>
<path fill="none" stroke="midnightblue" d="M1262.11,-53.57C1296.06,-43.38 1344.99,-28.7 1375.61,-19.52"/>
<polygon fill="midnightblue" stroke="midnightblue" points="1261.09,-50.22 1252.52,-56.44 1263.11,-56.92 1261.09,-50.22"/>
</g>
<!-- Node23&#45;&gt;Node12 -->
<g id="edge35" class="edge">
<title>Node23&#45;&gt;Node12</title>
<path fill="none" stroke="midnightblue" d="M2002.34,-104.9C1979.33,-81.25 1937.21,-37.95 1919.36,-19.59"/>
<polygon fill="midnightblue" stroke="midnightblue" points="2000.12,-107.64 2009.6,-112.37 2005.14,-102.76 2000.12,-107.64"/>
</g>
<!-- Node23&#45;&gt;Node24 -->
<g id="edge34" class="edge">
<title>Node23&#45;&gt;Node24</title>
<path fill="none" stroke="midnightblue" d="M2041.29,-107.18C2058.04,-97.24 2080.1,-84.15 2094.42,-75.65"/>
<polygon fill="midnightblue" stroke="midnightblue" points="2039.43,-104.21 2032.62,-112.32 2043.01,-110.23 2039.43,-104.21"/>
</g>
</g>
</svg>
