<?xml version="1.0" encoding="UTF-8" standalone="no"?>
<!DOCTYPE svg PUBLIC "-//W3C//DTD SVG 1.1//EN"
 "http://www.w3.org/Graphics/SVG/1.1/DTD/svg11.dtd">
<!-- Generated by graphviz version 2.43.0 (0)
 -->
<!-- Title: btmoduleset.h Pages: 1 -->
<svg width="2182pt" height="196pt"
 viewBox="0.00 0.00 2181.50 196.00" xmlns="http://www.w3.org/2000/svg" xmlns:xlink="http://www.w3.org/1999/xlink">
<g id="graph0" class="graph" transform="scale(1 1) rotate(0) translate(4 192)">
<title>btmoduleset.h</title>
<polygon fill="white" stroke="transparent" points="-4,4 -4,-192 2177.5,-192 2177.5,4 -4,4"/>
<!-- Node1 -->
<g id="node1" class="node">
<title>Node1</title>
<g id="a_node1"><a xlink:title=" ">
<polygon fill="#bfbfbf" stroke="black" points="1692.5,-168.5 1692.5,-187.5 1779.5,-187.5 1779.5,-168.5 1692.5,-168.5"/>
<text text-anchor="middle" x="1736" y="-175.5" font-family="Helvetica,sans-Serif" font-size="10.00">btmoduleset.h</text>
</a>
</g>
</g>
<!-- Node2 -->
<g id="node2" class="node">
<title>Node2</title>
<g id="a_node2"><a xlink:href="../../d9/d0b/btbookshelftreemodel_8cpp.html" target="_top" xlink:title=" ">
<polygon fill="white" stroke="black" points="0,-56.5 0,-75.5 144,-75.5 144,-56.5 0,-56.5"/>
<text text-anchor="middle" x="72" y="-63.5" font-family="Helvetica,sans-Serif" font-size="10.00">btbookshelftreemodel.cpp</text>
</a>
</g>
</g>
<!-- Node1&#45;&gt;Node2 -->
<g id="edge1" class="edge">
<title>Node1&#45;&gt;Node2</title>
<path fill="none" stroke="midnightblue" d="M1682.42,-175.71C1530.11,-171.8 1081.59,-158.71 710,-132 503.17,-117.13 259.59,-89.49 142.21,-75.54"/>
<polygon fill="midnightblue" stroke="midnightblue" points="1682.36,-179.2 1692.45,-175.96 1682.54,-172.21 1682.36,-179.2"/>
</g>
<!-- Node3 -->
<g id="node3" class="node">
<title>Node3</title>
<g id="a_node3"><a xlink:href="../../d8/d4f/btbookshelftreemodel_8h.html" target="_top" xlink:title=" ">
<polygon fill="white" stroke="black" points="719.5,-112.5 719.5,-131.5 852.5,-131.5 852.5,-112.5 719.5,-112.5"/>
<text text-anchor="middle" x="786" y="-119.5" font-family="Helvetica,sans-Serif" font-size="10.00">btbookshelftreemodel.h</text>
</a>
</g>
</g>
<!-- Node1&#45;&gt;Node3 -->
<g id="edge2" class="edge">
<title>Node1&#45;&gt;Node3</title>
<path fill="none" stroke="midnightblue" d="M1682.14,-173.94C1519.16,-164.67 1031.51,-136.96 852.69,-126.79"/>
<polygon fill="midnightblue" stroke="midnightblue" points="1682.22,-177.45 1692.4,-174.52 1682.61,-170.46 1682.22,-177.45"/>
</g>
<!-- Node5 -->
<g id="node5" class="node">
<title>Node5</title>
<g id="a_node5"><a xlink:href="../../d9/d03/btbookshelfworkspage_8cpp.html" target="_top" xlink:title=" ">
<polygon fill="white" stroke="black" points="888.5,-0.5 888.5,-19.5 1035.5,-19.5 1035.5,-0.5 888.5,-0.5"/>
<text text-anchor="middle" x="962" y="-7.5" font-family="Helvetica,sans-Serif" font-size="10.00">btbookshelfworkspage.cpp</text>
</a>
</g>
</g>
<!-- Node1&#45;&gt;Node5 -->
<g id="edge38" class="edge">
<title>Node1&#45;&gt;Node5</title>
<path fill="none" stroke="midnightblue" d="M1736.21,-158.31C1735.4,-130.94 1729.41,-80.57 1698,-56 1691.52,-50.93 1220.61,-24.97 1035.53,-14.95"/>
<polygon fill="midnightblue" stroke="midnightblue" points="1732.71,-158.52 1736.3,-168.48 1739.71,-158.45 1732.71,-158.52"/>
</g>
<!-- Node7 -->
<g id="node7" class="node">
<title>Node7</title>
<g id="a_node7"><a xlink:href="../../d6/d54/btbookshelfwizard_8cpp.html" target="_top" xlink:title=" ">
<polygon fill="white" stroke="black" points="1692,-0.5 1692,-19.5 1818,-19.5 1818,-0.5 1692,-0.5"/>
<text text-anchor="middle" x="1755" y="-7.5" font-family="Helvetica,sans-Serif" font-size="10.00">btbookshelfwizard.cpp</text>
</a>
</g>
</g>
<!-- Node1&#45;&gt;Node7 -->
<g id="edge37" class="edge">
<title>Node1&#45;&gt;Node7</title>
<path fill="none" stroke="midnightblue" d="M1738.18,-157.93C1742.3,-121.92 1751.08,-45.23 1754.02,-19.57"/>
<polygon fill="midnightblue" stroke="midnightblue" points="1734.68,-157.74 1737.02,-168.08 1741.64,-158.54 1734.68,-157.74"/>
</g>
<!-- Node21 -->
<g id="node21" class="node">
<title>Node21</title>
<g id="a_node21"><a xlink:href="../../dc/dab/btsearchmodulechooserdialog_8cpp.html" target="_top" xlink:title=" ">
<polygon fill="white" stroke="black" points="1505,-56.5 1505,-75.5 1689,-75.5 1689,-56.5 1505,-56.5"/>
<text text-anchor="middle" x="1597" y="-63.5" font-family="Helvetica,sans-Serif" font-size="10.00">btsearchmodulechooserdialog.cpp</text>
</a>
</g>
</g>
<!-- Node1&#45;&gt;Node21 -->
<g id="edge39" class="edge">
<title>Node1&#45;&gt;Node21</title>
<path fill="none" stroke="midnightblue" d="M1717.19,-162.12C1687.69,-138.77 1631.46,-94.27 1607.86,-75.59"/>
<polygon fill="midnightblue" stroke="midnightblue" points="1715.08,-164.91 1725.09,-168.37 1719.42,-159.42 1715.08,-164.91"/>
</g>
<!-- Node22 -->
<g id="node22" class="node">
<title>Node22</title>
<g id="a_node22"><a xlink:href="../../dc/d04/btbookshelfinstallfinalpage_8cpp.html" target="_top" xlink:title=" ">
<polygon fill="white" stroke="black" points="1782.5,-56.5 1782.5,-75.5 1951.5,-75.5 1951.5,-56.5 1782.5,-56.5"/>
<text text-anchor="middle" x="1867" y="-63.5" font-family="Helvetica,sans-Serif" font-size="10.00">btbookshelfinstallfinalpage.cpp</text>
</a>
</g>
</g>
<!-- Node1&#45;&gt;Node22 -->
<g id="edge32" class="edge">
<title>Node1&#45;&gt;Node22</title>
<path fill="none" stroke="midnightblue" d="M1753.97,-161.44C1769.31,-148.2 1792,-128.73 1812,-112 1827.33,-99.18 1845.28,-84.56 1856.4,-75.56"/>
<polygon fill="midnightblue" stroke="midnightblue" points="1751.54,-158.91 1746.27,-168.1 1756.12,-164.21 1751.54,-158.91"/>
</g>
<!-- Node23 -->
<g id="node23" class="node">
<title>Node23</title>
<g id="a_node23"><a xlink:href="../../d7/d33/btbookshelfinstallfinalpage_8h.html" target="_top" xlink:title=" ">
<polygon fill="white" stroke="black" points="1821,-112.5 1821,-131.5 1979,-131.5 1979,-112.5 1821,-112.5"/>
<text text-anchor="middle" x="1900" y="-119.5" font-family="Helvetica,sans-Serif" font-size="10.00">btbookshelfinstallfinalpage.h</text>
</a>
</g>
</g>
<!-- Node1&#45;&gt;Node23 -->
<g id="edge33" class="edge">
<title>Node1&#45;&gt;Node23</title>
<path fill="none" stroke="midnightblue" d="M1771.52,-165.3C1802.42,-155.13 1846.47,-140.62 1874.14,-131.52"/>
<polygon fill="midnightblue" stroke="midnightblue" points="1770.39,-161.99 1761.99,-168.44 1772.58,-168.64 1770.39,-161.99"/>
</g>
<!-- Node24 -->
<g id="node24" class="node">
<title>Node24</title>
<g id="a_node24"><a xlink:href="../../d0/da0/btbookshelfremovefinalpage_8cpp.html" target="_top" xlink:title=" ">
<polygon fill="white" stroke="black" points="1996.5,-112.5 1996.5,-131.5 2173.5,-131.5 2173.5,-112.5 1996.5,-112.5"/>
<text text-anchor="middle" x="2085" y="-119.5" font-family="Helvetica,sans-Serif" font-size="10.00">btbookshelfremovefinalpage.cpp</text>
</a>
</g>
</g>
<!-- Node1&#45;&gt;Node24 -->
<g id="edge36" class="edge">
<title>Node1&#45;&gt;Node24</title>
<path fill="none" stroke="midnightblue" d="M1789.92,-168.66C1855.08,-158.58 1964.13,-141.7 2029.84,-131.53"/>
<polygon fill="midnightblue" stroke="midnightblue" points="1789.19,-165.23 1779.85,-170.22 1790.27,-172.15 1789.19,-165.23"/>
</g>
<!-- Node3&#45;&gt;Node2 -->
<g id="edge3" class="edge">
<title>Node3&#45;&gt;Node2</title>
<path fill="none" stroke="midnightblue" d="M709.44,-116.32C591.09,-108.91 356.64,-93.51 158,-76 153.51,-75.6 148.9,-75.18 144.24,-74.73"/>
<polygon fill="midnightblue" stroke="midnightblue" points="709.28,-119.82 719.48,-116.95 709.72,-112.84 709.28,-119.82"/>
</g>
<!-- Node4 -->
<g id="node4" class="node">
<title>Node4</title>
<g id="a_node4"><a xlink:href="../../dc/d32/moduleitem_8cpp.html" target="_top" xlink:title=" ">
<polygon fill="white" stroke="black" points="1199,-56.5 1199,-75.5 1295,-75.5 1295,-56.5 1199,-56.5"/>
<text text-anchor="middle" x="1247" y="-63.5" font-family="Helvetica,sans-Serif" font-size="10.00">moduleitem.cpp</text>
</a>
</g>
</g>
<!-- Node3&#45;&gt;Node4 -->
<g id="edge4" class="edge">
<title>Node3&#45;&gt;Node4</title>
<path fill="none" stroke="midnightblue" d="M862.75,-113.5C944.12,-105.31 1076.31,-91.3 1190,-76 1192.88,-75.61 1195.84,-75.2 1198.82,-74.77"/>
<polygon fill="midnightblue" stroke="midnightblue" points="862.2,-110.04 852.6,-114.52 862.9,-117.01 862.2,-110.04"/>
</g>
<!-- Node3&#45;&gt;Node5 -->
<g id="edge5" class="edge">
<title>Node3&#45;&gt;Node5</title>
<path fill="none" stroke="midnightblue" d="M786.8,-101.77C788.41,-87.33 792.9,-68.04 805,-56 820.38,-40.7 873.45,-27.62 913.67,-19.56"/>
<polygon fill="midnightblue" stroke="midnightblue" points="783.28,-101.85 786.02,-112.09 790.26,-102.38 783.28,-101.85"/>
</g>
<!-- Node6 -->
<g id="node6" class="node">
<title>Node6</title>
<g id="a_node6"><a xlink:href="../../d6/d8d/btbookshelfworkspage_8h.html" target="_top" xlink:title=" ">
<polygon fill="white" stroke="black" points="1351,-56.5 1351,-75.5 1487,-75.5 1487,-56.5 1351,-56.5"/>
<text text-anchor="middle" x="1419" y="-63.5" font-family="Helvetica,sans-Serif" font-size="10.00">btbookshelfworkspage.h</text>
</a>
</g>
</g>
<!-- Node3&#45;&gt;Node6 -->
<g id="edge6" class="edge">
<title>Node3&#45;&gt;Node6</title>
<path fill="none" stroke="midnightblue" d="M862.65,-115.42C969.14,-107.51 1167.85,-92.19 1337,-76 1341.42,-75.58 1345.97,-75.12 1350.56,-74.66"/>
<polygon fill="midnightblue" stroke="midnightblue" points="862.35,-111.93 852.63,-116.16 862.86,-118.91 862.35,-111.93"/>
</g>
<!-- Node8 -->
<g id="node8" class="node">
<title>Node8</title>
<g id="a_node8"><a xlink:href="../../dd/dba/btinstallpagemodel_8cpp.html" target="_top" xlink:title=" ">
<polygon fill="white" stroke="black" points="1155.5,-0.5 1155.5,-19.5 1286.5,-19.5 1286.5,-0.5 1155.5,-0.5"/>
<text text-anchor="middle" x="1221" y="-7.5" font-family="Helvetica,sans-Serif" font-size="10.00">btinstallpagemodel.cpp</text>
</a>
</g>
</g>
<!-- Node3&#45;&gt;Node8 -->
<g id="edge9" class="edge">
<title>Node3&#45;&gt;Node8</title>
<path fill="none" stroke="midnightblue" d="M862.61,-119.93C999.54,-117.23 1274.8,-107.85 1304,-76 1325.52,-52.53 1279.44,-30.93 1247.72,-19.51"/>
<polygon fill="midnightblue" stroke="midnightblue" points="862.52,-116.43 852.59,-120.12 862.66,-123.43 862.52,-116.43"/>
</g>
<!-- Node9 -->
<g id="node9" class="node">
<title>Node9</title>
<g id="a_node9"><a xlink:href="../../df/d56/btinstallpagemodel_8h.html" target="_top" xlink:title=" ">
<polygon fill="white" stroke="black" points="814,-56.5 814,-75.5 934,-75.5 934,-56.5 814,-56.5"/>
<text text-anchor="middle" x="874" y="-63.5" font-family="Helvetica,sans-Serif" font-size="10.00">btinstallpagemodel.h</text>
</a>
</g>
</g>
<!-- Node3&#45;&gt;Node9 -->
<g id="edge10" class="edge">
<title>Node3&#45;&gt;Node9</title>
<path fill="none" stroke="midnightblue" d="M808.98,-106.9C825.11,-97 846.18,-84.07 859.9,-75.65"/>
<polygon fill="midnightblue" stroke="midnightblue" points="806.83,-104.11 800.14,-112.32 810.49,-110.08 806.83,-104.11"/>
</g>
<!-- Node10 -->
<g id="node10" class="node">
<title>Node10</title>
<g id="a_node10"><a xlink:href="../../df/d88/btbookshelfdockwidget_8cpp.html" target="_top" xlink:title=" ">
<polygon fill="white" stroke="black" points="25.5,-0.5 25.5,-19.5 176.5,-19.5 176.5,-0.5 25.5,-0.5"/>
<text text-anchor="middle" x="101" y="-7.5" font-family="Helvetica,sans-Serif" font-size="10.00">btbookshelfdockwidget.cpp</text>
</a>
</g>
</g>
<!-- Node3&#45;&gt;Node10 -->
<g id="edge13" class="edge">
<title>Node3&#45;&gt;Node10</title>
<path fill="none" stroke="midnightblue" d="M709.37,-120.35C570.77,-118.34 284.14,-110.05 191,-76 156.97,-63.56 124.38,-34.34 109.47,-19.69"/>
<polygon fill="midnightblue" stroke="midnightblue" points="709.45,-123.86 719.49,-120.49 709.54,-116.86 709.45,-123.86"/>
</g>
<!-- Node11 -->
<g id="node11" class="node">
<title>Node11</title>
<g id="a_node11"><a xlink:href="../../d4/d1c/btbookshelfdockwidget_8h.html" target="_top" xlink:title=" ">
<polygon fill="white" stroke="black" points="200,-56.5 200,-75.5 340,-75.5 340,-56.5 200,-56.5"/>
<text text-anchor="middle" x="270" y="-63.5" font-family="Helvetica,sans-Serif" font-size="10.00">btbookshelfdockwidget.h</text>
</a>
</g>
</g>
<!-- Node3&#45;&gt;Node11 -->
<g id="edge14" class="edge">
<title>Node3&#45;&gt;Node11</title>
<path fill="none" stroke="midnightblue" d="M709.26,-113.35C621.97,-104.59 475.18,-89.68 349,-76 346.12,-75.69 343.18,-75.37 340.21,-75.04"/>
<polygon fill="midnightblue" stroke="midnightblue" points="709.05,-116.85 719.34,-114.36 709.74,-109.88 709.05,-116.85"/>
</g>
<!-- Node14 -->
<g id="node14" class="node">
<title>Node14</title>
<g id="a_node14"><a xlink:href="../../d8/d44/btbookshelfgroupingmenu_8cpp.html" target="_top" xlink:title=" ">
<polygon fill="white" stroke="black" points="560.5,-0.5 560.5,-19.5 725.5,-19.5 725.5,-0.5 560.5,-0.5"/>
<text text-anchor="middle" x="643" y="-7.5" font-family="Helvetica,sans-Serif" font-size="10.00">btbookshelfgroupingmenu.cpp</text>
</a>
</g>
</g>
<!-- Node3&#45;&gt;Node14 -->
<g id="edge18" class="edge">
<title>Node3&#45;&gt;Node14</title>
<path fill="none" stroke="midnightblue" d="M709.34,-116.19C650.49,-110.71 576.16,-99.29 557,-76 536.67,-51.28 581.87,-30.59 614.13,-19.56"/>
<polygon fill="midnightblue" stroke="midnightblue" points="709.11,-119.69 719.38,-117.08 709.73,-112.71 709.11,-119.69"/>
</g>
<!-- Node15 -->
<g id="node15" class="node">
<title>Node15</title>
<g id="a_node15"><a xlink:href="../../dc/dd2/btbookshelfgroupingmenu_8h.html" target="_top" xlink:title=" ">
<polygon fill="white" stroke="black" points="566,-56.5 566,-75.5 720,-75.5 720,-56.5 566,-56.5"/>
<text text-anchor="middle" x="643" y="-63.5" font-family="Helvetica,sans-Serif" font-size="10.00">btbookshelfgroupingmenu.h</text>
</a>
</g>
</g>
<!-- Node3&#45;&gt;Node15 -->
<g id="edge19" class="edge">
<title>Node3&#45;&gt;Node15</title>
<path fill="none" stroke="midnightblue" d="M753.97,-108.91C727.09,-98.75 689.36,-84.51 665.55,-75.52"/>
<polygon fill="midnightblue" stroke="midnightblue" points="752.75,-112.19 763.34,-112.44 755.22,-105.64 752.75,-112.19"/>
</g>
<!-- Node16 -->
<g id="node16" class="node">
<title>Node16</title>
<g id="a_node16"><a xlink:href="../../d9/d70/btbookshelfwidget_8cpp.html" target="_top" xlink:title=" ">
<polygon fill="white" stroke="black" points="743.5,-0.5 743.5,-19.5 870.5,-19.5 870.5,-0.5 743.5,-0.5"/>
<text text-anchor="middle" x="807" y="-7.5" font-family="Helvetica,sans-Serif" font-size="10.00">btbookshelfwidget.cpp</text>
</a>
</g>
</g>
<!-- Node3&#45;&gt;Node16 -->
<g id="edge24" class="edge">
<title>Node3&#45;&gt;Node16</title>
<path fill="none" stroke="midnightblue" d="M776.98,-103.04C771.57,-89.82 766.68,-71.51 772,-56 777.01,-41.4 788.91,-27.88 797.44,-19.55"/>
<polygon fill="midnightblue" stroke="midnightblue" points="773.92,-104.76 781.25,-112.41 780.29,-101.86 773.92,-104.76"/>
</g>
<!-- Node17 -->
<g id="node17" class="node">
<title>Node17</title>
<g id="a_node17"><a xlink:href="../../d9/d62/btopenworkaction_8cpp.html" target="_top" xlink:title=" ">
<polygon fill="white" stroke="black" points="418,-0.5 418,-19.5 542,-19.5 542,-0.5 418,-0.5"/>
<text text-anchor="middle" x="480" y="-7.5" font-family="Helvetica,sans-Serif" font-size="10.00">btopenworkaction.cpp</text>
</a>
</g>
</g>
<!-- Node3&#45;&gt;Node17 -->
<g id="edge25" class="edge">
<title>Node3&#45;&gt;Node17</title>
<path fill="none" stroke="midnightblue" d="M709.22,-117.61C660.73,-112.84 598.02,-101.71 548,-76 520.98,-62.11 497.33,-34.09 486.41,-19.81"/>
<polygon fill="midnightblue" stroke="midnightblue" points="709.07,-121.11 719.34,-118.53 709.7,-114.14 709.07,-121.11"/>
</g>
<!-- Node18 -->
<g id="node18" class="node">
<title>Node18</title>
<g id="a_node18"><a xlink:href="../../dd/d87/btopenworkaction_8h.html" target="_top" xlink:title=" ">
<polygon fill="white" stroke="black" points="358.5,-56.5 358.5,-75.5 471.5,-75.5 471.5,-56.5 358.5,-56.5"/>
<text text-anchor="middle" x="415" y="-63.5" font-family="Helvetica,sans-Serif" font-size="10.00">btopenworkaction.h</text>
</a>
</g>
</g>
<!-- Node3&#45;&gt;Node18 -->
<g id="edge26" class="edge">
<title>Node3&#45;&gt;Node18</title>
<path fill="none" stroke="midnightblue" d="M717.06,-110.97C646.33,-100.67 537.59,-84.84 471.69,-75.25"/>
<polygon fill="midnightblue" stroke="midnightblue" points="716.81,-114.47 727.21,-112.44 717.82,-107.54 716.81,-114.47"/>
</g>
<!-- Node19 -->
<g id="node19" class="node">
<title>Node19</title>
<g id="a_node19"><a xlink:href="../../dd/ddc/btmodulechoosermenu_8cpp.html" target="_top" xlink:title=" ">
<polygon fill="white" stroke="black" points="952.5,-56.5 952.5,-75.5 1101.5,-75.5 1101.5,-56.5 952.5,-56.5"/>
<text text-anchor="middle" x="1027" y="-63.5" font-family="Helvetica,sans-Serif" font-size="10.00">btmodulechoosermenu.cpp</text>
</a>
</g>
</g>
<!-- Node3&#45;&gt;Node19 -->
<g id="edge29" class="edge">
<title>Node3&#45;&gt;Node19</title>
<path fill="none" stroke="midnightblue" d="M834.12,-110.22C879.66,-100.01 947.11,-84.9 988.99,-75.52"/>
<polygon fill="midnightblue" stroke="midnightblue" points="833.18,-106.84 824.19,-112.44 834.71,-113.67 833.18,-106.84"/>
</g>
<!-- Node20 -->
<g id="node20" class="node">
<title>Node20</title>
<g id="a_node20"><a xlink:href="../../df/d0a/main_8cpp.html" target="_top" xlink:title=" ">
<polygon fill="white" stroke="black" points="1119,-56.5 1119,-75.5 1181,-75.5 1181,-56.5 1119,-56.5"/>
<text text-anchor="middle" x="1150" y="-63.5" font-family="Helvetica,sans-Serif" font-size="10.00">main.cpp</text>
</a>
</g>
</g>
<!-- Node3&#45;&gt;Node20 -->
<g id="edge30" class="edge">
<title>Node3&#45;&gt;Node20</title>
<path fill="none" stroke="midnightblue" d="M862.94,-112.15C928.77,-104.13 1025.93,-91.27 1110,-76 1112.8,-75.49 1115.7,-74.92 1118.61,-74.32"/>
<polygon fill="midnightblue" stroke="midnightblue" points="862.16,-108.71 852.65,-113.39 863,-115.66 862.16,-108.71"/>
</g>
<!-- Node3&#45;&gt;Node21 -->
<g id="edge31" class="edge">
<title>Node3&#45;&gt;Node21</title>
<path fill="none" stroke="midnightblue" d="M862.87,-116.77C993.19,-109.46 1265.78,-93.55 1496,-76 1498.9,-75.78 1501.84,-75.55 1504.81,-75.31"/>
<polygon fill="midnightblue" stroke="midnightblue" points="862.39,-113.3 852.6,-117.35 862.78,-120.28 862.39,-113.3"/>
</g>
<!-- Node6&#45;&gt;Node5 -->
<g id="edge8" class="edge">
<title>Node6&#45;&gt;Node5</title>
<path fill="none" stroke="midnightblue" d="M1340.61,-55.74C1254.63,-45.58 1117.77,-29.41 1034.29,-19.54"/>
<polygon fill="midnightblue" stroke="midnightblue" points="1340.24,-59.22 1350.58,-56.92 1341.06,-52.27 1340.24,-59.22"/>
</g>
<!-- Node6&#45;&gt;Node7 -->
<g id="edge7" class="edge">
<title>Node6&#45;&gt;Node7</title>
<path fill="none" stroke="midnightblue" d="M1482.13,-54.85C1545.62,-44.65 1642.39,-29.1 1702.01,-19.52"/>
<polygon fill="midnightblue" stroke="midnightblue" points="1481.56,-51.4 1472.24,-56.44 1482.67,-58.31 1481.56,-51.4"/>
</g>
<!-- Node9&#45;&gt;Node5 -->
<g id="edge11" class="edge">
<title>Node9&#45;&gt;Node5</title>
<path fill="none" stroke="midnightblue" d="M896.98,-50.9C913.11,-41 934.18,-28.07 947.9,-19.65"/>
<polygon fill="midnightblue" stroke="midnightblue" points="894.83,-48.11 888.14,-56.32 898.49,-54.08 894.83,-48.11"/>
</g>
<!-- Node9&#45;&gt;Node8 -->
<g id="edge12" class="edge">
<title>Node9&#45;&gt;Node8</title>
<path fill="none" stroke="midnightblue" d="M939.2,-54.85C1004.76,-44.65 1104.71,-29.1 1166.27,-19.52"/>
<polygon fill="midnightblue" stroke="midnightblue" points="938.33,-51.45 928.98,-56.44 939.4,-58.36 938.33,-51.45"/>
</g>
<!-- Node11&#45;&gt;Node10 -->
<g id="edge17" class="edge">
<title>Node11&#45;&gt;Node10</title>
<path fill="none" stroke="midnightblue" d="M233.4,-53.3C201.55,-43.13 156.16,-28.62 127.65,-19.52"/>
<polygon fill="midnightblue" stroke="midnightblue" points="232.63,-56.73 243.22,-56.44 234.76,-50.07 232.63,-56.73"/>
</g>
<!-- Node12 -->
<g id="node12" class="node">
<title>Node12</title>
<g id="a_node12"><a xlink:href="../../d1/df6/bibletime_8cpp.html" target="_top" xlink:title=" ">
<polygon fill="white" stroke="black" points="194.5,-0.5 194.5,-19.5 277.5,-19.5 277.5,-0.5 194.5,-0.5"/>
<text text-anchor="middle" x="236" y="-7.5" font-family="Helvetica,sans-Serif" font-size="10.00">bibletime.cpp</text>
</a>
</g>
</g>
<!-- Node11&#45;&gt;Node12 -->
<g id="edge15" class="edge">
<title>Node11&#45;&gt;Node12</title>
<path fill="none" stroke="midnightblue" d="M259.02,-47.57C253.17,-38.27 246.23,-27.25 241.51,-19.75"/>
<polygon fill="midnightblue" stroke="midnightblue" points="256.1,-49.49 264.39,-56.08 262.02,-45.76 256.1,-49.49"/>
</g>
<!-- Node13 -->
<g id="node13" class="node">
<title>Node13</title>
<g id="a_node13"><a xlink:href="../../da/dc7/bibletime__init_8cpp.html" target="_top" xlink:title=" ">
<polygon fill="white" stroke="black" points="296,-0.5 296,-19.5 400,-19.5 400,-0.5 296,-0.5"/>
<text text-anchor="middle" x="348" y="-7.5" font-family="Helvetica,sans-Serif" font-size="10.00">bibletime_init.cpp</text>
</a>
</g>
</g>
<!-- Node11&#45;&gt;Node13 -->
<g id="edge16" class="edge">
<title>Node11&#45;&gt;Node13</title>
<path fill="none" stroke="midnightblue" d="M290.77,-50.62C305.02,-40.76 323.46,-27.99 335.5,-19.65"/>
<polygon fill="midnightblue" stroke="midnightblue" points="288.76,-47.75 282.53,-56.32 292.75,-53.51 288.76,-47.75"/>
</g>
<!-- Node15&#45;&gt;Node5 -->
<g id="edge20" class="edge">
<title>Node15&#45;&gt;Node5</title>
<path fill="none" stroke="midnightblue" d="M703.68,-54.73C763.97,-44.52 855.32,-29.06 911.69,-19.52"/>
<polygon fill="midnightblue" stroke="midnightblue" points="702.82,-51.32 693.55,-56.44 703.99,-58.23 702.82,-51.32"/>
</g>
<!-- Node15&#45;&gt;Node14 -->
<g id="edge21" class="edge">
<title>Node15&#45;&gt;Node14</title>
<path fill="none" stroke="midnightblue" d="M643,-45.8C643,-36.91 643,-26.78 643,-19.75"/>
<polygon fill="midnightblue" stroke="midnightblue" points="639.5,-46.08 643,-56.08 646.5,-46.08 639.5,-46.08"/>
</g>
<!-- Node15&#45;&gt;Node16 -->
<g id="edge22" class="edge">
<title>Node15&#45;&gt;Node16</title>
<path fill="none" stroke="midnightblue" d="M678.52,-53.3C709.42,-43.13 753.47,-28.62 781.14,-19.52"/>
<polygon fill="midnightblue" stroke="midnightblue" points="677.39,-49.99 668.99,-56.44 679.58,-56.64 677.39,-49.99"/>
</g>
<!-- Node15&#45;&gt;Node17 -->
<g id="edge23" class="edge">
<title>Node15&#45;&gt;Node17</title>
<path fill="none" stroke="midnightblue" d="M607.3,-53.17C576.6,-43 533.08,-28.59 505.71,-19.52"/>
<polygon fill="midnightblue" stroke="midnightblue" points="606.58,-56.62 617.17,-56.44 608.78,-49.98 606.58,-56.62"/>
</g>
<!-- Node18&#45;&gt;Node13 -->
<g id="edge27" class="edge">
<title>Node18&#45;&gt;Node13</title>
<path fill="none" stroke="midnightblue" d="M396.17,-49.82C384.16,-40.15 369.03,-27.95 358.96,-19.83"/>
<polygon fill="midnightblue" stroke="midnightblue" points="394.25,-52.77 404.24,-56.32 398.65,-47.32 394.25,-52.77"/>
</g>
<!-- Node18&#45;&gt;Node17 -->
<g id="edge28" class="edge">
<title>Node18&#45;&gt;Node17</title>
<path fill="none" stroke="midnightblue" d="M433.27,-49.82C444.92,-40.15 459.6,-27.95 469.37,-19.83"/>
<polygon fill="midnightblue" stroke="midnightblue" points="430.9,-47.24 425.44,-56.32 435.37,-52.63 430.9,-47.24"/>
</g>
<!-- Node23&#45;&gt;Node7 -->
<g id="edge35" class="edge">
<title>Node23&#45;&gt;Node7</title>
<path fill="none" stroke="midnightblue" d="M1927.77,-107.5C1950.32,-94.72 1976.1,-74.75 1961,-56 1943.27,-33.97 1871.91,-22.14 1818.11,-16.22"/>
<polygon fill="midnightblue" stroke="midnightblue" points="1925.9,-104.53 1918.75,-112.35 1929.21,-110.69 1925.9,-104.53"/>
</g>
<!-- Node23&#45;&gt;Node22 -->
<g id="edge34" class="edge">
<title>Node23&#45;&gt;Node22</title>
<path fill="none" stroke="midnightblue" d="M1889.17,-103.27C1883.53,-94.05 1876.88,-83.17 1872.35,-75.75"/>
<polygon fill="midnightblue" stroke="midnightblue" points="1886.35,-105.38 1894.55,-112.08 1892.32,-101.73 1886.35,-105.38"/>
</g>
</g>
</svg>
