<?xml version="1.0" encoding="UTF-8" standalone="no"?>
<!DOCTYPE svg PUBLIC "-//W3C//DTD SVG 1.1//EN"
 "http://www.w3.org/Graphics/SVG/1.1/DTD/svg11.dtd">
<!-- Generated by graphviz version 2.43.0 (0)
 -->
<!-- Title: anonymous_namespace{cexportmanager.cpp}::PrintSettings Pages: 1 -->
<svg width="137pt" height="175pt"
 viewBox="0.00 0.00 137.00 175.00" xmlns="http://www.w3.org/2000/svg" xmlns:xlink="http://www.w3.org/1999/xlink">
<g id="graph0" class="graph" transform="scale(1 1) rotate(0) translate(4 171)">
<title>anonymous_namespace{cexportmanager.cpp}::PrintSettings</title>
<!-- Node1 -->
<g id="Node000001" class="node">
<title>Node1</title>
<g id="a_Node000001"><a xlink:title=" ">
<polygon fill="#999999" stroke="transparent" points="129,-71 0,-71 0,0 129,0 129,-71"/>
<text text-anchor="start" x="5.5" y="-58.5" font-family="Helvetica,sans-Serif" font-size="10.00">anonymous_namespace</text>
<text text-anchor="start" x="5.5" y="-47.5" font-family="Helvetica,sans-Serif" font-size="10.00">{cexportmanager.cpp}</text>
<text text-anchor="start" x="30.5" y="-36.5" font-family="Helvetica,sans-Serif" font-size="10.00">::PrintSettings</text>
<text text-anchor="start" x="63" y="-21.5" font-family="Helvetica,sans-Serif" font-size="10.00"> </text>
<text text-anchor="start" x="14" y="-6.5" font-family="Helvetica,sans-Serif" font-size="10.00">+</text>
<text text-anchor="start" x="36.5" y="-6.5" font-family="Helvetica,sans-Serif" font-size="10.00">PrintSettings()</text>
<polygon fill="#666666" stroke="#666666" points="0.5,-31.5 0.5,-31.5 129.5,-31.5 129.5,-31.5 0.5,-31.5"/>
<polygon fill="#666666" stroke="#666666" points="0.5,-16.5 0.5,-16.5 129.5,-16.5 129.5,-16.5 0.5,-16.5"/>
<polygon fill="none" stroke="#666666" points="0,0 0,-71 129,-71 129,0 0,0"/>
</a>
</g>
</g>
<!-- Node2 -->
<g id="Node000002" class="node">
<title>Node2</title>
<g id="a_Node000002"><a xlink:href="../../d3/d25/classBtPrinter_1_1KeyTreeItem_1_1Settings.html" target="_top" xlink:title=" ">
<polygon fill="white" stroke="transparent" points="124.5,-167 4.5,-167 4.5,-107 124.5,-107 124.5,-167"/>
<text text-anchor="start" x="9.5" y="-155" font-family="Helvetica,sans-Serif" font-size="10.00">BtPrinter::KeyTreeItem</text>
<text text-anchor="start" x="41.5" y="-144" font-family="Helvetica,sans-Serif" font-size="10.00">::Settings</text>
<text text-anchor="start" x="62.5" y="-129" font-family="Helvetica,sans-Serif" font-size="10.00"> </text>
<text text-anchor="start" x="62.5" y="-114" font-family="Helvetica,sans-Serif" font-size="10.00"> </text>
<polygon fill="#666666" stroke="#666666" points="4.5,-139 4.5,-139 124.5,-139 124.5,-139 4.5,-139"/>
<polygon fill="#666666" stroke="#666666" points="4.5,-124 4.5,-124 124.5,-124 124.5,-124 4.5,-124"/>
<polygon fill="none" stroke="#666666" points="4.5,-107 4.5,-167 124.5,-167 124.5,-107 4.5,-107"/>
</a>
</g>
</g>
<!-- Node2&#45;&gt;Node1 -->
<g id="edge1_Node000001_Node000002" class="edge">
<title>Node2&#45;&gt;Node1</title>
<g id="a_edge1_Node000001_Node000002"><a xlink:title=" ">
<path fill="none" stroke="#63b8ff" d="M64.5,-96.84C64.5,-88.32 64.5,-79.36 64.5,-71.04"/>
<polygon fill="none" stroke="#63b8ff" points="61,-96.95 64.5,-106.95 68,-96.95 61,-96.95"/>
</a>
</g>
</g>
</g>
</svg>
