<?xml version="1.0" encoding="UTF-8" standalone="no"?>
<!DOCTYPE svg PUBLIC "-//W3C//DTD SVG 1.1//EN"
 "http://www.w3.org/Graphics/SVG/1.1/DTD/svg11.dtd">
<!-- Generated by graphviz version 2.43.0 (0)
 -->
<!-- Title: anonymous_namespace{btbookmarksmodel.cpp}::BookmarkItem Pages: 1 -->
<svg width="146pt" height="576pt"
 viewBox="0.00 0.00 146.00 576.00" xmlns="http://www.w3.org/2000/svg" xmlns:xlink="http://www.w3.org/1999/xlink">
<g id="graph0" class="graph" transform="scale(1 1) rotate(0) translate(4 572)">
<title>anonymous_namespace{btbookmarksmodel.cpp}::BookmarkItem</title>
<!-- Node1 -->
<g id="Node000001" class="node">
<title>Node1</title>
<g id="a_Node000001"><a xlink:title=" ">
<polygon fill="#999999" stroke="transparent" points="138,-296 0,-296 0,0 138,0 138,-296"/>
<text text-anchor="start" x="5" y="-284" font-family="Helvetica,sans-Serif" font-size="10.00">anonymous_namespace</text>
<text text-anchor="start" x="5" y="-273" font-family="Helvetica,sans-Serif" font-size="10.00">{btbookmarksmodel.cpp}</text>
<text text-anchor="start" x="29.5" y="-262" font-family="Helvetica,sans-Serif" font-size="10.00">::BookmarkItem</text>
<text text-anchor="start" x="15" y="-247" font-family="Helvetica,sans-Serif" font-size="10.00">&#45;</text>
<text text-anchor="start" x="34" y="-247" font-family="Helvetica,sans-Serif" font-size="10.00">m_description</text>
<text text-anchor="start" x="15" y="-232" font-family="Helvetica,sans-Serif" font-size="10.00">&#45;</text>
<text text-anchor="start" x="34" y="-232" font-family="Helvetica,sans-Serif" font-size="10.00">m_key</text>
<text text-anchor="start" x="15" y="-217" font-family="Helvetica,sans-Serif" font-size="10.00">&#45;</text>
<text text-anchor="start" x="34" y="-217" font-family="Helvetica,sans-Serif" font-size="10.00">m_moduleName</text>
<text text-anchor="start" x="12.5" y="-202" font-family="Helvetica,sans-Serif" font-size="10.00">+</text>
<text text-anchor="start" x="34" y="-202" font-family="Helvetica,sans-Serif" font-size="10.00">BookmarkItem()</text>
<text text-anchor="start" x="12.5" y="-187" font-family="Helvetica,sans-Serif" font-size="10.00">+</text>
<text text-anchor="start" x="34" y="-187" font-family="Helvetica,sans-Serif" font-size="10.00">BookmarkItem()</text>
<text text-anchor="start" x="12.5" y="-172" font-family="Helvetica,sans-Serif" font-size="10.00">+</text>
<text text-anchor="start" x="34" y="-172" font-family="Helvetica,sans-Serif" font-size="10.00">BookmarkItem()</text>
<text text-anchor="start" x="12.5" y="-157" font-family="Helvetica,sans-Serif" font-size="10.00">+</text>
<text text-anchor="start" x="34" y="-157" font-family="Helvetica,sans-Serif" font-size="10.00">description()</text>
<text text-anchor="start" x="12.5" y="-142" font-family="Helvetica,sans-Serif" font-size="10.00">+</text>
<text text-anchor="start" x="34" y="-142" font-family="Helvetica,sans-Serif" font-size="10.00">englishKey()</text>
<text text-anchor="start" x="12.5" y="-127" font-family="Helvetica,sans-Serif" font-size="10.00">+</text>
<text text-anchor="start" x="34" y="-127" font-family="Helvetica,sans-Serif" font-size="10.00">flags()</text>
<text text-anchor="start" x="12.5" y="-112" font-family="Helvetica,sans-Serif" font-size="10.00">+</text>
<text text-anchor="start" x="34" y="-112" font-family="Helvetica,sans-Serif" font-size="10.00">icon()</text>
<text text-anchor="start" x="12.5" y="-97" font-family="Helvetica,sans-Serif" font-size="10.00">+</text>
<text text-anchor="start" x="34" y="-97" font-family="Helvetica,sans-Serif" font-size="10.00">key()</text>
<text text-anchor="start" x="12.5" y="-82" font-family="Helvetica,sans-Serif" font-size="10.00">+</text>
<text text-anchor="start" x="34" y="-82" font-family="Helvetica,sans-Serif" font-size="10.00">module()</text>
<text text-anchor="start" x="12.5" y="-67" font-family="Helvetica,sans-Serif" font-size="10.00">+</text>
<text text-anchor="start" x="34" y="-67" font-family="Helvetica,sans-Serif" font-size="10.00">moduleName()</text>
<text text-anchor="start" x="12.5" y="-52" font-family="Helvetica,sans-Serif" font-size="10.00">+</text>
<text text-anchor="start" x="34" y="-52" font-family="Helvetica,sans-Serif" font-size="10.00">setDescription()</text>
<text text-anchor="start" x="12.5" y="-37" font-family="Helvetica,sans-Serif" font-size="10.00">+</text>
<text text-anchor="start" x="34" y="-37" font-family="Helvetica,sans-Serif" font-size="10.00">setKey()</text>
<text text-anchor="start" x="12.5" y="-22" font-family="Helvetica,sans-Serif" font-size="10.00">+</text>
<text text-anchor="start" x="34" y="-22" font-family="Helvetica,sans-Serif" font-size="10.00">setModule()</text>
<text text-anchor="start" x="12.5" y="-7" font-family="Helvetica,sans-Serif" font-size="10.00">+</text>
<text text-anchor="start" x="34" y="-7" font-family="Helvetica,sans-Serif" font-size="10.00">toolTip()</text>
<polygon fill="#666666" stroke="#666666" points="0,-257 0,-257 138,-257 138,-257 0,-257"/>
<polygon fill="#666666" stroke="#666666" points="0,-212 0,-212 32,-212 32,-212 0,-212"/>
<polygon fill="#666666" stroke="#666666" points="32,-212 32,-212 138,-212 138,-212 32,-212"/>
<polygon fill="none" stroke="#666666" points="0,0 0,-296 138,-296 138,0 0,0"/>
</a>
</g>
</g>
<!-- Node2 -->
<g id="Node000002" class="node">
<title>Node2</title>
<g id="a_Node000002"><a xlink:href="../../d0/df1/classanonymous__namespace_02btbookmarksmodel_8cpp_03_1_1BookmarkItemBase.html" target="_top" xlink:title=" ">
<polygon fill="white" stroke="transparent" points="138,-568 0,-568 0,-332 138,-332 138,-568"/>
<text text-anchor="start" x="5" y="-556" font-family="Helvetica,sans-Serif" font-size="10.00">anonymous_namespace</text>
<text text-anchor="start" x="5" y="-545" font-family="Helvetica,sans-Serif" font-size="10.00">{btbookmarksmodel.cpp}</text>
<text text-anchor="start" x="17.5" y="-534" font-family="Helvetica,sans-Serif" font-size="10.00">::BookmarkItemBase</text>
<text text-anchor="start" x="7.5" y="-519" font-family="Helvetica,sans-Serif" font-size="10.00">&#45;</text>
<text text-anchor="start" x="19" y="-519" font-family="Helvetica,sans-Serif" font-size="10.00">m_parent</text>
<text text-anchor="start" x="7.5" y="-504" font-family="Helvetica,sans-Serif" font-size="10.00">&#45;</text>
<text text-anchor="start" x="19" y="-504" font-family="Helvetica,sans-Serif" font-size="10.00">m_text</text>
<text text-anchor="start" x="5" y="-489" font-family="Helvetica,sans-Serif" font-size="10.00">+</text>
<text text-anchor="start" x="19" y="-489" font-family="Helvetica,sans-Serif" font-size="10.00">BookmarkItemBase()</text>
<text text-anchor="start" x="5" y="-474" font-family="Helvetica,sans-Serif" font-size="10.00">+</text>
<text text-anchor="start" x="19" y="-474" font-family="Helvetica,sans-Serif" font-size="10.00">BookmarkItemBase()</text>
<text text-anchor="start" x="5" y="-459" font-family="Helvetica,sans-Serif" font-size="10.00">+</text>
<text text-anchor="start" x="19" y="-459" font-family="Helvetica,sans-Serif" font-size="10.00">flags()</text>
<text text-anchor="start" x="5" y="-444" font-family="Helvetica,sans-Serif" font-size="10.00">+</text>
<text text-anchor="start" x="19" y="-444" font-family="Helvetica,sans-Serif" font-size="10.00">icon()</text>
<text text-anchor="start" x="5" y="-429" font-family="Helvetica,sans-Serif" font-size="10.00">+</text>
<text text-anchor="start" x="19" y="-429" font-family="Helvetica,sans-Serif" font-size="10.00">index()</text>
<text text-anchor="start" x="5" y="-414" font-family="Helvetica,sans-Serif" font-size="10.00">+</text>
<text text-anchor="start" x="19" y="-414" font-family="Helvetica,sans-Serif" font-size="10.00">parent()</text>
<text text-anchor="start" x="5" y="-399" font-family="Helvetica,sans-Serif" font-size="10.00">+</text>
<text text-anchor="start" x="19" y="-399" font-family="Helvetica,sans-Serif" font-size="10.00">setParent()</text>
<text text-anchor="start" x="5" y="-384" font-family="Helvetica,sans-Serif" font-size="10.00">+</text>
<text text-anchor="start" x="19" y="-384" font-family="Helvetica,sans-Serif" font-size="10.00">setText()</text>
<text text-anchor="start" x="5" y="-369" font-family="Helvetica,sans-Serif" font-size="10.00">+</text>
<text text-anchor="start" x="19" y="-369" font-family="Helvetica,sans-Serif" font-size="10.00">text()</text>
<text text-anchor="start" x="5" y="-354" font-family="Helvetica,sans-Serif" font-size="10.00">+</text>
<text text-anchor="start" x="19" y="-354" font-family="Helvetica,sans-Serif" font-size="10.00">toolTip()</text>
<text text-anchor="start" x="5" y="-339" font-family="Helvetica,sans-Serif" font-size="10.00">+</text>
<text text-anchor="start" x="19" y="-339" font-family="Helvetica,sans-Serif" font-size="10.00">~BookmarkItemBase()</text>
<polygon fill="#666666" stroke="#666666" points="0,-529 0,-529 138,-529 138,-529 0,-529"/>
<polygon fill="#666666" stroke="#666666" points="0,-499 0,-499 17,-499 17,-499 0,-499"/>
<polygon fill="#666666" stroke="#666666" points="17,-499 17,-499 138,-499 138,-499 17,-499"/>
<polygon fill="none" stroke="#666666" points="0,-332 0,-568 138,-568 138,-332 0,-332"/>
</a>
</g>
</g>
<!-- Node2&#45;&gt;Node1 -->
<g id="edge1_Node000001_Node000002" class="edge">
<title>Node2&#45;&gt;Node1</title>
<g id="a_edge1_Node000001_Node000002"><a xlink:title=" ">
<path fill="none" stroke="#63b8ff" d="M69,-321.54C69,-313.15 69,-304.66 69,-296.19"/>
<polygon fill="none" stroke="#63b8ff" points="65.5,-321.72 69,-331.72 72.5,-321.72 65.5,-321.72"/>
</a>
</g>
</g>
</g>
</svg>
