<?xml version="1.0" encoding="UTF-8" standalone="no"?>
<!DOCTYPE svg PUBLIC "-//W3C//DTD SVG 1.1//EN"
 "http://www.w3.org/Graphics/SVG/1.1/DTD/svg11.dtd">
<!-- Generated by graphviz version 2.43.0 (0)
 -->
<!-- Title: anonymous_namespace{btbookmarksmodel.cpp}::BookmarkItem Pages: 1 -->
<!--zoomable 576 -->

<svg id="main" version="1.1" xmlns="http://www.w3.org/2000/svg" xmlns:xlink="http://www.w3.org/1999/xlink" xml:space="preserve" onload="init(evt)">
<style type="text/css"><![CDATA[
.node, .edge {opacity: 0.7;}
.node.selected, .edge.selected {opacity: 1;}
.edge:hover path { stroke: red; }
.edge:hover polygon { stroke: red; fill: red; }
]]></style>

<defs>
  <circle id="rim" cx="0" cy="0" r="7"/>
  <circle id="rim2" cx="0" cy="0" r="3.5"/>
  <g id="zoomPlus">
    <use xlink:href="#rim" fill="#404040"><set attributeName="fill" to="#808080" begin="zoomplus.mouseover" end="zoomplus.mouseout"/></use>
    <path d="M-4,0h8M0,-4v8" fill="none" stroke="white" stroke-width="1.5" pointer-events="none"/>
  </g>
  <g id="zoomMin">
    <use xlink:href="#rim" fill="#404040"><set attributeName="fill" to="#808080" begin="zoomminus.mouseover" end="zoomminus.mouseout"/></use>
    <path d="M-4,0h8" fill="none" stroke="white" stroke-width="1.5" pointer-events="none"/>
  </g>
  <g id="arrowUp" transform="translate(30 24)">
    <use xlink:href="#rim"/>
    <path pointer-events="none" fill="none" stroke="white" stroke-width="1.5" d="M0,-3.0v7 M-2.5,-0.5L0,-3.0L2.5,-0.5"/>
  </g>
  <g id="arrowRight" transform="rotate(90) translate(36 -43)">
    <use xlink:href="#rim"/>
    <path pointer-events="none" fill="none" stroke="white" stroke-width="1.5" d="M0,-3.0v7 M-2.5,-0.5L0,-3.0L2.5,-0.5"/>
  </g>
  <g id="arrowDown" transform="rotate(180) translate(-30 -48)">
    <use xlink:href="#rim"/>
    <path pointer-events="none" fill="none" stroke="white" stroke-width="1.5" d="M0,-3.0v7 M-2.5,-0.5L0,-3.0L2.5,-0.5"/>
  </g>
  <g id="arrowLeft" transform="rotate(270) translate(-36 17)">
    <use xlink:href="#rim"/>
    <path pointer-events="none" fill="none" stroke="white" stroke-width="1.5" d="M0,-3.0v7 M-2.5,-0.5L0,-3.0L2.5,-0.5"/>
  </g>
  <g id="resetDef">
    <use xlink:href="#rim2" fill="#404040"><set attributeName="fill" to="#808080" begin="reset.mouseover" end="reset.mouseout"/></use>
  </g>
</defs>
<script type="application/ecmascript">
var viewWidth = 146;
var viewHeight = 576;
var sectionId = 'dynsection-0';
</script>
<script type="application/ecmascript" xlink:href="../../svg.min.js"/>
<svg id="graph" class="graph">
<g id="viewport">
<title>anonymous_namespace{btbookmarksmodel.cpp}::BookmarkItem</title>
<!-- Node1 -->
<g id="Node000001" class="node">
<title>Node1</title>
<g id="a_Node000001"><a xlink:title=" ">
<polygon fill="#999999" stroke="transparent" points="138,-296 0,-296 0,0 138,0 138,-296"/>
<text text-anchor="start" x="5" y="-284" font-family="Helvetica,sans-Serif" font-size="10.00">anonymous_namespace</text>
<text text-anchor="start" x="5" y="-273" font-family="Helvetica,sans-Serif" font-size="10.00">{btbookmarksmodel.cpp}</text>
<text text-anchor="start" x="29.5" y="-262" font-family="Helvetica,sans-Serif" font-size="10.00">::BookmarkItem</text>
<text text-anchor="start" x="15" y="-247" font-family="Helvetica,sans-Serif" font-size="10.00">&#45;</text>
<text text-anchor="start" x="34" y="-247" font-family="Helvetica,sans-Serif" font-size="10.00">m_description</text>
<text text-anchor="start" x="15" y="-232" font-family="Helvetica,sans-Serif" font-size="10.00">&#45;</text>
<text text-anchor="start" x="34" y="-232" font-family="Helvetica,sans-Serif" font-size="10.00">m_key</text>
<text text-anchor="start" x="15" y="-217" font-family="Helvetica,sans-Serif" font-size="10.00">&#45;</text>
<text text-anchor="start" x="34" y="-217" font-family="Helvetica,sans-Serif" font-size="10.00">m_moduleName</text>
<text text-anchor="start" x="12.5" y="-202" font-family="Helvetica,sans-Serif" font-size="10.00">+</text>
<text text-anchor="start" x="34" y="-202" font-family="Helvetica,sans-Serif" font-size="10.00">BookmarkItem()</text>
<text text-anchor="start" x="12.5" y="-187" font-family="Helvetica,sans-Serif" font-size="10.00">+</text>
<text text-anchor="start" x="34" y="-187" font-family="Helvetica,sans-Serif" font-size="10.00">BookmarkItem()</text>
<text text-anchor="start" x="12.5" y="-172" font-family="Helvetica,sans-Serif" font-size="10.00">+</text>
<text text-anchor="start" x="34" y="-172" font-family="Helvetica,sans-Serif" font-size="10.00">BookmarkItem()</text>
<text text-anchor="start" x="12.5" y="-157" font-family="Helvetica,sans-Serif" font-size="10.00">+</text>
<text text-anchor="start" x="34" y="-157" font-family="Helvetica,sans-Serif" font-size="10.00">description()</text>
<text text-anchor="start" x="12.5" y="-142" font-family="Helvetica,sans-Serif" font-size="10.00">+</text>
<text text-anchor="start" x="34" y="-142" font-family="Helvetica,sans-Serif" font-size="10.00">englishKey()</text>
<text text-anchor="start" x="12.5" y="-127" font-family="Helvetica,sans-Serif" font-size="10.00">+</text>
<text text-anchor="start" x="34" y="-127" font-family="Helvetica,sans-Serif" font-size="10.00">flags()</text>
<text text-anchor="start" x="12.5" y="-112" font-family="Helvetica,sans-Serif" font-size="10.00">+</text>
<text text-anchor="start" x="34" y="-112" font-family="Helvetica,sans-Serif" font-size="10.00">icon()</text>
<text text-anchor="start" x="12.5" y="-97" font-family="Helvetica,sans-Serif" font-size="10.00">+</text>
<text text-anchor="start" x="34" y="-97" font-family="Helvetica,sans-Serif" font-size="10.00">key()</text>
<text text-anchor="start" x="12.5" y="-82" font-family="Helvetica,sans-Serif" font-size="10.00">+</text>
<text text-anchor="start" x="34" y="-82" font-family="Helvetica,sans-Serif" font-size="10.00">module()</text>
<text text-anchor="start" x="12.5" y="-67" font-family="Helvetica,sans-Serif" font-size="10.00">+</text>
<text text-anchor="start" x="34" y="-67" font-family="Helvetica,sans-Serif" font-size="10.00">moduleName()</text>
<text text-anchor="start" x="12.5" y="-52" font-family="Helvetica,sans-Serif" font-size="10.00">+</text>
<text text-anchor="start" x="34" y="-52" font-family="Helvetica,sans-Serif" font-size="10.00">setDescription()</text>
<text text-anchor="start" x="12.5" y="-37" font-family="Helvetica,sans-Serif" font-size="10.00">+</text>
<text text-anchor="start" x="34" y="-37" font-family="Helvetica,sans-Serif" font-size="10.00">setKey()</text>
<text text-anchor="start" x="12.5" y="-22" font-family="Helvetica,sans-Serif" font-size="10.00">+</text>
<text text-anchor="start" x="34" y="-22" font-family="Helvetica,sans-Serif" font-size="10.00">setModule()</text>
<text text-anchor="start" x="12.5" y="-7" font-family="Helvetica,sans-Serif" font-size="10.00">+</text>
<text text-anchor="start" x="34" y="-7" font-family="Helvetica,sans-Serif" font-size="10.00">toolTip()</text>
<polygon fill="#666666" stroke="#666666" points="0,-257 0,-257 138,-257 138,-257 0,-257"/>
<polygon fill="#666666" stroke="#666666" points="0,-212 0,-212 32,-212 32,-212 0,-212"/>
<polygon fill="#666666" stroke="#666666" points="32,-212 32,-212 138,-212 138,-212 32,-212"/>
<polygon fill="none" stroke="#666666" points="0,0 0,-296 138,-296 138,0 0,0"/>
</a>
</g>
</g>
<!-- Node2 -->
<g id="Node000002" class="node">
<title>Node2</title>
<g id="a_Node000002"><a xlink:href="../../d0/df1/classanonymous__namespace_02btbookmarksmodel_8cpp_03_1_1BookmarkItemBase.html" target="_top" xlink:title=" ">
<polygon fill="white" stroke="transparent" points="138,-568 0,-568 0,-332 138,-332 138,-568"/>
<text text-anchor="start" x="5" y="-556" font-family="Helvetica,sans-Serif" font-size="10.00">anonymous_namespace</text>
<text text-anchor="start" x="5" y="-545" font-family="Helvetica,sans-Serif" font-size="10.00">{btbookmarksmodel.cpp}</text>
<text text-anchor="start" x="17.5" y="-534" font-family="Helvetica,sans-Serif" font-size="10.00">::BookmarkItemBase</text>
<text text-anchor="start" x="7.5" y="-519" font-family="Helvetica,sans-Serif" font-size="10.00">&#45;</text>
<text text-anchor="start" x="19" y="-519" font-family="Helvetica,sans-Serif" font-size="10.00">m_parent</text>
<text text-anchor="start" x="7.5" y="-504" font-family="Helvetica,sans-Serif" font-size="10.00">&#45;</text>
<text text-anchor="start" x="19" y="-504" font-family="Helvetica,sans-Serif" font-size="10.00">m_text</text>
<text text-anchor="start" x="5" y="-489" font-family="Helvetica,sans-Serif" font-size="10.00">+</text>
<text text-anchor="start" x="19" y="-489" font-family="Helvetica,sans-Serif" font-size="10.00">BookmarkItemBase()</text>
<text text-anchor="start" x="5" y="-474" font-family="Helvetica,sans-Serif" font-size="10.00">+</text>
<text text-anchor="start" x="19" y="-474" font-family="Helvetica,sans-Serif" font-size="10.00">BookmarkItemBase()</text>
<text text-anchor="start" x="5" y="-459" font-family="Helvetica,sans-Serif" font-size="10.00">+</text>
<text text-anchor="start" x="19" y="-459" font-family="Helvetica,sans-Serif" font-size="10.00">flags()</text>
<text text-anchor="start" x="5" y="-444" font-family="Helvetica,sans-Serif" font-size="10.00">+</text>
<text text-anchor="start" x="19" y="-444" font-family="Helvetica,sans-Serif" font-size="10.00">icon()</text>
<text text-anchor="start" x="5" y="-429" font-family="Helvetica,sans-Serif" font-size="10.00">+</text>
<text text-anchor="start" x="19" y="-429" font-family="Helvetica,sans-Serif" font-size="10.00">index()</text>
<text text-anchor="start" x="5" y="-414" font-family="Helvetica,sans-Serif" font-size="10.00">+</text>
<text text-anchor="start" x="19" y="-414" font-family="Helvetica,sans-Serif" font-size="10.00">parent()</text>
<text text-anchor="start" x="5" y="-399" font-family="Helvetica,sans-Serif" font-size="10.00">+</text>
<text text-anchor="start" x="19" y="-399" font-family="Helvetica,sans-Serif" font-size="10.00">setParent()</text>
<text text-anchor="start" x="5" y="-384" font-family="Helvetica,sans-Serif" font-size="10.00">+</text>
<text text-anchor="start" x="19" y="-384" font-family="Helvetica,sans-Serif" font-size="10.00">setText()</text>
<text text-anchor="start" x="5" y="-369" font-family="Helvetica,sans-Serif" font-size="10.00">+</text>
<text text-anchor="start" x="19" y="-369" font-family="Helvetica,sans-Serif" font-size="10.00">text()</text>
<text text-anchor="start" x="5" y="-354" font-family="Helvetica,sans-Serif" font-size="10.00">+</text>
<text text-anchor="start" x="19" y="-354" font-family="Helvetica,sans-Serif" font-size="10.00">toolTip()</text>
<text text-anchor="start" x="5" y="-339" font-family="Helvetica,sans-Serif" font-size="10.00">+</text>
<text text-anchor="start" x="19" y="-339" font-family="Helvetica,sans-Serif" font-size="10.00">~BookmarkItemBase()</text>
<polygon fill="#666666" stroke="#666666" points="0,-529 0,-529 138,-529 138,-529 0,-529"/>
<polygon fill="#666666" stroke="#666666" points="0,-499 0,-499 17,-499 17,-499 0,-499"/>
<polygon fill="#666666" stroke="#666666" points="17,-499 17,-499 138,-499 138,-499 17,-499"/>
<polygon fill="none" stroke="#666666" points="0,-332 0,-568 138,-568 138,-332 0,-332"/>
</a>
</g>
</g>
<!-- Node2&#45;&gt;Node1 -->
<g id="edge1_Node000001_Node000002" class="edge">
<title>Node2&#45;&gt;Node1</title>
<g id="a_edge1_Node000001_Node000002"><a xlink:title=" ">
<path fill="none" stroke="#63b8ff" d="M69,-321.54C69,-313.15 69,-304.66 69,-296.19"/>
<polygon fill="none" stroke="#63b8ff" points="65.5,-321.72 69,-331.72 72.5,-321.72 65.5,-321.72"/>
</a>
</g>
</g>
</g>
</svg>

<g id="navigator" transform="translate(0 0)" fill="#404254">
  <rect fill="#f2f5e9" fill-opacity="0.5" stroke="#606060" stroke-width=".5" x="0" y="0" width="60" height="60"/>
  <use id="zoomplus" xlink:href="#zoomPlus" x="17" y="9" onmousedown="handleZoom(evt,'in')"/>
  <use id="zoomminus" xlink:href="#zoomMin" x="42" y="9" onmousedown="handleZoom(evt,'out')"/>
  <use id="reset" xlink:href="#resetDef" x="30" y="36" onmousedown="handleReset()"/>
   <use id="arrowup" xlink:href="#arrowUp" x="0" y="0" onmousedown="handlePan(0,-1)"/>
  <use id="arrowright" xlink:href="#arrowRight" x="0" y="0" onmousedown="handlePan(1,0)"/>
  <use id="arrowdown" xlink:href="#arrowDown" x="0" y="0" onmousedown="handlePan(0,1)"/>
  <use id="arrowleft" xlink:href="#arrowLeft" x="0" y="0" onmousedown="handlePan(-1,0)"/>
</g>
<svg viewBox="0 0 15 15" width="100%" height="30px" preserveAspectRatio="xMaxYMin meet">
 <g id="arrow_out" transform="scale(0.3 0.3)">
  <a xlink:href="classanonymous__namespace_02btbookmarksmodel_8cpp_03_1_1BookmarkItem__inherit__graph_org.svg" target="_base">
   <rect id="button" ry="5" rx="5" y="6" x="6" height="38" width="38"
        fill="#f2f5e9" fill-opacity="0.5" stroke="#606060" stroke-width="1.0"/>
   <path id="arrow"
     d="M 11.500037,31.436501 C 11.940474,20.09759 22.043105,11.32322 32.158766,21.979434 L 37.068811,17.246167 C 37.068811,17.246167 37.088388,32 37.088388,32 L 22.160133,31.978069 C 22.160133,31.978069 26.997745,27.140456 26.997745,27.140456 C 18.528582,18.264221 13.291696,25.230495 11.500037,31.436501 z"
     style="fill:#404040;"/>
  </a>
 </g>
</svg>

<style type='text/css'>
<![CDATA[
[data-mouse-over-selected='false'] { opacity: 0.7; }
[data-mouse-over-selected='true']  { opacity: 1.0; }
]]>
</style>
<script type="application/ecmascript"><![CDATA[
document.addEventListener('DOMContentLoaded', (event) => {
  highlightEdges();
  highlightAdjacentNodes();
});
]]></script>
</svg>
