<?xml version="1.0" encoding="UTF-8" standalone="no"?>
<!DOCTYPE svg PUBLIC "-//W3C//DTD SVG 1.1//EN"
 "http://www.w3.org/Graphics/SVG/1.1/DTD/svg11.dtd">
<!-- Generated by graphviz version 2.43.0 (0)
 -->
<!-- Title: BookshelfModel::ModuleItem Pages: 1 -->
<svg width="168pt" height="391pt"
 viewBox="0.00 0.00 168.00 391.00" xmlns="http://www.w3.org/2000/svg" xmlns:xlink="http://www.w3.org/1999/xlink">
<g id="graph0" class="graph" transform="scale(1 1) rotate(0) translate(4 387)">
<title>BookshelfModel::ModuleItem</title>
<polygon fill="white" stroke="transparent" points="-4,4 -4,-387 164,-387 164,4 -4,4"/>
<!-- Node1 -->
<g id="node1" class="node">
<title>Node1</title>
<g id="a_node1"><a xlink:title=" ">
<polygon fill="#bfbfbf" stroke="black" points="0,-0.5 0,-101.5 160,-101.5 160,-0.5 0,-0.5"/>
<text text-anchor="middle" x="80" y="-89.5" font-family="Helvetica,sans-Serif" font-size="10.00">BookshelfModel::ModuleItem</text>
<polyline fill="none" stroke="black" points="0,-82.5 160,-82.5 "/>
<text text-anchor="start" x="8" y="-70.5" font-family="Helvetica,sans-Serif" font-size="10.00">&#45; m_moduleInfo</text>
<text text-anchor="start" x="8" y="-59.5" font-family="Helvetica,sans-Serif" font-size="10.00">&#45; m_parentModel</text>
<polyline fill="none" stroke="black" points="0,-52.5 160,-52.5 "/>
<text text-anchor="start" x="8" y="-40.5" font-family="Helvetica,sans-Serif" font-size="10.00">+ data()</text>
<text text-anchor="start" x="8" y="-29.5" font-family="Helvetica,sans-Serif" font-size="10.00">+ fitFor()</text>
<text text-anchor="start" x="8" y="-18.5" font-family="Helvetica,sans-Serif" font-size="10.00">+ moduleInfo()</text>
<text text-anchor="start" x="8" y="-7.5" font-family="Helvetica,sans-Serif" font-size="10.00">+ ModuleItem()</text>
</a>
</g>
</g>
<!-- Node2 -->
<g id="node2" class="node">
<title>Node2</title>
<g id="a_node2"><a xlink:href="../../d5/d1c/classBookshelfModel_1_1Item.html" target="_top" xlink:title=" ">
<polygon fill="white" stroke="black" points="18,-138.5 18,-382.5 142,-382.5 142,-138.5 18,-138.5"/>
<text text-anchor="middle" x="80" y="-370.5" font-family="Helvetica,sans-Serif" font-size="10.00">BookshelfModel::Item</text>
<polyline fill="none" stroke="black" points="18,-363.5 142,-363.5 "/>
<text text-anchor="start" x="26" y="-351.5" font-family="Helvetica,sans-Serif" font-size="10.00">&#45; m_checkState</text>
<text text-anchor="start" x="26" y="-340.5" font-family="Helvetica,sans-Serif" font-size="10.00">&#45; m_children</text>
<text text-anchor="start" x="26" y="-329.5" font-family="Helvetica,sans-Serif" font-size="10.00">&#45; m_parent</text>
<text text-anchor="start" x="26" y="-318.5" font-family="Helvetica,sans-Serif" font-size="10.00">&#45; m_type</text>
<polyline fill="none" stroke="black" points="18,-311.5 142,-311.5 "/>
<text text-anchor="start" x="26" y="-299.5" font-family="Helvetica,sans-Serif" font-size="10.00">+ checkState()</text>
<text text-anchor="start" x="26" y="-288.5" font-family="Helvetica,sans-Serif" font-size="10.00">+ childIndex()</text>
<text text-anchor="start" x="26" y="-277.5" font-family="Helvetica,sans-Serif" font-size="10.00">+ children()</text>
<text text-anchor="start" x="26" y="-266.5" font-family="Helvetica,sans-Serif" font-size="10.00">+ data()</text>
<text text-anchor="start" x="26" y="-255.5" font-family="Helvetica,sans-Serif" font-size="10.00">+ fitFor()</text>
<text text-anchor="start" x="26" y="-244.5" font-family="Helvetica,sans-Serif" font-size="10.00">+ getGroupItem()</text>
<text text-anchor="start" x="26" y="-233.5" font-family="Helvetica,sans-Serif" font-size="10.00">+ indexFor()</text>
<text text-anchor="start" x="26" y="-222.5" font-family="Helvetica,sans-Serif" font-size="10.00">+ insertChild()</text>
<text text-anchor="start" x="26" y="-211.5" font-family="Helvetica,sans-Serif" font-size="10.00">+ Item()</text>
<text text-anchor="start" x="26" y="-200.5" font-family="Helvetica,sans-Serif" font-size="10.00">+ operator&lt;()</text>
<text text-anchor="start" x="26" y="-189.5" font-family="Helvetica,sans-Serif" font-size="10.00">+ parent()</text>
<text text-anchor="start" x="26" y="-178.5" font-family="Helvetica,sans-Serif" font-size="10.00">+ setCheckState()</text>
<text text-anchor="start" x="26" y="-167.5" font-family="Helvetica,sans-Serif" font-size="10.00">+ type()</text>
<text text-anchor="start" x="26" y="-156.5" font-family="Helvetica,sans-Serif" font-size="10.00">+ ~Item()</text>
<text text-anchor="start" x="26" y="-145.5" font-family="Helvetica,sans-Serif" font-size="10.00">&#45; setParent()</text>
</a>
</g>
</g>
<!-- Node2&#45;&gt;Node1 -->
<g id="edge1" class="edge">
<title>Node2&#45;&gt;Node1</title>
<path fill="none" stroke="midnightblue" d="M80,-128.24C80,-118.9 80,-109.87 80,-101.5"/>
<polygon fill="none" stroke="midnightblue" points="76.5,-128.5 80,-138.5 83.5,-128.5 76.5,-128.5"/>
</g>
</g>
</svg>
