<?xml version="1.0" encoding="UTF-8" standalone="no"?>
<!DOCTYPE svg PUBLIC "-//W3C//DTD SVG 1.1//EN"
 "http://www.w3.org/Graphics/SVG/1.1/DTD/svg11.dtd">
<!-- Generated by graphviz version 2.43.0 (0)
 -->
<!-- Title: BookshelfModel::ModuleItem Pages: 1 -->
<svg width="162pt" height="457pt"
 viewBox="0.00 0.00 162.00 457.00" xmlns="http://www.w3.org/2000/svg" xmlns:xlink="http://www.w3.org/1999/xlink">
<g id="graph0" class="graph" transform="scale(1 1) rotate(0) translate(4 453)">
<title>BookshelfModel::ModuleItem</title>
<!-- Node1 -->
<g id="Node000001" class="node">
<title>Node1</title>
<g id="a_Node000001"><a xlink:title=" ">
<polygon fill="#999999" stroke="transparent" points="154,-109 0,-109 0,0 154,0 154,-109"/>
<text text-anchor="start" x="5" y="-96.5" font-family="Helvetica,sans-Serif" font-size="10.00">BookshelfModel::ModuleItem</text>
<text text-anchor="start" x="20.5" y="-81.5" font-family="Helvetica,sans-Serif" font-size="10.00">&#45;</text>
<text text-anchor="start" x="45" y="-81.5" font-family="Helvetica,sans-Serif" font-size="10.00">m_moduleInfo</text>
<text text-anchor="start" x="20.5" y="-66.5" font-family="Helvetica,sans-Serif" font-size="10.00">&#45;</text>
<text text-anchor="start" x="45" y="-66.5" font-family="Helvetica,sans-Serif" font-size="10.00">m_parentModel</text>
<text text-anchor="start" x="18" y="-51.5" font-family="Helvetica,sans-Serif" font-size="10.00">+</text>
<text text-anchor="start" x="45" y="-51.5" font-family="Helvetica,sans-Serif" font-size="10.00">data()</text>
<text text-anchor="start" x="18" y="-36.5" font-family="Helvetica,sans-Serif" font-size="10.00">+</text>
<text text-anchor="start" x="45" y="-36.5" font-family="Helvetica,sans-Serif" font-size="10.00">fitFor()</text>
<text text-anchor="start" x="18" y="-21.5" font-family="Helvetica,sans-Serif" font-size="10.00">+</text>
<text text-anchor="start" x="45" y="-21.5" font-family="Helvetica,sans-Serif" font-size="10.00">moduleInfo()</text>
<text text-anchor="start" x="18" y="-6.5" font-family="Helvetica,sans-Serif" font-size="10.00">+</text>
<text text-anchor="start" x="45" y="-6.5" font-family="Helvetica,sans-Serif" font-size="10.00">ModuleItem()</text>
<polygon fill="#666666" stroke="#666666" points="0,-91.5 0,-91.5 154,-91.5 154,-91.5 0,-91.5"/>
<polygon fill="#666666" stroke="#666666" points="0,-61.5 0,-61.5 43,-61.5 43,-61.5 0,-61.5"/>
<polygon fill="#666666" stroke="#666666" points="43,-61.5 43,-61.5 154,-61.5 154,-61.5 43,-61.5"/>
<polygon fill="none" stroke="#666666" points="0,0 0,-109 154,-109 154,0 0,0"/>
</a>
</g>
</g>
<!-- Node2 -->
<g id="Node000002" class="node">
<title>Node2</title>
<g id="a_Node000002"><a xlink:href="../../d5/d1c/classBookshelfModel_1_1Item.html" target="_top" xlink:title=" ">
<polygon fill="white" stroke="transparent" points="136,-449 18,-449 18,-145 136,-145 136,-449"/>
<text text-anchor="start" x="23" y="-437" font-family="Helvetica,sans-Serif" font-size="10.00">BookshelfModel::Item</text>
<text text-anchor="start" x="29" y="-422" font-family="Helvetica,sans-Serif" font-size="10.00">&#45;</text>
<text text-anchor="start" x="44" y="-422" font-family="Helvetica,sans-Serif" font-size="10.00">m_checkState</text>
<text text-anchor="start" x="29" y="-407" font-family="Helvetica,sans-Serif" font-size="10.00">&#45;</text>
<text text-anchor="start" x="44" y="-407" font-family="Helvetica,sans-Serif" font-size="10.00">m_children</text>
<text text-anchor="start" x="29" y="-392" font-family="Helvetica,sans-Serif" font-size="10.00">&#45;</text>
<text text-anchor="start" x="44" y="-392" font-family="Helvetica,sans-Serif" font-size="10.00">m_parent</text>
<text text-anchor="start" x="29" y="-377" font-family="Helvetica,sans-Serif" font-size="10.00">&#45;</text>
<text text-anchor="start" x="44" y="-377" font-family="Helvetica,sans-Serif" font-size="10.00">m_type</text>
<text text-anchor="start" x="26.5" y="-362" font-family="Helvetica,sans-Serif" font-size="10.00">+</text>
<text text-anchor="start" x="44" y="-362" font-family="Helvetica,sans-Serif" font-size="10.00">checkState()</text>
<text text-anchor="start" x="26.5" y="-347" font-family="Helvetica,sans-Serif" font-size="10.00">+</text>
<text text-anchor="start" x="44" y="-347" font-family="Helvetica,sans-Serif" font-size="10.00">childIndex()</text>
<text text-anchor="start" x="26.5" y="-332" font-family="Helvetica,sans-Serif" font-size="10.00">+</text>
<text text-anchor="start" x="44" y="-332" font-family="Helvetica,sans-Serif" font-size="10.00">children()</text>
<text text-anchor="start" x="26.5" y="-317" font-family="Helvetica,sans-Serif" font-size="10.00">+</text>
<text text-anchor="start" x="44" y="-317" font-family="Helvetica,sans-Serif" font-size="10.00">data()</text>
<text text-anchor="start" x="26.5" y="-302" font-family="Helvetica,sans-Serif" font-size="10.00">+</text>
<text text-anchor="start" x="44" y="-302" font-family="Helvetica,sans-Serif" font-size="10.00">fitFor()</text>
<text text-anchor="start" x="26.5" y="-287" font-family="Helvetica,sans-Serif" font-size="10.00">+</text>
<text text-anchor="start" x="44" y="-287" font-family="Helvetica,sans-Serif" font-size="10.00">getGroupItem()</text>
<text text-anchor="start" x="26.5" y="-272" font-family="Helvetica,sans-Serif" font-size="10.00">+</text>
<text text-anchor="start" x="44" y="-272" font-family="Helvetica,sans-Serif" font-size="10.00">indexFor()</text>
<text text-anchor="start" x="26.5" y="-257" font-family="Helvetica,sans-Serif" font-size="10.00">+</text>
<text text-anchor="start" x="44" y="-257" font-family="Helvetica,sans-Serif" font-size="10.00">insertChild()</text>
<text text-anchor="start" x="26.5" y="-242" font-family="Helvetica,sans-Serif" font-size="10.00">+</text>
<text text-anchor="start" x="44" y="-242" font-family="Helvetica,sans-Serif" font-size="10.00">Item()</text>
<text text-anchor="start" x="26.5" y="-227" font-family="Helvetica,sans-Serif" font-size="10.00">+</text>
<text text-anchor="start" x="44" y="-227" font-family="Helvetica,sans-Serif" font-size="10.00">operator&lt;()</text>
<text text-anchor="start" x="26.5" y="-212" font-family="Helvetica,sans-Serif" font-size="10.00">+</text>
<text text-anchor="start" x="44" y="-212" font-family="Helvetica,sans-Serif" font-size="10.00">parent()</text>
<text text-anchor="start" x="26.5" y="-197" font-family="Helvetica,sans-Serif" font-size="10.00">+</text>
<text text-anchor="start" x="44" y="-197" font-family="Helvetica,sans-Serif" font-size="10.00">setCheckState()</text>
<text text-anchor="start" x="26.5" y="-182" font-family="Helvetica,sans-Serif" font-size="10.00">+</text>
<text text-anchor="start" x="44" y="-182" font-family="Helvetica,sans-Serif" font-size="10.00">type()</text>
<text text-anchor="start" x="26.5" y="-167" font-family="Helvetica,sans-Serif" font-size="10.00">+</text>
<text text-anchor="start" x="44" y="-167" font-family="Helvetica,sans-Serif" font-size="10.00">~Item()</text>
<text text-anchor="start" x="29" y="-152" font-family="Helvetica,sans-Serif" font-size="10.00">&#45;</text>
<text text-anchor="start" x="44" y="-152" font-family="Helvetica,sans-Serif" font-size="10.00">setParent()</text>
<polygon fill="#666666" stroke="#666666" points="18,-432 18,-432 136,-432 136,-432 18,-432"/>
<polygon fill="#666666" stroke="#666666" points="18,-372 18,-372 42,-372 42,-372 18,-372"/>
<polygon fill="#666666" stroke="#666666" points="42,-372 42,-372 136,-372 136,-372 42,-372"/>
<polygon fill="none" stroke="#666666" points="18,-145 18,-449 136,-449 136,-145 18,-145"/>
</a>
</g>
</g>
<!-- Node2&#45;&gt;Node1 -->
<g id="edge1_Node000001_Node000002" class="edge">
<title>Node2&#45;&gt;Node1</title>
<g id="a_edge1_Node000001_Node000002"><a xlink:title=" ">
<path fill="none" stroke="#63b8ff" d="M77,-134.64C77,-125.84 77,-117.37 77,-109.46"/>
<polygon fill="none" stroke="#63b8ff" points="73.5,-134.71 77,-144.71 80.5,-134.71 73.5,-134.71"/>
</a>
</g>
</g>
</g>
</svg>
