<?xml version="1.0" encoding="UTF-8" standalone="no"?>
<!DOCTYPE svg PUBLIC "-//W3C//DTD SVG 1.1//EN"
 "http://www.w3.org/Graphics/SVG/1.1/DTD/svg11.dtd">
<!-- Generated by graphviz version 2.43.0 (0)
 -->
<!-- Title: Search::BtSearchSyntaxHelpDialog Pages: 1 -->
<svg width="168pt" height="183pt"
 viewBox="0.00 0.00 168.00 183.00" xmlns="http://www.w3.org/2000/svg" xmlns:xlink="http://www.w3.org/1999/xlink">
<g id="graph0" class="graph" transform="scale(1 1) rotate(0) translate(4 179)">
<title>Search::BtSearchSyntaxHelpDialog</title>
<!-- Node1 -->
<g id="Node000001" class="node">
<title>Node1</title>
<g id="a_Node000001"><a xlink:title=" ">
<polygon fill="#999999" stroke="transparent" points="160,-90 0,-90 0,0 160,0 160,-90"/>
<text text-anchor="start" x="10.5" y="-78" font-family="Helvetica,sans-Serif" font-size="10.00">Search::BtSearchSyntaxHelp</text>
<text text-anchor="start" x="64" y="-67" font-family="Helvetica,sans-Serif" font-size="10.00">Dialog</text>
<text text-anchor="start" x="6.5" y="-52" font-family="Helvetica,sans-Serif" font-size="10.00">&#45;</text>
<text text-anchor="start" x="17" y="-52" font-family="Helvetica,sans-Serif" font-size="10.00">m_buttons</text>
<text text-anchor="start" x="6.5" y="-37" font-family="Helvetica,sans-Serif" font-size="10.00">&#45;</text>
<text text-anchor="start" x="17" y="-37" font-family="Helvetica,sans-Serif" font-size="10.00">m_textBrowser</text>
<text text-anchor="start" x="4" y="-22" font-family="Helvetica,sans-Serif" font-size="10.00">+</text>
<text text-anchor="start" x="17" y="-22" font-family="Helvetica,sans-Serif" font-size="10.00">BtSearchSyntaxHelpDialog()</text>
<text text-anchor="start" x="4" y="-7" font-family="Helvetica,sans-Serif" font-size="10.00">#</text>
<text text-anchor="start" x="17" y="-7" font-family="Helvetica,sans-Serif" font-size="10.00">retranslateUi()</text>
<polygon fill="#666666" stroke="#666666" points="0,-62 0,-62 160,-62 160,-62 0,-62"/>
<polygon fill="#666666" stroke="#666666" points="0,-32 0,-32 15,-32 15,-32 0,-32"/>
<polygon fill="#666666" stroke="#666666" points="15,-32 15,-32 160,-32 160,-32 15,-32"/>
<polygon fill="none" stroke="#666666" points="0,0 0,-90 160,-90 160,0 0,0"/>
</a>
</g>
</g>
<!-- Node2 -->
<g id="Node000002" class="node">
<title>Node2</title>
<g id="a_Node000002"><a xlink:href="../../d9/d46/classQDialog.html" target="_top" xlink:title=" ">
<polygon fill="white" stroke="transparent" points="105,-175 55,-175 55,-126 105,-126 105,-175"/>
<text text-anchor="start" x="60" y="-162.5" font-family="Helvetica,sans-Serif" font-size="10.00">QDialog</text>
<text text-anchor="start" x="78" y="-147.5" font-family="Helvetica,sans-Serif" font-size="10.00"> </text>
<text text-anchor="start" x="78" y="-132.5" font-family="Helvetica,sans-Serif" font-size="10.00"> </text>
<polygon fill="#666666" stroke="#666666" points="55,-157.5 55,-157.5 105,-157.5 105,-157.5 55,-157.5"/>
<polygon fill="#666666" stroke="#666666" points="55,-142.5 55,-142.5 105,-142.5 105,-142.5 55,-142.5"/>
<polygon fill="none" stroke="#666666" points="55,-126 55,-175 105,-175 105,-126 55,-126"/>
</a>
</g>
</g>
<!-- Node2&#45;&gt;Node1 -->
<g id="edge1_Node000001_Node000002" class="edge">
<title>Node2&#45;&gt;Node1</title>
<g id="a_edge1_Node000001_Node000002"><a xlink:title=" ">
<path fill="none" stroke="#63b8ff" d="M80,-115.62C80,-107.56 80,-98.84 80,-90.39"/>
<polygon fill="none" stroke="#63b8ff" points="76.5,-115.75 80,-125.76 83.5,-115.76 76.5,-115.75"/>
</a>
</g>
</g>
</g>
</svg>
