<?xml version="1.0" encoding="UTF-8" standalone="no"?>
<!DOCTYPE svg PUBLIC "-//W3C//DTD SVG 1.1//EN"
 "http://www.w3.org/Graphics/SVG/1.1/DTD/svg11.dtd">
<!-- Generated by graphviz version 2.43.0 (0)
 -->
<!-- Title: BtModuleChooserBar Pages: 1 -->
<svg width="266pt" height="303pt"
 viewBox="0.00 0.00 265.50 303.00" xmlns="http://www.w3.org/2000/svg" xmlns:xlink="http://www.w3.org/1999/xlink">
<g id="graph0" class="graph" transform="scale(1 1) rotate(0) translate(4 299)">
<title>BtModuleChooserBar</title>
<polygon fill="white" stroke="transparent" points="-4,4 -4,-299 261.5,-299 261.5,4 -4,4"/>
<!-- Node1 -->
<g id="node1" class="node">
<title>Node1</title>
<g id="a_node1"><a xlink:title=" ">
<polygon fill="#bfbfbf" stroke="black" points="9.5,-0.5 9.5,-156.5 188.5,-156.5 188.5,-0.5 9.5,-0.5"/>
<text text-anchor="middle" x="99" y="-144.5" font-family="Helvetica,sans-Serif" font-size="10.00">BtModuleChooserBar</text>
<polyline fill="none" stroke="black" points="9.5,-137.5 188.5,-137.5 "/>
<text text-anchor="start" x="17.5" y="-125.5" font-family="Helvetica,sans-Serif" font-size="10.00">&#45; m_buttonList</text>
<text text-anchor="start" x="17.5" y="-114.5" font-family="Helvetica,sans-Serif" font-size="10.00">&#45; m_idCounter</text>
<text text-anchor="start" x="17.5" y="-103.5" font-family="Helvetica,sans-Serif" font-size="10.00">&#45; m_moduleType</text>
<text text-anchor="start" x="17.5" y="-92.5" font-family="Helvetica,sans-Serif" font-size="10.00">&#45; m_window</text>
<polyline fill="none" stroke="black" points="9.5,-85.5 188.5,-85.5 "/>
<text text-anchor="start" x="17.5" y="-73.5" font-family="Helvetica,sans-Serif" font-size="10.00">+ BtModuleChooserBar()</text>
<text text-anchor="start" x="17.5" y="-62.5" font-family="Helvetica,sans-Serif" font-size="10.00">+ setModules()</text>
<text text-anchor="start" x="17.5" y="-51.5" font-family="Helvetica,sans-Serif" font-size="10.00">+ slotBackendModulesChanged()</text>
<text text-anchor="start" x="17.5" y="-40.5" font-family="Helvetica,sans-Serif" font-size="10.00">+ slotWindowModulesChanged()</text>
<text text-anchor="start" x="17.5" y="-29.5" font-family="Helvetica,sans-Serif" font-size="10.00">&#45; addButton()</text>
<text text-anchor="start" x="17.5" y="-18.5" font-family="Helvetica,sans-Serif" font-size="10.00">&#45; adjustButtonCount()</text>
<text text-anchor="start" x="17.5" y="-7.5" font-family="Helvetica,sans-Serif" font-size="10.00">&#45; updateButtonMenus()</text>
</a>
</g>
</g>
<!-- Node2 -->
<g id="node2" class="node">
<title>Node2</title>
<g id="a_node2"><a xlink:href="../../dd/df2/classQToolBar.html" target="_top" xlink:title=" ">
<polygon fill="white" stroke="black" points="0,-215.5 0,-272.5 60,-272.5 60,-215.5 0,-215.5"/>
<text text-anchor="middle" x="30" y="-260.5" font-family="Helvetica,sans-Serif" font-size="10.00">QToolBar</text>
<polyline fill="none" stroke="black" points="0,-253.5 60,-253.5 "/>
<text text-anchor="middle" x="30" y="-241.5" font-family="Helvetica,sans-Serif" font-size="10.00"> </text>
<polyline fill="none" stroke="black" points="0,-234.5 60,-234.5 "/>
<text text-anchor="middle" x="30" y="-222.5" font-family="Helvetica,sans-Serif" font-size="10.00"> </text>
</a>
</g>
</g>
<!-- Node2&#45;&gt;Node1 -->
<g id="edge1" class="edge">
<title>Node2&#45;&gt;Node1</title>
<path fill="none" stroke="midnightblue" d="M45.77,-205.64C51.92,-191.05 59.22,-173.77 66.4,-156.74"/>
<polygon fill="none" stroke="midnightblue" points="42.37,-204.69 41.7,-215.26 48.82,-207.41 42.37,-204.69"/>
</g>
<!-- Node3 -->
<g id="node3" class="node">
<title>Node3</title>
<g id="a_node3"><a xlink:href="../../d9/d87/classBtWindowModuleChooser.html" target="_top" xlink:title=" ">
<polygon fill="white" stroke="black" points="78.5,-193.5 78.5,-294.5 257.5,-294.5 257.5,-193.5 78.5,-193.5"/>
<text text-anchor="middle" x="168" y="-282.5" font-family="Helvetica,sans-Serif" font-size="10.00">BtWindowModuleChooser</text>
<polyline fill="none" stroke="black" points="78.5,-275.5 257.5,-275.5 "/>
<text text-anchor="start" x="86.5" y="-263.5" font-family="Helvetica,sans-Serif" font-size="10.00"># m_modules</text>
<text text-anchor="start" x="86.5" y="-252.5" font-family="Helvetica,sans-Serif" font-size="10.00"># m_moduleType</text>
<text text-anchor="start" x="86.5" y="-241.5" font-family="Helvetica,sans-Serif" font-size="10.00"># m_window</text>
<polyline fill="none" stroke="black" points="78.5,-234.5 257.5,-234.5 "/>
<text text-anchor="start" x="86.5" y="-222.5" font-family="Helvetica,sans-Serif" font-size="10.00">+ BtWindowModuleChooser()</text>
<text text-anchor="start" x="86.5" y="-211.5" font-family="Helvetica,sans-Serif" font-size="10.00">+ slotBackendModulesChanged()</text>
<text text-anchor="start" x="86.5" y="-200.5" font-family="Helvetica,sans-Serif" font-size="10.00">+ slotWindowModulesChanged()</text>
</a>
</g>
</g>
<!-- Node3&#45;&gt;Node1 -->
<g id="edge2" class="edge">
<title>Node3&#45;&gt;Node1</title>
<path fill="none" stroke="midnightblue" d="M142.96,-183.66C139.24,-174.85 135.36,-165.65 131.51,-156.54"/>
<polygon fill="none" stroke="midnightblue" points="139.81,-185.2 146.92,-193.06 146.26,-182.48 139.81,-185.2"/>
</g>
</g>
</svg>
