<?xml version="1.0" encoding="UTF-8" standalone="no"?>
<!DOCTYPE svg PUBLIC "-//W3C//DTD SVG 1.1//EN"
 "http://www.w3.org/Graphics/SVG/1.1/DTD/svg11.dtd">
<!-- Generated by graphviz version 2.43.0 (0)
 -->
<!-- Title: btmenuview.h Pages: 1 -->
<svg width="782pt" height="140pt"
 viewBox="0.00 0.00 781.50 140.00" xmlns="http://www.w3.org/2000/svg" xmlns:xlink="http://www.w3.org/1999/xlink">
<g id="graph0" class="graph" transform="scale(1 1) rotate(0) translate(4 136)">
<title>btmenuview.h</title>
<polygon fill="white" stroke="transparent" points="-4,4 -4,-136 777.5,-136 777.5,4 -4,4"/>
<!-- Node1 -->
<g id="node1" class="node">
<title>Node1</title>
<g id="a_node1"><a xlink:title=" ">
<polygon fill="#bfbfbf" stroke="black" points="410,-112.5 410,-131.5 496,-131.5 496,-112.5 410,-112.5"/>
<text text-anchor="middle" x="453" y="-119.5" font-family="Helvetica,sans-Serif" font-size="10.00">btmenuview.h</text>
</a>
</g>
</g>
<!-- Node2 -->
<g id="node2" class="node">
<title>Node2</title>
<g id="a_node2"><a xlink:href="../../dd/d87/btopenworkaction_8h.html" target="_top" xlink:title=" ">
<polygon fill="white" stroke="black" points="127.5,-56.5 127.5,-75.5 240.5,-75.5 240.5,-56.5 127.5,-56.5"/>
<text text-anchor="middle" x="184" y="-63.5" font-family="Helvetica,sans-Serif" font-size="10.00">btopenworkaction.h</text>
</a>
</g>
</g>
<!-- Node1&#45;&gt;Node2 -->
<g id="edge1" class="edge">
<title>Node1&#45;&gt;Node2</title>
<path fill="none" stroke="midnightblue" d="M400.56,-110.47C349.72,-100.27 273.56,-84.98 226.42,-75.52"/>
<polygon fill="midnightblue" stroke="midnightblue" points="399.88,-113.91 410.38,-112.44 401.26,-107.04 399.88,-113.91"/>
</g>
<!-- Node5 -->
<g id="node5" class="node">
<title>Node5</title>
<g id="a_node5"><a xlink:href="../../d5/d38/btmenuview_8cpp.html" target="_top" xlink:title=" ">
<polygon fill="white" stroke="black" points="336.5,-56.5 336.5,-75.5 433.5,-75.5 433.5,-56.5 336.5,-56.5"/>
<text text-anchor="middle" x="385" y="-63.5" font-family="Helvetica,sans-Serif" font-size="10.00">btmenuview.cpp</text>
</a>
</g>
</g>
<!-- Node1&#45;&gt;Node5 -->
<g id="edge4" class="edge">
<title>Node1&#45;&gt;Node5</title>
<path fill="none" stroke="midnightblue" d="M434.24,-106.1C422,-96.38 406.44,-84.03 396.12,-75.83"/>
<polygon fill="midnightblue" stroke="midnightblue" points="432.07,-108.85 442.07,-112.32 436.42,-103.36 432.07,-108.85"/>
</g>
<!-- Node6 -->
<g id="node6" class="node">
<title>Node6</title>
<g id="a_node6"><a xlink:href="../../d8/d45/btmodulechoosermenu_8h.html" target="_top" xlink:title=" ">
<polygon fill="white" stroke="black" points="452,-56.5 452,-75.5 590,-75.5 590,-56.5 452,-56.5"/>
<text text-anchor="middle" x="521" y="-63.5" font-family="Helvetica,sans-Serif" font-size="10.00">btmodulechoosermenu.h</text>
</a>
</g>
</g>
<!-- Node1&#45;&gt;Node6 -->
<g id="edge5" class="edge">
<title>Node1&#45;&gt;Node6</title>
<path fill="none" stroke="midnightblue" d="M471.76,-106.1C484,-96.38 499.56,-84.03 509.88,-75.83"/>
<polygon fill="midnightblue" stroke="midnightblue" points="469.58,-103.36 463.93,-112.32 473.93,-108.85 469.58,-103.36"/>
</g>
<!-- Node8 -->
<g id="node8" class="node">
<title>Node8</title>
<g id="a_node8"><a xlink:href="../../dd/ddc/btmodulechoosermenu_8cpp.html" target="_top" xlink:title=" ">
<polygon fill="white" stroke="black" points="624.5,-0.5 624.5,-19.5 773.5,-19.5 773.5,-0.5 624.5,-0.5"/>
<text text-anchor="middle" x="699" y="-7.5" font-family="Helvetica,sans-Serif" font-size="10.00">btmodulechoosermenu.cpp</text>
</a>
</g>
</g>
<!-- Node1&#45;&gt;Node8 -->
<g id="edge9" class="edge">
<title>Node1&#45;&gt;Node8</title>
<path fill="none" stroke="midnightblue" d="M500.59,-109.91C529.75,-102.25 567.41,-90.78 599,-76 633.51,-59.85 670.07,-33.34 687.91,-19.7"/>
<polygon fill="midnightblue" stroke="midnightblue" points="499.47,-106.58 490.66,-112.46 501.21,-113.37 499.47,-106.58"/>
</g>
<!-- Node3 -->
<g id="node3" class="node">
<title>Node3</title>
<g id="a_node3"><a xlink:href="../../da/dc7/bibletime__init_8cpp.html" target="_top" xlink:title=" ">
<polygon fill="white" stroke="black" points="0,-0.5 0,-19.5 104,-19.5 104,-0.5 0,-0.5"/>
<text text-anchor="middle" x="52" y="-7.5" font-family="Helvetica,sans-Serif" font-size="10.00">bibletime_init.cpp</text>
</a>
</g>
</g>
<!-- Node2&#45;&gt;Node3 -->
<g id="edge2" class="edge">
<title>Node2&#45;&gt;Node3</title>
<path fill="none" stroke="midnightblue" d="M153.78,-52.64C129.01,-42.5 94.6,-28.43 72.82,-19.52"/>
<polygon fill="midnightblue" stroke="midnightblue" points="152.5,-55.9 163.08,-56.44 155.15,-49.42 152.5,-55.9"/>
</g>
<!-- Node4 -->
<g id="node4" class="node">
<title>Node4</title>
<g id="a_node4"><a xlink:href="../../d9/d62/btopenworkaction_8cpp.html" target="_top" xlink:title=" ">
<polygon fill="white" stroke="black" points="122,-0.5 122,-19.5 246,-19.5 246,-0.5 122,-0.5"/>
<text text-anchor="middle" x="184" y="-7.5" font-family="Helvetica,sans-Serif" font-size="10.00">btopenworkaction.cpp</text>
</a>
</g>
</g>
<!-- Node2&#45;&gt;Node4 -->
<g id="edge3" class="edge">
<title>Node2&#45;&gt;Node4</title>
<path fill="none" stroke="midnightblue" d="M184,-45.8C184,-36.91 184,-26.78 184,-19.75"/>
<polygon fill="midnightblue" stroke="midnightblue" points="180.5,-46.08 184,-56.08 187.5,-46.08 180.5,-46.08"/>
</g>
<!-- Node7 -->
<g id="node7" class="node">
<title>Node7</title>
<g id="a_node7"><a xlink:href="../../d7/df1/btmodulechooserbutton_8cpp.html" target="_top" xlink:title=" ">
<polygon fill="white" stroke="black" points="264.5,-0.5 264.5,-19.5 417.5,-19.5 417.5,-0.5 264.5,-0.5"/>
<text text-anchor="middle" x="341" y="-7.5" font-family="Helvetica,sans-Serif" font-size="10.00">btmodulechooserbutton.cpp</text>
</a>
</g>
</g>
<!-- Node6&#45;&gt;Node7 -->
<g id="edge6" class="edge">
<title>Node6&#45;&gt;Node7</title>
<path fill="none" stroke="midnightblue" d="M482.89,-53.57C448.94,-43.38 400.01,-28.7 369.39,-19.52"/>
<polygon fill="midnightblue" stroke="midnightblue" points="481.89,-56.92 492.48,-56.44 483.91,-50.22 481.89,-56.92"/>
</g>
<!-- Node6&#45;&gt;Node8 -->
<g id="edge7" class="edge">
<title>Node6&#45;&gt;Node8</title>
<path fill="none" stroke="midnightblue" d="M559.12,-53.44C592.68,-43.26 640.77,-28.66 670.93,-19.52"/>
<polygon fill="midnightblue" stroke="midnightblue" points="557.76,-50.19 549.2,-56.44 559.79,-56.89 557.76,-50.19"/>
</g>
<!-- Node9 -->
<g id="node9" class="node">
<title>Node9</title>
<g id="a_node9"><a xlink:href="../../dc/da2/bttextwindowheaderwidget_8cpp.html" target="_top" xlink:title=" ">
<polygon fill="white" stroke="black" points="436,-0.5 436,-19.5 606,-19.5 606,-0.5 436,-0.5"/>
<text text-anchor="middle" x="521" y="-7.5" font-family="Helvetica,sans-Serif" font-size="10.00">bttextwindowheaderwidget.cpp</text>
</a>
</g>
</g>
<!-- Node6&#45;&gt;Node9 -->
<g id="edge8" class="edge">
<title>Node6&#45;&gt;Node9</title>
<path fill="none" stroke="midnightblue" d="M521,-45.8C521,-36.91 521,-26.78 521,-19.75"/>
<polygon fill="midnightblue" stroke="midnightblue" points="517.5,-46.08 521,-56.08 524.5,-46.08 517.5,-46.08"/>
</g>
</g>
</svg>
