<?xml version="1.0" encoding="UTF-8" standalone="no"?>
<!DOCTYPE svg PUBLIC "-//W3C//DTD SVG 1.1//EN"
 "http://www.w3.org/Graphics/SVG/1.1/DTD/svg11.dtd">
<!-- Generated by graphviz version 2.43.0 (0)
 -->
<!-- Title: Filters::OsisToHtml::UserData Pages: 1 -->
<svg width="136pt" height="237pt"
 viewBox="0.00 0.00 136.00 237.00" xmlns="http://www.w3.org/2000/svg" xmlns:xlink="http://www.w3.org/1999/xlink">
<g id="graph0" class="graph" transform="scale(1 1) rotate(0) translate(4 233)">
<title>Filters::OsisToHtml::UserData</title>
<polygon fill="white" stroke="transparent" points="-4,4 -4,-233 132,-233 132,4 -4,4"/>
<!-- Node1 -->
<g id="node1" class="node">
<title>Node1</title>
<g id="a_node1"><a xlink:title=" ">
<polygon fill="#bfbfbf" stroke="black" points="10,-0.5 10,-123.5 118,-123.5 118,-0.5 10,-0.5"/>
<text text-anchor="start" x="18" y="-111.5" font-family="Helvetica,sans-Serif" font-size="10.00">Filters::OsisToHtml</text>
<text text-anchor="middle" x="64" y="-100.5" font-family="Helvetica,sans-Serif" font-size="10.00">::UserData</text>
<polyline fill="none" stroke="black" points="10,-93.5 118,-93.5 "/>
<text text-anchor="start" x="18" y="-81.5" font-family="Helvetica,sans-Serif" font-size="10.00">+ entryAttributes</text>
<text text-anchor="start" x="18" y="-70.5" font-family="Helvetica,sans-Serif" font-size="10.00">+ inCrossrefNote</text>
<text text-anchor="start" x="18" y="-59.5" font-family="Helvetica,sans-Serif" font-size="10.00">+ noteTypes</text>
<text text-anchor="start" x="18" y="-48.5" font-family="Helvetica,sans-Serif" font-size="10.00">+ quote</text>
<text text-anchor="start" x="18" y="-37.5" font-family="Helvetica,sans-Serif" font-size="10.00">+ swordFootnote</text>
<text text-anchor="start" x="18" y="-26.5" font-family="Helvetica,sans-Serif" font-size="10.00">+ who</text>
<polyline fill="none" stroke="black" points="10,-19.5 118,-19.5 "/>
<text text-anchor="start" x="18" y="-7.5" font-family="Helvetica,sans-Serif" font-size="10.00">+ UserData()</text>
</a>
</g>
</g>
<!-- Node2 -->
<g id="node2" class="node">
<title>Node2</title>
<g id="a_node2"><a xlink:href="../../da/d28/classsword_1_1OSISHTMLHREF_1_1MyUserData.html" target="_top" xlink:title=" ">
<polygon fill="white" stroke="black" points="0,-160.5 0,-228.5 128,-228.5 128,-160.5 0,-160.5"/>
<text text-anchor="start" x="8" y="-216.5" font-family="Helvetica,sans-Serif" font-size="10.00">sword::OSISHTMLHREF</text>
<text text-anchor="middle" x="64" y="-205.5" font-family="Helvetica,sans-Serif" font-size="10.00">::MyUserData</text>
<polyline fill="none" stroke="black" points="0,-198.5 128,-198.5 "/>
<text text-anchor="middle" x="64" y="-186.5" font-family="Helvetica,sans-Serif" font-size="10.00"> </text>
<polyline fill="none" stroke="black" points="0,-179.5 128,-179.5 "/>
<text text-anchor="middle" x="64" y="-167.5" font-family="Helvetica,sans-Serif" font-size="10.00"> </text>
</a>
</g>
</g>
<!-- Node2&#45;&gt;Node1 -->
<g id="edge1" class="edge">
<title>Node2&#45;&gt;Node1</title>
<path fill="none" stroke="midnightblue" d="M64,-150.17C64,-141.65 64,-132.57 64,-123.61"/>
<polygon fill="none" stroke="midnightblue" points="60.5,-150.23 64,-160.23 67.5,-150.23 60.5,-150.23"/>
</g>
</g>
</svg>
