<?xml version="1.0" encoding="UTF-8" standalone="no"?>
<!DOCTYPE svg PUBLIC "-//W3C//DTD SVG 1.1//EN"
 "http://www.w3.org/Graphics/SVG/1.1/DTD/svg11.dtd">
<!-- Generated by graphviz version 2.43.0 (0)
 -->
<!-- Title: Filters::OsisToHtml::UserData Pages: 1 -->
<svg width="130pt" height="239pt"
 viewBox="0.00 0.00 130.00 239.00" xmlns="http://www.w3.org/2000/svg" xmlns:xlink="http://www.w3.org/1999/xlink">

<svg id="main" version="1.1" xmlns="http://www.w3.org/2000/svg" xmlns:xlink="http://www.w3.org/1999/xlink" xml:space="preserve" onload="init(evt)">
<style type="text/css"><![CDATA[
.node, .edge {opacity: 0.7;}
.node.selected, .edge.selected {opacity: 1;}
.edge:hover path { stroke: red; }
.edge:hover polygon { stroke: red; fill: red; }
]]></style>
<script type="application/ecmascript" xlink:href="../../svg.min.js"/>
<svg id="graph" class="graph">
<g id="graph0" class="graph" transform="scale(1 1) rotate(0) translate(4 235)">
<title>Filters::OsisToHtml::UserData</title>
<!-- Node1 -->
<g id="Node000001" class="node">
<title>Node1</title>
<g id="a_Node000001"><a xlink:title=" ">
<polygon fill="#999999" stroke="transparent" points="112,-135 10,-135 10,0 112,0 112,-135"/>
<text text-anchor="start" x="15" y="-122.5" font-family="Helvetica,sans-Serif" font-size="10.00">Filters::OsisToHtml</text>
<text text-anchor="start" x="35" y="-111.5" font-family="Helvetica,sans-Serif" font-size="10.00">::UserData</text>
<text text-anchor="start" x="15.5" y="-96.5" font-family="Helvetica,sans-Serif" font-size="10.00">+</text>
<text text-anchor="start" x="30" y="-96.5" font-family="Helvetica,sans-Serif" font-size="10.00">entryAttributes</text>
<text text-anchor="start" x="15.5" y="-81.5" font-family="Helvetica,sans-Serif" font-size="10.00">+</text>
<text text-anchor="start" x="30" y="-81.5" font-family="Helvetica,sans-Serif" font-size="10.00">inCrossrefNote</text>
<text text-anchor="start" x="15.5" y="-66.5" font-family="Helvetica,sans-Serif" font-size="10.00">+</text>
<text text-anchor="start" x="30" y="-66.5" font-family="Helvetica,sans-Serif" font-size="10.00">noteTypes</text>
<text text-anchor="start" x="15.5" y="-51.5" font-family="Helvetica,sans-Serif" font-size="10.00">+</text>
<text text-anchor="start" x="30" y="-51.5" font-family="Helvetica,sans-Serif" font-size="10.00">quote</text>
<text text-anchor="start" x="15.5" y="-36.5" font-family="Helvetica,sans-Serif" font-size="10.00">+</text>
<text text-anchor="start" x="30" y="-36.5" font-family="Helvetica,sans-Serif" font-size="10.00">swordFootnote</text>
<text text-anchor="start" x="15.5" y="-21.5" font-family="Helvetica,sans-Serif" font-size="10.00">+</text>
<text text-anchor="start" x="30" y="-21.5" font-family="Helvetica,sans-Serif" font-size="10.00">who</text>
<text text-anchor="start" x="15.5" y="-6.5" font-family="Helvetica,sans-Serif" font-size="10.00">+</text>
<text text-anchor="start" x="30" y="-6.5" font-family="Helvetica,sans-Serif" font-size="10.00">UserData()</text>
<polygon fill="#666666" stroke="#666666" points="10,-106.5 10,-106.5 112,-106.5 112,-106.5 10,-106.5"/>
<polygon fill="#666666" stroke="#666666" points="10,-16.5 10,-16.5 28,-16.5 28,-16.5 10,-16.5"/>
<polygon fill="#666666" stroke="#666666" points="28,-16.5 28,-16.5 112,-16.5 112,-16.5 28,-16.5"/>
<polygon fill="none" stroke="#666666" points="10,0 10,-135 112,-135 112,0 10,0"/>
</a>
</g>
</g>
<!-- Node2 -->
<g id="Node000002" class="node">
<title>Node2</title>
<g id="a_Node000002"><a xlink:href="../../da/d28/classsword_1_1OSISHTMLHREF_1_1MyUserData.html" target="_top" xlink:title=" ">
<polygon fill="white" stroke="transparent" points="122,-231 0,-231 0,-171 122,-171 122,-231"/>
<text text-anchor="start" x="5" y="-219" font-family="Helvetica,sans-Serif" font-size="10.00">sword::OSISHTMLHREF</text>
<text text-anchor="start" x="27.5" y="-208" font-family="Helvetica,sans-Serif" font-size="10.00">::MyUserData</text>
<text text-anchor="start" x="59" y="-193" font-family="Helvetica,sans-Serif" font-size="10.00"> </text>
<text text-anchor="start" x="59" y="-178" font-family="Helvetica,sans-Serif" font-size="10.00"> </text>
<polygon fill="#666666" stroke="#666666" points="0,-203 0,-203 122,-203 122,-203 0,-203"/>
<polygon fill="#666666" stroke="#666666" points="0,-188 0,-188 122,-188 122,-188 0,-188"/>
<polygon fill="none" stroke="#666666" points="0,-171 0,-231 122,-231 122,-171 0,-171"/>
</a>
</g>
</g>
<!-- Node2&#45;&gt;Node1 -->
<g id="edge1_Node000001_Node000002" class="edge">
<title>Node2&#45;&gt;Node1</title>
<g id="a_edge1_Node000001_Node000002"><a xlink:title=" ">
<path fill="none" stroke="#63b8ff" d="M61,-160.59C61,-152.49 61,-143.76 61,-135.01"/>
<polygon fill="none" stroke="#63b8ff" points="57.5,-160.82 61,-170.82 64.5,-160.82 57.5,-160.82"/>
</a>
</g>
</g>
</g>
</svg>
</svg>

<style type='text/css'>
<![CDATA[
[data-mouse-over-selected='false'] { opacity: 0.7; }
[data-mouse-over-selected='true']  { opacity: 1.0; }
]]>
</style>
<script type="application/ecmascript"><![CDATA[
document.addEventListener('DOMContentLoaded', (event) => {
  highlightEdges();
  highlightAdjacentNodes();
});
]]></script>
</svg>
