<?xml version="1.0" encoding="UTF-8" standalone="no"?>
<!DOCTYPE svg PUBLIC "-//W3C//DTD SVG 1.1//EN"
 "http://www.w3.org/Graphics/SVG/1.1/DTD/svg11.dtd">
<!-- Generated by graphviz version 2.43.0 (0)
 -->
<!-- Title: QList Pages: 1 -->
<svg width="296pt" height="237pt"
 viewBox="0.00 0.00 295.50 237.00" xmlns="http://www.w3.org/2000/svg" xmlns:xlink="http://www.w3.org/1999/xlink">
<g id="graph0" class="graph" transform="scale(1 1) rotate(0) translate(4 233)">
<title>QList</title>
<polygon fill="white" stroke="transparent" points="-4,4 -4,-233 291.5,-233 291.5,4 -4,4"/>
<!-- Node1 -->
<g id="node1" class="node">
<title>Node1</title>
<g id="a_node1"><a xlink:title=" ">
<polygon fill="#bfbfbf" stroke="black" points="118.5,-171.5 118.5,-228.5 159.5,-228.5 159.5,-171.5 118.5,-171.5"/>
<text text-anchor="middle" x="139" y="-216.5" font-family="Helvetica,sans-Serif" font-size="10.00">QList</text>
<polyline fill="none" stroke="black" points="118.5,-209.5 159.5,-209.5 "/>
<text text-anchor="middle" x="139" y="-197.5" font-family="Helvetica,sans-Serif" font-size="10.00"> </text>
<polyline fill="none" stroke="black" points="118.5,-190.5 159.5,-190.5 "/>
<text text-anchor="middle" x="139" y="-178.5" font-family="Helvetica,sans-Serif" font-size="10.00"> </text>
</a>
</g>
</g>
<!-- Node2 -->
<g id="node2" class="node">
<title>Node2</title>
<g id="a_node2"><a xlink:href="../../dd/d23/classBtBookshelfTreeModel_1_1Grouping.html" target="_top" xlink:title=" ">
<polygon fill="white" stroke="black" points="0,-0.5 0,-134.5 126,-134.5 126,-0.5 0,-0.5"/>
<text text-anchor="start" x="8" y="-122.5" font-family="Helvetica,sans-Serif" font-size="10.00">BtBookshelfTreeModel</text>
<text text-anchor="middle" x="63" y="-111.5" font-family="Helvetica,sans-Serif" font-size="10.00">::Grouping&lt; Group &gt;</text>
<polyline fill="none" stroke="black" points="0,-104.5 126,-104.5 "/>
<text text-anchor="middle" x="63" y="-92.5" font-family="Helvetica,sans-Serif" font-size="10.00"> </text>
<polyline fill="none" stroke="black" points="0,-85.5 126,-85.5 "/>
<text text-anchor="start" x="8" y="-73.5" font-family="Helvetica,sans-Serif" font-size="10.00">+ Grouping()</text>
<text text-anchor="start" x="8" y="-62.5" font-family="Helvetica,sans-Serif" font-size="10.00">+ Grouping()</text>
<text text-anchor="start" x="8" y="-51.5" font-family="Helvetica,sans-Serif" font-size="10.00">+ Grouping()</text>
<text text-anchor="start" x="8" y="-40.5" font-family="Helvetica,sans-Serif" font-size="10.00">+ Grouping()</text>
<text text-anchor="start" x="8" y="-29.5" font-family="Helvetica,sans-Serif" font-size="10.00">+ loadFrom()</text>
<text text-anchor="start" x="8" y="-18.5" font-family="Helvetica,sans-Serif" font-size="10.00">+ operator=()</text>
<text text-anchor="start" x="8" y="-7.5" font-family="Helvetica,sans-Serif" font-size="10.00">+ saveTo()</text>
</a>
</g>
</g>
<!-- Node1&#45;&gt;Node2 -->
<g id="edge1" class="edge">
<title>Node1&#45;&gt;Node2</title>
<path fill="none" stroke="midnightblue" d="M117.77,-162.55C112.67,-153.8 107.07,-144.18 101.46,-134.53"/>
<polygon fill="none" stroke="midnightblue" points="114.83,-164.44 122.88,-171.32 120.87,-160.92 114.83,-164.44"/>
</g>
<!-- Node3 -->
<g id="node3" class="node">
<title>Node3</title>
<g id="a_node3"><a xlink:href="../../d1/df0/classSearch_1_1StrongsResultList.html" target="_top" xlink:title=" ">
<polygon fill="white" stroke="black" points="144.5,-28 144.5,-107 287.5,-107 287.5,-28 144.5,-28"/>
<text text-anchor="start" x="152.5" y="-95" font-family="Helvetica,sans-Serif" font-size="10.00">Search::StrongsResultList</text>
<text text-anchor="middle" x="216" y="-84" font-family="Helvetica,sans-Serif" font-size="10.00">&lt; StrongsResult &gt;</text>
<polyline fill="none" stroke="black" points="144.5,-77 287.5,-77 "/>
<text text-anchor="middle" x="216" y="-65" font-family="Helvetica,sans-Serif" font-size="10.00"> </text>
<polyline fill="none" stroke="black" points="144.5,-58 287.5,-58 "/>
<text text-anchor="start" x="152.5" y="-46" font-family="Helvetica,sans-Serif" font-size="10.00">+ StrongsResultList()</text>
<text text-anchor="start" x="152.5" y="-35" font-family="Helvetica,sans-Serif" font-size="10.00">&#45; getStrongsNumberText()</text>
</a>
</g>
</g>
<!-- Node1&#45;&gt;Node3 -->
<g id="edge2" class="edge">
<title>Node1&#45;&gt;Node3</title>
<path fill="none" stroke="midnightblue" d="M160.47,-162.62C170.68,-145.31 182.9,-124.6 193.27,-107.03"/>
<polygon fill="none" stroke="midnightblue" points="157.4,-160.93 155.33,-171.32 163.43,-164.49 157.4,-160.93"/>
</g>
</g>
</svg>
