<?xml version="1.0" encoding="UTF-8" standalone="no"?>
<!DOCTYPE svg PUBLIC "-//W3C//DTD SVG 1.1//EN"
 "http://www.w3.org/Graphics/SVG/1.1/DTD/svg11.dtd">
<!-- Generated by graphviz version 2.43.0 (0)
 -->
<!-- Title: QComboBox Pages: 1 -->
<svg width="426pt" height="193pt"
 viewBox="0.00 0.00 425.50 193.00" xmlns="http://www.w3.org/2000/svg" xmlns:xlink="http://www.w3.org/1999/xlink">
<g id="graph0" class="graph" transform="scale(1 1) rotate(0) translate(4 189)">
<title>QComboBox</title>
<polygon fill="white" stroke="transparent" points="-4,4 -4,-189 421.5,-189 421.5,4 -4,4"/>
<!-- Node1 -->
<g id="node1" class="node">
<title>Node1</title>
<g id="a_node1"><a xlink:title=" ">
<polygon fill="#bfbfbf" stroke="black" points="155.5,-127.5 155.5,-184.5 232.5,-184.5 232.5,-127.5 155.5,-127.5"/>
<text text-anchor="middle" x="194" y="-172.5" font-family="Helvetica,sans-Serif" font-size="10.00">QComboBox</text>
<polyline fill="none" stroke="black" points="155.5,-165.5 232.5,-165.5 "/>
<text text-anchor="middle" x="194" y="-153.5" font-family="Helvetica,sans-Serif" font-size="10.00"> </text>
<polyline fill="none" stroke="black" points="155.5,-146.5 232.5,-146.5 "/>
<text text-anchor="middle" x="194" y="-134.5" font-family="Helvetica,sans-Serif" font-size="10.00"> </text>
</a>
</g>
</g>
<!-- Node2 -->
<g id="node2" class="node">
<title>Node2</title>
<g id="a_node2"><a xlink:href="../../d3/dcb/classBtFontSizeWidget.html" target="_top" xlink:title=" ">
<polygon fill="white" stroke="black" points="0,-6 0,-85 122,-85 122,-6 0,-6"/>
<text text-anchor="middle" x="61" y="-73" font-family="Helvetica,sans-Serif" font-size="10.00">BtFontSizeWidget</text>
<polyline fill="none" stroke="black" points="0,-66 122,-66 "/>
<text text-anchor="start" x="8" y="-54" font-family="Helvetica,sans-Serif" font-size="10.00">&#45; m_validator</text>
<polyline fill="none" stroke="black" points="0,-47 122,-47 "/>
<text text-anchor="start" x="8" y="-35" font-family="Helvetica,sans-Serif" font-size="10.00">+ BtFontSizeWidget()</text>
<text text-anchor="start" x="8" y="-24" font-family="Helvetica,sans-Serif" font-size="10.00">+ fontSize()</text>
<text text-anchor="start" x="8" y="-13" font-family="Helvetica,sans-Serif" font-size="10.00">+ setFontSize()</text>
</a>
</g>
</g>
<!-- Node1&#45;&gt;Node2 -->
<g id="edge1" class="edge">
<title>Node1&#45;&gt;Node2</title>
<path fill="none" stroke="midnightblue" d="M152.13,-120.84C138.24,-109.51 122.67,-96.81 108.39,-85.16"/>
<polygon fill="none" stroke="midnightblue" points="150.13,-123.73 160.09,-127.34 154.56,-118.31 150.13,-123.73"/>
</g>
<!-- Node3 -->
<g id="node3" class="node">
<title>Node3</title>
<g id="a_node3"><a xlink:href="../../d2/d66/classCKCComboBox.html" target="_top" xlink:title=" ">
<polygon fill="white" stroke="black" points="140,-11.5 140,-79.5 248,-79.5 248,-11.5 140,-11.5"/>
<text text-anchor="middle" x="194" y="-67.5" font-family="Helvetica,sans-Serif" font-size="10.00">CKCComboBox</text>
<polyline fill="none" stroke="black" points="140,-60.5 248,-60.5 "/>
<text text-anchor="middle" x="194" y="-48.5" font-family="Helvetica,sans-Serif" font-size="10.00"> </text>
<polyline fill="none" stroke="black" points="140,-41.5 248,-41.5 "/>
<text text-anchor="start" x="148" y="-29.5" font-family="Helvetica,sans-Serif" font-size="10.00">+ CKCComboBox()</text>
<text text-anchor="start" x="148" y="-18.5" font-family="Helvetica,sans-Serif" font-size="10.00"># eventFilter()</text>
</a>
</g>
</g>
<!-- Node1&#45;&gt;Node3 -->
<g id="edge2" class="edge">
<title>Node1&#45;&gt;Node3</title>
<path fill="none" stroke="midnightblue" d="M194,-116.99C194,-104.77 194,-91.35 194,-79.52"/>
<polygon fill="none" stroke="midnightblue" points="190.5,-117.34 194,-127.34 197.5,-117.34 190.5,-117.34"/>
</g>
<!-- Node4 -->
<g id="node4" class="node">
<title>Node4</title>
<g id="a_node4"><a xlink:href="../../db/d5d/classSearch_1_1CHistoryComboBox.html" target="_top" xlink:title=" ">
<polygon fill="white" stroke="black" points="266.5,-0.5 266.5,-90.5 417.5,-90.5 417.5,-0.5 266.5,-0.5"/>
<text text-anchor="middle" x="342" y="-78.5" font-family="Helvetica,sans-Serif" font-size="10.00">Search::CHistoryComboBox</text>
<polyline fill="none" stroke="black" points="266.5,-71.5 417.5,-71.5 "/>
<text text-anchor="middle" x="342" y="-59.5" font-family="Helvetica,sans-Serif" font-size="10.00"> </text>
<polyline fill="none" stroke="black" points="266.5,-52.5 417.5,-52.5 "/>
<text text-anchor="start" x="274.5" y="-40.5" font-family="Helvetica,sans-Serif" font-size="10.00">+ addToHistory()</text>
<text text-anchor="start" x="274.5" y="-29.5" font-family="Helvetica,sans-Serif" font-size="10.00">+ CHistoryComboBox()</text>
<text text-anchor="start" x="274.5" y="-18.5" font-family="Helvetica,sans-Serif" font-size="10.00">+ historyItems()</text>
<text text-anchor="start" x="274.5" y="-7.5" font-family="Helvetica,sans-Serif" font-size="10.00">+ ~CHistoryComboBox()</text>
</a>
</g>
</g>
<!-- Node1&#45;&gt;Node4 -->
<g id="edge3" class="edge">
<title>Node1&#45;&gt;Node4</title>
<path fill="none" stroke="midnightblue" d="M239.81,-121.41C253.12,-111.66 267.86,-100.85 281.91,-90.55"/>
<polygon fill="none" stroke="midnightblue" points="237.73,-118.6 231.73,-127.34 241.86,-124.25 237.73,-118.6"/>
</g>
</g>
</svg>
