<?xml version="1.0" encoding="UTF-8" standalone="no"?>
<!DOCTYPE svg PUBLIC "-//W3C//DTD SVG 1.1//EN"
 "http://www.w3.org/Graphics/SVG/1.1/DTD/svg11.dtd">
<!-- Generated by graphviz version 2.43.0 (0)
 -->
<!-- Title: CLexiconReadWindow::ActionCollection Pages: 1 -->
<svg width="192pt" height="436pt"
 viewBox="0.00 0.00 192.00 436.00" xmlns="http://www.w3.org/2000/svg" xmlns:xlink="http://www.w3.org/1999/xlink">
<g id="graph0" class="graph" transform="scale(1 1) rotate(0) translate(4 432)">
<title>CLexiconReadWindow::ActionCollection</title>
<polygon fill="white" stroke="transparent" points="-4,4 -4,-432 188,-432 188,4 -4,4"/>
<!-- Node1 -->
<g id="node1" class="node">
<title>Node1</title>
<g id="a_node1"><a xlink:title=" ">
<polygon fill="#bfbfbf" stroke="black" points="29.5,-0.5 29.5,-68.5 154.5,-68.5 154.5,-0.5 29.5,-0.5"/>
<text text-anchor="start" x="37.5" y="-56.5" font-family="Helvetica,sans-Serif" font-size="10.00">CLexiconReadWindow</text>
<text text-anchor="middle" x="92" y="-45.5" font-family="Helvetica,sans-Serif" font-size="10.00">::ActionCollection</text>
<polyline fill="none" stroke="black" points="29.5,-38.5 154.5,-38.5 "/>
<text text-anchor="middle" x="92" y="-26.5" font-family="Helvetica,sans-Serif" font-size="10.00"> </text>
<polyline fill="none" stroke="black" points="29.5,-19.5 154.5,-19.5 "/>
<text text-anchor="start" x="37.5" y="-7.5" font-family="Helvetica,sans-Serif" font-size="10.00">+ ActionCollection()</text>
</a>
</g>
</g>
<!-- Node2 -->
<g id="node2" class="node">
<title>Node2</title>
<g id="a_node2"><a xlink:href="../../db/ddf/classCDisplayWindow_1_1ActionCollection.html" target="_top" xlink:title=" ">
<polygon fill="white" stroke="black" points="0,-105.5 0,-162.5 184,-162.5 184,-105.5 0,-105.5"/>
<text text-anchor="middle" x="92" y="-150.5" font-family="Helvetica,sans-Serif" font-size="10.00">CDisplayWindow::ActionCollection</text>
<polyline fill="none" stroke="black" points="0,-143.5 184,-143.5 "/>
<text text-anchor="middle" x="92" y="-131.5" font-family="Helvetica,sans-Serif" font-size="10.00"> </text>
<polyline fill="none" stroke="black" points="0,-124.5 184,-124.5 "/>
<text text-anchor="start" x="8" y="-112.5" font-family="Helvetica,sans-Serif" font-size="10.00">+ ActionCollection()</text>
</a>
</g>
</g>
<!-- Node2&#45;&gt;Node1 -->
<g id="edge1" class="edge">
<title>Node2&#45;&gt;Node1</title>
<path fill="none" stroke="midnightblue" d="M92,-95.06C92,-86.39 92,-77.24 92,-68.79"/>
<polygon fill="none" stroke="midnightblue" points="88.5,-95.32 92,-105.32 95.5,-95.32 88.5,-95.32"/>
</g>
<!-- Node3 -->
<g id="node3" class="node">
<title>Node3</title>
<g id="a_node3"><a xlink:href="../../d0/d28/classBtActionCollection.html" target="_top" xlink:title=" ">
<polygon fill="white" stroke="black" points="28,-199.5 28,-333.5 156,-333.5 156,-199.5 28,-199.5"/>
<text text-anchor="middle" x="92" y="-321.5" font-family="Helvetica,sans-Serif" font-size="10.00">BtActionCollection</text>
<polyline fill="none" stroke="black" points="28,-314.5 156,-314.5 "/>
<text text-anchor="start" x="36" y="-302.5" font-family="Helvetica,sans-Serif" font-size="10.00">&#45; m_actions</text>
<polyline fill="none" stroke="black" points="28,-295.5 156,-295.5 "/>
<text text-anchor="start" x="36" y="-283.5" font-family="Helvetica,sans-Serif" font-size="10.00">+ action()</text>
<text text-anchor="start" x="36" y="-272.5" font-family="Helvetica,sans-Serif" font-size="10.00">+ actionAs()</text>
<text text-anchor="start" x="36" y="-261.5" font-family="Helvetica,sans-Serif" font-size="10.00">+ actions()</text>
<text text-anchor="start" x="36" y="-250.5" font-family="Helvetica,sans-Serif" font-size="10.00">+ addAction()</text>
<text text-anchor="start" x="36" y="-239.5" font-family="Helvetica,sans-Serif" font-size="10.00">+ BtActionCollection()</text>
<text text-anchor="start" x="36" y="-228.5" font-family="Helvetica,sans-Serif" font-size="10.00">+ readShortcuts()</text>
<text text-anchor="start" x="36" y="-217.5" font-family="Helvetica,sans-Serif" font-size="10.00">+ writeShortcuts()</text>
<text text-anchor="start" x="36" y="-206.5" font-family="Helvetica,sans-Serif" font-size="10.00">+ getDefaultShortcut()</text>
</a>
</g>
</g>
<!-- Node3&#45;&gt;Node2 -->
<g id="edge2" class="edge">
<title>Node3&#45;&gt;Node2</title>
<path fill="none" stroke="midnightblue" d="M92,-189.46C92,-179.91 92,-170.68 92,-162.61"/>
<polygon fill="none" stroke="midnightblue" points="88.5,-189.49 92,-199.49 95.5,-189.49 88.5,-189.49"/>
</g>
<!-- Node4 -->
<g id="node4" class="node">
<title>Node4</title>
<g id="a_node4"><a xlink:href="../../d9/d5b/classQObject.html" target="_top" xlink:title=" ">
<polygon fill="white" stroke="black" points="64,-370.5 64,-427.5 120,-427.5 120,-370.5 64,-370.5"/>
<text text-anchor="middle" x="92" y="-415.5" font-family="Helvetica,sans-Serif" font-size="10.00">QObject</text>
<polyline fill="none" stroke="black" points="64,-408.5 120,-408.5 "/>
<text text-anchor="middle" x="92" y="-396.5" font-family="Helvetica,sans-Serif" font-size="10.00"> </text>
<polyline fill="none" stroke="black" points="64,-389.5 120,-389.5 "/>
<text text-anchor="middle" x="92" y="-377.5" font-family="Helvetica,sans-Serif" font-size="10.00"> </text>
</a>
</g>
</g>
<!-- Node4&#45;&gt;Node3 -->
<g id="edge3" class="edge">
<title>Node4&#45;&gt;Node3</title>
<path fill="none" stroke="midnightblue" d="M92,-360.16C92,-351.78 92,-342.67 92,-333.53"/>
<polygon fill="none" stroke="midnightblue" points="88.5,-360.32 92,-370.32 95.5,-360.32 88.5,-360.32"/>
</g>
</g>
</svg>
