<?xml version="1.0" encoding="UTF-8" standalone="no"?>
<!DOCTYPE svg PUBLIC "-//W3C//DTD SVG 1.1//EN"
 "http://www.w3.org/Graphics/SVG/1.1/DTD/svg11.dtd">
<!-- Generated by graphviz version 2.43.0 (0)
 -->
<!-- Title: CLexiconReadWindow::ActionCollection Pages: 1 -->
<svg width="186pt" height="428pt"
 viewBox="0.00 0.00 186.00 428.00" xmlns="http://www.w3.org/2000/svg" xmlns:xlink="http://www.w3.org/1999/xlink">
<g id="graph0" class="graph" transform="scale(1 1) rotate(0) translate(4 424)">
<title>CLexiconReadWindow::ActionCollection</title>
<!-- Node1 -->
<g id="Node000001" class="node">
<title>Node1</title>
<g id="a_Node000001"><a xlink:title=" ">
<polygon fill="#999999" stroke="transparent" points="148.5,-60 29.5,-60 29.5,0 148.5,0 148.5,-60"/>
<text text-anchor="start" x="35" y="-48" font-family="Helvetica,sans-Serif" font-size="10.00">CLexiconReadWindow</text>
<text text-anchor="start" x="46.5" y="-37" font-family="Helvetica,sans-Serif" font-size="10.00">::ActionCollection</text>
<text text-anchor="start" x="87.5" y="-22" font-family="Helvetica,sans-Serif" font-size="10.00"> </text>
<text text-anchor="start" x="36.5" y="-7" font-family="Helvetica,sans-Serif" font-size="10.00">+</text>
<text text-anchor="start" x="52" y="-7" font-family="Helvetica,sans-Serif" font-size="10.00">ActionCollection()</text>
<polygon fill="#666666" stroke="#666666" points="30,-32 30,-32 149,-32 149,-32 30,-32"/>
<polygon fill="#666666" stroke="#666666" points="30,-17 30,-17 149,-17 149,-17 30,-17"/>
<polygon fill="none" stroke="#666666" points="29.5,0 29.5,-60 148.5,-60 148.5,0 29.5,0"/>
</a>
</g>
</g>
<!-- Node2 -->
<g id="Node000002" class="node">
<title>Node2</title>
<g id="a_Node000002"><a xlink:href="../../db/ddf/classCDisplayWindow_1_1ActionCollection.html" target="_top" xlink:title=" ">
<polygon fill="white" stroke="transparent" points="178,-145 0,-145 0,-96 178,-96 178,-145"/>
<text text-anchor="start" x="5" y="-132.5" font-family="Helvetica,sans-Serif" font-size="10.00">CDisplayWindow::ActionCollection</text>
<text text-anchor="start" x="87" y="-117.5" font-family="Helvetica,sans-Serif" font-size="10.00"> </text>
<text text-anchor="start" x="21" y="-102.5" font-family="Helvetica,sans-Serif" font-size="10.00">+</text>
<text text-anchor="start" x="51" y="-102.5" font-family="Helvetica,sans-Serif" font-size="10.00">ActionCollection()</text>
<polygon fill="#666666" stroke="#666666" points="0,-127.5 0,-127.5 178,-127.5 178,-127.5 0,-127.5"/>
<polygon fill="#666666" stroke="#666666" points="0,-112.5 0,-112.5 178,-112.5 178,-112.5 0,-112.5"/>
<polygon fill="none" stroke="#666666" points="0,-96 0,-145 178,-145 178,-96 0,-96"/>
</a>
</g>
</g>
<!-- Node2&#45;&gt;Node1 -->
<g id="edge1_Node000001_Node000002" class="edge">
<title>Node2&#45;&gt;Node1</title>
<g id="a_edge1_Node000001_Node000002"><a xlink:title=" ">
<path fill="none" stroke="#63b8ff" d="M89,-85.55C89,-77.18 89,-68.28 89,-60.16"/>
<polygon fill="none" stroke="#63b8ff" points="85.5,-85.78 89,-95.78 92.5,-85.78 85.5,-85.78"/>
</a>
</g>
</g>
<!-- Node3 -->
<g id="Node000003" class="node">
<title>Node3</title>
<g id="a_Node000003"><a xlink:href="../../d0/d28/classBtActionCollection.html" target="_top" xlink:title=" ">
<polygon fill="white" stroke="transparent" points="149.5,-335 28.5,-335 28.5,-181 149.5,-181 149.5,-335"/>
<text text-anchor="start" x="44" y="-323" font-family="Helvetica,sans-Serif" font-size="10.00">BtActionCollection</text>
<text text-anchor="start" x="35.5" y="-308" font-family="Helvetica,sans-Serif" font-size="10.00">&#45;</text>
<text text-anchor="start" x="46" y="-308" font-family="Helvetica,sans-Serif" font-size="10.00">m_actions</text>
<text text-anchor="start" x="33" y="-293" font-family="Helvetica,sans-Serif" font-size="10.00">+</text>
<text text-anchor="start" x="46" y="-293" font-family="Helvetica,sans-Serif" font-size="10.00">action()</text>
<text text-anchor="start" x="33" y="-278" font-family="Helvetica,sans-Serif" font-size="10.00">+</text>
<text text-anchor="start" x="46" y="-278" font-family="Helvetica,sans-Serif" font-size="10.00">actionAs()</text>
<text text-anchor="start" x="33" y="-263" font-family="Helvetica,sans-Serif" font-size="10.00">+</text>
<text text-anchor="start" x="46" y="-263" font-family="Helvetica,sans-Serif" font-size="10.00">actions()</text>
<text text-anchor="start" x="33" y="-248" font-family="Helvetica,sans-Serif" font-size="10.00">+</text>
<text text-anchor="start" x="46" y="-248" font-family="Helvetica,sans-Serif" font-size="10.00">addAction()</text>
<text text-anchor="start" x="33" y="-233" font-family="Helvetica,sans-Serif" font-size="10.00">+</text>
<text text-anchor="start" x="46" y="-233" font-family="Helvetica,sans-Serif" font-size="10.00">BtActionCollection()</text>
<text text-anchor="start" x="33" y="-218" font-family="Helvetica,sans-Serif" font-size="10.00">+</text>
<text text-anchor="start" x="46" y="-218" font-family="Helvetica,sans-Serif" font-size="10.00">readShortcuts()</text>
<text text-anchor="start" x="33" y="-203" font-family="Helvetica,sans-Serif" font-size="10.00">+</text>
<text text-anchor="start" x="46" y="-203" font-family="Helvetica,sans-Serif" font-size="10.00">writeShortcuts()</text>
<text text-anchor="start" x="33" y="-188" font-family="Helvetica,sans-Serif" font-size="10.00">+</text>
<text text-anchor="start" x="46" y="-188" font-family="Helvetica,sans-Serif" font-size="10.00">getDefaultShortcut()</text>
<polygon fill="#666666" stroke="#666666" points="29,-318 29,-318 150,-318 150,-318 29,-318"/>
<polygon fill="#666666" stroke="#666666" points="29,-303 29,-303 44,-303 44,-303 29,-303"/>
<polygon fill="#666666" stroke="#666666" points="44,-303 44,-303 150,-303 150,-303 44,-303"/>
<polygon fill="none" stroke="#666666" points="28.5,-181 28.5,-335 149.5,-335 149.5,-181 28.5,-181"/>
</a>
</g>
</g>
<!-- Node3&#45;&gt;Node2 -->
<g id="edge2_Node000002_Node000003" class="edge">
<title>Node3&#45;&gt;Node2</title>
<g id="a_edge2_Node000002_Node000003"><a xlink:title=" ">
<path fill="none" stroke="#63b8ff" d="M89,-170.67C89,-161.37 89,-152.57 89,-145.06"/>
<polygon fill="none" stroke="#63b8ff" points="85.5,-170.93 89,-180.93 92.5,-170.93 85.5,-170.93"/>
</a>
</g>
</g>
<!-- Node4 -->
<g id="Node000004" class="node">
<title>Node4</title>
<g id="a_Node000004"><a xlink:href="../../d9/d5b/classQObject.html" target="_top" xlink:title=" ">
<polygon fill="white" stroke="transparent" points="114,-420 64,-420 64,-371 114,-371 114,-420"/>
<text text-anchor="start" x="69" y="-407.5" font-family="Helvetica,sans-Serif" font-size="10.00">QObject</text>
<text text-anchor="start" x="87" y="-392.5" font-family="Helvetica,sans-Serif" font-size="10.00"> </text>
<text text-anchor="start" x="87" y="-377.5" font-family="Helvetica,sans-Serif" font-size="10.00"> </text>
<polygon fill="#666666" stroke="#666666" points="64,-402.5 64,-402.5 114,-402.5 114,-402.5 64,-402.5"/>
<polygon fill="#666666" stroke="#666666" points="64,-387.5 64,-387.5 114,-387.5 114,-387.5 64,-387.5"/>
<polygon fill="none" stroke="#666666" points="64,-371 64,-420 114,-420 114,-371 64,-371"/>
</a>
</g>
</g>
<!-- Node4&#45;&gt;Node3 -->
<g id="edge3_Node000003_Node000004" class="edge">
<title>Node4&#45;&gt;Node3</title>
<g id="a_edge3_Node000003_Node000004"><a xlink:title=" ">
<path fill="none" stroke="#63b8ff" d="M89,-360.66C89,-352.74 89,-343.97 89,-335.01"/>
<polygon fill="none" stroke="#63b8ff" points="85.5,-360.9 89,-370.9 92.5,-360.9 85.5,-360.9"/>
</a>
</g>
</g>
</g>
</svg>
