<?xml version="1.0" encoding="UTF-8" standalone="no"?>
<!DOCTYPE svg PUBLIC "-//W3C//DTD SVG 1.1//EN"
 "http://www.w3.org/Graphics/SVG/1.1/DTD/svg11.dtd">
<!-- Generated by graphviz version 2.43.0 (0)
 -->
<!-- Title: CSwordBookModuleInfo Pages: 1 -->
<svg width="201pt" height="932pt"
 viewBox="0.00 0.00 201.00 932.00" xmlns="http://www.w3.org/2000/svg" xmlns:xlink="http://www.w3.org/1999/xlink">
<g id="graph0" class="graph" transform="scale(1 1) rotate(0) translate(4 928)">
<title>CSwordBookModuleInfo</title>
<!-- Node1 -->
<g id="Node000001" class="node">
<title>Node1</title>
<g id="a_Node000001"><a xlink:title="Class for generic book support.">
<polygon fill="#999999" stroke="transparent" points="169,-94 24,-94 24,0 169,0 169,-94"/>
<text text-anchor="start" x="38.5" y="-82" font-family="Helvetica,sans-Serif" font-size="10.00">CSwordBookModuleInfo</text>
<text text-anchor="start" x="31" y="-67" font-family="Helvetica,sans-Serif" font-size="10.00">&#45;</text>
<text text-anchor="start" x="41.5" y="-67" font-family="Helvetica,sans-Serif" font-size="10.00">m_depth</text>
<text text-anchor="start" x="28.5" y="-52" font-family="Helvetica,sans-Serif" font-size="10.00">+</text>
<text text-anchor="start" x="41.5" y="-52" font-family="Helvetica,sans-Serif" font-size="10.00">createKey()</text>
<text text-anchor="start" x="28.5" y="-37" font-family="Helvetica,sans-Serif" font-size="10.00">+</text>
<text text-anchor="start" x="41.5" y="-37" font-family="Helvetica,sans-Serif" font-size="10.00">CSwordBookModuleInfo()</text>
<text text-anchor="start" x="28.5" y="-22" font-family="Helvetica,sans-Serif" font-size="10.00">+</text>
<text text-anchor="start" x="41.5" y="-22" font-family="Helvetica,sans-Serif" font-size="10.00">depth()</text>
<text text-anchor="start" x="28.5" y="-7" font-family="Helvetica,sans-Serif" font-size="10.00">+</text>
<text text-anchor="start" x="41.5" y="-7" font-family="Helvetica,sans-Serif" font-size="10.00">tree()</text>
<polygon fill="#666666" stroke="#666666" points="24.5,-77 24.5,-77 169.5,-77 169.5,-77 24.5,-77"/>
<polygon fill="#666666" stroke="#666666" points="24.5,-62 24.5,-62 39.5,-62 39.5,-62 24.5,-62"/>
<polygon fill="#666666" stroke="#666666" points="39.5,-62 39.5,-62 169.5,-62 169.5,-62 39.5,-62"/>
<polygon fill="none" stroke="#666666" points="24,0 24,-94 169,-94 169,0 24,0"/>
</a>
</g>
</g>
<!-- Node2 -->
<g id="Node000002" class="node">
<title>Node2</title>
<g id="a_Node000002"><a xlink:href="../../d7/d42/classCSwordModuleInfo.html" target="_top" xlink:title=" ">
<polygon fill="white" stroke="transparent" points="193,-839 0,-839 0,-130 193,-130 193,-839"/>
<text text-anchor="start" x="51" y="-826.5" font-family="Helvetica,sans-Serif" font-size="10.00">CSwordModuleInfo</text>
<text text-anchor="start" x="4.5" y="-811.5" font-family="Helvetica,sans-Serif" font-size="10.00">+</text>
<text text-anchor="start" x="17.5" y="-811.5" font-family="Helvetica,sans-Serif" font-size="10.00">footnotes</text>
<text text-anchor="start" x="4.5" y="-796.5" font-family="Helvetica,sans-Serif" font-size="10.00">+</text>
<text text-anchor="start" x="17.5" y="-796.5" font-family="Helvetica,sans-Serif" font-size="10.00">greekAccents</text>
<text text-anchor="start" x="4.5" y="-781.5" font-family="Helvetica,sans-Serif" font-size="10.00">+</text>
<text text-anchor="start" x="17.5" y="-781.5" font-family="Helvetica,sans-Serif" font-size="10.00">headings</text>
<text text-anchor="start" x="4.5" y="-766.5" font-family="Helvetica,sans-Serif" font-size="10.00">+</text>
<text text-anchor="start" x="17.5" y="-766.5" font-family="Helvetica,sans-Serif" font-size="10.00">hebrewCantillation</text>
<text text-anchor="start" x="4.5" y="-751.5" font-family="Helvetica,sans-Serif" font-size="10.00">+</text>
<text text-anchor="start" x="17.5" y="-751.5" font-family="Helvetica,sans-Serif" font-size="10.00">hebrewPoints</text>
<text text-anchor="start" x="4.5" y="-736.5" font-family="Helvetica,sans-Serif" font-size="10.00">+</text>
<text text-anchor="start" x="17.5" y="-736.5" font-family="Helvetica,sans-Serif" font-size="10.00">lemmas</text>
<text text-anchor="start" x="4.5" y="-721.5" font-family="Helvetica,sans-Serif" font-size="10.00">+</text>
<text text-anchor="start" x="17.5" y="-721.5" font-family="Helvetica,sans-Serif" font-size="10.00">morphSegmentation</text>
<text text-anchor="start" x="4.5" y="-706.5" font-family="Helvetica,sans-Serif" font-size="10.00">+</text>
<text text-anchor="start" x="17.5" y="-706.5" font-family="Helvetica,sans-Serif" font-size="10.00">morphTags</text>
<text text-anchor="start" x="4.5" y="-691.5" font-family="Helvetica,sans-Serif" font-size="10.00">+</text>
<text text-anchor="start" x="17.5" y="-691.5" font-family="Helvetica,sans-Serif" font-size="10.00">redLetterWords</text>
<text text-anchor="start" x="4.5" y="-676.5" font-family="Helvetica,sans-Serif" font-size="10.00">+</text>
<text text-anchor="start" x="17.5" y="-676.5" font-family="Helvetica,sans-Serif" font-size="10.00">scriptureReferences</text>
<text text-anchor="start" x="4.5" y="-661.5" font-family="Helvetica,sans-Serif" font-size="10.00">+</text>
<text text-anchor="start" x="17.5" y="-661.5" font-family="Helvetica,sans-Serif" font-size="10.00">strongNumbers</text>
<text text-anchor="start" x="4.5" y="-646.5" font-family="Helvetica,sans-Serif" font-size="10.00">+</text>
<text text-anchor="start" x="17.5" y="-646.5" font-family="Helvetica,sans-Serif" font-size="10.00">textualVariants</text>
<text text-anchor="start" x="7" y="-631.5" font-family="Helvetica,sans-Serif" font-size="10.00">&#45;</text>
<text text-anchor="start" x="17.5" y="-631.5" font-family="Helvetica,sans-Serif" font-size="10.00">m_backend</text>
<text text-anchor="start" x="7" y="-616.5" font-family="Helvetica,sans-Serif" font-size="10.00">&#45;</text>
<text text-anchor="start" x="17.5" y="-616.5" font-family="Helvetica,sans-Serif" font-size="10.00">m_cachedCategory</text>
<text text-anchor="start" x="7" y="-601.5" font-family="Helvetica,sans-Serif" font-size="10.00">&#45;</text>
<text text-anchor="start" x="17.5" y="-601.5" font-family="Helvetica,sans-Serif" font-size="10.00">m_cachedFeatures</text>
<text text-anchor="start" x="7" y="-586.5" font-family="Helvetica,sans-Serif" font-size="10.00">&#45;</text>
<text text-anchor="start" x="17.5" y="-586.5" font-family="Helvetica,sans-Serif" font-size="10.00">m_cachedGlossaryTargetLanguage</text>
<text text-anchor="start" x="7" y="-571.5" font-family="Helvetica,sans-Serif" font-size="10.00">&#45;</text>
<text text-anchor="start" x="17.5" y="-571.5" font-family="Helvetica,sans-Serif" font-size="10.00">m_cachedHasVersion</text>
<text text-anchor="start" x="7" y="-556.5" font-family="Helvetica,sans-Serif" font-size="10.00">&#45;</text>
<text text-anchor="start" x="17.5" y="-556.5" font-family="Helvetica,sans-Serif" font-size="10.00">m_cachedLanguage</text>
<text text-anchor="start" x="7" y="-541.5" font-family="Helvetica,sans-Serif" font-size="10.00">&#45;</text>
<text text-anchor="start" x="17.5" y="-541.5" font-family="Helvetica,sans-Serif" font-size="10.00">m_cachedName</text>
<text text-anchor="start" x="7" y="-526.5" font-family="Helvetica,sans-Serif" font-size="10.00">&#45;</text>
<text text-anchor="start" x="17.5" y="-526.5" font-family="Helvetica,sans-Serif" font-size="10.00">m_cancelIndexing</text>
<text text-anchor="start" x="7" y="-511.5" font-family="Helvetica,sans-Serif" font-size="10.00">&#45;</text>
<text text-anchor="start" x="17.5" y="-511.5" font-family="Helvetica,sans-Serif" font-size="10.00">m_hidden</text>
<text text-anchor="start" x="7" y="-496.5" font-family="Helvetica,sans-Serif" font-size="10.00">&#45;</text>
<text text-anchor="start" x="17.5" y="-496.5" font-family="Helvetica,sans-Serif" font-size="10.00">m_swordModule</text>
<text text-anchor="start" x="7" y="-481.5" font-family="Helvetica,sans-Serif" font-size="10.00">&#45;</text>
<text text-anchor="start" x="17.5" y="-481.5" font-family="Helvetica,sans-Serif" font-size="10.00">m_type</text>
<text text-anchor="start" x="4.5" y="-466.5" font-family="Helvetica,sans-Serif" font-size="10.00">+</text>
<text text-anchor="start" x="17.5" y="-466.5" font-family="Helvetica,sans-Serif" font-size="10.00">aboutText()</text>
<text text-anchor="start" x="4.5" y="-451.5" font-family="Helvetica,sans-Serif" font-size="10.00">+</text>
<text text-anchor="start" x="17.5" y="-451.5" font-family="Helvetica,sans-Serif" font-size="10.00">buildIndex()</text>
<text text-anchor="start" x="4.5" y="-436.5" font-family="Helvetica,sans-Serif" font-size="10.00">+</text>
<text text-anchor="start" x="17.5" y="-436.5" font-family="Helvetica,sans-Serif" font-size="10.00">category()</text>
<text text-anchor="start" x="4.5" y="-421.5" font-family="Helvetica,sans-Serif" font-size="10.00">+</text>
<text text-anchor="start" x="17.5" y="-421.5" font-family="Helvetica,sans-Serif" font-size="10.00">config()</text>
<text text-anchor="start" x="4.5" y="-406.5" font-family="Helvetica,sans-Serif" font-size="10.00">+</text>
<text text-anchor="start" x="17.5" y="-406.5" font-family="Helvetica,sans-Serif" font-size="10.00">createKey()</text>
<text text-anchor="start" x="4.5" y="-391.5" font-family="Helvetica,sans-Serif" font-size="10.00">+</text>
<text text-anchor="start" x="17.5" y="-391.5" font-family="Helvetica,sans-Serif" font-size="10.00">CSwordModuleInfo()</text>
<text text-anchor="start" x="4.5" y="-376.5" font-family="Helvetica,sans-Serif" font-size="10.00">+</text>
<text text-anchor="start" x="17.5" y="-376.5" font-family="Helvetica,sans-Serif" font-size="10.00">CSwordModuleInfo()</text>
<text text-anchor="start" x="4.5" y="-361.5" font-family="Helvetica,sans-Serif" font-size="10.00">+</text>
<text text-anchor="start" x="17.5" y="-361.5" font-family="Helvetica,sans-Serif" font-size="10.00">deleteIndex()</text>
<text text-anchor="start" x="4.5" y="-346.5" font-family="Helvetica,sans-Serif" font-size="10.00">+</text>
<text text-anchor="start" x="17.5" y="-346.5" font-family="Helvetica,sans-Serif" font-size="10.00">getModuleBaseIndexLocation()</text>
<text text-anchor="start" x="4.5" y="-331.5" font-family="Helvetica,sans-Serif" font-size="10.00">+</text>
<text text-anchor="start" x="17.5" y="-331.5" font-family="Helvetica,sans-Serif" font-size="10.00">getModuleStandardIndexLocation()</text>
<text text-anchor="start" x="17.5" y="-316.5" font-family="Helvetica,sans-Serif" font-size="10.00">and 28 more...</text>
<text text-anchor="start" x="4.5" y="-301.5" font-family="Helvetica,sans-Serif" font-size="10.00">+</text>
<text text-anchor="start" x="17.5" y="-301.5" font-family="Helvetica,sans-Serif" font-size="10.00">categoryIcon()</text>
<text text-anchor="start" x="4.5" y="-286.5" font-family="Helvetica,sans-Serif" font-size="10.00">+</text>
<text text-anchor="start" x="17.5" y="-286.5" font-family="Helvetica,sans-Serif" font-size="10.00">categoryName()</text>
<text text-anchor="start" x="4.5" y="-271.5" font-family="Helvetica,sans-Serif" font-size="10.00">+</text>
<text text-anchor="start" x="17.5" y="-271.5" font-family="Helvetica,sans-Serif" font-size="10.00">deleteIndexForModule()</text>
<text text-anchor="start" x="4.5" y="-256.5" font-family="Helvetica,sans-Serif" font-size="10.00">+</text>
<text text-anchor="start" x="17.5" y="-256.5" font-family="Helvetica,sans-Serif" font-size="10.00">getGlobalBaseIndexLocation()</text>
<text text-anchor="start" x="4.5" y="-241.5" font-family="Helvetica,sans-Serif" font-size="10.00">+</text>
<text text-anchor="start" x="17.5" y="-241.5" font-family="Helvetica,sans-Serif" font-size="10.00">moduleIcon()</text>
<text text-anchor="start" x="4.5" y="-226.5" font-family="Helvetica,sans-Serif" font-size="10.00">+</text>
<text text-anchor="start" x="17.5" y="-226.5" font-family="Helvetica,sans-Serif" font-size="10.00">cancelIndexing()</text>
<text text-anchor="start" x="4.5" y="-211.5" font-family="Helvetica,sans-Serif" font-size="10.00">#</text>
<text text-anchor="start" x="17.5" y="-211.5" font-family="Helvetica,sans-Serif" font-size="10.00">backend()</text>
<text text-anchor="start" x="4.5" y="-196.5" font-family="Helvetica,sans-Serif" font-size="10.00">#</text>
<text text-anchor="start" x="17.5" y="-196.5" font-family="Helvetica,sans-Serif" font-size="10.00">CSwordModuleInfo()</text>
<text text-anchor="start" x="4.5" y="-181.5" font-family="Helvetica,sans-Serif" font-size="10.00">#</text>
<text text-anchor="start" x="17.5" y="-181.5" font-family="Helvetica,sans-Serif" font-size="10.00">getFormattedConfigEntry()</text>
<text text-anchor="start" x="4.5" y="-166.5" font-family="Helvetica,sans-Serif" font-size="10.00">#</text>
<text text-anchor="start" x="17.5" y="-166.5" font-family="Helvetica,sans-Serif" font-size="10.00">getSimpleConfigEntry()</text>
<text text-anchor="start" x="4.5" y="-151.5" font-family="Helvetica,sans-Serif" font-size="10.00">#</text>
<text text-anchor="start" x="17.5" y="-151.5" font-family="Helvetica,sans-Serif" font-size="10.00">hasImportantFilterOption()</text>
<text text-anchor="start" x="4.5" y="-136.5" font-family="Helvetica,sans-Serif" font-size="10.00">#</text>
<text text-anchor="start" x="17.5" y="-136.5" font-family="Helvetica,sans-Serif" font-size="10.00">setImportantFilterOptions()</text>
<polygon fill="#666666" stroke="#666666" points="0.5,-821.5 0.5,-821.5 193.5,-821.5 193.5,-821.5 0.5,-821.5"/>
<polygon fill="#666666" stroke="#666666" points="0.5,-476.5 0.5,-476.5 15.5,-476.5 15.5,-476.5 0.5,-476.5"/>
<polygon fill="#666666" stroke="#666666" points="15.5,-476.5 15.5,-476.5 193.5,-476.5 193.5,-476.5 15.5,-476.5"/>
<polygon fill="none" stroke="#666666" points="0,-130 0,-839 193,-839 193,-130 0,-130"/>
</a>
</g>
</g>
<!-- Node2&#45;&gt;Node1 -->
<g id="edge1_Node000001_Node000002" class="edge">
<title>Node2&#45;&gt;Node1</title>
<g id="a_edge1_Node000001_Node000002"><a xlink:title=" ">
<path fill="none" stroke="#63b8ff" d="M96.5,-119.75C96.5,-110.61 96.5,-102.1 96.5,-94.38"/>
<polygon fill="none" stroke="#63b8ff" points="93,-119.91 96.5,-129.91 100,-119.91 93,-119.91"/>
</a>
</g>
</g>
<!-- Node3 -->
<g id="Node000003" class="node">
<title>Node3</title>
<g id="a_Node000003"><a xlink:href="../../d9/d5b/classQObject.html" target="_top" xlink:title=" ">
<polygon fill="white" stroke="transparent" points="121.5,-924 71.5,-924 71.5,-875 121.5,-875 121.5,-924"/>
<text text-anchor="start" x="76.5" y="-911.5" font-family="Helvetica,sans-Serif" font-size="10.00">QObject</text>
<text text-anchor="start" x="94.5" y="-896.5" font-family="Helvetica,sans-Serif" font-size="10.00"> </text>
<text text-anchor="start" x="94.5" y="-881.5" font-family="Helvetica,sans-Serif" font-size="10.00"> </text>
<polygon fill="#666666" stroke="#666666" points="71.5,-906.5 71.5,-906.5 121.5,-906.5 121.5,-906.5 71.5,-906.5"/>
<polygon fill="#666666" stroke="#666666" points="71.5,-891.5 71.5,-891.5 121.5,-891.5 121.5,-891.5 71.5,-891.5"/>
<polygon fill="none" stroke="#666666" points="71.5,-875 71.5,-924 121.5,-924 121.5,-875 71.5,-875"/>
</a>
</g>
</g>
<!-- Node3&#45;&gt;Node2 -->
<g id="edge2_Node000002_Node000003" class="edge">
<title>Node3&#45;&gt;Node2</title>
<g id="a_edge2_Node000002_Node000003"><a xlink:title=" ">
<path fill="none" stroke="#63b8ff" d="M96.5,-864.56C96.5,-857.03 96.5,-848.45 96.5,-839.02"/>
<polygon fill="none" stroke="#63b8ff" points="93,-864.81 96.5,-874.81 100,-864.81 93,-864.81"/>
</a>
</g>
</g>
</g>
</svg>
