<?xml version="1.0" encoding="UTF-8" standalone="no"?>
<!DOCTYPE svg PUBLIC "-//W3C//DTD SVG 1.1//EN"
 "http://www.w3.org/Graphics/SVG/1.1/DTD/svg11.dtd">
<!-- Generated by graphviz version 2.43.0 (0)
 -->
<!-- Title: CSwordBookModuleInfo Pages: 1 -->
<!--zoomable 962 -->

<svg id="main" version="1.1" xmlns="http://www.w3.org/2000/svg" xmlns:xlink="http://www.w3.org/1999/xlink" xml:space="preserve" onload="init(evt)">
<style type="text/css"><![CDATA[
.node, .edge {opacity: 0.7;}
.node.selected, .edge.selected {opacity: 1;}
.edge:hover path { stroke: red; }
.edge:hover polygon { stroke: red; fill: red; }
]]></style>

<defs>
  <circle id="rim" cx="0" cy="0" r="7"/>
  <circle id="rim2" cx="0" cy="0" r="3.5"/>
  <g id="zoomPlus">
    <use xlink:href="#rim" fill="#404040"><set attributeName="fill" to="#808080" begin="zoomplus.mouseover" end="zoomplus.mouseout"/></use>
    <path d="M-4,0h8M0,-4v8" fill="none" stroke="white" stroke-width="1.5" pointer-events="none"/>
  </g>
  <g id="zoomMin">
    <use xlink:href="#rim" fill="#404040"><set attributeName="fill" to="#808080" begin="zoomminus.mouseover" end="zoomminus.mouseout"/></use>
    <path d="M-4,0h8" fill="none" stroke="white" stroke-width="1.5" pointer-events="none"/>
  </g>
  <g id="arrowUp" transform="translate(30 24)">
    <use xlink:href="#rim"/>
    <path pointer-events="none" fill="none" stroke="white" stroke-width="1.5" d="M0,-3.0v7 M-2.5,-0.5L0,-3.0L2.5,-0.5"/>
  </g>
  <g id="arrowRight" transform="rotate(90) translate(36 -43)">
    <use xlink:href="#rim"/>
    <path pointer-events="none" fill="none" stroke="white" stroke-width="1.5" d="M0,-3.0v7 M-2.5,-0.5L0,-3.0L2.5,-0.5"/>
  </g>
  <g id="arrowDown" transform="rotate(180) translate(-30 -48)">
    <use xlink:href="#rim"/>
    <path pointer-events="none" fill="none" stroke="white" stroke-width="1.5" d="M0,-3.0v7 M-2.5,-0.5L0,-3.0L2.5,-0.5"/>
  </g>
  <g id="arrowLeft" transform="rotate(270) translate(-36 17)">
    <use xlink:href="#rim"/>
    <path pointer-events="none" fill="none" stroke="white" stroke-width="1.5" d="M0,-3.0v7 M-2.5,-0.5L0,-3.0L2.5,-0.5"/>
  </g>
  <g id="resetDef">
    <use xlink:href="#rim2" fill="#404040"><set attributeName="fill" to="#808080" begin="reset.mouseover" end="reset.mouseout"/></use>
  </g>
</defs>
<script type="application/ecmascript">
var viewWidth = 201;
var viewHeight = 962;
var sectionId = 'dynsection-0';
</script>
<script type="application/ecmascript" xlink:href="../../svg.min.js"/>
<svg id="graph" class="graph">
<g id="viewport">
<title>CSwordBookModuleInfo</title>
<!-- Node1 -->
<g id="Node000001" class="node">
<title>Node1</title>
<g id="a_Node000001"><a xlink:title="Class for generic book support.">
<polygon fill="#999999" stroke="transparent" points="169,-94 24,-94 24,0 169,0 169,-94"/>
<text text-anchor="start" x="38.5" y="-82" font-family="Helvetica,sans-Serif" font-size="10.00">CSwordBookModuleInfo</text>
<text text-anchor="start" x="31" y="-67" font-family="Helvetica,sans-Serif" font-size="10.00">&#45;</text>
<text text-anchor="start" x="41.5" y="-67" font-family="Helvetica,sans-Serif" font-size="10.00">m_depth</text>
<text text-anchor="start" x="28.5" y="-52" font-family="Helvetica,sans-Serif" font-size="10.00">+</text>
<text text-anchor="start" x="41.5" y="-52" font-family="Helvetica,sans-Serif" font-size="10.00">createKey()</text>
<text text-anchor="start" x="28.5" y="-37" font-family="Helvetica,sans-Serif" font-size="10.00">+</text>
<text text-anchor="start" x="41.5" y="-37" font-family="Helvetica,sans-Serif" font-size="10.00">CSwordBookModuleInfo()</text>
<text text-anchor="start" x="28.5" y="-22" font-family="Helvetica,sans-Serif" font-size="10.00">+</text>
<text text-anchor="start" x="41.5" y="-22" font-family="Helvetica,sans-Serif" font-size="10.00">depth()</text>
<text text-anchor="start" x="28.5" y="-7" font-family="Helvetica,sans-Serif" font-size="10.00">+</text>
<text text-anchor="start" x="41.5" y="-7" font-family="Helvetica,sans-Serif" font-size="10.00">tree()</text>
<polygon fill="#666666" stroke="#666666" points="24.5,-77 24.5,-77 169.5,-77 169.5,-77 24.5,-77"/>
<polygon fill="#666666" stroke="#666666" points="24.5,-62 24.5,-62 39.5,-62 39.5,-62 24.5,-62"/>
<polygon fill="#666666" stroke="#666666" points="39.5,-62 39.5,-62 169.5,-62 169.5,-62 39.5,-62"/>
<polygon fill="none" stroke="#666666" points="24,0 24,-94 169,-94 169,0 24,0"/>
</a>
</g>
</g>
<!-- Node2 -->
<g id="Node000002" class="node">
<title>Node2</title>
<g id="a_Node000002"><a xlink:href="../../d7/d42/classCSwordModuleInfo.html" target="_top" xlink:title=" ">
<polygon fill="white" stroke="transparent" points="193,-869 0,-869 0,-130 193,-130 193,-869"/>
<text text-anchor="start" x="51" y="-856.5" font-family="Helvetica,sans-Serif" font-size="10.00">CSwordModuleInfo</text>
<text text-anchor="start" x="4.5" y="-841.5" font-family="Helvetica,sans-Serif" font-size="10.00">+</text>
<text text-anchor="start" x="17.5" y="-841.5" font-family="Helvetica,sans-Serif" font-size="10.00">footnotes</text>
<text text-anchor="start" x="4.5" y="-826.5" font-family="Helvetica,sans-Serif" font-size="10.00">+</text>
<text text-anchor="start" x="17.5" y="-826.5" font-family="Helvetica,sans-Serif" font-size="10.00">greekAccents</text>
<text text-anchor="start" x="4.5" y="-811.5" font-family="Helvetica,sans-Serif" font-size="10.00">+</text>
<text text-anchor="start" x="17.5" y="-811.5" font-family="Helvetica,sans-Serif" font-size="10.00">headings</text>
<text text-anchor="start" x="4.5" y="-796.5" font-family="Helvetica,sans-Serif" font-size="10.00">+</text>
<text text-anchor="start" x="17.5" y="-796.5" font-family="Helvetica,sans-Serif" font-size="10.00">hebrewCantillation</text>
<text text-anchor="start" x="4.5" y="-781.5" font-family="Helvetica,sans-Serif" font-size="10.00">+</text>
<text text-anchor="start" x="17.5" y="-781.5" font-family="Helvetica,sans-Serif" font-size="10.00">hebrewPoints</text>
<text text-anchor="start" x="4.5" y="-766.5" font-family="Helvetica,sans-Serif" font-size="10.00">+</text>
<text text-anchor="start" x="17.5" y="-766.5" font-family="Helvetica,sans-Serif" font-size="10.00">lemmas</text>
<text text-anchor="start" x="4.5" y="-751.5" font-family="Helvetica,sans-Serif" font-size="10.00">+</text>
<text text-anchor="start" x="17.5" y="-751.5" font-family="Helvetica,sans-Serif" font-size="10.00">morphSegmentation</text>
<text text-anchor="start" x="4.5" y="-736.5" font-family="Helvetica,sans-Serif" font-size="10.00">+</text>
<text text-anchor="start" x="17.5" y="-736.5" font-family="Helvetica,sans-Serif" font-size="10.00">morphTags</text>
<text text-anchor="start" x="4.5" y="-721.5" font-family="Helvetica,sans-Serif" font-size="10.00">+</text>
<text text-anchor="start" x="17.5" y="-721.5" font-family="Helvetica,sans-Serif" font-size="10.00">redLetterWords</text>
<text text-anchor="start" x="4.5" y="-706.5" font-family="Helvetica,sans-Serif" font-size="10.00">+</text>
<text text-anchor="start" x="17.5" y="-706.5" font-family="Helvetica,sans-Serif" font-size="10.00">scriptureReferences</text>
<text text-anchor="start" x="4.5" y="-691.5" font-family="Helvetica,sans-Serif" font-size="10.00">+</text>
<text text-anchor="start" x="17.5" y="-691.5" font-family="Helvetica,sans-Serif" font-size="10.00">strongNumbers</text>
<text text-anchor="start" x="4.5" y="-676.5" font-family="Helvetica,sans-Serif" font-size="10.00">+</text>
<text text-anchor="start" x="17.5" y="-676.5" font-family="Helvetica,sans-Serif" font-size="10.00">textualVariants</text>
<text text-anchor="start" x="7" y="-661.5" font-family="Helvetica,sans-Serif" font-size="10.00">&#45;</text>
<text text-anchor="start" x="17.5" y="-661.5" font-family="Helvetica,sans-Serif" font-size="10.00">m_backend</text>
<text text-anchor="start" x="7" y="-646.5" font-family="Helvetica,sans-Serif" font-size="10.00">&#45;</text>
<text text-anchor="start" x="17.5" y="-646.5" font-family="Helvetica,sans-Serif" font-size="10.00">m_cachedCategory</text>
<text text-anchor="start" x="7" y="-631.5" font-family="Helvetica,sans-Serif" font-size="10.00">&#45;</text>
<text text-anchor="start" x="17.5" y="-631.5" font-family="Helvetica,sans-Serif" font-size="10.00">m_cachedFeatures</text>
<text text-anchor="start" x="7" y="-616.5" font-family="Helvetica,sans-Serif" font-size="10.00">&#45;</text>
<text text-anchor="start" x="17.5" y="-616.5" font-family="Helvetica,sans-Serif" font-size="10.00">m_cachedGlossaryTargetLanguage</text>
<text text-anchor="start" x="7" y="-601.5" font-family="Helvetica,sans-Serif" font-size="10.00">&#45;</text>
<text text-anchor="start" x="17.5" y="-601.5" font-family="Helvetica,sans-Serif" font-size="10.00">m_cachedHasVersion</text>
<text text-anchor="start" x="7" y="-586.5" font-family="Helvetica,sans-Serif" font-size="10.00">&#45;</text>
<text text-anchor="start" x="17.5" y="-586.5" font-family="Helvetica,sans-Serif" font-size="10.00">m_cachedLanguage</text>
<text text-anchor="start" x="7" y="-571.5" font-family="Helvetica,sans-Serif" font-size="10.00">&#45;</text>
<text text-anchor="start" x="17.5" y="-571.5" font-family="Helvetica,sans-Serif" font-size="10.00">m_cachedName</text>
<text text-anchor="start" x="7" y="-556.5" font-family="Helvetica,sans-Serif" font-size="10.00">&#45;</text>
<text text-anchor="start" x="17.5" y="-556.5" font-family="Helvetica,sans-Serif" font-size="10.00">m_cancelIndexing</text>
<text text-anchor="start" x="7" y="-541.5" font-family="Helvetica,sans-Serif" font-size="10.00">&#45;</text>
<text text-anchor="start" x="17.5" y="-541.5" font-family="Helvetica,sans-Serif" font-size="10.00">m_hidden</text>
<text text-anchor="start" x="7" y="-526.5" font-family="Helvetica,sans-Serif" font-size="10.00">&#45;</text>
<text text-anchor="start" x="17.5" y="-526.5" font-family="Helvetica,sans-Serif" font-size="10.00">m_swordModule</text>
<text text-anchor="start" x="7" y="-511.5" font-family="Helvetica,sans-Serif" font-size="10.00">&#45;</text>
<text text-anchor="start" x="17.5" y="-511.5" font-family="Helvetica,sans-Serif" font-size="10.00">m_type</text>
<text text-anchor="start" x="4.5" y="-496.5" font-family="Helvetica,sans-Serif" font-size="10.00">+</text>
<text text-anchor="start" x="17.5" y="-496.5" font-family="Helvetica,sans-Serif" font-size="10.00">aboutText()</text>
<text text-anchor="start" x="4.5" y="-481.5" font-family="Helvetica,sans-Serif" font-size="10.00">+</text>
<text text-anchor="start" x="17.5" y="-481.5" font-family="Helvetica,sans-Serif" font-size="10.00">buildIndex()</text>
<text text-anchor="start" x="4.5" y="-466.5" font-family="Helvetica,sans-Serif" font-size="10.00">+</text>
<text text-anchor="start" x="17.5" y="-466.5" font-family="Helvetica,sans-Serif" font-size="10.00">category()</text>
<text text-anchor="start" x="4.5" y="-451.5" font-family="Helvetica,sans-Serif" font-size="10.00">+</text>
<text text-anchor="start" x="17.5" y="-451.5" font-family="Helvetica,sans-Serif" font-size="10.00">config()</text>
<text text-anchor="start" x="4.5" y="-436.5" font-family="Helvetica,sans-Serif" font-size="10.00">+</text>
<text text-anchor="start" x="17.5" y="-436.5" font-family="Helvetica,sans-Serif" font-size="10.00">createKey()</text>
<text text-anchor="start" x="4.5" y="-421.5" font-family="Helvetica,sans-Serif" font-size="10.00">+</text>
<text text-anchor="start" x="17.5" y="-421.5" font-family="Helvetica,sans-Serif" font-size="10.00">CSwordModuleInfo()</text>
<text text-anchor="start" x="4.5" y="-406.5" font-family="Helvetica,sans-Serif" font-size="10.00">+</text>
<text text-anchor="start" x="17.5" y="-406.5" font-family="Helvetica,sans-Serif" font-size="10.00">CSwordModuleInfo()</text>
<text text-anchor="start" x="4.5" y="-391.5" font-family="Helvetica,sans-Serif" font-size="10.00">+</text>
<text text-anchor="start" x="17.5" y="-391.5" font-family="Helvetica,sans-Serif" font-size="10.00">deleteIndex()</text>
<text text-anchor="start" x="4.5" y="-376.5" font-family="Helvetica,sans-Serif" font-size="10.00">+</text>
<text text-anchor="start" x="17.5" y="-376.5" font-family="Helvetica,sans-Serif" font-size="10.00">getModuleBaseIndexLocation()</text>
<text text-anchor="start" x="4.5" y="-361.5" font-family="Helvetica,sans-Serif" font-size="10.00">+</text>
<text text-anchor="start" x="17.5" y="-361.5" font-family="Helvetica,sans-Serif" font-size="10.00">getModuleStandardIndexLocation()</text>
<text text-anchor="start" x="17.5" y="-346.5" font-family="Helvetica,sans-Serif" font-size="10.00">and 28 more...</text>
<text text-anchor="start" x="4.5" y="-331.5" font-family="Helvetica,sans-Serif" font-size="10.00">+</text>
<text text-anchor="start" x="17.5" y="-331.5" font-family="Helvetica,sans-Serif" font-size="10.00">categoryIcon()</text>
<text text-anchor="start" x="4.5" y="-316.5" font-family="Helvetica,sans-Serif" font-size="10.00">+</text>
<text text-anchor="start" x="17.5" y="-316.5" font-family="Helvetica,sans-Serif" font-size="10.00">categoryIconAdd()</text>
<text text-anchor="start" x="4.5" y="-301.5" font-family="Helvetica,sans-Serif" font-size="10.00">+</text>
<text text-anchor="start" x="17.5" y="-301.5" font-family="Helvetica,sans-Serif" font-size="10.00">categoryIconAdd()</text>
<text text-anchor="start" x="4.5" y="-286.5" font-family="Helvetica,sans-Serif" font-size="10.00">+</text>
<text text-anchor="start" x="17.5" y="-286.5" font-family="Helvetica,sans-Serif" font-size="10.00">categoryIconLocked()</text>
<text text-anchor="start" x="4.5" y="-271.5" font-family="Helvetica,sans-Serif" font-size="10.00">+</text>
<text text-anchor="start" x="17.5" y="-271.5" font-family="Helvetica,sans-Serif" font-size="10.00">categoryName()</text>
<text text-anchor="start" x="4.5" y="-256.5" font-family="Helvetica,sans-Serif" font-size="10.00">+</text>
<text text-anchor="start" x="17.5" y="-256.5" font-family="Helvetica,sans-Serif" font-size="10.00">deleteIndexForModule()</text>
<text text-anchor="start" x="4.5" y="-241.5" font-family="Helvetica,sans-Serif" font-size="10.00">+</text>
<text text-anchor="start" x="17.5" y="-241.5" font-family="Helvetica,sans-Serif" font-size="10.00">getGlobalBaseIndexLocation()</text>
<text text-anchor="start" x="4.5" y="-226.5" font-family="Helvetica,sans-Serif" font-size="10.00">+</text>
<text text-anchor="start" x="17.5" y="-226.5" font-family="Helvetica,sans-Serif" font-size="10.00">cancelIndexing()</text>
<text text-anchor="start" x="4.5" y="-211.5" font-family="Helvetica,sans-Serif" font-size="10.00">#</text>
<text text-anchor="start" x="17.5" y="-211.5" font-family="Helvetica,sans-Serif" font-size="10.00">backend()</text>
<text text-anchor="start" x="4.5" y="-196.5" font-family="Helvetica,sans-Serif" font-size="10.00">#</text>
<text text-anchor="start" x="17.5" y="-196.5" font-family="Helvetica,sans-Serif" font-size="10.00">CSwordModuleInfo()</text>
<text text-anchor="start" x="4.5" y="-181.5" font-family="Helvetica,sans-Serif" font-size="10.00">#</text>
<text text-anchor="start" x="17.5" y="-181.5" font-family="Helvetica,sans-Serif" font-size="10.00">getFormattedConfigEntry()</text>
<text text-anchor="start" x="4.5" y="-166.5" font-family="Helvetica,sans-Serif" font-size="10.00">#</text>
<text text-anchor="start" x="17.5" y="-166.5" font-family="Helvetica,sans-Serif" font-size="10.00">getSimpleConfigEntry()</text>
<text text-anchor="start" x="4.5" y="-151.5" font-family="Helvetica,sans-Serif" font-size="10.00">#</text>
<text text-anchor="start" x="17.5" y="-151.5" font-family="Helvetica,sans-Serif" font-size="10.00">hasImportantFilterOption()</text>
<text text-anchor="start" x="4.5" y="-136.5" font-family="Helvetica,sans-Serif" font-size="10.00">#</text>
<text text-anchor="start" x="17.5" y="-136.5" font-family="Helvetica,sans-Serif" font-size="10.00">setImportantFilterOptions()</text>
<polygon fill="#666666" stroke="#666666" points="0.5,-851.5 0.5,-851.5 193.5,-851.5 193.5,-851.5 0.5,-851.5"/>
<polygon fill="#666666" stroke="#666666" points="0.5,-506.5 0.5,-506.5 15.5,-506.5 15.5,-506.5 0.5,-506.5"/>
<polygon fill="#666666" stroke="#666666" points="15.5,-506.5 15.5,-506.5 193.5,-506.5 193.5,-506.5 15.5,-506.5"/>
<polygon fill="none" stroke="#666666" points="0,-130 0,-869 193,-869 193,-130 0,-130"/>
</a>
</g>
</g>
<!-- Node2&#45;&gt;Node1 -->
<g id="edge1_Node000001_Node000002" class="edge">
<title>Node2&#45;&gt;Node1</title>
<g id="a_edge1_Node000001_Node000002"><a xlink:title=" ">
<path fill="none" stroke="#63b8ff" d="M96.5,-119.66C96.5,-110.51 96.5,-102 96.5,-94.28"/>
<polygon fill="none" stroke="#63b8ff" points="93,-119.84 96.5,-129.84 100,-119.84 93,-119.84"/>
</a>
</g>
</g>
<!-- Node3 -->
<g id="Node000003" class="node">
<title>Node3</title>
<g id="a_Node000003"><a xlink:href="../../d9/d5b/classQObject.html" target="_top" xlink:title=" ">
<polygon fill="white" stroke="transparent" points="121.5,-954 71.5,-954 71.5,-905 121.5,-905 121.5,-954"/>
<text text-anchor="start" x="76.5" y="-941.5" font-family="Helvetica,sans-Serif" font-size="10.00">QObject</text>
<text text-anchor="start" x="94.5" y="-926.5" font-family="Helvetica,sans-Serif" font-size="10.00"> </text>
<text text-anchor="start" x="94.5" y="-911.5" font-family="Helvetica,sans-Serif" font-size="10.00"> </text>
<polygon fill="#666666" stroke="#666666" points="71.5,-936.5 71.5,-936.5 121.5,-936.5 121.5,-936.5 71.5,-936.5"/>
<polygon fill="#666666" stroke="#666666" points="71.5,-921.5 71.5,-921.5 121.5,-921.5 121.5,-921.5 71.5,-921.5"/>
<polygon fill="none" stroke="#666666" points="71.5,-905 71.5,-954 121.5,-954 121.5,-905 71.5,-905"/>
</a>
</g>
</g>
<!-- Node3&#45;&gt;Node2 -->
<g id="edge2_Node000002_Node000003" class="edge">
<title>Node3&#45;&gt;Node2</title>
<g id="a_edge2_Node000002_Node000003"><a xlink:title=" ">
<path fill="none" stroke="#63b8ff" d="M96.5,-894.68C96.5,-887.18 96.5,-878.64 96.5,-869.23"/>
<polygon fill="none" stroke="#63b8ff" points="93,-894.88 96.5,-904.88 100,-894.88 93,-894.88"/>
</a>
</g>
</g>
</g>
</svg>

<g id="navigator" transform="translate(0 0)" fill="#404254">
  <rect fill="#f2f5e9" fill-opacity="0.5" stroke="#606060" stroke-width=".5" x="0" y="0" width="60" height="60"/>
  <use id="zoomplus" xlink:href="#zoomPlus" x="17" y="9" onmousedown="handleZoom(evt,'in')"/>
  <use id="zoomminus" xlink:href="#zoomMin" x="42" y="9" onmousedown="handleZoom(evt,'out')"/>
  <use id="reset" xlink:href="#resetDef" x="30" y="36" onmousedown="handleReset()"/>
   <use id="arrowup" xlink:href="#arrowUp" x="0" y="0" onmousedown="handlePan(0,-1)"/>
  <use id="arrowright" xlink:href="#arrowRight" x="0" y="0" onmousedown="handlePan(1,0)"/>
  <use id="arrowdown" xlink:href="#arrowDown" x="0" y="0" onmousedown="handlePan(0,1)"/>
  <use id="arrowleft" xlink:href="#arrowLeft" x="0" y="0" onmousedown="handlePan(-1,0)"/>
</g>
<svg viewBox="0 0 15 15" width="100%" height="30px" preserveAspectRatio="xMaxYMin meet">
 <g id="arrow_out" transform="scale(0.3 0.3)">
  <a xlink:href="classCSwordBookModuleInfo__inherit__graph_org.svg" target="_base">
   <rect id="button" ry="5" rx="5" y="6" x="6" height="38" width="38"
        fill="#f2f5e9" fill-opacity="0.5" stroke="#606060" stroke-width="1.0"/>
   <path id="arrow"
     d="M 11.500037,31.436501 C 11.940474,20.09759 22.043105,11.32322 32.158766,21.979434 L 37.068811,17.246167 C 37.068811,17.246167 37.088388,32 37.088388,32 L 22.160133,31.978069 C 22.160133,31.978069 26.997745,27.140456 26.997745,27.140456 C 18.528582,18.264221 13.291696,25.230495 11.500037,31.436501 z"
     style="fill:#404040;"/>
  </a>
 </g>
</svg>

<style type='text/css'>
<![CDATA[
[data-mouse-over-selected='false'] { opacity: 0.7; }
[data-mouse-over-selected='true']  { opacity: 1.0; }
]]>
</style>
<script type="application/ecmascript"><![CDATA[
document.addEventListener('DOMContentLoaded', (event) => {
  highlightEdges();
  highlightAdjacentNodes();
});
]]></script>
</svg>
