<?xml version="1.0" encoding="UTF-8" standalone="no"?>
<!DOCTYPE svg PUBLIC "-//W3C//DTD SVG 1.1//EN"
 "http://www.w3.org/Graphics/SVG/1.1/DTD/svg11.dtd">
<!-- Generated by graphviz version 2.43.0 (0)
 -->
<!-- Title: QGraphicsView Pages: 1 -->
<svg width="169pt" height="171pt"
 viewBox="0.00 0.00 169.00 171.00" xmlns="http://www.w3.org/2000/svg" xmlns:xlink="http://www.w3.org/1999/xlink">
<g id="graph0" class="graph" transform="scale(1 1) rotate(0) translate(4 167)">
<title>QGraphicsView</title>
<polygon fill="white" stroke="transparent" points="-4,4 -4,-167 165,-167 165,4 -4,4"/>
<!-- Node1 -->
<g id="node1" class="node">
<title>Node1</title>
<g id="a_node1"><a xlink:title=" ">
<polygon fill="#bfbfbf" stroke="black" points="35,-105.5 35,-162.5 126,-162.5 126,-105.5 35,-105.5"/>
<text text-anchor="middle" x="80.5" y="-150.5" font-family="Helvetica,sans-Serif" font-size="10.00">QGraphicsView</text>
<polyline fill="none" stroke="black" points="35,-143.5 126,-143.5 "/>
<text text-anchor="middle" x="80.5" y="-131.5" font-family="Helvetica,sans-Serif" font-size="10.00"> </text>
<polyline fill="none" stroke="black" points="35,-124.5 126,-124.5 "/>
<text text-anchor="middle" x="80.5" y="-112.5" font-family="Helvetica,sans-Serif" font-size="10.00"> </text>
</a>
</g>
</g>
<!-- Node2 -->
<g id="node2" class="node">
<title>Node2</title>
<g id="a_node2"><a xlink:href="../../d7/dcf/classSearch_1_1CSearchAnalysisView.html" target="_top" xlink:title=" ">
<polygon fill="white" stroke="black" points="0,-0.5 0,-68.5 161,-68.5 161,-0.5 0,-0.5"/>
<text text-anchor="middle" x="80.5" y="-56.5" font-family="Helvetica,sans-Serif" font-size="10.00">Search::CSearchAnalysisView</text>
<polyline fill="none" stroke="black" points="0,-49.5 161,-49.5 "/>
<text text-anchor="middle" x="80.5" y="-37.5" font-family="Helvetica,sans-Serif" font-size="10.00"> </text>
<polyline fill="none" stroke="black" points="0,-30.5 161,-30.5 "/>
<text text-anchor="start" x="8" y="-18.5" font-family="Helvetica,sans-Serif" font-size="10.00">+ CSearchAnalysisView()</text>
<text text-anchor="start" x="8" y="-7.5" font-family="Helvetica,sans-Serif" font-size="10.00"># resizeEvent()</text>
</a>
</g>
</g>
<!-- Node1&#45;&gt;Node2 -->
<g id="edge1" class="edge">
<title>Node1&#45;&gt;Node2</title>
<path fill="none" stroke="midnightblue" d="M80.5,-95.06C80.5,-86.39 80.5,-77.24 80.5,-68.79"/>
<polygon fill="none" stroke="midnightblue" points="77,-95.32 80.5,-105.32 84,-95.32 77,-95.32"/>
</g>
</g>
</svg>
