<?xml version="1.0" encoding="UTF-8" standalone="no"?>
<!DOCTYPE svg PUBLIC "-//W3C//DTD SVG 1.1//EN"
 "http://www.w3.org/Graphics/SVG/1.1/DTD/svg11.dtd">
<!-- Generated by graphviz version 2.43.0 (0)
 -->
<!-- Title: btinstallbackend.h Pages: 1 -->
<svg width="1238pt" height="82pt"
 viewBox="0.00 0.00 1238.00 82.00" xmlns="http://www.w3.org/2000/svg" xmlns:xlink="http://www.w3.org/1999/xlink">
<g id="graph0" class="graph" transform="scale(1 1) rotate(0) translate(4 78)">
<title>btinstallbackend.h</title>
<!-- Node1 -->
<g id="Node000001" class="node">
<title>Node1</title>
<g id="a_Node000001"><a xlink:title=" ">
<polygon fill="#999999" stroke="#666666" points="699,-74 593,-74 593,-55 699,-55 699,-74"/>
<text text-anchor="middle" x="646" y="-62" font-family="Helvetica,sans-Serif" font-size="10.00">btinstallbackend.h</text>
</a>
</g>
</g>
<!-- Node2 -->
<g id="Node000002" class="node">
<title>Node2</title>
<g id="a_Node000002"><a xlink:href="../../d0/da5/btbookshelflanguagespage_8cpp.html" target="_top" xlink:title=" ">
<polygon fill="white" stroke="#666666" points="168,-19 0,-19 0,0 168,0 168,-19"/>
<text text-anchor="middle" x="84" y="-7" font-family="Helvetica,sans-Serif" font-size="10.00">btbookshelflanguagespage.cpp</text>
</a>
</g>
</g>
<!-- Node1&#45;&gt;Node2 -->
<g id="edge1_Node000001_Node000002" class="edge">
<title>Node1&#45;&gt;Node2</title>
<g id="a_edge1_Node000001_Node000002"><a xlink:title=" ">
<path fill="none" stroke="#63b8ff" d="M582.77,-57.54C481.26,-47.96 281.84,-29.16 168.32,-18.45"/>
<polygon fill="#63b8ff" stroke="#63b8ff" points="582.59,-61.04 592.88,-58.49 583.25,-54.07 582.59,-61.04"/>
</a>
</g>
</g>
<!-- Node3 -->
<g id="Node000003" class="node">
<title>Node3</title>
<g id="a_Node000003"><a xlink:href="../../da/dde/btbookshelfsourcespage_8cpp.html" target="_top" xlink:title=" ">
<polygon fill="white" stroke="#666666" points="342,-19 186,-19 186,0 342,0 342,-19"/>
<text text-anchor="middle" x="264" y="-7" font-family="Helvetica,sans-Serif" font-size="10.00">btbookshelfsourcespage.cpp</text>
</a>
</g>
</g>
<!-- Node1&#45;&gt;Node3 -->
<g id="edge2_Node000001_Node000003" class="edge">
<title>Node1&#45;&gt;Node3</title>
<g id="a_edge2_Node000001_Node000003"><a xlink:title=" ">
<path fill="none" stroke="#63b8ff" d="M582.69,-54.72C511.33,-44.82 396.11,-28.83 325.51,-19.03"/>
<polygon fill="#63b8ff" stroke="#63b8ff" points="582.5,-58.22 592.88,-56.13 583.46,-51.29 582.5,-58.22"/>
</a>
</g>
</g>
<!-- Node4 -->
<g id="Node000004" class="node">
<title>Node4</title>
<g id="a_Node000004"><a xlink:href="../../d9/d03/btbookshelfworkspage_8cpp.html" target="_top" xlink:title=" ">
<polygon fill="white" stroke="#666666" points="507.5,-19 360.5,-19 360.5,0 507.5,0 507.5,-19"/>
<text text-anchor="middle" x="434" y="-7" font-family="Helvetica,sans-Serif" font-size="10.00">btbookshelfworkspage.cpp</text>
</a>
</g>
</g>
<!-- Node1&#45;&gt;Node4 -->
<g id="edge3_Node000001_Node000004" class="edge">
<title>Node1&#45;&gt;Node4</title>
<g id="a_edge3_Node000001_Node000004"><a xlink:title=" ">
<path fill="none" stroke="#63b8ff" d="M602,-52.5C562.31,-42.58 504.72,-28.18 468.33,-19.08"/>
<polygon fill="#63b8ff" stroke="#63b8ff" points="601.39,-55.95 611.94,-54.98 603.09,-49.16 601.39,-55.95"/>
</a>
</g>
</g>
<!-- Node5 -->
<g id="Node000005" class="node">
<title>Node5</title>
<g id="a_Node000005"><a xlink:href="../../db/dd7/btinstallbackend_8cpp.html" target="_top" xlink:title=" ">
<polygon fill="white" stroke="#666666" points="642.5,-19 525.5,-19 525.5,0 642.5,0 642.5,-19"/>
<text text-anchor="middle" x="584" y="-7" font-family="Helvetica,sans-Serif" font-size="10.00">btinstallbackend.cpp</text>
</a>
</g>
</g>
<!-- Node1&#45;&gt;Node5 -->
<g id="edge4_Node000001_Node000005" class="edge">
<title>Node1&#45;&gt;Node5</title>
<g id="a_edge4_Node000001_Node000005"><a xlink:title=" ">
<path fill="none" stroke="#63b8ff" d="M628.25,-48.32C617.19,-38.87 603.37,-27.06 594.14,-19.17"/>
<polygon fill="#63b8ff" stroke="#63b8ff" points="626.16,-51.15 636.04,-54.98 630.71,-45.83 626.16,-51.15"/>
</a>
</g>
</g>
<!-- Node6 -->
<g id="Node000006" class="node">
<title>Node6</title>
<g id="a_Node000006"><a xlink:href="../../d5/db0/btinstallmgr_8cpp.html" target="_top" xlink:title=" ">
<polygon fill="white" stroke="#666666" points="755.5,-19 660.5,-19 660.5,0 755.5,0 755.5,-19"/>
<text text-anchor="middle" x="708" y="-7" font-family="Helvetica,sans-Serif" font-size="10.00">btinstallmgr.cpp</text>
</a>
</g>
</g>
<!-- Node1&#45;&gt;Node6 -->
<g id="edge5_Node000001_Node000006" class="edge">
<title>Node1&#45;&gt;Node6</title>
<g id="a_edge5_Node000001_Node000006"><a xlink:title=" ">
<path fill="none" stroke="#63b8ff" d="M663.75,-48.32C674.81,-38.87 688.63,-27.06 697.86,-19.17"/>
<polygon fill="#63b8ff" stroke="#63b8ff" points="661.29,-45.83 655.96,-54.98 665.84,-51.15 661.29,-45.83"/>
</a>
</g>
</g>
<!-- Node7 -->
<g id="Node000007" class="node">
<title>Node7</title>
<g id="a_Node000007"><a xlink:href="../../d5/daf/btinstallthread_8cpp.html" target="_top" xlink:title=" ">
<polygon fill="white" stroke="#666666" points="882,-19 774,-19 774,0 882,0 882,-19"/>
<text text-anchor="middle" x="828" y="-7" font-family="Helvetica,sans-Serif" font-size="10.00">btinstallthread.cpp</text>
</a>
</g>
</g>
<!-- Node1&#45;&gt;Node7 -->
<g id="edge6_Node000001_Node000007" class="edge">
<title>Node1&#45;&gt;Node7</title>
<g id="a_edge6_Node000001_Node000007"><a xlink:title=" ">
<path fill="none" stroke="#63b8ff" d="M684.86,-52.18C718.9,-42.27 767.62,-28.08 798.53,-19.08"/>
<polygon fill="#63b8ff" stroke="#63b8ff" points="683.86,-48.83 675.24,-54.98 685.82,-55.55 683.86,-48.83"/>
</a>
</g>
</g>
<!-- Node8 -->
<g id="Node000008" class="node">
<title>Node8</title>
<g id="a_Node000008"><a xlink:href="../../de/d0c/btsourcesthread_8cpp.html" target="_top" xlink:title=" ">
<polygon fill="white" stroke="#666666" points="1016,-19 900,-19 900,0 1016,0 1016,-19"/>
<text text-anchor="middle" x="958" y="-7" font-family="Helvetica,sans-Serif" font-size="10.00">btsourcesthread.cpp</text>
</a>
</g>
</g>
<!-- Node1&#45;&gt;Node8 -->
<g id="edge7_Node000001_Node000008" class="edge">
<title>Node1&#45;&gt;Node8</title>
<g id="a_edge7_Node000001_Node000008"><a xlink:title=" ">
<path fill="none" stroke="#63b8ff" d="M705.99,-53.31C764.57,-43.36 852.73,-28.38 907.74,-19.04"/>
<polygon fill="#63b8ff" stroke="#63b8ff" points="705.4,-49.86 696.13,-54.98 706.57,-56.76 705.4,-49.86"/>
</a>
</g>
</g>
<!-- Node9 -->
<g id="Node000009" class="node">
<title>Node9</title>
<g id="a_Node000009"><a xlink:href="../../d8/dc3/cswordsetupinstallsourcesdialog_8cpp.html" target="_top" xlink:title=" ">
<polygon fill="white" stroke="#666666" points="1230,-19 1034,-19 1034,0 1230,0 1230,-19"/>
<text text-anchor="middle" x="1132" y="-7" font-family="Helvetica,sans-Serif" font-size="10.00">cswordsetupinstallsourcesdialog.cpp</text>
</a>
</g>
</g>
<!-- Node1&#45;&gt;Node9 -->
<g id="edge8_Node000001_Node000009" class="edge">
<title>Node1&#45;&gt;Node9</title>
<g id="a_edge8_Node000001_Node000009"><a xlink:title=" ">
<path fill="none" stroke="#63b8ff" d="M709.56,-56.57C797.98,-46.93 958.01,-29.47 1053.69,-19.04"/>
<polygon fill="#63b8ff" stroke="#63b8ff" points="708.96,-53.11 699.4,-57.68 709.72,-60.07 708.96,-53.11"/>
</a>
</g>
</g>
</g>
</svg>
