<?xml version="1.0" encoding="UTF-8" standalone="no"?>
<!DOCTYPE svg PUBLIC "-//W3C//DTD SVG 1.1//EN"
 "http://www.w3.org/Graphics/SVG/1.1/DTD/svg11.dtd">
<!-- Generated by graphviz version 2.43.0 (0)
 -->
<!-- Title: btinstallbackend.h Pages: 1 -->
<svg width="1239pt" height="84pt"
 viewBox="0.00 0.00 1238.50 84.00" xmlns="http://www.w3.org/2000/svg" xmlns:xlink="http://www.w3.org/1999/xlink">
<g id="graph0" class="graph" transform="scale(1 1) rotate(0) translate(4 80)">
<title>btinstallbackend.h</title>
<polygon fill="white" stroke="transparent" points="-4,4 -4,-80 1234.5,-80 1234.5,4 -4,4"/>
<!-- Node1 -->
<g id="node1" class="node">
<title>Node1</title>
<g id="a_node1"><a xlink:title=" ">
<polygon fill="#bfbfbf" stroke="black" points="459.5,-56.5 459.5,-75.5 565.5,-75.5 565.5,-56.5 459.5,-56.5"/>
<text text-anchor="middle" x="512.5" y="-63.5" font-family="Helvetica,sans-Serif" font-size="10.00">btinstallbackend.h</text>
</a>
</g>
</g>
<!-- Node2 -->
<g id="node2" class="node">
<title>Node2</title>
<g id="a_node2"><a xlink:href="../../db/dd7/btinstallbackend_8cpp.html" target="_top" xlink:title=" ">
<polygon fill="white" stroke="black" points="0,-0.5 0,-19.5 117,-19.5 117,-0.5 0,-0.5"/>
<text text-anchor="middle" x="58.5" y="-7.5" font-family="Helvetica,sans-Serif" font-size="10.00">btinstallbackend.cpp</text>
</a>
</g>
</g>
<!-- Node1&#45;&gt;Node2 -->
<g id="edge1" class="edge">
<title>Node1&#45;&gt;Node2</title>
<path fill="none" stroke="midnightblue" d="M449.28,-58C372.62,-49.43 239.51,-34.28 125.5,-20 122.82,-19.66 120.08,-19.32 117.32,-18.96"/>
<polygon fill="midnightblue" stroke="midnightblue" points="448.93,-61.48 459.25,-59.11 449.7,-54.52 448.93,-61.48"/>
</g>
<!-- Node3 -->
<g id="node3" class="node">
<title>Node3</title>
<g id="a_node3"><a xlink:href="../../d5/db0/btinstallmgr_8cpp.html" target="_top" xlink:title=" ">
<polygon fill="white" stroke="black" points="135,-0.5 135,-19.5 230,-19.5 230,-0.5 135,-0.5"/>
<text text-anchor="middle" x="182.5" y="-7.5" font-family="Helvetica,sans-Serif" font-size="10.00">btinstallmgr.cpp</text>
</a>
</g>
</g>
<!-- Node1&#45;&gt;Node3 -->
<g id="edge2" class="edge">
<title>Node1&#45;&gt;Node3</title>
<path fill="none" stroke="midnightblue" d="M450.26,-54.82C386.36,-44.36 288.29,-28.31 230.26,-18.82"/>
<polygon fill="midnightblue" stroke="midnightblue" points="449.78,-58.28 460.21,-56.44 450.91,-51.37 449.78,-58.28"/>
</g>
<!-- Node4 -->
<g id="node4" class="node">
<title>Node4</title>
<g id="a_node4"><a xlink:href="../../d5/daf/btinstallthread_8cpp.html" target="_top" xlink:title=" ">
<polygon fill="white" stroke="black" points="248.5,-0.5 248.5,-19.5 356.5,-19.5 356.5,-0.5 248.5,-0.5"/>
<text text-anchor="middle" x="302.5" y="-7.5" font-family="Helvetica,sans-Serif" font-size="10.00">btinstallthread.cpp</text>
</a>
</g>
</g>
<!-- Node1&#45;&gt;Node4 -->
<g id="edge3" class="edge">
<title>Node1&#45;&gt;Node4</title>
<path fill="none" stroke="midnightblue" d="M469.31,-53.89C429.65,-43.7 371.73,-28.8 335.62,-19.52"/>
<polygon fill="midnightblue" stroke="midnightblue" points="468.67,-57.34 479.22,-56.44 470.41,-50.56 468.67,-57.34"/>
</g>
<!-- Node5 -->
<g id="node5" class="node">
<title>Node5</title>
<g id="a_node5"><a xlink:href="../../de/d0c/btsourcesthread_8cpp.html" target="_top" xlink:title=" ">
<polygon fill="white" stroke="black" points="374.5,-0.5 374.5,-19.5 490.5,-19.5 490.5,-0.5 374.5,-0.5"/>
<text text-anchor="middle" x="432.5" y="-7.5" font-family="Helvetica,sans-Serif" font-size="10.00">btsourcesthread.cpp</text>
</a>
</g>
</g>
<!-- Node1&#45;&gt;Node5 -->
<g id="edge4" class="edge">
<title>Node1&#45;&gt;Node5</title>
<path fill="none" stroke="midnightblue" d="M491.2,-50.62C476.58,-40.76 457.67,-27.99 445.32,-19.65"/>
<polygon fill="midnightblue" stroke="midnightblue" points="489.4,-53.63 499.65,-56.32 493.32,-47.83 489.4,-53.63"/>
</g>
<!-- Node6 -->
<g id="node6" class="node">
<title>Node6</title>
<g id="a_node6"><a xlink:href="../../d0/da5/btbookshelflanguagespage_8cpp.html" target="_top" xlink:title=" ">
<polygon fill="white" stroke="black" points="508.5,-0.5 508.5,-19.5 676.5,-19.5 676.5,-0.5 508.5,-0.5"/>
<text text-anchor="middle" x="592.5" y="-7.5" font-family="Helvetica,sans-Serif" font-size="10.00">btbookshelflanguagespage.cpp</text>
</a>
</g>
</g>
<!-- Node1&#45;&gt;Node6 -->
<g id="edge5" class="edge">
<title>Node1&#45;&gt;Node6</title>
<path fill="none" stroke="midnightblue" d="M533.8,-50.62C548.42,-40.76 567.33,-27.99 579.68,-19.65"/>
<polygon fill="midnightblue" stroke="midnightblue" points="531.68,-47.83 525.35,-56.32 535.6,-53.63 531.68,-47.83"/>
</g>
<!-- Node7 -->
<g id="node7" class="node">
<title>Node7</title>
<g id="a_node7"><a xlink:href="../../da/dde/btbookshelfsourcespage_8cpp.html" target="_top" xlink:title=" ">
<polygon fill="white" stroke="black" points="694.5,-0.5 694.5,-19.5 850.5,-19.5 850.5,-0.5 694.5,-0.5"/>
<text text-anchor="middle" x="772.5" y="-7.5" font-family="Helvetica,sans-Serif" font-size="10.00">btbookshelfsourcespage.cpp</text>
</a>
</g>
</g>
<!-- Node1&#45;&gt;Node7 -->
<g id="edge6" class="edge">
<title>Node1&#45;&gt;Node7</title>
<path fill="none" stroke="midnightblue" d="M563.49,-54.41C612.63,-44.2 686.03,-28.96 731.49,-19.52"/>
<polygon fill="midnightblue" stroke="midnightblue" points="562.78,-50.98 553.7,-56.44 564.2,-57.84 562.78,-50.98"/>
</g>
<!-- Node8 -->
<g id="node8" class="node">
<title>Node8</title>
<g id="a_node8"><a xlink:href="../../d9/d03/btbookshelfworkspage_8cpp.html" target="_top" xlink:title=" ">
<polygon fill="white" stroke="black" points="869,-0.5 869,-19.5 1016,-19.5 1016,-0.5 869,-0.5"/>
<text text-anchor="middle" x="942.5" y="-7.5" font-family="Helvetica,sans-Serif" font-size="10.00">btbookshelfworkspage.cpp</text>
</a>
</g>
</g>
<!-- Node1&#45;&gt;Node8 -->
<g id="edge7" class="edge">
<title>Node1&#45;&gt;Node8</title>
<path fill="none" stroke="midnightblue" d="M575.58,-57.08C655.45,-47.05 792.52,-29.84 874.61,-19.53"/>
<polygon fill="midnightblue" stroke="midnightblue" points="575.14,-53.61 565.66,-58.32 576.02,-60.55 575.14,-53.61"/>
</g>
<!-- Node9 -->
<g id="node9" class="node">
<title>Node9</title>
<g id="a_node9"><a xlink:href="../../d8/dc3/cswordsetupinstallsourcesdialog_8cpp.html" target="_top" xlink:title=" ">
<polygon fill="white" stroke="black" points="1034.5,-0.5 1034.5,-19.5 1230.5,-19.5 1230.5,-0.5 1034.5,-0.5"/>
<text text-anchor="middle" x="1132.5" y="-7.5" font-family="Helvetica,sans-Serif" font-size="10.00">cswordsetupinstallsourcesdialog.cpp</text>
</a>
</g>
</g>
<!-- Node1&#45;&gt;Node9 -->
<g id="edge8" class="edge">
<title>Node1&#45;&gt;Node9</title>
<path fill="none" stroke="midnightblue" d="M575.76,-59.49C684.16,-50.05 906.15,-30.71 1034.65,-19.52"/>
<polygon fill="midnightblue" stroke="midnightblue" points="575.29,-56.02 565.63,-60.37 575.89,-62.99 575.29,-56.02"/>
</g>
</g>
</svg>
