<?xml version="1.0" encoding="UTF-8" standalone="no"?>
<!DOCTYPE svg PUBLIC "-//W3C//DTD SVG 1.1//EN"
 "http://www.w3.org/Graphics/SVG/1.1/DTD/svg11.dtd">
<!-- Generated by graphviz version 2.43.0 (0)
 -->
<!-- Title: BtBookshelfWizardPage Pages: 1 -->
<svg width="1247pt" height="568pt"
 viewBox="0.00 0.00 1247.00 568.00" xmlns="http://www.w3.org/2000/svg" xmlns:xlink="http://www.w3.org/1999/xlink">
<g id="graph0" class="graph" transform="scale(1 1) rotate(0) translate(4 564)">
<title>BtBookshelfWizardPage</title>
<!-- Node1 -->
<g id="Node000001" class="node">
<title>Node1</title>
<g id="a_Node000001"><a xlink:title=" ">
<polygon fill="#999999" stroke="transparent" points="707,-475 562,-475 562,-411 707,-411 707,-475"/>
<text text-anchor="start" x="576.5" y="-463" font-family="Helvetica,sans-Serif" font-size="10.00">BtBookshelfWizardPage</text>
<text text-anchor="start" x="633" y="-448" font-family="Helvetica,sans-Serif" font-size="10.00"> </text>
<text text-anchor="start" x="566.5" y="-433" font-family="Helvetica,sans-Serif" font-size="10.00">+</text>
<text text-anchor="start" x="579.5" y="-433" font-family="Helvetica,sans-Serif" font-size="10.00">BtBookshelfWizardPage()</text>
<text text-anchor="start" x="566.5" y="-418" font-family="Helvetica,sans-Serif" font-size="10.00">+</text>
<text text-anchor="start" x="579.5" y="-418" font-family="Helvetica,sans-Serif" font-size="10.00">btWizard()</text>
<polygon fill="#666666" stroke="#666666" points="562.5,-458 562.5,-458 707.5,-458 707.5,-458 562.5,-458"/>
<polygon fill="#666666" stroke="#666666" points="562.5,-443 562.5,-443 707.5,-443 707.5,-443 562.5,-443"/>
<polygon fill="none" stroke="#666666" points="562,-411 562,-475 707,-475 707,-411 562,-411"/>
</a>
</g>
</g>
<!-- Node3 -->
<g id="Node000003" class="node">
<title>Node3</title>
<g id="a_Node000003"><a xlink:href="../../de/d0a/classBtBookshelfInstallFinalPage.html" target="_top" xlink:title=" ">
<polygon fill="white" stroke="transparent" points="165,-375 0,-375 0,0 165,0 165,-375"/>
<text text-anchor="start" x="15" y="-362.5" font-family="Helvetica,sans-Serif" font-size="10.00">BtBookshelfInstallFinalPage</text>
<text text-anchor="start" x="7" y="-347.5" font-family="Helvetica,sans-Serif" font-size="10.00">&#45;</text>
<text text-anchor="start" x="17.5" y="-347.5" font-family="Helvetica,sans-Serif" font-size="10.00">m_installCompleted</text>
<text text-anchor="start" x="7" y="-332.5" font-family="Helvetica,sans-Serif" font-size="10.00">&#45;</text>
<text text-anchor="start" x="17.5" y="-332.5" font-family="Helvetica,sans-Serif" font-size="10.00">m_installFailed</text>
<text text-anchor="start" x="7" y="-317.5" font-family="Helvetica,sans-Serif" font-size="10.00">&#45;</text>
<text text-anchor="start" x="17.5" y="-317.5" font-family="Helvetica,sans-Serif" font-size="10.00">m_lastStatus</text>
<text text-anchor="start" x="7" y="-302.5" font-family="Helvetica,sans-Serif" font-size="10.00">&#45;</text>
<text text-anchor="start" x="17.5" y="-302.5" font-family="Helvetica,sans-Serif" font-size="10.00">m_modules</text>
<text text-anchor="start" x="7" y="-287.5" font-family="Helvetica,sans-Serif" font-size="10.00">&#45;</text>
<text text-anchor="start" x="17.5" y="-287.5" font-family="Helvetica,sans-Serif" font-size="10.00">m_msgLabel</text>
<text text-anchor="start" x="7" y="-272.5" font-family="Helvetica,sans-Serif" font-size="10.00">&#45;</text>
<text text-anchor="start" x="17.5" y="-272.5" font-family="Helvetica,sans-Serif" font-size="10.00">m_msgLabel2</text>
<text text-anchor="start" x="7" y="-257.5" font-family="Helvetica,sans-Serif" font-size="10.00">&#45;</text>
<text text-anchor="start" x="17.5" y="-257.5" font-family="Helvetica,sans-Serif" font-size="10.00">m_progressBar</text>
<text text-anchor="start" x="7" y="-242.5" font-family="Helvetica,sans-Serif" font-size="10.00">&#45;</text>
<text text-anchor="start" x="17.5" y="-242.5" font-family="Helvetica,sans-Serif" font-size="10.00">m_stopButton</text>
<text text-anchor="start" x="7" y="-227.5" font-family="Helvetica,sans-Serif" font-size="10.00">&#45;</text>
<text text-anchor="start" x="17.5" y="-227.5" font-family="Helvetica,sans-Serif" font-size="10.00">m_thread</text>
<text text-anchor="start" x="7" y="-212.5" font-family="Helvetica,sans-Serif" font-size="10.00">&#45;</text>
<text text-anchor="start" x="17.5" y="-212.5" font-family="Helvetica,sans-Serif" font-size="10.00">m_verticalLayout</text>
<text text-anchor="start" x="4.5" y="-197.5" font-family="Helvetica,sans-Serif" font-size="10.00">+</text>
<text text-anchor="start" x="17.5" y="-197.5" font-family="Helvetica,sans-Serif" font-size="10.00">BtBookshelfInstallFinalPage()</text>
<text text-anchor="start" x="4.5" y="-182.5" font-family="Helvetica,sans-Serif" font-size="10.00">+</text>
<text text-anchor="start" x="17.5" y="-182.5" font-family="Helvetica,sans-Serif" font-size="10.00">destroyThread()</text>
<text text-anchor="start" x="4.5" y="-167.5" font-family="Helvetica,sans-Serif" font-size="10.00">+</text>
<text text-anchor="start" x="17.5" y="-167.5" font-family="Helvetica,sans-Serif" font-size="10.00">initializePage()</text>
<text text-anchor="start" x="4.5" y="-152.5" font-family="Helvetica,sans-Serif" font-size="10.00">+</text>
<text text-anchor="start" x="17.5" y="-152.5" font-family="Helvetica,sans-Serif" font-size="10.00">isComplete()</text>
<text text-anchor="start" x="4.5" y="-137.5" font-family="Helvetica,sans-Serif" font-size="10.00">+</text>
<text text-anchor="start" x="17.5" y="-137.5" font-family="Helvetica,sans-Serif" font-size="10.00">nextId()</text>
<text text-anchor="start" x="4.5" y="-122.5" font-family="Helvetica,sans-Serif" font-size="10.00">+</text>
<text text-anchor="start" x="17.5" y="-122.5" font-family="Helvetica,sans-Serif" font-size="10.00">selectedWorks()</text>
<text text-anchor="start" x="4.5" y="-107.5" font-family="Helvetica,sans-Serif" font-size="10.00">+</text>
<text text-anchor="start" x="17.5" y="-107.5" font-family="Helvetica,sans-Serif" font-size="10.00">~BtBookshelfInstallFinal</text>
<text text-anchor="start" x="17.5" y="-96.5" font-family="Helvetica,sans-Serif" font-size="10.00">Page()</text>
<text text-anchor="start" x="4.5" y="-81.5" font-family="Helvetica,sans-Serif" font-size="10.00">+</text>
<text text-anchor="start" x="17.5" y="-81.5" font-family="Helvetica,sans-Serif" font-size="10.00">slotStopInstall()</text>
<text text-anchor="start" x="7" y="-66.5" font-family="Helvetica,sans-Serif" font-size="10.00">&#45;</text>
<text text-anchor="start" x="17.5" y="-66.5" font-family="Helvetica,sans-Serif" font-size="10.00">retranslateUi()</text>
<text text-anchor="start" x="7" y="-51.5" font-family="Helvetica,sans-Serif" font-size="10.00">&#45;</text>
<text text-anchor="start" x="17.5" y="-51.5" font-family="Helvetica,sans-Serif" font-size="10.00">slotInstallStarted()</text>
<text text-anchor="start" x="7" y="-36.5" font-family="Helvetica,sans-Serif" font-size="10.00">&#45;</text>
<text text-anchor="start" x="17.5" y="-36.5" font-family="Helvetica,sans-Serif" font-size="10.00">slotOneItemCompleted()</text>
<text text-anchor="start" x="7" y="-21.5" font-family="Helvetica,sans-Serif" font-size="10.00">&#45;</text>
<text text-anchor="start" x="17.5" y="-21.5" font-family="Helvetica,sans-Serif" font-size="10.00">slotStatusUpdated()</text>
<text text-anchor="start" x="7" y="-6.5" font-family="Helvetica,sans-Serif" font-size="10.00">&#45;</text>
<text text-anchor="start" x="17.5" y="-6.5" font-family="Helvetica,sans-Serif" font-size="10.00">slotThreadFinished()</text>
<polygon fill="#666666" stroke="#666666" points="0.5,-357.5 0.5,-357.5 165.5,-357.5 165.5,-357.5 0.5,-357.5"/>
<polygon fill="#666666" stroke="#666666" points="0.5,-207.5 0.5,-207.5 15.5,-207.5 15.5,-207.5 0.5,-207.5"/>
<polygon fill="#666666" stroke="#666666" points="15.5,-207.5 15.5,-207.5 165.5,-207.5 165.5,-207.5 15.5,-207.5"/>
<polygon fill="none" stroke="#666666" points="0,0 0,-375 165,-375 165,0 0,0"/>
</a>
</g>
</g>
<!-- Node1&#45;&gt;Node3 -->
<g id="edge2_Node000001_Node000003" class="edge">
<title>Node1&#45;&gt;Node3</title>
<g id="a_edge2_Node000001_Node000003"><a xlink:title=" ">
<path fill="none" stroke="#63b8ff" d="M551.67,-439.04C435.85,-433.41 233.11,-417.61 174.5,-375 171.29,-372.66 168.18,-370.19 165.18,-367.58"/>
<polygon fill="none" stroke="#63b8ff" points="551.76,-442.55 561.91,-439.53 552.09,-435.56 551.76,-442.55"/>
</a>
</g>
</g>
<!-- Node4 -->
<g id="Node000004" class="node">
<title>Node4</title>
<g id="a_Node000004"><a xlink:href="../../d8/d7f/classBtBookshelfLanguagesPage.html" target="_top" xlink:title=" ">
<polygon fill="white" stroke="transparent" points="347.5,-294.5 183.5,-294.5 183.5,-80.5 347.5,-80.5 347.5,-294.5"/>
<text text-anchor="start" x="197.5" y="-282.5" font-family="Helvetica,sans-Serif" font-size="10.00">BtBookshelfLanguagesPage</text>
<text text-anchor="start" x="190" y="-267.5" font-family="Helvetica,sans-Serif" font-size="10.00">&#45;</text>
<text text-anchor="start" x="200.5" y="-267.5" font-family="Helvetica,sans-Serif" font-size="10.00">m_firstTimeInit</text>
<text text-anchor="start" x="190" y="-252.5" font-family="Helvetica,sans-Serif" font-size="10.00">&#45;</text>
<text text-anchor="start" x="200.5" y="-252.5" font-family="Helvetica,sans-Serif" font-size="10.00">m_languagesListView</text>
<text text-anchor="start" x="190" y="-237.5" font-family="Helvetica,sans-Serif" font-size="10.00">&#45;</text>
<text text-anchor="start" x="200.5" y="-237.5" font-family="Helvetica,sans-Serif" font-size="10.00">m_model</text>
<text text-anchor="start" x="190" y="-222.5" font-family="Helvetica,sans-Serif" font-size="10.00">&#45;</text>
<text text-anchor="start" x="200.5" y="-222.5" font-family="Helvetica,sans-Serif" font-size="10.00">m_verticalLayout</text>
<text text-anchor="start" x="187.5" y="-207.5" font-family="Helvetica,sans-Serif" font-size="10.00">+</text>
<text text-anchor="start" x="200.5" y="-207.5" font-family="Helvetica,sans-Serif" font-size="10.00">BtBookshelfLanguagesPage()</text>
<text text-anchor="start" x="187.5" y="-192.5" font-family="Helvetica,sans-Serif" font-size="10.00">+</text>
<text text-anchor="start" x="200.5" y="-192.5" font-family="Helvetica,sans-Serif" font-size="10.00">initializeLanguages()</text>
<text text-anchor="start" x="187.5" y="-177.5" font-family="Helvetica,sans-Serif" font-size="10.00">+</text>
<text text-anchor="start" x="200.5" y="-177.5" font-family="Helvetica,sans-Serif" font-size="10.00">initializePage()</text>
<text text-anchor="start" x="187.5" y="-162.5" font-family="Helvetica,sans-Serif" font-size="10.00">+</text>
<text text-anchor="start" x="200.5" y="-162.5" font-family="Helvetica,sans-Serif" font-size="10.00">isComplete()</text>
<text text-anchor="start" x="187.5" y="-147.5" font-family="Helvetica,sans-Serif" font-size="10.00">+</text>
<text text-anchor="start" x="200.5" y="-147.5" font-family="Helvetica,sans-Serif" font-size="10.00">nextId()</text>
<text text-anchor="start" x="187.5" y="-132.5" font-family="Helvetica,sans-Serif" font-size="10.00">+</text>
<text text-anchor="start" x="200.5" y="-132.5" font-family="Helvetica,sans-Serif" font-size="10.00">selectedLanguages()</text>
<text text-anchor="start" x="187.5" y="-117.5" font-family="Helvetica,sans-Serif" font-size="10.00">+</text>
<text text-anchor="start" x="200.5" y="-117.5" font-family="Helvetica,sans-Serif" font-size="10.00">skipPage()</text>
<text text-anchor="start" x="190" y="-102.5" font-family="Helvetica,sans-Serif" font-size="10.00">&#45;</text>
<text text-anchor="start" x="200.5" y="-102.5" font-family="Helvetica,sans-Serif" font-size="10.00">retranslateUi()</text>
<text text-anchor="start" x="190" y="-87.5" font-family="Helvetica,sans-Serif" font-size="10.00">&#45;</text>
<text text-anchor="start" x="200.5" y="-87.5" font-family="Helvetica,sans-Serif" font-size="10.00">slotDataChanged()</text>
<polygon fill="#666666" stroke="#666666" points="183.5,-277.5 183.5,-277.5 347.5,-277.5 347.5,-277.5 183.5,-277.5"/>
<polygon fill="#666666" stroke="#666666" points="183.5,-217.5 183.5,-217.5 198.5,-217.5 198.5,-217.5 183.5,-217.5"/>
<polygon fill="#666666" stroke="#666666" points="198.5,-217.5 198.5,-217.5 347.5,-217.5 347.5,-217.5 198.5,-217.5"/>
<polygon fill="none" stroke="#666666" points="183.5,-80.5 183.5,-294.5 347.5,-294.5 347.5,-80.5 183.5,-80.5"/>
</a>
</g>
</g>
<!-- Node1&#45;&gt;Node4 -->
<g id="edge3_Node000001_Node000004" class="edge">
<title>Node1&#45;&gt;Node4</title>
<g id="a_edge3_Node000001_Node000004"><a xlink:title=" ">
<path fill="none" stroke="#63b8ff" d="M551.55,-440.29C491.55,-435.04 411.66,-419.3 356.5,-375 330.8,-354.36 311.84,-324.65 298.1,-294.98"/>
<polygon fill="none" stroke="#63b8ff" points="551.51,-443.8 561.76,-441.1 552.06,-436.82 551.51,-443.8"/>
</a>
</g>
</g>
<!-- Node5 -->
<g id="Node000005" class="node">
<title>Node5</title>
<g id="a_Node000005"><a xlink:href="../../d0/dfd/classBtBookshelfRemoveFinalPage.html" target="_top" xlink:title=" ">
<polygon fill="white" stroke="transparent" points="541,-249.5 366,-249.5 366,-125.5 541,-125.5 541,-249.5"/>
<text text-anchor="start" x="380.5" y="-237.5" font-family="Helvetica,sans-Serif" font-size="10.00">BtBookshelfRemoveFinalPage</text>
<text text-anchor="start" x="373" y="-222.5" font-family="Helvetica,sans-Serif" font-size="10.00">&#45;</text>
<text text-anchor="start" x="383.5" y="-222.5" font-family="Helvetica,sans-Serif" font-size="10.00">m_msgLabel</text>
<text text-anchor="start" x="373" y="-207.5" font-family="Helvetica,sans-Serif" font-size="10.00">&#45;</text>
<text text-anchor="start" x="383.5" y="-207.5" font-family="Helvetica,sans-Serif" font-size="10.00">m_verticalLayout</text>
<text text-anchor="start" x="370.5" y="-192.5" font-family="Helvetica,sans-Serif" font-size="10.00">+</text>
<text text-anchor="start" x="383.5" y="-192.5" font-family="Helvetica,sans-Serif" font-size="10.00">BtBookshelfRemoveFinalPage()</text>
<text text-anchor="start" x="370.5" y="-177.5" font-family="Helvetica,sans-Serif" font-size="10.00">+</text>
<text text-anchor="start" x="383.5" y="-177.5" font-family="Helvetica,sans-Serif" font-size="10.00">initializePage()</text>
<text text-anchor="start" x="370.5" y="-162.5" font-family="Helvetica,sans-Serif" font-size="10.00">+</text>
<text text-anchor="start" x="383.5" y="-162.5" font-family="Helvetica,sans-Serif" font-size="10.00">isComplete()</text>
<text text-anchor="start" x="370.5" y="-147.5" font-family="Helvetica,sans-Serif" font-size="10.00">+</text>
<text text-anchor="start" x="383.5" y="-147.5" font-family="Helvetica,sans-Serif" font-size="10.00">nextId()</text>
<text text-anchor="start" x="373" y="-132.5" font-family="Helvetica,sans-Serif" font-size="10.00">&#45;</text>
<text text-anchor="start" x="383.5" y="-132.5" font-family="Helvetica,sans-Serif" font-size="10.00">retranslateUi()</text>
<polygon fill="#666666" stroke="#666666" points="366.5,-232.5 366.5,-232.5 541.5,-232.5 541.5,-232.5 366.5,-232.5"/>
<polygon fill="#666666" stroke="#666666" points="366.5,-202.5 366.5,-202.5 381.5,-202.5 381.5,-202.5 366.5,-202.5"/>
<polygon fill="#666666" stroke="#666666" points="381.5,-202.5 381.5,-202.5 541.5,-202.5 541.5,-202.5 381.5,-202.5"/>
<polygon fill="none" stroke="#666666" points="366,-125.5 366,-249.5 541,-249.5 541,-125.5 366,-125.5"/>
</a>
</g>
</g>
<!-- Node1&#45;&gt;Node5 -->
<g id="edge4_Node000001_Node000005" class="edge">
<title>Node1&#45;&gt;Node5</title>
<g id="a_edge4_Node000001_Node000005"><a xlink:title=" ">
<path fill="none" stroke="#63b8ff" d="M580.15,-404.18C569.56,-395.35 559.1,-385.45 550.5,-375 519.54,-337.38 494.49,-288.28 477.61,-249.9"/>
<polygon fill="none" stroke="#63b8ff" points="578.26,-407.15 588.24,-410.71 582.66,-401.71 578.26,-407.15"/>
</a>
</g>
</g>
<!-- Node6 -->
<g id="Node000006" class="node">
<title>Node6</title>
<g id="a_Node000006"><a xlink:href="../../d2/de4/classBtBookshelfSourcesPage.html" target="_top" xlink:title=" ">
<polygon fill="white" stroke="transparent" points="709.5,-294.5 559.5,-294.5 559.5,-80.5 709.5,-80.5 709.5,-294.5"/>
<text text-anchor="start" x="574" y="-282.5" font-family="Helvetica,sans-Serif" font-size="10.00">BtBookshelfSourcesPage</text>
<text text-anchor="start" x="566" y="-267.5" font-family="Helvetica,sans-Serif" font-size="10.00">&#45;</text>
<text text-anchor="start" x="576.5" y="-267.5" font-family="Helvetica,sans-Serif" font-size="10.00">m_firstTimeInit</text>
<text text-anchor="start" x="566" y="-252.5" font-family="Helvetica,sans-Serif" font-size="10.00">&#45;</text>
<text text-anchor="start" x="576.5" y="-252.5" font-family="Helvetica,sans-Serif" font-size="10.00">m_model</text>
<text text-anchor="start" x="566" y="-237.5" font-family="Helvetica,sans-Serif" font-size="10.00">&#45;</text>
<text text-anchor="start" x="576.5" y="-237.5" font-family="Helvetica,sans-Serif" font-size="10.00">m_sourcesTableView</text>
<text text-anchor="start" x="566" y="-222.5" font-family="Helvetica,sans-Serif" font-size="10.00">&#45;</text>
<text text-anchor="start" x="576.5" y="-222.5" font-family="Helvetica,sans-Serif" font-size="10.00">m_verticalLayout</text>
<text text-anchor="start" x="563.5" y="-207.5" font-family="Helvetica,sans-Serif" font-size="10.00">+</text>
<text text-anchor="start" x="576.5" y="-207.5" font-family="Helvetica,sans-Serif" font-size="10.00">BtBookshelfSourcesPage()</text>
<text text-anchor="start" x="563.5" y="-192.5" font-family="Helvetica,sans-Serif" font-size="10.00">+</text>
<text text-anchor="start" x="576.5" y="-192.5" font-family="Helvetica,sans-Serif" font-size="10.00">initializePage()</text>
<text text-anchor="start" x="563.5" y="-177.5" font-family="Helvetica,sans-Serif" font-size="10.00">+</text>
<text text-anchor="start" x="576.5" y="-177.5" font-family="Helvetica,sans-Serif" font-size="10.00">isComplete()</text>
<text text-anchor="start" x="563.5" y="-162.5" font-family="Helvetica,sans-Serif" font-size="10.00">+</text>
<text text-anchor="start" x="576.5" y="-162.5" font-family="Helvetica,sans-Serif" font-size="10.00">nextId()</text>
<text text-anchor="start" x="563.5" y="-147.5" font-family="Helvetica,sans-Serif" font-size="10.00">+</text>
<text text-anchor="start" x="576.5" y="-147.5" font-family="Helvetica,sans-Serif" font-size="10.00">selectedSources()</text>
<text text-anchor="start" x="566" y="-132.5" font-family="Helvetica,sans-Serif" font-size="10.00">&#45;</text>
<text text-anchor="start" x="576.5" y="-132.5" font-family="Helvetica,sans-Serif" font-size="10.00">retranslateUi()</text>
<text text-anchor="start" x="566" y="-117.5" font-family="Helvetica,sans-Serif" font-size="10.00">&#45;</text>
<text text-anchor="start" x="576.5" y="-117.5" font-family="Helvetica,sans-Serif" font-size="10.00">selectSourcesInModel()</text>
<text text-anchor="start" x="566" y="-102.5" font-family="Helvetica,sans-Serif" font-size="10.00">&#45;</text>
<text text-anchor="start" x="576.5" y="-102.5" font-family="Helvetica,sans-Serif" font-size="10.00">updateSourcesModel()</text>
<text text-anchor="start" x="566" y="-87.5" font-family="Helvetica,sans-Serif" font-size="10.00">&#45;</text>
<text text-anchor="start" x="576.5" y="-87.5" font-family="Helvetica,sans-Serif" font-size="10.00">slotButtonClicked()</text>
<polygon fill="#666666" stroke="#666666" points="559.5,-277.5 559.5,-277.5 709.5,-277.5 709.5,-277.5 559.5,-277.5"/>
<polygon fill="#666666" stroke="#666666" points="559.5,-217.5 559.5,-217.5 574.5,-217.5 574.5,-217.5 559.5,-217.5"/>
<polygon fill="#666666" stroke="#666666" points="574.5,-217.5 574.5,-217.5 709.5,-217.5 709.5,-217.5 574.5,-217.5"/>
<polygon fill="none" stroke="#666666" points="559.5,-80.5 559.5,-294.5 709.5,-294.5 709.5,-80.5 559.5,-80.5"/>
</a>
</g>
</g>
<!-- Node1&#45;&gt;Node6 -->
<g id="edge5_Node000001_Node000006" class="edge">
<title>Node1&#45;&gt;Node6</title>
<g id="a_edge5_Node000001_Node000006"><a xlink:title=" ">
<path fill="none" stroke="#63b8ff" d="M634.5,-400.82C634.5,-371.99 634.5,-332.08 634.5,-294.63"/>
<polygon fill="none" stroke="#63b8ff" points="631,-400.92 634.5,-410.92 638,-400.92 631,-400.92"/>
</a>
</g>
</g>
<!-- Node7 -->
<g id="Node000007" class="node">
<title>Node7</title>
<g id="a_Node000007"><a xlink:href="../../df/dcc/classBtBookshelfSourcesProgressPage.html" target="_top" xlink:title=" ">
<polygon fill="white" stroke="transparent" points="901,-313 728,-313 728,-62 901,-62 901,-313"/>
<text text-anchor="start" x="733.5" y="-300.5" font-family="Helvetica,sans-Serif" font-size="10.00">BtBookshelfSourcesProgressPage</text>
<text text-anchor="start" x="736" y="-285.5" font-family="Helvetica,sans-Serif" font-size="10.00">&#45;</text>
<text text-anchor="start" x="747.5" y="-285.5" font-family="Helvetica,sans-Serif" font-size="10.00">m_installCompleted</text>
<text text-anchor="start" x="736" y="-270.5" font-family="Helvetica,sans-Serif" font-size="10.00">&#45;</text>
<text text-anchor="start" x="747.5" y="-270.5" font-family="Helvetica,sans-Serif" font-size="10.00">m_msgLabel</text>
<text text-anchor="start" x="736" y="-255.5" font-family="Helvetica,sans-Serif" font-size="10.00">&#45;</text>
<text text-anchor="start" x="747.5" y="-255.5" font-family="Helvetica,sans-Serif" font-size="10.00">m_progressBar</text>
<text text-anchor="start" x="736" y="-240.5" font-family="Helvetica,sans-Serif" font-size="10.00">&#45;</text>
<text text-anchor="start" x="747.5" y="-240.5" font-family="Helvetica,sans-Serif" font-size="10.00">m_stopButton</text>
<text text-anchor="start" x="736" y="-225.5" font-family="Helvetica,sans-Serif" font-size="10.00">&#45;</text>
<text text-anchor="start" x="747.5" y="-225.5" font-family="Helvetica,sans-Serif" font-size="10.00">m_thread</text>
<text text-anchor="start" x="733.5" y="-210.5" font-family="Helvetica,sans-Serif" font-size="10.00">+</text>
<text text-anchor="start" x="747.5" y="-210.5" font-family="Helvetica,sans-Serif" font-size="10.00">BtBookshelfSourcesProgress</text>
<text text-anchor="start" x="747.5" y="-199.5" font-family="Helvetica,sans-Serif" font-size="10.00">Page()</text>
<text text-anchor="start" x="733.5" y="-184.5" font-family="Helvetica,sans-Serif" font-size="10.00">+</text>
<text text-anchor="start" x="747.5" y="-184.5" font-family="Helvetica,sans-Serif" font-size="10.00">destroyThread()</text>
<text text-anchor="start" x="733.5" y="-169.5" font-family="Helvetica,sans-Serif" font-size="10.00">+</text>
<text text-anchor="start" x="747.5" y="-169.5" font-family="Helvetica,sans-Serif" font-size="10.00">initializePage()</text>
<text text-anchor="start" x="733.5" y="-154.5" font-family="Helvetica,sans-Serif" font-size="10.00">+</text>
<text text-anchor="start" x="747.5" y="-154.5" font-family="Helvetica,sans-Serif" font-size="10.00">isComplete()</text>
<text text-anchor="start" x="733.5" y="-139.5" font-family="Helvetica,sans-Serif" font-size="10.00">+</text>
<text text-anchor="start" x="747.5" y="-139.5" font-family="Helvetica,sans-Serif" font-size="10.00">nextId()</text>
<text text-anchor="start" x="733.5" y="-124.5" font-family="Helvetica,sans-Serif" font-size="10.00">+</text>
<text text-anchor="start" x="747.5" y="-124.5" font-family="Helvetica,sans-Serif" font-size="10.00">~BtBookshelfSourcesProgress</text>
<text text-anchor="start" x="747.5" y="-113.5" font-family="Helvetica,sans-Serif" font-size="10.00">Page()</text>
<text text-anchor="start" x="733.5" y="-98.5" font-family="Helvetica,sans-Serif" font-size="10.00">+</text>
<text text-anchor="start" x="747.5" y="-98.5" font-family="Helvetica,sans-Serif" font-size="10.00">slotStopInstall()</text>
<text text-anchor="start" x="736" y="-83.5" font-family="Helvetica,sans-Serif" font-size="10.00">&#45;</text>
<text text-anchor="start" x="747.5" y="-83.5" font-family="Helvetica,sans-Serif" font-size="10.00">retranslateUi()</text>
<text text-anchor="start" x="736" y="-68.5" font-family="Helvetica,sans-Serif" font-size="10.00">&#45;</text>
<text text-anchor="start" x="747.5" y="-68.5" font-family="Helvetica,sans-Serif" font-size="10.00">slotThreadFinished()</text>
<polygon fill="#666666" stroke="#666666" points="728.5,-295.5 728.5,-295.5 901.5,-295.5 901.5,-295.5 728.5,-295.5"/>
<polygon fill="#666666" stroke="#666666" points="728.5,-220.5 728.5,-220.5 745.5,-220.5 745.5,-220.5 728.5,-220.5"/>
<polygon fill="#666666" stroke="#666666" points="745.5,-220.5 745.5,-220.5 901.5,-220.5 901.5,-220.5 745.5,-220.5"/>
<polygon fill="none" stroke="#666666" points="728,-62 728,-313 901,-313 901,-62 728,-62"/>
</a>
</g>
</g>
<!-- Node1&#45;&gt;Node7 -->
<g id="edge6_Node000001_Node000007" class="edge">
<title>Node1&#45;&gt;Node7</title>
<g id="a_edge6_Node000001_Node000007"><a xlink:title=" ">
<path fill="none" stroke="#63b8ff" d="M688.89,-404.21C699.47,-395.37 709.93,-385.46 718.5,-375 733.73,-356.41 747.49,-335.01 759.53,-313.48"/>
<polygon fill="none" stroke="#63b8ff" points="686.37,-401.74 680.8,-410.74 690.77,-407.18 686.37,-401.74"/>
</a>
</g>
</g>
<!-- Node8 -->
<g id="Node000008" class="node">
<title>Node8</title>
<g id="a_Node000008"><a xlink:href="../../d3/d1b/classBtBookshelfTaskPage.html" target="_top" xlink:title=" ">
<polygon fill="white" stroke="transparent" points="1053.5,-279.5 919.5,-279.5 919.5,-95.5 1053.5,-95.5 1053.5,-279.5"/>
<text text-anchor="start" x="934" y="-267.5" font-family="Helvetica,sans-Serif" font-size="10.00">BtBookshelfTaskPage</text>
<text text-anchor="start" x="926" y="-252.5" font-family="Helvetica,sans-Serif" font-size="10.00">&#45;</text>
<text text-anchor="start" x="936.5" y="-252.5" font-family="Helvetica,sans-Serif" font-size="10.00">m_groupBox</text>
<text text-anchor="start" x="926" y="-237.5" font-family="Helvetica,sans-Serif" font-size="10.00">&#45;</text>
<text text-anchor="start" x="936.5" y="-237.5" font-family="Helvetica,sans-Serif" font-size="10.00">m_installRadioButton</text>
<text text-anchor="start" x="926" y="-222.5" font-family="Helvetica,sans-Serif" font-size="10.00">&#45;</text>
<text text-anchor="start" x="936.5" y="-222.5" font-family="Helvetica,sans-Serif" font-size="10.00">m_removeRadioButton</text>
<text text-anchor="start" x="926" y="-207.5" font-family="Helvetica,sans-Serif" font-size="10.00">&#45;</text>
<text text-anchor="start" x="936.5" y="-207.5" font-family="Helvetica,sans-Serif" font-size="10.00">m_updateRadioButton</text>
<text text-anchor="start" x="926" y="-192.5" font-family="Helvetica,sans-Serif" font-size="10.00">&#45;</text>
<text text-anchor="start" x="936.5" y="-192.5" font-family="Helvetica,sans-Serif" font-size="10.00">m_verticalLayout</text>
<text text-anchor="start" x="926" y="-177.5" font-family="Helvetica,sans-Serif" font-size="10.00">&#45;</text>
<text text-anchor="start" x="936.5" y="-177.5" font-family="Helvetica,sans-Serif" font-size="10.00">m_warningLabel</text>
<text text-anchor="start" x="923.5" y="-162.5" font-family="Helvetica,sans-Serif" font-size="10.00">+</text>
<text text-anchor="start" x="936.5" y="-162.5" font-family="Helvetica,sans-Serif" font-size="10.00">BtBookshelfTaskPage()</text>
<text text-anchor="start" x="923.5" y="-147.5" font-family="Helvetica,sans-Serif" font-size="10.00">+</text>
<text text-anchor="start" x="936.5" y="-147.5" font-family="Helvetica,sans-Serif" font-size="10.00">nextId()</text>
<text text-anchor="start" x="923.5" y="-132.5" font-family="Helvetica,sans-Serif" font-size="10.00">+</text>
<text text-anchor="start" x="936.5" y="-132.5" font-family="Helvetica,sans-Serif" font-size="10.00">taskType()</text>
<text text-anchor="start" x="926" y="-117.5" font-family="Helvetica,sans-Serif" font-size="10.00">&#45;</text>
<text text-anchor="start" x="936.5" y="-117.5" font-family="Helvetica,sans-Serif" font-size="10.00">retranslateUi()</text>
<text text-anchor="start" x="926" y="-102.5" font-family="Helvetica,sans-Serif" font-size="10.00">&#45;</text>
<text text-anchor="start" x="936.5" y="-102.5" font-family="Helvetica,sans-Serif" font-size="10.00">timeToUpdate()</text>
<polygon fill="#666666" stroke="#666666" points="919.5,-262.5 919.5,-262.5 1053.5,-262.5 1053.5,-262.5 919.5,-262.5"/>
<polygon fill="#666666" stroke="#666666" points="919.5,-172.5 919.5,-172.5 934.5,-172.5 934.5,-172.5 919.5,-172.5"/>
<polygon fill="#666666" stroke="#666666" points="934.5,-172.5 934.5,-172.5 1053.5,-172.5 1053.5,-172.5 934.5,-172.5"/>
<polygon fill="none" stroke="#666666" points="919.5,-95.5 919.5,-279.5 1053.5,-279.5 1053.5,-95.5 919.5,-95.5"/>
</a>
</g>
</g>
<!-- Node1&#45;&gt;Node8 -->
<g id="edge7_Node000001_Node000008" class="edge">
<title>Node1&#45;&gt;Node8</title>
<g id="a_edge7_Node000001_Node000008"><a xlink:title=" ">
<path fill="none" stroke="#63b8ff" d="M717.43,-430.35C787.78,-418.97 881.74,-399.77 910.5,-375 938.85,-350.59 956.77,-314 968.04,-279.68"/>
<polygon fill="none" stroke="#63b8ff" points="716.55,-426.95 707.23,-431.97 717.65,-433.86 716.55,-426.95"/>
</a>
</g>
</g>
<!-- Node9 -->
<g id="Node000009" class="node">
<title>Node9</title>
<g id="a_Node000009"><a xlink:href="../../df/d7e/classBtBookshelfWorksPage.html" target="_top" xlink:title=" ">
<polygon fill="white" stroke="transparent" points="1239,-362 1072,-362 1072,-13 1239,-13 1239,-362"/>
<text text-anchor="start" x="1099.5" y="-349.5" font-family="Helvetica,sans-Serif" font-size="10.00">BtBookshelfWorksPage</text>
<text text-anchor="start" x="1079" y="-334.5" font-family="Helvetica,sans-Serif" font-size="10.00">&#45;</text>
<text text-anchor="start" x="1089.5" y="-334.5" font-family="Helvetica,sans-Serif" font-size="10.00">m_bookshelfModel</text>
<text text-anchor="start" x="1079" y="-319.5" font-family="Helvetica,sans-Serif" font-size="10.00">&#45;</text>
<text text-anchor="start" x="1089.5" y="-319.5" font-family="Helvetica,sans-Serif" font-size="10.00">m_bookshelfView</text>
<text text-anchor="start" x="1079" y="-304.5" font-family="Helvetica,sans-Serif" font-size="10.00">&#45;</text>
<text text-anchor="start" x="1089.5" y="-304.5" font-family="Helvetica,sans-Serif" font-size="10.00">m_contextMenu</text>
<text text-anchor="start" x="1079" y="-289.5" font-family="Helvetica,sans-Serif" font-size="10.00">&#45;</text>
<text text-anchor="start" x="1089.5" y="-289.5" font-family="Helvetica,sans-Serif" font-size="10.00">m_groupingButton</text>
<text text-anchor="start" x="1079" y="-274.5" font-family="Helvetica,sans-Serif" font-size="10.00">&#45;</text>
<text text-anchor="start" x="1089.5" y="-274.5" font-family="Helvetica,sans-Serif" font-size="10.00">m_groupingLabel</text>
<text text-anchor="start" x="1079" y="-259.5" font-family="Helvetica,sans-Serif" font-size="10.00">&#45;</text>
<text text-anchor="start" x="1089.5" y="-259.5" font-family="Helvetica,sans-Serif" font-size="10.00">m_groupingMenu</text>
<text text-anchor="start" x="1079" y="-244.5" font-family="Helvetica,sans-Serif" font-size="10.00">&#45;</text>
<text text-anchor="start" x="1089.5" y="-244.5" font-family="Helvetica,sans-Serif" font-size="10.00">m_groupingOrder</text>
<text text-anchor="start" x="1079" y="-229.5" font-family="Helvetica,sans-Serif" font-size="10.00">&#45;</text>
<text text-anchor="start" x="1089.5" y="-229.5" font-family="Helvetica,sans-Serif" font-size="10.00">m_installPageModel</text>
<text text-anchor="start" x="1079" y="-214.5" font-family="Helvetica,sans-Serif" font-size="10.00">&#45;</text>
<text text-anchor="start" x="1089.5" y="-214.5" font-family="Helvetica,sans-Serif" font-size="10.00">m_itemContextMenu</text>
<text text-anchor="start" x="1079" y="-199.5" font-family="Helvetica,sans-Serif" font-size="10.00">&#45;</text>
<text text-anchor="start" x="1089.5" y="-199.5" font-family="Helvetica,sans-Serif" font-size="10.00">m_msgLabel</text>
<text text-anchor="start" x="1089.5" y="-184.5" font-family="Helvetica,sans-Serif" font-size="10.00">and 6 more...</text>
<text text-anchor="start" x="1076.5" y="-169.5" font-family="Helvetica,sans-Serif" font-size="10.00">+</text>
<text text-anchor="start" x="1089.5" y="-169.5" font-family="Helvetica,sans-Serif" font-size="10.00">BtBookshelfWorksPage()</text>
<text text-anchor="start" x="1076.5" y="-154.5" font-family="Helvetica,sans-Serif" font-size="10.00">+</text>
<text text-anchor="start" x="1089.5" y="-154.5" font-family="Helvetica,sans-Serif" font-size="10.00">checkedModules()</text>
<text text-anchor="start" x="1076.5" y="-139.5" font-family="Helvetica,sans-Serif" font-size="10.00">+</text>
<text text-anchor="start" x="1089.5" y="-139.5" font-family="Helvetica,sans-Serif" font-size="10.00">initializePage()</text>
<text text-anchor="start" x="1076.5" y="-124.5" font-family="Helvetica,sans-Serif" font-size="10.00">+</text>
<text text-anchor="start" x="1089.5" y="-124.5" font-family="Helvetica,sans-Serif" font-size="10.00">installPath()</text>
<text text-anchor="start" x="1076.5" y="-109.5" font-family="Helvetica,sans-Serif" font-size="10.00">+</text>
<text text-anchor="start" x="1089.5" y="-109.5" font-family="Helvetica,sans-Serif" font-size="10.00">isComplete()</text>
<text text-anchor="start" x="1076.5" y="-94.5" font-family="Helvetica,sans-Serif" font-size="10.00">+</text>
<text text-anchor="start" x="1089.5" y="-94.5" font-family="Helvetica,sans-Serif" font-size="10.00">nextId()</text>
<text text-anchor="start" x="1079" y="-79.5" font-family="Helvetica,sans-Serif" font-size="10.00">&#45;</text>
<text text-anchor="start" x="1089.5" y="-79.5" font-family="Helvetica,sans-Serif" font-size="10.00">retranslateUi()</text>
<text text-anchor="start" x="1079" y="-64.5" font-family="Helvetica,sans-Serif" font-size="10.00">&#45;</text>
<text text-anchor="start" x="1089.5" y="-64.5" font-family="Helvetica,sans-Serif" font-size="10.00">slotGroupingActionTriggered()</text>
<text text-anchor="start" x="1079" y="-49.5" font-family="Helvetica,sans-Serif" font-size="10.00">&#45;</text>
<text text-anchor="start" x="1089.5" y="-49.5" font-family="Helvetica,sans-Serif" font-size="10.00">slotGroupingOrderChanged()</text>
<text text-anchor="start" x="1079" y="-34.5" font-family="Helvetica,sans-Serif" font-size="10.00">&#45;</text>
<text text-anchor="start" x="1089.5" y="-34.5" font-family="Helvetica,sans-Serif" font-size="10.00">slotInitPathCombo()</text>
<text text-anchor="start" x="1079" y="-19.5" font-family="Helvetica,sans-Serif" font-size="10.00">&#45;</text>
<text text-anchor="start" x="1089.5" y="-19.5" font-family="Helvetica,sans-Serif" font-size="10.00">slotPathChanged()</text>
<polygon fill="#666666" stroke="#666666" points="1072.5,-344.5 1072.5,-344.5 1239.5,-344.5 1239.5,-344.5 1072.5,-344.5"/>
<polygon fill="#666666" stroke="#666666" points="1072.5,-179.5 1072.5,-179.5 1087.5,-179.5 1087.5,-179.5 1072.5,-179.5"/>
<polygon fill="#666666" stroke="#666666" points="1087.5,-179.5 1087.5,-179.5 1239.5,-179.5 1239.5,-179.5 1087.5,-179.5"/>
<polygon fill="none" stroke="#666666" points="1072,-13 1072,-362 1239,-362 1239,-13 1072,-13"/>
</a>
</g>
</g>
<!-- Node1&#45;&gt;Node9 -->
<g id="edge8_Node000001_Node000009" class="edge">
<title>Node1&#45;&gt;Node9</title>
<g id="a_edge8_Node000001_Node000009"><a xlink:title=" ">
<path fill="none" stroke="#63b8ff" d="M717.54,-437.95C826.17,-431.16 1008.99,-414.16 1062.5,-375 1067.9,-371.05 1073.01,-366.69 1077.83,-362.01"/>
<polygon fill="none" stroke="#63b8ff" points="717.04,-434.47 707.27,-438.57 717.46,-441.46 717.04,-434.47"/>
</a>
</g>
</g>
<!-- Node2 -->
<g id="Node000002" class="node">
<title>Node2</title>
<g id="a_Node000002"><a xlink:href="../../dc/d67/classQWizardPage.html" target="_top" xlink:title=" ">
<polygon fill="white" stroke="transparent" points="672,-560 597,-560 597,-511 672,-511 672,-560"/>
<text text-anchor="start" x="602.5" y="-547.5" font-family="Helvetica,sans-Serif" font-size="10.00">QWizardPage</text>
<text text-anchor="start" x="633" y="-532.5" font-family="Helvetica,sans-Serif" font-size="10.00"> </text>
<text text-anchor="start" x="633" y="-517.5" font-family="Helvetica,sans-Serif" font-size="10.00"> </text>
<polygon fill="#666666" stroke="#666666" points="597.5,-542.5 597.5,-542.5 672.5,-542.5 672.5,-542.5 597.5,-542.5"/>
<polygon fill="#666666" stroke="#666666" points="597.5,-527.5 597.5,-527.5 672.5,-527.5 672.5,-527.5 597.5,-527.5"/>
<polygon fill="none" stroke="#666666" points="597,-511 597,-560 672,-560 672,-511 597,-511"/>
</a>
</g>
</g>
<!-- Node2&#45;&gt;Node1 -->
<g id="edge1_Node000001_Node000002" class="edge">
<title>Node2&#45;&gt;Node1</title>
<g id="a_edge1_Node000001_Node000002"><a xlink:title=" ">
<path fill="none" stroke="#63b8ff" d="M634.5,-500.54C634.5,-492.2 634.5,-483.31 634.5,-475.11"/>
<polygon fill="none" stroke="#63b8ff" points="631,-500.72 634.5,-510.72 638,-500.72 631,-500.72"/>
</a>
</g>
</g>
</g>
</svg>
