<?xml version="1.0" encoding="UTF-8" standalone="no"?>
<!DOCTYPE svg PUBLIC "-//W3C//DTD SVG 1.1//EN"
 "http://www.w3.org/Graphics/SVG/1.1/DTD/svg11.dtd">
<!-- Generated by graphviz version 2.43.0 (0)
 -->
<!-- Title: BtBookshelfWizardPage Pages: 1 -->
<!--zoomable 583 -->

<svg id="main" version="1.1" xmlns="http://www.w3.org/2000/svg" xmlns:xlink="http://www.w3.org/1999/xlink" xml:space="preserve" onload="init(evt)">
<style type="text/css"><![CDATA[
.node, .edge {opacity: 0.7;}
.node.selected, .edge.selected {opacity: 1;}
.edge:hover path { stroke: red; }
.edge:hover polygon { stroke: red; fill: red; }
]]></style>

<defs>
  <circle id="rim" cx="0" cy="0" r="7"/>
  <circle id="rim2" cx="0" cy="0" r="3.5"/>
  <g id="zoomPlus">
    <use xlink:href="#rim" fill="#404040"><set attributeName="fill" to="#808080" begin="zoomplus.mouseover" end="zoomplus.mouseout"/></use>
    <path d="M-4,0h8M0,-4v8" fill="none" stroke="white" stroke-width="1.5" pointer-events="none"/>
  </g>
  <g id="zoomMin">
    <use xlink:href="#rim" fill="#404040"><set attributeName="fill" to="#808080" begin="zoomminus.mouseover" end="zoomminus.mouseout"/></use>
    <path d="M-4,0h8" fill="none" stroke="white" stroke-width="1.5" pointer-events="none"/>
  </g>
  <g id="arrowUp" transform="translate(30 24)">
    <use xlink:href="#rim"/>
    <path pointer-events="none" fill="none" stroke="white" stroke-width="1.5" d="M0,-3.0v7 M-2.5,-0.5L0,-3.0L2.5,-0.5"/>
  </g>
  <g id="arrowRight" transform="rotate(90) translate(36 -43)">
    <use xlink:href="#rim"/>
    <path pointer-events="none" fill="none" stroke="white" stroke-width="1.5" d="M0,-3.0v7 M-2.5,-0.5L0,-3.0L2.5,-0.5"/>
  </g>
  <g id="arrowDown" transform="rotate(180) translate(-30 -48)">
    <use xlink:href="#rim"/>
    <path pointer-events="none" fill="none" stroke="white" stroke-width="1.5" d="M0,-3.0v7 M-2.5,-0.5L0,-3.0L2.5,-0.5"/>
  </g>
  <g id="arrowLeft" transform="rotate(270) translate(-36 17)">
    <use xlink:href="#rim"/>
    <path pointer-events="none" fill="none" stroke="white" stroke-width="1.5" d="M0,-3.0v7 M-2.5,-0.5L0,-3.0L2.5,-0.5"/>
  </g>
  <g id="resetDef">
    <use xlink:href="#rim2" fill="#404040"><set attributeName="fill" to="#808080" begin="reset.mouseover" end="reset.mouseout"/></use>
  </g>
</defs>
<script type="application/ecmascript">
var viewWidth = 1247;
var viewHeight = 583;
var sectionId = 'dynsection-0';
</script>
<script type="application/ecmascript" xlink:href="../../svg.min.js"/>
<svg id="graph" class="graph">
<g id="viewport">
<title>BtBookshelfWizardPage</title>
<!-- Node1 -->
<g id="Node000001" class="node">
<title>Node1</title>
<g id="a_Node000001"><a xlink:title=" ">
<polygon fill="#999999" stroke="transparent" points="707,-490 562,-490 562,-426 707,-426 707,-490"/>
<text text-anchor="start" x="576.5" y="-478" font-family="Helvetica,sans-Serif" font-size="10.00">BtBookshelfWizardPage</text>
<text text-anchor="start" x="633" y="-463" font-family="Helvetica,sans-Serif" font-size="10.00"> </text>
<text text-anchor="start" x="566.5" y="-448" font-family="Helvetica,sans-Serif" font-size="10.00">+</text>
<text text-anchor="start" x="579.5" y="-448" font-family="Helvetica,sans-Serif" font-size="10.00">BtBookshelfWizardPage()</text>
<text text-anchor="start" x="566.5" y="-433" font-family="Helvetica,sans-Serif" font-size="10.00">+</text>
<text text-anchor="start" x="579.5" y="-433" font-family="Helvetica,sans-Serif" font-size="10.00">btWizard()</text>
<polygon fill="#666666" stroke="#666666" points="562.5,-473 562.5,-473 707.5,-473 707.5,-473 562.5,-473"/>
<polygon fill="#666666" stroke="#666666" points="562.5,-458 562.5,-458 707.5,-458 707.5,-458 562.5,-458"/>
<polygon fill="none" stroke="#666666" points="562,-426 562,-490 707,-490 707,-426 562,-426"/>
</a>
</g>
</g>
<!-- Node3 -->
<g id="Node000003" class="node">
<title>Node3</title>
<g id="a_Node000003"><a xlink:href="../../de/d0a/classBtBookshelfInstallFinalPage.html" target="_top" xlink:title=" ">
<polygon fill="white" stroke="transparent" points="165,-390 0,-390 0,0 165,0 165,-390"/>
<text text-anchor="start" x="15" y="-378" font-family="Helvetica,sans-Serif" font-size="10.00">BtBookshelfInstallFinalPage</text>
<text text-anchor="start" x="4.5" y="-363" font-family="Helvetica,sans-Serif" font-size="10.00">+</text>
<text text-anchor="start" x="17.5" y="-363" font-family="Helvetica,sans-Serif" font-size="10.00">MAX_MODULES</text>
<text text-anchor="start" x="7" y="-348" font-family="Helvetica,sans-Serif" font-size="10.00">&#45;</text>
<text text-anchor="start" x="17.5" y="-348" font-family="Helvetica,sans-Serif" font-size="10.00">m_installCompleted</text>
<text text-anchor="start" x="7" y="-333" font-family="Helvetica,sans-Serif" font-size="10.00">&#45;</text>
<text text-anchor="start" x="17.5" y="-333" font-family="Helvetica,sans-Serif" font-size="10.00">m_installFailed</text>
<text text-anchor="start" x="7" y="-318" font-family="Helvetica,sans-Serif" font-size="10.00">&#45;</text>
<text text-anchor="start" x="17.5" y="-318" font-family="Helvetica,sans-Serif" font-size="10.00">m_lastStatus</text>
<text text-anchor="start" x="7" y="-303" font-family="Helvetica,sans-Serif" font-size="10.00">&#45;</text>
<text text-anchor="start" x="17.5" y="-303" font-family="Helvetica,sans-Serif" font-size="10.00">m_modules</text>
<text text-anchor="start" x="7" y="-288" font-family="Helvetica,sans-Serif" font-size="10.00">&#45;</text>
<text text-anchor="start" x="17.5" y="-288" font-family="Helvetica,sans-Serif" font-size="10.00">m_msgLabel</text>
<text text-anchor="start" x="7" y="-273" font-family="Helvetica,sans-Serif" font-size="10.00">&#45;</text>
<text text-anchor="start" x="17.5" y="-273" font-family="Helvetica,sans-Serif" font-size="10.00">m_msgLabel2</text>
<text text-anchor="start" x="7" y="-258" font-family="Helvetica,sans-Serif" font-size="10.00">&#45;</text>
<text text-anchor="start" x="17.5" y="-258" font-family="Helvetica,sans-Serif" font-size="10.00">m_progressBar</text>
<text text-anchor="start" x="7" y="-243" font-family="Helvetica,sans-Serif" font-size="10.00">&#45;</text>
<text text-anchor="start" x="17.5" y="-243" font-family="Helvetica,sans-Serif" font-size="10.00">m_stopButton</text>
<text text-anchor="start" x="7" y="-228" font-family="Helvetica,sans-Serif" font-size="10.00">&#45;</text>
<text text-anchor="start" x="17.5" y="-228" font-family="Helvetica,sans-Serif" font-size="10.00">m_thread</text>
<text text-anchor="start" x="7" y="-213" font-family="Helvetica,sans-Serif" font-size="10.00">&#45;</text>
<text text-anchor="start" x="17.5" y="-213" font-family="Helvetica,sans-Serif" font-size="10.00">m_verticalLayout</text>
<text text-anchor="start" x="4.5" y="-198" font-family="Helvetica,sans-Serif" font-size="10.00">+</text>
<text text-anchor="start" x="17.5" y="-198" font-family="Helvetica,sans-Serif" font-size="10.00">BtBookshelfInstallFinalPage()</text>
<text text-anchor="start" x="4.5" y="-183" font-family="Helvetica,sans-Serif" font-size="10.00">+</text>
<text text-anchor="start" x="17.5" y="-183" font-family="Helvetica,sans-Serif" font-size="10.00">destroyThread()</text>
<text text-anchor="start" x="4.5" y="-168" font-family="Helvetica,sans-Serif" font-size="10.00">+</text>
<text text-anchor="start" x="17.5" y="-168" font-family="Helvetica,sans-Serif" font-size="10.00">initializePage()</text>
<text text-anchor="start" x="4.5" y="-153" font-family="Helvetica,sans-Serif" font-size="10.00">+</text>
<text text-anchor="start" x="17.5" y="-153" font-family="Helvetica,sans-Serif" font-size="10.00">isComplete()</text>
<text text-anchor="start" x="4.5" y="-138" font-family="Helvetica,sans-Serif" font-size="10.00">+</text>
<text text-anchor="start" x="17.5" y="-138" font-family="Helvetica,sans-Serif" font-size="10.00">nextId()</text>
<text text-anchor="start" x="4.5" y="-123" font-family="Helvetica,sans-Serif" font-size="10.00">+</text>
<text text-anchor="start" x="17.5" y="-123" font-family="Helvetica,sans-Serif" font-size="10.00">selectedWorks()</text>
<text text-anchor="start" x="4.5" y="-108" font-family="Helvetica,sans-Serif" font-size="10.00">+</text>
<text text-anchor="start" x="17.5" y="-108" font-family="Helvetica,sans-Serif" font-size="10.00">~BtBookshelfInstallFinal</text>
<text text-anchor="start" x="17.5" y="-97" font-family="Helvetica,sans-Serif" font-size="10.00">Page()</text>
<text text-anchor="start" x="4.5" y="-82" font-family="Helvetica,sans-Serif" font-size="10.00">+</text>
<text text-anchor="start" x="17.5" y="-82" font-family="Helvetica,sans-Serif" font-size="10.00">slotStopInstall()</text>
<text text-anchor="start" x="7" y="-67" font-family="Helvetica,sans-Serif" font-size="10.00">&#45;</text>
<text text-anchor="start" x="17.5" y="-67" font-family="Helvetica,sans-Serif" font-size="10.00">retranslateUi()</text>
<text text-anchor="start" x="7" y="-52" font-family="Helvetica,sans-Serif" font-size="10.00">&#45;</text>
<text text-anchor="start" x="17.5" y="-52" font-family="Helvetica,sans-Serif" font-size="10.00">slotInstallStarted()</text>
<text text-anchor="start" x="7" y="-37" font-family="Helvetica,sans-Serif" font-size="10.00">&#45;</text>
<text text-anchor="start" x="17.5" y="-37" font-family="Helvetica,sans-Serif" font-size="10.00">slotOneItemCompleted()</text>
<text text-anchor="start" x="7" y="-22" font-family="Helvetica,sans-Serif" font-size="10.00">&#45;</text>
<text text-anchor="start" x="17.5" y="-22" font-family="Helvetica,sans-Serif" font-size="10.00">slotStatusUpdated()</text>
<text text-anchor="start" x="7" y="-7" font-family="Helvetica,sans-Serif" font-size="10.00">&#45;</text>
<text text-anchor="start" x="17.5" y="-7" font-family="Helvetica,sans-Serif" font-size="10.00">slotThreadFinished()</text>
<polygon fill="#666666" stroke="#666666" points="0.5,-373 0.5,-373 165.5,-373 165.5,-373 0.5,-373"/>
<polygon fill="#666666" stroke="#666666" points="0.5,-208 0.5,-208 15.5,-208 15.5,-208 0.5,-208"/>
<polygon fill="#666666" stroke="#666666" points="15.5,-208 15.5,-208 165.5,-208 165.5,-208 15.5,-208"/>
<polygon fill="none" stroke="#666666" points="0,0 0,-390 165,-390 165,0 0,0"/>
</a>
</g>
</g>
<!-- Node1&#45;&gt;Node3 -->
<g id="edge2_Node000001_Node000003" class="edge">
<title>Node1&#45;&gt;Node3</title>
<g id="a_edge2_Node000001_Node000003"><a xlink:title=" ">
<path fill="none" stroke="#63b8ff" d="M551.58,-454.16C435.65,-448.68 232.78,-433.06 174.5,-390 171.35,-387.67 168.31,-385.21 165.36,-382.63"/>
<polygon fill="none" stroke="#63b8ff" points="551.68,-457.67 561.83,-454.63 552,-450.68 551.68,-457.67"/>
</a>
</g>
</g>
<!-- Node4 -->
<g id="Node000004" class="node">
<title>Node4</title>
<g id="a_Node000004"><a xlink:href="../../d8/d7f/classBtBookshelfLanguagesPage.html" target="_top" xlink:title=" ">
<polygon fill="white" stroke="transparent" points="347.5,-302 183.5,-302 183.5,-88 347.5,-88 347.5,-302"/>
<text text-anchor="start" x="197.5" y="-290" font-family="Helvetica,sans-Serif" font-size="10.00">BtBookshelfLanguagesPage</text>
<text text-anchor="start" x="190" y="-275" font-family="Helvetica,sans-Serif" font-size="10.00">&#45;</text>
<text text-anchor="start" x="200.5" y="-275" font-family="Helvetica,sans-Serif" font-size="10.00">m_firstTimeInit</text>
<text text-anchor="start" x="190" y="-260" font-family="Helvetica,sans-Serif" font-size="10.00">&#45;</text>
<text text-anchor="start" x="200.5" y="-260" font-family="Helvetica,sans-Serif" font-size="10.00">m_languagesListView</text>
<text text-anchor="start" x="190" y="-245" font-family="Helvetica,sans-Serif" font-size="10.00">&#45;</text>
<text text-anchor="start" x="200.5" y="-245" font-family="Helvetica,sans-Serif" font-size="10.00">m_model</text>
<text text-anchor="start" x="190" y="-230" font-family="Helvetica,sans-Serif" font-size="10.00">&#45;</text>
<text text-anchor="start" x="200.5" y="-230" font-family="Helvetica,sans-Serif" font-size="10.00">m_verticalLayout</text>
<text text-anchor="start" x="187.5" y="-215" font-family="Helvetica,sans-Serif" font-size="10.00">+</text>
<text text-anchor="start" x="200.5" y="-215" font-family="Helvetica,sans-Serif" font-size="10.00">BtBookshelfLanguagesPage()</text>
<text text-anchor="start" x="187.5" y="-200" font-family="Helvetica,sans-Serif" font-size="10.00">+</text>
<text text-anchor="start" x="200.5" y="-200" font-family="Helvetica,sans-Serif" font-size="10.00">initializeLanguages()</text>
<text text-anchor="start" x="187.5" y="-185" font-family="Helvetica,sans-Serif" font-size="10.00">+</text>
<text text-anchor="start" x="200.5" y="-185" font-family="Helvetica,sans-Serif" font-size="10.00">initializePage()</text>
<text text-anchor="start" x="187.5" y="-170" font-family="Helvetica,sans-Serif" font-size="10.00">+</text>
<text text-anchor="start" x="200.5" y="-170" font-family="Helvetica,sans-Serif" font-size="10.00">isComplete()</text>
<text text-anchor="start" x="187.5" y="-155" font-family="Helvetica,sans-Serif" font-size="10.00">+</text>
<text text-anchor="start" x="200.5" y="-155" font-family="Helvetica,sans-Serif" font-size="10.00">nextId()</text>
<text text-anchor="start" x="187.5" y="-140" font-family="Helvetica,sans-Serif" font-size="10.00">+</text>
<text text-anchor="start" x="200.5" y="-140" font-family="Helvetica,sans-Serif" font-size="10.00">selectedLanguages()</text>
<text text-anchor="start" x="187.5" y="-125" font-family="Helvetica,sans-Serif" font-size="10.00">+</text>
<text text-anchor="start" x="200.5" y="-125" font-family="Helvetica,sans-Serif" font-size="10.00">skipPage()</text>
<text text-anchor="start" x="190" y="-110" font-family="Helvetica,sans-Serif" font-size="10.00">&#45;</text>
<text text-anchor="start" x="200.5" y="-110" font-family="Helvetica,sans-Serif" font-size="10.00">retranslateUi()</text>
<text text-anchor="start" x="190" y="-95" font-family="Helvetica,sans-Serif" font-size="10.00">&#45;</text>
<text text-anchor="start" x="200.5" y="-95" font-family="Helvetica,sans-Serif" font-size="10.00">slotDataChanged()</text>
<polygon fill="#666666" stroke="#666666" points="183.5,-285 183.5,-285 347.5,-285 347.5,-285 183.5,-285"/>
<polygon fill="#666666" stroke="#666666" points="183.5,-225 183.5,-225 198.5,-225 198.5,-225 183.5,-225"/>
<polygon fill="#666666" stroke="#666666" points="198.5,-225 198.5,-225 347.5,-225 347.5,-225 198.5,-225"/>
<polygon fill="none" stroke="#666666" points="183.5,-88 183.5,-302 347.5,-302 347.5,-88 183.5,-88"/>
</a>
</g>
</g>
<!-- Node1&#45;&gt;Node4 -->
<g id="edge3_Node000001_Node000004" class="edge">
<title>Node1&#45;&gt;Node4</title>
<g id="a_edge3_Node000001_Node000004"><a xlink:title=" ">
<path fill="none" stroke="#63b8ff" d="M551.65,-455.57C491.52,-450.47 411.41,-434.8 356.5,-390 328.83,-367.42 309.11,-334.5 295.28,-302.16"/>
<polygon fill="none" stroke="#63b8ff" points="551.64,-459.08 561.88,-456.35 552.17,-452.1 551.64,-459.08"/>
</a>
</g>
</g>
<!-- Node5 -->
<g id="Node000005" class="node">
<title>Node5</title>
<g id="a_Node000005"><a xlink:href="../../d0/dfd/classBtBookshelfRemoveFinalPage.html" target="_top" xlink:title=" ">
<polygon fill="white" stroke="transparent" points="541,-257 366,-257 366,-133 541,-133 541,-257"/>
<text text-anchor="start" x="380.5" y="-245" font-family="Helvetica,sans-Serif" font-size="10.00">BtBookshelfRemoveFinalPage</text>
<text text-anchor="start" x="373" y="-230" font-family="Helvetica,sans-Serif" font-size="10.00">&#45;</text>
<text text-anchor="start" x="383.5" y="-230" font-family="Helvetica,sans-Serif" font-size="10.00">m_msgLabel</text>
<text text-anchor="start" x="373" y="-215" font-family="Helvetica,sans-Serif" font-size="10.00">&#45;</text>
<text text-anchor="start" x="383.5" y="-215" font-family="Helvetica,sans-Serif" font-size="10.00">m_verticalLayout</text>
<text text-anchor="start" x="370.5" y="-200" font-family="Helvetica,sans-Serif" font-size="10.00">+</text>
<text text-anchor="start" x="383.5" y="-200" font-family="Helvetica,sans-Serif" font-size="10.00">BtBookshelfRemoveFinalPage()</text>
<text text-anchor="start" x="370.5" y="-185" font-family="Helvetica,sans-Serif" font-size="10.00">+</text>
<text text-anchor="start" x="383.5" y="-185" font-family="Helvetica,sans-Serif" font-size="10.00">initializePage()</text>
<text text-anchor="start" x="370.5" y="-170" font-family="Helvetica,sans-Serif" font-size="10.00">+</text>
<text text-anchor="start" x="383.5" y="-170" font-family="Helvetica,sans-Serif" font-size="10.00">isComplete()</text>
<text text-anchor="start" x="370.5" y="-155" font-family="Helvetica,sans-Serif" font-size="10.00">+</text>
<text text-anchor="start" x="383.5" y="-155" font-family="Helvetica,sans-Serif" font-size="10.00">nextId()</text>
<text text-anchor="start" x="373" y="-140" font-family="Helvetica,sans-Serif" font-size="10.00">&#45;</text>
<text text-anchor="start" x="383.5" y="-140" font-family="Helvetica,sans-Serif" font-size="10.00">retranslateUi()</text>
<polygon fill="#666666" stroke="#666666" points="366.5,-240 366.5,-240 541.5,-240 541.5,-240 366.5,-240"/>
<polygon fill="#666666" stroke="#666666" points="366.5,-210 366.5,-210 381.5,-210 381.5,-210 366.5,-210"/>
<polygon fill="#666666" stroke="#666666" points="381.5,-210 381.5,-210 541.5,-210 541.5,-210 381.5,-210"/>
<polygon fill="none" stroke="#666666" points="366,-133 366,-257 541,-257 541,-133 366,-133"/>
</a>
</g>
</g>
<!-- Node1&#45;&gt;Node5 -->
<g id="edge4_Node000001_Node000005" class="edge">
<title>Node1&#45;&gt;Node5</title>
<g id="a_edge4_Node000001_Node000005"><a xlink:title=" ">
<path fill="none" stroke="#63b8ff" d="M580.02,-419.28C569.44,-410.45 559.01,-400.51 550.5,-390 518.16,-350.05 492.73,-297.55 476.03,-257.24"/>
<polygon fill="none" stroke="#63b8ff" points="578.13,-422.26 588.11,-425.82 582.53,-416.81 578.13,-422.26"/>
</a>
</g>
</g>
<!-- Node6 -->
<g id="Node000006" class="node">
<title>Node6</title>
<g id="a_Node000006"><a xlink:href="../../d2/de4/classBtBookshelfSourcesPage.html" target="_top" xlink:title=" ">
<polygon fill="white" stroke="transparent" points="709.5,-302 559.5,-302 559.5,-88 709.5,-88 709.5,-302"/>
<text text-anchor="start" x="574" y="-290" font-family="Helvetica,sans-Serif" font-size="10.00">BtBookshelfSourcesPage</text>
<text text-anchor="start" x="566" y="-275" font-family="Helvetica,sans-Serif" font-size="10.00">&#45;</text>
<text text-anchor="start" x="576.5" y="-275" font-family="Helvetica,sans-Serif" font-size="10.00">m_firstTimeInit</text>
<text text-anchor="start" x="566" y="-260" font-family="Helvetica,sans-Serif" font-size="10.00">&#45;</text>
<text text-anchor="start" x="576.5" y="-260" font-family="Helvetica,sans-Serif" font-size="10.00">m_model</text>
<text text-anchor="start" x="566" y="-245" font-family="Helvetica,sans-Serif" font-size="10.00">&#45;</text>
<text text-anchor="start" x="576.5" y="-245" font-family="Helvetica,sans-Serif" font-size="10.00">m_sourcesTableView</text>
<text text-anchor="start" x="566" y="-230" font-family="Helvetica,sans-Serif" font-size="10.00">&#45;</text>
<text text-anchor="start" x="576.5" y="-230" font-family="Helvetica,sans-Serif" font-size="10.00">m_verticalLayout</text>
<text text-anchor="start" x="563.5" y="-215" font-family="Helvetica,sans-Serif" font-size="10.00">+</text>
<text text-anchor="start" x="576.5" y="-215" font-family="Helvetica,sans-Serif" font-size="10.00">BtBookshelfSourcesPage()</text>
<text text-anchor="start" x="563.5" y="-200" font-family="Helvetica,sans-Serif" font-size="10.00">+</text>
<text text-anchor="start" x="576.5" y="-200" font-family="Helvetica,sans-Serif" font-size="10.00">initializePage()</text>
<text text-anchor="start" x="563.5" y="-185" font-family="Helvetica,sans-Serif" font-size="10.00">+</text>
<text text-anchor="start" x="576.5" y="-185" font-family="Helvetica,sans-Serif" font-size="10.00">isComplete()</text>
<text text-anchor="start" x="563.5" y="-170" font-family="Helvetica,sans-Serif" font-size="10.00">+</text>
<text text-anchor="start" x="576.5" y="-170" font-family="Helvetica,sans-Serif" font-size="10.00">nextId()</text>
<text text-anchor="start" x="563.5" y="-155" font-family="Helvetica,sans-Serif" font-size="10.00">+</text>
<text text-anchor="start" x="576.5" y="-155" font-family="Helvetica,sans-Serif" font-size="10.00">selectedSources()</text>
<text text-anchor="start" x="566" y="-140" font-family="Helvetica,sans-Serif" font-size="10.00">&#45;</text>
<text text-anchor="start" x="576.5" y="-140" font-family="Helvetica,sans-Serif" font-size="10.00">retranslateUi()</text>
<text text-anchor="start" x="566" y="-125" font-family="Helvetica,sans-Serif" font-size="10.00">&#45;</text>
<text text-anchor="start" x="576.5" y="-125" font-family="Helvetica,sans-Serif" font-size="10.00">selectSourcesInModel()</text>
<text text-anchor="start" x="566" y="-110" font-family="Helvetica,sans-Serif" font-size="10.00">&#45;</text>
<text text-anchor="start" x="576.5" y="-110" font-family="Helvetica,sans-Serif" font-size="10.00">updateSourcesModel()</text>
<text text-anchor="start" x="566" y="-95" font-family="Helvetica,sans-Serif" font-size="10.00">&#45;</text>
<text text-anchor="start" x="576.5" y="-95" font-family="Helvetica,sans-Serif" font-size="10.00">slotButtonClicked()</text>
<polygon fill="#666666" stroke="#666666" points="559.5,-285 559.5,-285 709.5,-285 709.5,-285 559.5,-285"/>
<polygon fill="#666666" stroke="#666666" points="559.5,-225 559.5,-225 574.5,-225 574.5,-225 559.5,-225"/>
<polygon fill="#666666" stroke="#666666" points="574.5,-225 574.5,-225 709.5,-225 709.5,-225 574.5,-225"/>
<polygon fill="none" stroke="#666666" points="559.5,-88 559.5,-302 709.5,-302 709.5,-88 559.5,-88"/>
</a>
</g>
</g>
<!-- Node1&#45;&gt;Node6 -->
<g id="edge5_Node000001_Node000006" class="edge">
<title>Node1&#45;&gt;Node6</title>
<g id="a_edge5_Node000001_Node000006"><a xlink:title=" ">
<path fill="none" stroke="#63b8ff" d="M634.5,-415.51C634.5,-384.94 634.5,-341.93 634.5,-302.07"/>
<polygon fill="none" stroke="#63b8ff" points="631,-415.78 634.5,-425.78 638,-415.78 631,-415.78"/>
</a>
</g>
</g>
<!-- Node7 -->
<g id="Node000007" class="node">
<title>Node7</title>
<g id="a_Node000007"><a xlink:href="../../df/dcc/classBtBookshelfSourcesProgressPage.html" target="_top" xlink:title=" ">
<polygon fill="white" stroke="transparent" points="901,-320.5 728,-320.5 728,-69.5 901,-69.5 901,-320.5"/>
<text text-anchor="start" x="733.5" y="-308" font-family="Helvetica,sans-Serif" font-size="10.00">BtBookshelfSourcesProgressPage</text>
<text text-anchor="start" x="736" y="-293" font-family="Helvetica,sans-Serif" font-size="10.00">&#45;</text>
<text text-anchor="start" x="747.5" y="-293" font-family="Helvetica,sans-Serif" font-size="10.00">m_installCompleted</text>
<text text-anchor="start" x="736" y="-278" font-family="Helvetica,sans-Serif" font-size="10.00">&#45;</text>
<text text-anchor="start" x="747.5" y="-278" font-family="Helvetica,sans-Serif" font-size="10.00">m_msgLabel</text>
<text text-anchor="start" x="736" y="-263" font-family="Helvetica,sans-Serif" font-size="10.00">&#45;</text>
<text text-anchor="start" x="747.5" y="-263" font-family="Helvetica,sans-Serif" font-size="10.00">m_progressBar</text>
<text text-anchor="start" x="736" y="-248" font-family="Helvetica,sans-Serif" font-size="10.00">&#45;</text>
<text text-anchor="start" x="747.5" y="-248" font-family="Helvetica,sans-Serif" font-size="10.00">m_stopButton</text>
<text text-anchor="start" x="736" y="-233" font-family="Helvetica,sans-Serif" font-size="10.00">&#45;</text>
<text text-anchor="start" x="747.5" y="-233" font-family="Helvetica,sans-Serif" font-size="10.00">m_thread</text>
<text text-anchor="start" x="733.5" y="-218" font-family="Helvetica,sans-Serif" font-size="10.00">+</text>
<text text-anchor="start" x="747.5" y="-218" font-family="Helvetica,sans-Serif" font-size="10.00">BtBookshelfSourcesProgress</text>
<text text-anchor="start" x="747.5" y="-207" font-family="Helvetica,sans-Serif" font-size="10.00">Page()</text>
<text text-anchor="start" x="733.5" y="-192" font-family="Helvetica,sans-Serif" font-size="10.00">+</text>
<text text-anchor="start" x="747.5" y="-192" font-family="Helvetica,sans-Serif" font-size="10.00">destroyThread()</text>
<text text-anchor="start" x="733.5" y="-177" font-family="Helvetica,sans-Serif" font-size="10.00">+</text>
<text text-anchor="start" x="747.5" y="-177" font-family="Helvetica,sans-Serif" font-size="10.00">initializePage()</text>
<text text-anchor="start" x="733.5" y="-162" font-family="Helvetica,sans-Serif" font-size="10.00">+</text>
<text text-anchor="start" x="747.5" y="-162" font-family="Helvetica,sans-Serif" font-size="10.00">isComplete()</text>
<text text-anchor="start" x="733.5" y="-147" font-family="Helvetica,sans-Serif" font-size="10.00">+</text>
<text text-anchor="start" x="747.5" y="-147" font-family="Helvetica,sans-Serif" font-size="10.00">nextId()</text>
<text text-anchor="start" x="733.5" y="-132" font-family="Helvetica,sans-Serif" font-size="10.00">+</text>
<text text-anchor="start" x="747.5" y="-132" font-family="Helvetica,sans-Serif" font-size="10.00">~BtBookshelfSourcesProgress</text>
<text text-anchor="start" x="747.5" y="-121" font-family="Helvetica,sans-Serif" font-size="10.00">Page()</text>
<text text-anchor="start" x="733.5" y="-106" font-family="Helvetica,sans-Serif" font-size="10.00">+</text>
<text text-anchor="start" x="747.5" y="-106" font-family="Helvetica,sans-Serif" font-size="10.00">slotStopInstall()</text>
<text text-anchor="start" x="736" y="-91" font-family="Helvetica,sans-Serif" font-size="10.00">&#45;</text>
<text text-anchor="start" x="747.5" y="-91" font-family="Helvetica,sans-Serif" font-size="10.00">retranslateUi()</text>
<text text-anchor="start" x="736" y="-76" font-family="Helvetica,sans-Serif" font-size="10.00">&#45;</text>
<text text-anchor="start" x="747.5" y="-76" font-family="Helvetica,sans-Serif" font-size="10.00">slotThreadFinished()</text>
<polygon fill="#666666" stroke="#666666" points="728.5,-303 728.5,-303 901.5,-303 901.5,-303 728.5,-303"/>
<polygon fill="#666666" stroke="#666666" points="728.5,-228 728.5,-228 745.5,-228 745.5,-228 728.5,-228"/>
<polygon fill="#666666" stroke="#666666" points="745.5,-228 745.5,-228 901.5,-228 901.5,-228 745.5,-228"/>
<polygon fill="none" stroke="#666666" points="728,-69.5 728,-320.5 901,-320.5 901,-69.5 728,-69.5"/>
</a>
</g>
</g>
<!-- Node1&#45;&gt;Node7 -->
<g id="edge6_Node000001_Node000007" class="edge">
<title>Node1&#45;&gt;Node7</title>
<g id="a_edge6_Node000001_Node000007"><a xlink:title=" ">
<path fill="none" stroke="#63b8ff" d="M689.01,-419.31C699.59,-410.47 710.01,-400.53 718.5,-390 735.3,-369.16 750.19,-344.89 762.93,-320.71"/>
<polygon fill="none" stroke="#63b8ff" points="686.5,-416.84 680.93,-425.85 690.9,-422.29 686.5,-416.84"/>
</a>
</g>
</g>
<!-- Node8 -->
<g id="Node000008" class="node">
<title>Node8</title>
<g id="a_Node000008"><a xlink:href="../../d3/d1b/classBtBookshelfTaskPage.html" target="_top" xlink:title=" ">
<polygon fill="white" stroke="transparent" points="1053.5,-287 919.5,-287 919.5,-103 1053.5,-103 1053.5,-287"/>
<text text-anchor="start" x="934" y="-275" font-family="Helvetica,sans-Serif" font-size="10.00">BtBookshelfTaskPage</text>
<text text-anchor="start" x="926" y="-260" font-family="Helvetica,sans-Serif" font-size="10.00">&#45;</text>
<text text-anchor="start" x="936.5" y="-260" font-family="Helvetica,sans-Serif" font-size="10.00">m_groupBox</text>
<text text-anchor="start" x="926" y="-245" font-family="Helvetica,sans-Serif" font-size="10.00">&#45;</text>
<text text-anchor="start" x="936.5" y="-245" font-family="Helvetica,sans-Serif" font-size="10.00">m_installRadioButton</text>
<text text-anchor="start" x="926" y="-230" font-family="Helvetica,sans-Serif" font-size="10.00">&#45;</text>
<text text-anchor="start" x="936.5" y="-230" font-family="Helvetica,sans-Serif" font-size="10.00">m_removeRadioButton</text>
<text text-anchor="start" x="926" y="-215" font-family="Helvetica,sans-Serif" font-size="10.00">&#45;</text>
<text text-anchor="start" x="936.5" y="-215" font-family="Helvetica,sans-Serif" font-size="10.00">m_updateRadioButton</text>
<text text-anchor="start" x="926" y="-200" font-family="Helvetica,sans-Serif" font-size="10.00">&#45;</text>
<text text-anchor="start" x="936.5" y="-200" font-family="Helvetica,sans-Serif" font-size="10.00">m_verticalLayout</text>
<text text-anchor="start" x="926" y="-185" font-family="Helvetica,sans-Serif" font-size="10.00">&#45;</text>
<text text-anchor="start" x="936.5" y="-185" font-family="Helvetica,sans-Serif" font-size="10.00">m_warningLabel</text>
<text text-anchor="start" x="923.5" y="-170" font-family="Helvetica,sans-Serif" font-size="10.00">+</text>
<text text-anchor="start" x="936.5" y="-170" font-family="Helvetica,sans-Serif" font-size="10.00">BtBookshelfTaskPage()</text>
<text text-anchor="start" x="923.5" y="-155" font-family="Helvetica,sans-Serif" font-size="10.00">+</text>
<text text-anchor="start" x="936.5" y="-155" font-family="Helvetica,sans-Serif" font-size="10.00">nextId()</text>
<text text-anchor="start" x="923.5" y="-140" font-family="Helvetica,sans-Serif" font-size="10.00">+</text>
<text text-anchor="start" x="936.5" y="-140" font-family="Helvetica,sans-Serif" font-size="10.00">taskType()</text>
<text text-anchor="start" x="926" y="-125" font-family="Helvetica,sans-Serif" font-size="10.00">&#45;</text>
<text text-anchor="start" x="936.5" y="-125" font-family="Helvetica,sans-Serif" font-size="10.00">retranslateUi()</text>
<text text-anchor="start" x="926" y="-110" font-family="Helvetica,sans-Serif" font-size="10.00">&#45;</text>
<text text-anchor="start" x="936.5" y="-110" font-family="Helvetica,sans-Serif" font-size="10.00">timeToUpdate()</text>
<polygon fill="#666666" stroke="#666666" points="919.5,-270 919.5,-270 1053.5,-270 1053.5,-270 919.5,-270"/>
<polygon fill="#666666" stroke="#666666" points="919.5,-180 919.5,-180 934.5,-180 934.5,-180 919.5,-180"/>
<polygon fill="#666666" stroke="#666666" points="934.5,-180 934.5,-180 1053.5,-180 1053.5,-180 934.5,-180"/>
<polygon fill="none" stroke="#666666" points="919.5,-103 919.5,-287 1053.5,-287 1053.5,-103 919.5,-103"/>
</a>
</g>
</g>
<!-- Node1&#45;&gt;Node8 -->
<g id="edge7_Node000001_Node000008" class="edge">
<title>Node1&#45;&gt;Node8</title>
<g id="a_edge7_Node000001_Node000008"><a xlink:title=" ">
<path fill="none" stroke="#63b8ff" d="M717.51,-445.44C787.92,-434.13 881.91,-414.96 910.5,-390 940.61,-363.71 958.89,-323.97 969.93,-287.29"/>
<polygon fill="none" stroke="#63b8ff" points="716.63,-442.04 707.3,-447.06 717.72,-448.95 716.63,-442.04"/>
</a>
</g>
</g>
<!-- Node9 -->
<g id="Node000009" class="node">
<title>Node9</title>
<g id="a_Node000009"><a xlink:href="../../df/d7e/classBtBookshelfWorksPage.html" target="_top" xlink:title=" ">
<polygon fill="white" stroke="transparent" points="1239,-369.5 1072,-369.5 1072,-20.5 1239,-20.5 1239,-369.5"/>
<text text-anchor="start" x="1099.5" y="-357" font-family="Helvetica,sans-Serif" font-size="10.00">BtBookshelfWorksPage</text>
<text text-anchor="start" x="1079" y="-342" font-family="Helvetica,sans-Serif" font-size="10.00">&#45;</text>
<text text-anchor="start" x="1089.5" y="-342" font-family="Helvetica,sans-Serif" font-size="10.00">m_bookshelfModel</text>
<text text-anchor="start" x="1079" y="-327" font-family="Helvetica,sans-Serif" font-size="10.00">&#45;</text>
<text text-anchor="start" x="1089.5" y="-327" font-family="Helvetica,sans-Serif" font-size="10.00">m_bookshelfView</text>
<text text-anchor="start" x="1079" y="-312" font-family="Helvetica,sans-Serif" font-size="10.00">&#45;</text>
<text text-anchor="start" x="1089.5" y="-312" font-family="Helvetica,sans-Serif" font-size="10.00">m_contextMenu</text>
<text text-anchor="start" x="1079" y="-297" font-family="Helvetica,sans-Serif" font-size="10.00">&#45;</text>
<text text-anchor="start" x="1089.5" y="-297" font-family="Helvetica,sans-Serif" font-size="10.00">m_groupingButton</text>
<text text-anchor="start" x="1079" y="-282" font-family="Helvetica,sans-Serif" font-size="10.00">&#45;</text>
<text text-anchor="start" x="1089.5" y="-282" font-family="Helvetica,sans-Serif" font-size="10.00">m_groupingLabel</text>
<text text-anchor="start" x="1079" y="-267" font-family="Helvetica,sans-Serif" font-size="10.00">&#45;</text>
<text text-anchor="start" x="1089.5" y="-267" font-family="Helvetica,sans-Serif" font-size="10.00">m_groupingMenu</text>
<text text-anchor="start" x="1079" y="-252" font-family="Helvetica,sans-Serif" font-size="10.00">&#45;</text>
<text text-anchor="start" x="1089.5" y="-252" font-family="Helvetica,sans-Serif" font-size="10.00">m_groupingOrder</text>
<text text-anchor="start" x="1079" y="-237" font-family="Helvetica,sans-Serif" font-size="10.00">&#45;</text>
<text text-anchor="start" x="1089.5" y="-237" font-family="Helvetica,sans-Serif" font-size="10.00">m_installPageModel</text>
<text text-anchor="start" x="1079" y="-222" font-family="Helvetica,sans-Serif" font-size="10.00">&#45;</text>
<text text-anchor="start" x="1089.5" y="-222" font-family="Helvetica,sans-Serif" font-size="10.00">m_itemContextMenu</text>
<text text-anchor="start" x="1079" y="-207" font-family="Helvetica,sans-Serif" font-size="10.00">&#45;</text>
<text text-anchor="start" x="1089.5" y="-207" font-family="Helvetica,sans-Serif" font-size="10.00">m_msgLabel</text>
<text text-anchor="start" x="1089.5" y="-192" font-family="Helvetica,sans-Serif" font-size="10.00">and 6 more...</text>
<text text-anchor="start" x="1076.5" y="-177" font-family="Helvetica,sans-Serif" font-size="10.00">+</text>
<text text-anchor="start" x="1089.5" y="-177" font-family="Helvetica,sans-Serif" font-size="10.00">BtBookshelfWorksPage()</text>
<text text-anchor="start" x="1076.5" y="-162" font-family="Helvetica,sans-Serif" font-size="10.00">+</text>
<text text-anchor="start" x="1089.5" y="-162" font-family="Helvetica,sans-Serif" font-size="10.00">checkedModules()</text>
<text text-anchor="start" x="1076.5" y="-147" font-family="Helvetica,sans-Serif" font-size="10.00">+</text>
<text text-anchor="start" x="1089.5" y="-147" font-family="Helvetica,sans-Serif" font-size="10.00">initializePage()</text>
<text text-anchor="start" x="1076.5" y="-132" font-family="Helvetica,sans-Serif" font-size="10.00">+</text>
<text text-anchor="start" x="1089.5" y="-132" font-family="Helvetica,sans-Serif" font-size="10.00">installPath()</text>
<text text-anchor="start" x="1076.5" y="-117" font-family="Helvetica,sans-Serif" font-size="10.00">+</text>
<text text-anchor="start" x="1089.5" y="-117" font-family="Helvetica,sans-Serif" font-size="10.00">isComplete()</text>
<text text-anchor="start" x="1076.5" y="-102" font-family="Helvetica,sans-Serif" font-size="10.00">+</text>
<text text-anchor="start" x="1089.5" y="-102" font-family="Helvetica,sans-Serif" font-size="10.00">nextId()</text>
<text text-anchor="start" x="1079" y="-87" font-family="Helvetica,sans-Serif" font-size="10.00">&#45;</text>
<text text-anchor="start" x="1089.5" y="-87" font-family="Helvetica,sans-Serif" font-size="10.00">retranslateUi()</text>
<text text-anchor="start" x="1079" y="-72" font-family="Helvetica,sans-Serif" font-size="10.00">&#45;</text>
<text text-anchor="start" x="1089.5" y="-72" font-family="Helvetica,sans-Serif" font-size="10.00">slotGroupingActionTriggered()</text>
<text text-anchor="start" x="1079" y="-57" font-family="Helvetica,sans-Serif" font-size="10.00">&#45;</text>
<text text-anchor="start" x="1089.5" y="-57" font-family="Helvetica,sans-Serif" font-size="10.00">slotGroupingOrderChanged()</text>
<text text-anchor="start" x="1079" y="-42" font-family="Helvetica,sans-Serif" font-size="10.00">&#45;</text>
<text text-anchor="start" x="1089.5" y="-42" font-family="Helvetica,sans-Serif" font-size="10.00">slotInitPathCombo()</text>
<text text-anchor="start" x="1079" y="-27" font-family="Helvetica,sans-Serif" font-size="10.00">&#45;</text>
<text text-anchor="start" x="1089.5" y="-27" font-family="Helvetica,sans-Serif" font-size="10.00">slotPathChanged()</text>
<polygon fill="#666666" stroke="#666666" points="1072.5,-352 1072.5,-352 1239.5,-352 1239.5,-352 1072.5,-352"/>
<polygon fill="#666666" stroke="#666666" points="1072.5,-187 1072.5,-187 1087.5,-187 1087.5,-187 1072.5,-187"/>
<polygon fill="#666666" stroke="#666666" points="1087.5,-187 1087.5,-187 1239.5,-187 1239.5,-187 1087.5,-187"/>
<polygon fill="none" stroke="#666666" points="1072,-20.5 1072,-369.5 1239,-369.5 1239,-20.5 1072,-20.5"/>
</a>
</g>
</g>
<!-- Node1&#45;&gt;Node9 -->
<g id="edge8_Node000001_Node000009" class="edge">
<title>Node1&#45;&gt;Node9</title>
<g id="a_edge8_Node000001_Node000009"><a xlink:title=" ">
<path fill="none" stroke="#63b8ff" d="M717.63,-453.07C826.36,-446.42 1009.3,-429.57 1062.5,-390 1070.59,-383.98 1078.01,-377.07 1084.81,-369.53"/>
<polygon fill="none" stroke="#63b8ff" points="717.12,-449.59 707.35,-453.68 717.54,-456.58 717.12,-449.59"/>
</a>
</g>
</g>
<!-- Node2 -->
<g id="Node000002" class="node">
<title>Node2</title>
<g id="a_Node000002"><a xlink:href="../../dc/d67/classQWizardPage.html" target="_top" xlink:title=" ">
<polygon fill="white" stroke="transparent" points="672,-575 597,-575 597,-526 672,-526 672,-575"/>
<text text-anchor="start" x="602.5" y="-562.5" font-family="Helvetica,sans-Serif" font-size="10.00">QWizardPage</text>
<text text-anchor="start" x="633" y="-547.5" font-family="Helvetica,sans-Serif" font-size="10.00"> </text>
<text text-anchor="start" x="633" y="-532.5" font-family="Helvetica,sans-Serif" font-size="10.00"> </text>
<polygon fill="#666666" stroke="#666666" points="597.5,-557.5 597.5,-557.5 672.5,-557.5 672.5,-557.5 597.5,-557.5"/>
<polygon fill="#666666" stroke="#666666" points="597.5,-542.5 597.5,-542.5 672.5,-542.5 672.5,-542.5 597.5,-542.5"/>
<polygon fill="none" stroke="#666666" points="597,-526 597,-575 672,-575 672,-526 597,-526"/>
</a>
</g>
</g>
<!-- Node2&#45;&gt;Node1 -->
<g id="edge1_Node000001_Node000002" class="edge">
<title>Node2&#45;&gt;Node1</title>
<g id="a_edge1_Node000001_Node000002"><a xlink:title=" ">
<path fill="none" stroke="#63b8ff" d="M634.5,-515.54C634.5,-507.2 634.5,-498.31 634.5,-490.11"/>
<polygon fill="none" stroke="#63b8ff" points="631,-515.72 634.5,-525.72 638,-515.72 631,-515.72"/>
</a>
</g>
</g>
</g>
</svg>

<g id="navigator" transform="translate(0 0)" fill="#404254">
  <rect fill="#f2f5e9" fill-opacity="0.5" stroke="#606060" stroke-width=".5" x="0" y="0" width="60" height="60"/>
  <use id="zoomplus" xlink:href="#zoomPlus" x="17" y="9" onmousedown="handleZoom(evt,'in')"/>
  <use id="zoomminus" xlink:href="#zoomMin" x="42" y="9" onmousedown="handleZoom(evt,'out')"/>
  <use id="reset" xlink:href="#resetDef" x="30" y="36" onmousedown="handleReset()"/>
   <use id="arrowup" xlink:href="#arrowUp" x="0" y="0" onmousedown="handlePan(0,-1)"/>
  <use id="arrowright" xlink:href="#arrowRight" x="0" y="0" onmousedown="handlePan(1,0)"/>
  <use id="arrowdown" xlink:href="#arrowDown" x="0" y="0" onmousedown="handlePan(0,1)"/>
  <use id="arrowleft" xlink:href="#arrowLeft" x="0" y="0" onmousedown="handlePan(-1,0)"/>
</g>
<svg viewBox="0 0 15 15" width="100%" height="30px" preserveAspectRatio="xMaxYMin meet">
 <g id="arrow_out" transform="scale(0.3 0.3)">
  <a xlink:href="classBtBookshelfWizardPage__inherit__graph_org.svg" target="_base">
   <rect id="button" ry="5" rx="5" y="6" x="6" height="38" width="38"
        fill="#f2f5e9" fill-opacity="0.5" stroke="#606060" stroke-width="1.0"/>
   <path id="arrow"
     d="M 11.500037,31.436501 C 11.940474,20.09759 22.043105,11.32322 32.158766,21.979434 L 37.068811,17.246167 C 37.068811,17.246167 37.088388,32 37.088388,32 L 22.160133,31.978069 C 22.160133,31.978069 26.997745,27.140456 26.997745,27.140456 C 18.528582,18.264221 13.291696,25.230495 11.500037,31.436501 z"
     style="fill:#404040;"/>
  </a>
 </g>
</svg>

<style type='text/css'>
<![CDATA[
[data-mouse-over-selected='false'] { opacity: 0.7; }
[data-mouse-over-selected='true']  { opacity: 1.0; }
]]>
</style>
<script type="application/ecmascript"><![CDATA[
document.addEventListener('DOMContentLoaded', (event) => {
  highlightEdges();
  highlightAdjacentNodes();
});
]]></script>
</svg>
