<?xml version="1.0" encoding="UTF-8" standalone="no"?>
<!DOCTYPE svg PUBLIC "-//W3C//DTD SVG 1.1//EN"
 "http://www.w3.org/Graphics/SVG/1.1/DTD/svg11.dtd">
<!-- Generated by graphviz version 2.43.0 (0)
 -->
<!-- Title: BtBookshelfWizardPage Pages: 1 -->
<svg width="1285pt" height="507pt"
 viewBox="0.00 0.00 1285.00 507.00" xmlns="http://www.w3.org/2000/svg" xmlns:xlink="http://www.w3.org/1999/xlink">
<g id="graph0" class="graph" transform="scale(1 1) rotate(0) translate(4 503)">
<title>BtBookshelfWizardPage</title>
<polygon fill="white" stroke="transparent" points="-4,4 -4,-503 1281,-503 1281,4 -4,4"/>
<!-- Node1 -->
<g id="node1" class="node">
<title>Node1</title>
<g id="a_node1"><a xlink:title=" ">
<polygon fill="#bfbfbf" stroke="black" points="579.5,-336.5 579.5,-404.5 731.5,-404.5 731.5,-336.5 579.5,-336.5"/>
<text text-anchor="middle" x="655.5" y="-392.5" font-family="Helvetica,sans-Serif" font-size="10.00">BtBookshelfWizardPage</text>
<polyline fill="none" stroke="black" points="579.5,-385.5 731.5,-385.5 "/>
<text text-anchor="middle" x="655.5" y="-373.5" font-family="Helvetica,sans-Serif" font-size="10.00"> </text>
<polyline fill="none" stroke="black" points="579.5,-366.5 731.5,-366.5 "/>
<text text-anchor="start" x="587.5" y="-354.5" font-family="Helvetica,sans-Serif" font-size="10.00">+ BtBookshelfWizardPage()</text>
<text text-anchor="start" x="587.5" y="-343.5" font-family="Helvetica,sans-Serif" font-size="10.00">+ btWizard()</text>
</a>
</g>
</g>
<!-- Node3 -->
<g id="node3" class="node">
<title>Node3</title>
<g id="a_node3"><a xlink:href="../../de/d0a/classBtBookshelfInstallFinalPage.html" target="_top" xlink:title=" ">
<polygon fill="white" stroke="black" points="0,-0.5 0,-299.5 171,-299.5 171,-0.5 0,-0.5"/>
<text text-anchor="middle" x="85.5" y="-287.5" font-family="Helvetica,sans-Serif" font-size="10.00">BtBookshelfInstallFinalPage</text>
<polyline fill="none" stroke="black" points="0,-280.5 171,-280.5 "/>
<text text-anchor="start" x="8" y="-268.5" font-family="Helvetica,sans-Serif" font-size="10.00">&#45; m_installCompleted</text>
<text text-anchor="start" x="8" y="-257.5" font-family="Helvetica,sans-Serif" font-size="10.00">&#45; m_installFailed</text>
<text text-anchor="start" x="8" y="-246.5" font-family="Helvetica,sans-Serif" font-size="10.00">&#45; m_lastStatus</text>
<text text-anchor="start" x="8" y="-235.5" font-family="Helvetica,sans-Serif" font-size="10.00">&#45; m_modules</text>
<text text-anchor="start" x="8" y="-224.5" font-family="Helvetica,sans-Serif" font-size="10.00">&#45; m_msgLabel</text>
<text text-anchor="start" x="8" y="-213.5" font-family="Helvetica,sans-Serif" font-size="10.00">&#45; m_msgLabel2</text>
<text text-anchor="start" x="8" y="-202.5" font-family="Helvetica,sans-Serif" font-size="10.00">&#45; m_progressBar</text>
<text text-anchor="start" x="8" y="-191.5" font-family="Helvetica,sans-Serif" font-size="10.00">&#45; m_stopButton</text>
<text text-anchor="start" x="8" y="-180.5" font-family="Helvetica,sans-Serif" font-size="10.00">&#45; m_thread</text>
<text text-anchor="start" x="8" y="-169.5" font-family="Helvetica,sans-Serif" font-size="10.00">&#45; m_verticalLayout</text>
<polyline fill="none" stroke="black" points="0,-162.5 171,-162.5 "/>
<text text-anchor="start" x="8" y="-150.5" font-family="Helvetica,sans-Serif" font-size="10.00">+ BtBookshelfInstallFinalPage()</text>
<text text-anchor="start" x="8" y="-139.5" font-family="Helvetica,sans-Serif" font-size="10.00">+ destroyThread()</text>
<text text-anchor="start" x="8" y="-128.5" font-family="Helvetica,sans-Serif" font-size="10.00">+ initializePage()</text>
<text text-anchor="start" x="8" y="-117.5" font-family="Helvetica,sans-Serif" font-size="10.00">+ isComplete()</text>
<text text-anchor="start" x="8" y="-106.5" font-family="Helvetica,sans-Serif" font-size="10.00">+ nextId()</text>
<text text-anchor="start" x="8" y="-95.5" font-family="Helvetica,sans-Serif" font-size="10.00">+ selectedWorks()</text>
<text text-anchor="start" x="8" y="-84.5" font-family="Helvetica,sans-Serif" font-size="10.00">+ ~BtBookshelfInstallFinal</text>
<text text-anchor="start" x="8" y="-73.5" font-family="Helvetica,sans-Serif" font-size="10.00">Page()</text>
<text text-anchor="start" x="8" y="-62.5" font-family="Helvetica,sans-Serif" font-size="10.00">+ slotStopInstall()</text>
<text text-anchor="start" x="8" y="-51.5" font-family="Helvetica,sans-Serif" font-size="10.00">&#45; retranslateUi()</text>
<text text-anchor="start" x="8" y="-40.5" font-family="Helvetica,sans-Serif" font-size="10.00">&#45; slotInstallStarted()</text>
<text text-anchor="start" x="8" y="-29.5" font-family="Helvetica,sans-Serif" font-size="10.00">&#45; slotOneItemCompleted()</text>
<text text-anchor="start" x="8" y="-18.5" font-family="Helvetica,sans-Serif" font-size="10.00">&#45; slotStatusUpdated()</text>
<text text-anchor="start" x="8" y="-7.5" font-family="Helvetica,sans-Serif" font-size="10.00">&#45; slotThreadFinished()</text>
</a>
</g>
</g>
<!-- Node1&#45;&gt;Node3 -->
<g id="edge2" class="edge">
<title>Node1&#45;&gt;Node3</title>
<path fill="none" stroke="midnightblue" d="M569.01,-365.39C449.92,-358.31 243.05,-340.47 180.5,-300 177.28,-297.92 174.15,-295.68 171.1,-293.32"/>
<polygon fill="none" stroke="midnightblue" points="569.01,-368.9 579.19,-365.98 569.41,-361.91 569.01,-368.9"/>
</g>
<!-- Node4 -->
<g id="node4" class="node">
<title>Node4</title>
<g id="a_node4"><a xlink:href="../../d8/d7f/classBtBookshelfLanguagesPage.html" target="_top" xlink:title=" ">
<polygon fill="white" stroke="black" points="189.5,-61 189.5,-239 359.5,-239 359.5,-61 189.5,-61"/>
<text text-anchor="middle" x="274.5" y="-227" font-family="Helvetica,sans-Serif" font-size="10.00">BtBookshelfLanguagesPage</text>
<polyline fill="none" stroke="black" points="189.5,-220 359.5,-220 "/>
<text text-anchor="start" x="197.5" y="-208" font-family="Helvetica,sans-Serif" font-size="10.00">&#45; m_firstTimeInit</text>
<text text-anchor="start" x="197.5" y="-197" font-family="Helvetica,sans-Serif" font-size="10.00">&#45; m_languagesListView</text>
<text text-anchor="start" x="197.5" y="-186" font-family="Helvetica,sans-Serif" font-size="10.00">&#45; m_model</text>
<text text-anchor="start" x="197.5" y="-175" font-family="Helvetica,sans-Serif" font-size="10.00">&#45; m_verticalLayout</text>
<polyline fill="none" stroke="black" points="189.5,-168 359.5,-168 "/>
<text text-anchor="start" x="197.5" y="-156" font-family="Helvetica,sans-Serif" font-size="10.00">+ BtBookshelfLanguagesPage()</text>
<text text-anchor="start" x="197.5" y="-145" font-family="Helvetica,sans-Serif" font-size="10.00">+ initializeLanguages()</text>
<text text-anchor="start" x="197.5" y="-134" font-family="Helvetica,sans-Serif" font-size="10.00">+ initializePage()</text>
<text text-anchor="start" x="197.5" y="-123" font-family="Helvetica,sans-Serif" font-size="10.00">+ isComplete()</text>
<text text-anchor="start" x="197.5" y="-112" font-family="Helvetica,sans-Serif" font-size="10.00">+ nextId()</text>
<text text-anchor="start" x="197.5" y="-101" font-family="Helvetica,sans-Serif" font-size="10.00">+ selectedLanguages()</text>
<text text-anchor="start" x="197.5" y="-90" font-family="Helvetica,sans-Serif" font-size="10.00">+ skipPage()</text>
<text text-anchor="start" x="197.5" y="-79" font-family="Helvetica,sans-Serif" font-size="10.00">&#45; retranslateUi()</text>
<text text-anchor="start" x="197.5" y="-68" font-family="Helvetica,sans-Serif" font-size="10.00">&#45; slotDataChanged()</text>
</a>
</g>
</g>
<!-- Node1&#45;&gt;Node4 -->
<g id="edge3" class="edge">
<title>Node1&#45;&gt;Node4</title>
<path fill="none" stroke="midnightblue" d="M569.21,-365.54C508.21,-358.94 427.18,-342.14 368.5,-300 346.64,-284.3 328.7,-261.79 314.57,-239"/>
<polygon fill="none" stroke="midnightblue" points="568.9,-369.03 579.2,-366.55 569.61,-362.06 568.9,-369.03"/>
</g>
<!-- Node5 -->
<g id="node5" class="node">
<title>Node5</title>
<g id="a_node5"><a xlink:href="../../d0/dfd/classBtBookshelfRemoveFinalPage.html" target="_top" xlink:title=" ">
<polygon fill="white" stroke="black" points="377.5,-94 377.5,-206 559.5,-206 559.5,-94 377.5,-94"/>
<text text-anchor="middle" x="468.5" y="-194" font-family="Helvetica,sans-Serif" font-size="10.00">BtBookshelfRemoveFinalPage</text>
<polyline fill="none" stroke="black" points="377.5,-187 559.5,-187 "/>
<text text-anchor="start" x="385.5" y="-175" font-family="Helvetica,sans-Serif" font-size="10.00">&#45; m_msgLabel</text>
<text text-anchor="start" x="385.5" y="-164" font-family="Helvetica,sans-Serif" font-size="10.00">&#45; m_verticalLayout</text>
<polyline fill="none" stroke="black" points="377.5,-157 559.5,-157 "/>
<text text-anchor="start" x="385.5" y="-145" font-family="Helvetica,sans-Serif" font-size="10.00">+ BtBookshelfRemoveFinalPage()</text>
<text text-anchor="start" x="385.5" y="-134" font-family="Helvetica,sans-Serif" font-size="10.00">+ initializePage()</text>
<text text-anchor="start" x="385.5" y="-123" font-family="Helvetica,sans-Serif" font-size="10.00">+ isComplete()</text>
<text text-anchor="start" x="385.5" y="-112" font-family="Helvetica,sans-Serif" font-size="10.00">+ nextId()</text>
<text text-anchor="start" x="385.5" y="-101" font-family="Helvetica,sans-Serif" font-size="10.00">&#45; retranslateUi()</text>
</a>
</g>
</g>
<!-- Node1&#45;&gt;Node5 -->
<g id="edge4" class="edge">
<title>Node1&#45;&gt;Node5</title>
<path fill="none" stroke="midnightblue" d="M600.44,-329.73C589.31,-320.56 578.09,-310.42 568.5,-300 542.34,-271.57 518.06,-235.73 499.98,-206.32"/>
<polygon fill="none" stroke="midnightblue" points="598.53,-332.69 608.51,-336.23 602.92,-327.24 598.53,-332.69"/>
</g>
<!-- Node6 -->
<g id="node6" class="node">
<title>Node6</title>
<g id="a_node6"><a xlink:href="../../d2/de4/classBtBookshelfSourcesPage.html" target="_top" xlink:title=" ">
<polygon fill="white" stroke="black" points="577.5,-61 577.5,-239 733.5,-239 733.5,-61 577.5,-61"/>
<text text-anchor="middle" x="655.5" y="-227" font-family="Helvetica,sans-Serif" font-size="10.00">BtBookshelfSourcesPage</text>
<polyline fill="none" stroke="black" points="577.5,-220 733.5,-220 "/>
<text text-anchor="start" x="585.5" y="-208" font-family="Helvetica,sans-Serif" font-size="10.00">&#45; m_firstTimeInit</text>
<text text-anchor="start" x="585.5" y="-197" font-family="Helvetica,sans-Serif" font-size="10.00">&#45; m_model</text>
<text text-anchor="start" x="585.5" y="-186" font-family="Helvetica,sans-Serif" font-size="10.00">&#45; m_sourcesTableView</text>
<text text-anchor="start" x="585.5" y="-175" font-family="Helvetica,sans-Serif" font-size="10.00">&#45; m_verticalLayout</text>
<polyline fill="none" stroke="black" points="577.5,-168 733.5,-168 "/>
<text text-anchor="start" x="585.5" y="-156" font-family="Helvetica,sans-Serif" font-size="10.00">+ BtBookshelfSourcesPage()</text>
<text text-anchor="start" x="585.5" y="-145" font-family="Helvetica,sans-Serif" font-size="10.00">+ initializePage()</text>
<text text-anchor="start" x="585.5" y="-134" font-family="Helvetica,sans-Serif" font-size="10.00">+ isComplete()</text>
<text text-anchor="start" x="585.5" y="-123" font-family="Helvetica,sans-Serif" font-size="10.00">+ nextId()</text>
<text text-anchor="start" x="585.5" y="-112" font-family="Helvetica,sans-Serif" font-size="10.00">+ selectedSources()</text>
<text text-anchor="start" x="585.5" y="-101" font-family="Helvetica,sans-Serif" font-size="10.00">&#45; retranslateUi()</text>
<text text-anchor="start" x="585.5" y="-90" font-family="Helvetica,sans-Serif" font-size="10.00">&#45; selectSourcesInModel()</text>
<text text-anchor="start" x="585.5" y="-79" font-family="Helvetica,sans-Serif" font-size="10.00">&#45; updateSourcesModel()</text>
<text text-anchor="start" x="585.5" y="-68" font-family="Helvetica,sans-Serif" font-size="10.00">&#45; slotButtonClicked()</text>
</a>
</g>
</g>
<!-- Node1&#45;&gt;Node6 -->
<g id="edge5" class="edge">
<title>Node1&#45;&gt;Node6</title>
<path fill="none" stroke="midnightblue" d="M655.5,-326.15C655.5,-301.32 655.5,-269.24 655.5,-239.34"/>
<polygon fill="none" stroke="midnightblue" points="652,-326.31 655.5,-336.31 659,-326.31 652,-326.31"/>
</g>
<!-- Node7 -->
<g id="node7" class="node">
<title>Node7</title>
<g id="a_node7"><a xlink:href="../../df/dcc/classBtBookshelfSourcesProgressPage.html" target="_top" xlink:title=" ">
<polygon fill="white" stroke="black" points="752,-44.5 752,-255.5 931,-255.5 931,-44.5 752,-44.5"/>
<text text-anchor="middle" x="841.5" y="-243.5" font-family="Helvetica,sans-Serif" font-size="10.00">BtBookshelfSourcesProgressPage</text>
<polyline fill="none" stroke="black" points="752,-236.5 931,-236.5 "/>
<text text-anchor="start" x="760" y="-224.5" font-family="Helvetica,sans-Serif" font-size="10.00">&#45; m_installCompleted</text>
<text text-anchor="start" x="760" y="-213.5" font-family="Helvetica,sans-Serif" font-size="10.00">&#45; m_msgLabel</text>
<text text-anchor="start" x="760" y="-202.5" font-family="Helvetica,sans-Serif" font-size="10.00">&#45; m_progressBar</text>
<text text-anchor="start" x="760" y="-191.5" font-family="Helvetica,sans-Serif" font-size="10.00">&#45; m_stopButton</text>
<text text-anchor="start" x="760" y="-180.5" font-family="Helvetica,sans-Serif" font-size="10.00">&#45; m_thread</text>
<polyline fill="none" stroke="black" points="752,-173.5 931,-173.5 "/>
<text text-anchor="start" x="760" y="-161.5" font-family="Helvetica,sans-Serif" font-size="10.00">+ BtBookshelfSourcesProgress</text>
<text text-anchor="start" x="760" y="-150.5" font-family="Helvetica,sans-Serif" font-size="10.00">Page()</text>
<text text-anchor="start" x="760" y="-139.5" font-family="Helvetica,sans-Serif" font-size="10.00">+ destroyThread()</text>
<text text-anchor="start" x="760" y="-128.5" font-family="Helvetica,sans-Serif" font-size="10.00">+ initializePage()</text>
<text text-anchor="start" x="760" y="-117.5" font-family="Helvetica,sans-Serif" font-size="10.00">+ isComplete()</text>
<text text-anchor="start" x="760" y="-106.5" font-family="Helvetica,sans-Serif" font-size="10.00">+ nextId()</text>
<text text-anchor="start" x="760" y="-95.5" font-family="Helvetica,sans-Serif" font-size="10.00">+ ~BtBookshelfSourcesProgress</text>
<text text-anchor="start" x="760" y="-84.5" font-family="Helvetica,sans-Serif" font-size="10.00">Page()</text>
<text text-anchor="start" x="760" y="-73.5" font-family="Helvetica,sans-Serif" font-size="10.00">+ slotStopInstall()</text>
<text text-anchor="start" x="760" y="-62.5" font-family="Helvetica,sans-Serif" font-size="10.00">&#45; retranslateUi()</text>
<text text-anchor="start" x="760" y="-51.5" font-family="Helvetica,sans-Serif" font-size="10.00">&#45; slotThreadFinished()</text>
</a>
</g>
</g>
<!-- Node1&#45;&gt;Node7 -->
<g id="edge6" class="edge">
<title>Node1&#45;&gt;Node7</title>
<path fill="none" stroke="midnightblue" d="M710.59,-329.77C721.73,-320.59 732.94,-310.44 742.5,-300 754.98,-286.37 767.01,-271.03 778.12,-255.51"/>
<polygon fill="none" stroke="midnightblue" points="708.12,-327.27 702.53,-336.27 712.51,-332.72 708.12,-327.27"/>
</g>
<!-- Node8 -->
<g id="node8" class="node">
<title>Node8</title>
<g id="a_node8"><a xlink:href="../../d3/d1b/classBtBookshelfTaskPage.html" target="_top" xlink:title=" ">
<polygon fill="white" stroke="black" points="949.5,-72 949.5,-228 1089.5,-228 1089.5,-72 949.5,-72"/>
<text text-anchor="middle" x="1019.5" y="-216" font-family="Helvetica,sans-Serif" font-size="10.00">BtBookshelfTaskPage</text>
<polyline fill="none" stroke="black" points="949.5,-209 1089.5,-209 "/>
<text text-anchor="start" x="957.5" y="-197" font-family="Helvetica,sans-Serif" font-size="10.00">&#45; m_groupBox</text>
<text text-anchor="start" x="957.5" y="-186" font-family="Helvetica,sans-Serif" font-size="10.00">&#45; m_installRadioButton</text>
<text text-anchor="start" x="957.5" y="-175" font-family="Helvetica,sans-Serif" font-size="10.00">&#45; m_removeRadioButton</text>
<text text-anchor="start" x="957.5" y="-164" font-family="Helvetica,sans-Serif" font-size="10.00">&#45; m_updateRadioButton</text>
<text text-anchor="start" x="957.5" y="-153" font-family="Helvetica,sans-Serif" font-size="10.00">&#45; m_verticalLayout</text>
<text text-anchor="start" x="957.5" y="-142" font-family="Helvetica,sans-Serif" font-size="10.00">&#45; m_warningLabel</text>
<polyline fill="none" stroke="black" points="949.5,-135 1089.5,-135 "/>
<text text-anchor="start" x="957.5" y="-123" font-family="Helvetica,sans-Serif" font-size="10.00">+ BtBookshelfTaskPage()</text>
<text text-anchor="start" x="957.5" y="-112" font-family="Helvetica,sans-Serif" font-size="10.00">+ nextId()</text>
<text text-anchor="start" x="957.5" y="-101" font-family="Helvetica,sans-Serif" font-size="10.00">+ taskType()</text>
<text text-anchor="start" x="957.5" y="-90" font-family="Helvetica,sans-Serif" font-size="10.00">&#45; retranslateUi()</text>
<text text-anchor="start" x="957.5" y="-79" font-family="Helvetica,sans-Serif" font-size="10.00">&#45; timeToUpdate()</text>
</a>
</g>
</g>
<!-- Node1&#45;&gt;Node8 -->
<g id="edge7" class="edge">
<title>Node1&#45;&gt;Node8</title>
<path fill="none" stroke="midnightblue" d="M741.56,-366.77C802.69,-360.79 883.67,-344.22 940.5,-300 963.95,-281.75 981.23,-254.55 993.54,-228.36"/>
<polygon fill="none" stroke="midnightblue" points="741.19,-363.29 731.55,-367.67 741.82,-370.26 741.19,-363.29"/>
</g>
<!-- Node9 -->
<g id="node9" class="node">
<title>Node9</title>
<g id="a_node9"><a xlink:href="../../df/d7e/classBtBookshelfWorksPage.html" target="_top" xlink:title=" ">
<polygon fill="white" stroke="black" points="1108,-11.5 1108,-288.5 1277,-288.5 1277,-11.5 1108,-11.5"/>
<text text-anchor="middle" x="1192.5" y="-276.5" font-family="Helvetica,sans-Serif" font-size="10.00">BtBookshelfWorksPage</text>
<polyline fill="none" stroke="black" points="1108,-269.5 1277,-269.5 "/>
<text text-anchor="start" x="1116" y="-257.5" font-family="Helvetica,sans-Serif" font-size="10.00">&#45; m_bookshelfModel</text>
<text text-anchor="start" x="1116" y="-246.5" font-family="Helvetica,sans-Serif" font-size="10.00">&#45; m_bookshelfView</text>
<text text-anchor="start" x="1116" y="-235.5" font-family="Helvetica,sans-Serif" font-size="10.00">&#45; m_contextMenu</text>
<text text-anchor="start" x="1116" y="-224.5" font-family="Helvetica,sans-Serif" font-size="10.00">&#45; m_groupingButton</text>
<text text-anchor="start" x="1116" y="-213.5" font-family="Helvetica,sans-Serif" font-size="10.00">&#45; m_groupingLabel</text>
<text text-anchor="start" x="1116" y="-202.5" font-family="Helvetica,sans-Serif" font-size="10.00">&#45; m_groupingMenu</text>
<text text-anchor="start" x="1116" y="-191.5" font-family="Helvetica,sans-Serif" font-size="10.00">&#45; m_groupingOrder</text>
<text text-anchor="start" x="1116" y="-180.5" font-family="Helvetica,sans-Serif" font-size="10.00">&#45; m_installPageModel</text>
<text text-anchor="start" x="1116" y="-169.5" font-family="Helvetica,sans-Serif" font-size="10.00">&#45; m_itemContextMenu</text>
<text text-anchor="start" x="1116" y="-158.5" font-family="Helvetica,sans-Serif" font-size="10.00">&#45; m_msgLabel</text>
<text text-anchor="start" x="1116" y="-147.5" font-family="Helvetica,sans-Serif" font-size="10.00">and 6 more...</text>
<polyline fill="none" stroke="black" points="1108,-140.5 1277,-140.5 "/>
<text text-anchor="start" x="1116" y="-128.5" font-family="Helvetica,sans-Serif" font-size="10.00">+ BtBookshelfWorksPage()</text>
<text text-anchor="start" x="1116" y="-117.5" font-family="Helvetica,sans-Serif" font-size="10.00">+ checkedModules()</text>
<text text-anchor="start" x="1116" y="-106.5" font-family="Helvetica,sans-Serif" font-size="10.00">+ initializePage()</text>
<text text-anchor="start" x="1116" y="-95.5" font-family="Helvetica,sans-Serif" font-size="10.00">+ installPath()</text>
<text text-anchor="start" x="1116" y="-84.5" font-family="Helvetica,sans-Serif" font-size="10.00">+ isComplete()</text>
<text text-anchor="start" x="1116" y="-73.5" font-family="Helvetica,sans-Serif" font-size="10.00">+ nextId()</text>
<text text-anchor="start" x="1116" y="-62.5" font-family="Helvetica,sans-Serif" font-size="10.00">&#45; retranslateUi()</text>
<text text-anchor="start" x="1116" y="-51.5" font-family="Helvetica,sans-Serif" font-size="10.00">&#45; slotGroupingActionTriggered()</text>
<text text-anchor="start" x="1116" y="-40.5" font-family="Helvetica,sans-Serif" font-size="10.00">&#45; slotGroupingOrderChanged()</text>
<text text-anchor="start" x="1116" y="-29.5" font-family="Helvetica,sans-Serif" font-size="10.00">&#45; slotInitPathCombo()</text>
<text text-anchor="start" x="1116" y="-18.5" font-family="Helvetica,sans-Serif" font-size="10.00">&#45; slotPathChanged()</text>
</a>
</g>
</g>
<!-- Node1&#45;&gt;Node9 -->
<g id="edge8" class="edge">
<title>Node1&#45;&gt;Node9</title>
<path fill="none" stroke="midnightblue" d="M741.93,-364.38C853.85,-356.33 1041.34,-337.6 1098.5,-300 1103.74,-296.55 1108.74,-292.71 1113.51,-288.54"/>
<polygon fill="none" stroke="midnightblue" points="741.41,-360.91 731.68,-365.1 741.9,-367.89 741.41,-360.91"/>
</g>
<!-- Node2 -->
<g id="node2" class="node">
<title>Node2</title>
<g id="a_node2"><a xlink:href="../../dc/d67/classQWizardPage.html" target="_top" xlink:title=" ">
<polygon fill="white" stroke="black" points="615,-441.5 615,-498.5 696,-498.5 696,-441.5 615,-441.5"/>
<text text-anchor="middle" x="655.5" y="-486.5" font-family="Helvetica,sans-Serif" font-size="10.00">QWizardPage</text>
<polyline fill="none" stroke="black" points="615,-479.5 696,-479.5 "/>
<text text-anchor="middle" x="655.5" y="-467.5" font-family="Helvetica,sans-Serif" font-size="10.00"> </text>
<polyline fill="none" stroke="black" points="615,-460.5 696,-460.5 "/>
<text text-anchor="middle" x="655.5" y="-448.5" font-family="Helvetica,sans-Serif" font-size="10.00"> </text>
</a>
</g>
</g>
<!-- Node2&#45;&gt;Node1 -->
<g id="edge1" class="edge">
<title>Node2&#45;&gt;Node1</title>
<path fill="none" stroke="midnightblue" d="M655.5,-431.06C655.5,-422.39 655.5,-413.24 655.5,-404.79"/>
<polygon fill="none" stroke="midnightblue" points="652,-431.32 655.5,-441.32 659,-431.32 652,-431.32"/>
</g>
</g>
</svg>
