<?xml version="1.0" encoding="UTF-8" standalone="no"?>
<!DOCTYPE svg PUBLIC "-//W3C//DTD SVG 1.1//EN"
 "http://www.w3.org/Graphics/SVG/1.1/DTD/svg11.dtd">
<!-- Generated by graphviz version 2.43.0 (0)
 -->
<!-- Title: cswordbookmoduleinfo.h Pages: 1 -->
<svg width="1312pt" height="84pt"
 viewBox="0.00 0.00 1312.00 84.00" xmlns="http://www.w3.org/2000/svg" xmlns:xlink="http://www.w3.org/1999/xlink">
<g id="graph0" class="graph" transform="scale(1 1) rotate(0) translate(4 80)">
<title>cswordbookmoduleinfo.h</title>
<polygon fill="white" stroke="transparent" points="-4,4 -4,-80 1308,-80 1308,4 -4,4"/>
<!-- Node1 -->
<g id="node1" class="node">
<title>Node1</title>
<g id="a_node1"><a xlink:title=" ">
<polygon fill="#bfbfbf" stroke="black" points="615.5,-56.5 615.5,-75.5 755.5,-75.5 755.5,-56.5 615.5,-56.5"/>
<text text-anchor="middle" x="685.5" y="-63.5" font-family="Helvetica,sans-Serif" font-size="10.00">cswordbookmoduleinfo.h</text>
</a>
</g>
</g>
<!-- Node2 -->
<g id="node2" class="node">
<title>Node2</title>
<g id="a_node2"><a xlink:href="../../db/dc6/cswordbookmoduleinfo_8cpp.html" target="_top" xlink:title=" ">
<polygon fill="white" stroke="black" points="0,-0.5 0,-19.5 151,-19.5 151,-0.5 0,-0.5"/>
<text text-anchor="middle" x="75.5" y="-7.5" font-family="Helvetica,sans-Serif" font-size="10.00">cswordbookmoduleinfo.cpp</text>
</a>
</g>
</g>
<!-- Node1&#45;&gt;Node2 -->
<g id="edge1" class="edge">
<title>Node1&#45;&gt;Node2</title>
<path fill="none" stroke="midnightblue" d="M605.23,-58.67C502.03,-50.41 317.32,-35.2 159.5,-20 156.73,-19.73 153.9,-19.46 151.05,-19.17"/>
<polygon fill="midnightblue" stroke="midnightblue" points="605.02,-62.16 615.26,-59.47 605.58,-55.19 605.02,-62.16"/>
</g>
<!-- Node3 -->
<g id="node3" class="node">
<title>Node3</title>
<g id="a_node3"><a xlink:href="../../d5/d47/cswordtreekey_8cpp.html" target="_top" xlink:title=" ">
<polygon fill="white" stroke="black" points="169,-0.5 169,-19.5 276,-19.5 276,-0.5 169,-0.5"/>
<text text-anchor="middle" x="222.5" y="-7.5" font-family="Helvetica,sans-Serif" font-size="10.00">cswordtreekey.cpp</text>
</a>
</g>
</g>
<!-- Node1&#45;&gt;Node3 -->
<g id="edge2" class="edge">
<title>Node1&#45;&gt;Node3</title>
<path fill="none" stroke="midnightblue" d="M605.23,-56.68C524.41,-48.14 396.18,-34.13 285.5,-20 282.43,-19.61 279.28,-19.19 276.1,-18.77"/>
<polygon fill="midnightblue" stroke="midnightblue" points="605.02,-60.18 615.33,-57.75 605.76,-53.22 605.02,-60.18"/>
</g>
<!-- Node4 -->
<g id="node4" class="node">
<title>Node4</title>
<g id="a_node4"><a xlink:href="../../d9/d7b/cswordbackend_8cpp.html" target="_top" xlink:title=" ">
<polygon fill="white" stroke="black" points="294.5,-0.5 294.5,-19.5 406.5,-19.5 406.5,-0.5 294.5,-0.5"/>
<text text-anchor="middle" x="350.5" y="-7.5" font-family="Helvetica,sans-Serif" font-size="10.00">cswordbackend.cpp</text>
</a>
</g>
</g>
<!-- Node1&#45;&gt;Node4 -->
<g id="edge3" class="edge">
<title>Node1&#45;&gt;Node4</title>
<path fill="none" stroke="midnightblue" d="M622.16,-54.79C558.86,-44.59 462.65,-29.08 403.33,-19.52"/>
<polygon fill="midnightblue" stroke="midnightblue" points="621.99,-58.31 632.42,-56.44 623.1,-51.4 621.99,-58.31"/>
</g>
<!-- Node5 -->
<g id="node5" class="node">
<title>Node5</title>
<g id="a_node5"><a xlink:href="../../de/d93/btmoduletextmodel_8cpp.html" target="_top" xlink:title=" ">
<polygon fill="white" stroke="black" points="424.5,-0.5 424.5,-19.5 558.5,-19.5 558.5,-0.5 424.5,-0.5"/>
<text text-anchor="middle" x="491.5" y="-7.5" font-family="Helvetica,sans-Serif" font-size="10.00">btmoduletextmodel.cpp</text>
</a>
</g>
</g>
<!-- Node1&#45;&gt;Node5 -->
<g id="edge4" class="edge">
<title>Node1&#45;&gt;Node5</title>
<path fill="none" stroke="midnightblue" d="M644.9,-53.7C608.28,-43.51 555.24,-28.74 522.1,-19.52"/>
<polygon fill="midnightblue" stroke="midnightblue" points="644.19,-57.13 654.76,-56.44 646.06,-50.39 644.19,-57.13"/>
</g>
<!-- Node6 -->
<g id="node6" class="node">
<title>Node6</title>
<g id="a_node6"><a xlink:href="../../da/db4/cbookdisplay_8cpp.html" target="_top" xlink:title=" ">
<polygon fill="white" stroke="black" points="576.5,-0.5 576.5,-19.5 676.5,-19.5 676.5,-0.5 576.5,-0.5"/>
<text text-anchor="middle" x="626.5" y="-7.5" font-family="Helvetica,sans-Serif" font-size="10.00">cbookdisplay.cpp</text>
</a>
</g>
</g>
<!-- Node1&#45;&gt;Node6 -->
<g id="edge5" class="edge">
<title>Node1&#45;&gt;Node6</title>
<path fill="none" stroke="midnightblue" d="M668.61,-49.54C658.09,-39.91 644.93,-27.87 636.15,-19.83"/>
<polygon fill="midnightblue" stroke="midnightblue" points="666.28,-52.15 676.02,-56.32 671.01,-46.99 666.28,-52.15"/>
</g>
<!-- Node7 -->
<g id="node7" class="node">
<title>Node7</title>
<g id="a_node7"><a xlink:href="../../da/d21/centrydisplay_8cpp.html" target="_top" xlink:title=" ">
<polygon fill="white" stroke="black" points="695,-0.5 695,-19.5 796,-19.5 796,-0.5 695,-0.5"/>
<text text-anchor="middle" x="745.5" y="-7.5" font-family="Helvetica,sans-Serif" font-size="10.00">centrydisplay.cpp</text>
</a>
</g>
</g>
<!-- Node1&#45;&gt;Node7 -->
<g id="edge6" class="edge">
<title>Node1&#45;&gt;Node7</title>
<path fill="none" stroke="midnightblue" d="M702.68,-49.54C713.38,-39.91 726.76,-27.87 735.68,-19.83"/>
<polygon fill="midnightblue" stroke="midnightblue" points="700.23,-47.03 695.14,-56.32 704.91,-52.24 700.23,-47.03"/>
</g>
<!-- Node8 -->
<g id="node8" class="node">
<title>Node8</title>
<g id="a_node8"><a xlink:href="../../d1/df6/bibletime_8cpp.html" target="_top" xlink:title=" ">
<polygon fill="white" stroke="black" points="814,-0.5 814,-19.5 897,-19.5 897,-0.5 814,-0.5"/>
<text text-anchor="middle" x="855.5" y="-7.5" font-family="Helvetica,sans-Serif" font-size="10.00">bibletime.cpp</text>
</a>
</g>
</g>
<!-- Node1&#45;&gt;Node8 -->
<g id="edge7" class="edge">
<title>Node1&#45;&gt;Node8</title>
<path fill="none" stroke="midnightblue" d="M722.32,-53.3C754.35,-43.13 800.02,-28.62 828.69,-19.52"/>
<polygon fill="midnightblue" stroke="midnightblue" points="720.91,-50.08 712.44,-56.44 723.03,-56.75 720.91,-50.08"/>
</g>
<!-- Node9 -->
<g id="node9" class="node">
<title>Node9</title>
<g id="a_node9"><a xlink:href="../../de/d6e/btqmlinterface_8cpp.html" target="_top" xlink:title=" ">
<polygon fill="white" stroke="black" points="915,-0.5 915,-19.5 1024,-19.5 1024,-0.5 915,-0.5"/>
<text text-anchor="middle" x="969.5" y="-7.5" font-family="Helvetica,sans-Serif" font-size="10.00">btqmlinterface.cpp</text>
</a>
</g>
</g>
<!-- Node1&#45;&gt;Node9 -->
<g id="edge8" class="edge">
<title>Node1&#45;&gt;Node9</title>
<path fill="none" stroke="midnightblue" d="M740.53,-54.54C794.2,-44.33 874.84,-29 924.71,-19.52"/>
<polygon fill="midnightblue" stroke="midnightblue" points="739.67,-51.14 730.5,-56.44 740.98,-58.01 739.67,-51.14"/>
</g>
<!-- Node10 -->
<g id="node10" class="node">
<title>Node10</title>
<g id="a_node10"><a xlink:href="../../dd/d72/cbookkeychooser_8cpp.html" target="_top" xlink:title=" ">
<polygon fill="white" stroke="black" points="1042,-0.5 1042,-19.5 1163,-19.5 1163,-0.5 1042,-0.5"/>
<text text-anchor="middle" x="1102.5" y="-7.5" font-family="Helvetica,sans-Serif" font-size="10.00">cbookkeychooser.cpp</text>
</a>
</g>
</g>
<!-- Node1&#45;&gt;Node10 -->
<g id="edge9" class="edge">
<title>Node1&#45;&gt;Node10</title>
<path fill="none" stroke="midnightblue" d="M761.7,-55.17C832.2,-46.07 939.93,-32.15 1033.5,-20 1036.26,-19.64 1039.07,-19.28 1041.92,-18.91"/>
<polygon fill="midnightblue" stroke="midnightblue" points="761.04,-51.73 751.57,-56.48 761.94,-58.67 761.04,-51.73"/>
</g>
<!-- Node11 -->
<g id="node11" class="node">
<title>Node11</title>
<g id="a_node11"><a xlink:href="../../d0/da4/cbooktreechooser_8cpp.html" target="_top" xlink:title=" ">
<polygon fill="white" stroke="black" points="1181,-0.5 1181,-19.5 1304,-19.5 1304,-0.5 1181,-0.5"/>
<text text-anchor="middle" x="1242.5" y="-7.5" font-family="Helvetica,sans-Serif" font-size="10.00">cbooktreechooser.cpp</text>
</a>
</g>
</g>
<!-- Node1&#45;&gt;Node11 -->
<g id="edge10" class="edge">
<title>Node1&#45;&gt;Node11</title>
<path fill="none" stroke="midnightblue" d="M765.73,-58.47C862.33,-50.41 1029.45,-35.8 1172.5,-20 1175.18,-19.7 1177.92,-19.39 1180.68,-19.07"/>
<polygon fill="midnightblue" stroke="midnightblue" points="765.42,-54.98 755.74,-59.3 766,-61.96 765.42,-54.98"/>
</g>
</g>
</svg>
