<?xml version="1.0" encoding="UTF-8" standalone="no"?>
<!DOCTYPE svg PUBLIC "-//W3C//DTD SVG 1.1//EN"
 "http://www.w3.org/Graphics/SVG/1.1/DTD/svg11.dtd">
<!-- Generated by graphviz version 2.43.0 (0)
 -->
<!-- Title: BtActionCollection::Item Pages: 1 -->
<svg width="115pt" height="182pt"
 viewBox="0.00 0.00 115.00 182.00" xmlns="http://www.w3.org/2000/svg" xmlns:xlink="http://www.w3.org/1999/xlink">
<g id="graph0" class="graph" transform="scale(1 1) rotate(0) translate(4 178)">
<title>BtActionCollection::Item</title>
<polygon fill="white" stroke="transparent" points="-4,4 -4,-178 111,-178 111,4 -4,4"/>
<!-- Node1 -->
<g id="node1" class="node">
<title>Node1</title>
<g id="a_node1"><a xlink:title=" ">
<polygon fill="#bfbfbf" stroke="black" points="0,-0.5 0,-79.5 107,-79.5 107,-0.5 0,-0.5"/>
<text text-anchor="start" x="8" y="-67.5" font-family="Helvetica,sans-Serif" font-size="10.00">BtActionCollection</text>
<text text-anchor="middle" x="53.5" y="-56.5" font-family="Helvetica,sans-Serif" font-size="10.00">::Item</text>
<polyline fill="none" stroke="black" points="0,-49.5 107,-49.5 "/>
<text text-anchor="start" x="8" y="-37.5" font-family="Helvetica,sans-Serif" font-size="10.00">+ m_action</text>
<text text-anchor="start" x="8" y="-26.5" font-family="Helvetica,sans-Serif" font-size="10.00">+ m_defaultKeys</text>
<polyline fill="none" stroke="black" points="0,-19.5 107,-19.5 "/>
<text text-anchor="start" x="8" y="-7.5" font-family="Helvetica,sans-Serif" font-size="10.00">+ Item()</text>
</a>
</g>
</g>
<!-- Node2 -->
<g id="node2" class="node">
<title>Node2</title>
<g id="a_node2"><a xlink:href="../../d9/d5b/classQObject.html" target="_top" xlink:title=" ">
<polygon fill="white" stroke="black" points="25.5,-116.5 25.5,-173.5 81.5,-173.5 81.5,-116.5 25.5,-116.5"/>
<text text-anchor="middle" x="53.5" y="-161.5" font-family="Helvetica,sans-Serif" font-size="10.00">QObject</text>
<polyline fill="none" stroke="black" points="25.5,-154.5 81.5,-154.5 "/>
<text text-anchor="middle" x="53.5" y="-142.5" font-family="Helvetica,sans-Serif" font-size="10.00"> </text>
<polyline fill="none" stroke="black" points="25.5,-135.5 81.5,-135.5 "/>
<text text-anchor="middle" x="53.5" y="-123.5" font-family="Helvetica,sans-Serif" font-size="10.00"> </text>
</a>
</g>
</g>
<!-- Node2&#45;&gt;Node1 -->
<g id="edge1" class="edge">
<title>Node2&#45;&gt;Node1</title>
<path fill="none" stroke="midnightblue" d="M53.5,-106.16C53.5,-97.47 53.5,-88.23 53.5,-79.52"/>
<polygon fill="none" stroke="midnightblue" points="50,-106.4 53.5,-116.4 57,-106.4 50,-106.4"/>
</g>
</g>
</svg>
