<?xml version="1.0" encoding="UTF-8" standalone="no"?>
<!DOCTYPE svg PUBLIC "-//W3C//DTD SVG 1.1//EN"
 "http://www.w3.org/Graphics/SVG/1.1/DTD/svg11.dtd">
<!-- Generated by graphviz version 2.43.0 (0)
 -->
<!-- Title: bibletimeapp.h Pages: 1 -->
<svg width="1568pt" height="84pt"
 viewBox="0.00 0.00 1568.00 84.00" xmlns="http://www.w3.org/2000/svg" xmlns:xlink="http://www.w3.org/1999/xlink">
<g id="graph0" class="graph" transform="scale(1 1) rotate(0) translate(4 80)">
<title>bibletimeapp.h</title>
<polygon fill="white" stroke="transparent" points="-4,4 -4,-80 1564,-80 1564,4 -4,4"/>
<!-- Node1 -->
<g id="node1" class="node">
<title>Node1</title>
<g id="a_node1"><a xlink:title=" ">
<polygon fill="#bfbfbf" stroke="black" points="737.5,-56.5 737.5,-75.5 827.5,-75.5 827.5,-56.5 737.5,-56.5"/>
<text text-anchor="middle" x="782.5" y="-63.5" font-family="Helvetica,sans-Serif" font-size="10.00">bibletimeapp.h</text>
</a>
</g>
</g>
<!-- Node2 -->
<g id="node2" class="node">
<title>Node2</title>
<g id="a_node2"><a xlink:href="../../d1/df6/bibletime_8cpp.html" target="_top" xlink:title=" ">
<polygon fill="white" stroke="black" points="0,-0.5 0,-19.5 83,-19.5 83,-0.5 0,-0.5"/>
<text text-anchor="middle" x="41.5" y="-7.5" font-family="Helvetica,sans-Serif" font-size="10.00">bibletime.cpp</text>
</a>
</g>
</g>
<!-- Node1&#45;&gt;Node2 -->
<g id="edge1" class="edge">
<title>Node1&#45;&gt;Node2</title>
<path fill="none" stroke="midnightblue" d="M726.95,-63.44C609.48,-59.69 327.36,-48.29 92.5,-20 89.47,-19.63 86.34,-19.21 83.19,-18.74"/>
<polygon fill="midnightblue" stroke="midnightblue" points="727.03,-66.95 737.13,-63.76 727.25,-59.95 727.03,-66.95"/>
</g>
<!-- Node3 -->
<g id="node3" class="node">
<title>Node3</title>
<g id="a_node3"><a xlink:href="../../da/dc7/bibletime__init_8cpp.html" target="_top" xlink:title=" ">
<polygon fill="white" stroke="black" points="101.5,-0.5 101.5,-19.5 205.5,-19.5 205.5,-0.5 101.5,-0.5"/>
<text text-anchor="middle" x="153.5" y="-7.5" font-family="Helvetica,sans-Serif" font-size="10.00">bibletime_init.cpp</text>
</a>
</g>
</g>
<!-- Node1&#45;&gt;Node3 -->
<g id="edge2" class="edge">
<title>Node1&#45;&gt;Node3</title>
<path fill="none" stroke="midnightblue" d="M727.46,-61.88C625.88,-55.84 402.18,-41.26 214.5,-20 211.63,-19.67 208.68,-19.32 205.71,-18.94"/>
<polygon fill="midnightblue" stroke="midnightblue" points="727.3,-65.37 737.49,-62.47 727.71,-58.39 727.3,-65.37"/>
</g>
<!-- Node4 -->
<g id="node4" class="node">
<title>Node4</title>
<g id="a_node4"><a xlink:href="../../d5/d86/bibletimeapp_8cpp.html" target="_top" xlink:title=" ">
<polygon fill="white" stroke="black" points="224,-0.5 224,-19.5 325,-19.5 325,-0.5 224,-0.5"/>
<text text-anchor="middle" x="274.5" y="-7.5" font-family="Helvetica,sans-Serif" font-size="10.00">bibletimeapp.cpp</text>
</a>
</g>
</g>
<!-- Node1&#45;&gt;Node4 -->
<g id="edge3" class="edge">
<title>Node1&#45;&gt;Node4</title>
<path fill="none" stroke="midnightblue" d="M727.31,-60.39C642.5,-53.1 475.08,-37.88 333.5,-20 330.72,-19.65 327.88,-19.27 325.01,-18.88"/>
<polygon fill="midnightblue" stroke="midnightblue" points="727.22,-63.9 737.48,-61.26 727.82,-56.92 727.22,-63.9"/>
</g>
<!-- Node5 -->
<g id="node5" class="node">
<title>Node5</title>
<g id="a_node5"><a xlink:href="../../d9/de6/cbookmarkindex_8cpp.html" target="_top" xlink:title=" ">
<polygon fill="white" stroke="black" points="343,-0.5 343,-19.5 462,-19.5 462,-0.5 343,-0.5"/>
<text text-anchor="middle" x="402.5" y="-7.5" font-family="Helvetica,sans-Serif" font-size="10.00">cbookmarkindex.cpp</text>
</a>
</g>
</g>
<!-- Node1&#45;&gt;Node5 -->
<g id="edge4" class="edge">
<title>Node1&#45;&gt;Node5</title>
<path fill="none" stroke="midnightblue" d="M727.39,-57.17C656.8,-47.14 534.91,-29.82 462.19,-19.48"/>
<polygon fill="midnightblue" stroke="midnightblue" points="727.02,-60.65 737.42,-58.59 728.01,-53.72 727.02,-60.65"/>
</g>
<!-- Node6 -->
<g id="node6" class="node">
<title>Node6</title>
<g id="a_node6"><a xlink:href="../../de/da4/cbiblereadwindow_8cpp.html" target="_top" xlink:title=" ">
<polygon fill="white" stroke="black" points="480,-0.5 480,-19.5 605,-19.5 605,-0.5 480,-0.5"/>
<text text-anchor="middle" x="542.5" y="-7.5" font-family="Helvetica,sans-Serif" font-size="10.00">cbiblereadwindow.cpp</text>
</a>
</g>
</g>
<!-- Node1&#45;&gt;Node6 -->
<g id="edge5" class="edge">
<title>Node1&#45;&gt;Node6</title>
<path fill="none" stroke="midnightblue" d="M734.58,-54.22C689.23,-44.01 622.06,-28.9 580.35,-19.52"/>
<polygon fill="midnightblue" stroke="midnightblue" points="733.95,-57.66 744.47,-56.44 735.48,-50.83 733.95,-57.66"/>
</g>
<!-- Node7 -->
<g id="node7" class="node">
<title>Node7</title>
<g id="a_node7"><a xlink:href="../../d0/d6f/ccommentaryreadwindow_8cpp.html" target="_top" xlink:title=" ">
<polygon fill="white" stroke="black" points="623,-0.5 623,-19.5 786,-19.5 786,-0.5 623,-0.5"/>
<text text-anchor="middle" x="704.5" y="-7.5" font-family="Helvetica,sans-Serif" font-size="10.00">ccommentaryreadwindow.cpp</text>
</a>
</g>
</g>
<!-- Node1&#45;&gt;Node7 -->
<g id="edge6" class="edge">
<title>Node1&#45;&gt;Node7</title>
<path fill="none" stroke="midnightblue" d="M761.73,-50.62C747.48,-40.76 729.04,-27.99 717,-19.65"/>
<polygon fill="midnightblue" stroke="midnightblue" points="759.75,-53.51 769.97,-56.32 763.74,-47.75 759.75,-53.51"/>
</g>
<!-- Node8 -->
<g id="node8" class="node">
<title>Node8</title>
<g id="a_node8"><a xlink:href="../../d2/d26/cdisplaywindow_8cpp.html" target="_top" xlink:title=" ">
<polygon fill="white" stroke="black" points="804.5,-0.5 804.5,-19.5 918.5,-19.5 918.5,-0.5 804.5,-0.5"/>
<text text-anchor="middle" x="861.5" y="-7.5" font-family="Helvetica,sans-Serif" font-size="10.00">cdisplaywindow.cpp</text>
</a>
</g>
</g>
<!-- Node1&#45;&gt;Node8 -->
<g id="edge7" class="edge">
<title>Node1&#45;&gt;Node8</title>
<path fill="none" stroke="midnightblue" d="M803.53,-50.62C817.97,-40.76 836.64,-27.99 848.84,-19.65"/>
<polygon fill="midnightblue" stroke="midnightblue" points="801.47,-47.79 795.19,-56.32 805.42,-53.57 801.47,-47.79"/>
</g>
<!-- Node9 -->
<g id="node9" class="node">
<title>Node9</title>
<g id="a_node9"><a xlink:href="../../d7/d92/btbiblekeywidget_8cpp.html" target="_top" xlink:title=" ">
<polygon fill="white" stroke="black" points="937,-0.5 937,-19.5 1058,-19.5 1058,-0.5 937,-0.5"/>
<text text-anchor="middle" x="997.5" y="-7.5" font-family="Helvetica,sans-Serif" font-size="10.00">btbiblekeywidget.cpp</text>
</a>
</g>
</g>
<!-- Node1&#45;&gt;Node9 -->
<g id="edge8" class="edge">
<title>Node1&#45;&gt;Node9</title>
<path fill="none" stroke="midnightblue" d="M826.46,-53.96C867.07,-43.76 926.54,-28.82 963.59,-19.52"/>
<polygon fill="midnightblue" stroke="midnightblue" points="825.41,-50.61 816.57,-56.44 827.12,-57.4 825.41,-50.61"/>
</g>
<!-- Node10 -->
<g id="node10" class="node">
<title>Node10</title>
<g id="a_node10"><a xlink:href="../../df/d0a/main_8cpp.html" target="_top" xlink:title=" ">
<polygon fill="white" stroke="black" points="1076.5,-0.5 1076.5,-19.5 1138.5,-19.5 1138.5,-0.5 1076.5,-0.5"/>
<text text-anchor="middle" x="1107.5" y="-7.5" font-family="Helvetica,sans-Serif" font-size="10.00">main.cpp</text>
</a>
</g>
</g>
<!-- Node1&#45;&gt;Node10 -->
<g id="edge9" class="edge">
<title>Node1&#45;&gt;Node10</title>
<path fill="none" stroke="midnightblue" d="M837.55,-57.39C895.08,-49.18 987.9,-35.22 1067.5,-20 1070.3,-19.47 1073.2,-18.88 1076.1,-18.27"/>
<polygon fill="midnightblue" stroke="midnightblue" points="836.98,-53.93 827.58,-58.8 837.97,-60.86 836.98,-53.93"/>
</g>
<!-- Node11 -->
<g id="node11" class="node">
<title>Node11</title>
<g id="a_node11"><a xlink:href="../../d4/d4d/btsearchoptionsarea_8cpp.html" target="_top" xlink:title=" ">
<polygon fill="white" stroke="black" points="1157,-0.5 1157,-19.5 1294,-19.5 1294,-0.5 1157,-0.5"/>
<text text-anchor="middle" x="1225.5" y="-7.5" font-family="Helvetica,sans-Serif" font-size="10.00">btsearchoptionsarea.cpp</text>
</a>
</g>
</g>
<!-- Node1&#45;&gt;Node11 -->
<g id="edge10" class="edge">
<title>Node1&#45;&gt;Node11</title>
<path fill="none" stroke="midnightblue" d="M837.81,-58.26C918.64,-48.4 1068.96,-30.08 1156.79,-19.38"/>
<polygon fill="midnightblue" stroke="midnightblue" points="837.33,-54.79 827.83,-59.47 838.18,-61.74 837.33,-54.79"/>
</g>
<!-- Node12 -->
<g id="node12" class="node">
<title>Node12</title>
<g id="a_node12"><a xlink:href="../../d2/d1a/csearchdialog_8cpp.html" target="_top" xlink:title=" ">
<polygon fill="white" stroke="black" points="1312.5,-0.5 1312.5,-19.5 1416.5,-19.5 1416.5,-0.5 1312.5,-0.5"/>
<text text-anchor="middle" x="1364.5" y="-7.5" font-family="Helvetica,sans-Serif" font-size="10.00">csearchdialog.cpp</text>
</a>
</g>
</g>
<!-- Node1&#45;&gt;Node12 -->
<g id="edge11" class="edge">
<title>Node1&#45;&gt;Node12</title>
<path fill="none" stroke="midnightblue" d="M837.8,-61.32C933.07,-54.75 1134.23,-39.78 1303.5,-20 1306.37,-19.66 1309.31,-19.3 1312.28,-18.92"/>
<polygon fill="midnightblue" stroke="midnightblue" points="837.28,-57.85 827.54,-62.03 837.76,-64.84 837.28,-57.85"/>
</g>
<!-- Node13 -->
<g id="node13" class="node">
<title>Node13</title>
<g id="a_node13"><a xlink:href="../../db/d51/csearchresultview_8cpp.html" target="_top" xlink:title=" ">
<polygon fill="white" stroke="black" points="1435,-0.5 1435,-19.5 1560,-19.5 1560,-0.5 1435,-0.5"/>
<text text-anchor="middle" x="1497.5" y="-7.5" font-family="Helvetica,sans-Serif" font-size="10.00">csearchresultview.cpp</text>
</a>
</g>
</g>
<!-- Node1&#45;&gt;Node13 -->
<g id="edge12" class="edge">
<title>Node1&#45;&gt;Node13</title>
<path fill="none" stroke="midnightblue" d="M837.78,-62.15C949.14,-56.18 1208.41,-41.15 1425.5,-20 1428.51,-19.71 1431.59,-19.39 1434.69,-19.06"/>
<polygon fill="midnightblue" stroke="midnightblue" points="837.59,-58.65 827.79,-62.68 837.96,-65.64 837.59,-58.65"/>
</g>
</g>
</svg>
