<?xml version="1.0" encoding="UTF-8" standalone="no"?>
<!DOCTYPE svg PUBLIC "-//W3C//DTD SVG 1.1//EN"
 "http://www.w3.org/Graphics/SVG/1.1/DTD/svg11.dtd">
<!-- Generated by graphviz version 2.43.0 (0)
 -->
<!-- Title: bibletimeapp.h Pages: 1 -->
<svg width="414pt" height="84pt"
 viewBox="0.00 0.00 413.50 84.00" xmlns="http://www.w3.org/2000/svg" xmlns:xlink="http://www.w3.org/1999/xlink">
<g id="graph0" class="graph" transform="scale(1 1) rotate(0) translate(4 80)">
<title>bibletimeapp.h</title>
<polygon fill="white" stroke="transparent" points="-4,4 -4,-80 409.5,-80 409.5,4 -4,4"/>
<!-- Node1 -->
<g id="node1" class="node">
<title>Node1</title>
<g id="a_node1"><a xlink:title=" ">
<polygon fill="#bfbfbf" stroke="black" points="168.5,-56.5 168.5,-75.5 258.5,-75.5 258.5,-56.5 168.5,-56.5"/>
<text text-anchor="middle" x="213.5" y="-63.5" font-family="Helvetica,sans-Serif" font-size="10.00">bibletimeapp.h</text>
</a>
</g>
</g>
<!-- Node2 -->
<g id="node2" class="node">
<title>Node2</title>
<g id="a_node2"><a xlink:href="../../d1/df6/bibletime_8cpp.html" target="_top" xlink:title=" ">
<polygon fill="white" stroke="black" points="0,-0.5 0,-19.5 83,-19.5 83,-0.5 0,-0.5"/>
<text text-anchor="middle" x="41.5" y="-7.5" font-family="Helvetica,sans-Serif" font-size="10.00">bibletime.cpp</text>
</a>
</g>
</g>
<!-- Node1&#45;&gt;Node2 -->
<g id="edge1" class="edge">
<title>Node1&#45;&gt;Node2</title>
<path fill="none" stroke="midnightblue" d="M176.67,-53.44C144.24,-43.26 97.76,-28.66 68.63,-19.52"/>
<polygon fill="midnightblue" stroke="midnightblue" points="175.66,-56.79 186.25,-56.44 177.75,-50.11 175.66,-56.79"/>
</g>
<!-- Node3 -->
<g id="node3" class="node">
<title>Node3</title>
<g id="a_node3"><a xlink:href="../../da/dc7/bibletime__init_8cpp.html" target="_top" xlink:title=" ">
<polygon fill="white" stroke="black" points="101.5,-0.5 101.5,-19.5 205.5,-19.5 205.5,-0.5 101.5,-0.5"/>
<text text-anchor="middle" x="153.5" y="-7.5" font-family="Helvetica,sans-Serif" font-size="10.00">bibletime_init.cpp</text>
</a>
</g>
</g>
<!-- Node1&#45;&gt;Node3 -->
<g id="edge2" class="edge">
<title>Node1&#45;&gt;Node3</title>
<path fill="none" stroke="midnightblue" d="M196.32,-49.54C185.62,-39.91 172.24,-27.87 163.32,-19.83"/>
<polygon fill="midnightblue" stroke="midnightblue" points="194.09,-52.24 203.86,-56.32 198.77,-47.03 194.09,-52.24"/>
</g>
<!-- Node4 -->
<g id="node4" class="node">
<title>Node4</title>
<g id="a_node4"><a xlink:href="../../d5/d86/bibletimeapp_8cpp.html" target="_top" xlink:title=" ">
<polygon fill="white" stroke="black" points="224,-0.5 224,-19.5 325,-19.5 325,-0.5 224,-0.5"/>
<text text-anchor="middle" x="274.5" y="-7.5" font-family="Helvetica,sans-Serif" font-size="10.00">bibletimeapp.cpp</text>
</a>
</g>
</g>
<!-- Node1&#45;&gt;Node4 -->
<g id="edge3" class="edge">
<title>Node1&#45;&gt;Node4</title>
<path fill="none" stroke="midnightblue" d="M230.97,-49.54C241.84,-39.91 255.44,-27.87 264.52,-19.83"/>
<polygon fill="midnightblue" stroke="midnightblue" points="228.47,-47.07 223.3,-56.32 233.11,-52.32 228.47,-47.07"/>
</g>
<!-- Node5 -->
<g id="node5" class="node">
<title>Node5</title>
<g id="a_node5"><a xlink:href="../../df/d0a/main_8cpp.html" target="_top" xlink:title=" ">
<polygon fill="white" stroke="black" points="343.5,-0.5 343.5,-19.5 405.5,-19.5 405.5,-0.5 343.5,-0.5"/>
<text text-anchor="middle" x="374.5" y="-7.5" font-family="Helvetica,sans-Serif" font-size="10.00">main.cpp</text>
</a>
</g>
</g>
<!-- Node1&#45;&gt;Node5 -->
<g id="edge4" class="edge">
<title>Node1&#45;&gt;Node5</title>
<path fill="none" stroke="midnightblue" d="M248.76,-53.17C279.08,-43 322.07,-28.59 349.11,-19.52"/>
<polygon fill="midnightblue" stroke="midnightblue" points="247.38,-49.95 239.01,-56.44 249.6,-56.58 247.38,-49.95"/>
</g>
</g>
</svg>
