<?xml version="1.0" encoding="UTF-8" standalone="no"?>
<!DOCTYPE svg PUBLIC "-//W3C//DTD SVG 1.1//EN"
 "http://www.w3.org/Graphics/SVG/1.1/DTD/svg11.dtd">
<!-- Generated by graphviz version 2.43.0 (0)
 -->
<!-- Title: btactioncollection.h Pages: 1 -->
<!--zoomable 196 -->
<svg id="main" version="1.1" xmlns="http://www.w3.org/2000/svg" xmlns:xlink="http://www.w3.org/1999/xlink" xml:space="preserve" onload="init(evt)">
<style type="text/css"><![CDATA[
.edge:hover path { stroke: red; }
.edge:hover polygon { stroke: red; fill: red; }
]]></style>
<script type="text/javascript"><![CDATA[
var edges = document.getElementsByTagName('g');
if (edges && edges.length) {
  for (var i=0;i<edges.length;i++) {
    if (edges[i].id.substr(0,4)=='edge') {
      edges[i].setAttribute('class','edge');
    }
  }
}
]]></script>
        <defs>
                <circle id="rim" cx="0" cy="0" r="7"/>
                <circle id="rim2" cx="0" cy="0" r="3.5"/>
                <g id="zoomPlus">
                        <use xlink:href="#rim" fill="#404040">
                                <set attributeName="fill" to="#808080" begin="zoomplus.mouseover" end="zoomplus.mouseout"/>
                        </use>
                        <path d="M-4,0h8M0,-4v8" fill="none" stroke="white" stroke-width="1.5" pointer-events="none"/>
                </g>
                <g id="zoomMin">
                        <use xlink:href="#rim" fill="#404040">
                                <set attributeName="fill" to="#808080" begin="zoomminus.mouseover" end="zoomminus.mouseout"/>
                        </use>
                        <path d="M-4,0h8" fill="none" stroke="white" stroke-width="1.5" pointer-events="none"/>
                </g>
                <g id="dirArrow">
                        <path fill="none" stroke="white" stroke-width="1.5" d="M0,-3.0v7 M-2.5,-0.5L0,-3.0L2.5,-0.5"/>
                </g>
               <g id="resetDef">
                       <use xlink:href="#rim2" fill="#404040">
                               <set attributeName="fill" to="#808080" begin="reset.mouseover" end="reset.mouseout"/>
                       </use>
               </g>
        </defs>

<script type="text/javascript">
var viewWidth = 2749;
var viewHeight = 196;
var sectionId = 'dynsection-0';
</script>
<script xlink:href="../../svgpan.js"/>
<svg id="graph" class="graph">
<g id="viewport">
<title>btactioncollection.h</title>
<polygon fill="white" stroke="transparent" points="-4,4 -4,-192 2745,-192 2745,4 -4,4"/>
<!-- Node1 -->
<g id="node1" class="node">
<title>Node1</title>
<g id="a_node1"><a xlink:title=" ">
<polygon fill="#bfbfbf" stroke="black" points="2331,-168.5 2331,-187.5 2444,-187.5 2444,-168.5 2331,-168.5"/>
<text text-anchor="middle" x="2387.5" y="-175.5" font-family="Helvetica,sans-Serif" font-size="10.00">btactioncollection.h</text>
</a>
</g>
</g>
<!-- Node2 -->
<g id="node2" class="node">
<title>Node2</title>
<g id="a_node2"><a xlink:href="../../d1/d24/bibletime_8h.html" target="_top" xlink:title=" ">
<polygon fill="white" stroke="black" points="801.5,-112.5 801.5,-131.5 873.5,-131.5 873.5,-112.5 801.5,-112.5"/>
<text text-anchor="middle" x="837.5" y="-119.5" font-family="Helvetica,sans-Serif" font-size="10.00">bibletime.h</text>
</a>
</g>
</g>
<!-- Node1&#45;&gt;Node2 -->
<g id="edge1" class="edge">
<title>Node1&#45;&gt;Node2</title>
<path fill="none" stroke="midnightblue" d="M2320.68,-174.67C2054.61,-165.4 1075.17,-131.28 873.83,-124.27"/>
<polygon fill="midnightblue" stroke="midnightblue" points="2320.84,-178.18 2330.96,-175.03 2321.09,-171.18 2320.84,-178.18"/>
</g>
<!-- Node12 -->
<g id="node12" class="node">
<title>Node12</title>
<g id="a_node12"><a xlink:href="../../d7/d67/cbookreadwindow_8cpp.html" target="_top" xlink:title=" ">
<polygon fill="white" stroke="black" points="0,-0.5 0,-19.5 125,-19.5 125,-0.5 0,-0.5"/>
<text text-anchor="middle" x="62.5" y="-7.5" font-family="Helvetica,sans-Serif" font-size="10.00">cbookreadwindow.cpp</text>
</a>
</g>
</g>
<!-- Node1&#45;&gt;Node12 -->
<g id="edge22" class="edge">
<title>Node1&#45;&gt;Node12</title>
<path fill="none" stroke="midnightblue" d="M2320.73,-176.54C1986.09,-174.08 499.49,-161.6 295.5,-132 202.03,-118.44 161.8,-137.95 90.5,-76 73.25,-61.01 66.28,-33.49 63.77,-19.56"/>
<polygon fill="midnightblue" stroke="midnightblue" points="2320.73,-180.04 2330.75,-176.61 2320.78,-173.04 2320.73,-180.04"/>
</g>
<!-- Node13 -->
<g id="node13" class="node">
<title>Node13</title>
<g id="a_node13"><a xlink:href="../../d0/d6f/ccommentaryreadwindow_8cpp.html" target="_top" xlink:title=" ">
<polygon fill="white" stroke="black" points="185,-0.5 185,-19.5 348,-19.5 348,-0.5 185,-0.5"/>
<text text-anchor="middle" x="266.5" y="-7.5" font-family="Helvetica,sans-Serif" font-size="10.00">ccommentaryreadwindow.cpp</text>
</a>
</g>
</g>
<!-- Node1&#45;&gt;Node13 -->
<g id="edge23" class="edge">
<title>Node1&#45;&gt;Node13</title>
<path fill="none" stroke="midnightblue" d="M2320.52,-176.64C1953.07,-174.35 195.96,-159.08 119.5,-76 91.35,-45.41 145.76,-28.41 196.17,-19.54"/>
<polygon fill="midnightblue" stroke="midnightblue" points="2320.7,-180.14 2330.72,-176.7 2320.75,-173.14 2320.7,-180.14"/>
</g>
<!-- Node16 -->
<g id="node16" class="node">
<title>Node16</title>
<g id="a_node16"><a xlink:href="../../dc/d6a/cacceleratorsettings_8cpp.html" target="_top" xlink:title=" ">
<polygon fill="white" stroke="black" points="1799.5,-0.5 1799.5,-19.5 1935.5,-19.5 1935.5,-0.5 1799.5,-0.5"/>
<text text-anchor="middle" x="1867.5" y="-7.5" font-family="Helvetica,sans-Serif" font-size="10.00">cacceleratorsettings.cpp</text>
</a>
</g>
</g>
<!-- Node1&#45;&gt;Node16 -->
<g id="edge48" class="edge">
<title>Node1&#45;&gt;Node16</title>
<path fill="none" stroke="midnightblue" d="M2414.87,-163.93C2458.1,-141.64 2533.73,-94.91 2497.5,-56 2478.57,-35.67 2094.93,-19.33 1935.77,-13.4"/>
<polygon fill="midnightblue" stroke="midnightblue" points="2413.29,-160.8 2405.94,-168.43 2416.44,-167.06 2413.29,-160.8"/>
</g>
<!-- Node17 -->
<g id="node17" class="node">
<title>Node17</title>
<g id="a_node17"><a xlink:href="../../df/d7b/btactioncollection_8cpp.html" target="_top" xlink:title=" ">
<polygon fill="white" stroke="black" points="2280.5,-112.5 2280.5,-131.5 2404.5,-131.5 2404.5,-112.5 2280.5,-112.5"/>
<text text-anchor="middle" x="2342.5" y="-119.5" font-family="Helvetica,sans-Serif" font-size="10.00">btactioncollection.cpp</text>
</a>
</g>
</g>
<!-- Node1&#45;&gt;Node17 -->
<g id="edge16" class="edge">
<title>Node1&#45;&gt;Node17</title>
<path fill="none" stroke="midnightblue" d="M2373.45,-160.14C2365.61,-150.74 2356.17,-139.4 2349.79,-131.75"/>
<polygon fill="midnightblue" stroke="midnightblue" points="2370.98,-162.64 2380.07,-168.08 2376.36,-158.16 2370.98,-162.64"/>
</g>
<!-- Node18 -->
<g id="node18" class="node">
<title>Node18</title>
<g id="a_node18"><a xlink:href="../../de/da4/cbiblereadwindow_8cpp.html" target="_top" xlink:title=" ">
<polygon fill="white" stroke="black" points="2493,-0.5 2493,-19.5 2618,-19.5 2618,-0.5 2493,-0.5"/>
<text text-anchor="middle" x="2555.5" y="-7.5" font-family="Helvetica,sans-Serif" font-size="10.00">cbiblereadwindow.cpp</text>
</a>
</g>
</g>
<!-- Node1&#45;&gt;Node18 -->
<g id="edge17" class="edge">
<title>Node1&#45;&gt;Node18</title>
<path fill="none" stroke="midnightblue" d="M2454.05,-166.92C2493.88,-159.39 2539.11,-147.71 2551.5,-132 2578.06,-98.34 2564.83,-41.49 2558.36,-19.78"/>
<polygon fill="midnightblue" stroke="midnightblue" points="2453.27,-163.5 2444.07,-168.74 2454.53,-170.39 2453.27,-163.5"/>
</g>
<!-- Node19 -->
<g id="node19" class="node">
<title>Node19</title>
<g id="a_node19"><a xlink:href="../../df/d70/cbiblereadwindow_8h.html" target="_top" xlink:title=" ">
<polygon fill="white" stroke="black" points="2376,-56.5 2376,-75.5 2489,-75.5 2489,-56.5 2376,-56.5"/>
<text text-anchor="middle" x="2432.5" y="-63.5" font-family="Helvetica,sans-Serif" font-size="10.00">cbiblereadwindow.h</text>
</a>
</g>
</g>
<!-- Node1&#45;&gt;Node19 -->
<g id="edge18" class="edge">
<title>Node1&#45;&gt;Node19</title>
<path fill="none" stroke="midnightblue" d="M2398.76,-159.77C2403.76,-151.59 2409.42,-141.54 2413.5,-132 2421.82,-112.54 2427.83,-88.31 2430.67,-75.64"/>
<polygon fill="midnightblue" stroke="midnightblue" points="2395.71,-158.04 2393.33,-168.36 2401.63,-161.78 2395.71,-158.04"/>
</g>
<!-- Node20 -->
<g id="node20" class="node">
<title>Node20</title>
<g id="a_node20"><a xlink:href="../../d5/d2b/cdisplaywindow_8h.html" target="_top" xlink:title=" ">
<polygon fill="white" stroke="black" points="1712,-112.5 1712,-131.5 1815,-131.5 1815,-112.5 1712,-112.5"/>
<text text-anchor="middle" x="1763.5" y="-119.5" font-family="Helvetica,sans-Serif" font-size="10.00">cdisplaywindow.h</text>
</a>
</g>
</g>
<!-- Node1&#45;&gt;Node20 -->
<g id="edge24" class="edge">
<title>Node1&#45;&gt;Node20</title>
<path fill="none" stroke="midnightblue" d="M2320.53,-171.2C2195.28,-160.37 1928.09,-137.24 1815.37,-127.49"/>
<polygon fill="midnightblue" stroke="midnightblue" points="2320.48,-174.71 2330.75,-172.09 2321.09,-167.74 2320.48,-174.71"/>
</g>
<!-- Node26 -->
<g id="node26" class="node">
<title>Node26</title>
<g id="a_node26"><a xlink:href="../../d8/d19/clexiconreadwindow_8cpp.html" target="_top" xlink:title=" ">
<polygon fill="white" stroke="black" points="2264.5,-0.5 2264.5,-19.5 2400.5,-19.5 2400.5,-0.5 2264.5,-0.5"/>
<text text-anchor="middle" x="2332.5" y="-7.5" font-family="Helvetica,sans-Serif" font-size="10.00">clexiconreadwindow.cpp</text>
</a>
</g>
</g>
<!-- Node1&#45;&gt;Node26 -->
<g id="edge46" class="edge">
<title>Node1&#45;&gt;Node26</title>
<path fill="none" stroke="midnightblue" d="M2454.23,-173.16C2482.82,-167.8 2513.67,-156.26 2531.5,-132 2551.51,-104.79 2552.59,-82.39 2531.5,-56 2515.19,-35.59 2451.61,-23.76 2400.65,-17.4"/>
<polygon fill="midnightblue" stroke="midnightblue" points="2453.54,-169.73 2444.24,-174.81 2454.68,-176.64 2453.54,-169.73"/>
</g>
<!-- Node27 -->
<g id="node27" class="node">
<title>Node27</title>
<g id="a_node27"><a xlink:href="../../d7/d36/btshortcutseditor_8cpp.html" target="_top" xlink:title=" ">
<polygon fill="white" stroke="black" points="2622,-112.5 2622,-131.5 2741,-131.5 2741,-112.5 2622,-112.5"/>
<text text-anchor="middle" x="2681.5" y="-119.5" font-family="Helvetica,sans-Serif" font-size="10.00">btshortcutseditor.cpp</text>
</a>
</g>
</g>
<!-- Node1&#45;&gt;Node27 -->
<g id="edge47" class="edge">
<title>Node1&#45;&gt;Node27</title>
<path fill="none" stroke="midnightblue" d="M2444.12,-166.6C2499.68,-156.4 2583.4,-141.02 2635.13,-131.52"/>
<polygon fill="midnightblue" stroke="midnightblue" points="2443.29,-163.19 2434.09,-168.44 2444.55,-170.08 2443.29,-163.19"/>
</g>
<!-- Node3 -->
<g id="node3" class="node">
<title>Node3</title>
<g id="a_node3"><a xlink:href="../../d1/df6/bibletime_8cpp.html" target="_top" xlink:title=" ">
<polygon fill="white" stroke="black" points="1658,-0.5 1658,-19.5 1741,-19.5 1741,-0.5 1658,-0.5"/>
<text text-anchor="middle" x="1699.5" y="-7.5" font-family="Helvetica,sans-Serif" font-size="10.00">bibletime.cpp</text>
</a>
</g>
</g>
<!-- Node2&#45;&gt;Node3 -->
<g id="edge2" class="edge">
<title>Node2&#45;&gt;Node3</title>
<path fill="none" stroke="midnightblue" d="M854.5,-105.93C873.31,-90.27 905.26,-66.6 937.5,-56 1072.83,-11.5 1518.32,-10.01 1657.54,-10.67"/>
<polygon fill="midnightblue" stroke="midnightblue" points="852.15,-103.33 846.82,-112.49 856.7,-108.65 852.15,-103.33"/>
</g>
<!-- Node4 -->
<g id="node4" class="node">
<title>Node4</title>
<g id="a_node4"><a xlink:href="../../da/dc7/bibletime__init_8cpp.html" target="_top" xlink:title=" ">
<polygon fill="white" stroke="black" points="498.5,-56.5 498.5,-75.5 602.5,-75.5 602.5,-56.5 498.5,-56.5"/>
<text text-anchor="middle" x="550.5" y="-63.5" font-family="Helvetica,sans-Serif" font-size="10.00">bibletime_init.cpp</text>
</a>
</g>
</g>
<!-- Node2&#45;&gt;Node4 -->
<g id="edge3" class="edge">
<title>Node2&#45;&gt;Node4</title>
<path fill="none" stroke="midnightblue" d="M791.51,-112.35C737.84,-102.25 649.62,-85.65 596.1,-75.58"/>
<polygon fill="midnightblue" stroke="midnightblue" points="790.97,-115.81 801.44,-114.22 792.26,-108.93 790.97,-115.81"/>
</g>
<!-- Node5 -->
<g id="node5" class="node">
<title>Node5</title>
<g id="a_node5"><a xlink:href="../../d6/d96/bibletime__slots_8cpp.html" target="_top" xlink:title=" ">
<polygon fill="white" stroke="black" points="1387.5,-56.5 1387.5,-75.5 1499.5,-75.5 1499.5,-56.5 1387.5,-56.5"/>
<text text-anchor="middle" x="1443.5" y="-63.5" font-family="Helvetica,sans-Serif" font-size="10.00">bibletime_slots.cpp</text>
</a>
</g>
</g>
<!-- Node2&#45;&gt;Node5 -->
<g id="edge4" class="edge">
<title>Node2&#45;&gt;Node5</title>
<path fill="none" stroke="midnightblue" d="M883.63,-118.02C977.14,-111.78 1195.66,-96.25 1378.5,-76 1381.33,-75.69 1384.23,-75.35 1387.15,-74.99"/>
<polygon fill="midnightblue" stroke="midnightblue" points="883.4,-114.52 873.65,-118.68 883.86,-121.51 883.4,-114.52"/>
</g>
<!-- Node6 -->
<g id="node6" class="node">
<title>Node6</title>
<g id="a_node6"><a xlink:href="../../df/d88/btbookshelfdockwidget_8cpp.html" target="_top" xlink:title=" ">
<polygon fill="white" stroke="black" points="621,-56.5 621,-75.5 772,-75.5 772,-56.5 621,-56.5"/>
<text text-anchor="middle" x="696.5" y="-63.5" font-family="Helvetica,sans-Serif" font-size="10.00">btbookshelfdockwidget.cpp</text>
</a>
</g>
</g>
<!-- Node2&#45;&gt;Node6 -->
<g id="edge5" class="edge">
<title>Node2&#45;&gt;Node6</title>
<path fill="none" stroke="midnightblue" d="M805.57,-108.77C779.09,-98.63 742.11,-84.47 718.74,-75.52"/>
<polygon fill="midnightblue" stroke="midnightblue" points="804.57,-112.14 815.16,-112.44 807.07,-105.6 804.57,-112.14"/>
</g>
<!-- Node7 -->
<g id="node7" class="node">
<title>Node7</title>
<g id="a_node7"><a xlink:href="../../d5/d80/cinfodisplay_8cpp.html" target="_top" xlink:title=" ">
<polygon fill="white" stroke="black" points="790,-56.5 790,-75.5 885,-75.5 885,-56.5 790,-56.5"/>
<text text-anchor="middle" x="837.5" y="-63.5" font-family="Helvetica,sans-Serif" font-size="10.00">cinfodisplay.cpp</text>
</a>
</g>
</g>
<!-- Node2&#45;&gt;Node7 -->
<g id="edge6" class="edge">
<title>Node2&#45;&gt;Node7</title>
<path fill="none" stroke="midnightblue" d="M837.5,-101.8C837.5,-92.91 837.5,-82.78 837.5,-75.75"/>
<polygon fill="midnightblue" stroke="midnightblue" points="834,-102.08 837.5,-112.08 841,-102.08 834,-102.08"/>
</g>
<!-- Node8 -->
<g id="node8" class="node">
<title>Node8</title>
<g id="a_node8"><a xlink:href="../../d2/db3/cmdiarea_8cpp.html" target="_top" xlink:title=" ">
<polygon fill="white" stroke="black" points="980,-56.5 980,-75.5 1063,-75.5 1063,-56.5 980,-56.5"/>
<text text-anchor="middle" x="1021.5" y="-63.5" font-family="Helvetica,sans-Serif" font-size="10.00">cmdiarea.cpp</text>
</a>
</g>
</g>
<!-- Node2&#45;&gt;Node8 -->
<g id="edge7" class="edge">
<title>Node2&#45;&gt;Node8</title>
<path fill="none" stroke="midnightblue" d="M876.45,-109.57C911.16,-99.38 961.18,-84.7 992.48,-75.52"/>
<polygon fill="midnightblue" stroke="midnightblue" points="875.27,-106.27 866.66,-112.44 877.24,-112.99 875.27,-106.27"/>
</g>
<!-- Node9 -->
<g id="node9" class="node">
<title>Node9</title>
<g id="a_node9"><a xlink:href="../../de/db2/btmodelviewreaddisplay_8cpp.html" target="_top" xlink:title=" ">
<polygon fill="white" stroke="black" points="1081.5,-56.5 1081.5,-75.5 1237.5,-75.5 1237.5,-56.5 1081.5,-56.5"/>
<text text-anchor="middle" x="1159.5" y="-63.5" font-family="Helvetica,sans-Serif" font-size="10.00">btmodelviewreaddisplay.cpp</text>
</a>
</g>
</g>
<!-- Node2&#45;&gt;Node9 -->
<g id="edge8" class="edge">
<title>Node2&#45;&gt;Node9</title>
<path fill="none" stroke="midnightblue" d="M883.39,-113.3C943,-103.31 1046.76,-85.91 1108.69,-75.52"/>
<polygon fill="midnightblue" stroke="midnightblue" points="882.78,-109.86 873.5,-114.96 883.94,-116.76 882.78,-109.86"/>
</g>
<!-- Node10 -->
<g id="node10" class="node">
<title>Node10</title>
<g id="a_node10"><a xlink:href="../../de/d6e/btqmlinterface_8cpp.html" target="_top" xlink:title=" ">
<polygon fill="white" stroke="black" points="129,-56.5 129,-75.5 238,-75.5 238,-56.5 129,-56.5"/>
<text text-anchor="middle" x="183.5" y="-63.5" font-family="Helvetica,sans-Serif" font-size="10.00">btqmlinterface.cpp</text>
</a>
</g>
</g>
<!-- Node2&#45;&gt;Node10 -->
<g id="edge9" class="edge">
<title>Node2&#45;&gt;Node10</title>
<path fill="none" stroke="midnightblue" d="M791.24,-118.28C692.27,-112.27 452.66,-96.74 252.5,-76 247.81,-75.51 242.95,-74.97 238.08,-74.39"/>
<polygon fill="midnightblue" stroke="midnightblue" points="791.3,-121.79 801.49,-118.9 791.72,-114.8 791.3,-121.79"/>
</g>
<!-- Node11 -->
<g id="node11" class="node">
<title>Node11</title>
<g id="a_node11"><a xlink:href="../../d9/d0c/btquickwidget_8cpp.html" target="_top" xlink:title=" ">
<polygon fill="white" stroke="black" points="294.5,-56.5 294.5,-75.5 400.5,-75.5 400.5,-56.5 294.5,-56.5"/>
<text text-anchor="middle" x="347.5" y="-63.5" font-family="Helvetica,sans-Serif" font-size="10.00">btquickwidget.cpp</text>
</a>
</g>
</g>
<!-- Node2&#45;&gt;Node11 -->
<g id="edge10" class="edge">
<title>Node2&#45;&gt;Node11</title>
<path fill="none" stroke="midnightblue" d="M791.32,-116.75C712.78,-109.38 548.21,-93.35 409.5,-76 406.59,-75.64 403.6,-75.25 400.58,-74.85"/>
<polygon fill="midnightblue" stroke="midnightblue" points="791.09,-120.24 801.37,-117.69 791.74,-113.27 791.09,-120.24"/>
</g>
<!-- Node2&#45;&gt;Node12 -->
<g id="edge11" class="edge">
<title>Node2&#45;&gt;Node12</title>
<path fill="none" stroke="midnightblue" d="M790.94,-120.15C641.39,-117.13 179.5,-105.48 119.5,-76 94.18,-63.56 75.31,-34.33 67.07,-19.69"/>
<polygon fill="midnightblue" stroke="midnightblue" points="791.09,-123.65 801.16,-120.35 791.23,-116.65 791.09,-123.65"/>
</g>
<!-- Node2&#45;&gt;Node13 -->
<g id="edge12" class="edge">
<title>Node2&#45;&gt;Node13</title>
<path fill="none" stroke="midnightblue" d="M791.36,-120.19C665.72,-117.59 324.33,-107.65 285.5,-76 268.55,-62.18 266.2,-34.13 266.18,-19.82"/>
<polygon fill="midnightblue" stroke="midnightblue" points="791.36,-123.69 801.43,-120.4 791.5,-116.7 791.36,-123.69"/>
</g>
<!-- Node14 -->
<g id="node14" class="node">
<title>Node14</title>
<g id="a_node14"><a xlink:href="../../d2/d26/cdisplaywindow_8cpp.html" target="_top" xlink:title=" ">
<polygon fill="white" stroke="black" points="1255.5,-56.5 1255.5,-75.5 1369.5,-75.5 1369.5,-56.5 1255.5,-56.5"/>
<text text-anchor="middle" x="1312.5" y="-63.5" font-family="Helvetica,sans-Serif" font-size="10.00">cdisplaywindow.cpp</text>
</a>
</g>
</g>
<!-- Node2&#45;&gt;Node14 -->
<g id="edge13" class="edge">
<title>Node2&#45;&gt;Node14</title>
<path fill="none" stroke="midnightblue" d="M883.81,-116.3C959.67,-108.51 1115.13,-92.18 1246.5,-76 1249.37,-75.65 1252.31,-75.28 1255.27,-74.9"/>
<polygon fill="midnightblue" stroke="midnightblue" points="883.24,-112.84 873.65,-117.34 883.95,-119.8 883.24,-112.84"/>
</g>
<!-- Node15 -->
<g id="node15" class="node">
<title>Node15</title>
<g id="a_node15"><a xlink:href="../../df/d0a/main_8cpp.html" target="_top" xlink:title=" ">
<polygon fill="white" stroke="black" points="418.5,-56.5 418.5,-75.5 480.5,-75.5 480.5,-56.5 418.5,-56.5"/>
<text text-anchor="middle" x="449.5" y="-63.5" font-family="Helvetica,sans-Serif" font-size="10.00">main.cpp</text>
</a>
</g>
</g>
<!-- Node2&#45;&gt;Node15 -->
<g id="edge14" class="edge">
<title>Node2&#45;&gt;Node15</title>
<path fill="none" stroke="midnightblue" d="M791.05,-116.38C724.13,-109.41 596.84,-94.97 489.5,-76 486.7,-75.5 483.79,-74.94 480.89,-74.35"/>
<polygon fill="midnightblue" stroke="midnightblue" points="790.96,-119.89 801.26,-117.43 791.67,-112.92 790.96,-119.89"/>
</g>
<!-- Node2&#45;&gt;Node16 -->
<g id="edge15" class="edge">
<title>Node2&#45;&gt;Node16</title>
<path fill="none" stroke="midnightblue" d="M865.11,-108.02C883.89,-99.14 909.27,-87.02 931.5,-76 948.95,-67.35 951.68,-61.01 970.5,-56 1137.97,-11.45 1576.53,-30.59 1749.5,-20 1765.6,-19.01 1782.92,-17.79 1799.2,-16.56"/>
<polygon fill="midnightblue" stroke="midnightblue" points="863.49,-104.92 855.94,-112.35 866.48,-111.25 863.49,-104.92"/>
</g>
<!-- Node19&#45;&gt;Node3 -->
<g id="edge19" class="edge">
<title>Node19&#45;&gt;Node3</title>
<path fill="none" stroke="midnightblue" d="M2365.68,-55.99C2109.57,-30.9 2042.92,-40.36 1790.5,-20 1774.36,-18.7 1756.63,-17 1741.15,-15.44"/>
<polygon fill="midnightblue" stroke="midnightblue" points="2365.35,-59.48 2375.65,-56.98 2366.04,-52.51 2365.35,-59.48"/>
</g>
<!-- Node19&#45;&gt;Node16 -->
<g id="edge21" class="edge">
<title>Node19&#45;&gt;Node16</title>
<path fill="none" stroke="midnightblue" d="M2365.94,-55.99C2205.49,-38 2030.04,-23.52 1935.8,-16.17"/>
<polygon fill="midnightblue" stroke="midnightblue" points="2365.67,-59.48 2376,-57.12 2366.45,-52.52 2365.67,-59.48"/>
</g>
<!-- Node19&#45;&gt;Node18 -->
<g id="edge20" class="edge">
<title>Node19&#45;&gt;Node18</title>
<path fill="none" stroke="midnightblue" d="M2461.27,-52.37C2484.31,-42.26 2515.98,-28.35 2536.1,-19.52"/>
<polygon fill="midnightblue" stroke="midnightblue" points="2459.74,-49.22 2451.99,-56.44 2462.55,-55.63 2459.74,-49.22"/>
</g>
<!-- Node20&#45;&gt;Node3 -->
<g id="edge25" class="edge">
<title>Node20&#45;&gt;Node3</title>
<path fill="none" stroke="midnightblue" d="M1720.37,-108.73C1704.33,-101.84 1687.79,-91.43 1678.5,-76 1667.37,-57.51 1682.68,-32.46 1692.46,-19.52"/>
<polygon fill="midnightblue" stroke="midnightblue" points="1719.11,-111.99 1729.7,-112.39 1721.67,-105.48 1719.11,-111.99"/>
</g>
<!-- Node20&#45;&gt;Node5 -->
<g id="edge26" class="edge">
<title>Node20&#45;&gt;Node5</title>
<path fill="none" stroke="midnightblue" d="M1702.63,-110.73C1642.16,-100.52 1550.51,-85.06 1493.97,-75.52"/>
<polygon fill="midnightblue" stroke="midnightblue" points="1702.35,-114.23 1712.8,-112.44 1703.52,-107.33 1702.35,-114.23"/>
</g>
<!-- Node20&#45;&gt;Node8 -->
<g id="edge28" class="edge">
<title>Node20&#45;&gt;Node8</title>
<path fill="none" stroke="midnightblue" d="M1701.55,-119.24C1580.36,-115.3 1303.58,-103.83 1072.5,-76 1069.46,-75.63 1066.34,-75.21 1063.19,-74.74"/>
<polygon fill="midnightblue" stroke="midnightblue" points="1701.64,-122.75 1711.74,-119.57 1701.86,-115.75 1701.64,-122.75"/>
</g>
<!-- Node20&#45;&gt;Node9 -->
<g id="edge29" class="edge">
<title>Node20&#45;&gt;Node9</title>
<path fill="none" stroke="midnightblue" d="M1701.52,-115.93C1604.46,-107.92 1410.7,-91.64 1246.5,-76 1243.63,-75.73 1240.7,-75.44 1237.75,-75.16"/>
<polygon fill="midnightblue" stroke="midnightblue" points="1701.49,-119.44 1711.74,-116.78 1702.06,-112.47 1701.49,-119.44"/>
</g>
<!-- Node20&#45;&gt;Node14 -->
<g id="edge40" class="edge">
<title>Node20&#45;&gt;Node14</title>
<path fill="none" stroke="midnightblue" d="M1701.42,-114.11C1625.28,-105.58 1492.32,-90.41 1378.5,-76 1375.63,-75.64 1372.69,-75.26 1369.73,-74.87"/>
<polygon fill="midnightblue" stroke="midnightblue" points="1701.45,-117.64 1711.78,-115.27 1702.23,-110.68 1701.45,-117.64"/>
</g>
<!-- Node20&#45;&gt;Node16 -->
<g id="edge45" class="edge">
<title>Node20&#45;&gt;Node16</title>
<path fill="none" stroke="midnightblue" d="M1801.61,-108.54C1818.13,-101.39 1836.41,-90.82 1848.5,-76 1862.17,-59.24 1866.01,-32.99 1867.08,-19.55"/>
<polygon fill="midnightblue" stroke="midnightblue" points="1800.11,-105.37 1792.15,-112.36 1802.74,-111.86 1800.11,-105.37"/>
</g>
<!-- Node20&#45;&gt;Node19 -->
<g id="edge31" class="edge">
<title>Node20&#45;&gt;Node19</title>
<path fill="none" stroke="midnightblue" d="M1825.41,-117.63C1934.78,-111.4 2169.28,-96.79 2366.5,-76 2369.49,-75.68 2372.55,-75.34 2375.64,-74.98"/>
<polygon fill="midnightblue" stroke="midnightblue" points="1825,-114.15 1815.22,-118.21 1825.4,-121.14 1825,-114.15"/>
</g>
<!-- Node21 -->
<g id="node21" class="node">
<title>Node21</title>
<g id="a_node21"><a xlink:href="../../d3/d2f/btcopybyreferencesdialog_8cpp.html" target="_top" xlink:title=" ">
<polygon fill="white" stroke="black" points="1895.5,-56.5 1895.5,-75.5 2059.5,-75.5 2059.5,-56.5 1895.5,-56.5"/>
<text text-anchor="middle" x="1977.5" y="-63.5" font-family="Helvetica,sans-Serif" font-size="10.00">btcopybyreferencesdialog.cpp</text>
</a>
</g>
</g>
<!-- Node20&#45;&gt;Node21 -->
<g id="edge27" class="edge">
<title>Node20&#45;&gt;Node21</title>
<path fill="none" stroke="midnightblue" d="M1807.26,-109.96C1847.67,-99.76 1906.87,-84.82 1943.75,-75.52"/>
<polygon fill="midnightblue" stroke="midnightblue" points="1806.25,-106.6 1797.41,-112.44 1807.96,-113.39 1806.25,-106.6"/>
</g>
<!-- Node22 -->
<g id="node22" class="node">
<title>Node22</title>
<g id="a_node22"><a xlink:href="../../df/d47/btmodulechooserbar_8cpp.html" target="_top" xlink:title=" ">
<polygon fill="white" stroke="black" points="2078,-56.5 2078,-75.5 2215,-75.5 2215,-56.5 2078,-56.5"/>
<text text-anchor="middle" x="2146.5" y="-63.5" font-family="Helvetica,sans-Serif" font-size="10.00">btmodulechooserbar.cpp</text>
</a>
</g>
</g>
<!-- Node20&#45;&gt;Node22 -->
<g id="edge30" class="edge">
<title>Node20&#45;&gt;Node22</title>
<path fill="none" stroke="midnightblue" d="M1825.4,-112.27C1897.17,-102.15 2014.69,-85.58 2085.9,-75.54"/>
<polygon fill="midnightblue" stroke="midnightblue" points="1824.57,-108.86 1815.15,-113.72 1825.54,-115.79 1824.57,-108.86"/>
</g>
<!-- Node23 -->
<g id="node23" class="node">
<title>Node23</title>
<g id="a_node23"><a xlink:href="../../df/d9e/cbookreadwindow_8h.html" target="_top" xlink:title=" ">
<polygon fill="white" stroke="black" points="1518,-56.5 1518,-75.5 1631,-75.5 1631,-56.5 1518,-56.5"/>
<text text-anchor="middle" x="1574.5" y="-63.5" font-family="Helvetica,sans-Serif" font-size="10.00">cbookreadwindow.h</text>
</a>
</g>
</g>
<!-- Node20&#45;&gt;Node23 -->
<g id="edge32" class="edge">
<title>Node20&#45;&gt;Node23</title>
<path fill="none" stroke="midnightblue" d="M1723.49,-109.57C1687.83,-99.38 1636.46,-84.7 1604.31,-75.52"/>
<polygon fill="midnightblue" stroke="midnightblue" points="1722.98,-113.06 1733.55,-112.44 1724.9,-106.33 1722.98,-113.06"/>
</g>
<!-- Node24 -->
<g id="node24" class="node">
<title>Node24</title>
<g id="a_node24"><a xlink:href="../../d5/da8/ccommentaryreadwindow_8h.html" target="_top" xlink:title=" ">
<polygon fill="white" stroke="black" points="1687.5,-56.5 1687.5,-75.5 1839.5,-75.5 1839.5,-56.5 1687.5,-56.5"/>
<text text-anchor="middle" x="1763.5" y="-63.5" font-family="Helvetica,sans-Serif" font-size="10.00">ccommentaryreadwindow.h</text>
</a>
</g>
</g>
<!-- Node20&#45;&gt;Node24 -->
<g id="edge36" class="edge">
<title>Node20&#45;&gt;Node24</title>
<path fill="none" stroke="midnightblue" d="M1763.5,-101.8C1763.5,-92.91 1763.5,-82.78 1763.5,-75.75"/>
<polygon fill="midnightblue" stroke="midnightblue" points="1760,-102.08 1763.5,-112.08 1767,-102.08 1760,-102.08"/>
</g>
<!-- Node25 -->
<g id="node25" class="node">
<title>Node25</title>
<g id="a_node25"><a xlink:href="../../d5/d06/clexiconreadwindow_8h.html" target="_top" xlink:title=" ">
<polygon fill="white" stroke="black" points="2233,-56.5 2233,-75.5 2358,-75.5 2358,-56.5 2233,-56.5"/>
<text text-anchor="middle" x="2295.5" y="-63.5" font-family="Helvetica,sans-Serif" font-size="10.00">clexiconreadwindow.h</text>
</a>
</g>
</g>
<!-- Node20&#45;&gt;Node25 -->
<g id="edge41" class="edge">
<title>Node20&#45;&gt;Node25</title>
<path fill="none" stroke="midnightblue" d="M1825.41,-115.48C1913.79,-107.47 2081.2,-91.85 2223.5,-76 2226.5,-75.67 2229.58,-75.31 2232.68,-74.95"/>
<polygon fill="midnightblue" stroke="midnightblue" points="1824.93,-112 1815.29,-116.39 1825.56,-118.98 1824.93,-112"/>
</g>
<!-- Node23&#45;&gt;Node3 -->
<g id="edge33" class="edge">
<title>Node23&#45;&gt;Node3</title>
<path fill="none" stroke="midnightblue" d="M1603.74,-52.37C1627.15,-42.26 1659.34,-28.35 1679.79,-19.52"/>
<polygon fill="midnightblue" stroke="midnightblue" points="1602.1,-49.26 1594.31,-56.44 1604.87,-55.69 1602.1,-49.26"/>
</g>
<!-- Node23&#45;&gt;Node12 -->
<g id="edge34" class="edge">
<title>Node23&#45;&gt;Node12</title>
<path fill="none" stroke="midnightblue" d="M1507.6,-56.03C916.09,-8.38 764,-51.36 175.5,-20 159.19,-19.13 141.58,-17.88 125.22,-16.58"/>
<polygon fill="midnightblue" stroke="midnightblue" points="1507.41,-59.53 1517.66,-56.85 1507.98,-52.55 1507.41,-59.53"/>
</g>
<!-- Node23&#45;&gt;Node16 -->
<g id="edge35" class="edge">
<title>Node23&#45;&gt;Node16</title>
<path fill="none" stroke="midnightblue" d="M1630.93,-54.6C1686.3,-44.4 1769.73,-29.02 1821.29,-19.52"/>
<polygon fill="midnightblue" stroke="midnightblue" points="1630.13,-51.19 1620.93,-56.44 1631.4,-58.07 1630.13,-51.19"/>
</g>
<!-- Node24&#45;&gt;Node3 -->
<g id="edge37" class="edge">
<title>Node24&#45;&gt;Node3</title>
<path fill="none" stroke="midnightblue" d="M1745.51,-49.82C1734.04,-40.15 1719.59,-27.95 1709.97,-19.83"/>
<polygon fill="midnightblue" stroke="midnightblue" points="1743.32,-52.55 1753.22,-56.32 1747.83,-47.2 1743.32,-52.55"/>
</g>
<!-- Node24&#45;&gt;Node13 -->
<g id="edge38" class="edge">
<title>Node24&#45;&gt;Node13</title>
<path fill="none" stroke="midnightblue" d="M1677.35,-58.3C1664.66,-57.45 1651.75,-56.64 1639.5,-56 1149.77,-30.21 560.95,-16.82 348.18,-12.55"/>
<polygon fill="midnightblue" stroke="midnightblue" points="1677.24,-61.8 1687.46,-59 1677.73,-54.82 1677.24,-61.8"/>
</g>
<!-- Node24&#45;&gt;Node16 -->
<g id="edge39" class="edge">
<title>Node24&#45;&gt;Node16</title>
<path fill="none" stroke="midnightblue" d="M1789.33,-51.59C1808.56,-41.61 1834.24,-28.27 1850.83,-19.65"/>
<polygon fill="midnightblue" stroke="midnightblue" points="1787.47,-48.61 1780.21,-56.32 1790.7,-54.82 1787.47,-48.61"/>
</g>
<!-- Node25&#45;&gt;Node3 -->
<g id="edge42" class="edge">
<title>Node25&#45;&gt;Node3</title>
<path fill="none" stroke="midnightblue" d="M2222.5,-55.94C2029.72,-36.06 1979.53,-37.2 1790.5,-20 1774.37,-18.53 1756.65,-16.81 1741.17,-15.26"/>
<polygon fill="midnightblue" stroke="midnightblue" points="2222.38,-59.44 2232.69,-56.99 2223.1,-52.48 2222.38,-59.44"/>
</g>
<!-- Node25&#45;&gt;Node16 -->
<g id="edge44" class="edge">
<title>Node25&#45;&gt;Node16</title>
<path fill="none" stroke="midnightblue" d="M2222.74,-55.82C2142.17,-45.65 2013.33,-29.4 1934.95,-19.51"/>
<polygon fill="midnightblue" stroke="midnightblue" points="2222.45,-59.31 2232.81,-57.09 2223.32,-52.37 2222.45,-59.31"/>
</g>
<!-- Node25&#45;&gt;Node26 -->
<g id="edge43" class="edge">
<title>Node25&#45;&gt;Node26</title>
<path fill="none" stroke="midnightblue" d="M2307.45,-47.57C2313.81,-38.27 2321.37,-27.25 2326.5,-19.75"/>
<polygon fill="midnightblue" stroke="midnightblue" points="2304.37,-45.86 2301.61,-56.08 2310.15,-49.81 2304.37,-45.86"/>
</g>
</g>
</svg>
        <g id="navigator" transform="translate(0 0)" fill="#404254">
                <rect fill="#f2f5e9" fill-opacity="0.5" stroke="#606060" stroke-width=".5" x="0" y="0" width="60" height="60"/>
                <use id="zoomplus" xlink:href="#zoomPlus" x="17" y="9" onmousedown="handleZoom(evt,'in')"/>
                <use id="zoomminus" xlink:href="#zoomMin" x="42" y="9" onmousedown="handleZoom(evt,'out')"/>
                <use id="reset" xlink:href="#resetDef" x="30" y="36" onmousedown="handleReset()"/>
                <g id="arrowUp" xlink:href="#dirArrow" transform="translate(30 24)" onmousedown="handlePan(0,-1)">
                  <use xlink:href="#rim" fill="#404040">
                        <set attributeName="fill" to="#808080" begin="arrowUp.mouseover" end="arrowUp.mouseout"/>
                  </use>
                  <path fill="none" stroke="white" stroke-width="1.5" d="M0,-3.0v7 M-2.5,-0.5L0,-3.0L2.5,-0.5"/>
                </g>
                <g id="arrowRight" xlink:href="#dirArrow" transform="rotate(90) translate(36 -43)" onmousedown="handlePan(1,0)">
                  <use xlink:href="#rim" fill="#404040">
                        <set attributeName="fill" to="#808080" begin="arrowRight.mouseover" end="arrowRight.mouseout"/>
                  </use>
                  <path fill="none" stroke="white" stroke-width="1.5" d="M0,-3.0v7 M-2.5,-0.5L0,-3.0L2.5,-0.5"/>
                </g>
                <g id="arrowDown" xlink:href="#dirArrow" transform="rotate(180) translate(-30 -48)" onmousedown="handlePan(0,1)">
                  <use xlink:href="#rim" fill="#404040">
                        <set attributeName="fill" to="#808080" begin="arrowDown.mouseover" end="arrowDown.mouseout"/>
                  </use>
                  <path fill="none" stroke="white" stroke-width="1.5" d="M0,-3.0v7 M-2.5,-0.5L0,-3.0L2.5,-0.5"/>
                </g>
                <g id="arrowLeft" xlink:href="#dirArrow" transform="rotate(270) translate(-36 17)" onmousedown="handlePan(-1,0)">
                  <use xlink:href="#rim" fill="#404040">
                        <set attributeName="fill" to="#808080" begin="arrowLeft.mouseover" end="arrowLeft.mouseout"/>
                  </use>
                  <path fill="none" stroke="white" stroke-width="1.5" d="M0,-3.0v7 M-2.5,-0.5L0,-3.0L2.5,-0.5"/>
                </g>
        </g>
        <svg viewBox="0 0 15 15" width="100%" height="30px" preserveAspectRatio="xMaxYMin meet">
         <g id="arrow_out" transform="scale(0.3 0.3)">
          <a xlink:href="btactioncollection_8h__dep__incl_org.svg" target="_base">
           <rect id="button" ry="5" rx="5" y="6" x="6" height="38" width="38"
                fill="#f2f5e9" fill-opacity="0.5" stroke="#606060" stroke-width="1.0"/>
           <path id="arrow"
             d="M 11.500037,31.436501 C 11.940474,20.09759 22.043105,11.32322 32.158766,21.979434 L 37.068811,17.246167 C 37.068811,17.246167 37.088388,32 37.088388,32 L 22.160133,31.978069 C 22.160133,31.978069 26.997745,27.140456 26.997745,27.140456 C 18.528582,18.264221 13.291696,25.230495 11.500037,31.436501 z"
             style="fill:#404040;"/>
          </a>
         </g>
        </svg>
</svg>
