<?xml version="1.0" encoding="UTF-8" standalone="no"?>
<!DOCTYPE svg PUBLIC "-//W3C//DTD SVG 1.1//EN"
 "http://www.w3.org/Graphics/SVG/1.1/DTD/svg11.dtd">
<!-- Generated by graphviz version 2.43.0 (0)
 -->
<!-- Title: btactioncollection.h Pages: 1 -->
<svg width="2515pt" height="192pt"
 viewBox="0.00 0.00 2514.50 192.00" xmlns="http://www.w3.org/2000/svg" xmlns:xlink="http://www.w3.org/1999/xlink">
<g id="graph0" class="graph" transform="scale(1 1) rotate(0) translate(4 188)">
<title>btactioncollection.h</title>
<!-- Node1 -->
<g id="Node000001" class="node">
<title>Node1</title>
<g id="a_Node000001"><a xlink:title=" ">
<polygon fill="#999999" stroke="#666666" points="1672,-184 1559,-184 1559,-165 1672,-165 1672,-184"/>
<text text-anchor="middle" x="1615.5" y="-172" font-family="Helvetica,sans-Serif" font-size="10.00">btactioncollection.h</text>
</a>
</g>
</g>
<!-- Node2 -->
<g id="Node000002" class="node">
<title>Node2</title>
<g id="a_Node000002"><a xlink:href="../../d1/d24/bibletime_8h.html" target="_top" xlink:title=" ">
<polygon fill="white" stroke="#666666" points="868.5,-129 796.5,-129 796.5,-110 868.5,-110 868.5,-129"/>
<text text-anchor="middle" x="832.5" y="-117" font-family="Helvetica,sans-Serif" font-size="10.00">bibletime.h</text>
</a>
</g>
</g>
<!-- Node1&#45;&gt;Node2 -->
<g id="edge1_Node000001_Node000002" class="edge">
<title>Node1&#45;&gt;Node2</title>
<g id="a_edge1_Node000001_Node000002"><a xlink:title=" ">
<path fill="none" stroke="#63b8ff" d="M1548.72,-168.98C1389.31,-158.19 990.7,-131.21 868.61,-122.94"/>
<polygon fill="#63b8ff" stroke="#63b8ff" points="1548.66,-172.48 1558.87,-169.67 1549.13,-165.5 1548.66,-172.48"/>
</a>
</g>
</g>
<!-- Node10 -->
<g id="Node000010" class="node">
<title>Node10</title>
<g id="a_Node000010"><a xlink:href="../../dc/d6a/cacceleratorsettings_8cpp.html" target="_top" xlink:title=" ">
<polygon fill="white" stroke="#666666" points="2208.5,-19 2072.5,-19 2072.5,0 2208.5,0 2208.5,-19"/>
<text text-anchor="middle" x="2140.5" y="-7" font-family="Helvetica,sans-Serif" font-size="10.00">cacceleratorsettings.cpp</text>
</a>
</g>
</g>
<!-- Node1&#45;&gt;Node10 -->
<g id="edge18_Node000001_Node000010" class="edge">
<title>Node1&#45;&gt;Node10</title>
<g id="a_edge18_Node000001_Node000010"><a xlink:title=" ">
<path fill="none" stroke="#63b8ff" d="M1682.46,-170.99C1879.06,-162.95 2444.25,-134.71 2498.5,-74 2504.13,-67.7 2504.09,-61.33 2498.5,-55 2496.11,-52.3 2311.72,-30.43 2208.54,-18.39"/>
<polygon fill="#63b8ff" stroke="#63b8ff" points="1682.12,-167.5 1672.27,-171.41 1682.4,-174.5 1682.12,-167.5"/>
</a>
</g>
</g>
<!-- Node11 -->
<g id="Node000011" class="node">
<title>Node11</title>
<g id="a_Node000011"><a xlink:href="../../d7/d67/cbookreadwindow_8cpp.html" target="_top" xlink:title=" ">
<polygon fill="white" stroke="#666666" points="125,-19 0,-19 0,0 125,0 125,-19"/>
<text text-anchor="middle" x="62.5" y="-7" font-family="Helvetica,sans-Serif" font-size="10.00">cbookreadwindow.cpp</text>
</a>
</g>
</g>
<!-- Node1&#45;&gt;Node11 -->
<g id="edge19_Node000001_Node000011" class="edge">
<title>Node1&#45;&gt;Node11</title>
<g id="a_edge19_Node000001_Node000011"><a xlink:title=" ">
<path fill="none" stroke="#63b8ff" d="M1548.47,-173.03C1317.73,-171.14 557.29,-162.46 315.5,-129 213.95,-114.95 170.46,-139.38 91.5,-74 74.32,-59.78 66.86,-33.2 64.02,-19.37"/>
<polygon fill="#63b8ff" stroke="#63b8ff" points="1548.7,-176.54 1558.73,-173.12 1548.76,-169.54 1548.7,-176.54"/>
</a>
</g>
</g>
<!-- Node12 -->
<g id="Node000012" class="node">
<title>Node12</title>
<g id="a_Node000012"><a xlink:href="../../d0/d6f/ccommentaryreadwindow_8cpp.html" target="_top" xlink:title=" ">
<polygon fill="white" stroke="#666666" points="536,-19 373,-19 373,0 536,0 536,-19"/>
<text text-anchor="middle" x="454.5" y="-7" font-family="Helvetica,sans-Serif" font-size="10.00">ccommentaryreadwindow.cpp</text>
</a>
</g>
</g>
<!-- Node1&#45;&gt;Node12 -->
<g id="edge20_Node000001_Node000012" class="edge">
<title>Node1&#45;&gt;Node12</title>
<g id="a_edge20_Node000001_Node000012"><a xlink:title=" ">
<path fill="none" stroke="#63b8ff" d="M1548.82,-171.6C1264.86,-163.18 168.6,-127.31 119.5,-74 83.51,-34.92 262.69,-19.43 372.99,-13.65"/>
<polygon fill="#63b8ff" stroke="#63b8ff" points="1548.87,-175.1 1558.97,-171.9 1549.08,-168.1 1548.87,-175.1"/>
</a>
</g>
</g>
<!-- Node17 -->
<g id="Node000017" class="node">
<title>Node17</title>
<g id="a_Node000017"><a xlink:href="../../df/d7b/btactioncollection_8cpp.html" target="_top" xlink:title=" ">
<polygon fill="white" stroke="#666666" points="1809.5,-129 1685.5,-129 1685.5,-110 1809.5,-110 1809.5,-129"/>
<text text-anchor="middle" x="1747.5" y="-117" font-family="Helvetica,sans-Serif" font-size="10.00">btactioncollection.cpp</text>
</a>
</g>
</g>
<!-- Node1&#45;&gt;Node17 -->
<g id="edge16_Node000001_Node000017" class="edge">
<title>Node1&#45;&gt;Node17</title>
<g id="a_edge16_Node000001_Node000017"><a xlink:title=" ">
<path fill="none" stroke="#63b8ff" d="M1646.23,-161.16C1670.67,-151.35 1704.24,-137.87 1725.91,-129.17"/>
<polygon fill="#63b8ff" stroke="#63b8ff" points="1644.68,-158.01 1636.71,-164.98 1647.29,-164.51 1644.68,-158.01"/>
</a>
</g>
</g>
<!-- Node18 -->
<g id="Node000018" class="node">
<title>Node18</title>
<g id="a_Node000018"><a xlink:href="../../d7/d36/btshortcutseditor_8cpp.html" target="_top" xlink:title=" ">
<polygon fill="white" stroke="#666666" points="1947,-129 1828,-129 1828,-110 1947,-110 1947,-129"/>
<text text-anchor="middle" x="1887.5" y="-117" font-family="Helvetica,sans-Serif" font-size="10.00">btshortcutseditor.cpp</text>
</a>
</g>
</g>
<!-- Node1&#45;&gt;Node18 -->
<g id="edge17_Node000001_Node000018" class="edge">
<title>Node1&#45;&gt;Node18</title>
<g id="a_edge17_Node000001_Node000018"><a xlink:title=" ">
<path fill="none" stroke="#63b8ff" d="M1669.05,-163.07C1720.05,-153.13 1795.87,-138.35 1843.46,-129.08"/>
<polygon fill="#63b8ff" stroke="#63b8ff" points="1668.35,-159.64 1659.2,-164.98 1669.69,-166.51 1668.35,-159.64"/>
</a>
</g>
</g>
<!-- Node19 -->
<g id="Node000019" class="node">
<title>Node19</title>
<g id="a_Node000019"><a xlink:href="../../d5/d2b/cdisplaywindow_8h.html" target="_top" xlink:title=" ">
<polygon fill="white" stroke="#666666" points="1667,-129 1564,-129 1564,-110 1667,-110 1667,-129"/>
<text text-anchor="middle" x="1615.5" y="-117" font-family="Helvetica,sans-Serif" font-size="10.00">cdisplaywindow.h</text>
</a>
</g>
</g>
<!-- Node1&#45;&gt;Node19 -->
<g id="edge21_Node000001_Node000019" class="edge">
<title>Node1&#45;&gt;Node19</title>
<g id="a_edge21_Node000001_Node000019"><a xlink:title=" ">
<path fill="none" stroke="#63b8ff" d="M1615.5,-154.66C1615.5,-145.93 1615.5,-135.99 1615.5,-129.09"/>
<polygon fill="#63b8ff" stroke="#63b8ff" points="1612,-154.75 1615.5,-164.75 1619,-154.75 1612,-154.75"/>
</a>
</g>
</g>
<!-- Node3 -->
<g id="Node000003" class="node">
<title>Node3</title>
<g id="a_Node000003"><a xlink:href="../../d1/df6/bibletime_8cpp.html" target="_top" xlink:title=" ">
<polygon fill="white" stroke="#666666" points="1752,-19 1669,-19 1669,0 1752,0 1752,-19"/>
<text text-anchor="middle" x="1710.5" y="-7" font-family="Helvetica,sans-Serif" font-size="10.00">bibletime.cpp</text>
</a>
</g>
</g>
<!-- Node2&#45;&gt;Node3 -->
<g id="edge2_Node000002_Node000003" class="edge">
<title>Node2&#45;&gt;Node3</title>
<g id="a_edge2_Node000002_Node000003"><a xlink:title=" ">
<path fill="none" stroke="#63b8ff" d="M850.59,-103.74C870.52,-88.43 904.18,-65.33 937.5,-55 1075.84,-12.1 1529.04,-9.89 1668.97,-10.27"/>
<polygon fill="#63b8ff" stroke="#63b8ff" points="848.39,-101.02 842.69,-109.95 852.72,-106.52 848.39,-101.02"/>
</a>
</g>
</g>
<!-- Node4 -->
<g id="Node000004" class="node">
<title>Node4</title>
<g id="a_Node000004"><a xlink:href="../../da/dc7/bibletime__init_8cpp.html" target="_top" xlink:title=" ">
<polygon fill="white" stroke="#666666" points="426.5,-74 322.5,-74 322.5,-55 426.5,-55 426.5,-74"/>
<text text-anchor="middle" x="374.5" y="-62" font-family="Helvetica,sans-Serif" font-size="10.00">bibletime_init.cpp</text>
</a>
</g>
</g>
<!-- Node2&#45;&gt;Node4 -->
<g id="edge3_Node000002_Node000004" class="edge">
<title>Node2&#45;&gt;Node4</title>
<g id="a_edge3_Node000002_Node000004"><a xlink:title=" ">
<path fill="none" stroke="#63b8ff" d="M785.98,-113.45C712.54,-105.42 565.26,-89.11 440.5,-74 436.03,-73.46 431.39,-72.88 426.73,-72.3"/>
<polygon fill="#63b8ff" stroke="#63b8ff" points="785.95,-116.97 796.27,-114.57 786.71,-110.01 785.95,-116.97"/>
</a>
</g>
</g>
<!-- Node5 -->
<g id="Node000005" class="node">
<title>Node5</title>
<g id="a_Node000005"><a xlink:href="../../d6/d96/bibletime__slots_8cpp.html" target="_top" xlink:title=" ">
<polygon fill="white" stroke="#666666" points="1091.5,-74 979.5,-74 979.5,-55 1091.5,-55 1091.5,-74"/>
<text text-anchor="middle" x="1035.5" y="-62" font-family="Helvetica,sans-Serif" font-size="10.00">bibletime_slots.cpp</text>
</a>
</g>
</g>
<!-- Node2&#45;&gt;Node5 -->
<g id="edge4_Node000002_Node000005" class="edge">
<title>Node2&#45;&gt;Node5</title>
<g id="a_edge4_Node000002_Node000005"><a xlink:title=" ">
<path fill="none" stroke="#63b8ff" d="M874.87,-107.44C912.87,-97.52 967.86,-83.16 1002.63,-74.08"/>
<polygon fill="#63b8ff" stroke="#63b8ff" points="873.91,-104.07 865.12,-109.98 875.68,-110.84 873.91,-104.07"/>
</a>
</g>
</g>
<!-- Node6 -->
<g id="Node000006" class="node">
<title>Node6</title>
<g id="a_Node000006"><a xlink:href="../../df/d88/btbookshelfdockwidget_8cpp.html" target="_top" xlink:title=" ">
<polygon fill="white" stroke="#666666" points="634,-74 483,-74 483,-55 634,-55 634,-74"/>
<text text-anchor="middle" x="558.5" y="-62" font-family="Helvetica,sans-Serif" font-size="10.00">btbookshelfdockwidget.cpp</text>
</a>
</g>
</g>
<!-- Node2&#45;&gt;Node6 -->
<g id="edge5_Node000002_Node000006" class="edge">
<title>Node2&#45;&gt;Node6</title>
<g id="a_edge5_Node000002_Node000006"><a xlink:title=" ">
<path fill="none" stroke="#63b8ff" d="M786.28,-109.56C735.12,-99.66 653.25,-83.83 602.86,-74.08"/>
<polygon fill="#63b8ff" stroke="#63b8ff" points="785.91,-113.05 796.4,-111.52 787.24,-106.18 785.91,-113.05"/>
</a>
</g>
</g>
<!-- Node7 -->
<g id="Node000007" class="node">
<title>Node7</title>
<g id="a_Node000007"><a xlink:href="../../de/db2/btmodelviewreaddisplay_8cpp.html" target="_top" xlink:title=" ">
<polygon fill="white" stroke="#666666" points="1265.5,-74 1109.5,-74 1109.5,-55 1265.5,-55 1265.5,-74"/>
<text text-anchor="middle" x="1187.5" y="-62" font-family="Helvetica,sans-Serif" font-size="10.00">btmodelviewreaddisplay.cpp</text>
</a>
</g>
</g>
<!-- Node2&#45;&gt;Node7 -->
<g id="edge6_Node000002_Node000007" class="edge">
<title>Node2&#45;&gt;Node7</title>
<g id="a_edge6_Node000002_Node000007"><a xlink:title=" ">
<path fill="none" stroke="#63b8ff" d="M878.73,-111.6C943.36,-101.95 1060.62,-84.44 1130.55,-74"/>
<polygon fill="#63b8ff" stroke="#63b8ff" points="878.2,-108.14 868.82,-113.08 879.23,-115.06 878.2,-108.14"/>
</a>
</g>
</g>
<!-- Node8 -->
<g id="Node000008" class="node">
<title>Node8</title>
<g id="a_Node000008"><a xlink:href="../../de/d6e/btqmlinterface_8cpp.html" target="_top" xlink:title=" ">
<polygon fill="white" stroke="#666666" points="761,-74 652,-74 652,-55 761,-55 761,-74"/>
<text text-anchor="middle" x="706.5" y="-62" font-family="Helvetica,sans-Serif" font-size="10.00">btqmlinterface.cpp</text>
</a>
</g>
</g>
<!-- Node2&#45;&gt;Node8 -->
<g id="edge7_Node000002_Node000008" class="edge">
<title>Node2&#45;&gt;Node8</title>
<g id="a_edge7_Node000002_Node000008"><a xlink:title=" ">
<path fill="none" stroke="#63b8ff" d="M802.85,-106.03C779.55,-96.23 747.7,-82.83 727.11,-74.17"/>
<polygon fill="#63b8ff" stroke="#63b8ff" points="801.68,-109.33 812.26,-109.98 804.4,-102.88 801.68,-109.33"/>
</a>
</g>
</g>
<!-- Node9 -->
<g id="Node000009" class="node">
<title>Node9</title>
<g id="a_Node000009"><a xlink:href="../../d9/d0c/btquickwidget_8cpp.html" target="_top" xlink:title=" ">
<polygon fill="white" stroke="#666666" points="885.5,-74 779.5,-74 779.5,-55 885.5,-55 885.5,-74"/>
<text text-anchor="middle" x="832.5" y="-62" font-family="Helvetica,sans-Serif" font-size="10.00">btquickwidget.cpp</text>
</a>
</g>
</g>
<!-- Node2&#45;&gt;Node9 -->
<g id="edge8_Node000002_Node000009" class="edge">
<title>Node2&#45;&gt;Node9</title>
<g id="a_edge8_Node000002_Node000009"><a xlink:title=" ">
<path fill="none" stroke="#63b8ff" d="M832.5,-99.66C832.5,-90.93 832.5,-80.99 832.5,-74.09"/>
<polygon fill="#63b8ff" stroke="#63b8ff" points="829,-99.75 832.5,-109.75 836,-99.75 829,-99.75"/>
</a>
</g>
</g>
<!-- Node2&#45;&gt;Node10 -->
<g id="edge9_Node000002_Node000010" class="edge">
<title>Node2&#45;&gt;Node10</title>
<g id="a_edge9_Node000002_Node000010"><a xlink:title=" ">
<path fill="none" stroke="#63b8ff" d="M861.76,-105.89C881.78,-97.17 908.87,-85.16 932.5,-74 949.57,-65.94 952.21,-59.69 970.5,-55 1024,-41.29 1830.22,-18.78 2072.29,-12.3"/>
<polygon fill="#63b8ff" stroke="#63b8ff" points="860.32,-102.7 852.54,-109.9 863.11,-109.12 860.32,-102.7"/>
</a>
</g>
</g>
<!-- Node2&#45;&gt;Node11 -->
<g id="edge10_Node000002_Node000011" class="edge">
<title>Node2&#45;&gt;Node11</title>
<g id="a_edge10_Node000002_Node000011"><a xlink:title=" ">
<path fill="none" stroke="#63b8ff" d="M786.28,-117.64C637.81,-114.59 179.26,-102.92 119.5,-74 94.7,-61.99 75.85,-33.91 67.39,-19.45"/>
<polygon fill="#63b8ff" stroke="#63b8ff" points="786.35,-121.14 796.42,-117.84 786.49,-114.14 786.35,-121.14"/>
</a>
</g>
</g>
<!-- Node2&#45;&gt;Node12 -->
<g id="edge11_Node000002_Node000012" class="edge">
<title>Node2&#45;&gt;Node12</title>
<g id="a_edge11_Node000002_Node000012"><a xlink:title=" ">
<path fill="none" stroke="#63b8ff" d="M786.26,-118.85C700.16,-118.54 519.77,-113.1 473.5,-74 457.15,-60.18 454.53,-32.92 454.32,-19.05"/>
<polygon fill="#63b8ff" stroke="#63b8ff" points="786.28,-122.35 796.28,-118.86 786.29,-115.35 786.28,-122.35"/>
</a>
</g>
</g>
<!-- Node13 -->
<g id="Node000013" class="node">
<title>Node13</title>
<g id="a_Node000013"><a xlink:href="../../d2/d26/cdisplaywindow_8cpp.html" target="_top" xlink:title=" ">
<polygon fill="white" stroke="#666666" points="1397.5,-74 1283.5,-74 1283.5,-55 1397.5,-55 1397.5,-74"/>
<text text-anchor="middle" x="1340.5" y="-62" font-family="Helvetica,sans-Serif" font-size="10.00">cdisplaywindow.cpp</text>
</a>
</g>
</g>
<!-- Node2&#45;&gt;Node13 -->
<g id="edge12_Node000002_Node000013" class="edge">
<title>Node2&#45;&gt;Node13</title>
<g id="a_edge12_Node000002_Node000013"><a xlink:title=" ">
<path fill="none" stroke="#63b8ff" d="M878.93,-114.25C959.5,-106.79 1130.41,-90.53 1274.5,-74 1277.37,-73.67 1280.31,-73.32 1283.27,-72.97"/>
<polygon fill="#63b8ff" stroke="#63b8ff" points="878.27,-110.8 868.63,-115.2 878.91,-117.77 878.27,-110.8"/>
</a>
</g>
</g>
<!-- Node14 -->
<g id="Node000014" class="node">
<title>Node14</title>
<g id="a_Node000014"><a xlink:href="../../d5/d80/cinfodisplay_8cpp.html" target="_top" xlink:title=" ">
<polygon fill="white" stroke="#666666" points="224,-74 129,-74 129,-55 224,-55 224,-74"/>
<text text-anchor="middle" x="176.5" y="-62" font-family="Helvetica,sans-Serif" font-size="10.00">cinfodisplay.cpp</text>
</a>
</g>
</g>
<!-- Node2&#45;&gt;Node14 -->
<g id="edge13_Node000002_Node000014" class="edge">
<title>Node2&#45;&gt;Node14</title>
<g id="a_edge13_Node000002_Node000014"><a xlink:title=" ">
<path fill="none" stroke="#63b8ff" d="M786.15,-116.23C685.39,-111.03 438.94,-96.92 233.5,-74 230.42,-73.66 227.25,-73.27 224.05,-72.86"/>
<polygon fill="#63b8ff" stroke="#63b8ff" points="786.12,-119.73 796.29,-116.74 786.48,-112.74 786.12,-119.73"/>
</a>
</g>
</g>
<!-- Node15 -->
<g id="Node000015" class="node">
<title>Node15</title>
<g id="a_Node000015"><a xlink:href="../../d2/db3/cmdiarea_8cpp.html" target="_top" xlink:title=" ">
<polygon fill="white" stroke="#666666" points="1499,-74 1416,-74 1416,-55 1499,-55 1499,-74"/>
<text text-anchor="middle" x="1457.5" y="-62" font-family="Helvetica,sans-Serif" font-size="10.00">cmdiarea.cpp</text>
</a>
</g>
</g>
<!-- Node2&#45;&gt;Node15 -->
<g id="edge14_Node000002_Node000015" class="edge">
<title>Node2&#45;&gt;Node15</title>
<g id="a_edge14_Node000002_Node000015"><a xlink:title=" ">
<path fill="none" stroke="#63b8ff" d="M878.66,-116.3C976.33,-111.34 1210.97,-97.83 1406.5,-74 1409.53,-73.63 1412.65,-73.21 1415.79,-72.76"/>
<polygon fill="#63b8ff" stroke="#63b8ff" points="878.35,-112.81 868.54,-116.81 878.7,-119.8 878.35,-112.81"/>
</a>
</g>
</g>
<!-- Node16 -->
<g id="Node000016" class="node">
<title>Node16</title>
<g id="a_Node000016"><a xlink:href="../../df/d0a/main_8cpp.html" target="_top" xlink:title=" ">
<polygon fill="white" stroke="#666666" points="304.5,-74 242.5,-74 242.5,-55 304.5,-55 304.5,-74"/>
<text text-anchor="middle" x="273.5" y="-62" font-family="Helvetica,sans-Serif" font-size="10.00">main.cpp</text>
</a>
</g>
</g>
<!-- Node2&#45;&gt;Node16 -->
<g id="edge15_Node000002_Node000016" class="edge">
<title>Node2&#45;&gt;Node16</title>
<g id="a_edge15_Node000002_Node000016"><a xlink:title=" ">
<path fill="none" stroke="#63b8ff" d="M786.21,-116.46C695.23,-112.02 486.88,-99.75 313.5,-74 310.69,-73.58 307.78,-73.09 304.88,-72.55"/>
<polygon fill="#63b8ff" stroke="#63b8ff" points="786.3,-119.97 796.46,-116.95 786.64,-112.97 786.3,-119.97"/>
</a>
</g>
</g>
<!-- Node19&#45;&gt;Node3 -->
<g id="edge22_Node000019_Node000003" class="edge">
<title>Node19&#45;&gt;Node3</title>
<g id="a_edge22_Node000019_Node000003"><a xlink:title=" ">
<path fill="none" stroke="#63b8ff" d="M1630.02,-102C1650.48,-78.73 1687.08,-37.13 1702.88,-19.16"/>
<polygon fill="#63b8ff" stroke="#63b8ff" points="1627.25,-99.84 1623.27,-109.66 1632.51,-104.47 1627.25,-99.84"/>
</a>
</g>
</g>
<!-- Node19&#45;&gt;Node5 -->
<g id="edge23_Node000019_Node000005" class="edge">
<title>Node19&#45;&gt;Node5</title>
<g id="a_edge23_Node000019_Node000005"><a xlink:title=" ">
<path fill="none" stroke="#63b8ff" d="M1553.71,-114.04C1456.95,-106.86 1263.84,-91.73 1100.5,-74 1097.56,-73.68 1094.54,-73.34 1091.5,-72.98"/>
<polygon fill="#63b8ff" stroke="#63b8ff" points="1553.66,-117.55 1563.89,-114.79 1554.18,-110.57 1553.66,-117.55"/>
</a>
</g>
</g>
<!-- Node19&#45;&gt;Node7 -->
<g id="edge25_Node000019_Node000007" class="edge">
<title>Node19&#45;&gt;Node7</title>
<g id="a_edge25_Node000019_Node000007"><a xlink:title=" ">
<path fill="none" stroke="#63b8ff" d="M1553.59,-110.83C1474.61,-101.05 1338.42,-84.19 1256.28,-74.02"/>
<polygon fill="#63b8ff" stroke="#63b8ff" points="1553.52,-114.35 1563.87,-112.11 1554.38,-107.4 1553.52,-114.35"/>
</a>
</g>
</g>
<!-- Node19&#45;&gt;Node10 -->
<g id="edge27_Node000019_Node000010" class="edge">
<title>Node19&#45;&gt;Node10</title>
<g id="a_edge27_Node000019_Node000010"><a xlink:title=" ">
<path fill="none" stroke="#63b8ff" d="M1677.14,-110.28C1766.99,-104.95 2148.47,-113.74 2185.5,-74 2202.17,-56.11 2172.77,-31.77 2154.12,-19.05"/>
<polygon fill="#63b8ff" stroke="#63b8ff" points="1676.75,-106.8 1667.05,-111.07 1677.3,-113.78 1676.75,-106.8"/>
</a>
</g>
</g>
<!-- Node19&#45;&gt;Node13 -->
<g id="edge40_Node000019_Node000013" class="edge">
<title>Node19&#45;&gt;Node13</title>
<g id="a_edge40_Node000019_Node000013"><a xlink:title=" ">
<path fill="none" stroke="#63b8ff" d="M1561.36,-108.07C1509.8,-98.13 1433.14,-83.35 1385.03,-74.08"/>
<polygon fill="#63b8ff" stroke="#63b8ff" points="1560.83,-111.53 1571.32,-109.98 1562.16,-104.66 1560.83,-111.53"/>
</a>
</g>
</g>
<!-- Node19&#45;&gt;Node15 -->
<g id="edge45_Node000019_Node000015" class="edge">
<title>Node19&#45;&gt;Node15</title>
<g id="a_edge45_Node000019_Node000015"><a xlink:title=" ">
<path fill="none" stroke="#63b8ff" d="M1580.62,-106.8C1551.13,-96.91 1509.57,-82.97 1483.08,-74.08"/>
<polygon fill="#63b8ff" stroke="#63b8ff" points="1579.52,-110.12 1590.11,-109.98 1581.75,-103.49 1579.52,-110.12"/>
</a>
</g>
</g>
<!-- Node20 -->
<g id="Node000020" class="node">
<title>Node20</title>
<g id="a_Node000020"><a xlink:href="../../d3/d2f/btcopybyreferencesdialog_8cpp.html" target="_top" xlink:title=" ">
<polygon fill="white" stroke="#666666" points="2020.5,-74 1856.5,-74 1856.5,-55 2020.5,-55 2020.5,-74"/>
<text text-anchor="middle" x="1938.5" y="-62" font-family="Helvetica,sans-Serif" font-size="10.00">btcopybyreferencesdialog.cpp</text>
</a>
</g>
</g>
<!-- Node19&#45;&gt;Node20 -->
<g id="edge24_Node000019_Node000020" class="edge">
<title>Node19&#45;&gt;Node20</title>
<g id="a_edge24_Node000019_Node000020"><a xlink:title=" ">
<path fill="none" stroke="#63b8ff" d="M1677.25,-108.37C1737.95,-98.41 1829.56,-83.38 1886.61,-74.01"/>
<polygon fill="#63b8ff" stroke="#63b8ff" points="1676.34,-104.97 1667.04,-110.04 1677.47,-111.88 1676.34,-104.97"/>
</a>
</g>
</g>
<!-- Node21 -->
<g id="Node000021" class="node">
<title>Node21</title>
<g id="a_Node000021"><a xlink:href="../../df/d47/btmodulechooserbar_8cpp.html" target="_top" xlink:title=" ">
<polygon fill="white" stroke="#666666" points="2176,-74 2039,-74 2039,-55 2176,-55 2176,-74"/>
<text text-anchor="middle" x="2107.5" y="-62" font-family="Helvetica,sans-Serif" font-size="10.00">btmodulechooserbar.cpp</text>
</a>
</g>
</g>
<!-- Node19&#45;&gt;Node21 -->
<g id="edge26_Node000019_Node000021" class="edge">
<title>Node19&#45;&gt;Node21</title>
<g id="a_edge26_Node000019_Node000021"><a xlink:title=" ">
<path fill="none" stroke="#63b8ff" d="M1677.12,-109.97C1834.74,-91.08 1875.88,-90.2 2029.5,-74 2032.48,-73.69 2035.52,-73.36 2038.6,-73.03"/>
<polygon fill="#63b8ff" stroke="#63b8ff" points="1676.58,-106.51 1667.07,-111.18 1677.41,-113.46 1676.58,-106.51"/>
</a>
</g>
</g>
<!-- Node22 -->
<g id="Node000022" class="node">
<title>Node22</title>
<g id="a_Node000022"><a xlink:href="../../df/d70/cbiblereadwindow_8h.html" target="_top" xlink:title=" ">
<polygon fill="white" stroke="#666666" points="2346,-74 2233,-74 2233,-55 2346,-55 2346,-74"/>
<text text-anchor="middle" x="2289.5" y="-62" font-family="Helvetica,sans-Serif" font-size="10.00">cbiblereadwindow.h</text>
</a>
</g>
</g>
<!-- Node19&#45;&gt;Node22 -->
<g id="edge28_Node000019_Node000022" class="edge">
<title>Node19&#45;&gt;Node22</title>
<g id="a_edge28_Node000019_Node000022"><a xlink:title=" ">
<path fill="none" stroke="#63b8ff" d="M1677.19,-110.02C1918.37,-85.62 1981.4,-96.05 2218.5,-74 2223.2,-73.56 2228.06,-73.07 2232.95,-72.54"/>
<polygon fill="#63b8ff" stroke="#63b8ff" points="1676.65,-106.55 1667.05,-111.05 1677.36,-113.52 1676.65,-106.55"/>
</a>
</g>
</g>
<!-- Node24 -->
<g id="Node000024" class="node">
<title>Node24</title>
<g id="a_Node000024"><a xlink:href="../../df/d9e/cbookreadwindow_8h.html" target="_top" xlink:title=" ">
<polygon fill="white" stroke="#666666" points="1630,-74 1517,-74 1517,-55 1630,-55 1630,-74"/>
<text text-anchor="middle" x="1573.5" y="-62" font-family="Helvetica,sans-Serif" font-size="10.00">cbookreadwindow.h</text>
</a>
</g>
</g>
<!-- Node19&#45;&gt;Node24 -->
<g id="edge32_Node000019_Node000024" class="edge">
<title>Node19&#45;&gt;Node24</title>
<g id="a_edge32_Node000019_Node000024"><a xlink:title=" ">
<path fill="none" stroke="#63b8ff" d="M1602.17,-101.67C1594.89,-92.5 1586.2,-81.52 1580.31,-74.09"/>
<polygon fill="#63b8ff" stroke="#63b8ff" points="1599.61,-104.08 1608.56,-109.75 1605.1,-99.74 1599.61,-104.08"/>
</a>
</g>
</g>
<!-- Node25 -->
<g id="Node000025" class="node">
<title>Node25</title>
<g id="a_Node000025"><a xlink:href="../../d5/da8/ccommentaryreadwindow_8h.html" target="_top" xlink:title=" ">
<polygon fill="white" stroke="#666666" points="1838.5,-74 1686.5,-74 1686.5,-55 1838.5,-55 1838.5,-74"/>
<text text-anchor="middle" x="1762.5" y="-62" font-family="Helvetica,sans-Serif" font-size="10.00">ccommentaryreadwindow.h</text>
</a>
</g>
</g>
<!-- Node19&#45;&gt;Node25 -->
<g id="edge36_Node000019_Node000025" class="edge">
<title>Node19&#45;&gt;Node25</title>
<g id="a_edge36_Node000019_Node000025"><a xlink:title=" ">
<path fill="none" stroke="#63b8ff" d="M1648.64,-106.55C1675.94,-96.71 1714,-82.98 1738.45,-74.17"/>
<polygon fill="#63b8ff" stroke="#63b8ff" points="1647.34,-103.3 1639.12,-109.98 1649.71,-109.89 1647.34,-103.3"/>
</a>
</g>
</g>
<!-- Node26 -->
<g id="Node000026" class="node">
<title>Node26</title>
<g id="a_Node000026"><a xlink:href="../../d5/d06/clexiconreadwindow_8h.html" target="_top" xlink:title=" ">
<polygon fill="white" stroke="#666666" points="2489,-74 2364,-74 2364,-55 2489,-55 2489,-74"/>
<text text-anchor="middle" x="2426.5" y="-62" font-family="Helvetica,sans-Serif" font-size="10.00">clexiconreadwindow.h</text>
</a>
</g>
</g>
<!-- Node19&#45;&gt;Node26 -->
<g id="edge41_Node000019_Node000026" class="edge">
<title>Node19&#45;&gt;Node26</title>
<g id="a_edge41_Node000019_Node000026"><a xlink:title=" ">
<path fill="none" stroke="#63b8ff" d="M1677.41,-110.01C1979.08,-81.54 2057.8,-99.68 2355.5,-74 2358.22,-73.77 2361,-73.51 2363.8,-73.23"/>
<polygon fill="#63b8ff" stroke="#63b8ff" points="1676.67,-106.57 1667.05,-111 1677.34,-113.54 1676.67,-106.57"/>
</a>
</g>
</g>
<!-- Node22&#45;&gt;Node3 -->
<g id="edge29_Node000022_Node000003" class="edge">
<title>Node22&#45;&gt;Node3</title>
<g id="a_edge29_Node000022_Node000003"><a xlink:title=" ">
<path fill="none" stroke="#63b8ff" d="M2222.72,-57.39C2102.07,-46.34 1851.13,-23.37 1752.04,-14.3"/>
<polygon fill="#63b8ff" stroke="#63b8ff" points="2222.65,-60.9 2232.93,-58.32 2223.29,-53.92 2222.65,-60.9"/>
</a>
</g>
</g>
<!-- Node22&#45;&gt;Node10 -->
<g id="edge30_Node000022_Node000010" class="edge">
<title>Node22&#45;&gt;Node10</title>
<g id="a_edge30_Node000022_Node000010"><a xlink:title=" ">
<path fill="none" stroke="#63b8ff" d="M2255.91,-51.55C2228.24,-41.71 2189.66,-27.98 2164.88,-19.17"/>
<polygon fill="#63b8ff" stroke="#63b8ff" points="2254.97,-54.93 2265.56,-54.98 2257.31,-48.34 2254.97,-54.93"/>
</a>
</g>
</g>
<!-- Node23 -->
<g id="Node000023" class="node">
<title>Node23</title>
<g id="a_Node000023"><a xlink:href="../../de/da4/cbiblereadwindow_8cpp.html" target="_top" xlink:title=" ">
<polygon fill="white" stroke="#666666" points="2352,-19 2227,-19 2227,0 2352,0 2352,-19"/>
<text text-anchor="middle" x="2289.5" y="-7" font-family="Helvetica,sans-Serif" font-size="10.00">cbiblereadwindow.cpp</text>
</a>
</g>
</g>
<!-- Node22&#45;&gt;Node23 -->
<g id="edge31_Node000022_Node000023" class="edge">
<title>Node22&#45;&gt;Node23</title>
<g id="a_edge31_Node000022_Node000023"><a xlink:title=" ">
<path fill="none" stroke="#63b8ff" d="M2289.5,-44.66C2289.5,-35.93 2289.5,-25.99 2289.5,-19.09"/>
<polygon fill="#63b8ff" stroke="#63b8ff" points="2286,-44.75 2289.5,-54.75 2293,-44.75 2286,-44.75"/>
</a>
</g>
</g>
<!-- Node24&#45;&gt;Node3 -->
<g id="edge33_Node000024_Node000003" class="edge">
<title>Node24&#45;&gt;Node3</title>
<g id="a_edge33_Node000024_Node000003"><a xlink:title=" ">
<path fill="none" stroke="#63b8ff" d="M1605.06,-51.29C1630.45,-41.47 1665.5,-27.91 1688.09,-19.17"/>
<polygon fill="#63b8ff" stroke="#63b8ff" points="1603.58,-48.11 1595.51,-54.98 1606.1,-54.64 1603.58,-48.11"/>
</a>
</g>
</g>
<!-- Node24&#45;&gt;Node10 -->
<g id="edge34_Node000024_Node000010" class="edge">
<title>Node24&#45;&gt;Node10</title>
<g id="a_edge34_Node000024_Node000010"><a xlink:title=" ">
<path fill="none" stroke="#63b8ff" d="M1640.38,-57.25C1748.98,-47.1 1962.57,-27.13 2072.13,-16.89"/>
<polygon fill="#63b8ff" stroke="#63b8ff" points="1639.83,-53.78 1630.2,-58.2 1640.48,-60.75 1639.83,-53.78"/>
</a>
</g>
</g>
<!-- Node24&#45;&gt;Node11 -->
<g id="edge35_Node000024_Node000011" class="edge">
<title>Node24&#45;&gt;Node11</title>
<g id="a_edge35_Node000024_Node000011"><a xlink:title=" ">
<path fill="none" stroke="#63b8ff" d="M1506.49,-55.16C1373.33,-47.62 385.82,-19.6 125.32,-12.26"/>
<polygon fill="#63b8ff" stroke="#63b8ff" points="1506.45,-58.66 1516.65,-55.82 1506.9,-51.68 1506.45,-58.66"/>
</a>
</g>
</g>
<!-- Node25&#45;&gt;Node3 -->
<g id="edge37_Node000025_Node000003" class="edge">
<title>Node25&#45;&gt;Node3</title>
<g id="a_edge37_Node000025_Node000003"><a xlink:title=" ">
<path fill="none" stroke="#63b8ff" d="M1746.82,-47.52C1737.66,-38.18 1726.45,-26.75 1718.93,-19.09"/>
<polygon fill="#63b8ff" stroke="#63b8ff" points="1744.41,-50.06 1753.91,-54.75 1749.41,-45.16 1744.41,-50.06"/>
</a>
</g>
</g>
<!-- Node25&#45;&gt;Node10 -->
<g id="edge38_Node000025_Node000010" class="edge">
<title>Node25&#45;&gt;Node10</title>
<g id="a_edge38_Node000025_Node000010"><a xlink:title=" ">
<path fill="none" stroke="#63b8ff" d="M1833.42,-53.56C1904.39,-43.61 2012.41,-28.46 2079.61,-19.04"/>
<polygon fill="#63b8ff" stroke="#63b8ff" points="1832.65,-50.13 1823.23,-54.98 1833.62,-57.06 1832.65,-50.13"/>
</a>
</g>
</g>
<!-- Node25&#45;&gt;Node12 -->
<g id="edge39_Node000025_Node000012" class="edge">
<title>Node25&#45;&gt;Node12</title>
<g id="a_edge39_Node000025_Node000012"><a xlink:title=" ">
<path fill="none" stroke="#63b8ff" d="M1676.34,-57.25C1663.66,-56.43 1650.74,-55.65 1638.5,-55 1224.34,-33.03 728.12,-18.06 536,-12.7"/>
<polygon fill="#63b8ff" stroke="#63b8ff" points="1676.24,-60.75 1686.45,-57.91 1676.7,-53.77 1676.24,-60.75"/>
</a>
</g>
</g>
<!-- Node26&#45;&gt;Node3 -->
<g id="edge42_Node000026_Node000003" class="edge">
<title>Node26&#45;&gt;Node3</title>
<g id="a_edge42_Node000026_Node000003"><a xlink:title=" ">
<path fill="none" stroke="#63b8ff" d="M2353.76,-54.88C2120.38,-33.12 1853.2,-18.01 1752.06,-12.64"/>
<polygon fill="#63b8ff" stroke="#63b8ff" points="2353.52,-58.37 2363.8,-55.82 2354.17,-51.4 2353.52,-58.37"/>
</a>
</g>
</g>
<!-- Node26&#45;&gt;Node10 -->
<g id="edge43_Node000026_Node000010" class="edge">
<title>Node26&#45;&gt;Node10</title>
<g id="a_edge43_Node000026_Node000010"><a xlink:title=" ">
<path fill="none" stroke="#63b8ff" d="M2370.53,-53.13C2316.91,-43.19 2236.95,-28.37 2186.81,-19.08"/>
<polygon fill="#63b8ff" stroke="#63b8ff" points="2370.08,-56.6 2380.55,-54.98 2371.35,-49.72 2370.08,-56.6"/>
</a>
</g>
</g>
<!-- Node27 -->
<g id="Node000027" class="node">
<title>Node27</title>
<g id="a_Node000027"><a xlink:href="../../d8/d19/clexiconreadwindow_8cpp.html" target="_top" xlink:title=" ">
<polygon fill="white" stroke="#666666" points="2506.5,-19 2370.5,-19 2370.5,0 2506.5,0 2506.5,-19"/>
<text text-anchor="middle" x="2438.5" y="-7" font-family="Helvetica,sans-Serif" font-size="10.00">clexiconreadwindow.cpp</text>
</a>
</g>
</g>
<!-- Node26&#45;&gt;Node27 -->
<g id="edge44_Node000026_Node000027" class="edge">
<title>Node26&#45;&gt;Node27</title>
<g id="a_edge44_Node000026_Node000027"><a xlink:title=" ">
<path fill="none" stroke="#63b8ff" d="M2430.7,-44.95C2432.69,-36.15 2434.98,-26.06 2436.56,-19.09"/>
<polygon fill="#63b8ff" stroke="#63b8ff" points="2427.28,-44.22 2428.48,-54.75 2434.1,-45.77 2427.28,-44.22"/>
</a>
</g>
</g>
</g>
</svg>
