<?xml version="1.0" encoding="UTF-8" standalone="no"?>
<!DOCTYPE svg PUBLIC "-//W3C//DTD SVG 1.1//EN"
 "http://www.w3.org/Graphics/SVG/1.1/DTD/svg11.dtd">
<!-- Generated by graphviz version 2.43.0 (0)
 -->
<!-- Title: btactioncollection.h Pages: 1 -->
<!--zoomable 192 -->

<svg id="main" version="1.1" xmlns="http://www.w3.org/2000/svg" xmlns:xlink="http://www.w3.org/1999/xlink" xml:space="preserve" onload="init(evt)">
<style type="text/css"><![CDATA[
.node, .edge {opacity: 0.7;}
.node.selected, .edge.selected {opacity: 1;}
.edge:hover path { stroke: red; }
.edge:hover polygon { stroke: red; fill: red; }
]]></style>

<defs>
  <circle id="rim" cx="0" cy="0" r="7"/>
  <circle id="rim2" cx="0" cy="0" r="3.5"/>
  <g id="zoomPlus">
    <use xlink:href="#rim" fill="#404040"><set attributeName="fill" to="#808080" begin="zoomplus.mouseover" end="zoomplus.mouseout"/></use>
    <path d="M-4,0h8M0,-4v8" fill="none" stroke="white" stroke-width="1.5" pointer-events="none"/>
  </g>
  <g id="zoomMin">
    <use xlink:href="#rim" fill="#404040"><set attributeName="fill" to="#808080" begin="zoomminus.mouseover" end="zoomminus.mouseout"/></use>
    <path d="M-4,0h8" fill="none" stroke="white" stroke-width="1.5" pointer-events="none"/>
  </g>
  <g id="arrowUp" transform="translate(30 24)">
    <use xlink:href="#rim"/>
    <path pointer-events="none" fill="none" stroke="white" stroke-width="1.5" d="M0,-3.0v7 M-2.5,-0.5L0,-3.0L2.5,-0.5"/>
  </g>
  <g id="arrowRight" transform="rotate(90) translate(36 -43)">
    <use xlink:href="#rim"/>
    <path pointer-events="none" fill="none" stroke="white" stroke-width="1.5" d="M0,-3.0v7 M-2.5,-0.5L0,-3.0L2.5,-0.5"/>
  </g>
  <g id="arrowDown" transform="rotate(180) translate(-30 -48)">
    <use xlink:href="#rim"/>
    <path pointer-events="none" fill="none" stroke="white" stroke-width="1.5" d="M0,-3.0v7 M-2.5,-0.5L0,-3.0L2.5,-0.5"/>
  </g>
  <g id="arrowLeft" transform="rotate(270) translate(-36 17)">
    <use xlink:href="#rim"/>
    <path pointer-events="none" fill="none" stroke="white" stroke-width="1.5" d="M0,-3.0v7 M-2.5,-0.5L0,-3.0L2.5,-0.5"/>
  </g>
  <g id="resetDef">
    <use xlink:href="#rim2" fill="#404040"><set attributeName="fill" to="#808080" begin="reset.mouseover" end="reset.mouseout"/></use>
  </g>
</defs>
<script type="application/ecmascript">
var viewWidth = 2822;
var viewHeight = 192;
var sectionId = 'dynsection-0';
</script>
<script type="application/ecmascript" xlink:href="../../svg.min.js"/>
<svg id="graph" class="graph">
<g id="viewport">
<title>btactioncollection.h</title>
<!-- Node1 -->
<g id="Node000001" class="node">
<title>Node1</title>
<g id="a_Node000001"><a xlink:title=" ">
<polygon fill="#999999" stroke="#666666" points="2409.77,-184 2296.77,-184 2296.77,-165 2409.77,-165 2409.77,-184"/>
<text text-anchor="middle" x="2353.27" y="-172" font-family="Helvetica,sans-Serif" font-size="10.00">btactioncollection.h</text>
</a>
</g>
</g>
<!-- Node2 -->
<g id="Node000002" class="node">
<title>Node2</title>
<g id="a_Node000002"><a xlink:href="../../d1/d24/bibletime_8h.html" target="_top" xlink:title=" ">
<polygon fill="white" stroke="#666666" points="1821.27,-129 1749.27,-129 1749.27,-110 1821.27,-110 1821.27,-129"/>
<text text-anchor="middle" x="1785.27" y="-117" font-family="Helvetica,sans-Serif" font-size="10.00">bibletime.h</text>
</a>
</g>
</g>
<!-- Node1&#45;&gt;Node2 -->
<g id="edge1_Node000001_Node000002" class="edge">
<title>Node1&#45;&gt;Node2</title>
<g id="a_edge1_Node000001_Node000002"><a xlink:title=" ">
<path fill="none" stroke="#63b8ff" d="M2286.52,-167.27C2165.81,-156.01 1915.13,-132.62 1821.54,-123.88"/>
<polygon fill="#63b8ff" stroke="#63b8ff" points="2286.45,-170.78 2296.73,-168.22 2287.1,-163.81 2286.45,-170.78"/>
</a>
</g>
</g>
<!-- Node10 -->
<g id="Node000010" class="node">
<title>Node10</title>
<g id="a_Node000010"><a xlink:href="../../dc/d6a/cacceleratorsettings_8cpp.html" target="_top" xlink:title=" ">
<polygon fill="white" stroke="#666666" points="659.27,-19 523.27,-19 523.27,0 659.27,0 659.27,-19"/>
<text text-anchor="middle" x="591.27" y="-7" font-family="Helvetica,sans-Serif" font-size="10.00">cacceleratorsettings.cpp</text>
</a>
</g>
</g>
<!-- Node1&#45;&gt;Node10 -->
<g id="edge18_Node000001_Node000010" class="edge">
<title>Node1&#45;&gt;Node10</title>
<g id="a_edge18_Node000001_Node000010"><a xlink:title=" ">
<path fill="none" stroke="#63b8ff" d="M2286.56,-173.34C1911.75,-172.14 81.94,-161.78 4.27,-74 -1.33,-67.68 -1.47,-61.19 4.27,-55 38.92,-17.62 376.05,-11.47 523.18,-10.58"/>
<polygon fill="#63b8ff" stroke="#63b8ff" points="2286.7,-176.85 2296.71,-173.38 2286.72,-169.85 2286.7,-176.85"/>
</a>
</g>
</g>
<!-- Node11 -->
<g id="Node000011" class="node">
<title>Node11</title>
<g id="a_Node000011"><a xlink:href="../../d7/d67/cbookreadwindow_8cpp.html" target="_top" xlink:title=" ">
<polygon fill="white" stroke="#666666" points="2386.77,-19 2261.77,-19 2261.77,0 2386.77,0 2386.77,-19"/>
<text text-anchor="middle" x="2324.27" y="-7" font-family="Helvetica,sans-Serif" font-size="10.00">cbookreadwindow.cpp</text>
</a>
</g>
</g>
<!-- Node1&#45;&gt;Node11 -->
<g id="edge24_Node000001_Node000011" class="edge">
<title>Node1&#45;&gt;Node11</title>
<g id="a_edge24_Node000001_Node000011"><a xlink:title=" ">
<path fill="none" stroke="#63b8ff" d="M2369.19,-157.34C2375.84,-149.47 2382.81,-139.46 2386.27,-129 2388.92,-120.98 2388.59,-118.12 2386.27,-110 2375.52,-72.43 2346.02,-35.25 2331.94,-19"/>
<polygon fill="#63b8ff" stroke="#63b8ff" points="2366.41,-155.2 2362.29,-164.96 2371.6,-159.9 2366.41,-155.2"/>
</a>
</g>
</g>
<!-- Node12 -->
<g id="Node000012" class="node">
<title>Node12</title>
<g id="a_Node000012"><a xlink:href="../../d0/d6f/ccommentaryreadwindow_8cpp.html" target="_top" xlink:title=" ">
<polygon fill="white" stroke="#666666" points="2567.77,-19 2404.77,-19 2404.77,0 2567.77,0 2567.77,-19"/>
<text text-anchor="middle" x="2486.27" y="-7" font-family="Helvetica,sans-Serif" font-size="10.00">ccommentaryreadwindow.cpp</text>
</a>
</g>
</g>
<!-- Node1&#45;&gt;Node12 -->
<g id="edge25_Node000001_Node000012" class="edge">
<title>Node1&#45;&gt;Node12</title>
<g id="a_edge25_Node000001_Node000012"><a xlink:title=" ">
<path fill="none" stroke="#63b8ff" d="M2371.22,-157.95C2380.32,-149.71 2391.3,-139.22 2400.27,-129 2433.97,-90.6 2467.77,-39.45 2480.73,-19.24"/>
<polygon fill="#63b8ff" stroke="#63b8ff" points="2368.66,-155.54 2363.51,-164.8 2373.31,-160.77 2368.66,-155.54"/>
</a>
</g>
</g>
<!-- Node17 -->
<g id="Node000017" class="node">
<title>Node17</title>
<g id="a_Node000017"><a xlink:href="../../df/d7b/btactioncollection_8cpp.html" target="_top" xlink:title=" ">
<polygon fill="white" stroke="#666666" points="2676.27,-129 2552.27,-129 2552.27,-110 2676.27,-110 2676.27,-129"/>
<text text-anchor="middle" x="2614.27" y="-117" font-family="Helvetica,sans-Serif" font-size="10.00">btactioncollection.cpp</text>
</a>
</g>
</g>
<!-- Node1&#45;&gt;Node17 -->
<g id="edge16_Node000001_Node000017" class="edge">
<title>Node1&#45;&gt;Node17</title>
<g id="a_edge16_Node000001_Node000017"><a xlink:title=" ">
<path fill="none" stroke="#63b8ff" d="M2405.27,-162.94C2454.19,-153.01 2526.54,-138.31 2572.01,-129.08"/>
<polygon fill="#63b8ff" stroke="#63b8ff" points="2404.31,-159.56 2395.2,-164.98 2405.7,-166.42 2404.31,-159.56"/>
</a>
</g>
</g>
<!-- Node18 -->
<g id="Node000018" class="node">
<title>Node18</title>
<g id="a_Node000018"><a xlink:href="../../d7/d36/btshortcutseditor_8cpp.html" target="_top" xlink:title=" ">
<polygon fill="white" stroke="#666666" points="2813.77,-129 2694.77,-129 2694.77,-110 2813.77,-110 2813.77,-129"/>
<text text-anchor="middle" x="2754.27" y="-117" font-family="Helvetica,sans-Serif" font-size="10.00">btshortcutseditor.cpp</text>
</a>
</g>
</g>
<!-- Node1&#45;&gt;Node18 -->
<g id="edge17_Node000001_Node000018" class="edge">
<title>Node1&#45;&gt;Node18</title>
<g id="a_edge17_Node000001_Node000018"><a xlink:title=" ">
<path fill="none" stroke="#63b8ff" d="M2419.89,-164.69C2496.51,-154.57 2621.17,-138.09 2694.69,-128.37"/>
<polygon fill="#63b8ff" stroke="#63b8ff" points="2419.33,-161.24 2409.87,-166.02 2420.24,-168.18 2419.33,-161.24"/>
</a>
</g>
</g>
<!-- Node19 -->
<g id="Node000019" class="node">
<title>Node19</title>
<g id="a_Node000019"><a xlink:href="../../de/da4/cbiblereadwindow_8cpp.html" target="_top" xlink:title=" ">
<polygon fill="white" stroke="#666666" points="1232.77,-19 1107.77,-19 1107.77,0 1232.77,0 1232.77,-19"/>
<text text-anchor="middle" x="1170.27" y="-7" font-family="Helvetica,sans-Serif" font-size="10.00">cbiblereadwindow.cpp</text>
</a>
</g>
</g>
<!-- Node1&#45;&gt;Node19 -->
<g id="edge19_Node000001_Node000019" class="edge">
<title>Node1&#45;&gt;Node19</title>
<g id="a_edge19_Node000001_Node000019"><a xlink:title=" ">
<path fill="none" stroke="#63b8ff" d="M2353.4,-154.7C2352.46,-127.69 2346.28,-78.56 2315.27,-55 2271.93,-22.08 1465.71,-12.92 1232.79,-10.96"/>
<polygon fill="#63b8ff" stroke="#63b8ff" points="2349.9,-154.84 2353.54,-164.79 2356.9,-154.74 2349.9,-154.84"/>
</a>
</g>
</g>
<!-- Node20 -->
<g id="Node000020" class="node">
<title>Node20</title>
<g id="a_Node000020"><a xlink:href="../../df/d70/cbiblereadwindow_8h.html" target="_top" xlink:title=" ">
<polygon fill="white" stroke="#666666" points="134.77,-74 21.77,-74 21.77,-55 134.77,-55 134.77,-74"/>
<text text-anchor="middle" x="78.27" y="-62" font-family="Helvetica,sans-Serif" font-size="10.00">cbiblereadwindow.h</text>
</a>
</g>
</g>
<!-- Node1&#45;&gt;Node20 -->
<g id="edge20_Node000001_Node000020" class="edge">
<title>Node1&#45;&gt;Node20</title>
<g id="a_edge20_Node000001_Node000020"><a xlink:title=" ">
<path fill="none" stroke="#63b8ff" d="M2286.37,-173.67C2059.21,-173.85 1296.6,-171.04 668.27,-129 471.94,-115.86 240.14,-86.98 135.09,-73.16"/>
<polygon fill="#63b8ff" stroke="#63b8ff" points="2286.47,-177.17 2296.46,-173.66 2286.46,-170.17 2286.47,-177.17"/>
</a>
</g>
</g>
<!-- Node21 -->
<g id="Node000021" class="node">
<title>Node21</title>
<g id="a_Node000021"><a xlink:href="../../d5/d2b/cdisplaywindow_8h.html" target="_top" xlink:title=" ">
<polygon fill="white" stroke="#666666" points="779.77,-129 676.77,-129 676.77,-110 779.77,-110 779.77,-129"/>
<text text-anchor="middle" x="728.27" y="-117" font-family="Helvetica,sans-Serif" font-size="10.00">cdisplaywindow.h</text>
</a>
</g>
</g>
<!-- Node1&#45;&gt;Node21 -->
<g id="edge26_Node000001_Node000021" class="edge">
<title>Node1&#45;&gt;Node21</title>
<g id="a_edge26_Node000001_Node000021"><a xlink:title=" ">
<path fill="none" stroke="#63b8ff" d="M2286.39,-171.32C2017.67,-162.55 1019.62,-130 780.16,-122.19"/>
<polygon fill="#63b8ff" stroke="#63b8ff" points="2286.28,-174.82 2296.39,-171.64 2286.51,-167.82 2286.28,-174.82"/>
</a>
</g>
</g>
<!-- Node27 -->
<g id="Node000027" class="node">
<title>Node27</title>
<g id="a_Node000027"><a xlink:href="../../d8/d19/clexiconreadwindow_8cpp.html" target="_top" xlink:title=" ">
<polygon fill="white" stroke="#666666" points="1958.27,-19 1822.27,-19 1822.27,0 1958.27,0 1958.27,-19"/>
<text text-anchor="middle" x="1890.27" y="-7" font-family="Helvetica,sans-Serif" font-size="10.00">clexiconreadwindow.cpp</text>
</a>
</g>
</g>
<!-- Node1&#45;&gt;Node27 -->
<g id="edge48_Node000001_Node000027" class="edge">
<title>Node1&#45;&gt;Node27</title>
<g id="a_edge48_Node000001_Node000027"><a xlink:title=" ">
<path fill="none" stroke="#63b8ff" d="M2359.02,-155.21C2365.93,-129.23 2373.66,-81.82 2348.27,-55 2322.01,-27.26 2079.37,-16.13 1958.31,-12.28"/>
<polygon fill="#63b8ff" stroke="#63b8ff" points="2355.63,-154.34 2356.21,-164.91 2362.35,-156.28 2355.63,-154.34"/>
</a>
</g>
</g>
<!-- Node3 -->
<g id="Node000003" class="node">
<title>Node3</title>
<g id="a_Node000003"><a xlink:href="../../d1/df6/bibletime_8cpp.html" target="_top" xlink:title=" ">
<polygon fill="white" stroke="#666666" points="765.77,-19 682.77,-19 682.77,0 765.77,0 765.77,-19"/>
<text text-anchor="middle" x="724.27" y="-7" font-family="Helvetica,sans-Serif" font-size="10.00">bibletime.cpp</text>
</a>
</g>
</g>
<!-- Node2&#45;&gt;Node3 -->
<g id="edge2_Node000002_Node000003" class="edge">
<title>Node2&#45;&gt;Node3</title>
<g id="a_edge2_Node000002_Node000003"><a xlink:title=" ">
<path fill="none" stroke="#63b8ff" d="M1739.12,-111.36C1696.7,-104.15 1632.37,-91.56 1578.27,-74 1558.4,-67.55 1555.59,-59.87 1535.27,-55 1460.28,-37.01 921.29,-17.27 766.02,-11.91"/>
<polygon fill="#63b8ff" stroke="#63b8ff" points="1738.71,-114.84 1749.15,-113.04 1739.87,-107.94 1738.71,-114.84"/>
</a>
</g>
</g>
<!-- Node4 -->
<g id="Node000004" class="node">
<title>Node4</title>
<g id="a_Node000004"><a xlink:href="../../da/dc7/bibletime__init_8cpp.html" target="_top" xlink:title=" ">
<polygon fill="white" stroke="#666666" points="1691.27,-74 1587.27,-74 1587.27,-55 1691.27,-55 1691.27,-74"/>
<text text-anchor="middle" x="1639.27" y="-62" font-family="Helvetica,sans-Serif" font-size="10.00">bibletime_init.cpp</text>
</a>
</g>
</g>
<!-- Node2&#45;&gt;Node4 -->
<g id="edge3_Node000002_Node000004" class="edge">
<title>Node2&#45;&gt;Node4</title>
<g id="a_edge3_Node000002_Node000004"><a xlink:title=" ">
<path fill="none" stroke="#63b8ff" d="M1752.35,-106.55C1725.24,-96.71 1687.44,-82.98 1663.15,-74.17"/>
<polygon fill="#63b8ff" stroke="#63b8ff" points="1751.22,-109.86 1761.81,-109.98 1753.61,-103.28 1751.22,-109.86"/>
</a>
</g>
</g>
<!-- Node5 -->
<g id="Node000005" class="node">
<title>Node5</title>
<g id="a_Node000005"><a xlink:href="../../d6/d96/bibletime__slots_8cpp.html" target="_top" xlink:title=" ">
<polygon fill="white" stroke="#666666" points="1493.27,-74 1381.27,-74 1381.27,-55 1493.27,-55 1493.27,-74"/>
<text text-anchor="middle" x="1437.27" y="-62" font-family="Helvetica,sans-Serif" font-size="10.00">bibletime_slots.cpp</text>
</a>
</g>
</g>
<!-- Node2&#45;&gt;Node5 -->
<g id="edge4_Node000002_Node000005" class="edge">
<title>Node2&#45;&gt;Node5</title>
<g id="a_edge4_Node000002_Node000005"><a xlink:title=" ">
<path fill="none" stroke="#63b8ff" d="M1738.88,-111.44C1675.33,-101.76 1561.33,-84.39 1493.16,-74.01"/>
<polygon fill="#63b8ff" stroke="#63b8ff" points="1738.6,-114.93 1749.01,-112.98 1739.65,-108.01 1738.6,-114.93"/>
</a>
</g>
</g>
<!-- Node6 -->
<g id="Node000006" class="node">
<title>Node6</title>
<g id="a_Node000006"><a xlink:href="../../df/d88/btbookshelfdockwidget_8cpp.html" target="_top" xlink:title=" ">
<polygon fill="white" stroke="#666666" points="1860.77,-74 1709.77,-74 1709.77,-55 1860.77,-55 1860.77,-74"/>
<text text-anchor="middle" x="1785.27" y="-62" font-family="Helvetica,sans-Serif" font-size="10.00">btbookshelfdockwidget.cpp</text>
</a>
</g>
</g>
<!-- Node2&#45;&gt;Node6 -->
<g id="edge5_Node000002_Node000006" class="edge">
<title>Node2&#45;&gt;Node6</title>
<g id="a_edge5_Node000002_Node000006"><a xlink:title=" ">
<path fill="none" stroke="#63b8ff" d="M1785.27,-99.66C1785.27,-90.93 1785.27,-80.99 1785.27,-74.09"/>
<polygon fill="#63b8ff" stroke="#63b8ff" points="1781.77,-99.75 1785.27,-109.75 1788.77,-99.75 1781.77,-99.75"/>
</a>
</g>
</g>
<!-- Node7 -->
<g id="Node000007" class="node">
<title>Node7</title>
<g id="a_Node000007"><a xlink:href="../../de/db2/btmodelviewreaddisplay_8cpp.html" target="_top" xlink:title=" ">
<polygon fill="white" stroke="#666666" points="1129.27,-74 973.27,-74 973.27,-55 1129.27,-55 1129.27,-74"/>
<text text-anchor="middle" x="1051.27" y="-62" font-family="Helvetica,sans-Serif" font-size="10.00">btmodelviewreaddisplay.cpp</text>
</a>
</g>
</g>
<!-- Node2&#45;&gt;Node7 -->
<g id="edge6_Node000002_Node000007" class="edge">
<title>Node2&#45;&gt;Node7</title>
<g id="a_edge6_Node000002_Node000007"><a xlink:title=" ">
<path fill="none" stroke="#63b8ff" d="M1739.06,-115.78C1632.88,-109.43 1363.32,-92.73 1138.27,-74 1135.4,-73.76 1132.47,-73.51 1129.51,-73.25"/>
<polygon fill="#63b8ff" stroke="#63b8ff" points="1738.93,-119.28 1749.12,-116.38 1739.34,-112.29 1738.93,-119.28"/>
</a>
</g>
</g>
<!-- Node8 -->
<g id="Node000008" class="node">
<title>Node8</title>
<g id="a_Node000008"><a xlink:href="../../de/d6e/btqmlinterface_8cpp.html" target="_top" xlink:title=" ">
<polygon fill="white" stroke="#666666" points="1987.77,-74 1878.77,-74 1878.77,-55 1987.77,-55 1987.77,-74"/>
<text text-anchor="middle" x="1933.27" y="-62" font-family="Helvetica,sans-Serif" font-size="10.00">btqmlinterface.cpp</text>
</a>
</g>
</g>
<!-- Node2&#45;&gt;Node8 -->
<g id="edge7_Node000002_Node000008" class="edge">
<title>Node2&#45;&gt;Node8</title>
<g id="a_edge7_Node000002_Node000008"><a xlink:title=" ">
<path fill="none" stroke="#63b8ff" d="M1818.64,-106.55C1846.12,-96.71 1884.44,-82.98 1909.06,-74.17"/>
<polygon fill="#63b8ff" stroke="#63b8ff" points="1817.28,-103.32 1809.05,-109.98 1819.64,-109.91 1817.28,-103.32"/>
</a>
</g>
</g>
<!-- Node9 -->
<g id="Node000009" class="node">
<title>Node9</title>
<g id="a_Node000009"><a xlink:href="../../d9/d0c/btquickwidget_8cpp.html" target="_top" xlink:title=" ">
<polygon fill="white" stroke="#666666" points="2112.27,-74 2006.27,-74 2006.27,-55 2112.27,-55 2112.27,-74"/>
<text text-anchor="middle" x="2059.27" y="-62" font-family="Helvetica,sans-Serif" font-size="10.00">btquickwidget.cpp</text>
</a>
</g>
</g>
<!-- Node2&#45;&gt;Node9 -->
<g id="edge8_Node000002_Node000009" class="edge">
<title>Node2&#45;&gt;Node9</title>
<g id="a_edge8_Node000002_Node000009"><a xlink:title=" ">
<path fill="none" stroke="#63b8ff" d="M1831.49,-109.56C1882.65,-99.66 1964.52,-83.83 2014.91,-74.08"/>
<polygon fill="#63b8ff" stroke="#63b8ff" points="1830.53,-106.18 1821.37,-111.52 1831.85,-113.05 1830.53,-106.18"/>
</a>
</g>
</g>
<!-- Node2&#45;&gt;Node10 -->
<g id="edge9_Node000002_Node000010" class="edge">
<title>Node2&#45;&gt;Node10</title>
<g id="a_edge9_Node000002_Node000010"><a xlink:title=" ">
<path fill="none" stroke="#63b8ff" d="M1738.98,-115.08C1687.84,-110.2 1603.67,-98.91 1535.27,-74 1519.37,-68.21 1518.52,-59.72 1502.27,-55 1325.42,-3.58 857.96,-32.39 674.27,-19 669.5,-18.65 664.58,-18.25 659.63,-17.82"/>
<polygon fill="#63b8ff" stroke="#63b8ff" points="1738.79,-118.57 1749.07,-115.99 1739.43,-111.6 1738.79,-118.57"/>
</a>
</g>
</g>
<!-- Node2&#45;&gt;Node11 -->
<g id="edge10_Node000002_Node000011" class="edge">
<title>Node2&#45;&gt;Node11</title>
<g id="a_edge10_Node000002_Node000011"><a xlink:title=" ">
<path fill="none" stroke="#63b8ff" d="M1831.46,-117.85C1954.02,-115.69 2280.45,-106.88 2315.27,-74 2330.16,-59.93 2328.3,-33.28 2326.07,-19.41"/>
<polygon fill="#63b8ff" stroke="#63b8ff" points="1831.22,-114.36 1821.28,-118.03 1831.34,-121.36 1831.22,-114.36"/>
</a>
</g>
</g>
<!-- Node2&#45;&gt;Node12 -->
<g id="edge11_Node000002_Node000012" class="edge">
<title>Node2&#45;&gt;Node12</title>
<g id="a_edge11_Node000002_Node000012"><a xlink:title=" ">
<path fill="none" stroke="#63b8ff" d="M1831.58,-116.6C1945.78,-111.61 2238.46,-96.92 2333.27,-74 2385.54,-61.36 2443.09,-33.3 2470.31,-19.1"/>
<polygon fill="#63b8ff" stroke="#63b8ff" points="1831.26,-113.11 1821.42,-117.04 1831.56,-120.1 1831.26,-113.11"/>
</a>
</g>
</g>
<!-- Node13 -->
<g id="Node000013" class="node">
<title>Node13</title>
<g id="a_Node000013"><a xlink:href="../../d2/d26/cdisplaywindow_8cpp.html" target="_top" xlink:title=" ">
<polygon fill="white" stroke="#666666" points="1261.27,-74 1147.27,-74 1147.27,-55 1261.27,-55 1261.27,-74"/>
<text text-anchor="middle" x="1204.27" y="-62" font-family="Helvetica,sans-Serif" font-size="10.00">cdisplaywindow.cpp</text>
</a>
</g>
</g>
<!-- Node2&#45;&gt;Node13 -->
<g id="edge12_Node000002_Node000013" class="edge">
<title>Node2&#45;&gt;Node13</title>
<g id="a_edge12_Node000002_Node000013"><a xlink:title=" ">
<path fill="none" stroke="#63b8ff" d="M1738.92,-115.11C1648.75,-108.38 1443.47,-92.37 1271.27,-74 1268,-73.65 1264.65,-73.28 1261.27,-72.89"/>
<polygon fill="#63b8ff" stroke="#63b8ff" points="1738.85,-118.61 1749.08,-115.87 1739.37,-111.63 1738.85,-118.61"/>
</a>
</g>
</g>
<!-- Node14 -->
<g id="Node000014" class="node">
<title>Node14</title>
<g id="a_Node000014"><a xlink:href="../../d5/d80/cinfodisplay_8cpp.html" target="_top" xlink:title=" ">
<polygon fill="white" stroke="#666666" points="2225.77,-74 2130.77,-74 2130.77,-55 2225.77,-55 2225.77,-74"/>
<text text-anchor="middle" x="2178.27" y="-62" font-family="Helvetica,sans-Serif" font-size="10.00">cinfodisplay.cpp</text>
</a>
</g>
</g>
<!-- Node2&#45;&gt;Node14 -->
<g id="edge13_Node000002_Node000014" class="edge">
<title>Node2&#45;&gt;Node14</title>
<g id="a_edge13_Node000002_Node000014"><a xlink:title=" ">
<path fill="none" stroke="#63b8ff" d="M1831.9,-112.57C1896.8,-104.26 2018.05,-88.53 2121.27,-74 2124.34,-73.57 2127.5,-73.12 2130.69,-72.65"/>
<polygon fill="#63b8ff" stroke="#63b8ff" points="1831.07,-109.15 1821.59,-113.89 1831.96,-116.09 1831.07,-109.15"/>
</a>
</g>
</g>
<!-- Node15 -->
<g id="Node000015" class="node">
<title>Node15</title>
<g id="a_Node000015"><a xlink:href="../../d2/db3/cmdiarea_8cpp.html" target="_top" xlink:title=" ">
<polygon fill="white" stroke="#666666" points="1362.77,-74 1279.77,-74 1279.77,-55 1362.77,-55 1362.77,-74"/>
<text text-anchor="middle" x="1321.27" y="-62" font-family="Helvetica,sans-Serif" font-size="10.00">cmdiarea.cpp</text>
</a>
</g>
</g>
<!-- Node2&#45;&gt;Node15 -->
<g id="edge14_Node000002_Node000015" class="edge">
<title>Node2&#45;&gt;Node15</title>
<g id="a_edge14_Node000002_Node000015"><a xlink:title=" ">
<path fill="none" stroke="#63b8ff" d="M1738.74,-114.37C1662.16,-107.38 1504.82,-92.17 1372.27,-74 1369.25,-73.59 1366.13,-73.13 1362.99,-72.65"/>
<polygon fill="#63b8ff" stroke="#63b8ff" points="1738.72,-117.88 1749,-115.3 1739.36,-110.91 1738.72,-117.88"/>
</a>
</g>
</g>
<!-- Node16 -->
<g id="Node000016" class="node">
<title>Node16</title>
<g id="a_Node000016"><a xlink:href="../../df/d0a/main_8cpp.html" target="_top" xlink:title=" ">
<polygon fill="white" stroke="#666666" points="2306.27,-74 2244.27,-74 2244.27,-55 2306.27,-55 2306.27,-74"/>
<text text-anchor="middle" x="2275.27" y="-62" font-family="Helvetica,sans-Serif" font-size="10.00">main.cpp</text>
</a>
</g>
</g>
<!-- Node2&#45;&gt;Node16 -->
<g id="edge15_Node000002_Node000016" class="edge">
<title>Node2&#45;&gt;Node16</title>
<g id="a_edge15_Node000002_Node000016"><a xlink:title=" ">
<path fill="none" stroke="#63b8ff" d="M1831.52,-115.62C1913.31,-110.16 2088.67,-96.75 2235.27,-74 2238.08,-73.56 2240.98,-73.06 2243.89,-72.51"/>
<polygon fill="#63b8ff" stroke="#63b8ff" points="1831.06,-112.15 1821.31,-116.3 1831.52,-119.13 1831.06,-112.15"/>
</a>
</g>
</g>
<!-- Node20&#45;&gt;Node3 -->
<g id="edge21_Node000020_Node000003" class="edge">
<title>Node20&#45;&gt;Node3</title>
<g id="a_edge21_Node000020_Node000003"><a xlink:title=" ">
<path fill="none" stroke="#63b8ff" d="M144.82,-55.43C146.32,-55.28 147.8,-55.14 149.27,-55 379.47,-33.25 438.44,-44.37 668.27,-19 672.96,-18.48 677.86,-17.86 682.73,-17.19"/>
<polygon fill="#63b8ff" stroke="#63b8ff" points="144.41,-51.96 134.82,-56.47 145.13,-58.92 144.41,-51.96"/>
</a>
</g>
</g>
<!-- Node20&#45;&gt;Node10 -->
<g id="edge22_Node000020_Node000010" class="edge">
<title>Node20&#45;&gt;Node10</title>
<g id="a_edge22_Node000020_Node000010"><a xlink:title=" ">
<path fill="none" stroke="#63b8ff" d="M144.83,-55.49C146.32,-55.33 147.8,-55.16 149.27,-55 281.51,-40.43 436.22,-25.29 523.08,-16.96"/>
<polygon fill="#63b8ff" stroke="#63b8ff" points="144.38,-52.02 134.84,-56.63 145.17,-58.98 144.38,-52.02"/>
</a>
</g>
</g>
<!-- Node20&#45;&gt;Node19 -->
<g id="edge23_Node000020_Node000019" class="edge">
<title>Node20&#45;&gt;Node19</title>
<g id="a_edge23_Node000020_Node000019"><a xlink:title=" ">
<path fill="none" stroke="#63b8ff" d="M145.15,-57.67C157.49,-56.7 170.26,-55.76 182.27,-55 531.63,-32.86 951.16,-17.76 1107.52,-12.53"/>
<polygon fill="#63b8ff" stroke="#63b8ff" points="144.6,-54.2 134.92,-58.49 145.16,-61.18 144.6,-54.2"/>
</a>
</g>
</g>
<!-- Node21&#45;&gt;Node3 -->
<g id="edge27_Node000021_Node000003" class="edge">
<title>Node21&#45;&gt;Node3</title>
<g id="a_edge27_Node000021_Node000003"><a xlink:title=" ">
<path fill="none" stroke="#63b8ff" d="M666.02,-118.06C529.74,-116.46 214.51,-108.97 182.27,-74 108.6,5.92 560.26,-31.18 668.27,-19 672.96,-18.47 677.86,-17.84 682.73,-17.17"/>
<polygon fill="#63b8ff" stroke="#63b8ff" points="666.27,-121.57 676.3,-118.18 666.34,-114.57 666.27,-121.57"/>
</a>
</g>
</g>
<!-- Node21&#45;&gt;Node5 -->
<g id="edge28_Node000021_Node000005" class="edge">
<title>Node21&#45;&gt;Node5</title>
<g id="a_edge28_Node000021_Node000005"><a xlink:title=" ">
<path fill="none" stroke="#63b8ff" d="M790.13,-115.48C905.01,-109.6 1159.02,-95.29 1372.27,-74 1375.1,-73.72 1378,-73.41 1380.92,-73.08"/>
<polygon fill="#63b8ff" stroke="#63b8ff" points="789.92,-111.99 780.12,-115.99 790.28,-118.98 789.92,-111.99"/>
</a>
</g>
</g>
<!-- Node21&#45;&gt;Node7 -->
<g id="edge30_Node000021_Node000007" class="edge">
<title>Node21&#45;&gt;Node7</title>
<g id="a_edge30_Node000021_Node000007"><a xlink:title=" ">
<path fill="none" stroke="#63b8ff" d="M790.02,-108.37C850.72,-98.41 942.33,-83.38 999.38,-74.01"/>
<polygon fill="#63b8ff" stroke="#63b8ff" points="789.11,-104.97 779.81,-110.04 790.24,-111.88 789.11,-104.97"/>
</a>
</g>
</g>
<!-- Node21&#45;&gt;Node10 -->
<g id="edge32_Node000021_Node000010" class="edge">
<title>Node21&#45;&gt;Node10</title>
<g id="a_edge32_Node000021_Node000010"><a xlink:title=" ">
<path fill="none" stroke="#63b8ff" d="M666.64,-116.94C497.05,-112.35 34.54,-97.69 12.27,-74 6.49,-67.85 6.53,-61.2 12.27,-55 46.35,-18.2 377.31,-11.72 523.01,-10.66"/>
<polygon fill="#63b8ff" stroke="#63b8ff" points="666.57,-120.44 676.66,-117.21 666.76,-113.44 666.57,-120.44"/>
</a>
</g>
</g>
<!-- Node21&#45;&gt;Node13 -->
<g id="edge42_Node000021_Node000013" class="edge">
<title>Node21&#45;&gt;Node13</title>
<g id="a_edge42_Node000021_Node000013"><a xlink:title=" ">
<path fill="none" stroke="#63b8ff" d="M790.52,-112.13C870.9,-103.82 1015.11,-88.61 1138.27,-74 1141.14,-73.66 1144.07,-73.3 1147.04,-72.94"/>
<polygon fill="#63b8ff" stroke="#63b8ff" points="789.67,-108.7 780.08,-113.21 790.39,-115.67 789.67,-108.7"/>
</a>
</g>
</g>
<!-- Node21&#45;&gt;Node15 -->
<g id="edge47_Node000021_Node000015" class="edge">
<title>Node21&#45;&gt;Node15</title>
<g id="a_edge47_Node000021_Node000015"><a xlink:title=" ">
<path fill="none" stroke="#63b8ff" d="M789.99,-115.11C890.76,-109.2 1096.8,-95.54 1270.27,-74 1273.3,-73.62 1276.42,-73.2 1279.56,-72.74"/>
<polygon fill="#63b8ff" stroke="#63b8ff" points="789.76,-111.62 779.98,-115.69 790.17,-118.61 789.76,-111.62"/>
</a>
</g>
</g>
<!-- Node21&#45;&gt;Node20 -->
<g id="edge33_Node000021_Node000020" class="edge">
<title>Node21&#45;&gt;Node20</title>
<g id="a_edge33_Node000021_Node000020"><a xlink:title=" ">
<path fill="none" stroke="#63b8ff" d="M666.51,-114.62C560.56,-107.76 337.4,-92.48 149.27,-74 144.57,-73.54 139.71,-73.03 134.83,-72.49"/>
<polygon fill="#63b8ff" stroke="#63b8ff" points="666.49,-118.12 676.7,-115.27 666.94,-111.14 666.49,-118.12"/>
</a>
</g>
</g>
<!-- Node22 -->
<g id="Node000022" class="node">
<title>Node22</title>
<g id="a_Node000022"><a xlink:href="../../d3/d2f/btcopybyreferencesdialog_8cpp.html" target="_top" xlink:title=" ">
<polygon fill="white" stroke="#666666" points="355.27,-74 191.27,-74 191.27,-55 355.27,-55 355.27,-74"/>
<text text-anchor="middle" x="273.27" y="-62" font-family="Helvetica,sans-Serif" font-size="10.00">btcopybyreferencesdialog.cpp</text>
</a>
</g>
</g>
<!-- Node21&#45;&gt;Node22 -->
<g id="edge29_Node000021_Node000022" class="edge">
<title>Node21&#45;&gt;Node22</title>
<g id="a_edge29_Node000021_Node000022"><a xlink:title=" ">
<path fill="none" stroke="#63b8ff" d="M666.44,-111.3C583.12,-101.59 435.05,-84.34 346.33,-74.01"/>
<polygon fill="#63b8ff" stroke="#63b8ff" points="666.18,-114.79 676.52,-112.47 666.99,-107.84 666.18,-114.79"/>
</a>
</g>
</g>
<!-- Node23 -->
<g id="Node000023" class="node">
<title>Node23</title>
<g id="a_Node000023"><a xlink:href="../../df/d47/btmodulechooserbar_8cpp.html" target="_top" xlink:title=" ">
<polygon fill="white" stroke="#666666" points="510.77,-74 373.77,-74 373.77,-55 510.77,-55 510.77,-74"/>
<text text-anchor="middle" x="442.27" y="-62" font-family="Helvetica,sans-Serif" font-size="10.00">btmodulechooserbar.cpp</text>
</a>
</g>
</g>
<!-- Node21&#45;&gt;Node23 -->
<g id="edge31_Node000021_Node000023" class="edge">
<title>Node21&#45;&gt;Node23</title>
<g id="a_edge31_Node000021_Node000023"><a xlink:title=" ">
<path fill="none" stroke="#63b8ff" d="M672.29,-108.13C618.68,-98.19 538.71,-83.37 488.58,-74.08"/>
<polygon fill="#63b8ff" stroke="#63b8ff" points="671.85,-111.6 682.32,-109.98 673.12,-104.72 671.85,-111.6"/>
</a>
</g>
</g>
<!-- Node24 -->
<g id="Node000024" class="node">
<title>Node24</title>
<g id="a_Node000024"><a xlink:href="../../df/d9e/cbookreadwindow_8h.html" target="_top" xlink:title=" ">
<polygon fill="white" stroke="#666666" points="784.77,-74 671.77,-74 671.77,-55 784.77,-55 784.77,-74"/>
<text text-anchor="middle" x="728.27" y="-62" font-family="Helvetica,sans-Serif" font-size="10.00">cbookreadwindow.h</text>
</a>
</g>
</g>
<!-- Node21&#45;&gt;Node24 -->
<g id="edge34_Node000021_Node000024" class="edge">
<title>Node21&#45;&gt;Node24</title>
<g id="a_edge34_Node000021_Node000024"><a xlink:title=" ">
<path fill="none" stroke="#63b8ff" d="M728.27,-99.66C728.27,-90.93 728.27,-80.99 728.27,-74.09"/>
<polygon fill="#63b8ff" stroke="#63b8ff" points="724.77,-99.75 728.27,-109.75 731.77,-99.75 724.77,-99.75"/>
</a>
</g>
</g>
<!-- Node25 -->
<g id="Node000025" class="node">
<title>Node25</title>
<g id="a_Node000025"><a xlink:href="../../d5/da8/ccommentaryreadwindow_8h.html" target="_top" xlink:title=" ">
<polygon fill="white" stroke="#666666" points="955.27,-74 803.27,-74 803.27,-55 955.27,-55 955.27,-74"/>
<text text-anchor="middle" x="879.27" y="-62" font-family="Helvetica,sans-Serif" font-size="10.00">ccommentaryreadwindow.h</text>
</a>
</g>
</g>
<!-- Node21&#45;&gt;Node25 -->
<g id="edge38_Node000021_Node000025" class="edge">
<title>Node21&#45;&gt;Node25</title>
<g id="a_edge38_Node000021_Node000025"><a xlink:title=" ">
<path fill="none" stroke="#63b8ff" d="M762.31,-106.55C790.36,-96.71 829.45,-82.98 854.57,-74.17"/>
<polygon fill="#63b8ff" stroke="#63b8ff" points="760.81,-103.37 752.53,-109.98 763.12,-109.98 760.81,-103.37"/>
</a>
</g>
</g>
<!-- Node26 -->
<g id="Node000026" class="node">
<title>Node26</title>
<g id="a_Node000026"><a xlink:href="../../d5/d06/clexiconreadwindow_8h.html" target="_top" xlink:title=" ">
<polygon fill="white" stroke="#666666" points="653.77,-74 528.77,-74 528.77,-55 653.77,-55 653.77,-74"/>
<text text-anchor="middle" x="591.27" y="-62" font-family="Helvetica,sans-Serif" font-size="10.00">clexiconreadwindow.h</text>
</a>
</g>
</g>
<!-- Node21&#45;&gt;Node26 -->
<g id="edge43_Node000021_Node000026" class="edge">
<title>Node21&#45;&gt;Node26</title>
<g id="a_edge43_Node000021_Node000026"><a xlink:title=" ">
<path fill="none" stroke="#63b8ff" d="M696.71,-106.29C671.32,-96.47 636.27,-82.91 613.68,-74.17"/>
<polygon fill="#63b8ff" stroke="#63b8ff" points="695.67,-109.64 706.26,-109.98 698.19,-103.11 695.67,-109.64"/>
</a>
</g>
</g>
<!-- Node24&#45;&gt;Node3 -->
<g id="edge35_Node000024_Node000003" class="edge">
<title>Node24&#45;&gt;Node3</title>
<g id="a_edge35_Node000024_Node000003"><a xlink:title=" ">
<path fill="none" stroke="#63b8ff" d="M726.85,-44.66C726.19,-35.93 725.44,-25.99 724.92,-19.09"/>
<polygon fill="#63b8ff" stroke="#63b8ff" points="723.37,-45.04 727.61,-54.75 730.35,-44.51 723.37,-45.04"/>
</a>
</g>
</g>
<!-- Node24&#45;&gt;Node10 -->
<g id="edge36_Node000024_Node000010" class="edge">
<title>Node24&#45;&gt;Node10</title>
<g id="a_edge36_Node000024_Node000010"><a xlink:title=" ">
<path fill="none" stroke="#63b8ff" d="M696.71,-51.29C671.32,-41.47 636.27,-27.91 613.68,-19.17"/>
<polygon fill="#63b8ff" stroke="#63b8ff" points="695.67,-54.64 706.26,-54.98 698.19,-48.11 695.67,-54.64"/>
</a>
</g>
</g>
<!-- Node24&#45;&gt;Node11 -->
<g id="edge37_Node000024_Node000011" class="edge">
<title>Node24&#45;&gt;Node11</title>
<g id="a_edge37_Node000024_Node000011"><a xlink:title=" ">
<path fill="none" stroke="#63b8ff" d="M795.31,-55.07C982.61,-42.4 1997.4,-18.14 2261.46,-11.96"/>
<polygon fill="#63b8ff" stroke="#63b8ff" points="794.83,-51.6 785.11,-55.82 795.34,-58.58 794.83,-51.6"/>
</a>
</g>
</g>
<!-- Node25&#45;&gt;Node3 -->
<g id="edge39_Node000025_Node000003" class="edge">
<title>Node25&#45;&gt;Node3</title>
<g id="a_edge39_Node000025_Node000003"><a xlink:title=" ">
<path fill="none" stroke="#63b8ff" d="M844.67,-51.67C815.77,-41.79 775.24,-27.93 749.37,-19.08"/>
<polygon fill="#63b8ff" stroke="#63b8ff" points="843.77,-55.06 854.37,-54.98 846.04,-48.44 843.77,-55.06"/>
</a>
</g>
</g>
<!-- Node25&#45;&gt;Node10 -->
<g id="edge40_Node000025_Node000010" class="edge">
<title>Node25&#45;&gt;Node10</title>
<g id="a_edge40_Node000025_Node000010"><a xlink:title=" ">
<path fill="none" stroke="#63b8ff" d="M822.9,-53.13C768.91,-43.19 688.39,-28.37 637.9,-19.08"/>
<polygon fill="#63b8ff" stroke="#63b8ff" points="822.53,-56.62 833,-54.98 823.8,-49.73 822.53,-56.62"/>
</a>
</g>
</g>
<!-- Node25&#45;&gt;Node12 -->
<g id="edge41_Node000025_Node000012" class="edge">
<title>Node25&#45;&gt;Node12</title>
<g id="a_edge41_Node000025_Node000012"><a xlink:title=" ">
<path fill="none" stroke="#63b8ff" d="M966.04,-54.94C1601.42,-15.74 1764.17,-56.75 2396.27,-19 2398.93,-18.84 2401.64,-18.67 2404.37,-18.48"/>
<polygon fill="#63b8ff" stroke="#63b8ff" points="965.47,-51.47 955.7,-55.59 965.9,-58.46 965.47,-51.47"/>
</a>
</g>
</g>
<!-- Node26&#45;&gt;Node3 -->
<g id="edge44_Node000026_Node000003" class="edge">
<title>Node26&#45;&gt;Node3</title>
<g id="a_edge44_Node000026_Node000003"><a xlink:title=" ">
<path fill="none" stroke="#63b8ff" d="M622.24,-51.16C646.86,-41.35 680.68,-27.87 702.51,-19.17"/>
<polygon fill="#63b8ff" stroke="#63b8ff" points="620.63,-48.03 612.64,-54.98 623.22,-54.53 620.63,-48.03"/>
</a>
</g>
</g>
<!-- Node26&#45;&gt;Node10 -->
<g id="edge45_Node000026_Node000010" class="edge">
<title>Node26&#45;&gt;Node10</title>
<g id="a_edge45_Node000026_Node000010"><a xlink:title=" ">
<path fill="none" stroke="#63b8ff" d="M591.27,-44.66C591.27,-35.93 591.27,-25.99 591.27,-19.09"/>
<polygon fill="#63b8ff" stroke="#63b8ff" points="587.77,-44.75 591.27,-54.75 594.77,-44.75 587.77,-44.75"/>
</a>
</g>
</g>
<!-- Node26&#45;&gt;Node27 -->
<g id="edge46_Node000026_Node000027" class="edge">
<title>Node26&#45;&gt;Node27</title>
<g id="a_edge46_Node000026_Node000027"><a xlink:title=" ">
<path fill="none" stroke="#63b8ff" d="M664.3,-55C1112.04,-20.93 1637.26,-12.89 1821.99,-11.03"/>
<polygon fill="#63b8ff" stroke="#63b8ff" points="663.77,-51.53 654.07,-55.78 664.31,-58.51 663.77,-51.53"/>
</a>
</g>
</g>
</g>
</svg>

<g id="navigator" transform="translate(0 0)" fill="#404254">
  <rect fill="#f2f5e9" fill-opacity="0.5" stroke="#606060" stroke-width=".5" x="0" y="0" width="60" height="60"/>
  <use id="zoomplus" xlink:href="#zoomPlus" x="17" y="9" onmousedown="handleZoom(evt,'in')"/>
  <use id="zoomminus" xlink:href="#zoomMin" x="42" y="9" onmousedown="handleZoom(evt,'out')"/>
  <use id="reset" xlink:href="#resetDef" x="30" y="36" onmousedown="handleReset()"/>
   <use id="arrowup" xlink:href="#arrowUp" x="0" y="0" onmousedown="handlePan(0,-1)"/>
  <use id="arrowright" xlink:href="#arrowRight" x="0" y="0" onmousedown="handlePan(1,0)"/>
  <use id="arrowdown" xlink:href="#arrowDown" x="0" y="0" onmousedown="handlePan(0,1)"/>
  <use id="arrowleft" xlink:href="#arrowLeft" x="0" y="0" onmousedown="handlePan(-1,0)"/>
</g>
<svg viewBox="0 0 15 15" width="100%" height="30px" preserveAspectRatio="xMaxYMin meet">
 <g id="arrow_out" transform="scale(0.3 0.3)">
  <a xlink:href="btactioncollection_8h__dep__incl_org.svg" target="_base">
   <rect id="button" ry="5" rx="5" y="6" x="6" height="38" width="38"
        fill="#f2f5e9" fill-opacity="0.5" stroke="#606060" stroke-width="1.0"/>
   <path id="arrow"
     d="M 11.500037,31.436501 C 11.940474,20.09759 22.043105,11.32322 32.158766,21.979434 L 37.068811,17.246167 C 37.068811,17.246167 37.088388,32 37.088388,32 L 22.160133,31.978069 C 22.160133,31.978069 26.997745,27.140456 26.997745,27.140456 C 18.528582,18.264221 13.291696,25.230495 11.500037,31.436501 z"
     style="fill:#404040;"/>
  </a>
 </g>
</svg>

<style type='text/css'>
<![CDATA[
[data-mouse-over-selected='false'] { opacity: 0.7; }
[data-mouse-over-selected='true']  { opacity: 1.0; }
]]>
</style>
<script type="application/ecmascript"><![CDATA[
document.addEventListener('DOMContentLoaded', (event) => {
  highlightEdges();
  highlightAdjacentNodes();
});
]]></script>
</svg>
