<?xml version="1.0" encoding="UTF-8" standalone="no"?>
<!DOCTYPE svg PUBLIC "-//W3C//DTD SVG 1.1//EN"
 "http://www.w3.org/Graphics/SVG/1.1/DTD/svg11.dtd">
<!-- Generated by graphviz version 2.43.0 (0)
 -->
<!-- Title: btconfigcore.h Pages: 1 -->
<svg width="5195pt" height="252pt"
 viewBox="0.00 0.00 5195.00 252.00" xmlns="http://www.w3.org/2000/svg" xmlns:xlink="http://www.w3.org/1999/xlink">
<g id="graph0" class="graph" transform="scale(1 1) rotate(0) translate(4 248)">
<title>btconfigcore.h</title>
<polygon fill="white" stroke="transparent" points="-4,4 -4,-248 5191,-248 5191,4 -4,4"/>
<!-- Node1 -->
<g id="node1" class="node">
<title>Node1</title>
<g id="a_node1"><a xlink:title=" ">
<polygon fill="#bfbfbf" stroke="black" points="2786,-224.5 2786,-243.5 2872,-243.5 2872,-224.5 2786,-224.5"/>
<text text-anchor="middle" x="2829" y="-231.5" font-family="Helvetica,sans-Serif" font-size="10.00">btconfigcore.h</text>
</a>
</g>
</g>
<!-- Node2 -->
<g id="node2" class="node">
<title>Node2</title>
<g id="a_node2"><a xlink:href="../../d9/d0b/btbookshelftreemodel_8cpp.html" target="_top" xlink:title=" ">
<polygon fill="white" stroke="black" points="1225,-168.5 1225,-187.5 1369,-187.5 1369,-168.5 1225,-168.5"/>
<text text-anchor="middle" x="1297" y="-175.5" font-family="Helvetica,sans-Serif" font-size="10.00">btbookshelftreemodel.cpp</text>
</a>
</g>
</g>
<!-- Node1&#45;&gt;Node2 -->
<g id="edge1" class="edge">
<title>Node1&#45;&gt;Node2</title>
<path fill="none" stroke="midnightblue" d="M2775.5,-232.75C2585.56,-231.54 1925.91,-224.81 1383,-188 1378.51,-187.7 1373.89,-187.34 1369.23,-186.95"/>
<polygon fill="midnightblue" stroke="midnightblue" points="2775.75,-236.25 2785.77,-232.81 2775.79,-229.25 2775.75,-236.25"/>
</g>
<!-- Node3 -->
<g id="node3" class="node">
<title>Node3</title>
<g id="a_node3"><a xlink:href="../../db/d44/btconfig_8h.html" target="_top" xlink:title=" ">
<polygon fill="white" stroke="red" points="2766.5,-168.5 2766.5,-187.5 2831.5,-187.5 2831.5,-168.5 2766.5,-168.5"/>
<text text-anchor="middle" x="2799" y="-175.5" font-family="Helvetica,sans-Serif" font-size="10.00">btconfig.h</text>
</a>
</g>
</g>
<!-- Node1&#45;&gt;Node3 -->
<g id="edge2" class="edge">
<title>Node1&#45;&gt;Node3</title>
<path fill="none" stroke="midnightblue" d="M2819.15,-215.27C2814.03,-206.05 2807.98,-195.17 2803.86,-187.75"/>
<polygon fill="midnightblue" stroke="midnightblue" points="2816.13,-217.04 2824.05,-224.08 2822.25,-213.64 2816.13,-217.04"/>
</g>
<!-- Node98 -->
<g id="node38" class="node">
<title>Node98</title>
<g id="a_node38"><a xlink:href="../../d4/d78/btedittextpage_8cpp.html" target="_top" xlink:title=" ">
<polygon fill="white" stroke="black" points="4949.5,-112.5 4949.5,-131.5 5058.5,-131.5 5058.5,-112.5 4949.5,-112.5"/>
<text text-anchor="middle" x="5004" y="-119.5" font-family="Helvetica,sans-Serif" font-size="10.00">btedittextpage.cpp</text>
</a>
</g>
</g>
<!-- Node1&#45;&gt;Node98 -->
<g id="edge62" class="edge">
<title>Node1&#45;&gt;Node98</title>
<path fill="none" stroke="midnightblue" d="M2838.14,-215.43C2847.36,-199.77 2863.21,-177.87 2884,-168 2986.96,-119.15 4821.35,-140.38 4935,-132 4939.7,-131.65 4944.57,-131.2 4949.44,-130.69"/>
<polygon fill="midnightblue" stroke="midnightblue" points="2835.06,-213.76 2833.27,-224.2 2841.18,-217.16 2835.06,-213.76"/>
</g>
<!-- Node104 -->
<g id="node46" class="node">
<title>Node104</title>
<g id="a_node46"><a xlink:href="../../d0/d31/bttextfilterstab_8cpp.html" target="_top" xlink:title=" ">
<polygon fill="white" stroke="black" points="5077,-112.5 5077,-131.5 5187,-131.5 5187,-112.5 5077,-112.5"/>
<text text-anchor="middle" x="5132" y="-119.5" font-family="Helvetica,sans-Serif" font-size="10.00">bttextfilterstab.cpp</text>
</a>
</g>
</g>
<!-- Node1&#45;&gt;Node104 -->
<g id="edge63" class="edge">
<title>Node1&#45;&gt;Node104</title>
<path fill="none" stroke="midnightblue" d="M2846.97,-217.83C2868.19,-200.3 2902.54,-173.19 2918,-168 3031.25,-129.99 4948.9,-141.34 5068,-132 5070.91,-131.77 5073.89,-131.5 5076.89,-131.19"/>
<polygon fill="midnightblue" stroke="midnightblue" points="2844.48,-215.36 2839.04,-224.45 2848.96,-220.73 2844.48,-215.36"/>
</g>
<!-- Node106 -->
<g id="node47" class="node">
<title>Node106</title>
<g id="a_node47"><a xlink:href="../../df/dd8/btconfigcore_8cpp.html" target="_top" xlink:title=" ">
<polygon fill="white" stroke="black" points="2926.5,-168.5 2926.5,-187.5 3023.5,-187.5 3023.5,-168.5 2926.5,-168.5"/>
<text text-anchor="middle" x="2975" y="-175.5" font-family="Helvetica,sans-Serif" font-size="10.00">btconfigcore.cpp</text>
</a>
</g>
</g>
<!-- Node1&#45;&gt;Node106 -->
<g id="edge56" class="edge">
<title>Node1&#45;&gt;Node106</title>
<path fill="none" stroke="midnightblue" d="M2861.7,-220.91C2889.15,-210.75 2927.67,-196.51 2951.97,-187.52"/>
<polygon fill="midnightblue" stroke="midnightblue" points="2860.3,-217.69 2852.13,-224.44 2862.73,-224.26 2860.3,-217.69"/>
</g>
<!-- Node107 -->
<g id="node48" class="node">
<title>Node107</title>
<g id="a_node48"><a xlink:href="../../dd/d87/btopenworkaction_8h.html" target="_top" xlink:title=" ">
<polygon fill="white" stroke="black" points="1425.5,-168.5 1425.5,-187.5 1538.5,-187.5 1538.5,-168.5 1425.5,-168.5"/>
<text text-anchor="middle" x="1482" y="-175.5" font-family="Helvetica,sans-Serif" font-size="10.00">btopenworkaction.h</text>
</a>
</g>
</g>
<!-- Node1&#45;&gt;Node107 -->
<g id="edge57" class="edge">
<title>Node1&#45;&gt;Node107</title>
<path fill="none" stroke="midnightblue" d="M2775.63,-230.86C2560.73,-222.25 1759.81,-190.14 1538.8,-181.28"/>
<polygon fill="midnightblue" stroke="midnightblue" points="2775.58,-234.36 2785.71,-231.26 2775.86,-227.37 2775.58,-234.36"/>
</g>
<!-- Node62 -->
<g id="node49" class="node">
<title>Node62</title>
<g id="a_node49"><a xlink:href="../../d9/d62/btopenworkaction_8cpp.html" target="_top" xlink:title=" ">
<polygon fill="white" stroke="black" points="0,-112.5 0,-131.5 124,-131.5 124,-112.5 0,-112.5"/>
<text text-anchor="middle" x="62" y="-119.5" font-family="Helvetica,sans-Serif" font-size="10.00">btopenworkaction.cpp</text>
</a>
</g>
</g>
<!-- Node1&#45;&gt;Node62 -->
<g id="edge60" class="edge">
<title>Node1&#45;&gt;Node62</title>
<path fill="none" stroke="midnightblue" d="M2775.46,-232.72C2533.6,-231.25 1549.06,-223.14 1416,-188 1397.55,-183.13 1396.46,-172.85 1378,-168 1244.14,-132.86 270.98,-142.71 133,-132 130.15,-131.78 127.24,-131.52 124.3,-131.25"/>
<polygon fill="midnightblue" stroke="midnightblue" points="2775.73,-236.22 2785.75,-232.78 2775.77,-229.22 2775.73,-236.22"/>
</g>
<!-- Node31 -->
<g id="node50" class="node">
<title>Node31</title>
<g id="a_node50"><a xlink:href="../../d7/d67/cbookreadwindow_8cpp.html" target="_top" xlink:title=" ">
<polygon fill="white" stroke="black" points="3041.5,-168.5 3041.5,-187.5 3166.5,-187.5 3166.5,-168.5 3041.5,-168.5"/>
<text text-anchor="middle" x="3104" y="-175.5" font-family="Helvetica,sans-Serif" font-size="10.00">cbookreadwindow.cpp</text>
</a>
</g>
</g>
<!-- Node1&#45;&gt;Node31 -->
<g id="edge61" class="edge">
<title>Node1&#45;&gt;Node31</title>
<path fill="none" stroke="midnightblue" d="M2882.29,-222.53C2934.23,-212.34 3012.23,-197.02 3060.53,-187.54"/>
<polygon fill="midnightblue" stroke="midnightblue" points="2881.41,-219.14 2872.27,-224.5 2882.76,-226.01 2881.41,-219.14"/>
</g>
<!-- Node4 -->
<g id="node4" class="node">
<title>Node4</title>
<g id="a_node4"><a xlink:href="../../d7/dd0/btbookmarksmodel_8cpp.html" target="_top" xlink:title=" ">
<polygon fill="white" stroke="black" points="4455,-112.5 4455,-131.5 4587,-131.5 4587,-112.5 4455,-112.5"/>
<text text-anchor="middle" x="4521" y="-119.5" font-family="Helvetica,sans-Serif" font-size="10.00">btbookmarksmodel.cpp</text>
</a>
</g>
</g>
<!-- Node3&#45;&gt;Node4 -->
<g id="edge3" class="edge">
<title>Node3&#45;&gt;Node4</title>
<path fill="none" stroke="midnightblue" d="M2841.53,-168.53C2843.03,-168.33 2844.53,-168.16 2846,-168 3553.31,-92.85 3736.5,-182.43 4446,-132 4448.88,-131.8 4451.82,-131.56 4454.78,-131.3"/>
<polygon fill="midnightblue" stroke="midnightblue" points="2840.87,-165.09 2831.51,-170.05 2841.92,-172.01 2840.87,-165.09"/>
</g>
<!-- Node5 -->
<g id="node5" class="node">
<title>Node5</title>
<g id="a_node5"><a xlink:href="../../dc/d53/ctextrendering_8h.html" target="_top" xlink:title=" ">
<polygon fill="white" stroke="red" points="4605.5,-112.5 4605.5,-131.5 4702.5,-131.5 4702.5,-112.5 4605.5,-112.5"/>
<text text-anchor="middle" x="4654" y="-119.5" font-family="Helvetica,sans-Serif" font-size="10.00">ctextrendering.h</text>
</a>
</g>
</g>
<!-- Node3&#45;&gt;Node5 -->
<g id="edge4" class="edge">
<title>Node3&#45;&gt;Node5</title>
<path fill="none" stroke="midnightblue" d="M2841.53,-168.53C2843.03,-168.33 2844.53,-168.15 2846,-168 3619.67,-86.56 3821.02,-199.79 4596,-132 4599.05,-131.73 4602.17,-131.41 4605.32,-131.04"/>
<polygon fill="midnightblue" stroke="midnightblue" points="2840.88,-165.09 2831.51,-170.04 2841.92,-172.01 2840.88,-165.09"/>
</g>
<!-- Node83 -->
<g id="node6" class="node">
<title>Node83</title>
<g id="a_node6"><a xlink:href="../../d6/d05/crossrefrendering_8h.html" target="_top" xlink:title=" ">
<polygon fill="white" stroke="red" points="4629.5,-56.5 4629.5,-75.5 4740.5,-75.5 4740.5,-56.5 4629.5,-56.5"/>
<text text-anchor="middle" x="4685" y="-63.5" font-family="Helvetica,sans-Serif" font-size="10.00">crossrefrendering.h</text>
</a>
</g>
</g>
<!-- Node3&#45;&gt;Node83 -->
<g id="edge24" class="edge">
<title>Node3&#45;&gt;Node83</title>
<path fill="none" stroke="midnightblue" d="M2841.53,-168.52C2843.03,-168.33 2844.53,-168.15 2846,-168 2897.56,-162.61 4675.7,-169.01 4712,-132 4727.74,-115.95 4706.91,-89.39 4693.94,-75.72"/>
<polygon fill="midnightblue" stroke="midnightblue" points="2840.88,-165.08 2831.51,-170.03 2841.92,-172 2840.88,-165.08"/>
</g>
<!-- Node23 -->
<g id="node7" class="node">
<title>Node23</title>
<g id="a_node7"><a xlink:href="../../da/d1a/btinforendering_8cpp.html" target="_top" xlink:title=" ">
<polygon fill="white" stroke="black" points="4629,-0.5 4629,-19.5 4741,-19.5 4741,-0.5 4629,-0.5"/>
<text text-anchor="middle" x="4685" y="-7.5" font-family="Helvetica,sans-Serif" font-size="10.00">btinforendering.cpp</text>
</a>
</g>
</g>
<!-- Node3&#45;&gt;Node23 -->
<g id="edge23" class="edge">
<title>Node3&#45;&gt;Node23</title>
<path fill="none" stroke="midnightblue" d="M2841.94,-169.47C2846.34,-168.89 2850.75,-168.38 2855,-168 2906.83,-163.36 4685.28,-161.72 4728,-132 4756.87,-111.92 4766.32,-87.15 4750,-56 4740.95,-38.74 4721.94,-26.78 4706.81,-19.55"/>
<polygon fill="midnightblue" stroke="midnightblue" points="2841.17,-166.05 2831.77,-170.94 2842.17,-172.98 2841.17,-166.05"/>
</g>
<!-- Node85 -->
<g id="node8" class="node">
<title>Node85</title>
<g id="a_node8"><a xlink:href="../../d2/db7/cdisplayrendering_8h.html" target="_top" xlink:title=" ">
<polygon fill="white" stroke="red" points="4835.5,-56.5 4835.5,-75.5 4948.5,-75.5 4948.5,-56.5 4835.5,-56.5"/>
<text text-anchor="middle" x="4892" y="-63.5" font-family="Helvetica,sans-Serif" font-size="10.00">cdisplayrendering.h</text>
</a>
</g>
</g>
<!-- Node3&#45;&gt;Node85 -->
<g id="edge25" class="edge">
<title>Node3&#45;&gt;Node85</title>
<path fill="none" stroke="midnightblue" d="M2841.53,-168.52C2843.03,-168.33 2844.53,-168.15 2846,-168 2955.15,-156.64 4719.08,-172.68 4821,-132 4850.18,-120.35 4874.79,-90.76 4885.81,-75.86"/>
<polygon fill="midnightblue" stroke="midnightblue" points="2840.88,-165.08 2831.51,-170.03 2841.92,-172 2840.88,-165.08"/>
</g>
<!-- Node86 -->
<g id="node9" class="node">
<title>Node86</title>
<g id="a_node9"><a xlink:href="../../dc/d52/cdisplayrendering_8cpp.html" target="_top" xlink:title=" ">
<polygon fill="white" stroke="black" points="4790,-0.5 4790,-19.5 4914,-19.5 4914,-0.5 4790,-0.5"/>
<text text-anchor="middle" x="4852" y="-7.5" font-family="Helvetica,sans-Serif" font-size="10.00">cdisplayrendering.cpp</text>
</a>
</g>
</g>
<!-- Node3&#45;&gt;Node86 -->
<g id="edge26" class="edge">
<title>Node3&#45;&gt;Node86</title>
<path fill="none" stroke="midnightblue" d="M2841.94,-169.47C2846.34,-168.89 2850.75,-168.38 2855,-168 2959.99,-158.61 4657.07,-177.81 4752,-132 4777.89,-119.51 4829.04,-45.41 4846.22,-19.74"/>
<polygon fill="midnightblue" stroke="midnightblue" points="2841.17,-166.05 2831.77,-170.94 2842.17,-172.97 2841.17,-166.05"/>
</g>
<!-- Node43 -->
<g id="node10" class="node">
<title>Node43</title>
<g id="a_node10"><a xlink:href="../../d2/d26/cdisplaywindow_8cpp.html" target="_top" xlink:title=" ">
<polygon fill="white" stroke="black" points="4962,-0.5 4962,-19.5 5076,-19.5 5076,-0.5 4962,-0.5"/>
<text text-anchor="middle" x="5019" y="-7.5" font-family="Helvetica,sans-Serif" font-size="10.00">cdisplaywindow.cpp</text>
</a>
</g>
</g>
<!-- Node3&#45;&gt;Node43 -->
<g id="edge46" class="edge">
<title>Node3&#45;&gt;Node43</title>
<path fill="none" stroke="midnightblue" d="M2841.94,-169.47C2846.34,-168.88 2850.75,-168.38 2855,-168 3080.37,-148 4669.21,-176.75 4891,-132 4914.46,-127.27 4918.25,-119.44 4941,-112 5002.06,-92.03 5041.63,-126.77 5081,-76 5097.91,-54.19 5061.8,-31.46 5037.9,-19.52"/>
<polygon fill="midnightblue" stroke="midnightblue" points="2841.17,-166.04 2831.77,-170.94 2842.17,-172.97 2841.17,-166.04"/>
</g>
<!-- Node88 -->
<g id="node11" class="node">
<title>Node88</title>
<g id="a_node11"><a xlink:href="../../d8/d8c/cplaintextexportrendering_8h.html" target="_top" xlink:title=" ">
<polygon fill="white" stroke="red" points="1323,-56.5 1323,-75.5 1475,-75.5 1475,-56.5 1323,-56.5"/>
<text text-anchor="middle" x="1399" y="-63.5" font-family="Helvetica,sans-Serif" font-size="10.00">cplaintextexportrendering.h</text>
</a>
</g>
</g>
<!-- Node3&#45;&gt;Node88 -->
<g id="edge27" class="edge">
<title>Node3&#45;&gt;Node88</title>
<path fill="none" stroke="midnightblue" d="M2755.83,-176.63C2428.76,-173.74 353.13,-154.53 331,-132 324.77,-125.66 324.85,-118.42 331,-112 365.26,-76.27 1084.36,-68.84 1322.88,-67.36"/>
<polygon fill="midnightblue" stroke="midnightblue" points="2756.26,-180.13 2766.29,-176.72 2756.32,-173.13 2756.26,-180.13"/>
</g>
<!-- Node64 -->
<g id="node12" class="node">
<title>Node64</title>
<g id="a_node12"><a xlink:href="../../de/d6e/btqmlinterface_8cpp.html" target="_top" xlink:title=" ">
<polygon fill="white" stroke="black" points="1344.5,-0.5 1344.5,-19.5 1453.5,-19.5 1453.5,-0.5 1344.5,-0.5"/>
<text text-anchor="middle" x="1399" y="-7.5" font-family="Helvetica,sans-Serif" font-size="10.00">btqmlinterface.cpp</text>
</a>
</g>
</g>
<!-- Node3&#45;&gt;Node64 -->
<g id="edge43" class="edge">
<title>Node3&#45;&gt;Node64</title>
<path fill="none" stroke="midnightblue" d="M2756.17,-176.63C2429.61,-173.77 345.21,-154.62 323,-132 316.77,-125.66 317.02,-118.57 323,-112 392.36,-35.83 1134.66,-16.02 1344.2,-11.92"/>
<polygon fill="midnightblue" stroke="midnightblue" points="2756.16,-180.13 2766.19,-176.72 2756.22,-173.13 2756.16,-180.13"/>
</g>
<!-- Node11 -->
<g id="node13" class="node">
<title>Node11</title>
<g id="a_node13"><a xlink:href="../../de/d4e/btconfig_8cpp.html" target="_top" xlink:title=" ">
<polygon fill="white" stroke="black" points="340,-112.5 340,-131.5 416,-131.5 416,-112.5 340,-112.5"/>
<text text-anchor="middle" x="378" y="-119.5" font-family="Helvetica,sans-Serif" font-size="10.00">btconfig.cpp</text>
</a>
</g>
</g>
<!-- Node3&#45;&gt;Node11 -->
<g id="edge14" class="edge">
<title>Node3&#45;&gt;Node11</title>
<path fill="none" stroke="midnightblue" d="M2756.07,-176.63C2455.01,-173.95 665.2,-157.09 425,-132 422.11,-131.7 419.13,-131.31 416.14,-130.87"/>
<polygon fill="midnightblue" stroke="midnightblue" points="2756.12,-180.13 2766.15,-176.72 2756.18,-173.13 2756.12,-180.13"/>
</g>
<!-- Node12 -->
<g id="node14" class="node">
<title>Node12</title>
<g id="a_node14"><a xlink:href="../../dd/d03/cswordmodulesearch_8cpp.html" target="_top" xlink:title=" ">
<polygon fill="white" stroke="black" points="434,-112.5 434,-131.5 574,-131.5 574,-112.5 434,-112.5"/>
<text text-anchor="middle" x="504" y="-119.5" font-family="Helvetica,sans-Serif" font-size="10.00">cswordmodulesearch.cpp</text>
</a>
</g>
</g>
<!-- Node3&#45;&gt;Node12 -->
<g id="edge15" class="edge">
<title>Node3&#45;&gt;Node12</title>
<path fill="none" stroke="midnightblue" d="M2756.05,-176.67C2486.8,-174.55 1028.42,-161.83 583,-132 580.11,-131.81 577.16,-131.58 574.18,-131.34"/>
<polygon fill="midnightblue" stroke="midnightblue" points="2756.18,-180.18 2766.2,-176.75 2756.23,-173.18 2756.18,-180.18"/>
</g>
<!-- Node14 -->
<g id="node15" class="node">
<title>Node14</title>
<g id="a_node15"><a xlink:href="../../d3/db9/cswordmoduleinfo_8cpp.html" target="_top" xlink:title=" ">
<polygon fill="white" stroke="black" points="592.5,-112.5 592.5,-131.5 719.5,-131.5 719.5,-112.5 592.5,-112.5"/>
<text text-anchor="middle" x="656" y="-119.5" font-family="Helvetica,sans-Serif" font-size="10.00">cswordmoduleinfo.cpp</text>
</a>
</g>
</g>
<!-- Node3&#45;&gt;Node14 -->
<g id="edge16" class="edge">
<title>Node3&#45;&gt;Node14</title>
<path fill="none" stroke="midnightblue" d="M2756.03,-176.67C2497.17,-174.58 1142.58,-162.33 728,-132 725.24,-131.8 722.42,-131.56 719.57,-131.31"/>
<polygon fill="midnightblue" stroke="midnightblue" points="2756.13,-180.17 2766.16,-176.75 2756.19,-173.17 2756.13,-180.17"/>
</g>
<!-- Node16 -->
<g id="node16" class="node">
<title>Node16</title>
<g id="a_node16"><a xlink:href="../../db/d7a/osistohtml_8cpp.html" target="_top" xlink:title=" ">
<polygon fill="white" stroke="black" points="737.5,-112.5 737.5,-131.5 826.5,-131.5 826.5,-112.5 737.5,-112.5"/>
<text text-anchor="middle" x="782" y="-119.5" font-family="Helvetica,sans-Serif" font-size="10.00">osistohtml.cpp</text>
</a>
</g>
</g>
<!-- Node3&#45;&gt;Node16 -->
<g id="edge17" class="edge">
<title>Node3&#45;&gt;Node16</title>
<path fill="none" stroke="midnightblue" d="M2756.3,-176.85C2506.03,-175.83 1227.25,-168.9 836,-132 832.97,-131.71 829.86,-131.36 826.72,-130.96"/>
<polygon fill="midnightblue" stroke="midnightblue" points="2756.43,-180.35 2766.44,-176.89 2756.45,-173.35 2756.43,-180.35"/>
</g>
<!-- Node17 -->
<g id="node17" class="node">
<title>Node17</title>
<g id="a_node17"><a xlink:href="../../d5/de5/teitohtml_8cpp.html" target="_top" xlink:title=" ">
<polygon fill="white" stroke="black" points="845,-112.5 845,-131.5 927,-131.5 927,-112.5 845,-112.5"/>
<text text-anchor="middle" x="886" y="-119.5" font-family="Helvetica,sans-Serif" font-size="10.00">teitohtml.cpp</text>
</a>
</g>
</g>
<!-- Node3&#45;&gt;Node17 -->
<g id="edge18" class="edge">
<title>Node3&#45;&gt;Node17</title>
<path fill="none" stroke="midnightblue" d="M2756.18,-176.86C2513.23,-175.94 1305.89,-169.53 936,-132 933.1,-131.71 930.12,-131.34 927.13,-130.92"/>
<polygon fill="midnightblue" stroke="midnightblue" points="2756.36,-180.36 2766.37,-176.9 2756.38,-173.36 2756.36,-180.36"/>
</g>
<!-- Node18 -->
<g id="node18" class="node">
<title>Node18</title>
<g id="a_node18"><a xlink:href="../../d9/de8/thmltohtml_8cpp.html" target="_top" xlink:title=" ">
<polygon fill="white" stroke="black" points="945,-112.5 945,-131.5 1037,-131.5 1037,-112.5 945,-112.5"/>
<text text-anchor="middle" x="991" y="-119.5" font-family="Helvetica,sans-Serif" font-size="10.00">thmltohtml.cpp</text>
</a>
</g>
</g>
<!-- Node3&#45;&gt;Node18 -->
<g id="edge19" class="edge">
<title>Node3&#45;&gt;Node18</title>
<path fill="none" stroke="midnightblue" d="M2756.14,-176.69C2521.74,-174.9 1393.02,-164.69 1046,-132 1043.11,-131.73 1040.14,-131.4 1037.15,-131.02"/>
<polygon fill="midnightblue" stroke="midnightblue" points="2756.28,-180.2 2766.3,-176.77 2756.33,-173.2 2756.28,-180.2"/>
</g>
<!-- Node19 -->
<g id="node19" class="node">
<title>Node19</title>
<g id="a_node19"><a xlink:href="../../d4/d47/cdisplaytemplatemgr_8cpp.html" target="_top" xlink:title=" ">
<polygon fill="white" stroke="black" points="1055,-112.5 1055,-131.5 1195,-131.5 1195,-112.5 1055,-112.5"/>
<text text-anchor="middle" x="1125" y="-119.5" font-family="Helvetica,sans-Serif" font-size="10.00">cdisplaytemplatemgr.cpp</text>
</a>
</g>
</g>
<!-- Node3&#45;&gt;Node19 -->
<g id="edge20" class="edge">
<title>Node3&#45;&gt;Node19</title>
<path fill="none" stroke="midnightblue" d="M2756.24,-177.13C2570.98,-177.41 1819.31,-175.65 1204,-132 1201.11,-131.79 1198.16,-131.56 1195.18,-131.31"/>
<polygon fill="midnightblue" stroke="midnightblue" points="2756.39,-180.63 2766.38,-177.11 2756.37,-173.63 2756.39,-180.63"/>
</g>
<!-- Node20 -->
<g id="node20" class="node">
<title>Node20</title>
<g id="a_node20"><a xlink:href="../../d9/d7b/cswordbackend_8cpp.html" target="_top" xlink:title=" ">
<polygon fill="white" stroke="black" points="1213,-112.5 1213,-131.5 1325,-131.5 1325,-112.5 1213,-112.5"/>
<text text-anchor="middle" x="1269" y="-119.5" font-family="Helvetica,sans-Serif" font-size="10.00">cswordbackend.cpp</text>
</a>
</g>
</g>
<!-- Node3&#45;&gt;Node20 -->
<g id="edge21" class="edge">
<title>Node3&#45;&gt;Node20</title>
<path fill="none" stroke="midnightblue" d="M2756.31,-177.35C2580.45,-178.46 1894.95,-179.31 1334,-132 1331.16,-131.76 1328.26,-131.48 1325.33,-131.17"/>
<polygon fill="midnightblue" stroke="midnightblue" points="2756.47,-180.85 2766.45,-177.29 2756.42,-173.85 2756.47,-180.85"/>
</g>
<!-- Node21 -->
<g id="node21" class="node">
<title>Node21</title>
<g id="a_node21"><a xlink:href="../../d7/dfe/referencemanager_8cpp.html" target="_top" xlink:title=" ">
<polygon fill="white" stroke="black" points="1343,-112.5 1343,-131.5 1469,-131.5 1469,-112.5 1343,-112.5"/>
<text text-anchor="middle" x="1406" y="-119.5" font-family="Helvetica,sans-Serif" font-size="10.00">referencemanager.cpp</text>
</a>
</g>
</g>
<!-- Node3&#45;&gt;Node21 -->
<g id="edge22" class="edge">
<title>Node3&#45;&gt;Node21</title>
<path fill="none" stroke="midnightblue" d="M2756.01,-176.94C2590.6,-176.43 1979.4,-171.8 1478,-132 1475.11,-131.77 1472.16,-131.51 1469.18,-131.23"/>
<polygon fill="midnightblue" stroke="midnightblue" points="2756.25,-180.45 2766.26,-176.97 2756.27,-173.45 2756.25,-180.45"/>
</g>
<!-- Node27 -->
<g id="node22" class="node">
<title>Node27</title>
<g id="a_node22"><a xlink:href="../../d1/df6/bibletime_8cpp.html" target="_top" xlink:title=" ">
<polygon fill="white" stroke="black" points="1487.5,-112.5 1487.5,-131.5 1570.5,-131.5 1570.5,-112.5 1487.5,-112.5"/>
<text text-anchor="middle" x="1529" y="-119.5" font-family="Helvetica,sans-Serif" font-size="10.00">bibletime.cpp</text>
</a>
</g>
</g>
<!-- Node3&#45;&gt;Node27 -->
<g id="edge28" class="edge">
<title>Node3&#45;&gt;Node27</title>
<path fill="none" stroke="midnightblue" d="M2756.18,-176.21C2568.22,-172.63 1815.23,-156.98 1580,-132 1576.96,-131.68 1573.83,-131.28 1570.68,-130.84"/>
<polygon fill="midnightblue" stroke="midnightblue" points="2756.16,-179.71 2766.23,-176.4 2756.29,-172.71 2756.16,-179.71"/>
</g>
<!-- Node92 -->
<g id="node23" class="node">
<title>Node92</title>
<g id="a_node23"><a xlink:href="../../d0/df0/cexportmanager_8h.html" target="_top" xlink:title=" ">
<polygon fill="white" stroke="red" points="4966.5,-56.5 4966.5,-75.5 5071.5,-75.5 5071.5,-56.5 4966.5,-56.5"/>
<text text-anchor="middle" x="5019" y="-63.5" font-family="Helvetica,sans-Serif" font-size="10.00">cexportmanager.h</text>
</a>
</g>
</g>
<!-- Node3&#45;&gt;Node92 -->
<g id="edge29" class="edge">
<title>Node3&#45;&gt;Node92</title>
<path fill="none" stroke="midnightblue" d="M2841.94,-169.47C2846.34,-168.89 2850.75,-168.38 2855,-168 3075.83,-148.36 4632.4,-174.44 4850,-132 4865.12,-129.05 4956.15,-92.52 4997.99,-75.55"/>
<polygon fill="midnightblue" stroke="midnightblue" points="2841.17,-166.04 2831.77,-170.94 2842.17,-172.97 2841.17,-166.04"/>
</g>
<!-- Node47 -->
<g id="node24" class="node">
<title>Node47</title>
<g id="a_node24"><a xlink:href="../../da/dc7/bibletime__init_8cpp.html" target="_top" xlink:title=" ">
<polygon fill="white" stroke="black" points="142,-112.5 142,-131.5 246,-131.5 246,-112.5 142,-112.5"/>
<text text-anchor="middle" x="194" y="-119.5" font-family="Helvetica,sans-Serif" font-size="10.00">bibletime_init.cpp</text>
</a>
</g>
</g>
<!-- Node3&#45;&gt;Node47 -->
<g id="edge31" class="edge">
<title>Node3&#45;&gt;Node47</title>
<path fill="none" stroke="midnightblue" d="M2756.08,-176.54C2443.21,-173.19 518.34,-151.83 260,-132 255.5,-131.65 250.84,-131.21 246.18,-130.69"/>
<polygon fill="midnightblue" stroke="midnightblue" points="2756.08,-180.04 2766.11,-176.65 2756.15,-173.05 2756.08,-180.04"/>
</g>
<!-- Node36 -->
<g id="node25" class="node">
<title>Node36</title>
<g id="a_node25"><a xlink:href="../../d6/d96/bibletime__slots_8cpp.html" target="_top" xlink:title=" ">
<polygon fill="white" stroke="black" points="1589,-112.5 1589,-131.5 1701,-131.5 1701,-112.5 1589,-112.5"/>
<text text-anchor="middle" x="1645" y="-119.5" font-family="Helvetica,sans-Serif" font-size="10.00">bibletime_slots.cpp</text>
</a>
</g>
</g>
<!-- Node3&#45;&gt;Node36 -->
<g id="edge32" class="edge">
<title>Node3&#45;&gt;Node36</title>
<path fill="none" stroke="midnightblue" d="M2756.07,-176.71C2609.56,-175.4 2115.88,-168.4 1710,-132 1707.16,-131.75 1704.26,-131.46 1701.33,-131.14"/>
<polygon fill="midnightblue" stroke="midnightblue" points="2756.38,-180.21 2766.41,-176.8 2756.44,-173.21 2756.38,-180.21"/>
</g>
<!-- Node48 -->
<g id="node26" class="node">
<title>Node48</title>
<g id="a_node26"><a xlink:href="../../d5/d86/bibletimeapp_8cpp.html" target="_top" xlink:title=" ">
<polygon fill="white" stroke="black" points="1719.5,-112.5 1719.5,-131.5 1820.5,-131.5 1820.5,-112.5 1719.5,-112.5"/>
<text text-anchor="middle" x="1770" y="-119.5" font-family="Helvetica,sans-Serif" font-size="10.00">bibletimeapp.cpp</text>
</a>
</g>
</g>
<!-- Node3&#45;&gt;Node48 -->
<g id="edge33" class="edge">
<title>Node3&#45;&gt;Node48</title>
<path fill="none" stroke="midnightblue" d="M2756.25,-176.62C2620.35,-175.06 2186.25,-167.44 1829,-132 1826.32,-131.73 1823.57,-131.43 1820.81,-131.1"/>
<polygon fill="midnightblue" stroke="midnightblue" points="2756.21,-180.12 2766.25,-176.73 2756.29,-173.12 2756.21,-180.12"/>
</g>
<!-- Node45 -->
<g id="node27" class="node">
<title>Node45</title>
<g id="a_node27"><a xlink:href="../../d9/de6/cbookmarkindex_8cpp.html" target="_top" xlink:title=" ">
<polygon fill="white" stroke="black" points="1838.5,-112.5 1838.5,-131.5 1957.5,-131.5 1957.5,-112.5 1838.5,-112.5"/>
<text text-anchor="middle" x="1898" y="-119.5" font-family="Helvetica,sans-Serif" font-size="10.00">cbookmarkindex.cpp</text>
</a>
</g>
</g>
<!-- Node3&#45;&gt;Node45 -->
<g id="edge34" class="edge">
<title>Node3&#45;&gt;Node45</title>
<path fill="none" stroke="midnightblue" d="M2756.31,-175.83C2633.47,-172.22 2268.63,-159.79 1967,-132 1963.99,-131.72 1960.91,-131.41 1957.81,-131.08"/>
<polygon fill="midnightblue" stroke="midnightblue" points="2756.33,-179.33 2766.43,-176.12 2756.53,-172.34 2756.33,-179.33"/>
</g>
<!-- Node53 -->
<g id="node28" class="node">
<title>Node53</title>
<g id="a_node28"><a xlink:href="../../d0/da5/btbookshelflanguagespage_8cpp.html" target="_top" xlink:title=" ">
<polygon fill="white" stroke="black" points="1976,-112.5 1976,-131.5 2144,-131.5 2144,-112.5 1976,-112.5"/>
<text text-anchor="middle" x="2060" y="-119.5" font-family="Helvetica,sans-Serif" font-size="10.00">btbookshelflanguagespage.cpp</text>
</a>
</g>
</g>
<!-- Node3&#45;&gt;Node53 -->
<g id="edge35" class="edge">
<title>Node3&#45;&gt;Node53</title>
<path fill="none" stroke="midnightblue" d="M2756.32,-174.43C2652.8,-168.09 2380.2,-150.9 2153,-132 2150.09,-131.76 2147.13,-131.51 2144.14,-131.25"/>
<polygon fill="midnightblue" stroke="midnightblue" points="2756.18,-177.92 2766.37,-175.04 2756.61,-170.94 2756.18,-177.92"/>
</g>
<!-- Node94 -->
<g id="node29" class="node">
<title>Node94</title>
<g id="a_node29"><a xlink:href="../../da/dde/btbookshelfsourcespage_8cpp.html" target="_top" xlink:title=" ">
<polygon fill="white" stroke="black" points="2162,-112.5 2162,-131.5 2318,-131.5 2318,-112.5 2162,-112.5"/>
<text text-anchor="middle" x="2240" y="-119.5" font-family="Helvetica,sans-Serif" font-size="10.00">btbookshelfsourcespage.cpp</text>
</a>
</g>
</g>
<!-- Node3&#45;&gt;Node94 -->
<g id="edge36" class="edge">
<title>Node3&#45;&gt;Node94</title>
<path fill="none" stroke="midnightblue" d="M2756.34,-173.05C2673.54,-165.35 2485.28,-147.73 2327,-132 2324.13,-131.71 2321.21,-131.42 2318.25,-131.12"/>
<polygon fill="midnightblue" stroke="midnightblue" points="2756.09,-176.54 2766.37,-173.98 2756.74,-169.57 2756.09,-176.54"/>
</g>
<!-- Node57 -->
<g id="node30" class="node">
<title>Node57</title>
<g id="a_node30"><a xlink:href="../../d6/d54/btbookshelfwizard_8cpp.html" target="_top" xlink:title=" ">
<polygon fill="white" stroke="black" points="2336,-112.5 2336,-131.5 2462,-131.5 2462,-112.5 2336,-112.5"/>
<text text-anchor="middle" x="2399" y="-119.5" font-family="Helvetica,sans-Serif" font-size="10.00">btbookshelfwizard.cpp</text>
</a>
</g>
</g>
<!-- Node3&#45;&gt;Node57 -->
<g id="edge37" class="edge">
<title>Node3&#45;&gt;Node57</title>
<path fill="none" stroke="midnightblue" d="M2755.94,-171.19C2685.19,-161.64 2544.02,-142.58 2462.01,-131.51"/>
<polygon fill="midnightblue" stroke="midnightblue" points="2755.89,-174.71 2766.27,-172.58 2756.82,-167.77 2755.89,-174.71"/>
</g>
<!-- Node58 -->
<g id="node31" class="node">
<title>Node58</title>
<g id="a_node31"><a xlink:href="../../d9/d03/btbookshelfworkspage_8cpp.html" target="_top" xlink:title=" ">
<polygon fill="white" stroke="black" points="2480.5,-112.5 2480.5,-131.5 2627.5,-131.5 2627.5,-112.5 2480.5,-112.5"/>
<text text-anchor="middle" x="2554" y="-119.5" font-family="Helvetica,sans-Serif" font-size="10.00">btbookshelfworkspage.cpp</text>
</a>
</g>
</g>
<!-- Node3&#45;&gt;Node58 -->
<g id="edge38" class="edge">
<title>Node3&#45;&gt;Node58</title>
<path fill="none" stroke="midnightblue" d="M2756.48,-167.63C2710.35,-157.46 2637.33,-141.37 2592.73,-131.54"/>
<polygon fill="midnightblue" stroke="midnightblue" points="2755.95,-171.09 2766.47,-169.83 2757.45,-164.26 2755.95,-171.09"/>
</g>
<!-- Node60 -->
<g id="node32" class="node">
<title>Node60</title>
<g id="a_node32"><a xlink:href="../../df/d88/btbookshelfdockwidget_8cpp.html" target="_top" xlink:title=" ">
<polygon fill="white" stroke="black" points="2645.5,-112.5 2645.5,-131.5 2796.5,-131.5 2796.5,-112.5 2645.5,-112.5"/>
<text text-anchor="middle" x="2721" y="-119.5" font-family="Helvetica,sans-Serif" font-size="10.00">btbookshelfdockwidget.cpp</text>
</a>
</g>
</g>
<!-- Node3&#45;&gt;Node60 -->
<g id="edge39" class="edge">
<title>Node3&#45;&gt;Node60</title>
<path fill="none" stroke="midnightblue" d="M2778.23,-162.62C2763.98,-152.76 2745.54,-139.99 2733.5,-131.65"/>
<polygon fill="midnightblue" stroke="midnightblue" points="2776.25,-165.51 2786.47,-168.32 2780.24,-159.75 2776.25,-165.51"/>
</g>
<!-- Node95 -->
<g id="node33" class="node">
<title>Node95</title>
<g id="a_node33"><a xlink:href="../../d9/d70/btbookshelfwidget_8cpp.html" target="_top" xlink:title=" ">
<polygon fill="white" stroke="black" points="2814.5,-112.5 2814.5,-131.5 2941.5,-131.5 2941.5,-112.5 2814.5,-112.5"/>
<text text-anchor="middle" x="2878" y="-119.5" font-family="Helvetica,sans-Serif" font-size="10.00">btbookshelfwidget.cpp</text>
</a>
</g>
</g>
<!-- Node3&#45;&gt;Node95 -->
<g id="edge40" class="edge">
<title>Node3&#45;&gt;Node95</title>
<path fill="none" stroke="midnightblue" d="M2820.03,-162.62C2834.47,-152.76 2853.14,-139.99 2865.34,-131.65"/>
<polygon fill="midnightblue" stroke="midnightblue" points="2817.97,-159.79 2811.69,-168.32 2821.92,-165.57 2817.97,-159.79"/>
</g>
<!-- Node50 -->
<g id="node34" class="node">
<title>Node50</title>
<g id="a_node34"><a xlink:href="../../d0/dae/btprinter_8cpp.html" target="_top" xlink:title=" ">
<polygon fill="white" stroke="black" points="2960,-112.5 2960,-131.5 3038,-131.5 3038,-112.5 2960,-112.5"/>
<text text-anchor="middle" x="2999" y="-119.5" font-family="Helvetica,sans-Serif" font-size="10.00">btprinter.cpp</text>
</a>
</g>
</g>
<!-- Node3&#45;&gt;Node50 -->
<g id="edge41" class="edge">
<title>Node3&#45;&gt;Node50</title>
<path fill="none" stroke="midnightblue" d="M2840.37,-165.83C2878.14,-155.63 2933.14,-140.78 2967.46,-131.52"/>
<polygon fill="midnightblue" stroke="midnightblue" points="2839.43,-162.46 2830.69,-168.44 2841.26,-169.22 2839.43,-162.46"/>
</g>
<!-- Node96 -->
<g id="node35" class="node">
<title>Node96</title>
<g id="a_node35"><a xlink:href="../../d5/d80/cinfodisplay_8cpp.html" target="_top" xlink:title=" ">
<polygon fill="white" stroke="black" points="3056.5,-112.5 3056.5,-131.5 3151.5,-131.5 3151.5,-112.5 3056.5,-112.5"/>
<text text-anchor="middle" x="3104" y="-119.5" font-family="Helvetica,sans-Serif" font-size="10.00">cinfodisplay.cpp</text>
</a>
</g>
</g>
<!-- Node3&#45;&gt;Node96 -->
<g id="edge42" class="edge">
<title>Node3&#45;&gt;Node96</title>
<path fill="none" stroke="midnightblue" d="M2841.57,-168.82C2843.06,-168.54 2844.54,-168.27 2846,-168 2919.35,-154.58 3004.6,-139.89 3056.41,-131.06"/>
<polygon fill="midnightblue" stroke="midnightblue" points="2840.79,-165.4 2831.6,-170.68 2842.08,-172.28 2840.79,-165.4"/>
</g>
<!-- Node97 -->
<g id="node36" class="node">
<title>Node97</title>
<g id="a_node36"><a xlink:href="../../df/d7b/btactioncollection_8cpp.html" target="_top" xlink:title=" ">
<polygon fill="white" stroke="black" points="3170,-112.5 3170,-131.5 3294,-131.5 3294,-112.5 3170,-112.5"/>
<text text-anchor="middle" x="3232" y="-119.5" font-family="Helvetica,sans-Serif" font-size="10.00">btactioncollection.cpp</text>
</a>
</g>
</g>
<!-- Node3&#45;&gt;Node97 -->
<g id="edge44" class="edge">
<title>Node3&#45;&gt;Node97</title>
<path fill="none" stroke="midnightblue" d="M2841.55,-168.7C2843.05,-168.46 2844.54,-168.22 2846,-168 2985.3,-146.73 3021.1,-148.86 3161,-132 3163.84,-131.66 3166.74,-131.3 3169.67,-130.95"/>
<polygon fill="midnightblue" stroke="midnightblue" points="2840.82,-165.28 2831.56,-170.44 2842.01,-172.18 2840.82,-165.28"/>
</g>
<!-- Node66 -->
<g id="node37" class="node">
<title>Node66</title>
<g id="a_node37"><a xlink:href="../../dd/ddc/btmodulechoosermenu_8cpp.html" target="_top" xlink:title=" ">
<polygon fill="white" stroke="black" points="3312.5,-112.5 3312.5,-131.5 3461.5,-131.5 3461.5,-112.5 3312.5,-112.5"/>
<text text-anchor="middle" x="3387" y="-119.5" font-family="Helvetica,sans-Serif" font-size="10.00">btmodulechoosermenu.cpp</text>
</a>
</g>
</g>
<!-- Node3&#45;&gt;Node66 -->
<g id="edge45" class="edge">
<title>Node3&#45;&gt;Node66</title>
<path fill="none" stroke="midnightblue" d="M2841.54,-168.64C2843.04,-168.41 2844.53,-168.2 2846,-168 3047.92,-140.8 3100.13,-150.85 3303,-132 3306.07,-131.71 3309.2,-131.42 3312.36,-131.11"/>
<polygon fill="midnightblue" stroke="midnightblue" points="2840.84,-165.21 2831.54,-170.29 2841.98,-172.11 2840.84,-165.21"/>
</g>
<!-- Node3&#45;&gt;Node98 -->
<g id="edge47" class="edge">
<title>Node3&#45;&gt;Node98</title>
<path fill="none" stroke="midnightblue" d="M2841.53,-168.52C2843.03,-168.33 2844.53,-168.15 2846,-168 3307.82,-120.16 4471.96,-166.08 4935,-132 4939.7,-131.65 4944.57,-131.2 4949.44,-130.69"/>
<polygon fill="midnightblue" stroke="midnightblue" points="2840.88,-165.08 2831.51,-170.02 2841.92,-172 2840.88,-165.08"/>
</g>
<!-- Node99 -->
<g id="node39" class="node">
<title>Node99</title>
<g id="a_node39"><a xlink:href="../../da/dae/btedittextwizard_8cpp.html" target="_top" xlink:title=" ">
<polygon fill="white" stroke="black" points="3479.5,-112.5 3479.5,-131.5 3596.5,-131.5 3596.5,-112.5 3479.5,-112.5"/>
<text text-anchor="middle" x="3538" y="-119.5" font-family="Helvetica,sans-Serif" font-size="10.00">btedittextwizard.cpp</text>
</a>
</g>
</g>
<!-- Node3&#45;&gt;Node99 -->
<g id="edge48" class="edge">
<title>Node3&#45;&gt;Node99</title>
<path fill="none" stroke="midnightblue" d="M2841.53,-168.6C2843.04,-168.38 2844.53,-168.18 2846,-168 3122.12,-133.76 3194.03,-158.54 3471,-132 3473.69,-131.74 3476.43,-131.46 3479.2,-131.16"/>
<polygon fill="midnightblue" stroke="midnightblue" points="2840.85,-165.16 2831.53,-170.2 2841.96,-172.07 2840.85,-165.16"/>
</g>
<!-- Node100 -->
<g id="node40" class="node">
<title>Node100</title>
<g id="a_node40"><a xlink:href="../../dd/d72/cbookkeychooser_8cpp.html" target="_top" xlink:title=" ">
<polygon fill="white" stroke="black" points="3614.5,-112.5 3614.5,-131.5 3735.5,-131.5 3735.5,-112.5 3614.5,-112.5"/>
<text text-anchor="middle" x="3675" y="-119.5" font-family="Helvetica,sans-Serif" font-size="10.00">cbookkeychooser.cpp</text>
</a>
</g>
</g>
<!-- Node3&#45;&gt;Node100 -->
<g id="edge49" class="edge">
<title>Node3&#45;&gt;Node100</title>
<path fill="none" stroke="midnightblue" d="M2841.53,-168.58C2843.04,-168.37 2844.53,-168.17 2846,-168 3181.79,-128.1 3269.17,-161.89 3606,-132 3608.77,-131.75 3611.59,-131.48 3614.45,-131.18"/>
<polygon fill="midnightblue" stroke="midnightblue" points="2840.86,-165.14 2831.52,-170.15 2841.95,-172.06 2840.86,-165.14"/>
</g>
<!-- Node101 -->
<g id="node41" class="node">
<title>Node101</title>
<g id="a_node41"><a xlink:href="../../d0/da4/cbooktreechooser_8cpp.html" target="_top" xlink:title=" ">
<polygon fill="white" stroke="black" points="3753.5,-112.5 3753.5,-131.5 3876.5,-131.5 3876.5,-112.5 3753.5,-112.5"/>
<text text-anchor="middle" x="3815" y="-119.5" font-family="Helvetica,sans-Serif" font-size="10.00">cbooktreechooser.cpp</text>
</a>
</g>
</g>
<!-- Node3&#45;&gt;Node101 -->
<g id="edge50" class="edge">
<title>Node3&#45;&gt;Node101</title>
<path fill="none" stroke="midnightblue" d="M2841.53,-168.56C2843.04,-168.36 2844.53,-168.17 2846,-168 3243.25,-122.27 3346.53,-165.53 3745,-132 3747.69,-131.77 3750.43,-131.52 3753.19,-131.25"/>
<polygon fill="midnightblue" stroke="midnightblue" points="2840.86,-165.13 2831.52,-170.12 2841.94,-172.04 2840.86,-165.13"/>
</g>
<!-- Node68 -->
<g id="node42" class="node">
<title>Node68</title>
<g id="a_node42"><a xlink:href="../../df/d0a/main_8cpp.html" target="_top" xlink:title=" ">
<polygon fill="white" stroke="black" points="3895,-112.5 3895,-131.5 3957,-131.5 3957,-112.5 3895,-112.5"/>
<text text-anchor="middle" x="3926" y="-119.5" font-family="Helvetica,sans-Serif" font-size="10.00">main.cpp</text>
</a>
</g>
</g>
<!-- Node3&#45;&gt;Node68 -->
<g id="edge51" class="edge">
<title>Node3&#45;&gt;Node68</title>
<path fill="none" stroke="midnightblue" d="M2841.53,-168.55C2843.04,-168.35 2844.53,-168.17 2846,-168 3305.61,-116.35 3427.28,-191.02 3886,-132 3888.82,-131.64 3891.74,-131.17 3894.66,-130.63"/>
<polygon fill="midnightblue" stroke="midnightblue" points="2840.87,-165.11 2831.52,-170.1 2841.93,-172.03 2840.87,-165.11"/>
</g>
<!-- Node69 -->
<g id="node43" class="node">
<title>Node69</title>
<g id="a_node43"><a xlink:href="../../d4/d57/btindexdialog_8cpp.html" target="_top" xlink:title=" ">
<polygon fill="white" stroke="black" points="3975,-112.5 3975,-131.5 4079,-131.5 4079,-112.5 3975,-112.5"/>
<text text-anchor="middle" x="4027" y="-119.5" font-family="Helvetica,sans-Serif" font-size="10.00">btindexdialog.cpp</text>
</a>
</g>
</g>
<!-- Node3&#45;&gt;Node69 -->
<g id="edge52" class="edge">
<title>Node3&#45;&gt;Node69</title>
<path fill="none" stroke="midnightblue" d="M2841.53,-168.55C2843.04,-168.35 2844.53,-168.16 2846,-168 3340.99,-113 3469.95,-176.42 3966,-132 3968.88,-131.74 3971.83,-131.44 3974.8,-131.1"/>
<polygon fill="midnightblue" stroke="midnightblue" points="2840.87,-165.11 2831.52,-170.09 2841.93,-172.03 2840.87,-165.11"/>
</g>
<!-- Node70 -->
<g id="node44" class="node">
<title>Node70</title>
<g id="a_node44"><a xlink:href="../../dc/dab/btsearchmodulechooserdialog_8cpp.html" target="_top" xlink:title=" ">
<polygon fill="white" stroke="black" points="4097,-112.5 4097,-131.5 4281,-131.5 4281,-112.5 4097,-112.5"/>
<text text-anchor="middle" x="4189" y="-119.5" font-family="Helvetica,sans-Serif" font-size="10.00">btsearchmodulechooserdialog.cpp</text>
</a>
</g>
</g>
<!-- Node3&#45;&gt;Node70 -->
<g id="edge53" class="edge">
<title>Node3&#45;&gt;Node70</title>
<path fill="none" stroke="midnightblue" d="M2841.53,-168.54C2843.04,-168.34 2844.53,-168.16 2846,-168 3394.95,-107.88 3536.73,-164.52 4088,-132 4090.9,-131.83 4093.85,-131.64 4096.82,-131.44"/>
<polygon fill="midnightblue" stroke="midnightblue" points="2840.87,-165.1 2831.51,-170.07 2841.93,-172.02 2840.87,-165.1"/>
</g>
<!-- Node71 -->
<g id="node45" class="node">
<title>Node71</title>
<g id="a_node45"><a xlink:href="../../d4/d4d/btsearchoptionsarea_8cpp.html" target="_top" xlink:title=" ">
<polygon fill="white" stroke="black" points="4299.5,-112.5 4299.5,-131.5 4436.5,-131.5 4436.5,-112.5 4299.5,-112.5"/>
<text text-anchor="middle" x="4368" y="-119.5" font-family="Helvetica,sans-Serif" font-size="10.00">btsearchoptionsarea.cpp</text>
</a>
</g>
</g>
<!-- Node3&#45;&gt;Node71 -->
<g id="edge54" class="edge">
<title>Node3&#45;&gt;Node71</title>
<path fill="none" stroke="midnightblue" d="M2841.53,-168.54C2843.03,-168.34 2844.53,-168.16 2846,-168 3484.3,-99.4 3649.59,-176.84 4290,-132 4292.99,-131.79 4296.05,-131.55 4299.13,-131.29"/>
<polygon fill="midnightblue" stroke="midnightblue" points="2840.87,-165.09 2831.51,-170.06 2841.92,-172.02 2840.87,-165.09"/>
</g>
<!-- Node3&#45;&gt;Node104 -->
<g id="edge55" class="edge">
<title>Node3&#45;&gt;Node104</title>
<path fill="none" stroke="midnightblue" d="M2841.64,-171.73C2855.17,-170.27 2870.19,-168.84 2884,-168 3852.99,-108.83 4100.16,-207.74 5068,-132 5070.91,-131.77 5073.89,-131.5 5076.89,-131.19"/>
<polygon fill="midnightblue" stroke="midnightblue" points="2841.18,-168.26 2831.64,-172.86 2841.97,-175.22 2841.18,-168.26"/>
</g>
<!-- Node5&#45;&gt;Node83 -->
<g id="edge5" class="edge">
<title>Node5&#45;&gt;Node83</title>
<path fill="none" stroke="midnightblue" d="M4664.18,-103.27C4669.47,-94.05 4675.72,-83.17 4679.98,-75.75"/>
<polygon fill="midnightblue" stroke="midnightblue" points="4661.06,-101.67 4659.12,-112.08 4667.13,-105.15 4661.06,-101.67"/>
</g>
<!-- Node5&#45;&gt;Node23 -->
<g id="edge7" class="edge">
<title>Node5&#45;&gt;Node23</title>
<path fill="none" stroke="midnightblue" d="M4636.58,-104.77C4624.65,-91.6 4612.4,-72.56 4621,-56 4629.89,-38.88 4648.61,-26.91 4663.52,-19.64"/>
<polygon fill="midnightblue" stroke="midnightblue" points="4634.29,-107.44 4643.78,-112.14 4639.3,-102.54 4634.29,-107.44"/>
</g>
<!-- Node5&#45;&gt;Node85 -->
<g id="edge8" class="edge">
<title>Node5&#45;&gt;Node85</title>
<path fill="none" stroke="midnightblue" d="M4701.52,-110.22C4746.5,-100.01 4813.1,-84.9 4854.46,-75.52"/>
<polygon fill="midnightblue" stroke="midnightblue" points="4700.69,-106.82 4691.71,-112.44 4702.24,-113.64 4700.69,-106.82"/>
</g>
<!-- Node5&#45;&gt;Node88 -->
<g id="edge11" class="edge">
<title>Node5&#45;&gt;Node88</title>
<path fill="none" stroke="midnightblue" d="M4595.12,-112.13C4230.82,-84.8 1924.83,-70.07 1475,-67.43"/>
<polygon fill="midnightblue" stroke="midnightblue" points="4595.08,-115.64 4605.33,-112.94 4595.63,-108.66 4595.08,-115.64"/>
</g>
<!-- Node5&#45;&gt;Node64 -->
<g id="edge13" class="edge">
<title>Node5&#45;&gt;Node64</title>
<path fill="none" stroke="midnightblue" d="M4595.13,-112.07C3928.69,-51.59 1820.91,-17.39 1453.79,-11.81"/>
<polygon fill="midnightblue" stroke="midnightblue" points="4595.04,-115.57 4605.32,-113 4595.68,-108.6 4595.04,-115.57"/>
</g>
<!-- Node83&#45;&gt;Node23 -->
<g id="edge6" class="edge">
<title>Node83&#45;&gt;Node23</title>
<path fill="none" stroke="midnightblue" d="M4685,-45.8C4685,-36.91 4685,-26.78 4685,-19.75"/>
<polygon fill="midnightblue" stroke="midnightblue" points="4681.5,-46.08 4685,-56.08 4688.5,-46.08 4681.5,-46.08"/>
</g>
<!-- Node85&#45;&gt;Node86 -->
<g id="edge9" class="edge">
<title>Node85&#45;&gt;Node86</title>
<path fill="none" stroke="midnightblue" d="M4879.3,-47.86C4872.37,-38.5 4864.09,-27.33 4858.48,-19.75"/>
<polygon fill="midnightblue" stroke="midnightblue" points="4876.63,-50.13 4885.39,-56.08 4882.25,-45.96 4876.63,-50.13"/>
</g>
<!-- Node85&#45;&gt;Node43 -->
<g id="edge10" class="edge">
<title>Node85&#45;&gt;Node43</title>
<path fill="none" stroke="midnightblue" d="M4921.39,-52.5C4945.2,-42.38 4978.11,-28.39 4998.97,-19.52"/>
<polygon fill="midnightblue" stroke="midnightblue" points="4919.96,-49.31 4912.12,-56.44 4922.7,-55.75 4919.96,-49.31"/>
</g>
<!-- Node88&#45;&gt;Node64 -->
<g id="edge12" class="edge">
<title>Node88&#45;&gt;Node64</title>
<path fill="none" stroke="midnightblue" d="M1399,-45.8C1399,-36.91 1399,-26.78 1399,-19.75"/>
<polygon fill="midnightblue" stroke="midnightblue" points="1395.5,-46.08 1399,-56.08 1402.5,-46.08 1395.5,-46.08"/>
</g>
<!-- Node92&#45;&gt;Node43 -->
<g id="edge30" class="edge">
<title>Node92&#45;&gt;Node43</title>
<path fill="none" stroke="midnightblue" d="M5019,-45.8C5019,-36.91 5019,-26.78 5019,-19.75"/>
<polygon fill="midnightblue" stroke="midnightblue" points="5015.5,-46.08 5019,-56.08 5022.5,-46.08 5015.5,-46.08"/>
</g>
<!-- Node107&#45;&gt;Node47 -->
<g id="edge58" class="edge">
<title>Node107&#45;&gt;Node47</title>
<path fill="none" stroke="midnightblue" d="M1415.46,-168.37C1413.96,-168.24 1412.47,-168.12 1411,-168 900.78,-127.77 770.03,-174.63 260,-132 255.51,-131.62 250.85,-131.15 246.18,-130.63"/>
<polygon fill="midnightblue" stroke="midnightblue" points="1415.18,-171.86 1425.47,-169.34 1415.85,-164.89 1415.18,-171.86"/>
</g>
<!-- Node107&#45;&gt;Node62 -->
<g id="edge59" class="edge">
<title>Node107&#45;&gt;Node62</title>
<path fill="none" stroke="midnightblue" d="M1415.46,-168.37C1413.96,-168.24 1412.47,-168.11 1411,-168 844.46,-124.22 699.54,-175.78 133,-132 130.15,-131.78 127.24,-131.53 124.3,-131.25"/>
<polygon fill="midnightblue" stroke="midnightblue" points="1415.18,-171.86 1425.47,-169.33 1415.85,-164.89 1415.18,-171.86"/>
</g>
</g>
</svg>
