<?xml version="1.0" encoding="UTF-8" standalone="no"?>
<!DOCTYPE svg PUBLIC "-//W3C//DTD SVG 1.1//EN"
 "http://www.w3.org/Graphics/SVG/1.1/DTD/svg11.dtd">
<!-- Generated by graphviz version 2.43.0 (0)
 -->
<!-- Title: cdisplayrendering.h Pages: 1 -->
<svg width="1066pt" height="252pt"
 viewBox="0.00 0.00 1066.00 252.00" xmlns="http://www.w3.org/2000/svg" xmlns:xlink="http://www.w3.org/1999/xlink">
<g id="graph0" class="graph" transform="scale(1 1) rotate(0) translate(4 248)">
<title>cdisplayrendering.h</title>
<polygon fill="white" stroke="transparent" points="-4,4 -4,-248 1062,-248 1062,4 -4,4"/>
<!-- Node1 -->
<g id="node1" class="node">
<title>Node1</title>
<g id="a_node1"><a xlink:title=" ">
<polygon fill="#bfbfbf" stroke="black" points="597.5,-224.5 597.5,-243.5 710.5,-243.5 710.5,-224.5 597.5,-224.5"/>
<text text-anchor="middle" x="654" y="-231.5" font-family="Helvetica,sans-Serif" font-size="10.00">cdisplayrendering.h</text>
</a>
</g>
</g>
<!-- Node2 -->
<g id="node2" class="node">
<title>Node2</title>
<g id="a_node2"><a xlink:href="../../df/d72/btmoduletextmodel_8h.html" target="_top" xlink:title=" ">
<polygon fill="white" stroke="black" points="240,-168.5 240,-187.5 362,-187.5 362,-168.5 240,-168.5"/>
<text text-anchor="middle" x="301" y="-175.5" font-family="Helvetica,sans-Serif" font-size="10.00">btmoduletextmodel.h</text>
</a>
</g>
</g>
<!-- Node1&#45;&gt;Node2 -->
<g id="edge1" class="edge">
<title>Node1&#45;&gt;Node2</title>
<path fill="none" stroke="midnightblue" d="M588.08,-222.92C521.4,-212.71 419.43,-197.12 356.67,-187.52"/>
<polygon fill="midnightblue" stroke="midnightblue" points="587.65,-226.39 598.07,-224.44 588.71,-219.47 587.65,-226.39"/>
</g>
<!-- Node12 -->
<g id="node12" class="node">
<title>Node12</title>
<g id="a_node12"><a xlink:href="../../dc/d52/cdisplayrendering_8cpp.html" target="_top" xlink:title=" ">
<polygon fill="white" stroke="black" points="420,-168.5 420,-187.5 544,-187.5 544,-168.5 420,-168.5"/>
<text text-anchor="middle" x="482" y="-175.5" font-family="Helvetica,sans-Serif" font-size="10.00">cdisplayrendering.cpp</text>
</a>
</g>
</g>
<!-- Node1&#45;&gt;Node12 -->
<g id="edge13" class="edge">
<title>Node1&#45;&gt;Node12</title>
<path fill="none" stroke="midnightblue" d="M617.17,-221.44C584.74,-211.26 538.26,-196.66 509.13,-187.52"/>
<polygon fill="midnightblue" stroke="midnightblue" points="616.16,-224.79 626.75,-224.44 618.25,-218.11 616.16,-224.79"/>
</g>
<!-- Node13 -->
<g id="node13" class="node">
<title>Node13</title>
<g id="a_node13"><a xlink:href="../../dd/dcb/btprinter_8h.html" target="_top" xlink:title=" ">
<polygon fill="white" stroke="black" points="562.5,-168.5 562.5,-187.5 629.5,-187.5 629.5,-168.5 562.5,-168.5"/>
<text text-anchor="middle" x="596" y="-175.5" font-family="Helvetica,sans-Serif" font-size="10.00">btprinter.h</text>
</a>
</g>
</g>
<!-- Node1&#45;&gt;Node13 -->
<g id="edge14" class="edge">
<title>Node1&#45;&gt;Node13</title>
<path fill="none" stroke="midnightblue" d="M637.09,-217.25C626.8,-207.67 614.03,-195.79 605.49,-187.83"/>
<polygon fill="midnightblue" stroke="midnightblue" points="634.98,-220.07 644.68,-224.32 639.75,-214.95 634.98,-220.07"/>
</g>
<!-- Node17 -->
<g id="node17" class="node">
<title>Node17</title>
<g id="a_node17"><a xlink:href="../../dd/dde/btsearchresultarea_8cpp.html" target="_top" xlink:title=" ">
<polygon fill="white" stroke="black" points="648,-168.5 648,-187.5 776,-187.5 776,-168.5 648,-168.5"/>
<text text-anchor="middle" x="712" y="-175.5" font-family="Helvetica,sans-Serif" font-size="10.00">btsearchresultarea.cpp</text>
</a>
</g>
</g>
<!-- Node1&#45;&gt;Node17 -->
<g id="edge18" class="edge">
<title>Node1&#45;&gt;Node17</title>
<path fill="none" stroke="midnightblue" d="M670.91,-217.25C681.2,-207.67 693.97,-195.79 702.51,-187.83"/>
<polygon fill="midnightblue" stroke="midnightblue" points="668.25,-214.95 663.32,-224.32 673.02,-220.07 668.25,-214.95"/>
</g>
<!-- Node18 -->
<g id="node18" class="node">
<title>Node18</title>
<g id="a_node18"><a xlink:href="../../d7/d5d/cmoduleresultview_8cpp.html" target="_top" xlink:title=" ">
<polygon fill="white" stroke="black" points="794.5,-168.5 794.5,-187.5 923.5,-187.5 923.5,-168.5 794.5,-168.5"/>
<text text-anchor="middle" x="859" y="-175.5" font-family="Helvetica,sans-Serif" font-size="10.00">cmoduleresultview.cpp</text>
</a>
</g>
</g>
<!-- Node1&#45;&gt;Node18 -->
<g id="edge19" class="edge">
<title>Node1&#45;&gt;Node18</title>
<path fill="none" stroke="midnightblue" d="M696.41,-221.83C735.11,-211.63 791.49,-196.78 826.67,-187.52"/>
<polygon fill="midnightblue" stroke="midnightblue" points="695.26,-218.51 686.48,-224.44 697.04,-225.28 695.26,-218.51"/>
</g>
<!-- Node19 -->
<g id="node19" class="node">
<title>Node19</title>
<g id="a_node19"><a xlink:href="../../d4/dca/cdisplaysettings_8cpp.html" target="_top" xlink:title=" ">
<polygon fill="white" stroke="black" points="942,-168.5 942,-187.5 1058,-187.5 1058,-168.5 942,-168.5"/>
<text text-anchor="middle" x="1000" y="-175.5" font-family="Helvetica,sans-Serif" font-size="10.00">cdisplaysettings.cpp</text>
</a>
</g>
</g>
<!-- Node1&#45;&gt;Node19 -->
<g id="edge20" class="edge">
<title>Node1&#45;&gt;Node19</title>
<path fill="none" stroke="midnightblue" d="M719.01,-222.85C784.38,-212.65 884.04,-197.1 945.43,-187.52"/>
<polygon fill="midnightblue" stroke="midnightblue" points="718.17,-219.44 708.82,-224.44 719.24,-226.36 718.17,-219.44"/>
</g>
<!-- Node3 -->
<g id="node3" class="node">
<title>Node3</title>
<g id="a_node3"><a xlink:href="../../de/d93/btmoduletextmodel_8cpp.html" target="_top" xlink:title=" ">
<polygon fill="white" stroke="black" points="0,-112.5 0,-131.5 134,-131.5 134,-112.5 0,-112.5"/>
<text text-anchor="middle" x="67" y="-119.5" font-family="Helvetica,sans-Serif" font-size="10.00">btmoduletextmodel.cpp</text>
</a>
</g>
</g>
<!-- Node2&#45;&gt;Node3 -->
<g id="edge2" class="edge">
<title>Node2&#45;&gt;Node3</title>
<path fill="none" stroke="midnightblue" d="M254,-166.15C209.78,-155.95 144.48,-140.88 103.9,-131.52"/>
<polygon fill="midnightblue" stroke="midnightblue" points="253.39,-169.61 263.92,-168.44 254.97,-162.78 253.39,-169.61"/>
</g>
<!-- Node4 -->
<g id="node4" class="node">
<title>Node4</title>
<g id="a_node4"><a xlink:href="../../d3/d2f/btcopybyreferencesdialog_8cpp.html" target="_top" xlink:title=" ">
<polygon fill="white" stroke="black" points="95,-0.5 95,-19.5 259,-19.5 259,-0.5 95,-0.5"/>
<text text-anchor="middle" x="177" y="-7.5" font-family="Helvetica,sans-Serif" font-size="10.00">btcopybyreferencesdialog.cpp</text>
</a>
</g>
</g>
<!-- Node2&#45;&gt;Node4 -->
<g id="edge3" class="edge">
<title>Node2&#45;&gt;Node4</title>
<path fill="none" stroke="midnightblue" d="M274.58,-163.36C245.86,-146.93 201.35,-116.43 181,-76 171.75,-57.62 173.63,-32.52 175.49,-19.55"/>
<polygon fill="midnightblue" stroke="midnightblue" points="273.21,-166.6 283.66,-168.39 276.6,-160.48 273.21,-166.6"/>
</g>
<!-- Node5 -->
<g id="node5" class="node">
<title>Node5</title>
<g id="a_node5"><a xlink:href="../../d1/d48/btqmlinterface_8h.html" target="_top" xlink:title=" ">
<polygon fill="white" stroke="black" points="362,-112.5 362,-131.5 460,-131.5 460,-112.5 362,-112.5"/>
<text text-anchor="middle" x="411" y="-119.5" font-family="Helvetica,sans-Serif" font-size="10.00">btqmlinterface.h</text>
</a>
</g>
</g>
<!-- Node2&#45;&gt;Node5 -->
<g id="edge4" class="edge">
<title>Node2&#45;&gt;Node5</title>
<path fill="none" stroke="midnightblue" d="M327.76,-163.86C348.16,-153.85 375.67,-140.35 393.37,-131.65"/>
<polygon fill="midnightblue" stroke="midnightblue" points="326.11,-160.78 318.67,-168.32 329.19,-167.06 326.11,-160.78"/>
</g>
<!-- Node6 -->
<g id="node6" class="node">
<title>Node6</title>
<g id="a_node6"><a xlink:href="../../d7/dad/btcopybyreferencesdialog_8h.html" target="_top" xlink:title=" ">
<polygon fill="white" stroke="black" points="190,-56.5 190,-75.5 342,-75.5 342,-56.5 190,-56.5"/>
<text text-anchor="middle" x="266" y="-63.5" font-family="Helvetica,sans-Serif" font-size="10.00">btcopybyreferencesdialog.h</text>
</a>
</g>
</g>
<!-- Node5&#45;&gt;Node6 -->
<g id="edge5" class="edge">
<title>Node5&#45;&gt;Node6</title>
<path fill="none" stroke="midnightblue" d="M378.52,-108.91C351.26,-98.75 313.01,-84.51 288.87,-75.52"/>
<polygon fill="midnightblue" stroke="midnightblue" points="377.43,-112.23 388.02,-112.44 379.87,-105.67 377.43,-112.23"/>
</g>
<!-- Node7 -->
<g id="node7" class="node">
<title>Node7</title>
<g id="a_node7"><a xlink:href="../../de/db2/btmodelviewreaddisplay_8cpp.html" target="_top" xlink:title=" ">
<polygon fill="white" stroke="black" points="284,-0.5 284,-19.5 440,-19.5 440,-0.5 284,-0.5"/>
<text text-anchor="middle" x="362" y="-7.5" font-family="Helvetica,sans-Serif" font-size="10.00">btmodelviewreaddisplay.cpp</text>
</a>
</g>
</g>
<!-- Node5&#45;&gt;Node7 -->
<g id="edge8" class="edge">
<title>Node5&#45;&gt;Node7</title>
<path fill="none" stroke="midnightblue" d="M402.09,-103.42C397.99,-95.15 393.12,-85.13 389,-76 380.05,-56.18 370.49,-32.5 365.5,-19.9"/>
<polygon fill="midnightblue" stroke="midnightblue" points="399.01,-105.08 406.63,-112.45 405.27,-101.94 399.01,-105.08"/>
</g>
<!-- Node8 -->
<g id="node8" class="node">
<title>Node8</title>
<g id="a_node8"><a xlink:href="../../de/d6e/btqmlinterface_8cpp.html" target="_top" xlink:title=" ">
<polygon fill="white" stroke="black" points="398.5,-56.5 398.5,-75.5 507.5,-75.5 507.5,-56.5 398.5,-56.5"/>
<text text-anchor="middle" x="453" y="-63.5" font-family="Helvetica,sans-Serif" font-size="10.00">btqmlinterface.cpp</text>
</a>
</g>
</g>
<!-- Node5&#45;&gt;Node8 -->
<g id="edge9" class="edge">
<title>Node5&#45;&gt;Node8</title>
<path fill="none" stroke="midnightblue" d="M424.11,-104.14C431.43,-94.74 440.24,-83.4 446.19,-75.75"/>
<polygon fill="midnightblue" stroke="midnightblue" points="421.31,-102.04 417.94,-112.08 426.84,-106.34 421.31,-102.04"/>
</g>
<!-- Node9 -->
<g id="node9" class="node">
<title>Node9</title>
<g id="a_node9"><a xlink:href="../../d9/d0c/btquickwidget_8cpp.html" target="_top" xlink:title=" ">
<polygon fill="white" stroke="black" points="526,-56.5 526,-75.5 632,-75.5 632,-56.5 526,-56.5"/>
<text text-anchor="middle" x="579" y="-63.5" font-family="Helvetica,sans-Serif" font-size="10.00">btquickwidget.cpp</text>
</a>
</g>
</g>
<!-- Node5&#45;&gt;Node9 -->
<g id="edge10" class="edge">
<title>Node5&#45;&gt;Node9</title>
<path fill="none" stroke="midnightblue" d="M447.39,-109.3C479.04,-99.13 524.17,-84.62 552.5,-75.52"/>
<polygon fill="midnightblue" stroke="midnightblue" points="446.07,-106.05 437.62,-112.44 448.21,-112.72 446.07,-106.05"/>
</g>
<!-- Node10 -->
<g id="node10" class="node">
<title>Node10</title>
<g id="a_node10"><a xlink:href="../../d2/d26/cdisplaywindow_8cpp.html" target="_top" xlink:title=" ">
<polygon fill="white" stroke="black" points="650,-56.5 650,-75.5 764,-75.5 764,-56.5 650,-56.5"/>
<text text-anchor="middle" x="707" y="-63.5" font-family="Helvetica,sans-Serif" font-size="10.00">cdisplaywindow.cpp</text>
</a>
</g>
</g>
<!-- Node5&#45;&gt;Node10 -->
<g id="edge11" class="edge">
<title>Node5&#45;&gt;Node10</title>
<path fill="none" stroke="midnightblue" d="M468,-110.6C523.94,-100.4 608.23,-85.02 660.32,-75.52"/>
<polygon fill="midnightblue" stroke="midnightblue" points="467.11,-107.21 457.9,-112.44 468.37,-114.09 467.11,-107.21"/>
</g>
<!-- Node11 -->
<g id="node11" class="node">
<title>Node11</title>
<g id="a_node11"><a xlink:href="../../df/d0a/main_8cpp.html" target="_top" xlink:title=" ">
<polygon fill="white" stroke="black" points="782,-56.5 782,-75.5 844,-75.5 844,-56.5 782,-56.5"/>
<text text-anchor="middle" x="813" y="-63.5" font-family="Helvetica,sans-Serif" font-size="10.00">main.cpp</text>
</a>
</g>
</g>
<!-- Node5&#45;&gt;Node11 -->
<g id="edge12" class="edge">
<title>Node5&#45;&gt;Node11</title>
<path fill="none" stroke="midnightblue" d="M469.96,-111.92C605.5,-93.8 642.04,-98.43 773,-76 775.81,-75.52 778.71,-74.97 781.62,-74.38"/>
<polygon fill="midnightblue" stroke="midnightblue" points="469.47,-108.45 460.03,-113.26 470.41,-115.39 469.47,-108.45"/>
</g>
<!-- Node6&#45;&gt;Node4 -->
<g id="edge6" class="edge">
<title>Node6&#45;&gt;Node4</title>
<path fill="none" stroke="midnightblue" d="M242.76,-50.9C226.44,-41 205.13,-28.07 191.26,-19.65"/>
<polygon fill="midnightblue" stroke="midnightblue" points="241.34,-54.13 251.7,-56.32 244.97,-48.14 241.34,-54.13"/>
</g>
<!-- Node6&#45;&gt;Node7 -->
<g id="edge7" class="edge">
<title>Node6&#45;&gt;Node7</title>
<path fill="none" stroke="midnightblue" d="M290.57,-51.18C308.24,-41.24 331.51,-28.15 346.61,-19.65"/>
<polygon fill="midnightblue" stroke="midnightblue" points="288.42,-48.37 281.42,-56.32 291.86,-54.47 288.42,-48.37"/>
</g>
<!-- Node14 -->
<g id="node14" class="node">
<title>Node14</title>
<g id="a_node14"><a xlink:href="../../d9/de6/cbookmarkindex_8cpp.html" target="_top" xlink:title=" ">
<polygon fill="white" stroke="black" points="478.5,-112.5 478.5,-131.5 597.5,-131.5 597.5,-112.5 478.5,-112.5"/>
<text text-anchor="middle" x="538" y="-119.5" font-family="Helvetica,sans-Serif" font-size="10.00">cbookmarkindex.cpp</text>
</a>
</g>
</g>
<!-- Node13&#45;&gt;Node14 -->
<g id="edge15" class="edge">
<title>Node13&#45;&gt;Node14</title>
<path fill="none" stroke="midnightblue" d="M579.09,-161.25C568.8,-151.67 556.03,-139.79 547.49,-131.83"/>
<polygon fill="midnightblue" stroke="midnightblue" points="576.98,-164.07 586.68,-168.32 581.75,-158.95 576.98,-164.07"/>
</g>
<!-- Node15 -->
<g id="node15" class="node">
<title>Node15</title>
<g id="a_node15"><a xlink:href="../../d0/dae/btprinter_8cpp.html" target="_top" xlink:title=" ">
<polygon fill="white" stroke="black" points="616,-112.5 616,-131.5 694,-131.5 694,-112.5 616,-112.5"/>
<text text-anchor="middle" x="655" y="-119.5" font-family="Helvetica,sans-Serif" font-size="10.00">btprinter.cpp</text>
</a>
</g>
</g>
<!-- Node13&#45;&gt;Node15 -->
<g id="edge16" class="edge">
<title>Node13&#45;&gt;Node15</title>
<path fill="none" stroke="midnightblue" d="M612.89,-161.54C623.41,-151.91 636.57,-139.87 645.35,-131.83"/>
<polygon fill="midnightblue" stroke="midnightblue" points="610.49,-158.99 605.48,-168.32 615.22,-164.15 610.49,-158.99"/>
</g>
<!-- Node16 -->
<g id="node16" class="node">
<title>Node16</title>
<g id="a_node16"><a xlink:href="../../d5/deb/cexportmanager_8cpp.html" target="_top" xlink:title=" ">
<polygon fill="white" stroke="black" points="712,-112.5 712,-131.5 828,-131.5 828,-112.5 712,-112.5"/>
<text text-anchor="middle" x="770" y="-119.5" font-family="Helvetica,sans-Serif" font-size="10.00">cexportmanager.cpp</text>
</a>
</g>
</g>
<!-- Node13&#45;&gt;Node16 -->
<g id="edge17" class="edge">
<title>Node13&#45;&gt;Node16</title>
<path fill="none" stroke="midnightblue" d="M633.26,-165.44C666.07,-155.26 713.08,-140.66 742.56,-131.52"/>
<polygon fill="midnightblue" stroke="midnightblue" points="632.08,-162.14 623.57,-168.44 634.16,-168.82 632.08,-162.14"/>
</g>
</g>
</svg>
