<?xml version="1.0" encoding="UTF-8" standalone="no"?>
<!DOCTYPE svg PUBLIC "-//W3C//DTD SVG 1.1//EN"
 "http://www.w3.org/Graphics/SVG/1.1/DTD/svg11.dtd">
<!-- Generated by graphviz version 2.43.0 (0)
 -->
<!-- Title: cdisplayrendering.h Pages: 1 -->
<svg width="975pt" height="308pt"
 viewBox="0.00 0.00 975.00 308.00" xmlns="http://www.w3.org/2000/svg" xmlns:xlink="http://www.w3.org/1999/xlink">
<g id="graph0" class="graph" transform="scale(1 1) rotate(0) translate(4 304)">
<title>cdisplayrendering.h</title>
<polygon fill="white" stroke="transparent" points="-4,4 -4,-304 971,-304 971,4 -4,4"/>
<!-- Node1 -->
<g id="node1" class="node">
<title>Node1</title>
<g id="a_node1"><a xlink:title=" ">
<polygon fill="#bfbfbf" stroke="black" points="506.5,-280.5 506.5,-299.5 619.5,-299.5 619.5,-280.5 506.5,-280.5"/>
<text text-anchor="middle" x="563" y="-287.5" font-family="Helvetica,sans-Serif" font-size="10.00">cdisplayrendering.h</text>
</a>
</g>
</g>
<!-- Node2 -->
<g id="node2" class="node">
<title>Node2</title>
<g id="a_node2"><a xlink:href="../../df/d72/btmoduletextmodel_8h.html" target="_top" xlink:title=" ">
<polygon fill="white" stroke="black" points="184,-224.5 184,-243.5 306,-243.5 306,-224.5 184,-224.5"/>
<text text-anchor="middle" x="245" y="-231.5" font-family="Helvetica,sans-Serif" font-size="10.00">btmoduletextmodel.h</text>
</a>
</g>
</g>
<!-- Node1&#45;&gt;Node2 -->
<g id="edge1" class="edge">
<title>Node1&#45;&gt;Node2</title>
<path fill="none" stroke="midnightblue" d="M502.51,-278.73C442.41,-268.52 351.34,-253.06 295.15,-243.52"/>
<polygon fill="midnightblue" stroke="midnightblue" points="502.17,-282.22 512.61,-280.44 503.34,-275.32 502.17,-282.22"/>
</g>
<!-- Node14 -->
<g id="node14" class="node">
<title>Node14</title>
<g id="a_node14"><a xlink:href="../../dc/d52/cdisplayrendering_8cpp.html" target="_top" xlink:title=" ">
<polygon fill="white" stroke="black" points="329,-224.5 329,-243.5 453,-243.5 453,-224.5 329,-224.5"/>
<text text-anchor="middle" x="391" y="-231.5" font-family="Helvetica,sans-Serif" font-size="10.00">cdisplayrendering.cpp</text>
</a>
</g>
</g>
<!-- Node1&#45;&gt;Node14 -->
<g id="edge16" class="edge">
<title>Node1&#45;&gt;Node14</title>
<path fill="none" stroke="midnightblue" d="M526.17,-277.44C493.74,-267.26 447.26,-252.66 418.13,-243.52"/>
<polygon fill="midnightblue" stroke="midnightblue" points="525.16,-280.79 535.75,-280.44 527.25,-274.11 525.16,-280.79"/>
</g>
<!-- Node15 -->
<g id="node15" class="node">
<title>Node15</title>
<g id="a_node15"><a xlink:href="../../dd/dcb/btprinter_8h.html" target="_top" xlink:title=" ">
<polygon fill="white" stroke="black" points="471.5,-224.5 471.5,-243.5 538.5,-243.5 538.5,-224.5 471.5,-224.5"/>
<text text-anchor="middle" x="505" y="-231.5" font-family="Helvetica,sans-Serif" font-size="10.00">btprinter.h</text>
</a>
</g>
</g>
<!-- Node1&#45;&gt;Node15 -->
<g id="edge17" class="edge">
<title>Node1&#45;&gt;Node15</title>
<path fill="none" stroke="midnightblue" d="M546.09,-273.25C535.8,-263.67 523.03,-251.79 514.49,-243.83"/>
<polygon fill="midnightblue" stroke="midnightblue" points="543.98,-276.07 553.68,-280.32 548.75,-270.95 543.98,-276.07"/>
</g>
<!-- Node19 -->
<g id="node19" class="node">
<title>Node19</title>
<g id="a_node19"><a xlink:href="../../dd/dde/btsearchresultarea_8cpp.html" target="_top" xlink:title=" ">
<polygon fill="white" stroke="black" points="557,-224.5 557,-243.5 685,-243.5 685,-224.5 557,-224.5"/>
<text text-anchor="middle" x="621" y="-231.5" font-family="Helvetica,sans-Serif" font-size="10.00">btsearchresultarea.cpp</text>
</a>
</g>
</g>
<!-- Node1&#45;&gt;Node19 -->
<g id="edge21" class="edge">
<title>Node1&#45;&gt;Node19</title>
<path fill="none" stroke="midnightblue" d="M579.91,-273.25C590.2,-263.67 602.97,-251.79 611.51,-243.83"/>
<polygon fill="midnightblue" stroke="midnightblue" points="577.25,-270.95 572.32,-280.32 582.02,-276.07 577.25,-270.95"/>
</g>
<!-- Node20 -->
<g id="node20" class="node">
<title>Node20</title>
<g id="a_node20"><a xlink:href="../../d7/d5d/cmoduleresultview_8cpp.html" target="_top" xlink:title=" ">
<polygon fill="white" stroke="black" points="703.5,-224.5 703.5,-243.5 832.5,-243.5 832.5,-224.5 703.5,-224.5"/>
<text text-anchor="middle" x="768" y="-231.5" font-family="Helvetica,sans-Serif" font-size="10.00">cmoduleresultview.cpp</text>
</a>
</g>
</g>
<!-- Node1&#45;&gt;Node20 -->
<g id="edge22" class="edge">
<title>Node1&#45;&gt;Node20</title>
<path fill="none" stroke="midnightblue" d="M605.41,-277.83C644.11,-267.63 700.49,-252.78 735.67,-243.52"/>
<polygon fill="midnightblue" stroke="midnightblue" points="604.26,-274.51 595.48,-280.44 606.04,-281.28 604.26,-274.51"/>
</g>
<!-- Node21 -->
<g id="node21" class="node">
<title>Node21</title>
<g id="a_node21"><a xlink:href="../../d4/dca/cdisplaysettings_8cpp.html" target="_top" xlink:title=" ">
<polygon fill="white" stroke="black" points="851,-224.5 851,-243.5 967,-243.5 967,-224.5 851,-224.5"/>
<text text-anchor="middle" x="909" y="-231.5" font-family="Helvetica,sans-Serif" font-size="10.00">cdisplaysettings.cpp</text>
</a>
</g>
</g>
<!-- Node1&#45;&gt;Node21 -->
<g id="edge23" class="edge">
<title>Node1&#45;&gt;Node21</title>
<path fill="none" stroke="midnightblue" d="M628.01,-278.85C693.38,-268.65 793.04,-253.1 854.43,-243.52"/>
<polygon fill="midnightblue" stroke="midnightblue" points="627.17,-275.44 617.82,-280.44 628.24,-282.36 627.17,-275.44"/>
</g>
<!-- Node3 -->
<g id="node3" class="node">
<title>Node3</title>
<g id="a_node3"><a xlink:href="../../de/d93/btmoduletextmodel_8cpp.html" target="_top" xlink:title=" ">
<polygon fill="white" stroke="black" points="0,-168.5 0,-187.5 134,-187.5 134,-168.5 0,-168.5"/>
<text text-anchor="middle" x="67" y="-175.5" font-family="Helvetica,sans-Serif" font-size="10.00">btmoduletextmodel.cpp</text>
</a>
</g>
</g>
<!-- Node2&#45;&gt;Node3 -->
<g id="edge2" class="edge">
<title>Node2&#45;&gt;Node3</title>
<path fill="none" stroke="midnightblue" d="M206.88,-221.44C173.32,-211.26 125.23,-196.66 95.07,-187.52"/>
<polygon fill="midnightblue" stroke="midnightblue" points="206.21,-224.89 216.8,-224.44 208.24,-218.19 206.21,-224.89"/>
</g>
<!-- Node4 -->
<g id="node4" class="node">
<title>Node4</title>
<g id="a_node4"><a xlink:href="../../d3/d2f/btcopybyreferencesdialog_8cpp.html" target="_top" xlink:title=" ">
<polygon fill="white" stroke="black" points="159,-0.5 159,-19.5 323,-19.5 323,-0.5 159,-0.5"/>
<text text-anchor="middle" x="241" y="-7.5" font-family="Helvetica,sans-Serif" font-size="10.00">btcopybyreferencesdialog.cpp</text>
</a>
</g>
</g>
<!-- Node2&#45;&gt;Node4 -->
<g id="edge3" class="edge">
<title>Node2&#45;&gt;Node4</title>
<path fill="none" stroke="midnightblue" d="M235,-215.1C219.76,-186.67 191.39,-129 181,-76 179.29,-67.28 177.02,-63.95 181,-56 189.44,-39.11 207.57,-26.92 221.7,-19.52"/>
<polygon fill="midnightblue" stroke="midnightblue" points="232.1,-217.08 239.96,-224.18 238.24,-213.73 232.1,-217.08"/>
</g>
<!-- Node5 -->
<g id="node5" class="node">
<title>Node5</title>
<g id="a_node5"><a xlink:href="../../de/d6e/btqmlinterface_8cpp.html" target="_top" xlink:title=" ">
<polygon fill="white" stroke="black" points="190.5,-56.5 190.5,-75.5 299.5,-75.5 299.5,-56.5 190.5,-56.5"/>
<text text-anchor="middle" x="245" y="-63.5" font-family="Helvetica,sans-Serif" font-size="10.00">btqmlinterface.cpp</text>
</a>
</g>
</g>
<!-- Node2&#45;&gt;Node5 -->
<g id="edge4" class="edge">
<title>Node2&#45;&gt;Node5</title>
<path fill="none" stroke="midnightblue" d="M245,-213.93C245,-177.92 245,-101.23 245,-75.57"/>
<polygon fill="midnightblue" stroke="midnightblue" points="241.5,-214.08 245,-224.08 248.5,-214.08 241.5,-214.08"/>
</g>
<!-- Node6 -->
<g id="node6" class="node">
<title>Node6</title>
<g id="a_node6"><a xlink:href="../../d1/d9d/bttextfilter_8h.html" target="_top" xlink:title=" ">
<polygon fill="white" stroke="black" points="312.5,-168.5 312.5,-187.5 389.5,-187.5 389.5,-168.5 312.5,-168.5"/>
<text text-anchor="middle" x="351" y="-175.5" font-family="Helvetica,sans-Serif" font-size="10.00">bttextfilter.h</text>
</a>
</g>
</g>
<!-- Node2&#45;&gt;Node6 -->
<g id="edge5" class="edge">
<title>Node2&#45;&gt;Node6</title>
<path fill="none" stroke="midnightblue" d="M271.06,-219.73C290.68,-209.73 317.03,-196.31 334.01,-187.65"/>
<polygon fill="midnightblue" stroke="midnightblue" points="269.35,-216.67 262.03,-224.32 272.53,-222.9 269.35,-216.67"/>
</g>
<!-- Node7 -->
<g id="node7" class="node">
<title>Node7</title>
<g id="a_node7"><a xlink:href="../../d1/d48/btqmlinterface_8h.html" target="_top" xlink:title=" ">
<polygon fill="white" stroke="black" points="397,-112.5 397,-131.5 495,-131.5 495,-112.5 397,-112.5"/>
<text text-anchor="middle" x="446" y="-119.5" font-family="Helvetica,sans-Serif" font-size="10.00">btqmlinterface.h</text>
</a>
</g>
</g>
<!-- Node6&#45;&gt;Node7 -->
<g id="edge6" class="edge">
<title>Node6&#45;&gt;Node7</title>
<path fill="none" stroke="midnightblue" d="M375.32,-163.18C392.8,-153.24 415.83,-140.15 430.77,-131.65"/>
<polygon fill="midnightblue" stroke="midnightblue" points="373.23,-160.34 366.26,-168.32 376.69,-166.43 373.23,-160.34"/>
</g>
<!-- Node13 -->
<g id="node13" class="node">
<title>Node13</title>
<g id="a_node13"><a xlink:href="../../dc/dee/bttextfilter_8cpp.html" target="_top" xlink:title=" ">
<polygon fill="white" stroke="black" points="513,-112.5 513,-131.5 601,-131.5 601,-112.5 513,-112.5"/>
<text text-anchor="middle" x="557" y="-119.5" font-family="Helvetica,sans-Serif" font-size="10.00">bttextfilter.cpp</text>
</a>
</g>
</g>
<!-- Node6&#45;&gt;Node13 -->
<g id="edge15" class="edge">
<title>Node6&#45;&gt;Node13</title>
<path fill="none" stroke="midnightblue" d="M393.62,-165.83C432.51,-155.63 489.16,-140.78 524.51,-131.52"/>
<polygon fill="midnightblue" stroke="midnightblue" points="392.43,-162.52 383.64,-168.44 394.2,-169.29 392.43,-162.52"/>
</g>
<!-- Node7&#45;&gt;Node5 -->
<g id="edge11" class="edge">
<title>Node7&#45;&gt;Node5</title>
<path fill="none" stroke="midnightblue" d="M404.42,-109.83C366.47,-99.63 311.19,-84.78 276.7,-75.52"/>
<polygon fill="midnightblue" stroke="midnightblue" points="403.59,-113.23 414.15,-112.44 405.4,-106.47 403.59,-113.23"/>
</g>
<!-- Node8 -->
<g id="node8" class="node">
<title>Node8</title>
<g id="a_node8"><a xlink:href="../../d7/dad/btcopybyreferencesdialog_8h.html" target="_top" xlink:title=" ">
<polygon fill="white" stroke="black" points="318,-56.5 318,-75.5 470,-75.5 470,-56.5 318,-56.5"/>
<text text-anchor="middle" x="394" y="-63.5" font-family="Helvetica,sans-Serif" font-size="10.00">btcopybyreferencesdialog.h</text>
</a>
</g>
</g>
<!-- Node7&#45;&gt;Node8 -->
<g id="edge7" class="edge">
<title>Node7&#45;&gt;Node8</title>
<path fill="none" stroke="midnightblue" d="M430.32,-104.72C421.16,-95.2 409.95,-83.56 402.43,-75.75"/>
<polygon fill="midnightblue" stroke="midnightblue" points="427.96,-107.31 437.41,-112.08 433,-102.45 427.96,-107.31"/>
</g>
<!-- Node9 -->
<g id="node9" class="node">
<title>Node9</title>
<g id="a_node9"><a xlink:href="../../de/db2/btmodelviewreaddisplay_8cpp.html" target="_top" xlink:title=" ">
<polygon fill="white" stroke="black" points="368,-0.5 368,-19.5 524,-19.5 524,-0.5 368,-0.5"/>
<text text-anchor="middle" x="446" y="-7.5" font-family="Helvetica,sans-Serif" font-size="10.00">btmodelviewreaddisplay.cpp</text>
</a>
</g>
</g>
<!-- Node7&#45;&gt;Node9 -->
<g id="edge10" class="edge">
<title>Node7&#45;&gt;Node9</title>
<path fill="none" stroke="midnightblue" d="M461.71,-104.88C468.43,-96.88 475.51,-86.66 479,-76 485.93,-54.83 467.73,-32.05 455.68,-19.87"/>
<polygon fill="midnightblue" stroke="midnightblue" points="459.1,-102.56 455.02,-112.34 464.3,-107.24 459.1,-102.56"/>
</g>
<!-- Node10 -->
<g id="node10" class="node">
<title>Node10</title>
<g id="a_node10"><a xlink:href="../../d9/d0c/btquickwidget_8cpp.html" target="_top" xlink:title=" ">
<polygon fill="white" stroke="black" points="526,-56.5 526,-75.5 632,-75.5 632,-56.5 526,-56.5"/>
<text text-anchor="middle" x="579" y="-63.5" font-family="Helvetica,sans-Serif" font-size="10.00">btquickwidget.cpp</text>
</a>
</g>
</g>
<!-- Node7&#45;&gt;Node10 -->
<g id="edge12" class="edge">
<title>Node7&#45;&gt;Node10</title>
<path fill="none" stroke="midnightblue" d="M476.45,-108.64C501.41,-98.5 536.08,-84.43 558.02,-75.52"/>
<polygon fill="midnightblue" stroke="midnightblue" points="475.02,-105.44 467.07,-112.44 477.66,-111.92 475.02,-105.44"/>
</g>
<!-- Node11 -->
<g id="node11" class="node">
<title>Node11</title>
<g id="a_node11"><a xlink:href="../../d2/d26/cdisplaywindow_8cpp.html" target="_top" xlink:title=" ">
<polygon fill="white" stroke="black" points="650,-56.5 650,-75.5 764,-75.5 764,-56.5 650,-56.5"/>
<text text-anchor="middle" x="707" y="-63.5" font-family="Helvetica,sans-Serif" font-size="10.00">cdisplaywindow.cpp</text>
</a>
</g>
</g>
<!-- Node7&#45;&gt;Node11 -->
<g id="edge13" class="edge">
<title>Node7&#45;&gt;Node11</title>
<path fill="none" stroke="midnightblue" d="M497.19,-110.41C546.51,-100.2 620.19,-84.96 665.84,-75.52"/>
<polygon fill="midnightblue" stroke="midnightblue" points="496.44,-106.99 487.36,-112.44 497.86,-113.84 496.44,-106.99"/>
</g>
<!-- Node12 -->
<g id="node12" class="node">
<title>Node12</title>
<g id="a_node12"><a xlink:href="../../df/d0a/main_8cpp.html" target="_top" xlink:title=" ">
<polygon fill="white" stroke="black" points="782,-56.5 782,-75.5 844,-75.5 844,-56.5 782,-56.5"/>
<text text-anchor="middle" x="813" y="-63.5" font-family="Helvetica,sans-Serif" font-size="10.00">main.cpp</text>
</a>
</g>
</g>
<!-- Node7&#45;&gt;Node12 -->
<g id="edge14" class="edge">
<title>Node7&#45;&gt;Node12</title>
<path fill="none" stroke="midnightblue" d="M504.99,-111.89C625.07,-94.87 657.4,-96.7 773,-76 775.8,-75.5 778.71,-74.93 781.61,-74.34"/>
<polygon fill="midnightblue" stroke="midnightblue" points="504.44,-108.43 495.04,-113.32 505.43,-115.36 504.44,-108.43"/>
</g>
<!-- Node8&#45;&gt;Node4 -->
<g id="edge8" class="edge">
<title>Node8&#45;&gt;Node4</title>
<path fill="none" stroke="midnightblue" d="M360.11,-53.04C331.32,-42.88 290.71,-28.55 265.13,-19.52"/>
<polygon fill="midnightblue" stroke="midnightblue" points="359.16,-56.42 369.76,-56.44 361.49,-49.81 359.16,-56.42"/>
</g>
<!-- Node8&#45;&gt;Node9 -->
<g id="edge9" class="edge">
<title>Node8&#45;&gt;Node9</title>
<path fill="none" stroke="midnightblue" d="M409.68,-48.72C418.84,-39.2 430.05,-27.56 437.57,-19.75"/>
<polygon fill="midnightblue" stroke="midnightblue" points="407,-46.45 402.59,-56.08 412.04,-51.31 407,-46.45"/>
</g>
<!-- Node16 -->
<g id="node16" class="node">
<title>Node16</title>
<g id="a_node16"><a xlink:href="../../d9/de6/cbookmarkindex_8cpp.html" target="_top" xlink:title=" ">
<polygon fill="white" stroke="black" points="407.5,-168.5 407.5,-187.5 526.5,-187.5 526.5,-168.5 407.5,-168.5"/>
<text text-anchor="middle" x="467" y="-175.5" font-family="Helvetica,sans-Serif" font-size="10.00">cbookmarkindex.cpp</text>
</a>
</g>
</g>
<!-- Node15&#45;&gt;Node16 -->
<g id="edge18" class="edge">
<title>Node15&#45;&gt;Node16</title>
<path fill="none" stroke="midnightblue" d="M492.94,-215.86C486.36,-206.5 478.49,-195.33 473.16,-187.75"/>
<polygon fill="midnightblue" stroke="midnightblue" points="490.11,-217.92 498.73,-224.08 495.83,-213.89 490.11,-217.92"/>
</g>
<!-- Node17 -->
<g id="node17" class="node">
<title>Node17</title>
<g id="a_node17"><a xlink:href="../../d0/dae/btprinter_8cpp.html" target="_top" xlink:title=" ">
<polygon fill="white" stroke="black" points="545,-168.5 545,-187.5 623,-187.5 623,-168.5 545,-168.5"/>
<text text-anchor="middle" x="584" y="-175.5" font-family="Helvetica,sans-Serif" font-size="10.00">btprinter.cpp</text>
</a>
</g>
</g>
<!-- Node15&#45;&gt;Node17 -->
<g id="edge19" class="edge">
<title>Node15&#45;&gt;Node17</title>
<path fill="none" stroke="midnightblue" d="M526.03,-218.62C540.47,-208.76 559.14,-195.99 571.34,-187.65"/>
<polygon fill="midnightblue" stroke="midnightblue" points="523.97,-215.79 517.69,-224.32 527.92,-221.57 523.97,-215.79"/>
</g>
<!-- Node18 -->
<g id="node18" class="node">
<title>Node18</title>
<g id="a_node18"><a xlink:href="../../d5/deb/cexportmanager_8cpp.html" target="_top" xlink:title=" ">
<polygon fill="white" stroke="black" points="641,-168.5 641,-187.5 757,-187.5 757,-168.5 641,-168.5"/>
<text text-anchor="middle" x="699" y="-175.5" font-family="Helvetica,sans-Serif" font-size="10.00">cexportmanager.cpp</text>
</a>
</g>
</g>
<!-- Node15&#45;&gt;Node18 -->
<g id="edge20" class="edge">
<title>Node15&#45;&gt;Node18</title>
<path fill="none" stroke="midnightblue" d="M545.6,-221.7C582.22,-211.51 635.26,-196.74 668.4,-187.52"/>
<polygon fill="midnightblue" stroke="midnightblue" points="544.44,-218.39 535.74,-224.44 546.31,-225.13 544.44,-218.39"/>
</g>
</g>
</svg>
