<?xml version="1.0" encoding="UTF-8" standalone="no"?>
<!DOCTYPE svg PUBLIC "-//W3C//DTD SVG 1.1//EN"
 "http://www.w3.org/Graphics/SVG/1.1/DTD/svg11.dtd">
<!-- Generated by graphviz version 2.43.0 (0)
 -->
<!-- Title: cdisplayrendering.h Pages: 1 -->
<svg width="999pt" height="140pt"
 viewBox="0.00 0.00 999.00 140.00" xmlns="http://www.w3.org/2000/svg" xmlns:xlink="http://www.w3.org/1999/xlink">
<g id="graph0" class="graph" transform="scale(1 1) rotate(0) translate(4 136)">
<title>cdisplayrendering.h</title>
<polygon fill="white" stroke="transparent" points="-4,4 -4,-136 995,-136 995,4 -4,4"/>
<!-- Node1 -->
<g id="node1" class="node">
<title>Node1</title>
<g id="a_node1"><a xlink:title=" ">
<polygon fill="#bfbfbf" stroke="black" points="437.5,-112.5 437.5,-131.5 550.5,-131.5 550.5,-112.5 437.5,-112.5"/>
<text text-anchor="middle" x="494" y="-119.5" font-family="Helvetica,sans-Serif" font-size="10.00">cdisplayrendering.h</text>
</a>
</g>
</g>
<!-- Node2 -->
<g id="node2" class="node">
<title>Node2</title>
<g id="a_node2"><a xlink:href="../../da/db4/cbookdisplay_8cpp.html" target="_top" xlink:title=" ">
<polygon fill="white" stroke="black" points="0,-56.5 0,-75.5 100,-75.5 100,-56.5 0,-56.5"/>
<text text-anchor="middle" x="50" y="-63.5" font-family="Helvetica,sans-Serif" font-size="10.00">cbookdisplay.cpp</text>
</a>
</g>
</g>
<!-- Node1&#45;&gt;Node2 -->
<g id="edge1" class="edge">
<title>Node1&#45;&gt;Node2</title>
<path fill="none" stroke="midnightblue" d="M427.47,-113.94C350.66,-105.62 220.54,-91.02 109,-76 106.12,-75.61 103.17,-75.2 100.19,-74.78"/>
<polygon fill="midnightblue" stroke="midnightblue" points="427.17,-117.43 437.49,-115.02 427.93,-110.47 427.17,-117.43"/>
</g>
<!-- Node3 -->
<g id="node3" class="node">
<title>Node3</title>
<g id="a_node3"><a xlink:href="../../d0/d6c/cchapterdisplay_8cpp.html" target="_top" xlink:title=" ">
<polygon fill="white" stroke="black" points="118.5,-56.5 118.5,-75.5 231.5,-75.5 231.5,-56.5 118.5,-56.5"/>
<text text-anchor="middle" x="175" y="-63.5" font-family="Helvetica,sans-Serif" font-size="10.00">cchapterdisplay.cpp</text>
</a>
</g>
</g>
<!-- Node1&#45;&gt;Node3 -->
<g id="edge2" class="edge">
<title>Node1&#45;&gt;Node3</title>
<path fill="none" stroke="midnightblue" d="M433.32,-110.73C373.03,-100.52 281.68,-85.06 225.31,-75.52"/>
<polygon fill="midnightblue" stroke="midnightblue" points="433.01,-114.23 443.45,-112.44 434.18,-107.32 433.01,-114.23"/>
</g>
<!-- Node4 -->
<g id="node4" class="node">
<title>Node4</title>
<g id="a_node4"><a xlink:href="../../dc/d52/cdisplayrendering_8cpp.html" target="_top" xlink:title=" ">
<polygon fill="white" stroke="black" points="250,-56.5 250,-75.5 374,-75.5 374,-56.5 250,-56.5"/>
<text text-anchor="middle" x="312" y="-63.5" font-family="Helvetica,sans-Serif" font-size="10.00">cdisplayrendering.cpp</text>
</a>
</g>
</g>
<!-- Node1&#45;&gt;Node4 -->
<g id="edge3" class="edge">
<title>Node1&#45;&gt;Node4</title>
<path fill="none" stroke="midnightblue" d="M455.47,-109.57C421.14,-99.38 371.67,-84.7 340.7,-75.52"/>
<polygon fill="midnightblue" stroke="midnightblue" points="454.58,-112.95 465.16,-112.44 456.57,-106.24 454.58,-112.95"/>
</g>
<!-- Node5 -->
<g id="node5" class="node">
<title>Node5</title>
<g id="a_node5"><a xlink:href="../../da/d21/centrydisplay_8cpp.html" target="_top" xlink:title=" ">
<polygon fill="white" stroke="black" points="392.5,-56.5 392.5,-75.5 493.5,-75.5 493.5,-56.5 392.5,-56.5"/>
<text text-anchor="middle" x="443" y="-63.5" font-family="Helvetica,sans-Serif" font-size="10.00">centrydisplay.cpp</text>
</a>
</g>
</g>
<!-- Node1&#45;&gt;Node5 -->
<g id="edge4" class="edge">
<title>Node1&#45;&gt;Node5</title>
<path fill="none" stroke="midnightblue" d="M478.62,-104.72C469.63,-95.2 458.64,-83.56 451.26,-75.75"/>
<polygon fill="midnightblue" stroke="midnightblue" points="476.17,-107.22 485.58,-112.08 481.26,-102.41 476.17,-107.22"/>
</g>
<!-- Node6 -->
<g id="node6" class="node">
<title>Node6</title>
<g id="a_node6"><a xlink:href="../../dd/dcb/btprinter_8h.html" target="_top" xlink:title=" ">
<polygon fill="white" stroke="black" points="511.5,-56.5 511.5,-75.5 578.5,-75.5 578.5,-56.5 511.5,-56.5"/>
<text text-anchor="middle" x="545" y="-63.5" font-family="Helvetica,sans-Serif" font-size="10.00">btprinter.h</text>
</a>
</g>
</g>
<!-- Node1&#45;&gt;Node6 -->
<g id="edge5" class="edge">
<title>Node1&#45;&gt;Node6</title>
<path fill="none" stroke="midnightblue" d="M509.38,-104.72C518.37,-95.2 529.36,-83.56 536.74,-75.75"/>
<polygon fill="midnightblue" stroke="midnightblue" points="506.74,-102.41 502.42,-112.08 511.83,-107.22 506.74,-102.41"/>
</g>
<!-- Node10 -->
<g id="node10" class="node">
<title>Node10</title>
<g id="a_node10"><a xlink:href="../../d2/d26/cdisplaywindow_8cpp.html" target="_top" xlink:title=" ">
<polygon fill="white" stroke="black" points="597,-56.5 597,-75.5 711,-75.5 711,-56.5 597,-56.5"/>
<text text-anchor="middle" x="654" y="-63.5" font-family="Helvetica,sans-Serif" font-size="10.00">cdisplaywindow.cpp</text>
</a>
</g>
</g>
<!-- Node1&#45;&gt;Node10 -->
<g id="edge9" class="edge">
<title>Node1&#45;&gt;Node10</title>
<path fill="none" stroke="midnightblue" d="M529.05,-109.17C559.17,-99 601.9,-84.59 628.77,-75.52"/>
<polygon fill="midnightblue" stroke="midnightblue" points="527.71,-105.93 519.35,-112.44 529.95,-112.56 527.71,-105.93"/>
</g>
<!-- Node11 -->
<g id="node11" class="node">
<title>Node11</title>
<g id="a_node11"><a xlink:href="../../dd/dde/btsearchresultarea_8cpp.html" target="_top" xlink:title=" ">
<polygon fill="white" stroke="black" points="729,-56.5 729,-75.5 857,-75.5 857,-56.5 729,-56.5"/>
<text text-anchor="middle" x="793" y="-63.5" font-family="Helvetica,sans-Serif" font-size="10.00">btsearchresultarea.cpp</text>
</a>
</g>
</g>
<!-- Node1&#45;&gt;Node11 -->
<g id="edge10" class="edge">
<title>Node1&#45;&gt;Node11</title>
<path fill="none" stroke="midnightblue" d="M551.23,-110.66C607.74,-100.46 693.12,-85.04 745.84,-75.52"/>
<polygon fill="midnightblue" stroke="midnightblue" points="550.6,-107.22 541.38,-112.44 551.84,-114.11 550.6,-107.22"/>
</g>
<!-- Node12 -->
<g id="node12" class="node">
<title>Node12</title>
<g id="a_node12"><a xlink:href="../../d4/dca/cdisplaysettings_8cpp.html" target="_top" xlink:title=" ">
<polygon fill="white" stroke="black" points="875,-56.5 875,-75.5 991,-75.5 991,-56.5 875,-56.5"/>
<text text-anchor="middle" x="933" y="-63.5" font-family="Helvetica,sans-Serif" font-size="10.00">cdisplaysettings.cpp</text>
</a>
</g>
</g>
<!-- Node1&#45;&gt;Node12 -->
<g id="edge11" class="edge">
<title>Node1&#45;&gt;Node12</title>
<path fill="none" stroke="midnightblue" d="M560.93,-113.17C635.42,-104.4 759.38,-89.61 866,-76 868.91,-75.63 871.89,-75.24 874.9,-74.85"/>
<polygon fill="midnightblue" stroke="midnightblue" points="560.27,-109.73 550.75,-114.37 561.09,-116.68 560.27,-109.73"/>
</g>
<!-- Node7 -->
<g id="node7" class="node">
<title>Node7</title>
<g id="a_node7"><a xlink:href="../../d9/de6/cbookmarkindex_8cpp.html" target="_top" xlink:title=" ">
<polygon fill="white" stroke="black" points="368.5,-0.5 368.5,-19.5 487.5,-19.5 487.5,-0.5 368.5,-0.5"/>
<text text-anchor="middle" x="428" y="-7.5" font-family="Helvetica,sans-Serif" font-size="10.00">cbookmarkindex.cpp</text>
</a>
</g>
</g>
<!-- Node6&#45;&gt;Node7 -->
<g id="edge6" class="edge">
<title>Node6&#45;&gt;Node7</title>
<path fill="none" stroke="midnightblue" d="M517.34,-52.23C495.45,-42.13 465.5,-28.31 446.45,-19.52"/>
<polygon fill="midnightblue" stroke="midnightblue" points="515.91,-55.43 526.46,-56.44 518.85,-49.08 515.91,-55.43"/>
</g>
<!-- Node8 -->
<g id="node8" class="node">
<title>Node8</title>
<g id="a_node8"><a xlink:href="../../d0/dae/btprinter_8cpp.html" target="_top" xlink:title=" ">
<polygon fill="white" stroke="black" points="506,-0.5 506,-19.5 584,-19.5 584,-0.5 506,-0.5"/>
<text text-anchor="middle" x="545" y="-7.5" font-family="Helvetica,sans-Serif" font-size="10.00">btprinter.cpp</text>
</a>
</g>
</g>
<!-- Node6&#45;&gt;Node8 -->
<g id="edge7" class="edge">
<title>Node6&#45;&gt;Node8</title>
<path fill="none" stroke="midnightblue" d="M545,-45.8C545,-36.91 545,-26.78 545,-19.75"/>
<polygon fill="midnightblue" stroke="midnightblue" points="541.5,-46.08 545,-56.08 548.5,-46.08 541.5,-46.08"/>
</g>
<!-- Node9 -->
<g id="node9" class="node">
<title>Node9</title>
<g id="a_node9"><a xlink:href="../../d5/deb/cexportmanager_8cpp.html" target="_top" xlink:title=" ">
<polygon fill="white" stroke="black" points="602,-0.5 602,-19.5 718,-19.5 718,-0.5 602,-0.5"/>
<text text-anchor="middle" x="660" y="-7.5" font-family="Helvetica,sans-Serif" font-size="10.00">cexportmanager.cpp</text>
</a>
</g>
</g>
<!-- Node6&#45;&gt;Node9 -->
<g id="edge8" class="edge">
<title>Node6&#45;&gt;Node9</title>
<path fill="none" stroke="midnightblue" d="M572.48,-52.1C593.97,-42.01 623.22,-28.27 641.86,-19.52"/>
<polygon fill="midnightblue" stroke="midnightblue" points="570.79,-49.02 563.22,-56.44 573.76,-55.36 570.79,-49.02"/>
</g>
</g>
</svg>
