<?xml version="1.0" encoding="UTF-8" standalone="no"?>
<!DOCTYPE svg PUBLIC "-//W3C//DTD SVG 1.1//EN"
 "http://www.w3.org/Graphics/SVG/1.1/DTD/svg11.dtd">
<!-- Generated by graphviz version 2.43.0 (0)
 -->
<!-- Title: bttextwindowheader.h Pages: 1 -->
<svg width="278pt" height="84pt"
 viewBox="0.00 0.00 277.50 84.00" xmlns="http://www.w3.org/2000/svg" xmlns:xlink="http://www.w3.org/1999/xlink">
<g id="graph0" class="graph" transform="scale(1 1) rotate(0) translate(4 80)">
<title>bttextwindowheader.h</title>
<polygon fill="white" stroke="transparent" points="-4,4 -4,-80 273.5,-80 273.5,4 -4,4"/>
<!-- Node1 -->
<g id="node1" class="node">
<title>Node1</title>
<g id="a_node1"><a xlink:title=" ">
<polygon fill="#bfbfbf" stroke="black" points="78,-56.5 78,-75.5 203,-75.5 203,-56.5 78,-56.5"/>
<text text-anchor="middle" x="140.5" y="-63.5" font-family="Helvetica,sans-Serif" font-size="10.00">bttextwindowheader.h</text>
</a>
</g>
</g>
<!-- Node2 -->
<g id="node2" class="node">
<title>Node2</title>
<g id="a_node2"><a xlink:href="../../d1/d0a/bttextwindowheader_8cpp.html" target="_top" xlink:title=" ">
<polygon fill="white" stroke="black" points="0,-0.5 0,-19.5 137,-19.5 137,-0.5 0,-0.5"/>
<text text-anchor="middle" x="68.5" y="-7.5" font-family="Helvetica,sans-Serif" font-size="10.00">bttextwindowheader.cpp</text>
</a>
</g>
</g>
<!-- Node1&#45;&gt;Node2 -->
<g id="edge1" class="edge">
<title>Node1&#45;&gt;Node2</title>
<path fill="none" stroke="midnightblue" d="M120.63,-50.1C107.68,-40.38 91.2,-28.03 80.28,-19.83"/>
<polygon fill="midnightblue" stroke="midnightblue" points="118.83,-53.12 128.93,-56.32 123.03,-47.52 118.83,-53.12"/>
</g>
<!-- Node3 -->
<g id="node3" class="node">
<title>Node3</title>
<g id="a_node3"><a xlink:href="../../d2/d26/cdisplaywindow_8cpp.html" target="_top" xlink:title=" ">
<polygon fill="white" stroke="black" points="155.5,-0.5 155.5,-19.5 269.5,-19.5 269.5,-0.5 155.5,-0.5"/>
<text text-anchor="middle" x="212.5" y="-7.5" font-family="Helvetica,sans-Serif" font-size="10.00">cdisplaywindow.cpp</text>
</a>
</g>
</g>
<!-- Node1&#45;&gt;Node3 -->
<g id="edge2" class="edge">
<title>Node1&#45;&gt;Node3</title>
<path fill="none" stroke="midnightblue" d="M160.37,-50.1C173.32,-40.38 189.8,-28.03 200.72,-19.83"/>
<polygon fill="midnightblue" stroke="midnightblue" points="157.97,-47.52 152.07,-56.32 162.17,-53.12 157.97,-47.52"/>
</g>
</g>
</svg>
