<?xml version="1.0" encoding="UTF-8" standalone="no"?>
<!DOCTYPE svg PUBLIC "-//W3C//DTD SVG 1.1//EN"
 "http://www.w3.org/Graphics/SVG/1.1/DTD/svg11.dtd">
<!-- Generated by graphviz version 2.43.0 (0)
 -->
<!-- Title: managers Pages: 1 -->
<svg width="316pt" height="404pt"
 viewBox="0.00 0.00 315.99 404.00" xmlns="http://www.w3.org/2000/svg" xmlns:xlink="http://www.w3.org/1999/xlink">
<g id="graph0" class="graph" transform="scale(1 1) rotate(0) translate(4 400)">
<title>managers</title>
<polygon fill="white" stroke="transparent" points="-4,4 -4,-400 311.99,-400 311.99,4 -4,4"/>
<g id="clust1" class="cluster">
<title>clusterdir_3f615ade772d23cefe5e20dcb18424a2</title>
<g id="a_clust1"><a xlink:href="dir_3f615ade772d23cefe5e20dcb18424a2.html" target="_top" xlink:title="backend">
<polygon fill="#ddddee" stroke="black" points="8,-208 8,-279 90,-279 90,-208 8,-208"/>
<text text-anchor="middle" x="49" y="-267" font-family="Helvetica,sans-Serif" font-size="10.00">backend</text>
</a>
</g>
</g>
<!-- dir_10540e180691539d14a045ae194980ae -->
<g id="node1" class="node">
<title>dir_10540e180691539d14a045ae194980ae</title>
<g id="a_node1"><a xlink:href="dir_10540e180691539d14a045ae194980ae.html" target="_top" xlink:title="managers">
<polygon fill="#eeeeff" stroke="black" points="81.5,-252 16.5,-252 16.5,-216 81.5,-216 81.5,-252"/>
<text text-anchor="middle" x="49" y="-231.5" font-family="Helvetica,sans-Serif" font-size="10.00">managers</text>
</a>
</g>
</g>
<!-- dir_8de3944d4b83abb802b44e4617c59fd6 -->
<g id="node2" class="node">
<title>dir_8de3944d4b83abb802b44e4617c59fd6</title>
<g id="a_node2"><a xlink:href="dir_8de3944d4b83abb802b44e4617c59fd6.html" target="_top" xlink:title="config">
<polygon fill="none" stroke="black" points="222,-324 168,-324 168,-288 222,-288 222,-324"/>
<text text-anchor="middle" x="195" y="-303.5" font-family="Helvetica,sans-Serif" font-size="10.00">config</text>
</a>
</g>
</g>
<!-- dir_10540e180691539d14a045ae194980ae&#45;&gt;dir_8de3944d4b83abb802b44e4617c59fd6 -->
<g id="edge6" class="edge">
<title>dir_10540e180691539d14a045ae194980ae&#45;&gt;dir_8de3944d4b83abb802b44e4617c59fd6</title>
<path fill="none" stroke="black" d="M55.59,-252.25C63.09,-261.43 74.67,-272.19 87,-279 98.74,-285.49 131.06,-293.36 157.45,-298.74"/>
<polygon fill="black" stroke="black" points="157.1,-302.23 167.59,-300.73 158.45,-295.37 157.1,-302.23"/>
<g id="a_edge6&#45;headlabel"><a xlink:href="dir_000018_000010.html" target="_top" xlink:title="3">
<text text-anchor="middle" x="153.02" y="-301.82" font-family="Helvetica,sans-Serif" font-size="10.00">3</text>
</a>
</g>
</g>
<!-- dir_b7878ad5ecbf2506f4125b9d34c97e45 -->
<g id="node3" class="node">
<title>dir_b7878ad5ecbf2506f4125b9d34c97e45</title>
<g id="a_node3"><a xlink:href="dir_b7878ad5ecbf2506f4125b9d34c97e45.html" target="_top" xlink:title="util">
<polygon fill="none" stroke="black" points="286,-252 232,-252 232,-216 286,-216 286,-252"/>
<text text-anchor="middle" x="259" y="-231.5" font-family="Helvetica,sans-Serif" font-size="10.00">util</text>
</a>
</g>
</g>
<!-- dir_10540e180691539d14a045ae194980ae&#45;&gt;dir_b7878ad5ecbf2506f4125b9d34c97e45 -->
<g id="edge7" class="edge">
<title>dir_10540e180691539d14a045ae194980ae&#45;&gt;dir_b7878ad5ecbf2506f4125b9d34c97e45</title>
<path fill="none" stroke="black" d="M81.81,-234C128.35,-234 174.88,-234 221.42,-234"/>
<polygon fill="black" stroke="black" points="221.66,-237.5 231.66,-234 221.66,-230.5 221.66,-237.5"/>
<g id="a_edge7&#45;headlabel"><a xlink:href="dir_000018_000003.html" target="_top" xlink:title="12">
<text text-anchor="middle" x="218.07" y="-237.84" font-family="Helvetica,sans-Serif" font-size="10.00">12</text>
</a>
</g>
</g>
<!-- dir_01d18f1cc77c9a191a0f93995e355f74 -->
<g id="node4" class="node">
<title>dir_01d18f1cc77c9a191a0f93995e355f74</title>
<g id="a_node4"><a xlink:href="dir_01d18f1cc77c9a191a0f93995e355f74.html" target="_top" xlink:title="keys">
<polygon fill="none" stroke="black" points="214,-36 160,-36 160,0 214,0 214,-36"/>
<text text-anchor="middle" x="187" y="-15.5" font-family="Helvetica,sans-Serif" font-size="10.00">keys</text>
</a>
</g>
</g>
<!-- dir_10540e180691539d14a045ae194980ae&#45;&gt;dir_01d18f1cc77c9a191a0f93995e355f74 -->
<g id="edge8" class="edge">
<title>dir_10540e180691539d14a045ae194980ae&#45;&gt;dir_01d18f1cc77c9a191a0f93995e355f74</title>
<path fill="none" stroke="black" d="M46.72,-215.59C43.51,-183.23 41.53,-113.34 77,-72 95.84,-50.04 125.87,-36.43 149.79,-28.51"/>
<polygon fill="black" stroke="black" points="151.11,-31.77 159.62,-25.46 149.03,-25.08 151.11,-31.77"/>
<g id="a_edge8&#45;headlabel"><a xlink:href="dir_000018_000023.html" target="_top" xlink:title="1">
<text text-anchor="middle" x="148.52" y="-33.04" font-family="Helvetica,sans-Serif" font-size="10.00">1</text>
</a>
</g>
</g>
<!-- dir_e40e2a39b3819c509dbc43bbd7688b8f -->
<g id="node5" class="node">
<title>dir_e40e2a39b3819c509dbc43bbd7688b8f</title>
<g id="a_node5"><a xlink:href="dir_e40e2a39b3819c509dbc43bbd7688b8f.html" target="_top" xlink:title="rendering">
<polygon fill="none" stroke="black" points="149.5,-108 86.5,-108 86.5,-72 149.5,-72 149.5,-108"/>
<text text-anchor="middle" x="118" y="-87.5" font-family="Helvetica,sans-Serif" font-size="10.00">rendering</text>
</a>
</g>
</g>
<!-- dir_10540e180691539d14a045ae194980ae&#45;&gt;dir_e40e2a39b3819c509dbc43bbd7688b8f -->
<g id="edge9" class="edge">
<title>dir_10540e180691539d14a045ae194980ae&#45;&gt;dir_e40e2a39b3819c509dbc43bbd7688b8f</title>
<path fill="none" stroke="black" d="M57.32,-215.87C69.24,-191.35 91.26,-146.03 105.24,-117.26"/>
<polygon fill="black" stroke="black" points="108.42,-118.71 109.65,-108.19 102.13,-115.65 108.42,-118.71"/>
<g id="a_edge9&#45;headlabel"><a xlink:href="dir_000018_000016.html" target="_top" xlink:title="3">
<text text-anchor="middle" x="109.41" y="-120.69" font-family="Helvetica,sans-Serif" font-size="10.00">3</text>
</a>
</g>
</g>
<!-- dir_ce499b53d7ae20affef1cc1ed540badc -->
<g id="node6" class="node">
<title>dir_ce499b53d7ae20affef1cc1ed540badc</title>
<g id="a_node6"><a xlink:href="dir_ce499b53d7ae20affef1cc1ed540badc.html" target="_top" xlink:title="filters">
<polygon fill="none" stroke="black" points="167,-396 113,-396 113,-360 167,-360 167,-396"/>
<text text-anchor="middle" x="140" y="-375.5" font-family="Helvetica,sans-Serif" font-size="10.00">filters</text>
</a>
</g>
</g>
<!-- dir_10540e180691539d14a045ae194980ae&#45;&gt;dir_ce499b53d7ae20affef1cc1ed540badc -->
<g id="edge10" class="edge">
<title>dir_10540e180691539d14a045ae194980ae&#45;&gt;dir_ce499b53d7ae20affef1cc1ed540badc</title>
<path fill="none" stroke="black" d="M44.52,-252.04C40.54,-270.97 37.15,-301.8 50,-324 61.51,-343.87 83.64,-357.05 103.08,-365.29"/>
<polygon fill="black" stroke="black" points="102.05,-368.65 112.64,-369.06 104.62,-362.14 102.05,-368.65"/>
<g id="a_edge10&#45;headlabel"><a xlink:href="dir_000018_000024.html" target="_top" xlink:title="5">
<text text-anchor="middle" x="97.67" y="-367.47" font-family="Helvetica,sans-Serif" font-size="10.00">5</text>
</a>
</g>
</g>
<!-- dir_7e922bb697d9df6892a9562f607351c1 -->
<g id="node7" class="node">
<title>dir_7e922bb697d9df6892a9562f607351c1</title>
<g id="a_node7"><a xlink:href="dir_7e922bb697d9df6892a9562f607351c1.html" target="_top" xlink:title="bookshelfmodel">
<polygon fill="none" stroke="black" points="307.5,-396 212.5,-396 212.5,-360 307.5,-360 307.5,-396"/>
<text text-anchor="middle" x="260" y="-375.5" font-family="Helvetica,sans-Serif" font-size="10.00">bookshelfmodel</text>
</a>
</g>
</g>
<!-- dir_10540e180691539d14a045ae194980ae&#45;&gt;dir_7e922bb697d9df6892a9562f607351c1 -->
<g id="edge11" class="edge">
<title>dir_10540e180691539d14a045ae194980ae&#45;&gt;dir_7e922bb697d9df6892a9562f607351c1</title>
<path fill="none" stroke="black" d="M66.35,-252.29C75.01,-260.64 85.8,-270.64 96,-279 122.62,-300.81 129.7,-305.96 159,-324 177.09,-335.14 197.76,-346.25 215.67,-355.4"/>
<polygon fill="black" stroke="black" points="214.25,-358.61 224.75,-360 217.41,-352.36 214.25,-358.61"/>
<g id="a_edge11&#45;headlabel"><a xlink:href="dir_000018_000007.html" target="_top" xlink:title="1">
<text text-anchor="middle" x="209.76" y="-357.02" font-family="Helvetica,sans-Serif" font-size="10.00">1</text>
</a>
</g>
</g>
<!-- dir_6ec4d305043bb2ac35319501d57f2d67 -->
<g id="node8" class="node">
<title>dir_6ec4d305043bb2ac35319501d57f2d67</title>
<g id="a_node8"><a xlink:href="dir_6ec4d305043bb2ac35319501d57f2d67.html" target="_top" xlink:title="drivers">
<polygon fill="none" stroke="black" points="214,-180 160,-180 160,-144 214,-144 214,-180"/>
<text text-anchor="middle" x="187" y="-159.5" font-family="Helvetica,sans-Serif" font-size="10.00">drivers</text>
</a>
</g>
</g>
<!-- dir_10540e180691539d14a045ae194980ae&#45;&gt;dir_6ec4d305043bb2ac35319501d57f2d67 -->
<g id="edge12" class="edge">
<title>dir_10540e180691539d14a045ae194980ae&#45;&gt;dir_6ec4d305043bb2ac35319501d57f2d67</title>
<path fill="none" stroke="black" d="M76.86,-215.88C98.11,-204.49 127.41,-189.66 150.51,-178.6"/>
<polygon fill="black" stroke="black" points="152.13,-181.71 159.67,-174.27 149.14,-175.38 152.13,-181.71"/>
<g id="a_edge12&#45;headlabel"><a xlink:href="dir_000018_000012.html" target="_top" xlink:title="12">
<text text-anchor="middle" x="150.1" y="-183.31" font-family="Helvetica,sans-Serif" font-size="10.00">12</text>
</a>
</g>
</g>
<!-- dir_8de3944d4b83abb802b44e4617c59fd6&#45;&gt;dir_10540e180691539d14a045ae194980ae -->
<g id="edge2" class="edge">
<title>dir_8de3944d4b83abb802b44e4617c59fd6&#45;&gt;dir_10540e180691539d14a045ae194980ae</title>
<path fill="none" stroke="black" d="M167.62,-297.75C145.3,-292.43 116.04,-285.1 105,-279 95.75,-273.89 86.93,-266.56 79.02,-259.34"/>
<polygon fill="black" stroke="black" points="81.13,-256.52 71.44,-252.25 76.35,-261.64 81.13,-256.52"/>
<g id="a_edge2&#45;headlabel"><a xlink:href="dir_000010_000018.html" target="_top" xlink:title="1">
<text text-anchor="middle" x="85.7" y="-254.41" font-family="Helvetica,sans-Serif" font-size="10.00">1</text>
</a>
</g>
</g>
<!-- dir_8de3944d4b83abb802b44e4617c59fd6&#45;&gt;dir_b7878ad5ecbf2506f4125b9d34c97e45 -->
<g id="edge1" class="edge">
<title>dir_8de3944d4b83abb802b44e4617c59fd6&#45;&gt;dir_b7878ad5ecbf2506f4125b9d34c97e45</title>
<path fill="none" stroke="black" d="M210.82,-287.7C218.57,-279.22 228.04,-268.86 236.52,-259.58"/>
<polygon fill="black" stroke="black" points="239.2,-261.85 243.36,-252.1 234.03,-257.12 239.2,-261.85"/>
<g id="a_edge1&#45;headlabel"><a xlink:href="dir_000010_000003.html" target="_top" xlink:title="5">
<text text-anchor="middle" x="238.87" y="-263.92" font-family="Helvetica,sans-Serif" font-size="10.00">5</text>
</a>
</g>
</g>
<!-- dir_8de3944d4b83abb802b44e4617c59fd6&#45;&gt;dir_6ec4d305043bb2ac35319501d57f2d67 -->
<g id="edge3" class="edge">
<title>dir_8de3944d4b83abb802b44e4617c59fd6&#45;&gt;dir_6ec4d305043bb2ac35319501d57f2d67</title>
<path fill="none" stroke="black" d="M189.45,-287.87C185.53,-263.67 182.73,-219.21 183.08,-190.39"/>
<polygon fill="black" stroke="black" points="186.59,-190.29 183.38,-180.19 179.59,-190.08 186.59,-190.29"/>
<g id="a_edge3&#45;headlabel"><a xlink:href="dir_000010_000012.html" target="_top" xlink:title="1">
<text text-anchor="middle" x="189.32" y="-191.46" font-family="Helvetica,sans-Serif" font-size="10.00">1</text>
</a>
</g>
</g>
<!-- dir_b7878ad5ecbf2506f4125b9d34c97e45&#45;&gt;dir_10540e180691539d14a045ae194980ae -->
<g id="edge4" class="edge">
<title>dir_b7878ad5ecbf2506f4125b9d34c97e45&#45;&gt;dir_10540e180691539d14a045ae194980ae</title>
<path fill="none" stroke="black" d="M231.66,-234C185.13,-234 138.59,-234 92.06,-234"/>
<polygon fill="black" stroke="black" points="91.81,-230.5 81.81,-234 91.81,-237.5 91.81,-230.5"/>
<g id="a_edge4&#45;headlabel"><a xlink:href="dir_000003_000018.html" target="_top" xlink:title="1">
<text text-anchor="middle" x="95.41" y="-225.16" font-family="Helvetica,sans-Serif" font-size="10.00">1</text>
</a>
</g>
</g>
<!-- dir_b7878ad5ecbf2506f4125b9d34c97e45&#45;&gt;dir_6ec4d305043bb2ac35319501d57f2d67 -->
<g id="edge5" class="edge">
<title>dir_b7878ad5ecbf2506f4125b9d34c97e45&#45;&gt;dir_6ec4d305043bb2ac35319501d57f2d67</title>
<path fill="none" stroke="black" d="M235.29,-215.7C225.69,-207.22 214.85,-196.86 205.81,-187.58"/>
<polygon fill="black" stroke="black" points="208.12,-184.94 198.7,-180.1 203.05,-189.76 208.12,-184.94"/>
<g id="a_edge5&#45;headlabel"><a xlink:href="dir_000003_000012.html" target="_top" xlink:title="2">
<text text-anchor="middle" x="212.66" y="-183.09" font-family="Helvetica,sans-Serif" font-size="10.00">2</text>
</a>
</g>
</g>
<!-- dir_01d18f1cc77c9a191a0f93995e355f74&#45;&gt;dir_b7878ad5ecbf2506f4125b9d34c97e45 -->
<g id="edge13" class="edge">
<title>dir_01d18f1cc77c9a191a0f93995e355f74&#45;&gt;dir_b7878ad5ecbf2506f4125b9d34c97e45</title>
<path fill="none" stroke="black" d="M197.36,-36.1C211.05,-59.55 234.85,-103.41 247,-144 253.06,-164.26 256.07,-188.03 257.56,-205.91"/>
<polygon fill="black" stroke="black" points="254.07,-206.22 258.28,-215.94 261.05,-205.71 254.07,-206.22"/>
<g id="a_edge13&#45;headlabel"><a xlink:href="dir_000023_000003.html" target="_top" xlink:title="6">
<text text-anchor="middle" x="250.98" y="-200.34" font-family="Helvetica,sans-Serif" font-size="10.00">6</text>
</a>
</g>
</g>
<!-- dir_01d18f1cc77c9a191a0f93995e355f74&#45;&gt;dir_6ec4d305043bb2ac35319501d57f2d67 -->
<g id="edge14" class="edge">
<title>dir_01d18f1cc77c9a191a0f93995e355f74&#45;&gt;dir_6ec4d305043bb2ac35319501d57f2d67</title>
<path fill="none" stroke="black" d="M191.59,-36.19C194.15,-60.42 194.43,-104.89 192.45,-133.68"/>
<polygon fill="black" stroke="black" points="188.95,-133.61 191.58,-143.87 195.92,-134.21 188.95,-133.61"/>
<g id="a_edge14&#45;headlabel"><a xlink:href="dir_000023_000012.html" target="_top" xlink:title="6">
<text text-anchor="middle" x="186.42" y="-127.29" font-family="Helvetica,sans-Serif" font-size="10.00">6</text>
</a>
</g>
</g>
<!-- dir_e40e2a39b3819c509dbc43bbd7688b8f&#45;&gt;dir_10540e180691539d14a045ae194980ae -->
<g id="edge17" class="edge">
<title>dir_e40e2a39b3819c509dbc43bbd7688b8f&#45;&gt;dir_10540e180691539d14a045ae194980ae</title>
<path fill="none" stroke="black" d="M99.53,-108.07C90.04,-117.77 79.03,-130.63 72,-144 61.82,-163.37 55.95,-187.52 52.69,-205.77"/>
<polygon fill="black" stroke="black" points="49.22,-205.32 51.06,-215.76 56.12,-206.45 49.22,-205.32"/>
<g id="a_edge17&#45;headlabel"><a xlink:href="dir_000016_000018.html" target="_top" xlink:title="10">
<text text-anchor="middle" x="46.99" y="-198.82" font-family="Helvetica,sans-Serif" font-size="10.00">10</text>
</a>
</g>
</g>
<!-- dir_e40e2a39b3819c509dbc43bbd7688b8f&#45;&gt;dir_8de3944d4b83abb802b44e4617c59fd6 -->
<g id="edge15" class="edge">
<title>dir_e40e2a39b3819c509dbc43bbd7688b8f&#45;&gt;dir_8de3944d4b83abb802b44e4617c59fd6</title>
<path fill="none" stroke="black" d="M123.96,-108.16C134.97,-139.79 159.44,-209.64 184.79,-278.29"/>
<polygon fill="black" stroke="black" points="181.62,-279.8 188.38,-287.96 188.19,-277.37 181.62,-279.8"/>
<g id="a_edge15&#45;headlabel"><a xlink:href="dir_000016_000010.html" target="_top" xlink:title="6">
<text text-anchor="middle" x="177.71" y="-274.91" font-family="Helvetica,sans-Serif" font-size="10.00">6</text>
</a>
</g>
</g>
<!-- dir_e40e2a39b3819c509dbc43bbd7688b8f&#45;&gt;dir_b7878ad5ecbf2506f4125b9d34c97e45 -->
<g id="edge16" class="edge">
<title>dir_e40e2a39b3819c509dbc43bbd7688b8f&#45;&gt;dir_b7878ad5ecbf2506f4125b9d34c97e45</title>
<path fill="none" stroke="black" d="M149.76,-100.3C172.78,-108.49 203.23,-122.51 223,-144 239,-161.39 248.32,-186.81 253.45,-206.03"/>
<polygon fill="black" stroke="black" points="250.11,-207.1 255.88,-215.98 256.91,-205.44 250.11,-207.1"/>
<g id="a_edge16&#45;headlabel"><a xlink:href="dir_000016_000003.html" target="_top" xlink:title="5">
<text text-anchor="middle" x="246.5" y="-201.79" font-family="Helvetica,sans-Serif" font-size="10.00">5</text>
</a>
</g>
</g>
<!-- dir_e40e2a39b3819c509dbc43bbd7688b8f&#45;&gt;dir_01d18f1cc77c9a191a0f93995e355f74 -->
<g id="edge18" class="edge">
<title>dir_e40e2a39b3819c509dbc43bbd7688b8f&#45;&gt;dir_01d18f1cc77c9a191a0f93995e355f74</title>
<path fill="none" stroke="black" d="M135.06,-71.7C143.5,-63.14 153.82,-52.66 163.04,-43.3"/>
<polygon fill="black" stroke="black" points="165.61,-45.68 170.14,-36.1 160.63,-40.77 165.61,-45.68"/>
<g id="a_edge18&#45;headlabel"><a xlink:href="dir_000016_000023.html" target="_top" xlink:title="12">
<text text-anchor="middle" x="165.11" y="-47.74" font-family="Helvetica,sans-Serif" font-size="10.00">12</text>
</a>
</g>
</g>
<!-- dir_e40e2a39b3819c509dbc43bbd7688b8f&#45;&gt;dir_6ec4d305043bb2ac35319501d57f2d67 -->
<g id="edge19" class="edge">
<title>dir_e40e2a39b3819c509dbc43bbd7688b8f&#45;&gt;dir_6ec4d305043bb2ac35319501d57f2d67</title>
<path fill="none" stroke="black" d="M140.76,-108.1C149.97,-116.55 160.37,-126.9 169.04,-136.2"/>
<polygon fill="black" stroke="black" points="166.54,-138.65 175.86,-143.7 171.72,-133.94 166.54,-138.65"/>
<g id="a_edge19&#45;headlabel"><a xlink:href="dir_000016_000012.html" target="_top" xlink:title="16">
<text text-anchor="middle" x="162.02" y="-135.4" font-family="Helvetica,sans-Serif" font-size="10.00">16</text>
</a>
</g>
</g>
<!-- dir_ce499b53d7ae20affef1cc1ed540badc&#45;&gt;dir_10540e180691539d14a045ae194980ae -->
<g id="edge22" class="edge">
<title>dir_ce499b53d7ae20affef1cc1ed540badc&#45;&gt;dir_10540e180691539d14a045ae194980ae</title>
<path fill="none" stroke="black" d="M119.92,-359.82C109.43,-350.09 96.95,-337.24 88,-324 74.85,-304.54 64.47,-279.93 57.73,-261.52"/>
<polygon fill="black" stroke="black" points="61,-260.26 54.37,-252 54.4,-262.6 61,-260.26"/>
<g id="a_edge22&#45;headlabel"><a xlink:href="dir_000024_000018.html" target="_top" xlink:title="7">
<text text-anchor="middle" x="64.88" y="-260.21" font-family="Helvetica,sans-Serif" font-size="10.00">7</text>
</a>
</g>
</g>
<!-- dir_ce499b53d7ae20affef1cc1ed540badc&#45;&gt;dir_8de3944d4b83abb802b44e4617c59fd6 -->
<g id="edge20" class="edge">
<title>dir_ce499b53d7ae20affef1cc1ed540badc&#45;&gt;dir_8de3944d4b83abb802b44e4617c59fd6</title>
<path fill="none" stroke="black" d="M153.6,-359.7C160.12,-351.39 168.07,-341.28 175.25,-332.14"/>
<polygon fill="black" stroke="black" points="178.13,-334.13 181.56,-324.1 172.63,-329.81 178.13,-334.13"/>
<g id="a_edge20&#45;headlabel"><a xlink:href="dir_000024_000010.html" target="_top" xlink:title="3">
<text text-anchor="middle" x="178.15" y="-336.21" font-family="Helvetica,sans-Serif" font-size="10.00">3</text>
</a>
</g>
</g>
<!-- dir_ce499b53d7ae20affef1cc1ed540badc&#45;&gt;dir_b7878ad5ecbf2506f4125b9d34c97e45 -->
<g id="edge21" class="edge">
<title>dir_ce499b53d7ae20affef1cc1ed540badc&#45;&gt;dir_b7878ad5ecbf2506f4125b9d34c97e45</title>
<path fill="none" stroke="black" d="M167.16,-367.43C187.46,-358.96 214.45,-344.71 231,-324 245.18,-306.25 252.23,-281.24 255.7,-262.24"/>
<polygon fill="black" stroke="black" points="259.2,-262.56 257.32,-252.13 252.28,-261.45 259.2,-262.56"/>
<g id="a_edge21&#45;headlabel"><a xlink:href="dir_000024_000003.html" target="_top" xlink:title="3">
<text text-anchor="middle" x="261.43" y="-264.06" font-family="Helvetica,sans-Serif" font-size="10.00">3</text>
</a>
</g>
</g>
<!-- dir_ce499b53d7ae20affef1cc1ed540badc&#45;&gt;dir_6ec4d305043bb2ac35319501d57f2d67 -->
<g id="edge23" class="edge">
<title>dir_ce499b53d7ae20affef1cc1ed540badc&#45;&gt;dir_6ec4d305043bb2ac35319501d57f2d67</title>
<path fill="none" stroke="black" d="M143.59,-359.93C147.37,-342 153.53,-313 159,-288 166.36,-254.35 175.06,-215.67 180.79,-190.35"/>
<polygon fill="black" stroke="black" points="184.25,-190.9 183.05,-180.38 177.43,-189.36 184.25,-190.9"/>
<g id="a_edge23&#45;headlabel"><a xlink:href="dir_000024_000012.html" target="_top" xlink:title="4">
<text text-anchor="middle" x="186.23" y="-192.54" font-family="Helvetica,sans-Serif" font-size="10.00">4</text>
</a>
</g>
</g>
<!-- dir_7e922bb697d9df6892a9562f607351c1&#45;&gt;dir_8de3944d4b83abb802b44e4617c59fd6 -->
<g id="edge24" class="edge">
<title>dir_7e922bb697d9df6892a9562f607351c1&#45;&gt;dir_8de3944d4b83abb802b44e4617c59fd6</title>
<path fill="none" stroke="black" d="M243.93,-359.7C236.06,-351.22 226.44,-340.86 217.83,-331.58"/>
<polygon fill="black" stroke="black" points="220.25,-329.05 210.88,-324.1 215.12,-333.81 220.25,-329.05"/>
<g id="a_edge24&#45;headlabel"><a xlink:href="dir_000007_000010.html" target="_top" xlink:title="1">
<text text-anchor="middle" x="224.78" y="-327.25" font-family="Helvetica,sans-Serif" font-size="10.00">1</text>
</a>
</g>
</g>
<!-- dir_7e922bb697d9df6892a9562f607351c1&#45;&gt;dir_b7878ad5ecbf2506f4125b9d34c97e45 -->
<g id="edge25" class="edge">
<title>dir_7e922bb697d9df6892a9562f607351c1&#45;&gt;dir_b7878ad5ecbf2506f4125b9d34c97e45</title>
<path fill="none" stroke="black" d="M261.62,-359.83C262.52,-349.47 263.55,-335.99 264,-324 264.6,-308.01 264.75,-303.98 264,-288 263.61,-279.66 262.87,-270.6 262.08,-262.37"/>
<polygon fill="black" stroke="black" points="265.53,-261.75 261.03,-252.16 258.57,-262.46 265.53,-261.75"/>
<g id="a_edge25&#45;headlabel"><a xlink:href="dir_000007_000003.html" target="_top" xlink:title="10">
<text text-anchor="middle" x="268.72" y="-262.53" font-family="Helvetica,sans-Serif" font-size="10.00">10</text>
</a>
</g>
</g>
<!-- dir_7e922bb697d9df6892a9562f607351c1&#45;&gt;dir_6ec4d305043bb2ac35319501d57f2d67 -->
<g id="edge26" class="edge">
<title>dir_7e922bb697d9df6892a9562f607351c1&#45;&gt;dir_6ec4d305043bb2ac35319501d57f2d67</title>
<path fill="none" stroke="black" d="M271.45,-359.57C291.27,-327 326.91,-255.87 295,-208 279.32,-184.49 248.79,-173.24 224.18,-167.87"/>
<polygon fill="black" stroke="black" points="224.53,-164.38 214.05,-165.91 223.2,-171.25 224.53,-164.38"/>
<g id="a_edge26&#45;headlabel"><a xlink:href="dir_000007_000012.html" target="_top" xlink:title="13">
<text text-anchor="middle" x="228.6" y="-159.77" font-family="Helvetica,sans-Serif" font-size="10.00">13</text>
</a>
</g>
</g>
<!-- dir_6ec4d305043bb2ac35319501d57f2d67&#45;&gt;dir_10540e180691539d14a045ae194980ae -->
<g id="edge29" class="edge">
<title>dir_6ec4d305043bb2ac35319501d57f2d67&#45;&gt;dir_10540e180691539d14a045ae194980ae</title>
<path fill="none" stroke="black" d="M159.81,-179.76C140.17,-190.3 113.4,-203.91 91.05,-214.72"/>
<polygon fill="black" stroke="black" points="89.27,-211.69 81.77,-219.17 92.3,-218 89.27,-211.69"/>
<g id="a_edge29&#45;headlabel"><a xlink:href="dir_000012_000018.html" target="_top" xlink:title="2">
<text text-anchor="middle" x="91.29" y="-205.08" font-family="Helvetica,sans-Serif" font-size="10.00">2</text>
</a>
</g>
</g>
<!-- dir_6ec4d305043bb2ac35319501d57f2d67&#45;&gt;dir_8de3944d4b83abb802b44e4617c59fd6 -->
<g id="edge27" class="edge">
<title>dir_6ec4d305043bb2ac35319501d57f2d67&#45;&gt;dir_8de3944d4b83abb802b44e4617c59fd6</title>
<path fill="none" stroke="black" d="M192.56,-180.19C196.48,-204.42 199.27,-248.89 198.91,-277.68"/>
<polygon fill="black" stroke="black" points="195.41,-277.77 198.62,-287.87 202.41,-277.98 195.41,-277.77"/>
<g id="a_edge27&#45;headlabel"><a xlink:href="dir_000012_000010.html" target="_top" xlink:title="1">
<text text-anchor="middle" x="192.68" y="-271.6" font-family="Helvetica,sans-Serif" font-size="10.00">1</text>
</a>
</g>
</g>
<!-- dir_6ec4d305043bb2ac35319501d57f2d67&#45;&gt;dir_b7878ad5ecbf2506f4125b9d34c97e45 -->
<g id="edge28" class="edge">
<title>dir_6ec4d305043bb2ac35319501d57f2d67&#45;&gt;dir_b7878ad5ecbf2506f4125b9d34c97e45</title>
<path fill="none" stroke="black" d="M210.49,-180.1C220.06,-188.55 230.91,-198.9 239.98,-208.2"/>
<polygon fill="black" stroke="black" points="237.69,-210.87 247.12,-215.7 242.76,-206.04 237.69,-210.87"/>
<g id="a_edge28&#45;headlabel"><a xlink:href="dir_000012_000003.html" target="_top" xlink:title="7">
<text text-anchor="middle" x="233.15" y="-207.72" font-family="Helvetica,sans-Serif" font-size="10.00">7</text>
</a>
</g>
</g>
<!-- dir_6ec4d305043bb2ac35319501d57f2d67&#45;&gt;dir_01d18f1cc77c9a191a0f93995e355f74 -->
<g id="edge30" class="edge">
<title>dir_6ec4d305043bb2ac35319501d57f2d67&#45;&gt;dir_01d18f1cc77c9a191a0f93995e355f74</title>
<path fill="none" stroke="black" d="M182.42,-143.87C179.86,-119.67 179.57,-75.21 181.54,-46.39"/>
<polygon fill="black" stroke="black" points="185.05,-46.45 182.41,-36.19 178.07,-45.86 185.05,-46.45"/>
<g id="a_edge30&#45;headlabel"><a xlink:href="dir_000012_000023.html" target="_top" xlink:title="2">
<text text-anchor="middle" x="187.57" y="-47.77" font-family="Helvetica,sans-Serif" font-size="10.00">2</text>
</a>
</g>
</g>
<!-- dir_6ec4d305043bb2ac35319501d57f2d67&#45;&gt;dir_e40e2a39b3819c509dbc43bbd7688b8f -->
<g id="edge31" class="edge">
<title>dir_6ec4d305043bb2ac35319501d57f2d67&#45;&gt;dir_e40e2a39b3819c509dbc43bbd7688b8f</title>
<path fill="none" stroke="black" d="M164.03,-143.7C154.8,-135.22 144.4,-124.86 135.75,-115.58"/>
<polygon fill="black" stroke="black" points="138.28,-113.16 128.96,-108.1 133.1,-117.86 138.28,-113.16"/>
<g id="a_edge31&#45;headlabel"><a xlink:href="dir_000012_000016.html" target="_top" xlink:title="1">
<text text-anchor="middle" x="142.8" y="-111.41" font-family="Helvetica,sans-Serif" font-size="10.00">1</text>
</a>
</g>
</g>
</g>
</svg>
