<?xml version="1.0" encoding="UTF-8" standalone="no"?>
<!DOCTYPE svg PUBLIC "-//W3C//DTD SVG 1.1//EN"
 "http://www.w3.org/Graphics/SVG/1.1/DTD/svg11.dtd">
<!-- Generated by graphviz version 2.43.0 (0)
 -->
<!-- Title: versekeychooser Pages: 1 -->
<svg width="140pt" height="223pt"
 viewBox="0.00 0.00 140.00 223.00" xmlns="http://www.w3.org/2000/svg" xmlns:xlink="http://www.w3.org/1999/xlink">
<g id="graph0" class="graph" transform="scale(1 1) rotate(0) translate(4 219)">
<title>versekeychooser</title>
<polygon fill="white" stroke="transparent" points="-4,4 -4,-219 136,-219 136,4 -4,4"/>
<g id="clust1" class="cluster">
<title>clusterdir_5e8fab8e4a29505e7cfff91a9e877bd0</title>
<g id="a_clust1"><a xlink:href="dir_5e8fab8e4a29505e7cfff91a9e877bd0.html" target="_top" xlink:title="keychooser">
<polygon fill="#ddddee" stroke="black" points="8,-136 8,-207 124,-207 124,-136 8,-136"/>
<text text-anchor="middle" x="66" y="-195" font-family="Helvetica,sans-Serif" font-size="10.00">keychooser</text>
</a>
</g>
</g>
<!-- dir_784136cec3a91c517f4c9dffe7e4b568 -->
<g id="node1" class="node">
<title>dir_784136cec3a91c517f4c9dffe7e4b568</title>
<g id="a_node1"><a xlink:href="dir_784136cec3a91c517f4c9dffe7e4b568.html" target="_top" xlink:title="versekeychooser">
<polygon fill="#eeeeff" stroke="black" points="115.5,-180 16.5,-180 16.5,-144 115.5,-144 115.5,-180"/>
<text text-anchor="middle" x="66" y="-159.5" font-family="Helvetica,sans-Serif" font-size="10.00">versekeychooser</text>
</a>
</g>
</g>
<!-- dir_b7878ad5ecbf2506f4125b9d34c97e45 -->
<g id="node2" class="node">
<title>dir_b7878ad5ecbf2506f4125b9d34c97e45</title>
<g id="a_node2"><a xlink:href="dir_b7878ad5ecbf2506f4125b9d34c97e45.html" target="_top" xlink:title="util">
<polygon fill="none" stroke="black" points="65,-108 11,-108 11,-72 65,-72 65,-108"/>
<text text-anchor="middle" x="38" y="-87.5" font-family="Helvetica,sans-Serif" font-size="10.00">util</text>
</a>
</g>
</g>
<!-- dir_784136cec3a91c517f4c9dffe7e4b568&#45;&gt;dir_b7878ad5ecbf2506f4125b9d34c97e45 -->
<g id="edge3" class="edge">
<title>dir_784136cec3a91c517f4c9dffe7e4b568&#45;&gt;dir_b7878ad5ecbf2506f4125b9d34c97e45</title>
<path fill="none" stroke="black" d="M59.08,-143.7C55.93,-135.81 52.12,-126.3 48.62,-117.55"/>
<polygon fill="black" stroke="black" points="51.81,-116.09 44.84,-108.1 45.31,-118.69 51.81,-116.09"/>
<g id="a_edge3&#45;headlabel"><a xlink:href="dir_000005_000003.html" target="_top" xlink:title="7">
<text text-anchor="middle" x="55.78" y="-115.87" font-family="Helvetica,sans-Serif" font-size="10.00">7</text>
</a>
</g>
</g>
<!-- dir_3f615ade772d23cefe5e20dcb18424a2 -->
<g id="node3" class="node">
<title>dir_3f615ade772d23cefe5e20dcb18424a2</title>
<g id="a_node3"><a xlink:href="dir_3f615ade772d23cefe5e20dcb18424a2.html" target="_top" xlink:title="backend">
<polygon fill="white" stroke="red" points="66.5,-36 9.5,-36 9.5,0 66.5,0 66.5,-36"/>
<text text-anchor="middle" x="38" y="-15.5" font-family="Helvetica,sans-Serif" font-size="10.00">backend</text>
</a>
</g>
</g>
<!-- dir_784136cec3a91c517f4c9dffe7e4b568&#45;&gt;dir_3f615ade772d23cefe5e20dcb18424a2 -->
<g id="edge4" class="edge">
<title>dir_784136cec3a91c517f4c9dffe7e4b568&#45;&gt;dir_3f615ade772d23cefe5e20dcb18424a2</title>
<path fill="none" stroke="black" d="M71.34,-143.87C76.16,-125.64 81.43,-96.17 74,-72 70.99,-62.22 65.49,-52.62 59.68,-44.33"/>
<polygon fill="black" stroke="black" points="62.41,-42.13 53.61,-36.23 56.81,-46.33 62.41,-42.13"/>
<g id="a_edge4&#45;headlabel"><a xlink:href="dir_000005_000006.html" target="_top" xlink:title="6">
<text text-anchor="middle" x="66.83" y="-40.8" font-family="Helvetica,sans-Serif" font-size="10.00">6</text>
</a>
</g>
</g>
<!-- dir_b7878ad5ecbf2506f4125b9d34c97e45&#45;&gt;dir_3f615ade772d23cefe5e20dcb18424a2 -->
<g id="edge1" class="edge">
<title>dir_b7878ad5ecbf2506f4125b9d34c97e45&#45;&gt;dir_3f615ade772d23cefe5e20dcb18424a2</title>
<path fill="none" stroke="black" d="M32.08,-71.7C31.29,-63.98 31.06,-54.71 31.4,-46.11"/>
<polygon fill="black" stroke="black" points="34.9,-46.32 32.1,-36.1 27.92,-45.84 34.9,-46.32"/>
<g id="a_edge1&#45;headlabel"><a xlink:href="dir_000003_000006.html" target="_top" xlink:title="3">
<text text-anchor="middle" x="37.48" y="-47.61" font-family="Helvetica,sans-Serif" font-size="10.00">3</text>
</a>
</g>
</g>
<!-- dir_3f615ade772d23cefe5e20dcb18424a2&#45;&gt;dir_b7878ad5ecbf2506f4125b9d34c97e45 -->
<g id="edge2" class="edge">
<title>dir_3f615ade772d23cefe5e20dcb18424a2&#45;&gt;dir_b7878ad5ecbf2506f4125b9d34c97e45</title>
<path fill="none" stroke="black" d="M43.9,-36.1C44.7,-43.79 44.94,-53.05 44.6,-61.67"/>
<polygon fill="black" stroke="black" points="41.11,-61.48 43.92,-71.7 48.09,-61.96 41.11,-61.48"/>
<g id="a_edge2&#45;headlabel"><a xlink:href="dir_000006_000003.html" target="_top" xlink:title="62">
<text text-anchor="middle" x="38.52" y="-55.2" font-family="Helvetica,sans-Serif" font-size="10.00">62</text>
</a>
</g>
</g>
</g>
</svg>
