<?xml version="1.0" encoding="UTF-8" standalone="no"?>
<!DOCTYPE svg PUBLIC "-//W3C//DTD SVG 1.1//EN"
 "http://www.w3.org/Graphics/SVG/1.1/DTD/svg11.dtd">
<!-- Generated by graphviz version 2.43.0 (0)
 -->
<!-- Title: drivers Pages: 1 -->
<svg width="188pt" height="311pt"
 viewBox="0.00 0.00 188.00 311.00" xmlns="http://www.w3.org/2000/svg" xmlns:xlink="http://www.w3.org/1999/xlink">
<g id="graph0" class="graph" transform="scale(1 1) rotate(0) translate(4 307)">
<title>drivers</title>
<polygon fill="white" stroke="transparent" points="-4,4 -4,-307 184,-307 184,4 -4,4"/>
<g id="clust1" class="cluster">
<title>clusterdir_3f615ade772d23cefe5e20dcb18424a2</title>
<g id="a_clust1"><a xlink:href="dir_3f615ade772d23cefe5e20dcb18424a2.html" target="_top" xlink:title="backend">
<polygon fill="#ddddee" stroke="black" points="8,-8 8,-295 118,-295 118,-8 8,-8"/>
<text text-anchor="middle" x="63" y="-283" font-family="Helvetica,sans-Serif" font-size="10.00">backend</text>
</a>
</g>
</g>
<!-- dir_01d18f1cc77c9a191a0f93995e355f74 -->
<g id="node1" class="node">
<title>dir_01d18f1cc77c9a191a0f93995e355f74</title>
<g id="a_node1"><a xlink:href="dir_01d18f1cc77c9a191a0f93995e355f74.html" target="_top" xlink:title="keys">
<polygon fill="none" stroke="black" points="110,-268 56,-268 56,-232 110,-232 110,-268"/>
<text text-anchor="middle" x="83" y="-247.5" font-family="Helvetica,sans-Serif" font-size="10.00">keys</text>
</a>
</g>
</g>
<!-- dir_6ec4d305043bb2ac35319501d57f2d67 -->
<g id="node4" class="node">
<title>dir_6ec4d305043bb2ac35319501d57f2d67</title>
<g id="a_node4"><a xlink:href="dir_6ec4d305043bb2ac35319501d57f2d67.html" target="_top" xlink:title="drivers">
<polygon fill="#eeeeff" stroke="black" points="110,-196 56,-196 56,-160 110,-160 110,-196"/>
<text text-anchor="middle" x="83" y="-175.5" font-family="Helvetica,sans-Serif" font-size="10.00">drivers</text>
</a>
</g>
</g>
<!-- dir_01d18f1cc77c9a191a0f93995e355f74&#45;&gt;dir_6ec4d305043bb2ac35319501d57f2d67 -->
<g id="edge9" class="edge">
<title>dir_01d18f1cc77c9a191a0f93995e355f74&#45;&gt;dir_6ec4d305043bb2ac35319501d57f2d67</title>
<path fill="none" stroke="black" d="M77.08,-231.7C76.29,-223.98 76.06,-214.71 76.4,-206.11"/>
<polygon fill="black" stroke="black" points="79.9,-206.32 77.1,-196.1 72.92,-205.84 79.9,-206.32"/>
<g id="a_edge9&#45;headlabel"><a xlink:href="dir_000023_000012.html" target="_top" xlink:title="5">
<text text-anchor="middle" x="82.48" y="-207.61" font-family="Helvetica,sans-Serif" font-size="10.00">5</text>
</a>
</g>
</g>
<!-- dir_b7878ad5ecbf2506f4125b9d34c97e45 -->
<g id="node5" class="node">
<title>dir_b7878ad5ecbf2506f4125b9d34c97e45</title>
<g id="a_node5"><a xlink:href="dir_b7878ad5ecbf2506f4125b9d34c97e45.html" target="_top" xlink:title="util">
<polygon fill="none" stroke="black" points="180,-52 126,-52 126,-16 180,-16 180,-52"/>
<text text-anchor="middle" x="153" y="-31.5" font-family="Helvetica,sans-Serif" font-size="10.00">util</text>
</a>
</g>
</g>
<!-- dir_01d18f1cc77c9a191a0f93995e355f74&#45;&gt;dir_b7878ad5ecbf2506f4125b9d34c97e45 -->
<g id="edge10" class="edge">
<title>dir_01d18f1cc77c9a191a0f93995e355f74&#45;&gt;dir_b7878ad5ecbf2506f4125b9d34c97e45</title>
<path fill="none" stroke="black" d="M100.19,-231.86C121.39,-209.39 156.31,-167.64 170,-124 176.45,-103.45 171.14,-79.43 164.8,-61.53"/>
<polygon fill="black" stroke="black" points="168,-60.09 161.14,-52.02 161.47,-62.61 168,-60.09"/>
<g id="a_edge10&#45;headlabel"><a xlink:href="dir_000023_000003.html" target="_top" xlink:title="6">
<text text-anchor="middle" x="171.94" y="-59.92" font-family="Helvetica,sans-Serif" font-size="10.00">6</text>
</a>
</g>
</g>
<!-- dir_10540e180691539d14a045ae194980ae -->
<g id="node2" class="node">
<title>dir_10540e180691539d14a045ae194980ae</title>
<g id="a_node2"><a xlink:href="dir_10540e180691539d14a045ae194980ae.html" target="_top" xlink:title="managers">
<polygon fill="none" stroke="black" points="94.5,-52 29.5,-52 29.5,-16 94.5,-16 94.5,-52"/>
<text text-anchor="middle" x="62" y="-31.5" font-family="Helvetica,sans-Serif" font-size="10.00">managers</text>
</a>
</g>
</g>
<!-- dir_10540e180691539d14a045ae194980ae&#45;&gt;dir_01d18f1cc77c9a191a0f93995e355f74 -->
<g id="edge5" class="edge">
<title>dir_10540e180691539d14a045ae194980ae&#45;&gt;dir_01d18f1cc77c9a191a0f93995e355f74</title>
<path fill="none" stroke="black" d="M53.28,-52.17C48.63,-62.31 43.38,-75.56 41,-88 31.99,-135.22 30.97,-150.68 47,-196 50.41,-205.65 56.02,-215.21 61.81,-223.5"/>
<polygon fill="black" stroke="black" points="59.06,-225.67 67.82,-231.63 64.69,-221.51 59.06,-225.67"/>
<g id="a_edge5&#45;headlabel"><a xlink:href="dir_000017_000023.html" target="_top" xlink:title="1">
<text text-anchor="middle" x="54.64" y="-221.97" font-family="Helvetica,sans-Serif" font-size="10.00">1</text>
</a>
</g>
</g>
<!-- dir_8de3944d4b83abb802b44e4617c59fd6 -->
<g id="node3" class="node">
<title>dir_8de3944d4b83abb802b44e4617c59fd6</title>
<g id="a_node3"><a xlink:href="dir_8de3944d4b83abb802b44e4617c59fd6.html" target="_top" xlink:title="config">
<polygon fill="none" stroke="black" points="110,-124 56,-124 56,-88 110,-88 110,-124"/>
<text text-anchor="middle" x="83" y="-103.5" font-family="Helvetica,sans-Serif" font-size="10.00">config</text>
</a>
</g>
</g>
<!-- dir_10540e180691539d14a045ae194980ae&#45;&gt;dir_8de3944d4b83abb802b44e4617c59fd6 -->
<g id="edge7" class="edge">
<title>dir_10540e180691539d14a045ae194980ae&#45;&gt;dir_8de3944d4b83abb802b44e4617c59fd6</title>
<path fill="none" stroke="black" d="M73.03,-52.1C76.17,-59.88 79.22,-69.26 81.48,-77.95"/>
<polygon fill="black" stroke="black" points="78.07,-78.74 83.72,-87.7 84.89,-77.17 78.07,-78.74"/>
<g id="a_edge7&#45;headlabel"><a xlink:href="dir_000017_000010.html" target="_top" xlink:title="3">
<text text-anchor="middle" x="74.49" y="-73.37" font-family="Helvetica,sans-Serif" font-size="10.00">3</text>
</a>
</g>
</g>
<!-- dir_10540e180691539d14a045ae194980ae&#45;&gt;dir_6ec4d305043bb2ac35319501d57f2d67 -->
<g id="edge6" class="edge">
<title>dir_10540e180691539d14a045ae194980ae&#45;&gt;dir_6ec4d305043bb2ac35319501d57f2d67</title>
<path fill="none" stroke="black" d="M61.2,-52.04C56.63,-70.18 48.49,-99.59 56,-124 58.98,-133.68 64.39,-143.18 69.73,-151.4"/>
<polygon fill="black" stroke="black" points="66.88,-153.44 75.37,-159.77 72.68,-149.52 66.88,-153.44"/>
<g id="a_edge6&#45;headlabel"><a xlink:href="dir_000017_000012.html" target="_top" xlink:title="12">
<text text-anchor="middle" x="62.51" y="-149.54" font-family="Helvetica,sans-Serif" font-size="10.00">12</text>
</a>
</g>
</g>
<!-- dir_10540e180691539d14a045ae194980ae&#45;&gt;dir_b7878ad5ecbf2506f4125b9d34c97e45 -->
<g id="edge8" class="edge">
<title>dir_10540e180691539d14a045ae194980ae&#45;&gt;dir_b7878ad5ecbf2506f4125b9d34c97e45</title>
<path fill="none" stroke="black" d="M94.7,-34C101.64,-34 108.58,-34 115.51,-34"/>
<polygon fill="black" stroke="black" points="115.67,-37.5 125.67,-34 115.67,-30.5 115.67,-37.5"/>
<g id="a_edge8&#45;headlabel"><a xlink:href="dir_000017_000003.html" target="_top" xlink:title="10">
<text text-anchor="middle" x="112.08" y="-37.84" font-family="Helvetica,sans-Serif" font-size="10.00">10</text>
</a>
</g>
</g>
<!-- dir_8de3944d4b83abb802b44e4617c59fd6&#45;&gt;dir_10540e180691539d14a045ae194980ae -->
<g id="edge1" class="edge">
<title>dir_8de3944d4b83abb802b44e4617c59fd6&#45;&gt;dir_10540e180691539d14a045ae194980ae</title>
<path fill="none" stroke="black" d="M71.89,-87.7C68.78,-79.98 65.78,-70.71 63.54,-62.11"/>
<polygon fill="black" stroke="black" points="66.89,-61.07 61.24,-52.1 60.07,-62.63 66.89,-61.07"/>
<g id="a_edge1&#45;headlabel"><a xlink:href="dir_000010_000017.html" target="_top" xlink:title="1">
<text text-anchor="middle" x="70.46" y="-61.43" font-family="Helvetica,sans-Serif" font-size="10.00">1</text>
</a>
</g>
</g>
<!-- dir_8de3944d4b83abb802b44e4617c59fd6&#45;&gt;dir_6ec4d305043bb2ac35319501d57f2d67 -->
<g id="edge2" class="edge">
<title>dir_8de3944d4b83abb802b44e4617c59fd6&#45;&gt;dir_6ec4d305043bb2ac35319501d57f2d67</title>
<path fill="none" stroke="black" d="M88.9,-124.1C89.7,-131.79 89.94,-141.05 89.6,-149.67"/>
<polygon fill="black" stroke="black" points="86.11,-149.48 88.92,-159.7 93.09,-149.96 86.11,-149.48"/>
<g id="a_edge2&#45;headlabel"><a xlink:href="dir_000010_000012.html" target="_top" xlink:title="1">
<text text-anchor="middle" x="83.52" y="-143.2" font-family="Helvetica,sans-Serif" font-size="10.00">1</text>
</a>
</g>
</g>
<!-- dir_8de3944d4b83abb802b44e4617c59fd6&#45;&gt;dir_b7878ad5ecbf2506f4125b9d34c97e45 -->
<g id="edge3" class="edge">
<title>dir_8de3944d4b83abb802b44e4617c59fd6&#45;&gt;dir_b7878ad5ecbf2506f4125b9d34c97e45</title>
<path fill="none" stroke="black" d="M100.3,-87.7C108.86,-79.14 119.34,-68.66 128.7,-59.3"/>
<polygon fill="black" stroke="black" points="131.3,-61.65 135.9,-52.1 126.35,-56.7 131.3,-61.65"/>
<g id="a_edge3&#45;headlabel"><a xlink:href="dir_000010_000003.html" target="_top" xlink:title="5">
<text text-anchor="middle" x="130.77" y="-63.7" font-family="Helvetica,sans-Serif" font-size="10.00">5</text>
</a>
</g>
</g>
<!-- dir_6ec4d305043bb2ac35319501d57f2d67&#45;&gt;dir_01d18f1cc77c9a191a0f93995e355f74 -->
<g id="edge11" class="edge">
<title>dir_6ec4d305043bb2ac35319501d57f2d67&#45;&gt;dir_01d18f1cc77c9a191a0f93995e355f74</title>
<path fill="none" stroke="black" d="M88.9,-196.1C89.7,-203.79 89.94,-213.05 89.6,-221.67"/>
<polygon fill="black" stroke="black" points="86.11,-221.48 88.92,-231.7 93.09,-221.96 86.11,-221.48"/>
<g id="a_edge11&#45;headlabel"><a xlink:href="dir_000012_000023.html" target="_top" xlink:title="5">
<text text-anchor="middle" x="83.52" y="-215.2" font-family="Helvetica,sans-Serif" font-size="10.00">5</text>
</a>
</g>
</g>
<!-- dir_6ec4d305043bb2ac35319501d57f2d67&#45;&gt;dir_10540e180691539d14a045ae194980ae -->
<g id="edge12" class="edge">
<title>dir_6ec4d305043bb2ac35319501d57f2d67&#45;&gt;dir_10540e180691539d14a045ae194980ae</title>
<path fill="none" stroke="black" d="M59.41,-159.77C50.63,-150.03 42.05,-137.18 38,-124 31.67,-103.4 36.47,-79.25 43.66,-61.31"/>
<polygon fill="black" stroke="black" points="46.92,-62.59 47.85,-52.04 40.54,-59.71 46.92,-62.59"/>
<g id="a_edge12&#45;headlabel"><a xlink:href="dir_000012_000017.html" target="_top" xlink:title="2">
<text text-anchor="middle" x="48.03" y="-64.54" font-family="Helvetica,sans-Serif" font-size="10.00">2</text>
</a>
</g>
</g>
<!-- dir_6ec4d305043bb2ac35319501d57f2d67&#45;&gt;dir_8de3944d4b83abb802b44e4617c59fd6 -->
<g id="edge13" class="edge">
<title>dir_6ec4d305043bb2ac35319501d57f2d67&#45;&gt;dir_8de3944d4b83abb802b44e4617c59fd6</title>
<path fill="none" stroke="black" d="M77.08,-159.7C76.29,-151.98 76.06,-142.71 76.4,-134.11"/>
<polygon fill="black" stroke="black" points="79.9,-134.32 77.1,-124.1 72.92,-133.84 79.9,-134.32"/>
<g id="a_edge13&#45;headlabel"><a xlink:href="dir_000012_000010.html" target="_top" xlink:title="1">
<text text-anchor="middle" x="82.48" y="-135.61" font-family="Helvetica,sans-Serif" font-size="10.00">1</text>
</a>
</g>
</g>
<!-- dir_6ec4d305043bb2ac35319501d57f2d67&#45;&gt;dir_b7878ad5ecbf2506f4125b9d34c97e45 -->
<g id="edge14" class="edge">
<title>dir_6ec4d305043bb2ac35319501d57f2d67&#45;&gt;dir_b7878ad5ecbf2506f4125b9d34c97e45</title>
<path fill="none" stroke="black" d="M96.06,-159.97C103.42,-149.87 112.42,-136.62 119,-124 129.47,-103.92 138.47,-79.87 144.57,-61.83"/>
<polygon fill="black" stroke="black" points="147.93,-62.83 147.74,-52.24 141.28,-60.64 147.93,-62.83"/>
<g id="a_edge14&#45;headlabel"><a xlink:href="dir_000012_000003.html" target="_top" xlink:title="8">
<text text-anchor="middle" x="149.49" y="-64.64" font-family="Helvetica,sans-Serif" font-size="10.00">8</text>
</a>
</g>
</g>
<!-- dir_b7878ad5ecbf2506f4125b9d34c97e45&#45;&gt;dir_6ec4d305043bb2ac35319501d57f2d67 -->
<g id="edge4" class="edge">
<title>dir_b7878ad5ecbf2506f4125b9d34c97e45&#45;&gt;dir_6ec4d305043bb2ac35319501d57f2d67</title>
<path fill="none" stroke="black" d="M157.03,-52.1C160.52,-70.81 163.4,-101.19 152,-124 144.87,-138.27 131.87,-149.79 119.07,-158.39"/>
<polygon fill="black" stroke="black" points="116.92,-155.61 110.31,-163.89 120.64,-161.54 116.92,-155.61"/>
<g id="a_edge4&#45;headlabel"><a xlink:href="dir_000003_000012.html" target="_top" xlink:title="4">
<text text-anchor="middle" x="118.46" y="-148.79" font-family="Helvetica,sans-Serif" font-size="10.00">4</text>
</a>
</g>
</g>
</g>
</svg>
