<?xml version="1.0" encoding="UTF-8" standalone="no"?>
<!DOCTYPE svg PUBLIC "-//W3C//DTD SVG 1.1//EN"
 "http://www.w3.org/Graphics/SVG/1.1/DTD/svg11.dtd">
<!-- Generated by graphviz version 2.43.0 (0)
 -->
<!-- Title: drivers Pages: 1 -->
<svg width="256pt" height="332pt"
 viewBox="0.00 0.00 256.30 332.00" xmlns="http://www.w3.org/2000/svg" xmlns:xlink="http://www.w3.org/1999/xlink">
<g id="graph0" class="graph" transform="scale(1 1) rotate(0) translate(4 328)">
<title>drivers</title>
<polygon fill="white" stroke="transparent" points="-4,4 -4,-328 252.3,-328 252.3,4 -4,4"/>
<g id="clust1" class="cluster">
<title>clusterdir_3f615ade772d23cefe5e20dcb18424a2</title>
<g id="a_clust1"><a xlink:href="dir_3f615ade772d23cefe5e20dcb18424a2.html" target="_top" xlink:title="backend">
<polygon fill="#ddddee" stroke="black" points="8,-136 8,-207 78,-207 78,-136 8,-136"/>
<text text-anchor="middle" x="43" y="-195" font-family="Helvetica,sans-Serif" font-size="10.00">backend</text>
</a>
</g>
</g>
<!-- dir_6ec4d305043bb2ac35319501d57f2d67 -->
<g id="node1" class="node">
<title>dir_6ec4d305043bb2ac35319501d57f2d67</title>
<g id="a_node1"><a xlink:href="dir_6ec4d305043bb2ac35319501d57f2d67.html" target="_top" xlink:title="drivers">
<polygon fill="#eeeeff" stroke="black" points="70,-180 16,-180 16,-144 70,-144 70,-180"/>
<text text-anchor="middle" x="43" y="-159.5" font-family="Helvetica,sans-Serif" font-size="10.00">drivers</text>
</a>
</g>
</g>
<!-- dir_8de3944d4b83abb802b44e4617c59fd6 -->
<g id="node2" class="node">
<title>dir_8de3944d4b83abb802b44e4617c59fd6</title>
<g id="a_node2"><a xlink:href="dir_8de3944d4b83abb802b44e4617c59fd6.html" target="_top" xlink:title="config">
<polygon fill="none" stroke="black" points="193,-324 139,-324 139,-288 193,-288 193,-324"/>
<text text-anchor="middle" x="166" y="-303.5" font-family="Helvetica,sans-Serif" font-size="10.00">config</text>
</a>
</g>
</g>
<!-- dir_6ec4d305043bb2ac35319501d57f2d67&#45;&gt;dir_8de3944d4b83abb802b44e4617c59fd6 -->
<g id="edge18" class="edge">
<title>dir_6ec4d305043bb2ac35319501d57f2d67&#45;&gt;dir_8de3944d4b83abb802b44e4617c59fd6</title>
<path fill="none" stroke="black" d="M51.32,-180.29C60.92,-199.17 77.99,-229.69 98,-252 107.81,-262.94 120.1,-273.28 131.52,-281.88"/>
<polygon fill="black" stroke="black" points="129.5,-284.73 139.63,-287.81 133.63,-279.08 129.5,-284.73"/>
<g id="a_edge18&#45;headlabel"><a xlink:href="dir_000012_000010.html" target="_top" xlink:title="1">
<text text-anchor="middle" x="124.92" y="-282.4" font-family="Helvetica,sans-Serif" font-size="10.00">1</text>
</a>
</g>
</g>
<!-- dir_b7878ad5ecbf2506f4125b9d34c97e45 -->
<g id="node3" class="node">
<title>dir_b7878ad5ecbf2506f4125b9d34c97e45</title>
<g id="a_node3"><a xlink:href="dir_b7878ad5ecbf2506f4125b9d34c97e45.html" target="_top" xlink:title="util">
<polygon fill="none" stroke="black" points="161,-252 107,-252 107,-216 161,-216 161,-252"/>
<text text-anchor="middle" x="134" y="-231.5" font-family="Helvetica,sans-Serif" font-size="10.00">util</text>
</a>
</g>
</g>
<!-- dir_6ec4d305043bb2ac35319501d57f2d67&#45;&gt;dir_b7878ad5ecbf2506f4125b9d34c97e45 -->
<g id="edge19" class="edge">
<title>dir_6ec4d305043bb2ac35319501d57f2d67&#45;&gt;dir_b7878ad5ecbf2506f4125b9d34c97e45</title>
<path fill="none" stroke="black" d="M48.58,-180.21C55.07,-188.94 64.86,-199.29 75,-207 81.77,-212.15 89.72,-216.8 97.6,-220.7"/>
<polygon fill="black" stroke="black" points="96.22,-223.91 106.76,-224.91 99.14,-217.55 96.22,-223.91"/>
<g id="a_edge19&#45;headlabel"><a xlink:href="dir_000012_000003.html" target="_top" xlink:title="7">
<text text-anchor="middle" x="91.76" y="-222.49" font-family="Helvetica,sans-Serif" font-size="10.00">7</text>
</a>
</g>
</g>
<!-- dir_10540e180691539d14a045ae194980ae -->
<g id="node4" class="node">
<title>dir_10540e180691539d14a045ae194980ae</title>
<g id="a_node4"><a xlink:href="dir_10540e180691539d14a045ae194980ae.html" target="_top" xlink:title="managers">
<polygon fill="none" stroke="black" points="229.5,-180 164.5,-180 164.5,-144 229.5,-144 229.5,-180"/>
<text text-anchor="middle" x="197" y="-159.5" font-family="Helvetica,sans-Serif" font-size="10.00">managers</text>
</a>
</g>
</g>
<!-- dir_6ec4d305043bb2ac35319501d57f2d67&#45;&gt;dir_10540e180691539d14a045ae194980ae -->
<g id="edge20" class="edge">
<title>dir_6ec4d305043bb2ac35319501d57f2d67&#45;&gt;dir_10540e180691539d14a045ae194980ae</title>
<path fill="none" stroke="black" d="M70.07,-162C98.04,-162 126,-162 153.97,-162"/>
<polygon fill="black" stroke="black" points="154.28,-165.5 164.28,-162 154.28,-158.5 154.28,-165.5"/>
<g id="a_edge20&#45;headlabel"><a xlink:href="dir_000012_000018.html" target="_top" xlink:title="2">
<text text-anchor="middle" x="150.68" y="-165.84" font-family="Helvetica,sans-Serif" font-size="10.00">2</text>
</a>
</g>
</g>
<!-- dir_01d18f1cc77c9a191a0f93995e355f74 -->
<g id="node5" class="node">
<title>dir_01d18f1cc77c9a191a0f93995e355f74</title>
<g id="a_node5"><a xlink:href="dir_01d18f1cc77c9a191a0f93995e355f74.html" target="_top" xlink:title="keys">
<polygon fill="none" stroke="black" points="125,-36 71,-36 71,0 125,0 125,-36"/>
<text text-anchor="middle" x="98" y="-15.5" font-family="Helvetica,sans-Serif" font-size="10.00">keys</text>
</a>
</g>
</g>
<!-- dir_6ec4d305043bb2ac35319501d57f2d67&#45;&gt;dir_01d18f1cc77c9a191a0f93995e355f74 -->
<g id="edge21" class="edge">
<title>dir_6ec4d305043bb2ac35319501d57f2d67&#45;&gt;dir_01d18f1cc77c9a191a0f93995e355f74</title>
<path fill="none" stroke="black" d="M43.77,-143.94C45.12,-125.53 48.83,-95.65 59,-72 63.2,-62.24 69.49,-52.58 75.81,-44.23"/>
<polygon fill="black" stroke="black" points="78.57,-46.37 82.05,-36.36 73.09,-42.02 78.57,-46.37"/>
<g id="a_edge21&#45;headlabel"><a xlink:href="dir_000012_000023.html" target="_top" xlink:title="2">
<text text-anchor="middle" x="78.56" y="-48.45" font-family="Helvetica,sans-Serif" font-size="10.00">2</text>
</a>
</g>
</g>
<!-- dir_e40e2a39b3819c509dbc43bbd7688b8f -->
<g id="node6" class="node">
<title>dir_e40e2a39b3819c509dbc43bbd7688b8f</title>
<g id="a_node6"><a xlink:href="dir_e40e2a39b3819c509dbc43bbd7688b8f.html" target="_top" xlink:title="rendering">
<polygon fill="none" stroke="black" points="189.5,-108 126.5,-108 126.5,-72 189.5,-72 189.5,-108"/>
<text text-anchor="middle" x="158" y="-87.5" font-family="Helvetica,sans-Serif" font-size="10.00">rendering</text>
</a>
</g>
</g>
<!-- dir_6ec4d305043bb2ac35319501d57f2d67&#45;&gt;dir_e40e2a39b3819c509dbc43bbd7688b8f -->
<g id="edge22" class="edge">
<title>dir_6ec4d305043bb2ac35319501d57f2d67&#45;&gt;dir_e40e2a39b3819c509dbc43bbd7688b8f</title>
<path fill="none" stroke="black" d="M65.24,-143.88C80.08,-134.23 99.89,-122.1 117.45,-111.89"/>
<polygon fill="black" stroke="black" points="119.46,-114.77 126.38,-106.75 115.97,-108.7 119.46,-114.77"/>
<g id="a_edge22&#45;headlabel"><a xlink:href="dir_000012_000016.html" target="_top" xlink:title="1">
<text text-anchor="middle" x="117.76" y="-116.52" font-family="Helvetica,sans-Serif" font-size="10.00">1</text>
</a>
</g>
</g>
<!-- dir_8de3944d4b83abb802b44e4617c59fd6&#45;&gt;dir_6ec4d305043bb2ac35319501d57f2d67 -->
<g id="edge3" class="edge">
<title>dir_8de3944d4b83abb802b44e4617c59fd6&#45;&gt;dir_6ec4d305043bb2ac35319501d57f2d67</title>
<path fill="none" stroke="black" d="M138.73,-297.59C115.7,-289.93 83.57,-275.69 65,-252 51.23,-234.43 45.94,-209.4 43.98,-190.36"/>
<polygon fill="black" stroke="black" points="47.45,-189.9 43.18,-180.21 40.47,-190.45 47.45,-189.9"/>
<g id="a_edge3&#45;headlabel"><a xlink:href="dir_000010_000012.html" target="_top" xlink:title="1">
<text text-anchor="middle" x="50.57" y="-190.76" font-family="Helvetica,sans-Serif" font-size="10.00">1</text>
</a>
</g>
</g>
<!-- dir_8de3944d4b83abb802b44e4617c59fd6&#45;&gt;dir_b7878ad5ecbf2506f4125b9d34c97e45 -->
<g id="edge1" class="edge">
<title>dir_8de3944d4b83abb802b44e4617c59fd6&#45;&gt;dir_b7878ad5ecbf2506f4125b9d34c97e45</title>
<path fill="none" stroke="black" d="M158.09,-287.7C154.45,-279.73 150.05,-270.1 146.01,-261.26"/>
<polygon fill="black" stroke="black" points="149.16,-259.74 141.82,-252.1 142.79,-262.65 149.16,-259.74"/>
<g id="a_edge1&#45;headlabel"><a xlink:href="dir_000010_000003.html" target="_top" xlink:title="5">
<text text-anchor="middle" x="153.24" y="-259.33" font-family="Helvetica,sans-Serif" font-size="10.00">5</text>
</a>
</g>
</g>
<!-- dir_8de3944d4b83abb802b44e4617c59fd6&#45;&gt;dir_10540e180691539d14a045ae194980ae -->
<g id="edge2" class="edge">
<title>dir_8de3944d4b83abb802b44e4617c59fd6&#45;&gt;dir_10540e180691539d14a045ae194980ae</title>
<path fill="none" stroke="black" d="M165.15,-287.87C167.89,-263.56 177.38,-218.82 185.67,-190.01"/>
<polygon fill="black" stroke="black" points="189.1,-190.77 188.66,-180.19 182.4,-188.74 189.1,-190.77"/>
<g id="a_edge2&#45;headlabel"><a xlink:href="dir_000010_000018.html" target="_top" xlink:title="1">
<text text-anchor="middle" x="190.77" y="-192.54" font-family="Helvetica,sans-Serif" font-size="10.00">1</text>
</a>
</g>
</g>
<!-- dir_b7878ad5ecbf2506f4125b9d34c97e45&#45;&gt;dir_6ec4d305043bb2ac35319501d57f2d67 -->
<g id="edge5" class="edge">
<title>dir_b7878ad5ecbf2506f4125b9d34c97e45&#45;&gt;dir_6ec4d305043bb2ac35319501d57f2d67</title>
<path fill="none" stroke="black" d="M106.76,-216.11C102.03,-213.31 97.28,-210.26 93,-207 85.55,-201.34 78.3,-194.25 71.62,-187.43"/>
<polygon fill="black" stroke="black" points="74.1,-184.96 64.63,-180.21 69.08,-189.83 74.1,-184.96"/>
<g id="a_edge5&#45;headlabel"><a xlink:href="dir_000003_000012.html" target="_top" xlink:title="2">
<text text-anchor="middle" x="78.64" y="-183.06" font-family="Helvetica,sans-Serif" font-size="10.00">2</text>
</a>
</g>
</g>
<!-- dir_b7878ad5ecbf2506f4125b9d34c97e45&#45;&gt;dir_10540e180691539d14a045ae194980ae -->
<g id="edge4" class="edge">
<title>dir_b7878ad5ecbf2506f4125b9d34c97e45&#45;&gt;dir_10540e180691539d14a045ae194980ae</title>
<path fill="none" stroke="black" d="M143.66,-215.7C150.48,-207.14 159.73,-196.66 168.66,-187.3"/>
<polygon fill="black" stroke="black" points="171.22,-189.7 175.71,-180.1 166.22,-184.8 171.22,-189.7"/>
<g id="a_edge4&#45;headlabel"><a xlink:href="dir_000003_000018.html" target="_top" xlink:title="1">
<text text-anchor="middle" x="170.73" y="-191.75" font-family="Helvetica,sans-Serif" font-size="10.00">1</text>
</a>
</g>
</g>
<!-- dir_10540e180691539d14a045ae194980ae&#45;&gt;dir_6ec4d305043bb2ac35319501d57f2d67 -->
<g id="edge10" class="edge">
<title>dir_10540e180691539d14a045ae194980ae&#45;&gt;dir_6ec4d305043bb2ac35319501d57f2d67</title>
<path fill="none" stroke="black" d="M164.28,-162C136.31,-162 108.34,-162 80.37,-162"/>
<polygon fill="black" stroke="black" points="80.07,-158.5 70.07,-162 80.07,-165.5 80.07,-158.5"/>
<g id="a_edge10&#45;headlabel"><a xlink:href="dir_000018_000012.html" target="_top" xlink:title="12">
<text text-anchor="middle" x="83.66" y="-153.16" font-family="Helvetica,sans-Serif" font-size="10.00">12</text>
</a>
</g>
</g>
<!-- dir_10540e180691539d14a045ae194980ae&#45;&gt;dir_8de3944d4b83abb802b44e4617c59fd6 -->
<g id="edge6" class="edge">
<title>dir_10540e180691539d14a045ae194980ae&#45;&gt;dir_8de3944d4b83abb802b44e4617c59fd6</title>
<path fill="none" stroke="black" d="M197.84,-180.19C195.09,-204.53 185.6,-249.28 177.31,-278.06"/>
<polygon fill="black" stroke="black" points="173.89,-277.29 174.32,-287.87 180.58,-279.32 173.89,-277.29"/>
<g id="a_edge6&#45;headlabel"><a xlink:href="dir_000018_000010.html" target="_top" xlink:title="3">
<text text-anchor="middle" x="172.22" y="-270.52" font-family="Helvetica,sans-Serif" font-size="10.00">3</text>
</a>
</g>
</g>
<!-- dir_10540e180691539d14a045ae194980ae&#45;&gt;dir_b7878ad5ecbf2506f4125b9d34c97e45 -->
<g id="edge7" class="edge">
<title>dir_10540e180691539d14a045ae194980ae&#45;&gt;dir_b7878ad5ecbf2506f4125b9d34c97e45</title>
<path fill="none" stroke="black" d="M187.5,-180.1C180.72,-188.64 171.48,-199.11 162.54,-208.48"/>
<polygon fill="black" stroke="black" points="159.98,-206.1 155.49,-215.7 164.98,-210.99 159.98,-206.1"/>
<g id="a_edge7&#45;headlabel"><a xlink:href="dir_000018_000003.html" target="_top" xlink:title="12">
<text text-anchor="middle" x="160.46" y="-199.04" font-family="Helvetica,sans-Serif" font-size="10.00">12</text>
</a>
</g>
</g>
<!-- dir_10540e180691539d14a045ae194980ae&#45;&gt;dir_01d18f1cc77c9a191a0f93995e355f74 -->
<g id="edge8" class="edge">
<title>dir_10540e180691539d14a045ae194980ae&#45;&gt;dir_01d18f1cc77c9a191a0f93995e355f74</title>
<path fill="none" stroke="black" d="M202.49,-143.88C207.49,-124.86 212.27,-93.96 199,-72 185.17,-49.12 157.83,-35.63 135.08,-27.99"/>
<polygon fill="black" stroke="black" points="135.93,-24.59 125.34,-24.97 133.86,-31.28 135.93,-24.59"/>
<g id="a_edge8&#45;headlabel"><a xlink:href="dir_000018_000023.html" target="_top" xlink:title="1">
<text text-anchor="middle" x="140.21" y="-20.44" font-family="Helvetica,sans-Serif" font-size="10.00">1</text>
</a>
</g>
</g>
<!-- dir_10540e180691539d14a045ae194980ae&#45;&gt;dir_e40e2a39b3819c509dbc43bbd7688b8f -->
<g id="edge9" class="edge">
<title>dir_10540e180691539d14a045ae194980ae&#45;&gt;dir_e40e2a39b3819c509dbc43bbd7688b8f</title>
<path fill="none" stroke="black" d="M181.44,-143.7C176.18,-135.73 170.6,-126.1 166.07,-117.26"/>
<polygon fill="black" stroke="black" points="169.15,-115.58 161.63,-108.1 162.85,-118.63 169.15,-115.58"/>
<g id="a_edge9&#45;headlabel"><a xlink:href="dir_000018_000016.html" target="_top" xlink:title="3">
<text text-anchor="middle" x="173.27" y="-115.07" font-family="Helvetica,sans-Serif" font-size="10.00">3</text>
</a>
</g>
</g>
<!-- dir_01d18f1cc77c9a191a0f93995e355f74&#45;&gt;dir_6ec4d305043bb2ac35319501d57f2d67 -->
<g id="edge12" class="edge">
<title>dir_01d18f1cc77c9a191a0f93995e355f74&#45;&gt;dir_6ec4d305043bb2ac35319501d57f2d67</title>
<path fill="none" stroke="black" d="M91.34,-36.19C81.87,-60.64 64.43,-105.67 53.29,-134.44"/>
<polygon fill="black" stroke="black" points="49.98,-133.28 49.63,-143.87 56.51,-135.81 49.98,-133.28"/>
<g id="a_edge12&#45;headlabel"><a xlink:href="dir_000023_000012.html" target="_top" xlink:title="6">
<text text-anchor="middle" x="48.63" y="-126.4" font-family="Helvetica,sans-Serif" font-size="10.00">6</text>
</a>
</g>
</g>
<!-- dir_01d18f1cc77c9a191a0f93995e355f74&#45;&gt;dir_b7878ad5ecbf2506f4125b9d34c97e45 -->
<g id="edge11" class="edge">
<title>dir_01d18f1cc77c9a191a0f93995e355f74&#45;&gt;dir_b7878ad5ecbf2506f4125b9d34c97e45</title>
<path fill="none" stroke="black" d="M100.9,-36.23C107.14,-73.32 121.88,-160.98 129.41,-205.71"/>
<polygon fill="black" stroke="black" points="126,-206.57 131.11,-215.85 132.91,-205.41 126,-206.57"/>
<g id="a_edge11&#45;headlabel"><a xlink:href="dir_000023_000003.html" target="_top" xlink:title="6">
<text text-anchor="middle" x="122.61" y="-200.99" font-family="Helvetica,sans-Serif" font-size="10.00">6</text>
</a>
</g>
</g>
<!-- dir_e40e2a39b3819c509dbc43bbd7688b8f&#45;&gt;dir_6ec4d305043bb2ac35319501d57f2d67 -->
<g id="edge17" class="edge">
<title>dir_e40e2a39b3819c509dbc43bbd7688b8f&#45;&gt;dir_6ec4d305043bb2ac35319501d57f2d67</title>
<path fill="none" stroke="black" d="M135.83,-108.08C119.64,-118.61 97.52,-132.09 78.88,-142.82"/>
<polygon fill="black" stroke="black" points="77.01,-139.85 70.04,-147.83 80.47,-145.94 77.01,-139.85"/>
<g id="a_edge17&#45;headlabel"><a xlink:href="dir_000016_000012.html" target="_top" xlink:title="16">
<text text-anchor="middle" x="78.73" y="-133.11" font-family="Helvetica,sans-Serif" font-size="10.00">16</text>
</a>
</g>
</g>
<!-- dir_e40e2a39b3819c509dbc43bbd7688b8f&#45;&gt;dir_8de3944d4b83abb802b44e4617c59fd6 -->
<g id="edge13" class="edge">
<title>dir_e40e2a39b3819c509dbc43bbd7688b8f&#45;&gt;dir_8de3944d4b83abb802b44e4617c59fd6</title>
<path fill="none" stroke="black" d="M189.84,-99.87C207.67,-106.65 228.39,-117.98 239,-136 267.51,-184.45 222.38,-246.11 191.34,-279.95"/>
<polygon fill="black" stroke="black" points="188.51,-277.85 184.2,-287.53 193.6,-282.65 188.51,-277.85"/>
<g id="a_edge13&#45;headlabel"><a xlink:href="dir_000016_000010.html" target="_top" xlink:title="6">
<text text-anchor="middle" x="188.91" y="-270.79" font-family="Helvetica,sans-Serif" font-size="10.00">6</text>
</a>
</g>
</g>
<!-- dir_e40e2a39b3819c509dbc43bbd7688b8f&#45;&gt;dir_b7878ad5ecbf2506f4125b9d34c97e45 -->
<g id="edge14" class="edge">
<title>dir_e40e2a39b3819c509dbc43bbd7688b8f&#45;&gt;dir_b7878ad5ecbf2506f4125b9d34c97e45</title>
<path fill="none" stroke="black" d="M155.09,-108.19C151,-132.42 143.48,-176.89 138.62,-205.68"/>
<polygon fill="black" stroke="black" points="135.11,-205.43 136.89,-215.87 142.01,-206.59 135.11,-205.43"/>
<g id="a_edge14&#45;headlabel"><a xlink:href="dir_000016_000003.html" target="_top" xlink:title="5">
<text text-anchor="middle" x="132.91" y="-198.91" font-family="Helvetica,sans-Serif" font-size="10.00">5</text>
</a>
</g>
</g>
<!-- dir_e40e2a39b3819c509dbc43bbd7688b8f&#45;&gt;dir_10540e180691539d14a045ae194980ae -->
<g id="edge15" class="edge">
<title>dir_e40e2a39b3819c509dbc43bbd7688b8f&#45;&gt;dir_10540e180691539d14a045ae194980ae</title>
<path fill="none" stroke="black" d="M173.42,-108.1C178.68,-116.04 184.27,-125.67 188.81,-134.51"/>
<polygon fill="black" stroke="black" points="185.76,-136.23 193.28,-143.7 192.05,-133.17 185.76,-136.23"/>
<g id="a_edge15&#45;headlabel"><a xlink:href="dir_000016_000018.html" target="_top" xlink:title="10">
<text text-anchor="middle" x="181.63" y="-131.74" font-family="Helvetica,sans-Serif" font-size="10.00">10</text>
</a>
</g>
</g>
<!-- dir_e40e2a39b3819c509dbc43bbd7688b8f&#45;&gt;dir_01d18f1cc77c9a191a0f93995e355f74 -->
<g id="edge16" class="edge">
<title>dir_e40e2a39b3819c509dbc43bbd7688b8f&#45;&gt;dir_01d18f1cc77c9a191a0f93995e355f74</title>
<path fill="none" stroke="black" d="M143.17,-71.7C135.98,-63.3 127.2,-53.07 119.31,-43.86"/>
<polygon fill="black" stroke="black" points="121.83,-41.42 112.66,-36.1 116.51,-45.97 121.83,-41.42"/>
<g id="a_edge16&#45;headlabel"><a xlink:href="dir_000016_000023.html" target="_top" xlink:title="12">
<text text-anchor="middle" x="126.32" y="-39.8" font-family="Helvetica,sans-Serif" font-size="10.00">12</text>
</a>
</g>
</g>
</g>
</svg>
