<?xml version="1.0" encoding="UTF-8" standalone="no"?>
<!DOCTYPE svg PUBLIC "-//W3C//DTD SVG 1.1//EN"
 "http://www.w3.org/Graphics/SVG/1.1/DTD/svg11.dtd">
<!-- Generated by graphviz version 2.43.0 (0)
 -->
<!-- Title: frontend Pages: 1 -->
<!--zoomable 519 -->
<svg id="main" version="1.1" xmlns="http://www.w3.org/2000/svg" xmlns:xlink="http://www.w3.org/1999/xlink" xml:space="preserve" onload="init(evt)">
<style type="text/css"><![CDATA[
.edge:hover path { stroke: red; }
.edge:hover polygon { stroke: red; fill: red; }
]]></style>
<script type="text/javascript"><![CDATA[
var edges = document.getElementsByTagName('g');
if (edges && edges.length) {
  for (var i=0;i<edges.length;i++) {
    if (edges[i].id.substr(0,4)=='edge') {
      edges[i].setAttribute('class','edge');
    }
  }
}
]]></script>
        <defs>
                <circle id="rim" cx="0" cy="0" r="7"/>
                <circle id="rim2" cx="0" cy="0" r="3.5"/>
                <g id="zoomPlus">
                        <use xlink:href="#rim" fill="#404040">
                                <set attributeName="fill" to="#808080" begin="zoomplus.mouseover" end="zoomplus.mouseout"/>
                        </use>
                        <path d="M-4,0h8M0,-4v8" fill="none" stroke="white" stroke-width="1.5" pointer-events="none"/>
                </g>
                <g id="zoomMin">
                        <use xlink:href="#rim" fill="#404040">
                                <set attributeName="fill" to="#808080" begin="zoomminus.mouseover" end="zoomminus.mouseout"/>
                        </use>
                        <path d="M-4,0h8" fill="none" stroke="white" stroke-width="1.5" pointer-events="none"/>
                </g>
                <g id="dirArrow">
                        <path fill="none" stroke="white" stroke-width="1.5" d="M0,-3.0v7 M-2.5,-0.5L0,-3.0L2.5,-0.5"/>
                </g>
               <g id="resetDef">
                       <use xlink:href="#rim2" fill="#404040">
                               <set attributeName="fill" to="#808080" begin="reset.mouseover" end="reset.mouseout"/>
                       </use>
               </g>
        </defs>

<script type="text/javascript">
var viewWidth = 698;
var viewHeight = 519;
var sectionId = 'dynsection-0';
</script>
<script xlink:href="svgpan.js"/>
<svg id="graph" class="graph">
<g id="viewport">
<title>frontend</title>
<polygon fill="white" stroke="transparent" points="-4,4 -4,-515 694.08,-515 694.08,4 -4,4"/>
<g id="clust1" class="cluster">
<title>clusterdir_68267d1309a1af8e8297ef4c3efbcdba</title>
<g id="a_clust1"><a xlink:href="dir_68267d1309a1af8e8297ef4c3efbcdba.html" target="_top" xlink:title="src">
<polygon fill="#ddddee" stroke="black" points="12.08,-128 12.08,-503 490.08,-503 490.08,-128 12.08,-128"/>
<text text-anchor="middle" x="251.08" y="-491" font-family="Helvetica,sans-Serif" font-size="10.00">src</text>
</a>
</g>
</g>
<g id="clust2" class="cluster">
<title>clusterdir_8509b06bafa958d2011203a730bf5778</title>
<g id="a_clust2"><a xlink:href="dir_8509b06bafa958d2011203a730bf5778.html" target="_top">
<polygon fill="#eeeeff" stroke="black" points="20.08,-136 20.08,-476 482.08,-476 482.08,-136 20.08,-136"/>
</a>
</g>
</g>
<!-- dir_8509b06bafa958d2011203a730bf5778 -->
<g id="node1" class="node">
<title>dir_8509b06bafa958d2011203a730bf5778</title>
<text text-anchor="middle" x="242.08" y="-447.5" font-family="Helvetica,sans-Serif" font-size="10.00">frontend</text>
</g>
<!-- dir_456f04bd0d201031cd8bf05815d9072a -->
<g id="node2" class="node">
<title>dir_456f04bd0d201031cd8bf05815d9072a</title>
<g id="a_node2"><a xlink:href="dir_456f04bd0d201031cd8bf05815d9072a.html" target="_top" xlink:title="bookmarks">
<polygon fill="white" stroke="black" points="99.58,-396 28.58,-396 28.58,-360 99.58,-360 99.58,-396"/>
<text text-anchor="middle" x="64.08" y="-375.5" font-family="Helvetica,sans-Serif" font-size="10.00">bookmarks</text>
</a>
</g>
</g>
<!-- dir_8509b06bafa958d2011203a730bf5778&#45;&gt;dir_456f04bd0d201031cd8bf05815d9072a -->
<g id="edge10" class="edge">
<title>dir_8509b06bafa958d2011203a730bf5778&#45;&gt;dir_456f04bd0d201031cd8bf05815d9072a</title>
<path fill="none" stroke="black" d="M212.69,-437.44C184.59,-426.39 141.82,-409.57 109.37,-396.81"/>
<polygon fill="black" stroke="black" points="110.24,-393.39 99.65,-392.99 107.68,-399.91 110.24,-393.39"/>
<g id="a_edge10&#45;headlabel"><a xlink:href="dir_000001_000013.html" target="_top" xlink:title="1">
<text text-anchor="middle" x="114.63" y="-389.57" font-family="Helvetica,sans-Serif" font-size="10.00">1</text>
</a>
</g>
</g>
<!-- dir_4d145141914537c3735ad4f485b19a8b -->
<g id="node3" class="node">
<title>dir_4d145141914537c3735ad4f485b19a8b</title>
<g id="a_node3"><a xlink:href="dir_4d145141914537c3735ad4f485b19a8b.html" target="_top" xlink:title="bookshelfwizard">
<polygon fill="white" stroke="black" points="474.08,-396 378.08,-396 378.08,-360 474.08,-360 474.08,-396"/>
<text text-anchor="middle" x="426.08" y="-375.5" font-family="Helvetica,sans-Serif" font-size="10.00">bookshelfwizard</text>
</a>
</g>
</g>
<!-- dir_8509b06bafa958d2011203a730bf5778&#45;&gt;dir_4d145141914537c3735ad4f485b19a8b -->
<g id="edge9" class="edge">
<title>dir_8509b06bafa958d2011203a730bf5778&#45;&gt;dir_4d145141914537c3735ad4f485b19a8b</title>
<path fill="none" stroke="black" d="M271.24,-437.91C298.17,-427.66 338.86,-412.18 371.77,-399.66"/>
<polygon fill="black" stroke="black" points="373.17,-402.87 381.27,-396.05 370.68,-396.33 373.17,-402.87"/>
<g id="a_edge9&#45;headlabel"><a xlink:href="dir_000001_000008.html" target="_top" xlink:title="1">
<text text-anchor="middle" x="370.82" y="-404.31" font-family="Helvetica,sans-Serif" font-size="10.00">1</text>
</a>
</g>
</g>
<!-- dir_9e8bdbf8072a007328ed31e81b244b8d -->
<g id="node9" class="node">
<title>dir_9e8bdbf8072a007328ed31e81b244b8d</title>
<g id="a_node9"><a xlink:href="dir_9e8bdbf8072a007328ed31e81b244b8d.html" target="_top" xlink:title="settingsdialogs">
<polygon fill="white" stroke="black" points="287.58,-396 196.58,-396 196.58,-360 287.58,-360 287.58,-396"/>
<text text-anchor="middle" x="242.08" y="-375.5" font-family="Helvetica,sans-Serif" font-size="10.00">settingsdialogs</text>
</a>
</g>
</g>
<!-- dir_8509b06bafa958d2011203a730bf5778&#45;&gt;dir_9e8bdbf8072a007328ed31e81b244b8d -->
<g id="edge11" class="edge">
<title>dir_8509b06bafa958d2011203a730bf5778&#45;&gt;dir_9e8bdbf8072a007328ed31e81b244b8d</title>
<path fill="none" stroke="black" d="M242.08,-431.7C242.08,-423.98 242.08,-414.71 242.08,-406.11"/>
<polygon fill="black" stroke="black" points="245.58,-406.1 242.08,-396.1 238.58,-406.1 245.58,-406.1"/>
<g id="a_edge11&#45;headlabel"><a xlink:href="dir_000001_000011.html" target="_top" xlink:title="2">
<text text-anchor="middle" x="248.42" y="-407.2" font-family="Helvetica,sans-Serif" font-size="10.00">2</text>
</a>
</g>
</g>
<!-- dir_d8fe3b5277a95a62e460731f350dc32b -->
<g id="node10" class="node">
<title>dir_d8fe3b5277a95a62e460731f350dc32b</title>
<g id="a_node10"><a xlink:href="dir_d8fe3b5277a95a62e460731f350dc32b.html" target="_top" xlink:title="tips">
<polygon fill="white" stroke="black" points="360.08,-396 306.08,-396 306.08,-360 360.08,-360 360.08,-396"/>
<text text-anchor="middle" x="333.08" y="-375.5" font-family="Helvetica,sans-Serif" font-size="10.00">tips</text>
</a>
</g>
</g>
<!-- dir_8509b06bafa958d2011203a730bf5778&#45;&gt;dir_d8fe3b5277a95a62e460731f350dc32b -->
<g id="edge13" class="edge">
<title>dir_8509b06bafa958d2011203a730bf5778&#45;&gt;dir_d8fe3b5277a95a62e460731f350dc32b</title>
<path fill="none" stroke="black" d="M264.58,-431.7C276.04,-422.88 290.14,-412.03 302.56,-402.47"/>
<polygon fill="black" stroke="black" points="305.05,-404.98 310.85,-396.1 300.79,-399.43 305.05,-404.98"/>
<g id="a_edge13&#45;headlabel"><a xlink:href="dir_000001_000020.html" target="_top" xlink:title="1">
<text text-anchor="middle" x="303.94" y="-406.92" font-family="Helvetica,sans-Serif" font-size="10.00">1</text>
</a>
</g>
</g>
<!-- dir_27a1f5db9153c889c86814d62b8cfdb4 -->
<g id="node11" class="node">
<title>dir_27a1f5db9153c889c86814d62b8cfdb4</title>
<g id="a_node11"><a xlink:href="dir_27a1f5db9153c889c86814d62b8cfdb4.html" target="_top" xlink:title="welcome">
<polygon fill="white" stroke="black" points="178.58,-396 117.58,-396 117.58,-360 178.58,-360 178.58,-396"/>
<text text-anchor="middle" x="148.08" y="-375.5" font-family="Helvetica,sans-Serif" font-size="10.00">welcome</text>
</a>
</g>
</g>
<!-- dir_8509b06bafa958d2011203a730bf5778&#45;&gt;dir_27a1f5db9153c889c86814d62b8cfdb4 -->
<g id="edge12" class="edge">
<title>dir_8509b06bafa958d2011203a730bf5778&#45;&gt;dir_27a1f5db9153c889c86814d62b8cfdb4</title>
<path fill="none" stroke="black" d="M218.85,-431.7C206.89,-422.8 192.16,-411.82 179.23,-402.2"/>
<polygon fill="black" stroke="black" points="181.16,-399.27 171.05,-396.1 176.98,-404.88 181.16,-399.27"/>
<g id="a_edge12&#45;headlabel"><a xlink:href="dir_000001_000021.html" target="_top" xlink:title="1">
<text text-anchor="middle" x="185.74" y="-396.64" font-family="Helvetica,sans-Serif" font-size="10.00">1</text>
</a>
</g>
</g>
<!-- dir_0d6f4a9ff896de1e84b23c77a5313942 -->
<g id="node8" class="node">
<title>dir_0d6f4a9ff896de1e84b23c77a5313942</title>
<g id="a_node8"><a xlink:href="dir_0d6f4a9ff896de1e84b23c77a5313942.html" target="_top" xlink:title="searchdialog">
<polygon fill="white" stroke="red" points="106.58,-324 27.58,-324 27.58,-288 106.58,-288 106.58,-324"/>
<text text-anchor="middle" x="67.08" y="-303.5" font-family="Helvetica,sans-Serif" font-size="10.00">searchdialog</text>
</a>
</g>
</g>
<!-- dir_456f04bd0d201031cd8bf05815d9072a&#45;&gt;dir_0d6f4a9ff896de1e84b23c77a5313942 -->
<g id="edge14" class="edge">
<title>dir_456f04bd0d201031cd8bf05815d9072a&#45;&gt;dir_0d6f4a9ff896de1e84b23c77a5313942</title>
<path fill="none" stroke="black" d="M64.82,-359.7C65.15,-351.98 65.55,-342.71 65.92,-334.11"/>
<polygon fill="black" stroke="black" points="69.42,-334.25 66.35,-324.1 62.42,-333.95 69.42,-334.25"/>
<g id="a_edge14&#45;headlabel"><a xlink:href="dir_000013_000015.html" target="_top" xlink:title="1">
<text text-anchor="middle" x="72.1" y="-335.46" font-family="Helvetica,sans-Serif" font-size="10.00">1</text>
</a>
</g>
</g>
<!-- dir_b7878ad5ecbf2506f4125b9d34c97e45 -->
<g id="node12" class="node">
<title>dir_b7878ad5ecbf2506f4125b9d34c97e45</title>
<g id="a_node12"><a xlink:href="dir_b7878ad5ecbf2506f4125b9d34c97e45.html" target="_top" xlink:title="util">
<polygon fill="none" stroke="black" points="375.08,-108 321.08,-108 321.08,-72 375.08,-72 375.08,-108"/>
<text text-anchor="middle" x="348.08" y="-87.5" font-family="Helvetica,sans-Serif" font-size="10.00">util</text>
</a>
</g>
</g>
<!-- dir_456f04bd0d201031cd8bf05815d9072a&#45;&gt;dir_b7878ad5ecbf2506f4125b9d34c97e45 -->
<g id="edge15" class="edge">
<title>dir_456f04bd0d201031cd8bf05815d9072a&#45;&gt;dir_b7878ad5ecbf2506f4125b9d34c97e45</title>
<path fill="none" stroke="black" d="M99.96,-362.68C102.69,-361.73 105.42,-360.83 108.08,-360 173.96,-339.52 201.4,-361.85 259.08,-324 321.99,-282.73 331.2,-253.32 348.08,-180 352.75,-159.7 352.5,-136.11 351.22,-118.31"/>
<polygon fill="black" stroke="black" points="354.71,-117.98 350.35,-108.32 347.73,-118.59 354.71,-117.98"/>
<g id="a_edge15&#45;headlabel"><a xlink:href="dir_000013_000003.html" target="_top" xlink:title="8">
<text text-anchor="middle" x="357.85" y="-118.81" font-family="Helvetica,sans-Serif" font-size="10.00">8</text>
</a>
</g>
</g>
<!-- dir_3f615ade772d23cefe5e20dcb18424a2 -->
<g id="node13" class="node">
<title>dir_3f615ade772d23cefe5e20dcb18424a2</title>
<g id="a_node13"><a xlink:href="dir_3f615ade772d23cefe5e20dcb18424a2.html" target="_top" xlink:title="backend">
<polygon fill="white" stroke="red" points="376.58,-36 319.58,-36 319.58,0 376.58,0 376.58,-36"/>
<text text-anchor="middle" x="348.08" y="-15.5" font-family="Helvetica,sans-Serif" font-size="10.00">backend</text>
</a>
</g>
</g>
<!-- dir_456f04bd0d201031cd8bf05815d9072a&#45;&gt;dir_3f615ade772d23cefe5e20dcb18424a2 -->
<g id="edge16" class="edge">
<title>dir_456f04bd0d201031cd8bf05815d9072a&#45;&gt;dir_3f615ade772d23cefe5e20dcb18424a2</title>
<path fill="none" stroke="black" d="M99.92,-362.55C102.66,-361.63 105.4,-360.77 108.08,-360 189.44,-336.66 223.72,-369.51 295.08,-324 382.62,-268.17 371.06,-211.01 384.08,-108 386.09,-92.13 388.78,-87.29 384.08,-72 381.07,-62.22 375.57,-52.62 369.77,-44.33"/>
<polygon fill="black" stroke="black" points="372.49,-42.13 363.69,-36.23 366.89,-46.33 372.49,-42.13"/>
<g id="a_edge16&#45;headlabel"><a xlink:href="dir_000013_000006.html" target="_top" xlink:title="5">
<text text-anchor="middle" x="376.92" y="-40.8" font-family="Helvetica,sans-Serif" font-size="10.00">5</text>
</a>
</g>
</g>
<!-- dir_4d145141914537c3735ad4f485b19a8b&#45;&gt;dir_b7878ad5ecbf2506f4125b9d34c97e45 -->
<g id="edge1" class="edge">
<title>dir_4d145141914537c3735ad4f485b19a8b&#45;&gt;dir_b7878ad5ecbf2506f4125b9d34c97e45</title>
<path fill="none" stroke="black" d="M458.26,-359.84C472.69,-350.79 488.93,-338.55 500.08,-324 553.09,-254.85 566.39,-188.9 504.08,-128 487.42,-111.71 425.83,-100.9 385.2,-95.37"/>
<polygon fill="black" stroke="black" points="385.48,-91.88 375.11,-94.05 384.57,-98.82 385.48,-91.88"/>
<g id="a_edge1&#45;headlabel"><a xlink:href="dir_000008_000003.html" target="_top" xlink:title="10">
<text text-anchor="middle" x="389.41" y="-87.03" font-family="Helvetica,sans-Serif" font-size="10.00">10</text>
</a>
</g>
</g>
<!-- dir_4d145141914537c3735ad4f485b19a8b&#45;&gt;dir_3f615ade772d23cefe5e20dcb18424a2 -->
<g id="edge2" class="edge">
<title>dir_4d145141914537c3735ad4f485b19a8b&#45;&gt;dir_3f615ade772d23cefe5e20dcb18424a2</title>
<path fill="none" stroke="black" d="M474.2,-372.71C550.34,-362.98 690.08,-331.93 690.08,-235 690.08,-235 690.08,-235 690.08,-161 690.08,-108.98 658.95,-98.31 614.08,-72 541.73,-29.57 441.28,-20.53 386.86,-18.95"/>
<polygon fill="black" stroke="black" points="386.69,-15.45 376.62,-18.73 386.54,-22.45 386.69,-15.45"/>
<g id="a_edge2&#45;headlabel"><a xlink:href="dir_000008_000006.html" target="_top" xlink:title="37">
<text text-anchor="middle" x="390.35" y="-10.19" font-family="Helvetica,sans-Serif" font-size="10.00">37</text>
</a>
</g>
</g>
<!-- dir_38b4e75cb995a89c7f6ee00fff0326d9 -->
<g id="node4" class="node">
<title>dir_38b4e75cb995a89c7f6ee00fff0326d9</title>
<g id="a_node4"><a xlink:href="dir_38b4e75cb995a89c7f6ee00fff0326d9.html" target="_top" xlink:title="display">
<polygon fill="white" stroke="red" points="189.08,-252 135.08,-252 135.08,-216 189.08,-216 189.08,-252"/>
<text text-anchor="middle" x="162.08" y="-231.5" font-family="Helvetica,sans-Serif" font-size="10.00">display</text>
</a>
</g>
</g>
<!-- dir_7463ea7291c384c8deee9a7027d7d5be -->
<g id="node5" class="node">
<title>dir_7463ea7291c384c8deee9a7027d7d5be</title>
<g id="a_node5"><a xlink:href="dir_7463ea7291c384c8deee9a7027d7d5be.html" target="_top" xlink:title="displaywindow">
<polygon fill="white" stroke="black" points="250.58,-324 161.58,-324 161.58,-288 250.58,-288 250.58,-324"/>
<text text-anchor="middle" x="206.08" y="-303.5" font-family="Helvetica,sans-Serif" font-size="10.00">displaywindow</text>
</a>
</g>
</g>
<!-- dir_38b4e75cb995a89c7f6ee00fff0326d9&#45;&gt;dir_7463ea7291c384c8deee9a7027d7d5be -->
<g id="edge27" class="edge">
<title>dir_38b4e75cb995a89c7f6ee00fff0326d9&#45;&gt;dir_7463ea7291c384c8deee9a7027d7d5be</title>
<path fill="none" stroke="black" d="M178.73,-252.1C184.61,-260.13 190.96,-269.87 196.17,-278.8"/>
<polygon fill="black" stroke="black" points="193.2,-280.66 201.12,-287.7 199.32,-277.26 193.2,-280.66"/>
<g id="a_edge27&#45;headlabel"><a xlink:href="dir_000009_000002.html" target="_top" xlink:title="2">
<text text-anchor="middle" x="188.97" y="-276.4" font-family="Helvetica,sans-Serif" font-size="10.00">2</text>
</a>
</g>
</g>
<!-- dir_f2bf245f4d513cc01909af5be520382c -->
<g id="node6" class="node">
<title>dir_f2bf245f4d513cc01909af5be520382c</title>
<g id="a_node6"><a xlink:href="dir_f2bf245f4d513cc01909af5be520382c.html" target="_top" xlink:title="edittextwizard">
<polygon fill="white" stroke="black" points="205.58,-180 118.58,-180 118.58,-144 205.58,-144 205.58,-180"/>
<text text-anchor="middle" x="162.08" y="-159.5" font-family="Helvetica,sans-Serif" font-size="10.00">edittextwizard</text>
</a>
</g>
</g>
<!-- dir_38b4e75cb995a89c7f6ee00fff0326d9&#45;&gt;dir_f2bf245f4d513cc01909af5be520382c -->
<g id="edge26" class="edge">
<title>dir_38b4e75cb995a89c7f6ee00fff0326d9&#45;&gt;dir_f2bf245f4d513cc01909af5be520382c</title>
<path fill="none" stroke="black" d="M156.17,-215.7C155.37,-207.98 155.14,-198.71 155.49,-190.11"/>
<polygon fill="black" stroke="black" points="158.98,-190.32 156.19,-180.1 152,-189.84 158.98,-190.32"/>
<g id="a_edge26&#45;headlabel"><a xlink:href="dir_000009_000014.html" target="_top" xlink:title="1">
<text text-anchor="middle" x="161.56" y="-191.61" font-family="Helvetica,sans-Serif" font-size="10.00">1</text>
</a>
</g>
</g>
<!-- dir_5e8fab8e4a29505e7cfff91a9e877bd0 -->
<g id="node7" class="node">
<title>dir_5e8fab8e4a29505e7cfff91a9e877bd0</title>
<g id="a_node7"><a xlink:href="dir_5e8fab8e4a29505e7cfff91a9e877bd0.html" target="_top" xlink:title="keychooser">
<polygon fill="white" stroke="red" points="100.08,-180 28.08,-180 28.08,-144 100.08,-144 100.08,-180"/>
<text text-anchor="middle" x="64.08" y="-159.5" font-family="Helvetica,sans-Serif" font-size="10.00">keychooser</text>
</a>
</g>
</g>
<!-- dir_38b4e75cb995a89c7f6ee00fff0326d9&#45;&gt;dir_5e8fab8e4a29505e7cfff91a9e877bd0 -->
<g id="edge23" class="edge">
<title>dir_38b4e75cb995a89c7f6ee00fff0326d9&#45;&gt;dir_5e8fab8e4a29505e7cfff91a9e877bd0</title>
<path fill="none" stroke="black" d="M138.11,-215.88C125.53,-206.89 109.95,-195.76 96.33,-186.03"/>
<polygon fill="black" stroke="black" points="98.32,-183.15 88.15,-180.19 94.25,-188.85 98.32,-183.15"/>
<g id="a_edge23&#45;headlabel"><a xlink:href="dir_000009_000004.html" target="_top" xlink:title="1">
<text text-anchor="middle" x="102.89" y="-180.43" font-family="Helvetica,sans-Serif" font-size="10.00">1</text>
</a>
</g>
</g>
<!-- dir_38b4e75cb995a89c7f6ee00fff0326d9&#45;&gt;dir_b7878ad5ecbf2506f4125b9d34c97e45 -->
<g id="edge24" class="edge">
<title>dir_38b4e75cb995a89c7f6ee00fff0326d9&#45;&gt;dir_b7878ad5ecbf2506f4125b9d34c97e45</title>
<path fill="none" stroke="black" d="M183.2,-215.96C209.4,-194.93 255.59,-158.24 296.08,-128 302.18,-123.44 308.76,-118.66 315.11,-114.11"/>
<polygon fill="black" stroke="black" points="317.46,-116.74 323.57,-108.09 313.4,-111.04 317.46,-116.74"/>
<g id="a_edge24&#45;headlabel"><a xlink:href="dir_000009_000003.html" target="_top" xlink:title="12">
<text text-anchor="middle" x="316.18" y="-118.64" font-family="Helvetica,sans-Serif" font-size="10.00">12</text>
</a>
</g>
</g>
<!-- dir_38b4e75cb995a89c7f6ee00fff0326d9&#45;&gt;dir_3f615ade772d23cefe5e20dcb18424a2 -->
<g id="edge25" class="edge">
<title>dir_38b4e75cb995a89c7f6ee00fff0326d9&#45;&gt;dir_3f615ade772d23cefe5e20dcb18424a2</title>
<path fill="none" stroke="black" d="M134.98,-231.76C101.35,-228.58 45.24,-217.6 19.08,-180 5.88,-161.03 6.67,-147.49 19.08,-128 50.98,-77.91 229.28,-40.26 309.26,-25.65"/>
<polygon fill="black" stroke="black" points="310.19,-29.04 319.41,-23.82 308.95,-22.15 310.19,-29.04"/>
<g id="a_edge25&#45;headlabel"><a xlink:href="dir_000009_000006.html" target="_top" xlink:title="23">
<text text-anchor="middle" x="307.16" y="-29.97" font-family="Helvetica,sans-Serif" font-size="10.00">23</text>
</a>
</g>
</g>
<!-- dir_7463ea7291c384c8deee9a7027d7d5be&#45;&gt;dir_38b4e75cb995a89c7f6ee00fff0326d9 -->
<g id="edge32" class="edge">
<title>dir_7463ea7291c384c8deee9a7027d7d5be&#45;&gt;dir_38b4e75cb995a89c7f6ee00fff0326d9</title>
<path fill="none" stroke="black" d="M189.29,-287.7C183.4,-279.64 177.06,-269.89 171.87,-260.98"/>
<polygon fill="black" stroke="black" points="174.85,-259.15 166.94,-252.1 168.73,-262.55 174.85,-259.15"/>
<g id="a_edge32&#45;headlabel"><a xlink:href="dir_000002_000009.html" target="_top" xlink:title="6">
<text text-anchor="middle" x="179.08" y="-258.41" font-family="Helvetica,sans-Serif" font-size="10.00">6</text>
</a>
</g>
</g>
<!-- dir_7463ea7291c384c8deee9a7027d7d5be&#45;&gt;dir_5e8fab8e4a29505e7cfff91a9e877bd0 -->
<g id="edge29" class="edge">
<title>dir_7463ea7291c384c8deee9a7027d7d5be&#45;&gt;dir_5e8fab8e4a29505e7cfff91a9e877bd0</title>
<path fill="none" stroke="black" d="M174.44,-287.85C158.85,-278.49 140.38,-265.97 126.08,-252 106.87,-233.23 89.81,-207.74 78.48,-188.85"/>
<polygon fill="black" stroke="black" points="81.47,-187.02 73.39,-180.17 75.43,-190.56 81.47,-187.02"/>
<g id="a_edge29&#45;headlabel"><a xlink:href="dir_000002_000004.html" target="_top" xlink:title="7">
<text text-anchor="middle" x="85.73" y="-186.19" font-family="Helvetica,sans-Serif" font-size="10.00">7</text>
</a>
</g>
</g>
<!-- dir_7463ea7291c384c8deee9a7027d7d5be&#45;&gt;dir_b7878ad5ecbf2506f4125b9d34c97e45 -->
<g id="edge30" class="edge">
<title>dir_7463ea7291c384c8deee9a7027d7d5be&#45;&gt;dir_b7878ad5ecbf2506f4125b9d34c97e45</title>
<path fill="none" stroke="black" d="M239.66,-287.87C255.17,-278.76 273,-266.45 286.08,-252 321.06,-213.36 337.13,-152.87 343.84,-118.08"/>
<polygon fill="black" stroke="black" points="347.3,-118.62 345.63,-108.16 340.41,-117.38 347.3,-118.62"/>
<g id="a_edge30&#45;headlabel"><a xlink:href="dir_000002_000003.html" target="_top" xlink:title="34">
<text text-anchor="middle" x="349.45" y="-120.17" font-family="Helvetica,sans-Serif" font-size="10.00">34</text>
</a>
</g>
</g>
<!-- dir_7463ea7291c384c8deee9a7027d7d5be&#45;&gt;dir_3f615ade772d23cefe5e20dcb18424a2 -->
<g id="edge31" class="edge">
<title>dir_7463ea7291c384c8deee9a7027d7d5be&#45;&gt;dir_3f615ade772d23cefe5e20dcb18424a2</title>
<path fill="none" stroke="black" d="M212.71,-287.85C228.14,-248.61 268.44,-149.69 312.08,-72 317.26,-62.79 323.55,-53.11 329.42,-44.59"/>
<polygon fill="black" stroke="black" points="332.43,-46.39 335.31,-36.19 326.7,-42.36 332.43,-46.39"/>
<g id="a_edge31&#45;headlabel"><a xlink:href="dir_000002_000006.html" target="_top" xlink:title="40">
<text text-anchor="middle" x="332.69" y="-48.46" font-family="Helvetica,sans-Serif" font-size="10.00">40</text>
</a>
</g>
</g>
<!-- dir_f2bf245f4d513cc01909af5be520382c&#45;&gt;dir_38b4e75cb995a89c7f6ee00fff0326d9 -->
<g id="edge22" class="edge">
<title>dir_f2bf245f4d513cc01909af5be520382c&#45;&gt;dir_38b4e75cb995a89c7f6ee00fff0326d9</title>
<path fill="none" stroke="black" d="M167.98,-180.1C168.78,-187.79 169.02,-197.05 168.69,-205.67"/>
<polygon fill="black" stroke="black" points="165.19,-205.48 168,-215.7 172.17,-205.96 165.19,-205.48"/>
<g id="a_edge22&#45;headlabel"><a xlink:href="dir_000014_000009.html" target="_top" xlink:title="2">
<text text-anchor="middle" x="162.6" y="-199.2" font-family="Helvetica,sans-Serif" font-size="10.00">2</text>
</a>
</g>
</g>
<!-- dir_f2bf245f4d513cc01909af5be520382c&#45;&gt;dir_b7878ad5ecbf2506f4125b9d34c97e45 -->
<g id="edge20" class="edge">
<title>dir_f2bf245f4d513cc01909af5be520382c&#45;&gt;dir_b7878ad5ecbf2506f4125b9d34c97e45</title>
<path fill="none" stroke="black" d="M189.14,-143.85C198.67,-138.28 209.62,-132.41 220.08,-128 249.81,-115.45 285.14,-105.6 311.15,-99.22"/>
<polygon fill="black" stroke="black" points="312.06,-102.6 320.97,-96.87 310.43,-95.79 312.06,-102.6"/>
<g id="a_edge20&#45;headlabel"><a xlink:href="dir_000014_000003.html" target="_top" xlink:title="3">
<text text-anchor="middle" x="309.23" y="-103.7" font-family="Helvetica,sans-Serif" font-size="10.00">3</text>
</a>
</g>
</g>
<!-- dir_f2bf245f4d513cc01909af5be520382c&#45;&gt;dir_3f615ade772d23cefe5e20dcb18424a2 -->
<g id="edge21" class="edge">
<title>dir_f2bf245f4d513cc01909af5be520382c&#45;&gt;dir_3f615ade772d23cefe5e20dcb18424a2</title>
<path fill="none" stroke="black" d="M178.45,-143.75C196.82,-124.89 228,-94.39 258.08,-72 274.53,-59.76 294,-47.99 310.62,-38.67"/>
<polygon fill="black" stroke="black" points="312.46,-41.65 319.52,-33.75 309.08,-35.52 312.46,-41.65"/>
<g id="a_edge21&#45;headlabel"><a xlink:href="dir_000014_000006.html" target="_top" xlink:title="3">
<text text-anchor="middle" x="310.69" y="-43.37" font-family="Helvetica,sans-Serif" font-size="10.00">3</text>
</a>
</g>
</g>
<!-- dir_5e8fab8e4a29505e7cfff91a9e877bd0&#45;&gt;dir_b7878ad5ecbf2506f4125b9d34c97e45 -->
<g id="edge3" class="edge">
<title>dir_5e8fab8e4a29505e7cfff91a9e877bd0&#45;&gt;dir_b7878ad5ecbf2506f4125b9d34c97e45</title>
<path fill="none" stroke="black" d="M82.99,-144C90.6,-138.03 99.77,-131.86 109.08,-128 176.47,-100.05 262.48,-93 310.79,-91.35"/>
<polygon fill="black" stroke="black" points="310.9,-94.85 320.79,-91.07 310.7,-87.85 310.9,-94.85"/>
<g id="a_edge3&#45;headlabel"><a xlink:href="dir_000004_000003.html" target="_top" xlink:title="18">
<text text-anchor="middle" x="307.38" y="-95.29" font-family="Helvetica,sans-Serif" font-size="10.00">18</text>
</a>
</g>
</g>
<!-- dir_5e8fab8e4a29505e7cfff91a9e877bd0&#45;&gt;dir_3f615ade772d23cefe5e20dcb18424a2 -->
<g id="edge4" class="edge">
<title>dir_5e8fab8e4a29505e7cfff91a9e877bd0&#45;&gt;dir_3f615ade772d23cefe5e20dcb18424a2</title>
<path fill="none" stroke="black" d="M86.09,-143.92C93.27,-138.6 101.38,-132.86 109.08,-128 153.47,-99.97 165.45,-94.08 213.08,-72 245.13,-57.15 282.59,-42.66 309.91,-32.59"/>
<polygon fill="black" stroke="black" points="311.29,-35.81 319.48,-29.09 308.89,-29.24 311.29,-35.81"/>
<g id="a_edge4&#45;headlabel"><a xlink:href="dir_000004_000006.html" target="_top" xlink:title="34">
<text text-anchor="middle" x="308.89" y="-37.21" font-family="Helvetica,sans-Serif" font-size="10.00">34</text>
</a>
</g>
</g>
<!-- dir_0d6f4a9ff896de1e84b23c77a5313942&#45;&gt;dir_b7878ad5ecbf2506f4125b9d34c97e45 -->
<g id="edge5" class="edge">
<title>dir_0d6f4a9ff896de1e84b23c77a5313942&#45;&gt;dir_b7878ad5ecbf2506f4125b9d34c97e45</title>
<path fill="none" stroke="black" d="M106.66,-293.09C133.6,-284.03 169.43,-270.03 198.08,-252 255.76,-215.7 305.88,-151.82 330.98,-116.41"/>
<polygon fill="black" stroke="black" points="333.96,-118.27 336.81,-108.06 328.22,-114.26 333.96,-118.27"/>
<g id="a_edge5&#45;headlabel"><a xlink:href="dir_000015_000003.html" target="_top" xlink:title="26">
<text text-anchor="middle" x="334.23" y="-120.34" font-family="Helvetica,sans-Serif" font-size="10.00">26</text>
</a>
</g>
</g>
<!-- dir_0d6f4a9ff896de1e84b23c77a5313942&#45;&gt;dir_3f615ade772d23cefe5e20dcb18424a2 -->
<g id="edge6" class="edge">
<title>dir_0d6f4a9ff896de1e84b23c77a5313942&#45;&gt;dir_3f615ade772d23cefe5e20dcb18424a2</title>
<path fill="none" stroke="black" d="M55.48,-287.74C40.6,-264.47 15.59,-221.17 6.08,-180 -5.21,-131.1 -2.23,-100.51 39.08,-72 82.36,-42.13 236.38,-27.15 309.28,-21.61"/>
<polygon fill="black" stroke="black" points="309.71,-25.09 319.43,-20.86 309.2,-18.1 309.71,-25.09"/>
<g id="a_edge6&#45;headlabel"><a xlink:href="dir_000015_000006.html" target="_top" xlink:title="48">
<text text-anchor="middle" x="306.34" y="-25.68" font-family="Helvetica,sans-Serif" font-size="10.00">48</text>
</a>
</g>
</g>
<!-- dir_9e8bdbf8072a007328ed31e81b244b8d&#45;&gt;dir_7463ea7291c384c8deee9a7027d7d5be -->
<g id="edge19" class="edge">
<title>dir_9e8bdbf8072a007328ed31e81b244b8d&#45;&gt;dir_7463ea7291c384c8deee9a7027d7d5be</title>
<path fill="none" stroke="black" d="M233.18,-359.7C229.08,-351.73 224.13,-342.1 219.59,-333.26"/>
<polygon fill="black" stroke="black" points="222.56,-331.4 214.88,-324.1 216.34,-334.6 222.56,-331.4"/>
<g id="a_edge19&#45;headlabel"><a xlink:href="dir_000011_000002.html" target="_top" xlink:title="7">
<text text-anchor="middle" x="226.73" y="-330.79" font-family="Helvetica,sans-Serif" font-size="10.00">7</text>
</a>
</g>
</g>
<!-- dir_9e8bdbf8072a007328ed31e81b244b8d&#45;&gt;dir_b7878ad5ecbf2506f4125b9d34c97e45 -->
<g id="edge17" class="edge">
<title>dir_9e8bdbf8072a007328ed31e81b244b8d&#45;&gt;dir_b7878ad5ecbf2506f4125b9d34c97e45</title>
<path fill="none" stroke="black" d="M287.65,-362.72C290.83,-361.78 294,-360.87 297.08,-360 359.33,-342.44 398.41,-375.08 438.08,-324 491.52,-255.2 486.57,-200.37 438.08,-128 426.28,-110.39 404.43,-101.16 385.22,-96.32"/>
<polygon fill="black" stroke="black" points="385.71,-92.84 375.19,-94.11 384.2,-99.68 385.71,-92.84"/>
<g id="a_edge17&#45;headlabel"><a xlink:href="dir_000011_000003.html" target="_top" xlink:title="17">
<text text-anchor="middle" x="389.83" y="-88.34" font-family="Helvetica,sans-Serif" font-size="10.00">17</text>
</a>
</g>
</g>
<!-- dir_9e8bdbf8072a007328ed31e81b244b8d&#45;&gt;dir_3f615ade772d23cefe5e20dcb18424a2 -->
<g id="edge18" class="edge">
<title>dir_9e8bdbf8072a007328ed31e81b244b8d&#45;&gt;dir_3f615ade772d23cefe5e20dcb18424a2</title>
<path fill="none" stroke="black" d="M287.61,-362.6C290.81,-361.69 293.99,-360.81 297.08,-360 370.1,-340.84 406.42,-373.89 463.08,-324 514.04,-279.13 502.58,-246.91 514.08,-180 522.21,-132.69 542.39,-110.76 514.08,-72 485.09,-32.31 426.03,-21.65 386.75,-19.16"/>
<polygon fill="black" stroke="black" points="386.88,-15.66 376.73,-18.67 386.54,-22.65 386.88,-15.66"/>
<g id="a_edge18&#45;headlabel"><a xlink:href="dir_000011_000006.html" target="_top" xlink:title="19">
<text text-anchor="middle" x="390.61" y="-10.5" font-family="Helvetica,sans-Serif" font-size="10.00">19</text>
</a>
</g>
</g>
<!-- dir_d8fe3b5277a95a62e460731f350dc32b&#45;&gt;dir_b7878ad5ecbf2506f4125b9d34c97e45 -->
<g id="edge33" class="edge">
<title>dir_d8fe3b5277a95a62e460731f350dc32b&#45;&gt;dir_b7878ad5ecbf2506f4125b9d34c97e45</title>
<path fill="none" stroke="black" d="M360.45,-363.67C363.35,-362.38 366.26,-361.14 369.08,-360 415.62,-341.26 446.8,-364.75 476.08,-324 526.92,-253.26 528.43,-197.63 476.08,-128 455.31,-100.38 415.2,-92.4 385.39,-90.54"/>
<polygon fill="black" stroke="black" points="385.46,-87.04 375.32,-90.11 385.16,-94.03 385.46,-87.04"/>
<g id="a_edge33&#45;headlabel"><a xlink:href="dir_000020_000003.html" target="_top" xlink:title="3">
<text text-anchor="middle" x="389.17" y="-81.85" font-family="Helvetica,sans-Serif" font-size="10.00">3</text>
</a>
</g>
</g>
<!-- dir_d8fe3b5277a95a62e460731f350dc32b&#45;&gt;dir_3f615ade772d23cefe5e20dcb18424a2 -->
<g id="edge34" class="edge">
<title>dir_d8fe3b5277a95a62e460731f350dc32b&#45;&gt;dir_3f615ade772d23cefe5e20dcb18424a2</title>
<path fill="none" stroke="black" d="M360.39,-363.51C363.29,-362.25 366.23,-361.06 369.08,-360 425.7,-339.03 451.66,-360.07 500.08,-324 595.46,-252.96 664.64,-164.66 590.08,-72 565.04,-40.88 448.93,-27.02 387.09,-21.75"/>
<polygon fill="black" stroke="black" points="387.18,-18.25 376.93,-20.92 386.61,-25.22 387.18,-18.25"/>
<g id="a_edge34&#45;headlabel"><a xlink:href="dir_000020_000006.html" target="_top" xlink:title="1">
<text text-anchor="middle" x="390.99" y="-13.21" font-family="Helvetica,sans-Serif" font-size="10.00">1</text>
</a>
</g>
</g>
<!-- dir_27a1f5db9153c889c86814d62b8cfdb4&#45;&gt;dir_b7878ad5ecbf2506f4125b9d34c97e45 -->
<g id="edge28" class="edge">
<title>dir_27a1f5db9153c889c86814d62b8cfdb4&#45;&gt;dir_b7878ad5ecbf2506f4125b9d34c97e45</title>
<path fill="none" stroke="black" d="M178.94,-362.86C181.66,-361.82 184.41,-360.85 187.08,-360 262.78,-336.01 304.41,-378.58 362.08,-324 426.53,-263.01 440.76,-206.86 400.08,-128 396.3,-120.66 390.31,-114.46 383.72,-109.35"/>
<polygon fill="black" stroke="black" points="385.39,-106.26 375.17,-103.47 381.43,-112.02 385.39,-106.26"/>
<g id="a_edge28&#45;headlabel"><a xlink:href="dir_000021_000003.html" target="_top" xlink:title="3">
<text text-anchor="middle" x="389.97" y="-103.46" font-family="Helvetica,sans-Serif" font-size="10.00">3</text>
</a>
</g>
</g>
<!-- dir_b7878ad5ecbf2506f4125b9d34c97e45&#45;&gt;dir_3f615ade772d23cefe5e20dcb18424a2 -->
<g id="edge7" class="edge">
<title>dir_b7878ad5ecbf2506f4125b9d34c97e45&#45;&gt;dir_3f615ade772d23cefe5e20dcb18424a2</title>
<path fill="none" stroke="black" d="M342.17,-71.7C341.37,-63.98 341.14,-54.71 341.49,-46.11"/>
<polygon fill="black" stroke="black" points="344.98,-46.32 342.19,-36.1 338,-45.84 344.98,-46.32"/>
<g id="a_edge7&#45;headlabel"><a xlink:href="dir_000003_000006.html" target="_top" xlink:title="3">
<text text-anchor="middle" x="347.56" y="-47.61" font-family="Helvetica,sans-Serif" font-size="10.00">3</text>
</a>
</g>
</g>
<!-- dir_3f615ade772d23cefe5e20dcb18424a2&#45;&gt;dir_b7878ad5ecbf2506f4125b9d34c97e45 -->
<g id="edge8" class="edge">
<title>dir_3f615ade772d23cefe5e20dcb18424a2&#45;&gt;dir_b7878ad5ecbf2506f4125b9d34c97e45</title>
<path fill="none" stroke="black" d="M353.98,-36.1C354.78,-43.79 355.02,-53.05 354.69,-61.67"/>
<polygon fill="black" stroke="black" points="351.19,-61.48 354,-71.7 358.17,-61.96 351.19,-61.48"/>
<g id="a_edge8&#45;headlabel"><a xlink:href="dir_000006_000003.html" target="_top" xlink:title="62">
<text text-anchor="middle" x="348.6" y="-55.2" font-family="Helvetica,sans-Serif" font-size="10.00">62</text>
</a>
</g>
</g>
</g>
</svg>
        <g id="navigator" transform="translate(0 0)" fill="#404254">
                <rect fill="#f2f5e9" fill-opacity="0.5" stroke="#606060" stroke-width=".5" x="0" y="0" width="60" height="60"/>
                <use id="zoomplus" xlink:href="#zoomPlus" x="17" y="9" onmousedown="handleZoom(evt,'in')"/>
                <use id="zoomminus" xlink:href="#zoomMin" x="42" y="9" onmousedown="handleZoom(evt,'out')"/>
                <use id="reset" xlink:href="#resetDef" x="30" y="36" onmousedown="handleReset()"/>
                <g id="arrowUp" xlink:href="#dirArrow" transform="translate(30 24)" onmousedown="handlePan(0,-1)">
                  <use xlink:href="#rim" fill="#404040">
                        <set attributeName="fill" to="#808080" begin="arrowUp.mouseover" end="arrowUp.mouseout"/>
                  </use>
                  <path fill="none" stroke="white" stroke-width="1.5" d="M0,-3.0v7 M-2.5,-0.5L0,-3.0L2.5,-0.5"/>
                </g>
                <g id="arrowRight" xlink:href="#dirArrow" transform="rotate(90) translate(36 -43)" onmousedown="handlePan(1,0)">
                  <use xlink:href="#rim" fill="#404040">
                        <set attributeName="fill" to="#808080" begin="arrowRight.mouseover" end="arrowRight.mouseout"/>
                  </use>
                  <path fill="none" stroke="white" stroke-width="1.5" d="M0,-3.0v7 M-2.5,-0.5L0,-3.0L2.5,-0.5"/>
                </g>
                <g id="arrowDown" xlink:href="#dirArrow" transform="rotate(180) translate(-30 -48)" onmousedown="handlePan(0,1)">
                  <use xlink:href="#rim" fill="#404040">
                        <set attributeName="fill" to="#808080" begin="arrowDown.mouseover" end="arrowDown.mouseout"/>
                  </use>
                  <path fill="none" stroke="white" stroke-width="1.5" d="M0,-3.0v7 M-2.5,-0.5L0,-3.0L2.5,-0.5"/>
                </g>
                <g id="arrowLeft" xlink:href="#dirArrow" transform="rotate(270) translate(-36 17)" onmousedown="handlePan(-1,0)">
                  <use xlink:href="#rim" fill="#404040">
                        <set attributeName="fill" to="#808080" begin="arrowLeft.mouseover" end="arrowLeft.mouseout"/>
                  </use>
                  <path fill="none" stroke="white" stroke-width="1.5" d="M0,-3.0v7 M-2.5,-0.5L0,-3.0L2.5,-0.5"/>
                </g>
        </g>
        <svg viewBox="0 0 15 15" width="100%" height="30px" preserveAspectRatio="xMaxYMin meet">
         <g id="arrow_out" transform="scale(0.3 0.3)">
          <a xlink:href="dir_8509b06bafa958d2011203a730bf5778_dep_org.svg" target="_base">
           <rect id="button" ry="5" rx="5" y="6" x="6" height="38" width="38"
                fill="#f2f5e9" fill-opacity="0.5" stroke="#606060" stroke-width="1.0"/>
           <path id="arrow"
             d="M 11.500037,31.436501 C 11.940474,20.09759 22.043105,11.32322 32.158766,21.979434 L 37.068811,17.246167 C 37.068811,17.246167 37.088388,32 37.088388,32 L 22.160133,31.978069 C 22.160133,31.978069 26.997745,27.140456 26.997745,27.140456 C 18.528582,18.264221 13.291696,25.230495 11.500037,31.436501 z"
             style="fill:#404040;"/>
          </a>
         </g>
        </svg>
</svg>
