<?xml version="1.0" encoding="UTF-8" standalone="no"?>
<!DOCTYPE svg PUBLIC "-//W3C//DTD SVG 1.1//EN"
 "http://www.w3.org/Graphics/SVG/1.1/DTD/svg11.dtd">
<!-- Generated by graphviz version 2.43.0 (0)
 -->
<!-- Title: src Pages: 1 -->
<svg width="170pt" height="220pt"
 viewBox="0.00 0.00 170.00 220.00" xmlns="http://www.w3.org/2000/svg" xmlns:xlink="http://www.w3.org/1999/xlink">
<g id="graph0" class="graph" transform="scale(1 1) rotate(0) translate(4 216)">
<title>src</title>
<polygon fill="white" stroke="transparent" points="-4,4 -4,-216 166,-216 166,4 -4,4"/>
<g id="clust1" class="cluster">
<title>clusterdir_68267d1309a1af8e8297ef4c3efbcdba</title>
<g id="a_clust1"><a xlink:href="dir_68267d1309a1af8e8297ef4c3efbcdba.html" target="_top">
<polygon fill="#eeeeff" stroke="black" points="8,-8 8,-204 154,-204 154,-8 8,-8"/>
</a>
</g>
</g>
<!-- dir_68267d1309a1af8e8297ef4c3efbcdba -->
<g id="node1" class="node">
<title>dir_68267d1309a1af8e8297ef4c3efbcdba</title>
<text text-anchor="middle" x="119" y="-175.5" font-family="Helvetica,sans-Serif" font-size="10.00">src</text>
</g>
<!-- dir_3f615ade772d23cefe5e20dcb18424a2 -->
<g id="node2" class="node">
<title>dir_3f615ade772d23cefe5e20dcb18424a2</title>
<g id="a_node2"><a xlink:href="dir_3f615ade772d23cefe5e20dcb18424a2.html" target="_top" xlink:title="backend">
<polygon fill="white" stroke="red" points="73.5,-124 16.5,-124 16.5,-88 73.5,-88 73.5,-124"/>
<text text-anchor="middle" x="45" y="-103.5" font-family="Helvetica,sans-Serif" font-size="10.00">backend</text>
</a>
</g>
</g>
<!-- dir_b7878ad5ecbf2506f4125b9d34c97e45 -->
<g id="node4" class="node">
<title>dir_b7878ad5ecbf2506f4125b9d34c97e45</title>
<g id="a_node4"><a xlink:href="dir_b7878ad5ecbf2506f4125b9d34c97e45.html" target="_top" xlink:title="util">
<polygon fill="white" stroke="black" points="72,-52 18,-52 18,-16 72,-16 72,-52"/>
<text text-anchor="middle" x="45" y="-31.5" font-family="Helvetica,sans-Serif" font-size="10.00">util</text>
</a>
</g>
</g>
<!-- dir_3f615ade772d23cefe5e20dcb18424a2&#45;&gt;dir_b7878ad5ecbf2506f4125b9d34c97e45 -->
<g id="edge2" class="edge">
<title>dir_3f615ade772d23cefe5e20dcb18424a2&#45;&gt;dir_b7878ad5ecbf2506f4125b9d34c97e45</title>
<path fill="none" stroke="black" d="M39.08,-87.7C38.29,-79.98 38.06,-70.71 38.4,-62.11"/>
<polygon fill="black" stroke="black" points="41.9,-62.32 39.1,-52.1 34.92,-61.84 41.9,-62.32"/>
<g id="a_edge2&#45;headlabel"><a xlink:href="dir_000006_000003.html" target="_top" xlink:title="58">
<text text-anchor="middle" x="44.48" y="-63.61" font-family="Helvetica,sans-Serif" font-size="10.00">58</text>
</a>
</g>
</g>
<!-- dir_8509b06bafa958d2011203a730bf5778 -->
<g id="node3" class="node">
<title>dir_8509b06bafa958d2011203a730bf5778</title>
<g id="a_node3"><a xlink:href="dir_8509b06bafa958d2011203a730bf5778.html" target="_top" xlink:title="frontend">
<polygon fill="white" stroke="red" points="74,-196 16,-196 16,-160 74,-160 74,-196"/>
<text text-anchor="middle" x="45" y="-175.5" font-family="Helvetica,sans-Serif" font-size="10.00">frontend</text>
</a>
</g>
</g>
<!-- dir_8509b06bafa958d2011203a730bf5778&#45;&gt;dir_3f615ade772d23cefe5e20dcb18424a2 -->
<g id="edge3" class="edge">
<title>dir_8509b06bafa958d2011203a730bf5778&#45;&gt;dir_3f615ade772d23cefe5e20dcb18424a2</title>
<path fill="none" stroke="black" d="M45,-159.7C45,-151.98 45,-142.71 45,-134.11"/>
<polygon fill="black" stroke="black" points="48.5,-134.1 45,-124.1 41.5,-134.1 48.5,-134.1"/>
<g id="a_edge3&#45;headlabel"><a xlink:href="dir_000001_000006.html" target="_top" xlink:title="262">
<text text-anchor="middle" x="51.34" y="-135.2" font-family="Helvetica,sans-Serif" font-size="10.00">262</text>
</a>
</g>
</g>
<!-- dir_8509b06bafa958d2011203a730bf5778&#45;&gt;dir_b7878ad5ecbf2506f4125b9d34c97e45 -->
<g id="edge4" class="edge">
<title>dir_8509b06bafa958d2011203a730bf5778&#45;&gt;dir_b7878ad5ecbf2506f4125b9d34c97e45</title>
<path fill="none" stroke="black" d="M61.46,-159.92C69.65,-150.22 78.7,-137.37 83,-124 87.9,-108.77 87.9,-103.23 83,-88 79.81,-78.08 74,-68.44 67.87,-60.17"/>
<polygon fill="black" stroke="black" points="70.42,-57.74 61.46,-52.08 64.93,-62.09 70.42,-57.74"/>
<g id="a_edge4&#45;headlabel"><a xlink:href="dir_000001_000003.html" target="_top" xlink:title="165">
<text text-anchor="middle" x="74.88" y="-56.3" font-family="Helvetica,sans-Serif" font-size="10.00">165</text>
</a>
</g>
</g>
<!-- dir_b7878ad5ecbf2506f4125b9d34c97e45&#45;&gt;dir_3f615ade772d23cefe5e20dcb18424a2 -->
<g id="edge1" class="edge">
<title>dir_b7878ad5ecbf2506f4125b9d34c97e45&#45;&gt;dir_3f615ade772d23cefe5e20dcb18424a2</title>
<path fill="none" stroke="black" d="M50.9,-52.1C51.7,-59.79 51.94,-69.05 51.6,-77.67"/>
<polygon fill="black" stroke="black" points="48.11,-77.48 50.92,-87.7 55.09,-77.96 48.11,-77.48"/>
<g id="a_edge1&#45;headlabel"><a xlink:href="dir_000003_000006.html" target="_top" xlink:title="4">
<text text-anchor="middle" x="45.52" y="-71.2" font-family="Helvetica,sans-Serif" font-size="10.00">4</text>
</a>
</g>
</g>
</g>
</svg>
