<?xml version="1.0" encoding="UTF-8" standalone="no"?>
<!DOCTYPE svg PUBLIC "-//W3C//DTD SVG 1.1//EN"
 "http://www.w3.org/Graphics/SVG/1.1/DTD/svg11.dtd">
<!-- Generated by graphviz version 2.43.0 (0)
 -->
<!-- Title: searchdialog Pages: 1 -->
<svg width="134pt" height="303pt"
 viewBox="0.00 0.00 134.00 303.00" xmlns="http://www.w3.org/2000/svg" xmlns:xlink="http://www.w3.org/1999/xlink">
<g id="graph0" class="graph" transform="scale(1 1) rotate(0) translate(4 299)">
<title>searchdialog</title>
<polygon fill="white" stroke="transparent" points="-4,4 -4,-299 130,-299 130,4 -4,4"/>
<g id="clust1" class="cluster">
<title>clusterdir_8509b06bafa958d2011203a730bf5778</title>
<g id="a_clust1"><a xlink:href="dir_8509b06bafa958d2011203a730bf5778.html" target="_top" xlink:title="frontend">
<polygon fill="#ddddee" stroke="black" points="8,-128 8,-287 118,-287 118,-128 8,-128"/>
<text text-anchor="middle" x="63" y="-275" font-family="Helvetica,sans-Serif" font-size="10.00">frontend</text>
</a>
</g>
</g>
<g id="clust2" class="cluster">
<title>clusterdir_0d6f4a9ff896de1e84b23c77a5313942</title>
<g id="a_clust2"><a xlink:href="dir_0d6f4a9ff896de1e84b23c77a5313942.html" target="_top">
<polygon fill="#eeeeff" stroke="black" points="16,-136 16,-260 110,-260 110,-136 16,-136"/>
</a>
</g>
</g>
<!-- dir_0d6f4a9ff896de1e84b23c77a5313942 -->
<g id="node1" class="node">
<title>dir_0d6f4a9ff896de1e84b23c77a5313942</title>
<text text-anchor="middle" x="63" y="-231.5" font-family="Helvetica,sans-Serif" font-size="10.00">searchdialog</text>
</g>
<!-- dir_d8a761d73da87bf35a227ea5554b97b0 -->
<g id="node2" class="node">
<title>dir_d8a761d73da87bf35a227ea5554b97b0</title>
<g id="a_node2"><a xlink:href="dir_d8a761d73da87bf35a227ea5554b97b0.html" target="_top" xlink:title="analysis">
<polygon fill="white" stroke="black" points="91.5,-180 34.5,-180 34.5,-144 91.5,-144 91.5,-180"/>
<text text-anchor="middle" x="63" y="-159.5" font-family="Helvetica,sans-Serif" font-size="10.00">analysis</text>
</a>
</g>
</g>
<!-- dir_0d6f4a9ff896de1e84b23c77a5313942&#45;&gt;dir_d8a761d73da87bf35a227ea5554b97b0 -->
<g id="edge1" class="edge">
<title>dir_0d6f4a9ff896de1e84b23c77a5313942&#45;&gt;dir_d8a761d73da87bf35a227ea5554b97b0</title>
<path fill="none" stroke="black" d="M63,-215.7C63,-207.98 63,-198.71 63,-190.11"/>
<polygon fill="black" stroke="black" points="66.5,-190.1 63,-180.1 59.5,-190.1 66.5,-190.1"/>
<g id="a_edge1&#45;headlabel"><a xlink:href="dir_000015_000022.html" target="_top" xlink:title="1">
<text text-anchor="middle" x="69.34" y="-191.2" font-family="Helvetica,sans-Serif" font-size="10.00">1</text>
</a>
</g>
</g>
<!-- dir_3f615ade772d23cefe5e20dcb18424a2 -->
<g id="node3" class="node">
<title>dir_3f615ade772d23cefe5e20dcb18424a2</title>
<g id="a_node3"><a xlink:href="dir_3f615ade772d23cefe5e20dcb18424a2.html" target="_top" xlink:title="backend">
<polygon fill="white" stroke="red" points="62.5,-108 5.5,-108 5.5,-72 62.5,-72 62.5,-108"/>
<text text-anchor="middle" x="34" y="-87.5" font-family="Helvetica,sans-Serif" font-size="10.00">backend</text>
</a>
</g>
</g>
<!-- dir_d8a761d73da87bf35a227ea5554b97b0&#45;&gt;dir_3f615ade772d23cefe5e20dcb18424a2 -->
<g id="edge4" class="edge">
<title>dir_d8a761d73da87bf35a227ea5554b97b0&#45;&gt;dir_3f615ade772d23cefe5e20dcb18424a2</title>
<path fill="none" stroke="black" d="M55.83,-143.7C52.57,-135.81 48.63,-126.3 45,-117.55"/>
<polygon fill="black" stroke="black" points="48.15,-116 41.09,-108.1 41.68,-118.68 48.15,-116"/>
<g id="a_edge4&#45;headlabel"><a xlink:href="dir_000022_000006.html" target="_top" xlink:title="8">
<text text-anchor="middle" x="52.15" y="-115.74" font-family="Helvetica,sans-Serif" font-size="10.00">8</text>
</a>
</g>
</g>
<!-- dir_b7878ad5ecbf2506f4125b9d34c97e45 -->
<g id="node4" class="node">
<title>dir_b7878ad5ecbf2506f4125b9d34c97e45</title>
<g id="a_node4"><a xlink:href="dir_b7878ad5ecbf2506f4125b9d34c97e45.html" target="_top" xlink:title="util">
<polygon fill="none" stroke="black" points="61,-36 7,-36 7,0 61,0 61,-36"/>
<text text-anchor="middle" x="34" y="-15.5" font-family="Helvetica,sans-Serif" font-size="10.00">util</text>
</a>
</g>
</g>
<!-- dir_d8a761d73da87bf35a227ea5554b97b0&#45;&gt;dir_b7878ad5ecbf2506f4125b9d34c97e45 -->
<g id="edge5" class="edge">
<title>dir_d8a761d73da87bf35a227ea5554b97b0&#45;&gt;dir_b7878ad5ecbf2506f4125b9d34c97e45</title>
<path fill="none" stroke="black" d="M68.77,-143.84C73.98,-125.59 79.75,-96.1 72,-72 68.81,-62.08 63,-52.44 56.87,-44.17"/>
<polygon fill="black" stroke="black" points="59.42,-41.74 50.46,-36.08 53.93,-46.09 59.42,-41.74"/>
<g id="a_edge5&#45;headlabel"><a xlink:href="dir_000022_000003.html" target="_top" xlink:title="3">
<text text-anchor="middle" x="63.88" y="-40.3" font-family="Helvetica,sans-Serif" font-size="10.00">3</text>
</a>
</g>
</g>
<!-- dir_3f615ade772d23cefe5e20dcb18424a2&#45;&gt;dir_b7878ad5ecbf2506f4125b9d34c97e45 -->
<g id="edge3" class="edge">
<title>dir_3f615ade772d23cefe5e20dcb18424a2&#45;&gt;dir_b7878ad5ecbf2506f4125b9d34c97e45</title>
<path fill="none" stroke="black" d="M28.08,-71.7C27.29,-63.98 27.06,-54.71 27.4,-46.11"/>
<polygon fill="black" stroke="black" points="30.9,-46.32 28.1,-36.1 23.92,-45.84 30.9,-46.32"/>
<g id="a_edge3&#45;headlabel"><a xlink:href="dir_000006_000003.html" target="_top" xlink:title="58">
<text text-anchor="middle" x="33.48" y="-47.61" font-family="Helvetica,sans-Serif" font-size="10.00">58</text>
</a>
</g>
</g>
<!-- dir_b7878ad5ecbf2506f4125b9d34c97e45&#45;&gt;dir_3f615ade772d23cefe5e20dcb18424a2 -->
<g id="edge2" class="edge">
<title>dir_b7878ad5ecbf2506f4125b9d34c97e45&#45;&gt;dir_3f615ade772d23cefe5e20dcb18424a2</title>
<path fill="none" stroke="black" d="M39.9,-36.1C40.7,-43.79 40.94,-53.05 40.6,-61.67"/>
<polygon fill="black" stroke="black" points="37.11,-61.48 39.92,-71.7 44.09,-61.96 37.11,-61.48"/>
<g id="a_edge2&#45;headlabel"><a xlink:href="dir_000003_000006.html" target="_top" xlink:title="4">
<text text-anchor="middle" x="34.52" y="-55.2" font-family="Helvetica,sans-Serif" font-size="10.00">4</text>
</a>
</g>
</g>
</g>
</svg>
