<?xml version="1.0" encoding="UTF-8" standalone="no"?>
<!DOCTYPE svg PUBLIC "-//W3C//DTD SVG 1.1//EN"
 "http://www.w3.org/Graphics/SVG/1.1/DTD/svg11.dtd">
<!-- Generated by graphviz version 2.43.0 (0)
 -->
<!-- Title: backend Pages: 1 -->
<svg width="555pt" height="471pt"
 viewBox="0.00 0.00 554.68 471.00" xmlns="http://www.w3.org/2000/svg" xmlns:xlink="http://www.w3.org/1999/xlink">
<g id="graph0" class="graph" transform="scale(1 1) rotate(0) translate(4 467)">
<title>backend</title>
<polygon fill="white" stroke="transparent" points="-4,4 -4,-467 550.68,-467 550.68,4 -4,4"/>
<g id="clust1" class="cluster">
<title>clusterdir_68267d1309a1af8e8297ef4c3efbcdba</title>
<g id="a_clust1"><a xlink:href="dir_68267d1309a1af8e8297ef4c3efbcdba.html" target="_top" xlink:title="src">
<polygon fill="#ddddee" stroke="black" points="8,-8 8,-455 324,-455 324,-8 8,-8"/>
<text text-anchor="middle" x="166" y="-443" font-family="Helvetica,sans-Serif" font-size="10.00">src</text>
</a>
</g>
</g>
<g id="clust2" class="cluster">
<title>clusterdir_3f615ade772d23cefe5e20dcb18424a2</title>
<g id="a_clust2"><a xlink:href="dir_3f615ade772d23cefe5e20dcb18424a2.html" target="_top">
<polygon fill="#eeeeff" stroke="black" points="16,-16 16,-428 316,-428 316,-16 16,-16"/>
</a>
</g>
</g>
<!-- dir_3f615ade772d23cefe5e20dcb18424a2 -->
<g id="node1" class="node">
<title>dir_3f615ade772d23cefe5e20dcb18424a2</title>
<text text-anchor="middle" x="178" y="-399.5" font-family="Helvetica,sans-Serif" font-size="10.00">backend</text>
</g>
<!-- dir_8de3944d4b83abb802b44e4617c59fd6 -->
<g id="node3" class="node">
<title>dir_8de3944d4b83abb802b44e4617c59fd6</title>
<g id="a_node3"><a xlink:href="dir_8de3944d4b83abb802b44e4617c59fd6.html" target="_top" xlink:title="config">
<polygon fill="white" stroke="black" points="182,-348 128,-348 128,-312 182,-312 182,-348"/>
<text text-anchor="middle" x="155" y="-327.5" font-family="Helvetica,sans-Serif" font-size="10.00">config</text>
</a>
</g>
</g>
<!-- dir_3f615ade772d23cefe5e20dcb18424a2&#45;&gt;dir_8de3944d4b83abb802b44e4617c59fd6 -->
<g id="edge7" class="edge">
<title>dir_3f615ade772d23cefe5e20dcb18424a2&#45;&gt;dir_8de3944d4b83abb802b44e4617c59fd6</title>
<path fill="none" stroke="black" d="M172.31,-383.7C169.75,-375.9 166.67,-366.51 163.82,-357.83"/>
<polygon fill="black" stroke="black" points="167.07,-356.51 160.62,-348.1 160.42,-358.7 167.07,-356.51"/>
<g id="a_edge7&#45;headlabel"><a xlink:href="dir_000006_000010.html" target="_top" xlink:title="16">
<text text-anchor="middle" x="170.89" y="-356.54" font-family="Helvetica,sans-Serif" font-size="10.00">16</text>
</a>
</g>
</g>
<!-- dir_6ec4d305043bb2ac35319501d57f2d67 -->
<g id="node4" class="node">
<title>dir_6ec4d305043bb2ac35319501d57f2d67</title>
<g id="a_node4"><a xlink:href="dir_6ec4d305043bb2ac35319501d57f2d67.html" target="_top" xlink:title="drivers">
<polygon fill="white" stroke="black" points="228,-276 174,-276 174,-240 228,-240 228,-276"/>
<text text-anchor="middle" x="201" y="-255.5" font-family="Helvetica,sans-Serif" font-size="10.00">drivers</text>
</a>
</g>
</g>
<!-- dir_3f615ade772d23cefe5e20dcb18424a2&#45;&gt;dir_6ec4d305043bb2ac35319501d57f2d67 -->
<g id="edge11" class="edge">
<title>dir_3f615ade772d23cefe5e20dcb18424a2&#45;&gt;dir_6ec4d305043bb2ac35319501d57f2d67</title>
<path fill="none" stroke="black" d="M182.78,-383.93C185.52,-373.6 188.84,-360.13 191,-348 194.66,-327.46 197.23,-304.01 198.85,-286.34"/>
<polygon fill="black" stroke="black" points="202.35,-286.42 199.73,-276.16 195.38,-285.81 202.35,-286.42"/>
<g id="a_edge11&#45;headlabel"><a xlink:href="dir_000006_000012.html" target="_top" xlink:title="61">
<text text-anchor="middle" x="204.87" y="-287.75" font-family="Helvetica,sans-Serif" font-size="10.00">61</text>
</a>
</g>
</g>
<!-- dir_01d18f1cc77c9a191a0f93995e355f74 -->
<g id="node6" class="node">
<title>dir_01d18f1cc77c9a191a0f93995e355f74</title>
<g id="a_node6"><a xlink:href="dir_01d18f1cc77c9a191a0f93995e355f74.html" target="_top" xlink:title="keys">
<polygon fill="white" stroke="black" points="296,-60 242,-60 242,-24 296,-24 296,-60"/>
<text text-anchor="middle" x="269" y="-39.5" font-family="Helvetica,sans-Serif" font-size="10.00">keys</text>
</a>
</g>
</g>
<!-- dir_3f615ade772d23cefe5e20dcb18424a2&#45;&gt;dir_01d18f1cc77c9a191a0f93995e355f74 -->
<g id="edge10" class="edge">
<title>dir_3f615ade772d23cefe5e20dcb18424a2&#45;&gt;dir_01d18f1cc77c9a191a0f93995e355f74</title>
<path fill="none" stroke="black" d="M149.4,-386.15C135.36,-377.17 119.82,-364.3 112,-348 77.13,-275.28 115.97,-246.37 135,-168 142.84,-135.73 133.49,-121.3 155,-96 177.9,-69.07 195.6,-74.99 232.6,-59.9"/>
<polygon fill="black" stroke="black" points="234.13,-63.05 241.89,-55.84 231.32,-56.64 234.13,-63.05"/>
<g id="a_edge10&#45;headlabel"><a xlink:href="dir_000006_000023.html" target="_top" xlink:title="22">
<text text-anchor="middle" x="231.97" y="-64.59" font-family="Helvetica,sans-Serif" font-size="10.00">22</text>
</a>
</g>
</g>
<!-- dir_10540e180691539d14a045ae194980ae -->
<g id="node7" class="node">
<title>dir_10540e180691539d14a045ae194980ae</title>
<g id="a_node7"><a xlink:href="dir_10540e180691539d14a045ae194980ae.html" target="_top" xlink:title="managers">
<polygon fill="white" stroke="black" points="229.5,-132 164.5,-132 164.5,-96 229.5,-96 229.5,-132"/>
<text text-anchor="middle" x="197" y="-111.5" font-family="Helvetica,sans-Serif" font-size="10.00">managers</text>
</a>
</g>
</g>
<!-- dir_3f615ade772d23cefe5e20dcb18424a2&#45;&gt;dir_10540e180691539d14a045ae194980ae -->
<g id="edge9" class="edge">
<title>dir_3f615ade772d23cefe5e20dcb18424a2&#45;&gt;dir_10540e180691539d14a045ae194980ae</title>
<path fill="none" stroke="black" d="M150.2,-383.87C138.23,-374.84 125.5,-362.59 119,-348 112.48,-333.39 117.1,-327.89 119,-312 126.83,-246.6 124.76,-227.02 154,-168 158.94,-158.02 166.05,-148.23 173.07,-139.83"/>
<polygon fill="black" stroke="black" points="175.75,-142.08 179.7,-132.24 170.48,-137.47 175.75,-142.08"/>
<g id="a_edge9&#45;headlabel"><a xlink:href="dir_000006_000018.html" target="_top" xlink:title="27">
<text text-anchor="middle" x="175.53" y="-144.15" font-family="Helvetica,sans-Serif" font-size="10.00">27</text>
</a>
</g>
</g>
<!-- dir_b7878ad5ecbf2506f4125b9d34c97e45 -->
<g id="node10" class="node">
<title>dir_b7878ad5ecbf2506f4125b9d34c97e45</title>
<g id="a_node10"><a xlink:href="dir_b7878ad5ecbf2506f4125b9d34c97e45.html" target="_top" xlink:title="util">
<polygon fill="none" stroke="black" points="386,-60 332,-60 332,-24 386,-24 386,-60"/>
<text text-anchor="middle" x="359" y="-39.5" font-family="Helvetica,sans-Serif" font-size="10.00">util</text>
</a>
</g>
</g>
<!-- dir_3f615ade772d23cefe5e20dcb18424a2&#45;&gt;dir_b7878ad5ecbf2506f4125b9d34c97e45 -->
<g id="edge8" class="edge">
<title>dir_3f615ade772d23cefe5e20dcb18424a2&#45;&gt;dir_b7878ad5ecbf2506f4125b9d34c97e45</title>
<path fill="none" stroke="black" d="M206.71,-401.58C287,-401.57 508,-389.67 508,-259 508,-259 508,-259 508,-185 508,-141.63 498.2,-127.12 468,-96 448.26,-75.65 419.1,-62.04 395.91,-53.71"/>
<polygon fill="black" stroke="black" points="396.97,-50.38 386.38,-50.46 394.71,-57 396.97,-50.38"/>
<g id="a_edge8&#45;headlabel"><a xlink:href="dir_000006_000003.html" target="_top" xlink:title="62">
<text text-anchor="middle" x="401.29" y="-46.35" font-family="Helvetica,sans-Serif" font-size="10.00">62</text>
</a>
</g>
</g>
<!-- dir_7e922bb697d9df6892a9562f607351c1 -->
<g id="node2" class="node">
<title>dir_7e922bb697d9df6892a9562f607351c1</title>
<g id="a_node2"><a xlink:href="dir_7e922bb697d9df6892a9562f607351c1.html" target="_top" xlink:title="bookshelfmodel">
<polygon fill="white" stroke="black" points="151.5,-60 56.5,-60 56.5,-24 151.5,-24 151.5,-60"/>
<text text-anchor="middle" x="104" y="-39.5" font-family="Helvetica,sans-Serif" font-size="10.00">bookshelfmodel</text>
</a>
</g>
</g>
<!-- dir_7e922bb697d9df6892a9562f607351c1&#45;&gt;dir_8de3944d4b83abb802b44e4617c59fd6 -->
<g id="edge35" class="edge">
<title>dir_7e922bb697d9df6892a9562f607351c1&#45;&gt;dir_8de3944d4b83abb802b44e4617c59fd6</title>
<path fill="none" stroke="black" d="M104,-60.03C104.41,-99.03 107.77,-197.48 130,-276 132.58,-285.1 136.58,-294.59 140.64,-302.97"/>
<polygon fill="black" stroke="black" points="137.52,-304.56 145.16,-311.9 143.76,-301.4 137.52,-304.56"/>
<g id="a_edge35&#45;headlabel"><a xlink:href="dir_000007_000010.html" target="_top" xlink:title="1">
<text text-anchor="middle" x="133.36" y="-300.14" font-family="Helvetica,sans-Serif" font-size="10.00">1</text>
</a>
</g>
</g>
<!-- dir_7e922bb697d9df6892a9562f607351c1&#45;&gt;dir_6ec4d305043bb2ac35319501d57f2d67 -->
<g id="edge37" class="edge">
<title>dir_7e922bb697d9df6892a9562f607351c1&#45;&gt;dir_6ec4d305043bb2ac35319501d57f2d67</title>
<path fill="none" stroke="black" d="M106.53,-60.47C111.55,-91.18 124.71,-156.11 152,-204 157.8,-214.17 165.89,-223.97 173.82,-232.33"/>
<polygon fill="black" stroke="black" points="171.47,-234.92 181,-239.56 176.44,-229.99 171.47,-234.92"/>
<g id="a_edge37&#45;headlabel"><a xlink:href="dir_000007_000012.html" target="_top" xlink:title="13">
<text text-anchor="middle" x="166.92" y="-231.87" font-family="Helvetica,sans-Serif" font-size="10.00">13</text>
</a>
</g>
</g>
<!-- dir_7e922bb697d9df6892a9562f607351c1&#45;&gt;dir_b7878ad5ecbf2506f4125b9d34c97e45 -->
<g id="edge36" class="edge">
<title>dir_7e922bb697d9df6892a9562f607351c1&#45;&gt;dir_b7878ad5ecbf2506f4125b9d34c97e45</title>
<path fill="none" stroke="black" d="M130.02,-60.12C141.69,-67.18 155.96,-74.42 170,-78 230.72,-93.48 251.55,-97.82 311,-78 318.64,-75.45 326.05,-71.16 332.66,-66.4"/>
<polygon fill="black" stroke="black" points="334.84,-69.14 340.58,-60.24 330.54,-63.62 334.84,-69.14"/>
<g id="a_edge36&#45;headlabel"><a xlink:href="dir_000007_000003.html" target="_top" xlink:title="10">
<text text-anchor="middle" x="333.75" y="-71.09" font-family="Helvetica,sans-Serif" font-size="10.00">10</text>
</a>
</g>
</g>
<!-- dir_8de3944d4b83abb802b44e4617c59fd6&#45;&gt;dir_6ec4d305043bb2ac35319501d57f2d67 -->
<g id="edge3" class="edge">
<title>dir_8de3944d4b83abb802b44e4617c59fd6&#45;&gt;dir_6ec4d305043bb2ac35319501d57f2d67</title>
<path fill="none" stroke="black" d="M160.46,-311.7C165.01,-303.47 171.37,-293.48 177.77,-284.42"/>
<polygon fill="black" stroke="black" points="180.78,-286.24 183.86,-276.1 175.13,-282.1 180.78,-286.24"/>
<g id="a_edge3&#45;headlabel"><a xlink:href="dir_000010_000012.html" target="_top" xlink:title="1">
<text text-anchor="middle" x="180.95" y="-288.32" font-family="Helvetica,sans-Serif" font-size="10.00">1</text>
</a>
</g>
</g>
<!-- dir_8de3944d4b83abb802b44e4617c59fd6&#45;&gt;dir_10540e180691539d14a045ae194980ae -->
<g id="edge2" class="edge">
<title>dir_8de3944d4b83abb802b44e4617c59fd6&#45;&gt;dir_10540e180691539d14a045ae194980ae</title>
<path fill="none" stroke="black" d="M145.96,-311.82C144.11,-301.46 143.34,-287.98 143,-276 141.63,-227.43 142.93,-213.49 160,-168 163.44,-158.84 168.12,-149.26 173.13,-140.81"/>
<polygon fill="black" stroke="black" points="176.22,-142.46 178.63,-132.15 170.32,-138.71 176.22,-142.46"/>
<g id="a_edge2&#45;headlabel"><a xlink:href="dir_000010_000018.html" target="_top" xlink:title="1">
<text text-anchor="middle" x="176.69" y="-144.52" font-family="Helvetica,sans-Serif" font-size="10.00">1</text>
</a>
</g>
</g>
<!-- dir_8de3944d4b83abb802b44e4617c59fd6&#45;&gt;dir_b7878ad5ecbf2506f4125b9d34c97e45 -->
<g id="edge1" class="edge">
<title>dir_8de3944d4b83abb802b44e4617c59fd6&#45;&gt;dir_b7878ad5ecbf2506f4125b9d34c97e45</title>
<path fill="none" stroke="black" d="M182.38,-323.55C233.42,-311.8 342.35,-278.83 391,-204 417.19,-163.72 410.42,-141.84 396,-96 392.9,-86.15 387.25,-76.53 381.28,-68.25"/>
<polygon fill="black" stroke="black" points="383.91,-65.94 375.04,-60.15 378.37,-70.21 383.91,-65.94"/>
<g id="a_edge1&#45;headlabel"><a xlink:href="dir_000010_000003.html" target="_top" xlink:title="5">
<text text-anchor="middle" x="388.36" y="-64.55" font-family="Helvetica,sans-Serif" font-size="10.00">5</text>
</a>
</g>
</g>
<!-- dir_6ec4d305043bb2ac35319501d57f2d67&#45;&gt;dir_8de3944d4b83abb802b44e4617c59fd6 -->
<g id="edge38" class="edge">
<title>dir_6ec4d305043bb2ac35319501d57f2d67&#45;&gt;dir_8de3944d4b83abb802b44e4617c59fd6</title>
<path fill="none" stroke="black" d="M195.66,-276.1C191.13,-284.3 184.78,-294.28 178.38,-303.36"/>
<polygon fill="black" stroke="black" points="175.36,-301.56 172.29,-311.7 181.01,-305.69 175.36,-301.56"/>
<g id="a_edge38&#45;headlabel"><a xlink:href="dir_000012_000010.html" target="_top" xlink:title="1">
<text text-anchor="middle" x="175.19" y="-294.48" font-family="Helvetica,sans-Serif" font-size="10.00">1</text>
</a>
</g>
</g>
<!-- dir_6ec4d305043bb2ac35319501d57f2d67&#45;&gt;dir_01d18f1cc77c9a191a0f93995e355f74 -->
<g id="edge41" class="edge">
<title>dir_6ec4d305043bb2ac35319501d57f2d67&#45;&gt;dir_01d18f1cc77c9a191a0f93995e355f74</title>
<path fill="none" stroke="black" d="M217.5,-239.96C227.89,-230.72 240.25,-218.26 247,-204 267.38,-160.96 266.44,-104.18 266.13,-70.83"/>
<polygon fill="black" stroke="black" points="269.63,-70.45 266.08,-60.47 262.63,-70.49 269.63,-70.45"/>
<g id="a_edge41&#45;headlabel"><a xlink:href="dir_000012_000023.html" target="_top" xlink:title="2">
<text text-anchor="middle" x="272.48" y="-71.53" font-family="Helvetica,sans-Serif" font-size="10.00">2</text>
</a>
</g>
</g>
<!-- dir_6ec4d305043bb2ac35319501d57f2d67&#45;&gt;dir_10540e180691539d14a045ae194980ae -->
<g id="edge40" class="edge">
<title>dir_6ec4d305043bb2ac35319501d57f2d67&#45;&gt;dir_10540e180691539d14a045ae194980ae</title>
<path fill="none" stroke="black" d="M182.03,-239.61C175.26,-229.62 168.92,-216.58 166,-204 162.38,-188.41 162.87,-183.69 166,-168 167.81,-158.91 171.21,-149.43 175.23,-141.05"/>
<polygon fill="black" stroke="black" points="178.38,-142.59 179.99,-132.12 172.2,-139.3 178.38,-142.59"/>
<g id="a_edge40&#45;headlabel"><a xlink:href="dir_000012_000018.html" target="_top" xlink:title="2">
<text text-anchor="middle" x="179.19" y="-144.6" font-family="Helvetica,sans-Serif" font-size="10.00">2</text>
</a>
</g>
</g>
<!-- dir_e40e2a39b3819c509dbc43bbd7688b8f -->
<g id="node9" class="node">
<title>dir_e40e2a39b3819c509dbc43bbd7688b8f</title>
<g id="a_node9"><a xlink:href="dir_e40e2a39b3819c509dbc43bbd7688b8f.html" target="_top" xlink:title="rendering">
<polygon fill="white" stroke="black" points="247.5,-204 184.5,-204 184.5,-168 247.5,-168 247.5,-204"/>
<text text-anchor="middle" x="216" y="-183.5" font-family="Helvetica,sans-Serif" font-size="10.00">rendering</text>
</a>
</g>
</g>
<!-- dir_6ec4d305043bb2ac35319501d57f2d67&#45;&gt;dir_e40e2a39b3819c509dbc43bbd7688b8f -->
<g id="edge42" class="edge">
<title>dir_6ec4d305043bb2ac35319501d57f2d67&#45;&gt;dir_e40e2a39b3819c509dbc43bbd7688b8f</title>
<path fill="none" stroke="black" d="M198.79,-239.7C199.66,-231.9 201.45,-222.51 203.67,-213.83"/>
<polygon fill="black" stroke="black" points="207.06,-214.68 206.44,-204.1 200.33,-212.76 207.06,-214.68"/>
<g id="a_edge42&#45;headlabel"><a xlink:href="dir_000012_000016.html" target="_top" xlink:title="1">
<text text-anchor="middle" x="208.81" y="-216.42" font-family="Helvetica,sans-Serif" font-size="10.00">1</text>
</a>
</g>
</g>
<!-- dir_6ec4d305043bb2ac35319501d57f2d67&#45;&gt;dir_b7878ad5ecbf2506f4125b9d34c97e45 -->
<g id="edge39" class="edge">
<title>dir_6ec4d305043bb2ac35319501d57f2d67&#45;&gt;dir_b7878ad5ecbf2506f4125b9d34c97e45</title>
<path fill="none" stroke="black" d="M226.75,-239.85C239.82,-230.31 255.36,-217.64 267,-204 303.15,-161.66 332.44,-103.06 347.64,-69.48"/>
<polygon fill="black" stroke="black" points="350.86,-70.87 351.73,-60.31 344.46,-68.02 350.86,-70.87"/>
<g id="a_edge39&#45;headlabel"><a xlink:href="dir_000012_000003.html" target="_top" xlink:title="7">
<text text-anchor="middle" x="351.99" y="-72.81" font-family="Helvetica,sans-Serif" font-size="10.00">7</text>
</a>
</g>
</g>
<!-- dir_ce499b53d7ae20affef1cc1ed540badc -->
<g id="node5" class="node">
<title>dir_ce499b53d7ae20affef1cc1ed540badc</title>
<g id="a_node5"><a xlink:href="dir_ce499b53d7ae20affef1cc1ed540badc.html" target="_top" xlink:title="filters">
<polygon fill="white" stroke="black" points="224,-60 170,-60 170,-24 224,-24 224,-60"/>
<text text-anchor="middle" x="197" y="-39.5" font-family="Helvetica,sans-Serif" font-size="10.00">filters</text>
</a>
</g>
</g>
<!-- dir_ce499b53d7ae20affef1cc1ed540badc&#45;&gt;dir_8de3944d4b83abb802b44e4617c59fd6 -->
<g id="edge31" class="edge">
<title>dir_ce499b53d7ae20affef1cc1ed540badc&#45;&gt;dir_8de3944d4b83abb802b44e4617c59fd6</title>
<path fill="none" stroke="black" d="M172.52,-60.23C161.6,-69.44 149.88,-81.81 144,-96 115.16,-165.62 134.06,-257.14 146.53,-301.93"/>
<polygon fill="black" stroke="black" points="143.24,-303.14 149.38,-311.77 149.96,-301.19 143.24,-303.14"/>
<g id="a_edge31&#45;headlabel"><a xlink:href="dir_000024_000010.html" target="_top" xlink:title="3">
<text text-anchor="middle" x="139.51" y="-297.97" font-family="Helvetica,sans-Serif" font-size="10.00">3</text>
</a>
</g>
</g>
<!-- dir_ce499b53d7ae20affef1cc1ed540badc&#45;&gt;dir_6ec4d305043bb2ac35319501d57f2d67 -->
<g id="edge34" class="edge">
<title>dir_ce499b53d7ae20affef1cc1ed540badc&#45;&gt;dir_6ec4d305043bb2ac35319501d57f2d67</title>
<path fill="none" stroke="black" d="M178.4,-60.24C169.47,-69.8 159.71,-82.47 155,-96 139.08,-141.71 151.6,-158.83 169,-204 172.57,-213.28 177.75,-222.78 182.89,-231.12"/>
<polygon fill="black" stroke="black" points="180.03,-233.14 188.39,-239.66 185.92,-229.35 180.03,-233.14"/>
<g id="a_edge34&#45;headlabel"><a xlink:href="dir_000024_000012.html" target="_top" xlink:title="4">
<text text-anchor="middle" x="175.7" y="-229.16" font-family="Helvetica,sans-Serif" font-size="10.00">4</text>
</a>
</g>
</g>
<!-- dir_ce499b53d7ae20affef1cc1ed540badc&#45;&gt;dir_10540e180691539d14a045ae194980ae -->
<g id="edge33" class="edge">
<title>dir_ce499b53d7ae20affef1cc1ed540badc&#45;&gt;dir_10540e180691539d14a045ae194980ae</title>
<path fill="none" stroke="black" d="M202.9,-60.1C203.7,-67.79 203.94,-77.05 203.6,-85.67"/>
<polygon fill="black" stroke="black" points="200.11,-85.48 202.92,-95.7 207.09,-85.96 200.11,-85.48"/>
<g id="a_edge33&#45;headlabel"><a xlink:href="dir_000024_000018.html" target="_top" xlink:title="7">
<text text-anchor="middle" x="197.52" y="-79.2" font-family="Helvetica,sans-Serif" font-size="10.00">7</text>
</a>
</g>
</g>
<!-- dir_ce499b53d7ae20affef1cc1ed540badc&#45;&gt;dir_b7878ad5ecbf2506f4125b9d34c97e45 -->
<g id="edge32" class="edge">
<title>dir_ce499b53d7ae20affef1cc1ed540badc&#45;&gt;dir_b7878ad5ecbf2506f4125b9d34c97e45</title>
<path fill="none" stroke="black" d="M214.08,-60.22C221.85,-67.2 231.62,-74.36 242,-78 270.94,-88.15 281.91,-87.7 311,-78 318.64,-75.45 326.05,-71.16 332.66,-66.4"/>
<polygon fill="black" stroke="black" points="334.84,-69.14 340.58,-60.24 330.54,-63.62 334.84,-69.14"/>
<g id="a_edge32&#45;headlabel"><a xlink:href="dir_000024_000003.html" target="_top" xlink:title="3">
<text text-anchor="middle" x="333.75" y="-71.09" font-family="Helvetica,sans-Serif" font-size="10.00">3</text>
</a>
</g>
</g>
<!-- dir_01d18f1cc77c9a191a0f93995e355f74&#45;&gt;dir_6ec4d305043bb2ac35319501d57f2d67 -->
<g id="edge20" class="edge">
<title>dir_01d18f1cc77c9a191a0f93995e355f74&#45;&gt;dir_6ec4d305043bb2ac35319501d57f2d67</title>
<path fill="none" stroke="black" d="M276.83,-60.47C283.96,-91.17 287.68,-156.1 265,-204 258.74,-217.21 247.68,-228.87 236.38,-237.87"/>
<polygon fill="black" stroke="black" points="234.14,-235.17 228.19,-243.93 238.31,-240.8 234.14,-235.17"/>
<g id="a_edge20&#45;headlabel"><a xlink:href="dir_000023_000012.html" target="_top" xlink:title="6">
<text text-anchor="middle" x="235.34" y="-228.25" font-family="Helvetica,sans-Serif" font-size="10.00">6</text>
</a>
</g>
</g>
<!-- dir_01d18f1cc77c9a191a0f93995e355f74&#45;&gt;dir_b7878ad5ecbf2506f4125b9d34c97e45 -->
<g id="edge19" class="edge">
<title>dir_01d18f1cc77c9a191a0f93995e355f74&#45;&gt;dir_b7878ad5ecbf2506f4125b9d34c97e45</title>
<path fill="none" stroke="black" d="M296.07,-42C304.67,-42 313.27,-42 321.87,-42"/>
<polygon fill="black" stroke="black" points="321.96,-45.5 331.96,-42 321.96,-38.5 321.96,-45.5"/>
<g id="a_edge19&#45;headlabel"><a xlink:href="dir_000023_000003.html" target="_top" xlink:title="6">
<text text-anchor="middle" x="318.37" y="-45.84" font-family="Helvetica,sans-Serif" font-size="10.00">6</text>
</a>
</g>
</g>
<!-- dir_10540e180691539d14a045ae194980ae&#45;&gt;dir_7e922bb697d9df6892a9562f607351c1 -->
<g id="edge17" class="edge">
<title>dir_10540e180691539d14a045ae194980ae&#45;&gt;dir_7e922bb697d9df6892a9562f607351c1</title>
<path fill="none" stroke="black" d="M174.01,-95.7C162.19,-86.8 147.61,-75.82 134.82,-66.2"/>
<polygon fill="black" stroke="black" points="136.82,-63.32 126.72,-60.1 132.61,-68.91 136.82,-63.32"/>
<g id="a_edge17&#45;headlabel"><a xlink:href="dir_000018_000007.html" target="_top" xlink:title="1">
<text text-anchor="middle" x="141.4" y="-60.71" font-family="Helvetica,sans-Serif" font-size="10.00">1</text>
</a>
</g>
</g>
<!-- dir_10540e180691539d14a045ae194980ae&#45;&gt;dir_8de3944d4b83abb802b44e4617c59fd6 -->
<g id="edge12" class="edge">
<title>dir_10540e180691539d14a045ae194980ae&#45;&gt;dir_8de3944d4b83abb802b44e4617c59fd6</title>
<path fill="none" stroke="black" d="M194.38,-132.15C189.68,-142.28 182.68,-155.53 178,-168 160.93,-213.49 159.63,-227.43 161,-276 161.24,-284.33 161.68,-293.38 161.76,-301.61"/>
<polygon fill="black" stroke="black" points="158.25,-301.77 161.6,-311.82 165.25,-301.88 158.25,-301.77"/>
<g id="a_edge12&#45;headlabel"><a xlink:href="dir_000018_000010.html" target="_top" xlink:title="3">
<text text-anchor="middle" x="155.47" y="-295.64" font-family="Helvetica,sans-Serif" font-size="10.00">3</text>
</a>
</g>
</g>
<!-- dir_10540e180691539d14a045ae194980ae&#45;&gt;dir_6ec4d305043bb2ac35319501d57f2d67 -->
<g id="edge18" class="edge">
<title>dir_10540e180691539d14a045ae194980ae&#45;&gt;dir_6ec4d305043bb2ac35319501d57f2d67</title>
<path fill="none" stroke="black" d="M195.74,-132.12C191.99,-142.24 186.49,-155.49 184,-168 180.87,-183.69 180.38,-188.41 184,-204 186.08,-212.94 189.88,-222.12 193.57,-230.26"/>
<polygon fill="black" stroke="black" points="190.51,-232 197.88,-239.61 196.87,-229.06 190.51,-232"/>
<g id="a_edge18&#45;headlabel"><a xlink:href="dir_000018_000012.html" target="_top" xlink:title="12">
<text text-anchor="middle" x="186.43" y="-227.42" font-family="Helvetica,sans-Serif" font-size="10.00">12</text>
</a>
</g>
</g>
<!-- dir_10540e180691539d14a045ae194980ae&#45;&gt;dir_ce499b53d7ae20affef1cc1ed540badc -->
<g id="edge16" class="edge">
<title>dir_10540e180691539d14a045ae194980ae&#45;&gt;dir_ce499b53d7ae20affef1cc1ed540badc</title>
<path fill="none" stroke="black" d="M191.08,-95.7C190.29,-87.98 190.06,-78.71 190.4,-70.11"/>
<polygon fill="black" stroke="black" points="193.9,-70.32 191.1,-60.1 186.92,-69.84 193.9,-70.32"/>
<g id="a_edge16&#45;headlabel"><a xlink:href="dir_000018_000024.html" target="_top" xlink:title="5">
<text text-anchor="middle" x="196.48" y="-71.61" font-family="Helvetica,sans-Serif" font-size="10.00">5</text>
</a>
</g>
</g>
<!-- dir_10540e180691539d14a045ae194980ae&#45;&gt;dir_01d18f1cc77c9a191a0f93995e355f74 -->
<g id="edge14" class="edge">
<title>dir_10540e180691539d14a045ae194980ae&#45;&gt;dir_01d18f1cc77c9a191a0f93995e355f74</title>
<path fill="none" stroke="black" d="M214.8,-95.7C223.6,-87.14 234.38,-76.66 244,-67.3"/>
<polygon fill="black" stroke="black" points="246.68,-69.58 251.41,-60.1 241.8,-64.57 246.68,-69.58"/>
<g id="a_edge14&#45;headlabel"><a xlink:href="dir_000018_000023.html" target="_top" xlink:title="1">
<text text-anchor="middle" x="246.08" y="-71.63" font-family="Helvetica,sans-Serif" font-size="10.00">1</text>
</a>
</g>
</g>
<!-- dir_10540e180691539d14a045ae194980ae&#45;&gt;dir_e40e2a39b3819c509dbc43bbd7688b8f -->
<g id="edge15" class="edge">
<title>dir_10540e180691539d14a045ae194980ae&#45;&gt;dir_e40e2a39b3819c509dbc43bbd7688b8f</title>
<path fill="none" stroke="black" d="M207.54,-132.1C210.43,-139.79 213.18,-149.05 215.18,-157.67"/>
<polygon fill="black" stroke="black" points="211.8,-158.59 217.22,-167.7 218.66,-157.2 211.8,-158.59"/>
<g id="a_edge15&#45;headlabel"><a xlink:href="dir_000018_000016.html" target="_top" xlink:title="3">
<text text-anchor="middle" x="208.3" y="-153.13" font-family="Helvetica,sans-Serif" font-size="10.00">3</text>
</a>
</g>
</g>
<!-- dir_10540e180691539d14a045ae194980ae&#45;&gt;dir_b7878ad5ecbf2506f4125b9d34c97e45 -->
<g id="edge13" class="edge">
<title>dir_10540e180691539d14a045ae194980ae&#45;&gt;dir_b7878ad5ecbf2506f4125b9d34c97e45</title>
<path fill="none" stroke="black" d="M228.82,-95.98C251.74,-85.6 283.16,-72.07 311,-60 314.63,-58.43 318.45,-56.77 322.31,-55.12"/>
<polygon fill="black" stroke="black" points="323.98,-58.22 331.86,-51.14 321.29,-51.76 323.98,-58.22"/>
<g id="a_edge13&#45;headlabel"><a xlink:href="dir_000018_000003.html" target="_top" xlink:title="12">
<text text-anchor="middle" x="321.75" y="-59.72" font-family="Helvetica,sans-Serif" font-size="10.00">12</text>
</a>
</g>
</g>
<!-- dir_1d640b11cf356379d2440058ca8db2bb -->
<g id="node8" class="node">
<title>dir_1d640b11cf356379d2440058ca8db2bb</title>
<g id="a_node8"><a xlink:href="dir_1d640b11cf356379d2440058ca8db2bb.html" target="_top" xlink:title="models">
<polygon fill="white" stroke="black" points="294,-348 240,-348 240,-312 294,-312 294,-348"/>
<text text-anchor="middle" x="267" y="-327.5" font-family="Helvetica,sans-Serif" font-size="10.00">models</text>
</a>
</g>
</g>
<!-- dir_1d640b11cf356379d2440058ca8db2bb&#45;&gt;dir_6ec4d305043bb2ac35319501d57f2d67 -->
<g id="edge25" class="edge">
<title>dir_1d640b11cf356379d2440058ca8db2bb&#45;&gt;dir_6ec4d305043bb2ac35319501d57f2d67</title>
<path fill="none" stroke="black" d="M250.69,-311.7C242.69,-303.22 232.93,-292.86 224.18,-283.58"/>
<polygon fill="black" stroke="black" points="226.53,-280.98 217.13,-276.1 221.44,-285.78 226.53,-280.98"/>
<g id="a_edge25&#45;headlabel"><a xlink:href="dir_000017_000012.html" target="_top" xlink:title="5">
<text text-anchor="middle" x="231.07" y="-279.15" font-family="Helvetica,sans-Serif" font-size="10.00">5</text>
</a>
</g>
</g>
<!-- dir_1d640b11cf356379d2440058ca8db2bb&#45;&gt;dir_01d18f1cc77c9a191a0f93995e355f74 -->
<g id="edge23" class="edge">
<title>dir_1d640b11cf356379d2440058ca8db2bb&#45;&gt;dir_01d18f1cc77c9a191a0f93995e355f74</title>
<path fill="none" stroke="black" d="M271.87,-311.98C274.56,-301.67 277.64,-288.19 279,-276 287.89,-196.5 286.45,-175.65 279,-96 278.2,-87.48 276.7,-78.28 275.1,-69.99"/>
<polygon fill="black" stroke="black" points="278.5,-69.16 273.06,-60.07 271.64,-70.57 278.5,-69.16"/>
<g id="a_edge23&#45;headlabel"><a xlink:href="dir_000017_000023.html" target="_top" xlink:title="6">
<text text-anchor="middle" x="282.01" y="-69.61" font-family="Helvetica,sans-Serif" font-size="10.00">6</text>
</a>
</g>
</g>
<!-- dir_1d640b11cf356379d2440058ca8db2bb&#45;&gt;dir_10540e180691539d14a045ae194980ae -->
<g id="edge22" class="edge">
<title>dir_1d640b11cf356379d2440058ca8db2bb&#45;&gt;dir_10540e180691539d14a045ae194980ae</title>
<path fill="none" stroke="black" d="M269.83,-311.96C274.09,-281.36 279.32,-215.85 256,-168 250.49,-156.69 241.39,-146.7 231.97,-138.52"/>
<polygon fill="black" stroke="black" points="234.02,-135.68 224.05,-132.1 229.61,-141.12 234.02,-135.68"/>
<g id="a_edge22&#45;headlabel"><a xlink:href="dir_000017_000018.html" target="_top" xlink:title="2">
<text text-anchor="middle" x="238.6" y="-133.24" font-family="Helvetica,sans-Serif" font-size="10.00">2</text>
</a>
</g>
</g>
<!-- dir_1d640b11cf356379d2440058ca8db2bb&#45;&gt;dir_e40e2a39b3819c509dbc43bbd7688b8f -->
<g id="edge24" class="edge">
<title>dir_1d640b11cf356379d2440058ca8db2bb&#45;&gt;dir_e40e2a39b3819c509dbc43bbd7688b8f</title>
<path fill="none" stroke="black" d="M261.51,-311.85C255.69,-293.85 246.09,-264.8 237,-240 233.82,-231.32 230.16,-221.91 226.8,-213.47"/>
<polygon fill="black" stroke="black" points="230.01,-212.07 223.04,-204.1 223.52,-214.68 230.01,-212.07"/>
<g id="a_edge24&#45;headlabel"><a xlink:href="dir_000017_000016.html" target="_top" xlink:title="1">
<text text-anchor="middle" x="233.99" y="-211.85" font-family="Helvetica,sans-Serif" font-size="10.00">1</text>
</a>
</g>
</g>
<!-- dir_1d640b11cf356379d2440058ca8db2bb&#45;&gt;dir_b7878ad5ecbf2506f4125b9d34c97e45 -->
<g id="edge21" class="edge">
<title>dir_1d640b11cf356379d2440058ca8db2bb&#45;&gt;dir_b7878ad5ecbf2506f4125b9d34c97e45</title>
<path fill="none" stroke="black" d="M294.32,-324.93C339.78,-317.55 427.77,-300.41 446,-276 493.87,-211.9 485.18,-165.75 446,-96 435.23,-76.83 414.4,-63.78 395.82,-55.42"/>
<polygon fill="black" stroke="black" points="396.96,-52.1 386.38,-51.48 394.26,-58.56 396.96,-52.1"/>
<g id="a_edge21&#45;headlabel"><a xlink:href="dir_000017_000003.html" target="_top" xlink:title="1">
<text text-anchor="middle" x="401.37" y="-48.37" font-family="Helvetica,sans-Serif" font-size="10.00">1</text>
</a>
</g>
</g>
<!-- dir_e40e2a39b3819c509dbc43bbd7688b8f&#45;&gt;dir_8de3944d4b83abb802b44e4617c59fd6 -->
<g id="edge26" class="edge">
<title>dir_e40e2a39b3819c509dbc43bbd7688b8f&#45;&gt;dir_8de3944d4b83abb802b44e4617c59fd6</title>
<path fill="none" stroke="black" d="M193.89,-204C183.32,-213.41 171.57,-226.01 165,-240 155.94,-259.29 153.72,-283.45 153.6,-301.72"/>
<polygon fill="black" stroke="black" points="150.1,-301.77 153.75,-311.72 157.1,-301.67 150.1,-301.77"/>
<g id="a_edge26&#45;headlabel"><a xlink:href="dir_000016_000010.html" target="_top" xlink:title="6">
<text text-anchor="middle" x="147.21" y="-295.72" font-family="Helvetica,sans-Serif" font-size="10.00">6</text>
</a>
</g>
</g>
<!-- dir_e40e2a39b3819c509dbc43bbd7688b8f&#45;&gt;dir_6ec4d305043bb2ac35319501d57f2d67 -->
<g id="edge30" class="edge">
<title>dir_e40e2a39b3819c509dbc43bbd7688b8f&#45;&gt;dir_6ec4d305043bb2ac35319501d57f2d67</title>
<path fill="none" stroke="black" d="M218.23,-204.1C217.38,-211.88 215.6,-221.26 213.39,-229.95"/>
<polygon fill="black" stroke="black" points="209.99,-229.12 210.62,-239.7 216.72,-231.03 209.99,-229.12"/>
<g id="a_edge30&#45;headlabel"><a xlink:href="dir_000016_000012.html" target="_top" xlink:title="16">
<text text-anchor="middle" x="208.24" y="-222.39" font-family="Helvetica,sans-Serif" font-size="10.00">16</text>
</a>
</g>
</g>
<!-- dir_e40e2a39b3819c509dbc43bbd7688b8f&#45;&gt;dir_01d18f1cc77c9a191a0f93995e355f74 -->
<g id="edge29" class="edge">
<title>dir_e40e2a39b3819c509dbc43bbd7688b8f&#45;&gt;dir_01d18f1cc77c9a191a0f93995e355f74</title>
<path fill="none" stroke="black" d="M223.39,-167.92C227.78,-157.58 233.39,-144.1 238,-132 245.89,-111.3 254.11,-87.59 260.1,-69.85"/>
<polygon fill="black" stroke="black" points="263.49,-70.76 263.35,-60.17 256.85,-68.54 263.49,-70.76"/>
<g id="a_edge29&#45;headlabel"><a xlink:href="dir_000016_000023.html" target="_top" xlink:title="12">
<text text-anchor="middle" x="265.04" y="-72.57" font-family="Helvetica,sans-Serif" font-size="10.00">12</text>
</a>
</g>
</g>
<!-- dir_e40e2a39b3819c509dbc43bbd7688b8f&#45;&gt;dir_10540e180691539d14a045ae194980ae -->
<g id="edge28" class="edge">
<title>dir_e40e2a39b3819c509dbc43bbd7688b8f&#45;&gt;dir_10540e180691539d14a045ae194980ae</title>
<path fill="none" stroke="black" d="M205.39,-167.7C202.5,-159.98 199.76,-150.71 197.76,-142.11"/>
<polygon fill="black" stroke="black" points="201.15,-141.22 195.75,-132.1 194.29,-142.6 201.15,-141.22"/>
<g id="a_edge28&#45;headlabel"><a xlink:href="dir_000016_000018.html" target="_top" xlink:title="10">
<text text-anchor="middle" x="204.65" y="-141.68" font-family="Helvetica,sans-Serif" font-size="10.00">10</text>
</a>
</g>
</g>
<!-- dir_e40e2a39b3819c509dbc43bbd7688b8f&#45;&gt;dir_b7878ad5ecbf2506f4125b9d34c97e45 -->
<g id="edge27" class="edge">
<title>dir_e40e2a39b3819c509dbc43bbd7688b8f&#45;&gt;dir_b7878ad5ecbf2506f4125b9d34c97e45</title>
<path fill="none" stroke="black" d="M233.25,-167.87C258.48,-142.82 305.57,-96.05 334.42,-67.41"/>
<polygon fill="black" stroke="black" points="337.06,-69.72 341.69,-60.19 332.13,-64.75 337.06,-69.72"/>
<g id="a_edge27&#45;headlabel"><a xlink:href="dir_000016_000003.html" target="_top" xlink:title="5">
<text text-anchor="middle" x="336.51" y="-71.77" font-family="Helvetica,sans-Serif" font-size="10.00">5</text>
</a>
</g>
</g>
<!-- dir_b7878ad5ecbf2506f4125b9d34c97e45&#45;&gt;dir_3f615ade772d23cefe5e20dcb18424a2 -->
<g id="edge4" class="edge">
<title>dir_b7878ad5ecbf2506f4125b9d34c97e45&#45;&gt;dir_3f615ade772d23cefe5e20dcb18424a2</title>
<path fill="none" stroke="black" d="M386.24,-44.17C422.41,-47.22 485.92,-58.04 522,-96 550.22,-125.7 546,-144.03 546,-185 546,-259 546,-259 546,-259 546,-299.97 552.53,-320.68 522,-348 477.56,-387.78 297.14,-397.72 216.85,-400.19"/>
<polygon fill="black" stroke="black" points="216.56,-396.7 206.66,-400.48 216.76,-403.7 216.56,-396.7"/>
<g id="a_edge4&#45;headlabel"><a xlink:href="dir_000003_000006.html" target="_top" xlink:title="3">
<text text-anchor="middle" x="220.07" y="-391.26" font-family="Helvetica,sans-Serif" font-size="10.00">3</text>
</a>
</g>
</g>
<!-- dir_b7878ad5ecbf2506f4125b9d34c97e45&#45;&gt;dir_6ec4d305043bb2ac35319501d57f2d67 -->
<g id="edge6" class="edge">
<title>dir_b7878ad5ecbf2506f4125b9d34c97e45&#45;&gt;dir_6ec4d305043bb2ac35319501d57f2d67</title>
<path fill="none" stroke="black" d="M366.69,-60.03C379.73,-91.76 401.84,-160.64 370,-204 339.93,-244.95 278.27,-255.12 238.33,-257.18"/>
<polygon fill="black" stroke="black" points="238.04,-253.69 228.18,-257.56 238.3,-260.68 238.04,-253.69"/>
<g id="a_edge6&#45;headlabel"><a xlink:href="dir_000003_000012.html" target="_top" xlink:title="2">
<text text-anchor="middle" x="241.53" y="-248.22" font-family="Helvetica,sans-Serif" font-size="10.00">2</text>
</a>
</g>
</g>
<!-- dir_b7878ad5ecbf2506f4125b9d34c97e45&#45;&gt;dir_10540e180691539d14a045ae194980ae -->
<g id="edge5" class="edge">
<title>dir_b7878ad5ecbf2506f4125b9d34c97e45&#45;&gt;dir_10540e180691539d14a045ae194980ae</title>
<path fill="none" stroke="black" d="M331.88,-58.75C330.91,-59.17 329.95,-59.59 329,-60 299.2,-72.91 265.31,-87.51 239.2,-98.11"/>
<polygon fill="black" stroke="black" points="237.57,-94.99 229.6,-101.97 240.18,-101.49 237.57,-94.99"/>
<g id="a_edge5&#45;headlabel"><a xlink:href="dir_000003_000018.html" target="_top" xlink:title="1">
<text text-anchor="middle" x="239.85" y="-88.52" font-family="Helvetica,sans-Serif" font-size="10.00">1</text>
</a>
</g>
</g>
</g>
</svg>
