<?xml version="1.0" encoding="UTF-8" standalone="no"?>
<!DOCTYPE svg PUBLIC "-//W3C//DTD SVG 1.1//EN"
 "http://www.w3.org/Graphics/SVG/1.1/DTD/svg11.dtd">
<!-- Generated by graphviz version 2.43.0 (0)
 -->
<!-- Title: edittextwizard Pages: 1 -->
<svg width="150pt" height="295pt"
 viewBox="0.00 0.00 150.00 295.00" xmlns="http://www.w3.org/2000/svg" xmlns:xlink="http://www.w3.org/1999/xlink">
<g id="graph0" class="graph" transform="scale(1 1) rotate(0) translate(4 291)">
<title>edittextwizard</title>
<polygon fill="white" stroke="transparent" points="-4,4 -4,-291 146,-291 146,4 -4,4"/>
<g id="clust1" class="cluster">
<title>clusterdir_8509b06bafa958d2011203a730bf5778</title>
<g id="a_clust1"><a xlink:href="dir_8509b06bafa958d2011203a730bf5778.html" target="_top" xlink:title="frontend">
<polygon fill="#ddddee" stroke="black" points="8,-208 8,-279 112,-279 112,-208 8,-208"/>
<text text-anchor="middle" x="60" y="-267" font-family="Helvetica,sans-Serif" font-size="10.00">frontend</text>
</a>
</g>
</g>
<!-- dir_f2bf245f4d513cc01909af5be520382c -->
<g id="node1" class="node">
<title>dir_f2bf245f4d513cc01909af5be520382c</title>
<g id="a_node1"><a xlink:href="dir_f2bf245f4d513cc01909af5be520382c.html" target="_top" xlink:title="edittextwizard">
<polygon fill="#eeeeff" stroke="black" points="103.5,-252 16.5,-252 16.5,-216 103.5,-216 103.5,-252"/>
<text text-anchor="middle" x="60" y="-231.5" font-family="Helvetica,sans-Serif" font-size="10.00">edittextwizard</text>
</a>
</g>
</g>
<!-- dir_b7878ad5ecbf2506f4125b9d34c97e45 -->
<g id="node2" class="node">
<title>dir_b7878ad5ecbf2506f4125b9d34c97e45</title>
<g id="a_node2"><a xlink:href="dir_b7878ad5ecbf2506f4125b9d34c97e45.html" target="_top" xlink:title="util">
<polygon fill="none" stroke="black" points="96,-108 42,-108 42,-72 96,-72 96,-108"/>
<text text-anchor="middle" x="69" y="-87.5" font-family="Helvetica,sans-Serif" font-size="10.00">util</text>
</a>
</g>
</g>
<!-- dir_f2bf245f4d513cc01909af5be520382c&#45;&gt;dir_b7878ad5ecbf2506f4125b9d34c97e45 -->
<g id="edge3" class="edge">
<title>dir_f2bf245f4d513cc01909af5be520382c&#45;&gt;dir_b7878ad5ecbf2506f4125b9d34c97e45</title>
<path fill="none" stroke="black" d="M61.09,-215.87C62.62,-191.67 65.44,-147.21 67.26,-118.39"/>
<polygon fill="black" stroke="black" points="70.77,-118.39 67.91,-108.19 63.78,-117.95 70.77,-118.39"/>
<g id="a_edge3&#45;headlabel"><a xlink:href="dir_000014_000003.html" target="_top" xlink:title="3">
<text text-anchor="middle" x="73.38" y="-119.66" font-family="Helvetica,sans-Serif" font-size="10.00">3</text>
</a>
</g>
</g>
<!-- dir_3f615ade772d23cefe5e20dcb18424a2 -->
<g id="node3" class="node">
<title>dir_3f615ade772d23cefe5e20dcb18424a2</title>
<g id="a_node3"><a xlink:href="dir_3f615ade772d23cefe5e20dcb18424a2.html" target="_top" xlink:title="backend">
<polygon fill="white" stroke="red" points="97.5,-36 40.5,-36 40.5,0 97.5,0 97.5,-36"/>
<text text-anchor="middle" x="69" y="-15.5" font-family="Helvetica,sans-Serif" font-size="10.00">backend</text>
</a>
</g>
</g>
<!-- dir_f2bf245f4d513cc01909af5be520382c&#45;&gt;dir_3f615ade772d23cefe5e20dcb18424a2 -->
<g id="edge4" class="edge">
<title>dir_f2bf245f4d513cc01909af5be520382c&#45;&gt;dir_3f615ade772d23cefe5e20dcb18424a2</title>
<path fill="none" stroke="black" d="M51.98,-215.74C39.24,-185.88 17.34,-122.93 33,-72 36.01,-62.22 41.51,-52.62 47.32,-44.33"/>
<polygon fill="black" stroke="black" points="50.19,-46.33 53.39,-36.23 44.59,-42.13 50.19,-46.33"/>
<g id="a_edge4&#45;headlabel"><a xlink:href="dir_000014_000006.html" target="_top" xlink:title="3">
<text text-anchor="middle" x="50.31" y="-48.41" font-family="Helvetica,sans-Serif" font-size="10.00">3</text>
</a>
</g>
</g>
<!-- dir_38b4e75cb995a89c7f6ee00fff0326d9 -->
<g id="node4" class="node">
<title>dir_38b4e75cb995a89c7f6ee00fff0326d9</title>
<g id="a_node4"><a xlink:href="dir_38b4e75cb995a89c7f6ee00fff0326d9.html" target="_top" xlink:title="display">
<polygon fill="white" stroke="red" points="142,-180 88,-180 88,-144 142,-144 142,-180"/>
<text text-anchor="middle" x="115" y="-159.5" font-family="Helvetica,sans-Serif" font-size="10.00">display</text>
</a>
</g>
</g>
<!-- dir_f2bf245f4d513cc01909af5be520382c&#45;&gt;dir_38b4e75cb995a89c7f6ee00fff0326d9 -->
<g id="edge5" class="edge">
<title>dir_f2bf245f4d513cc01909af5be520382c&#45;&gt;dir_38b4e75cb995a89c7f6ee00fff0326d9</title>
<path fill="none" stroke="black" d="M73.6,-215.7C80.12,-207.39 88.07,-197.28 95.25,-188.14"/>
<polygon fill="black" stroke="black" points="98.13,-190.13 101.56,-180.1 92.63,-185.81 98.13,-190.13"/>
<g id="a_edge5&#45;headlabel"><a xlink:href="dir_000014_000009.html" target="_top" xlink:title="2">
<text text-anchor="middle" x="98.15" y="-192.21" font-family="Helvetica,sans-Serif" font-size="10.00">2</text>
</a>
</g>
</g>
<!-- dir_b7878ad5ecbf2506f4125b9d34c97e45&#45;&gt;dir_3f615ade772d23cefe5e20dcb18424a2 -->
<g id="edge1" class="edge">
<title>dir_b7878ad5ecbf2506f4125b9d34c97e45&#45;&gt;dir_3f615ade772d23cefe5e20dcb18424a2</title>
<path fill="none" stroke="black" d="M63.08,-71.7C62.29,-63.98 62.06,-54.71 62.4,-46.11"/>
<polygon fill="black" stroke="black" points="65.9,-46.32 63.1,-36.1 58.92,-45.84 65.9,-46.32"/>
<g id="a_edge1&#45;headlabel"><a xlink:href="dir_000003_000006.html" target="_top" xlink:title="3">
<text text-anchor="middle" x="68.48" y="-47.61" font-family="Helvetica,sans-Serif" font-size="10.00">3</text>
</a>
</g>
</g>
<!-- dir_3f615ade772d23cefe5e20dcb18424a2&#45;&gt;dir_b7878ad5ecbf2506f4125b9d34c97e45 -->
<g id="edge2" class="edge">
<title>dir_3f615ade772d23cefe5e20dcb18424a2&#45;&gt;dir_b7878ad5ecbf2506f4125b9d34c97e45</title>
<path fill="none" stroke="black" d="M74.9,-36.1C75.7,-43.79 75.94,-53.05 75.6,-61.67"/>
<polygon fill="black" stroke="black" points="72.11,-61.48 74.92,-71.7 79.09,-61.96 72.11,-61.48"/>
<g id="a_edge2&#45;headlabel"><a xlink:href="dir_000006_000003.html" target="_top" xlink:title="62">
<text text-anchor="middle" x="69.52" y="-55.2" font-family="Helvetica,sans-Serif" font-size="10.00">62</text>
</a>
</g>
</g>
<!-- dir_38b4e75cb995a89c7f6ee00fff0326d9&#45;&gt;dir_b7878ad5ecbf2506f4125b9d34c97e45 -->
<g id="edge6" class="edge">
<title>dir_38b4e75cb995a89c7f6ee00fff0326d9&#45;&gt;dir_b7878ad5ecbf2506f4125b9d34c97e45</title>
<path fill="none" stroke="black" d="M103.63,-143.7C98.28,-135.56 91.8,-125.69 85.89,-116.7"/>
<polygon fill="black" stroke="black" points="88.66,-114.54 80.24,-108.1 82.81,-118.38 88.66,-114.54"/>
<g id="a_edge6&#45;headlabel"><a xlink:href="dir_000009_000003.html" target="_top" xlink:title="12">
<text text-anchor="middle" x="93" y="-113.48" font-family="Helvetica,sans-Serif" font-size="10.00">12</text>
</a>
</g>
</g>
<!-- dir_38b4e75cb995a89c7f6ee00fff0326d9&#45;&gt;dir_3f615ade772d23cefe5e20dcb18424a2 -->
<g id="edge7" class="edge">
<title>dir_38b4e75cb995a89c7f6ee00fff0326d9&#45;&gt;dir_3f615ade772d23cefe5e20dcb18424a2</title>
<path fill="none" stroke="black" d="M115.48,-143.71C115.44,-125.35 113.79,-95.77 105,-72 101.45,-62.4 95.8,-52.85 90.02,-44.56"/>
<polygon fill="black" stroke="black" points="92.77,-42.4 84.03,-36.42 87.14,-46.55 92.77,-42.4"/>
<g id="a_edge7&#45;headlabel"><a xlink:href="dir_000009_000006.html" target="_top" xlink:title="23">
<text text-anchor="middle" x="97.19" y="-41.11" font-family="Helvetica,sans-Serif" font-size="10.00">23</text>
</a>
</g>
</g>
</g>
</svg>
