<?xml version="1.0" encoding="UTF-8" standalone="no"?>
<!DOCTYPE svg PUBLIC "-//W3C//DTD SVG 1.1//EN"
 "http://www.w3.org/Graphics/SVG/1.1/DTD/svg11.dtd">
<!-- Generated by graphviz version 2.43.0 (0)
 -->
<!-- Title: keychooser Pages: 1 -->
<svg width="156pt" height="303pt"
 viewBox="0.00 0.00 156.00 303.00" xmlns="http://www.w3.org/2000/svg" xmlns:xlink="http://www.w3.org/1999/xlink">
<g id="graph0" class="graph" transform="scale(1 1) rotate(0) translate(4 299)">
<title>keychooser</title>
<polygon fill="white" stroke="transparent" points="-4,4 -4,-299 152,-299 152,4 -4,4"/>
<g id="clust1" class="cluster">
<title>clusterdir_8509b06bafa958d2011203a730bf5778</title>
<g id="a_clust1"><a xlink:href="dir_8509b06bafa958d2011203a730bf5778.html" target="_top" xlink:title="frontend">
<polygon fill="#ddddee" stroke="black" points="8,-128 8,-287 140,-287 140,-128 8,-128"/>
<text text-anchor="middle" x="74" y="-275" font-family="Helvetica,sans-Serif" font-size="10.00">frontend</text>
</a>
</g>
</g>
<g id="clust2" class="cluster">
<title>clusterdir_5e8fab8e4a29505e7cfff91a9e877bd0</title>
<g id="a_clust2"><a xlink:href="dir_5e8fab8e4a29505e7cfff91a9e877bd0.html" target="_top">
<polygon fill="#eeeeff" stroke="black" points="16,-136 16,-260 132,-260 132,-136 16,-136"/>
</a>
</g>
</g>
<!-- dir_5e8fab8e4a29505e7cfff91a9e877bd0 -->
<g id="node1" class="node">
<title>dir_5e8fab8e4a29505e7cfff91a9e877bd0</title>
<text text-anchor="middle" x="74" y="-231.5" font-family="Helvetica,sans-Serif" font-size="10.00">keychooser</text>
</g>
<!-- dir_784136cec3a91c517f4c9dffe7e4b568 -->
<g id="node2" class="node">
<title>dir_784136cec3a91c517f4c9dffe7e4b568</title>
<g id="a_node2"><a xlink:href="dir_784136cec3a91c517f4c9dffe7e4b568.html" target="_top" xlink:title="versekeychooser">
<polygon fill="white" stroke="black" points="123.5,-180 24.5,-180 24.5,-144 123.5,-144 123.5,-180"/>
<text text-anchor="middle" x="74" y="-159.5" font-family="Helvetica,sans-Serif" font-size="10.00">versekeychooser</text>
</a>
</g>
</g>
<!-- dir_5e8fab8e4a29505e7cfff91a9e877bd0&#45;&gt;dir_784136cec3a91c517f4c9dffe7e4b568 -->
<g id="edge3" class="edge">
<title>dir_5e8fab8e4a29505e7cfff91a9e877bd0&#45;&gt;dir_784136cec3a91c517f4c9dffe7e4b568</title>
<path fill="none" stroke="black" d="M74,-215.7C74,-207.98 74,-198.71 74,-190.11"/>
<polygon fill="black" stroke="black" points="77.5,-190.1 74,-180.1 70.5,-190.1 77.5,-190.1"/>
<g id="a_edge3&#45;headlabel"><a xlink:href="dir_000004_000005.html" target="_top" xlink:title="1">
<text text-anchor="middle" x="80.34" y="-191.2" font-family="Helvetica,sans-Serif" font-size="10.00">1</text>
</a>
</g>
</g>
<!-- dir_b7878ad5ecbf2506f4125b9d34c97e45 -->
<g id="node3" class="node">
<title>dir_b7878ad5ecbf2506f4125b9d34c97e45</title>
<g id="a_node3"><a xlink:href="dir_b7878ad5ecbf2506f4125b9d34c97e45.html" target="_top" xlink:title="util">
<polygon fill="none" stroke="black" points="66,-108 12,-108 12,-72 66,-72 66,-108"/>
<text text-anchor="middle" x="39" y="-87.5" font-family="Helvetica,sans-Serif" font-size="10.00">util</text>
</a>
</g>
</g>
<!-- dir_5e8fab8e4a29505e7cfff91a9e877bd0&#45;&gt;dir_b7878ad5ecbf2506f4125b9d34c97e45 -->
<g id="edge1" class="edge">
<title>dir_5e8fab8e4a29505e7cfff91a9e877bd0&#45;&gt;dir_b7878ad5ecbf2506f4125b9d34c97e45</title>
<path fill="none" stroke="black" d="M46.66,-215.77C34.89,-206.72 22.38,-194.48 16,-180 6.68,-158.85 9.66,-150.22 16,-128 17.06,-124.29 18.61,-120.59 20.41,-117.04"/>
<polygon fill="black" stroke="black" points="23.61,-118.51 25.61,-108.11 17.56,-114.99 23.61,-118.51"/>
<g id="a_edge1&#45;headlabel"><a xlink:href="dir_000004_000003.html" target="_top" xlink:title="18">
<text text-anchor="middle" x="24.25" y="-120.55" font-family="Helvetica,sans-Serif" font-size="10.00">18</text>
</a>
</g>
</g>
<!-- dir_3f615ade772d23cefe5e20dcb18424a2 -->
<g id="node4" class="node">
<title>dir_3f615ade772d23cefe5e20dcb18424a2</title>
<g id="a_node4"><a xlink:href="dir_3f615ade772d23cefe5e20dcb18424a2.html" target="_top" xlink:title="backend">
<polygon fill="white" stroke="red" points="94.5,-36 37.5,-36 37.5,0 94.5,0 94.5,-36"/>
<text text-anchor="middle" x="66" y="-15.5" font-family="Helvetica,sans-Serif" font-size="10.00">backend</text>
</a>
</g>
</g>
<!-- dir_5e8fab8e4a29505e7cfff91a9e877bd0&#45;&gt;dir_3f615ade772d23cefe5e20dcb18424a2 -->
<g id="edge2" class="edge">
<title>dir_5e8fab8e4a29505e7cfff91a9e877bd0&#45;&gt;dir_3f615ade772d23cefe5e20dcb18424a2</title>
<path fill="none" stroke="black" d="M101.8,-215.87C113.77,-206.84 126.5,-194.59 133,-180 142.41,-158.89 139.29,-150.24 133,-128 124.08,-96.44 103.16,-65.02 87.05,-44.09"/>
<polygon fill="black" stroke="black" points="89.65,-41.74 80.71,-36.06 84.16,-46.07 89.65,-41.74"/>
<g id="a_edge2&#45;headlabel"><a xlink:href="dir_000004_000006.html" target="_top" xlink:title="34">
<text text-anchor="middle" x="94.11" y="-40.3" font-family="Helvetica,sans-Serif" font-size="10.00">34</text>
</a>
</g>
</g>
<!-- dir_784136cec3a91c517f4c9dffe7e4b568&#45;&gt;dir_b7878ad5ecbf2506f4125b9d34c97e45 -->
<g id="edge6" class="edge">
<title>dir_784136cec3a91c517f4c9dffe7e4b568&#45;&gt;dir_b7878ad5ecbf2506f4125b9d34c97e45</title>
<path fill="none" stroke="black" d="M65.35,-143.7C61.36,-135.73 56.55,-126.1 52.13,-117.26"/>
<polygon fill="black" stroke="black" points="55.15,-115.48 47.55,-108.1 48.89,-118.61 55.15,-115.48"/>
<g id="a_edge6&#45;headlabel"><a xlink:href="dir_000005_000003.html" target="_top" xlink:title="7">
<text text-anchor="middle" x="59.3" y="-114.93" font-family="Helvetica,sans-Serif" font-size="10.00">7</text>
</a>
</g>
</g>
<!-- dir_784136cec3a91c517f4c9dffe7e4b568&#45;&gt;dir_3f615ade772d23cefe5e20dcb18424a2 -->
<g id="edge7" class="edge">
<title>dir_784136cec3a91c517f4c9dffe7e4b568&#45;&gt;dir_3f615ade772d23cefe5e20dcb18424a2</title>
<path fill="none" stroke="black" d="M75.16,-143.9C76.14,-125.96 77.1,-96.94 75,-72 74.28,-63.5 72.93,-54.31 71.49,-46.01"/>
<polygon fill="black" stroke="black" points="74.91,-45.29 69.65,-36.09 68.03,-46.56 74.91,-45.29"/>
<g id="a_edge7&#45;headlabel"><a xlink:href="dir_000005_000006.html" target="_top" xlink:title="6">
<text text-anchor="middle" x="78.36" y="-45.81" font-family="Helvetica,sans-Serif" font-size="10.00">6</text>
</a>
</g>
</g>
<!-- dir_b7878ad5ecbf2506f4125b9d34c97e45&#45;&gt;dir_3f615ade772d23cefe5e20dcb18424a2 -->
<g id="edge4" class="edge">
<title>dir_b7878ad5ecbf2506f4125b9d34c97e45&#45;&gt;dir_3f615ade772d23cefe5e20dcb18424a2</title>
<path fill="none" stroke="black" d="M39.76,-71.7C42.01,-63.73 45.51,-54.1 49.31,-45.26"/>
<polygon fill="black" stroke="black" points="52.52,-46.65 53.51,-36.1 46.16,-43.74 52.52,-46.65"/>
<g id="a_edge4&#45;headlabel"><a xlink:href="dir_000003_000006.html" target="_top" xlink:title="3">
<text text-anchor="middle" x="53.61" y="-48.6" font-family="Helvetica,sans-Serif" font-size="10.00">3</text>
</a>
</g>
</g>
<!-- dir_3f615ade772d23cefe5e20dcb18424a2&#45;&gt;dir_b7878ad5ecbf2506f4125b9d34c97e45 -->
<g id="edge5" class="edge">
<title>dir_3f615ade772d23cefe5e20dcb18424a2&#45;&gt;dir_b7878ad5ecbf2506f4125b9d34c97e45</title>
<path fill="none" stroke="black" d="M65.3,-36.1C63.07,-44.04 59.58,-53.67 55.79,-62.51"/>
<polygon fill="black" stroke="black" points="52.56,-61.15 51.59,-71.7 58.93,-64.06 52.56,-61.15"/>
<g id="a_edge5&#45;headlabel"><a xlink:href="dir_000006_000003.html" target="_top" xlink:title="62">
<text text-anchor="middle" x="51.47" y="-54.2" font-family="Helvetica,sans-Serif" font-size="10.00">62</text>
</a>
</g>
</g>
</g>
</svg>
