<?xml version="1.0" encoding="UTF-8" standalone="no"?>
<!DOCTYPE svg PUBLIC "-//W3C//DTD SVG 1.1//EN"
 "http://www.w3.org/Graphics/SVG/1.1/DTD/svg11.dtd">
<!-- Generated by graphviz version 2.43.0 (0)
 -->
<!-- Title: managers Pages: 1 -->
<svg width="338pt" height="383pt"
 viewBox="0.00 0.00 337.98 383.00" xmlns="http://www.w3.org/2000/svg" xmlns:xlink="http://www.w3.org/1999/xlink">
<g id="graph0" class="graph" transform="scale(1 1) rotate(0) translate(4 379)">
<title>managers</title>
<polygon fill="white" stroke="transparent" points="-4,4 -4,-379 333.98,-379 333.98,4 -4,4"/>
<g id="clust1" class="cluster">
<title>clusterdir_3f615ade772d23cefe5e20dcb18424a2</title>
<g id="a_clust1"><a xlink:href="dir_3f615ade772d23cefe5e20dcb18424a2.html" target="_top" xlink:title="backend">
<polygon fill="#ddddee" stroke="black" points="8,-8 8,-367 232,-367 232,-8 8,-8"/>
<text text-anchor="middle" x="120" y="-355" font-family="Helvetica,sans-Serif" font-size="10.00">backend</text>
</a>
</g>
</g>
<!-- dir_01d18f1cc77c9a191a0f93995e355f74 -->
<g id="node1" class="node">
<title>dir_01d18f1cc77c9a191a0f93995e355f74</title>
<g id="a_node1"><a xlink:href="dir_01d18f1cc77c9a191a0f93995e355f74.html" target="_top" xlink:title="keys">
<polygon fill="none" stroke="black" points="201,-340 147,-340 147,-304 201,-304 201,-340"/>
<text text-anchor="middle" x="174" y="-319.5" font-family="Helvetica,sans-Serif" font-size="10.00">keys</text>
</a>
</g>
</g>
<!-- dir_6ec4d305043bb2ac35319501d57f2d67 -->
<g id="node2" class="node">
<title>dir_6ec4d305043bb2ac35319501d57f2d67</title>
<g id="a_node2"><a xlink:href="dir_6ec4d305043bb2ac35319501d57f2d67.html" target="_top" xlink:title="drivers">
<polygon fill="none" stroke="black" points="178,-268 124,-268 124,-232 178,-232 178,-268"/>
<text text-anchor="middle" x="151" y="-247.5" font-family="Helvetica,sans-Serif" font-size="10.00">drivers</text>
</a>
</g>
</g>
<!-- dir_01d18f1cc77c9a191a0f93995e355f74&#45;&gt;dir_6ec4d305043bb2ac35319501d57f2d67 -->
<g id="edge11" class="edge">
<title>dir_01d18f1cc77c9a191a0f93995e355f74&#45;&gt;dir_6ec4d305043bb2ac35319501d57f2d67</title>
<path fill="none" stroke="black" d="M162.4,-303.7C159.03,-295.9 155.72,-286.51 153.23,-277.83"/>
<polygon fill="black" stroke="black" points="156.61,-276.91 150.72,-268.1 149.83,-278.66 156.61,-276.91"/>
<g id="a_edge11&#45;headlabel"><a xlink:href="dir_000023_000012.html" target="_top" xlink:title="5">
<text text-anchor="middle" x="160.26" y="-277.19" font-family="Helvetica,sans-Serif" font-size="10.00">5</text>
</a>
</g>
</g>
<!-- dir_b7878ad5ecbf2506f4125b9d34c97e45 -->
<g id="node7" class="node">
<title>dir_b7878ad5ecbf2506f4125b9d34c97e45</title>
<g id="a_node7"><a xlink:href="dir_b7878ad5ecbf2506f4125b9d34c97e45.html" target="_top" xlink:title="util">
<polygon fill="none" stroke="black" points="294,-52 240,-52 240,-16 294,-16 294,-52"/>
<text text-anchor="middle" x="267" y="-31.5" font-family="Helvetica,sans-Serif" font-size="10.00">util</text>
</a>
</g>
</g>
<!-- dir_01d18f1cc77c9a191a0f93995e355f74&#45;&gt;dir_b7878ad5ecbf2506f4125b9d34c97e45 -->
<g id="edge12" class="edge">
<title>dir_01d18f1cc77c9a191a0f93995e355f74&#45;&gt;dir_b7878ad5ecbf2506f4125b9d34c97e45</title>
<path fill="none" stroke="black" d="M201.25,-308.05C237.34,-289.18 299.43,-250.35 325,-196 331.31,-182.59 332.51,-109.27 323,-88 318.01,-76.85 309.47,-66.91 300.53,-58.74"/>
<polygon fill="black" stroke="black" points="302.54,-55.85 292.66,-52.03 298,-61.18 302.54,-55.85"/>
<g id="a_edge12&#45;headlabel"><a xlink:href="dir_000023_000003.html" target="_top" xlink:title="6">
<text text-anchor="middle" x="307.11" y="-53.52" font-family="Helvetica,sans-Serif" font-size="10.00">6</text>
</a>
</g>
</g>
<!-- dir_6ec4d305043bb2ac35319501d57f2d67&#45;&gt;dir_01d18f1cc77c9a191a0f93995e355f74 -->
<g id="edge20" class="edge">
<title>dir_6ec4d305043bb2ac35319501d57f2d67&#45;&gt;dir_01d18f1cc77c9a191a0f93995e355f74</title>
<path fill="none" stroke="black" d="M162.52,-268.1C165.88,-275.88 169.2,-285.26 171.7,-293.95"/>
<polygon fill="black" stroke="black" points="168.33,-294.89 174.23,-303.7 175.11,-293.14 168.33,-294.89"/>
<g id="a_edge20&#45;headlabel"><a xlink:href="dir_000012_000023.html" target="_top" xlink:title="5">
<text text-anchor="middle" x="164.68" y="-289.63" font-family="Helvetica,sans-Serif" font-size="10.00">5</text>
</a>
</g>
</g>
<!-- dir_8de3944d4b83abb802b44e4617c59fd6 -->
<g id="node4" class="node">
<title>dir_8de3944d4b83abb802b44e4617c59fd6</title>
<g id="a_node4"><a xlink:href="dir_8de3944d4b83abb802b44e4617c59fd6.html" target="_top" xlink:title="config">
<polygon fill="none" stroke="black" points="178,-52 124,-52 124,-16 178,-16 178,-52"/>
<text text-anchor="middle" x="151" y="-31.5" font-family="Helvetica,sans-Serif" font-size="10.00">config</text>
</a>
</g>
</g>
<!-- dir_6ec4d305043bb2ac35319501d57f2d67&#45;&gt;dir_8de3944d4b83abb802b44e4617c59fd6 -->
<g id="edge22" class="edge">
<title>dir_6ec4d305043bb2ac35319501d57f2d67&#45;&gt;dir_8de3944d4b83abb802b44e4617c59fd6</title>
<path fill="none" stroke="black" d="M123.65,-236.73C74.26,-210.4 -20.39,-146.15 18,-88 38.63,-56.75 81.87,-43.86 113.62,-38.59"/>
<polygon fill="black" stroke="black" points="114.52,-41.99 123.9,-37.08 113.5,-35.07 114.52,-41.99"/>
<g id="a_edge22&#45;headlabel"><a xlink:href="dir_000012_000010.html" target="_top" xlink:title="1">
<text text-anchor="middle" x="111.37" y="-42.83" font-family="Helvetica,sans-Serif" font-size="10.00">1</text>
</a>
</g>
</g>
<!-- dir_10540e180691539d14a045ae194980ae -->
<g id="node6" class="node">
<title>dir_10540e180691539d14a045ae194980ae</title>
<g id="a_node6"><a xlink:href="dir_10540e180691539d14a045ae194980ae.html" target="_top" xlink:title="managers">
<polygon fill="#eeeeff" stroke="black" points="183.5,-196 118.5,-196 118.5,-160 183.5,-160 183.5,-196"/>
<text text-anchor="middle" x="151" y="-175.5" font-family="Helvetica,sans-Serif" font-size="10.00">managers</text>
</a>
</g>
</g>
<!-- dir_6ec4d305043bb2ac35319501d57f2d67&#45;&gt;dir_10540e180691539d14a045ae194980ae -->
<g id="edge21" class="edge">
<title>dir_6ec4d305043bb2ac35319501d57f2d67&#45;&gt;dir_10540e180691539d14a045ae194980ae</title>
<path fill="none" stroke="black" d="M145.08,-231.7C144.29,-223.98 144.06,-214.71 144.4,-206.11"/>
<polygon fill="black" stroke="black" points="147.9,-206.32 145.1,-196.1 140.92,-205.84 147.9,-206.32"/>
<g id="a_edge21&#45;headlabel"><a xlink:href="dir_000012_000017.html" target="_top" xlink:title="2">
<text text-anchor="middle" x="150.48" y="-207.61" font-family="Helvetica,sans-Serif" font-size="10.00">2</text>
</a>
</g>
</g>
<!-- dir_6ec4d305043bb2ac35319501d57f2d67&#45;&gt;dir_b7878ad5ecbf2506f4125b9d34c97e45 -->
<g id="edge23" class="edge">
<title>dir_6ec4d305043bb2ac35319501d57f2d67&#45;&gt;dir_b7878ad5ecbf2506f4125b9d34c97e45</title>
<path fill="none" stroke="black" d="M171.98,-231.65C196.99,-209.57 237.68,-168.87 256,-124 264.03,-104.33 266.63,-80.35 267.3,-62.23"/>
<polygon fill="black" stroke="black" points="270.8,-62.13 267.5,-52.06 263.8,-61.99 270.8,-62.13"/>
<g id="a_edge23&#45;headlabel"><a xlink:href="dir_000012_000003.html" target="_top" xlink:title="8">
<text text-anchor="middle" x="273.57" y="-63.28" font-family="Helvetica,sans-Serif" font-size="10.00">8</text>
</a>
</g>
</g>
<!-- dir_7e922bb697d9df6892a9562f607351c1 -->
<g id="node3" class="node">
<title>dir_7e922bb697d9df6892a9562f607351c1</title>
<g id="a_node3"><a xlink:href="dir_7e922bb697d9df6892a9562f607351c1.html" target="_top" xlink:title="bookshelfmodel">
<polygon fill="none" stroke="black" points="131.5,-124 36.5,-124 36.5,-88 131.5,-88 131.5,-124"/>
<text text-anchor="middle" x="84" y="-103.5" font-family="Helvetica,sans-Serif" font-size="10.00">bookshelfmodel</text>
</a>
</g>
</g>
<!-- dir_7e922bb697d9df6892a9562f607351c1&#45;&gt;dir_6ec4d305043bb2ac35319501d57f2d67 -->
<g id="edge17" class="edge">
<title>dir_7e922bb697d9df6892a9562f607351c1&#45;&gt;dir_6ec4d305043bb2ac35319501d57f2d67</title>
<path fill="none" stroke="black" d="M86.73,-124.14C90.14,-142.62 97.03,-172.56 109,-196 113.96,-205.72 120.86,-215.38 127.64,-223.73"/>
<polygon fill="black" stroke="black" points="125.17,-226.22 134.3,-231.6 130.51,-221.7 125.17,-226.22"/>
<g id="a_edge17&#45;headlabel"><a xlink:href="dir_000007_000012.html" target="_top" xlink:title="13">
<text text-anchor="middle" x="120.68" y="-222.81" font-family="Helvetica,sans-Serif" font-size="10.00">13</text>
</a>
</g>
</g>
<!-- dir_7e922bb697d9df6892a9562f607351c1&#45;&gt;dir_8de3944d4b83abb802b44e4617c59fd6 -->
<g id="edge18" class="edge">
<title>dir_7e922bb697d9df6892a9562f607351c1&#45;&gt;dir_8de3944d4b83abb802b44e4617c59fd6</title>
<path fill="none" stroke="black" d="M100.56,-87.7C108.68,-79.22 118.59,-68.86 127.47,-59.58"/>
<polygon fill="black" stroke="black" points="130.24,-61.75 134.63,-52.1 125.19,-56.91 130.24,-61.75"/>
<g id="a_edge18&#45;headlabel"><a xlink:href="dir_000007_000010.html" target="_top" xlink:title="1">
<text text-anchor="middle" x="129.81" y="-63.81" font-family="Helvetica,sans-Serif" font-size="10.00">1</text>
</a>
</g>
</g>
<!-- dir_7e922bb697d9df6892a9562f607351c1&#45;&gt;dir_b7878ad5ecbf2506f4125b9d34c97e45 -->
<g id="edge19" class="edge">
<title>dir_7e922bb697d9df6892a9562f607351c1&#45;&gt;dir_b7878ad5ecbf2506f4125b9d34c97e45</title>
<path fill="none" stroke="black" d="M131.69,-90.62C159.55,-81.72 195.43,-69.39 230.4,-54.36"/>
<polygon fill="black" stroke="black" points="231.99,-57.49 239.74,-50.27 229.18,-51.08 231.99,-57.49"/>
<g id="a_edge19&#45;headlabel"><a xlink:href="dir_000007_000003.html" target="_top" xlink:title="10">
<text text-anchor="middle" x="229.83" y="-59.03" font-family="Helvetica,sans-Serif" font-size="10.00">10</text>
</a>
</g>
</g>
<!-- dir_8de3944d4b83abb802b44e4617c59fd6&#45;&gt;dir_6ec4d305043bb2ac35319501d57f2d67 -->
<g id="edge2" class="edge">
<title>dir_8de3944d4b83abb802b44e4617c59fd6&#45;&gt;dir_6ec4d305043bb2ac35319501d57f2d67</title>
<path fill="none" stroke="black" d="M123.86,-39.26C96.44,-44.93 55.8,-58.01 36,-88 1.95,-139.59 72.59,-195.98 117.68,-226.43"/>
<polygon fill="black" stroke="black" points="115.78,-229.37 126.05,-231.99 119.66,-223.54 115.78,-229.37"/>
<g id="a_edge2&#45;headlabel"><a xlink:href="dir_000010_000012.html" target="_top" xlink:title="1">
<text text-anchor="middle" x="111.22" y="-227.25" font-family="Helvetica,sans-Serif" font-size="10.00">1</text>
</a>
</g>
</g>
<!-- dir_8de3944d4b83abb802b44e4617c59fd6&#45;&gt;dir_10540e180691539d14a045ae194980ae -->
<g id="edge1" class="edge">
<title>dir_8de3944d4b83abb802b44e4617c59fd6&#45;&gt;dir_10540e180691539d14a045ae194980ae</title>
<path fill="none" stroke="black" d="M155.59,-52.19C158.15,-76.42 158.43,-120.89 156.45,-149.68"/>
<polygon fill="black" stroke="black" points="152.95,-149.61 155.58,-159.87 159.92,-150.21 152.95,-149.61"/>
<g id="a_edge1&#45;headlabel"><a xlink:href="dir_000010_000017.html" target="_top" xlink:title="1">
<text text-anchor="middle" x="150.42" y="-143.29" font-family="Helvetica,sans-Serif" font-size="10.00">1</text>
</a>
</g>
</g>
<!-- dir_8de3944d4b83abb802b44e4617c59fd6&#45;&gt;dir_b7878ad5ecbf2506f4125b9d34c97e45 -->
<g id="edge3" class="edge">
<title>dir_8de3944d4b83abb802b44e4617c59fd6&#45;&gt;dir_b7878ad5ecbf2506f4125b9d34c97e45</title>
<path fill="none" stroke="black" d="M178.19,-34C195.39,-34 212.6,-34 229.81,-34"/>
<polygon fill="black" stroke="black" points="229.94,-37.5 239.94,-34 229.94,-30.5 229.94,-37.5"/>
<g id="a_edge3&#45;headlabel"><a xlink:href="dir_000010_000003.html" target="_top" xlink:title="5">
<text text-anchor="middle" x="226.35" y="-37.84" font-family="Helvetica,sans-Serif" font-size="10.00">5</text>
</a>
</g>
</g>
<!-- dir_ce499b53d7ae20affef1cc1ed540badc -->
<g id="node5" class="node">
<title>dir_ce499b53d7ae20affef1cc1ed540badc</title>
<g id="a_node5"><a xlink:href="dir_ce499b53d7ae20affef1cc1ed540badc.html" target="_top" xlink:title="filters">
<polygon fill="none" stroke="black" points="224,-124 170,-124 170,-88 224,-88 224,-124"/>
<text text-anchor="middle" x="197" y="-103.5" font-family="Helvetica,sans-Serif" font-size="10.00">filters</text>
</a>
</g>
</g>
<!-- dir_ce499b53d7ae20affef1cc1ed540badc&#45;&gt;dir_6ec4d305043bb2ac35319501d57f2d67 -->
<g id="edge14" class="edge">
<title>dir_ce499b53d7ae20affef1cc1ed540badc&#45;&gt;dir_6ec4d305043bb2ac35319501d57f2d67</title>
<path fill="none" stroke="black" d="M198.97,-124.01C200.43,-142.38 200.88,-172.22 192,-196 188.28,-205.97 181.98,-215.59 175.42,-223.83"/>
<polygon fill="black" stroke="black" points="172.65,-221.67 168.86,-231.57 178,-226.2 172.65,-221.67"/>
<g id="a_edge14&#45;headlabel"><a xlink:href="dir_000024_000012.html" target="_top" xlink:title="4">
<text text-anchor="middle" x="172.81" y="-214.6" font-family="Helvetica,sans-Serif" font-size="10.00">4</text>
</a>
</g>
</g>
<!-- dir_ce499b53d7ae20affef1cc1ed540badc&#45;&gt;dir_8de3944d4b83abb802b44e4617c59fd6 -->
<g id="edge15" class="edge">
<title>dir_ce499b53d7ae20affef1cc1ed540badc&#45;&gt;dir_8de3944d4b83abb802b44e4617c59fd6</title>
<path fill="none" stroke="black" d="M185.63,-87.7C180.28,-79.56 173.8,-69.69 167.89,-60.7"/>
<polygon fill="black" stroke="black" points="170.66,-58.54 162.24,-52.1 164.81,-62.38 170.66,-58.54"/>
<g id="a_edge15&#45;headlabel"><a xlink:href="dir_000024_000010.html" target="_top" xlink:title="3">
<text text-anchor="middle" x="175" y="-57.48" font-family="Helvetica,sans-Serif" font-size="10.00">3</text>
</a>
</g>
</g>
<!-- dir_ce499b53d7ae20affef1cc1ed540badc&#45;&gt;dir_10540e180691539d14a045ae194980ae -->
<g id="edge13" class="edge">
<title>dir_ce499b53d7ae20affef1cc1ed540badc&#45;&gt;dir_10540e180691539d14a045ae194980ae</title>
<path fill="none" stroke="black" d="M191.66,-124.1C187.13,-132.3 180.78,-142.28 174.38,-151.36"/>
<polygon fill="black" stroke="black" points="171.36,-149.56 168.29,-159.7 177.01,-153.69 171.36,-149.56"/>
<g id="a_edge13&#45;headlabel"><a xlink:href="dir_000024_000017.html" target="_top" xlink:title="7">
<text text-anchor="middle" x="171.19" y="-142.48" font-family="Helvetica,sans-Serif" font-size="10.00">7</text>
</a>
</g>
</g>
<!-- dir_ce499b53d7ae20affef1cc1ed540badc&#45;&gt;dir_b7878ad5ecbf2506f4125b9d34c97e45 -->
<g id="edge16" class="edge">
<title>dir_ce499b53d7ae20affef1cc1ed540badc&#45;&gt;dir_b7878ad5ecbf2506f4125b9d34c97e45</title>
<path fill="none" stroke="black" d="M214.3,-87.7C222.86,-79.14 233.34,-68.66 242.7,-59.3"/>
<polygon fill="black" stroke="black" points="245.3,-61.65 249.9,-52.1 240.35,-56.7 245.3,-61.65"/>
<g id="a_edge16&#45;headlabel"><a xlink:href="dir_000024_000003.html" target="_top" xlink:title="2">
<text text-anchor="middle" x="244.77" y="-63.7" font-family="Helvetica,sans-Serif" font-size="10.00">2</text>
</a>
</g>
</g>
<!-- dir_10540e180691539d14a045ae194980ae&#45;&gt;dir_01d18f1cc77c9a191a0f93995e355f74 -->
<g id="edge5" class="edge">
<title>dir_10540e180691539d14a045ae194980ae&#45;&gt;dir_01d18f1cc77c9a191a0f93995e355f74</title>
<path fill="none" stroke="black" d="M166.61,-196.23C174.37,-205.97 182.95,-218.82 187,-232 193.28,-252.43 189.13,-276.46 183.9,-294.4"/>
<polygon fill="black" stroke="black" points="180.57,-293.34 180.86,-303.93 187.24,-295.47 180.57,-293.34"/>
<g id="a_edge5&#45;headlabel"><a xlink:href="dir_000017_000023.html" target="_top" xlink:title="1">
<text text-anchor="middle" x="178.96" y="-286.55" font-family="Helvetica,sans-Serif" font-size="10.00">1</text>
</a>
</g>
</g>
<!-- dir_10540e180691539d14a045ae194980ae&#45;&gt;dir_6ec4d305043bb2ac35319501d57f2d67 -->
<g id="edge6" class="edge">
<title>dir_10540e180691539d14a045ae194980ae&#45;&gt;dir_6ec4d305043bb2ac35319501d57f2d67</title>
<path fill="none" stroke="black" d="M156.9,-196.1C157.7,-203.79 157.94,-213.05 157.6,-221.67"/>
<polygon fill="black" stroke="black" points="154.11,-221.48 156.92,-231.7 161.09,-221.96 154.11,-221.48"/>
<g id="a_edge6&#45;headlabel"><a xlink:href="dir_000017_000012.html" target="_top" xlink:title="12">
<text text-anchor="middle" x="151.52" y="-215.2" font-family="Helvetica,sans-Serif" font-size="10.00">12</text>
</a>
</g>
</g>
<!-- dir_10540e180691539d14a045ae194980ae&#45;&gt;dir_7e922bb697d9df6892a9562f607351c1 -->
<g id="edge7" class="edge">
<title>dir_10540e180691539d14a045ae194980ae&#45;&gt;dir_7e922bb697d9df6892a9562f607351c1</title>
<path fill="none" stroke="black" d="M134.44,-159.7C126.32,-151.22 116.41,-140.86 107.53,-131.58"/>
<polygon fill="black" stroke="black" points="109.81,-128.91 100.37,-124.1 104.76,-133.75 109.81,-128.91"/>
<g id="a_edge7&#45;headlabel"><a xlink:href="dir_000017_000007.html" target="_top" xlink:title="1">
<text text-anchor="middle" x="114.35" y="-127.04" font-family="Helvetica,sans-Serif" font-size="10.00">1</text>
</a>
</g>
</g>
<!-- dir_10540e180691539d14a045ae194980ae&#45;&gt;dir_8de3944d4b83abb802b44e4617c59fd6 -->
<g id="edge8" class="edge">
<title>dir_10540e180691539d14a045ae194980ae&#45;&gt;dir_8de3944d4b83abb802b44e4617c59fd6</title>
<path fill="none" stroke="black" d="M146.42,-159.87C143.86,-135.67 143.57,-91.21 145.54,-62.39"/>
<polygon fill="black" stroke="black" points="149.05,-62.45 146.41,-52.19 142.07,-61.86 149.05,-62.45"/>
<g id="a_edge8&#45;headlabel"><a xlink:href="dir_000017_000010.html" target="_top" xlink:title="3">
<text text-anchor="middle" x="151.57" y="-63.77" font-family="Helvetica,sans-Serif" font-size="10.00">3</text>
</a>
</g>
</g>
<!-- dir_10540e180691539d14a045ae194980ae&#45;&gt;dir_ce499b53d7ae20affef1cc1ed540badc -->
<g id="edge10" class="edge">
<title>dir_10540e180691539d14a045ae194980ae&#45;&gt;dir_ce499b53d7ae20affef1cc1ed540badc</title>
<path fill="none" stroke="black" d="M156.46,-159.7C161.01,-151.47 167.37,-141.48 173.77,-132.42"/>
<polygon fill="black" stroke="black" points="176.78,-134.24 179.86,-124.1 171.13,-130.1 176.78,-134.24"/>
<g id="a_edge10&#45;headlabel"><a xlink:href="dir_000017_000024.html" target="_top" xlink:title="5">
<text text-anchor="middle" x="176.95" y="-136.32" font-family="Helvetica,sans-Serif" font-size="10.00">5</text>
</a>
</g>
</g>
<!-- dir_10540e180691539d14a045ae194980ae&#45;&gt;dir_b7878ad5ecbf2506f4125b9d34c97e45 -->
<g id="edge9" class="edge">
<title>dir_10540e180691539d14a045ae194980ae&#45;&gt;dir_b7878ad5ecbf2506f4125b9d34c97e45</title>
<path fill="none" stroke="black" d="M183.77,-162.07C200.43,-153.07 219.87,-140.2 233,-124 247.67,-105.89 256.49,-80.75 261.46,-61.81"/>
<polygon fill="black" stroke="black" points="264.88,-62.55 263.83,-52.01 258.08,-60.9 264.88,-62.55"/>
<g id="a_edge9&#45;headlabel"><a xlink:href="dir_000017_000003.html" target="_top" xlink:title="10">
<text text-anchor="middle" x="266.79" y="-64.21" font-family="Helvetica,sans-Serif" font-size="10.00">10</text>
</a>
</g>
</g>
<!-- dir_b7878ad5ecbf2506f4125b9d34c97e45&#45;&gt;dir_6ec4d305043bb2ac35319501d57f2d67 -->
<g id="edge4" class="edge">
<title>dir_b7878ad5ecbf2506f4125b9d34c97e45&#45;&gt;dir_6ec4d305043bb2ac35319501d57f2d67</title>
<path fill="none" stroke="black" d="M283.04,-52.15C291.01,-61.88 299.83,-74.73 304,-88 318.4,-133.79 331.84,-156.9 304,-196 277.88,-232.68 224.55,-244.21 188.28,-247.7"/>
<polygon fill="black" stroke="black" points="187.77,-244.23 178.08,-248.52 188.33,-251.21 187.77,-244.23"/>
<g id="a_edge4&#45;headlabel"><a xlink:href="dir_000003_000012.html" target="_top" xlink:title="4">
<text text-anchor="middle" x="191.13" y="-238.61" font-family="Helvetica,sans-Serif" font-size="10.00">4</text>
</a>
</g>
</g>
</g>
</svg>
