<?xml version="1.0" encoding="UTF-8" standalone="no"?>
<!DOCTYPE svg PUBLIC "-//W3C//DTD SVG 1.1//EN"
 "http://www.w3.org/Graphics/SVG/1.1/DTD/svg11.dtd">
<!-- Generated by graphviz version 2.43.0 (0)
 -->
<!-- Title: models Pages: 1 -->
<svg width="228pt" height="383pt"
 viewBox="0.00 0.00 228.00 383.00" xmlns="http://www.w3.org/2000/svg" xmlns:xlink="http://www.w3.org/1999/xlink">
<g id="graph0" class="graph" transform="scale(1 1) rotate(0) translate(4 379)">
<title>models</title>
<polygon fill="white" stroke="transparent" points="-4,4 -4,-379 224,-379 224,4 -4,4"/>
<g id="clust1" class="cluster">
<title>clusterdir_3f615ade772d23cefe5e20dcb18424a2</title>
<g id="a_clust1"><a xlink:href="dir_3f615ade772d23cefe5e20dcb18424a2.html" target="_top" xlink:title="backend">
<polygon fill="#ddddee" stroke="black" points="8,-8 8,-367 158,-367 158,-8 8,-8"/>
<text text-anchor="middle" x="83" y="-355" font-family="Helvetica,sans-Serif" font-size="10.00">backend</text>
</a>
</g>
</g>
<!-- dir_01d18f1cc77c9a191a0f93995e355f74 -->
<g id="node1" class="node">
<title>dir_01d18f1cc77c9a191a0f93995e355f74</title>
<g id="a_node1"><a xlink:href="dir_01d18f1cc77c9a191a0f93995e355f74.html" target="_top" xlink:title="keys">
<polygon fill="none" stroke="black" points="150,-196 96,-196 96,-160 150,-160 150,-196"/>
<text text-anchor="middle" x="123" y="-175.5" font-family="Helvetica,sans-Serif" font-size="10.00">keys</text>
</a>
</g>
</g>
<!-- dir_6ec4d305043bb2ac35319501d57f2d67 -->
<g id="node3" class="node">
<title>dir_6ec4d305043bb2ac35319501d57f2d67</title>
<g id="a_node3"><a xlink:href="dir_6ec4d305043bb2ac35319501d57f2d67.html" target="_top" xlink:title="drivers">
<polygon fill="none" stroke="black" points="120,-124 66,-124 66,-88 120,-88 120,-124"/>
<text text-anchor="middle" x="93" y="-103.5" font-family="Helvetica,sans-Serif" font-size="10.00">drivers</text>
</a>
</g>
</g>
<!-- dir_01d18f1cc77c9a191a0f93995e355f74&#45;&gt;dir_6ec4d305043bb2ac35319501d57f2d67 -->
<g id="edge5" class="edge">
<title>dir_01d18f1cc77c9a191a0f93995e355f74&#45;&gt;dir_6ec4d305043bb2ac35319501d57f2d67</title>
<path fill="none" stroke="black" d="M109.67,-159.7C105.48,-151.81 101.18,-142.3 97.81,-133.55"/>
<polygon fill="black" stroke="black" points="101.09,-132.35 94.44,-124.1 94.5,-134.7 101.09,-132.35"/>
<g id="a_edge5&#45;headlabel"><a xlink:href="dir_000023_000012.html" target="_top" xlink:title="5">
<text text-anchor="middle" x="104.98" y="-132.28" font-family="Helvetica,sans-Serif" font-size="10.00">5</text>
</a>
</g>
</g>
<!-- dir_b7878ad5ecbf2506f4125b9d34c97e45 -->
<g id="node6" class="node">
<title>dir_b7878ad5ecbf2506f4125b9d34c97e45</title>
<g id="a_node6"><a xlink:href="dir_b7878ad5ecbf2506f4125b9d34c97e45.html" target="_top" xlink:title="util">
<polygon fill="none" stroke="black" points="220,-52 166,-52 166,-16 220,-16 220,-52"/>
<text text-anchor="middle" x="193" y="-31.5" font-family="Helvetica,sans-Serif" font-size="10.00">util</text>
</a>
</g>
</g>
<!-- dir_01d18f1cc77c9a191a0f93995e355f74&#45;&gt;dir_b7878ad5ecbf2506f4125b9d34c97e45 -->
<g id="edge6" class="edge">
<title>dir_01d18f1cc77c9a191a0f93995e355f74&#45;&gt;dir_b7878ad5ecbf2506f4125b9d34c97e45</title>
<path fill="none" stroke="black" d="M131.44,-159.87C143.53,-135.35 165.87,-90.03 180.06,-61.26"/>
<polygon fill="black" stroke="black" points="183.24,-62.71 184.53,-52.19 176.97,-59.61 183.24,-62.71"/>
<g id="a_edge6&#45;headlabel"><a xlink:href="dir_000023_000003.html" target="_top" xlink:title="6">
<text text-anchor="middle" x="184.2" y="-64.69" font-family="Helvetica,sans-Serif" font-size="10.00">6</text>
</a>
</g>
</g>
<!-- dir_10540e180691539d14a045ae194980ae -->
<g id="node2" class="node">
<title>dir_10540e180691539d14a045ae194980ae</title>
<g id="a_node2"><a xlink:href="dir_10540e180691539d14a045ae194980ae.html" target="_top" xlink:title="managers">
<polygon fill="none" stroke="black" points="125.5,-52 60.5,-52 60.5,-16 125.5,-16 125.5,-52"/>
<text text-anchor="middle" x="93" y="-31.5" font-family="Helvetica,sans-Serif" font-size="10.00">managers</text>
</a>
</g>
</g>
<!-- dir_10540e180691539d14a045ae194980ae&#45;&gt;dir_01d18f1cc77c9a191a0f93995e355f74 -->
<g id="edge2" class="edge">
<title>dir_10540e180691539d14a045ae194980ae&#45;&gt;dir_01d18f1cc77c9a191a0f93995e355f74</title>
<path fill="none" stroke="black" d="M108.61,-52.23C116.37,-61.97 124.95,-74.82 129,-88 135.2,-108.17 133.1,-132.08 129.78,-150.04"/>
<polygon fill="black" stroke="black" points="126.35,-149.35 127.74,-159.85 133.2,-150.77 126.35,-149.35"/>
<g id="a_edge2&#45;headlabel"><a xlink:href="dir_000017_000023.html" target="_top" xlink:title="1">
<text text-anchor="middle" x="124.3" y="-142.75" font-family="Helvetica,sans-Serif" font-size="10.00">1</text>
</a>
</g>
</g>
<!-- dir_10540e180691539d14a045ae194980ae&#45;&gt;dir_6ec4d305043bb2ac35319501d57f2d67 -->
<g id="edge3" class="edge">
<title>dir_10540e180691539d14a045ae194980ae&#45;&gt;dir_6ec4d305043bb2ac35319501d57f2d67</title>
<path fill="none" stroke="black" d="M98.9,-52.1C99.7,-59.79 99.94,-69.05 99.6,-77.67"/>
<polygon fill="black" stroke="black" points="96.11,-77.48 98.92,-87.7 103.09,-77.96 96.11,-77.48"/>
<g id="a_edge3&#45;headlabel"><a xlink:href="dir_000017_000012.html" target="_top" xlink:title="12">
<text text-anchor="middle" x="93.52" y="-71.2" font-family="Helvetica,sans-Serif" font-size="10.00">12</text>
</a>
</g>
</g>
<!-- dir_10540e180691539d14a045ae194980ae&#45;&gt;dir_b7878ad5ecbf2506f4125b9d34c97e45 -->
<g id="edge4" class="edge">
<title>dir_10540e180691539d14a045ae194980ae&#45;&gt;dir_b7878ad5ecbf2506f4125b9d34c97e45</title>
<path fill="none" stroke="black" d="M125.81,-34C135.85,-34 145.89,-34 155.93,-34"/>
<polygon fill="black" stroke="black" points="155.97,-37.5 165.97,-34 155.97,-30.5 155.97,-37.5"/>
<g id="a_edge4&#45;headlabel"><a xlink:href="dir_000017_000003.html" target="_top" xlink:title="10">
<text text-anchor="middle" x="152.37" y="-37.84" font-family="Helvetica,sans-Serif" font-size="10.00">10</text>
</a>
</g>
</g>
<!-- dir_6ec4d305043bb2ac35319501d57f2d67&#45;&gt;dir_01d18f1cc77c9a191a0f93995e355f74 -->
<g id="edge16" class="edge">
<title>dir_6ec4d305043bb2ac35319501d57f2d67&#45;&gt;dir_01d18f1cc77c9a191a0f93995e355f74</title>
<path fill="none" stroke="black" d="M106.23,-124.1C110.42,-131.96 114.72,-141.46 118.11,-150.23"/>
<polygon fill="black" stroke="black" points="114.83,-151.46 121.5,-159.7 121.42,-149.1 114.83,-151.46"/>
<g id="a_edge16&#45;headlabel"><a xlink:href="dir_000012_000023.html" target="_top" xlink:title="5">
<text text-anchor="middle" x="110.95" y="-146.54" font-family="Helvetica,sans-Serif" font-size="10.00">5</text>
</a>
</g>
</g>
<!-- dir_6ec4d305043bb2ac35319501d57f2d67&#45;&gt;dir_10540e180691539d14a045ae194980ae -->
<g id="edge17" class="edge">
<title>dir_6ec4d305043bb2ac35319501d57f2d67&#45;&gt;dir_10540e180691539d14a045ae194980ae</title>
<path fill="none" stroke="black" d="M87.08,-87.7C86.29,-79.98 86.06,-70.71 86.4,-62.11"/>
<polygon fill="black" stroke="black" points="89.9,-62.32 87.1,-52.1 82.92,-61.84 89.9,-62.32"/>
<g id="a_edge17&#45;headlabel"><a xlink:href="dir_000012_000017.html" target="_top" xlink:title="2">
<text text-anchor="middle" x="92.48" y="-63.61" font-family="Helvetica,sans-Serif" font-size="10.00">2</text>
</a>
</g>
</g>
<!-- dir_6ec4d305043bb2ac35319501d57f2d67&#45;&gt;dir_b7878ad5ecbf2506f4125b9d34c97e45 -->
<g id="edge18" class="edge">
<title>dir_6ec4d305043bb2ac35319501d57f2d67&#45;&gt;dir_b7878ad5ecbf2506f4125b9d34c97e45</title>
<path fill="none" stroke="black" d="M111.8,-87.7C124.63,-78.02 141.86,-65.89 157.2,-55.71"/>
<polygon fill="black" stroke="black" points="159.51,-58.37 165.96,-49.97 155.68,-52.52 159.51,-58.37"/>
<g id="a_edge18&#45;headlabel"><a xlink:href="dir_000012_000003.html" target="_top" xlink:title="8">
<text text-anchor="middle" x="158.06" y="-60.22" font-family="Helvetica,sans-Serif" font-size="10.00">8</text>
</a>
</g>
</g>
<!-- dir_e40e2a39b3819c509dbc43bbd7688b8f -->
<g id="node4" class="node">
<title>dir_e40e2a39b3819c509dbc43bbd7688b8f</title>
<g id="a_node4"><a xlink:href="dir_e40e2a39b3819c509dbc43bbd7688b8f.html" target="_top" xlink:title="rendering">
<polygon fill="none" stroke="black" points="119.5,-268 56.5,-268 56.5,-232 119.5,-232 119.5,-268"/>
<text text-anchor="middle" x="88" y="-247.5" font-family="Helvetica,sans-Serif" font-size="10.00">rendering</text>
</a>
</g>
</g>
<!-- dir_e40e2a39b3819c509dbc43bbd7688b8f&#45;&gt;dir_01d18f1cc77c9a191a0f93995e355f74 -->
<g id="edge12" class="edge">
<title>dir_e40e2a39b3819c509dbc43bbd7688b8f&#45;&gt;dir_01d18f1cc77c9a191a0f93995e355f74</title>
<path fill="none" stroke="black" d="M96.65,-231.7C100.64,-223.73 105.45,-214.1 109.87,-205.26"/>
<polygon fill="black" stroke="black" points="113.11,-206.61 114.45,-196.1 106.85,-203.48 113.11,-206.61"/>
<g id="a_edge12&#45;headlabel"><a xlink:href="dir_000016_000023.html" target="_top" xlink:title="7">
<text text-anchor="middle" x="114.04" y="-208.6" font-family="Helvetica,sans-Serif" font-size="10.00">7</text>
</a>
</g>
</g>
<!-- dir_e40e2a39b3819c509dbc43bbd7688b8f&#45;&gt;dir_10540e180691539d14a045ae194980ae -->
<g id="edge13" class="edge">
<title>dir_e40e2a39b3819c509dbc43bbd7688b8f&#45;&gt;dir_10540e180691539d14a045ae194980ae</title>
<path fill="none" stroke="black" d="M79.27,-231.78C65.36,-202 41.27,-139.15 57,-88 60.01,-78.22 65.51,-68.62 71.32,-60.33"/>
<polygon fill="black" stroke="black" points="74.19,-62.33 77.39,-52.23 68.59,-58.13 74.19,-62.33"/>
<g id="a_edge13&#45;headlabel"><a xlink:href="dir_000016_000017.html" target="_top" xlink:title="7">
<text text-anchor="middle" x="74.31" y="-64.41" font-family="Helvetica,sans-Serif" font-size="10.00">7</text>
</a>
</g>
</g>
<!-- dir_e40e2a39b3819c509dbc43bbd7688b8f&#45;&gt;dir_6ec4d305043bb2ac35319501d57f2d67 -->
<g id="edge14" class="edge">
<title>dir_e40e2a39b3819c509dbc43bbd7688b8f&#45;&gt;dir_6ec4d305043bb2ac35319501d57f2d67</title>
<path fill="none" stroke="black" d="M87.12,-231.92C86.36,-213.99 85.59,-184.99 87,-160 87.48,-151.55 88.38,-142.38 89.34,-134.07"/>
<polygon fill="black" stroke="black" points="92.81,-134.5 90.56,-124.14 85.87,-133.64 92.81,-134.5"/>
<g id="a_edge14&#45;headlabel"><a xlink:href="dir_000016_000012.html" target="_top" xlink:title="10">
<text text-anchor="middle" x="95.19" y="-135.91" font-family="Helvetica,sans-Serif" font-size="10.00">10</text>
</a>
</g>
</g>
<!-- dir_e40e2a39b3819c509dbc43bbd7688b8f&#45;&gt;dir_b7878ad5ecbf2506f4125b9d34c97e45 -->
<g id="edge15" class="edge">
<title>dir_e40e2a39b3819c509dbc43bbd7688b8f&#45;&gt;dir_b7878ad5ecbf2506f4125b9d34c97e45</title>
<path fill="none" stroke="black" d="M119.85,-232.27C133.91,-223.32 149.39,-211.03 159,-196 185.38,-154.73 191.68,-96.53 192.96,-62.58"/>
<polygon fill="black" stroke="black" points="196.46,-62.55 193.22,-52.47 189.46,-62.37 196.46,-62.55"/>
<g id="a_edge15&#45;headlabel"><a xlink:href="dir_000016_000003.html" target="_top" xlink:title="4">
<text text-anchor="middle" x="199.21" y="-63.72" font-family="Helvetica,sans-Serif" font-size="10.00">4</text>
</a>
</g>
</g>
<!-- dir_1d640b11cf356379d2440058ca8db2bb -->
<g id="node5" class="node">
<title>dir_1d640b11cf356379d2440058ca8db2bb</title>
<g id="a_node5"><a xlink:href="dir_1d640b11cf356379d2440058ca8db2bb.html" target="_top" xlink:title="models">
<polygon fill="#eeeeff" stroke="black" points="115,-340 61,-340 61,-304 115,-304 115,-340"/>
<text text-anchor="middle" x="88" y="-319.5" font-family="Helvetica,sans-Serif" font-size="10.00">models</text>
</a>
</g>
</g>
<!-- dir_1d640b11cf356379d2440058ca8db2bb&#45;&gt;dir_01d18f1cc77c9a191a0f93995e355f74 -->
<g id="edge7" class="edge">
<title>dir_1d640b11cf356379d2440058ca8db2bb&#45;&gt;dir_01d18f1cc77c9a191a0f93995e355f74</title>
<path fill="none" stroke="black" d="M105.73,-303.6C114.24,-294 123.53,-281.34 128,-268 134.7,-248.01 132.85,-224.08 129.65,-206.08"/>
<polygon fill="black" stroke="black" points="133.08,-205.35 127.67,-196.23 126.22,-206.73 133.08,-205.35"/>
<g id="a_edge7&#45;headlabel"><a xlink:href="dir_000018_000023.html" target="_top" xlink:title="4">
<text text-anchor="middle" x="136.57" y="-205.81" font-family="Helvetica,sans-Serif" font-size="10.00">4</text>
</a>
</g>
</g>
<!-- dir_1d640b11cf356379d2440058ca8db2bb&#45;&gt;dir_10540e180691539d14a045ae194980ae -->
<g id="edge8" class="edge">
<title>dir_1d640b11cf356379d2440058ca8db2bb&#45;&gt;dir_10540e180691539d14a045ae194980ae</title>
<path fill="none" stroke="black" d="M65.4,-303.96C54.94,-294.63 43.6,-282.11 38,-268 24.1,-233.01 6.7,-189.43 48,-88 52.21,-77.66 59.25,-67.88 66.52,-59.6"/>
<polygon fill="black" stroke="black" points="69.21,-61.85 73.48,-52.15 64.1,-57.07 69.21,-61.85"/>
<g id="a_edge8&#45;headlabel"><a xlink:href="dir_000018_000017.html" target="_top" xlink:title="2">
<text text-anchor="middle" x="68.83" y="-63.91" font-family="Helvetica,sans-Serif" font-size="10.00">2</text>
</a>
</g>
</g>
<!-- dir_1d640b11cf356379d2440058ca8db2bb&#45;&gt;dir_6ec4d305043bb2ac35319501d57f2d67 -->
<g id="edge9" class="edge">
<title>dir_1d640b11cf356379d2440058ca8db2bb&#45;&gt;dir_6ec4d305043bb2ac35319501d57f2d67</title>
<path fill="none" stroke="black" d="M69.83,-303.68C61.12,-294.1 51.59,-281.43 47,-268 30.92,-220.93 56.89,-164.86 75.88,-132.84"/>
<polygon fill="black" stroke="black" points="79,-134.45 81.25,-124.1 73.03,-130.79 79,-134.45"/>
<g id="a_edge9&#45;headlabel"><a xlink:href="dir_000018_000012.html" target="_top" xlink:title="5">
<text text-anchor="middle" x="79.53" y="-136.5" font-family="Helvetica,sans-Serif" font-size="10.00">5</text>
</a>
</g>
</g>
<!-- dir_1d640b11cf356379d2440058ca8db2bb&#45;&gt;dir_e40e2a39b3819c509dbc43bbd7688b8f -->
<g id="edge11" class="edge">
<title>dir_1d640b11cf356379d2440058ca8db2bb&#45;&gt;dir_e40e2a39b3819c509dbc43bbd7688b8f</title>
<path fill="none" stroke="black" d="M88,-303.7C88,-295.98 88,-286.71 88,-278.11"/>
<polygon fill="black" stroke="black" points="91.5,-278.1 88,-268.1 84.5,-278.1 91.5,-278.1"/>
<g id="a_edge11&#45;headlabel"><a xlink:href="dir_000018_000016.html" target="_top" xlink:title="2">
<text text-anchor="middle" x="94.34" y="-279.2" font-family="Helvetica,sans-Serif" font-size="10.00">2</text>
</a>
</g>
</g>
<!-- dir_1d640b11cf356379d2440058ca8db2bb&#45;&gt;dir_b7878ad5ecbf2506f4125b9d34c97e45 -->
<g id="edge10" class="edge">
<title>dir_1d640b11cf356379d2440058ca8db2bb&#45;&gt;dir_b7878ad5ecbf2506f4125b9d34c97e45</title>
<path fill="none" stroke="black" d="M104.77,-303.97C114.36,-293.88 126.36,-280.63 136,-268 178.84,-211.9 193.02,-193.88 203,-124 205.95,-103.35 203.06,-79.9 199.64,-62.26"/>
<polygon fill="black" stroke="black" points="202.99,-61.16 197.5,-52.1 196.14,-62.61 202.99,-61.16"/>
<g id="a_edge10&#45;headlabel"><a xlink:href="dir_000018_000003.html" target="_top" xlink:title="1">
<text text-anchor="middle" x="206.51" y="-61.59" font-family="Helvetica,sans-Serif" font-size="10.00">1</text>
</a>
</g>
</g>
<!-- dir_b7878ad5ecbf2506f4125b9d34c97e45&#45;&gt;dir_6ec4d305043bb2ac35319501d57f2d67 -->
<g id="edge1" class="edge">
<title>dir_b7878ad5ecbf2506f4125b9d34c97e45&#45;&gt;dir_6ec4d305043bb2ac35319501d57f2d67</title>
<path fill="none" stroke="black" d="M174.32,-52.21C161.5,-61.89 144.26,-74.03 128.89,-84.23"/>
<polygon fill="black" stroke="black" points="126.56,-81.58 120.11,-89.98 130.39,-87.43 126.56,-81.58"/>
<g id="a_edge1&#45;headlabel"><a xlink:href="dir_000003_000012.html" target="_top" xlink:title="4">
<text text-anchor="middle" x="128.01" y="-74.73" font-family="Helvetica,sans-Serif" font-size="10.00">4</text>
</a>
</g>
</g>
</g>
</svg>
