<?xml version="1.0" encoding="UTF-8" standalone="no"?>
<!DOCTYPE svg PUBLIC "-//W3C//DTD SVG 1.1//EN"
 "http://www.w3.org/Graphics/SVG/1.1/DTD/svg11.dtd">
<!-- Generated by graphviz version 2.43.0 (0)
 -->
<!-- Title: models Pages: 1 -->
<svg width="272pt" height="439pt"
 viewBox="0.00 0.00 271.53 439.00" xmlns="http://www.w3.org/2000/svg" xmlns:xlink="http://www.w3.org/1999/xlink">
<g id="graph0" class="graph" transform="scale(1 1) rotate(0) translate(4 435)">
<title>models</title>
<polygon fill="white" stroke="transparent" points="-4,4 -4,-435 267.53,-435 267.53,4 -4,4"/>
<g id="clust1" class="cluster">
<title>clusterdir_3f615ade772d23cefe5e20dcb18424a2</title>
<g id="a_clust1"><a xlink:href="dir_3f615ade772d23cefe5e20dcb18424a2.html" target="_top" xlink:title="backend">
<polygon fill="#ddddee" stroke="black" points="82,-352 82,-423 152,-423 152,-352 82,-352"/>
<text text-anchor="middle" x="117" y="-411" font-family="Helvetica,sans-Serif" font-size="10.00">backend</text>
</a>
</g>
</g>
<!-- dir_1d640b11cf356379d2440058ca8db2bb -->
<g id="node1" class="node">
<title>dir_1d640b11cf356379d2440058ca8db2bb</title>
<g id="a_node1"><a xlink:href="dir_1d640b11cf356379d2440058ca8db2bb.html" target="_top" xlink:title="models">
<polygon fill="#eeeeff" stroke="black" points="144,-396 90,-396 90,-360 144,-360 144,-396"/>
<text text-anchor="middle" x="117" y="-375.5" font-family="Helvetica,sans-Serif" font-size="10.00">models</text>
</a>
</g>
</g>
<!-- dir_b7878ad5ecbf2506f4125b9d34c97e45 -->
<g id="node2" class="node">
<title>dir_b7878ad5ecbf2506f4125b9d34c97e45</title>
<g id="a_node2"><a xlink:href="dir_b7878ad5ecbf2506f4125b9d34c97e45.html" target="_top" xlink:title="util">
<polygon fill="none" stroke="black" points="205,-324 151,-324 151,-288 205,-288 205,-324"/>
<text text-anchor="middle" x="178" y="-303.5" font-family="Helvetica,sans-Serif" font-size="10.00">util</text>
</a>
</g>
</g>
<!-- dir_1d640b11cf356379d2440058ca8db2bb&#45;&gt;dir_b7878ad5ecbf2506f4125b9d34c97e45 -->
<g id="edge9" class="edge">
<title>dir_1d640b11cf356379d2440058ca8db2bb&#45;&gt;dir_b7878ad5ecbf2506f4125b9d34c97e45</title>
<path fill="none" stroke="black" d="M132.08,-359.7C139.39,-351.3 148.31,-341.07 156.34,-331.86"/>
<polygon fill="black" stroke="black" points="159.16,-333.94 163.09,-324.1 153.89,-329.34 159.16,-333.94"/>
<g id="a_edge9&#45;headlabel"><a xlink:href="dir_000017_000003.html" target="_top" xlink:title="1">
<text text-anchor="middle" x="158.94" y="-336.02" font-family="Helvetica,sans-Serif" font-size="10.00">1</text>
</a>
</g>
</g>
<!-- dir_10540e180691539d14a045ae194980ae -->
<g id="node3" class="node">
<title>dir_10540e180691539d14a045ae194980ae</title>
<g id="a_node3"><a xlink:href="dir_10540e180691539d14a045ae194980ae.html" target="_top" xlink:title="managers">
<polygon fill="none" stroke="black" points="149.5,-252 84.5,-252 84.5,-216 149.5,-216 149.5,-252"/>
<text text-anchor="middle" x="117" y="-231.5" font-family="Helvetica,sans-Serif" font-size="10.00">managers</text>
</a>
</g>
</g>
<!-- dir_1d640b11cf356379d2440058ca8db2bb&#45;&gt;dir_10540e180691539d14a045ae194980ae -->
<g id="edge10" class="edge">
<title>dir_1d640b11cf356379d2440058ca8db2bb&#45;&gt;dir_10540e180691539d14a045ae194980ae</title>
<path fill="none" stroke="black" d="M117,-359.87C117,-335.67 117,-291.21 117,-262.39"/>
<polygon fill="black" stroke="black" points="120.5,-262.19 117,-252.19 113.5,-262.19 120.5,-262.19"/>
<g id="a_edge10&#45;headlabel"><a xlink:href="dir_000017_000018.html" target="_top" xlink:title="2">
<text text-anchor="middle" x="123.34" y="-263.28" font-family="Helvetica,sans-Serif" font-size="10.00">2</text>
</a>
</g>
</g>
<!-- dir_01d18f1cc77c9a191a0f93995e355f74 -->
<g id="node4" class="node">
<title>dir_01d18f1cc77c9a191a0f93995e355f74</title>
<g id="a_node4"><a xlink:href="dir_01d18f1cc77c9a191a0f93995e355f74.html" target="_top" xlink:title="keys">
<polygon fill="none" stroke="black" points="217,-36 163,-36 163,0 217,0 217,-36"/>
<text text-anchor="middle" x="190" y="-15.5" font-family="Helvetica,sans-Serif" font-size="10.00">keys</text>
</a>
</g>
</g>
<!-- dir_1d640b11cf356379d2440058ca8db2bb&#45;&gt;dir_01d18f1cc77c9a191a0f93995e355f74 -->
<g id="edge11" class="edge">
<title>dir_1d640b11cf356379d2440058ca8db2bb&#45;&gt;dir_01d18f1cc77c9a191a0f93995e355f74</title>
<path fill="none" stroke="black" d="M89.86,-360.54C55.3,-337.25 0,-291.22 0,-235 0,-235 0,-235 0,-161 0,-85.4 97.7,-45.21 152.98,-28.51"/>
<polygon fill="black" stroke="black" points="154.15,-31.82 162.78,-25.67 152.2,-25.1 154.15,-31.82"/>
<g id="a_edge11&#45;headlabel"><a xlink:href="dir_000017_000023.html" target="_top" xlink:title="6">
<text text-anchor="middle" x="151.49" y="-33.05" font-family="Helvetica,sans-Serif" font-size="10.00">6</text>
</a>
</g>
</g>
<!-- dir_e40e2a39b3819c509dbc43bbd7688b8f -->
<g id="node5" class="node">
<title>dir_e40e2a39b3819c509dbc43bbd7688b8f</title>
<g id="a_node5"><a xlink:href="dir_e40e2a39b3819c509dbc43bbd7688b8f.html" target="_top" xlink:title="rendering">
<polygon fill="none" stroke="black" points="187.5,-108 124.5,-108 124.5,-72 187.5,-72 187.5,-108"/>
<text text-anchor="middle" x="156" y="-87.5" font-family="Helvetica,sans-Serif" font-size="10.00">rendering</text>
</a>
</g>
</g>
<!-- dir_1d640b11cf356379d2440058ca8db2bb&#45;&gt;dir_e40e2a39b3819c509dbc43bbd7688b8f -->
<g id="edge12" class="edge">
<title>dir_1d640b11cf356379d2440058ca8db2bb&#45;&gt;dir_e40e2a39b3819c509dbc43bbd7688b8f</title>
<path fill="none" stroke="black" d="M106.42,-359.98C89.47,-330.5 59.6,-268.08 75,-216 86.35,-177.62 113.57,-139.97 133.34,-116.18"/>
<polygon fill="black" stroke="black" points="136.17,-118.26 139.98,-108.37 130.83,-113.72 136.17,-118.26"/>
<g id="a_edge12&#45;headlabel"><a xlink:href="dir_000017_000016.html" target="_top" xlink:title="1">
<text text-anchor="middle" x="136" y="-120.33" font-family="Helvetica,sans-Serif" font-size="10.00">1</text>
</a>
</g>
</g>
<!-- dir_6ec4d305043bb2ac35319501d57f2d67 -->
<g id="node6" class="node">
<title>dir_6ec4d305043bb2ac35319501d57f2d67</title>
<g id="a_node6"><a xlink:href="dir_6ec4d305043bb2ac35319501d57f2d67.html" target="_top" xlink:title="drivers">
<polygon fill="none" stroke="black" points="252,-180 198,-180 198,-144 252,-144 252,-180"/>
<text text-anchor="middle" x="225" y="-159.5" font-family="Helvetica,sans-Serif" font-size="10.00">drivers</text>
</a>
</g>
</g>
<!-- dir_1d640b11cf356379d2440058ca8db2bb&#45;&gt;dir_6ec4d305043bb2ac35319501d57f2d67 -->
<g id="edge13" class="edge">
<title>dir_1d640b11cf356379d2440058ca8db2bb&#45;&gt;dir_6ec4d305043bb2ac35319501d57f2d67</title>
<path fill="none" stroke="black" d="M144.26,-369.6C166.74,-362 197.53,-347.84 214,-324 241.51,-284.16 236.89,-224.75 230.99,-190.34"/>
<polygon fill="black" stroke="black" points="234.35,-189.28 229.06,-180.1 227.47,-190.58 234.35,-189.28"/>
<g id="a_edge13&#45;headlabel"><a xlink:href="dir_000017_000012.html" target="_top" xlink:title="5">
<text text-anchor="middle" x="237.8" y="-189.79" font-family="Helvetica,sans-Serif" font-size="10.00">5</text>
</a>
</g>
</g>
<!-- dir_b7878ad5ecbf2506f4125b9d34c97e45&#45;&gt;dir_10540e180691539d14a045ae194980ae -->
<g id="edge1" class="edge">
<title>dir_b7878ad5ecbf2506f4125b9d34c97e45&#45;&gt;dir_10540e180691539d14a045ae194980ae</title>
<path fill="none" stroke="black" d="M157.01,-287.7C148.91,-279.39 139.9,-269.28 132.4,-260.14"/>
<polygon fill="black" stroke="black" points="134.97,-257.75 126.01,-252.1 129.5,-262.11 134.97,-257.75"/>
<g id="a_edge1&#45;headlabel"><a xlink:href="dir_000003_000018.html" target="_top" xlink:title="1">
<text text-anchor="middle" x="139.43" y="-256.3" font-family="Helvetica,sans-Serif" font-size="10.00">1</text>
</a>
</g>
</g>
<!-- dir_b7878ad5ecbf2506f4125b9d34c97e45&#45;&gt;dir_6ec4d305043bb2ac35319501d57f2d67 -->
<g id="edge2" class="edge">
<title>dir_b7878ad5ecbf2506f4125b9d34c97e45&#45;&gt;dir_6ec4d305043bb2ac35319501d57f2d67</title>
<path fill="none" stroke="black" d="M179.08,-287.87C184.58,-263.46 199.22,-218.43 210.78,-189.64"/>
<polygon fill="black" stroke="black" points="214.1,-190.77 214.72,-180.19 207.64,-188.07 214.1,-190.77"/>
<g id="a_edge2&#45;headlabel"><a xlink:href="dir_000003_000012.html" target="_top" xlink:title="2">
<text text-anchor="middle" x="215.33" y="-192.68" font-family="Helvetica,sans-Serif" font-size="10.00">2</text>
</a>
</g>
</g>
<!-- dir_10540e180691539d14a045ae194980ae&#45;&gt;dir_b7878ad5ecbf2506f4125b9d34c97e45 -->
<g id="edge3" class="edge">
<title>dir_10540e180691539d14a045ae194980ae&#45;&gt;dir_b7878ad5ecbf2506f4125b9d34c97e45</title>
<path fill="none" stroke="black" d="M137.8,-252.1C145.88,-260.38 154.9,-270.49 162.42,-279.64"/>
<polygon fill="black" stroke="black" points="159.87,-282.06 168.84,-287.7 165.34,-277.69 159.87,-282.06"/>
<g id="a_edge3&#45;headlabel"><a xlink:href="dir_000018_000003.html" target="_top" xlink:title="12">
<text text-anchor="middle" x="155.41" y="-278.51" font-family="Helvetica,sans-Serif" font-size="10.00">12</text>
</a>
</g>
</g>
<!-- dir_10540e180691539d14a045ae194980ae&#45;&gt;dir_01d18f1cc77c9a191a0f93995e355f74 -->
<g id="edge4" class="edge">
<title>dir_10540e180691539d14a045ae194980ae&#45;&gt;dir_01d18f1cc77c9a191a0f93995e355f74</title>
<path fill="none" stroke="black" d="M111.8,-215.82C103.51,-185 90.58,-119.16 115,-72 123.32,-55.94 138.99,-43.7 153.87,-35.06"/>
<polygon fill="black" stroke="black" points="155.83,-37.98 162.96,-30.14 152.5,-31.82 155.83,-37.98"/>
<g id="a_edge4&#45;headlabel"><a xlink:href="dir_000018_000023.html" target="_top" xlink:title="1">
<text text-anchor="middle" x="154.02" y="-39.68" font-family="Helvetica,sans-Serif" font-size="10.00">1</text>
</a>
</g>
</g>
<!-- dir_10540e180691539d14a045ae194980ae&#45;&gt;dir_e40e2a39b3819c509dbc43bbd7688b8f -->
<g id="edge5" class="edge">
<title>dir_10540e180691539d14a045ae194980ae&#45;&gt;dir_e40e2a39b3819c509dbc43bbd7688b8f</title>
<path fill="none" stroke="black" d="M117.12,-215.87C121.24,-191.46 133.34,-146.43 143.28,-117.64"/>
<polygon fill="black" stroke="black" points="146.58,-118.78 146.69,-108.19 140,-116.41 146.58,-118.78"/>
<g id="a_edge5&#45;headlabel"><a xlink:href="dir_000018_000016.html" target="_top" xlink:title="3">
<text text-anchor="middle" x="148.04" y="-120.63" font-family="Helvetica,sans-Serif" font-size="10.00">3</text>
</a>
</g>
</g>
<!-- dir_10540e180691539d14a045ae194980ae&#45;&gt;dir_6ec4d305043bb2ac35319501d57f2d67 -->
<g id="edge6" class="edge">
<title>dir_10540e180691539d14a045ae194980ae&#45;&gt;dir_6ec4d305043bb2ac35319501d57f2d67</title>
<path fill="none" stroke="black" d="M137.52,-215.88C152.1,-205.74 171.88,-192.88 189,-182.37"/>
<polygon fill="black" stroke="black" points="190.93,-185.3 197.67,-177.12 187.3,-179.31 190.93,-185.3"/>
<g id="a_edge6&#45;headlabel"><a xlink:href="dir_000018_000012.html" target="_top" xlink:title="12">
<text text-anchor="middle" x="189.32" y="-187.09" font-family="Helvetica,sans-Serif" font-size="10.00">12</text>
</a>
</g>
</g>
<!-- dir_01d18f1cc77c9a191a0f93995e355f74&#45;&gt;dir_b7878ad5ecbf2506f4125b9d34c97e45 -->
<g id="edge7" class="edge">
<title>dir_01d18f1cc77c9a191a0f93995e355f74&#45;&gt;dir_b7878ad5ecbf2506f4125b9d34c97e45</title>
<path fill="none" stroke="black" d="M206.02,-36.14C230.83,-64.81 274.36,-124.77 261,-180 251.48,-219.35 222.92,-257 201.96,-280.5"/>
<polygon fill="black" stroke="black" points="199.34,-278.17 195.18,-287.91 204.51,-282.9 199.34,-278.17"/>
<g id="a_edge7&#45;headlabel"><a xlink:href="dir_000023_000003.html" target="_top" xlink:title="6">
<text text-anchor="middle" x="199.68" y="-271.11" font-family="Helvetica,sans-Serif" font-size="10.00">6</text>
</a>
</g>
</g>
<!-- dir_01d18f1cc77c9a191a0f93995e355f74&#45;&gt;dir_6ec4d305043bb2ac35319501d57f2d67 -->
<g id="edge8" class="edge">
<title>dir_01d18f1cc77c9a191a0f93995e355f74&#45;&gt;dir_6ec4d305043bb2ac35319501d57f2d67</title>
<path fill="none" stroke="black" d="M198.83,-36.19C207.36,-60.42 218.6,-104.89 223.72,-133.68"/>
<polygon fill="black" stroke="black" points="220.32,-134.56 225.36,-143.87 227.23,-133.44 220.32,-134.56"/>
<g id="a_edge8&#45;headlabel"><a xlink:href="dir_000023_000012.html" target="_top" xlink:title="6">
<text text-anchor="middle" x="216.94" y="-128.96" font-family="Helvetica,sans-Serif" font-size="10.00">6</text>
</a>
</g>
</g>
<!-- dir_e40e2a39b3819c509dbc43bbd7688b8f&#45;&gt;dir_b7878ad5ecbf2506f4125b9d34c97e45 -->
<g id="edge14" class="edge">
<title>dir_e40e2a39b3819c509dbc43bbd7688b8f&#45;&gt;dir_b7878ad5ecbf2506f4125b9d34c97e45</title>
<path fill="none" stroke="black" d="M157.77,-108.23C161.58,-145.32 170.6,-232.98 175.19,-277.71"/>
<polygon fill="black" stroke="black" points="171.73,-278.26 176.24,-287.85 178.7,-277.54 171.73,-278.26"/>
<g id="a_edge14&#45;headlabel"><a xlink:href="dir_000016_000003.html" target="_top" xlink:title="5">
<text text-anchor="middle" x="168.54" y="-272.47" font-family="Helvetica,sans-Serif" font-size="10.00">5</text>
</a>
</g>
</g>
<!-- dir_e40e2a39b3819c509dbc43bbd7688b8f&#45;&gt;dir_10540e180691539d14a045ae194980ae -->
<g id="edge15" class="edge">
<title>dir_e40e2a39b3819c509dbc43bbd7688b8f&#45;&gt;dir_10540e180691539d14a045ae194980ae</title>
<path fill="none" stroke="black" d="M155.87,-108.19C151.73,-132.64 139.63,-177.67 129.7,-206.44"/>
<polygon fill="black" stroke="black" points="126.39,-205.28 126.29,-215.87 132.98,-207.66 126.39,-205.28"/>
<g id="a_edge15&#45;headlabel"><a xlink:href="dir_000016_000018.html" target="_top" xlink:title="10">
<text text-anchor="middle" x="124.94" y="-198.43" font-family="Helvetica,sans-Serif" font-size="10.00">10</text>
</a>
</g>
</g>
<!-- dir_e40e2a39b3819c509dbc43bbd7688b8f&#45;&gt;dir_01d18f1cc77c9a191a0f93995e355f74 -->
<g id="edge16" class="edge">
<title>dir_e40e2a39b3819c509dbc43bbd7688b8f&#45;&gt;dir_01d18f1cc77c9a191a0f93995e355f74</title>
<path fill="none" stroke="black" d="M164.4,-71.7C168.27,-63.73 172.95,-54.1 177.24,-45.26"/>
<polygon fill="black" stroke="black" points="180.47,-46.63 181.69,-36.1 174.17,-43.57 180.47,-46.63"/>
<g id="a_edge16&#45;headlabel"><a xlink:href="dir_000016_000023.html" target="_top" xlink:title="12">
<text text-anchor="middle" x="181.45" y="-48.6" font-family="Helvetica,sans-Serif" font-size="10.00">12</text>
</a>
</g>
</g>
<!-- dir_e40e2a39b3819c509dbc43bbd7688b8f&#45;&gt;dir_6ec4d305043bb2ac35319501d57f2d67 -->
<g id="edge17" class="edge">
<title>dir_e40e2a39b3819c509dbc43bbd7688b8f&#45;&gt;dir_6ec4d305043bb2ac35319501d57f2d67</title>
<path fill="none" stroke="black" d="M178.76,-108.1C187.97,-116.55 198.37,-126.9 207.04,-136.2"/>
<polygon fill="black" stroke="black" points="204.54,-138.65 213.86,-143.7 209.72,-133.94 204.54,-138.65"/>
<g id="a_edge17&#45;headlabel"><a xlink:href="dir_000016_000012.html" target="_top" xlink:title="16">
<text text-anchor="middle" x="200.02" y="-135.4" font-family="Helvetica,sans-Serif" font-size="10.00">16</text>
</a>
</g>
</g>
<!-- dir_6ec4d305043bb2ac35319501d57f2d67&#45;&gt;dir_b7878ad5ecbf2506f4125b9d34c97e45 -->
<g id="edge18" class="edge">
<title>dir_6ec4d305043bb2ac35319501d57f2d67&#45;&gt;dir_b7878ad5ecbf2506f4125b9d34c97e45</title>
<path fill="none" stroke="black" d="M223.9,-180.19C218.39,-204.64 203.75,-249.67 192.19,-278.44"/>
<polygon fill="black" stroke="black" points="188.88,-277.29 188.25,-287.87 195.34,-279.99 188.88,-277.29"/>
<g id="a_edge18&#45;headlabel"><a xlink:href="dir_000012_000003.html" target="_top" xlink:title="7">
<text text-anchor="middle" x="187.64" y="-270.38" font-family="Helvetica,sans-Serif" font-size="10.00">7</text>
</a>
</g>
</g>
<!-- dir_6ec4d305043bb2ac35319501d57f2d67&#45;&gt;dir_10540e180691539d14a045ae194980ae -->
<g id="edge19" class="edge">
<title>dir_6ec4d305043bb2ac35319501d57f2d67&#45;&gt;dir_10540e180691539d14a045ae194980ae</title>
<path fill="none" stroke="black" d="M204.38,-180.19C191.2,-189.35 173.78,-200.74 157.93,-210.59"/>
<polygon fill="black" stroke="black" points="156.01,-207.66 149.32,-215.88 159.67,-213.62 156.01,-207.66"/>
<g id="a_edge19&#45;headlabel"><a xlink:href="dir_000012_000018.html" target="_top" xlink:title="2">
<text text-anchor="middle" x="157.58" y="-200.86" font-family="Helvetica,sans-Serif" font-size="10.00">2</text>
</a>
</g>
</g>
<!-- dir_6ec4d305043bb2ac35319501d57f2d67&#45;&gt;dir_01d18f1cc77c9a191a0f93995e355f74 -->
<g id="edge20" class="edge">
<title>dir_6ec4d305043bb2ac35319501d57f2d67&#45;&gt;dir_01d18f1cc77c9a191a0f93995e355f74</title>
<path fill="none" stroke="black" d="M216.19,-143.87C207.67,-119.67 196.42,-75.21 191.29,-46.39"/>
<polygon fill="black" stroke="black" points="194.69,-45.5 189.65,-36.19 187.78,-46.62 194.69,-45.5"/>
<g id="a_edge20&#45;headlabel"><a xlink:href="dir_000012_000023.html" target="_top" xlink:title="2">
<text text-anchor="middle" x="198.07" y="-46.1" font-family="Helvetica,sans-Serif" font-size="10.00">2</text>
</a>
</g>
</g>
<!-- dir_6ec4d305043bb2ac35319501d57f2d67&#45;&gt;dir_e40e2a39b3819c509dbc43bbd7688b8f -->
<g id="edge21" class="edge">
<title>dir_6ec4d305043bb2ac35319501d57f2d67&#45;&gt;dir_e40e2a39b3819c509dbc43bbd7688b8f</title>
<path fill="none" stroke="black" d="M202.03,-143.7C192.8,-135.22 182.4,-124.86 173.75,-115.58"/>
<polygon fill="black" stroke="black" points="176.28,-113.16 166.96,-108.1 171.1,-117.86 176.28,-113.16"/>
<g id="a_edge21&#45;headlabel"><a xlink:href="dir_000012_000016.html" target="_top" xlink:title="1">
<text text-anchor="middle" x="180.8" y="-111.41" font-family="Helvetica,sans-Serif" font-size="10.00">1</text>
</a>
</g>
</g>
</g>
</svg>
