<?xml version="1.0" encoding="UTF-8" standalone="no"?>
<!DOCTYPE svg PUBLIC "-//W3C//DTD SVG 1.1//EN"
 "http://www.w3.org/Graphics/SVG/1.1/DTD/svg11.dtd">
<!-- Generated by graphviz version 2.43.0 (0)
 -->
<!-- Title: filters Pages: 1 -->
<svg width="188pt" height="311pt"
 viewBox="0.00 0.00 188.00 311.00" xmlns="http://www.w3.org/2000/svg" xmlns:xlink="http://www.w3.org/1999/xlink">
<g id="graph0" class="graph" transform="scale(1 1) rotate(0) translate(4 307)">
<title>filters</title>
<polygon fill="white" stroke="transparent" points="-4,4 -4,-307 184,-307 184,4 -4,4"/>
<g id="clust1" class="cluster">
<title>clusterdir_3f615ade772d23cefe5e20dcb18424a2</title>
<g id="a_clust1"><a xlink:href="dir_3f615ade772d23cefe5e20dcb18424a2.html" target="_top" xlink:title="backend">
<polygon fill="#ddddee" stroke="black" points="8,-8 8,-295 118,-295 118,-8 8,-8"/>
<text text-anchor="middle" x="63" y="-283" font-family="Helvetica,sans-Serif" font-size="10.00">backend</text>
</a>
</g>
</g>
<!-- dir_10540e180691539d14a045ae194980ae -->
<g id="node1" class="node">
<title>dir_10540e180691539d14a045ae194980ae</title>
<g id="a_node1"><a xlink:href="dir_10540e180691539d14a045ae194980ae.html" target="_top" xlink:title="managers">
<polygon fill="none" stroke="black" points="81.5,-268 16.5,-268 16.5,-232 81.5,-232 81.5,-268"/>
<text text-anchor="middle" x="49" y="-247.5" font-family="Helvetica,sans-Serif" font-size="10.00">managers</text>
</a>
</g>
</g>
<!-- dir_6ec4d305043bb2ac35319501d57f2d67 -->
<g id="node2" class="node">
<title>dir_6ec4d305043bb2ac35319501d57f2d67</title>
<g id="a_node2"><a xlink:href="dir_6ec4d305043bb2ac35319501d57f2d67.html" target="_top" xlink:title="drivers">
<polygon fill="none" stroke="black" points="90,-124 36,-124 36,-88 90,-88 90,-124"/>
<text text-anchor="middle" x="63" y="-103.5" font-family="Helvetica,sans-Serif" font-size="10.00">drivers</text>
</a>
</g>
</g>
<!-- dir_10540e180691539d14a045ae194980ae&#45;&gt;dir_6ec4d305043bb2ac35319501d57f2d67 -->
<g id="edge5" class="edge">
<title>dir_10540e180691539d14a045ae194980ae&#45;&gt;dir_6ec4d305043bb2ac35319501d57f2d67</title>
<path fill="none" stroke="black" d="M40.19,-231.83C36.12,-213.83 34.34,-184.77 38,-160 39.28,-151.35 41.67,-142.15 44.62,-133.89"/>
<polygon fill="black" stroke="black" points="47.97,-134.95 48.47,-124.37 41.48,-132.33 47.97,-134.95"/>
<g id="a_edge5&#45;headlabel"><a xlink:href="dir_000017_000012.html" target="_top" xlink:title="12">
<text text-anchor="middle" x="49.25" y="-136.85" font-family="Helvetica,sans-Serif" font-size="10.00">12</text>
</a>
</g>
</g>
<!-- dir_8de3944d4b83abb802b44e4617c59fd6 -->
<g id="node3" class="node">
<title>dir_8de3944d4b83abb802b44e4617c59fd6</title>
<g id="a_node3"><a xlink:href="dir_8de3944d4b83abb802b44e4617c59fd6.html" target="_top" xlink:title="config">
<polygon fill="none" stroke="black" points="90,-52 36,-52 36,-16 90,-16 90,-52"/>
<text text-anchor="middle" x="63" y="-31.5" font-family="Helvetica,sans-Serif" font-size="10.00">config</text>
</a>
</g>
</g>
<!-- dir_10540e180691539d14a045ae194980ae&#45;&gt;dir_8de3944d4b83abb802b44e4617c59fd6 -->
<g id="edge6" class="edge">
<title>dir_10540e180691539d14a045ae194980ae&#45;&gt;dir_8de3944d4b83abb802b44e4617c59fd6</title>
<path fill="none" stroke="black" d="M36.43,-231.69C21.58,-201.76 2.41,-138.69 18,-88 21.04,-78.11 26.62,-68.41 32.93,-60.07"/>
<polygon fill="black" stroke="black" points="35.74,-62.16 39.41,-52.23 30.35,-57.71 35.74,-62.16"/>
<g id="a_edge6&#45;headlabel"><a xlink:href="dir_000017_000010.html" target="_top" xlink:title="3">
<text text-anchor="middle" x="35.64" y="-64.24" font-family="Helvetica,sans-Serif" font-size="10.00">3</text>
</a>
</g>
</g>
<!-- dir_ce499b53d7ae20affef1cc1ed540badc -->
<g id="node4" class="node">
<title>dir_ce499b53d7ae20affef1cc1ed540badc</title>
<g id="a_node4"><a xlink:href="dir_ce499b53d7ae20affef1cc1ed540badc.html" target="_top" xlink:title="filters">
<polygon fill="#eeeeff" stroke="black" points="110,-196 56,-196 56,-160 110,-160 110,-196"/>
<text text-anchor="middle" x="83" y="-175.5" font-family="Helvetica,sans-Serif" font-size="10.00">filters</text>
</a>
</g>
</g>
<!-- dir_10540e180691539d14a045ae194980ae&#45;&gt;dir_ce499b53d7ae20affef1cc1ed540badc -->
<g id="edge8" class="edge">
<title>dir_10540e180691539d14a045ae194980ae&#45;&gt;dir_ce499b53d7ae20affef1cc1ed540badc</title>
<path fill="none" stroke="black" d="M51.49,-231.7C54.57,-223.64 59.09,-213.89 63.83,-204.98"/>
<polygon fill="black" stroke="black" points="66.97,-206.54 68.8,-196.1 60.86,-203.12 66.97,-206.54"/>
<g id="a_edge8&#45;headlabel"><a xlink:href="dir_000017_000024.html" target="_top" xlink:title="5">
<text text-anchor="middle" x="67.7" y="-208.56" font-family="Helvetica,sans-Serif" font-size="10.00">5</text>
</a>
</g>
</g>
<!-- dir_b7878ad5ecbf2506f4125b9d34c97e45 -->
<g id="node5" class="node">
<title>dir_b7878ad5ecbf2506f4125b9d34c97e45</title>
<g id="a_node5"><a xlink:href="dir_b7878ad5ecbf2506f4125b9d34c97e45.html" target="_top" xlink:title="util">
<polygon fill="none" stroke="black" points="180,-52 126,-52 126,-16 180,-16 180,-52"/>
<text text-anchor="middle" x="153" y="-31.5" font-family="Helvetica,sans-Serif" font-size="10.00">util</text>
</a>
</g>
</g>
<!-- dir_10540e180691539d14a045ae194980ae&#45;&gt;dir_b7878ad5ecbf2506f4125b9d34c97e45 -->
<g id="edge7" class="edge">
<title>dir_10540e180691539d14a045ae194980ae&#45;&gt;dir_b7878ad5ecbf2506f4125b9d34c97e45</title>
<path fill="none" stroke="black" d="M80.77,-231.95C94.53,-223 109.61,-210.8 119,-196 145.24,-154.64 151.58,-96.47 152.91,-62.55"/>
<polygon fill="black" stroke="black" points="156.41,-62.54 153.18,-52.45 149.42,-62.35 156.41,-62.54"/>
<g id="a_edge7&#45;headlabel"><a xlink:href="dir_000017_000003.html" target="_top" xlink:title="10">
<text text-anchor="middle" x="159.15" y="-63.71" font-family="Helvetica,sans-Serif" font-size="10.00">10</text>
</a>
</g>
</g>
<!-- dir_6ec4d305043bb2ac35319501d57f2d67&#45;&gt;dir_10540e180691539d14a045ae194980ae -->
<g id="edge13" class="edge">
<title>dir_6ec4d305043bb2ac35319501d57f2d67&#45;&gt;dir_10540e180691539d14a045ae194980ae</title>
<path fill="none" stroke="black" d="M64.22,-124.37C61.8,-134.58 57.8,-147.83 56,-160 52.97,-180.51 53.67,-203.97 53.72,-221.65"/>
<polygon fill="black" stroke="black" points="50.22,-221.8 53.63,-231.83 57.22,-221.86 50.22,-221.8"/>
<g id="a_edge13&#45;headlabel"><a xlink:href="dir_000012_000017.html" target="_top" xlink:title="2">
<text text-anchor="middle" x="47.41" y="-215.68" font-family="Helvetica,sans-Serif" font-size="10.00">2</text>
</a>
</g>
</g>
<!-- dir_6ec4d305043bb2ac35319501d57f2d67&#45;&gt;dir_8de3944d4b83abb802b44e4617c59fd6 -->
<g id="edge14" class="edge">
<title>dir_6ec4d305043bb2ac35319501d57f2d67&#45;&gt;dir_8de3944d4b83abb802b44e4617c59fd6</title>
<path fill="none" stroke="black" d="M57.08,-87.7C56.29,-79.98 56.06,-70.71 56.4,-62.11"/>
<polygon fill="black" stroke="black" points="59.9,-62.32 57.1,-52.1 52.92,-61.84 59.9,-62.32"/>
<g id="a_edge14&#45;headlabel"><a xlink:href="dir_000012_000010.html" target="_top" xlink:title="1">
<text text-anchor="middle" x="62.48" y="-63.61" font-family="Helvetica,sans-Serif" font-size="10.00">1</text>
</a>
</g>
</g>
<!-- dir_6ec4d305043bb2ac35319501d57f2d67&#45;&gt;dir_b7878ad5ecbf2506f4125b9d34c97e45 -->
<g id="edge15" class="edge">
<title>dir_6ec4d305043bb2ac35319501d57f2d67&#45;&gt;dir_b7878ad5ecbf2506f4125b9d34c97e45</title>
<path fill="none" stroke="black" d="M79.33,-87.7C90.01,-78.66 104.22,-67.5 117.36,-57.77"/>
<polygon fill="black" stroke="black" points="119.77,-60.34 125.78,-51.62 115.64,-54.69 119.77,-60.34"/>
<g id="a_edge15&#45;headlabel"><a xlink:href="dir_000012_000003.html" target="_top" xlink:title="8">
<text text-anchor="middle" x="118.54" y="-62.25" font-family="Helvetica,sans-Serif" font-size="10.00">8</text>
</a>
</g>
</g>
<!-- dir_8de3944d4b83abb802b44e4617c59fd6&#45;&gt;dir_10540e180691539d14a045ae194980ae -->
<g id="edge1" class="edge">
<title>dir_8de3944d4b83abb802b44e4617c59fd6&#45;&gt;dir_10540e180691539d14a045ae194980ae</title>
<path fill="none" stroke="black" d="M55.37,-52.23C48.63,-61.97 40.05,-74.82 36,-88 21.93,-133.74 36.17,-189.56 44.76,-222.01"/>
<polygon fill="black" stroke="black" points="41.37,-222.91 47.3,-231.69 48.14,-221.12 41.37,-222.91"/>
<g id="a_edge1&#45;headlabel"><a xlink:href="dir_000010_000017.html" target="_top" xlink:title="1">
<text text-anchor="middle" x="37.71" y="-217.65" font-family="Helvetica,sans-Serif" font-size="10.00">1</text>
</a>
</g>
</g>
<!-- dir_8de3944d4b83abb802b44e4617c59fd6&#45;&gt;dir_6ec4d305043bb2ac35319501d57f2d67 -->
<g id="edge2" class="edge">
<title>dir_8de3944d4b83abb802b44e4617c59fd6&#45;&gt;dir_6ec4d305043bb2ac35319501d57f2d67</title>
<path fill="none" stroke="black" d="M68.9,-52.1C69.7,-59.79 69.94,-69.05 69.6,-77.67"/>
<polygon fill="black" stroke="black" points="66.11,-77.48 68.92,-87.7 73.09,-77.96 66.11,-77.48"/>
<g id="a_edge2&#45;headlabel"><a xlink:href="dir_000010_000012.html" target="_top" xlink:title="1">
<text text-anchor="middle" x="63.52" y="-71.2" font-family="Helvetica,sans-Serif" font-size="10.00">1</text>
</a>
</g>
</g>
<!-- dir_8de3944d4b83abb802b44e4617c59fd6&#45;&gt;dir_b7878ad5ecbf2506f4125b9d34c97e45 -->
<g id="edge3" class="edge">
<title>dir_8de3944d4b83abb802b44e4617c59fd6&#45;&gt;dir_b7878ad5ecbf2506f4125b9d34c97e45</title>
<path fill="none" stroke="black" d="M90.07,-34C98.67,-34 107.27,-34 115.87,-34"/>
<polygon fill="black" stroke="black" points="115.96,-37.5 125.96,-34 115.96,-30.5 115.96,-37.5"/>
<g id="a_edge3&#45;headlabel"><a xlink:href="dir_000010_000003.html" target="_top" xlink:title="5">
<text text-anchor="middle" x="112.37" y="-37.84" font-family="Helvetica,sans-Serif" font-size="10.00">5</text>
</a>
</g>
</g>
<!-- dir_ce499b53d7ae20affef1cc1ed540badc&#45;&gt;dir_10540e180691539d14a045ae194980ae -->
<g id="edge9" class="edge">
<title>dir_ce499b53d7ae20affef1cc1ed540badc&#45;&gt;dir_10540e180691539d14a045ae194980ae</title>
<path fill="none" stroke="black" d="M80.59,-196.1C77.53,-204.13 73.02,-213.87 68.28,-222.8"/>
<polygon fill="black" stroke="black" points="65.13,-221.26 63.32,-231.7 71.25,-224.67 65.13,-221.26"/>
<g id="a_edge9&#45;headlabel"><a xlink:href="dir_000024_000017.html" target="_top" xlink:title="7">
<text text-anchor="middle" x="64.41" y="-214.24" font-family="Helvetica,sans-Serif" font-size="10.00">7</text>
</a>
</g>
</g>
<!-- dir_ce499b53d7ae20affef1cc1ed540badc&#45;&gt;dir_6ec4d305043bb2ac35319501d57f2d67 -->
<g id="edge10" class="edge">
<title>dir_ce499b53d7ae20affef1cc1ed540badc&#45;&gt;dir_6ec4d305043bb2ac35319501d57f2d67</title>
<path fill="none" stroke="black" d="M78.06,-159.7C75.83,-151.9 73.15,-142.51 70.67,-133.83"/>
<polygon fill="black" stroke="black" points="74,-132.76 67.89,-124.1 67.27,-134.68 74,-132.76"/>
<g id="a_edge10&#45;headlabel"><a xlink:href="dir_000024_000012.html" target="_top" xlink:title="4">
<text text-anchor="middle" x="77.72" y="-132.93" font-family="Helvetica,sans-Serif" font-size="10.00">4</text>
</a>
</g>
</g>
<!-- dir_ce499b53d7ae20affef1cc1ed540badc&#45;&gt;dir_8de3944d4b83abb802b44e4617c59fd6 -->
<g id="edge11" class="edge">
<title>dir_ce499b53d7ae20affef1cc1ed540badc&#45;&gt;dir_8de3944d4b83abb802b44e4617c59fd6</title>
<path fill="none" stroke="black" d="M90.78,-159.98C97.98,-141.85 106.52,-112.46 99,-88 95.99,-78.22 90.49,-68.62 84.68,-60.33"/>
<polygon fill="black" stroke="black" points="87.41,-58.13 78.61,-52.23 81.81,-62.33 87.41,-58.13"/>
<g id="a_edge11&#45;headlabel"><a xlink:href="dir_000024_000010.html" target="_top" xlink:title="3">
<text text-anchor="middle" x="91.83" y="-56.8" font-family="Helvetica,sans-Serif" font-size="10.00">3</text>
</a>
</g>
</g>
<!-- dir_ce499b53d7ae20affef1cc1ed540badc&#45;&gt;dir_b7878ad5ecbf2506f4125b9d34c97e45 -->
<g id="edge12" class="edge">
<title>dir_ce499b53d7ae20affef1cc1ed540badc&#45;&gt;dir_b7878ad5ecbf2506f4125b9d34c97e45</title>
<path fill="none" stroke="black" d="M91.44,-159.87C103.53,-135.35 125.87,-90.03 140.06,-61.26"/>
<polygon fill="black" stroke="black" points="143.24,-62.71 144.53,-52.19 136.97,-59.61 143.24,-62.71"/>
<g id="a_edge12&#45;headlabel"><a xlink:href="dir_000024_000003.html" target="_top" xlink:title="2">
<text text-anchor="middle" x="144.2" y="-64.69" font-family="Helvetica,sans-Serif" font-size="10.00">2</text>
</a>
</g>
</g>
<!-- dir_b7878ad5ecbf2506f4125b9d34c97e45&#45;&gt;dir_6ec4d305043bb2ac35319501d57f2d67 -->
<g id="edge4" class="edge">
<title>dir_b7878ad5ecbf2506f4125b9d34c97e45&#45;&gt;dir_6ec4d305043bb2ac35319501d57f2d67</title>
<path fill="none" stroke="black" d="M136.79,-52.2C125.99,-61.34 111.55,-72.69 98.25,-82.52"/>
<polygon fill="black" stroke="black" points="96.19,-79.69 90.17,-88.41 100.31,-85.35 96.19,-79.69"/>
<g id="a_edge4&#45;headlabel"><a xlink:href="dir_000003_000012.html" target="_top" xlink:title="4">
<text text-anchor="middle" x="97.42" y="-72.78" font-family="Helvetica,sans-Serif" font-size="10.00">4</text>
</a>
</g>
</g>
</g>
</svg>
