<?xml version="1.0" encoding="UTF-8" standalone="no"?>
<!DOCTYPE svg PUBLIC "-//W3C//DTD SVG 1.1//EN"
 "http://www.w3.org/Graphics/SVG/1.1/DTD/svg11.dtd">
<!-- Generated by graphviz version 2.43.0 (0)
 -->
<!-- Title: display Pages: 1 -->
<svg width="324pt" height="375pt"
 viewBox="0.00 0.00 323.91 375.00" xmlns="http://www.w3.org/2000/svg" xmlns:xlink="http://www.w3.org/1999/xlink">
<g id="graph0" class="graph" transform="scale(1 1) rotate(0) translate(4 371)">
<title>display</title>
<polygon fill="white" stroke="transparent" points="-4,4 -4,-371 319.91,-371 319.91,4 -4,4"/>
<g id="clust1" class="cluster">
<title>clusterdir_8509b06bafa958d2011203a730bf5778</title>
<g id="a_clust1"><a xlink:href="dir_8509b06bafa958d2011203a730bf5778.html" target="_top" xlink:title="frontend">
<polygon fill="#ddddee" stroke="black" points="59.59,-136 59.59,-359 271.59,-359 271.59,-136 59.59,-136"/>
<text text-anchor="middle" x="165.59" y="-347" font-family="Helvetica,sans-Serif" font-size="10.00">frontend</text>
</a>
</g>
</g>
<g id="clust2" class="cluster">
<title>clusterdir_38b4e75cb995a89c7f6ee00fff0326d9</title>
<g id="a_clust2"><a xlink:href="dir_38b4e75cb995a89c7f6ee00fff0326d9.html" target="_top">
<polygon fill="#eeeeff" stroke="black" points="163.59,-208 163.59,-332 251.59,-332 251.59,-208 163.59,-208"/>
</a>
</g>
</g>
<!-- dir_5e8fab8e4a29505e7cfff91a9e877bd0 -->
<g id="node1" class="node">
<title>dir_5e8fab8e4a29505e7cfff91a9e877bd0</title>
<g id="a_node1"><a xlink:href="dir_5e8fab8e4a29505e7cfff91a9e877bd0.html" target="_top" xlink:title="keychooser">
<polygon fill="white" stroke="red" points="153.59,-252 81.59,-252 81.59,-216 153.59,-216 153.59,-252"/>
<text text-anchor="middle" x="117.59" y="-231.5" font-family="Helvetica,sans-Serif" font-size="10.00">keychooser</text>
</a>
</g>
</g>
<!-- dir_3f615ade772d23cefe5e20dcb18424a2 -->
<g id="node6" class="node">
<title>dir_3f615ade772d23cefe5e20dcb18424a2</title>
<g id="a_node6"><a xlink:href="dir_3f615ade772d23cefe5e20dcb18424a2.html" target="_top" xlink:title="backend">
<polygon fill="white" stroke="red" points="158.09,-108 101.09,-108 101.09,-72 158.09,-72 158.09,-108"/>
<text text-anchor="middle" x="129.59" y="-87.5" font-family="Helvetica,sans-Serif" font-size="10.00">backend</text>
</a>
</g>
</g>
<!-- dir_5e8fab8e4a29505e7cfff91a9e877bd0&#45;&gt;dir_3f615ade772d23cefe5e20dcb18424a2 -->
<g id="edge4" class="edge">
<title>dir_5e8fab8e4a29505e7cfff91a9e877bd0&#45;&gt;dir_3f615ade772d23cefe5e20dcb18424a2</title>
<path fill="none" stroke="black" d="M115.47,-215.71C113.48,-196.22 111.39,-163.64 115.59,-136 116.48,-130.14 117.99,-123.98 119.7,-118.18"/>
<polygon fill="black" stroke="black" points="123.17,-118.83 122.89,-108.24 116.5,-116.69 123.17,-118.83"/>
<g id="a_edge4&#45;headlabel"><a xlink:href="dir_000004_000006.html" target="_top" xlink:title="31">
<text text-anchor="middle" x="124.77" y="-120.62" font-family="Helvetica,sans-Serif" font-size="10.00">31</text>
</a>
</g>
</g>
<!-- dir_b7878ad5ecbf2506f4125b9d34c97e45 -->
<g id="node7" class="node">
<title>dir_b7878ad5ecbf2506f4125b9d34c97e45</title>
<g id="a_node7"><a xlink:href="dir_b7878ad5ecbf2506f4125b9d34c97e45.html" target="_top" xlink:title="util">
<polygon fill="none" stroke="black" points="228.59,-36 174.59,-36 174.59,0 228.59,0 228.59,-36"/>
<text text-anchor="middle" x="201.59" y="-15.5" font-family="Helvetica,sans-Serif" font-size="10.00">util</text>
</a>
</g>
</g>
<!-- dir_5e8fab8e4a29505e7cfff91a9e877bd0&#45;&gt;dir_b7878ad5ecbf2506f4125b9d34c97e45 -->
<g id="edge5" class="edge">
<title>dir_5e8fab8e4a29505e7cfff91a9e877bd0&#45;&gt;dir_b7878ad5ecbf2506f4125b9d34c97e45</title>
<path fill="none" stroke="black" d="M144.17,-215.83C149.18,-212.99 154.46,-210.24 159.59,-208 199.93,-190.38 228.23,-215.25 254.59,-180 285.62,-138.5 248.89,-77.93 222.94,-44.14"/>
<polygon fill="black" stroke="black" points="225.57,-41.83 216.62,-36.16 220.08,-46.17 225.57,-41.83"/>
<g id="a_edge5&#45;headlabel"><a xlink:href="dir_000004_000003.html" target="_top" xlink:title="15">
<text text-anchor="middle" x="230.03" y="-40.39" font-family="Helvetica,sans-Serif" font-size="10.00">15</text>
</a>
</g>
</g>
<!-- dir_7463ea7291c384c8deee9a7027d7d5be -->
<g id="node2" class="node">
<title>dir_7463ea7291c384c8deee9a7027d7d5be</title>
<g id="a_node2"><a xlink:href="dir_7463ea7291c384c8deee9a7027d7d5be.html" target="_top" xlink:title="displaywindow">
<polygon fill="none" stroke="black" points="156.09,-324 67.09,-324 67.09,-288 156.09,-288 156.09,-324"/>
<text text-anchor="middle" x="111.59" y="-303.5" font-family="Helvetica,sans-Serif" font-size="10.00">displaywindow</text>
</a>
</g>
</g>
<!-- dir_7463ea7291c384c8deee9a7027d7d5be&#45;&gt;dir_5e8fab8e4a29505e7cfff91a9e877bd0 -->
<g id="edge18" class="edge">
<title>dir_7463ea7291c384c8deee9a7027d7d5be&#45;&gt;dir_5e8fab8e4a29505e7cfff91a9e877bd0</title>
<path fill="none" stroke="black" d="M113.07,-287.7C113.74,-279.98 114.53,-270.71 115.27,-262.11"/>
<polygon fill="black" stroke="black" points="118.76,-262.37 116.13,-252.1 111.78,-261.77 118.76,-262.37"/>
<g id="a_edge18&#45;headlabel"><a xlink:href="dir_000002_000004.html" target="_top" xlink:title="8">
<text text-anchor="middle" x="121.28" y="-263.69" font-family="Helvetica,sans-Serif" font-size="10.00">8</text>
</a>
</g>
</g>
<!-- dir_38b4e75cb995a89c7f6ee00fff0326d9 -->
<g id="node4" class="node">
<title>dir_38b4e75cb995a89c7f6ee00fff0326d9</title>
<text text-anchor="middle" x="204.59" y="-303.5" font-family="Helvetica,sans-Serif" font-size="10.00">display</text>
</g>
<!-- dir_7463ea7291c384c8deee9a7027d7d5be&#45;&gt;dir_38b4e75cb995a89c7f6ee00fff0326d9 -->
<g id="edge16" class="edge">
<title>dir_7463ea7291c384c8deee9a7027d7d5be&#45;&gt;dir_38b4e75cb995a89c7f6ee00fff0326d9</title>
<path fill="none" stroke="black" d="M156.28,-306C159.91,-306 163.54,-306 167.17,-306"/>
<polygon fill="black" stroke="black" points="167.41,-309.5 177.41,-306 167.41,-302.5 167.41,-309.5"/>
<g id="a_edge16&#45;headlabel"><a xlink:href="dir_000002_000009.html" target="_top" xlink:title="5">
<text text-anchor="middle" x="163.82" y="-309.84" font-family="Helvetica,sans-Serif" font-size="10.00">5</text>
</a>
</g>
</g>
<!-- dir_8ee0194d5b7c3d67e4a5758caa1a524d -->
<g id="node5" class="node">
<title>dir_8ee0194d5b7c3d67e4a5758caa1a524d</title>
<g id="a_node5"><a xlink:href="dir_8ee0194d5b7c3d67e4a5758caa1a524d.html" target="_top" xlink:title="modelview">
<polygon fill="white" stroke="black" points="243.09,-252 172.09,-252 172.09,-216 243.09,-216 243.09,-252"/>
<text text-anchor="middle" x="207.59" y="-231.5" font-family="Helvetica,sans-Serif" font-size="10.00">modelview</text>
</a>
</g>
</g>
<!-- dir_7463ea7291c384c8deee9a7027d7d5be&#45;&gt;dir_8ee0194d5b7c3d67e4a5758caa1a524d -->
<g id="edge19" class="edge">
<title>dir_7463ea7291c384c8deee9a7027d7d5be&#45;&gt;dir_8ee0194d5b7c3d67e4a5758caa1a524d</title>
<path fill="none" stroke="black" d="M135.32,-287.7C147.53,-278.8 162.58,-267.82 175.78,-258.2"/>
<polygon fill="black" stroke="black" points="178.12,-260.82 184.13,-252.1 173.99,-255.17 178.12,-260.82"/>
<g id="a_edge19&#45;headlabel"><a xlink:href="dir_000002_000019.html" target="_top" xlink:title="2">
<text text-anchor="middle" x="176.88" y="-262.74" font-family="Helvetica,sans-Serif" font-size="10.00">2</text>
</a>
</g>
</g>
<!-- dir_7463ea7291c384c8deee9a7027d7d5be&#45;&gt;dir_3f615ade772d23cefe5e20dcb18424a2 -->
<g id="edge17" class="edge">
<title>dir_7463ea7291c384c8deee9a7027d7d5be&#45;&gt;dir_3f615ade772d23cefe5e20dcb18424a2</title>
<path fill="none" stroke="black" d="M75.57,-287.81C61.67,-279.16 47.3,-267.24 39.59,-252 16.33,-205.99 12.49,-179.86 39.59,-136 50.93,-117.65 72.27,-106.53 91.32,-99.94"/>
<polygon fill="black" stroke="black" points="92.53,-103.23 101.01,-96.89 90.43,-96.55 92.53,-103.23"/>
<g id="a_edge17&#45;headlabel"><a xlink:href="dir_000002_000006.html" target="_top" xlink:title="41">
<text text-anchor="middle" x="89.95" y="-104.52" font-family="Helvetica,sans-Serif" font-size="10.00">41</text>
</a>
</g>
</g>
<!-- dir_7463ea7291c384c8deee9a7027d7d5be&#45;&gt;dir_b7878ad5ecbf2506f4125b9d34c97e45 -->
<g id="edge20" class="edge">
<title>dir_7463ea7291c384c8deee9a7027d7d5be&#45;&gt;dir_b7878ad5ecbf2506f4125b9d34c97e45</title>
<path fill="none" stroke="black" d="M66.95,-290.79C48.64,-282.53 29.27,-270.08 18.59,-252 -7.62,-207.6 -4,-182.82 17.59,-136 45.01,-76.56 119.34,-44.04 164.7,-29.19"/>
<polygon fill="black" stroke="black" points="165.97,-32.46 174.46,-26.12 163.87,-25.78 165.97,-32.46"/>
<g id="a_edge20&#45;headlabel"><a xlink:href="dir_000002_000003.html" target="_top" xlink:title="29">
<text text-anchor="middle" x="163.39" y="-33.74" font-family="Helvetica,sans-Serif" font-size="10.00">29</text>
</a>
</g>
</g>
<!-- dir_f2bf245f4d513cc01909af5be520382c -->
<g id="node3" class="node">
<title>dir_f2bf245f4d513cc01909af5be520382c</title>
<g id="a_node3"><a xlink:href="dir_f2bf245f4d513cc01909af5be520382c.html" target="_top" xlink:title="edittextwizard">
<polygon fill="none" stroke="black" points="245.09,-180 158.09,-180 158.09,-144 245.09,-144 245.09,-180"/>
<text text-anchor="middle" x="201.59" y="-159.5" font-family="Helvetica,sans-Serif" font-size="10.00">edittextwizard</text>
</a>
</g>
</g>
<!-- dir_f2bf245f4d513cc01909af5be520382c&#45;&gt;dir_38b4e75cb995a89c7f6ee00fff0326d9 -->
<g id="edge8" class="edge">
<title>dir_f2bf245f4d513cc01909af5be520382c&#45;&gt;dir_38b4e75cb995a89c7f6ee00fff0326d9</title>
<path fill="none" stroke="black" d="M229.11,-180.13C238.36,-187.46 247.59,-196.91 252.59,-208 260.64,-225.82 259.63,-233.75 252.59,-252 248.49,-262.64 241.15,-272.47 233.42,-280.7"/>
<polygon fill="black" stroke="black" points="230.92,-278.25 226.3,-287.79 235.86,-283.22 230.92,-278.25"/>
<g id="a_edge8&#45;headlabel"><a xlink:href="dir_000014_000009.html" target="_top" xlink:title="2">
<text text-anchor="middle" x="231.47" y="-271.21" font-family="Helvetica,sans-Serif" font-size="10.00">2</text>
</a>
</g>
</g>
<!-- dir_f2bf245f4d513cc01909af5be520382c&#45;&gt;dir_3f615ade772d23cefe5e20dcb18424a2 -->
<g id="edge9" class="edge">
<title>dir_f2bf245f4d513cc01909af5be520382c&#45;&gt;dir_3f615ade772d23cefe5e20dcb18424a2</title>
<path fill="none" stroke="black" d="M183.79,-143.7C174.99,-135.14 164.21,-124.66 154.59,-115.3"/>
<polygon fill="black" stroke="black" points="156.79,-112.57 147.18,-108.1 151.91,-117.58 156.79,-112.57"/>
<g id="a_edge9&#45;headlabel"><a xlink:href="dir_000014_000006.html" target="_top" xlink:title="3">
<text text-anchor="middle" x="161.35" y="-110.54" font-family="Helvetica,sans-Serif" font-size="10.00">3</text>
</a>
</g>
</g>
<!-- dir_f2bf245f4d513cc01909af5be520382c&#45;&gt;dir_b7878ad5ecbf2506f4125b9d34c97e45 -->
<g id="edge10" class="edge">
<title>dir_f2bf245f4d513cc01909af5be520382c&#45;&gt;dir_b7878ad5ecbf2506f4125b9d34c97e45</title>
<path fill="none" stroke="black" d="M201.59,-143.87C201.59,-119.67 201.59,-75.21 201.59,-46.39"/>
<polygon fill="black" stroke="black" points="205.09,-46.19 201.59,-36.19 198.09,-46.19 205.09,-46.19"/>
<g id="a_edge10&#45;headlabel"><a xlink:href="dir_000014_000003.html" target="_top" xlink:title="3">
<text text-anchor="middle" x="207.93" y="-47.28" font-family="Helvetica,sans-Serif" font-size="10.00">3</text>
</a>
</g>
</g>
<!-- dir_38b4e75cb995a89c7f6ee00fff0326d9&#45;&gt;dir_5e8fab8e4a29505e7cfff91a9e877bd0 -->
<g id="edge12" class="edge">
<title>dir_38b4e75cb995a89c7f6ee00fff0326d9&#45;&gt;dir_5e8fab8e4a29505e7cfff91a9e877bd0</title>
<path fill="none" stroke="black" d="M183.09,-287.7C172.13,-278.88 158.65,-268.03 146.77,-258.47"/>
<polygon fill="black" stroke="black" points="148.84,-255.65 138.85,-252.1 144.45,-261.1 148.84,-255.65"/>
<g id="a_edge12&#45;headlabel"><a xlink:href="dir_000009_000004.html" target="_top" xlink:title="1">
<text text-anchor="middle" x="153.42" y="-253.19" font-family="Helvetica,sans-Serif" font-size="10.00">1</text>
</a>
</g>
</g>
<!-- dir_38b4e75cb995a89c7f6ee00fff0326d9&#45;&gt;dir_7463ea7291c384c8deee9a7027d7d5be -->
<g id="edge13" class="edge">
<title>dir_38b4e75cb995a89c7f6ee00fff0326d9&#45;&gt;dir_7463ea7291c384c8deee9a7027d7d5be</title>
<path fill="none" stroke="black" d="M177.41,-306C173.78,-306 170.15,-306 166.51,-306"/>
<polygon fill="black" stroke="black" points="166.28,-302.5 156.28,-306 166.28,-309.5 166.28,-302.5"/>
<g id="a_edge13&#45;headlabel"><a xlink:href="dir_000009_000002.html" target="_top" xlink:title="1">
<text text-anchor="middle" x="169.87" y="-297.16" font-family="Helvetica,sans-Serif" font-size="10.00">1</text>
</a>
</g>
</g>
<!-- dir_38b4e75cb995a89c7f6ee00fff0326d9&#45;&gt;dir_8ee0194d5b7c3d67e4a5758caa1a524d -->
<g id="edge14" class="edge">
<title>dir_38b4e75cb995a89c7f6ee00fff0326d9&#45;&gt;dir_8ee0194d5b7c3d67e4a5758caa1a524d</title>
<path fill="none" stroke="black" d="M205.33,-287.7C205.66,-279.98 206.06,-270.71 206.43,-262.11"/>
<polygon fill="black" stroke="black" points="209.93,-262.25 206.86,-252.1 202.93,-261.95 209.93,-262.25"/>
<g id="a_edge14&#45;headlabel"><a xlink:href="dir_000009_000019.html" target="_top" xlink:title="2">
<text text-anchor="middle" x="212.61" y="-263.46" font-family="Helvetica,sans-Serif" font-size="10.00">2</text>
</a>
</g>
</g>
<!-- dir_38b4e75cb995a89c7f6ee00fff0326d9&#45;&gt;dir_3f615ade772d23cefe5e20dcb18424a2 -->
<g id="edge11" class="edge">
<title>dir_38b4e75cb995a89c7f6ee00fff0326d9&#45;&gt;dir_3f615ade772d23cefe5e20dcb18424a2</title>
<path fill="none" stroke="black" d="M177.34,-289.72C176.08,-289.12 174.83,-288.54 173.59,-288 128.05,-267.96 96.57,-292.44 67.59,-252 37.56,-210.09 44.17,-181.93 67.59,-136 73.06,-125.28 82.41,-116.51 92.21,-109.66"/>
<polygon fill="black" stroke="black" points="94.32,-112.47 100.86,-104.13 90.55,-106.57 94.32,-112.47"/>
<g id="a_edge11&#45;headlabel"><a xlink:href="dir_000009_000006.html" target="_top" xlink:title="19">
<text text-anchor="middle" x="92.82" y="-114.3" font-family="Helvetica,sans-Serif" font-size="10.00">19</text>
</a>
</g>
</g>
<!-- dir_38b4e75cb995a89c7f6ee00fff0326d9&#45;&gt;dir_b7878ad5ecbf2506f4125b9d34c97e45 -->
<g id="edge15" class="edge">
<title>dir_38b4e75cb995a89c7f6ee00fff0326d9&#45;&gt;dir_b7878ad5ecbf2506f4125b9d34c97e45</title>
<path fill="none" stroke="black" d="M231.78,-289.26C246.21,-279.87 263.42,-266.89 275.59,-252 297.99,-224.6 301.85,-214.53 309.59,-180 313.87,-160.92 309.74,-155.55 309.59,-136 309.37,-107.55 323.78,-96.05 308.59,-72 293.22,-47.66 263.04,-34.13 238.64,-26.85"/>
<polygon fill="black" stroke="black" points="239.51,-23.45 228.94,-24.18 237.65,-30.2 239.51,-23.45"/>
<g id="a_edge15&#45;headlabel"><a xlink:href="dir_000009_000003.html" target="_top" xlink:title="8">
<text text-anchor="middle" x="243.73" y="-19.17" font-family="Helvetica,sans-Serif" font-size="10.00">8</text>
</a>
</g>
</g>
<!-- dir_8ee0194d5b7c3d67e4a5758caa1a524d&#45;&gt;dir_f2bf245f4d513cc01909af5be520382c -->
<g id="edge3" class="edge">
<title>dir_8ee0194d5b7c3d67e4a5758caa1a524d&#45;&gt;dir_f2bf245f4d513cc01909af5be520382c</title>
<path fill="none" stroke="black" d="M206.11,-215.7C205.45,-207.98 204.65,-198.71 203.92,-190.11"/>
<polygon fill="black" stroke="black" points="207.4,-189.77 203.06,-180.1 200.42,-190.37 207.4,-189.77"/>
<g id="a_edge3&#45;headlabel"><a xlink:href="dir_000019_000014.html" target="_top" xlink:title="1">
<text text-anchor="middle" x="210.53" y="-190.61" font-family="Helvetica,sans-Serif" font-size="10.00">1</text>
</a>
</g>
</g>
<!-- dir_8ee0194d5b7c3d67e4a5758caa1a524d&#45;&gt;dir_3f615ade772d23cefe5e20dcb18424a2 -->
<g id="edge1" class="edge">
<title>dir_8ee0194d5b7c3d67e4a5758caa1a524d&#45;&gt;dir_3f615ade772d23cefe5e20dcb18424a2</title>
<path fill="none" stroke="black" d="M183.5,-215.87C167.53,-204.02 148.62,-188.84 143.59,-180 132.92,-161.25 129.68,-136.87 128.97,-118.37"/>
<polygon fill="black" stroke="black" points="132.46,-118.18 128.8,-108.24 125.47,-118.3 132.46,-118.18"/>
<g id="a_edge1&#45;headlabel"><a xlink:href="dir_000019_000006.html" target="_top" xlink:title="14">
<text text-anchor="middle" x="135.36" y="-119.23" font-family="Helvetica,sans-Serif" font-size="10.00">14</text>
</a>
</g>
</g>
<!-- dir_8ee0194d5b7c3d67e4a5758caa1a524d&#45;&gt;dir_b7878ad5ecbf2506f4125b9d34c97e45 -->
<g id="edge2" class="edge">
<title>dir_8ee0194d5b7c3d67e4a5758caa1a524d&#45;&gt;dir_b7878ad5ecbf2506f4125b9d34c97e45</title>
<path fill="none" stroke="black" d="M243.33,-218.93C259.96,-210.36 278.13,-197.61 287.59,-180 310.3,-137.71 310.99,-113.91 287.59,-72 276.96,-52.96 256.37,-39.92 238,-31.53"/>
<polygon fill="black" stroke="black" points="239.24,-28.25 228.67,-27.56 236.5,-34.69 239.24,-28.25"/>
<g id="a_edge2&#45;headlabel"><a xlink:href="dir_000019_000003.html" target="_top" xlink:title="2">
<text text-anchor="middle" x="243.66" y="-24.54" font-family="Helvetica,sans-Serif" font-size="10.00">2</text>
</a>
</g>
</g>
<!-- dir_3f615ade772d23cefe5e20dcb18424a2&#45;&gt;dir_b7878ad5ecbf2506f4125b9d34c97e45 -->
<g id="edge7" class="edge">
<title>dir_3f615ade772d23cefe5e20dcb18424a2&#45;&gt;dir_b7878ad5ecbf2506f4125b9d34c97e45</title>
<path fill="none" stroke="black" d="M141.47,-71.7C149.48,-63.05 160.2,-52.45 170.43,-43.03"/>
<polygon fill="black" stroke="black" points="173.02,-45.4 178.1,-36.1 168.33,-40.21 173.02,-45.4"/>
<g id="a_edge7&#45;headlabel"><a xlink:href="dir_000006_000003.html" target="_top" xlink:title="58">
<text text-anchor="middle" x="172.26" y="-47.42" font-family="Helvetica,sans-Serif" font-size="10.00">58</text>
</a>
</g>
</g>
<!-- dir_b7878ad5ecbf2506f4125b9d34c97e45&#45;&gt;dir_3f615ade772d23cefe5e20dcb18424a2 -->
<g id="edge6" class="edge">
<title>dir_b7878ad5ecbf2506f4125b9d34c97e45&#45;&gt;dir_3f615ade772d23cefe5e20dcb18424a2</title>
<path fill="none" stroke="black" d="M189.89,-36.1C181.93,-44.72 171.22,-55.32 160.99,-64.76"/>
<polygon fill="black" stroke="black" points="158.38,-62.4 153.31,-71.7 163.07,-67.59 158.38,-62.4"/>
<g id="a_edge6&#45;headlabel"><a xlink:href="dir_000003_000006.html" target="_top" xlink:title="4">
<text text-anchor="middle" x="159.14" y="-55.38" font-family="Helvetica,sans-Serif" font-size="10.00">4</text>
</a>
</g>
</g>
</g>
</svg>
