<?xml version="1.0" encoding="UTF-8" standalone="no"?>
<!DOCTYPE svg PUBLIC "-//W3C//DTD SVG 1.1//EN"
 "http://www.w3.org/Graphics/SVG/1.1/DTD/svg11.dtd">
<!-- Generated by graphviz version 2.43.0 (0)
 -->
<!-- Title: displaywindow Pages: 1 -->
<svg width="166pt" height="367pt"
 viewBox="0.00 0.00 165.73 367.00" xmlns="http://www.w3.org/2000/svg" xmlns:xlink="http://www.w3.org/1999/xlink">
<g id="graph0" class="graph" transform="scale(1 1) rotate(0) translate(4 363)">
<title>displaywindow</title>
<polygon fill="white" stroke="transparent" points="-4,4 -4,-363 161.73,-363 161.73,4 -4,4"/>
<g id="clust1" class="cluster">
<title>clusterdir_8509b06bafa958d2011203a730bf5778</title>
<g id="a_clust1"><a xlink:href="dir_8509b06bafa958d2011203a730bf5778.html" target="_top" xlink:title="frontend">
<polygon fill="#ddddee" stroke="black" points="25.73,-136 25.73,-351 149.73,-351 149.73,-136 25.73,-136"/>
<text text-anchor="middle" x="87.73" y="-339" font-family="Helvetica,sans-Serif" font-size="10.00">frontend</text>
</a>
</g>
</g>
<!-- dir_38b4e75cb995a89c7f6ee00fff0326d9 -->
<g id="node1" class="node">
<title>dir_38b4e75cb995a89c7f6ee00fff0326d9</title>
<g id="a_node1"><a xlink:href="dir_38b4e75cb995a89c7f6ee00fff0326d9.html" target="_top" xlink:title="display">
<polygon fill="white" stroke="red" points="87.73,-324 33.73,-324 33.73,-288 87.73,-288 87.73,-324"/>
<text text-anchor="middle" x="60.73" y="-303.5" font-family="Helvetica,sans-Serif" font-size="10.00">display</text>
</a>
</g>
</g>
<!-- dir_5e8fab8e4a29505e7cfff91a9e877bd0 -->
<g id="node2" class="node">
<title>dir_5e8fab8e4a29505e7cfff91a9e877bd0</title>
<g id="a_node2"><a xlink:href="dir_5e8fab8e4a29505e7cfff91a9e877bd0.html" target="_top" xlink:title="keychooser">
<polygon fill="white" stroke="red" points="137.73,-180 65.73,-180 65.73,-144 137.73,-144 137.73,-180"/>
<text text-anchor="middle" x="101.73" y="-159.5" font-family="Helvetica,sans-Serif" font-size="10.00">keychooser</text>
</a>
</g>
</g>
<!-- dir_38b4e75cb995a89c7f6ee00fff0326d9&#45;&gt;dir_5e8fab8e4a29505e7cfff91a9e877bd0 -->
<g id="edge6" class="edge">
<title>dir_38b4e75cb995a89c7f6ee00fff0326d9&#45;&gt;dir_5e8fab8e4a29505e7cfff91a9e877bd0</title>
<path fill="none" stroke="black" d="M52.03,-287.92C43.91,-269.49 34.45,-239.6 44.73,-216 49.66,-204.68 58.34,-194.68 67.46,-186.51"/>
<polygon fill="black" stroke="black" points="69.72,-189.19 75.15,-180.09 65.23,-183.81 69.72,-189.19"/>
<g id="a_edge6&#45;headlabel"><a xlink:href="dir_000009_000004.html" target="_top" xlink:title="1">
<text text-anchor="middle" x="68.78" y="-191.17" font-family="Helvetica,sans-Serif" font-size="10.00">1</text>
</a>
</g>
</g>
<!-- dir_7463ea7291c384c8deee9a7027d7d5be -->
<g id="node3" class="node">
<title>dir_7463ea7291c384c8deee9a7027d7d5be</title>
<g id="a_node3"><a xlink:href="dir_7463ea7291c384c8deee9a7027d7d5be.html" target="_top" xlink:title="displaywindow">
<polygon fill="#eeeeff" stroke="black" points="142.23,-252 53.23,-252 53.23,-216 142.23,-216 142.23,-252"/>
<text text-anchor="middle" x="97.73" y="-231.5" font-family="Helvetica,sans-Serif" font-size="10.00">displaywindow</text>
</a>
</g>
</g>
<!-- dir_38b4e75cb995a89c7f6ee00fff0326d9&#45;&gt;dir_7463ea7291c384c8deee9a7027d7d5be -->
<g id="edge7" class="edge">
<title>dir_38b4e75cb995a89c7f6ee00fff0326d9&#45;&gt;dir_7463ea7291c384c8deee9a7027d7d5be</title>
<path fill="none" stroke="black" d="M63.96,-287.7C67.42,-279.56 72.43,-269.69 77.61,-260.7"/>
<polygon fill="black" stroke="black" points="80.63,-262.48 82.79,-252.1 74.63,-258.86 80.63,-262.48"/>
<g id="a_edge7&#45;headlabel"><a xlink:href="dir_000009_000002.html" target="_top" xlink:title="1">
<text text-anchor="middle" x="81.2" y="-264.52" font-family="Helvetica,sans-Serif" font-size="10.00">1</text>
</a>
</g>
</g>
<!-- dir_3f615ade772d23cefe5e20dcb18424a2 -->
<g id="node4" class="node">
<title>dir_3f615ade772d23cefe5e20dcb18424a2</title>
<g id="a_node4"><a xlink:href="dir_3f615ade772d23cefe5e20dcb18424a2.html" target="_top" xlink:title="backend">
<polygon fill="white" stroke="red" points="68.23,-108 11.23,-108 11.23,-72 68.23,-72 68.23,-108"/>
<text text-anchor="middle" x="39.73" y="-87.5" font-family="Helvetica,sans-Serif" font-size="10.00">backend</text>
</a>
</g>
</g>
<!-- dir_38b4e75cb995a89c7f6ee00fff0326d9&#45;&gt;dir_3f615ade772d23cefe5e20dcb18424a2 -->
<g id="edge5" class="edge">
<title>dir_38b4e75cb995a89c7f6ee00fff0326d9&#45;&gt;dir_3f615ade772d23cefe5e20dcb18424a2</title>
<path fill="none" stroke="black" d="M50.11,-287.56C44.63,-277.54 38.53,-264.51 35.73,-252 25.41,-205.92 30.45,-150.56 35.07,-118.22"/>
<polygon fill="black" stroke="black" points="38.55,-118.6 36.6,-108.19 31.63,-117.55 38.55,-118.6"/>
<g id="a_edge5&#45;headlabel"><a xlink:href="dir_000009_000006.html" target="_top" xlink:title="19">
<text text-anchor="middle" x="40.82" y="-120.08" font-family="Helvetica,sans-Serif" font-size="10.00">19</text>
</a>
</g>
</g>
<!-- dir_b7878ad5ecbf2506f4125b9d34c97e45 -->
<g id="node5" class="node">
<title>dir_b7878ad5ecbf2506f4125b9d34c97e45</title>
<g id="a_node5"><a xlink:href="dir_b7878ad5ecbf2506f4125b9d34c97e45.html" target="_top" xlink:title="util">
<polygon fill="none" stroke="black" points="66.73,-36 12.73,-36 12.73,0 66.73,0 66.73,-36"/>
<text text-anchor="middle" x="39.73" y="-15.5" font-family="Helvetica,sans-Serif" font-size="10.00">util</text>
</a>
</g>
</g>
<!-- dir_38b4e75cb995a89c7f6ee00fff0326d9&#45;&gt;dir_b7878ad5ecbf2506f4125b9d34c97e45 -->
<g id="edge8" class="edge">
<title>dir_38b4e75cb995a89c7f6ee00fff0326d9&#45;&gt;dir_b7878ad5ecbf2506f4125b9d34c97e45</title>
<path fill="none" stroke="black" d="M47.16,-287.82C40,-277.89 31.68,-264.85 26.73,-252 3.4,-191.46 8.08,-172.66 2.73,-108 1.41,-92.05 -2.07,-87.26 2.73,-72 5.83,-62.15 11.48,-52.53 17.45,-44.25"/>
<polygon fill="black" stroke="black" points="20.36,-46.21 23.69,-36.15 14.82,-41.94 20.36,-46.21"/>
<g id="a_edge8&#45;headlabel"><a xlink:href="dir_000009_000003.html" target="_top" xlink:title="8">
<text text-anchor="middle" x="20.41" y="-48.29" font-family="Helvetica,sans-Serif" font-size="10.00">8</text>
</a>
</g>
</g>
<!-- dir_5e8fab8e4a29505e7cfff91a9e877bd0&#45;&gt;dir_3f615ade772d23cefe5e20dcb18424a2 -->
<g id="edge1" class="edge">
<title>dir_5e8fab8e4a29505e7cfff91a9e877bd0&#45;&gt;dir_3f615ade772d23cefe5e20dcb18424a2</title>
<path fill="none" stroke="black" d="M86.4,-143.7C78.97,-135.3 69.91,-125.07 61.75,-115.86"/>
<polygon fill="black" stroke="black" points="64.13,-113.27 54.88,-108.1 58.89,-117.91 64.13,-113.27"/>
<g id="a_edge1&#45;headlabel"><a xlink:href="dir_000004_000006.html" target="_top" xlink:title="31">
<text text-anchor="middle" x="68.64" y="-111.58" font-family="Helvetica,sans-Serif" font-size="10.00">31</text>
</a>
</g>
</g>
<!-- dir_5e8fab8e4a29505e7cfff91a9e877bd0&#45;&gt;dir_b7878ad5ecbf2506f4125b9d34c97e45 -->
<g id="edge2" class="edge">
<title>dir_5e8fab8e4a29505e7cfff91a9e877bd0&#45;&gt;dir_b7878ad5ecbf2506f4125b9d34c97e45</title>
<path fill="none" stroke="black" d="M99.02,-143.97C95.66,-125.57 88.97,-95.72 77.73,-72 73.15,-62.33 66.77,-52.58 60.55,-44.12"/>
<polygon fill="black" stroke="black" points="63.3,-41.97 54.45,-36.15 57.74,-46.22 63.3,-41.97"/>
<g id="a_edge2&#45;headlabel"><a xlink:href="dir_000004_000003.html" target="_top" xlink:title="15">
<text text-anchor="middle" x="67.74" y="-40.6" font-family="Helvetica,sans-Serif" font-size="10.00">15</text>
</a>
</g>
</g>
<!-- dir_7463ea7291c384c8deee9a7027d7d5be&#45;&gt;dir_38b4e75cb995a89c7f6ee00fff0326d9 -->
<g id="edge9" class="edge">
<title>dir_7463ea7291c384c8deee9a7027d7d5be&#45;&gt;dir_38b4e75cb995a89c7f6ee00fff0326d9</title>
<path fill="none" stroke="black" d="M94.58,-252.1C91.15,-260.21 86.15,-270.08 80.98,-279.08"/>
<polygon fill="black" stroke="black" points="77.95,-277.32 75.79,-287.7 83.95,-280.93 77.95,-277.32"/>
<g id="a_edge9&#45;headlabel"><a xlink:href="dir_000002_000009.html" target="_top" xlink:title="5">
<text text-anchor="middle" x="77.37" y="-270.28" font-family="Helvetica,sans-Serif" font-size="10.00">5</text>
</a>
</g>
</g>
<!-- dir_7463ea7291c384c8deee9a7027d7d5be&#45;&gt;dir_5e8fab8e4a29505e7cfff91a9e877bd0 -->
<g id="edge11" class="edge">
<title>dir_7463ea7291c384c8deee9a7027d7d5be&#45;&gt;dir_5e8fab8e4a29505e7cfff91a9e877bd0</title>
<path fill="none" stroke="black" d="M98.72,-215.7C99.16,-207.98 99.69,-198.71 100.18,-190.11"/>
<polygon fill="black" stroke="black" points="103.68,-190.29 100.75,-180.1 96.69,-189.89 103.68,-190.29"/>
<g id="a_edge11&#45;headlabel"><a xlink:href="dir_000002_000004.html" target="_top" xlink:title="8">
<text text-anchor="middle" x="106.31" y="-191.54" font-family="Helvetica,sans-Serif" font-size="10.00">8</text>
</a>
</g>
</g>
<!-- dir_7463ea7291c384c8deee9a7027d7d5be&#45;&gt;dir_3f615ade772d23cefe5e20dcb18424a2 -->
<g id="edge10" class="edge">
<title>dir_7463ea7291c384c8deee9a7027d7d5be&#45;&gt;dir_3f615ade772d23cefe5e20dcb18424a2</title>
<path fill="none" stroke="black" d="M81,-215.75C72.46,-206 62.66,-193.15 56.73,-180 47.91,-160.43 43.66,-136.44 41.62,-118.3"/>
<polygon fill="black" stroke="black" points="45.08,-117.73 40.63,-108.11 38.11,-118.4 45.08,-117.73"/>
<g id="a_edge10&#45;headlabel"><a xlink:href="dir_000002_000006.html" target="_top" xlink:title="41">
<text text-anchor="middle" x="48.25" y="-118.53" font-family="Helvetica,sans-Serif" font-size="10.00">41</text>
</a>
</g>
</g>
<!-- dir_7463ea7291c384c8deee9a7027d7d5be&#45;&gt;dir_b7878ad5ecbf2506f4125b9d34c97e45 -->
<g id="edge12" class="edge">
<title>dir_7463ea7291c384c8deee9a7027d7d5be&#45;&gt;dir_b7878ad5ecbf2506f4125b9d34c97e45</title>
<path fill="none" stroke="black" d="M119.88,-215.87C130.14,-206.52 141.25,-194 146.73,-180 153.86,-161.79 153.01,-154.52 146.73,-136 133.5,-96.95 99.12,-63.54 72.87,-42.54"/>
<polygon fill="black" stroke="black" points="74.71,-39.54 64.67,-36.17 70.42,-45.07 74.71,-39.54"/>
<g id="a_edge12&#45;headlabel"><a xlink:href="dir_000002_000003.html" target="_top" xlink:title="29">
<text text-anchor="middle" x="79.29" y="-37.01" font-family="Helvetica,sans-Serif" font-size="10.00">29</text>
</a>
</g>
</g>
<!-- dir_3f615ade772d23cefe5e20dcb18424a2&#45;&gt;dir_b7878ad5ecbf2506f4125b9d34c97e45 -->
<g id="edge4" class="edge">
<title>dir_3f615ade772d23cefe5e20dcb18424a2&#45;&gt;dir_b7878ad5ecbf2506f4125b9d34c97e45</title>
<path fill="none" stroke="black" d="M33.81,-71.7C33.02,-63.98 32.79,-54.71 33.13,-46.11"/>
<polygon fill="black" stroke="black" points="36.63,-46.32 33.84,-36.1 29.65,-45.84 36.63,-46.32"/>
<g id="a_edge4&#45;headlabel"><a xlink:href="dir_000006_000003.html" target="_top" xlink:title="58">
<text text-anchor="middle" x="39.21" y="-47.61" font-family="Helvetica,sans-Serif" font-size="10.00">58</text>
</a>
</g>
</g>
<!-- dir_b7878ad5ecbf2506f4125b9d34c97e45&#45;&gt;dir_3f615ade772d23cefe5e20dcb18424a2 -->
<g id="edge3" class="edge">
<title>dir_b7878ad5ecbf2506f4125b9d34c97e45&#45;&gt;dir_3f615ade772d23cefe5e20dcb18424a2</title>
<path fill="none" stroke="black" d="M45.63,-36.1C46.43,-43.79 46.67,-53.05 46.33,-61.67"/>
<polygon fill="black" stroke="black" points="42.84,-61.48 45.65,-71.7 49.82,-61.96 42.84,-61.48"/>
<g id="a_edge3&#45;headlabel"><a xlink:href="dir_000003_000006.html" target="_top" xlink:title="4">
<text text-anchor="middle" x="40.25" y="-55.2" font-family="Helvetica,sans-Serif" font-size="10.00">4</text>
</a>
</g>
</g>
</g>
</svg>
