<?xml version="1.0" encoding="UTF-8" standalone="no"?>
<!DOCTYPE svg PUBLIC "-//W3C//DTD SVG 1.1//EN"
 "http://www.w3.org/Graphics/SVG/1.1/DTD/svg11.dtd">
<!-- Generated by graphviz version 2.43.0 (0)
 -->
<!-- Title: bookshelfmodel Pages: 1 -->
<svg width="190pt" height="239pt"
 viewBox="0.00 0.00 190.00 239.00" xmlns="http://www.w3.org/2000/svg" xmlns:xlink="http://www.w3.org/1999/xlink">
<g id="graph0" class="graph" transform="scale(1 1) rotate(0) translate(4 235)">
<title>bookshelfmodel</title>
<polygon fill="white" stroke="transparent" points="-4,4 -4,-235 186,-235 186,4 -4,4"/>
<g id="clust1" class="cluster">
<title>clusterdir_3f615ade772d23cefe5e20dcb18424a2</title>
<g id="a_clust1"><a xlink:href="dir_3f615ade772d23cefe5e20dcb18424a2.html" target="_top" xlink:title="backend">
<polygon fill="#ddddee" stroke="black" points="8,-8 8,-223 120,-223 120,-8 8,-8"/>
<text text-anchor="middle" x="64" y="-211" font-family="Helvetica,sans-Serif" font-size="10.00">backend</text>
</a>
</g>
</g>
<!-- dir_6ec4d305043bb2ac35319501d57f2d67 -->
<g id="node1" class="node">
<title>dir_6ec4d305043bb2ac35319501d57f2d67</title>
<g id="a_node1"><a xlink:href="dir_6ec4d305043bb2ac35319501d57f2d67.html" target="_top" xlink:title="drivers">
<polygon fill="none" stroke="black" points="111,-124 57,-124 57,-88 111,-88 111,-124"/>
<text text-anchor="middle" x="84" y="-103.5" font-family="Helvetica,sans-Serif" font-size="10.00">drivers</text>
</a>
</g>
</g>
<!-- dir_8de3944d4b83abb802b44e4617c59fd6 -->
<g id="node2" class="node">
<title>dir_8de3944d4b83abb802b44e4617c59fd6</title>
<g id="a_node2"><a xlink:href="dir_8de3944d4b83abb802b44e4617c59fd6.html" target="_top" xlink:title="config">
<polygon fill="none" stroke="black" points="110,-52 56,-52 56,-16 110,-16 110,-52"/>
<text text-anchor="middle" x="83" y="-31.5" font-family="Helvetica,sans-Serif" font-size="10.00">config</text>
</a>
</g>
</g>
<!-- dir_6ec4d305043bb2ac35319501d57f2d67&#45;&gt;dir_8de3944d4b83abb802b44e4617c59fd6 -->
<g id="edge7" class="edge">
<title>dir_6ec4d305043bb2ac35319501d57f2d67&#45;&gt;dir_8de3944d4b83abb802b44e4617c59fd6</title>
<path fill="none" stroke="black" d="M77.84,-87.7C76.93,-79.98 76.57,-70.71 76.79,-62.11"/>
<polygon fill="black" stroke="black" points="80.29,-62.28 77.35,-52.1 73.3,-61.89 80.29,-62.28"/>
<g id="a_edge7&#45;headlabel"><a xlink:href="dir_000012_000010.html" target="_top" xlink:title="1">
<text text-anchor="middle" x="82.92" y="-63.53" font-family="Helvetica,sans-Serif" font-size="10.00">1</text>
</a>
</g>
</g>
<!-- dir_b7878ad5ecbf2506f4125b9d34c97e45 -->
<g id="node4" class="node">
<title>dir_b7878ad5ecbf2506f4125b9d34c97e45</title>
<g id="a_node4"><a xlink:href="dir_b7878ad5ecbf2506f4125b9d34c97e45.html" target="_top" xlink:title="util">
<polygon fill="none" stroke="black" points="182,-52 128,-52 128,-16 182,-16 182,-52"/>
<text text-anchor="middle" x="155" y="-31.5" font-family="Helvetica,sans-Serif" font-size="10.00">util</text>
</a>
</g>
</g>
<!-- dir_6ec4d305043bb2ac35319501d57f2d67&#45;&gt;dir_b7878ad5ecbf2506f4125b9d34c97e45 -->
<g id="edge8" class="edge">
<title>dir_6ec4d305043bb2ac35319501d57f2d67&#45;&gt;dir_b7878ad5ecbf2506f4125b9d34c97e45</title>
<path fill="none" stroke="black" d="M95.63,-87.7C103.51,-79.05 114.09,-68.45 124.18,-59.03"/>
<polygon fill="black" stroke="black" points="126.74,-61.43 131.76,-52.1 122.01,-56.27 126.74,-61.43"/>
<g id="a_edge8&#45;headlabel"><a xlink:href="dir_000012_000003.html" target="_top" xlink:title="8">
<text text-anchor="middle" x="126" y="-63.46" font-family="Helvetica,sans-Serif" font-size="10.00">8</text>
</a>
</g>
</g>
<!-- dir_8de3944d4b83abb802b44e4617c59fd6&#45;&gt;dir_6ec4d305043bb2ac35319501d57f2d67 -->
<g id="edge1" class="edge">
<title>dir_8de3944d4b83abb802b44e4617c59fd6&#45;&gt;dir_6ec4d305043bb2ac35319501d57f2d67</title>
<path fill="none" stroke="black" d="M89.14,-52.1C90.05,-59.79 90.42,-69.05 90.21,-77.67"/>
<polygon fill="black" stroke="black" points="86.72,-77.52 89.67,-87.7 93.71,-77.9 86.72,-77.52"/>
<g id="a_edge1&#45;headlabel"><a xlink:href="dir_000010_000012.html" target="_top" xlink:title="1">
<text text-anchor="middle" x="84.08" y="-71.28" font-family="Helvetica,sans-Serif" font-size="10.00">1</text>
</a>
</g>
</g>
<!-- dir_8de3944d4b83abb802b44e4617c59fd6&#45;&gt;dir_b7878ad5ecbf2506f4125b9d34c97e45 -->
<g id="edge2" class="edge">
<title>dir_8de3944d4b83abb802b44e4617c59fd6&#45;&gt;dir_b7878ad5ecbf2506f4125b9d34c97e45</title>
<path fill="none" stroke="black" d="M110.28,-34C112.74,-34 115.19,-34 117.65,-34"/>
<polygon fill="black" stroke="black" points="117.75,-37.5 127.75,-34 117.75,-30.5 117.75,-37.5"/>
<g id="a_edge2&#45;headlabel"><a xlink:href="dir_000010_000003.html" target="_top" xlink:title="5">
<text text-anchor="middle" x="114.15" y="-37.84" font-family="Helvetica,sans-Serif" font-size="10.00">5</text>
</a>
</g>
</g>
<!-- dir_7e922bb697d9df6892a9562f607351c1 -->
<g id="node3" class="node">
<title>dir_7e922bb697d9df6892a9562f607351c1</title>
<g id="a_node3"><a xlink:href="dir_7e922bb697d9df6892a9562f607351c1.html" target="_top" xlink:title="bookshelfmodel">
<polygon fill="#eeeeff" stroke="black" points="111.5,-196 16.5,-196 16.5,-160 111.5,-160 111.5,-196"/>
<text text-anchor="middle" x="64" y="-175.5" font-family="Helvetica,sans-Serif" font-size="10.00">bookshelfmodel</text>
</a>
</g>
</g>
<!-- dir_7e922bb697d9df6892a9562f607351c1&#45;&gt;dir_6ec4d305043bb2ac35319501d57f2d67 -->
<g id="edge4" class="edge">
<title>dir_7e922bb697d9df6892a9562f607351c1&#45;&gt;dir_6ec4d305043bb2ac35319501d57f2d67</title>
<path fill="none" stroke="black" d="M68.94,-159.7C71.17,-151.9 73.85,-142.51 76.33,-133.83"/>
<polygon fill="black" stroke="black" points="79.73,-134.68 79.11,-124.1 73,-132.76 79.73,-134.68"/>
<g id="a_edge4&#45;headlabel"><a xlink:href="dir_000007_000012.html" target="_top" xlink:title="13">
<text text-anchor="middle" x="81.47" y="-136.42" font-family="Helvetica,sans-Serif" font-size="10.00">13</text>
</a>
</g>
</g>
<!-- dir_7e922bb697d9df6892a9562f607351c1&#45;&gt;dir_8de3944d4b83abb802b44e4617c59fd6 -->
<g id="edge5" class="edge">
<title>dir_7e922bb697d9df6892a9562f607351c1&#45;&gt;dir_8de3944d4b83abb802b44e4617c59fd6</title>
<path fill="none" stroke="black" d="M56.15,-159.67C49.03,-141.53 40.68,-112.36 48,-88 50.92,-78.28 56.26,-68.7 61.91,-60.41"/>
<polygon fill="black" stroke="black" points="64.76,-62.44 67.82,-52.3 59.1,-58.32 64.76,-62.44"/>
<g id="a_edge5&#45;headlabel"><a xlink:href="dir_000007_000010.html" target="_top" xlink:title="1">
<text text-anchor="middle" x="64.94" y="-64.52" font-family="Helvetica,sans-Serif" font-size="10.00">1</text>
</a>
</g>
</g>
<!-- dir_7e922bb697d9df6892a9562f607351c1&#45;&gt;dir_b7878ad5ecbf2506f4125b9d34c97e45 -->
<g id="edge6" class="edge">
<title>dir_7e922bb697d9df6892a9562f607351c1&#45;&gt;dir_b7878ad5ecbf2506f4125b9d34c97e45</title>
<path fill="none" stroke="black" d="M86.18,-160C97.5,-150.41 110.79,-137.65 120,-124 132.87,-104.93 142.07,-80.43 147.79,-61.96"/>
<polygon fill="black" stroke="black" points="151.22,-62.72 150.69,-52.14 144.5,-60.74 151.22,-62.72"/>
<g id="a_edge6&#45;headlabel"><a xlink:href="dir_000007_000003.html" target="_top" xlink:title="10">
<text text-anchor="middle" x="152.92" y="-64.47" font-family="Helvetica,sans-Serif" font-size="10.00">10</text>
</a>
</g>
</g>
<!-- dir_b7878ad5ecbf2506f4125b9d34c97e45&#45;&gt;dir_6ec4d305043bb2ac35319501d57f2d67 -->
<g id="edge3" class="edge">
<title>dir_b7878ad5ecbf2506f4125b9d34c97e45&#45;&gt;dir_6ec4d305043bb2ac35319501d57f2d67</title>
<path fill="none" stroke="black" d="M143.55,-52.1C135.71,-60.72 125.15,-71.32 115.05,-80.76"/>
<polygon fill="black" stroke="black" points="112.48,-78.36 107.47,-87.7 117.21,-83.53 112.48,-78.36"/>
<g id="a_edge3&#45;headlabel"><a xlink:href="dir_000003_000012.html" target="_top" xlink:title="4">
<text text-anchor="middle" x="113.21" y="-71.34" font-family="Helvetica,sans-Serif" font-size="10.00">4</text>
</a>
</g>
</g>
</g>
</svg>
