<?xml version="1.0" encoding="UTF-8" standalone="no"?>
<!DOCTYPE svg PUBLIC "-//W3C//DTD SVG 1.1//EN"
 "http://www.w3.org/Graphics/SVG/1.1/DTD/svg11.dtd">
<!-- Generated by graphviz version 2.43.0 (0)
 -->
<!-- Title: backend Pages: 1 -->
<svg width="384pt" height="416pt"
 viewBox="0.00 0.00 384.00 416.00" xmlns="http://www.w3.org/2000/svg" xmlns:xlink="http://www.w3.org/1999/xlink">

<svg id="main" version="1.1" xmlns="http://www.w3.org/2000/svg" xmlns:xlink="http://www.w3.org/1999/xlink" xml:space="preserve" onload="init(evt)">
<style type="text/css"><![CDATA[
.node, .edge {opacity: 0.7;}
.node.selected, .edge.selected {opacity: 1;}
.edge:hover path { stroke: red; }
.edge:hover polygon { stroke: red; fill: red; }
]]></style>
<script type="application/ecmascript" xlink:href="svg.min.js"/>
<svg id="graph" class="graph">
<g id="graph0" class="graph" transform="scale(1 1) rotate(0) translate(4 412)">
<title>backend</title>
<g id="clust1" class="cluster">
<title>clusterdir_68267d1309a1af8e8297ef4c3efbcdba</title>
<g id="a_clust1"><a xlink:href="dir_68267d1309a1af8e8297ef4c3efbcdba.html" target="_top" xlink:title="src">
<polygon fill="#edf0f7" stroke="#404040" stroke-dasharray="5,2" points="8,-8 8,-400 368,-400 368,-8 8,-8"/>
<text text-anchor="middle" x="188" y="-388" font-family="Helvetica,sans-Serif" font-size="10.00">src</text>
</a>
</g>
</g>
<g id="clust2" class="cluster">
<title>clusterdir_3f615ade772d23cefe5e20dcb18424a2</title>
<g id="a_clust2"><a xlink:href="dir_3f615ade772d23cefe5e20dcb18424a2.html" target="_top">
<polygon fill="#edf0f7" stroke="#404040" stroke-width="2" points="16,-63 16,-373 262,-373 262,-63 16,-63"/>
</a>
</g>
</g>
<!-- dir_b7878ad5ecbf2506f4125b9d34c97e45 -->
<g id="node1" class="node">
<title>dir_b7878ad5ecbf2506f4125b9d34c97e45</title>
<g id="a_node1"><a xlink:href="dir_b7878ad5ecbf2506f4125b9d34c97e45.html" target="_top" xlink:title="util">
<polygon fill="#a2b4d6" stroke="#404040" points="295,-35 263,-35 263,-16 295,-16 295,-35"/>
<text text-anchor="middle" x="279" y="-23" font-family="Helvetica,sans-Serif" font-size="10.00">util</text>
</a>
</g>
</g>
<!-- dir_3f615ade772d23cefe5e20dcb18424a2 -->
<g id="node2" class="node">
<title>dir_3f615ade772d23cefe5e20dcb18424a2</title>
<text text-anchor="middle" x="191" y="-298" font-family="Helvetica,sans-Serif" font-size="10.00">backend</text>
</g>
<!-- dir_3f615ade772d23cefe5e20dcb18424a2&#45;&gt;dir_b7878ad5ecbf2506f4125b9d34c97e45 -->
<g id="edge5" class="edge">
<title>dir_3f615ade772d23cefe5e20dcb18424a2&#45;&gt;dir_b7878ad5ecbf2506f4125b9d34c97e45</title>
<g id="a_edge5"><a xlink:href="dir_000001_000022.html" target="_top">
<path fill="none" stroke="#63b8ff" d="M216.9,-290.91C254.3,-276.68 319,-244.42 319,-191.5 319,-191.5 319,-191.5 319,-134.5 319,-100.67 301.53,-64.38 289.68,-43.66"/>
<polygon fill="#63b8ff" stroke="#63b8ff" points="292.68,-41.86 284.56,-35.06 286.66,-45.44 292.68,-41.86"/>
</a>
</g>
<g id="a_edge5&#45;headlabel"><a xlink:href="dir_000001_000022.html" target="_top" xlink:title="56">
<text text-anchor="middle" x="296.96" y="-41" font-family="Helvetica,sans-Serif" font-size="10.00" fill="#63b8ff">56</text>
</a>
</g>
</g>
<!-- dir_8de3944d4b83abb802b44e4617c59fd6 -->
<g id="node4" class="node">
<title>dir_8de3944d4b83abb802b44e4617c59fd6</title>
<g id="a_node4"><a xlink:href="dir_8de3944d4b83abb802b44e4617c59fd6.html" target="_top" xlink:title="config">
<polygon fill="#a2b4d6" stroke="#404040" points="214,-255 168,-255 168,-236 214,-236 214,-255"/>
<text text-anchor="middle" x="191" y="-243" font-family="Helvetica,sans-Serif" font-size="10.00">config</text>
</a>
</g>
</g>
<!-- dir_3f615ade772d23cefe5e20dcb18424a2&#45;&gt;dir_8de3944d4b83abb802b44e4617c59fd6 -->
<g id="edge4" class="edge">
<title>dir_3f615ade772d23cefe5e20dcb18424a2&#45;&gt;dir_8de3944d4b83abb802b44e4617c59fd6</title>
<g id="a_edge4"><a xlink:href="dir_000001_000005.html" target="_top">
<path fill="none" stroke="#63b8ff" d="M191,-290.75C191,-283.8 191,-273.85 191,-265.13"/>
<polygon fill="#63b8ff" stroke="#63b8ff" points="194.5,-265.09 191,-255.09 187.5,-265.09 194.5,-265.09"/>
</a>
</g>
<g id="a_edge4&#45;headlabel"><a xlink:href="dir_000001_000005.html" target="_top" xlink:title="14">
<text text-anchor="middle" x="197.34" y="-266.18" font-family="Helvetica,sans-Serif" font-size="10.00" fill="#63b8ff">14</text>
</a>
</g>
</g>
<!-- dir_6ec4d305043bb2ac35319501d57f2d67 -->
<g id="node5" class="node">
<title>dir_6ec4d305043bb2ac35319501d57f2d67</title>
<g id="a_node5"><a xlink:href="dir_6ec4d305043bb2ac35319501d57f2d67.html" target="_top" xlink:title="drivers">
<polygon fill="#a2b4d6" stroke="#404040" points="154,-200 104,-200 104,-181 154,-181 154,-200"/>
<text text-anchor="middle" x="129" y="-188" font-family="Helvetica,sans-Serif" font-size="10.00">drivers</text>
</a>
</g>
</g>
<!-- dir_3f615ade772d23cefe5e20dcb18424a2&#45;&gt;dir_6ec4d305043bb2ac35319501d57f2d67 -->
<g id="edge3" class="edge">
<title>dir_3f615ade772d23cefe5e20dcb18424a2&#45;&gt;dir_6ec4d305043bb2ac35319501d57f2d67</title>
<g id="a_edge3"><a xlink:href="dir_000001_000008.html" target="_top">
<path fill="none" stroke="#63b8ff" d="M184.14,-290.95C177.3,-282.22 166.73,-268.12 159,-255 150.31,-240.25 142.12,-222.57 136.51,-209.61"/>
<polygon fill="#63b8ff" stroke="#63b8ff" points="139.72,-208.22 132.59,-200.38 133.27,-210.96 139.72,-208.22"/>
</a>
</g>
<g id="a_edge3&#45;headlabel"><a xlink:href="dir_000001_000008.html" target="_top" xlink:title="53">
<text text-anchor="middle" x="143.74" y="-207.92" font-family="Helvetica,sans-Serif" font-size="10.00" fill="#63b8ff">53</text>
</a>
</g>
</g>
<!-- dir_01d18f1cc77c9a191a0f93995e355f74 -->
<g id="node7" class="node">
<title>dir_01d18f1cc77c9a191a0f93995e355f74</title>
<g id="a_node7"><a xlink:href="dir_01d18f1cc77c9a191a0f93995e355f74.html" target="_top" xlink:title="keys">
<polygon fill="#a2b4d6" stroke="#404040" points="63.5,-90 24.5,-90 24.5,-71 63.5,-71 63.5,-90"/>
<text text-anchor="middle" x="44" y="-78" font-family="Helvetica,sans-Serif" font-size="10.00">keys</text>
</a>
</g>
</g>
<!-- dir_3f615ade772d23cefe5e20dcb18424a2&#45;&gt;dir_01d18f1cc77c9a191a0f93995e355f74 -->
<g id="edge1" class="edge">
<title>dir_3f615ade772d23cefe5e20dcb18424a2&#45;&gt;dir_01d18f1cc77c9a191a0f93995e355f74</title>
<g id="a_edge1"><a xlink:href="dir_000001_000013.html" target="_top">
<path fill="none" stroke="#63b8ff" d="M181.67,-290.8C172.25,-281.96 157.37,-267.76 145,-255 122.01,-231.28 112.89,-227.77 95,-200 73.76,-167.01 57.71,-123.69 49.69,-99.61"/>
<polygon fill="#63b8ff" stroke="#63b8ff" points="52.99,-98.45 46.58,-90.02 46.33,-100.61 52.99,-98.45"/>
</a>
</g>
<g id="a_edge1&#45;headlabel"><a xlink:href="dir_000001_000013.html" target="_top" xlink:title="18">
<text text-anchor="middle" x="56.8" y="-98.5" font-family="Helvetica,sans-Serif" font-size="10.00" fill="#63b8ff">18</text>
</a>
</g>
</g>
<!-- dir_10540e180691539d14a045ae194980ae -->
<g id="node8" class="node">
<title>dir_10540e180691539d14a045ae194980ae</title>
<g id="a_node8"><a xlink:href="dir_10540e180691539d14a045ae194980ae.html" target="_top" xlink:title="managers">
<polygon fill="#a2b4d6" stroke="#404040" points="229.5,-145 164.5,-145 164.5,-126 229.5,-126 229.5,-145"/>
<text text-anchor="middle" x="197" y="-133" font-family="Helvetica,sans-Serif" font-size="10.00">managers</text>
</a>
</g>
</g>
<!-- dir_3f615ade772d23cefe5e20dcb18424a2&#45;&gt;dir_10540e180691539d14a045ae194980ae -->
<g id="edge2" class="edge">
<title>dir_3f615ade772d23cefe5e20dcb18424a2&#45;&gt;dir_10540e180691539d14a045ae194980ae</title>
<g id="a_edge2"><a xlink:href="dir_000001_000014.html" target="_top">
<path fill="none" stroke="#63b8ff" d="M199.75,-290.9C207.56,-282.56 218.45,-269.13 223,-255 234.25,-220.07 218.15,-177.8 206.71,-154.36"/>
<polygon fill="#63b8ff" stroke="#63b8ff" points="209.73,-152.57 202.04,-145.27 203.5,-155.77 209.73,-152.57"/>
</a>
</g>
<g id="a_edge2&#45;headlabel"><a xlink:href="dir_000001_000014.html" target="_top" xlink:title="24">
<text text-anchor="middle" x="213.89" y="-151.97" font-family="Helvetica,sans-Serif" font-size="10.00" fill="#63b8ff">24</text>
</a>
</g>
</g>
<!-- dir_7e922bb697d9df6892a9562f607351c1 -->
<g id="node3" class="node">
<title>dir_7e922bb697d9df6892a9562f607351c1</title>
<g id="a_node3"><a xlink:href="dir_7e922bb697d9df6892a9562f607351c1.html" target="_top" xlink:title="bookshelfmodel">
<polygon fill="#a2b4d6" stroke="#404040" points="239.5,-90 144.5,-90 144.5,-71 239.5,-71 239.5,-90"/>
<text text-anchor="middle" x="192" y="-78" font-family="Helvetica,sans-Serif" font-size="10.00">bookshelfmodel</text>
</a>
</g>
</g>
<!-- dir_7e922bb697d9df6892a9562f607351c1&#45;&gt;dir_b7878ad5ecbf2506f4125b9d34c97e45 -->
<g id="edge8" class="edge">
<title>dir_7e922bb697d9df6892a9562f607351c1&#45;&gt;dir_b7878ad5ecbf2506f4125b9d34c97e45</title>
<g id="a_edge8"><a xlink:href="dir_000003_000022.html" target="_top">
<path fill="none" stroke="#63b8ff" d="M205.98,-70.98C219.47,-62.77 240.13,-50.18 256.04,-40.49"/>
<polygon fill="#63b8ff" stroke="#63b8ff" points="258.05,-43.36 264.77,-35.17 254.41,-37.38 258.05,-43.36"/>
</a>
</g>
<g id="a_edge8&#45;headlabel"><a xlink:href="dir_000003_000022.html" target="_top" xlink:title="8">
<text text-anchor="middle" x="256.46" y="-45.16" font-family="Helvetica,sans-Serif" font-size="10.00" fill="#63b8ff">8</text>
</a>
</g>
</g>
<!-- dir_7e922bb697d9df6892a9562f607351c1&#45;&gt;dir_8de3944d4b83abb802b44e4617c59fd6 -->
<g id="edge7" class="edge">
<title>dir_7e922bb697d9df6892a9562f607351c1&#45;&gt;dir_8de3944d4b83abb802b44e4617c59fd6</title>
<g id="a_edge7"><a xlink:href="dir_000003_000005.html" target="_top">
<path fill="none" stroke="#63b8ff" d="M205.78,-90.18C216.82,-98.01 231.49,-110.65 238,-126 241.3,-133.77 240.12,-136.83 238,-145 233.41,-162.72 226.04,-164.56 218,-181 210.69,-195.97 203.35,-213.41 198.18,-226.22"/>
<polygon fill="#63b8ff" stroke="#63b8ff" points="194.83,-225.16 194.38,-235.74 201.34,-227.75 194.83,-225.16"/>
</a>
</g>
<g id="a_edge7&#45;headlabel"><a xlink:href="dir_000003_000005.html" target="_top" xlink:title="1">
<text text-anchor="middle" x="193.53" y="-218.27" font-family="Helvetica,sans-Serif" font-size="10.00" fill="#63b8ff">1</text>
</a>
</g>
</g>
<!-- dir_7e922bb697d9df6892a9562f607351c1&#45;&gt;dir_6ec4d305043bb2ac35319501d57f2d67 -->
<g id="edge6" class="edge">
<title>dir_7e922bb697d9df6892a9562f607351c1&#45;&gt;dir_6ec4d305043bb2ac35319501d57f2d67</title>
<g id="a_edge6"><a xlink:href="dir_000003_000008.html" target="_top">
<path fill="none" stroke="#63b8ff" d="M183.48,-90.09C175.35,-98.63 163.18,-112.39 155,-126 146.37,-140.36 139.38,-158.1 134.82,-171.18"/>
<polygon fill="#63b8ff" stroke="#63b8ff" points="131.43,-170.3 131.59,-180.89 138.07,-172.51 131.43,-170.3"/>
</a>
</g>
<g id="a_edge6&#45;headlabel"><a xlink:href="dir_000003_000008.html" target="_top" xlink:title="12">
<text text-anchor="middle" x="129.87" y="-163.49" font-family="Helvetica,sans-Serif" font-size="10.00" fill="#63b8ff">12</text>
</a>
</g>
</g>
<!-- dir_8de3944d4b83abb802b44e4617c59fd6&#45;&gt;dir_b7878ad5ecbf2506f4125b9d34c97e45 -->
<g id="edge11" class="edge">
<title>dir_8de3944d4b83abb802b44e4617c59fd6&#45;&gt;dir_b7878ad5ecbf2506f4125b9d34c97e45</title>
<g id="a_edge11"><a xlink:href="dir_000005_000022.html" target="_top">
<path fill="none" stroke="#63b8ff" d="M197.97,-235.8C215.44,-213.34 260.81,-150.89 276,-90 279.64,-75.41 280.25,-58.35 280.03,-45.6"/>
<polygon fill="#63b8ff" stroke="#63b8ff" points="283.52,-45.15 279.66,-35.28 276.52,-45.4 283.52,-45.15"/>
</a>
</g>
<g id="a_edge11&#45;headlabel"><a xlink:href="dir_000005_000022.html" target="_top" xlink:title="5">
<text text-anchor="middle" x="286.49" y="-46.14" font-family="Helvetica,sans-Serif" font-size="10.00" fill="#63b8ff">5</text>
</a>
</g>
</g>
<!-- dir_8de3944d4b83abb802b44e4617c59fd6&#45;&gt;dir_6ec4d305043bb2ac35319501d57f2d67 -->
<g id="edge10" class="edge">
<title>dir_8de3944d4b83abb802b44e4617c59fd6&#45;&gt;dir_6ec4d305043bb2ac35319501d57f2d67</title>
<g id="a_edge10"><a xlink:href="dir_000005_000008.html" target="_top">
<path fill="none" stroke="#63b8ff" d="M175.92,-235.98C165.24,-228.3 151.42,-216.81 141.38,-207.42"/>
<polygon fill="#63b8ff" stroke="#63b8ff" points="143.58,-204.68 133.99,-200.17 138.68,-209.67 143.58,-204.68"/>
</a>
</g>
<g id="a_edge10&#45;headlabel"><a xlink:href="dir_000005_000008.html" target="_top" xlink:title="1">
<text text-anchor="middle" x="148.14" y="-202.67" font-family="Helvetica,sans-Serif" font-size="10.00" fill="#63b8ff">1</text>
</a>
</g>
</g>
<!-- dir_8de3944d4b83abb802b44e4617c59fd6&#45;&gt;dir_10540e180691539d14a045ae194980ae -->
<g id="edge9" class="edge">
<title>dir_8de3944d4b83abb802b44e4617c59fd6&#45;&gt;dir_10540e180691539d14a045ae194980ae</title>
<g id="a_edge9"><a xlink:href="dir_000005_000014.html" target="_top">
<path fill="none" stroke="#63b8ff" d="M187.58,-235.66C185.29,-218.17 187.03,-178.8 190.69,-155.27"/>
<polygon fill="#63b8ff" stroke="#63b8ff" points="194.19,-155.64 192.64,-145.16 187.31,-154.32 194.19,-155.64"/>
</a>
</g>
<g id="a_edge9&#45;headlabel"><a xlink:href="dir_000005_000014.html" target="_top" xlink:title="1">
<text text-anchor="middle" x="196.3" y="-157.21" font-family="Helvetica,sans-Serif" font-size="10.00" fill="#63b8ff">1</text>
</a>
</g>
</g>
<!-- dir_6ec4d305043bb2ac35319501d57f2d67&#45;&gt;dir_b7878ad5ecbf2506f4125b9d34c97e45 -->
<g id="edge15" class="edge">
<title>dir_6ec4d305043bb2ac35319501d57f2d67&#45;&gt;dir_b7878ad5ecbf2506f4125b9d34c97e45</title>
<g id="a_edge15"><a xlink:href="dir_000008_000022.html" target="_top">
<path fill="none" stroke="#63b8ff" d="M154.46,-181.63C182.68,-172.48 225.81,-157.09 238,-145 265.47,-117.76 274.56,-71.24 277.55,-45.33"/>
<polygon fill="#63b8ff" stroke="#63b8ff" points="281.04,-45.6 278.52,-35.31 274.07,-44.93 281.04,-45.6"/>
</a>
</g>
<g id="a_edge15&#45;headlabel"><a xlink:href="dir_000008_000022.html" target="_top" xlink:title="8">
<text text-anchor="middle" x="283.52" y="-46.95" font-family="Helvetica,sans-Serif" font-size="10.00" fill="#63b8ff">8</text>
</a>
</g>
</g>
<!-- dir_6ec4d305043bb2ac35319501d57f2d67&#45;&gt;dir_8de3944d4b83abb802b44e4617c59fd6 -->
<g id="edge14" class="edge">
<title>dir_6ec4d305043bb2ac35319501d57f2d67&#45;&gt;dir_8de3944d4b83abb802b44e4617c59fd6</title>
<g id="a_edge14"><a xlink:href="dir_000008_000005.html" target="_top">
<path fill="none" stroke="#63b8ff" d="M144.18,-200.09C154.82,-207.75 168.56,-219.18 178.56,-228.52"/>
<polygon fill="#63b8ff" stroke="#63b8ff" points="176.34,-231.24 185.93,-235.75 181.24,-226.25 176.34,-231.24"/>
</a>
</g>
<g id="a_edge14&#45;headlabel"><a xlink:href="dir_000008_000005.html" target="_top" xlink:title="1">
<text text-anchor="middle" x="171.78" y="-228.25" font-family="Helvetica,sans-Serif" font-size="10.00" fill="#63b8ff">1</text>
</a>
</g>
</g>
<!-- dir_6ec4d305043bb2ac35319501d57f2d67&#45;&gt;dir_01d18f1cc77c9a191a0f93995e355f74 -->
<g id="edge12" class="edge">
<title>dir_6ec4d305043bb2ac35319501d57f2d67&#45;&gt;dir_01d18f1cc77c9a191a0f93995e355f74</title>
<g id="a_edge12"><a xlink:href="dir_000008_000013.html" target="_top">
<path fill="none" stroke="#63b8ff" d="M118.13,-180.66C100.72,-162.77 68.24,-122 52.43,-98.69"/>
<polygon fill="#63b8ff" stroke="#63b8ff" points="55.29,-96.67 46.94,-90.16 49.41,-100.46 55.29,-96.67"/>
</a>
</g>
<g id="a_edge12&#45;headlabel"><a xlink:href="dir_000008_000013.html" target="_top" xlink:title="5">
<text text-anchor="middle" x="59.63" y="-95.65" font-family="Helvetica,sans-Serif" font-size="10.00" fill="#63b8ff">5</text>
</a>
</g>
</g>
<!-- dir_6ec4d305043bb2ac35319501d57f2d67&#45;&gt;dir_10540e180691539d14a045ae194980ae -->
<g id="edge13" class="edge">
<title>dir_6ec4d305043bb2ac35319501d57f2d67&#45;&gt;dir_10540e180691539d14a045ae194980ae</title>
<g id="a_edge13"><a xlink:href="dir_000008_000014.html" target="_top">
<path fill="none" stroke="#63b8ff" d="M134.81,-180.98C143.38,-172.92 158.8,-160.65 172.26,-151.03"/>
<polygon fill="#63b8ff" stroke="#63b8ff" points="174.5,-153.74 180.73,-145.17 170.51,-147.98 174.5,-153.74"/>
</a>
</g>
<g id="a_edge13&#45;headlabel"><a xlink:href="dir_000008_000014.html" target="_top" xlink:title="2">
<text text-anchor="middle" x="173.16" y="-155.62" font-family="Helvetica,sans-Serif" font-size="10.00" fill="#63b8ff">2</text>
</a>
</g>
</g>
<!-- dir_ce499b53d7ae20affef1cc1ed540badc -->
<g id="node6" class="node">
<title>dir_ce499b53d7ae20affef1cc1ed540badc</title>
<g id="a_node6"><a xlink:href="dir_ce499b53d7ae20affef1cc1ed540badc.html" target="_top" xlink:title="filters">
<polygon fill="#a2b4d6" stroke="#404040" points="126,-90 82,-90 82,-71 126,-71 126,-90"/>
<text text-anchor="middle" x="104" y="-78" font-family="Helvetica,sans-Serif" font-size="10.00">filters</text>
</a>
</g>
</g>
<!-- dir_ce499b53d7ae20affef1cc1ed540badc&#45;&gt;dir_b7878ad5ecbf2506f4125b9d34c97e45 -->
<g id="edge19" class="edge">
<title>dir_ce499b53d7ae20affef1cc1ed540badc&#45;&gt;dir_b7878ad5ecbf2506f4125b9d34c97e45</title>
<g id="a_edge19"><a xlink:href="dir_000010_000022.html" target="_top">
<path fill="none" stroke="#63b8ff" d="M118.48,-70.86C123.58,-68.08 129.43,-65.15 135,-63 174.85,-47.6 223.43,-36.85 252.75,-31.18"/>
<polygon fill="#63b8ff" stroke="#63b8ff" points="253.45,-34.61 262.63,-29.32 252.15,-27.73 253.45,-34.61"/>
</a>
</g>
<g id="a_edge19&#45;headlabel"><a xlink:href="dir_000010_000022.html" target="_top" xlink:title="2">
<text text-anchor="middle" x="250.44" y="-35.56" font-family="Helvetica,sans-Serif" font-size="10.00" fill="#63b8ff">2</text>
</a>
</g>
</g>
<!-- dir_ce499b53d7ae20affef1cc1ed540badc&#45;&gt;dir_8de3944d4b83abb802b44e4617c59fd6 -->
<g id="edge18" class="edge">
<title>dir_ce499b53d7ae20affef1cc1ed540badc&#45;&gt;dir_8de3944d4b83abb802b44e4617c59fd6</title>
<g id="a_edge18"><a xlink:href="dir_000010_000005.html" target="_top">
<path fill="none" stroke="#63b8ff" d="M109.57,-90.09C120.48,-107.08 145.17,-146.36 163,-181 170.67,-195.9 178.27,-213.35 183.61,-226.18"/>
<polygon fill="#63b8ff" stroke="#63b8ff" points="180.49,-227.79 187.52,-235.72 186.96,-225.14 180.49,-227.79"/>
</a>
</g>
<g id="a_edge18&#45;headlabel"><a xlink:href="dir_000010_000005.html" target="_top" xlink:title="3">
<text text-anchor="middle" x="176.5" y="-223.04" font-family="Helvetica,sans-Serif" font-size="10.00" fill="#63b8ff">3</text>
</a>
</g>
</g>
<!-- dir_ce499b53d7ae20affef1cc1ed540badc&#45;&gt;dir_6ec4d305043bb2ac35319501d57f2d67 -->
<g id="edge17" class="edge">
<title>dir_ce499b53d7ae20affef1cc1ed540badc&#45;&gt;dir_6ec4d305043bb2ac35319501d57f2d67</title>
<g id="a_edge17"><a xlink:href="dir_000010_000008.html" target="_top">
<path fill="none" stroke="#63b8ff" d="M106,-90.16C110.04,-107.58 119.21,-147.2 124.67,-170.8"/>
<polygon fill="#63b8ff" stroke="#63b8ff" points="121.29,-171.71 126.95,-180.66 128.11,-170.13 121.29,-171.71"/>
</a>
</g>
<g id="a_edge17&#45;headlabel"><a xlink:href="dir_000010_000008.html" target="_top" xlink:title="4">
<text text-anchor="middle" x="117.71" y="-166.35" font-family="Helvetica,sans-Serif" font-size="10.00" fill="#63b8ff">4</text>
</a>
</g>
</g>
<!-- dir_ce499b53d7ae20affef1cc1ed540badc&#45;&gt;dir_10540e180691539d14a045ae194980ae -->
<g id="edge16" class="edge">
<title>dir_ce499b53d7ae20affef1cc1ed540badc&#45;&gt;dir_10540e180691539d14a045ae194980ae</title>
<g id="a_edge16"><a xlink:href="dir_000010_000014.html" target="_top">
<path fill="none" stroke="#63b8ff" d="M124.36,-90.17C140.52,-98.37 162.65,-110.81 178.34,-120.42"/>
<polygon fill="#63b8ff" stroke="#63b8ff" points="176.85,-123.62 187.17,-125.98 180.58,-117.69 176.85,-123.62"/>
</a>
</g>
<g id="a_edge16&#45;headlabel"><a xlink:href="dir_000010_000014.html" target="_top" xlink:title="7">
<text text-anchor="middle" x="172.29" y="-121.6" font-family="Helvetica,sans-Serif" font-size="10.00" fill="#63b8ff">7</text>
</a>
</g>
</g>
<!-- dir_01d18f1cc77c9a191a0f93995e355f74&#45;&gt;dir_b7878ad5ecbf2506f4125b9d34c97e45 -->
<g id="edge21" class="edge">
<title>dir_01d18f1cc77c9a191a0f93995e355f74&#45;&gt;dir_b7878ad5ecbf2506f4125b9d34c97e45</title>
<g id="a_edge21"><a xlink:href="dir_000013_000022.html" target="_top">
<path fill="none" stroke="#63b8ff" d="M56.82,-70.95C61.71,-68.03 67.44,-65.01 73,-63 134.99,-40.63 212.59,-31.63 252.53,-28.29"/>
<polygon fill="#63b8ff" stroke="#63b8ff" points="253.06,-31.76 262.75,-27.49 252.51,-24.78 253.06,-31.76"/>
</a>
</g>
<g id="a_edge21&#45;headlabel"><a xlink:href="dir_000013_000022.html" target="_top" xlink:title="6">
<text text-anchor="middle" x="249.7" y="-32.37" font-family="Helvetica,sans-Serif" font-size="10.00" fill="#63b8ff">6</text>
</a>
</g>
</g>
<!-- dir_01d18f1cc77c9a191a0f93995e355f74&#45;&gt;dir_6ec4d305043bb2ac35319501d57f2d67 -->
<g id="edge20" class="edge">
<title>dir_01d18f1cc77c9a191a0f93995e355f74&#45;&gt;dir_6ec4d305043bb2ac35319501d57f2d67</title>
<g id="a_edge20"><a xlink:href="dir_000013_000008.html" target="_top">
<path fill="none" stroke="#63b8ff" d="M54.69,-90.16C72.01,-107.89 104.49,-148.64 120.41,-172.07"/>
<polygon fill="#63b8ff" stroke="#63b8ff" points="117.59,-174.16 125.96,-180.66 123.47,-170.36 117.59,-174.16"/>
</a>
</g>
<g id="a_edge20&#45;headlabel"><a xlink:href="dir_000013_000008.html" target="_top" xlink:title="5">
<text text-anchor="middle" x="113.25" y="-170.18" font-family="Helvetica,sans-Serif" font-size="10.00" fill="#63b8ff">5</text>
</a>
</g>
</g>
<!-- dir_10540e180691539d14a045ae194980ae&#45;&gt;dir_b7878ad5ecbf2506f4125b9d34c97e45 -->
<g id="edge26" class="edge">
<title>dir_10540e180691539d14a045ae194980ae&#45;&gt;dir_b7878ad5ecbf2506f4125b9d34c97e45</title>
<g id="a_edge26"><a xlink:href="dir_000014_000022.html" target="_top">
<path fill="none" stroke="#63b8ff" d="M209.9,-125.86C221.33,-117.69 237.89,-104.54 249,-90 259.51,-76.24 267.59,-58.2 272.71,-44.87"/>
<polygon fill="#63b8ff" stroke="#63b8ff" points="276.04,-45.95 276.16,-35.35 269.46,-43.56 276.04,-45.95"/>
</a>
</g>
<g id="a_edge26&#45;headlabel"><a xlink:href="dir_000014_000022.html" target="_top" xlink:title="10">
<text text-anchor="middle" x="277.48" y="-47.8" font-family="Helvetica,sans-Serif" font-size="10.00" fill="#63b8ff">10</text>
</a>
</g>
</g>
<!-- dir_10540e180691539d14a045ae194980ae&#45;&gt;dir_7e922bb697d9df6892a9562f607351c1 -->
<g id="edge24" class="edge">
<title>dir_10540e180691539d14a045ae194980ae&#45;&gt;dir_7e922bb697d9df6892a9562f607351c1</title>
<g id="a_edge24"><a xlink:href="dir_000014_000003.html" target="_top">
<path fill="none" stroke="#63b8ff" d="M196.17,-125.75C195.52,-118.8 194.58,-108.85 193.76,-100.13"/>
<polygon fill="#63b8ff" stroke="#63b8ff" points="197.23,-99.72 192.81,-90.09 190.27,-100.37 197.23,-99.72"/>
</a>
</g>
<g id="a_edge24&#45;headlabel"><a xlink:href="dir_000014_000003.html" target="_top" xlink:title="1">
<text text-anchor="middle" x="200.4" y="-100.53" font-family="Helvetica,sans-Serif" font-size="10.00" fill="#63b8ff">1</text>
</a>
</g>
</g>
<!-- dir_10540e180691539d14a045ae194980ae&#45;&gt;dir_8de3944d4b83abb802b44e4617c59fd6 -->
<g id="edge25" class="edge">
<title>dir_10540e180691539d14a045ae194980ae&#45;&gt;dir_8de3944d4b83abb802b44e4617c59fd6</title>
<g id="a_edge25"><a xlink:href="dir_000014_000005.html" target="_top">
<path fill="none" stroke="#63b8ff" d="M200.4,-145.16C202.73,-162.58 200.98,-202.2 197.29,-225.8"/>
<polygon fill="#63b8ff" stroke="#63b8ff" points="193.85,-225.18 195.4,-235.66 200.72,-226.5 193.85,-225.18"/>
</a>
</g>
<g id="a_edge25&#45;headlabel"><a xlink:href="dir_000014_000005.html" target="_top" xlink:title="3">
<text text-anchor="middle" x="191.74" y="-218.62" font-family="Helvetica,sans-Serif" font-size="10.00" fill="#63b8ff">3</text>
</a>
</g>
</g>
<!-- dir_10540e180691539d14a045ae194980ae&#45;&gt;dir_6ec4d305043bb2ac35319501d57f2d67 -->
<g id="edge23" class="edge">
<title>dir_10540e180691539d14a045ae194980ae&#45;&gt;dir_6ec4d305043bb2ac35319501d57f2d67</title>
<g id="a_edge23"><a xlink:href="dir_000014_000008.html" target="_top">
<path fill="none" stroke="#63b8ff" d="M191.02,-145.17C182.37,-153.29 166.92,-165.57 153.48,-175.15"/>
<polygon fill="#63b8ff" stroke="#63b8ff" points="151.28,-172.42 145.04,-180.98 155.26,-178.18 151.28,-172.42"/>
</a>
</g>
<g id="a_edge23&#45;headlabel"><a xlink:href="dir_000014_000008.html" target="_top" xlink:title="12">
<text text-anchor="middle" x="152.62" y="-165.54" font-family="Helvetica,sans-Serif" font-size="10.00" fill="#63b8ff">12</text>
</a>
</g>
</g>
<!-- dir_10540e180691539d14a045ae194980ae&#45;&gt;dir_ce499b53d7ae20affef1cc1ed540badc -->
<g id="edge27" class="edge">
<title>dir_10540e180691539d14a045ae194980ae&#45;&gt;dir_ce499b53d7ae20affef1cc1ed540badc</title>
<g id="a_edge27"><a xlink:href="dir_000014_000010.html" target="_top">
<path fill="none" stroke="#63b8ff" d="M176.94,-125.98C160.86,-117.84 138.73,-105.41 122.96,-95.76"/>
<polygon fill="#63b8ff" stroke="#63b8ff" points="124.39,-92.53 114.07,-90.17 120.67,-98.46 124.39,-92.53"/>
</a>
</g>
<g id="a_edge27&#45;headlabel"><a xlink:href="dir_000014_000010.html" target="_top" xlink:title="5">
<text text-anchor="middle" x="128.95" y="-89.54" font-family="Helvetica,sans-Serif" font-size="10.00" fill="#63b8ff">5</text>
</a>
</g>
</g>
<!-- dir_10540e180691539d14a045ae194980ae&#45;&gt;dir_01d18f1cc77c9a191a0f93995e355f74 -->
<g id="edge22" class="edge">
<title>dir_10540e180691539d14a045ae194980ae&#45;&gt;dir_01d18f1cc77c9a191a0f93995e355f74</title>
<g id="a_edge22"><a xlink:href="dir_000014_000013.html" target="_top">
<path fill="none" stroke="#63b8ff" d="M172.42,-125.98C145.37,-116.61 101.92,-101.56 73.16,-91.6"/>
<polygon fill="#63b8ff" stroke="#63b8ff" points="74.25,-88.28 63.66,-88.31 71.96,-94.89 74.25,-88.28"/>
</a>
</g>
<g id="a_edge22&#45;headlabel"><a xlink:href="dir_000014_000013.html" target="_top" xlink:title="1">
<text text-anchor="middle" x="78.58" y="-84.27" font-family="Helvetica,sans-Serif" font-size="10.00" fill="#63b8ff">1</text>
</a>
</g>
</g>
<!-- dir_1d640b11cf356379d2440058ca8db2bb -->
<g id="node9" class="node">
<title>dir_1d640b11cf356379d2440058ca8db2bb</title>
<g id="a_node9"><a xlink:href="dir_1d640b11cf356379d2440058ca8db2bb.html" target="_top" xlink:title="models">
<polygon fill="#a2b4d6" stroke="#404040" points="155.5,-365 102.5,-365 102.5,-346 155.5,-346 155.5,-365"/>
<text text-anchor="middle" x="129" y="-353" font-family="Helvetica,sans-Serif" font-size="10.00">models</text>
</a>
</g>
</g>
<!-- dir_1d640b11cf356379d2440058ca8db2bb&#45;&gt;dir_b7878ad5ecbf2506f4125b9d34c97e45 -->
<g id="edge31" class="edge">
<title>dir_1d640b11cf356379d2440058ca8db2bb&#45;&gt;dir_b7878ad5ecbf2506f4125b9d34c97e45</title>
<g id="a_edge31"><a xlink:href="dir_000015_000022.html" target="_top">
<path fill="none" stroke="#63b8ff" d="M155.83,-353.99C216.51,-351.26 359,-335.39 359,-246.5 359,-246.5 359,-246.5 359,-134.5 359,-99.31 346.91,-90.54 325,-63 318.31,-54.59 309.33,-46.92 301.09,-40.8"/>
<polygon fill="#63b8ff" stroke="#63b8ff" points="303.07,-37.92 292.88,-35.03 299.04,-43.65 303.07,-37.92"/>
</a>
</g>
<g id="a_edge31&#45;headlabel"><a xlink:href="dir_000015_000022.html" target="_top" xlink:title="1">
<text text-anchor="middle" x="307.65" y="-35.17" font-family="Helvetica,sans-Serif" font-size="10.00" fill="#63b8ff">1</text>
</a>
</g>
</g>
<!-- dir_1d640b11cf356379d2440058ca8db2bb&#45;&gt;dir_6ec4d305043bb2ac35319501d57f2d67 -->
<g id="edge30" class="edge">
<title>dir_1d640b11cf356379d2440058ca8db2bb&#45;&gt;dir_6ec4d305043bb2ac35319501d57f2d67</title>
<g id="a_edge30"><a xlink:href="dir_000015_000008.html" target="_top">
<path fill="none" stroke="#63b8ff" d="M129,-345.74C129,-320.31 129,-246.08 129,-210.69"/>
<polygon fill="#63b8ff" stroke="#63b8ff" points="132.5,-210.31 129,-200.31 125.5,-210.31 132.5,-210.31"/>
</a>
</g>
<g id="a_edge30&#45;headlabel"><a xlink:href="dir_000015_000008.html" target="_top" xlink:title="5">
<text text-anchor="middle" x="135.34" y="-211.4" font-family="Helvetica,sans-Serif" font-size="10.00" fill="#63b8ff">5</text>
</a>
</g>
</g>
<!-- dir_1d640b11cf356379d2440058ca8db2bb&#45;&gt;dir_01d18f1cc77c9a191a0f93995e355f74 -->
<g id="edge28" class="edge">
<title>dir_1d640b11cf356379d2440058ca8db2bb&#45;&gt;dir_01d18f1cc77c9a191a0f93995e355f74</title>
<g id="a_edge28"><a xlink:href="dir_000015_000013.html" target="_top">
<path fill="none" stroke="#63b8ff" d="M102.22,-348.55C81.22,-342.46 52.97,-330.85 37,-310 19.54,-287.2 25,-275.22 25,-246.5 25,-246.5 25,-246.5 25,-189.5 25,-157.56 33.16,-121.1 38.78,-99.77"/>
<polygon fill="#63b8ff" stroke="#63b8ff" points="42.17,-100.66 41.44,-90.09 35.42,-98.81 42.17,-100.66"/>
</a>
</g>
<g id="a_edge28&#45;headlabel"><a xlink:href="dir_000015_000013.html" target="_top" xlink:title="4">
<text text-anchor="middle" x="43.96" y="-102.38" font-family="Helvetica,sans-Serif" font-size="10.00" fill="#63b8ff">4</text>
</a>
</g>
</g>
<!-- dir_1d640b11cf356379d2440058ca8db2bb&#45;&gt;dir_10540e180691539d14a045ae194980ae -->
<g id="edge29" class="edge">
<title>dir_1d640b11cf356379d2440058ca8db2bb&#45;&gt;dir_10540e180691539d14a045ae194980ae</title>
<g id="a_edge29"><a xlink:href="dir_000015_000014.html" target="_top">
<path fill="none" stroke="#63b8ff" d="M155.91,-350.4C179.26,-345.29 211.8,-334.08 228,-310 260.01,-262.43 244.31,-235.34 226,-181 222.62,-170.97 216.44,-160.99 210.65,-153.02"/>
<polygon fill="#63b8ff" stroke="#63b8ff" points="213.33,-150.77 204.45,-145 207.79,-155.05 213.33,-150.77"/>
</a>
</g>
<g id="a_edge29&#45;headlabel"><a xlink:href="dir_000015_000014.html" target="_top" xlink:title="2">
<text text-anchor="middle" x="217.78" y="-149.38" font-family="Helvetica,sans-Serif" font-size="10.00" fill="#63b8ff">2</text>
</a>
</g>
</g>
<!-- dir_e40e2a39b3819c509dbc43bbd7688b8f -->
<g id="node10" class="node">
<title>dir_e40e2a39b3819c509dbc43bbd7688b8f</title>
<g id="a_node10"><a xlink:href="dir_e40e2a39b3819c509dbc43bbd7688b8f.html" target="_top" xlink:title="rendering">
<polygon fill="#a2b4d6" stroke="#404040" points="109.5,-310 46.5,-310 46.5,-291 109.5,-291 109.5,-310"/>
<text text-anchor="middle" x="78" y="-298" font-family="Helvetica,sans-Serif" font-size="10.00">rendering</text>
</a>
</g>
</g>
<!-- dir_1d640b11cf356379d2440058ca8db2bb&#45;&gt;dir_e40e2a39b3819c509dbc43bbd7688b8f -->
<g id="edge32" class="edge">
<title>dir_1d640b11cf356379d2440058ca8db2bb&#45;&gt;dir_e40e2a39b3819c509dbc43bbd7688b8f</title>
<g id="a_edge32"><a xlink:href="dir_000015_000017.html" target="_top">
<path fill="none" stroke="#63b8ff" d="M120.58,-345.75C113.23,-338.11 102.37,-326.82 93.46,-317.56"/>
<polygon fill="#63b8ff" stroke="#63b8ff" points="95.72,-314.87 86.26,-310.09 90.68,-319.72 95.72,-314.87"/>
</a>
</g>
<g id="a_edge32&#45;headlabel"><a xlink:href="dir_000015_000017.html" target="_top" xlink:title="2">
<text text-anchor="middle" x="100.26" y="-312.99" font-family="Helvetica,sans-Serif" font-size="10.00" fill="#63b8ff">2</text>
</a>
</g>
</g>
<!-- dir_e40e2a39b3819c509dbc43bbd7688b8f&#45;&gt;dir_b7878ad5ecbf2506f4125b9d34c97e45 -->
<g id="edge37" class="edge">
<title>dir_e40e2a39b3819c509dbc43bbd7688b8f&#45;&gt;dir_b7878ad5ecbf2506f4125b9d34c97e45</title>
<g id="a_edge37"><a xlink:href="dir_000017_000022.html" target="_top">
<path fill="none" stroke="#63b8ff" d="M109.74,-293.35C179.3,-278.97 339,-240.6 339,-191.5 339,-191.5 339,-191.5 339,-134.5 339,-98.09 312.62,-62.48 294.84,-42.62"/>
<polygon fill="#63b8ff" stroke="#63b8ff" points="297.23,-40.05 287.85,-35.11 292.11,-44.82 297.23,-40.05"/>
</a>
</g>
<g id="a_edge37&#45;headlabel"><a xlink:href="dir_000017_000022.html" target="_top" xlink:title="4">
<text text-anchor="middle" x="301.76" y="-38.24" font-family="Helvetica,sans-Serif" font-size="10.00" fill="#63b8ff">4</text>
</a>
</g>
</g>
<!-- dir_e40e2a39b3819c509dbc43bbd7688b8f&#45;&gt;dir_8de3944d4b83abb802b44e4617c59fd6 -->
<g id="edge36" class="edge">
<title>dir_e40e2a39b3819c509dbc43bbd7688b8f&#45;&gt;dir_8de3944d4b83abb802b44e4617c59fd6</title>
<g id="a_edge36"><a xlink:href="dir_000017_000005.html" target="_top">
<path fill="none" stroke="#63b8ff" d="M96.16,-290.98C114.25,-282.5 142.28,-269.35 163.19,-259.54"/>
<polygon fill="#63b8ff" stroke="#63b8ff" points="164.95,-262.59 172.51,-255.17 161.97,-256.25 164.95,-262.59"/>
</a>
</g>
<g id="a_edge36&#45;headlabel"><a xlink:href="dir_000017_000005.html" target="_top" xlink:title="4">
<text text-anchor="middle" x="162.9" y="-264.18" font-family="Helvetica,sans-Serif" font-size="10.00" fill="#63b8ff">4</text>
</a>
</g>
</g>
<!-- dir_e40e2a39b3819c509dbc43bbd7688b8f&#45;&gt;dir_6ec4d305043bb2ac35319501d57f2d67 -->
<g id="edge35" class="edge">
<title>dir_e40e2a39b3819c509dbc43bbd7688b8f&#45;&gt;dir_6ec4d305043bb2ac35319501d57f2d67</title>
<g id="a_edge35"><a xlink:href="dir_000017_000008.html" target="_top">
<path fill="none" stroke="#63b8ff" d="M82.17,-290.66C90.55,-272.93 109.53,-232.73 120.59,-209.32"/>
<polygon fill="#63b8ff" stroke="#63b8ff" points="123.81,-210.7 124.91,-200.16 117.48,-207.71 123.81,-210.7"/>
</a>
</g>
<g id="a_edge35&#45;headlabel"><a xlink:href="dir_000017_000008.html" target="_top" xlink:title="10">
<text text-anchor="middle" x="124.84" y="-212.66" font-family="Helvetica,sans-Serif" font-size="10.00" fill="#63b8ff">10</text>
</a>
</g>
</g>
<!-- dir_e40e2a39b3819c509dbc43bbd7688b8f&#45;&gt;dir_01d18f1cc77c9a191a0f93995e355f74 -->
<g id="edge33" class="edge">
<title>dir_e40e2a39b3819c509dbc43bbd7688b8f&#45;&gt;dir_01d18f1cc77c9a191a0f93995e355f74</title>
<g id="a_edge33"><a xlink:href="dir_000017_000013.html" target="_top">
<path fill="none" stroke="#63b8ff" d="M76.65,-290.97C75.24,-282.01 72.96,-267.52 71,-255 62.19,-198.67 51.84,-132.04 46.9,-100.23"/>
<polygon fill="#63b8ff" stroke="#63b8ff" points="50.33,-99.51 45.34,-90.17 43.42,-100.58 50.33,-99.51"/>
</a>
</g>
<g id="a_edge33&#45;headlabel"><a xlink:href="dir_000017_000013.html" target="_top" xlink:title="7">
<text text-anchor="middle" x="53.69" y="-100.13" font-family="Helvetica,sans-Serif" font-size="10.00" fill="#63b8ff">7</text>
</a>
</g>
</g>
<!-- dir_e40e2a39b3819c509dbc43bbd7688b8f&#45;&gt;dir_10540e180691539d14a045ae194980ae -->
<g id="edge34" class="edge">
<title>dir_e40e2a39b3819c509dbc43bbd7688b8f&#45;&gt;dir_10540e180691539d14a045ae194980ae</title>
<g id="a_edge34"><a xlink:href="dir_000017_000014.html" target="_top">
<path fill="none" stroke="#63b8ff" d="M76.64,-290.99C73.77,-269.95 69.31,-214.73 95,-181 109.35,-162.16 133.35,-151.16 154.46,-144.81"/>
<polygon fill="#63b8ff" stroke="#63b8ff" points="155.51,-148.15 164.22,-142.13 153.65,-141.4 155.51,-148.15"/>
</a>
</g>
<g id="a_edge34&#45;headlabel"><a xlink:href="dir_000017_000014.html" target="_top" xlink:title="7">
<text text-anchor="middle" x="152.79" y="-149.34" font-family="Helvetica,sans-Serif" font-size="10.00" fill="#63b8ff">7</text>
</a>
</g>
</g>
</g>
</svg>
</svg>

<style type='text/css'>
<![CDATA[
[data-mouse-over-selected='false'] { opacity: 0.7; }
[data-mouse-over-selected='true']  { opacity: 1.0; }
]]>
</style>
<script type="application/ecmascript"><![CDATA[
document.addEventListener('DOMContentLoaded', (event) => {
  highlightEdges();
  highlightAdjacentNodes();
});
]]></script>
</svg>
