<?xml version="1.0" encoding="UTF-8" standalone="no"?>
<!DOCTYPE svg PUBLIC "-//W3C//DTD SVG 1.1//EN"
 "http://www.w3.org/Graphics/SVG/1.1/DTD/svg11.dtd">
<!-- Generated by graphviz version 2.43.0 (0)
 -->
<!-- Title: config Pages: 1 -->
<svg width="168pt" height="239pt"
 viewBox="0.00 0.00 168.00 239.00" xmlns="http://www.w3.org/2000/svg" xmlns:xlink="http://www.w3.org/1999/xlink">
<g id="graph0" class="graph" transform="scale(1 1) rotate(0) translate(4 235)">
<title>config</title>
<polygon fill="white" stroke="transparent" points="-4,4 -4,-235 164,-235 164,4 -4,4"/>
<g id="clust1" class="cluster">
<title>clusterdir_3f615ade772d23cefe5e20dcb18424a2</title>
<g id="a_clust1"><a xlink:href="dir_3f615ade772d23cefe5e20dcb18424a2.html" target="_top" xlink:title="backend">
<polygon fill="#ddddee" stroke="black" points="8,-8 8,-223 98,-223 98,-8 8,-8"/>
<text text-anchor="middle" x="53" y="-211" font-family="Helvetica,sans-Serif" font-size="10.00">backend</text>
</a>
</g>
</g>
<!-- dir_10540e180691539d14a045ae194980ae -->
<g id="node1" class="node">
<title>dir_10540e180691539d14a045ae194980ae</title>
<g id="a_node1"><a xlink:href="dir_10540e180691539d14a045ae194980ae.html" target="_top" xlink:title="managers">
<polygon fill="none" stroke="black" points="89.5,-196 24.5,-196 24.5,-160 89.5,-160 89.5,-196"/>
<text text-anchor="middle" x="57" y="-175.5" font-family="Helvetica,sans-Serif" font-size="10.00">managers</text>
</a>
</g>
</g>
<!-- dir_6ec4d305043bb2ac35319501d57f2d67 -->
<g id="node2" class="node">
<title>dir_6ec4d305043bb2ac35319501d57f2d67</title>
<g id="a_node2"><a xlink:href="dir_6ec4d305043bb2ac35319501d57f2d67.html" target="_top" xlink:title="drivers">
<polygon fill="none" stroke="black" points="90,-124 36,-124 36,-88 90,-88 90,-124"/>
<text text-anchor="middle" x="63" y="-103.5" font-family="Helvetica,sans-Serif" font-size="10.00">drivers</text>
</a>
</g>
</g>
<!-- dir_10540e180691539d14a045ae194980ae&#45;&gt;dir_6ec4d305043bb2ac35319501d57f2d67 -->
<g id="edge5" class="edge">
<title>dir_10540e180691539d14a045ae194980ae&#45;&gt;dir_6ec4d305043bb2ac35319501d57f2d67</title>
<path fill="none" stroke="black" d="M52.57,-159.7C52.43,-151.98 53,-142.71 54.08,-134.11"/>
<polygon fill="black" stroke="black" points="57.56,-134.52 55.64,-124.1 50.64,-133.45 57.56,-134.52"/>
<g id="a_edge5&#45;headlabel"><a xlink:href="dir_000017_000012.html" target="_top" xlink:title="12">
<text text-anchor="middle" x="59.81" y="-136.01" font-family="Helvetica,sans-Serif" font-size="10.00">12</text>
</a>
</g>
</g>
<!-- dir_8de3944d4b83abb802b44e4617c59fd6 -->
<g id="node3" class="node">
<title>dir_8de3944d4b83abb802b44e4617c59fd6</title>
<g id="a_node3"><a xlink:href="dir_8de3944d4b83abb802b44e4617c59fd6.html" target="_top" xlink:title="config">
<polygon fill="#eeeeff" stroke="black" points="88,-52 34,-52 34,-16 88,-16 88,-52"/>
<text text-anchor="middle" x="61" y="-31.5" font-family="Helvetica,sans-Serif" font-size="10.00">config</text>
</a>
</g>
</g>
<!-- dir_10540e180691539d14a045ae194980ae&#45;&gt;dir_8de3944d4b83abb802b44e4617c59fd6 -->
<g id="edge6" class="edge">
<title>dir_10540e180691539d14a045ae194980ae&#45;&gt;dir_8de3944d4b83abb802b44e4617c59fd6</title>
<path fill="none" stroke="black" d="M36.35,-159.85C28.71,-149.92 21.39,-136.88 18,-124 13.92,-108.53 13.5,-103.35 18,-88 20.83,-78.35 26.02,-68.78 31.92,-60.49"/>
<polygon fill="black" stroke="black" points="34.87,-62.4 38.27,-52.37 29.36,-58.1 34.87,-62.4"/>
<g id="a_edge6&#45;headlabel"><a xlink:href="dir_000017_000010.html" target="_top" xlink:title="3">
<text text-anchor="middle" x="34.9" y="-64.48" font-family="Helvetica,sans-Serif" font-size="10.00">3</text>
</a>
</g>
</g>
<!-- dir_b7878ad5ecbf2506f4125b9d34c97e45 -->
<g id="node4" class="node">
<title>dir_b7878ad5ecbf2506f4125b9d34c97e45</title>
<g id="a_node4"><a xlink:href="dir_b7878ad5ecbf2506f4125b9d34c97e45.html" target="_top" xlink:title="util">
<polygon fill="none" stroke="black" points="160,-52 106,-52 106,-16 160,-16 160,-52"/>
<text text-anchor="middle" x="133" y="-31.5" font-family="Helvetica,sans-Serif" font-size="10.00">util</text>
</a>
</g>
</g>
<!-- dir_10540e180691539d14a045ae194980ae&#45;&gt;dir_b7878ad5ecbf2506f4125b9d34c97e45 -->
<g id="edge7" class="edge">
<title>dir_10540e180691539d14a045ae194980ae&#45;&gt;dir_b7878ad5ecbf2506f4125b9d34c97e45</title>
<path fill="none" stroke="black" d="M72.83,-159.82C81.39,-149.9 91.68,-136.86 99,-124 110.27,-104.2 119.26,-79.94 125.15,-61.76"/>
<polygon fill="black" stroke="black" points="128.53,-62.68 128.18,-52.09 121.85,-60.58 128.53,-62.68"/>
<g id="a_edge7&#45;headlabel"><a xlink:href="dir_000017_000003.html" target="_top" xlink:title="10">
<text text-anchor="middle" x="130.17" y="-64.46" font-family="Helvetica,sans-Serif" font-size="10.00">10</text>
</a>
</g>
</g>
<!-- dir_6ec4d305043bb2ac35319501d57f2d67&#45;&gt;dir_10540e180691539d14a045ae194980ae -->
<g id="edge8" class="edge">
<title>dir_6ec4d305043bb2ac35319501d57f2d67&#45;&gt;dir_10540e180691539d14a045ae194980ae</title>
<path fill="none" stroke="black" d="M67.43,-124.1C67.58,-131.79 67.02,-141.05 65.95,-149.67"/>
<polygon fill="black" stroke="black" points="62.47,-149.28 64.4,-159.7 69.38,-150.35 62.47,-149.28"/>
<g id="a_edge8&#45;headlabel"><a xlink:href="dir_000012_000017.html" target="_top" xlink:title="2">
<text text-anchor="middle" x="60.21" y="-142.79" font-family="Helvetica,sans-Serif" font-size="10.00">2</text>
</a>
</g>
</g>
<!-- dir_6ec4d305043bb2ac35319501d57f2d67&#45;&gt;dir_8de3944d4b83abb802b44e4617c59fd6 -->
<g id="edge9" class="edge">
<title>dir_6ec4d305043bb2ac35319501d57f2d67&#45;&gt;dir_8de3944d4b83abb802b44e4617c59fd6</title>
<path fill="none" stroke="black" d="M56.59,-87.7C55.57,-79.98 55.08,-70.71 55.18,-62.11"/>
<polygon fill="black" stroke="black" points="58.68,-62.24 55.59,-52.1 51.68,-61.95 58.68,-62.24"/>
<g id="a_edge9&#45;headlabel"><a xlink:href="dir_000012_000010.html" target="_top" xlink:title="1">
<text text-anchor="middle" x="61.37" y="-63.45" font-family="Helvetica,sans-Serif" font-size="10.00">1</text>
</a>
</g>
</g>
<!-- dir_6ec4d305043bb2ac35319501d57f2d67&#45;&gt;dir_b7878ad5ecbf2506f4125b9d34c97e45 -->
<g id="edge10" class="edge">
<title>dir_6ec4d305043bb2ac35319501d57f2d67&#45;&gt;dir_b7878ad5ecbf2506f4125b9d34c97e45</title>
<path fill="none" stroke="black" d="M74.39,-87.7C82.14,-79.05 92.57,-68.45 102.53,-59.03"/>
<polygon fill="black" stroke="black" points="105.04,-61.47 110,-52.1 100.29,-56.33 105.04,-61.47"/>
<g id="a_edge10&#45;headlabel"><a xlink:href="dir_000012_000003.html" target="_top" xlink:title="8">
<text text-anchor="middle" x="104.33" y="-63.49" font-family="Helvetica,sans-Serif" font-size="10.00">8</text>
</a>
</g>
</g>
<!-- dir_8de3944d4b83abb802b44e4617c59fd6&#45;&gt;dir_10540e180691539d14a045ae194980ae -->
<g id="edge1" class="edge">
<title>dir_8de3944d4b83abb802b44e4617c59fd6&#45;&gt;dir_10540e180691539d14a045ae194980ae</title>
<path fill="none" stroke="black" d="M54.22,-52.37C47.91,-62.15 39.81,-74.99 36,-88 31.5,-103.35 31.92,-108.53 36,-124 38.44,-133.26 42.91,-142.6 47.26,-150.81"/>
<polygon fill="black" stroke="black" points="44.34,-152.75 52.2,-159.85 50.48,-149.39 44.34,-152.75"/>
<g id="a_edge1&#45;headlabel"><a xlink:href="dir_000010_000017.html" target="_top" xlink:title="1">
<text text-anchor="middle" x="40.12" y="-148.45" font-family="Helvetica,sans-Serif" font-size="10.00">1</text>
</a>
</g>
</g>
<!-- dir_8de3944d4b83abb802b44e4617c59fd6&#45;&gt;dir_6ec4d305043bb2ac35319501d57f2d67 -->
<g id="edge2" class="edge">
<title>dir_8de3944d4b83abb802b44e4617c59fd6&#45;&gt;dir_6ec4d305043bb2ac35319501d57f2d67</title>
<path fill="none" stroke="black" d="M67.38,-52.1C68.41,-59.79 68.91,-69.05 68.82,-77.67"/>
<polygon fill="black" stroke="black" points="65.32,-77.56 68.42,-87.7 72.32,-77.84 65.32,-77.56"/>
<g id="a_edge2&#45;headlabel"><a xlink:href="dir_000010_000012.html" target="_top" xlink:title="1">
<text text-anchor="middle" x="62.63" y="-71.36" font-family="Helvetica,sans-Serif" font-size="10.00">1</text>
</a>
</g>
</g>
<!-- dir_8de3944d4b83abb802b44e4617c59fd6&#45;&gt;dir_b7878ad5ecbf2506f4125b9d34c97e45 -->
<g id="edge3" class="edge">
<title>dir_8de3944d4b83abb802b44e4617c59fd6&#45;&gt;dir_b7878ad5ecbf2506f4125b9d34c97e45</title>
<path fill="none" stroke="black" d="M88.28,-34C90.74,-34 93.19,-34 95.65,-34"/>
<polygon fill="black" stroke="black" points="95.75,-37.5 105.75,-34 95.75,-30.5 95.75,-37.5"/>
<g id="a_edge3&#45;headlabel"><a xlink:href="dir_000010_000003.html" target="_top" xlink:title="5">
<text text-anchor="middle" x="92.15" y="-37.84" font-family="Helvetica,sans-Serif" font-size="10.00">5</text>
</a>
</g>
</g>
<!-- dir_b7878ad5ecbf2506f4125b9d34c97e45&#45;&gt;dir_6ec4d305043bb2ac35319501d57f2d67 -->
<g id="edge4" class="edge">
<title>dir_b7878ad5ecbf2506f4125b9d34c97e45&#45;&gt;dir_6ec4d305043bb2ac35319501d57f2d67</title>
<path fill="none" stroke="black" d="M121.79,-52.1C114.08,-60.72 103.67,-71.32 93.7,-80.76"/>
<polygon fill="black" stroke="black" points="91.17,-78.33 86.22,-87.7 95.93,-83.46 91.17,-78.33"/>
<g id="a_edge4&#45;headlabel"><a xlink:href="dir_000003_000012.html" target="_top" xlink:title="4">
<text text-anchor="middle" x="91.88" y="-71.3" font-family="Helvetica,sans-Serif" font-size="10.00">4</text>
</a>
</g>
</g>
</g>
</svg>
