<?xml version="1.0" encoding="UTF-8" standalone="no"?>
<!DOCTYPE svg PUBLIC "-//W3C//DTD SVG 1.1//EN"
 "http://www.w3.org/Graphics/SVG/1.1/DTD/svg11.dtd">
<!-- Generated by graphviz version 2.43.0 (0)
 -->
<!-- Title: Graphical Class Hierarchy Pages: 1 -->
<svg width="473pt" height="256pt"
 viewBox="0.00 0.00 473.00 256.00" xmlns="http://www.w3.org/2000/svg" xmlns:xlink="http://www.w3.org/1999/xlink">
<g id="graph0" class="graph" transform="scale(1 1) rotate(0) translate(4 252)">
<title>Graphical Class Hierarchy</title>
<polygon fill="white" stroke="transparent" points="-4,4 -4,-252 469,-252 469,4 -4,4"/>
<!-- Node0 -->
<g id="node1" class="node">
<title>Node0</title>
<g id="a_node1"><a xlink:href="dc/d67/classQWizardPage.html" target="_top" xlink:title=" ">
<polygon fill="white" stroke="black" points="0,-76.5 0,-95.5 81,-95.5 81,-76.5 0,-76.5"/>
<text text-anchor="middle" x="40.5" y="-83.5" font-family="Helvetica,sans-Serif" font-size="10.00">QWizardPage</text>
</a>
</g>
</g>
<!-- Node1 -->
<g id="node2" class="node">
<title>Node1</title>
<g id="a_node2"><a xlink:href="da/dee/classBtBookshelfWizardPage.html" target="_top" xlink:title=" ">
<polygon fill="white" stroke="black" points="117,-114.5 117,-133.5 250,-133.5 250,-114.5 117,-114.5"/>
<text text-anchor="middle" x="183.5" y="-121.5" font-family="Helvetica,sans-Serif" font-size="10.00">BtBookshelfWizardPage</text>
</a>
</g>
</g>
<!-- Node0&#45;&gt;Node1 -->
<g id="edge1" class="edge">
<title>Node0&#45;&gt;Node1</title>
<path fill="none" stroke="midnightblue" d="M86.94,-98.25C106.37,-103.48 128.73,-109.51 146.93,-114.41"/>
<polygon fill="midnightblue" stroke="midnightblue" points="87.65,-94.81 77.08,-95.59 85.82,-101.57 87.65,-94.81"/>
</g>
<!-- Node9 -->
<g id="node10" class="node">
<title>Node9</title>
<g id="a_node10"><a xlink:href="d9/d76/classBtEditTextPage.html" target="_top" xlink:title=" ">
<polygon fill="white" stroke="black" points="139,-76.5 139,-95.5 228,-95.5 228,-76.5 139,-76.5"/>
<text text-anchor="middle" x="183.5" y="-83.5" font-family="Helvetica,sans-Serif" font-size="10.00">BtEditTextPage</text>
</a>
</g>
</g>
<!-- Node0&#45;&gt;Node9 -->
<g id="edge9" class="edge">
<title>Node0&#45;&gt;Node9</title>
<path fill="none" stroke="midnightblue" d="M91.59,-86C107.05,-86 123.96,-86 138.94,-86"/>
<polygon fill="midnightblue" stroke="midnightblue" points="91.15,-82.5 81.15,-86 91.15,-89.5 91.15,-82.5"/>
</g>
<!-- Node10 -->
<g id="node11" class="node">
<title>Node10</title>
<g id="a_node11"><a xlink:href="d5/dcc/classBtPlainOrHtmlPage.html" target="_top" xlink:title=" ">
<polygon fill="white" stroke="black" points="128.5,-38.5 128.5,-57.5 238.5,-57.5 238.5,-38.5 128.5,-38.5"/>
<text text-anchor="middle" x="183.5" y="-45.5" font-family="Helvetica,sans-Serif" font-size="10.00">BtPlainOrHtmlPage</text>
</a>
</g>
</g>
<!-- Node0&#45;&gt;Node10 -->
<g id="edge10" class="edge">
<title>Node0&#45;&gt;Node10</title>
<path fill="none" stroke="midnightblue" d="M86.94,-73.75C106.37,-68.52 128.73,-62.49 146.93,-57.59"/>
<polygon fill="midnightblue" stroke="midnightblue" points="85.82,-70.43 77.08,-76.41 87.65,-77.19 85.82,-70.43"/>
</g>
<!-- Node2 -->
<g id="node3" class="node">
<title>Node2</title>
<g id="a_node3"><a xlink:href="de/d0a/classBtBookshelfInstallFinalPage.html" target="_top" xlink:title=" ">
<polygon fill="white" stroke="black" points="299.5,-228.5 299.5,-247.5 451.5,-247.5 451.5,-228.5 299.5,-228.5"/>
<text text-anchor="middle" x="375.5" y="-235.5" font-family="Helvetica,sans-Serif" font-size="10.00">BtBookshelfInstallFinalPage</text>
</a>
</g>
</g>
<!-- Node1&#45;&gt;Node2 -->
<g id="edge2" class="edge">
<title>Node1&#45;&gt;Node2</title>
<path fill="none" stroke="midnightblue" d="M198.15,-141.66C215.94,-163.38 249.16,-199.73 286,-219 293.38,-222.86 301.5,-225.94 309.73,-228.39"/>
<polygon fill="midnightblue" stroke="midnightblue" points="200.68,-139.22 191.71,-133.6 195.21,-143.59 200.68,-139.22"/>
</g>
<!-- Node3 -->
<g id="node4" class="node">
<title>Node3</title>
<g id="a_node4"><a xlink:href="d8/d7f/classBtBookshelfLanguagesPage.html" target="_top" xlink:title=" ">
<polygon fill="white" stroke="black" points="299.5,-190.5 299.5,-209.5 451.5,-209.5 451.5,-190.5 299.5,-190.5"/>
<text text-anchor="middle" x="375.5" y="-197.5" font-family="Helvetica,sans-Serif" font-size="10.00">BtBookshelfLanguagesPage</text>
</a>
</g>
</g>
<!-- Node1&#45;&gt;Node3 -->
<g id="edge3" class="edge">
<title>Node1&#45;&gt;Node3</title>
<path fill="none" stroke="midnightblue" d="M206.67,-139.04C226.62,-151.93 257.15,-170.09 286,-181 296,-184.78 306.92,-187.89 317.59,-190.43"/>
<polygon fill="midnightblue" stroke="midnightblue" points="208.57,-136.1 198.29,-133.53 204.73,-141.95 208.57,-136.1"/>
</g>
<!-- Node4 -->
<g id="node5" class="node">
<title>Node4</title>
<g id="a_node5"><a xlink:href="d0/dfd/classBtBookshelfRemoveFinalPage.html" target="_top" xlink:title=" ">
<polygon fill="white" stroke="black" points="294,-152.5 294,-171.5 457,-171.5 457,-152.5 294,-152.5"/>
<text text-anchor="middle" x="375.5" y="-159.5" font-family="Helvetica,sans-Serif" font-size="10.00">BtBookshelfRemoveFinalPage</text>
</a>
</g>
</g>
<!-- Node1&#45;&gt;Node4 -->
<g id="edge4" class="edge">
<title>Node1&#45;&gt;Node4</title>
<path fill="none" stroke="midnightblue" d="M242.55,-135.61C269.57,-141.01 301.32,-147.36 326.9,-152.48"/>
<polygon fill="midnightblue" stroke="midnightblue" points="242.94,-132.12 232.45,-133.59 241.56,-138.98 242.94,-132.12"/>
</g>
<!-- Node5 -->
<g id="node6" class="node">
<title>Node5</title>
<g id="a_node6"><a xlink:href="d2/de4/classBtBookshelfSourcesPage.html" target="_top" xlink:title=" ">
<polygon fill="white" stroke="black" points="307,-114.5 307,-133.5 444,-133.5 444,-114.5 307,-114.5"/>
<text text-anchor="middle" x="375.5" y="-121.5" font-family="Helvetica,sans-Serif" font-size="10.00">BtBookshelfSourcesPage</text>
</a>
</g>
</g>
<!-- Node1&#45;&gt;Node5 -->
<g id="edge5" class="edge">
<title>Node1&#45;&gt;Node5</title>
<path fill="none" stroke="midnightblue" d="M260.18,-124C275.62,-124 291.77,-124 306.91,-124"/>
<polygon fill="midnightblue" stroke="midnightblue" points="260.15,-120.5 250.15,-124 260.15,-127.5 260.15,-120.5"/>
</g>
<!-- Node6 -->
<g id="node7" class="node">
<title>Node6</title>
<g id="a_node7"><a xlink:href="df/dcc/classBtBookshelfSourcesProgressPage.html" target="_top" xlink:title=" ">
<polygon fill="white" stroke="black" points="286,-76.5 286,-95.5 465,-95.5 465,-76.5 286,-76.5"/>
<text text-anchor="middle" x="375.5" y="-83.5" font-family="Helvetica,sans-Serif" font-size="10.00">BtBookshelfSourcesProgressPage</text>
</a>
</g>
</g>
<!-- Node1&#45;&gt;Node6 -->
<g id="edge6" class="edge">
<title>Node1&#45;&gt;Node6</title>
<path fill="none" stroke="midnightblue" d="M242.55,-112.39C269.57,-106.99 301.32,-100.64 326.9,-95.52"/>
<polygon fill="midnightblue" stroke="midnightblue" points="241.56,-109.02 232.45,-114.41 242.94,-115.88 241.56,-109.02"/>
</g>
<!-- Node7 -->
<g id="node8" class="node">
<title>Node7</title>
<g id="a_node8"><a xlink:href="d3/d1b/classBtBookshelfTaskPage.html" target="_top" xlink:title=" ">
<polygon fill="white" stroke="black" points="315,-38.5 315,-57.5 436,-57.5 436,-38.5 315,-38.5"/>
<text text-anchor="middle" x="375.5" y="-45.5" font-family="Helvetica,sans-Serif" font-size="10.00">BtBookshelfTaskPage</text>
</a>
</g>
</g>
<!-- Node1&#45;&gt;Node7 -->
<g id="edge7" class="edge">
<title>Node1&#45;&gt;Node7</title>
<path fill="none" stroke="midnightblue" d="M239.12,-110.63C242.9,-108.96 246.57,-107.09 250,-105 269.87,-92.89 265.72,-78.4 286,-67 294.77,-62.07 304.68,-58.42 314.62,-55.72"/>
<polygon fill="midnightblue" stroke="midnightblue" points="237.57,-107.48 229.54,-114.39 240.12,-113.99 237.57,-107.48"/>
</g>
<!-- Node8 -->
<g id="node9" class="node">
<title>Node8</title>
<g id="a_node9"><a xlink:href="df/d7e/classBtBookshelfWorksPage.html" target="_top" xlink:title=" ">
<polygon fill="white" stroke="black" points="311,-0.5 311,-19.5 440,-19.5 440,-0.5 311,-0.5"/>
<text text-anchor="middle" x="375.5" y="-7.5" font-family="Helvetica,sans-Serif" font-size="10.00">BtBookshelfWorksPage</text>
</a>
</g>
</g>
<!-- Node1&#45;&gt;Node8 -->
<g id="edge8" class="edge">
<title>Node1&#45;&gt;Node8</title>
<path fill="none" stroke="midnightblue" d="M243.57,-109.69C245.83,-108.27 247.99,-106.71 250,-105 278.46,-80.77 256.7,-52.21 286,-29 293.27,-23.24 301.89,-19.13 310.85,-16.21"/>
<polygon fill="midnightblue" stroke="midnightblue" points="241.63,-106.75 234.39,-114.49 244.88,-112.95 241.63,-106.75"/>
</g>
</g>
</svg>
