<?xml version="1.0" encoding="UTF-8" standalone="no"?>
<!DOCTYPE svg PUBLIC "-//W3C//DTD SVG 1.1//EN"
 "http://www.w3.org/Graphics/SVG/1.1/DTD/svg11.dtd">
<!-- Generated by graphviz version 2.43.0 (0)
 -->
<!-- Title: Graphical Class Hierarchy Pages: 1 -->
<svg width="331pt" height="86pt"
 viewBox="0.00 0.00 331.00 86.00" xmlns="http://www.w3.org/2000/svg" xmlns:xlink="http://www.w3.org/1999/xlink">
<g id="graph0" class="graph" transform="scale(1 1) rotate(0) translate(4 82)">
<title>Graphical Class Hierarchy</title>
<!-- Node0 -->
<g id="Node000000" class="node">
<title>Node0</title>
<g id="a_Node000000"><a xlink:href="d1/dde/classQSortFilterProxyModel.html" target="_top" xlink:title=" ">
<polygon fill="white" stroke="#666666" points="126,-54 0,-54 0,-35 126,-35 126,-54"/>
<text text-anchor="middle" x="63" y="-42" font-family="Helvetica,sans-Serif" font-size="10.00">QSortFilterProxyModel</text>
</a>
</g>
</g>
<!-- Node1 -->
<g id="Node000001" class="node">
<title>Node1</title>
<g id="a_Node000001"><a xlink:href="d9/d5d/classBtBookshelfFilterModel.html" target="_top" xlink:title=" ">
<polygon fill="white" stroke="#666666" points="308,-78 177,-78 177,-59 308,-59 308,-78"/>
<text text-anchor="middle" x="242.5" y="-66" font-family="Helvetica,sans-Serif" font-size="10.00">BtBookshelfFilterModel</text>
</a>
</g>
</g>
<!-- Node0&#45;&gt;Node1 -->
<g id="edge101_Node000000_Node000001" class="edge">
<title>Node0&#45;&gt;Node1</title>
<g id="a_edge101_Node000000_Node000001"><a xlink:title=" ">
<path fill="none" stroke="#63b8ff" d="M136.22,-54.26C149.63,-56.08 163.57,-57.96 176.74,-59.74"/>
<polygon fill="#63b8ff" stroke="#63b8ff" points="136.46,-50.77 126.08,-52.89 135.52,-57.7 136.46,-50.77"/>
</a>
</g>
</g>
<!-- Node2 -->
<g id="Node000002" class="node">
<title>Node2</title>
<g id="a_Node000002"><a xlink:href="df/df6/structanonymous__namespace_02btmodulechoosermenu_8cpp_03_1_1SortModel.html" target="_top" xlink:title=" ">
<polygon fill="white" stroke="#666666" points="323,-41 162,-41 162,0 323,0 323,-41"/>
<text text-anchor="start" x="170" y="-29" font-family="Helvetica,sans-Serif" font-size="10.00">anonymous_namespace</text>
<text text-anchor="start" x="170" y="-18" font-family="Helvetica,sans-Serif" font-size="10.00">{btmodulechoosermenu.cpp}</text>
<text text-anchor="middle" x="242.5" y="-7" font-family="Helvetica,sans-Serif" font-size="10.00">::SortModel</text>
</a>
</g>
</g>
<!-- Node0&#45;&gt;Node2 -->
<g id="edge102_Node000000_Node000002" class="edge">
<title>Node0&#45;&gt;Node2</title>
<g id="a_edge102_Node000000_Node000002"><a xlink:title=" ">
<path fill="none" stroke="#63b8ff" d="M136,-34.76C144.56,-33.61 153.33,-32.42 161.98,-31.25"/>
<polygon fill="#63b8ff" stroke="#63b8ff" points="135.52,-31.3 126.08,-36.11 136.46,-38.23 135.52,-31.3"/>
</a>
</g>
</g>
</g>
</svg>
