<?xml version="1.0" encoding="UTF-8" standalone="no"?>
<!DOCTYPE svg PUBLIC "-//W3C//DTD SVG 1.1//EN"
 "http://www.w3.org/Graphics/SVG/1.1/DTD/svg11.dtd">
<!-- Generated by graphviz version 2.43.0 (0)
 -->
<!-- Title: Graphical Class Hierarchy Pages: 1 -->
<svg width="259pt" height="86pt"
 viewBox="0.00 0.00 259.00 86.00" xmlns="http://www.w3.org/2000/svg" xmlns:xlink="http://www.w3.org/1999/xlink">
<g id="graph0" class="graph" transform="scale(1 1) rotate(0) translate(4 82)">
<title>Graphical Class Hierarchy</title>
<!-- Node0 -->
<g id="Node000000" class="node">
<title>Node0</title>
<g id="a_Node000000"><a xlink:title=" ">
<polygon fill="#e0e0e0" stroke="#999999" points="44,-48.5 0,-48.5 0,-29.5 44,-29.5 44,-48.5"/>
<text text-anchor="middle" x="22" y="-36.5" font-family="Helvetica,sans-Serif" font-size="10.00">QIcon</text>
</a>
</g>
</g>
<!-- Node1 -->
<g id="Node000001" class="node">
<title>Node1</title>
<g id="a_Node000001"><a xlink:href="d8/dc4/classanonymous__namespace_02bticons_8cpp_03_1_1BtOverlayedIcon.html" target="_top" xlink:title=" ">
<polygon fill="white" stroke="#666666" points="251,-78 80,-78 80,-48 251,-48 251,-78"/>
<text text-anchor="start" x="88" y="-66" font-family="Helvetica,sans-Serif" font-size="10.00">anonymous_namespace</text>
<text text-anchor="middle" x="165.5" y="-55" font-family="Helvetica,sans-Serif" font-size="10.00">{bticons.cpp}::BtOverlayedIcon</text>
</a>
</g>
</g>
<!-- Node0&#45;&gt;Node1 -->
<g id="edge53_Node000000_Node000001" class="edge">
<title>Node0&#45;&gt;Node1</title>
<g id="a_edge53_Node000000_Node000001"><a xlink:title=" ">
<path fill="none" stroke="#63b8ff" d="M54.22,-44.29C62.05,-45.62 70.84,-47.11 79.94,-48.66"/>
<polygon fill="#63b8ff" stroke="#63b8ff" points="54.63,-40.81 44.18,-42.59 53.46,-47.72 54.63,-40.81"/>
</a>
</g>
</g>
<!-- Node2 -->
<g id="Node000002" class="node">
<title>Node2</title>
<g id="a_Node000002"><a xlink:href="d4/d6c/classanonymous__namespace_02bticons_8cpp_03_1_1BtRegularIcon.html" target="_top" xlink:title=" ">
<polygon fill="white" stroke="#666666" points="244.5,-30 86.5,-30 86.5,0 244.5,0 244.5,-30"/>
<text text-anchor="start" x="94.5" y="-18" font-family="Helvetica,sans-Serif" font-size="10.00">anonymous_namespace</text>
<text text-anchor="middle" x="165.5" y="-7" font-family="Helvetica,sans-Serif" font-size="10.00">{bticons.cpp}::BtRegularIcon</text>
</a>
</g>
</g>
<!-- Node0&#45;&gt;Node2 -->
<g id="edge54_Node000000_Node000002" class="edge">
<title>Node0&#45;&gt;Node2</title>
<g id="a_edge54_Node000000_Node000002"><a xlink:title=" ">
<path fill="none" stroke="#63b8ff" d="M54.09,-33.73C63.81,-32.08 75.01,-30.18 86.46,-28.24"/>
<polygon fill="#63b8ff" stroke="#63b8ff" points="53.46,-30.28 44.18,-35.41 54.63,-37.19 53.46,-30.28"/>
</a>
</g>
</g>
</g>
</svg>
