<?xml version="1.0" encoding="UTF-8" standalone="no"?>
<!DOCTYPE svg PUBLIC "-//W3C//DTD SVG 1.1//EN"
 "http://www.w3.org/Graphics/SVG/1.1/DTD/svg11.dtd">
<!-- Generated by graphviz version 2.43.0 (0)
 -->
<!-- Title: Graphical Class Hierarchy Pages: 1 -->
<svg width="413pt" height="104pt"
 viewBox="0.00 0.00 413.00 104.00" xmlns="http://www.w3.org/2000/svg" xmlns:xlink="http://www.w3.org/1999/xlink">
<g id="graph0" class="graph" transform="scale(1 1) rotate(0) translate(4 100)">
<title>Graphical Class Hierarchy</title>
<polygon fill="white" stroke="transparent" points="-4,4 -4,-100 409,-100 409,4 -4,4"/>
<!-- Node0 -->
<g id="node1" class="node">
<title>Node0</title>
<g id="a_node1"><a xlink:href="de/d3d/classQMenu.html" target="_top" xlink:title=" ">
<polygon fill="white" stroke="black" points="0,-38.5 0,-57.5 51,-57.5 51,-38.5 0,-38.5"/>
<text text-anchor="middle" x="25.5" y="-45.5" font-family="Helvetica,sans-Serif" font-size="10.00">QMenu</text>
</a>
</g>
</g>
<!-- Node1 -->
<g id="node2" class="node">
<title>Node1</title>
<g id="a_node2"><a xlink:href="d7/ddf/classBtBookshelfGroupingMenu.html" target="_top" xlink:title=" ">
<polygon fill="white" stroke="black" points="87,-76.5 87,-95.5 234,-95.5 234,-76.5 87,-76.5"/>
<text text-anchor="middle" x="160.5" y="-83.5" font-family="Helvetica,sans-Serif" font-size="10.00">BtBookshelfGroupingMenu</text>
</a>
</g>
</g>
<!-- Node0&#45;&gt;Node1 -->
<g id="edge1" class="edge">
<title>Node0&#45;&gt;Node1</title>
<path fill="none" stroke="midnightblue" d="M60.81,-59.09C69.34,-61.76 78.48,-64.55 87,-67 98.25,-70.24 110.56,-73.55 121.78,-76.48"/>
<polygon fill="midnightblue" stroke="midnightblue" points="61.73,-55.71 51.14,-56.03 59.62,-62.39 61.73,-55.71"/>
</g>
<!-- Node2 -->
<g id="node3" class="node">
<title>Node2</title>
<g id="a_node3"><a xlink:href="d9/de6/classBtMenuView.html" target="_top" xlink:title=" ">
<polygon fill="white" stroke="black" points="121.5,-38.5 121.5,-57.5 199.5,-57.5 199.5,-38.5 121.5,-38.5"/>
<text text-anchor="middle" x="160.5" y="-45.5" font-family="Helvetica,sans-Serif" font-size="10.00">BtMenuView</text>
</a>
</g>
</g>
<!-- Node0&#45;&gt;Node2 -->
<g id="edge2" class="edge">
<title>Node0&#45;&gt;Node2</title>
<path fill="none" stroke="midnightblue" d="M61.24,-48C79.69,-48 102.39,-48 121.33,-48"/>
<polygon fill="midnightblue" stroke="midnightblue" points="61.2,-44.5 51.2,-48 61.2,-51.5 61.2,-44.5"/>
</g>
<!-- Node5 -->
<g id="node6" class="node">
<title>Node5</title>
<g id="a_node6"><a xlink:href="d9/d12/classBtVerseKeyMenu.html" target="_top" xlink:title=" ">
<polygon fill="white" stroke="black" points="111,-0.5 111,-19.5 210,-19.5 210,-0.5 111,-0.5"/>
<text text-anchor="middle" x="160.5" y="-7.5" font-family="Helvetica,sans-Serif" font-size="10.00">BtVerseKeyMenu</text>
</a>
</g>
</g>
<!-- Node0&#45;&gt;Node5 -->
<g id="edge5" class="edge">
<title>Node0&#45;&gt;Node5</title>
<path fill="none" stroke="midnightblue" d="M60.81,-36.91C69.34,-34.24 78.48,-31.45 87,-29 98.25,-25.76 110.56,-22.45 121.78,-19.52"/>
<polygon fill="midnightblue" stroke="midnightblue" points="59.62,-33.61 51.14,-39.97 61.73,-40.29 59.62,-33.61"/>
</g>
<!-- Node3 -->
<g id="node4" class="node">
<title>Node3</title>
<g id="a_node4"><a xlink:href="d3/de9/classBtModuleChooserMenu.html" target="_top" xlink:title=" ">
<polygon fill="white" stroke="black" points="272.5,-57.5 272.5,-76.5 402.5,-76.5 402.5,-57.5 272.5,-57.5"/>
<text text-anchor="middle" x="337.5" y="-64.5" font-family="Helvetica,sans-Serif" font-size="10.00">BtModuleChooserMenu</text>
</a>
</g>
</g>
<!-- Node2&#45;&gt;Node3 -->
<g id="edge3" class="edge">
<title>Node2&#45;&gt;Node3</title>
<path fill="none" stroke="midnightblue" d="M209.97,-53.26C229.28,-55.36 251.77,-57.8 272.39,-60.04"/>
<polygon fill="midnightblue" stroke="midnightblue" points="210.22,-49.77 199.9,-52.17 209.47,-56.73 210.22,-49.77"/>
</g>
<!-- Node4 -->
<g id="node5" class="node">
<title>Node4</title>
<g id="a_node5"><a xlink:href="de/d9e/classBtOpenWorkActionMenu.html" target="_top" xlink:title=" ">
<polygon fill="white" stroke="black" points="270,-19.5 270,-38.5 405,-38.5 405,-19.5 270,-19.5"/>
<text text-anchor="middle" x="337.5" y="-26.5" font-family="Helvetica,sans-Serif" font-size="10.00">BtOpenWorkActionMenu</text>
</a>
</g>
</g>
<!-- Node2&#45;&gt;Node4 -->
<g id="edge4" class="edge">
<title>Node2&#45;&gt;Node4</title>
<path fill="none" stroke="midnightblue" d="M209.89,-42.75C228.46,-40.73 249.98,-38.39 269.96,-36.22"/>
<polygon fill="midnightblue" stroke="midnightblue" points="209.47,-39.27 199.9,-43.83 210.22,-46.23 209.47,-39.27"/>
</g>
</g>
</svg>
