<?xml version="1.0" encoding="UTF-8" standalone="no"?>
<!DOCTYPE svg PUBLIC "-//W3C//DTD SVG 1.1//EN"
 "http://www.w3.org/Graphics/SVG/1.1/DTD/svg11.dtd">
<!-- Generated by graphviz version 2.43.0 (0)
 -->
<!-- Title: Graphical Class Hierarchy Pages: 1 -->
<svg width="417pt" height="142pt"
 viewBox="0.00 0.00 417.00 142.00" xmlns="http://www.w3.org/2000/svg" xmlns:xlink="http://www.w3.org/1999/xlink">
<g id="graph0" class="graph" transform="scale(1 1) rotate(0) translate(4 138)">
<title>Graphical Class Hierarchy</title>
<polygon fill="white" stroke="transparent" points="-4,4 -4,-138 413,-138 413,4 -4,4"/>
<!-- Node0 -->
<g id="node1" class="node">
<title>Node0</title>
<g id="a_node1"><a xlink:href="df/d90/classQMainWindow.html" target="_top" xlink:title=" ">
<polygon fill="white" stroke="black" points="0,-76.5 0,-95.5 87,-95.5 87,-76.5 0,-76.5"/>
<text text-anchor="middle" x="43.5" y="-83.5" font-family="Helvetica,sans-Serif" font-size="10.00">QMainWindow</text>
</a>
</g>
</g>
<!-- Node1 -->
<g id="node2" class="node">
<title>Node1</title>
<g id="a_node2"><a xlink:href="d7/d66/classBibleTime.html" target="_top" xlink:title=" ">
<polygon fill="white" stroke="black" points="139.5,-95.5 139.5,-114.5 205.5,-114.5 205.5,-95.5 139.5,-95.5"/>
<text text-anchor="middle" x="172.5" y="-102.5" font-family="Helvetica,sans-Serif" font-size="10.00">BibleTime</text>
</a>
</g>
</g>
<!-- Node0&#45;&gt;Node1 -->
<g id="edge1" class="edge">
<title>Node0&#45;&gt;Node1</title>
<path fill="none" stroke="midnightblue" d="M97.32,-93.9C111.54,-96.03 126.49,-98.27 139.21,-100.17"/>
<polygon fill="midnightblue" stroke="midnightblue" points="97.55,-90.4 87.14,-92.38 96.51,-97.32 97.55,-90.4"/>
</g>
<!-- Node2 -->
<g id="node3" class="node">
<title>Node2</title>
<g id="a_node3"><a xlink:href="dc/dc1/classCDisplayWindow.html" target="_top" xlink:title="The base class for all display windows of BibleTime.">
<polygon fill="white" stroke="black" points="123,-57.5 123,-76.5 222,-76.5 222,-57.5 123,-57.5"/>
<text text-anchor="middle" x="172.5" y="-64.5" font-family="Helvetica,sans-Serif" font-size="10.00">CDisplayWindow</text>
</a>
</g>
</g>
<!-- Node0&#45;&gt;Node2 -->
<g id="edge2" class="edge">
<title>Node0&#45;&gt;Node2</title>
<path fill="none" stroke="midnightblue" d="M97.23,-78.11C105.63,-76.85 114.3,-75.56 122.61,-74.31"/>
<polygon fill="midnightblue" stroke="midnightblue" points="96.51,-74.68 87.14,-79.62 97.55,-81.6 96.51,-74.68"/>
</g>
<!-- Node3 -->
<g id="node4" class="node">
<title>Node3</title>
<g id="a_node4"><a xlink:href="da/d2f/classCBibleReadWindow.html" target="_top" xlink:title=" ">
<polygon fill="white" stroke="black" points="277.5,-114.5 277.5,-133.5 389.5,-133.5 389.5,-114.5 277.5,-114.5"/>
<text text-anchor="middle" x="333.5" y="-121.5" font-family="Helvetica,sans-Serif" font-size="10.00">CBibleReadWindow</text>
</a>
</g>
</g>
<!-- Node2&#45;&gt;Node3 -->
<g id="edge3" class="edge">
<title>Node2&#45;&gt;Node3</title>
<path fill="none" stroke="midnightblue" d="M208.96,-80.36C213.38,-82.18 217.82,-84.08 222,-86 238.45,-93.53 241.12,-98.5 258,-105 267.47,-108.65 277.88,-111.8 287.84,-114.44"/>
<polygon fill="midnightblue" stroke="midnightblue" points="209.98,-77 199.4,-76.53 207.38,-83.5 209.98,-77"/>
</g>
<!-- Node4 -->
<g id="node5" class="node">
<title>Node4</title>
<g id="a_node5"><a xlink:href="d9/d59/classCBookReadWindow.html" target="_top" xlink:title=" ">
<polygon fill="white" stroke="black" points="277.5,-76.5 277.5,-95.5 389.5,-95.5 389.5,-76.5 277.5,-76.5"/>
<text text-anchor="middle" x="333.5" y="-83.5" font-family="Helvetica,sans-Serif" font-size="10.00">CBookReadWindow</text>
</a>
</g>
</g>
<!-- Node2&#45;&gt;Node4 -->
<g id="edge4" class="edge">
<title>Node2&#45;&gt;Node4</title>
<path fill="none" stroke="midnightblue" d="M232.1,-74C246.87,-75.77 262.68,-77.66 277.28,-79.4"/>
<polygon fill="midnightblue" stroke="midnightblue" points="232.41,-70.52 222.07,-72.8 231.58,-77.47 232.41,-70.52"/>
</g>
<!-- Node5 -->
<g id="node6" class="node">
<title>Node5</title>
<g id="a_node6"><a xlink:href="d4/d85/classCCommentaryReadWindow.html" target="_top" xlink:title=" ">
<polygon fill="white" stroke="black" points="258,-38.5 258,-57.5 409,-57.5 409,-38.5 258,-38.5"/>
<text text-anchor="middle" x="333.5" y="-45.5" font-family="Helvetica,sans-Serif" font-size="10.00">CCommentaryReadWindow</text>
</a>
</g>
</g>
<!-- Node2&#45;&gt;Node5 -->
<g id="edge5" class="edge">
<title>Node2&#45;&gt;Node5</title>
<path fill="none" stroke="midnightblue" d="M232.11,-60C240.5,-58.99 249.23,-57.95 257.87,-56.92"/>
<polygon fill="midnightblue" stroke="midnightblue" points="231.58,-56.53 222.07,-61.2 232.41,-63.48 231.58,-56.53"/>
</g>
<!-- Node6 -->
<g id="node7" class="node">
<title>Node6</title>
<g id="a_node7"><a xlink:href="d2/d38/classCLexiconReadWindow.html" target="_top" xlink:title="The class used to display lexicons.">
<polygon fill="white" stroke="black" points="271,-0.5 271,-19.5 396,-19.5 396,-0.5 271,-0.5"/>
<text text-anchor="middle" x="333.5" y="-7.5" font-family="Helvetica,sans-Serif" font-size="10.00">CLexiconReadWindow</text>
</a>
</g>
</g>
<!-- Node2&#45;&gt;Node6 -->
<g id="edge6" class="edge">
<title>Node2&#45;&gt;Node6</title>
<path fill="none" stroke="midnightblue" d="M201.67,-52.86C217.87,-45.1 238.76,-35.72 258,-29 268.08,-25.48 279.14,-22.3 289.57,-19.6"/>
<polygon fill="midnightblue" stroke="midnightblue" points="199.71,-49.92 192.25,-57.44 202.77,-56.21 199.71,-49.92"/>
</g>
</g>
</svg>
