<?xml version="1.0" encoding="UTF-8" standalone="no"?>
<!DOCTYPE svg PUBLIC "-//W3C//DTD SVG 1.1//EN"
 "http://www.w3.org/Graphics/SVG/1.1/DTD/svg11.dtd">
<!-- Generated by graphviz version 2.43.0 (0)
 -->
<!-- Title: Graphical Class Hierarchy Pages: 1 -->
<svg width="272pt" height="101pt"
 viewBox="0.00 0.00 272.00 101.00" xmlns="http://www.w3.org/2000/svg" xmlns:xlink="http://www.w3.org/1999/xlink">
<g id="graph0" class="graph" transform="scale(1 1) rotate(0) translate(4 97)">
<title>Graphical Class Hierarchy</title>
<!-- Node0 -->
<g id="Node000000" class="node">
<title>Node0</title>
<g id="a_Node000000"><a xlink:href="d6/d16/classQComboBox.html" target="_top" xlink:title=" ">
<polygon fill="white" stroke="#666666" points="77,-56 0,-56 0,-37 77,-37 77,-56"/>
<text text-anchor="middle" x="38.5" y="-44" font-family="Helvetica,sans-Serif" font-size="10.00">QComboBox</text>
</a>
</g>
</g>
<!-- Node1 -->
<g id="Node000001" class="node">
<title>Node1</title>
<g id="a_Node000001"><a xlink:href="d3/dcb/classBtFontSizeWidget.html" target="_top" xlink:title=" ">
<polygon fill="white" stroke="#666666" points="240,-93 137,-93 137,-74 240,-74 240,-93"/>
<text text-anchor="middle" x="188.5" y="-81" font-family="Helvetica,sans-Serif" font-size="10.00">BtFontSizeWidget</text>
</a>
</g>
</g>
<!-- Node0&#45;&gt;Node1 -->
<g id="edge25_Node000000_Node000001" class="edge">
<title>Node0&#45;&gt;Node1</title>
<g id="a_edge25_Node000000_Node000001"><a xlink:title=" ">
<path fill="none" stroke="#63b8ff" d="M86.01,-58.64C94.96,-60.95 104.27,-63.32 113,-65.5 124.23,-68.31 136.43,-71.29 147.65,-74"/>
<polygon fill="#63b8ff" stroke="#63b8ff" points="86.67,-55.2 76.11,-56.09 84.92,-61.97 86.67,-55.2"/>
</a>
</g>
</g>
<!-- Node2 -->
<g id="Node000002" class="node">
<title>Node2</title>
<g id="a_Node000002"><a xlink:href="d2/d66/classCKCComboBox.html" target="_top" xlink:title=" ">
<polygon fill="white" stroke="#666666" points="233,-56 144,-56 144,-37 233,-37 233,-56"/>
<text text-anchor="middle" x="188.5" y="-44" font-family="Helvetica,sans-Serif" font-size="10.00">CKCComboBox</text>
</a>
</g>
</g>
<!-- Node0&#45;&gt;Node2 -->
<g id="edge26_Node000000_Node000002" class="edge">
<title>Node0&#45;&gt;Node2</title>
<g id="a_edge26_Node000000_Node000002"><a xlink:title=" ">
<path fill="none" stroke="#63b8ff" d="M87.32,-46.5C105.48,-46.5 126.05,-46.5 143.8,-46.5"/>
<polygon fill="#63b8ff" stroke="#63b8ff" points="87.23,-43 77.23,-46.5 87.23,-50 87.23,-43"/>
</a>
</g>
</g>
<!-- Node3 -->
<g id="Node000003" class="node">
<title>Node3</title>
<g id="a_Node000003"><a xlink:href="db/d5d/classSearch_1_1CHistoryComboBox.html" target="_top" xlink:title=" ">
<polygon fill="white" stroke="#666666" points="264,-19 113,-19 113,0 264,0 264,-19"/>
<text text-anchor="middle" x="188.5" y="-7" font-family="Helvetica,sans-Serif" font-size="10.00">Search::CHistoryComboBox</text>
</a>
</g>
</g>
<!-- Node0&#45;&gt;Node3 -->
<g id="edge27_Node000000_Node000003" class="edge">
<title>Node0&#45;&gt;Node3</title>
<g id="a_edge27_Node000000_Node000003"><a xlink:title=" ">
<path fill="none" stroke="#63b8ff" d="M87.13,-34.59C107.25,-29.56 130.36,-23.79 149.32,-19.04"/>
<polygon fill="#63b8ff" stroke="#63b8ff" points="86.08,-31.25 77.23,-37.07 87.78,-38.04 86.08,-31.25"/>
</a>
</g>
</g>
</g>
</svg>
