<?xml version="1.0" encoding="UTF-8" standalone="no"?>
<!DOCTYPE svg PUBLIC "-//W3C//DTD SVG 1.1//EN"
 "http://www.w3.org/Graphics/SVG/1.1/DTD/svg11.dtd">
<!-- Generated by graphviz version 2.43.0 (0)
 -->
<!-- Title: Graphical Class Hierarchy Pages: 1 -->
<svg width="535pt" height="263pt"
 viewBox="0.00 0.00 535.00 262.50" xmlns="http://www.w3.org/2000/svg" xmlns:xlink="http://www.w3.org/1999/xlink">
<g id="graph0" class="graph" transform="scale(1 1) rotate(0) translate(4 258.5)">
<title>Graphical Class Hierarchy</title>
<polygon fill="white" stroke="transparent" points="-4,4 -4,-258.5 531,-258.5 531,4 -4,4"/>
<!-- Node0 -->
<g id="node1" class="node">
<title>Node0</title>
<g id="a_node1"><a xlink:href="d5/d1c/classBookshelfModel_1_1Item.html" target="_top" xlink:title=" ">
<polygon fill="white" stroke="black" points="0,-106.5 0,-125.5 124,-125.5 124,-106.5 0,-106.5"/>
<text text-anchor="middle" x="62" y="-113.5" font-family="Helvetica,sans-Serif" font-size="10.00">BookshelfModel::Item</text>
</a>
</g>
</g>
<!-- Node1 -->
<g id="node2" class="node">
<title>Node1</title>
<g id="a_node2"><a xlink:href="d1/dcc/classBookshelfModel_1_1GroupItem.html" target="_top" xlink:title=" ">
<polygon fill="white" stroke="black" points="163.5,-224 163.5,-254 316.5,-254 316.5,-224 163.5,-224"/>
<text text-anchor="start" x="171.5" y="-242" font-family="Helvetica,sans-Serif" font-size="10.00">BookshelfModel::GroupItem</text>
<text text-anchor="middle" x="240" y="-231" font-family="Helvetica,sans-Serif" font-size="10.00">&lt; Item::ITEM_INDEXING &gt;</text>
</a>
</g>
</g>
<!-- Node0&#45;&gt;Node1 -->
<g id="edge1" class="edge">
<title>Node0&#45;&gt;Node1</title>
<path fill="none" stroke="midnightblue" d="M75.97,-133.95C92.89,-156.11 124.56,-193.5 160,-215 165.64,-218.42 171.8,-221.39 178.12,-223.95"/>
<polygon fill="midnightblue" stroke="midnightblue" points="78.63,-131.66 69.84,-125.73 73.02,-135.84 78.63,-131.66"/>
</g>
<!-- Node3 -->
<g id="node4" class="node">
<title>Node3</title>
<g id="a_node4"><a xlink:href="d1/dcc/classBookshelfModel_1_1GroupItem.html" target="_top" xlink:title=" ">
<polygon fill="white" stroke="black" points="163.5,-175 163.5,-205 316.5,-205 316.5,-175 163.5,-175"/>
<text text-anchor="start" x="171.5" y="-193" font-family="Helvetica,sans-Serif" font-size="10.00">BookshelfModel::GroupItem</text>
<text text-anchor="middle" x="240" y="-182" font-family="Helvetica,sans-Serif" font-size="10.00">&lt; Item::ITEM_CATEGORY &gt;</text>
</a>
</g>
</g>
<!-- Node0&#45;&gt;Node3 -->
<g id="edge3" class="edge">
<title>Node0&#45;&gt;Node3</title>
<path fill="none" stroke="midnightblue" d="M88.81,-130.48C108.06,-140.91 135.19,-154.89 160,-165 168.66,-168.53 178.01,-171.88 187.15,-174.91"/>
<polygon fill="midnightblue" stroke="midnightblue" points="90.23,-127.27 79.78,-125.53 86.87,-133.4 90.23,-127.27"/>
</g>
<!-- Node5 -->
<g id="node6" class="node">
<title>Node5</title>
<g id="a_node6"><a xlink:href="d1/dcc/classBookshelfModel_1_1GroupItem.html" target="_top" xlink:title=" ">
<polygon fill="white" stroke="black" points="163.5,-126 163.5,-156 316.5,-156 316.5,-126 163.5,-126"/>
<text text-anchor="start" x="171.5" y="-144" font-family="Helvetica,sans-Serif" font-size="10.00">BookshelfModel::GroupItem</text>
<text text-anchor="middle" x="240" y="-133" font-family="Helvetica,sans-Serif" font-size="10.00">&lt; Item::ITEM_LANGUAGE &gt;</text>
</a>
</g>
</g>
<!-- Node0&#45;&gt;Node5 -->
<g id="edge5" class="edge">
<title>Node0&#45;&gt;Node5</title>
<path fill="none" stroke="midnightblue" d="M134.04,-126.09C143.73,-127.47 153.7,-128.88 163.47,-130.27"/>
<polygon fill="midnightblue" stroke="midnightblue" points="134.46,-122.61 124.06,-124.67 133.47,-129.55 134.46,-122.61"/>
</g>
<!-- Node7 -->
<g id="node8" class="node">
<title>Node7</title>
<g id="a_node8"><a xlink:href="d1/dcc/classBookshelfModel_1_1GroupItem.html" target="_top" xlink:title=" ">
<polygon fill="white" stroke="black" points="163.5,-77 163.5,-107 316.5,-107 316.5,-77 163.5,-77"/>
<text text-anchor="start" x="171.5" y="-95" font-family="Helvetica,sans-Serif" font-size="10.00">BookshelfModel::GroupItem</text>
<text text-anchor="middle" x="240" y="-84" font-family="Helvetica,sans-Serif" font-size="10.00">&lt; TYPE &gt;</text>
</a>
</g>
</g>
<!-- Node0&#45;&gt;Node7 -->
<g id="edge7" class="edge">
<title>Node0&#45;&gt;Node7</title>
<path fill="none" stroke="midnightblue" d="M134.04,-106.31C143.73,-104.99 153.7,-103.63 163.47,-102.3"/>
<polygon fill="midnightblue" stroke="midnightblue" points="133.5,-102.85 124.06,-107.67 134.44,-109.79 133.5,-102.85"/>
</g>
<!-- Node8 -->
<g id="node9" class="node">
<title>Node8</title>
<g id="a_node9"><a xlink:href="d0/de5/classBookshelfModel_1_1ModuleItem.html" target="_top" xlink:title=" ">
<polygon fill="white" stroke="black" points="160,-38.5 160,-57.5 320,-57.5 320,-38.5 160,-38.5"/>
<text text-anchor="middle" x="240" y="-45.5" font-family="Helvetica,sans-Serif" font-size="10.00">BookshelfModel::ModuleItem</text>
</a>
</g>
</g>
<!-- Node0&#45;&gt;Node8 -->
<g id="edge8" class="edge">
<title>Node0&#45;&gt;Node8</title>
<path fill="none" stroke="midnightblue" d="M87.66,-101.53C106.85,-90.77 134.43,-76.39 160,-67 169.93,-63.35 180.82,-60.21 191.26,-57.59"/>
<polygon fill="midnightblue" stroke="midnightblue" points="85.92,-98.49 78.96,-106.48 89.38,-104.58 85.92,-98.49"/>
</g>
<!-- Node9 -->
<g id="node10" class="node">
<title>Node9</title>
<g id="a_node10"><a xlink:href="d2/d07/classBookshelfModel_1_1RootItem.html" target="_top" xlink:title=" ">
<polygon fill="white" stroke="black" points="167,-0.5 167,-19.5 313,-19.5 313,-0.5 167,-0.5"/>
<text text-anchor="middle" x="240" y="-7.5" font-family="Helvetica,sans-Serif" font-size="10.00">BookshelfModel::RootItem</text>
</a>
</g>
</g>
<!-- Node0&#45;&gt;Node9 -->
<g id="edge9" class="edge">
<title>Node0&#45;&gt;Node9</title>
<path fill="none" stroke="midnightblue" d="M77.31,-98.8C94.77,-78.95 126.18,-46.76 160,-29 167.37,-25.13 175.54,-22.04 183.74,-19.56"/>
<polygon fill="midnightblue" stroke="midnightblue" points="74.57,-96.61 70.71,-106.47 79.88,-101.17 74.57,-96.61"/>
</g>
<!-- Node2 -->
<g id="node3" class="node">
<title>Node2</title>
<g id="a_node3"><a xlink:href="d9/dea/classBookshelfModel_1_1IndexingItem.html" target="_top" xlink:title=" ">
<polygon fill="white" stroke="black" points="358.5,-229.5 358.5,-248.5 524.5,-248.5 524.5,-229.5 358.5,-229.5"/>
<text text-anchor="middle" x="441.5" y="-236.5" font-family="Helvetica,sans-Serif" font-size="10.00">BookshelfModel::IndexingItem</text>
</a>
</g>
</g>
<!-- Node1&#45;&gt;Node2 -->
<g id="edge2" class="edge">
<title>Node1&#45;&gt;Node2</title>
<path fill="none" stroke="midnightblue" d="M326.98,-239C337.33,-239 347.89,-239 358.19,-239"/>
<polygon fill="midnightblue" stroke="midnightblue" points="326.71,-235.5 316.71,-239 326.71,-242.5 326.71,-235.5"/>
</g>
<!-- Node4 -->
<g id="node5" class="node">
<title>Node4</title>
<g id="a_node5"><a xlink:href="d8/d6d/classBookshelfModel_1_1CategoryItem.html" target="_top" xlink:title=" ">
<polygon fill="white" stroke="black" points="357.5,-180.5 357.5,-199.5 525.5,-199.5 525.5,-180.5 357.5,-180.5"/>
<text text-anchor="middle" x="441.5" y="-187.5" font-family="Helvetica,sans-Serif" font-size="10.00">BookshelfModel::CategoryItem</text>
</a>
</g>
</g>
<!-- Node3&#45;&gt;Node4 -->
<g id="edge4" class="edge">
<title>Node3&#45;&gt;Node4</title>
<path fill="none" stroke="midnightblue" d="M326.72,-190C336.82,-190 347.12,-190 357.18,-190"/>
<polygon fill="midnightblue" stroke="midnightblue" points="326.71,-186.5 316.71,-190 326.71,-193.5 326.71,-186.5"/>
</g>
<!-- Node6 -->
<g id="node7" class="node">
<title>Node6</title>
<g id="a_node7"><a xlink:href="db/da1/classBookshelfModel_1_1LanguageItem.html" target="_top" xlink:title=" ">
<polygon fill="white" stroke="black" points="356,-131.5 356,-150.5 527,-150.5 527,-131.5 356,-131.5"/>
<text text-anchor="middle" x="441.5" y="-138.5" font-family="Helvetica,sans-Serif" font-size="10.00">BookshelfModel::LanguageItem</text>
</a>
</g>
</g>
<!-- Node5&#45;&gt;Node6 -->
<g id="edge6" class="edge">
<title>Node5&#45;&gt;Node6</title>
<path fill="none" stroke="midnightblue" d="M327,-141C336.56,-141 346.29,-141 355.84,-141"/>
<polygon fill="midnightblue" stroke="midnightblue" points="326.71,-137.5 316.71,-141 326.71,-144.5 326.71,-137.5"/>
</g>
</g>
</svg>
