<?xml version="1.0" encoding="UTF-8" standalone="no"?>
<!DOCTYPE svg PUBLIC "-//W3C//DTD SVG 1.1//EN"
 "http://www.w3.org/Graphics/SVG/1.1/DTD/svg11.dtd">
<!-- Generated by graphviz version 2.43.0 (0)
 -->
<!-- Title: Graphical Class Hierarchy Pages: 1 -->
<svg width="235pt" height="50pt"
 viewBox="0.00 0.00 235.00 50.00" xmlns="http://www.w3.org/2000/svg" xmlns:xlink="http://www.w3.org/1999/xlink">
<g id="graph0" class="graph" transform="scale(1 1) rotate(0) translate(4 46)">
<title>Graphical Class Hierarchy</title>
<polygon fill="white" stroke="transparent" points="-4,4 -4,-46 231,-46 231,4 -4,4"/>
<!-- Node0 -->
<g id="node1" class="node">
<title>Node0</title>
<g id="a_node1"><a xlink:href="d3/d25/classBtPrinter_1_1KeyTreeItem_1_1Settings.html" target="_top" xlink:title=" ">
<polygon fill="white" stroke="black" points="0,-11.5 0,-30.5 56,-30.5 56,-11.5 0,-11.5"/>
<text text-anchor="middle" x="28" y="-18.5" font-family="Helvetica,sans-Serif" font-size="10.00">Settings</text>
</a>
</g>
</g>
<!-- Node1 -->
<g id="node2" class="node">
<title>Node1</title>
<g id="a_node2"><a xlink:href="db/d41/structanonymous__namespace_02cexportmanager_8cpp_03_1_1PrintSettings.html" target="_top" xlink:title=" ">
<polygon fill="white" stroke="black" points="92,-0.5 92,-41.5 227,-41.5 227,-0.5 92,-0.5"/>
<text text-anchor="start" x="100" y="-29.5" font-family="Helvetica,sans-Serif" font-size="10.00">anonymous_namespace</text>
<text text-anchor="start" x="100" y="-18.5" font-family="Helvetica,sans-Serif" font-size="10.00">{cexportmanager.cpp}</text>
<text text-anchor="middle" x="159.5" y="-7.5" font-family="Helvetica,sans-Serif" font-size="10.00">::PrintSettings</text>
</a>
</g>
</g>
<!-- Node0&#45;&gt;Node1 -->
<g id="edge1" class="edge">
<title>Node0&#45;&gt;Node1</title>
<path fill="none" stroke="midnightblue" d="M66.28,-21C74.34,-21 83.1,-21 91.9,-21"/>
<polygon fill="midnightblue" stroke="midnightblue" points="66.15,-17.5 56.15,-21 66.15,-24.5 66.15,-17.5"/>
</g>
</g>
</svg>
