<?xml version="1.0" encoding="UTF-8" standalone="no"?>
<!DOCTYPE svg PUBLIC "-//W3C//DTD SVG 1.1//EN"
 "http://www.w3.org/Graphics/SVG/1.1/DTD/svg11.dtd">
<!-- Generated by graphviz version 2.43.0 (0)
 -->
<!-- Title: Graphical Class Hierarchy Pages: 1 -->
<svg width="273pt" height="202pt"
 viewBox="0.00 0.00 273.00 202.00" xmlns="http://www.w3.org/2000/svg" xmlns:xlink="http://www.w3.org/1999/xlink">
<g id="graph0" class="graph" transform="scale(1 1) rotate(0) translate(4 198)">
<title>Graphical Class Hierarchy</title>
<polygon fill="white" stroke="transparent" points="-4,4 -4,-198 269,-198 269,4 -4,4"/>
<!-- Node0 -->
<g id="node1" class="node">
<title>Node0</title>
<g id="a_node1"><a xlink:href="d2/def/classQToolButton.html" target="_top" xlink:title=" ">
<polygon fill="white" stroke="black" points="0,-98.5 0,-117.5 76,-117.5 76,-98.5 0,-98.5"/>
<text text-anchor="middle" x="38" y="-105.5" font-family="Helvetica,sans-Serif" font-size="10.00">QToolButton</text>
</a>
</g>
</g>
<!-- Node1 -->
<g id="node2" class="node">
<title>Node1</title>
<g id="a_node2"><a xlink:href="d7/d32/classBtDisplaySettingsButton.html" target="_top" xlink:title=" ">
<polygon fill="white" stroke="black" points="120.5,-174.5 120.5,-193.5 256.5,-193.5 256.5,-174.5 120.5,-174.5"/>
<text text-anchor="middle" x="188.5" y="-181.5" font-family="Helvetica,sans-Serif" font-size="10.00">BtDisplaySettingsButton</text>
</a>
</g>
</g>
<!-- Node0&#45;&gt;Node1 -->
<g id="edge1" class="edge">
<title>Node0&#45;&gt;Node1</title>
<path fill="none" stroke="midnightblue" d="M55.85,-124.52C69.81,-137.34 90.75,-154.61 112,-165 119.89,-168.86 128.64,-171.98 137.31,-174.5"/>
<polygon fill="midnightblue" stroke="midnightblue" points="58.16,-121.89 48.48,-117.58 53.36,-126.98 58.16,-121.89"/>
</g>
<!-- Node2 -->
<g id="node3" class="node">
<title>Node2</title>
<g id="a_node3"><a xlink:href="d4/df7/classBtDropdownChooserButton.html" target="_top" xlink:title=" ">
<polygon fill="white" stroke="black" points="114,-136.5 114,-155.5 263,-155.5 263,-136.5 114,-136.5"/>
<text text-anchor="middle" x="188.5" y="-143.5" font-family="Helvetica,sans-Serif" font-size="10.00">BtDropdownChooserButton</text>
</a>
</g>
</g>
<!-- Node0&#45;&gt;Node2 -->
<g id="edge2" class="edge">
<title>Node0&#45;&gt;Node2</title>
<path fill="none" stroke="midnightblue" d="M85.21,-120.09C94.1,-122.4 103.34,-124.78 112,-127 124.18,-130.12 137.47,-133.48 149.46,-136.49"/>
<polygon fill="midnightblue" stroke="midnightblue" points="85.93,-116.66 75.37,-117.53 84.17,-123.43 85.93,-116.66"/>
</g>
<!-- Node3 -->
<g id="node4" class="node">
<title>Node3</title>
<g id="a_node4"><a xlink:href="d0/da1/classBtModuleChooserButton.html" target="_top" xlink:title=" ">
<polygon fill="white" stroke="black" points="121,-98.5 121,-117.5 256,-117.5 256,-98.5 121,-98.5"/>
<text text-anchor="middle" x="188.5" y="-105.5" font-family="Helvetica,sans-Serif" font-size="10.00">BtModuleChooserButton</text>
</a>
</g>
</g>
<!-- Node0&#45;&gt;Node3 -->
<g id="edge3" class="edge">
<title>Node0&#45;&gt;Node3</title>
<path fill="none" stroke="midnightblue" d="M86.31,-108C97.29,-108 109.19,-108 120.84,-108"/>
<polygon fill="midnightblue" stroke="midnightblue" points="86.09,-104.5 76.09,-108 86.09,-111.5 86.09,-104.5"/>
</g>
<!-- Node4 -->
<g id="node5" class="node">
<title>Node4</title>
<g id="a_node5"><a xlink:href="d8/d63/classCScrollButton.html" target="_top" xlink:title=" ">
<polygon fill="white" stroke="black" points="147,-60.5 147,-79.5 230,-79.5 230,-60.5 147,-60.5"/>
<text text-anchor="middle" x="188.5" y="-67.5" font-family="Helvetica,sans-Serif" font-size="10.00">CScrollButton</text>
</a>
</g>
</g>
<!-- Node0&#45;&gt;Node4 -->
<g id="edge4" class="edge">
<title>Node0&#45;&gt;Node4</title>
<path fill="none" stroke="midnightblue" d="M85.21,-95.91C94.1,-93.6 103.34,-91.22 112,-89 124.18,-85.88 137.47,-82.52 149.46,-79.51"/>
<polygon fill="midnightblue" stroke="midnightblue" points="84.17,-92.57 75.37,-98.47 85.93,-99.34 84.17,-92.57"/>
</g>
<!-- Node5 -->
<g id="node6" class="node">
<title>Node5</title>
<g id="a_node6"><a xlink:href="d5/ddc/classanonymous__namespace_02bttoolbarpopupaction_8cpp_03_1_1BtToolButton.html" target="_top" xlink:title=" ">
<polygon fill="white" stroke="black" points="112,-0.5 112,-41.5 265,-41.5 265,-0.5 112,-0.5"/>
<text text-anchor="start" x="120" y="-29.5" font-family="Helvetica,sans-Serif" font-size="10.00">anonymous_namespace</text>
<text text-anchor="start" x="120" y="-18.5" font-family="Helvetica,sans-Serif" font-size="10.00">{bttoolbarpopupaction.cpp}</text>
<text text-anchor="middle" x="188.5" y="-7.5" font-family="Helvetica,sans-Serif" font-size="10.00">::BtToolButton</text>
</a>
</g>
</g>
<!-- Node0&#45;&gt;Node5 -->
<g id="edge5" class="edge">
<title>Node0&#45;&gt;Node5</title>
<path fill="none" stroke="midnightblue" d="M56.73,-91.8C70.91,-79.45 91.71,-62.63 112,-51 117.87,-47.63 124.2,-44.47 130.6,-41.56"/>
<polygon fill="midnightblue" stroke="midnightblue" points="54.36,-89.23 49.2,-98.49 59,-94.46 54.36,-89.23"/>
</g>
</g>
</svg>
