<?xml version="1.0" encoding="UTF-8" standalone="no"?>
<!DOCTYPE svg PUBLIC "-//W3C//DTD SVG 1.1//EN"
 "http://www.w3.org/Graphics/SVG/1.1/DTD/svg11.dtd">
<!-- Generated by graphviz version 2.43.0 (0)
 -->
<!-- Title: Graphical Class Hierarchy Pages: 1 -->
<svg width="266pt" height="50pt"
 viewBox="0.00 0.00 266.00 50.00" xmlns="http://www.w3.org/2000/svg" xmlns:xlink="http://www.w3.org/1999/xlink">
<g id="graph0" class="graph" transform="scale(1 1) rotate(0) translate(4 46)">
<title>Graphical Class Hierarchy</title>
<polygon fill="white" stroke="transparent" points="-4,4 -4,-46 262,-46 262,4 -4,4"/>
<!-- Node19 -->
<g id="node1" class="node">
<title>Node19</title>
<g id="a_node1"><a xlink:title=" ">
<polygon fill="white" stroke="#bfbfbf" points="0,-11.5 0,-30.5 67,-30.5 67,-11.5 0,-11.5"/>
<text text-anchor="middle" x="33.5" y="-18.5" font-family="Helvetica,sans-Serif" font-size="10.00">LocaleMgr</text>
</a>
</g>
</g>
<!-- Node0 -->
<g id="node2" class="node">
<title>Node0</title>
<g id="a_node2"><a xlink:href="d5/dd2/structanonymous__namespace_02btlocalemgr_8cpp_03_1_1BtLocaleMgrImpl.html" target="_top" xlink:title=" ">
<polygon fill="white" stroke="black" points="103,-0.5 103,-41.5 258,-41.5 258,-0.5 103,-0.5"/>
<text text-anchor="start" x="111" y="-29.5" font-family="Helvetica,sans-Serif" font-size="10.00">anonymous_namespace</text>
<text text-anchor="start" x="111" y="-18.5" font-family="Helvetica,sans-Serif" font-size="10.00">{btlocalemgr.cpp}::BtLocale</text>
<text text-anchor="middle" x="180.5" y="-7.5" font-family="Helvetica,sans-Serif" font-size="10.00">MgrImpl</text>
</a>
</g>
</g>
<!-- Node19&#45;&gt;Node0 -->
<g id="edge1" class="edge">
<title>Node19&#45;&gt;Node0</title>
<path fill="none" stroke="midnightblue" d="M77.05,-21C85.24,-21 94.05,-21 102.94,-21"/>
<polygon fill="midnightblue" stroke="midnightblue" points="77.04,-17.5 67.04,-21 77.04,-24.5 77.04,-17.5"/>
</g>
</g>
</svg>
