<?xml version="1.0" encoding="UTF-8" standalone="no"?>
<!DOCTYPE svg PUBLIC "-//W3C//DTD SVG 1.1//EN"
 "http://www.w3.org/Graphics/SVG/1.1/DTD/svg11.dtd">
<!-- Generated by graphviz version 2.43.0 (0)
 -->
<!-- Title: Graphical Class Hierarchy Pages: 1 -->
<svg width="191pt" height="64pt"
 viewBox="0.00 0.00 191.00 64.00" xmlns="http://www.w3.org/2000/svg" xmlns:xlink="http://www.w3.org/1999/xlink">
<g id="graph0" class="graph" transform="scale(1 1) rotate(0) translate(4 60)">
<title>Graphical Class Hierarchy</title>
<!-- Node0 -->
<g id="Node000000" class="node">
<title>Node0</title>
<g id="a_Node000000"><a xlink:href="d4/dda/classQSet.html" target="_top" xlink:title=" ">
<polygon fill="white" stroke="#666666" points="40,-37 0,-37 0,-18 40,-18 40,-37"/>
<text text-anchor="middle" x="20" y="-25" font-family="Helvetica,sans-Serif" font-size="10.00">QSet</text>
</a>
</g>
</g>
<!-- Node1 -->
<g id="Node000001" class="node">
<title>Node1</title>
<g id="a_Node000001"><a xlink:href="de/daa/classBtConstModuleSet.html" target="_top" xlink:title=" ">
<polygon fill="white" stroke="#666666" points="183,-56 76,-56 76,-37 183,-37 183,-56"/>
<text text-anchor="middle" x="129.5" y="-44" font-family="Helvetica,sans-Serif" font-size="10.00">BtConstModuleSet</text>
</a>
</g>
</g>
<!-- Node0&#45;&gt;Node1 -->
<g id="edge92_Node000000_Node000001" class="edge">
<title>Node0&#45;&gt;Node1</title>
<g id="a_edge92_Node000000_Node000001"><a xlink:title=" ">
<path fill="none" stroke="#63b8ff" d="M50.08,-32.64C58.04,-34.05 66.93,-35.62 75.78,-37.18"/>
<polygon fill="#63b8ff" stroke="#63b8ff" points="50.68,-29.19 40.22,-30.9 49.46,-36.08 50.68,-29.19"/>
</a>
</g>
</g>
<!-- Node2 -->
<g id="Node000002" class="node">
<title>Node2</title>
<g id="a_Node000002"><a xlink:href="d3/d2a/classBtModuleSet.html" target="_top" xlink:title=" ">
<polygon fill="white" stroke="#666666" points="169,-19 90,-19 90,0 169,0 169,-19"/>
<text text-anchor="middle" x="129.5" y="-7" font-family="Helvetica,sans-Serif" font-size="10.00">BtModuleSet</text>
</a>
</g>
</g>
<!-- Node0&#45;&gt;Node2 -->
<g id="edge93_Node000000_Node000002" class="edge">
<title>Node0&#45;&gt;Node2</title>
<g id="a_edge93_Node000000_Node000002"><a xlink:title=" ">
<path fill="none" stroke="#63b8ff" d="M50.3,-22.59C62.49,-20.55 76.82,-18.15 89.86,-15.97"/>
<polygon fill="#63b8ff" stroke="#63b8ff" points="49.5,-19.18 40.22,-24.28 50.66,-26.08 49.5,-19.18"/>
</a>
</g>
</g>
</g>
</svg>
