<?xml version="1.0" encoding="UTF-8" standalone="no"?>
<!DOCTYPE svg PUBLIC "-//W3C//DTD SVG 1.1//EN"
 "http://www.w3.org/Graphics/SVG/1.1/DTD/svg11.dtd">
<!-- Generated by graphviz version 2.43.0 (0)
 -->
<!-- Title: Graphical Class Hierarchy Pages: 1 -->
<svg width="730pt" height="304pt"
 viewBox="0.00 0.00 730.00 304.00" xmlns="http://www.w3.org/2000/svg" xmlns:xlink="http://www.w3.org/1999/xlink">
<g id="graph0" class="graph" transform="scale(1 1) rotate(0) translate(4 300)">
<title>Graphical Class Hierarchy</title>
<!-- Node0 -->
<g id="Node000000" class="node">
<title>Node0</title>
<g id="a_Node000000"><a xlink:href="d9/d5b/classQObject.html" target="_top" xlink:title=" ">
<polygon fill="white" stroke="#666666" points="90.5,-167 34.5,-167 34.5,-148 90.5,-148 90.5,-167"/>
<text text-anchor="middle" x="62.5" y="-155" font-family="Helvetica,sans-Serif" font-size="10.00">QObject</text>
</a>
</g>
</g>
<!-- Node1 -->
<g id="Node000001" class="node">
<title>Node1</title>
<g id="a_Node000001"><a xlink:href="d9/dae/classBTHistory.html" target="_top" xlink:title=" ">
<polygon fill="white" stroke="#666666" points="247.5,-241 182.5,-241 182.5,-222 247.5,-222 247.5,-241"/>
<text text-anchor="middle" x="215" y="-229" font-family="Helvetica,sans-Serif" font-size="10.00">BTHistory</text>
</a>
</g>
</g>
<!-- Node0&#45;&gt;Node1 -->
<g id="edge71_Node000000_Node000001" class="edge">
<title>Node0&#45;&gt;Node1</title>
<g id="a_edge71_Node000000_Node000001"><a xlink:title=" ">
<path fill="none" stroke="#63b8ff" d="M86.67,-172.52C106.01,-184.64 134.59,-201.57 161,-213.5 167.82,-216.58 175.33,-219.44 182.5,-221.92"/>
<polygon fill="#63b8ff" stroke="#63b8ff" points="88.54,-169.56 78.22,-167.17 84.79,-175.48 88.54,-169.56"/>
</a>
</g>
</g>
<!-- Node2 -->
<g id="Node000002" class="node">
<title>Node2</title>
<g id="a_Node000002"><a xlink:href="d0/d28/classBtActionCollection.html" target="_top" xlink:title=" ">
<polygon fill="white" stroke="#666666" points="268.5,-204 161.5,-204 161.5,-185 268.5,-185 268.5,-204"/>
<text text-anchor="middle" x="215" y="-192" font-family="Helvetica,sans-Serif" font-size="10.00">BtActionCollection</text>
</a>
</g>
</g>
<!-- Node0&#45;&gt;Node2 -->
<g id="edge72_Node000000_Node000002" class="edge">
<title>Node0&#45;&gt;Node2</title>
<g id="a_edge72_Node000000_Node000002"><a xlink:title=" ">
<path fill="none" stroke="#63b8ff" d="M100.7,-166.65C123.4,-172.23 152.38,-179.35 175.34,-185"/>
<polygon fill="#63b8ff" stroke="#63b8ff" points="101.3,-163.19 90.75,-164.2 99.63,-169.99 101.3,-163.19"/>
</a>
</g>
</g>
<!-- Node9 -->
<g id="Node000009" class="node">
<title>Node9</title>
<g id="a_Node000009"><a xlink:href="d8/d04/classBtInstallMgr.html" target="_top" xlink:title=" ">
<polygon fill="white" stroke="#666666" points="253,-278 177,-278 177,-259 253,-259 253,-278"/>
<text text-anchor="middle" x="215" y="-266" font-family="Helvetica,sans-Serif" font-size="10.00">BtInstallMgr</text>
</a>
</g>
</g>
<!-- Node0&#45;&gt;Node9 -->
<g id="edge79_Node000000_Node000009" class="edge">
<title>Node0&#45;&gt;Node9</title>
<g id="a_edge79_Node000000_Node000009"><a xlink:title=" ">
<path fill="none" stroke="#63b8ff" d="M77.68,-175.05C95.24,-195.75 127.04,-229.93 161,-250.5 166.49,-253.82 172.67,-256.63 178.82,-258.96"/>
<polygon fill="#63b8ff" stroke="#63b8ff" points="80.14,-172.54 71.06,-167.09 74.76,-177.01 80.14,-172.54"/>
</a>
</g>
</g>
<!-- Node12 -->
<g id="Node000012" class="node">
<title>Node12</title>
<g id="a_Node000012"><a xlink:href="d9/d89/classBtQmlInterface.html" target="_top" xlink:title=" ">
<polygon fill="white" stroke="#666666" points="260.5,-167 169.5,-167 169.5,-148 260.5,-148 260.5,-167"/>
<text text-anchor="middle" x="215" y="-155" font-family="Helvetica,sans-Serif" font-size="10.00">BtQmlInterface</text>
</a>
</g>
</g>
<!-- Node0&#45;&gt;Node12 -->
<g id="edge80_Node000000_Node000012" class="edge">
<title>Node0&#45;&gt;Node12</title>
<g id="a_edge80_Node000000_Node000012"><a xlink:title=" ">
<path fill="none" stroke="#63b8ff" d="M100.77,-157.5C121.49,-157.5 147.42,-157.5 169.24,-157.5"/>
<polygon fill="#63b8ff" stroke="#63b8ff" points="100.75,-154 90.75,-157.5 100.75,-161 100.75,-154"/>
</a>
</g>
</g>
<!-- Node13 -->
<g id="Node000013" class="node">
<title>Node13</title>
<g id="a_Node000013"><a xlink:href="dc/d34/classBtSignal.html" target="_top" xlink:title=" ">
<polygon fill="white" stroke="#666666" points="243.5,-130 186.5,-130 186.5,-111 243.5,-111 243.5,-130"/>
<text text-anchor="middle" x="215" y="-118" font-family="Helvetica,sans-Serif" font-size="10.00">BtSignal</text>
</a>
</g>
</g>
<!-- Node0&#45;&gt;Node13 -->
<g id="edge81_Node000000_Node000013" class="edge">
<title>Node0&#45;&gt;Node13</title>
<g id="a_edge81_Node000000_Node000013"><a xlink:title=" ">
<path fill="none" stroke="#63b8ff" d="M100.47,-148.41C127.05,-141.88 162.31,-133.21 186.44,-127.28"/>
<polygon fill="#63b8ff" stroke="#63b8ff" points="99.63,-145.01 90.75,-150.8 101.3,-151.81 99.63,-145.01"/>
</a>
</g>
</g>
<!-- Node14 -->
<g id="Node000014" class="node">
<title>Node14</title>
<g id="a_Node000014"><a xlink:href="d9/d73/classCSwordBackend.html" target="_top" xlink:title="The backend layer main class, a backend implementation of Sword.">
<polygon fill="white" stroke="#666666" points="262.5,-93 167.5,-93 167.5,-74 262.5,-74 262.5,-93"/>
<text text-anchor="middle" x="215" y="-81" font-family="Helvetica,sans-Serif" font-size="10.00">CSwordBackend</text>
</a>
</g>
</g>
<!-- Node0&#45;&gt;Node14 -->
<g id="edge82_Node000000_Node000014" class="edge">
<title>Node0&#45;&gt;Node14</title>
<g id="a_edge82_Node000000_Node000014"><a xlink:title=" ">
<path fill="none" stroke="#63b8ff" d="M87.36,-142.53C106.75,-130.74 135.03,-114.38 161,-102.5 168.47,-99.09 176.74,-95.87 184.49,-93.08"/>
<polygon fill="#63b8ff" stroke="#63b8ff" points="85.3,-139.69 78.61,-147.91 88.97,-145.65 85.3,-139.69"/>
</a>
</g>
</g>
<!-- Node15 -->
<g id="Node000015" class="node">
<title>Node15</title>
<g id="a_Node000015"><a xlink:href="d7/d42/classCSwordModuleInfo.html" target="_top" xlink:title=" ">
<polygon fill="white" stroke="#666666" points="269,-56 161,-56 161,-37 269,-37 269,-56"/>
<text text-anchor="middle" x="215" y="-44" font-family="Helvetica,sans-Serif" font-size="10.00">CSwordModuleInfo</text>
</a>
</g>
</g>
<!-- Node0&#45;&gt;Node15 -->
<g id="edge83_Node000000_Node000015" class="edge">
<title>Node0&#45;&gt;Node15</title>
<g id="a_edge83_Node000000_Node000015"><a xlink:title=" ">
<path fill="none" stroke="#63b8ff" d="M78.05,-139.93C95.77,-119.52 127.5,-86.05 161,-65.5 167.08,-61.77 174.01,-58.62 180.8,-56.03"/>
<polygon fill="#63b8ff" stroke="#63b8ff" points="75.17,-137.91 71.35,-147.79 80.5,-142.45 75.17,-137.91"/>
</a>
</g>
</g>
<!-- Node3 -->
<g id="Node000003" class="node">
<title>Node3</title>
<g id="a_Node000003"><a xlink:href="d9/d10/classBibleTime_1_1ActionCollection.html" target="_top" xlink:title=" ">
<polygon fill="white" stroke="#666666" points="473,-236 321,-236 321,-217 473,-217 473,-236"/>
<text text-anchor="middle" x="397" y="-224" font-family="Helvetica,sans-Serif" font-size="10.00">BibleTime::ActionCollection</text>
</a>
</g>
</g>
<!-- Node2&#45;&gt;Node3 -->
<g id="edge73_Node000002_Node000003" class="edge">
<title>Node2&#45;&gt;Node3</title>
<g id="a_edge73_Node000002_Node000003"><a xlink:title=" ">
<path fill="none" stroke="#63b8ff" d="M278.57,-205.62C299.39,-209.33 322.38,-213.41 342.45,-216.98"/>
<polygon fill="#63b8ff" stroke="#63b8ff" points="279.01,-202.15 268.55,-203.84 277.78,-209.04 279.01,-202.15"/>
</a>
</g>
</g>
<!-- Node4 -->
<g id="Node000004" class="node">
<title>Node4</title>
<g id="a_Node000004"><a xlink:href="db/ddf/classCDisplayWindow_1_1ActionCollection.html" target="_top" xlink:title=" ">
<polygon fill="white" stroke="#666666" points="489,-199 305,-199 305,-180 489,-180 489,-199"/>
<text text-anchor="middle" x="397" y="-187" font-family="Helvetica,sans-Serif" font-size="10.00">CDisplayWindow::ActionCollection</text>
</a>
</g>
</g>
<!-- Node2&#45;&gt;Node4 -->
<g id="edge74_Node000002_Node000004" class="edge">
<title>Node2&#45;&gt;Node4</title>
<g id="a_edge74_Node000002_Node000004"><a xlink:title=" ">
<path fill="none" stroke="#63b8ff" d="M278.67,-192.76C287.13,-192.52 295.95,-192.28 304.78,-192.03"/>
<polygon fill="#63b8ff" stroke="#63b8ff" points="278.45,-189.26 268.55,-193.04 278.64,-196.26 278.45,-189.26"/>
</a>
</g>
</g>
<!-- Node5 -->
<g id="Node000005" class="node">
<title>Node5</title>
<g id="a_Node000005"><a xlink:href="d3/d5b/classCBibleReadWindow_1_1ActionCollection.html" target="_top" xlink:title=" ">
<polygon fill="white" stroke="#666666" points="697.5,-285.5 549.5,-285.5 549.5,-255.5 697.5,-255.5 697.5,-285.5"/>
<text text-anchor="start" x="557.5" y="-273.5" font-family="Helvetica,sans-Serif" font-size="10.00">CBibleReadWindow::Action</text>
<text text-anchor="middle" x="623.5" y="-262.5" font-family="Helvetica,sans-Serif" font-size="10.00">Collection</text>
</a>
</g>
</g>
<!-- Node4&#45;&gt;Node5 -->
<g id="edge75_Node000004_Node000005" class="edge">
<title>Node4&#45;&gt;Node5</title>
<g id="a_edge75_Node000004_Node000005"><a xlink:title=" ">
<path fill="none" stroke="#63b8ff" d="M476.43,-202.57C480.79,-204.3 485.01,-206.27 489,-208.5 509.31,-219.84 504.89,-234.8 525,-246.5 532.53,-250.88 540.84,-254.47 549.34,-257.4"/>
<polygon fill="#63b8ff" stroke="#63b8ff" points="477.32,-199.17 466.73,-199.12 474.98,-205.76 477.32,-199.17"/>
</a>
</g>
</g>
<!-- Node6 -->
<g id="Node000006" class="node">
<title>Node6</title>
<g id="a_Node000006"><a xlink:href="d4/ddd/classCBookReadWindow_1_1ActionCollection.html" target="_top" xlink:title=" ">
<polygon fill="white" stroke="#666666" points="722,-237 525,-237 525,-218 722,-218 722,-237"/>
<text text-anchor="middle" x="623.5" y="-225" font-family="Helvetica,sans-Serif" font-size="10.00">CBookReadWindow::ActionCollection</text>
</a>
</g>
</g>
<!-- Node4&#45;&gt;Node6 -->
<g id="edge76_Node000004_Node000006" class="edge">
<title>Node4&#45;&gt;Node6</title>
<g id="a_edge76_Node000004_Node000006"><a xlink:title=" ">
<path fill="none" stroke="#63b8ff" d="M464.62,-200.78C496.92,-206.24 535.29,-212.74 566.12,-217.96"/>
<polygon fill="#63b8ff" stroke="#63b8ff" points="464.8,-197.26 454.36,-199.04 463.64,-204.16 464.8,-197.26"/>
</a>
</g>
</g>
<!-- Node7 -->
<g id="Node000007" class="node">
<title>Node7</title>
<g id="a_Node000007"><a xlink:href="d6/d60/classCCommentaryReadWindow_1_1ActionCollection.html" target="_top" xlink:title=" ">
<polygon fill="white" stroke="#666666" points="699,-199.5 548,-199.5 548,-169.5 699,-169.5 699,-199.5"/>
<text text-anchor="start" x="556" y="-187.5" font-family="Helvetica,sans-Serif" font-size="10.00">CCommentaryReadWindow</text>
<text text-anchor="middle" x="623.5" y="-176.5" font-family="Helvetica,sans-Serif" font-size="10.00">::ActionCollection</text>
</a>
</g>
</g>
<!-- Node4&#45;&gt;Node7 -->
<g id="edge77_Node000004_Node000007" class="edge">
<title>Node4&#45;&gt;Node7</title>
<g id="a_edge77_Node000004_Node000007"><a xlink:title=" ">
<path fill="none" stroke="#63b8ff" d="M499.39,-187.24C515.66,-186.88 532.24,-186.51 547.74,-186.16"/>
<polygon fill="#63b8ff" stroke="#63b8ff" points="499.23,-183.74 489.31,-187.47 499.39,-190.74 499.23,-183.74"/>
</a>
</g>
</g>
<!-- Node8 -->
<g id="Node000008" class="node">
<title>Node8</title>
<g id="a_Node000008"><a xlink:href="d4/da8/classCLexiconReadWindow_1_1ActionCollection.html" target="_top" xlink:title=" ">
<polygon fill="white" stroke="#666666" points="686,-151.5 561,-151.5 561,-121.5 686,-121.5 686,-151.5"/>
<text text-anchor="start" x="569" y="-139.5" font-family="Helvetica,sans-Serif" font-size="10.00">CLexiconReadWindow</text>
<text text-anchor="middle" x="623.5" y="-128.5" font-family="Helvetica,sans-Serif" font-size="10.00">::ActionCollection</text>
</a>
</g>
</g>
<!-- Node4&#45;&gt;Node8 -->
<g id="edge78_Node000004_Node000008" class="edge">
<title>Node4&#45;&gt;Node8</title>
<g id="a_edge78_Node000004_Node000008"><a xlink:title=" ">
<path fill="none" stroke="#63b8ff" d="M448.36,-177.61C481.64,-169.75 525.47,-159.41 560.84,-151.06"/>
<polygon fill="#63b8ff" stroke="#63b8ff" points="447.32,-174.26 438.4,-179.96 448.93,-181.07 447.32,-174.26"/>
</a>
</g>
</g>
<!-- Node16 -->
<g id="Node000016" class="node">
<title>Node16</title>
<g id="a_Node000016"><a xlink:href="db/d50/classCSwordBibleModuleInfo.html" target="_top" xlink:title="Implementation for Sword Bibles.">
<polygon fill="white" stroke="#666666" points="463.5,-93 330.5,-93 330.5,-74 463.5,-74 463.5,-93"/>
<text text-anchor="middle" x="397" y="-81" font-family="Helvetica,sans-Serif" font-size="10.00">CSwordBibleModuleInfo</text>
</a>
</g>
</g>
<!-- Node15&#45;&gt;Node16 -->
<g id="edge84_Node000015_Node000016" class="edge">
<title>Node15&#45;&gt;Node16</title>
<g id="a_edge84_Node000015_Node000016"><a xlink:title=" ">
<path fill="none" stroke="#63b8ff" d="M269.87,-58.14C281.45,-60.6 293.63,-63.16 305,-65.5 318.57,-68.29 333.29,-71.24 346.86,-73.92"/>
<polygon fill="#63b8ff" stroke="#63b8ff" points="270.39,-54.67 259.88,-56.01 268.93,-61.52 270.39,-54.67"/>
</a>
</g>
</g>
<!-- Node18 -->
<g id="Node000018" class="node">
<title>Node18</title>
<g id="a_Node000018"><a xlink:href="db/d7a/classCSwordBookModuleInfo.html" target="_top" xlink:title="Class for generic book support.">
<polygon fill="white" stroke="#666666" points="463.5,-56 330.5,-56 330.5,-37 463.5,-37 463.5,-56"/>
<text text-anchor="middle" x="397" y="-44" font-family="Helvetica,sans-Serif" font-size="10.00">CSwordBookModuleInfo</text>
</a>
</g>
</g>
<!-- Node15&#45;&gt;Node18 -->
<g id="edge86_Node000015_Node000018" class="edge">
<title>Node15&#45;&gt;Node18</title>
<g id="a_edge86_Node000015_Node000018"><a xlink:title=" ">
<path fill="none" stroke="#63b8ff" d="M279.14,-46.5C295.69,-46.5 313.58,-46.5 330.26,-46.5"/>
<polygon fill="#63b8ff" stroke="#63b8ff" points="279.03,-43 269.03,-46.5 279.03,-50 279.03,-43"/>
</a>
</g>
</g>
<!-- Node19 -->
<g id="Node000019" class="node">
<title>Node19</title>
<g id="a_Node000019"><a xlink:href="dd/d0a/classCSwordLexiconModuleInfo.html" target="_top" xlink:title=" ">
<polygon fill="white" stroke="#666666" points="470,-19 324,-19 324,0 470,0 470,-19"/>
<text text-anchor="middle" x="397" y="-7" font-family="Helvetica,sans-Serif" font-size="10.00">CSwordLexiconModuleInfo</text>
</a>
</g>
</g>
<!-- Node15&#45;&gt;Node19 -->
<g id="edge87_Node000015_Node000019" class="edge">
<title>Node15&#45;&gt;Node19</title>
<g id="a_edge87_Node000015_Node000019"><a xlink:title=" ">
<path fill="none" stroke="#63b8ff" d="M269.87,-34.86C281.45,-32.4 293.63,-29.84 305,-27.5 318.57,-24.71 333.29,-21.76 346.86,-19.08"/>
<polygon fill="#63b8ff" stroke="#63b8ff" points="268.93,-31.48 259.88,-36.99 270.39,-38.33 268.93,-31.48"/>
</a>
</g>
</g>
<!-- Node17 -->
<g id="Node000017" class="node">
<title>Node17</title>
<g id="a_Node000017"><a xlink:href="d0/d59/classCSwordCommentaryModuleInfo.html" target="_top" xlink:title="Commentary module implementation.">
<polygon fill="white" stroke="#666666" points="709.5,-93 537.5,-93 537.5,-74 709.5,-74 709.5,-93"/>
<text text-anchor="middle" x="623.5" y="-81" font-family="Helvetica,sans-Serif" font-size="10.00">CSwordCommentaryModuleInfo</text>
</a>
</g>
</g>
<!-- Node16&#45;&gt;Node17 -->
<g id="edge85_Node000016_Node000017" class="edge">
<title>Node16&#45;&gt;Node17</title>
<g id="a_edge85_Node000016_Node000017"><a xlink:title=" ">
<path fill="none" stroke="#63b8ff" d="M473.71,-83.5C494.12,-83.5 516.34,-83.5 537.23,-83.5"/>
<polygon fill="#63b8ff" stroke="#63b8ff" points="473.54,-80 463.54,-83.5 473.54,-87 473.54,-80"/>
</a>
</g>
</g>
<!-- Node10 -->
<g id="Node000010" class="node">
<title>Node10</title>
<g id="a_Node000010"><a xlink:title=" ">
<polygon fill="#e0e0e0" stroke="#999999" points="113,-296 12,-296 12,-277 113,-277 113,-296"/>
<text text-anchor="middle" x="62.5" y="-284" font-family="Helvetica,sans-Serif" font-size="10.00">sword::InstallMgr</text>
</a>
</g>
</g>
<!-- Node10&#45;&gt;Node9 -->
<g id="edge88_Node000010_Node000009" class="edge">
<title>Node10&#45;&gt;Node9</title>
<g id="a_edge88_Node000010_Node000009"><a xlink:title=" ">
<path fill="none" stroke="#63b8ff" d="M123.35,-279.34C141.38,-277.19 160.64,-274.88 176.75,-272.95"/>
<polygon fill="#63b8ff" stroke="#63b8ff" points="122.71,-275.89 113.2,-280.56 123.54,-282.84 122.71,-275.89"/>
</a>
</g>
</g>
<!-- Node11 -->
<g id="Node000011" class="node">
<title>Node11</title>
<g id="a_Node000011"><a xlink:title=" ">
<polygon fill="#e0e0e0" stroke="#999999" points="125,-259 0,-259 0,-240 125,-240 125,-259"/>
<text text-anchor="middle" x="62.5" y="-247" font-family="Helvetica,sans-Serif" font-size="10.00">sword::StatusReporter</text>
</a>
</g>
</g>
<!-- Node11&#45;&gt;Node9 -->
<g id="edge89_Node000011_Node000009" class="edge">
<title>Node11&#45;&gt;Node9</title>
<g id="a_edge89_Node000011_Node000009"><a xlink:title=" ">
<path fill="none" stroke="#8b1a1a" d="M135.09,-258.54C149.54,-260.36 164.16,-262.21 176.83,-263.81"/>
<polygon fill="#8b1a1a" stroke="#8b1a1a" points="135.51,-255.06 125.15,-257.28 134.63,-262.01 135.51,-255.06"/>
</a>
</g>
</g>
</g>
</svg>
