<?xml version="1.0" encoding="UTF-8" standalone="no"?>
<!DOCTYPE svg PUBLIC "-//W3C//DTD SVG 1.1//EN"
 "http://www.w3.org/Graphics/SVG/1.1/DTD/svg11.dtd">
<!-- Generated by graphviz version 2.43.0 (0)
 -->
<!-- Title: Graphical Class Hierarchy Pages: 1 -->
<svg width="286pt" height="50pt"
 viewBox="0.00 0.00 286.00 50.00" xmlns="http://www.w3.org/2000/svg" xmlns:xlink="http://www.w3.org/1999/xlink">
<g id="graph0" class="graph" transform="scale(1 1) rotate(0) translate(4 46)">
<title>Graphical Class Hierarchy</title>
<polygon fill="white" stroke="transparent" points="-4,4 -4,-46 282,-46 282,4 -4,4"/>
<!-- Node0 -->
<g id="node1" class="node">
<title>Node0</title>
<g id="a_node1"><a xlink:href="d5/dfc/classQTableWidgetItem.html" target="_top" xlink:title=" ">
<polygon fill="white" stroke="black" points="0,-11.5 0,-30.5 107,-30.5 107,-11.5 0,-11.5"/>
<text text-anchor="middle" x="53.5" y="-18.5" font-family="Helvetica,sans-Serif" font-size="10.00">QTableWidgetItem</text>
</a>
</g>
</g>
<!-- Node1 -->
<g id="node2" class="node">
<title>Node1</title>
<g id="a_node2"><a xlink:href="d1/d2c/classanonymous__namespace_02btshortcutseditor_8cpp_03_1_1BtShortcutsEditorItem.html" target="_top" xlink:title=" ">
<polygon fill="white" stroke="black" points="143,-0.5 143,-41.5 278,-41.5 278,-0.5 143,-0.5"/>
<text text-anchor="start" x="151" y="-29.5" font-family="Helvetica,sans-Serif" font-size="10.00">anonymous_namespace</text>
<text text-anchor="start" x="151" y="-18.5" font-family="Helvetica,sans-Serif" font-size="10.00">{btshortcutseditor.cpp}</text>
<text text-anchor="middle" x="210.5" y="-7.5" font-family="Helvetica,sans-Serif" font-size="10.00">::BtShortcutsEditorItem</text>
</a>
</g>
</g>
<!-- Node0&#45;&gt;Node1 -->
<g id="edge1" class="edge">
<title>Node0&#45;&gt;Node1</title>
<path fill="none" stroke="midnightblue" d="M117.47,-21C125.83,-21 134.43,-21 142.85,-21"/>
<polygon fill="midnightblue" stroke="midnightblue" points="117.41,-17.5 107.41,-21 117.41,-24.5 117.41,-17.5"/>
</g>
</g>
</svg>
