<?xml version="1.0" encoding="UTF-8" standalone="no"?>
<!DOCTYPE svg PUBLIC "-//W3C//DTD SVG 1.1//EN"
 "http://www.w3.org/Graphics/SVG/1.1/DTD/svg11.dtd">
<!-- Generated by graphviz version 2.43.0 (0)
 -->
<!-- Title: Graphical Class Hierarchy Pages: 1 -->
<svg width="417pt" height="138pt"
 viewBox="0.00 0.00 417.00 138.00" xmlns="http://www.w3.org/2000/svg" xmlns:xlink="http://www.w3.org/1999/xlink">
<g id="graph0" class="graph" transform="scale(1 1) rotate(0) translate(4 134)">
<title>Graphical Class Hierarchy</title>
<!-- Node0 -->
<g id="Node000000" class="node">
<title>Node0</title>
<g id="a_Node000000"><a xlink:href="df/d90/classQMainWindow.html" target="_top" xlink:title=" ">
<polygon fill="white" stroke="#666666" points="87,-92 0,-92 0,-73 87,-73 87,-92"/>
<text text-anchor="middle" x="43.5" y="-80" font-family="Helvetica,sans-Serif" font-size="10.00">QMainWindow</text>
</a>
</g>
</g>
<!-- Node1 -->
<g id="Node000001" class="node">
<title>Node1</title>
<g id="a_Node000001"><a xlink:href="d7/d66/classBibleTime.html" target="_top" xlink:title=" ">
<polygon fill="white" stroke="#666666" points="205.5,-111 139.5,-111 139.5,-92 205.5,-92 205.5,-111"/>
<text text-anchor="middle" x="172.5" y="-99" font-family="Helvetica,sans-Serif" font-size="10.00">BibleTime</text>
</a>
</g>
</g>
<!-- Node0&#45;&gt;Node1 -->
<g id="edge58_Node000000_Node000001" class="edge">
<title>Node0&#45;&gt;Node1</title>
<g id="a_edge58_Node000000_Node000001"><a xlink:title=" ">
<path fill="none" stroke="#63b8ff" d="M97.32,-90.4C111.54,-92.53 126.49,-94.77 139.21,-96.67"/>
<polygon fill="#63b8ff" stroke="#63b8ff" points="97.55,-86.9 87.14,-88.88 96.51,-93.82 97.55,-86.9"/>
</a>
</g>
</g>
<!-- Node2 -->
<g id="Node000002" class="node">
<title>Node2</title>
<g id="a_Node000002"><a xlink:href="dc/dc1/classCDisplayWindow.html" target="_top" xlink:title="The base class for all display windows of BibleTime.">
<polygon fill="white" stroke="#666666" points="222,-74 123,-74 123,-55 222,-55 222,-74"/>
<text text-anchor="middle" x="172.5" y="-62" font-family="Helvetica,sans-Serif" font-size="10.00">CDisplayWindow</text>
</a>
</g>
</g>
<!-- Node0&#45;&gt;Node2 -->
<g id="edge59_Node000000_Node000002" class="edge">
<title>Node0&#45;&gt;Node2</title>
<g id="a_edge59_Node000000_Node000002"><a xlink:title=" ">
<path fill="none" stroke="#63b8ff" d="M97.23,-75.03C105.63,-73.84 114.3,-72.61 122.61,-71.43"/>
<polygon fill="#63b8ff" stroke="#63b8ff" points="96.55,-71.59 87.14,-76.46 97.53,-78.52 96.55,-71.59"/>
</a>
</g>
</g>
<!-- Node3 -->
<g id="Node000003" class="node">
<title>Node3</title>
<g id="a_Node000003"><a xlink:href="da/d2f/classCBibleReadWindow.html" target="_top" xlink:title=" ">
<polygon fill="white" stroke="#666666" points="389.5,-130 277.5,-130 277.5,-111 389.5,-111 389.5,-130"/>
<text text-anchor="middle" x="333.5" y="-118" font-family="Helvetica,sans-Serif" font-size="10.00">CBibleReadWindow</text>
</a>
</g>
</g>
<!-- Node2&#45;&gt;Node3 -->
<g id="edge60_Node000002_Node000003" class="edge">
<title>Node2&#45;&gt;Node3</title>
<g id="a_edge60_Node000002_Node000003"><a xlink:title=" ">
<path fill="none" stroke="#63b8ff" d="M208.96,-77.86C213.38,-79.68 217.82,-81.58 222,-83.5 238.45,-91.03 241.08,-96.1 258,-102.5 266.59,-105.75 275.96,-108.55 285.07,-110.91"/>
<polygon fill="#63b8ff" stroke="#63b8ff" points="209.98,-74.5 199.4,-74.03 207.38,-81 209.98,-74.5"/>
</a>
</g>
</g>
<!-- Node4 -->
<g id="Node000004" class="node">
<title>Node4</title>
<g id="a_Node000004"><a xlink:href="d9/d59/classCBookReadWindow.html" target="_top" xlink:title=" ">
<polygon fill="white" stroke="#666666" points="389.5,-93 277.5,-93 277.5,-74 389.5,-74 389.5,-93"/>
<text text-anchor="middle" x="333.5" y="-81" font-family="Helvetica,sans-Serif" font-size="10.00">CBookReadWindow</text>
</a>
</g>
</g>
<!-- Node2&#45;&gt;Node4 -->
<g id="edge61_Node000002_Node000004" class="edge">
<title>Node2&#45;&gt;Node4</title>
<g id="a_edge61_Node000002_Node000004"><a xlink:title=" ">
<path fill="none" stroke="#63b8ff" d="M232.1,-71.5C246.87,-73.27 262.68,-75.16 277.28,-76.9"/>
<polygon fill="#63b8ff" stroke="#63b8ff" points="232.41,-68.02 222.07,-70.3 231.58,-74.97 232.41,-68.02"/>
</a>
</g>
</g>
<!-- Node5 -->
<g id="Node000005" class="node">
<title>Node5</title>
<g id="a_Node000005"><a xlink:href="d4/d85/classCCommentaryReadWindow.html" target="_top" xlink:title=" ">
<polygon fill="white" stroke="#666666" points="409,-56 258,-56 258,-37 409,-37 409,-56"/>
<text text-anchor="middle" x="333.5" y="-44" font-family="Helvetica,sans-Serif" font-size="10.00">CCommentaryReadWindow</text>
</a>
</g>
</g>
<!-- Node2&#45;&gt;Node5 -->
<g id="edge62_Node000002_Node000005" class="edge">
<title>Node2&#45;&gt;Node5</title>
<g id="a_edge62_Node000002_Node000005"><a xlink:title=" ">
<path fill="none" stroke="#63b8ff" d="M232.11,-57.86C240.5,-56.91 249.23,-55.93 257.87,-54.95"/>
<polygon fill="#63b8ff" stroke="#63b8ff" points="231.61,-54.4 222.07,-59 232.4,-61.35 231.61,-54.4"/>
</a>
</g>
</g>
<!-- Node6 -->
<g id="Node000006" class="node">
<title>Node6</title>
<g id="a_Node000006"><a xlink:href="d2/d38/classCLexiconReadWindow.html" target="_top" xlink:title="The class used to display lexicons.">
<polygon fill="white" stroke="#666666" points="396,-19 271,-19 271,0 396,0 396,-19"/>
<text text-anchor="middle" x="333.5" y="-7" font-family="Helvetica,sans-Serif" font-size="10.00">CLexiconReadWindow</text>
</a>
</g>
</g>
<!-- Node2&#45;&gt;Node6 -->
<g id="edge63_Node000002_Node000006" class="edge">
<title>Node2&#45;&gt;Node6</title>
<g id="a_edge63_Node000002_Node000006"><a xlink:title=" ">
<path fill="none" stroke="#63b8ff" d="M203.03,-50.6C219.06,-43.4 239.36,-34.81 258,-28.5 268.37,-24.99 279.74,-21.78 290.4,-19.04"/>
<polygon fill="#63b8ff" stroke="#63b8ff" points="201.3,-47.55 193.65,-54.88 204.2,-53.92 201.3,-47.55"/>
</a>
</g>
</g>
</g>
</svg>
