<?xml version="1.0" encoding="UTF-8" standalone="no"?>
<!DOCTYPE svg PUBLIC "-//W3C//DTD SVG 1.1//EN"
 "http://www.w3.org/Graphics/SVG/1.1/DTD/svg11.dtd">
<!-- Generated by graphviz version 2.43.0 (0)
 -->
<!-- Title: Graphical Class Hierarchy Pages: 1 -->
<svg width="212pt" height="64pt"
 viewBox="0.00 0.00 212.00 64.00" xmlns="http://www.w3.org/2000/svg" xmlns:xlink="http://www.w3.org/1999/xlink">
<g id="graph0" class="graph" transform="scale(1 1) rotate(0) translate(4 60)">
<title>Graphical Class Hierarchy</title>
<!-- Node0 -->
<g id="Node000000" class="node">
<title>Node0</title>
<g id="a_Node000000"><a xlink:href="dd/d93/classQWizard.html" target="_top" xlink:title=" ">
<polygon fill="white" stroke="#666666" points="58,-37 0,-37 0,-18 58,-18 58,-37"/>
<text text-anchor="middle" x="29" y="-25" font-family="Helvetica,sans-Serif" font-size="10.00">QWizard</text>
</a>
</g>
</g>
<!-- Node1 -->
<g id="Node000001" class="node">
<title>Node1</title>
<g id="a_Node000001"><a xlink:href="df/dc1/classBtBookshelfWizard.html" target="_top" xlink:title="The Bookshelf Manager wizard.">
<polygon fill="white" stroke="#666666" points="204,-56 94,-56 94,-37 204,-37 204,-56"/>
<text text-anchor="middle" x="149" y="-44" font-family="Helvetica,sans-Serif" font-size="10.00">BtBookshelfWizard</text>
</a>
</g>
</g>
<!-- Node0&#45;&gt;Node1 -->
<g id="edge136_Node000000_Node000001" class="edge">
<title>Node0&#45;&gt;Node1</title>
<g id="a_edge136_Node000000_Node000001"><a xlink:title=" ">
<path fill="none" stroke="#63b8ff" d="M68.17,-33.65C76.29,-34.95 85.01,-36.36 93.61,-37.74"/>
<polygon fill="#63b8ff" stroke="#63b8ff" points="68.69,-30.19 58.26,-32.05 67.58,-37.1 68.69,-30.19"/>
</a>
</g>
</g>
<!-- Node2 -->
<g id="Node000002" class="node">
<title>Node2</title>
<g id="a_Node000002"><a xlink:href="db/d96/classBtEditTextWizard.html" target="_top" xlink:title="The Edit Text wizard for editing the personal commentary.">
<polygon fill="white" stroke="#666666" points="199,-19 99,-19 99,0 199,0 199,-19"/>
<text text-anchor="middle" x="149" y="-7" font-family="Helvetica,sans-Serif" font-size="10.00">BtEditTextWizard</text>
</a>
</g>
</g>
<!-- Node0&#45;&gt;Node2 -->
<g id="edge137_Node000000_Node000002" class="edge">
<title>Node0&#45;&gt;Node2</title>
<g id="a_edge137_Node000000_Node000002"><a xlink:title=" ">
<path fill="none" stroke="#63b8ff" d="M68.39,-21.64C78.07,-20.17 88.61,-18.56 98.75,-17.01"/>
<polygon fill="#63b8ff" stroke="#63b8ff" points="67.62,-18.22 58.26,-23.19 68.68,-25.14 67.62,-18.22"/>
</a>
</g>
</g>
</g>
</svg>
