<?xml version="1.0" encoding="UTF-8" standalone="no"?>
<!DOCTYPE svg PUBLIC "-//W3C//DTD SVG 1.1//EN"
 "http://www.w3.org/Graphics/SVG/1.1/DTD/svg11.dtd">
<!-- Generated by graphviz version 2.43.0 (0)
 -->
<!-- Title: Graphical Class Hierarchy Pages: 1 -->
<svg width="955pt" height="390pt"
 viewBox="0.00 0.00 955.00 390.00" xmlns="http://www.w3.org/2000/svg" xmlns:xlink="http://www.w3.org/1999/xlink">
<g id="graph0" class="graph" transform="scale(1 1) rotate(0) translate(4 386)">
<title>Graphical Class Hierarchy</title>
<!-- Node0 -->
<g id="Node000000" class="node">
<title>Node0</title>
<g id="a_Node000000"><a xlink:href="d9/d5b/classQObject.html" target="_top" xlink:title=" ">
<polygon fill="white" stroke="#666666" points="295.5,-234 239.5,-234 239.5,-215 295.5,-215 295.5,-234"/>
<text text-anchor="middle" x="267.5" y="-222" font-family="Helvetica,sans-Serif" font-size="10.00">QObject</text>
</a>
</g>
</g>
<!-- Node1 -->
<g id="Node000001" class="node">
<title>Node1</title>
<g id="a_Node000001"><a xlink:href="d9/dae/classBTHistory.html" target="_top" xlink:title=" ">
<polygon fill="white" stroke="#666666" points="472.5,-327 407.5,-327 407.5,-308 472.5,-308 472.5,-327"/>
<text text-anchor="middle" x="440" y="-315" font-family="Helvetica,sans-Serif" font-size="10.00">BTHistory</text>
</a>
</g>
</g>
<!-- Node0&#45;&gt;Node1 -->
<g id="edge72_Node000000_Node000001" class="edge">
<title>Node0&#45;&gt;Node1</title>
<g id="a_edge72_Node000000_Node000001"><a xlink:title=" ">
<path fill="none" stroke="#63b8ff" d="M289.54,-240.14C312.38,-256.58 350.37,-282.39 386,-299.5 392.74,-302.74 400.23,-305.66 407.39,-308.16"/>
<polygon fill="#63b8ff" stroke="#63b8ff" points="291.43,-237.19 281.29,-234.13 287.31,-242.85 291.43,-237.19"/>
</a>
</g>
</g>
<!-- Node2 -->
<g id="Node000002" class="node">
<title>Node2</title>
<g id="a_Node000002"><a xlink:href="d0/d28/classBtActionCollection.html" target="_top" xlink:title=" ">
<polygon fill="white" stroke="#666666" points="493.5,-290 386.5,-290 386.5,-271 493.5,-271 493.5,-290"/>
<text text-anchor="middle" x="440" y="-278" font-family="Helvetica,sans-Serif" font-size="10.00">BtActionCollection</text>
</a>
</g>
</g>
<!-- Node0&#45;&gt;Node2 -->
<g id="edge73_Node000000_Node000002" class="edge">
<title>Node0&#45;&gt;Node2</title>
<g id="a_edge73_Node000000_Node000002"><a xlink:title=" ">
<path fill="none" stroke="#63b8ff" d="M305.18,-236.55C336.49,-246.83 380.9,-261.42 409.83,-270.92"/>
<polygon fill="#63b8ff" stroke="#63b8ff" points="306.11,-233.17 295.52,-233.37 303.92,-239.82 306.11,-233.17"/>
</a>
</g>
</g>
<!-- Node9 -->
<g id="Node000009" class="node">
<title>Node9</title>
<g id="a_Node000009"><a xlink:href="d8/d04/classBtInstallMgr.html" target="_top" xlink:title=" ">
<polygon fill="white" stroke="#666666" points="478,-364 402,-364 402,-345 478,-345 478,-364"/>
<text text-anchor="middle" x="440" y="-352" font-family="Helvetica,sans-Serif" font-size="10.00">BtInstallMgr</text>
</a>
</g>
</g>
<!-- Node0&#45;&gt;Node9 -->
<g id="edge80_Node000000_Node000009" class="edge">
<title>Node0&#45;&gt;Node9</title>
<g id="a_edge80_Node000000_Node000009"><a xlink:title=" ">
<path fill="none" stroke="#63b8ff" d="M282.58,-242.07C302.99,-266.46 343.06,-310.5 386,-336.5 391.49,-339.82 397.67,-342.63 403.82,-344.96"/>
<polygon fill="#63b8ff" stroke="#63b8ff" points="285.04,-239.55 275.99,-234.04 279.63,-243.99 285.04,-239.55"/>
</a>
</g>
</g>
<!-- Node12 -->
<g id="Node000012" class="node">
<title>Node12</title>
<g id="a_Node000012"><a xlink:href="d5/d4a/classBtPrinter.html" target="_top" xlink:title="Manages the print item queue and printing.">
<polygon fill="white" stroke="#666666" points="469.5,-105 410.5,-105 410.5,-86 469.5,-86 469.5,-105"/>
<text text-anchor="middle" x="440" y="-93" font-family="Helvetica,sans-Serif" font-size="10.00">BtPrinter</text>
</a>
</g>
</g>
<!-- Node0&#45;&gt;Node12 -->
<g id="edge81_Node000000_Node000012" class="edge">
<title>Node0&#45;&gt;Node12</title>
<g id="a_edge81_Node000000_Node000012"><a xlink:title=" ">
<path fill="none" stroke="#63b8ff" d="M282.93,-206.73C303.46,-182.5 343.4,-139.16 386,-113.5 393.49,-108.99 402.27,-105.42 410.5,-102.7"/>
<polygon fill="#63b8ff" stroke="#63b8ff" points="279.98,-204.8 276.27,-214.73 285.36,-209.28 279.98,-204.8"/>
</a>
</g>
</g>
<!-- Node17 -->
<g id="Node000017" class="node">
<title>Node17</title>
<g id="a_Node000017"><a xlink:href="d9/d89/classBtQmlInterface.html" target="_top" xlink:title=" ">
<polygon fill="white" stroke="#666666" points="485.5,-253 394.5,-253 394.5,-234 485.5,-234 485.5,-253"/>
<text text-anchor="middle" x="440" y="-241" font-family="Helvetica,sans-Serif" font-size="10.00">BtQmlInterface</text>
</a>
</g>
</g>
<!-- Node0&#45;&gt;Node17 -->
<g id="edge82_Node000000_Node000017" class="edge">
<title>Node0&#45;&gt;Node17</title>
<g id="a_edge82_Node000000_Node000017"><a xlink:title=" ">
<path fill="none" stroke="#63b8ff" d="M305.73,-228.65C331.75,-231.55 366.63,-235.44 394.18,-238.51"/>
<polygon fill="#63b8ff" stroke="#63b8ff" points="305.84,-225.14 295.52,-227.51 305.07,-232.1 305.84,-225.14"/>
</a>
</g>
</g>
<!-- Node18 -->
<g id="Node000018" class="node">
<title>Node18</title>
<g id="a_Node000018"><a xlink:href="dc/d34/classBtSignal.html" target="_top" xlink:title=" ">
<polygon fill="white" stroke="#666666" points="468.5,-216 411.5,-216 411.5,-197 468.5,-197 468.5,-216"/>
<text text-anchor="middle" x="440" y="-204" font-family="Helvetica,sans-Serif" font-size="10.00">BtSignal</text>
</a>
</g>
</g>
<!-- Node0&#45;&gt;Node18 -->
<g id="edge83_Node000000_Node000018" class="edge">
<title>Node0&#45;&gt;Node18</title>
<g id="a_edge83_Node000000_Node000018"><a xlink:title=" ">
<path fill="none" stroke="#63b8ff" d="M305.75,-220.57C337.54,-217.21 382.55,-212.46 411.26,-209.43"/>
<polygon fill="#63b8ff" stroke="#63b8ff" points="305.09,-217.12 295.52,-221.65 305.83,-224.08 305.09,-217.12"/>
</a>
</g>
</g>
<!-- Node19 -->
<g id="Node000019" class="node">
<title>Node19</title>
<g id="a_Node000019"><a xlink:href="d9/d73/classCSwordBackend.html" target="_top" xlink:title="The backend layer main class, a backend implementation of Sword.">
<polygon fill="white" stroke="#666666" points="487.5,-179 392.5,-179 392.5,-160 487.5,-160 487.5,-179"/>
<text text-anchor="middle" x="440" y="-167" font-family="Helvetica,sans-Serif" font-size="10.00">CSwordBackend</text>
</a>
</g>
</g>
<!-- Node0&#45;&gt;Node19 -->
<g id="edge84_Node000000_Node000019" class="edge">
<title>Node0&#45;&gt;Node19</title>
<g id="a_edge84_Node000000_Node000019"><a xlink:title=" ">
<path fill="none" stroke="#63b8ff" d="M305.15,-212.68C336.35,-202.61 380.59,-188.34 409.54,-179"/>
<polygon fill="#63b8ff" stroke="#63b8ff" points="303.96,-209.38 295.52,-215.79 306.11,-216.05 303.96,-209.38"/>
</a>
</g>
</g>
<!-- Node20 -->
<g id="Node000020" class="node">
<title>Node20</title>
<g id="a_Node000020"><a xlink:href="d7/d42/classCSwordModuleInfo.html" target="_top" xlink:title=" ">
<polygon fill="white" stroke="#666666" points="494,-142 386,-142 386,-123 494,-123 494,-142"/>
<text text-anchor="middle" x="440" y="-130" font-family="Helvetica,sans-Serif" font-size="10.00">CSwordModuleInfo</text>
</a>
</g>
</g>
<!-- Node0&#45;&gt;Node20 -->
<g id="edge85_Node000000_Node000020" class="edge">
<title>Node0&#45;&gt;Node20</title>
<g id="a_edge85_Node000000_Node000020"><a xlink:title=" ">
<path fill="none" stroke="#63b8ff" d="M290.04,-209.18C313.02,-193.3 350.87,-168.47 386,-151.5 393.22,-148.01 401.25,-144.81 408.83,-142.07"/>
<polygon fill="#63b8ff" stroke="#63b8ff" points="287.91,-206.39 281.71,-214.99 291.92,-212.13 287.91,-206.39"/>
</a>
</g>
</g>
<!-- Node3 -->
<g id="Node000003" class="node">
<title>Node3</title>
<g id="a_Node000003"><a xlink:href="d9/d10/classBibleTime_1_1ActionCollection.html" target="_top" xlink:title=" ">
<polygon fill="white" stroke="#666666" points="698,-322 546,-322 546,-303 698,-303 698,-322"/>
<text text-anchor="middle" x="622" y="-310" font-family="Helvetica,sans-Serif" font-size="10.00">BibleTime::ActionCollection</text>
</a>
</g>
</g>
<!-- Node2&#45;&gt;Node3 -->
<g id="edge74_Node000002_Node000003" class="edge">
<title>Node2&#45;&gt;Node3</title>
<g id="a_edge74_Node000002_Node000003"><a xlink:title=" ">
<path fill="none" stroke="#63b8ff" d="M503.57,-291.62C524.39,-295.33 547.38,-299.41 567.45,-302.98"/>
<polygon fill="#63b8ff" stroke="#63b8ff" points="504.01,-288.15 493.55,-289.84 502.78,-295.04 504.01,-288.15"/>
</a>
</g>
</g>
<!-- Node4 -->
<g id="Node000004" class="node">
<title>Node4</title>
<g id="a_Node000004"><a xlink:href="db/ddf/classCDisplayWindow_1_1ActionCollection.html" target="_top" xlink:title=" ">
<polygon fill="white" stroke="#666666" points="714,-285 530,-285 530,-266 714,-266 714,-285"/>
<text text-anchor="middle" x="622" y="-273" font-family="Helvetica,sans-Serif" font-size="10.00">CDisplayWindow::ActionCollection</text>
</a>
</g>
</g>
<!-- Node2&#45;&gt;Node4 -->
<g id="edge75_Node000002_Node000004" class="edge">
<title>Node2&#45;&gt;Node4</title>
<g id="a_edge75_Node000002_Node000004"><a xlink:title=" ">
<path fill="none" stroke="#63b8ff" d="M503.67,-278.76C512.13,-278.52 520.95,-278.28 529.78,-278.03"/>
<polygon fill="#63b8ff" stroke="#63b8ff" points="503.45,-275.26 493.55,-279.04 503.64,-282.26 503.45,-275.26"/>
</a>
</g>
</g>
<!-- Node5 -->
<g id="Node000005" class="node">
<title>Node5</title>
<g id="a_Node000005"><a xlink:href="d3/d5b/classCBibleReadWindow_1_1ActionCollection.html" target="_top" xlink:title=" ">
<polygon fill="white" stroke="#666666" points="922.5,-371.5 774.5,-371.5 774.5,-341.5 922.5,-341.5 922.5,-371.5"/>
<text text-anchor="start" x="782.5" y="-359.5" font-family="Helvetica,sans-Serif" font-size="10.00">CBibleReadWindow::Action</text>
<text text-anchor="middle" x="848.5" y="-348.5" font-family="Helvetica,sans-Serif" font-size="10.00">Collection</text>
</a>
</g>
</g>
<!-- Node4&#45;&gt;Node5 -->
<g id="edge76_Node000004_Node000005" class="edge">
<title>Node4&#45;&gt;Node5</title>
<g id="a_edge76_Node000004_Node000005"><a xlink:title=" ">
<path fill="none" stroke="#63b8ff" d="M701.43,-288.57C705.79,-290.3 710.01,-292.27 714,-294.5 734.31,-305.84 729.89,-320.8 750,-332.5 757.53,-336.88 765.84,-340.47 774.34,-343.4"/>
<polygon fill="#63b8ff" stroke="#63b8ff" points="702.32,-285.17 691.73,-285.12 699.98,-291.76 702.32,-285.17"/>
</a>
</g>
</g>
<!-- Node6 -->
<g id="Node000006" class="node">
<title>Node6</title>
<g id="a_Node000006"><a xlink:href="d4/ddd/classCBookReadWindow_1_1ActionCollection.html" target="_top" xlink:title=" ">
<polygon fill="white" stroke="#666666" points="947,-323 750,-323 750,-304 947,-304 947,-323"/>
<text text-anchor="middle" x="848.5" y="-311" font-family="Helvetica,sans-Serif" font-size="10.00">CBookReadWindow::ActionCollection</text>
</a>
</g>
</g>
<!-- Node4&#45;&gt;Node6 -->
<g id="edge77_Node000004_Node000006" class="edge">
<title>Node4&#45;&gt;Node6</title>
<g id="a_edge77_Node000004_Node000006"><a xlink:title=" ">
<path fill="none" stroke="#63b8ff" d="M689.62,-286.78C721.92,-292.24 760.29,-298.74 791.12,-303.96"/>
<polygon fill="#63b8ff" stroke="#63b8ff" points="689.8,-283.26 679.36,-285.04 688.64,-290.16 689.8,-283.26"/>
</a>
</g>
</g>
<!-- Node7 -->
<g id="Node000007" class="node">
<title>Node7</title>
<g id="a_Node000007"><a xlink:href="d6/d60/classCCommentaryReadWindow_1_1ActionCollection.html" target="_top" xlink:title=" ">
<polygon fill="white" stroke="#666666" points="924,-285.5 773,-285.5 773,-255.5 924,-255.5 924,-285.5"/>
<text text-anchor="start" x="781" y="-273.5" font-family="Helvetica,sans-Serif" font-size="10.00">CCommentaryReadWindow</text>
<text text-anchor="middle" x="848.5" y="-262.5" font-family="Helvetica,sans-Serif" font-size="10.00">::ActionCollection</text>
</a>
</g>
</g>
<!-- Node4&#45;&gt;Node7 -->
<g id="edge78_Node000004_Node000007" class="edge">
<title>Node4&#45;&gt;Node7</title>
<g id="a_edge78_Node000004_Node000007"><a xlink:title=" ">
<path fill="none" stroke="#63b8ff" d="M724.39,-273.24C740.66,-272.88 757.24,-272.51 772.74,-272.16"/>
<polygon fill="#63b8ff" stroke="#63b8ff" points="724.23,-269.74 714.31,-273.47 724.39,-276.74 724.23,-269.74"/>
</a>
</g>
</g>
<!-- Node8 -->
<g id="Node000008" class="node">
<title>Node8</title>
<g id="a_Node000008"><a xlink:href="d4/da8/classCLexiconReadWindow_1_1ActionCollection.html" target="_top" xlink:title=" ">
<polygon fill="white" stroke="#666666" points="911,-237.5 786,-237.5 786,-207.5 911,-207.5 911,-237.5"/>
<text text-anchor="start" x="794" y="-225.5" font-family="Helvetica,sans-Serif" font-size="10.00">CLexiconReadWindow</text>
<text text-anchor="middle" x="848.5" y="-214.5" font-family="Helvetica,sans-Serif" font-size="10.00">::ActionCollection</text>
</a>
</g>
</g>
<!-- Node4&#45;&gt;Node8 -->
<g id="edge79_Node000004_Node000008" class="edge">
<title>Node4&#45;&gt;Node8</title>
<g id="a_edge79_Node000004_Node000008"><a xlink:title=" ">
<path fill="none" stroke="#63b8ff" d="M673.36,-263.61C706.64,-255.75 750.47,-245.41 785.84,-237.06"/>
<polygon fill="#63b8ff" stroke="#63b8ff" points="672.32,-260.26 663.4,-265.96 673.93,-267.07 672.32,-260.26"/>
</a>
</g>
</g>
<!-- Node21 -->
<g id="Node000021" class="node">
<title>Node21</title>
<g id="a_Node000021"><a xlink:href="db/d50/classCSwordBibleModuleInfo.html" target="_top" xlink:title="Implementation for Sword Bibles.">
<polygon fill="white" stroke="#666666" points="688.5,-179 555.5,-179 555.5,-160 688.5,-160 688.5,-179"/>
<text text-anchor="middle" x="622" y="-167" font-family="Helvetica,sans-Serif" font-size="10.00">CSwordBibleModuleInfo</text>
</a>
</g>
</g>
<!-- Node20&#45;&gt;Node21 -->
<g id="edge86_Node000020_Node000021" class="edge">
<title>Node20&#45;&gt;Node21</title>
<g id="a_edge86_Node000020_Node000021"><a xlink:title=" ">
<path fill="none" stroke="#63b8ff" d="M494.87,-144.14C506.45,-146.6 518.63,-149.16 530,-151.5 543.57,-154.29 558.29,-157.24 571.86,-159.92"/>
<polygon fill="#63b8ff" stroke="#63b8ff" points="495.39,-140.67 484.88,-142.01 493.93,-147.52 495.39,-140.67"/>
</a>
</g>
</g>
<!-- Node23 -->
<g id="Node000023" class="node">
<title>Node23</title>
<g id="a_Node000023"><a xlink:href="db/d7a/classCSwordBookModuleInfo.html" target="_top" xlink:title="Class for generic book support.">
<polygon fill="white" stroke="#666666" points="688.5,-142 555.5,-142 555.5,-123 688.5,-123 688.5,-142"/>
<text text-anchor="middle" x="622" y="-130" font-family="Helvetica,sans-Serif" font-size="10.00">CSwordBookModuleInfo</text>
</a>
</g>
</g>
<!-- Node20&#45;&gt;Node23 -->
<g id="edge88_Node000020_Node000023" class="edge">
<title>Node20&#45;&gt;Node23</title>
<g id="a_edge88_Node000020_Node000023"><a xlink:title=" ">
<path fill="none" stroke="#63b8ff" d="M504.14,-132.5C520.69,-132.5 538.58,-132.5 555.26,-132.5"/>
<polygon fill="#63b8ff" stroke="#63b8ff" points="504.03,-129 494.03,-132.5 504.03,-136 504.03,-129"/>
</a>
</g>
</g>
<!-- Node24 -->
<g id="Node000024" class="node">
<title>Node24</title>
<g id="a_Node000024"><a xlink:href="dd/d0a/classCSwordLexiconModuleInfo.html" target="_top" xlink:title=" ">
<polygon fill="white" stroke="#666666" points="695,-105 549,-105 549,-86 695,-86 695,-105"/>
<text text-anchor="middle" x="622" y="-93" font-family="Helvetica,sans-Serif" font-size="10.00">CSwordLexiconModuleInfo</text>
</a>
</g>
</g>
<!-- Node20&#45;&gt;Node24 -->
<g id="edge89_Node000020_Node000024" class="edge">
<title>Node20&#45;&gt;Node24</title>
<g id="a_edge89_Node000020_Node000024"><a xlink:title=" ">
<path fill="none" stroke="#63b8ff" d="M494.87,-120.86C506.45,-118.4 518.63,-115.84 530,-113.5 543.57,-110.71 558.29,-107.76 571.86,-105.08"/>
<polygon fill="#63b8ff" stroke="#63b8ff" points="493.93,-117.48 484.88,-122.99 495.39,-124.33 493.93,-117.48"/>
</a>
</g>
</g>
<!-- Node22 -->
<g id="Node000022" class="node">
<title>Node22</title>
<g id="a_Node000022"><a xlink:href="d0/d59/classCSwordCommentaryModuleInfo.html" target="_top" xlink:title="Commentary module implementation.">
<polygon fill="white" stroke="#666666" points="934.5,-179 762.5,-179 762.5,-160 934.5,-160 934.5,-179"/>
<text text-anchor="middle" x="848.5" y="-167" font-family="Helvetica,sans-Serif" font-size="10.00">CSwordCommentaryModuleInfo</text>
</a>
</g>
</g>
<!-- Node21&#45;&gt;Node22 -->
<g id="edge87_Node000021_Node000022" class="edge">
<title>Node21&#45;&gt;Node22</title>
<g id="a_edge87_Node000021_Node000022"><a xlink:title=" ">
<path fill="none" stroke="#63b8ff" d="M698.71,-169.5C719.12,-169.5 741.34,-169.5 762.23,-169.5"/>
<polygon fill="#63b8ff" stroke="#63b8ff" points="698.54,-166 688.54,-169.5 698.54,-173 698.54,-166"/>
</a>
</g>
</g>
<!-- Node14 -->
<g id="Node000014" class="node">
<title>Node14</title>
<g id="a_Node000014"><a xlink:href="dd/dea/classRendering_1_1CTextRendering.html" target="_top" xlink:title="Text rendering based on trees.">
<polygon fill="white" stroke="#666666" points="149,-62 0,-62 0,-43 149,-43 149,-62"/>
<text text-anchor="middle" x="74.5" y="-50" font-family="Helvetica,sans-Serif" font-size="10.00">Rendering::CTextRendering</text>
</a>
</g>
</g>
<!-- Node13 -->
<g id="Node000013" class="node">
<title>Node13</title>
<g id="a_Node000013"><a xlink:href="d3/d32/classRendering_1_1CDisplayRendering.html" target="_top" xlink:title="Rendering for the html display widget.">
<polygon fill="white" stroke="#666666" points="350,-105 185,-105 185,-86 350,-86 350,-105"/>
<text text-anchor="middle" x="267.5" y="-93" font-family="Helvetica,sans-Serif" font-size="10.00">Rendering::CDisplayRendering</text>
</a>
</g>
</g>
<!-- Node14&#45;&gt;Node13 -->
<g id="edge90_Node000014_Node000013" class="edge">
<title>Node14&#45;&gt;Node13</title>
<g id="a_edge90_Node000014_Node000013"><a xlink:title=" ">
<path fill="none" stroke="#63b8ff" d="M127.86,-64.29C158.17,-71.11 195.82,-79.59 224.23,-85.98"/>
<polygon fill="#63b8ff" stroke="#63b8ff" points="128.41,-60.82 117.89,-62.04 126.88,-67.65 128.41,-60.82"/>
</a>
</g>
</g>
<!-- Node15 -->
<g id="Node000015" class="node">
<title>Node15</title>
<g id="a_Node000015"><a xlink:href="db/d7d/classRendering_1_1CPlainTextExportRendering.html" target="_top" xlink:title="Text rendering as plain text.">
<polygon fill="white" stroke="#666666" points="345,-67.5 190,-67.5 190,-37.5 345,-37.5 345,-67.5"/>
<text text-anchor="start" x="198" y="-55.5" font-family="Helvetica,sans-Serif" font-size="10.00">Rendering::CPlainTextExport</text>
<text text-anchor="middle" x="267.5" y="-44.5" font-family="Helvetica,sans-Serif" font-size="10.00">Rendering</text>
</a>
</g>
</g>
<!-- Node14&#45;&gt;Node15 -->
<g id="edge92_Node000014_Node000015" class="edge">
<title>Node14&#45;&gt;Node15</title>
<g id="a_edge92_Node000014_Node000015"><a xlink:title=" ">
<path fill="none" stroke="#63b8ff" d="M159.18,-52.5C169.36,-52.5 179.73,-52.5 189.8,-52.5"/>
<polygon fill="#63b8ff" stroke="#63b8ff" points="159.07,-49 149.07,-52.5 159.07,-56 159.07,-49"/>
</a>
</g>
</g>
<!-- Node16 -->
<g id="Node000016" class="node">
<title>Node16</title>
<g id="a_Node000016"><a xlink:href="d5/d70/classRendering_1_1CrossRefRendering.html" target="_top" xlink:title=" ">
<polygon fill="white" stroke="#666666" points="350,-19 185,-19 185,0 350,0 350,-19"/>
<text text-anchor="middle" x="267.5" y="-7" font-family="Helvetica,sans-Serif" font-size="10.00">Rendering::CrossRefRendering</text>
</a>
</g>
</g>
<!-- Node14&#45;&gt;Node16 -->
<g id="edge93_Node000014_Node000016" class="edge">
<title>Node14&#45;&gt;Node16</title>
<g id="a_edge93_Node000014_Node000016"><a xlink:title=" ">
<path fill="none" stroke="#63b8ff" d="M127.86,-40.71C158.17,-33.89 195.82,-25.41 224.23,-19.02"/>
<polygon fill="#63b8ff" stroke="#63b8ff" points="126.88,-37.35 117.89,-42.96 128.41,-44.18 126.88,-37.35"/>
</a>
</g>
</g>
<!-- Node13&#45;&gt;Node12 -->
<g id="edge91_Node000013_Node000012" class="edge">
<title>Node13&#45;&gt;Node12</title>
<g id="a_edge91_Node000013_Node000012"><a xlink:title=" ">
<path fill="none" stroke="#63b8ff" d="M360.35,-95.5C378.49,-95.5 396.22,-95.5 410.25,-95.5"/>
<polygon fill="#63b8ff" stroke="#63b8ff" points="360.25,-92 350.25,-95.5 360.25,-99 360.25,-92"/>
</a>
</g>
</g>
<!-- Node10 -->
<g id="Node000010" class="node">
<title>Node10</title>
<g id="a_Node000010"><a xlink:title=" ">
<polygon fill="#e0e0e0" stroke="#999999" points="318,-382 217,-382 217,-363 318,-363 318,-382"/>
<text text-anchor="middle" x="267.5" y="-370" font-family="Helvetica,sans-Serif" font-size="10.00">sword::InstallMgr</text>
</a>
</g>
</g>
<!-- Node10&#45;&gt;Node9 -->
<g id="edge94_Node000010_Node000009" class="edge">
<title>Node10&#45;&gt;Node9</title>
<g id="a_edge94_Node000010_Node000009"><a xlink:title=" ">
<path fill="none" stroke="#63b8ff" d="M328.54,-366.16C352.99,-363.58 380.47,-360.68 401.91,-358.42"/>
<polygon fill="#63b8ff" stroke="#63b8ff" points="327.85,-362.71 318.27,-367.25 328.59,-369.68 327.85,-362.71"/>
</a>
</g>
</g>
<!-- Node11 -->
<g id="Node000011" class="node">
<title>Node11</title>
<g id="a_Node000011"><a xlink:title=" ">
<polygon fill="#e0e0e0" stroke="#999999" points="330,-345 205,-345 205,-326 330,-326 330,-345"/>
<text text-anchor="middle" x="267.5" y="-333" font-family="Helvetica,sans-Serif" font-size="10.00">sword::StatusReporter</text>
</a>
</g>
</g>
<!-- Node11&#45;&gt;Node9 -->
<g id="edge95_Node000011_Node000009" class="edge">
<title>Node11&#45;&gt;Node9</title>
<g id="a_edge95_Node000011_Node000009"><a xlink:title=" ">
<path fill="none" stroke="#8b1a1a" d="M340.04,-343.47C361.3,-345.84 383.73,-348.34 401.85,-350.36"/>
<polygon fill="#8b1a1a" stroke="#8b1a1a" points="340.38,-339.99 330.05,-342.36 339.61,-346.95 340.38,-339.99"/>
</a>
</g>
</g>
</g>
</svg>
