<?xml version="1.0" encoding="UTF-8" standalone="no"?>
<!DOCTYPE svg PUBLIC "-//W3C//DTD SVG 1.1//EN"
 "http://www.w3.org/Graphics/SVG/1.1/DTD/svg11.dtd">
<!-- Generated by graphviz version 2.43.0 (0)
 -->
<!-- Title: Graphical Class Hierarchy Pages: 1 -->
<svg width="473pt" height="249pt"
 viewBox="0.00 0.00 473.00 249.00" xmlns="http://www.w3.org/2000/svg" xmlns:xlink="http://www.w3.org/1999/xlink">
<g id="graph0" class="graph" transform="scale(1 1) rotate(0) translate(4 245)">
<title>Graphical Class Hierarchy</title>
<!-- Node0 -->
<g id="Node000000" class="node">
<title>Node0</title>
<g id="a_Node000000"><a xlink:href="dc/d67/classQWizardPage.html" target="_top" xlink:title=" ">
<polygon fill="white" stroke="#666666" points="81,-93 0,-93 0,-74 81,-74 81,-93"/>
<text text-anchor="middle" x="40.5" y="-81" font-family="Helvetica,sans-Serif" font-size="10.00">QWizardPage</text>
</a>
</g>
</g>
<!-- Node1 -->
<g id="Node000001" class="node">
<title>Node1</title>
<g id="a_Node000001"><a xlink:href="da/dee/classBtBookshelfWizardPage.html" target="_top" xlink:title=" ">
<polygon fill="white" stroke="#666666" points="250,-130 117,-130 117,-111 250,-111 250,-130"/>
<text text-anchor="middle" x="183.5" y="-118" font-family="Helvetica,sans-Serif" font-size="10.00">BtBookshelfWizardPage</text>
</a>
</g>
</g>
<!-- Node0&#45;&gt;Node1 -->
<g id="edge138_Node000000_Node000001" class="edge">
<title>Node0&#45;&gt;Node1</title>
<g id="a_edge138_Node000000_Node000001"><a xlink:title=" ">
<path fill="none" stroke="#63b8ff" d="M87.69,-95.62C106.55,-100.57 128.06,-106.22 145.82,-110.88"/>
<polygon fill="#63b8ff" stroke="#63b8ff" points="88.37,-92.18 77.81,-93.03 86.6,-98.95 88.37,-92.18"/>
</a>
</g>
</g>
<!-- Node9 -->
<g id="Node000009" class="node">
<title>Node9</title>
<g id="a_Node000009"><a xlink:href="d9/d76/classBtEditTextPage.html" target="_top" xlink:title=" ">
<polygon fill="white" stroke="#666666" points="228,-93 139,-93 139,-74 228,-74 228,-93"/>
<text text-anchor="middle" x="183.5" y="-81" font-family="Helvetica,sans-Serif" font-size="10.00">BtEditTextPage</text>
</a>
</g>
</g>
<!-- Node0&#45;&gt;Node9 -->
<g id="edge146_Node000000_Node000009" class="edge">
<title>Node0&#45;&gt;Node9</title>
<g id="a_edge146_Node000000_Node000009"><a xlink:title=" ">
<path fill="none" stroke="#63b8ff" d="M91.59,-83.5C107.05,-83.5 123.96,-83.5 138.94,-83.5"/>
<polygon fill="#63b8ff" stroke="#63b8ff" points="91.15,-80 81.15,-83.5 91.15,-87 91.15,-80"/>
</a>
</g>
</g>
<!-- Node10 -->
<g id="Node000010" class="node">
<title>Node10</title>
<g id="a_Node000010"><a xlink:href="d5/dcc/classBtPlainOrHtmlPage.html" target="_top" xlink:title=" ">
<polygon fill="white" stroke="#666666" points="238.5,-56 128.5,-56 128.5,-37 238.5,-37 238.5,-56"/>
<text text-anchor="middle" x="183.5" y="-44" font-family="Helvetica,sans-Serif" font-size="10.00">BtPlainOrHtmlPage</text>
</a>
</g>
</g>
<!-- Node0&#45;&gt;Node10 -->
<g id="edge147_Node000000_Node000010" class="edge">
<title>Node0&#45;&gt;Node10</title>
<g id="a_edge147_Node000000_Node000010"><a xlink:title=" ">
<path fill="none" stroke="#63b8ff" d="M87.69,-71.38C106.55,-66.43 128.06,-60.78 145.82,-56.12"/>
<polygon fill="#63b8ff" stroke="#63b8ff" points="86.6,-68.05 77.81,-73.97 88.37,-74.82 86.6,-68.05"/>
</a>
</g>
</g>
<!-- Node2 -->
<g id="Node000002" class="node">
<title>Node2</title>
<g id="a_Node000002"><a xlink:href="de/d0a/classBtBookshelfInstallFinalPage.html" target="_top" xlink:title=" ">
<polygon fill="white" stroke="#666666" points="451.5,-241 299.5,-241 299.5,-222 451.5,-222 451.5,-241"/>
<text text-anchor="middle" x="375.5" y="-229" font-family="Helvetica,sans-Serif" font-size="10.00">BtBookshelfInstallFinalPage</text>
</a>
</g>
</g>
<!-- Node1&#45;&gt;Node2 -->
<g id="edge139_Node000001_Node000002" class="edge">
<title>Node1&#45;&gt;Node2</title>
<g id="a_edge139_Node000001_Node000002"><a xlink:title=" ">
<path fill="none" stroke="#63b8ff" d="M198.47,-138.17C216.38,-159.53 249.5,-194.91 286,-213.5 292.71,-216.92 300.01,-219.68 307.45,-221.93"/>
<polygon fill="#63b8ff" stroke="#63b8ff" points="201.01,-135.74 191.97,-130.22 195.59,-140.18 201.01,-135.74"/>
</a>
</g>
</g>
<!-- Node3 -->
<g id="Node000003" class="node">
<title>Node3</title>
<g id="a_Node000003"><a xlink:href="d8/d7f/classBtBookshelfLanguagesPage.html" target="_top" xlink:title=" ">
<polygon fill="white" stroke="#666666" points="451.5,-204 299.5,-204 299.5,-185 451.5,-185 451.5,-204"/>
<text text-anchor="middle" x="375.5" y="-192" font-family="Helvetica,sans-Serif" font-size="10.00">BtBookshelfLanguagesPage</text>
</a>
</g>
</g>
<!-- Node1&#45;&gt;Node3 -->
<g id="edge140_Node000001_Node000003" class="edge">
<title>Node1&#45;&gt;Node3</title>
<g id="a_edge140_Node000001_Node000003"><a xlink:title=" ">
<path fill="none" stroke="#63b8ff" d="M207.02,-135.55C226.99,-148.24 257.33,-165.96 286,-176.5 295.12,-179.86 305.02,-182.64 314.78,-184.94"/>
<polygon fill="#63b8ff" stroke="#63b8ff" points="208.92,-132.61 198.63,-130.12 205.12,-138.49 208.92,-132.61"/>
</a>
</g>
</g>
<!-- Node4 -->
<g id="Node000004" class="node">
<title>Node4</title>
<g id="a_Node000004"><a xlink:href="d0/dfd/classBtBookshelfRemoveFinalPage.html" target="_top" xlink:title=" ">
<polygon fill="white" stroke="#666666" points="457,-167 294,-167 294,-148 457,-148 457,-167"/>
<text text-anchor="middle" x="375.5" y="-155" font-family="Helvetica,sans-Serif" font-size="10.00">BtBookshelfRemoveFinalPage</text>
</a>
</g>
</g>
<!-- Node1&#45;&gt;Node4 -->
<g id="edge141_Node000001_Node000004" class="edge">
<title>Node1&#45;&gt;Node4</title>
<g id="a_edge141_Node000001_Node000004"><a xlink:title=" ">
<path fill="none" stroke="#63b8ff" d="M243.29,-131.95C269.62,-137.08 300.32,-143.06 325.41,-147.94"/>
<polygon fill="#63b8ff" stroke="#63b8ff" points="243.91,-128.5 233.43,-130.03 242.58,-135.38 243.91,-128.5"/>
</a>
</g>
</g>
<!-- Node5 -->
<g id="Node000005" class="node">
<title>Node5</title>
<g id="a_Node000005"><a xlink:href="d2/de4/classBtBookshelfSourcesPage.html" target="_top" xlink:title=" ">
<polygon fill="white" stroke="#666666" points="444,-130 307,-130 307,-111 444,-111 444,-130"/>
<text text-anchor="middle" x="375.5" y="-118" font-family="Helvetica,sans-Serif" font-size="10.00">BtBookshelfSourcesPage</text>
</a>
</g>
</g>
<!-- Node1&#45;&gt;Node5 -->
<g id="edge142_Node000001_Node000005" class="edge">
<title>Node1&#45;&gt;Node5</title>
<g id="a_edge142_Node000001_Node000005"><a xlink:title=" ">
<path fill="none" stroke="#63b8ff" d="M260.18,-120.5C275.62,-120.5 291.77,-120.5 306.91,-120.5"/>
<polygon fill="#63b8ff" stroke="#63b8ff" points="260.15,-117 250.15,-120.5 260.15,-124 260.15,-117"/>
</a>
</g>
</g>
<!-- Node6 -->
<g id="Node000006" class="node">
<title>Node6</title>
<g id="a_Node000006"><a xlink:href="df/dcc/classBtBookshelfSourcesProgressPage.html" target="_top" xlink:title=" ">
<polygon fill="white" stroke="#666666" points="465,-93 286,-93 286,-74 465,-74 465,-93"/>
<text text-anchor="middle" x="375.5" y="-81" font-family="Helvetica,sans-Serif" font-size="10.00">BtBookshelfSourcesProgressPage</text>
</a>
</g>
</g>
<!-- Node1&#45;&gt;Node6 -->
<g id="edge143_Node000001_Node000006" class="edge">
<title>Node1&#45;&gt;Node6</title>
<g id="a_edge143_Node000001_Node000006"><a xlink:title=" ">
<path fill="none" stroke="#63b8ff" d="M243.29,-109.05C269.62,-103.92 300.32,-97.94 325.41,-93.06"/>
<polygon fill="#63b8ff" stroke="#63b8ff" points="242.58,-105.62 233.43,-110.97 243.91,-112.5 242.58,-105.62"/>
</a>
</g>
</g>
<!-- Node7 -->
<g id="Node000007" class="node">
<title>Node7</title>
<g id="a_Node000007"><a xlink:href="d3/d1b/classBtBookshelfTaskPage.html" target="_top" xlink:title=" ">
<polygon fill="white" stroke="#666666" points="436,-56 315,-56 315,-37 436,-37 436,-56"/>
<text text-anchor="middle" x="375.5" y="-44" font-family="Helvetica,sans-Serif" font-size="10.00">BtBookshelfTaskPage</text>
</a>
</g>
</g>
<!-- Node1&#45;&gt;Node7 -->
<g id="edge144_Node000001_Node000007" class="edge">
<title>Node1&#45;&gt;Node7</title>
<g id="a_edge144_Node000001_Node000007"><a xlink:title=" ">
<path fill="none" stroke="#63b8ff" d="M240.59,-107.3C243.85,-105.86 247.02,-104.26 250,-102.5 269.75,-90.83 265.92,-76.61 286,-65.5 294.8,-60.63 304.73,-57.01 314.68,-54.32"/>
<polygon fill="#63b8ff" stroke="#63b8ff" points="239.25,-104.07 231.21,-110.98 241.8,-110.59 239.25,-104.07"/>
</a>
</g>
</g>
<!-- Node8 -->
<g id="Node000008" class="node">
<title>Node8</title>
<g id="a_Node000008"><a xlink:href="df/d7e/classBtBookshelfWorksPage.html" target="_top" xlink:title=" ">
<polygon fill="white" stroke="#666666" points="440,-19 311,-19 311,0 440,0 440,-19"/>
<text text-anchor="middle" x="375.5" y="-7" font-family="Helvetica,sans-Serif" font-size="10.00">BtBookshelfWorksPage</text>
</a>
</g>
</g>
<!-- Node1&#45;&gt;Node8 -->
<g id="edge145_Node000001_Node000008" class="edge">
<title>Node1&#45;&gt;Node8</title>
<g id="a_edge145_Node000001_Node000008"><a xlink:title=" ">
<path fill="none" stroke="#63b8ff" d="M245.18,-106.05C246.86,-104.95 248.47,-103.77 250,-102.5 278.14,-79.13 257.21,-51.06 286,-28.5 293.3,-22.78 301.93,-18.69 310.9,-15.78"/>
<polygon fill="#63b8ff" stroke="#63b8ff" points="243.42,-103.02 236.32,-110.88 246.77,-109.17 243.42,-103.02"/>
</a>
</g>
</g>
</g>
</svg>
