<?xml version="1.0" encoding="UTF-8" standalone="no"?>
<!DOCTYPE svg PUBLIC "-//W3C//DTD SVG 1.1//EN"
 "http://www.w3.org/Graphics/SVG/1.1/DTD/svg11.dtd">
<!-- Generated by graphviz version 2.43.0 (0)
 -->
<!-- Title: Graphical Class Hierarchy Pages: 1 -->
<svg width="217pt" height="66pt"
 viewBox="0.00 0.00 217.00 66.00" xmlns="http://www.w3.org/2000/svg" xmlns:xlink="http://www.w3.org/1999/xlink">
<g id="graph0" class="graph" transform="scale(1 1) rotate(0) translate(4 62)">
<title>Graphical Class Hierarchy</title>
<polygon fill="white" stroke="transparent" points="-4,4 -4,-62 213,-62 213,4 -4,4"/>
<!-- Node247 -->
<g id="node1" class="node">
<title>Node247</title>
<g id="a_node1"><a xlink:title=" ">
<polygon fill="white" stroke="#bfbfbf" points="0,-19.5 0,-38.5 44,-38.5 44,-19.5 0,-19.5"/>
<text text-anchor="middle" x="22" y="-26.5" font-family="Helvetica,sans-Serif" font-size="10.00">QIcon</text>
</a>
</g>
</g>
<!-- Node0 -->
<g id="node2" class="node">
<title>Node0</title>
<g id="a_node2"><a xlink:href="df/d0b/classBtIcons_1_1OverlayedIcon.html" target="_top" xlink:title=" ">
<polygon fill="white" stroke="black" points="80,-38.5 80,-57.5 209,-57.5 209,-38.5 80,-38.5"/>
<text text-anchor="middle" x="144.5" y="-45.5" font-family="Helvetica,sans-Serif" font-size="10.00">BtIcons::OverlayedIcon</text>
</a>
</g>
</g>
<!-- Node247&#45;&gt;Node0 -->
<g id="edge1" class="edge">
<title>Node247&#45;&gt;Node0</title>
<path fill="none" stroke="midnightblue" d="M54.15,-33.91C63.06,-35.32 73.09,-36.9 83.13,-38.48"/>
<polygon fill="midnightblue" stroke="midnightblue" points="54.69,-30.45 44.27,-32.35 53.6,-37.37 54.69,-30.45"/>
</g>
<!-- Node249 -->
<g id="node3" class="node">
<title>Node249</title>
<g id="a_node3"><a xlink:href="d6/d86/classBtIcons_1_1RegularIcon.html" target="_top" xlink:title=" ">
<polygon fill="white" stroke="black" points="86.5,-0.5 86.5,-19.5 202.5,-19.5 202.5,-0.5 86.5,-0.5"/>
<text text-anchor="middle" x="144.5" y="-7.5" font-family="Helvetica,sans-Serif" font-size="10.00">BtIcons::RegularIcon</text>
</a>
</g>
</g>
<!-- Node247&#45;&gt;Node249 -->
<g id="edge2" class="edge">
<title>Node247&#45;&gt;Node249</title>
<path fill="none" stroke="midnightblue" d="M54.36,-24.06C64.22,-22.5 75.42,-20.73 86.49,-18.99"/>
<polygon fill="midnightblue" stroke="midnightblue" points="53.6,-20.63 44.27,-25.65 54.69,-27.55 53.6,-20.63"/>
</g>
</g>
</svg>
