<?xml version="1.0" encoding="UTF-8" standalone="no"?>
<!DOCTYPE svg PUBLIC "-//W3C//DTD SVG 1.1//EN"
 "http://www.w3.org/Graphics/SVG/1.1/DTD/svg11.dtd">
<!-- Generated by graphviz version 2.43.0 (0)
 -->
<!-- Title: Graphical Class Hierarchy Pages: 1 -->
<svg width="305pt" height="50pt"
 viewBox="0.00 0.00 305.00 50.00" xmlns="http://www.w3.org/2000/svg" xmlns:xlink="http://www.w3.org/1999/xlink">
<g id="graph0" class="graph" transform="scale(1 1) rotate(0) translate(4 46)">
<title>Graphical Class Hierarchy</title>
<polygon fill="white" stroke="transparent" points="-4,4 -4,-46 301,-46 301,4 -4,4"/>
<!-- Node0 -->
<g id="node1" class="node">
<title>Node0</title>
<g id="a_node1"><a xlink:href="d3/d25/classBtPrinter_1_1KeyTreeItem_1_1Settings.html" target="_top" xlink:title=" ">
<polygon fill="white" stroke="black" points="0,-6 0,-36 126,-36 126,-6 0,-6"/>
<text text-anchor="start" x="8" y="-24" font-family="Helvetica,sans-Serif" font-size="10.00">BtPrinter::KeyTreeItem</text>
<text text-anchor="middle" x="63" y="-13" font-family="Helvetica,sans-Serif" font-size="10.00">::Settings</text>
</a>
</g>
</g>
<!-- Node1 -->
<g id="node2" class="node">
<title>Node1</title>
<g id="a_node2"><a xlink:href="db/d41/structanonymous__namespace_02cexportmanager_8cpp_03_1_1PrintSettings.html" target="_top" xlink:title=" ">
<polygon fill="white" stroke="black" points="162,-0.5 162,-41.5 297,-41.5 297,-0.5 162,-0.5"/>
<text text-anchor="start" x="170" y="-29.5" font-family="Helvetica,sans-Serif" font-size="10.00">anonymous_namespace</text>
<text text-anchor="start" x="170" y="-18.5" font-family="Helvetica,sans-Serif" font-size="10.00">{cexportmanager.cpp}</text>
<text text-anchor="middle" x="229.5" y="-7.5" font-family="Helvetica,sans-Serif" font-size="10.00">::PrintSettings</text>
</a>
</g>
</g>
<!-- Node0&#45;&gt;Node1 -->
<g id="edge1" class="edge">
<title>Node0&#45;&gt;Node1</title>
<path fill="none" stroke="midnightblue" d="M136.41,-21C144.86,-21 153.46,-21 161.83,-21"/>
<polygon fill="midnightblue" stroke="midnightblue" points="136.19,-17.5 126.19,-21 136.19,-24.5 136.19,-17.5"/>
</g>
</g>
</svg>
