<?xml version="1.0" encoding="UTF-8" standalone="no"?>
<!DOCTYPE svg PUBLIC "-//W3C//DTD SVG 1.1//EN"
 "http://www.w3.org/Graphics/SVG/1.1/DTD/svg11.dtd">
<!-- Generated by graphviz version 2.43.0 (0)
 -->
<!-- Title: Graphical Class Hierarchy Pages: 1 -->
<svg width="339pt" height="66pt"
 viewBox="0.00 0.00 339.00 66.00" xmlns="http://www.w3.org/2000/svg" xmlns:xlink="http://www.w3.org/1999/xlink">
<g id="graph0" class="graph" transform="scale(1 1) rotate(0) translate(4 62)">
<title>Graphical Class Hierarchy</title>
<polygon fill="white" stroke="transparent" points="-4,4 -4,-62 335,-62 335,4 -4,4"/>
<!-- Node0 -->
<g id="node1" class="node">
<title>Node0</title>
<g id="a_node1"><a xlink:href="d8/dd3/classRendering_1_1CEntryDisplay.html" target="_top" xlink:title=" ">
<polygon fill="white" stroke="black" points="0,-19.5 0,-38.5 141,-38.5 141,-19.5 0,-19.5"/>
<text text-anchor="middle" x="70.5" y="-26.5" font-family="Helvetica,sans-Serif" font-size="10.00">Rendering::CEntryDisplay</text>
</a>
</g>
</g>
<!-- Node1 -->
<g id="node2" class="node">
<title>Node1</title>
<g id="a_node2"><a xlink:href="df/d5b/classRendering_1_1CBookDisplay.html" target="_top" xlink:title="CEntryDisplay implementation for GenBook modules,.">
<polygon fill="white" stroke="black" points="184,-38.5 184,-57.5 324,-57.5 324,-38.5 184,-38.5"/>
<text text-anchor="middle" x="254" y="-45.5" font-family="Helvetica,sans-Serif" font-size="10.00">Rendering::CBookDisplay</text>
</a>
</g>
</g>
<!-- Node0&#45;&gt;Node1 -->
<g id="edge1" class="edge">
<title>Node0&#45;&gt;Node1</title>
<path fill="none" stroke="midnightblue" d="M151.43,-37.37C162.23,-38.5 173.24,-39.65 183.83,-40.76"/>
<polygon fill="midnightblue" stroke="midnightblue" points="151.46,-33.85 141.15,-36.29 150.73,-40.81 151.46,-33.85"/>
</g>
<!-- Node2 -->
<g id="node3" class="node">
<title>Node2</title>
<g id="a_node3"><a xlink:href="df/d5b/classRendering_1_1CChapterDisplay.html" target="_top" xlink:title="CEntryDisplay implementation for whole chapters.">
<polygon fill="white" stroke="black" points="177,-0.5 177,-19.5 331,-19.5 331,-0.5 177,-0.5"/>
<text text-anchor="middle" x="254" y="-7.5" font-family="Helvetica,sans-Serif" font-size="10.00">Rendering::CChapterDisplay</text>
</a>
</g>
</g>
<!-- Node0&#45;&gt;Node2 -->
<g id="edge2" class="edge">
<title>Node0&#45;&gt;Node2</title>
<path fill="none" stroke="midnightblue" d="M151.12,-20.67C159.68,-19.77 168.37,-18.86 176.89,-17.97"/>
<polygon fill="midnightblue" stroke="midnightblue" points="150.73,-17.19 141.15,-21.71 151.46,-24.15 150.73,-17.19"/>
</g>
</g>
</svg>
