<?xml version="1.0" encoding="UTF-8" standalone="no"?>
<!DOCTYPE svg PUBLIC "-//W3C//DTD SVG 1.1//EN"
 "http://www.w3.org/Graphics/SVG/1.1/DTD/svg11.dtd">
<!-- Generated by graphviz version 2.43.0 (0)
 -->
<!-- Title: Graphical Class Hierarchy Pages: 1 -->
<svg width="471pt" height="621pt"
 viewBox="0.00 0.00 471.00 621.00" xmlns="http://www.w3.org/2000/svg" xmlns:xlink="http://www.w3.org/1999/xlink">
<g id="graph0" class="graph" transform="scale(1 1) rotate(0) translate(4 617)">
<title>Graphical Class Hierarchy</title>
<polygon fill="white" stroke="transparent" points="-4,4 -4,-617 467,-617 467,4 -4,4"/>
<!-- Node0 -->
<g id="node1" class="node">
<title>Node0</title>
<g id="a_node1"><a xlink:href="d9/d46/classQDialog.html" target="_top" xlink:title=" ">
<polygon fill="white" stroke="black" points="0,-308.5 0,-327.5 56,-327.5 56,-308.5 0,-308.5"/>
<text text-anchor="middle" x="28" y="-315.5" font-family="Helvetica,sans-Serif" font-size="10.00">QDialog</text>
</a>
</g>
</g>
<!-- Node1 -->
<g id="node2" class="node">
<title>Node1</title>
<g id="a_node2"><a xlink:href="d4/d24/classBtAboutDialog.html" target="_top" xlink:title=" ">
<polygon fill="white" stroke="black" points="132.5,-593.5 132.5,-612.5 219.5,-612.5 219.5,-593.5 132.5,-593.5"/>
<text text-anchor="middle" x="176" y="-600.5" font-family="Helvetica,sans-Serif" font-size="10.00">BtAboutDialog</text>
</a>
</g>
</g>
<!-- Node0&#45;&gt;Node1 -->
<g id="edge1" class="edge">
<title>Node0&#45;&gt;Node1</title>
<path fill="none" stroke="midnightblue" d="M30.98,-337.62C36.98,-393.04 56.71,-548.97 92,-584 102.6,-594.52 117.75,-599.69 132.22,-602.11"/>
<polygon fill="midnightblue" stroke="midnightblue" points="34.46,-337.25 29.94,-327.67 27.5,-337.99 34.46,-337.25"/>
</g>
<!-- Node2 -->
<g id="node3" class="node">
<title>Node2</title>
<g id="a_node3"><a xlink:href="de/dfc/classBTAboutModuleDialog.html" target="_top" xlink:title=" ">
<polygon fill="white" stroke="black" points="113.5,-555.5 113.5,-574.5 238.5,-574.5 238.5,-555.5 113.5,-555.5"/>
<text text-anchor="middle" x="176" y="-562.5" font-family="Helvetica,sans-Serif" font-size="10.00">BTAboutModuleDialog</text>
</a>
</g>
</g>
<!-- Node0&#45;&gt;Node2 -->
<g id="edge2" class="edge">
<title>Node0&#45;&gt;Node2</title>
<path fill="none" stroke="midnightblue" d="M28.2,-338.06C27.6,-382.41 32.76,-489.34 92,-546 97.98,-551.72 105.32,-555.85 113.13,-558.81"/>
<polygon fill="midnightblue" stroke="midnightblue" points="31.7,-338.06 28.46,-327.97 24.7,-337.88 31.7,-338.06"/>
</g>
<!-- Node3 -->
<g id="node4" class="node">
<title>Node3</title>
<g id="a_node4"><a xlink:href="d6/d10/classBtConfigDialog.html" target="_top" xlink:title=" ">
<polygon fill="white" stroke="black" points="131.5,-517.5 131.5,-536.5 220.5,-536.5 220.5,-517.5 131.5,-517.5"/>
<text text-anchor="middle" x="176" y="-524.5" font-family="Helvetica,sans-Serif" font-size="10.00">BtConfigDialog</text>
</a>
</g>
</g>
<!-- Node0&#45;&gt;Node3 -->
<g id="edge3" class="edge">
<title>Node0&#45;&gt;Node3</title>
<path fill="none" stroke="midnightblue" d="M29.52,-338.09C31.66,-376.97 42.13,-462.66 92,-508 102.72,-517.75 117.39,-522.81 131.43,-525.36"/>
<polygon fill="midnightblue" stroke="midnightblue" points="33,-337.47 29.09,-327.62 26,-337.76 33,-337.47"/>
</g>
<!-- Node5 -->
<g id="node6" class="node">
<title>Node5</title>
<g id="a_node6"><a xlink:href="db/d1e/classBtCopyByReferencesDialog.html" target="_top" xlink:title=" ">
<polygon fill="white" stroke="black" points="100.5,-479.5 100.5,-498.5 251.5,-498.5 251.5,-479.5 100.5,-479.5"/>
<text text-anchor="middle" x="176" y="-486.5" font-family="Helvetica,sans-Serif" font-size="10.00">BtCopyByReferencesDialog</text>
</a>
</g>
</g>
<!-- Node0&#45;&gt;Node5 -->
<g id="edge5" class="edge">
<title>Node0&#45;&gt;Node5</title>
<path fill="none" stroke="midnightblue" d="M31.37,-337.68C36.39,-370.34 51.2,-435.54 92,-470 96.52,-473.82 101.65,-476.9 107.09,-479.4"/>
<polygon fill="midnightblue" stroke="midnightblue" points="34.81,-337.02 29.98,-327.59 27.88,-337.98 34.81,-337.02"/>
</g>
<!-- Node6 -->
<g id="node7" class="node">
<title>Node6</title>
<g id="a_node7"><a xlink:href="dd/d5f/classBtEditBookmarkDialog.html" target="_top" xlink:title="A dialog box for editing bookmarks.">
<polygon fill="white" stroke="black" points="112,-441.5 112,-460.5 240,-460.5 240,-441.5 112,-441.5"/>
<text text-anchor="middle" x="176" y="-448.5" font-family="Helvetica,sans-Serif" font-size="10.00">BtEditBookmarkDialog</text>
</a>
</g>
</g>
<!-- Node0&#45;&gt;Node6 -->
<g id="edge6" class="edge">
<title>Node0&#45;&gt;Node6</title>
<path fill="none" stroke="midnightblue" d="M34.32,-337.48C42.38,-363.22 60.23,-408.07 92,-432 97.9,-436.45 104.67,-439.88 111.73,-442.53"/>
<polygon fill="midnightblue" stroke="midnightblue" points="37.63,-336.34 31.45,-327.74 30.91,-338.32 37.63,-336.34"/>
</g>
<!-- Node7 -->
<g id="node8" class="node">
<title>Node7</title>
<g id="a_node8"><a xlink:href="d6/dbe/classBtIndexDialog.html" target="_top" xlink:title=" ">
<polygon fill="white" stroke="black" points="133,-403.5 133,-422.5 219,-422.5 219,-403.5 133,-403.5"/>
<text text-anchor="middle" x="176" y="-410.5" font-family="Helvetica,sans-Serif" font-size="10.00">BtIndexDialog</text>
</a>
</g>
</g>
<!-- Node0&#45;&gt;Node7 -->
<g id="edge7" class="edge">
<title>Node0&#45;&gt;Node7</title>
<path fill="none" stroke="midnightblue" d="M39.36,-336.44C50.2,-353.98 68.85,-379.75 92,-394 104.21,-401.52 119.08,-406.07 132.85,-408.82"/>
<polygon fill="midnightblue" stroke="midnightblue" points="42.27,-334.48 34.17,-327.66 36.25,-338.05 42.27,-334.48"/>
</g>
<!-- Node8 -->
<g id="node9" class="node">
<title>Node8</title>
<g id="a_node9"><a xlink:href="d1/d1e/classBtMessageInputDialog.html" target="_top" xlink:title="The BtMessageInputDialog class provides a editable field for user input. Optionally it displays a lar...">
<polygon fill="white" stroke="black" points="112.5,-365.5 112.5,-384.5 239.5,-384.5 239.5,-365.5 112.5,-365.5"/>
<text text-anchor="middle" x="176" y="-372.5" font-family="Helvetica,sans-Serif" font-size="10.00">BtMessageInputDialog</text>
</a>
</g>
</g>
<!-- Node0&#45;&gt;Node8 -->
<g id="edge8" class="edge">
<title>Node0&#45;&gt;Node8</title>
<path fill="none" stroke="midnightblue" d="M50.63,-333.4C62.39,-341.15 77.47,-350.13 92,-356 101.32,-359.76 111.55,-362.87 121.54,-365.4"/>
<polygon fill="midnightblue" stroke="midnightblue" points="52.59,-330.5 42.35,-327.78 48.66,-336.29 52.59,-330.5"/>
</g>
<!-- Node9 -->
<g id="node10" class="node">
<title>Node9</title>
<g id="a_node10"><a xlink:href="da/d6d/classBtModuleChooserDialog.html" target="_top" xlink:title=" ">
<polygon fill="white" stroke="black" points="109,-327.5 109,-346.5 243,-346.5 243,-327.5 109,-327.5"/>
<text text-anchor="middle" x="176" y="-334.5" font-family="Helvetica,sans-Serif" font-size="10.00">BtModuleChooserDialog</text>
</a>
</g>
</g>
<!-- Node0&#45;&gt;Node9 -->
<g id="edge9" class="edge">
<title>Node0&#45;&gt;Node9</title>
<path fill="none" stroke="midnightblue" d="M66.09,-322.83C79.13,-324.52 94.2,-326.49 108.9,-328.4"/>
<polygon fill="midnightblue" stroke="midnightblue" points="66.49,-319.35 56.12,-321.53 65.58,-326.29 66.49,-319.35"/>
</g>
<!-- Node11 -->
<g id="node12" class="node">
<title>Node11</title>
<g id="a_node12"><a xlink:href="d7/df7/classBtShortcutsDialog.html" target="_top" xlink:title=" ">
<polygon fill="white" stroke="black" points="124,-289.5 124,-308.5 228,-308.5 228,-289.5 124,-289.5"/>
<text text-anchor="middle" x="176" y="-296.5" font-family="Helvetica,sans-Serif" font-size="10.00">BtShortcutsDialog</text>
</a>
</g>
</g>
<!-- Node0&#45;&gt;Node11 -->
<g id="edge11" class="edge">
<title>Node0&#45;&gt;Node11</title>
<path fill="none" stroke="midnightblue" d="M66.46,-313.12C83.9,-310.86 104.92,-308.12 123.8,-305.66"/>
<polygon fill="midnightblue" stroke="midnightblue" points="65.58,-309.71 56.12,-314.47 66.49,-316.65 65.58,-309.71"/>
</g>
<!-- Node12 -->
<g id="node13" class="node">
<title>Node12</title>
<g id="a_node13"><a xlink:href="d0/d31/classBtTipDialog.html" target="_top" xlink:title=" ">
<polygon fill="white" stroke="black" points="139,-251.5 139,-270.5 213,-270.5 213,-251.5 139,-251.5"/>
<text text-anchor="middle" x="176" y="-258.5" font-family="Helvetica,sans-Serif" font-size="10.00">BtTipDialog</text>
</a>
</g>
</g>
<!-- Node0&#45;&gt;Node12 -->
<g id="edge12" class="edge">
<title>Node0&#45;&gt;Node12</title>
<path fill="none" stroke="midnightblue" d="M50.63,-302.6C62.39,-294.85 77.47,-285.87 92,-280 106.8,-274.02 123.89,-269.7 138.7,-266.71"/>
<polygon fill="midnightblue" stroke="midnightblue" points="48.66,-299.71 42.35,-308.22 52.59,-305.5 48.66,-299.71"/>
</g>
<!-- Node13 -->
<g id="node14" class="node">
<title>Node13</title>
<g id="a_node14"><a xlink:href="d6/dc0/classBtWelcomeDialog.html" target="_top" xlink:title=" ">
<polygon fill="white" stroke="black" points="124,-213.5 124,-232.5 228,-232.5 228,-213.5 124,-213.5"/>
<text text-anchor="middle" x="176" y="-220.5" font-family="Helvetica,sans-Serif" font-size="10.00">BtWelcomeDialog</text>
</a>
</g>
</g>
<!-- Node0&#45;&gt;Node13 -->
<g id="edge13" class="edge">
<title>Node0&#45;&gt;Node13</title>
<path fill="none" stroke="midnightblue" d="M39.36,-299.56C50.2,-282.02 68.85,-256.25 92,-242 101.57,-236.11 112.77,-232.04 123.79,-229.23"/>
<polygon fill="midnightblue" stroke="midnightblue" points="36.25,-297.95 34.17,-308.34 42.27,-301.52 36.25,-297.95"/>
</g>
<!-- Node14 -->
<g id="node15" class="node">
<title>Node14</title>
<g id="a_node15"><a xlink:href="d6/d1c/classCSwordSetupInstallSourcesDialog.html" target="_top" xlink:title=" ">
<polygon fill="white" stroke="black" points="101.5,-164 101.5,-194 250.5,-194 250.5,-164 101.5,-164"/>
<text text-anchor="start" x="109.5" y="-182" font-family="Helvetica,sans-Serif" font-size="10.00">CSwordSetupInstallSources</text>
<text text-anchor="middle" x="176" y="-171" font-family="Helvetica,sans-Serif" font-size="10.00">Dialog</text>
</a>
</g>
</g>
<!-- Node0&#45;&gt;Node14 -->
<g id="edge14" class="edge">
<title>Node0&#45;&gt;Node14</title>
<path fill="none" stroke="midnightblue" d="M34.56,-298.83C42.9,-273.45 61.06,-228.98 92,-204 96.8,-200.12 102.19,-196.85 107.86,-194.08"/>
<polygon fill="midnightblue" stroke="midnightblue" points="31.2,-297.84 31.58,-308.43 37.89,-299.92 31.2,-297.84"/>
</g>
<!-- Node15 -->
<g id="node16" class="node">
<title>Node15</title>
<g id="a_node16"><a xlink:href="dc/d73/classSearch_1_1BtSearchSyntaxHelpDialog.html" target="_top" xlink:title=" ">
<polygon fill="white" stroke="black" points="98.5,-115 98.5,-145 253.5,-145 253.5,-115 98.5,-115"/>
<text text-anchor="start" x="106.5" y="-133" font-family="Helvetica,sans-Serif" font-size="10.00">Search::BtSearchSyntaxHelp</text>
<text text-anchor="middle" x="176" y="-122" font-family="Helvetica,sans-Serif" font-size="10.00">Dialog</text>
</a>
</g>
</g>
<!-- Node0&#45;&gt;Node15 -->
<g id="edge15" class="edge">
<title>Node0&#45;&gt;Node15</title>
<path fill="none" stroke="midnightblue" d="M30.98,-298.01C35.48,-263.55 49.61,-192.92 92,-154 95.76,-150.55 99.98,-147.59 104.48,-145.06"/>
<polygon fill="midnightblue" stroke="midnightblue" points="27.48,-297.88 29.8,-308.21 34.43,-298.68 27.48,-297.88"/>
</g>
<!-- Node16 -->
<g id="node17" class="node">
<title>Node16</title>
<g id="a_node17"><a xlink:href="d6/d04/classSearch_1_1CRangeChooserDialog.html" target="_top" xlink:title=" ">
<polygon fill="white" stroke="black" points="94,-76.5 94,-95.5 258,-95.5 258,-76.5 94,-76.5"/>
<text text-anchor="middle" x="176" y="-83.5" font-family="Helvetica,sans-Serif" font-size="10.00">Search::CRangeChooserDialog</text>
</a>
</g>
</g>
<!-- Node0&#45;&gt;Node16 -->
<g id="edge16" class="edge">
<title>Node0&#45;&gt;Node16</title>
<path fill="none" stroke="midnightblue" d="M28.67,-298.11C29.11,-255.97 36.39,-157.24 92,-105 96.09,-101.15 100.8,-98.03 105.85,-95.5"/>
<polygon fill="midnightblue" stroke="midnightblue" points="25.17,-298.21 28.69,-308.2 32.17,-298.19 25.17,-298.21"/>
</g>
<!-- Node17 -->
<g id="node18" class="node">
<title>Node17</title>
<g id="a_node18"><a xlink:href="d0/d34/classSearch_1_1CSearchAnalysisDialog.html" target="_top" xlink:title=" ">
<polygon fill="white" stroke="black" points="92,-38.5 92,-57.5 260,-57.5 260,-38.5 92,-38.5"/>
<text text-anchor="middle" x="176" y="-45.5" font-family="Helvetica,sans-Serif" font-size="10.00">Search::CSearchAnalysisDialog</text>
</a>
</g>
</g>
<!-- Node0&#45;&gt;Node17 -->
<g id="edge17" class="edge">
<title>Node0&#45;&gt;Node17</title>
<path fill="none" stroke="midnightblue" d="M31.32,-298.1C37.94,-244.62 58.66,-99.65 92,-67 95.91,-63.17 100.42,-60.06 105.28,-57.52"/>
<polygon fill="midnightblue" stroke="midnightblue" points="27.81,-297.96 30.09,-308.31 34.76,-298.8 27.81,-297.96"/>
</g>
<!-- Node18 -->
<g id="node19" class="node">
<title>Node18</title>
<g id="a_node19"><a xlink:href="d4/d6c/classSearch_1_1CSearchDialog.html" target="_top" xlink:title=" ">
<polygon fill="white" stroke="black" points="112.5,-0.5 112.5,-19.5 239.5,-19.5 239.5,-0.5 112.5,-0.5"/>
<text text-anchor="middle" x="176" y="-7.5" font-family="Helvetica,sans-Serif" font-size="10.00">Search::CSearchDialog</text>
</a>
</g>
</g>
<!-- Node0&#45;&gt;Node18 -->
<g id="edge18" class="edge">
<title>Node0&#45;&gt;Node18</title>
<path fill="none" stroke="midnightblue" d="M30.59,-298.26C35.73,-239.53 53.82,-67.58 92,-29 97.72,-23.22 104.81,-19.05 112.42,-16.06"/>
<polygon fill="midnightblue" stroke="midnightblue" points="27.09,-298.16 29.74,-308.42 34.06,-298.75 27.09,-298.16"/>
</g>
<!-- Node4 -->
<g id="node5" class="node">
<title>Node4</title>
<g id="a_node5"><a xlink:href="df/da6/classCConfigurationDialog.html" target="_top" xlink:title=" ">
<polygon fill="white" stroke="black" points="319.5,-517.5 319.5,-536.5 439.5,-536.5 439.5,-517.5 319.5,-517.5"/>
<text text-anchor="middle" x="379.5" y="-524.5" font-family="Helvetica,sans-Serif" font-size="10.00">CConfigurationDialog</text>
</a>
</g>
</g>
<!-- Node3&#45;&gt;Node4 -->
<g id="edge4" class="edge">
<title>Node3&#45;&gt;Node4</title>
<path fill="none" stroke="midnightblue" d="M230.85,-527C258.09,-527 291.22,-527 319.19,-527"/>
<polygon fill="midnightblue" stroke="midnightblue" points="230.72,-523.5 220.72,-527 230.72,-530.5 230.72,-523.5"/>
</g>
<!-- Node10 -->
<g id="node11" class="node">
<title>Node10</title>
<g id="a_node11"><a xlink:href="d7/da3/classBtSearchModuleChooserDialog.html" target="_top" xlink:title=" ">
<polygon fill="white" stroke="black" points="296,-327.5 296,-346.5 463,-346.5 463,-327.5 296,-327.5"/>
<text text-anchor="middle" x="379.5" y="-334.5" font-family="Helvetica,sans-Serif" font-size="10.00">BtSearchModuleChooserDialog</text>
</a>
</g>
</g>
<!-- Node9&#45;&gt;Node10 -->
<g id="edge10" class="edge">
<title>Node9&#45;&gt;Node10</title>
<path fill="none" stroke="midnightblue" d="M253.62,-337C267.37,-337 281.74,-337 295.65,-337"/>
<polygon fill="midnightblue" stroke="midnightblue" points="253.26,-333.5 243.26,-337 253.26,-340.5 253.26,-333.5"/>
</g>
</g>
</svg>
