<?xml version="1.0" encoding="UTF-8" standalone="no"?>
<!DOCTYPE svg PUBLIC "-//W3C//DTD SVG 1.1//EN"
 "http://www.w3.org/Graphics/SVG/1.1/DTD/svg11.dtd">
<!-- Generated by graphviz version 2.43.0 (0)
 -->
<!-- Title: Graphical Class Hierarchy Pages: 1 -->
<svg width="332pt" height="108pt"
 viewBox="0.00 0.00 332.00 108.00" xmlns="http://www.w3.org/2000/svg" xmlns:xlink="http://www.w3.org/1999/xlink">
<g id="graph0" class="graph" transform="scale(1 1) rotate(0) translate(4 104)">
<title>Graphical Class Hierarchy</title>
<!-- Node0 -->
<g id="Node000000" class="node">
<title>Node0</title>
<g id="a_Node000000"><a xlink:href="d0/df1/classanonymous__namespace_02btbookmarksmodel_8cpp_03_1_1BookmarkItemBase.html" target="_top" xlink:title=" ">
<polygon fill="white" stroke="#666666" points="144,-70 0,-70 0,-29 144,-29 144,-70"/>
<text text-anchor="start" x="8" y="-58" font-family="Helvetica,sans-Serif" font-size="10.00">anonymous_namespace</text>
<text text-anchor="start" x="8" y="-47" font-family="Helvetica,sans-Serif" font-size="10.00">{btbookmarksmodel.cpp}</text>
<text text-anchor="middle" x="72" y="-36" font-family="Helvetica,sans-Serif" font-size="10.00">::BookmarkItemBase</text>
</a>
</g>
</g>
<!-- Node1 -->
<g id="Node000001" class="node">
<title>Node1</title>
<g id="a_Node000001"><a xlink:href="d3/ddc/classanonymous__namespace_02btbookmarksmodel_8cpp_03_1_1BookmarkFolder.html" target="_top" xlink:title=" ">
<polygon fill="white" stroke="#666666" points="324,-100 180,-100 180,-59 324,-59 324,-100"/>
<text text-anchor="start" x="188" y="-88" font-family="Helvetica,sans-Serif" font-size="10.00">anonymous_namespace</text>
<text text-anchor="start" x="188" y="-77" font-family="Helvetica,sans-Serif" font-size="10.00">{btbookmarksmodel.cpp}</text>
<text text-anchor="middle" x="252" y="-66" font-family="Helvetica,sans-Serif" font-size="10.00">::BookmarkFolder</text>
</a>
</g>
</g>
<!-- Node0&#45;&gt;Node1 -->
<g id="edge1_Node000000_Node000001" class="edge">
<title>Node0&#45;&gt;Node1</title>
<g id="a_edge1_Node000000_Node000001"><a xlink:title=" ">
<path fill="none" stroke="#63b8ff" d="M154.17,-63.18C162.79,-64.63 171.51,-66.1 180,-67.53"/>
<polygon fill="#63b8ff" stroke="#63b8ff" points="154.56,-59.7 144.12,-61.49 153.4,-66.6 154.56,-59.7"/>
</a>
</g>
</g>
<!-- Node2 -->
<g id="Node000002" class="node">
<title>Node2</title>
<g id="a_Node000002"><a xlink:href="d9/d9c/classanonymous__namespace_02btbookmarksmodel_8cpp_03_1_1BookmarkItem.html" target="_top" xlink:title=" ">
<polygon fill="white" stroke="#666666" points="324,-41 180,-41 180,0 324,0 324,-41"/>
<text text-anchor="start" x="188" y="-29" font-family="Helvetica,sans-Serif" font-size="10.00">anonymous_namespace</text>
<text text-anchor="start" x="188" y="-18" font-family="Helvetica,sans-Serif" font-size="10.00">{btbookmarksmodel.cpp}</text>
<text text-anchor="middle" x="252" y="-7" font-family="Helvetica,sans-Serif" font-size="10.00">::BookmarkItem</text>
</a>
</g>
</g>
<!-- Node0&#45;&gt;Node2 -->
<g id="edge2_Node000000_Node000002" class="edge">
<title>Node0&#45;&gt;Node2</title>
<g id="a_edge2_Node000000_Node000002"><a xlink:title=" ">
<path fill="none" stroke="#63b8ff" d="M154.17,-36.28C162.79,-34.87 171.51,-33.45 180,-32.07"/>
<polygon fill="#63b8ff" stroke="#63b8ff" points="153.42,-32.85 144.12,-37.91 154.55,-39.76 153.42,-32.85"/>
</a>
</g>
</g>
</g>
</svg>
