<?xml version="1.0" encoding="UTF-8" standalone="no"?>
<!DOCTYPE svg PUBLIC "-//W3C//DTD SVG 1.1//EN"
 "http://www.w3.org/Graphics/SVG/1.1/DTD/svg11.dtd">
<!-- Generated by graphviz version 2.43.0 (0)
 -->
<!-- Title: Graphical Class Hierarchy Pages: 1 -->
<svg width="892pt" height="489pt"
 viewBox="0.00 0.00 892.00 489.00" xmlns="http://www.w3.org/2000/svg" xmlns:xlink="http://www.w3.org/1999/xlink">
<g id="graph0" class="graph" transform="scale(1 1) rotate(0) translate(4 485)">
<title>Graphical Class Hierarchy</title>
<polygon fill="white" stroke="transparent" points="-4,4 -4,-485 888,-485 888,4 -4,4"/>
<!-- Node114 -->
<g id="node1" class="node">
<title>Node114</title>
<g id="a_node1"><a xlink:href="d9/d5b/classQObject.html" target="_top" xlink:title=" ">
<polygon fill="white" stroke="black" points="239.5,-259.5 239.5,-278.5 295.5,-278.5 295.5,-259.5 239.5,-259.5"/>
<text text-anchor="middle" x="267.5" y="-266.5" font-family="Helvetica,sans-Serif" font-size="10.00">QObject</text>
</a>
</g>
</g>
<!-- Node115 -->
<g id="node2" class="node">
<title>Node115</title>
<g id="a_node2"><a xlink:href="d0/d28/classBtActionCollection.html" target="_top" xlink:title=" ">
<polygon fill="white" stroke="black" points="386.5,-404.5 386.5,-423.5 493.5,-423.5 493.5,-404.5 386.5,-404.5"/>
<text text-anchor="middle" x="440" y="-411.5" font-family="Helvetica,sans-Serif" font-size="10.00">BtActionCollection</text>
</a>
</g>
</g>
<!-- Node114&#45;&gt;Node115 -->
<g id="edge1" class="edge">
<title>Node114&#45;&gt;Node115</title>
<path fill="none" stroke="midnightblue" d="M281.01,-287.18C300.51,-314.24 340.64,-365.13 386,-395 391.71,-398.76 398.27,-401.89 404.77,-404.44"/>
<polygon fill="midnightblue" stroke="midnightblue" points="283.63,-284.82 275,-278.67 277.92,-288.86 283.63,-284.82"/>
</g>
<!-- Node116 -->
<g id="node3" class="node">
<title>Node116</title>
<g id="a_node3"><a xlink:href="d9/d1c/classBtActionCollection_1_1Item.html" target="_top" xlink:title=" ">
<polygon fill="white" stroke="black" points="386.5,-355 386.5,-385 493.5,-385 493.5,-355 386.5,-355"/>
<text text-anchor="start" x="394.5" y="-373" font-family="Helvetica,sans-Serif" font-size="10.00">BtActionCollection</text>
<text text-anchor="middle" x="440" y="-362" font-family="Helvetica,sans-Serif" font-size="10.00">::Item</text>
</a>
</g>
</g>
<!-- Node114&#45;&gt;Node116 -->
<g id="edge2" class="edge">
<title>Node114&#45;&gt;Node116</title>
<path fill="none" stroke="midnightblue" d="M290.67,-284.61C313.89,-300.66 351.7,-325.93 386,-345 392.14,-348.41 398.81,-351.8 405.3,-354.93"/>
<polygon fill="midnightblue" stroke="midnightblue" points="292.44,-281.58 282.24,-278.74 288.45,-287.33 292.44,-281.58"/>
</g>
<!-- Node117 -->
<g id="node4" class="node">
<title>Node117</title>
<g id="a_node4"><a xlink:href="d9/dae/classBTHistory.html" target="_top" xlink:title=" ">
<polygon fill="white" stroke="black" points="407.5,-316.5 407.5,-335.5 472.5,-335.5 472.5,-316.5 407.5,-316.5"/>
<text text-anchor="middle" x="440" y="-323.5" font-family="Helvetica,sans-Serif" font-size="10.00">BTHistory</text>
</a>
</g>
</g>
<!-- Node114&#45;&gt;Node117 -->
<g id="edge3" class="edge">
<title>Node114&#45;&gt;Node117</title>
<path fill="none" stroke="midnightblue" d="M305.24,-281.28C336.75,-291.82 381.51,-306.78 410.4,-316.44"/>
<polygon fill="midnightblue" stroke="midnightblue" points="306.11,-277.88 295.52,-278.03 303.89,-284.52 306.11,-277.88"/>
</g>
<!-- Node0 -->
<g id="node5" class="node">
<title>Node0</title>
<g id="a_node5"><a xlink:href="d8/d04/classBtInstallMgr.html" target="_top" xlink:title=" ">
<polygon fill="white" stroke="black" points="402,-442.5 402,-461.5 478,-461.5 478,-442.5 402,-442.5"/>
<text text-anchor="middle" x="440" y="-449.5" font-family="Helvetica,sans-Serif" font-size="10.00">BtInstallMgr</text>
</a>
</g>
</g>
<!-- Node114&#45;&gt;Node0 -->
<g id="edge4" class="edge">
<title>Node114&#45;&gt;Node0</title>
<path fill="none" stroke="midnightblue" d="M277.23,-287.92C293.76,-321.75 332.8,-392.84 386,-433 391.07,-436.83 396.98,-439.94 402.98,-442.45"/>
<polygon fill="midnightblue" stroke="midnightblue" points="280.29,-286.21 272.83,-278.69 273.97,-289.22 280.29,-286.21"/>
</g>
<!-- Node31 -->
<g id="node6" class="node">
<title>Node31</title>
<g id="a_node6"><a xlink:href="d5/d4a/classBtPrinter.html" target="_top" xlink:title="Manages the print item queue and printing.">
<polygon fill="white" stroke="black" points="410.5,-88.5 410.5,-107.5 469.5,-107.5 469.5,-88.5 410.5,-88.5"/>
<text text-anchor="middle" x="440" y="-95.5" font-family="Helvetica,sans-Serif" font-size="10.00">BtPrinter</text>
</a>
</g>
</g>
<!-- Node114&#45;&gt;Node31 -->
<g id="edge5" class="edge">
<title>Node114&#45;&gt;Node31</title>
<path fill="none" stroke="midnightblue" d="M278.32,-250.17C295.82,-218.34 335.36,-153.8 386,-117 393.2,-111.77 401.97,-107.86 410.3,-104.99"/>
<polygon fill="midnightblue" stroke="midnightblue" points="275.07,-248.81 273.42,-259.27 281.24,-252.12 275.07,-248.81"/>
</g>
<!-- Node118 -->
<g id="node7" class="node">
<title>Node118</title>
<g id="a_node7"><a xlink:href="d9/d89/classBtQmlInterface.html" target="_top" xlink:title=" ">
<polygon fill="white" stroke="black" points="394.5,-278.5 394.5,-297.5 485.5,-297.5 485.5,-278.5 394.5,-278.5"/>
<text text-anchor="middle" x="440" y="-285.5" font-family="Helvetica,sans-Serif" font-size="10.00">BtQmlInterface</text>
</a>
</g>
</g>
<!-- Node114&#45;&gt;Node118 -->
<g id="edge6" class="edge">
<title>Node114&#45;&gt;Node118</title>
<path fill="none" stroke="midnightblue" d="M305.73,-273.15C331.75,-276.05 366.63,-279.94 394.18,-283.01"/>
<polygon fill="midnightblue" stroke="midnightblue" points="305.84,-269.64 295.52,-272.01 305.07,-276.6 305.84,-269.64"/>
</g>
<!-- Node119 -->
<g id="node8" class="node">
<title>Node119</title>
<g id="a_node8"><a xlink:href="dc/d34/classBtSignal.html" target="_top" xlink:title=" ">
<polygon fill="white" stroke="black" points="411.5,-240.5 411.5,-259.5 468.5,-259.5 468.5,-240.5 411.5,-240.5"/>
<text text-anchor="middle" x="440" y="-247.5" font-family="Helvetica,sans-Serif" font-size="10.00">BtSignal</text>
</a>
</g>
</g>
<!-- Node114&#45;&gt;Node119 -->
<g id="edge7" class="edge">
<title>Node114&#45;&gt;Node119</title>
<path fill="none" stroke="midnightblue" d="M305.75,-264.85C337.54,-261.31 382.55,-256.29 411.26,-253.09"/>
<polygon fill="midnightblue" stroke="midnightblue" points="305.07,-261.4 295.52,-265.99 305.84,-268.36 305.07,-261.4"/>
</g>
<!-- Node120 -->
<g id="node9" class="node">
<title>Node120</title>
<g id="a_node9"><a xlink:href="db/d41/classBtUrlHandler.html" target="_top" xlink:title=" ">
<polygon fill="white" stroke="black" points="400,-202.5 400,-221.5 480,-221.5 480,-202.5 400,-202.5"/>
<text text-anchor="middle" x="440" y="-209.5" font-family="Helvetica,sans-Serif" font-size="10.00">BtUrlHandler</text>
</a>
</g>
</g>
<!-- Node114&#45;&gt;Node120 -->
<g id="edge8" class="edge">
<title>Node114&#45;&gt;Node120</title>
<path fill="none" stroke="midnightblue" d="M305.24,-256.72C336.75,-246.18 381.51,-231.22 410.4,-221.56"/>
<polygon fill="midnightblue" stroke="midnightblue" points="303.89,-253.48 295.52,-259.97 306.11,-260.12 303.89,-253.48"/>
</g>
<!-- Node121 -->
<g id="node10" class="node">
<title>Node121</title>
<g id="a_node10"><a xlink:href="d9/d73/classCSwordBackend.html" target="_top" xlink:title="The backend layer main class, a backend implementation of Sword.">
<polygon fill="white" stroke="black" points="392.5,-164.5 392.5,-183.5 487.5,-183.5 487.5,-164.5 392.5,-164.5"/>
<text text-anchor="middle" x="440" y="-171.5" font-family="Helvetica,sans-Serif" font-size="10.00">CSwordBackend</text>
</a>
</g>
</g>
<!-- Node114&#45;&gt;Node121 -->
<g id="edge9" class="edge">
<title>Node114&#45;&gt;Node121</title>
<path fill="none" stroke="midnightblue" d="M289.56,-253.24C312.42,-236.67 350.43,-210.59 386,-193 393.1,-189.49 401.01,-186.3 408.51,-183.58"/>
<polygon fill="midnightblue" stroke="midnightblue" points="287.3,-250.57 281.3,-259.3 291.44,-256.21 287.3,-250.57"/>
</g>
<!-- Node122 -->
<g id="node11" class="node">
<title>Node122</title>
<g id="a_node11"><a xlink:href="d7/d42/classCSwordModuleInfo.html" target="_top" xlink:title=" ">
<polygon fill="white" stroke="black" points="386,-126.5 386,-145.5 494,-145.5 494,-126.5 386,-126.5"/>
<text text-anchor="middle" x="440" y="-133.5" font-family="Helvetica,sans-Serif" font-size="10.00">CSwordModuleInfo</text>
</a>
</g>
</g>
<!-- Node114&#45;&gt;Node122 -->
<g id="edge10" class="edge">
<title>Node114&#45;&gt;Node122</title>
<path fill="none" stroke="midnightblue" d="M282.31,-251.53C302.62,-226.87 342.84,-181.89 386,-155 391.97,-151.28 398.78,-148.15 405.48,-145.57"/>
<polygon fill="midnightblue" stroke="midnightblue" points="279.56,-249.36 275.98,-259.34 285,-253.77 279.56,-249.36"/>
</g>
<!-- Node123 -->
<g id="node12" class="node">
<title>Node123</title>
<g id="a_node12"><a xlink:href="db/d50/classCSwordBibleModuleInfo.html" target="_top" xlink:title="Implementation for Sword Bibles.">
<polygon fill="white" stroke="black" points="536.5,-164.5 536.5,-183.5 669.5,-183.5 669.5,-164.5 536.5,-164.5"/>
<text text-anchor="middle" x="603" y="-171.5" font-family="Helvetica,sans-Serif" font-size="10.00">CSwordBibleModuleInfo</text>
</a>
</g>
</g>
<!-- Node122&#45;&gt;Node123 -->
<g id="edge11" class="edge">
<title>Node122&#45;&gt;Node123</title>
<path fill="none" stroke="midnightblue" d="M491.4,-147.9C514.03,-153.24 540.37,-159.45 561.67,-164.48"/>
<polygon fill="midnightblue" stroke="midnightblue" points="492.16,-144.48 481.63,-145.59 490.56,-151.29 492.16,-144.48"/>
</g>
<!-- Node125 -->
<g id="node14" class="node">
<title>Node125</title>
<g id="a_node14"><a xlink:href="db/d7a/classCSwordBookModuleInfo.html" target="_top" xlink:title="Class for generic book support.">
<polygon fill="white" stroke="black" points="536.5,-126.5 536.5,-145.5 669.5,-145.5 669.5,-126.5 536.5,-126.5"/>
<text text-anchor="middle" x="603" y="-133.5" font-family="Helvetica,sans-Serif" font-size="10.00">CSwordBookModuleInfo</text>
</a>
</g>
</g>
<!-- Node122&#45;&gt;Node125 -->
<g id="edge13" class="edge">
<title>Node122&#45;&gt;Node125</title>
<path fill="none" stroke="midnightblue" d="M504.45,-136C514.9,-136 525.75,-136 536.25,-136"/>
<polygon fill="midnightblue" stroke="midnightblue" points="504.16,-132.5 494.16,-136 504.16,-139.5 504.16,-132.5"/>
</g>
<!-- Node126 -->
<g id="node15" class="node">
<title>Node126</title>
<g id="a_node15"><a xlink:href="dd/d0a/classCSwordLexiconModuleInfo.html" target="_top" xlink:title=" ">
<polygon fill="white" stroke="black" points="530,-88.5 530,-107.5 676,-107.5 676,-88.5 530,-88.5"/>
<text text-anchor="middle" x="603" y="-95.5" font-family="Helvetica,sans-Serif" font-size="10.00">CSwordLexiconModuleInfo</text>
</a>
</g>
</g>
<!-- Node122&#45;&gt;Node126 -->
<g id="edge14" class="edge">
<title>Node122&#45;&gt;Node126</title>
<path fill="none" stroke="midnightblue" d="M491.4,-124.1C514.03,-118.76 540.37,-112.55 561.67,-107.52"/>
<polygon fill="midnightblue" stroke="midnightblue" points="490.56,-120.71 481.63,-126.41 492.16,-127.52 490.56,-120.71"/>
</g>
<!-- Node124 -->
<g id="node13" class="node">
<title>Node124</title>
<g id="a_node13"><a xlink:href="d0/d59/classCSwordCommentaryModuleInfo.html" target="_top" xlink:title="Commentary module implementation.">
<polygon fill="white" stroke="black" points="712,-164.5 712,-183.5 884,-183.5 884,-164.5 712,-164.5"/>
<text text-anchor="middle" x="798" y="-171.5" font-family="Helvetica,sans-Serif" font-size="10.00">CSwordCommentaryModuleInfo</text>
</a>
</g>
</g>
<!-- Node123&#45;&gt;Node124 -->
<g id="edge12" class="edge">
<title>Node123&#45;&gt;Node124</title>
<path fill="none" stroke="midnightblue" d="M679.92,-174C690.37,-174 701.15,-174 711.75,-174"/>
<polygon fill="midnightblue" stroke="midnightblue" points="679.61,-170.5 669.61,-174 679.61,-177.5 679.61,-170.5"/>
</g>
<!-- Node29 -->
<g id="node16" class="node">
<title>Node29</title>
<g id="a_node16"><a xlink:href="dd/dea/classRendering_1_1CTextRendering.html" target="_top" xlink:title="Text rendering based on trees.">
<polygon fill="white" stroke="black" points="0,-44.5 0,-63.5 149,-63.5 149,-44.5 0,-44.5"/>
<text text-anchor="middle" x="74.5" y="-51.5" font-family="Helvetica,sans-Serif" font-size="10.00">Rendering::CTextRendering</text>
</a>
</g>
</g>
<!-- Node30 -->
<g id="node17" class="node">
<title>Node30</title>
<g id="a_node17"><a xlink:href="d3/d32/classRendering_1_1CDisplayRendering.html" target="_top" xlink:title="Rendering for the html display widget.">
<polygon fill="white" stroke="black" points="185,-88.5 185,-107.5 350,-107.5 350,-88.5 185,-88.5"/>
<text text-anchor="middle" x="267.5" y="-95.5" font-family="Helvetica,sans-Serif" font-size="10.00">Rendering::CDisplayRendering</text>
</a>
</g>
</g>
<!-- Node29&#45;&gt;Node30 -->
<g id="edge15" class="edge">
<title>Node29&#45;&gt;Node30</title>
<path fill="none" stroke="midnightblue" d="M127.05,-65.88C157.82,-72.96 196.37,-81.84 225.14,-88.47"/>
<polygon fill="midnightblue" stroke="midnightblue" points="127.47,-62.38 116.94,-63.55 125.9,-69.2 127.47,-62.38"/>
</g>
<!-- Node32 -->
<g id="node18" class="node">
<title>Node32</title>
<g id="a_node18"><a xlink:href="db/d7d/classRendering_1_1CPlainTextExportRendering.html" target="_top" xlink:title="Text rendering as plain text.">
<polygon fill="white" stroke="black" points="190,-39 190,-69 345,-69 345,-39 190,-39"/>
<text text-anchor="start" x="198" y="-57" font-family="Helvetica,sans-Serif" font-size="10.00">Rendering::CPlainTextExport</text>
<text text-anchor="middle" x="267.5" y="-46" font-family="Helvetica,sans-Serif" font-size="10.00">Rendering</text>
</a>
</g>
</g>
<!-- Node29&#45;&gt;Node32 -->
<g id="edge17" class="edge">
<title>Node29&#45;&gt;Node32</title>
<path fill="none" stroke="midnightblue" d="M159.18,-54C169.36,-54 179.73,-54 189.8,-54"/>
<polygon fill="midnightblue" stroke="midnightblue" points="159.07,-50.5 149.07,-54 159.07,-57.5 159.07,-50.5"/>
</g>
<!-- Node33 -->
<g id="node19" class="node">
<title>Node33</title>
<g id="a_node19"><a xlink:href="d5/d70/classRendering_1_1CrossRefRendering.html" target="_top" xlink:title=" ">
<polygon fill="white" stroke="black" points="185,-0.5 185,-19.5 350,-19.5 350,-0.5 185,-0.5"/>
<text text-anchor="middle" x="267.5" y="-7.5" font-family="Helvetica,sans-Serif" font-size="10.00">Rendering::CrossRefRendering</text>
</a>
</g>
</g>
<!-- Node29&#45;&gt;Node33 -->
<g id="edge18" class="edge">
<title>Node29&#45;&gt;Node33</title>
<path fill="none" stroke="midnightblue" d="M127.05,-42.12C157.82,-35.04 196.37,-26.16 225.14,-19.53"/>
<polygon fill="midnightblue" stroke="midnightblue" points="125.9,-38.8 116.94,-44.45 127.47,-45.62 125.9,-38.8"/>
</g>
<!-- Node30&#45;&gt;Node31 -->
<g id="edge16" class="edge">
<title>Node30&#45;&gt;Node31</title>
<path fill="none" stroke="midnightblue" d="M360.35,-98C378.49,-98 396.22,-98 410.25,-98"/>
<polygon fill="midnightblue" stroke="midnightblue" points="360.25,-94.5 350.25,-98 360.25,-101.5 360.25,-94.5"/>
</g>
<!-- Node21 -->
<g id="node20" class="node">
<title>Node21</title>
<g id="a_node20"><a xlink:title=" ">
<polygon fill="white" stroke="#bfbfbf" points="235,-461.5 235,-480.5 300,-480.5 300,-461.5 235,-461.5"/>
<text text-anchor="middle" x="267.5" y="-468.5" font-family="Helvetica,sans-Serif" font-size="10.00">InstallMgr</text>
</a>
</g>
</g>
<!-- Node21&#45;&gt;Node0 -->
<g id="edge19" class="edge">
<title>Node21&#45;&gt;Node0</title>
<path fill="none" stroke="midnightblue" d="M310.45,-466.33C338.44,-463.21 374.92,-459.14 401.86,-456.14"/>
<polygon fill="midnightblue" stroke="midnightblue" points="309.72,-462.88 300.17,-467.47 310.5,-469.84 309.72,-462.88"/>
</g>
<!-- Node13 -->
<g id="node21" class="node">
<title>Node13</title>
<g id="a_node21"><a xlink:title=" ">
<polygon fill="white" stroke="#bfbfbf" points="223,-423.5 223,-442.5 312,-442.5 312,-423.5 223,-423.5"/>
<text text-anchor="middle" x="267.5" y="-430.5" font-family="Helvetica,sans-Serif" font-size="10.00">StatusReporter</text>
</a>
</g>
</g>
<!-- Node13&#45;&gt;Node0 -->
<g id="edge20" class="edge">
<title>Node13&#45;&gt;Node0</title>
<path fill="none" stroke="#8b1a1a" d="M322.45,-439.01C348.31,-441.89 378.64,-445.27 401.88,-447.86"/>
<polygon fill="#8b1a1a" stroke="#8b1a1a" points="322.73,-435.52 312.41,-437.89 321.96,-442.48 322.73,-435.52"/>
</g>
</g>
</svg>
