<?xml version="1.0" encoding="UTF-8" standalone="no"?>
<!DOCTYPE svg PUBLIC "-//W3C//DTD SVG 1.1//EN"
 "http://www.w3.org/Graphics/SVG/1.1/DTD/svg11.dtd">
<!-- Generated by graphviz version 2.43.0 (0)
 -->
<!-- Title: Graphical Class Hierarchy Pages: 1 -->
<svg width="310pt" height="83pt"
 viewBox="0.00 0.00 310.00 83.00" xmlns="http://www.w3.org/2000/svg" xmlns:xlink="http://www.w3.org/1999/xlink">
<g id="graph0" class="graph" transform="scale(1 1) rotate(0) translate(4 79)">
<title>Graphical Class Hierarchy</title>
<polygon fill="white" stroke="transparent" points="-4,4 -4,-79 306,-79 306,4 -4,4"/>
<!-- Node223 -->
<g id="node1" class="node">
<title>Node223</title>
<g id="a_node1"><a xlink:title=" ">
<polygon fill="white" stroke="#bfbfbf" points="0,-28 0,-47 84,-47 84,-28 0,-28"/>
<text text-anchor="middle" x="42" y="-35" font-family="Helvetica,sans-Serif" font-size="10.00">std::true_type</text>
</a>
</g>
</g>
<!-- Node0 -->
<g id="node2" class="node">
<title>Node0</title>
<g id="a_node2"><a xlink:href="dd/d18/structanonymous__namespace_02btinstallmgr_8cpp_03_1_1HasSetTimeoutMillis_3_01T_00_01std_1_1void_2d20d4a30719ff1755bc1def0b45f6e2.html" target="_top" xlink:title=" ">
<polygon fill="white" stroke="black" points="120,-0.5 120,-74.5 302,-74.5 302,-0.5 120,-0.5"/>
<text text-anchor="start" x="128" y="-62.5" font-family="Helvetica,sans-Serif" font-size="10.00">anonymous_namespace</text>
<text text-anchor="start" x="128" y="-51.5" font-family="Helvetica,sans-Serif" font-size="10.00">{btinstallmgr.cpp}::</text>
<text text-anchor="start" x="128" y="-40.5" font-family="Helvetica,sans-Serif" font-size="10.00">HasSetTimeoutMillis&lt;</text>
<text text-anchor="start" x="128" y="-29.5" font-family="Helvetica,sans-Serif" font-size="10.00"> T, std::void_t&lt; decltype</text>
<text text-anchor="start" x="128" y="-18.5" font-family="Helvetica,sans-Serif" font-size="10.00">(std::declval&lt; T &amp; &gt;().setTimeout</text>
<text text-anchor="middle" x="211" y="-7.5" font-family="Helvetica,sans-Serif" font-size="10.00">Millis(0))&gt; &gt;</text>
</a>
</g>
</g>
<!-- Node223&#45;&gt;Node0 -->
<g id="edge1" class="edge">
<title>Node223&#45;&gt;Node0</title>
<path fill="none" stroke="midnightblue" d="M94.32,-37.5C102.47,-37.5 111.1,-37.5 119.83,-37.5"/>
<polygon fill="midnightblue" stroke="midnightblue" points="94.28,-34 84.28,-37.5 94.28,-41 94.28,-34"/>
</g>
</g>
</svg>
