<?xml version="1.0" encoding="UTF-8" standalone="no"?>
<!DOCTYPE svg PUBLIC "-//W3C//DTD SVG 1.1//EN"
 "http://www.w3.org/Graphics/SVG/1.1/DTD/svg11.dtd">
<!-- Generated by graphviz version 2.43.0 (0)
 -->
<!-- Title: Graphical Class Hierarchy Pages: 1 -->
<svg width="433pt" height="64pt"
 viewBox="0.00 0.00 433.00 64.00" xmlns="http://www.w3.org/2000/svg" xmlns:xlink="http://www.w3.org/1999/xlink">
<g id="graph0" class="graph" transform="scale(1 1) rotate(0) translate(4 60)">
<title>Graphical Class Hierarchy</title>
<!-- Node0 -->
<g id="Node000000" class="node">
<title>Node0</title>
<g id="a_Node000000"><a xlink:href="d0/d5a/classQAbstractItemModel.html" target="_top" xlink:title=" ">
<polygon fill="white" stroke="#666666" points="117,-37 0,-37 0,-18 117,-18 117,-37"/>
<text text-anchor="middle" x="58.5" y="-25" font-family="Helvetica,sans-Serif" font-size="10.00">QAbstractItemModel</text>
</a>
</g>
</g>
<!-- Node1 -->
<g id="Node000001" class="node">
<title>Node1</title>
<g id="a_Node000001"><a xlink:href="d6/d86/classBtBookmarksModel.html" target="_top" xlink:title=" ">
<polygon fill="white" stroke="#666666" points="272.5,-56 159.5,-56 159.5,-37 272.5,-37 272.5,-56"/>
<text text-anchor="middle" x="216" y="-44" font-family="Helvetica,sans-Serif" font-size="10.00">BtBookmarksModel</text>
</a>
</g>
</g>
<!-- Node0&#45;&gt;Node1 -->
<g id="edge18_Node000000_Node000001" class="edge">
<title>Node0&#45;&gt;Node1</title>
<g id="a_edge18_Node000000_Node000001"><a xlink:title=" ">
<path fill="none" stroke="#63b8ff" d="M127.51,-35.81C138.15,-37.11 149.05,-38.44 159.37,-39.7"/>
<polygon fill="#63b8ff" stroke="#63b8ff" points="127.75,-32.31 117.4,-34.57 126.9,-39.26 127.75,-32.31"/>
</a>
</g>
</g>
<!-- Node2 -->
<g id="Node000002" class="node">
<title>Node2</title>
<g id="a_Node000002"><a xlink:href="de/d5f/classBtBookshelfTreeModel.html" target="_top" xlink:title=" ">
<polygon fill="white" stroke="#666666" points="279,-19 153,-19 153,0 279,0 279,-19"/>
<text text-anchor="middle" x="216" y="-7" font-family="Helvetica,sans-Serif" font-size="10.00">BtBookshelfTreeModel</text>
</a>
</g>
</g>
<!-- Node0&#45;&gt;Node2 -->
<g id="edge19_Node000000_Node000002" class="edge">
<title>Node0&#45;&gt;Node2</title>
<g id="a_edge19_Node000000_Node000002"><a xlink:title=" ">
<path fill="none" stroke="#63b8ff" d="M127.57,-19.62C135.98,-18.65 144.56,-17.65 152.88,-16.69"/>
<polygon fill="#63b8ff" stroke="#63b8ff" points="126.93,-16.17 117.4,-20.8 127.74,-23.12 126.93,-16.17"/>
</a>
</g>
</g>
<!-- Node3 -->
<g id="Node000003" class="node">
<title>Node3</title>
<g id="a_Node000003"><a xlink:href="dc/db1/classBtInstallPageModel.html" target="_top" xlink:title=" ">
<polygon fill="white" stroke="#666666" points="425,-19 315,-19 315,0 425,0 425,-19"/>
<text text-anchor="middle" x="370" y="-7" font-family="Helvetica,sans-Serif" font-size="10.00">BtInstallPageModel</text>
</a>
</g>
</g>
<!-- Node2&#45;&gt;Node3 -->
<g id="edge20_Node000002_Node000003" class="edge">
<title>Node2&#45;&gt;Node3</title>
<g id="a_edge20_Node000002_Node000003"><a xlink:title=" ">
<path fill="none" stroke="#63b8ff" d="M289.31,-9.5C297.91,-9.5 306.58,-9.5 314.86,-9.5"/>
<polygon fill="#63b8ff" stroke="#63b8ff" points="289.26,-6 279.26,-9.5 289.26,-13 289.26,-6"/>
</a>
</g>
</g>
</g>
</svg>
