<?xml version="1.0" encoding="UTF-8" standalone="no"?>
<!DOCTYPE svg PUBLIC "-//W3C//DTD SVG 1.1//EN"
 "http://www.w3.org/Graphics/SVG/1.1/DTD/svg11.dtd">
<!-- Generated by graphviz version 2.43.0 (0)
 -->
<!-- Title: Graphical Class Hierarchy Pages: 1 -->
<svg width="212pt" height="66pt"
 viewBox="0.00 0.00 212.00 66.00" xmlns="http://www.w3.org/2000/svg" xmlns:xlink="http://www.w3.org/1999/xlink">
<g id="graph0" class="graph" transform="scale(1 1) rotate(0) translate(4 62)">
<title>Graphical Class Hierarchy</title>
<polygon fill="white" stroke="transparent" points="-4,4 -4,-62 208,-62 208,4 -4,4"/>
<!-- Node0 -->
<g id="node1" class="node">
<title>Node0</title>
<g id="a_node1"><a xlink:href="dd/d93/classQWizard.html" target="_top" xlink:title=" ">
<polygon fill="white" stroke="black" points="0,-19.5 0,-38.5 58,-38.5 58,-19.5 0,-19.5"/>
<text text-anchor="middle" x="29" y="-26.5" font-family="Helvetica,sans-Serif" font-size="10.00">QWizard</text>
</a>
</g>
</g>
<!-- Node1 -->
<g id="node2" class="node">
<title>Node1</title>
<g id="a_node2"><a xlink:href="df/dc1/classBtBookshelfWizard.html" target="_top" xlink:title="The Bookshelf Manager wizard.">
<polygon fill="white" stroke="black" points="94,-38.5 94,-57.5 204,-57.5 204,-38.5 94,-38.5"/>
<text text-anchor="middle" x="149" y="-45.5" font-family="Helvetica,sans-Serif" font-size="10.00">BtBookshelfWizard</text>
</a>
</g>
</g>
<!-- Node0&#45;&gt;Node1 -->
<g id="edge1" class="edge">
<title>Node0&#45;&gt;Node1</title>
<path fill="none" stroke="midnightblue" d="M68.17,-35.15C76.29,-36.45 85.01,-37.86 93.61,-39.24"/>
<polygon fill="midnightblue" stroke="midnightblue" points="68.69,-31.69 58.26,-33.55 67.58,-38.6 68.69,-31.69"/>
</g>
<!-- Node2 -->
<g id="node3" class="node">
<title>Node2</title>
<g id="a_node3"><a xlink:href="db/d96/classBtEditTextWizard.html" target="_top" xlink:title="The Edit Text wizard for editing the personal commentary.">
<polygon fill="white" stroke="black" points="99,-0.5 99,-19.5 199,-19.5 199,-0.5 99,-0.5"/>
<text text-anchor="middle" x="149" y="-7.5" font-family="Helvetica,sans-Serif" font-size="10.00">BtEditTextWizard</text>
</a>
</g>
</g>
<!-- Node0&#45;&gt;Node2 -->
<g id="edge2" class="edge">
<title>Node0&#45;&gt;Node2</title>
<path fill="none" stroke="midnightblue" d="M68.39,-22.82C78.07,-21.26 88.61,-19.56 98.75,-17.93"/>
<polygon fill="midnightblue" stroke="midnightblue" points="67.58,-19.4 58.26,-24.45 68.69,-26.31 67.58,-19.4"/>
</g>
</g>
</svg>
