<?xml version="1.0" encoding="UTF-8" standalone="no"?>
<!DOCTYPE svg PUBLIC "-//W3C//DTD SVG 1.1//EN"
 "http://www.w3.org/Graphics/SVG/1.1/DTD/svg11.dtd">
<!-- Generated by graphviz version 2.43.0 (0)
 -->
<!-- Title: Graphical Class Hierarchy Pages: 1 -->
<svg width="440pt" height="636pt"
 viewBox="0.00 0.00 440.00 636.00" xmlns="http://www.w3.org/2000/svg" xmlns:xlink="http://www.w3.org/1999/xlink">
<g id="graph0" class="graph" transform="scale(1 1) rotate(0) translate(4 632)">
<title>Graphical Class Hierarchy</title>
<polygon fill="white" stroke="transparent" points="-4,4 -4,-632 436,-632 436,4 -4,4"/>
<!-- Node0 -->
<g id="node1" class="node">
<title>Node0</title>
<g id="a_node1"><a xlink:href="d8/ded/classQWidget.html" target="_top" xlink:title=" ">
<polygon fill="white" stroke="black" points="0,-304.5 0,-323.5 59,-323.5 59,-304.5 0,-304.5"/>
<text text-anchor="middle" x="29.5" y="-311.5" font-family="Helvetica,sans-Serif" font-size="10.00">QWidget</text>
</a>
</g>
</g>
<!-- Node1 -->
<g id="node2" class="node">
<title>Node1</title>
<g id="a_node2"><a xlink:href="d5/dfc/classBtAboutDialog_1_1LicenseTab.html" target="_top" xlink:title=" ">
<polygon fill="white" stroke="black" points="101.5,-608.5 101.5,-627.5 247.5,-627.5 247.5,-608.5 101.5,-608.5"/>
<text text-anchor="middle" x="174.5" y="-615.5" font-family="Helvetica,sans-Serif" font-size="10.00">BtAboutDialog::LicenseTab</text>
</a>
</g>
</g>
<!-- Node0&#45;&gt;Node1 -->
<g id="edge1" class="edge">
<title>Node0&#45;&gt;Node1</title>
<path fill="none" stroke="midnightblue" d="M32.3,-333.84C37.99,-392.09 57.45,-560.89 95,-599 98.74,-602.8 103.1,-605.88 107.81,-608.39"/>
<polygon fill="midnightblue" stroke="midnightblue" points="35.77,-333.36 31.35,-323.74 28.8,-334.02 35.77,-333.36"/>
</g>
<!-- Node2 -->
<g id="node3" class="node">
<title>Node2</title>
<g id="a_node3"><a xlink:href="dc/db1/classBtBibleKeyWidget.html" target="_top" xlink:title=" ">
<polygon fill="white" stroke="black" points="122.5,-570.5 122.5,-589.5 226.5,-589.5 226.5,-570.5 122.5,-570.5"/>
<text text-anchor="middle" x="174.5" y="-577.5" font-family="Helvetica,sans-Serif" font-size="10.00">BtBibleKeyWidget</text>
</a>
</g>
</g>
<!-- Node0&#45;&gt;Node2 -->
<g id="edge2" class="edge">
<title>Node0&#45;&gt;Node2</title>
<path fill="none" stroke="midnightblue" d="M33.01,-333.57C40.14,-386.16 62.15,-528.74 95,-561 102.4,-568.27 112.08,-572.93 122.11,-575.87"/>
<polygon fill="midnightblue" stroke="midnightblue" points="36.46,-332.98 31.68,-323.53 29.52,-333.9 36.46,-332.98"/>
</g>
<!-- Node3 -->
<g id="node4" class="node">
<title>Node3</title>
<g id="a_node4"><a xlink:href="d1/d9f/classBtBookshelfWidget.html" target="_top" xlink:title=" ">
<polygon fill="white" stroke="black" points="119.5,-532.5 119.5,-551.5 229.5,-551.5 229.5,-532.5 119.5,-532.5"/>
<text text-anchor="middle" x="174.5" y="-539.5" font-family="Helvetica,sans-Serif" font-size="10.00">BtBookshelfWidget</text>
</a>
</g>
</g>
<!-- Node0&#45;&gt;Node3 -->
<g id="edge3" class="edge">
<title>Node0&#45;&gt;Node3</title>
<path fill="none" stroke="midnightblue" d="M30.51,-333.75C31.64,-375.19 40.37,-471.65 95,-523 101.74,-529.34 110.23,-533.67 119.11,-536.61"/>
<polygon fill="midnightblue" stroke="midnightblue" points="34,-333.55 30.35,-323.6 27,-333.65 34,-333.55"/>
</g>
<!-- Node4 -->
<g id="node5" class="node">
<title>Node4</title>
<g id="a_node5"><a xlink:href="d4/d3c/classBtConfigDialog_1_1Page.html" target="_top" xlink:title=" ">
<polygon fill="white" stroke="black" points="115,-494.5 115,-513.5 234,-513.5 234,-494.5 115,-494.5"/>
<text text-anchor="middle" x="174.5" y="-501.5" font-family="Helvetica,sans-Serif" font-size="10.00">BtConfigDialog::Page</text>
</a>
</g>
</g>
<!-- Node0&#45;&gt;Node4 -->
<g id="edge4" class="edge">
<title>Node0&#45;&gt;Node4</title>
<path fill="none" stroke="midnightblue" d="M32.12,-334.05C36.12,-369.91 49.73,-444.99 95,-485 100.67,-490.01 107.45,-493.76 114.6,-496.55"/>
<polygon fill="midnightblue" stroke="midnightblue" points="35.58,-333.5 31.13,-323.88 28.61,-334.18 35.58,-333.5"/>
</g>
<!-- Node9 -->
<g id="node10" class="node">
<title>Node9</title>
<g id="a_node10"><a xlink:href="db/dd5/classBtFindWidget.html" target="_top" xlink:title=" ">
<polygon fill="white" stroke="black" points="133.5,-456.5 133.5,-475.5 215.5,-475.5 215.5,-456.5 133.5,-456.5"/>
<text text-anchor="middle" x="174.5" y="-463.5" font-family="Helvetica,sans-Serif" font-size="10.00">BtFindWidget</text>
</a>
</g>
</g>
<!-- Node0&#45;&gt;Node9 -->
<g id="edge9" class="edge">
<title>Node0&#45;&gt;Node9</title>
<path fill="none" stroke="midnightblue" d="M34.46,-333.68C41.42,-362.97 58.68,-417.73 95,-447 105.81,-455.71 120,-460.53 133.33,-463.16"/>
<polygon fill="midnightblue" stroke="midnightblue" points="37.86,-332.81 32.28,-323.8 31.02,-334.32 37.86,-332.81"/>
</g>
<!-- Node10 -->
<g id="node11" class="node">
<title>Node10</title>
<g id="a_node11"><a xlink:href="d5/d5b/classBtModelViewReadDisplay.html" target="_top" xlink:title=" ">
<polygon fill="white" stroke="black" points="103,-418.5 103,-437.5 246,-437.5 246,-418.5 103,-418.5"/>
<text text-anchor="middle" x="174.5" y="-425.5" font-family="Helvetica,sans-Serif" font-size="10.00">BtModelViewReadDisplay</text>
</a>
</g>
</g>
<!-- Node0&#45;&gt;Node10 -->
<g id="edge10" class="edge">
<title>Node0&#45;&gt;Node10</title>
<path fill="none" stroke="midnightblue" d="M38.15,-332.73C48.02,-354.47 67.27,-389.79 95,-409 100.65,-412.91 107.01,-416.02 113.6,-418.5"/>
<polygon fill="midnightblue" stroke="midnightblue" points="41.36,-331.33 34.18,-323.54 34.94,-334.11 41.36,-331.33"/>
</g>
<!-- Node11 -->
<g id="node12" class="node">
<title>Node11</title>
<g id="a_node12"><a xlink:href="d3/dd8/classBtShortcutsEditor.html" target="_top" xlink:title=" ">
<polygon fill="white" stroke="black" points="124,-380.5 124,-399.5 225,-399.5 225,-380.5 124,-380.5"/>
<text text-anchor="middle" x="174.5" y="-387.5" font-family="Helvetica,sans-Serif" font-size="10.00">BtShortcutsEditor</text>
</a>
</g>
</g>
<!-- Node0&#45;&gt;Node11 -->
<g id="edge11" class="edge">
<title>Node0&#45;&gt;Node11</title>
<path fill="none" stroke="midnightblue" d="M45.68,-331.37C57.8,-344.17 75.87,-361.03 95,-371 103.83,-375.6 113.8,-379.11 123.6,-381.78"/>
<polygon fill="midnightblue" stroke="midnightblue" points="47.96,-328.67 38.63,-323.66 42.79,-333.4 47.96,-328.67"/>
</g>
<!-- Node12 -->
<g id="node13" class="node">
<title>Node12</title>
<g id="a_node13"><a xlink:href="d7/d16/classBtStandardWorksTab.html" target="_top" xlink:title=" ">
<polygon fill="white" stroke="black" points="116,-342.5 116,-361.5 233,-361.5 233,-342.5 116,-342.5"/>
<text text-anchor="middle" x="174.5" y="-349.5" font-family="Helvetica,sans-Serif" font-size="10.00">BtStandardWorksTab</text>
</a>
</g>
</g>
<!-- Node0&#45;&gt;Node12 -->
<g id="edge12" class="edge">
<title>Node0&#45;&gt;Node12</title>
<path fill="none" stroke="midnightblue" d="M69.04,-325.69C77.57,-328.18 86.57,-330.74 95,-333 107.05,-336.23 120.21,-339.51 132.26,-342.42"/>
<polygon fill="midnightblue" stroke="midnightblue" points="69.89,-322.29 59.31,-322.82 67.91,-329 69.89,-322.29"/>
</g>
<!-- Node13 -->
<g id="node14" class="node">
<title>Node13</title>
<g id="a_node14"><a xlink:href="dd/dcb/classBtTextFiltersTab.html" target="_top" xlink:title=" ">
<polygon fill="white" stroke="black" points="127.5,-304.5 127.5,-323.5 221.5,-323.5 221.5,-304.5 127.5,-304.5"/>
<text text-anchor="middle" x="174.5" y="-311.5" font-family="Helvetica,sans-Serif" font-size="10.00">BtTextFiltersTab</text>
</a>
</g>
</g>
<!-- Node0&#45;&gt;Node13 -->
<g id="edge13" class="edge">
<title>Node0&#45;&gt;Node13</title>
<path fill="none" stroke="midnightblue" d="M69.18,-314C87.08,-314 108.48,-314 127.22,-314"/>
<polygon fill="midnightblue" stroke="midnightblue" points="69.09,-310.5 59.09,-314 69.09,-317.5 69.09,-310.5"/>
</g>
<!-- Node14 -->
<g id="node15" class="node">
<title>Node14</title>
<g id="a_node15"><a xlink:href="da/d70/classBtTextWindowHeader.html" target="_top" xlink:title=" ">
<polygon fill="white" stroke="black" points="113.5,-266.5 113.5,-285.5 235.5,-285.5 235.5,-266.5 113.5,-266.5"/>
<text text-anchor="middle" x="174.5" y="-273.5" font-family="Helvetica,sans-Serif" font-size="10.00">BtTextWindowHeader</text>
</a>
</g>
</g>
<!-- Node0&#45;&gt;Node14 -->
<g id="edge14" class="edge">
<title>Node0&#45;&gt;Node14</title>
<path fill="none" stroke="midnightblue" d="M69.04,-302.31C77.57,-299.82 86.57,-297.26 95,-295 107.05,-291.77 120.21,-288.49 132.26,-285.58"/>
<polygon fill="midnightblue" stroke="midnightblue" points="67.91,-299 59.31,-305.18 69.89,-305.71 67.91,-299"/>
</g>
<!-- Node15 -->
<g id="node16" class="node">
<title>Node15</title>
<g id="a_node16"><a xlink:href="d2/d16/classBtTextWindowHeaderWidget.html" target="_top" xlink:title=" ">
<polygon fill="white" stroke="black" points="96.5,-228.5 96.5,-247.5 252.5,-247.5 252.5,-228.5 96.5,-228.5"/>
<text text-anchor="middle" x="174.5" y="-235.5" font-family="Helvetica,sans-Serif" font-size="10.00">BtTextWindowHeaderWidget</text>
</a>
</g>
</g>
<!-- Node0&#45;&gt;Node15 -->
<g id="edge15" class="edge">
<title>Node0&#45;&gt;Node15</title>
<path fill="none" stroke="midnightblue" d="M45.68,-296.63C57.8,-283.83 75.87,-266.97 95,-257 102.46,-253.11 110.74,-250 119.03,-247.52"/>
<polygon fill="midnightblue" stroke="midnightblue" points="42.79,-294.6 38.63,-304.34 47.96,-299.33 42.79,-294.6"/>
</g>
<!-- Node16 -->
<g id="node17" class="node">
<title>Node16</title>
<g id="a_node17"><a xlink:href="df/d40/classCKeyChooser.html" target="_top" xlink:title=" ">
<polygon fill="white" stroke="black" points="134,-190.5 134,-209.5 215,-209.5 215,-190.5 134,-190.5"/>
<text text-anchor="middle" x="174.5" y="-197.5" font-family="Helvetica,sans-Serif" font-size="10.00">CKeyChooser</text>
</a>
</g>
</g>
<!-- Node0&#45;&gt;Node16 -->
<g id="edge16" class="edge">
<title>Node0&#45;&gt;Node16</title>
<path fill="none" stroke="midnightblue" d="M38.15,-295.27C48.02,-273.53 67.27,-238.21 95,-219 106.3,-211.17 120.45,-206.56 133.61,-203.84"/>
<polygon fill="midnightblue" stroke="midnightblue" points="34.94,-293.89 34.18,-304.46 41.36,-296.67 34.94,-293.89"/>
</g>
<!-- Node21 -->
<g id="node22" class="node">
<title>Node21</title>
<g id="a_node22"><a xlink:href="db/d7d/classCKeyChooserWidget.html" target="_top" xlink:title=" ">
<polygon fill="white" stroke="black" points="116.5,-152.5 116.5,-171.5 232.5,-171.5 232.5,-152.5 116.5,-152.5"/>
<text text-anchor="middle" x="174.5" y="-159.5" font-family="Helvetica,sans-Serif" font-size="10.00">CKeyChooserWidget</text>
</a>
</g>
</g>
<!-- Node0&#45;&gt;Node21 -->
<g id="edge21" class="edge">
<title>Node0&#45;&gt;Node21</title>
<path fill="none" stroke="midnightblue" d="M34.46,-294.32C41.42,-265.03 58.68,-210.27 95,-181 101.22,-175.98 108.57,-172.26 116.22,-169.5"/>
<polygon fill="midnightblue" stroke="midnightblue" points="31.02,-293.68 32.28,-304.2 37.86,-295.19 31.02,-293.68"/>
</g>
<!-- Node22 -->
<g id="node23" class="node">
<title>Node22</title>
<g id="a_node23"><a xlink:href="d1/d8a/classCScrollerWidgetSet.html" target="_top" xlink:title=" ">
<polygon fill="white" stroke="black" points="119.5,-114.5 119.5,-133.5 229.5,-133.5 229.5,-114.5 119.5,-114.5"/>
<text text-anchor="middle" x="174.5" y="-121.5" font-family="Helvetica,sans-Serif" font-size="10.00">CScrollerWidgetSet</text>
</a>
</g>
</g>
<!-- Node0&#45;&gt;Node22 -->
<g id="edge22" class="edge">
<title>Node0&#45;&gt;Node22</title>
<path fill="none" stroke="midnightblue" d="M32.12,-293.95C36.12,-258.09 49.73,-183.01 95,-143 101.93,-136.87 110.51,-132.64 119.42,-129.73"/>
<polygon fill="midnightblue" stroke="midnightblue" points="28.61,-293.82 31.13,-304.12 35.58,-294.5 28.61,-293.82"/>
</g>
<!-- Node23 -->
<g id="node24" class="node">
<title>Node23</title>
<g id="a_node24"><a xlink:href="d5/d28/classInfoDisplay_1_1CInfoDisplay.html" target="_top" xlink:title=" ">
<polygon fill="white" stroke="black" points="104.5,-76.5 104.5,-95.5 244.5,-95.5 244.5,-76.5 104.5,-76.5"/>
<text text-anchor="middle" x="174.5" y="-83.5" font-family="Helvetica,sans-Serif" font-size="10.00">InfoDisplay::CInfoDisplay</text>
</a>
</g>
</g>
<!-- Node0&#45;&gt;Node23 -->
<g id="edge23" class="edge">
<title>Node0&#45;&gt;Node23</title>
<path fill="none" stroke="midnightblue" d="M30.51,-294.25C31.64,-252.81 40.37,-156.35 95,-105 99.09,-101.16 103.81,-98.05 108.88,-95.55"/>
<polygon fill="midnightblue" stroke="midnightblue" points="27,-294.35 30.35,-304.4 34,-294.45 27,-294.35"/>
</g>
<!-- Node24 -->
<g id="node25" class="node">
<title>Node24</title>
<g id="a_node25"><a xlink:href="d9/d85/classSearch_1_1BtSearchOptionsArea.html" target="_top" xlink:title=" ">
<polygon fill="white" stroke="black" points="95,-38.5 95,-57.5 254,-57.5 254,-38.5 95,-38.5"/>
<text text-anchor="middle" x="174.5" y="-45.5" font-family="Helvetica,sans-Serif" font-size="10.00">Search::BtSearchOptionsArea</text>
</a>
</g>
</g>
<!-- Node0&#45;&gt;Node24 -->
<g id="edge24" class="edge">
<title>Node0&#45;&gt;Node24</title>
<path fill="none" stroke="midnightblue" d="M33.01,-294.43C40.14,-241.84 62.15,-99.26 95,-67 98.9,-63.17 103.44,-60.06 108.32,-57.55"/>
<polygon fill="midnightblue" stroke="midnightblue" points="29.52,-294.1 31.68,-304.47 36.46,-295.02 29.52,-294.1"/>
</g>
<!-- Node25 -->
<g id="node26" class="node">
<title>Node25</title>
<g id="a_node26"><a xlink:href="d4/d3d/classSearch_1_1BtSearchResultArea.html" target="_top" xlink:title=" ">
<polygon fill="white" stroke="black" points="98.5,-0.5 98.5,-19.5 250.5,-19.5 250.5,-0.5 98.5,-0.5"/>
<text text-anchor="middle" x="174.5" y="-7.5" font-family="Helvetica,sans-Serif" font-size="10.00">Search::BtSearchResultArea</text>
</a>
</g>
</g>
<!-- Node0&#45;&gt;Node25 -->
<g id="edge25" class="edge">
<title>Node0&#45;&gt;Node25</title>
<path fill="none" stroke="midnightblue" d="M32.3,-294.16C37.99,-235.91 57.45,-67.11 95,-29 98.74,-25.2 103.1,-22.12 107.81,-19.61"/>
<polygon fill="midnightblue" stroke="midnightblue" points="28.8,-293.98 31.35,-304.26 35.77,-294.64 28.8,-293.98"/>
</g>
<!-- Node5 -->
<g id="node6" class="node">
<title>Node5</title>
<g id="a_node6"><a xlink:href="d7/dc3/classBtFontSettingsPage.html" target="_top" xlink:title=" ">
<polygon fill="white" stroke="black" points="305.5,-551.5 305.5,-570.5 416.5,-570.5 416.5,-551.5 305.5,-551.5"/>
<text text-anchor="middle" x="361" y="-558.5" font-family="Helvetica,sans-Serif" font-size="10.00">BtFontSettingsPage</text>
</a>
</g>
</g>
<!-- Node4&#45;&gt;Node5 -->
<g id="edge5" class="edge">
<title>Node4&#45;&gt;Node5</title>
<path fill="none" stroke="midnightblue" d="M233.08,-516.19C240.21,-518.21 247.33,-520.48 254,-523 270.92,-529.4 273.17,-535.37 290,-542 299.14,-545.6 309.21,-548.77 318.79,-551.44"/>
<polygon fill="midnightblue" stroke="midnightblue" points="233.96,-512.8 223.4,-513.59 232.15,-519.56 233.96,-512.8"/>
</g>
<!-- Node6 -->
<g id="node7" class="node">
<title>Node6</title>
<g id="a_node7"><a xlink:href="d7/d1f/classCAcceleratorSettingsPage.html" target="_top" xlink:title="The shortcut settings page.">
<polygon fill="white" stroke="black" points="290,-513.5 290,-532.5 432,-532.5 432,-513.5 290,-513.5"/>
<text text-anchor="middle" x="361" y="-520.5" font-family="Helvetica,sans-Serif" font-size="10.00">CAcceleratorSettingsPage</text>
</a>
</g>
</g>
<!-- Node4&#45;&gt;Node6 -->
<g id="edge6" class="edge">
<title>Node4&#45;&gt;Node6</title>
<path fill="none" stroke="midnightblue" d="M244.28,-511.08C259.18,-512.62 274.95,-514.24 289.9,-515.78"/>
<polygon fill="midnightblue" stroke="midnightblue" points="244.44,-507.58 234.13,-510.04 243.72,-514.54 244.44,-507.58"/>
</g>
<!-- Node7 -->
<g id="node8" class="node">
<title>Node7</title>
<g id="a_node8"><a xlink:href="de/d34/classCDisplaySettingsPage.html" target="_top" xlink:title=" ">
<polygon fill="white" stroke="black" points="299.5,-475.5 299.5,-494.5 422.5,-494.5 422.5,-475.5 299.5,-475.5"/>
<text text-anchor="middle" x="361" y="-482.5" font-family="Helvetica,sans-Serif" font-size="10.00">CDisplaySettingsPage</text>
</a>
</g>
</g>
<!-- Node4&#45;&gt;Node7 -->
<g id="edge7" class="edge">
<title>Node4&#45;&gt;Node7</title>
<path fill="none" stroke="midnightblue" d="M244.3,-496.91C262.36,-495.06 281.7,-493.06 299.3,-491.25"/>
<polygon fill="midnightblue" stroke="midnightblue" points="243.72,-493.46 234.13,-497.96 244.44,-500.42 243.72,-493.46"/>
</g>
<!-- Node8 -->
<g id="node9" class="node">
<title>Node8</title>
<g id="a_node9"><a xlink:href="da/dab/classCSwordSettingsPage.html" target="_top" xlink:title=" ">
<polygon fill="white" stroke="black" points="303,-437.5 303,-456.5 419,-456.5 419,-437.5 303,-437.5"/>
<text text-anchor="middle" x="361" y="-444.5" font-family="Helvetica,sans-Serif" font-size="10.00">CSwordSettingsPage</text>
</a>
</g>
</g>
<!-- Node4&#45;&gt;Node8 -->
<g id="edge8" class="edge">
<title>Node4&#45;&gt;Node8</title>
<path fill="none" stroke="midnightblue" d="M233.08,-491.81C240.21,-489.79 247.33,-487.52 254,-485 270.92,-478.6 273.17,-472.63 290,-466 299.14,-462.4 309.21,-459.23 318.79,-456.56"/>
<polygon fill="midnightblue" stroke="midnightblue" points="232.15,-488.44 223.4,-494.41 233.96,-495.2 232.15,-488.44"/>
</g>
<!-- Node17 -->
<g id="node18" class="node">
<title>Node17</title>
<g id="a_node18"><a xlink:href="d8/d57/classCBibleKeyChooser.html" target="_top" xlink:title="A key chooser for bibles and commentaries.">
<polygon fill="white" stroke="black" points="308,-247.5 308,-266.5 414,-266.5 414,-247.5 308,-247.5"/>
<text text-anchor="middle" x="361" y="-254.5" font-family="Helvetica,sans-Serif" font-size="10.00">CBibleKeyChooser</text>
</a>
</g>
</g>
<!-- Node16&#45;&gt;Node17 -->
<g id="edge17" class="edge">
<title>Node16&#45;&gt;Node17</title>
<path fill="none" stroke="midnightblue" d="M225.16,-210.04C234.86,-212.55 244.85,-215.54 254,-219 270.92,-225.4 273.17,-231.37 290,-238 299.14,-241.6 309.21,-244.77 318.79,-247.44"/>
<polygon fill="midnightblue" stroke="midnightblue" points="225.76,-206.58 215.21,-207.6 224.08,-213.38 225.76,-206.58"/>
</g>
<!-- Node18 -->
<g id="node19" class="node">
<title>Node18</title>
<g id="a_node19"><a xlink:href="df/d01/classCBookKeyChooser.html" target="_top" xlink:title=" ">
<polygon fill="white" stroke="black" points="308,-209.5 308,-228.5 414,-228.5 414,-209.5 308,-209.5"/>
<text text-anchor="middle" x="361" y="-216.5" font-family="Helvetica,sans-Serif" font-size="10.00">CBookKeyChooser</text>
</a>
</g>
</g>
<!-- Node16&#45;&gt;Node18 -->
<g id="edge18" class="edge">
<title>Node16&#45;&gt;Node18</title>
<path fill="none" stroke="midnightblue" d="M225.3,-205.13C250.86,-207.76 281.98,-210.97 307.87,-213.63"/>
<polygon fill="midnightblue" stroke="midnightblue" points="225.39,-201.62 215.08,-204.08 224.67,-208.58 225.39,-201.62"/>
</g>
<!-- Node19 -->
<g id="node20" class="node">
<title>Node19</title>
<g id="a_node20"><a xlink:href="d1/dca/classCBookTreeChooser.html" target="_top" xlink:title=" ">
<polygon fill="white" stroke="black" points="307,-171.5 307,-190.5 415,-190.5 415,-171.5 307,-171.5"/>
<text text-anchor="middle" x="361" y="-178.5" font-family="Helvetica,sans-Serif" font-size="10.00">CBookTreeChooser</text>
</a>
</g>
</g>
<!-- Node16&#45;&gt;Node19 -->
<g id="edge19" class="edge">
<title>Node16&#45;&gt;Node19</title>
<path fill="none" stroke="midnightblue" d="M225.18,-194.88C250.42,-192.28 281.11,-189.12 306.83,-186.48"/>
<polygon fill="midnightblue" stroke="midnightblue" points="224.67,-191.42 215.08,-195.92 225.39,-198.38 224.67,-191.42"/>
</g>
<!-- Node20 -->
<g id="node21" class="node">
<title>Node20</title>
<g id="a_node21"><a xlink:href="d6/d9b/classCLexiconKeyChooser.html" target="_top" xlink:title=" ">
<polygon fill="white" stroke="black" points="301.5,-133.5 301.5,-152.5 420.5,-152.5 420.5,-133.5 301.5,-133.5"/>
<text text-anchor="middle" x="361" y="-140.5" font-family="Helvetica,sans-Serif" font-size="10.00">CLexiconKeyChooser</text>
</a>
</g>
</g>
<!-- Node16&#45;&gt;Node20 -->
<g id="edge20" class="edge">
<title>Node16&#45;&gt;Node20</title>
<path fill="none" stroke="midnightblue" d="M225.16,-189.96C234.86,-187.45 244.85,-184.46 254,-181 270.92,-174.6 273.17,-168.63 290,-162 299.14,-158.4 309.21,-155.23 318.79,-152.56"/>
<polygon fill="midnightblue" stroke="midnightblue" points="224.08,-186.62 215.21,-192.4 225.76,-193.42 224.08,-186.62"/>
</g>
</g>
</svg>
