<?xml version="1.0" encoding="UTF-8" standalone="no"?>
<!DOCTYPE svg PUBLIC "-//W3C//DTD SVG 1.1//EN"
 "http://www.w3.org/Graphics/SVG/1.1/DTD/svg11.dtd">
<!-- Generated by graphviz version 2.43.0 (0)
 -->
<!-- Title: Graphical Class Hierarchy Pages: 1 -->
<svg width="535pt" height="263pt"
 viewBox="0.00 0.00 535.00 263.00" xmlns="http://www.w3.org/2000/svg" xmlns:xlink="http://www.w3.org/1999/xlink">
<g id="graph0" class="graph" transform="scale(1 1) rotate(0) translate(4 259)">
<title>Graphical Class Hierarchy</title>
<polygon fill="white" stroke="transparent" points="-4,4 -4,-259 531,-259 531,4 -4,4"/>
<!-- Node0 -->
<g id="node1" class="node">
<title>Node0</title>
<g id="a_node1"><a xlink:href="d5/d1c/classBookshelfModel_1_1Item.html" target="_top" xlink:title=" ">
<polygon fill="white" stroke="black" points="0,-126 0,-145 124,-145 124,-126 0,-126"/>
<text text-anchor="middle" x="62" y="-133" font-family="Helvetica,sans-Serif" font-size="10.00">BookshelfModel::Item</text>
</a>
</g>
</g>
<!-- Node1 -->
<g id="node2" class="node">
<title>Node1</title>
<g id="a_node2"><a xlink:href="d1/dcc/classBookshelfModel_1_1GroupItem.html" target="_top" xlink:title=" ">
<polygon fill="white" stroke="black" points="163.5,-224.5 163.5,-254.5 316.5,-254.5 316.5,-224.5 163.5,-224.5"/>
<text text-anchor="start" x="171.5" y="-242.5" font-family="Helvetica,sans-Serif" font-size="10.00">BookshelfModel::GroupItem</text>
<text text-anchor="middle" x="240" y="-231.5" font-family="Helvetica,sans-Serif" font-size="10.00">&lt; TYPE &gt;</text>
</a>
</g>
</g>
<!-- Node0&#45;&gt;Node1 -->
<g id="edge1" class="edge">
<title>Node0&#45;&gt;Node1</title>
<path fill="none" stroke="midnightblue" d="M79.76,-152.53C98.03,-170.24 128.84,-197.68 160,-214.5 166.96,-218.26 174.58,-221.56 182.25,-224.42"/>
<polygon fill="midnightblue" stroke="midnightblue" points="81.86,-149.69 72.29,-145.16 76.94,-154.67 81.86,-149.69"/>
</g>
<!-- Node2 -->
<g id="node3" class="node">
<title>Node2</title>
<g id="a_node3"><a xlink:href="d0/de5/classBookshelfModel_1_1ModuleItem.html" target="_top" xlink:title=" ">
<polygon fill="white" stroke="black" points="160,-186 160,-205 320,-205 320,-186 160,-186"/>
<text text-anchor="middle" x="240" y="-193" font-family="Helvetica,sans-Serif" font-size="10.00">BookshelfModel::ModuleItem</text>
</a>
</g>
</g>
<!-- Node0&#45;&gt;Node2 -->
<g id="edge2" class="edge">
<title>Node0&#45;&gt;Node2</title>
<path fill="none" stroke="midnightblue" d="M92.37,-149.4C111.36,-158.02 136.78,-168.86 160,-176.5 170.72,-180.03 182.45,-183.21 193.52,-185.91"/>
<polygon fill="midnightblue" stroke="midnightblue" points="93.61,-146.12 83.07,-145.13 90.69,-152.48 93.61,-146.12"/>
</g>
<!-- Node3 -->
<g id="node4" class="node">
<title>Node3</title>
<g id="a_node4"><a xlink:href="d2/d07/classBookshelfModel_1_1RootItem.html" target="_top" xlink:title=" ">
<polygon fill="white" stroke="black" points="167,-148 167,-167 313,-167 313,-148 167,-148"/>
<text text-anchor="middle" x="240" y="-155" font-family="Helvetica,sans-Serif" font-size="10.00">BookshelfModel::RootItem</text>
</a>
</g>
</g>
<!-- Node0&#45;&gt;Node3 -->
<g id="edge3" class="edge">
<title>Node0&#45;&gt;Node3</title>
<path fill="none" stroke="midnightblue" d="M134.24,-144.4C144.99,-145.75 156.08,-147.14 166.85,-148.48"/>
<polygon fill="midnightblue" stroke="midnightblue" points="134.42,-140.9 124.06,-143.13 133.55,-147.85 134.42,-140.9"/>
</g>
<!-- Node4 -->
<g id="node5" class="node">
<title>Node4</title>
<g id="a_node5"><a xlink:href="d1/dcc/classBookshelfModel_1_1GroupItem.html" target="_top" xlink:title=" ">
<polygon fill="white" stroke="black" points="163.5,-98.5 163.5,-128.5 316.5,-128.5 316.5,-98.5 163.5,-98.5"/>
<text text-anchor="start" x="171.5" y="-116.5" font-family="Helvetica,sans-Serif" font-size="10.00">BookshelfModel::GroupItem</text>
<text text-anchor="middle" x="240" y="-105.5" font-family="Helvetica,sans-Serif" font-size="10.00">&lt; Item::ITEM_CATEGORY &gt;</text>
</a>
</g>
</g>
<!-- Node0&#45;&gt;Node4 -->
<g id="edge4" class="edge">
<title>Node0&#45;&gt;Node4</title>
<path fill="none" stroke="midnightblue" d="M134.04,-126.62C143.73,-125.41 153.7,-124.16 163.47,-122.94"/>
<polygon fill="midnightblue" stroke="midnightblue" points="133.55,-123.15 124.06,-127.87 134.42,-130.1 133.55,-123.15"/>
</g>
<!-- Node6 -->
<g id="node7" class="node">
<title>Node6</title>
<g id="a_node7"><a xlink:href="d1/dcc/classBookshelfModel_1_1GroupItem.html" target="_top" xlink:title=" ">
<polygon fill="white" stroke="black" points="163.5,-49.5 163.5,-79.5 316.5,-79.5 316.5,-49.5 163.5,-49.5"/>
<text text-anchor="start" x="171.5" y="-67.5" font-family="Helvetica,sans-Serif" font-size="10.00">BookshelfModel::GroupItem</text>
<text text-anchor="middle" x="240" y="-56.5" font-family="Helvetica,sans-Serif" font-size="10.00">&lt; Item::ITEM_INDEXING &gt;</text>
</a>
</g>
</g>
<!-- Node0&#45;&gt;Node6 -->
<g id="edge6" class="edge">
<title>Node0&#45;&gt;Node6</title>
<path fill="none" stroke="midnightblue" d="M90.33,-121.31C109.52,-111.65 135.96,-98.95 160,-89.5 168.84,-86.03 178.37,-82.68 187.65,-79.63"/>
<polygon fill="midnightblue" stroke="midnightblue" points="88.59,-118.27 81.26,-125.92 91.77,-124.51 88.59,-118.27"/>
</g>
<!-- Node8 -->
<g id="node9" class="node">
<title>Node8</title>
<g id="a_node9"><a xlink:href="d1/dcc/classBookshelfModel_1_1GroupItem.html" target="_top" xlink:title=" ">
<polygon fill="white" stroke="black" points="163.5,-0.5 163.5,-30.5 316.5,-30.5 316.5,-0.5 163.5,-0.5"/>
<text text-anchor="start" x="171.5" y="-18.5" font-family="Helvetica,sans-Serif" font-size="10.00">BookshelfModel::GroupItem</text>
<text text-anchor="middle" x="240" y="-7.5" font-family="Helvetica,sans-Serif" font-size="10.00">&lt; Item::ITEM_LANGUAGE &gt;</text>
</a>
</g>
</g>
<!-- Node0&#45;&gt;Node8 -->
<g id="edge8" class="edge">
<title>Node0&#45;&gt;Node8</title>
<path fill="none" stroke="midnightblue" d="M76.43,-118.04C93.63,-96.83 125.37,-61.3 160,-40.5 166.29,-36.72 173.21,-33.46 180.26,-30.65"/>
<polygon fill="midnightblue" stroke="midnightblue" points="73.66,-115.91 70.19,-125.92 79.14,-120.26 73.66,-115.91"/>
</g>
<!-- Node5 -->
<g id="node6" class="node">
<title>Node5</title>
<g id="a_node6"><a xlink:href="d8/d6d/classBookshelfModel_1_1CategoryItem.html" target="_top" xlink:title=" ">
<polygon fill="white" stroke="black" points="357.5,-104 357.5,-123 525.5,-123 525.5,-104 357.5,-104"/>
<text text-anchor="middle" x="441.5" y="-111" font-family="Helvetica,sans-Serif" font-size="10.00">BookshelfModel::CategoryItem</text>
</a>
</g>
</g>
<!-- Node4&#45;&gt;Node5 -->
<g id="edge5" class="edge">
<title>Node4&#45;&gt;Node5</title>
<path fill="none" stroke="midnightblue" d="M326.72,-113.5C336.82,-113.5 347.12,-113.5 357.18,-113.5"/>
<polygon fill="midnightblue" stroke="midnightblue" points="326.71,-110 316.71,-113.5 326.71,-117 326.71,-110"/>
</g>
<!-- Node7 -->
<g id="node8" class="node">
<title>Node7</title>
<g id="a_node8"><a xlink:href="d9/dea/classBookshelfModel_1_1IndexingItem.html" target="_top" xlink:title=" ">
<polygon fill="white" stroke="black" points="358.5,-55 358.5,-74 524.5,-74 524.5,-55 358.5,-55"/>
<text text-anchor="middle" x="441.5" y="-62" font-family="Helvetica,sans-Serif" font-size="10.00">BookshelfModel::IndexingItem</text>
</a>
</g>
</g>
<!-- Node6&#45;&gt;Node7 -->
<g id="edge7" class="edge">
<title>Node6&#45;&gt;Node7</title>
<path fill="none" stroke="midnightblue" d="M326.98,-64.5C337.33,-64.5 347.89,-64.5 358.19,-64.5"/>
<polygon fill="midnightblue" stroke="midnightblue" points="326.71,-61 316.71,-64.5 326.71,-68 326.71,-61"/>
</g>
<!-- Node9 -->
<g id="node10" class="node">
<title>Node9</title>
<g id="a_node10"><a xlink:href="db/da1/classBookshelfModel_1_1LanguageItem.html" target="_top" xlink:title=" ">
<polygon fill="white" stroke="black" points="356,-6 356,-25 527,-25 527,-6 356,-6"/>
<text text-anchor="middle" x="441.5" y="-13" font-family="Helvetica,sans-Serif" font-size="10.00">BookshelfModel::LanguageItem</text>
</a>
</g>
</g>
<!-- Node8&#45;&gt;Node9 -->
<g id="edge9" class="edge">
<title>Node8&#45;&gt;Node9</title>
<path fill="none" stroke="midnightblue" d="M327,-15.5C336.56,-15.5 346.29,-15.5 355.84,-15.5"/>
<polygon fill="midnightblue" stroke="midnightblue" points="326.71,-12 316.71,-15.5 326.71,-19 326.71,-12"/>
</g>
</g>
</svg>
