<?xml version="1.0" encoding="UTF-8" standalone="no"?>
<!DOCTYPE svg PUBLIC "-//W3C//DTD SVG 1.1//EN"
 "http://www.w3.org/Graphics/SVG/1.1/DTD/svg11.dtd">
<!-- Generated by graphviz version 2.43.0 (0)
 -->
<!-- Title: QAbstractItemModel Pages: 1 -->
<svg width="300pt" height="752pt"
 viewBox="0.00 0.00 299.50 752.00" xmlns="http://www.w3.org/2000/svg" xmlns:xlink="http://www.w3.org/1999/xlink">
<g id="graph0" class="graph" transform="scale(1 1) rotate(0) translate(4 748)">
<title>QAbstractItemModel</title>
<!-- Node1 -->
<g id="Node000001" class="node">
<title>Node1</title>
<g id="a_Node000001"><a xlink:title=" ">
<polygon fill="#999999" stroke="transparent" points="195,-744 84,-744 84,-695 195,-695 195,-744"/>
<text text-anchor="start" x="89.5" y="-731.5" font-family="Helvetica,sans-Serif" font-size="10.00">QAbstractItemModel</text>
<text text-anchor="start" x="138" y="-716.5" font-family="Helvetica,sans-Serif" font-size="10.00"> </text>
<text text-anchor="start" x="138" y="-701.5" font-family="Helvetica,sans-Serif" font-size="10.00"> </text>
<polygon fill="#666666" stroke="#666666" points="84.5,-726.5 84.5,-726.5 195.5,-726.5 195.5,-726.5 84.5,-726.5"/>
<polygon fill="#666666" stroke="#666666" points="84.5,-711.5 84.5,-711.5 195.5,-711.5 195.5,-711.5 84.5,-711.5"/>
<polygon fill="none" stroke="#666666" points="84,-695 84,-744 195,-744 195,-695 84,-695"/>
</a>
</g>
</g>
<!-- Node2 -->
<g id="Node000002" class="node">
<title>Node2</title>
<g id="a_Node000002"><a xlink:href="../../d6/d86/classBtBookmarksModel.html" target="_top" xlink:title=" ">
<polygon fill="white" stroke="transparent" points="125,-516.5 0,-516.5 0,-272.5 125,-272.5 125,-516.5"/>
<text text-anchor="start" x="14.5" y="-504.5" font-family="Helvetica,sans-Serif" font-size="10.00">BtBookmarksModel</text>
<text text-anchor="start" x="7" y="-489.5" font-family="Helvetica,sans-Serif" font-size="10.00">&#45;</text>
<text text-anchor="start" x="17.5" y="-489.5" font-family="Helvetica,sans-Serif" font-size="10.00">d_ptr</text>
<text text-anchor="start" x="4.5" y="-474.5" font-family="Helvetica,sans-Serif" font-size="10.00">+</text>
<text text-anchor="start" x="17.5" y="-474.5" font-family="Helvetica,sans-Serif" font-size="10.00">addBookmark()</text>
<text text-anchor="start" x="4.5" y="-459.5" font-family="Helvetica,sans-Serif" font-size="10.00">+</text>
<text text-anchor="start" x="17.5" y="-459.5" font-family="Helvetica,sans-Serif" font-size="10.00">addFolder()</text>
<text text-anchor="start" x="4.5" y="-444.5" font-family="Helvetica,sans-Serif" font-size="10.00">+</text>
<text text-anchor="start" x="17.5" y="-444.5" font-family="Helvetica,sans-Serif" font-size="10.00">BtBookmarksModel()</text>
<text text-anchor="start" x="4.5" y="-429.5" font-family="Helvetica,sans-Serif" font-size="10.00">+</text>
<text text-anchor="start" x="17.5" y="-429.5" font-family="Helvetica,sans-Serif" font-size="10.00">BtBookmarksModel()</text>
<text text-anchor="start" x="4.5" y="-414.5" font-family="Helvetica,sans-Serif" font-size="10.00">+</text>
<text text-anchor="start" x="17.5" y="-414.5" font-family="Helvetica,sans-Serif" font-size="10.00">columnCount()</text>
<text text-anchor="start" x="4.5" y="-399.5" font-family="Helvetica,sans-Serif" font-size="10.00">+</text>
<text text-anchor="start" x="17.5" y="-399.5" font-family="Helvetica,sans-Serif" font-size="10.00">copyItems()</text>
<text text-anchor="start" x="4.5" y="-384.5" font-family="Helvetica,sans-Serif" font-size="10.00">+</text>
<text text-anchor="start" x="17.5" y="-384.5" font-family="Helvetica,sans-Serif" font-size="10.00">data()</text>
<text text-anchor="start" x="4.5" y="-369.5" font-family="Helvetica,sans-Serif" font-size="10.00">+</text>
<text text-anchor="start" x="17.5" y="-369.5" font-family="Helvetica,sans-Serif" font-size="10.00">description()</text>
<text text-anchor="start" x="4.5" y="-354.5" font-family="Helvetica,sans-Serif" font-size="10.00">+</text>
<text text-anchor="start" x="17.5" y="-354.5" font-family="Helvetica,sans-Serif" font-size="10.00">flags()</text>
<text text-anchor="start" x="4.5" y="-339.5" font-family="Helvetica,sans-Serif" font-size="10.00">+</text>
<text text-anchor="start" x="17.5" y="-339.5" font-family="Helvetica,sans-Serif" font-size="10.00">hasChildren()</text>
<text text-anchor="start" x="17.5" y="-324.5" font-family="Helvetica,sans-Serif" font-size="10.00">and 16 more...</text>
<text text-anchor="start" x="4.5" y="-309.5" font-family="Helvetica,sans-Serif" font-size="10.00">+</text>
<text text-anchor="start" x="17.5" y="-309.5" font-family="Helvetica,sans-Serif" font-size="10.00">load()</text>
<text text-anchor="start" x="4.5" y="-294.5" font-family="Helvetica,sans-Serif" font-size="10.00">+</text>
<text text-anchor="start" x="17.5" y="-294.5" font-family="Helvetica,sans-Serif" font-size="10.00">save()</text>
<text text-anchor="start" x="7" y="-279.5" font-family="Helvetica,sans-Serif" font-size="10.00">&#45;</text>
<text text-anchor="start" x="17.5" y="-279.5" font-family="Helvetica,sans-Serif" font-size="10.00">slotSave()</text>
<polygon fill="#666666" stroke="#666666" points="0.5,-499.5 0.5,-499.5 125.5,-499.5 125.5,-499.5 0.5,-499.5"/>
<polygon fill="#666666" stroke="#666666" points="0.5,-484.5 0.5,-484.5 15.5,-484.5 15.5,-484.5 0.5,-484.5"/>
<polygon fill="#666666" stroke="#666666" points="15.5,-484.5 15.5,-484.5 125.5,-484.5 125.5,-484.5 15.5,-484.5"/>
<polygon fill="none" stroke="#666666" points="0,-272.5 0,-516.5 125,-516.5 125,-272.5 0,-272.5"/>
</a>
</g>
</g>
<!-- Node1&#45;&gt;Node2 -->
<g id="edge1_Node000001_Node000002" class="edge">
<title>Node1&#45;&gt;Node2</title>
<g id="a_edge1_Node000001_Node000002"><a xlink:title=" ">
<path fill="none" stroke="#63b8ff" d="M131.47,-684.82C122.01,-645.13 105.76,-576.97 91.41,-516.77"/>
<polygon fill="none" stroke="#63b8ff" points="128.11,-685.83 133.84,-694.75 134.92,-684.21 128.11,-685.83"/>
</a>
</g>
</g>
<!-- Node3 -->
<g id="Node000003" class="node">
<title>Node3</title>
<g id="a_Node000003"><a xlink:href="../../de/d5f/classBtBookshelfTreeModel.html" target="_top" xlink:title=" ">
<polygon fill="white" stroke="transparent" points="291.5,-659 143.5,-659 143.5,-130 291.5,-130 291.5,-659"/>
<text text-anchor="start" x="162.5" y="-646.5" font-family="Helvetica,sans-Serif" font-size="10.00">BtBookshelfTreeModel</text>
<text text-anchor="start" x="150" y="-631.5" font-family="Helvetica,sans-Serif" font-size="10.00">&#45;</text>
<text text-anchor="start" x="160.5" y="-631.5" font-family="Helvetica,sans-Serif" font-size="10.00">m_checkable</text>
<text text-anchor="start" x="150" y="-616.5" font-family="Helvetica,sans-Serif" font-size="10.00">&#45;</text>
<text text-anchor="start" x="160.5" y="-616.5" font-family="Helvetica,sans-Serif" font-size="10.00">m_checkedModulesCache</text>
<text text-anchor="start" x="150" y="-601.5" font-family="Helvetica,sans-Serif" font-size="10.00">&#45;</text>
<text text-anchor="start" x="160.5" y="-601.5" font-family="Helvetica,sans-Serif" font-size="10.00">m_defaultChecked</text>
<text text-anchor="start" x="150" y="-586.5" font-family="Helvetica,sans-Serif" font-size="10.00">&#45;</text>
<text text-anchor="start" x="160.5" y="-586.5" font-family="Helvetica,sans-Serif" font-size="10.00">m_groupingOrder</text>
<text text-anchor="start" x="150" y="-571.5" font-family="Helvetica,sans-Serif" font-size="10.00">&#45;</text>
<text text-anchor="start" x="160.5" y="-571.5" font-family="Helvetica,sans-Serif" font-size="10.00">m_modules</text>
<text text-anchor="start" x="150" y="-556.5" font-family="Helvetica,sans-Serif" font-size="10.00">&#45;</text>
<text text-anchor="start" x="160.5" y="-556.5" font-family="Helvetica,sans-Serif" font-size="10.00">m_rootItem</text>
<text text-anchor="start" x="150" y="-541.5" font-family="Helvetica,sans-Serif" font-size="10.00">&#45;</text>
<text text-anchor="start" x="160.5" y="-541.5" font-family="Helvetica,sans-Serif" font-size="10.00">m_sourceIndexMap</text>
<text text-anchor="start" x="150" y="-526.5" font-family="Helvetica,sans-Serif" font-size="10.00">&#45;</text>
<text text-anchor="start" x="160.5" y="-526.5" font-family="Helvetica,sans-Serif" font-size="10.00">m_sourceModel</text>
<text text-anchor="start" x="147.5" y="-511.5" font-family="Helvetica,sans-Serif" font-size="10.00">+</text>
<text text-anchor="start" x="160.5" y="-511.5" font-family="Helvetica,sans-Serif" font-size="10.00">BtBookshelfTreeModel()</text>
<text text-anchor="start" x="147.5" y="-496.5" font-family="Helvetica,sans-Serif" font-size="10.00">+</text>
<text text-anchor="start" x="160.5" y="-496.5" font-family="Helvetica,sans-Serif" font-size="10.00">BtBookshelfTreeModel()</text>
<text text-anchor="start" x="147.5" y="-481.5" font-family="Helvetica,sans-Serif" font-size="10.00">+</text>
<text text-anchor="start" x="160.5" y="-481.5" font-family="Helvetica,sans-Serif" font-size="10.00">BtBookshelfTreeModel()</text>
<text text-anchor="start" x="147.5" y="-466.5" font-family="Helvetica,sans-Serif" font-size="10.00">+</text>
<text text-anchor="start" x="160.5" y="-466.5" font-family="Helvetica,sans-Serif" font-size="10.00">checkable()</text>
<text text-anchor="start" x="147.5" y="-451.5" font-family="Helvetica,sans-Serif" font-size="10.00">+</text>
<text text-anchor="start" x="160.5" y="-451.5" font-family="Helvetica,sans-Serif" font-size="10.00">checkedModules()</text>
<text text-anchor="start" x="147.5" y="-436.5" font-family="Helvetica,sans-Serif" font-size="10.00">+</text>
<text text-anchor="start" x="160.5" y="-436.5" font-family="Helvetica,sans-Serif" font-size="10.00">columnCount()</text>
<text text-anchor="start" x="147.5" y="-421.5" font-family="Helvetica,sans-Serif" font-size="10.00">+</text>
<text text-anchor="start" x="160.5" y="-421.5" font-family="Helvetica,sans-Serif" font-size="10.00">data()</text>
<text text-anchor="start" x="147.5" y="-406.5" font-family="Helvetica,sans-Serif" font-size="10.00">+</text>
<text text-anchor="start" x="160.5" y="-406.5" font-family="Helvetica,sans-Serif" font-size="10.00">data()</text>
<text text-anchor="start" x="147.5" y="-391.5" font-family="Helvetica,sans-Serif" font-size="10.00">+</text>
<text text-anchor="start" x="160.5" y="-391.5" font-family="Helvetica,sans-Serif" font-size="10.00">defaultChecked()</text>
<text text-anchor="start" x="147.5" y="-376.5" font-family="Helvetica,sans-Serif" font-size="10.00">+</text>
<text text-anchor="start" x="160.5" y="-376.5" font-family="Helvetica,sans-Serif" font-size="10.00">flags()</text>
<text text-anchor="start" x="160.5" y="-361.5" font-family="Helvetica,sans-Serif" font-size="10.00">and 11 more...</text>
<text text-anchor="start" x="147.5" y="-346.5" font-family="Helvetica,sans-Serif" font-size="10.00">+</text>
<text text-anchor="start" x="160.5" y="-346.5" font-family="Helvetica,sans-Serif" font-size="10.00">setCheckable()</text>
<text text-anchor="start" x="147.5" y="-331.5" font-family="Helvetica,sans-Serif" font-size="10.00">+</text>
<text text-anchor="start" x="160.5" y="-331.5" font-family="Helvetica,sans-Serif" font-size="10.00">setCheckedModules()</text>
<text text-anchor="start" x="147.5" y="-316.5" font-family="Helvetica,sans-Serif" font-size="10.00">+</text>
<text text-anchor="start" x="160.5" y="-316.5" font-family="Helvetica,sans-Serif" font-size="10.00">setDefaultChecked()</text>
<text text-anchor="start" x="147.5" y="-301.5" font-family="Helvetica,sans-Serif" font-size="10.00">+</text>
<text text-anchor="start" x="160.5" y="-301.5" font-family="Helvetica,sans-Serif" font-size="10.00">setGroupingOrder()</text>
<text text-anchor="start" x="147.5" y="-286.5" font-family="Helvetica,sans-Serif" font-size="10.00">+</text>
<text text-anchor="start" x="160.5" y="-286.5" font-family="Helvetica,sans-Serif" font-size="10.00">setSourceModel()</text>
<text text-anchor="start" x="147.5" y="-271.5" font-family="Helvetica,sans-Serif" font-size="10.00">#</text>
<text text-anchor="start" x="160.5" y="-271.5" font-family="Helvetica,sans-Serif" font-size="10.00">resetData()</text>
<text text-anchor="start" x="147.5" y="-256.5" font-family="Helvetica,sans-Serif" font-size="10.00">#</text>
<text text-anchor="start" x="160.5" y="-256.5" font-family="Helvetica,sans-Serif" font-size="10.00">moduleDataChanged()</text>
<text text-anchor="start" x="147.5" y="-241.5" font-family="Helvetica,sans-Serif" font-size="10.00">#</text>
<text text-anchor="start" x="160.5" y="-241.5" font-family="Helvetica,sans-Serif" font-size="10.00">moduleInserted()</text>
<text text-anchor="start" x="147.5" y="-226.5" font-family="Helvetica,sans-Serif" font-size="10.00">#</text>
<text text-anchor="start" x="160.5" y="-226.5" font-family="Helvetica,sans-Serif" font-size="10.00">moduleRemoved()</text>
<text text-anchor="start" x="150" y="-211.5" font-family="Helvetica,sans-Serif" font-size="10.00">&#45;</text>
<text text-anchor="start" x="160.5" y="-211.5" font-family="Helvetica,sans-Serif" font-size="10.00">addModule()</text>
<text text-anchor="start" x="150" y="-196.5" font-family="Helvetica,sans-Serif" font-size="10.00">&#45;</text>
<text text-anchor="start" x="160.5" y="-196.5" font-family="Helvetica,sans-Serif" font-size="10.00">getGroup()</text>
<text text-anchor="start" x="150" y="-181.5" font-family="Helvetica,sans-Serif" font-size="10.00">&#45;</text>
<text text-anchor="start" x="160.5" y="-181.5" font-family="Helvetica,sans-Serif" font-size="10.00">getIndex()</text>
<text text-anchor="start" x="150" y="-166.5" font-family="Helvetica,sans-Serif" font-size="10.00">&#45;</text>
<text text-anchor="start" x="160.5" y="-166.5" font-family="Helvetica,sans-Serif" font-size="10.00">getItem()</text>
<text text-anchor="start" x="150" y="-151.5" font-family="Helvetica,sans-Serif" font-size="10.00">&#45;</text>
<text text-anchor="start" x="160.5" y="-151.5" font-family="Helvetica,sans-Serif" font-size="10.00">removeModule()</text>
<text text-anchor="start" x="150" y="-136.5" font-family="Helvetica,sans-Serif" font-size="10.00">&#45;</text>
<text text-anchor="start" x="160.5" y="-136.5" font-family="Helvetica,sans-Serif" font-size="10.00">resetParentCheckStates()</text>
<polygon fill="#666666" stroke="#666666" points="143.5,-641.5 143.5,-641.5 291.5,-641.5 291.5,-641.5 143.5,-641.5"/>
<polygon fill="#666666" stroke="#666666" points="143.5,-521.5 143.5,-521.5 158.5,-521.5 158.5,-521.5 143.5,-521.5"/>
<polygon fill="#666666" stroke="#666666" points="158.5,-521.5 158.5,-521.5 291.5,-521.5 291.5,-521.5 158.5,-521.5"/>
<polygon fill="none" stroke="#666666" points="143.5,-130 143.5,-659 291.5,-659 291.5,-130 143.5,-130"/>
</a>
</g>
</g>
<!-- Node1&#45;&gt;Node3 -->
<g id="edge2_Node000001_Node000003" class="edge">
<title>Node1&#45;&gt;Node3</title>
<g id="a_edge2_Node000001_Node000003"><a xlink:title=" ">
<path fill="none" stroke="#63b8ff" d="M147.65,-684.77C149.47,-677.2 151.55,-668.6 153.81,-659.22"/>
<polygon fill="none" stroke="#63b8ff" points="144.18,-684.21 145.24,-694.75 150.99,-685.85 144.18,-684.21"/>
</a>
</g>
</g>
<!-- Node4 -->
<g id="Node000004" class="node">
<title>Node4</title>
<g id="a_Node000004"><a xlink:href="../../dc/db1/classBtInstallPageModel.html" target="_top" xlink:title=" ">
<polygon fill="white" stroke="transparent" points="279,-94 156,-94 156,0 279,0 279,-94"/>
<text text-anchor="start" x="171" y="-82" font-family="Helvetica,sans-Serif" font-size="10.00">BtInstallPageModel</text>
<text text-anchor="start" x="216" y="-67" font-family="Helvetica,sans-Serif" font-size="10.00"> </text>
<text text-anchor="start" x="160.5" y="-52" font-family="Helvetica,sans-Serif" font-size="10.00">+</text>
<text text-anchor="start" x="173.5" y="-52" font-family="Helvetica,sans-Serif" font-size="10.00">BtInstallPageModel()</text>
<text text-anchor="start" x="160.5" y="-37" font-family="Helvetica,sans-Serif" font-size="10.00">+</text>
<text text-anchor="start" x="173.5" y="-37" font-family="Helvetica,sans-Serif" font-size="10.00">columnCount()</text>
<text text-anchor="start" x="160.5" y="-22" font-family="Helvetica,sans-Serif" font-size="10.00">+</text>
<text text-anchor="start" x="173.5" y="-22" font-family="Helvetica,sans-Serif" font-size="10.00">data()</text>
<text text-anchor="start" x="160.5" y="-7" font-family="Helvetica,sans-Serif" font-size="10.00">+</text>
<text text-anchor="start" x="173.5" y="-7" font-family="Helvetica,sans-Serif" font-size="10.00">headerData()</text>
<polygon fill="#666666" stroke="#666666" points="156.5,-77 156.5,-77 279.5,-77 279.5,-77 156.5,-77"/>
<polygon fill="#666666" stroke="#666666" points="156.5,-62 156.5,-62 279.5,-62 279.5,-62 156.5,-62"/>
<polygon fill="none" stroke="#666666" points="156,0 156,-94 279,-94 279,0 156,0"/>
</a>
</g>
</g>
<!-- Node3&#45;&gt;Node4 -->
<g id="edge3_Node000003_Node000004" class="edge">
<title>Node3&#45;&gt;Node4</title>
<g id="a_edge3_Node000003_Node000004"><a xlink:title=" ">
<path fill="none" stroke="#63b8ff" d="M217.5,-119.78C217.5,-110.68 217.5,-102.16 217.5,-94.38"/>
<polygon fill="none" stroke="#63b8ff" points="214,-119.88 217.5,-129.88 221,-119.88 214,-119.88"/>
</a>
</g>
</g>
</g>
</svg>
