<?xml version="1.0" encoding="UTF-8" standalone="no"?>
<!DOCTYPE svg PUBLIC "-//W3C//DTD SVG 1.1//EN"
 "http://www.w3.org/Graphics/SVG/1.1/DTD/svg11.dtd">
<!-- Generated by graphviz version 2.43.0 (0)
 -->
<!-- Title: QAbstractItemModel Pages: 1 -->
<svg width="300pt" height="767pt"
 viewBox="0.00 0.00 299.50 767.00" xmlns="http://www.w3.org/2000/svg" xmlns:xlink="http://www.w3.org/1999/xlink">
<g id="graph0" class="graph" transform="scale(1 1) rotate(0) translate(4 763)">
<title>QAbstractItemModel</title>
<!-- Node1 -->
<g id="Node000001" class="node">
<title>Node1</title>
<g id="a_Node000001"><a xlink:title=" ">
<polygon fill="#999999" stroke="transparent" points="195,-759 84,-759 84,-710 195,-710 195,-759"/>
<text text-anchor="start" x="89.5" y="-746.5" font-family="Helvetica,sans-Serif" font-size="10.00">QAbstractItemModel</text>
<text text-anchor="start" x="138" y="-731.5" font-family="Helvetica,sans-Serif" font-size="10.00"> </text>
<text text-anchor="start" x="138" y="-716.5" font-family="Helvetica,sans-Serif" font-size="10.00"> </text>
<polygon fill="#666666" stroke="#666666" points="84.5,-741.5 84.5,-741.5 195.5,-741.5 195.5,-741.5 84.5,-741.5"/>
<polygon fill="#666666" stroke="#666666" points="84.5,-726.5 84.5,-726.5 195.5,-726.5 195.5,-726.5 84.5,-726.5"/>
<polygon fill="none" stroke="#666666" points="84,-710 84,-759 195,-759 195,-710 84,-710"/>
</a>
</g>
</g>
<!-- Node2 -->
<g id="Node000002" class="node">
<title>Node2</title>
<g id="a_Node000002"><a xlink:href="../../d6/d86/classBtBookmarksModel.html" target="_top" xlink:title=" ">
<polygon fill="white" stroke="transparent" points="125,-524 0,-524 0,-280 125,-280 125,-524"/>
<text text-anchor="start" x="14.5" y="-512" font-family="Helvetica,sans-Serif" font-size="10.00">BtBookmarksModel</text>
<text text-anchor="start" x="7" y="-497" font-family="Helvetica,sans-Serif" font-size="10.00">&#45;</text>
<text text-anchor="start" x="17.5" y="-497" font-family="Helvetica,sans-Serif" font-size="10.00">d_ptr</text>
<text text-anchor="start" x="4.5" y="-482" font-family="Helvetica,sans-Serif" font-size="10.00">+</text>
<text text-anchor="start" x="17.5" y="-482" font-family="Helvetica,sans-Serif" font-size="10.00">addBookmark()</text>
<text text-anchor="start" x="4.5" y="-467" font-family="Helvetica,sans-Serif" font-size="10.00">+</text>
<text text-anchor="start" x="17.5" y="-467" font-family="Helvetica,sans-Serif" font-size="10.00">addFolder()</text>
<text text-anchor="start" x="4.5" y="-452" font-family="Helvetica,sans-Serif" font-size="10.00">+</text>
<text text-anchor="start" x="17.5" y="-452" font-family="Helvetica,sans-Serif" font-size="10.00">BtBookmarksModel()</text>
<text text-anchor="start" x="4.5" y="-437" font-family="Helvetica,sans-Serif" font-size="10.00">+</text>
<text text-anchor="start" x="17.5" y="-437" font-family="Helvetica,sans-Serif" font-size="10.00">BtBookmarksModel()</text>
<text text-anchor="start" x="4.5" y="-422" font-family="Helvetica,sans-Serif" font-size="10.00">+</text>
<text text-anchor="start" x="17.5" y="-422" font-family="Helvetica,sans-Serif" font-size="10.00">columnCount()</text>
<text text-anchor="start" x="4.5" y="-407" font-family="Helvetica,sans-Serif" font-size="10.00">+</text>
<text text-anchor="start" x="17.5" y="-407" font-family="Helvetica,sans-Serif" font-size="10.00">copyItems()</text>
<text text-anchor="start" x="4.5" y="-392" font-family="Helvetica,sans-Serif" font-size="10.00">+</text>
<text text-anchor="start" x="17.5" y="-392" font-family="Helvetica,sans-Serif" font-size="10.00">data()</text>
<text text-anchor="start" x="4.5" y="-377" font-family="Helvetica,sans-Serif" font-size="10.00">+</text>
<text text-anchor="start" x="17.5" y="-377" font-family="Helvetica,sans-Serif" font-size="10.00">description()</text>
<text text-anchor="start" x="4.5" y="-362" font-family="Helvetica,sans-Serif" font-size="10.00">+</text>
<text text-anchor="start" x="17.5" y="-362" font-family="Helvetica,sans-Serif" font-size="10.00">flags()</text>
<text text-anchor="start" x="4.5" y="-347" font-family="Helvetica,sans-Serif" font-size="10.00">+</text>
<text text-anchor="start" x="17.5" y="-347" font-family="Helvetica,sans-Serif" font-size="10.00">hasChildren()</text>
<text text-anchor="start" x="17.5" y="-332" font-family="Helvetica,sans-Serif" font-size="10.00">and 16 more...</text>
<text text-anchor="start" x="4.5" y="-317" font-family="Helvetica,sans-Serif" font-size="10.00">+</text>
<text text-anchor="start" x="17.5" y="-317" font-family="Helvetica,sans-Serif" font-size="10.00">load()</text>
<text text-anchor="start" x="4.5" y="-302" font-family="Helvetica,sans-Serif" font-size="10.00">+</text>
<text text-anchor="start" x="17.5" y="-302" font-family="Helvetica,sans-Serif" font-size="10.00">save()</text>
<text text-anchor="start" x="7" y="-287" font-family="Helvetica,sans-Serif" font-size="10.00">&#45;</text>
<text text-anchor="start" x="17.5" y="-287" font-family="Helvetica,sans-Serif" font-size="10.00">slotSave()</text>
<polygon fill="#666666" stroke="#666666" points="0.5,-507 0.5,-507 125.5,-507 125.5,-507 0.5,-507"/>
<polygon fill="#666666" stroke="#666666" points="0.5,-492 0.5,-492 15.5,-492 15.5,-492 0.5,-492"/>
<polygon fill="#666666" stroke="#666666" points="15.5,-492 15.5,-492 125.5,-492 125.5,-492 15.5,-492"/>
<polygon fill="none" stroke="#666666" points="0,-280 0,-524 125,-524 125,-280 0,-280"/>
</a>
</g>
</g>
<!-- Node1&#45;&gt;Node2 -->
<g id="edge1_Node000001_Node000002" class="edge">
<title>Node1&#45;&gt;Node2</title>
<g id="a_edge1_Node000001_Node000002"><a xlink:title=" ">
<path fill="none" stroke="#63b8ff" d="M131.69,-700C122.12,-658.92 105.37,-587.02 90.75,-524.25"/>
<polygon fill="none" stroke="#63b8ff" points="128.35,-701.05 134.02,-710 135.16,-699.46 128.35,-701.05"/>
</a>
</g>
</g>
<!-- Node3 -->
<g id="Node000003" class="node">
<title>Node3</title>
<g id="a_Node000003"><a xlink:href="../../de/d5f/classBtBookshelfTreeModel.html" target="_top" xlink:title=" ">
<polygon fill="white" stroke="transparent" points="291.5,-674 143.5,-674 143.5,-130 291.5,-130 291.5,-674"/>
<text text-anchor="start" x="162.5" y="-662" font-family="Helvetica,sans-Serif" font-size="10.00">BtBookshelfTreeModel</text>
<text text-anchor="start" x="150" y="-647" font-family="Helvetica,sans-Serif" font-size="10.00">&#45;</text>
<text text-anchor="start" x="160.5" y="-647" font-family="Helvetica,sans-Serif" font-size="10.00">m_checkable</text>
<text text-anchor="start" x="150" y="-632" font-family="Helvetica,sans-Serif" font-size="10.00">&#45;</text>
<text text-anchor="start" x="160.5" y="-632" font-family="Helvetica,sans-Serif" font-size="10.00">m_checkedModulesCache</text>
<text text-anchor="start" x="150" y="-617" font-family="Helvetica,sans-Serif" font-size="10.00">&#45;</text>
<text text-anchor="start" x="160.5" y="-617" font-family="Helvetica,sans-Serif" font-size="10.00">m_defaultChecked</text>
<text text-anchor="start" x="150" y="-602" font-family="Helvetica,sans-Serif" font-size="10.00">&#45;</text>
<text text-anchor="start" x="160.5" y="-602" font-family="Helvetica,sans-Serif" font-size="10.00">m_groupingOrder</text>
<text text-anchor="start" x="150" y="-587" font-family="Helvetica,sans-Serif" font-size="10.00">&#45;</text>
<text text-anchor="start" x="160.5" y="-587" font-family="Helvetica,sans-Serif" font-size="10.00">m_modules</text>
<text text-anchor="start" x="150" y="-572" font-family="Helvetica,sans-Serif" font-size="10.00">&#45;</text>
<text text-anchor="start" x="160.5" y="-572" font-family="Helvetica,sans-Serif" font-size="10.00">m_rootItem</text>
<text text-anchor="start" x="150" y="-557" font-family="Helvetica,sans-Serif" font-size="10.00">&#45;</text>
<text text-anchor="start" x="160.5" y="-557" font-family="Helvetica,sans-Serif" font-size="10.00">m_sourceIndexMap</text>
<text text-anchor="start" x="150" y="-542" font-family="Helvetica,sans-Serif" font-size="10.00">&#45;</text>
<text text-anchor="start" x="160.5" y="-542" font-family="Helvetica,sans-Serif" font-size="10.00">m_sourceModel</text>
<text text-anchor="start" x="147.5" y="-527" font-family="Helvetica,sans-Serif" font-size="10.00">+</text>
<text text-anchor="start" x="160.5" y="-527" font-family="Helvetica,sans-Serif" font-size="10.00">BtBookshelfTreeModel()</text>
<text text-anchor="start" x="147.5" y="-512" font-family="Helvetica,sans-Serif" font-size="10.00">+</text>
<text text-anchor="start" x="160.5" y="-512" font-family="Helvetica,sans-Serif" font-size="10.00">BtBookshelfTreeModel()</text>
<text text-anchor="start" x="147.5" y="-497" font-family="Helvetica,sans-Serif" font-size="10.00">+</text>
<text text-anchor="start" x="160.5" y="-497" font-family="Helvetica,sans-Serif" font-size="10.00">BtBookshelfTreeModel()</text>
<text text-anchor="start" x="147.5" y="-482" font-family="Helvetica,sans-Serif" font-size="10.00">+</text>
<text text-anchor="start" x="160.5" y="-482" font-family="Helvetica,sans-Serif" font-size="10.00">checkable()</text>
<text text-anchor="start" x="147.5" y="-467" font-family="Helvetica,sans-Serif" font-size="10.00">+</text>
<text text-anchor="start" x="160.5" y="-467" font-family="Helvetica,sans-Serif" font-size="10.00">checkedModules()</text>
<text text-anchor="start" x="147.5" y="-452" font-family="Helvetica,sans-Serif" font-size="10.00">+</text>
<text text-anchor="start" x="160.5" y="-452" font-family="Helvetica,sans-Serif" font-size="10.00">columnCount()</text>
<text text-anchor="start" x="147.5" y="-437" font-family="Helvetica,sans-Serif" font-size="10.00">+</text>
<text text-anchor="start" x="160.5" y="-437" font-family="Helvetica,sans-Serif" font-size="10.00">data()</text>
<text text-anchor="start" x="147.5" y="-422" font-family="Helvetica,sans-Serif" font-size="10.00">+</text>
<text text-anchor="start" x="160.5" y="-422" font-family="Helvetica,sans-Serif" font-size="10.00">data()</text>
<text text-anchor="start" x="147.5" y="-407" font-family="Helvetica,sans-Serif" font-size="10.00">+</text>
<text text-anchor="start" x="160.5" y="-407" font-family="Helvetica,sans-Serif" font-size="10.00">defaultChecked()</text>
<text text-anchor="start" x="147.5" y="-392" font-family="Helvetica,sans-Serif" font-size="10.00">+</text>
<text text-anchor="start" x="160.5" y="-392" font-family="Helvetica,sans-Serif" font-size="10.00">flags()</text>
<text text-anchor="start" x="160.5" y="-377" font-family="Helvetica,sans-Serif" font-size="10.00">and 11 more...</text>
<text text-anchor="start" x="147.5" y="-362" font-family="Helvetica,sans-Serif" font-size="10.00">+</text>
<text text-anchor="start" x="160.5" y="-362" font-family="Helvetica,sans-Serif" font-size="10.00">setCheckable()</text>
<text text-anchor="start" x="147.5" y="-347" font-family="Helvetica,sans-Serif" font-size="10.00">+</text>
<text text-anchor="start" x="160.5" y="-347" font-family="Helvetica,sans-Serif" font-size="10.00">setCheckedModules()</text>
<text text-anchor="start" x="147.5" y="-332" font-family="Helvetica,sans-Serif" font-size="10.00">+</text>
<text text-anchor="start" x="160.5" y="-332" font-family="Helvetica,sans-Serif" font-size="10.00">setDefaultChecked()</text>
<text text-anchor="start" x="147.5" y="-317" font-family="Helvetica,sans-Serif" font-size="10.00">+</text>
<text text-anchor="start" x="160.5" y="-317" font-family="Helvetica,sans-Serif" font-size="10.00">setGroupingOrder()</text>
<text text-anchor="start" x="147.5" y="-302" font-family="Helvetica,sans-Serif" font-size="10.00">+</text>
<text text-anchor="start" x="160.5" y="-302" font-family="Helvetica,sans-Serif" font-size="10.00">setSourceModel()</text>
<text text-anchor="start" x="147.5" y="-287" font-family="Helvetica,sans-Serif" font-size="10.00">#</text>
<text text-anchor="start" x="160.5" y="-287" font-family="Helvetica,sans-Serif" font-size="10.00">resetData()</text>
<text text-anchor="start" x="147.5" y="-272" font-family="Helvetica,sans-Serif" font-size="10.00">#</text>
<text text-anchor="start" x="160.5" y="-272" font-family="Helvetica,sans-Serif" font-size="10.00">moduleDataChanged()</text>
<text text-anchor="start" x="147.5" y="-257" font-family="Helvetica,sans-Serif" font-size="10.00">#</text>
<text text-anchor="start" x="160.5" y="-257" font-family="Helvetica,sans-Serif" font-size="10.00">moduleInserted()</text>
<text text-anchor="start" x="147.5" y="-242" font-family="Helvetica,sans-Serif" font-size="10.00">#</text>
<text text-anchor="start" x="160.5" y="-242" font-family="Helvetica,sans-Serif" font-size="10.00">moduleRemoved()</text>
<text text-anchor="start" x="150" y="-227" font-family="Helvetica,sans-Serif" font-size="10.00">&#45;</text>
<text text-anchor="start" x="160.5" y="-227" font-family="Helvetica,sans-Serif" font-size="10.00">addModule()</text>
<text text-anchor="start" x="150" y="-212" font-family="Helvetica,sans-Serif" font-size="10.00">&#45;</text>
<text text-anchor="start" x="160.5" y="-212" font-family="Helvetica,sans-Serif" font-size="10.00">addModule()</text>
<text text-anchor="start" x="150" y="-197" font-family="Helvetica,sans-Serif" font-size="10.00">&#45;</text>
<text text-anchor="start" x="160.5" y="-197" font-family="Helvetica,sans-Serif" font-size="10.00">getGroup()</text>
<text text-anchor="start" x="150" y="-182" font-family="Helvetica,sans-Serif" font-size="10.00">&#45;</text>
<text text-anchor="start" x="160.5" y="-182" font-family="Helvetica,sans-Serif" font-size="10.00">getIndex()</text>
<text text-anchor="start" x="150" y="-167" font-family="Helvetica,sans-Serif" font-size="10.00">&#45;</text>
<text text-anchor="start" x="160.5" y="-167" font-family="Helvetica,sans-Serif" font-size="10.00">getItem()</text>
<text text-anchor="start" x="150" y="-152" font-family="Helvetica,sans-Serif" font-size="10.00">&#45;</text>
<text text-anchor="start" x="160.5" y="-152" font-family="Helvetica,sans-Serif" font-size="10.00">removeModule()</text>
<text text-anchor="start" x="150" y="-137" font-family="Helvetica,sans-Serif" font-size="10.00">&#45;</text>
<text text-anchor="start" x="160.5" y="-137" font-family="Helvetica,sans-Serif" font-size="10.00">resetParentCheckStates()</text>
<polygon fill="#666666" stroke="#666666" points="143.5,-657 143.5,-657 291.5,-657 291.5,-657 143.5,-657"/>
<polygon fill="#666666" stroke="#666666" points="143.5,-537 143.5,-537 158.5,-537 158.5,-537 143.5,-537"/>
<polygon fill="#666666" stroke="#666666" points="158.5,-537 158.5,-537 291.5,-537 291.5,-537 158.5,-537"/>
<polygon fill="none" stroke="#666666" points="143.5,-130 143.5,-674 291.5,-674 291.5,-130 143.5,-130"/>
</a>
</g>
</g>
<!-- Node1&#45;&gt;Node3 -->
<g id="edge2_Node000001_Node000003" class="edge">
<title>Node1&#45;&gt;Node3</title>
<g id="a_edge2_Node000001_Node000003"><a xlink:title=" ">
<path fill="none" stroke="#63b8ff" d="M147.35,-700.22C149.17,-692.53 151.24,-683.76 153.5,-674.17"/>
<polygon fill="none" stroke="#63b8ff" points="143.94,-699.46 145.05,-710 150.75,-701.07 143.94,-699.46"/>
</a>
</g>
</g>
<!-- Node4 -->
<g id="Node000004" class="node">
<title>Node4</title>
<g id="a_Node000004"><a xlink:href="../../dc/db1/classBtInstallPageModel.html" target="_top" xlink:title=" ">
<polygon fill="white" stroke="transparent" points="279,-94 156,-94 156,0 279,0 279,-94"/>
<text text-anchor="start" x="171" y="-82" font-family="Helvetica,sans-Serif" font-size="10.00">BtInstallPageModel</text>
<text text-anchor="start" x="216" y="-67" font-family="Helvetica,sans-Serif" font-size="10.00"> </text>
<text text-anchor="start" x="160.5" y="-52" font-family="Helvetica,sans-Serif" font-size="10.00">+</text>
<text text-anchor="start" x="173.5" y="-52" font-family="Helvetica,sans-Serif" font-size="10.00">BtInstallPageModel()</text>
<text text-anchor="start" x="160.5" y="-37" font-family="Helvetica,sans-Serif" font-size="10.00">+</text>
<text text-anchor="start" x="173.5" y="-37" font-family="Helvetica,sans-Serif" font-size="10.00">columnCount()</text>
<text text-anchor="start" x="160.5" y="-22" font-family="Helvetica,sans-Serif" font-size="10.00">+</text>
<text text-anchor="start" x="173.5" y="-22" font-family="Helvetica,sans-Serif" font-size="10.00">data()</text>
<text text-anchor="start" x="160.5" y="-7" font-family="Helvetica,sans-Serif" font-size="10.00">+</text>
<text text-anchor="start" x="173.5" y="-7" font-family="Helvetica,sans-Serif" font-size="10.00">headerData()</text>
<polygon fill="#666666" stroke="#666666" points="156.5,-77 156.5,-77 279.5,-77 279.5,-77 156.5,-77"/>
<polygon fill="#666666" stroke="#666666" points="156.5,-62 156.5,-62 279.5,-62 279.5,-62 156.5,-62"/>
<polygon fill="none" stroke="#666666" points="156,0 156,-94 279,-94 279,0 156,0"/>
</a>
</g>
</g>
<!-- Node3&#45;&gt;Node4 -->
<g id="edge3_Node000003_Node000004" class="edge">
<title>Node3&#45;&gt;Node4</title>
<g id="a_edge3_Node000003_Node000004"><a xlink:title=" ">
<path fill="none" stroke="#63b8ff" d="M217.5,-119.76C217.5,-110.64 217.5,-102.11 217.5,-94.33"/>
<polygon fill="none" stroke="#63b8ff" points="214,-119.87 217.5,-129.87 221,-119.87 214,-119.87"/>
</a>
</g>
</g>
</g>
</svg>
