<?xml version="1.0" encoding="UTF-8" standalone="no"?>
<!DOCTYPE svg PUBLIC "-//W3C//DTD SVG 1.1//EN"
 "http://www.w3.org/Graphics/SVG/1.1/DTD/svg11.dtd">
<!-- Generated by graphviz version 2.43.0 (0)
 -->
<!-- Title: QAbstractItemModel Pages: 1 -->
<!--zoomable 767 -->

<svg id="main" version="1.1" xmlns="http://www.w3.org/2000/svg" xmlns:xlink="http://www.w3.org/1999/xlink" xml:space="preserve" onload="init(evt)">
<style type="text/css"><![CDATA[
.node, .edge {opacity: 0.7;}
.node.selected, .edge.selected {opacity: 1;}
.edge:hover path { stroke: red; }
.edge:hover polygon { stroke: red; fill: red; }
]]></style>

<defs>
  <circle id="rim" cx="0" cy="0" r="7"/>
  <circle id="rim2" cx="0" cy="0" r="3.5"/>
  <g id="zoomPlus">
    <use xlink:href="#rim" fill="#404040"><set attributeName="fill" to="#808080" begin="zoomplus.mouseover" end="zoomplus.mouseout"/></use>
    <path d="M-4,0h8M0,-4v8" fill="none" stroke="white" stroke-width="1.5" pointer-events="none"/>
  </g>
  <g id="zoomMin">
    <use xlink:href="#rim" fill="#404040"><set attributeName="fill" to="#808080" begin="zoomminus.mouseover" end="zoomminus.mouseout"/></use>
    <path d="M-4,0h8" fill="none" stroke="white" stroke-width="1.5" pointer-events="none"/>
  </g>
  <g id="arrowUp" transform="translate(30 24)">
    <use xlink:href="#rim"/>
    <path pointer-events="none" fill="none" stroke="white" stroke-width="1.5" d="M0,-3.0v7 M-2.5,-0.5L0,-3.0L2.5,-0.5"/>
  </g>
  <g id="arrowRight" transform="rotate(90) translate(36 -43)">
    <use xlink:href="#rim"/>
    <path pointer-events="none" fill="none" stroke="white" stroke-width="1.5" d="M0,-3.0v7 M-2.5,-0.5L0,-3.0L2.5,-0.5"/>
  </g>
  <g id="arrowDown" transform="rotate(180) translate(-30 -48)">
    <use xlink:href="#rim"/>
    <path pointer-events="none" fill="none" stroke="white" stroke-width="1.5" d="M0,-3.0v7 M-2.5,-0.5L0,-3.0L2.5,-0.5"/>
  </g>
  <g id="arrowLeft" transform="rotate(270) translate(-36 17)">
    <use xlink:href="#rim"/>
    <path pointer-events="none" fill="none" stroke="white" stroke-width="1.5" d="M0,-3.0v7 M-2.5,-0.5L0,-3.0L2.5,-0.5"/>
  </g>
  <g id="resetDef">
    <use xlink:href="#rim2" fill="#404040"><set attributeName="fill" to="#808080" begin="reset.mouseover" end="reset.mouseout"/></use>
  </g>
</defs>
<script type="application/ecmascript">
var viewWidth = 300;
var viewHeight = 767;
var sectionId = 'dynsection-0';
</script>
<script type="application/ecmascript" xlink:href="../../svg.min.js"/>
<svg id="graph" class="graph">
<g id="viewport">
<title>QAbstractItemModel</title>
<!-- Node1 -->
<g id="Node000001" class="node">
<title>Node1</title>
<g id="a_Node000001"><a xlink:title=" ">
<polygon fill="#999999" stroke="transparent" points="195,-759 84,-759 84,-710 195,-710 195,-759"/>
<text text-anchor="start" x="89.5" y="-746.5" font-family="Helvetica,sans-Serif" font-size="10.00">QAbstractItemModel</text>
<text text-anchor="start" x="138" y="-731.5" font-family="Helvetica,sans-Serif" font-size="10.00"> </text>
<text text-anchor="start" x="138" y="-716.5" font-family="Helvetica,sans-Serif" font-size="10.00"> </text>
<polygon fill="#666666" stroke="#666666" points="84.5,-741.5 84.5,-741.5 195.5,-741.5 195.5,-741.5 84.5,-741.5"/>
<polygon fill="#666666" stroke="#666666" points="84.5,-726.5 84.5,-726.5 195.5,-726.5 195.5,-726.5 84.5,-726.5"/>
<polygon fill="none" stroke="#666666" points="84,-710 84,-759 195,-759 195,-710 84,-710"/>
</a>
</g>
</g>
<!-- Node2 -->
<g id="Node000002" class="node">
<title>Node2</title>
<g id="a_Node000002"><a xlink:href="../../d6/d86/classBtBookmarksModel.html" target="_top" xlink:title=" ">
<polygon fill="white" stroke="transparent" points="125,-524 0,-524 0,-280 125,-280 125,-524"/>
<text text-anchor="start" x="14.5" y="-512" font-family="Helvetica,sans-Serif" font-size="10.00">BtBookmarksModel</text>
<text text-anchor="start" x="7" y="-497" font-family="Helvetica,sans-Serif" font-size="10.00">&#45;</text>
<text text-anchor="start" x="17.5" y="-497" font-family="Helvetica,sans-Serif" font-size="10.00">d_ptr</text>
<text text-anchor="start" x="4.5" y="-482" font-family="Helvetica,sans-Serif" font-size="10.00">+</text>
<text text-anchor="start" x="17.5" y="-482" font-family="Helvetica,sans-Serif" font-size="10.00">addBookmark()</text>
<text text-anchor="start" x="4.5" y="-467" font-family="Helvetica,sans-Serif" font-size="10.00">+</text>
<text text-anchor="start" x="17.5" y="-467" font-family="Helvetica,sans-Serif" font-size="10.00">addFolder()</text>
<text text-anchor="start" x="4.5" y="-452" font-family="Helvetica,sans-Serif" font-size="10.00">+</text>
<text text-anchor="start" x="17.5" y="-452" font-family="Helvetica,sans-Serif" font-size="10.00">BtBookmarksModel()</text>
<text text-anchor="start" x="4.5" y="-437" font-family="Helvetica,sans-Serif" font-size="10.00">+</text>
<text text-anchor="start" x="17.5" y="-437" font-family="Helvetica,sans-Serif" font-size="10.00">BtBookmarksModel()</text>
<text text-anchor="start" x="4.5" y="-422" font-family="Helvetica,sans-Serif" font-size="10.00">+</text>
<text text-anchor="start" x="17.5" y="-422" font-family="Helvetica,sans-Serif" font-size="10.00">columnCount()</text>
<text text-anchor="start" x="4.5" y="-407" font-family="Helvetica,sans-Serif" font-size="10.00">+</text>
<text text-anchor="start" x="17.5" y="-407" font-family="Helvetica,sans-Serif" font-size="10.00">copyItems()</text>
<text text-anchor="start" x="4.5" y="-392" font-family="Helvetica,sans-Serif" font-size="10.00">+</text>
<text text-anchor="start" x="17.5" y="-392" font-family="Helvetica,sans-Serif" font-size="10.00">data()</text>
<text text-anchor="start" x="4.5" y="-377" font-family="Helvetica,sans-Serif" font-size="10.00">+</text>
<text text-anchor="start" x="17.5" y="-377" font-family="Helvetica,sans-Serif" font-size="10.00">description()</text>
<text text-anchor="start" x="4.5" y="-362" font-family="Helvetica,sans-Serif" font-size="10.00">+</text>
<text text-anchor="start" x="17.5" y="-362" font-family="Helvetica,sans-Serif" font-size="10.00">flags()</text>
<text text-anchor="start" x="4.5" y="-347" font-family="Helvetica,sans-Serif" font-size="10.00">+</text>
<text text-anchor="start" x="17.5" y="-347" font-family="Helvetica,sans-Serif" font-size="10.00">hasChildren()</text>
<text text-anchor="start" x="17.5" y="-332" font-family="Helvetica,sans-Serif" font-size="10.00">and 16 more...</text>
<text text-anchor="start" x="4.5" y="-317" font-family="Helvetica,sans-Serif" font-size="10.00">+</text>
<text text-anchor="start" x="17.5" y="-317" font-family="Helvetica,sans-Serif" font-size="10.00">load()</text>
<text text-anchor="start" x="4.5" y="-302" font-family="Helvetica,sans-Serif" font-size="10.00">+</text>
<text text-anchor="start" x="17.5" y="-302" font-family="Helvetica,sans-Serif" font-size="10.00">save()</text>
<text text-anchor="start" x="7" y="-287" font-family="Helvetica,sans-Serif" font-size="10.00">&#45;</text>
<text text-anchor="start" x="17.5" y="-287" font-family="Helvetica,sans-Serif" font-size="10.00">slotSave()</text>
<polygon fill="#666666" stroke="#666666" points="0.5,-507 0.5,-507 125.5,-507 125.5,-507 0.5,-507"/>
<polygon fill="#666666" stroke="#666666" points="0.5,-492 0.5,-492 15.5,-492 15.5,-492 0.5,-492"/>
<polygon fill="#666666" stroke="#666666" points="15.5,-492 15.5,-492 125.5,-492 125.5,-492 15.5,-492"/>
<polygon fill="none" stroke="#666666" points="0,-280 0,-524 125,-524 125,-280 0,-280"/>
</a>
</g>
</g>
<!-- Node1&#45;&gt;Node2 -->
<g id="edge1_Node000001_Node000002" class="edge">
<title>Node1&#45;&gt;Node2</title>
<g id="a_edge1_Node000001_Node000002"><a xlink:title=" ">
<path fill="none" stroke="#63b8ff" d="M131.69,-700C122.12,-658.92 105.37,-587.02 90.75,-524.25"/>
<polygon fill="none" stroke="#63b8ff" points="128.35,-701.05 134.02,-710 135.16,-699.46 128.35,-701.05"/>
</a>
</g>
</g>
<!-- Node3 -->
<g id="Node000003" class="node">
<title>Node3</title>
<g id="a_Node000003"><a xlink:href="../../de/d5f/classBtBookshelfTreeModel.html" target="_top" xlink:title=" ">
<polygon fill="white" stroke="transparent" points="291.5,-674 143.5,-674 143.5,-130 291.5,-130 291.5,-674"/>
<text text-anchor="start" x="162.5" y="-662" font-family="Helvetica,sans-Serif" font-size="10.00">BtBookshelfTreeModel</text>
<text text-anchor="start" x="150" y="-647" font-family="Helvetica,sans-Serif" font-size="10.00">&#45;</text>
<text text-anchor="start" x="160.5" y="-647" font-family="Helvetica,sans-Serif" font-size="10.00">m_checkable</text>
<text text-anchor="start" x="150" y="-632" font-family="Helvetica,sans-Serif" font-size="10.00">&#45;</text>
<text text-anchor="start" x="160.5" y="-632" font-family="Helvetica,sans-Serif" font-size="10.00">m_checkedModulesCache</text>
<text text-anchor="start" x="150" y="-617" font-family="Helvetica,sans-Serif" font-size="10.00">&#45;</text>
<text text-anchor="start" x="160.5" y="-617" font-family="Helvetica,sans-Serif" font-size="10.00">m_defaultChecked</text>
<text text-anchor="start" x="150" y="-602" font-family="Helvetica,sans-Serif" font-size="10.00">&#45;</text>
<text text-anchor="start" x="160.5" y="-602" font-family="Helvetica,sans-Serif" font-size="10.00">m_groupingOrder</text>
<text text-anchor="start" x="150" y="-587" font-family="Helvetica,sans-Serif" font-size="10.00">&#45;</text>
<text text-anchor="start" x="160.5" y="-587" font-family="Helvetica,sans-Serif" font-size="10.00">m_modules</text>
<text text-anchor="start" x="150" y="-572" font-family="Helvetica,sans-Serif" font-size="10.00">&#45;</text>
<text text-anchor="start" x="160.5" y="-572" font-family="Helvetica,sans-Serif" font-size="10.00">m_rootItem</text>
<text text-anchor="start" x="150" y="-557" font-family="Helvetica,sans-Serif" font-size="10.00">&#45;</text>
<text text-anchor="start" x="160.5" y="-557" font-family="Helvetica,sans-Serif" font-size="10.00">m_sourceIndexMap</text>
<text text-anchor="start" x="150" y="-542" font-family="Helvetica,sans-Serif" font-size="10.00">&#45;</text>
<text text-anchor="start" x="160.5" y="-542" font-family="Helvetica,sans-Serif" font-size="10.00">m_sourceModel</text>
<text text-anchor="start" x="147.5" y="-527" font-family="Helvetica,sans-Serif" font-size="10.00">+</text>
<text text-anchor="start" x="160.5" y="-527" font-family="Helvetica,sans-Serif" font-size="10.00">BtBookshelfTreeModel()</text>
<text text-anchor="start" x="147.5" y="-512" font-family="Helvetica,sans-Serif" font-size="10.00">+</text>
<text text-anchor="start" x="160.5" y="-512" font-family="Helvetica,sans-Serif" font-size="10.00">BtBookshelfTreeModel()</text>
<text text-anchor="start" x="147.5" y="-497" font-family="Helvetica,sans-Serif" font-size="10.00">+</text>
<text text-anchor="start" x="160.5" y="-497" font-family="Helvetica,sans-Serif" font-size="10.00">BtBookshelfTreeModel()</text>
<text text-anchor="start" x="147.5" y="-482" font-family="Helvetica,sans-Serif" font-size="10.00">+</text>
<text text-anchor="start" x="160.5" y="-482" font-family="Helvetica,sans-Serif" font-size="10.00">checkable()</text>
<text text-anchor="start" x="147.5" y="-467" font-family="Helvetica,sans-Serif" font-size="10.00">+</text>
<text text-anchor="start" x="160.5" y="-467" font-family="Helvetica,sans-Serif" font-size="10.00">checkedModules()</text>
<text text-anchor="start" x="147.5" y="-452" font-family="Helvetica,sans-Serif" font-size="10.00">+</text>
<text text-anchor="start" x="160.5" y="-452" font-family="Helvetica,sans-Serif" font-size="10.00">columnCount()</text>
<text text-anchor="start" x="147.5" y="-437" font-family="Helvetica,sans-Serif" font-size="10.00">+</text>
<text text-anchor="start" x="160.5" y="-437" font-family="Helvetica,sans-Serif" font-size="10.00">data()</text>
<text text-anchor="start" x="147.5" y="-422" font-family="Helvetica,sans-Serif" font-size="10.00">+</text>
<text text-anchor="start" x="160.5" y="-422" font-family="Helvetica,sans-Serif" font-size="10.00">data()</text>
<text text-anchor="start" x="147.5" y="-407" font-family="Helvetica,sans-Serif" font-size="10.00">+</text>
<text text-anchor="start" x="160.5" y="-407" font-family="Helvetica,sans-Serif" font-size="10.00">defaultChecked()</text>
<text text-anchor="start" x="147.5" y="-392" font-family="Helvetica,sans-Serif" font-size="10.00">+</text>
<text text-anchor="start" x="160.5" y="-392" font-family="Helvetica,sans-Serif" font-size="10.00">flags()</text>
<text text-anchor="start" x="160.5" y="-377" font-family="Helvetica,sans-Serif" font-size="10.00">and 11 more...</text>
<text text-anchor="start" x="147.5" y="-362" font-family="Helvetica,sans-Serif" font-size="10.00">+</text>
<text text-anchor="start" x="160.5" y="-362" font-family="Helvetica,sans-Serif" font-size="10.00">setCheckable()</text>
<text text-anchor="start" x="147.5" y="-347" font-family="Helvetica,sans-Serif" font-size="10.00">+</text>
<text text-anchor="start" x="160.5" y="-347" font-family="Helvetica,sans-Serif" font-size="10.00">setCheckedModules()</text>
<text text-anchor="start" x="147.5" y="-332" font-family="Helvetica,sans-Serif" font-size="10.00">+</text>
<text text-anchor="start" x="160.5" y="-332" font-family="Helvetica,sans-Serif" font-size="10.00">setDefaultChecked()</text>
<text text-anchor="start" x="147.5" y="-317" font-family="Helvetica,sans-Serif" font-size="10.00">+</text>
<text text-anchor="start" x="160.5" y="-317" font-family="Helvetica,sans-Serif" font-size="10.00">setGroupingOrder()</text>
<text text-anchor="start" x="147.5" y="-302" font-family="Helvetica,sans-Serif" font-size="10.00">+</text>
<text text-anchor="start" x="160.5" y="-302" font-family="Helvetica,sans-Serif" font-size="10.00">setSourceModel()</text>
<text text-anchor="start" x="147.5" y="-287" font-family="Helvetica,sans-Serif" font-size="10.00">#</text>
<text text-anchor="start" x="160.5" y="-287" font-family="Helvetica,sans-Serif" font-size="10.00">resetData()</text>
<text text-anchor="start" x="147.5" y="-272" font-family="Helvetica,sans-Serif" font-size="10.00">#</text>
<text text-anchor="start" x="160.5" y="-272" font-family="Helvetica,sans-Serif" font-size="10.00">moduleDataChanged()</text>
<text text-anchor="start" x="147.5" y="-257" font-family="Helvetica,sans-Serif" font-size="10.00">#</text>
<text text-anchor="start" x="160.5" y="-257" font-family="Helvetica,sans-Serif" font-size="10.00">moduleInserted()</text>
<text text-anchor="start" x="147.5" y="-242" font-family="Helvetica,sans-Serif" font-size="10.00">#</text>
<text text-anchor="start" x="160.5" y="-242" font-family="Helvetica,sans-Serif" font-size="10.00">moduleRemoved()</text>
<text text-anchor="start" x="150" y="-227" font-family="Helvetica,sans-Serif" font-size="10.00">&#45;</text>
<text text-anchor="start" x="160.5" y="-227" font-family="Helvetica,sans-Serif" font-size="10.00">addModule()</text>
<text text-anchor="start" x="150" y="-212" font-family="Helvetica,sans-Serif" font-size="10.00">&#45;</text>
<text text-anchor="start" x="160.5" y="-212" font-family="Helvetica,sans-Serif" font-size="10.00">addModule()</text>
<text text-anchor="start" x="150" y="-197" font-family="Helvetica,sans-Serif" font-size="10.00">&#45;</text>
<text text-anchor="start" x="160.5" y="-197" font-family="Helvetica,sans-Serif" font-size="10.00">getGroup()</text>
<text text-anchor="start" x="150" y="-182" font-family="Helvetica,sans-Serif" font-size="10.00">&#45;</text>
<text text-anchor="start" x="160.5" y="-182" font-family="Helvetica,sans-Serif" font-size="10.00">getIndex()</text>
<text text-anchor="start" x="150" y="-167" font-family="Helvetica,sans-Serif" font-size="10.00">&#45;</text>
<text text-anchor="start" x="160.5" y="-167" font-family="Helvetica,sans-Serif" font-size="10.00">getItem()</text>
<text text-anchor="start" x="150" y="-152" font-family="Helvetica,sans-Serif" font-size="10.00">&#45;</text>
<text text-anchor="start" x="160.5" y="-152" font-family="Helvetica,sans-Serif" font-size="10.00">removeModule()</text>
<text text-anchor="start" x="150" y="-137" font-family="Helvetica,sans-Serif" font-size="10.00">&#45;</text>
<text text-anchor="start" x="160.5" y="-137" font-family="Helvetica,sans-Serif" font-size="10.00">resetParentCheckStates()</text>
<polygon fill="#666666" stroke="#666666" points="143.5,-657 143.5,-657 291.5,-657 291.5,-657 143.5,-657"/>
<polygon fill="#666666" stroke="#666666" points="143.5,-537 143.5,-537 158.5,-537 158.5,-537 143.5,-537"/>
<polygon fill="#666666" stroke="#666666" points="158.5,-537 158.5,-537 291.5,-537 291.5,-537 158.5,-537"/>
<polygon fill="none" stroke="#666666" points="143.5,-130 143.5,-674 291.5,-674 291.5,-130 143.5,-130"/>
</a>
</g>
</g>
<!-- Node1&#45;&gt;Node3 -->
<g id="edge2_Node000001_Node000003" class="edge">
<title>Node1&#45;&gt;Node3</title>
<g id="a_edge2_Node000001_Node000003"><a xlink:title=" ">
<path fill="none" stroke="#63b8ff" d="M147.35,-700.22C149.17,-692.53 151.24,-683.76 153.5,-674.17"/>
<polygon fill="none" stroke="#63b8ff" points="143.94,-699.46 145.05,-710 150.75,-701.07 143.94,-699.46"/>
</a>
</g>
</g>
<!-- Node4 -->
<g id="Node000004" class="node">
<title>Node4</title>
<g id="a_Node000004"><a xlink:href="../../dc/db1/classBtInstallPageModel.html" target="_top" xlink:title=" ">
<polygon fill="white" stroke="transparent" points="279,-94 156,-94 156,0 279,0 279,-94"/>
<text text-anchor="start" x="171" y="-82" font-family="Helvetica,sans-Serif" font-size="10.00">BtInstallPageModel</text>
<text text-anchor="start" x="216" y="-67" font-family="Helvetica,sans-Serif" font-size="10.00"> </text>
<text text-anchor="start" x="160.5" y="-52" font-family="Helvetica,sans-Serif" font-size="10.00">+</text>
<text text-anchor="start" x="173.5" y="-52" font-family="Helvetica,sans-Serif" font-size="10.00">BtInstallPageModel()</text>
<text text-anchor="start" x="160.5" y="-37" font-family="Helvetica,sans-Serif" font-size="10.00">+</text>
<text text-anchor="start" x="173.5" y="-37" font-family="Helvetica,sans-Serif" font-size="10.00">columnCount()</text>
<text text-anchor="start" x="160.5" y="-22" font-family="Helvetica,sans-Serif" font-size="10.00">+</text>
<text text-anchor="start" x="173.5" y="-22" font-family="Helvetica,sans-Serif" font-size="10.00">data()</text>
<text text-anchor="start" x="160.5" y="-7" font-family="Helvetica,sans-Serif" font-size="10.00">+</text>
<text text-anchor="start" x="173.5" y="-7" font-family="Helvetica,sans-Serif" font-size="10.00">headerData()</text>
<polygon fill="#666666" stroke="#666666" points="156.5,-77 156.5,-77 279.5,-77 279.5,-77 156.5,-77"/>
<polygon fill="#666666" stroke="#666666" points="156.5,-62 156.5,-62 279.5,-62 279.5,-62 156.5,-62"/>
<polygon fill="none" stroke="#666666" points="156,0 156,-94 279,-94 279,0 156,0"/>
</a>
</g>
</g>
<!-- Node3&#45;&gt;Node4 -->
<g id="edge3_Node000003_Node000004" class="edge">
<title>Node3&#45;&gt;Node4</title>
<g id="a_edge3_Node000003_Node000004"><a xlink:title=" ">
<path fill="none" stroke="#63b8ff" d="M217.5,-119.76C217.5,-110.64 217.5,-102.11 217.5,-94.33"/>
<polygon fill="none" stroke="#63b8ff" points="214,-119.87 217.5,-129.87 221,-119.87 214,-119.87"/>
</a>
</g>
</g>
</g>
</svg>

<g id="navigator" transform="translate(0 0)" fill="#404254">
  <rect fill="#f2f5e9" fill-opacity="0.5" stroke="#606060" stroke-width=".5" x="0" y="0" width="60" height="60"/>
  <use id="zoomplus" xlink:href="#zoomPlus" x="17" y="9" onmousedown="handleZoom(evt,'in')"/>
  <use id="zoomminus" xlink:href="#zoomMin" x="42" y="9" onmousedown="handleZoom(evt,'out')"/>
  <use id="reset" xlink:href="#resetDef" x="30" y="36" onmousedown="handleReset()"/>
   <use id="arrowup" xlink:href="#arrowUp" x="0" y="0" onmousedown="handlePan(0,-1)"/>
  <use id="arrowright" xlink:href="#arrowRight" x="0" y="0" onmousedown="handlePan(1,0)"/>
  <use id="arrowdown" xlink:href="#arrowDown" x="0" y="0" onmousedown="handlePan(0,1)"/>
  <use id="arrowleft" xlink:href="#arrowLeft" x="0" y="0" onmousedown="handlePan(-1,0)"/>
</g>
<svg viewBox="0 0 15 15" width="100%" height="30px" preserveAspectRatio="xMaxYMin meet">
 <g id="arrow_out" transform="scale(0.3 0.3)">
  <a xlink:href="classQAbstractItemModel__inherit__graph_org.svg" target="_base">
   <rect id="button" ry="5" rx="5" y="6" x="6" height="38" width="38"
        fill="#f2f5e9" fill-opacity="0.5" stroke="#606060" stroke-width="1.0"/>
   <path id="arrow"
     d="M 11.500037,31.436501 C 11.940474,20.09759 22.043105,11.32322 32.158766,21.979434 L 37.068811,17.246167 C 37.068811,17.246167 37.088388,32 37.088388,32 L 22.160133,31.978069 C 22.160133,31.978069 26.997745,27.140456 26.997745,27.140456 C 18.528582,18.264221 13.291696,25.230495 11.500037,31.436501 z"
     style="fill:#404040;"/>
  </a>
 </g>
</svg>

<style type='text/css'>
<![CDATA[
[data-mouse-over-selected='false'] { opacity: 0.7; }
[data-mouse-over-selected='true']  { opacity: 1.0; }
]]>
</style>
<script type="application/ecmascript"><![CDATA[
document.addEventListener('DOMContentLoaded', (event) => {
  highlightEdges();
  highlightAdjacentNodes();
});
]]></script>
</svg>
