<?xml version="1.0" encoding="UTF-8" standalone="no"?>
<!DOCTYPE svg PUBLIC "-//W3C//DTD SVG 1.1//EN"
 "http://www.w3.org/Graphics/SVG/1.1/DTD/svg11.dtd">
<!-- Generated by graphviz version 2.43.0 (0)
 -->
<!-- Title: Rendering::CEntryDisplay Pages: 1 -->
<svg width="320pt" height="193pt"
 viewBox="0.00 0.00 320.00 193.00" xmlns="http://www.w3.org/2000/svg" xmlns:xlink="http://www.w3.org/1999/xlink">
<g id="graph0" class="graph" transform="scale(1 1) rotate(0) translate(4 189)">
<title>Rendering::CEntryDisplay</title>
<polygon fill="white" stroke="transparent" points="-4,4 -4,-189 316,-189 316,4 -4,4"/>
<!-- Node1 -->
<g id="node1" class="node">
<title>Node1</title>
<g id="a_node1"><a xlink:title=" ">
<polygon fill="#bfbfbf" stroke="black" points="81.5,-94.5 81.5,-184.5 222.5,-184.5 222.5,-94.5 81.5,-94.5"/>
<text text-anchor="middle" x="152" y="-172.5" font-family="Helvetica,sans-Serif" font-size="10.00">Rendering::CEntryDisplay</text>
<polyline fill="none" stroke="black" points="81.5,-165.5 222.5,-165.5 "/>
<text text-anchor="middle" x="152" y="-153.5" font-family="Helvetica,sans-Serif" font-size="10.00"> </text>
<polyline fill="none" stroke="black" points="81.5,-146.5 222.5,-146.5 "/>
<text text-anchor="start" x="89.5" y="-134.5" font-family="Helvetica,sans-Serif" font-size="10.00">+ display()</text>
<text text-anchor="start" x="89.5" y="-123.5" font-family="Helvetica,sans-Serif" font-size="10.00">+ text()</text>
<text text-anchor="start" x="89.5" y="-112.5" font-family="Helvetica,sans-Serif" font-size="10.00">+ textKeyRendering()</text>
<text text-anchor="start" x="89.5" y="-101.5" font-family="Helvetica,sans-Serif" font-size="10.00">+ ~CEntryDisplay()</text>
</a>
</g>
</g>
<!-- Node2 -->
<g id="node2" class="node">
<title>Node2</title>
<g id="a_node2"><a xlink:href="../../df/d5b/classRendering_1_1CBookDisplay.html" target="_top" xlink:title="CEntryDisplay implementation for GenBook modules,.">
<polygon fill="white" stroke="black" points="0,-0.5 0,-57.5 140,-57.5 140,-0.5 0,-0.5"/>
<text text-anchor="middle" x="70" y="-45.5" font-family="Helvetica,sans-Serif" font-size="10.00">Rendering::CBookDisplay</text>
<polyline fill="none" stroke="black" points="0,-38.5 140,-38.5 "/>
<text text-anchor="middle" x="70" y="-26.5" font-family="Helvetica,sans-Serif" font-size="10.00"> </text>
<polyline fill="none" stroke="black" points="0,-19.5 140,-19.5 "/>
<text text-anchor="start" x="8" y="-7.5" font-family="Helvetica,sans-Serif" font-size="10.00">+ text()</text>
</a>
</g>
</g>
<!-- Node1&#45;&gt;Node2 -->
<g id="edge1" class="edge">
<title>Node1&#45;&gt;Node2</title>
<path fill="none" stroke="midnightblue" d="M112.42,-86.13C104.96,-76.26 97.44,-66.31 90.85,-57.59"/>
<polygon fill="none" stroke="midnightblue" points="109.83,-88.5 118.65,-94.37 115.41,-84.28 109.83,-88.5"/>
</g>
<!-- Node3 -->
<g id="node3" class="node">
<title>Node3</title>
<g id="a_node3"><a xlink:href="../../df/d5b/classRendering_1_1CChapterDisplay.html" target="_top" xlink:title="CEntryDisplay implementation for whole chapters.">
<polygon fill="white" stroke="black" points="158,-0.5 158,-57.5 312,-57.5 312,-0.5 158,-0.5"/>
<text text-anchor="middle" x="235" y="-45.5" font-family="Helvetica,sans-Serif" font-size="10.00">Rendering::CChapterDisplay</text>
<polyline fill="none" stroke="black" points="158,-38.5 312,-38.5 "/>
<text text-anchor="middle" x="235" y="-26.5" font-family="Helvetica,sans-Serif" font-size="10.00"> </text>
<polyline fill="none" stroke="black" points="158,-19.5 312,-19.5 "/>
<text text-anchor="start" x="166" y="-7.5" font-family="Helvetica,sans-Serif" font-size="10.00">+ text()</text>
</a>
</g>
</g>
<!-- Node1&#45;&gt;Node3 -->
<g id="edge2" class="edge">
<title>Node1&#45;&gt;Node3</title>
<path fill="none" stroke="midnightblue" d="M191.84,-86.43C199.46,-76.46 207.15,-66.4 213.89,-57.59"/>
<polygon fill="none" stroke="midnightblue" points="189.06,-84.3 185.76,-94.37 194.62,-88.55 189.06,-84.3"/>
</g>
</g>
</svg>
