<?xml version="1.0" encoding="UTF-8" standalone="no"?>
<!DOCTYPE svg PUBLIC "-//W3C//DTD SVG 1.1//EN"
 "http://www.w3.org/Graphics/SVG/1.1/DTD/svg11.dtd">
<!-- Generated by graphviz version 2.43.0 (0)
 -->
<!-- Title: BookshelfModel::CategoryItem Pages: 1 -->
<svg width="275pt" height="636pt"
 viewBox="0.00 0.00 275.00 636.00" xmlns="http://www.w3.org/2000/svg" xmlns:xlink="http://www.w3.org/1999/xlink">
<g id="graph0" class="graph" transform="scale(1 1) rotate(0) translate(4 632)">
<title>BookshelfModel::CategoryItem</title>
<polygon fill="white" stroke="transparent" points="-4,4 -4,-632 271,-632 271,4 -4,4"/>
<!-- Node1 -->
<g id="node1" class="node">
<title>Node1</title>
<g id="a_node1"><a xlink:title=" ">
<polygon fill="#bfbfbf" stroke="black" points="0,-0.5 0,-101.5 168,-101.5 168,-0.5 0,-0.5"/>
<text text-anchor="middle" x="84" y="-89.5" font-family="Helvetica,sans-Serif" font-size="10.00">BookshelfModel::CategoryItem</text>
<polyline fill="none" stroke="black" points="0,-82.5 168,-82.5 "/>
<text text-anchor="start" x="8" y="-70.5" font-family="Helvetica,sans-Serif" font-size="10.00">&#45; m_category</text>
<polyline fill="none" stroke="black" points="0,-63.5 168,-63.5 "/>
<text text-anchor="start" x="8" y="-51.5" font-family="Helvetica,sans-Serif" font-size="10.00">+ category()</text>
<text text-anchor="start" x="8" y="-40.5" font-family="Helvetica,sans-Serif" font-size="10.00">+ CategoryItem()</text>
<text text-anchor="start" x="8" y="-29.5" font-family="Helvetica,sans-Serif" font-size="10.00">+ data()</text>
<text text-anchor="start" x="8" y="-18.5" font-family="Helvetica,sans-Serif" font-size="10.00">+ fitFor()</text>
<text text-anchor="start" x="8" y="-7.5" font-family="Helvetica,sans-Serif" font-size="10.00">+ operator&lt;()</text>
</a>
</g>
</g>
<!-- Node2 -->
<g id="node2" class="node">
<title>Node2</title>
<g id="a_node2"><a xlink:href="../../d1/dcc/classBookshelfModel_1_1GroupItem.html" target="_top" xlink:title=" ">
<polygon fill="white" stroke="black" points="7.5,-139.5 7.5,-218.5 160.5,-218.5 160.5,-139.5 7.5,-139.5"/>
<text text-anchor="start" x="15.5" y="-206.5" font-family="Helvetica,sans-Serif" font-size="10.00">BookshelfModel::GroupItem</text>
<text text-anchor="middle" x="84" y="-195.5" font-family="Helvetica,sans-Serif" font-size="10.00">&lt; Item::ITEM_CATEGORY &gt;</text>
<polyline fill="none" stroke="black" points="7.5,-188.5 160.5,-188.5 "/>
<text text-anchor="middle" x="84" y="-176.5" font-family="Helvetica,sans-Serif" font-size="10.00"> </text>
<polyline fill="none" stroke="black" points="7.5,-169.5 160.5,-169.5 "/>
<text text-anchor="start" x="15.5" y="-157.5" font-family="Helvetica,sans-Serif" font-size="10.00">+ GroupItem()</text>
<text text-anchor="start" x="15.5" y="-146.5" font-family="Helvetica,sans-Serif" font-size="10.00">+ staticItemType()</text>
</a>
</g>
</g>
<!-- Node2&#45;&gt;Node1 -->
<g id="edge1" class="edge">
<title>Node2&#45;&gt;Node1</title>
<path fill="none" stroke="midnightblue" d="M84,-128.89C84,-119.94 84,-110.6 84,-101.63"/>
<polygon fill="none" stroke="midnightblue" points="80.5,-129.17 84,-139.17 87.5,-129.17 80.5,-129.17"/>
</g>
<!-- Node3 -->
<g id="node3" class="node">
<title>Node3</title>
<g id="a_node3"><a xlink:href="../../d5/d1c/classBookshelfModel_1_1Item.html" target="_top" xlink:title=" ">
<polygon fill="white" stroke="black" points="18,-383.5 18,-627.5 142,-627.5 142,-383.5 18,-383.5"/>
<text text-anchor="middle" x="80" y="-615.5" font-family="Helvetica,sans-Serif" font-size="10.00">BookshelfModel::Item</text>
<polyline fill="none" stroke="black" points="18,-608.5 142,-608.5 "/>
<text text-anchor="start" x="26" y="-596.5" font-family="Helvetica,sans-Serif" font-size="10.00">&#45; m_checkState</text>
<text text-anchor="start" x="26" y="-585.5" font-family="Helvetica,sans-Serif" font-size="10.00">&#45; m_children</text>
<text text-anchor="start" x="26" y="-574.5" font-family="Helvetica,sans-Serif" font-size="10.00">&#45; m_parent</text>
<text text-anchor="start" x="26" y="-563.5" font-family="Helvetica,sans-Serif" font-size="10.00">&#45; m_type</text>
<polyline fill="none" stroke="black" points="18,-556.5 142,-556.5 "/>
<text text-anchor="start" x="26" y="-544.5" font-family="Helvetica,sans-Serif" font-size="10.00">+ checkState()</text>
<text text-anchor="start" x="26" y="-533.5" font-family="Helvetica,sans-Serif" font-size="10.00">+ childIndex()</text>
<text text-anchor="start" x="26" y="-522.5" font-family="Helvetica,sans-Serif" font-size="10.00">+ children()</text>
<text text-anchor="start" x="26" y="-511.5" font-family="Helvetica,sans-Serif" font-size="10.00">+ data()</text>
<text text-anchor="start" x="26" y="-500.5" font-family="Helvetica,sans-Serif" font-size="10.00">+ fitFor()</text>
<text text-anchor="start" x="26" y="-489.5" font-family="Helvetica,sans-Serif" font-size="10.00">+ getGroupItem()</text>
<text text-anchor="start" x="26" y="-478.5" font-family="Helvetica,sans-Serif" font-size="10.00">+ indexFor()</text>
<text text-anchor="start" x="26" y="-467.5" font-family="Helvetica,sans-Serif" font-size="10.00">+ insertChild()</text>
<text text-anchor="start" x="26" y="-456.5" font-family="Helvetica,sans-Serif" font-size="10.00">+ Item()</text>
<text text-anchor="start" x="26" y="-445.5" font-family="Helvetica,sans-Serif" font-size="10.00">+ operator&lt;()</text>
<text text-anchor="start" x="26" y="-434.5" font-family="Helvetica,sans-Serif" font-size="10.00">+ parent()</text>
<text text-anchor="start" x="26" y="-423.5" font-family="Helvetica,sans-Serif" font-size="10.00">+ setCheckState()</text>
<text text-anchor="start" x="26" y="-412.5" font-family="Helvetica,sans-Serif" font-size="10.00">+ type()</text>
<text text-anchor="start" x="26" y="-401.5" font-family="Helvetica,sans-Serif" font-size="10.00">+ ~Item()</text>
<text text-anchor="start" x="26" y="-390.5" font-family="Helvetica,sans-Serif" font-size="10.00">&#45; setParent()</text>
</a>
</g>
</g>
<!-- Node3&#45;&gt;Node2 -->
<g id="edge2" class="edge">
<title>Node3&#45;&gt;Node2</title>
<path fill="none" stroke="midnightblue" d="M81.62,-372.91C82.31,-317.45 83.05,-257.03 83.52,-218.86"/>
<polygon fill="none" stroke="midnightblue" points="78.12,-373.16 81.5,-383.21 85.12,-373.25 78.12,-373.16"/>
</g>
<!-- Node4 -->
<g id="node4" class="node">
<title>Node4</title>
<g id="a_node4"><a xlink:href="../../d1/dcc/classBookshelfModel_1_1GroupItem.html" target="_top" xlink:title=" ">
<polygon fill="white" stroke="black" points="96.5,-266.5 96.5,-345.5 249.5,-345.5 249.5,-266.5 96.5,-266.5"/>
<text text-anchor="start" x="104.5" y="-333.5" font-family="Helvetica,sans-Serif" font-size="10.00">BookshelfModel::GroupItem</text>
<text text-anchor="middle" x="173" y="-322.5" font-family="Helvetica,sans-Serif" font-size="10.00">&lt; TYPE &gt;</text>
<polyline fill="none" stroke="black" points="96.5,-315.5 249.5,-315.5 "/>
<text text-anchor="middle" x="173" y="-303.5" font-family="Helvetica,sans-Serif" font-size="10.00"> </text>
<polyline fill="none" stroke="black" points="96.5,-296.5 249.5,-296.5 "/>
<text text-anchor="start" x="104.5" y="-284.5" font-family="Helvetica,sans-Serif" font-size="10.00">+ GroupItem()</text>
<text text-anchor="start" x="104.5" y="-273.5" font-family="Helvetica,sans-Serif" font-size="10.00">+ staticItemType()</text>
</a>
</g>
</g>
<!-- Node3&#45;&gt;Node4 -->
<g id="edge4" class="edge">
<title>Node3&#45;&gt;Node4</title>
<path fill="none" stroke="midnightblue" d="M141.34,-374.24C146.16,-363.99 150.75,-354.25 154.86,-345.52"/>
<polygon fill="none" stroke="midnightblue" points="138.14,-372.82 137.04,-383.36 144.47,-375.8 138.14,-372.82"/>
</g>
<!-- Node4&#45;&gt;Node2 -->
<g id="edge3" class="edge">
<title>Node4&#45;&gt;Node2</title>
<path fill="none" stroke="orange" d="M139.6,-258.09C130.33,-245.07 120.38,-231.09 111.49,-218.61"/>
<polygon fill="orange" stroke="orange" points="136.92,-260.36 145.57,-266.48 142.62,-256.3 136.92,-260.36"/>
<text text-anchor="middle" x="199" y="-240" font-family="Helvetica,sans-Serif" font-size="10.00"> &lt; Item::ITEM_CATEGORY &gt;</text>
</g>
</g>
</svg>
