<?xml version="1.0" encoding="UTF-8" standalone="no"?>
<!DOCTYPE svg PUBLIC "-//W3C//DTD SVG 1.1//EN"
 "http://www.w3.org/Graphics/SVG/1.1/DTD/svg11.dtd">
<!-- Generated by graphviz version 2.43.0 (0)
 -->
<!-- Title: btshortcutseditor.h Pages: 1 -->
<svg width="282pt" height="82pt"
 viewBox="0.00 0.00 281.50 82.00" xmlns="http://www.w3.org/2000/svg" xmlns:xlink="http://www.w3.org/1999/xlink">
<g id="graph0" class="graph" transform="scale(1 1) rotate(0) translate(4 78)">
<title>btshortcutseditor.h</title>
<!-- Node1 -->
<g id="Node000001" class="node">
<title>Node1</title>
<g id="a_Node000001"><a xlink:title=" ">
<polygon fill="#999999" stroke="#666666" points="186.5,-74 78.5,-74 78.5,-55 186.5,-55 186.5,-74"/>
<text text-anchor="middle" x="132.5" y="-62" font-family="Helvetica,sans-Serif" font-size="10.00">btshortcutseditor.h</text>
</a>
</g>
</g>
<!-- Node2 -->
<g id="Node000002" class="node">
<title>Node2</title>
<g id="a_Node000002"><a xlink:href="../../d7/d36/btshortcutseditor_8cpp.html" target="_top" xlink:title=" ">
<polygon fill="white" stroke="#666666" points="119,-19 0,-19 0,0 119,0 119,-19"/>
<text text-anchor="middle" x="59.5" y="-7" font-family="Helvetica,sans-Serif" font-size="10.00">btshortcutseditor.cpp</text>
</a>
</g>
</g>
<!-- Node1&#45;&gt;Node2 -->
<g id="edge1_Node000001_Node000002" class="edge">
<title>Node1&#45;&gt;Node2</title>
<g id="a_edge1_Node000001_Node000002"><a xlink:title=" ">
<path fill="none" stroke="#63b8ff" d="M112.36,-48.88C99.22,-39.34 82.52,-27.21 71.44,-19.17"/>
<polygon fill="#63b8ff" stroke="#63b8ff" points="110.62,-51.94 120.77,-54.98 114.74,-46.28 110.62,-51.94"/>
</a>
</g>
</g>
<!-- Node3 -->
<g id="Node000003" class="node">
<title>Node3</title>
<g id="a_Node000003"><a xlink:href="../../dc/d6a/cacceleratorsettings_8cpp.html" target="_top" xlink:title=" ">
<polygon fill="white" stroke="#666666" points="273.5,-19 137.5,-19 137.5,0 273.5,0 273.5,-19"/>
<text text-anchor="middle" x="205.5" y="-7" font-family="Helvetica,sans-Serif" font-size="10.00">cacceleratorsettings.cpp</text>
</a>
</g>
</g>
<!-- Node1&#45;&gt;Node3 -->
<g id="edge2_Node000001_Node000003" class="edge">
<title>Node1&#45;&gt;Node3</title>
<g id="a_edge2_Node000001_Node000003"><a xlink:title=" ">
<path fill="none" stroke="#63b8ff" d="M152.64,-48.88C165.78,-39.34 182.48,-27.21 193.56,-19.17"/>
<polygon fill="#63b8ff" stroke="#63b8ff" points="150.26,-46.28 144.23,-54.98 154.38,-51.94 150.26,-46.28"/>
</a>
</g>
</g>
</g>
</svg>
