<?xml version="1.0" encoding="UTF-8" standalone="no"?>
<!DOCTYPE svg PUBLIC "-//W3C//DTD SVG 1.1//EN"
 "http://www.w3.org/Graphics/SVG/1.1/DTD/svg11.dtd">
<!-- Generated by graphviz version 2.43.0 (0)
 -->
<!-- Title: Filters::TeiToHtml Pages: 1 -->
<svg width="150pt" height="193pt"
 viewBox="0.00 0.00 150.00 193.00" xmlns="http://www.w3.org/2000/svg" xmlns:xlink="http://www.w3.org/1999/xlink">
<g id="graph0" class="graph" transform="scale(1 1) rotate(0) translate(4 189)">
<title>Filters::TeiToHtml</title>
<polygon fill="white" stroke="transparent" points="-4,4 -4,-189 146,-189 146,4 -4,4"/>
<!-- Node1 -->
<g id="node1" class="node">
<title>Node1</title>
<g id="a_node1"><a xlink:title="TEI to HTML conversion filter.">
<polygon fill="#bfbfbf" stroke="black" points="0,-0.5 0,-90.5 142,-90.5 142,-0.5 0,-0.5"/>
<text text-anchor="middle" x="71" y="-78.5" font-family="Helvetica,sans-Serif" font-size="10.00">Filters::TeiToHtml</text>
<polyline fill="none" stroke="black" points="0,-71.5 142,-71.5 "/>
<text text-anchor="middle" x="71" y="-59.5" font-family="Helvetica,sans-Serif" font-size="10.00"> </text>
<polyline fill="none" stroke="black" points="0,-52.5 142,-52.5 "/>
<text text-anchor="start" x="8" y="-40.5" font-family="Helvetica,sans-Serif" font-size="10.00">+ handleToken()</text>
<text text-anchor="start" x="8" y="-29.5" font-family="Helvetica,sans-Serif" font-size="10.00">+ TeiToHtml()</text>
<text text-anchor="start" x="8" y="-18.5" font-family="Helvetica,sans-Serif" font-size="10.00">&#45; renderReference()</text>
<text text-anchor="start" x="8" y="-7.5" font-family="Helvetica,sans-Serif" font-size="10.00">&#45; renderTargetReference()</text>
</a>
</g>
</g>
<!-- Node2 -->
<g id="node2" class="node">
<title>Node2</title>
<g id="a_node2"><a xlink:title=" ">
<polygon fill="white" stroke="#bfbfbf" points="10.5,-127.5 10.5,-184.5 131.5,-184.5 131.5,-127.5 10.5,-127.5"/>
<text text-anchor="middle" x="71" y="-172.5" font-family="Helvetica,sans-Serif" font-size="10.00">sword::TEIHTMLHREF</text>
<polyline fill="none" stroke="#bfbfbf" points="10.5,-165.5 131.5,-165.5 "/>
<text text-anchor="middle" x="71" y="-153.5" font-family="Helvetica,sans-Serif" font-size="10.00"> </text>
<polyline fill="none" stroke="#bfbfbf" points="10.5,-146.5 131.5,-146.5 "/>
<text text-anchor="middle" x="71" y="-134.5" font-family="Helvetica,sans-Serif" font-size="10.00"> </text>
</a>
</g>
</g>
<!-- Node2&#45;&gt;Node1 -->
<g id="edge1" class="edge">
<title>Node2&#45;&gt;Node1</title>
<path fill="none" stroke="midnightblue" d="M71,-117.21C71,-108.61 71,-99.39 71,-90.55"/>
<polygon fill="none" stroke="midnightblue" points="67.5,-117.34 71,-127.34 74.5,-117.34 67.5,-117.34"/>
</g>
</g>
</svg>
