<?xml version="1.0" encoding="UTF-8" standalone="no"?>
<!DOCTYPE svg PUBLIC "-//W3C//DTD SVG 1.1//EN"
 "http://www.w3.org/Graphics/SVG/1.1/DTD/svg11.dtd">
<!-- Generated by graphviz version 2.43.0 (0)
 -->
<!-- Title: anonymous_namespace{bibletime_slots.cpp}::DebugWindow Pages: 1 -->
<svg width="143pt" height="204pt"
 viewBox="0.00 0.00 143.00 204.00" xmlns="http://www.w3.org/2000/svg" xmlns:xlink="http://www.w3.org/1999/xlink">
<g id="graph0" class="graph" transform="scale(1 1) rotate(0) translate(4 200)">
<title>anonymous_namespace{bibletime_slots.cpp}::DebugWindow</title>
<polygon fill="white" stroke="transparent" points="-4,4 -4,-200 139,-200 139,4 -4,4"/>
<!-- Node1 -->
<g id="node1" class="node">
<title>Node1</title>
<g id="a_node1"><a xlink:title=" ">
<polygon fill="#bfbfbf" stroke="black" points="0,-0.5 0,-101.5 135,-101.5 135,-0.5 0,-0.5"/>
<text text-anchor="start" x="8" y="-89.5" font-family="Helvetica,sans-Serif" font-size="10.00">anonymous_namespace</text>
<text text-anchor="start" x="8" y="-78.5" font-family="Helvetica,sans-Serif" font-size="10.00">{bibletime_slots.cpp}</text>
<text text-anchor="middle" x="67.5" y="-67.5" font-family="Helvetica,sans-Serif" font-size="10.00">::DebugWindow</text>
<polyline fill="none" stroke="black" points="0,-60.5 135,-60.5 "/>
<text text-anchor="start" x="8" y="-48.5" font-family="Helvetica,sans-Serif" font-size="10.00">&#45; m_updateTimerId</text>
<polyline fill="none" stroke="black" points="0,-41.5 135,-41.5 "/>
<text text-anchor="start" x="8" y="-29.5" font-family="Helvetica,sans-Serif" font-size="10.00">+ DebugWindow()</text>
<text text-anchor="start" x="8" y="-18.5" font-family="Helvetica,sans-Serif" font-size="10.00">+ retranslateUi()</text>
<text text-anchor="start" x="8" y="-7.5" font-family="Helvetica,sans-Serif" font-size="10.00">+ timerEvent()</text>
</a>
</g>
</g>
<!-- Node2 -->
<g id="node2" class="node">
<title>Node2</title>
<g id="a_node2"><a xlink:href="../../d5/d49/classQTextEdit.html" target="_top" xlink:title=" ">
<polygon fill="white" stroke="black" points="36,-138.5 36,-195.5 99,-195.5 99,-138.5 36,-138.5"/>
<text text-anchor="middle" x="67.5" y="-183.5" font-family="Helvetica,sans-Serif" font-size="10.00">QTextEdit</text>
<polyline fill="none" stroke="black" points="36,-176.5 99,-176.5 "/>
<text text-anchor="middle" x="67.5" y="-164.5" font-family="Helvetica,sans-Serif" font-size="10.00"> </text>
<polyline fill="none" stroke="black" points="36,-157.5 99,-157.5 "/>
<text text-anchor="middle" x="67.5" y="-145.5" font-family="Helvetica,sans-Serif" font-size="10.00"> </text>
</a>
</g>
</g>
<!-- Node2&#45;&gt;Node1 -->
<g id="edge1" class="edge">
<title>Node2&#45;&gt;Node1</title>
<path fill="none" stroke="midnightblue" d="M67.5,-128.35C67.5,-119.8 67.5,-110.58 67.5,-101.61"/>
<polygon fill="none" stroke="midnightblue" points="64,-128.4 67.5,-138.4 71,-128.4 64,-128.4"/>
</g>
</g>
</svg>
