<?xml version="1.0" encoding="UTF-8" standalone="no"?>
<!DOCTYPE svg PUBLIC "-//W3C//DTD SVG 1.1//EN"
 "http://www.w3.org/Graphics/SVG/1.1/DTD/svg11.dtd">
<!-- Generated by graphviz version 2.43.0 (0)
 -->
<!-- Title: cswordversekey.h Pages: 1 -->
<svg width="3713pt" height="252pt"
 viewBox="0.00 0.00 3712.50 252.00" xmlns="http://www.w3.org/2000/svg" xmlns:xlink="http://www.w3.org/1999/xlink">
<g id="graph0" class="graph" transform="scale(1 1) rotate(0) translate(4 248)">
<title>cswordversekey.h</title>
<polygon fill="white" stroke="transparent" points="-4,4 -4,-248 3708.5,-248 3708.5,4 -4,4"/>
<!-- Node1 -->
<g id="node1" class="node">
<title>Node1</title>
<g id="a_node1"><a xlink:title=" ">
<polygon fill="#bfbfbf" stroke="black" points="2074.5,-224.5 2074.5,-243.5 2177.5,-243.5 2177.5,-224.5 2074.5,-224.5"/>
<text text-anchor="middle" x="2126" y="-231.5" font-family="Helvetica,sans-Serif" font-size="10.00">cswordversekey.h</text>
</a>
</g>
</g>
<!-- Node2 -->
<g id="node2" class="node">
<title>Node2</title>
<g id="a_node2"><a xlink:href="../../d7/dd0/btbookmarksmodel_8cpp.html" target="_top" xlink:title=" ">
<polygon fill="white" stroke="black" points="0,-168.5 0,-187.5 132,-187.5 132,-168.5 0,-168.5"/>
<text text-anchor="middle" x="66" y="-175.5" font-family="Helvetica,sans-Serif" font-size="10.00">btbookmarksmodel.cpp</text>
</a>
</g>
</g>
<!-- Node1&#45;&gt;Node2 -->
<g id="edge1" class="edge">
<title>Node1&#45;&gt;Node2</title>
<path fill="none" stroke="midnightblue" d="M2063.75,-232.34C1771.36,-229.1 532.31,-214.07 146,-188 141.54,-187.7 136.94,-187.33 132.31,-186.92"/>
<polygon fill="midnightblue" stroke="midnightblue" points="2064.12,-235.84 2074.16,-232.45 2064.2,-228.84 2064.12,-235.84"/>
</g>
<!-- Node3 -->
<g id="node3" class="node">
<title>Node3</title>
<g id="a_node3"><a xlink:href="../../de/d73/cswordbiblemoduleinfo_8h.html" target="_top" xlink:title=" ">
<polygon fill="white" stroke="black" points="750,-168.5 750,-187.5 890,-187.5 890,-168.5 750,-168.5"/>
<text text-anchor="middle" x="820" y="-175.5" font-family="Helvetica,sans-Serif" font-size="10.00">cswordbiblemoduleinfo.h</text>
</a>
</g>
</g>
<!-- Node1&#45;&gt;Node3 -->
<g id="edge2" class="edge">
<title>Node1&#45;&gt;Node3</title>
<path fill="none" stroke="midnightblue" d="M2064.29,-230.63C1895.91,-224.14 1414.36,-205.39 1014,-188 972.9,-186.22 926.92,-184.09 890.04,-182.35"/>
<polygon fill="midnightblue" stroke="midnightblue" points="2064.32,-234.13 2074.45,-231.02 2064.59,-227.14 2064.32,-234.13"/>
</g>
<!-- Node7 -->
<g id="node7" class="node">
<title>Node7</title>
<g id="a_node7"><a xlink:href="../../d1/ddc/cswordversekey_8cpp.html" target="_top" xlink:title=" ">
<polygon fill="white" stroke="black" points="22,-56.5 22,-75.5 136,-75.5 136,-56.5 22,-56.5"/>
<text text-anchor="middle" x="79" y="-63.5" font-family="Helvetica,sans-Serif" font-size="10.00">cswordversekey.cpp</text>
</a>
</g>
</g>
<!-- Node1&#45;&gt;Node7 -->
<g id="edge28" class="edge">
<title>Node1&#45;&gt;Node7</title>
<path fill="none" stroke="midnightblue" d="M2064.34,-232.45C1869.8,-230.4 1251.6,-221.52 741,-188 488.76,-171.44 412.73,-217.94 175,-132 139.41,-119.14 104.32,-90.11 88.19,-75.6"/>
<polygon fill="midnightblue" stroke="midnightblue" points="2064.34,-235.95 2074.38,-232.55 2064.41,-228.95 2064.34,-235.95"/>
</g>
<!-- Node9 -->
<g id="node9" class="node">
<title>Node9</title>
<g id="a_node9"><a xlink:href="../../d1/df6/bibletime_8cpp.html" target="_top" xlink:title=" ">
<polygon fill="white" stroke="black" points="1436.5,-56.5 1436.5,-75.5 1519.5,-75.5 1519.5,-56.5 1436.5,-56.5"/>
<text text-anchor="middle" x="1478" y="-63.5" font-family="Helvetica,sans-Serif" font-size="10.00">bibletime.cpp</text>
</a>
</g>
</g>
<!-- Node1&#45;&gt;Node9 -->
<g id="edge51" class="edge">
<title>Node1&#45;&gt;Node9</title>
<path fill="none" stroke="midnightblue" d="M2064.36,-231.18C1926.08,-226.66 1599.81,-213.41 1557,-188 1512.34,-161.49 1488.25,-98.74 1480.67,-75.69"/>
<polygon fill="midnightblue" stroke="midnightblue" points="2064.28,-234.68 2074.38,-231.5 2064.5,-227.68 2064.28,-234.68"/>
</g>
<!-- Node12 -->
<g id="node12" class="node">
<title>Node12</title>
<g id="a_node12"><a xlink:href="../../de/d93/btmoduletextmodel_8cpp.html" target="_top" xlink:title=" ">
<polygon fill="white" stroke="black" points="1535,-112.5 1535,-131.5 1669,-131.5 1669,-112.5 1535,-112.5"/>
<text text-anchor="middle" x="1602" y="-119.5" font-family="Helvetica,sans-Serif" font-size="10.00">btmoduletextmodel.cpp</text>
</a>
</g>
</g>
<!-- Node1&#45;&gt;Node12 -->
<g id="edge45" class="edge">
<title>Node1&#45;&gt;Node12</title>
<path fill="none" stroke="midnightblue" d="M2064.21,-232.64C1925.77,-231.19 1600.17,-223.95 1567,-188 1551.09,-170.76 1575.81,-144.95 1591.21,-131.64"/>
<polygon fill="midnightblue" stroke="midnightblue" points="2064.21,-236.14 2074.25,-232.74 2064.28,-229.14 2064.21,-236.14"/>
</g>
<!-- Node13 -->
<g id="node13" class="node">
<title>Node13</title>
<g id="a_node13"><a xlink:href="../../d0/d6c/cchapterdisplay_8cpp.html" target="_top" xlink:title=" ">
<polygon fill="white" stroke="black" points="1222.5,-112.5 1222.5,-131.5 1335.5,-131.5 1335.5,-112.5 1222.5,-112.5"/>
<text text-anchor="middle" x="1279" y="-119.5" font-family="Helvetica,sans-Serif" font-size="10.00">cchapterdisplay.cpp</text>
</a>
</g>
</g>
<!-- Node1&#45;&gt;Node13 -->
<g id="edge46" class="edge">
<title>Node1&#45;&gt;Node13</title>
<path fill="none" stroke="midnightblue" d="M2063.69,-231.12C1920.08,-226.42 1569.3,-212.73 1454,-188 1394.42,-175.22 1327.97,-146.16 1296.87,-131.62"/>
<polygon fill="midnightblue" stroke="midnightblue" points="2063.97,-234.63 2074.08,-231.46 2064.2,-227.64 2063.97,-234.63"/>
</g>
<!-- Node15 -->
<g id="node15" class="node">
<title>Node15</title>
<g id="a_node15"><a xlink:href="../../de/da4/cbiblereadwindow_8cpp.html" target="_top" xlink:title=" ">
<polygon fill="white" stroke="black" points="1353.5,-112.5 1353.5,-131.5 1478.5,-131.5 1478.5,-112.5 1353.5,-112.5"/>
<text text-anchor="middle" x="1416" y="-119.5" font-family="Helvetica,sans-Serif" font-size="10.00">cbiblereadwindow.cpp</text>
</a>
</g>
</g>
<!-- Node1&#45;&gt;Node15 -->
<g id="edge65" class="edge">
<title>Node1&#45;&gt;Node15</title>
<path fill="none" stroke="midnightblue" d="M2064.31,-233.54C1925.65,-233.98 1593.49,-230.42 1491,-188 1461.07,-175.61 1434.65,-146.36 1422.73,-131.7"/>
<polygon fill="midnightblue" stroke="midnightblue" points="2064.36,-237.04 2074.35,-233.51 2064.34,-230.04 2064.36,-237.04"/>
</g>
<!-- Node17 -->
<g id="node17" class="node">
<title>Node17</title>
<g id="a_node17"><a xlink:href="../../dc/d8f/cbiblekeychooser_8cpp.html" target="_top" xlink:title=" ">
<polygon fill="white" stroke="black" points="824.5,-56.5 824.5,-75.5 945.5,-75.5 945.5,-56.5 824.5,-56.5"/>
<text text-anchor="middle" x="885" y="-63.5" font-family="Helvetica,sans-Serif" font-size="10.00">cbiblekeychooser.cpp</text>
</a>
</g>
</g>
<!-- Node1&#45;&gt;Node17 -->
<g id="edge68" class="edge">
<title>Node1&#45;&gt;Node17</title>
<path fill="none" stroke="midnightblue" d="M2063.92,-231.38C1936.51,-227.59 1636.36,-216.22 1386,-188 1234.25,-170.9 1192.01,-179.86 1047,-132 1028.5,-125.89 1025.85,-119.81 1008,-112 975.29,-97.69 936.44,-84.01 911.28,-75.57"/>
<polygon fill="midnightblue" stroke="midnightblue" points="2064.16,-234.89 2074.26,-231.69 2064.36,-227.9 2064.16,-234.89"/>
</g>
<!-- Node19 -->
<g id="node19" class="node">
<title>Node19</title>
<g id="a_node19"><a xlink:href="../../d7/d92/btbiblekeywidget_8cpp.html" target="_top" xlink:title=" ">
<polygon fill="white" stroke="black" points="1268.5,-56.5 1268.5,-75.5 1389.5,-75.5 1389.5,-56.5 1268.5,-56.5"/>
<text text-anchor="middle" x="1329" y="-63.5" font-family="Helvetica,sans-Serif" font-size="10.00">btbiblekeywidget.cpp</text>
</a>
</g>
</g>
<!-- Node1&#45;&gt;Node19 -->
<g id="edge67" class="edge">
<title>Node1&#45;&gt;Node19</title>
<path fill="none" stroke="midnightblue" d="M2063.82,-232.28C1931.53,-230.11 1631.76,-221.5 1601,-188 1594.99,-181.45 1596.23,-175.5 1601,-168 1621.28,-136.13 1657.72,-163.87 1678,-132 1682.77,-124.5 1683.87,-118.68 1678,-112 1668.58,-101.29 1487.18,-82.26 1389.73,-72.75"/>
<polygon fill="midnightblue" stroke="midnightblue" points="2064.13,-235.79 2074.19,-232.45 2064.24,-228.79 2064.13,-235.79"/>
</g>
<!-- Node21 -->
<g id="node21" class="node">
<title>Node21</title>
<g id="a_node21"><a xlink:href="../../d0/df1/cswordkey_8cpp.html" target="_top" xlink:title=" ">
<polygon fill="white" stroke="black" points="1609.5,-168.5 1609.5,-187.5 1696.5,-187.5 1696.5,-168.5 1609.5,-168.5"/>
<text text-anchor="middle" x="1653" y="-175.5" font-family="Helvetica,sans-Serif" font-size="10.00">cswordkey.cpp</text>
</a>
</g>
</g>
<!-- Node1&#45;&gt;Node21 -->
<g id="edge27" class="edge">
<title>Node1&#45;&gt;Node21</title>
<path fill="none" stroke="midnightblue" d="M2064.33,-227.59C1982.33,-220.12 1832.96,-205.56 1706,-188 1702.95,-187.58 1699.8,-187.12 1696.64,-186.63"/>
<polygon fill="midnightblue" stroke="midnightblue" points="2064.2,-231.09 2074.47,-228.51 2064.83,-224.12 2064.2,-231.09"/>
</g>
<!-- Node22 -->
<g id="node22" class="node">
<title>Node22</title>
<g id="a_node22"><a xlink:href="../../d7/dfe/referencemanager_8cpp.html" target="_top" xlink:title=" ">
<polygon fill="white" stroke="black" points="1715,-168.5 1715,-187.5 1841,-187.5 1841,-168.5 1715,-168.5"/>
<text text-anchor="middle" x="1778" y="-175.5" font-family="Helvetica,sans-Serif" font-size="10.00">referencemanager.cpp</text>
</a>
</g>
</g>
<!-- Node1&#45;&gt;Node22 -->
<g id="edge29" class="edge">
<title>Node1&#45;&gt;Node22</title>
<path fill="none" stroke="midnightblue" d="M2064.07,-223.39C1998.42,-213.2 1895.72,-197.27 1832.88,-187.52"/>
<polygon fill="midnightblue" stroke="midnightblue" points="2063.86,-226.9 2074.28,-224.97 2064.93,-219.98 2063.86,-226.9"/>
</g>
<!-- Node23 -->
<g id="node23" class="node">
<title>Node23</title>
<g id="a_node23"><a xlink:href="../../df/d72/btmoduletextmodel_8h.html" target="_top" xlink:title=" ">
<polygon fill="white" stroke="black" points="1859,-168.5 1859,-187.5 1981,-187.5 1981,-168.5 1859,-168.5"/>
<text text-anchor="middle" x="1920" y="-175.5" font-family="Helvetica,sans-Serif" font-size="10.00">btmoduletextmodel.h</text>
</a>
</g>
</g>
<!-- Node1&#45;&gt;Node23 -->
<g id="edge30" class="edge">
<title>Node1&#45;&gt;Node23</title>
<path fill="none" stroke="midnightblue" d="M2083.38,-221.83C2044.49,-211.63 1987.84,-196.78 1952.49,-187.52"/>
<polygon fill="midnightblue" stroke="midnightblue" points="2082.8,-225.29 2093.36,-224.44 2084.57,-218.52 2082.8,-225.29"/>
</g>
<!-- Node33 -->
<g id="node33" class="node">
<title>Node33</title>
<g id="a_node33"><a xlink:href="../../dc/d52/cdisplayrendering_8cpp.html" target="_top" xlink:title=" ">
<polygon fill="white" stroke="black" points="1999,-168.5 1999,-187.5 2123,-187.5 2123,-168.5 1999,-168.5"/>
<text text-anchor="middle" x="2061" y="-175.5" font-family="Helvetica,sans-Serif" font-size="10.00">cdisplayrendering.cpp</text>
</a>
</g>
</g>
<!-- Node1&#45;&gt;Node33 -->
<g id="edge47" class="edge">
<title>Node1&#45;&gt;Node33</title>
<path fill="none" stroke="midnightblue" d="M2107.73,-217.82C2096.08,-208.15 2081.4,-195.95 2071.63,-187.83"/>
<polygon fill="midnightblue" stroke="midnightblue" points="2105.63,-220.63 2115.56,-224.32 2110.1,-215.24 2105.63,-220.63"/>
</g>
<!-- Node34 -->
<g id="node34" class="node">
<title>Node34</title>
<g id="a_node34"><a xlink:href="../../da/d21/centrydisplay_8cpp.html" target="_top" xlink:title=" ">
<polygon fill="white" stroke="black" points="2141.5,-168.5 2141.5,-187.5 2242.5,-187.5 2242.5,-168.5 2141.5,-168.5"/>
<text text-anchor="middle" x="2192" y="-175.5" font-family="Helvetica,sans-Serif" font-size="10.00">centrydisplay.cpp</text>
</a>
</g>
</g>
<!-- Node1&#45;&gt;Node34 -->
<g id="edge48" class="edge">
<title>Node1&#45;&gt;Node34</title>
<path fill="none" stroke="midnightblue" d="M2144.55,-217.82C2156.38,-208.15 2171.29,-195.95 2181.2,-187.83"/>
<polygon fill="midnightblue" stroke="midnightblue" points="2142.13,-215.28 2136.6,-224.32 2146.56,-220.7 2142.13,-215.28"/>
</g>
<!-- Node35 -->
<g id="node35" class="node">
<title>Node35</title>
<g id="a_node35"><a xlink:href="../../d5/d19/crossrefrendering_8cpp.html" target="_top" xlink:title=" ">
<polygon fill="white" stroke="black" points="2261,-168.5 2261,-187.5 2383,-187.5 2383,-168.5 2261,-168.5"/>
<text text-anchor="middle" x="2322" y="-175.5" font-family="Helvetica,sans-Serif" font-size="10.00">crossrefrendering.cpp</text>
</a>
</g>
</g>
<!-- Node1&#45;&gt;Node35 -->
<g id="edge49" class="edge">
<title>Node1&#45;&gt;Node35</title>
<path fill="none" stroke="midnightblue" d="M2167.02,-221.7C2204.01,-211.51 2257.6,-196.74 2291.09,-187.52"/>
<polygon fill="midnightblue" stroke="midnightblue" points="2165.77,-218.41 2157.06,-224.44 2167.63,-225.16 2165.77,-218.41"/>
</g>
<!-- Node36 -->
<g id="node36" class="node">
<title>Node36</title>
<g id="a_node36"><a xlink:href="../../db/d72/ctextrendering_8cpp.html" target="_top" xlink:title=" ">
<polygon fill="white" stroke="black" points="2401,-168.5 2401,-187.5 2509,-187.5 2509,-168.5 2401,-168.5"/>
<text text-anchor="middle" x="2455" y="-175.5" font-family="Helvetica,sans-Serif" font-size="10.00">ctextrendering.cpp</text>
</a>
</g>
</g>
<!-- Node1&#45;&gt;Node36 -->
<g id="edge50" class="edge">
<title>Node1&#45;&gt;Node36</title>
<path fill="none" stroke="midnightblue" d="M2187.83,-222.85C2249.95,-212.66 2344.61,-197.12 2402.99,-187.54"/>
<polygon fill="midnightblue" stroke="midnightblue" points="2187.07,-219.43 2177.77,-224.5 2188.2,-226.34 2187.07,-219.43"/>
</g>
<!-- Node37 -->
<g id="node37" class="node">
<title>Node37</title>
<g id="a_node37"><a xlink:href="../../d3/d8e/btsearchoptionsarea_8h.html" target="_top" xlink:title=" ">
<polygon fill="white" stroke="black" points="2603.5,-168.5 2603.5,-187.5 2728.5,-187.5 2728.5,-168.5 2603.5,-168.5"/>
<text text-anchor="middle" x="2666" y="-175.5" font-family="Helvetica,sans-Serif" font-size="10.00">btsearchoptionsarea.h</text>
</a>
</g>
</g>
<!-- Node1&#45;&gt;Node37 -->
<g id="edge52" class="edge">
<title>Node1&#45;&gt;Node37</title>
<path fill="none" stroke="midnightblue" d="M2187.93,-227.37C2276.78,-219.2 2445.52,-203.36 2589,-188 2593.68,-187.5 2598.53,-186.97 2603.4,-186.42"/>
<polygon fill="midnightblue" stroke="midnightblue" points="2187.4,-223.9 2177.76,-228.3 2188.04,-230.87 2187.4,-223.9"/>
</g>
<!-- Node39 -->
<g id="node39" class="node">
<title>Node39</title>
<g id="a_node39"><a xlink:href="../../d6/d96/bibletime__slots_8cpp.html" target="_top" xlink:title=" ">
<polygon fill="white" stroke="black" points="2352,-56.5 2352,-75.5 2464,-75.5 2464,-56.5 2352,-56.5"/>
<text text-anchor="middle" x="2408" y="-63.5" font-family="Helvetica,sans-Serif" font-size="10.00">bibletime_slots.cpp</text>
</a>
</g>
</g>
<!-- Node1&#45;&gt;Node39 -->
<g id="edge61" class="edge">
<title>Node1&#45;&gt;Node39</title>
<path fill="none" stroke="midnightblue" d="M2187.74,-230.35C2292.63,-225.2 2496.43,-212.18 2518,-188 2554.08,-147.54 2486.54,-171.15 2445,-132 2427.61,-115.61 2416.1,-89.2 2411.01,-75.64"/>
<polygon fill="midnightblue" stroke="midnightblue" points="2187.42,-226.86 2177.6,-230.83 2187.76,-233.85 2187.42,-226.86"/>
</g>
<!-- Node41 -->
<g id="node41" class="node">
<title>Node41</title>
<g id="a_node41"><a xlink:href="../../d2/d1a/csearchdialog_8cpp.html" target="_top" xlink:title=" ">
<polygon fill="white" stroke="black" points="2620,-56.5 2620,-75.5 2724,-75.5 2724,-56.5 2620,-56.5"/>
<text text-anchor="middle" x="2672" y="-63.5" font-family="Helvetica,sans-Serif" font-size="10.00">csearchdialog.cpp</text>
</a>
</g>
</g>
<!-- Node1&#45;&gt;Node41 -->
<g id="edge71" class="edge">
<title>Node1&#45;&gt;Node41</title>
<path fill="none" stroke="midnightblue" d="M2188.08,-232.11C2287.91,-229.72 2478.82,-220.85 2537,-188 2574,-167.11 2563.17,-140.14 2595,-112 2612.63,-96.41 2636.47,-83.47 2652.93,-75.53"/>
<polygon fill="midnightblue" stroke="midnightblue" points="2187.76,-228.62 2177.84,-232.35 2187.91,-235.62 2187.76,-228.62"/>
</g>
<!-- Node43 -->
<g id="node43" class="node">
<title>Node43</title>
<g id="a_node43"><a xlink:href="../../d0/dae/btprinter_8cpp.html" target="_top" xlink:title=" ">
<polygon fill="white" stroke="black" points="2747,-168.5 2747,-187.5 2825,-187.5 2825,-168.5 2747,-168.5"/>
<text text-anchor="middle" x="2786" y="-175.5" font-family="Helvetica,sans-Serif" font-size="10.00">btprinter.cpp</text>
</a>
</g>
</g>
<!-- Node1&#45;&gt;Node43 -->
<g id="edge62" class="edge">
<title>Node1&#45;&gt;Node43</title>
<path fill="none" stroke="midnightblue" d="M2188.1,-230.73C2298.92,-226.18 2537.92,-214.03 2738,-188 2740.86,-187.63 2743.8,-187.2 2746.76,-186.73"/>
<polygon fill="midnightblue" stroke="midnightblue" points="2187.63,-227.25 2177.78,-231.15 2187.91,-234.24 2187.63,-227.25"/>
</g>
<!-- Node44 -->
<g id="node44" class="node">
<title>Node44</title>
<g id="a_node44"><a xlink:href="../../d5/deb/cexportmanager_8cpp.html" target="_top" xlink:title=" ">
<polygon fill="white" stroke="black" points="2843,-168.5 2843,-187.5 2959,-187.5 2959,-168.5 2843,-168.5"/>
<text text-anchor="middle" x="2901" y="-175.5" font-family="Helvetica,sans-Serif" font-size="10.00">cexportmanager.cpp</text>
</a>
</g>
</g>
<!-- Node1&#45;&gt;Node44 -->
<g id="edge63" class="edge">
<title>Node1&#45;&gt;Node44</title>
<path fill="none" stroke="midnightblue" d="M2187.99,-230.52C2311.25,-225.27 2595.81,-211.54 2834,-188 2836.92,-187.71 2839.91,-187.39 2842.92,-187.05"/>
<polygon fill="midnightblue" stroke="midnightblue" points="2187.47,-227.04 2177.62,-230.96 2187.76,-234.03 2187.47,-227.04"/>
</g>
<!-- Node45 -->
<g id="node45" class="node">
<title>Node45</title>
<g id="a_node45"><a xlink:href="../../d5/d80/cinfodisplay_8cpp.html" target="_top" xlink:title=" ">
<polygon fill="white" stroke="black" points="2977.5,-168.5 2977.5,-187.5 3072.5,-187.5 3072.5,-168.5 2977.5,-168.5"/>
<text text-anchor="middle" x="3025" y="-175.5" font-family="Helvetica,sans-Serif" font-size="10.00">cinfodisplay.cpp</text>
</a>
</g>
</g>
<!-- Node1&#45;&gt;Node45 -->
<g id="edge64" class="edge">
<title>Node1&#45;&gt;Node45</title>
<path fill="none" stroke="midnightblue" d="M2187.97,-231.88C2327.57,-228.86 2677.2,-218.65 2968,-188 2971.09,-187.67 2974.27,-187.3 2977.46,-186.88"/>
<polygon fill="midnightblue" stroke="midnightblue" points="2187.81,-228.38 2177.89,-232.09 2187.96,-235.38 2187.81,-228.38"/>
</g>
<!-- Node46 -->
<g id="node46" class="node">
<title>Node46</title>
<g id="a_node46"><a xlink:href="../../d0/d6f/ccommentaryreadwindow_8cpp.html" target="_top" xlink:title=" ">
<polygon fill="white" stroke="black" points="3090.5,-168.5 3090.5,-187.5 3253.5,-187.5 3253.5,-168.5 3090.5,-168.5"/>
<text text-anchor="middle" x="3172" y="-175.5" font-family="Helvetica,sans-Serif" font-size="10.00">ccommentaryreadwindow.cpp</text>
</a>
</g>
</g>
<!-- Node1&#45;&gt;Node46 -->
<g id="edge66" class="edge">
<title>Node1&#45;&gt;Node46</title>
<path fill="none" stroke="midnightblue" d="M2187.69,-231.22C2339.79,-226.59 2744.86,-212.77 3082,-188 3084.66,-187.8 3087.37,-187.6 3090.1,-187.37"/>
<polygon fill="midnightblue" stroke="midnightblue" points="2187.5,-227.73 2177.61,-231.53 2187.71,-234.72 2187.5,-227.73"/>
</g>
<!-- Node47 -->
<g id="node47" class="node">
<title>Node47</title>
<g id="a_node47"><a xlink:href="../../d6/dd0/csearchanalysisscene_8cpp.html" target="_top" xlink:title=" ">
<polygon fill="white" stroke="black" points="3271.5,-168.5 3271.5,-187.5 3414.5,-187.5 3414.5,-168.5 3271.5,-168.5"/>
<text text-anchor="middle" x="3343" y="-175.5" font-family="Helvetica,sans-Serif" font-size="10.00">csearchanalysisscene.cpp</text>
</a>
</g>
</g>
<!-- Node1&#45;&gt;Node47 -->
<g id="edge69" class="edge">
<title>Node1&#45;&gt;Node47</title>
<path fill="none" stroke="midnightblue" d="M2187.71,-232.13C2358.75,-229.37 2853.27,-219.11 3263,-188 3265.79,-187.79 3268.63,-187.55 3271.49,-187.3"/>
<polygon fill="midnightblue" stroke="midnightblue" points="2187.58,-228.63 2177.64,-232.29 2187.69,-235.63 2187.58,-228.63"/>
</g>
<!-- Node48 -->
<g id="node48" class="node">
<title>Node48</title>
<g id="a_node48"><a xlink:href="../../dd/dde/btsearchresultarea_8cpp.html" target="_top" xlink:title=" ">
<polygon fill="white" stroke="black" points="3433,-168.5 3433,-187.5 3561,-187.5 3561,-168.5 3433,-168.5"/>
<text text-anchor="middle" x="3497" y="-175.5" font-family="Helvetica,sans-Serif" font-size="10.00">btsearchresultarea.cpp</text>
</a>
</g>
</g>
<!-- Node1&#45;&gt;Node48 -->
<g id="edge70" class="edge">
<title>Node1&#45;&gt;Node48</title>
<path fill="none" stroke="midnightblue" d="M2187.9,-232.79C2374.75,-231.72 2949.4,-225.41 3424,-188 3426.93,-187.77 3429.92,-187.51 3432.94,-187.22"/>
<polygon fill="midnightblue" stroke="midnightblue" points="2187.7,-229.29 2177.72,-232.84 2187.74,-236.29 2187.7,-229.29"/>
</g>
<!-- Node49 -->
<g id="node49" class="node">
<title>Node49</title>
<g id="a_node49"><a xlink:href="../../db/d51/csearchresultview_8cpp.html" target="_top" xlink:title=" ">
<polygon fill="white" stroke="black" points="3579.5,-168.5 3579.5,-187.5 3704.5,-187.5 3704.5,-168.5 3579.5,-168.5"/>
<text text-anchor="middle" x="3642" y="-175.5" font-family="Helvetica,sans-Serif" font-size="10.00">csearchresultview.cpp</text>
</a>
</g>
</g>
<!-- Node1&#45;&gt;Node49 -->
<g id="edge72" class="edge">
<title>Node1&#45;&gt;Node49</title>
<path fill="none" stroke="midnightblue" d="M2187.59,-233.13C2387.42,-233.11 3035.73,-229.63 3570,-188 3573.01,-187.77 3576.1,-187.5 3579.21,-187.2"/>
<polygon fill="midnightblue" stroke="midnightblue" points="2187.58,-229.63 2177.57,-233.13 2187.57,-236.63 2187.58,-229.63"/>
</g>
<!-- Node4 -->
<g id="node4" class="node">
<title>Node4</title>
<g id="a_node4"><a xlink:href="../../d4/d94/cswordbiblemoduleinfo_8cpp.html" target="_top" xlink:title=" ">
<polygon fill="white" stroke="black" points="848.5,-112.5 848.5,-131.5 999.5,-131.5 999.5,-112.5 848.5,-112.5"/>
<text text-anchor="middle" x="924" y="-119.5" font-family="Helvetica,sans-Serif" font-size="10.00">cswordbiblemoduleinfo.cpp</text>
</a>
</g>
</g>
<!-- Node3&#45;&gt;Node4 -->
<g id="edge3" class="edge">
<title>Node3&#45;&gt;Node4</title>
<path fill="none" stroke="midnightblue" d="M845.83,-163.59C865.06,-153.61 890.74,-140.27 907.33,-131.65"/>
<polygon fill="midnightblue" stroke="midnightblue" points="843.97,-160.61 836.71,-168.32 847.2,-166.82 843.97,-160.61"/>
</g>
<!-- Node5 -->
<g id="node5" class="node">
<title>Node5</title>
<g id="a_node5"><a xlink:href="../../de/dcf/cswordcommentarymoduleinfo_8h.html" target="_top" xlink:title=" ">
<polygon fill="white" stroke="black" points="264,-112.5 264,-131.5 442,-131.5 442,-112.5 264,-112.5"/>
<text text-anchor="middle" x="353" y="-119.5" font-family="Helvetica,sans-Serif" font-size="10.00">cswordcommentarymoduleinfo.h</text>
</a>
</g>
</g>
<!-- Node3&#45;&gt;Node5 -->
<g id="edge4" class="edge">
<title>Node3&#45;&gt;Node5</title>
<path fill="none" stroke="midnightblue" d="M739.64,-167.71C651.73,-157.54 512,-141.39 426.78,-131.53"/>
<polygon fill="midnightblue" stroke="midnightblue" points="739.5,-171.21 749.83,-168.89 740.3,-164.26 739.5,-171.21"/>
</g>
<!-- Node3&#45;&gt;Node7 -->
<g id="edge11" class="edge">
<title>Node3&#45;&gt;Node7</title>
<path fill="none" stroke="midnightblue" d="M739.74,-174.12C601.73,-168.61 325.2,-155.07 231,-132 204.03,-125.39 130.99,-91.64 96.93,-75.55"/>
<polygon fill="midnightblue" stroke="midnightblue" points="739.7,-177.62 749.83,-174.51 739.98,-170.62 739.7,-177.62"/>
</g>
<!-- Node8 -->
<g id="node8" class="node">
<title>Node8</title>
<g id="a_node8"><a xlink:href="../../d9/d7b/cswordbackend_8cpp.html" target="_top" xlink:title=" ">
<polygon fill="white" stroke="black" points="154,-56.5 154,-75.5 266,-75.5 266,-56.5 154,-56.5"/>
<text text-anchor="middle" x="210" y="-63.5" font-family="Helvetica,sans-Serif" font-size="10.00">cswordbackend.cpp</text>
</a>
</g>
</g>
<!-- Node3&#45;&gt;Node8 -->
<g id="edge12" class="edge">
<title>Node3&#45;&gt;Node8</title>
<path fill="none" stroke="midnightblue" d="M739.71,-174.4C593.71,-169.11 295.96,-155.58 255,-132 232.64,-119.13 218.85,-90.11 213.1,-75.6"/>
<polygon fill="midnightblue" stroke="midnightblue" points="739.84,-177.91 749.95,-174.76 740.09,-170.91 739.84,-177.91"/>
</g>
<!-- Node3&#45;&gt;Node9 -->
<g id="edge15" class="edge">
<title>Node3&#45;&gt;Node9</title>
<path fill="none" stroke="midnightblue" d="M900.35,-174.97C973.47,-171.23 1083.61,-160.8 1175,-132 1193.2,-126.26 1194.92,-118.12 1213,-112 1253.61,-98.26 1372.45,-81.06 1436.3,-72.45"/>
<polygon fill="midnightblue" stroke="midnightblue" points="900.11,-171.48 890.29,-175.46 900.45,-178.47 900.11,-171.48"/>
</g>
<!-- Node10 -->
<g id="node10" class="node">
<title>Node10</title>
<g id="a_node10"><a xlink:href="../../d4/d0c/ckeychooser_8cpp.html" target="_top" xlink:title=" ">
<polygon fill="white" stroke="black" points="491.5,-56.5 491.5,-75.5 588.5,-75.5 588.5,-56.5 491.5,-56.5"/>
<text text-anchor="middle" x="540" y="-63.5" font-family="Helvetica,sans-Serif" font-size="10.00">ckeychooser.cpp</text>
</a>
</g>
</g>
<!-- Node3&#45;&gt;Node10 -->
<g id="edge18" class="edge">
<title>Node3&#45;&gt;Node10</title>
<path fill="none" stroke="midnightblue" d="M739.64,-177.49C653.61,-176.1 525.23,-167.84 494,-132 477.56,-113.14 507.36,-88.45 526.24,-75.61"/>
<polygon fill="midnightblue" stroke="midnightblue" points="739.61,-180.99 749.65,-177.63 739.7,-173.99 739.61,-180.99"/>
</g>
<!-- Node11 -->
<g id="node11" class="node">
<title>Node11</title>
<g id="a_node11"><a xlink:href="../../d3/db9/cswordmoduleinfo_8cpp.html" target="_top" xlink:title=" ">
<polygon fill="white" stroke="black" points="664.5,-112.5 664.5,-131.5 791.5,-131.5 791.5,-112.5 664.5,-112.5"/>
<text text-anchor="middle" x="728" y="-119.5" font-family="Helvetica,sans-Serif" font-size="10.00">cswordmoduleinfo.cpp</text>
</a>
</g>
</g>
<!-- Node3&#45;&gt;Node11 -->
<g id="edge10" class="edge">
<title>Node3&#45;&gt;Node11</title>
<path fill="none" stroke="midnightblue" d="M796.45,-163.18C779.52,-153.24 757.22,-140.15 742.74,-131.65"/>
<polygon fill="midnightblue" stroke="midnightblue" points="794.82,-166.28 805.22,-168.32 798.37,-160.24 794.82,-166.28"/>
</g>
<!-- Node3&#45;&gt;Node12 -->
<g id="edge13" class="edge">
<title>Node3&#45;&gt;Node12</title>
<path fill="none" stroke="midnightblue" d="M900.51,-171.88C1026.05,-163.82 1276.02,-147.51 1488,-132 1503.15,-130.89 1519.42,-129.64 1534.8,-128.43"/>
<polygon fill="midnightblue" stroke="midnightblue" points="899.98,-168.4 890.23,-172.54 900.43,-175.39 899.98,-168.4"/>
</g>
<!-- Node3&#45;&gt;Node13 -->
<g id="edge14" class="edge">
<title>Node3&#45;&gt;Node13</title>
<path fill="none" stroke="midnightblue" d="M900.42,-167.93C978.91,-159.01 1101.7,-144.9 1208,-132 1212.69,-131.43 1217.55,-130.83 1222.43,-130.23"/>
<polygon fill="midnightblue" stroke="midnightblue" points="899.66,-164.49 890.12,-169.09 900.45,-171.44 899.66,-164.49"/>
</g>
<!-- Node14 -->
<g id="node14" class="node">
<title>Node14</title>
<g id="a_node14"><a xlink:href="../../de/db2/btmodelviewreaddisplay_8cpp.html" target="_top" xlink:title=" ">
<polygon fill="white" stroke="black" points="1128,-0.5 1128,-19.5 1284,-19.5 1284,-0.5 1128,-0.5"/>
<text text-anchor="middle" x="1206" y="-7.5" font-family="Helvetica,sans-Serif" font-size="10.00">btmodelviewreaddisplay.cpp</text>
</a>
</g>
</g>
<!-- Node3&#45;&gt;Node14 -->
<g id="edge16" class="edge">
<title>Node3&#45;&gt;Node14</title>
<path fill="none" stroke="midnightblue" d="M739.73,-175.99C662.62,-173.11 553.94,-163.4 527,-132 521.21,-125.25 521.35,-118.86 527,-112 564.88,-66.05 957.52,-30.28 1127.86,-16.81"/>
<polygon fill="midnightblue" stroke="midnightblue" points="739.8,-179.49 749.92,-176.33 740.04,-172.49 739.8,-179.49"/>
</g>
<!-- Node3&#45;&gt;Node15 -->
<g id="edge17" class="edge">
<title>Node3&#45;&gt;Node15</title>
<path fill="none" stroke="midnightblue" d="M900.01,-171.1C1002.86,-163.29 1186.92,-148.56 1344,-132 1347.01,-131.68 1350.08,-131.35 1353.19,-131"/>
<polygon fill="midnightblue" stroke="midnightblue" points="899.71,-167.61 890.01,-171.85 900.24,-174.59 899.71,-167.61"/>
</g>
<!-- Node16 -->
<g id="node16" class="node">
<title>Node16</title>
<g id="a_node16"><a xlink:href="../../d7/d2f/cbiblekeychooser_8h.html" target="_top" xlink:title=" ">
<polygon fill="white" stroke="black" points="536,-112.5 536,-131.5 646,-131.5 646,-112.5 536,-112.5"/>
<text text-anchor="middle" x="591" y="-119.5" font-family="Helvetica,sans-Serif" font-size="10.00">cbiblekeychooser.h</text>
</a>
</g>
</g>
<!-- Node3&#45;&gt;Node16 -->
<g id="edge19" class="edge">
<title>Node3&#45;&gt;Node16</title>
<path fill="none" stroke="midnightblue" d="M773.73,-166.09C730.46,-155.89 666.74,-140.86 627.12,-131.52"/>
<polygon fill="midnightblue" stroke="midnightblue" points="773.18,-169.55 783.71,-168.44 774.78,-162.74 773.18,-169.55"/>
</g>
<!-- Node3&#45;&gt;Node17 -->
<g id="edge26" class="edge">
<title>Node3&#45;&gt;Node17</title>
<path fill="none" stroke="midnightblue" d="M822.83,-158.38C825.49,-144.8 830.4,-126.33 839,-112 847.85,-97.25 862.7,-83.96 873.13,-75.71"/>
<polygon fill="midnightblue" stroke="midnightblue" points="819.34,-158 821.09,-168.45 826.24,-159.19 819.34,-158"/>
</g>
<!-- Node18 -->
<g id="node18" class="node">
<title>Node18</title>
<g id="a_node18"><a xlink:href="../../db/dc9/btbiblekeywidget_8h.html" target="_top" xlink:title=" ">
<polygon fill="white" stroke="black" points="1056,-112.5 1056,-131.5 1166,-131.5 1166,-112.5 1056,-112.5"/>
<text text-anchor="middle" x="1111" y="-119.5" font-family="Helvetica,sans-Serif" font-size="10.00">btbiblekeywidget.h</text>
</a>
</g>
</g>
<!-- Node3&#45;&gt;Node18 -->
<g id="edge22" class="edge">
<title>Node3&#45;&gt;Node18</title>
<path fill="none" stroke="midnightblue" d="M876.04,-166.6C931.04,-156.4 1013.9,-141.02 1065.11,-131.52"/>
<polygon fill="midnightblue" stroke="midnightblue" points="875.3,-163.18 866.11,-168.44 876.58,-170.06 875.3,-163.18"/>
</g>
<!-- Node6 -->
<g id="node6" class="node">
<title>Node6</title>
<g id="a_node6"><a xlink:href="../../d9/db8/cswordcommentarymoduleinfo_8cpp.html" target="_top" xlink:title=" ">
<polygon fill="white" stroke="black" points="284.5,-56.5 284.5,-75.5 473.5,-75.5 473.5,-56.5 284.5,-56.5"/>
<text text-anchor="middle" x="379" y="-63.5" font-family="Helvetica,sans-Serif" font-size="10.00">cswordcommentarymoduleinfo.cpp</text>
</a>
</g>
</g>
<!-- Node5&#45;&gt;Node6 -->
<g id="edge5" class="edge">
<title>Node5&#45;&gt;Node6</title>
<path fill="none" stroke="midnightblue" d="M361.67,-102.98C366.09,-93.82 371.25,-83.09 374.79,-75.75"/>
<polygon fill="midnightblue" stroke="midnightblue" points="358.48,-101.55 357.29,-112.08 364.79,-104.59 358.48,-101.55"/>
</g>
<!-- Node5&#45;&gt;Node7 -->
<g id="edge6" class="edge">
<title>Node5&#45;&gt;Node7</title>
<path fill="none" stroke="midnightblue" d="M299.59,-110.47C247.8,-100.27 170.23,-84.98 122.21,-75.52"/>
<polygon fill="midnightblue" stroke="midnightblue" points="299.1,-113.94 309.58,-112.44 300.45,-107.08 299.1,-113.94"/>
</g>
<!-- Node5&#45;&gt;Node8 -->
<g id="edge7" class="edge">
<title>Node5&#45;&gt;Node8</title>
<path fill="none" stroke="midnightblue" d="M320.97,-108.91C294.09,-98.75 256.36,-84.51 232.55,-75.52"/>
<polygon fill="midnightblue" stroke="midnightblue" points="319.75,-112.19 330.34,-112.44 322.22,-105.64 319.75,-112.19"/>
</g>
<!-- Node5&#45;&gt;Node9 -->
<g id="edge8" class="edge">
<title>Node5&#45;&gt;Node9</title>
<path fill="none" stroke="midnightblue" d="M452.71,-115.66C477.01,-114.41 502.94,-113.12 527,-112 914.02,-93.99 1011.7,-105.68 1398,-76 1410.4,-75.05 1423.85,-73.67 1436.12,-72.28"/>
<polygon fill="midnightblue" stroke="midnightblue" points="452.21,-112.19 442.4,-116.2 452.57,-119.18 452.21,-112.19"/>
</g>
<!-- Node5&#45;&gt;Node10 -->
<g id="edge9" class="edge">
<title>Node5&#45;&gt;Node10</title>
<path fill="none" stroke="midnightblue" d="M392.59,-109.57C427.87,-99.38 478.69,-84.7 510.51,-75.52"/>
<polygon fill="midnightblue" stroke="midnightblue" points="391.27,-106.31 382.63,-112.44 393.21,-113.03 391.27,-106.31"/>
</g>
<!-- Node16&#45;&gt;Node10 -->
<g id="edge20" class="edge">
<title>Node16&#45;&gt;Node10</title>
<path fill="none" stroke="midnightblue" d="M575.62,-104.72C566.63,-95.2 555.64,-83.56 548.26,-75.75"/>
<polygon fill="midnightblue" stroke="midnightblue" points="573.17,-107.22 582.58,-112.08 578.26,-102.41 573.17,-107.22"/>
</g>
<!-- Node16&#45;&gt;Node17 -->
<g id="edge21" class="edge">
<title>Node16&#45;&gt;Node17</title>
<path fill="none" stroke="midnightblue" d="M647.62,-110.6C703.18,-100.4 786.9,-85.02 838.63,-75.52"/>
<polygon fill="midnightblue" stroke="midnightblue" points="646.79,-107.19 637.59,-112.44 648.05,-114.08 646.79,-107.19"/>
</g>
<!-- Node18&#45;&gt;Node17 -->
<g id="edge25" class="edge">
<title>Node18&#45;&gt;Node17</title>
<path fill="none" stroke="midnightblue" d="M1065.33,-110.09C1022.64,-99.89 959.75,-84.86 920.64,-75.52"/>
<polygon fill="midnightblue" stroke="midnightblue" points="1064.65,-113.52 1075.19,-112.44 1066.28,-106.72 1064.65,-113.52"/>
</g>
<!-- Node18&#45;&gt;Node19 -->
<g id="edge23" class="edge">
<title>Node18&#45;&gt;Node19</title>
<path fill="none" stroke="midnightblue" d="M1155.31,-110.02C1196.49,-99.82 1256.97,-84.84 1294.62,-75.52"/>
<polygon fill="midnightblue" stroke="midnightblue" points="1154.41,-106.64 1145.54,-112.44 1156.09,-113.44 1154.41,-106.64"/>
</g>
<!-- Node20 -->
<g id="node20" class="node">
<title>Node20</title>
<g id="a_node20"><a xlink:href="../../df/dae/btdropdownchooserbutton_8cpp.html" target="_top" xlink:title=" ">
<polygon fill="white" stroke="black" points="1029,-56.5 1029,-75.5 1193,-75.5 1193,-56.5 1029,-56.5"/>
<text text-anchor="middle" x="1111" y="-63.5" font-family="Helvetica,sans-Serif" font-size="10.00">btdropdownchooserbutton.cpp</text>
</a>
</g>
</g>
<!-- Node18&#45;&gt;Node20 -->
<g id="edge24" class="edge">
<title>Node18&#45;&gt;Node20</title>
<path fill="none" stroke="midnightblue" d="M1111,-101.8C1111,-92.91 1111,-82.78 1111,-75.75"/>
<polygon fill="midnightblue" stroke="midnightblue" points="1107.5,-102.08 1111,-112.08 1114.5,-102.08 1107.5,-102.08"/>
</g>
<!-- Node23&#45;&gt;Node12 -->
<g id="edge31" class="edge">
<title>Node23&#45;&gt;Node12</title>
<path fill="none" stroke="midnightblue" d="M1859.51,-166.73C1799.41,-156.52 1708.34,-141.06 1652.15,-131.52"/>
<polygon fill="midnightblue" stroke="midnightblue" points="1859.17,-170.22 1869.61,-168.44 1860.34,-163.32 1859.17,-170.22"/>
</g>
<!-- Node24 -->
<g id="node24" class="node">
<title>Node24</title>
<g id="a_node24"><a xlink:href="../../d3/d2f/btcopybyreferencesdialog_8cpp.html" target="_top" xlink:title=" ">
<polygon fill="white" stroke="black" points="1727,-112.5 1727,-131.5 1891,-131.5 1891,-112.5 1727,-112.5"/>
<text text-anchor="middle" x="1809" y="-119.5" font-family="Helvetica,sans-Serif" font-size="10.00">btcopybyreferencesdialog.cpp</text>
</a>
</g>
</g>
<!-- Node23&#45;&gt;Node24 -->
<g id="edge32" class="edge">
<title>Node23&#45;&gt;Node24</title>
<path fill="none" stroke="midnightblue" d="M1892.99,-163.86C1872.41,-153.85 1844.66,-140.35 1826.79,-131.65"/>
<polygon fill="midnightblue" stroke="midnightblue" points="1891.64,-167.1 1902.17,-168.32 1894.7,-160.8 1891.64,-167.1"/>
</g>
<!-- Node25 -->
<g id="node25" class="node">
<title>Node25</title>
<g id="a_node25"><a xlink:href="../../d1/d9d/bttextfilter_8h.html" target="_top" xlink:title=" ">
<polygon fill="white" stroke="black" points="1968.5,-112.5 1968.5,-131.5 2045.5,-131.5 2045.5,-112.5 1968.5,-112.5"/>
<text text-anchor="middle" x="2007" y="-119.5" font-family="Helvetica,sans-Serif" font-size="10.00">bttextfilter.h</text>
</a>
</g>
</g>
<!-- Node23&#45;&gt;Node25 -->
<g id="edge33" class="edge">
<title>Node23&#45;&gt;Node25</title>
<path fill="none" stroke="midnightblue" d="M1942.72,-162.9C1958.67,-153 1979.5,-140.07 1993.06,-131.65"/>
<polygon fill="midnightblue" stroke="midnightblue" points="1940.63,-160.08 1933.98,-168.32 1944.32,-166.02 1940.63,-160.08"/>
</g>
<!-- Node27 -->
<g id="node27" class="node">
<title>Node27</title>
<g id="a_node27"><a xlink:href="../../de/d6e/btqmlinterface_8cpp.html" target="_top" xlink:title=" ">
<polygon fill="white" stroke="black" points="2250.5,-0.5 2250.5,-19.5 2359.5,-19.5 2359.5,-0.5 2250.5,-0.5"/>
<text text-anchor="middle" x="2305" y="-7.5" font-family="Helvetica,sans-Serif" font-size="10.00">btqmlinterface.cpp</text>
</a>
</g>
</g>
<!-- Node23&#45;&gt;Node27 -->
<g id="edge43" class="edge">
<title>Node23&#45;&gt;Node27</title>
<path fill="none" stroke="midnightblue" d="M1959.82,-165.6C2014.85,-149.16 2116.55,-116.31 2198,-76 2233.65,-58.36 2273.01,-32.72 2292.56,-19.54"/>
<polygon fill="midnightblue" stroke="midnightblue" points="1958.7,-162.28 1950.11,-168.47 1960.69,-168.99 1958.7,-162.28"/>
</g>
<!-- Node28 -->
<g id="node28" class="node">
<title>Node28</title>
<g id="a_node28"><a xlink:href="../../de/db9/btqmlscrollview_8cpp.html" target="_top" xlink:title=" ">
<polygon fill="white" stroke="black" points="1862,-0.5 1862,-19.5 1976,-19.5 1976,-0.5 1862,-0.5"/>
<text text-anchor="middle" x="1919" y="-7.5" font-family="Helvetica,sans-Serif" font-size="10.00">btqmlscrollview.cpp</text>
</a>
</g>
</g>
<!-- Node23&#45;&gt;Node28 -->
<g id="edge44" class="edge">
<title>Node23&#45;&gt;Node28</title>
<path fill="none" stroke="midnightblue" d="M1919.89,-157.93C1919.67,-121.92 1919.21,-45.23 1919.05,-19.57"/>
<polygon fill="midnightblue" stroke="midnightblue" points="1916.39,-158.1 1919.95,-168.08 1923.39,-158.05 1916.39,-158.1"/>
</g>
<!-- Node26 -->
<g id="node26" class="node">
<title>Node26</title>
<g id="a_node26"><a xlink:href="../../d1/d48/btqmlinterface_8h.html" target="_top" xlink:title=" ">
<polygon fill="white" stroke="black" points="2091,-56.5 2091,-75.5 2189,-75.5 2189,-56.5 2091,-56.5"/>
<text text-anchor="middle" x="2140" y="-63.5" font-family="Helvetica,sans-Serif" font-size="10.00">btqmlinterface.h</text>
</a>
</g>
</g>
<!-- Node25&#45;&gt;Node26 -->
<g id="edge34" class="edge">
<title>Node25&#45;&gt;Node26</title>
<path fill="none" stroke="midnightblue" d="M2037.45,-108.64C2062.41,-98.5 2097.08,-84.43 2119.02,-75.52"/>
<polygon fill="midnightblue" stroke="midnightblue" points="2036.02,-105.44 2028.07,-112.44 2038.66,-111.92 2036.02,-105.44"/>
</g>
<!-- Node25&#45;&gt;Node28 -->
<g id="edge41" class="edge">
<title>Node25&#45;&gt;Node28</title>
<path fill="none" stroke="midnightblue" d="M1993.62,-104.27C1974.6,-80.49 1940.43,-37.79 1925.87,-19.59"/>
<polygon fill="midnightblue" stroke="midnightblue" points="1991.11,-106.75 2000.09,-112.37 1996.58,-102.37 1991.11,-106.75"/>
</g>
<!-- Node32 -->
<g id="node32" class="node">
<title>Node32</title>
<g id="a_node32"><a xlink:href="../../dc/dee/bttextfilter_8cpp.html" target="_top" xlink:title=" ">
<polygon fill="white" stroke="black" points="1985,-56.5 1985,-75.5 2073,-75.5 2073,-56.5 1985,-56.5"/>
<text text-anchor="middle" x="2029" y="-63.5" font-family="Helvetica,sans-Serif" font-size="10.00">bttextfilter.cpp</text>
</a>
</g>
</g>
<!-- Node25&#45;&gt;Node32 -->
<g id="edge42" class="edge">
<title>Node25&#45;&gt;Node32</title>
<path fill="none" stroke="midnightblue" d="M2014.46,-102.69C2018.17,-93.59 2022.48,-83.01 2025.43,-75.75"/>
<polygon fill="midnightblue" stroke="midnightblue" points="2011.16,-101.5 2010.63,-112.08 2017.65,-104.14 2011.16,-101.5"/>
</g>
<!-- Node26&#45;&gt;Node14 -->
<g id="edge35" class="edge">
<title>Node26&#45;&gt;Node14</title>
<path fill="none" stroke="midnightblue" d="M2080.79,-55.99C1780.64,-25.54 1435.77,-15.49 1284.14,-12.33"/>
<polygon fill="midnightblue" stroke="midnightblue" points="2080.69,-59.5 2091,-57.03 2081.41,-52.53 2080.69,-59.5"/>
</g>
<!-- Node26&#45;&gt;Node27 -->
<g id="edge36" class="edge">
<title>Node26&#45;&gt;Node27</title>
<path fill="none" stroke="midnightblue" d="M2175.74,-53.3C2206.83,-43.13 2251.15,-28.62 2278.98,-19.52"/>
<polygon fill="midnightblue" stroke="midnightblue" points="2174.56,-50.01 2166.14,-56.44 2176.74,-56.66 2174.56,-50.01"/>
</g>
<!-- Node26&#45;&gt;Node28 -->
<g id="edge37" class="edge">
<title>Node26&#45;&gt;Node28</title>
<path fill="none" stroke="midnightblue" d="M2095.08,-54.02C2053.33,-43.82 1992.02,-28.84 1953.85,-19.52"/>
<polygon fill="midnightblue" stroke="midnightblue" points="2094.44,-57.47 2104.98,-56.44 2096.1,-50.67 2094.44,-57.47"/>
</g>
<!-- Node29 -->
<g id="node29" class="node">
<title>Node29</title>
<g id="a_node29"><a xlink:href="../../d9/d0c/btquickwidget_8cpp.html" target="_top" xlink:title=" ">
<polygon fill="white" stroke="black" points="1994,-0.5 1994,-19.5 2100,-19.5 2100,-0.5 1994,-0.5"/>
<text text-anchor="middle" x="2047" y="-7.5" font-family="Helvetica,sans-Serif" font-size="10.00">btquickwidget.cpp</text>
</a>
</g>
</g>
<!-- Node26&#45;&gt;Node29 -->
<g id="edge38" class="edge">
<title>Node26&#45;&gt;Node29</title>
<path fill="none" stroke="midnightblue" d="M2116.19,-51.18C2099.08,-41.24 2076.53,-28.15 2061.9,-19.65"/>
<polygon fill="midnightblue" stroke="midnightblue" points="2114.65,-54.33 2125.06,-56.32 2118.17,-48.28 2114.65,-54.33"/>
</g>
<!-- Node30 -->
<g id="node30" class="node">
<title>Node30</title>
<g id="a_node30"><a xlink:href="../../d2/d26/cdisplaywindow_8cpp.html" target="_top" xlink:title=" ">
<polygon fill="white" stroke="black" points="2118,-0.5 2118,-19.5 2232,-19.5 2232,-0.5 2118,-0.5"/>
<text text-anchor="middle" x="2175" y="-7.5" font-family="Helvetica,sans-Serif" font-size="10.00">cdisplaywindow.cpp</text>
</a>
</g>
</g>
<!-- Node26&#45;&gt;Node30 -->
<g id="edge39" class="edge">
<title>Node26&#45;&gt;Node30</title>
<path fill="none" stroke="midnightblue" d="M2151.3,-47.57C2157.32,-38.27 2164.47,-27.25 2169.33,-19.75"/>
<polygon fill="midnightblue" stroke="midnightblue" points="2148.28,-45.79 2145.78,-56.08 2154.16,-49.6 2148.28,-45.79"/>
</g>
<!-- Node31 -->
<g id="node31" class="node">
<title>Node31</title>
<g id="a_node31"><a xlink:href="../../df/d0a/main_8cpp.html" target="_top" xlink:title=" ">
<polygon fill="white" stroke="black" points="2576,-0.5 2576,-19.5 2638,-19.5 2638,-0.5 2576,-0.5"/>
<text text-anchor="middle" x="2607" y="-7.5" font-family="Helvetica,sans-Serif" font-size="10.00">main.cpp</text>
</a>
</g>
</g>
<!-- Node26&#45;&gt;Node31 -->
<g id="edge40" class="edge">
<title>Node26&#45;&gt;Node31</title>
<path fill="none" stroke="midnightblue" d="M2199.05,-58.17C2299.21,-46.59 2499,-23.49 2575.87,-14.6"/>
<polygon fill="midnightblue" stroke="midnightblue" points="2198.63,-54.7 2189.09,-59.32 2199.43,-61.65 2198.63,-54.7"/>
</g>
<!-- Node37&#45;&gt;Node31 -->
<g id="edge58" class="edge">
<title>Node37&#45;&gt;Node31</title>
<path fill="none" stroke="midnightblue" d="M2719.67,-165.08C2737.15,-158.38 2754.69,-148.01 2765,-132 2769.81,-124.53 2767.28,-120.59 2765,-112 2757.64,-84.29 2754.97,-74.41 2733,-56 2705.58,-33.03 2665.55,-21.41 2638.01,-15.8"/>
<polygon fill="midnightblue" stroke="midnightblue" points="2718.3,-161.85 2710.01,-168.44 2720.6,-168.46 2718.3,-161.85"/>
</g>
<!-- Node38 -->
<g id="node38" class="node">
<title>Node38</title>
<g id="a_node38"><a xlink:href="../../d9/d67/csearchdialog_8h.html" target="_top" xlink:title=" ">
<polygon fill="white" stroke="black" points="2453.5,-112.5 2453.5,-131.5 2546.5,-131.5 2546.5,-112.5 2453.5,-112.5"/>
<text text-anchor="middle" x="2500" y="-119.5" font-family="Helvetica,sans-Serif" font-size="10.00">csearchdialog.h</text>
</a>
</g>
</g>
<!-- Node37&#45;&gt;Node38 -->
<g id="edge53" class="edge">
<title>Node37&#45;&gt;Node38</title>
<path fill="none" stroke="midnightblue" d="M2630.05,-165.3C2598.77,-155.13 2554.18,-140.62 2526.18,-131.52"/>
<polygon fill="midnightblue" stroke="midnightblue" points="2629.1,-168.68 2639.7,-168.44 2631.27,-162.02 2629.1,-168.68"/>
</g>
<!-- Node37&#45;&gt;Node41 -->
<g id="edge60" class="edge">
<title>Node37&#45;&gt;Node41</title>
<path fill="none" stroke="midnightblue" d="M2708.71,-164.57C2724.54,-157.67 2740.85,-147.28 2750,-132 2765.3,-106.44 2726.41,-86.3 2698.2,-75.56"/>
<polygon fill="midnightblue" stroke="midnightblue" points="2706.99,-161.49 2698.99,-168.44 2709.57,-168 2706.99,-161.49"/>
</g>
<!-- Node42 -->
<g id="node42" class="node">
<title>Node42</title>
<g id="a_node42"><a xlink:href="../../d4/d4d/btsearchoptionsarea_8cpp.html" target="_top" xlink:title=" ">
<polygon fill="white" stroke="black" points="2603.5,-112.5 2603.5,-131.5 2740.5,-131.5 2740.5,-112.5 2603.5,-112.5"/>
<text text-anchor="middle" x="2672" y="-119.5" font-family="Helvetica,sans-Serif" font-size="10.00">btsearchoptionsarea.cpp</text>
</a>
</g>
</g>
<!-- Node37&#45;&gt;Node42 -->
<g id="edge59" class="edge">
<title>Node37&#45;&gt;Node42</title>
<path fill="none" stroke="midnightblue" d="M2668.1,-158.1C2669.1,-149.14 2670.24,-138.86 2671.03,-131.75"/>
<polygon fill="midnightblue" stroke="midnightblue" points="2664.62,-157.76 2666.99,-168.08 2671.57,-158.53 2664.62,-157.76"/>
</g>
<!-- Node38&#45;&gt;Node9 -->
<g id="edge54" class="edge">
<title>Node38&#45;&gt;Node9</title>
<path fill="none" stroke="midnightblue" d="M2443.42,-118.01C2259.37,-108.29 1680.33,-77.69 1519.69,-69.2"/>
<polygon fill="midnightblue" stroke="midnightblue" points="2443.26,-121.51 2453.43,-118.54 2443.63,-114.52 2443.26,-121.51"/>
</g>
<!-- Node38&#45;&gt;Node39 -->
<g id="edge55" class="edge">
<title>Node38&#45;&gt;Node39</title>
<path fill="none" stroke="midnightblue" d="M2476.45,-107.18C2459.52,-97.24 2437.22,-84.15 2422.74,-75.65"/>
<polygon fill="midnightblue" stroke="midnightblue" points="2474.82,-110.28 2485.22,-112.32 2478.37,-104.24 2474.82,-110.28"/>
</g>
<!-- Node40 -->
<g id="node40" class="node">
<title>Node40</title>
<g id="a_node40"><a xlink:href="../../d9/de6/cbookmarkindex_8cpp.html" target="_top" xlink:title=" ">
<polygon fill="white" stroke="black" points="2482.5,-56.5 2482.5,-75.5 2601.5,-75.5 2601.5,-56.5 2482.5,-56.5"/>
<text text-anchor="middle" x="2542" y="-63.5" font-family="Helvetica,sans-Serif" font-size="10.00">cbookmarkindex.cpp</text>
</a>
</g>
</g>
<!-- Node38&#45;&gt;Node40 -->
<g id="edge56" class="edge">
<title>Node38&#45;&gt;Node40</title>
<path fill="none" stroke="midnightblue" d="M2513.11,-104.14C2520.43,-94.74 2529.24,-83.4 2535.19,-75.75"/>
<polygon fill="midnightblue" stroke="midnightblue" points="2510.31,-102.04 2506.94,-112.08 2515.84,-106.34 2510.31,-102.04"/>
</g>
<!-- Node38&#45;&gt;Node41 -->
<g id="edge57" class="edge">
<title>Node38&#45;&gt;Node41</title>
<path fill="none" stroke="midnightblue" d="M2536.83,-109.44C2569.26,-99.26 2615.74,-84.66 2644.87,-75.52"/>
<polygon fill="midnightblue" stroke="midnightblue" points="2535.75,-106.11 2527.25,-112.44 2537.84,-112.79 2535.75,-106.11"/>
</g>
</g>
</svg>
