<?xml version="1.0" encoding="UTF-8" standalone="no"?>
<!DOCTYPE svg PUBLIC "-//W3C//DTD SVG 1.1//EN"
 "http://www.w3.org/Graphics/SVG/1.1/DTD/svg11.dtd">
<!-- Generated by graphviz version 2.43.0 (0)
 -->
<!-- Title: cswordversekey.h Pages: 1 -->
<!--zoomable 247 -->

<svg id="main" version="1.1" xmlns="http://www.w3.org/2000/svg" xmlns:xlink="http://www.w3.org/1999/xlink" xml:space="preserve" onload="init(evt)">
<style type="text/css"><![CDATA[
.node, .edge {opacity: 0.7;}
.node.selected, .edge.selected {opacity: 1;}
.edge:hover path { stroke: red; }
.edge:hover polygon { stroke: red; fill: red; }
]]></style>

<defs>
  <circle id="rim" cx="0" cy="0" r="7"/>
  <circle id="rim2" cx="0" cy="0" r="3.5"/>
  <g id="zoomPlus">
    <use xlink:href="#rim" fill="#404040"><set attributeName="fill" to="#808080" begin="zoomplus.mouseover" end="zoomplus.mouseout"/></use>
    <path d="M-4,0h8M0,-4v8" fill="none" stroke="white" stroke-width="1.5" pointer-events="none"/>
  </g>
  <g id="zoomMin">
    <use xlink:href="#rim" fill="#404040"><set attributeName="fill" to="#808080" begin="zoomminus.mouseover" end="zoomminus.mouseout"/></use>
    <path d="M-4,0h8" fill="none" stroke="white" stroke-width="1.5" pointer-events="none"/>
  </g>
  <g id="arrowUp" transform="translate(30 24)">
    <use xlink:href="#rim"/>
    <path pointer-events="none" fill="none" stroke="white" stroke-width="1.5" d="M0,-3.0v7 M-2.5,-0.5L0,-3.0L2.5,-0.5"/>
  </g>
  <g id="arrowRight" transform="rotate(90) translate(36 -43)">
    <use xlink:href="#rim"/>
    <path pointer-events="none" fill="none" stroke="white" stroke-width="1.5" d="M0,-3.0v7 M-2.5,-0.5L0,-3.0L2.5,-0.5"/>
  </g>
  <g id="arrowDown" transform="rotate(180) translate(-30 -48)">
    <use xlink:href="#rim"/>
    <path pointer-events="none" fill="none" stroke="white" stroke-width="1.5" d="M0,-3.0v7 M-2.5,-0.5L0,-3.0L2.5,-0.5"/>
  </g>
  <g id="arrowLeft" transform="rotate(270) translate(-36 17)">
    <use xlink:href="#rim"/>
    <path pointer-events="none" fill="none" stroke="white" stroke-width="1.5" d="M0,-3.0v7 M-2.5,-0.5L0,-3.0L2.5,-0.5"/>
  </g>
  <g id="resetDef">
    <use xlink:href="#rim2" fill="#404040"><set attributeName="fill" to="#808080" begin="reset.mouseover" end="reset.mouseout"/></use>
  </g>
</defs>
<script type="application/ecmascript">
var viewWidth = 2926;
var viewHeight = 247;
var sectionId = 'dynsection-0';
</script>
<script type="application/ecmascript" xlink:href="../../svg.min.js"/>
<svg id="graph" class="graph">
<g id="viewport">
<title>cswordversekey.h</title>
<!-- Node1 -->
<g id="Node000001" class="node">
<title>Node1</title>
<g id="a_Node000001"><a xlink:title=" ">
<polygon fill="#999999" stroke="#666666" points="1631.5,-239 1528.5,-239 1528.5,-220 1631.5,-220 1631.5,-239"/>
<text text-anchor="middle" x="1580" y="-227" font-family="Helvetica,sans-Serif" font-size="10.00">cswordversekey.h</text>
</a>
</g>
</g>
<!-- Node2 -->
<g id="Node000002" class="node">
<title>Node2</title>
<g id="a_Node000002"><a xlink:href="../../d1/df6/bibletime_8cpp.html" target="_top" xlink:title=" ">
<polygon fill="white" stroke="#666666" points="621.5,-184 538.5,-184 538.5,-165 621.5,-165 621.5,-184"/>
<text text-anchor="middle" x="580" y="-172" font-family="Helvetica,sans-Serif" font-size="10.00">bibletime.cpp</text>
</a>
</g>
</g>
<!-- Node1&#45;&gt;Node2 -->
<g id="edge1_Node000001_Node000002" class="edge">
<title>Node1&#45;&gt;Node2</title>
<g id="a_edge1_Node000001_Node000002"><a xlink:title=" ">
<path fill="none" stroke="#63b8ff" d="M1518.36,-228.13C1366.89,-226.67 964.48,-219.48 631,-184 627.97,-183.68 624.84,-183.29 621.69,-182.86"/>
<polygon fill="#63b8ff" stroke="#63b8ff" points="1518.37,-231.63 1528.4,-228.22 1518.43,-224.63 1518.37,-231.63"/>
</a>
</g>
</g>
<!-- Node3 -->
<g id="Node000003" class="node">
<title>Node3</title>
<g id="a_Node000003"><a xlink:href="../../d7/d92/btbiblekeywidget_8cpp.html" target="_top" xlink:title=" ">
<polygon fill="white" stroke="#666666" points="848.5,-74 727.5,-74 727.5,-55 848.5,-55 848.5,-74"/>
<text text-anchor="middle" x="788" y="-62" font-family="Helvetica,sans-Serif" font-size="10.00">btbiblekeywidget.cpp</text>
</a>
</g>
</g>
<!-- Node1&#45;&gt;Node3 -->
<g id="edge2_Node000001_Node000003" class="edge">
<title>Node1&#45;&gt;Node3</title>
<g id="a_edge2_Node000001_Node000003"><a xlink:title=" ">
<path fill="none" stroke="#63b8ff" d="M1518.15,-227.31C1413.72,-224.48 1196.14,-215.05 1015,-184 921.6,-167.99 877.94,-194.02 809,-129 793.46,-114.34 789.41,-87.95 788.36,-74.26"/>
<polygon fill="#63b8ff" stroke="#63b8ff" points="1518.11,-230.81 1528.2,-227.57 1518.29,-223.81 1518.11,-230.81"/>
</a>
</g>
</g>
<!-- Node4 -->
<g id="Node000004" class="node">
<title>Node4</title>
<g id="a_Node000004"><a xlink:href="../../d7/dd0/btbookmarksmodel_8cpp.html" target="_top" xlink:title=" ">
<polygon fill="white" stroke="#666666" points="1646,-184 1514,-184 1514,-165 1646,-165 1646,-184"/>
<text text-anchor="middle" x="1580" y="-172" font-family="Helvetica,sans-Serif" font-size="10.00">btbookmarksmodel.cpp</text>
</a>
</g>
</g>
<!-- Node1&#45;&gt;Node4 -->
<g id="edge3_Node000001_Node000004" class="edge">
<title>Node1&#45;&gt;Node4</title>
<g id="a_edge3_Node000001_Node000004"><a xlink:title=" ">
<path fill="none" stroke="#63b8ff" d="M1580,-209.66C1580,-200.93 1580,-190.99 1580,-184.09"/>
<polygon fill="#63b8ff" stroke="#63b8ff" points="1576.5,-209.75 1580,-219.75 1583.5,-209.75 1576.5,-209.75"/>
</a>
</g>
</g>
<!-- Node5 -->
<g id="Node000005" class="node">
<title>Node5</title>
<g id="a_Node000005"><a xlink:href="../../de/d93/btmoduletextmodel_8cpp.html" target="_top" xlink:title=" ">
<polygon fill="white" stroke="#666666" points="952,-129 818,-129 818,-110 952,-110 952,-129"/>
<text text-anchor="middle" x="885" y="-117" font-family="Helvetica,sans-Serif" font-size="10.00">btmoduletextmodel.cpp</text>
</a>
</g>
</g>
<!-- Node1&#45;&gt;Node5 -->
<g id="edge4_Node000001_Node000005" class="edge">
<title>Node1&#45;&gt;Node5</title>
<g id="a_edge4_Node000001_Node000005"><a xlink:title=" ">
<path fill="none" stroke="#63b8ff" d="M1518.37,-226.87C1425.55,-223.52 1244.68,-213.47 1094,-184 1024.78,-170.46 945.81,-143.07 907.81,-129.11"/>
<polygon fill="#63b8ff" stroke="#63b8ff" points="1518.32,-230.37 1528.43,-227.22 1518.56,-223.37 1518.32,-230.37"/>
</a>
</g>
</g>
<!-- Node6 -->
<g id="Node000006" class="node">
<title>Node6</title>
<g id="a_Node000006"><a xlink:href="../../df/d72/btmoduletextmodel_8h.html" target="_top" xlink:title=" ">
<polygon fill="white" stroke="#666666" points="762,-184 640,-184 640,-165 762,-165 762,-184"/>
<text text-anchor="middle" x="701" y="-172" font-family="Helvetica,sans-Serif" font-size="10.00">btmoduletextmodel.h</text>
</a>
</g>
</g>
<!-- Node1&#45;&gt;Node6 -->
<g id="edge5_Node000001_Node000006" class="edge">
<title>Node1&#45;&gt;Node6</title>
<g id="a_edge5_Node000001_Node000006"><a xlink:title=" ">
<path fill="none" stroke="#63b8ff" d="M1518.05,-226.29C1383.05,-221.2 1052.28,-207.28 776,-184 771.56,-183.63 766.98,-183.2 762.37,-182.75"/>
<polygon fill="#63b8ff" stroke="#63b8ff" points="1518.07,-229.79 1528.19,-226.67 1518.33,-222.8 1518.07,-229.79"/>
</a>
</g>
</g>
<!-- Node15 -->
<g id="Node000015" class="node">
<title>Node15</title>
<g id="a_Node000015"><a xlink:href="../../d0/dae/btprinter_8cpp.html" target="_top" xlink:title=" ">
<polygon fill="white" stroke="#666666" points="1742,-184 1664,-184 1664,-165 1742,-165 1742,-184"/>
<text text-anchor="middle" x="1703" y="-172" font-family="Helvetica,sans-Serif" font-size="10.00">btprinter.cpp</text>
</a>
</g>
</g>
<!-- Node1&#45;&gt;Node15 -->
<g id="edge17_Node000001_Node000015" class="edge">
<title>Node1&#45;&gt;Node15</title>
<g id="a_edge17_Node000001_Node000015"><a xlink:title=" ">
<path fill="none" stroke="#63b8ff" d="M1609.25,-215.9C1631.97,-206.11 1662.87,-192.79 1682.88,-184.17"/>
<polygon fill="#63b8ff" stroke="#63b8ff" points="1607.56,-212.81 1599.76,-219.98 1610.33,-219.24 1607.56,-212.81"/>
</a>
</g>
</g>
<!-- Node16 -->
<g id="Node000016" class="node">
<title>Node16</title>
<g id="a_Node000016"><a xlink:href="../../dd/dde/btsearchresultarea_8cpp.html" target="_top" xlink:title=" ">
<polygon fill="white" stroke="#666666" points="1888,-184 1760,-184 1760,-165 1888,-165 1888,-184"/>
<text text-anchor="middle" x="1824" y="-172" font-family="Helvetica,sans-Serif" font-size="10.00">btsearchresultarea.cpp</text>
</a>
</g>
</g>
<!-- Node1&#45;&gt;Node16 -->
<g id="edge18_Node000001_Node000016" class="edge">
<title>Node1&#45;&gt;Node16</title>
<g id="a_edge18_Node000001_Node000016"><a xlink:title=" ">
<path fill="none" stroke="#63b8ff" d="M1629.19,-217.82C1674.92,-207.88 1742.16,-193.28 1784.49,-184.08"/>
<polygon fill="#63b8ff" stroke="#63b8ff" points="1628.23,-214.44 1619.2,-219.98 1629.72,-221.28 1628.23,-214.44"/>
</a>
</g>
</g>
<!-- Node17 -->
<g id="Node000017" class="node">
<title>Node17</title>
<g id="a_Node000017"><a xlink:href="../../dc/d8f/cbiblekeychooser_8cpp.html" target="_top" xlink:title=" ">
<polygon fill="white" stroke="#666666" points="1170.5,-74 1049.5,-74 1049.5,-55 1170.5,-55 1170.5,-74"/>
<text text-anchor="middle" x="1110" y="-62" font-family="Helvetica,sans-Serif" font-size="10.00">cbiblekeychooser.cpp</text>
</a>
</g>
</g>
<!-- Node1&#45;&gt;Node17 -->
<g id="edge19_Node000001_Node000017" class="edge">
<title>Node1&#45;&gt;Node17</title>
<g id="a_edge19_Node000001_Node000017"><a xlink:title=" ">
<path fill="none" stroke="#63b8ff" d="M1518.17,-228.05C1447.42,-225.85 1328.95,-216.95 1233,-184 1187.58,-168.4 1172.35,-164.49 1140,-129 1125.05,-112.6 1116.2,-87.42 1112.32,-74.24"/>
<polygon fill="#63b8ff" stroke="#63b8ff" points="1518.16,-231.55 1528.25,-228.33 1518.35,-224.56 1518.16,-231.55"/>
</a>
</g>
</g>
<!-- Node18 -->
<g id="Node000018" class="node">
<title>Node18</title>
<g id="a_Node000018"><a xlink:href="../../de/da4/cbiblereadwindow_8cpp.html" target="_top" xlink:title=" ">
<polygon fill="white" stroke="#666666" points="1844.5,-129 1719.5,-129 1719.5,-110 1844.5,-110 1844.5,-129"/>
<text text-anchor="middle" x="1782" y="-117" font-family="Helvetica,sans-Serif" font-size="10.00">cbiblereadwindow.cpp</text>
</a>
</g>
</g>
<!-- Node1&#45;&gt;Node18 -->
<g id="edge20_Node000001_Node000018" class="edge">
<title>Node1&#45;&gt;Node18</title>
<g id="a_edge20_Node000001_Node000018"><a xlink:title=" ">
<path fill="none" stroke="#63b8ff" d="M1518.09,-221.9C1466.39,-213.98 1405.41,-197.48 1434,-165 1435.17,-163.67 1619.33,-140.66 1719.24,-128.26"/>
<polygon fill="#63b8ff" stroke="#63b8ff" points="1517.87,-225.41 1528.27,-223.38 1518.87,-218.48 1517.87,-225.41"/>
</a>
</g>
</g>
<!-- Node19 -->
<g id="Node000019" class="node">
<title>Node19</title>
<g id="a_Node000019"><a xlink:href="../../d0/d6f/ccommentaryreadwindow_8cpp.html" target="_top" xlink:title=" ">
<polygon fill="white" stroke="#666666" points="2069.5,-184 1906.5,-184 1906.5,-165 2069.5,-165 2069.5,-184"/>
<text text-anchor="middle" x="1988" y="-172" font-family="Helvetica,sans-Serif" font-size="10.00">ccommentaryreadwindow.cpp</text>
</a>
</g>
</g>
<!-- Node1&#45;&gt;Node19 -->
<g id="edge21_Node000001_Node000019" class="edge">
<title>Node1&#45;&gt;Node19</title>
<g id="a_edge21_Node000001_Node000019"><a xlink:title=" ">
<path fill="none" stroke="#63b8ff" d="M1641.99,-220.45C1717.63,-210.62 1844.96,-194.08 1922.26,-184.04"/>
<polygon fill="#63b8ff" stroke="#63b8ff" points="1641.14,-217.03 1631.67,-221.79 1642.04,-223.97 1641.14,-217.03"/>
</a>
</g>
</g>
<!-- Node20 -->
<g id="Node000020" class="node">
<title>Node20</title>
<g id="a_Node000020"><a xlink:href="../../dc/d52/cdisplayrendering_8cpp.html" target="_top" xlink:title=" ">
<polygon fill="white" stroke="#666666" points="2212,-184 2088,-184 2088,-165 2212,-165 2212,-184"/>
<text text-anchor="middle" x="2150" y="-172" font-family="Helvetica,sans-Serif" font-size="10.00">cdisplayrendering.cpp</text>
</a>
</g>
</g>
<!-- Node1&#45;&gt;Node20 -->
<g id="edge22_Node000001_Node000020" class="edge">
<title>Node1&#45;&gt;Node20</title>
<g id="a_edge22_Node000001_Node000020"><a xlink:title=" ">
<path fill="none" stroke="#63b8ff" d="M1642,-223.58C1736.4,-215.94 1921.83,-200.41 2079,-184 2081.84,-183.7 2084.74,-183.39 2087.67,-183.07"/>
<polygon fill="#63b8ff" stroke="#63b8ff" points="1641.46,-220.11 1631.77,-224.4 1642.02,-227.09 1641.46,-220.11"/>
</a>
</g>
</g>
<!-- Node21 -->
<g id="Node000021" class="node">
<title>Node21</title>
<g id="a_Node000021"><a xlink:href="../../d5/deb/cexportmanager_8cpp.html" target="_top" xlink:title=" ">
<polygon fill="white" stroke="#666666" points="2346,-184 2230,-184 2230,-165 2346,-165 2346,-184"/>
<text text-anchor="middle" x="2288" y="-172" font-family="Helvetica,sans-Serif" font-size="10.00">cexportmanager.cpp</text>
</a>
</g>
</g>
<!-- Node1&#45;&gt;Node21 -->
<g id="edge23_Node000001_Node000021" class="edge">
<title>Node1&#45;&gt;Node21</title>
<g id="a_edge23_Node000001_Node000021"><a xlink:title=" ">
<path fill="none" stroke="#63b8ff" d="M1641.91,-225.38C1756.41,-219.34 2008.91,-204.8 2221,-184 2223.92,-183.71 2226.9,-183.4 2229.92,-183.07"/>
<polygon fill="#63b8ff" stroke="#63b8ff" points="1641.4,-221.9 1631.6,-225.92 1641.77,-228.89 1641.4,-221.9"/>
</a>
</g>
</g>
<!-- Node22 -->
<g id="Node000022" class="node">
<title>Node22</title>
<g id="a_Node000022"><a xlink:href="../../d5/d19/crossrefrendering_8cpp.html" target="_top" xlink:title=" ">
<polygon fill="white" stroke="#666666" points="2486,-184 2364,-184 2364,-165 2486,-165 2486,-184"/>
<text text-anchor="middle" x="2425" y="-172" font-family="Helvetica,sans-Serif" font-size="10.00">crossrefrendering.cpp</text>
</a>
</g>
</g>
<!-- Node1&#45;&gt;Node22 -->
<g id="edge24_Node000001_Node000022" class="edge">
<title>Node1&#45;&gt;Node22</title>
<g id="a_edge24_Node000001_Node000022"><a xlink:title=" ">
<path fill="none" stroke="#63b8ff" d="M1642.06,-226.28C1773.65,-221.26 2090.34,-207.64 2355,-184 2357.93,-183.74 2360.92,-183.45 2363.94,-183.15"/>
<polygon fill="#63b8ff" stroke="#63b8ff" points="1641.64,-222.79 1631.78,-226.66 1641.91,-229.78 1641.64,-222.79"/>
</a>
</g>
</g>
<!-- Node23 -->
<g id="Node000023" class="node">
<title>Node23</title>
<g id="a_Node000023"><a xlink:href="../../d6/dd0/csearchanalysisscene_8cpp.html" target="_top" xlink:title=" ">
<polygon fill="white" stroke="#666666" points="2647.5,-184 2504.5,-184 2504.5,-165 2647.5,-165 2647.5,-184"/>
<text text-anchor="middle" x="2576" y="-172" font-family="Helvetica,sans-Serif" font-size="10.00">csearchanalysisscene.cpp</text>
</a>
</g>
</g>
<!-- Node1&#45;&gt;Node23 -->
<g id="edge25_Node000001_Node000023" class="edge">
<title>Node1&#45;&gt;Node23</title>
<g id="a_edge25_Node000001_Node000023"><a xlink:title=" ">
<path fill="none" stroke="#63b8ff" d="M1641.88,-226.69C1789.6,-222.09 2174.44,-208.6 2495,-184 2498.1,-183.76 2501.27,-183.5 2504.47,-183.23"/>
<polygon fill="#63b8ff" stroke="#63b8ff" points="1641.54,-223.19 1631.66,-227 1641.76,-230.19 1641.54,-223.19"/>
</a>
</g>
</g>
<!-- Node24 -->
<g id="Node000024" class="node">
<title>Node24</title>
<g id="a_Node000024"><a xlink:href="../../d4/d94/cswordbiblemoduleinfo_8cpp.html" target="_top" xlink:title=" ">
<polygon fill="white" stroke="#666666" points="2013.5,-129 1862.5,-129 1862.5,-110 2013.5,-110 2013.5,-129"/>
<text text-anchor="middle" x="1938" y="-117" font-family="Helvetica,sans-Serif" font-size="10.00">cswordbiblemoduleinfo.cpp</text>
</a>
</g>
</g>
<!-- Node1&#45;&gt;Node24 -->
<g id="edge26_Node000001_Node000024" class="edge">
<title>Node1&#45;&gt;Node24</title>
<g id="a_edge26_Node000001_Node000024"><a xlink:title=" ">
<path fill="none" stroke="#63b8ff" d="M1528.56,-217.28C1490.94,-206.81 1450.03,-189.15 1472,-165 1500.62,-133.55 1810.68,-133.12 1853,-129 1856.1,-128.7 1859.26,-128.39 1862.46,-128.08"/>
<polygon fill="#63b8ff" stroke="#63b8ff" points="1527.95,-220.75 1538.51,-219.92 1529.74,-213.98 1527.95,-220.75"/>
</a>
</g>
</g>
<!-- Node25 -->
<g id="Node000025" class="node">
<title>Node25</title>
<g id="a_Node000025"><a xlink:href="../../de/d73/cswordbiblemoduleinfo_8h.html" target="_top" xlink:title=" ">
<polygon fill="white" stroke="#666666" points="1382,-184 1242,-184 1242,-165 1382,-165 1382,-184"/>
<text text-anchor="middle" x="1312" y="-172" font-family="Helvetica,sans-Serif" font-size="10.00">cswordbiblemoduleinfo.h</text>
</a>
</g>
</g>
<!-- Node1&#45;&gt;Node25 -->
<g id="edge27_Node000001_Node000025" class="edge">
<title>Node1&#45;&gt;Node25</title>
<g id="a_edge27_Node000001_Node000025"><a xlink:title=" ">
<path fill="none" stroke="#63b8ff" d="M1526.92,-218C1476.68,-208.07 1402.18,-193.33 1355.4,-184.08"/>
<polygon fill="#63b8ff" stroke="#63b8ff" points="1526.45,-221.48 1536.94,-219.98 1527.81,-214.61 1526.45,-221.48"/>
</a>
</g>
</g>
<!-- Node34 -->
<g id="Node000034" class="node">
<title>Node34</title>
<g id="a_Node000034"><a xlink:href="../../d1/ddc/cswordversekey_8cpp.html" target="_top" xlink:title=" ">
<polygon fill="white" stroke="#666666" points="2146,-129 2032,-129 2032,-110 2146,-110 2146,-129"/>
<text text-anchor="middle" x="2089" y="-117" font-family="Helvetica,sans-Serif" font-size="10.00">cswordversekey.cpp</text>
</a>
</g>
</g>
<!-- Node1&#45;&gt;Node34 -->
<g id="edge46_Node000001_Node000034" class="edge">
<title>Node1&#45;&gt;Node34</title>
<g id="a_edge46_Node000001_Node000034"><a xlink:title=" ">
<path fill="none" stroke="#63b8ff" d="M1546.11,-215.83C1518.52,-203.7 1486.89,-184.42 1505,-165 1544.28,-122.89 1964.69,-134.63 2022,-129 2025.15,-128.69 2028.38,-128.35 2031.64,-127.99"/>
<polygon fill="#63b8ff" stroke="#63b8ff" points="1545.04,-219.17 1555.61,-219.81 1547.74,-212.72 1545.04,-219.17"/>
</a>
</g>
</g>
<!-- Node35 -->
<g id="Node000035" class="node">
<title>Node35</title>
<g id="a_Node000035"><a xlink:href="../../db/d72/ctextrendering_8cpp.html" target="_top" xlink:title=" ">
<polygon fill="white" stroke="#666666" points="2774,-184 2666,-184 2666,-165 2774,-165 2774,-184"/>
<text text-anchor="middle" x="2720" y="-172" font-family="Helvetica,sans-Serif" font-size="10.00">ctextrendering.cpp</text>
</a>
</g>
</g>
<!-- Node1&#45;&gt;Node35 -->
<g id="edge47_Node000001_Node000035" class="edge">
<title>Node1&#45;&gt;Node35</title>
<g id="a_edge47_Node000001_Node000035"><a xlink:title=" ">
<path fill="none" stroke="#63b8ff" d="M1642.13,-227.95C1807.51,-226.04 2272.11,-217.84 2657,-184 2659.86,-183.75 2662.79,-183.46 2665.74,-183.15"/>
<polygon fill="#63b8ff" stroke="#63b8ff" points="1641.63,-224.45 1631.67,-228.06 1641.71,-231.45 1641.63,-224.45"/>
</a>
</g>
</g>
<!-- Node36 -->
<g id="Node000036" class="node">
<title>Node36</title>
<g id="a_Node000036"><a xlink:href="../../d7/dfe/referencemanager_8cpp.html" target="_top" xlink:title=" ">
<polygon fill="white" stroke="#666666" points="2918,-184 2792,-184 2792,-165 2918,-165 2918,-184"/>
<text text-anchor="middle" x="2855" y="-172" font-family="Helvetica,sans-Serif" font-size="10.00">referencemanager.cpp</text>
</a>
</g>
</g>
<!-- Node1&#45;&gt;Node36 -->
<g id="edge48_Node000001_Node000036" class="edge">
<title>Node1&#45;&gt;Node36</title>
<g id="a_edge48_Node000001_Node000036"><a xlink:title=" ">
<path fill="none" stroke="#63b8ff" d="M1641.88,-227.97C1819.6,-226.06 2346.81,-217.76 2783,-184 2785.89,-183.78 2788.84,-183.52 2791.81,-183.25"/>
<polygon fill="#63b8ff" stroke="#63b8ff" points="1641.64,-224.47 1631.68,-228.07 1641.71,-231.47 1641.64,-224.47"/>
</a>
</g>
</g>
<!-- Node6&#45;&gt;Node5 -->
<g id="edge7_Node000006_Node000005" class="edge">
<title>Node6&#45;&gt;Node5</title>
<g id="a_edge7_Node000006_Node000005"><a xlink:title=" ">
<path fill="none" stroke="#63b8ff" d="M740.29,-162.18C774.7,-152.27 823.96,-138.08 855.21,-129.08"/>
<polygon fill="#63b8ff" stroke="#63b8ff" points="739.2,-158.85 730.56,-164.98 741.14,-165.58 739.2,-158.85"/>
</a>
</g>
</g>
<!-- Node7 -->
<g id="Node000007" class="node">
<title>Node7</title>
<g id="a_Node000007"><a xlink:href="../../d3/d2f/btcopybyreferencesdialog_8cpp.html" target="_top" xlink:title=" ">
<polygon fill="white" stroke="#666666" points="164,-19 0,-19 0,0 164,0 164,-19"/>
<text text-anchor="middle" x="82" y="-7" font-family="Helvetica,sans-Serif" font-size="10.00">btcopybyreferencesdialog.cpp</text>
</a>
</g>
</g>
<!-- Node6&#45;&gt;Node7 -->
<g id="edge6_Node000006_Node000007" class="edge">
<title>Node6&#45;&gt;Node7</title>
<g id="a_edge6_Node000006_Node000007"><a xlink:title=" ">
<path fill="none" stroke="#63b8ff" d="M629.72,-164.96C532.7,-153.29 367.87,-133.32 340,-129 208.64,-108.64 130.92,-176.28 46,-74 31.35,-56.35 55.41,-31.92 70.77,-19.11"/>
<polygon fill="#63b8ff" stroke="#63b8ff" points="629.41,-168.44 639.76,-166.16 630.25,-161.49 629.41,-168.44"/>
</a>
</g>
</g>
<!-- Node8 -->
<g id="Node000008" class="node">
<title>Node8</title>
<g id="a_Node000008"><a xlink:href="../../d1/d48/btqmlinterface_8h.html" target="_top" xlink:title=" ">
<polygon fill="white" stroke="#666666" points="447,-129 349,-129 349,-110 447,-110 447,-129"/>
<text text-anchor="middle" x="398" y="-117" font-family="Helvetica,sans-Serif" font-size="10.00">btqmlinterface.h</text>
</a>
</g>
</g>
<!-- Node6&#45;&gt;Node8 -->
<g id="edge8_Node000006_Node000008" class="edge">
<title>Node6&#45;&gt;Node8</title>
<g id="a_edge8_Node000006_Node000008"><a xlink:title=" ">
<path fill="none" stroke="#63b8ff" d="M642.39,-163.25C585.49,-153.3 500.13,-138.36 446.81,-129.04"/>
<polygon fill="#63b8ff" stroke="#63b8ff" points="641.86,-166.71 652.32,-164.98 643.07,-159.81 641.86,-166.71"/>
</a>
</g>
</g>
<!-- Node9 -->
<g id="Node000009" class="node">
<title>Node9</title>
<g id="a_Node000009"><a xlink:href="../../d7/dad/btcopybyreferencesdialog_8h.html" target="_top" xlink:title=" ">
<polygon fill="white" stroke="#666666" points="287,-74 135,-74 135,-55 287,-55 287,-74"/>
<text text-anchor="middle" x="211" y="-62" font-family="Helvetica,sans-Serif" font-size="10.00">btcopybyreferencesdialog.h</text>
</a>
</g>
</g>
<!-- Node8&#45;&gt;Node9 -->
<g id="edge9_Node000008_Node000009" class="edge">
<title>Node8&#45;&gt;Node9</title>
<g id="a_edge9_Node000008_Node000009"><a xlink:title=" ">
<path fill="none" stroke="#63b8ff" d="M358.07,-107.18C323.1,-97.27 273.04,-83.08 241.28,-74.08"/>
<polygon fill="#63b8ff" stroke="#63b8ff" points="357.38,-110.63 367.96,-109.98 359.29,-103.89 357.38,-110.63"/>
</a>
</g>
</g>
<!-- Node10 -->
<g id="Node000010" class="node">
<title>Node10</title>
<g id="a_Node000010"><a xlink:href="../../de/db2/btmodelviewreaddisplay_8cpp.html" target="_top" xlink:title=" ">
<polygon fill="white" stroke="#666666" points="393,-19 237,-19 237,0 393,0 393,-19"/>
<text text-anchor="middle" x="315" y="-7" font-family="Helvetica,sans-Serif" font-size="10.00">btmodelviewreaddisplay.cpp</text>
</a>
</g>
</g>
<!-- Node8&#45;&gt;Node10 -->
<g id="edge12_Node000008_Node000010" class="edge">
<title>Node8&#45;&gt;Node10</title>
<g id="a_edge12_Node000008_Node000010"><a xlink:title=" ">
<path fill="none" stroke="#63b8ff" d="M370.52,-104.98C357.77,-97.45 343.39,-86.96 334,-74 321.71,-57.04 317.29,-32.1 315.76,-19.1"/>
<polygon fill="#63b8ff" stroke="#63b8ff" points="368.98,-108.13 379.42,-109.93 372.38,-102.01 368.98,-108.13"/>
</a>
</g>
</g>
<!-- Node11 -->
<g id="Node000011" class="node">
<title>Node11</title>
<g id="a_Node000011"><a xlink:href="../../de/d6e/btqmlinterface_8cpp.html" target="_top" xlink:title=" ">
<polygon fill="white" stroke="#666666" points="452.5,-74 343.5,-74 343.5,-55 452.5,-55 452.5,-74"/>
<text text-anchor="middle" x="398" y="-62" font-family="Helvetica,sans-Serif" font-size="10.00">btqmlinterface.cpp</text>
</a>
</g>
</g>
<!-- Node8&#45;&gt;Node11 -->
<g id="edge13_Node000008_Node000011" class="edge">
<title>Node8&#45;&gt;Node11</title>
<g id="a_edge13_Node000008_Node000011"><a xlink:title=" ">
<path fill="none" stroke="#63b8ff" d="M398,-99.66C398,-90.93 398,-80.99 398,-74.09"/>
<polygon fill="#63b8ff" stroke="#63b8ff" points="394.5,-99.75 398,-109.75 401.5,-99.75 394.5,-99.75"/>
</a>
</g>
</g>
<!-- Node12 -->
<g id="Node000012" class="node">
<title>Node12</title>
<g id="a_Node000012"><a xlink:href="../../d9/d0c/btquickwidget_8cpp.html" target="_top" xlink:title=" ">
<polygon fill="white" stroke="#666666" points="577,-74 471,-74 471,-55 577,-55 577,-74"/>
<text text-anchor="middle" x="524" y="-62" font-family="Helvetica,sans-Serif" font-size="10.00">btquickwidget.cpp</text>
</a>
</g>
</g>
<!-- Node8&#45;&gt;Node12 -->
<g id="edge14_Node000008_Node000012" class="edge">
<title>Node8&#45;&gt;Node12</title>
<g id="a_edge14_Node000008_Node000012"><a xlink:title=" ">
<path fill="none" stroke="#63b8ff" d="M427.65,-106.03C450.95,-96.23 482.8,-82.83 503.39,-74.17"/>
<polygon fill="#63b8ff" stroke="#63b8ff" points="426.1,-102.88 418.24,-109.98 428.82,-109.33 426.1,-102.88"/>
</a>
</g>
</g>
<!-- Node13 -->
<g id="Node000013" class="node">
<title>Node13</title>
<g id="a_Node000013"><a xlink:href="../../d2/d26/cdisplaywindow_8cpp.html" target="_top" xlink:title=" ">
<polygon fill="white" stroke="#666666" points="709,-74 595,-74 595,-55 709,-55 709,-74"/>
<text text-anchor="middle" x="652" y="-62" font-family="Helvetica,sans-Serif" font-size="10.00">cdisplaywindow.cpp</text>
</a>
</g>
</g>
<!-- Node8&#45;&gt;Node13 -->
<g id="edge15_Node000008_Node000013" class="edge">
<title>Node8&#45;&gt;Node13</title>
<g id="a_edge15_Node000008_Node000013"><a xlink:title=" ">
<path fill="none" stroke="#63b8ff" d="M448.61,-107.94C496.22,-98.01 566.62,-83.31 610.87,-74.08"/>
<polygon fill="#63b8ff" stroke="#63b8ff" points="447.88,-104.52 438.81,-109.98 449.31,-111.37 447.88,-104.52"/>
</a>
</g>
</g>
<!-- Node14 -->
<g id="Node000014" class="node">
<title>Node14</title>
<g id="a_Node000014"><a xlink:href="../../df/d0a/main_8cpp.html" target="_top" xlink:title=" ">
<polygon fill="white" stroke="#666666" points="117,-74 55,-74 55,-55 117,-55 117,-74"/>
<text text-anchor="middle" x="86" y="-62" font-family="Helvetica,sans-Serif" font-size="10.00">main.cpp</text>
</a>
</g>
</g>
<!-- Node8&#45;&gt;Node14 -->
<g id="edge16_Node000008_Node000014" class="edge">
<title>Node8&#45;&gt;Node14</title>
<g id="a_edge16_Node000008_Node000014"><a xlink:title=" ">
<path fill="none" stroke="#63b8ff" d="M338.79,-109.64C283.59,-101.18 199.05,-87.73 126,-74 123.21,-73.48 120.31,-72.91 117.41,-72.32"/>
<polygon fill="#63b8ff" stroke="#63b8ff" points="338.33,-113.11 348.74,-111.16 339.38,-106.19 338.33,-113.11"/>
</a>
</g>
</g>
<!-- Node9&#45;&gt;Node7 -->
<g id="edge10_Node000009_Node000007" class="edge">
<title>Node9&#45;&gt;Node7</title>
<g id="a_edge10_Node000009_Node000007"><a xlink:title=" ">
<path fill="none" stroke="#63b8ff" d="M180.96,-51.16C157.08,-41.35 124.28,-27.87 103.1,-19.17"/>
<polygon fill="#63b8ff" stroke="#63b8ff" points="179.69,-54.42 190.27,-54.98 182.35,-47.95 179.69,-54.42"/>
</a>
</g>
</g>
<!-- Node9&#45;&gt;Node10 -->
<g id="edge11_Node000009_Node000010" class="edge">
<title>Node9&#45;&gt;Node10</title>
<g id="a_edge11_Node000009_Node000010"><a xlink:title=" ">
<path fill="none" stroke="#63b8ff" d="M236.77,-50.37C255.87,-40.63 281.37,-27.64 297.99,-19.17"/>
<polygon fill="#63b8ff" stroke="#63b8ff" points="235.03,-47.33 227.71,-54.98 238.21,-53.56 235.03,-47.33"/>
</a>
</g>
</g>
<!-- Node25&#45;&gt;Node5 -->
<g id="edge33_Node000025_Node000005" class="edge">
<title>Node25&#45;&gt;Node5</title>
<g id="a_edge33_Node000025_Node000005"><a xlink:title=" ">
<path fill="none" stroke="#63b8ff" d="M1233.28,-163.73C1152.52,-153.71 1028.24,-138.28 952.03,-128.82"/>
<polygon fill="#63b8ff" stroke="#63b8ff" points="1233.04,-167.23 1243.4,-164.98 1233.9,-160.28 1233.04,-167.23"/>
</a>
</g>
</g>
<!-- Node25&#45;&gt;Node10 -->
<g id="edge32_Node000025_Node000010" class="edge">
<title>Node25&#45;&gt;Node10</title>
<g id="a_edge32_Node000025_Node000010"><a xlink:title=" ">
<path fill="none" stroke="#63b8ff" d="M1315.53,-155.1C1319.42,-128.6 1321.88,-80.09 1294,-55 1260.7,-25.04 619.49,-14.26 393.23,-11.37"/>
<polygon fill="#63b8ff" stroke="#63b8ff" points="1312.07,-154.54 1313.85,-164.99 1318.98,-155.71 1312.07,-154.54"/>
</a>
</g>
</g>
<!-- Node25&#45;&gt;Node17 -->
<g id="edge34_Node000025_Node000017" class="edge">
<title>Node25&#45;&gt;Node17</title>
<g id="a_edge34_Node000025_Node000017"><a xlink:title=" ">
<path fill="none" stroke="#63b8ff" d="M1249.06,-162.65C1221.69,-155.93 1190.2,-145.35 1165,-129 1142.49,-114.4 1123.92,-87.98 1115.26,-74.28"/>
<polygon fill="#63b8ff" stroke="#63b8ff" points="1248.4,-166.09 1258.93,-164.95 1249.99,-159.27 1248.4,-166.09"/>
</a>
</g>
</g>
<!-- Node25&#45;&gt;Node18 -->
<g id="edge38_Node000025_Node000018" class="edge">
<title>Node25&#45;&gt;Node18</title>
<g id="a_edge38_Node000025_Node000018"><a xlink:title=" ">
<path fill="none" stroke="#63b8ff" d="M1392.37,-164.73C1472.96,-155.89 1600.61,-141.76 1711,-129 1713.71,-128.69 1716.48,-128.36 1719.28,-128.04"/>
<polygon fill="#63b8ff" stroke="#63b8ff" points="1391.85,-161.27 1382.29,-165.83 1392.61,-168.22 1391.85,-161.27"/>
</a>
</g>
</g>
<!-- Node25&#45;&gt;Node24 -->
<g id="edge40_Node000025_Node000024" class="edge">
<title>Node25&#45;&gt;Node24</title>
<g id="a_edge40_Node000025_Node000024"><a xlink:title=" ">
<path fill="none" stroke="#63b8ff" d="M1392.33,-167.34C1498.02,-159.13 1689.51,-143.9 1853,-129 1856.1,-128.72 1859.27,-128.42 1862.46,-128.12"/>
<polygon fill="#63b8ff" stroke="#63b8ff" points="1391.76,-163.87 1382.07,-168.13 1392.31,-170.85 1391.76,-163.87"/>
</a>
</g>
</g>
<!-- Node26 -->
<g id="Node000026" class="node">
<title>Node26</title>
<g id="a_Node000026"><a xlink:href="../../db/dc9/btbiblekeywidget_8h.html" target="_top" xlink:title=" ">
<polygon fill="white" stroke="#666666" points="1080,-129 970,-129 970,-110 1080,-110 1080,-129"/>
<text text-anchor="middle" x="1025" y="-117" font-family="Helvetica,sans-Serif" font-size="10.00">btbiblekeywidget.h</text>
</a>
</g>
</g>
<!-- Node25&#45;&gt;Node26 -->
<g id="edge28_Node000025_Node000026" class="edge">
<title>Node25&#45;&gt;Node26</title>
<g id="a_edge28_Node000025_Node000026"><a xlink:title=" ">
<path fill="none" stroke="#63b8ff" d="M1255.83,-163.13C1202.02,-153.19 1121.78,-138.37 1071.47,-129.08"/>
<polygon fill="#63b8ff" stroke="#63b8ff" points="1255.42,-166.61 1265.89,-164.98 1256.69,-159.73 1255.42,-166.61"/>
</a>
</g>
</g>
<!-- Node28 -->
<g id="Node000028" class="node">
<title>Node28</title>
<g id="a_Node000028"><a xlink:href="../../d7/d2f/cbiblekeychooser_8h.html" target="_top" xlink:title=" ">
<polygon fill="white" stroke="#666666" points="1284,-129 1174,-129 1174,-110 1284,-110 1284,-129"/>
<text text-anchor="middle" x="1229" y="-117" font-family="Helvetica,sans-Serif" font-size="10.00">cbiblekeychooser.h</text>
</a>
</g>
</g>
<!-- Node25&#45;&gt;Node28 -->
<g id="edge35_Node000025_Node000028" class="edge">
<title>Node25&#45;&gt;Node28</title>
<g id="a_edge35_Node000025_Node000028"><a xlink:title=" ">
<path fill="none" stroke="#63b8ff" d="M1289.96,-159.42C1274.89,-149.81 1255.41,-137.37 1242.58,-129.17"/>
<polygon fill="#63b8ff" stroke="#63b8ff" points="1288.35,-162.55 1298.66,-164.98 1292.12,-156.65 1288.35,-162.55"/>
</a>
</g>
</g>
<!-- Node30 -->
<g id="Node000030" class="node">
<title>Node30</title>
<g id="a_Node000030"><a xlink:href="../../d9/d7b/cswordbackend_8cpp.html" target="_top" xlink:title=" ">
<polygon fill="white" stroke="#666666" points="1478,-74 1366,-74 1366,-55 1478,-55 1478,-74"/>
<text text-anchor="middle" x="1422" y="-62" font-family="Helvetica,sans-Serif" font-size="10.00">cswordbackend.cpp</text>
</a>
</g>
</g>
<!-- Node25&#45;&gt;Node30 -->
<g id="edge39_Node000025_Node000030" class="edge">
<title>Node25&#45;&gt;Node30</title>
<g id="a_edge39_Node000025_Node000030"><a xlink:title=" ">
<path fill="none" stroke="#63b8ff" d="M1325.54,-157.18C1336.73,-144 1353.28,-125.21 1369,-110 1382.64,-96.8 1399.63,-82.94 1410.64,-74.27"/>
<polygon fill="#63b8ff" stroke="#63b8ff" points="1322.77,-155.03 1319.02,-164.94 1328.13,-159.53 1322.77,-155.03"/>
</a>
</g>
</g>
<!-- Node31 -->
<g id="Node000031" class="node">
<title>Node31</title>
<g id="a_Node000031"><a xlink:href="../../de/dcf/cswordcommentarymoduleinfo_8h.html" target="_top" xlink:title=" ">
<polygon fill="white" stroke="#666666" points="1702,-129 1524,-129 1524,-110 1702,-110 1702,-129"/>
<text text-anchor="middle" x="1613" y="-117" font-family="Helvetica,sans-Serif" font-size="10.00">cswordcommentarymoduleinfo.h</text>
</a>
</g>
</g>
<!-- Node25&#45;&gt;Node31 -->
<g id="edge41_Node000025_Node000031" class="edge">
<title>Node25&#45;&gt;Node31</title>
<g id="a_edge41_Node000025_Node000031"><a xlink:title=" ">
<path fill="none" stroke="#63b8ff" d="M1370.56,-163.19C1426.99,-153.25 1511.39,-138.39 1564.26,-129.08"/>
<polygon fill="#63b8ff" stroke="#63b8ff" points="1369.6,-159.8 1360.36,-164.98 1370.82,-166.7 1369.6,-159.8"/>
</a>
</g>
</g>
<!-- Node33 -->
<g id="Node000033" class="node">
<title>Node33</title>
<g id="a_Node000033"><a xlink:href="../../d3/db9/cswordmoduleinfo_8cpp.html" target="_top" xlink:title=" ">
<polygon fill="white" stroke="#666666" points="1505.5,-129 1378.5,-129 1378.5,-110 1505.5,-110 1505.5,-129"/>
<text text-anchor="middle" x="1442" y="-117" font-family="Helvetica,sans-Serif" font-size="10.00">cswordmoduleinfo.cpp</text>
</a>
</g>
</g>
<!-- Node25&#45;&gt;Node33 -->
<g id="edge44_Node000025_Node000033" class="edge">
<title>Node25&#45;&gt;Node33</title>
<g id="a_edge44_Node000025_Node000033"><a xlink:title=" ">
<path fill="none" stroke="#63b8ff" d="M1342.27,-161.16C1366.34,-151.35 1399.4,-137.87 1420.73,-129.17"/>
<polygon fill="#63b8ff" stroke="#63b8ff" points="1340.83,-157.97 1332.89,-164.98 1343.47,-164.45 1340.83,-157.97"/>
</a>
</g>
</g>
<!-- Node25&#45;&gt;Node34 -->
<g id="edge45_Node000025_Node000034" class="edge">
<title>Node25&#45;&gt;Node34</title>
<g id="a_edge45_Node000025_Node000034"><a xlink:title=" ">
<path fill="none" stroke="#63b8ff" d="M1392.48,-169.1C1551.71,-160.3 1901.91,-140.37 2022,-129 2025.15,-128.7 2028.38,-128.37 2031.64,-128.02"/>
<polygon fill="#63b8ff" stroke="#63b8ff" points="1392.07,-165.62 1382.27,-169.67 1392.45,-172.61 1392.07,-165.62"/>
</a>
</g>
</g>
<!-- Node26&#45;&gt;Node3 -->
<g id="edge29_Node000026_Node000003" class="edge">
<title>Node26&#45;&gt;Node3</title>
<g id="a_edge29_Node000026_Node000003"><a xlink:title=" ">
<path fill="none" stroke="#63b8ff" d="M976.94,-107.75C932.53,-97.82 867.4,-83.26 826.38,-74.08"/>
<polygon fill="#63b8ff" stroke="#63b8ff" points="976.4,-111.22 986.92,-109.98 977.93,-104.39 976.4,-111.22"/>
</a>
</g>
</g>
<!-- Node26&#45;&gt;Node17 -->
<g id="edge31_Node000026_Node000017" class="edge">
<title>Node26&#45;&gt;Node17</title>
<g id="a_edge31_Node000026_Node000017"><a xlink:title=" ">
<path fill="none" stroke="#63b8ff" d="M1047.57,-104.42C1063,-94.81 1082.95,-82.37 1096.09,-74.17"/>
<polygon fill="#63b8ff" stroke="#63b8ff" points="1045.29,-101.72 1038.66,-109.98 1048.99,-107.66 1045.29,-101.72"/>
</a>
</g>
</g>
<!-- Node27 -->
<g id="Node000027" class="node">
<title>Node27</title>
<g id="a_Node000027"><a xlink:href="../../df/dae/btdropdownchooserbutton_8cpp.html" target="_top" xlink:title=" ">
<polygon fill="white" stroke="#666666" points="1031,-74 867,-74 867,-55 1031,-55 1031,-74"/>
<text text-anchor="middle" x="949" y="-62" font-family="Helvetica,sans-Serif" font-size="10.00">btdropdownchooserbutton.cpp</text>
</a>
</g>
</g>
<!-- Node26&#45;&gt;Node27 -->
<g id="edge30_Node000026_Node000027" class="edge">
<title>Node26&#45;&gt;Node27</title>
<g id="a_edge30_Node000026_Node000027"><a xlink:title=" ">
<path fill="none" stroke="#63b8ff" d="M1004.42,-104.15C990.69,-94.57 973.07,-82.29 961.43,-74.17"/>
<polygon fill="#63b8ff" stroke="#63b8ff" points="1002.58,-107.14 1012.79,-109.98 1006.59,-101.39 1002.58,-107.14"/>
</a>
</g>
</g>
<!-- Node28&#45;&gt;Node17 -->
<g id="edge36_Node000028_Node000017" class="edge">
<title>Node28&#45;&gt;Node17</title>
<g id="a_edge36_Node000028_Node000017"><a xlink:title=" ">
<path fill="none" stroke="#63b8ff" d="M1200.7,-105.9C1178.72,-96.11 1148.82,-82.79 1129.47,-74.17"/>
<polygon fill="#63b8ff" stroke="#63b8ff" points="1199.32,-109.11 1209.88,-109.98 1202.17,-102.72 1199.32,-109.11"/>
</a>
</g>
</g>
<!-- Node29 -->
<g id="Node000029" class="node">
<title>Node29</title>
<g id="a_Node000029"><a xlink:href="../../d4/d0c/ckeychooser_8cpp.html" target="_top" xlink:title=" ">
<polygon fill="white" stroke="#666666" points="1285.5,-74 1188.5,-74 1188.5,-55 1285.5,-55 1285.5,-74"/>
<text text-anchor="middle" x="1237" y="-62" font-family="Helvetica,sans-Serif" font-size="10.00">ckeychooser.cpp</text>
</a>
</g>
</g>
<!-- Node28&#45;&gt;Node29 -->
<g id="edge37_Node000028_Node000029" class="edge">
<title>Node28&#45;&gt;Node29</title>
<g id="a_edge37_Node000028_Node000029"><a xlink:title=" ">
<path fill="none" stroke="#63b8ff" d="M1231.84,-99.66C1233.16,-90.93 1234.66,-80.99 1235.7,-74.09"/>
<polygon fill="#63b8ff" stroke="#63b8ff" points="1228.35,-99.34 1230.32,-109.75 1235.27,-100.38 1228.35,-99.34"/>
</a>
</g>
</g>
<!-- Node31&#45;&gt;Node30 -->
<g id="edge42_Node000031_Node000030" class="edge">
<title>Node31&#45;&gt;Node30</title>
<g id="a_edge42_Node000031_Node000030"><a xlink:title=" ">
<path fill="none" stroke="#63b8ff" d="M1572.22,-107.18C1536.5,-97.27 1485.37,-83.08 1452.93,-74.08"/>
<polygon fill="#63b8ff" stroke="#63b8ff" points="1571.74,-110.68 1582.31,-109.98 1573.61,-103.94 1571.74,-110.68"/>
</a>
</g>
</g>
<!-- Node32 -->
<g id="Node000032" class="node">
<title>Node32</title>
<g id="a_Node000032"><a xlink:href="../../d9/db8/cswordcommentarymoduleinfo_8cpp.html" target="_top" xlink:title=" ">
<polygon fill="white" stroke="#666666" points="1707.5,-74 1518.5,-74 1518.5,-55 1707.5,-55 1707.5,-74"/>
<text text-anchor="middle" x="1613" y="-62" font-family="Helvetica,sans-Serif" font-size="10.00">cswordcommentarymoduleinfo.cpp</text>
</a>
</g>
</g>
<!-- Node31&#45;&gt;Node32 -->
<g id="edge43_Node000031_Node000032" class="edge">
<title>Node31&#45;&gt;Node32</title>
<g id="a_edge43_Node000031_Node000032"><a xlink:title=" ">
<path fill="none" stroke="#63b8ff" d="M1613,-99.66C1613,-90.93 1613,-80.99 1613,-74.09"/>
<polygon fill="#63b8ff" stroke="#63b8ff" points="1609.5,-99.75 1613,-109.75 1616.5,-99.75 1609.5,-99.75"/>
</a>
</g>
</g>
</g>
</svg>

<g id="navigator" transform="translate(0 0)" fill="#404254">
  <rect fill="#f2f5e9" fill-opacity="0.5" stroke="#606060" stroke-width=".5" x="0" y="0" width="60" height="60"/>
  <use id="zoomplus" xlink:href="#zoomPlus" x="17" y="9" onmousedown="handleZoom(evt,'in')"/>
  <use id="zoomminus" xlink:href="#zoomMin" x="42" y="9" onmousedown="handleZoom(evt,'out')"/>
  <use id="reset" xlink:href="#resetDef" x="30" y="36" onmousedown="handleReset()"/>
   <use id="arrowup" xlink:href="#arrowUp" x="0" y="0" onmousedown="handlePan(0,-1)"/>
  <use id="arrowright" xlink:href="#arrowRight" x="0" y="0" onmousedown="handlePan(1,0)"/>
  <use id="arrowdown" xlink:href="#arrowDown" x="0" y="0" onmousedown="handlePan(0,1)"/>
  <use id="arrowleft" xlink:href="#arrowLeft" x="0" y="0" onmousedown="handlePan(-1,0)"/>
</g>
<svg viewBox="0 0 15 15" width="100%" height="30px" preserveAspectRatio="xMaxYMin meet">
 <g id="arrow_out" transform="scale(0.3 0.3)">
  <a xlink:href="cswordversekey_8h__dep__incl_org.svg" target="_base">
   <rect id="button" ry="5" rx="5" y="6" x="6" height="38" width="38"
        fill="#f2f5e9" fill-opacity="0.5" stroke="#606060" stroke-width="1.0"/>
   <path id="arrow"
     d="M 11.500037,31.436501 C 11.940474,20.09759 22.043105,11.32322 32.158766,21.979434 L 37.068811,17.246167 C 37.068811,17.246167 37.088388,32 37.088388,32 L 22.160133,31.978069 C 22.160133,31.978069 26.997745,27.140456 26.997745,27.140456 C 18.528582,18.264221 13.291696,25.230495 11.500037,31.436501 z"
     style="fill:#404040;"/>
  </a>
 </g>
</svg>

<style type='text/css'>
<![CDATA[
[data-mouse-over-selected='false'] { opacity: 0.7; }
[data-mouse-over-selected='true']  { opacity: 1.0; }
]]>
</style>
<script type="application/ecmascript"><![CDATA[
document.addEventListener('DOMContentLoaded', (event) => {
  highlightEdges();
  highlightAdjacentNodes();
});
]]></script>
</svg>
