<?xml version="1.0" encoding="UTF-8" standalone="no"?>
<!DOCTYPE svg PUBLIC "-//W3C//DTD SVG 1.1//EN"
 "http://www.w3.org/Graphics/SVG/1.1/DTD/svg11.dtd">
<!-- Generated by graphviz version 2.43.0 (0)
 -->
<!-- Title: cswordversekey.h Pages: 1 -->
<!--zoomable 252 -->
<svg id="main" version="1.1" xmlns="http://www.w3.org/2000/svg" xmlns:xlink="http://www.w3.org/1999/xlink" xml:space="preserve" onload="init(evt)">
<style type="text/css"><![CDATA[
.edge:hover path { stroke: red; }
.edge:hover polygon { stroke: red; fill: red; }
]]></style>
<script type="text/javascript"><![CDATA[
var edges = document.getElementsByTagName('g');
if (edges && edges.length) {
  for (var i=0;i<edges.length;i++) {
    if (edges[i].id.substr(0,4)=='edge') {
      edges[i].setAttribute('class','edge');
    }
  }
}
]]></script>
        <defs>
                <circle id="rim" cx="0" cy="0" r="7"/>
                <circle id="rim2" cx="0" cy="0" r="3.5"/>
                <g id="zoomPlus">
                        <use xlink:href="#rim" fill="#404040">
                                <set attributeName="fill" to="#808080" begin="zoomplus.mouseover" end="zoomplus.mouseout"/>
                        </use>
                        <path d="M-4,0h8M0,-4v8" fill="none" stroke="white" stroke-width="1.5" pointer-events="none"/>
                </g>
                <g id="zoomMin">
                        <use xlink:href="#rim" fill="#404040">
                                <set attributeName="fill" to="#808080" begin="zoomminus.mouseover" end="zoomminus.mouseout"/>
                        </use>
                        <path d="M-4,0h8" fill="none" stroke="white" stroke-width="1.5" pointer-events="none"/>
                </g>
                <g id="dirArrow">
                        <path fill="none" stroke="white" stroke-width="1.5" d="M0,-3.0v7 M-2.5,-0.5L0,-3.0L2.5,-0.5"/>
                </g>
               <g id="resetDef">
                       <use xlink:href="#rim2" fill="#404040">
                               <set attributeName="fill" to="#808080" begin="reset.mouseover" end="reset.mouseout"/>
                       </use>
               </g>
        </defs>

<script type="text/javascript">
var viewWidth = 2909;
var viewHeight = 252;
var sectionId = 'dynsection-0';
</script>
<script xlink:href="../../svgpan.js"/>
<svg id="graph" class="graph">
<g id="viewport">
<title>cswordversekey.h</title>
<polygon fill="white" stroke="transparent" points="-4,4 -4,-248 2905,-248 2905,4 -4,4"/>
<!-- Node1 -->
<g id="node1" class="node">
<title>Node1</title>
<g id="a_node1"><a xlink:title=" ">
<polygon fill="#bfbfbf" stroke="black" points="1557.5,-224.5 1557.5,-243.5 1660.5,-243.5 1660.5,-224.5 1557.5,-224.5"/>
<text text-anchor="middle" x="1609" y="-231.5" font-family="Helvetica,sans-Serif" font-size="10.00">cswordversekey.h</text>
</a>
</g>
</g>
<!-- Node2 -->
<g id="node2" class="node">
<title>Node2</title>
<g id="a_node2"><a xlink:href="../../d7/dd0/btbookmarksmodel_8cpp.html" target="_top" xlink:title=" ">
<polygon fill="white" stroke="black" points="0,-168.5 0,-187.5 132,-187.5 132,-168.5 0,-168.5"/>
<text text-anchor="middle" x="66" y="-175.5" font-family="Helvetica,sans-Serif" font-size="10.00">btbookmarksmodel.cpp</text>
</a>
</g>
</g>
<!-- Node1&#45;&gt;Node2 -->
<g id="edge1" class="edge">
<title>Node1&#45;&gt;Node2</title>
<path fill="none" stroke="midnightblue" d="M1547.32,-232.89C1345.73,-232.17 688.18,-226.77 146,-188 141.54,-187.68 136.94,-187.3 132.32,-186.88"/>
<polygon fill="midnightblue" stroke="midnightblue" points="1547.41,-236.4 1557.42,-232.93 1547.43,-229.4 1547.41,-236.4"/>
</g>
<!-- Node3 -->
<g id="node3" class="node">
<title>Node3</title>
<g id="a_node3"><a xlink:href="../../d4/d94/cswordbiblemoduleinfo_8cpp.html" target="_top" xlink:title=" ">
<polygon fill="white" stroke="black" points="188.5,-112.5 188.5,-131.5 339.5,-131.5 339.5,-112.5 188.5,-112.5"/>
<text text-anchor="middle" x="264" y="-119.5" font-family="Helvetica,sans-Serif" font-size="10.00">cswordbiblemoduleinfo.cpp</text>
</a>
</g>
</g>
<!-- Node1&#45;&gt;Node3 -->
<g id="edge2" class="edge">
<title>Node1&#45;&gt;Node3</title>
<path fill="none" stroke="midnightblue" d="M1547.1,-232.1C1399.36,-229.47 1014.57,-219.88 695,-188 554,-173.93 388.68,-145.67 310.05,-131.5"/>
<polygon fill="midnightblue" stroke="midnightblue" points="1547.27,-235.6 1557.33,-232.27 1547.39,-228.6 1547.27,-235.6"/>
</g>
<!-- Node4 -->
<g id="node4" class="node">
<title>Node4</title>
<g id="a_node4"><a xlink:href="../../de/d73/cswordbiblemoduleinfo_8h.html" target="_top" xlink:title=" ">
<polygon fill="white" stroke="black" points="868,-168.5 868,-187.5 1008,-187.5 1008,-168.5 868,-168.5"/>
<text text-anchor="middle" x="938" y="-175.5" font-family="Helvetica,sans-Serif" font-size="10.00">cswordbiblemoduleinfo.h</text>
</a>
</g>
</g>
<!-- Node1&#45;&gt;Node4 -->
<g id="edge3" class="edge">
<title>Node1&#45;&gt;Node4</title>
<path fill="none" stroke="midnightblue" d="M1547.3,-228.03C1422.32,-217.98 1139.96,-195.25 1008.19,-184.65"/>
<polygon fill="midnightblue" stroke="midnightblue" points="1547.21,-231.54 1557.46,-228.85 1547.77,-224.56 1547.21,-231.54"/>
</g>
<!-- Node9 -->
<g id="node9" class="node">
<title>Node9</title>
<g id="a_node9"><a xlink:href="../../d1/ddc/cswordversekey_8cpp.html" target="_top" xlink:title=" ">
<polygon fill="white" stroke="black" points="358,-112.5 358,-131.5 472,-131.5 472,-112.5 358,-112.5"/>
<text text-anchor="middle" x="415" y="-119.5" font-family="Helvetica,sans-Serif" font-size="10.00">cswordversekey.cpp</text>
</a>
</g>
</g>
<!-- Node1&#45;&gt;Node9 -->
<g id="edge22" class="edge">
<title>Node1&#45;&gt;Node9</title>
<path fill="none" stroke="midnightblue" d="M1546.99,-231.07C1418.43,-226.68 1113.56,-214.22 859,-188 714.67,-173.13 545.33,-145.49 463.78,-131.54"/>
<polygon fill="midnightblue" stroke="midnightblue" points="1546.94,-234.57 1557.05,-231.41 1547.17,-227.58 1546.94,-234.57"/>
</g>
<!-- Node10 -->
<g id="node10" class="node">
<title>Node10</title>
<g id="a_node10"><a xlink:href="../../de/d93/btmoduletextmodel_8cpp.html" target="_top" xlink:title=" ">
<polygon fill="white" stroke="black" points="1384,-112.5 1384,-131.5 1518,-131.5 1518,-112.5 1384,-112.5"/>
<text text-anchor="middle" x="1451" y="-119.5" font-family="Helvetica,sans-Serif" font-size="10.00">btmoduletextmodel.cpp</text>
</a>
</g>
</g>
<!-- Node1&#45;&gt;Node10 -->
<g id="edge24" class="edge">
<title>Node1&#45;&gt;Node10</title>
<path fill="none" stroke="midnightblue" d="M1547.23,-228.36C1491.55,-222.74 1415.64,-211.02 1397,-188 1380.47,-167.59 1413.46,-143.95 1434.8,-131.57"/>
<polygon fill="midnightblue" stroke="midnightblue" points="1547.08,-231.86 1557.37,-229.34 1547.75,-224.9 1547.08,-231.86"/>
</g>
<!-- Node12 -->
<g id="node12" class="node">
<title>Node12</title>
<g id="a_node12"><a xlink:href="../../de/da4/cbiblereadwindow_8cpp.html" target="_top" xlink:title=" ">
<polygon fill="white" stroke="black" points="1202.5,-112.5 1202.5,-131.5 1327.5,-131.5 1327.5,-112.5 1202.5,-112.5"/>
<text text-anchor="middle" x="1265" y="-119.5" font-family="Helvetica,sans-Serif" font-size="10.00">cbiblereadwindow.cpp</text>
</a>
</g>
</g>
<!-- Node1&#45;&gt;Node12 -->
<g id="edge43" class="edge">
<title>Node1&#45;&gt;Node12</title>
<path fill="none" stroke="midnightblue" d="M1547.16,-227.87C1475.76,-221.13 1363.34,-207.79 1326,-188 1300.57,-174.52 1279.89,-146.31 1270.48,-131.9"/>
<polygon fill="midnightblue" stroke="midnightblue" points="1547.1,-231.38 1557.38,-228.82 1547.75,-224.41 1547.1,-231.38"/>
</g>
<!-- Node14 -->
<g id="node14" class="node">
<title>Node14</title>
<g id="a_node14"><a xlink:href="../../d7/d92/btbiblekeywidget_8cpp.html" target="_top" xlink:title=" ">
<polygon fill="white" stroke="black" points="1149.5,-56.5 1149.5,-75.5 1270.5,-75.5 1270.5,-56.5 1149.5,-56.5"/>
<text text-anchor="middle" x="1210" y="-63.5" font-family="Helvetica,sans-Serif" font-size="10.00">btbiblekeywidget.cpp</text>
</a>
</g>
</g>
<!-- Node1&#45;&gt;Node14 -->
<g id="edge45" class="edge">
<title>Node1&#45;&gt;Node14</title>
<path fill="none" stroke="midnightblue" d="M1547.31,-232.8C1500.1,-229.89 1435.28,-219.68 1388,-188 1354.21,-165.36 1369.13,-136.95 1337,-112 1313.16,-93.5 1281.1,-82.21 1255.16,-75.57"/>
<polygon fill="midnightblue" stroke="midnightblue" points="1547.24,-236.3 1557.41,-233.33 1547.61,-229.31 1547.24,-236.3"/>
</g>
<!-- Node16 -->
<g id="node16" class="node">
<title>Node16</title>
<g id="a_node16"><a xlink:href="../../dc/d8f/cbiblekeychooser_8cpp.html" target="_top" xlink:title=" ">
<polygon fill="white" stroke="black" points="374.5,-56.5 374.5,-75.5 495.5,-75.5 495.5,-56.5 374.5,-56.5"/>
<text text-anchor="middle" x="435" y="-63.5" font-family="Helvetica,sans-Serif" font-size="10.00">cbiblekeychooser.cpp</text>
</a>
</g>
</g>
<!-- Node1&#45;&gt;Node16 -->
<g id="edge46" class="edge">
<title>Node1&#45;&gt;Node16</title>
<path fill="none" stroke="midnightblue" d="M1547.06,-232.86C1382.19,-231.96 919.08,-225.95 536,-188 376.18,-172.17 283.4,-254.05 179,-132 173.22,-125.25 173.28,-118.81 179,-112 203.45,-82.88 306.62,-72.6 374.29,-68.97"/>
<polygon fill="midnightblue" stroke="midnightblue" points="1547.46,-236.36 1557.48,-232.91 1547.5,-229.36 1547.46,-236.36"/>
</g>
<!-- Node19 -->
<g id="node19" class="node">
<title>Node19</title>
<g id="a_node19"><a xlink:href="../../d7/dfe/referencemanager_8cpp.html" target="_top" xlink:title=" ">
<polygon fill="white" stroke="black" points="1546,-168.5 1546,-187.5 1672,-187.5 1672,-168.5 1546,-168.5"/>
<text text-anchor="middle" x="1609" y="-175.5" font-family="Helvetica,sans-Serif" font-size="10.00">referencemanager.cpp</text>
</a>
</g>
</g>
<!-- Node1&#45;&gt;Node19 -->
<g id="edge23" class="edge">
<title>Node1&#45;&gt;Node19</title>
<path fill="none" stroke="midnightblue" d="M1609,-213.8C1609,-204.91 1609,-194.78 1609,-187.75"/>
<polygon fill="midnightblue" stroke="midnightblue" points="1605.5,-214.08 1609,-224.08 1612.5,-214.08 1605.5,-214.08"/>
</g>
<!-- Node20 -->
<g id="node20" class="node">
<title>Node20</title>
<g id="a_node20"><a xlink:href="../../df/d72/btmoduletextmodel_8h.html" target="_top" xlink:title=" ">
<polygon fill="white" stroke="black" points="1406,-168.5 1406,-187.5 1528,-187.5 1528,-168.5 1406,-168.5"/>
<text text-anchor="middle" x="1467" y="-175.5" font-family="Helvetica,sans-Serif" font-size="10.00">btmoduletextmodel.h</text>
</a>
</g>
</g>
<!-- Node1&#45;&gt;Node20 -->
<g id="edge25" class="edge">
<title>Node1&#45;&gt;Node20</title>
<path fill="none" stroke="midnightblue" d="M1576.84,-220.77C1550.17,-210.63 1512.93,-196.47 1489.4,-187.52"/>
<polygon fill="midnightblue" stroke="midnightblue" points="1575.91,-224.16 1586.5,-224.44 1578.4,-217.62 1575.91,-224.16"/>
</g>
<!-- Node28 -->
<g id="node28" class="node">
<title>Node28</title>
<g id="a_node28"><a xlink:href="../../dc/d52/cdisplayrendering_8cpp.html" target="_top" xlink:title=" ">
<polygon fill="white" stroke="black" points="1690,-168.5 1690,-187.5 1814,-187.5 1814,-168.5 1690,-168.5"/>
<text text-anchor="middle" x="1752" y="-175.5" font-family="Helvetica,sans-Serif" font-size="10.00">cdisplayrendering.cpp</text>
</a>
</g>
</g>
<!-- Node1&#45;&gt;Node28 -->
<g id="edge37" class="edge">
<title>Node1&#45;&gt;Node28</title>
<path fill="none" stroke="midnightblue" d="M1641.03,-220.91C1667.91,-210.75 1705.64,-196.51 1729.45,-187.52"/>
<polygon fill="midnightblue" stroke="midnightblue" points="1639.78,-217.64 1631.66,-224.44 1642.25,-224.19 1639.78,-217.64"/>
</g>
<!-- Node29 -->
<g id="node29" class="node">
<title>Node29</title>
<g id="a_node29"><a xlink:href="../../d5/d19/crossrefrendering_8cpp.html" target="_top" xlink:title=" ">
<polygon fill="white" stroke="black" points="1832,-168.5 1832,-187.5 1954,-187.5 1954,-168.5 1832,-168.5"/>
<text text-anchor="middle" x="1893" y="-175.5" font-family="Helvetica,sans-Serif" font-size="10.00">crossrefrendering.cpp</text>
</a>
</g>
</g>
<!-- Node1&#45;&gt;Node29 -->
<g id="edge38" class="edge">
<title>Node1&#45;&gt;Node29</title>
<path fill="none" stroke="midnightblue" d="M1664.03,-222.54C1717.7,-212.33 1798.34,-197 1848.21,-187.52"/>
<polygon fill="midnightblue" stroke="midnightblue" points="1663.17,-219.14 1654,-224.44 1664.48,-226.01 1663.17,-219.14"/>
</g>
<!-- Node30 -->
<g id="node30" class="node">
<title>Node30</title>
<g id="a_node30"><a xlink:href="../../db/d72/ctextrendering_8cpp.html" target="_top" xlink:title=" ">
<polygon fill="white" stroke="black" points="1972,-168.5 1972,-187.5 2080,-187.5 2080,-168.5 1972,-168.5"/>
<text text-anchor="middle" x="2026" y="-175.5" font-family="Helvetica,sans-Serif" font-size="10.00">ctextrendering.cpp</text>
</a>
</g>
</g>
<!-- Node1&#45;&gt;Node30 -->
<g id="edge39" class="edge">
<title>Node1&#45;&gt;Node30</title>
<path fill="none" stroke="midnightblue" d="M1670.69,-225.45C1741.35,-216.74 1860.59,-201.82 1963,-188 1965.85,-187.62 1968.77,-187.22 1971.71,-186.81"/>
<polygon fill="midnightblue" stroke="midnightblue" points="1670.12,-221.99 1660.62,-226.69 1670.98,-228.94 1670.12,-221.99"/>
</g>
<!-- Node31 -->
<g id="node31" class="node">
<title>Node31</title>
<g id="a_node31"><a xlink:href="../../d1/df6/bibletime_8cpp.html" target="_top" xlink:title=" ">
<polygon fill="white" stroke="black" points="2098.5,-168.5 2098.5,-187.5 2181.5,-187.5 2181.5,-168.5 2098.5,-168.5"/>
<text text-anchor="middle" x="2140" y="-175.5" font-family="Helvetica,sans-Serif" font-size="10.00">bibletime.cpp</text>
</a>
</g>
</g>
<!-- Node1&#45;&gt;Node31 -->
<g id="edge40" class="edge">
<title>Node1&#45;&gt;Node31</title>
<path fill="none" stroke="midnightblue" d="M1670.86,-228.81C1762.45,-222.25 1939.44,-208.17 2089,-188 2092.03,-187.59 2095.15,-187.13 2098.29,-186.64"/>
<polygon fill="midnightblue" stroke="midnightblue" points="1670.38,-225.34 1660.66,-229.54 1670.88,-232.32 1670.38,-225.34"/>
</g>
<!-- Node32 -->
<g id="node32" class="node">
<title>Node32</title>
<g id="a_node32"><a xlink:href="../../d0/dae/btprinter_8cpp.html" target="_top" xlink:title=" ">
<polygon fill="white" stroke="black" points="2200,-168.5 2200,-187.5 2278,-187.5 2278,-168.5 2200,-168.5"/>
<text text-anchor="middle" x="2239" y="-175.5" font-family="Helvetica,sans-Serif" font-size="10.00">btprinter.cpp</text>
</a>
</g>
</g>
<!-- Node1&#45;&gt;Node32 -->
<g id="edge41" class="edge">
<title>Node1&#45;&gt;Node32</title>
<path fill="none" stroke="midnightblue" d="M1670.82,-230.42C1777.38,-225.48 2002.37,-212.9 2191,-188 2193.86,-187.62 2196.8,-187.19 2199.76,-186.71"/>
<polygon fill="midnightblue" stroke="midnightblue" points="1670.41,-226.94 1660.58,-230.89 1670.73,-233.93 1670.41,-226.94"/>
</g>
<!-- Node33 -->
<g id="node33" class="node">
<title>Node33</title>
<g id="a_node33"><a xlink:href="../../d5/deb/cexportmanager_8cpp.html" target="_top" xlink:title=" ">
<polygon fill="white" stroke="black" points="2296,-168.5 2296,-187.5 2412,-187.5 2412,-168.5 2296,-168.5"/>
<text text-anchor="middle" x="2354" y="-175.5" font-family="Helvetica,sans-Serif" font-size="10.00">cexportmanager.cpp</text>
</a>
</g>
</g>
<!-- Node1&#45;&gt;Node33 -->
<g id="edge42" class="edge">
<title>Node1&#45;&gt;Node33</title>
<path fill="none" stroke="midnightblue" d="M1670.59,-230.3C1789.8,-224.77 2060.32,-210.72 2287,-188 2289.92,-187.71 2292.91,-187.39 2295.92,-187.04"/>
<polygon fill="midnightblue" stroke="midnightblue" points="1670.38,-226.81 1660.56,-230.76 1670.71,-233.8 1670.38,-226.81"/>
</g>
<!-- Node34 -->
<g id="node34" class="node">
<title>Node34</title>
<g id="a_node34"><a xlink:href="../../d0/d6f/ccommentaryreadwindow_8cpp.html" target="_top" xlink:title=" ">
<polygon fill="white" stroke="black" points="2430.5,-168.5 2430.5,-187.5 2593.5,-187.5 2593.5,-168.5 2430.5,-168.5"/>
<text text-anchor="middle" x="2512" y="-175.5" font-family="Helvetica,sans-Serif" font-size="10.00">ccommentaryreadwindow.cpp</text>
</a>
</g>
</g>
<!-- Node1&#45;&gt;Node34 -->
<g id="edge44" class="edge">
<title>Node1&#45;&gt;Node34</title>
<path fill="none" stroke="midnightblue" d="M1671.04,-230.48C1807.02,-224.75 2141.46,-209.56 2421,-188 2424.01,-187.77 2427.07,-187.52 2430.16,-187.26"/>
<polygon fill="midnightblue" stroke="midnightblue" points="1670.67,-226.99 1660.83,-230.91 1670.96,-233.98 1670.67,-226.99"/>
</g>
<!-- Node35 -->
<g id="node35" class="node">
<title>Node35</title>
<g id="a_node35"><a xlink:href="../../d6/dd0/csearchanalysisscene_8cpp.html" target="_top" xlink:title=" ">
<polygon fill="white" stroke="black" points="2611.5,-168.5 2611.5,-187.5 2754.5,-187.5 2754.5,-168.5 2611.5,-168.5"/>
<text text-anchor="middle" x="2683" y="-175.5" font-family="Helvetica,sans-Serif" font-size="10.00">csearchanalysisscene.cpp</text>
</a>
</g>
</g>
<!-- Node1&#45;&gt;Node35 -->
<g id="edge47" class="edge">
<title>Node1&#45;&gt;Node35</title>
<path fill="none" stroke="midnightblue" d="M1670.9,-231.63C1827.31,-227.87 2250.95,-215.74 2603,-188 2605.79,-187.78 2608.63,-187.54 2611.49,-187.28"/>
<polygon fill="midnightblue" stroke="midnightblue" points="1670.46,-228.14 1660.55,-231.88 1670.63,-235.14 1670.46,-228.14"/>
</g>
<!-- Node36 -->
<g id="node36" class="node">
<title>Node36</title>
<g id="a_node36"><a xlink:href="../../dd/dde/btsearchresultarea_8cpp.html" target="_top" xlink:title=" ">
<polygon fill="white" stroke="black" points="2773,-168.5 2773,-187.5 2901,-187.5 2901,-168.5 2773,-168.5"/>
<text text-anchor="middle" x="2837" y="-175.5" font-family="Helvetica,sans-Serif" font-size="10.00">btsearchresultarea.cpp</text>
</a>
</g>
</g>
<!-- Node1&#45;&gt;Node36 -->
<g id="edge48" class="edge">
<title>Node1&#45;&gt;Node36</title>
<path fill="none" stroke="midnightblue" d="M1670.79,-232.41C1843.73,-230.37 2347.23,-221.75 2764,-188 2766.93,-187.76 2769.92,-187.5 2772.94,-187.21"/>
<polygon fill="midnightblue" stroke="midnightblue" points="1670.57,-228.91 1660.61,-232.53 1670.65,-235.91 1670.57,-228.91"/>
</g>
<!-- Node4&#45;&gt;Node3 -->
<g id="edge4" class="edge">
<title>Node4&#45;&gt;Node3</title>
<path fill="none" stroke="midnightblue" d="M857.69,-171.61C744.25,-163.83 530.67,-148.55 349,-132 345.9,-131.72 342.73,-131.42 339.53,-131.11"/>
<polygon fill="midnightblue" stroke="midnightblue" points="857.46,-175.1 867.68,-172.29 857.94,-168.12 857.46,-175.1"/>
</g>
<!-- Node5 -->
<g id="node5" class="node">
<title>Node5</title>
<g id="a_node5"><a xlink:href="../../de/dcf/cswordcommentarymoduleinfo_8h.html" target="_top" xlink:title=" ">
<polygon fill="white" stroke="black" points="930,-112.5 930,-131.5 1108,-131.5 1108,-112.5 930,-112.5"/>
<text text-anchor="middle" x="1019" y="-119.5" font-family="Helvetica,sans-Serif" font-size="10.00">cswordcommentarymoduleinfo.h</text>
</a>
</g>
</g>
<!-- Node4&#45;&gt;Node5 -->
<g id="edge5" class="edge">
<title>Node4&#45;&gt;Node5</title>
<path fill="none" stroke="midnightblue" d="M959.57,-162.62C974.36,-152.76 993.51,-139.99 1006.02,-131.65"/>
<polygon fill="midnightblue" stroke="midnightblue" points="957.39,-159.86 951.01,-168.32 961.28,-165.69 957.39,-159.86"/>
</g>
<!-- Node7 -->
<g id="node7" class="node">
<title>Node7</title>
<g id="a_node7"><a xlink:href="../../d9/d7b/cswordbackend_8cpp.html" target="_top" xlink:title=" ">
<polygon fill="white" stroke="black" points="1019,-56.5 1019,-75.5 1131,-75.5 1131,-56.5 1019,-56.5"/>
<text text-anchor="middle" x="1075" y="-63.5" font-family="Helvetica,sans-Serif" font-size="10.00">cswordbackend.cpp</text>
</a>
</g>
</g>
<!-- Node4&#45;&gt;Node7 -->
<g id="edge10" class="edge">
<title>Node4&#45;&gt;Node7</title>
<path fill="none" stroke="midnightblue" d="M1016.93,-166.82C1058.84,-159.62 1104.28,-148.32 1117,-132 1131.95,-112.82 1104.77,-88.27 1087.55,-75.53"/>
<polygon fill="midnightblue" stroke="midnightblue" points="1016.23,-163.39 1006.93,-168.47 1017.37,-170.3 1016.23,-163.39"/>
</g>
<!-- Node8 -->
<g id="node8" class="node">
<title>Node8</title>
<g id="a_node8"><a xlink:href="../../d3/db9/cswordmoduleinfo_8cpp.html" target="_top" xlink:title=" ">
<polygon fill="white" stroke="black" points="490.5,-112.5 490.5,-131.5 617.5,-131.5 617.5,-112.5 490.5,-112.5"/>
<text text-anchor="middle" x="554" y="-119.5" font-family="Helvetica,sans-Serif" font-size="10.00">cswordmoduleinfo.cpp</text>
</a>
</g>
</g>
<!-- Node4&#45;&gt;Node8 -->
<g id="edge8" class="edge">
<title>Node4&#45;&gt;Node8</title>
<path fill="none" stroke="midnightblue" d="M867.19,-167.04C794.66,-156.84 683.12,-141.16 614.56,-131.52"/>
<polygon fill="midnightblue" stroke="midnightblue" points="866.76,-170.52 877.15,-168.44 867.74,-163.59 866.76,-170.52"/>
</g>
<!-- Node4&#45;&gt;Node9 -->
<g id="edge9" class="edge">
<title>Node4&#45;&gt;Node9</title>
<path fill="none" stroke="midnightblue" d="M857.62,-169.93C766.45,-161.71 613.38,-147.3 482,-132 478.74,-131.62 475.38,-131.22 472,-130.8"/>
<polygon fill="midnightblue" stroke="midnightblue" points="857.34,-173.42 867.61,-170.83 857.97,-166.45 857.34,-173.42"/>
</g>
<!-- Node4&#45;&gt;Node10 -->
<g id="edge11" class="edge">
<title>Node4&#45;&gt;Node10</title>
<path fill="none" stroke="midnightblue" d="M1018.37,-168.54C1118.98,-157.95 1289.52,-140 1383.63,-130.09"/>
<polygon fill="midnightblue" stroke="midnightblue" points="1017.83,-165.08 1008.25,-169.6 1018.57,-172.04 1017.83,-165.08"/>
</g>
<!-- Node11 -->
<g id="node11" class="node">
<title>Node11</title>
<g id="a_node11"><a xlink:href="../../de/db2/btmodelviewreaddisplay_8cpp.html" target="_top" xlink:title=" ">
<polygon fill="white" stroke="black" points="1259,-0.5 1259,-19.5 1415,-19.5 1415,-0.5 1259,-0.5"/>
<text text-anchor="middle" x="1337" y="-7.5" font-family="Helvetica,sans-Serif" font-size="10.00">btmodelviewreaddisplay.cpp</text>
</a>
</g>
</g>
<!-- Node4&#45;&gt;Node11 -->
<g id="edge12" class="edge">
<title>Node4&#45;&gt;Node11</title>
<path fill="none" stroke="midnightblue" d="M992.92,-166.43C1032.29,-158.34 1086.37,-146.19 1133,-132 1149.72,-126.91 1265.65,-85.98 1280,-76 1302.68,-60.24 1322.2,-33.55 1331.39,-19.79"/>
<polygon fill="midnightblue" stroke="midnightblue" points="992.09,-163.02 982.99,-168.44 993.49,-169.88 992.09,-163.02"/>
</g>
<!-- Node4&#45;&gt;Node12 -->
<g id="edge13" class="edge">
<title>Node4&#45;&gt;Node12</title>
<path fill="none" stroke="midnightblue" d="M999.82,-166.79C1061.61,-156.59 1155.53,-141.08 1213.43,-131.52"/>
<polygon fill="midnightblue" stroke="midnightblue" points="999.11,-163.36 989.81,-168.44 1000.25,-170.27 999.11,-163.36"/>
</g>
<!-- Node13 -->
<g id="node13" class="node">
<title>Node13</title>
<g id="a_node13"><a xlink:href="../../db/dc9/btbiblekeywidget_8h.html" target="_top" xlink:title=" ">
<polygon fill="white" stroke="black" points="802,-112.5 802,-131.5 912,-131.5 912,-112.5 802,-112.5"/>
<text text-anchor="middle" x="857" y="-119.5" font-family="Helvetica,sans-Serif" font-size="10.00">btbiblekeywidget.h</text>
</a>
</g>
</g>
<!-- Node4&#45;&gt;Node13 -->
<g id="edge14" class="edge">
<title>Node4&#45;&gt;Node13</title>
<path fill="none" stroke="midnightblue" d="M916.43,-162.62C901.64,-152.76 882.49,-139.99 869.98,-131.65"/>
<polygon fill="midnightblue" stroke="midnightblue" points="914.72,-165.69 924.99,-168.32 918.61,-159.86 914.72,-165.69"/>
</g>
<!-- Node4&#45;&gt;Node16 -->
<g id="edge18" class="edge">
<title>Node4&#45;&gt;Node16</title>
<path fill="none" stroke="midnightblue" d="M857.7,-170.6C802.43,-164.55 727.91,-153.12 665,-132 646.91,-125.93 644.88,-118.68 627,-112 581.13,-94.87 526.6,-82.84 487.39,-75.55"/>
<polygon fill="midnightblue" stroke="midnightblue" points="857.48,-174.1 867.79,-171.67 858.21,-167.13 857.48,-174.1"/>
</g>
<!-- Node17 -->
<g id="node17" class="node">
<title>Node17</title>
<g id="a_node17"><a xlink:href="../../d7/d2f/cbiblekeychooser_8h.html" target="_top" xlink:title=" ">
<polygon fill="white" stroke="black" points="674,-112.5 674,-131.5 784,-131.5 784,-112.5 674,-112.5"/>
<text text-anchor="middle" x="729" y="-119.5" font-family="Helvetica,sans-Serif" font-size="10.00">cbiblekeychooser.h</text>
</a>
</g>
</g>
<!-- Node4&#45;&gt;Node17 -->
<g id="edge19" class="edge">
<title>Node4&#45;&gt;Node17</title>
<path fill="none" stroke="midnightblue" d="M895.02,-165.89C855.55,-155.7 797.9,-140.8 761.96,-131.52"/>
<polygon fill="midnightblue" stroke="midnightblue" points="894.33,-169.33 904.88,-168.44 896.08,-162.55 894.33,-169.33"/>
</g>
<!-- Node6 -->
<g id="node6" class="node">
<title>Node6</title>
<g id="a_node6"><a xlink:href="../../d9/db8/cswordcommentarymoduleinfo_8cpp.html" target="_top" xlink:title=" ">
<polygon fill="white" stroke="black" points="811.5,-56.5 811.5,-75.5 1000.5,-75.5 1000.5,-56.5 811.5,-56.5"/>
<text text-anchor="middle" x="906" y="-63.5" font-family="Helvetica,sans-Serif" font-size="10.00">cswordcommentarymoduleinfo.cpp</text>
</a>
</g>
</g>
<!-- Node5&#45;&gt;Node6 -->
<g id="edge6" class="edge">
<title>Node5&#45;&gt;Node6</title>
<path fill="none" stroke="midnightblue" d="M992,-108.1C970.89,-98.01 942.14,-84.27 923.82,-75.52"/>
<polygon fill="midnightblue" stroke="midnightblue" points="990.56,-111.29 1001.09,-112.44 993.58,-104.97 990.56,-111.29"/>
</g>
<!-- Node5&#45;&gt;Node7 -->
<g id="edge7" class="edge">
<title>Node5&#45;&gt;Node7</title>
<path fill="none" stroke="midnightblue" d="M1035.33,-105.25C1045.26,-95.67 1057.59,-83.79 1065.84,-75.83"/>
<polygon fill="midnightblue" stroke="midnightblue" points="1032.77,-102.86 1028,-112.32 1037.63,-107.9 1032.77,-102.86"/>
</g>
<!-- Node13&#45;&gt;Node14 -->
<g id="edge15" class="edge">
<title>Node13&#45;&gt;Node14</title>
<path fill="none" stroke="midnightblue" d="M922.13,-111.04C988.81,-100.84 1091.35,-85.15 1154.36,-75.51"/>
<polygon fill="midnightblue" stroke="midnightblue" points="921.51,-107.59 912.16,-112.56 922.57,-114.51 921.51,-107.59"/>
</g>
<!-- Node15 -->
<g id="node15" class="node">
<title>Node15</title>
<g id="a_node15"><a xlink:href="../../df/dae/btdropdownchooserbutton_8cpp.html" target="_top" xlink:title=" ">
<polygon fill="white" stroke="black" points="629,-56.5 629,-75.5 793,-75.5 793,-56.5 629,-56.5"/>
<text text-anchor="middle" x="711" y="-63.5" font-family="Helvetica,sans-Serif" font-size="10.00">btdropdownchooserbutton.cpp</text>
</a>
</g>
</g>
<!-- Node13&#45;&gt;Node15 -->
<g id="edge16" class="edge">
<title>Node13&#45;&gt;Node15</title>
<path fill="none" stroke="midnightblue" d="M824.3,-108.91C796.85,-98.75 758.33,-84.51 734.03,-75.52"/>
<polygon fill="midnightblue" stroke="midnightblue" points="823.27,-112.26 833.87,-112.44 825.7,-105.69 823.27,-112.26"/>
</g>
<!-- Node13&#45;&gt;Node16 -->
<g id="edge17" class="edge">
<title>Node13&#45;&gt;Node16</title>
<path fill="none" stroke="midnightblue" d="M791.63,-111.83C663.43,-94.87 629.72,-91.81 505,-76 501.96,-75.61 498.85,-75.22 495.7,-74.82"/>
<polygon fill="midnightblue" stroke="midnightblue" points="791.48,-115.34 801.85,-113.19 792.4,-108.41 791.48,-115.34"/>
</g>
<!-- Node17&#45;&gt;Node16 -->
<g id="edge21" class="edge">
<title>Node17&#45;&gt;Node16</title>
<path fill="none" stroke="midnightblue" d="M672.38,-110.6C616.82,-100.4 533.1,-85.02 481.37,-75.52"/>
<polygon fill="midnightblue" stroke="midnightblue" points="671.95,-114.08 682.41,-112.44 673.21,-107.19 671.95,-114.08"/>
</g>
<!-- Node18 -->
<g id="node18" class="node">
<title>Node18</title>
<g id="a_node18"><a xlink:href="../../d4/d0c/ckeychooser_8cpp.html" target="_top" xlink:title=" ">
<polygon fill="white" stroke="black" points="513.5,-56.5 513.5,-75.5 610.5,-75.5 610.5,-56.5 513.5,-56.5"/>
<text text-anchor="middle" x="562" y="-63.5" font-family="Helvetica,sans-Serif" font-size="10.00">ckeychooser.cpp</text>
</a>
</g>
</g>
<!-- Node17&#45;&gt;Node18 -->
<g id="edge20" class="edge">
<title>Node17&#45;&gt;Node18</title>
<path fill="none" stroke="midnightblue" d="M692.83,-109.3C661.36,-99.13 616.51,-84.62 588.34,-75.52"/>
<polygon fill="midnightblue" stroke="midnightblue" points="691.95,-112.7 702.54,-112.44 694.1,-106.04 691.95,-112.7"/>
</g>
<!-- Node20&#45;&gt;Node10 -->
<g id="edge26" class="edge">
<title>Node20&#45;&gt;Node10</title>
<path fill="none" stroke="midnightblue" d="M1461.49,-158.4C1458.81,-149.36 1455.72,-138.94 1453.59,-131.75"/>
<polygon fill="midnightblue" stroke="midnightblue" points="1458.16,-159.49 1464.36,-168.08 1464.87,-157.5 1458.16,-159.49"/>
</g>
<!-- Node21 -->
<g id="node21" class="node">
<title>Node21</title>
<g id="a_node21"><a xlink:href="../../d3/d2f/btcopybyreferencesdialog_8cpp.html" target="_top" xlink:title=" ">
<polygon fill="white" stroke="black" points="1749,-0.5 1749,-19.5 1913,-19.5 1913,-0.5 1749,-0.5"/>
<text text-anchor="middle" x="1831" y="-7.5" font-family="Helvetica,sans-Serif" font-size="10.00">btcopybyreferencesdialog.cpp</text>
</a>
</g>
</g>
<!-- Node20&#45;&gt;Node21 -->
<g id="edge27" class="edge">
<title>Node20&#45;&gt;Node21</title>
<path fill="none" stroke="midnightblue" d="M1531.02,-166.85C1667.39,-144.94 1975.36,-93.74 1990,-76 2017.05,-43.23 1964.72,-26.8 1913,-18.67"/>
<polygon fill="midnightblue" stroke="midnightblue" points="1530.43,-163.4 1521.11,-168.44 1531.54,-170.31 1530.43,-163.4"/>
</g>
<!-- Node22 -->
<g id="node22" class="node">
<title>Node22</title>
<g id="a_node22"><a xlink:href="../../d1/d48/btqmlinterface_8h.html" target="_top" xlink:title=" ">
<polygon fill="white" stroke="black" points="1536,-112.5 1536,-131.5 1634,-131.5 1634,-112.5 1536,-112.5"/>
<text text-anchor="middle" x="1585" y="-119.5" font-family="Helvetica,sans-Serif" font-size="10.00">btqmlinterface.h</text>
</a>
</g>
</g>
<!-- Node20&#45;&gt;Node22 -->
<g id="edge28" class="edge">
<title>Node20&#45;&gt;Node22</title>
<path fill="none" stroke="midnightblue" d="M1494.9,-164.23C1516.97,-154.13 1547.18,-140.31 1566.39,-131.52"/>
<polygon fill="midnightblue" stroke="midnightblue" points="1493.33,-161.1 1485.7,-168.44 1496.25,-167.46 1493.33,-161.1"/>
</g>
<!-- Node22&#45;&gt;Node11 -->
<g id="edge32" class="edge">
<title>Node22&#45;&gt;Node11</title>
<path fill="none" stroke="midnightblue" d="M1525.5,-110.88C1459.78,-99.48 1362.31,-81.76 1356,-76 1339.85,-61.25 1337.14,-33.62 1336.86,-19.61"/>
<polygon fill="midnightblue" stroke="midnightblue" points="1525.31,-114.4 1535.76,-112.66 1526.5,-107.51 1525.31,-114.4"/>
</g>
<!-- Node23 -->
<g id="node23" class="node">
<title>Node23</title>
<g id="a_node23"><a xlink:href="../../d7/dad/btcopybyreferencesdialog_8h.html" target="_top" xlink:title=" ">
<polygon fill="white" stroke="black" points="1577,-56.5 1577,-75.5 1729,-75.5 1729,-56.5 1577,-56.5"/>
<text text-anchor="middle" x="1653" y="-63.5" font-family="Helvetica,sans-Serif" font-size="10.00">btcopybyreferencesdialog.h</text>
</a>
</g>
</g>
<!-- Node22&#45;&gt;Node23 -->
<g id="edge29" class="edge">
<title>Node22&#45;&gt;Node23</title>
<path fill="none" stroke="midnightblue" d="M1603.76,-106.1C1616,-96.38 1631.56,-84.03 1641.88,-75.83"/>
<polygon fill="midnightblue" stroke="midnightblue" points="1601.58,-103.36 1595.93,-112.32 1605.93,-108.85 1601.58,-103.36"/>
</g>
<!-- Node24 -->
<g id="node24" class="node">
<title>Node24</title>
<g id="a_node24"><a xlink:href="../../de/d6e/btqmlinterface_8cpp.html" target="_top" xlink:title=" ">
<polygon fill="white" stroke="black" points="1747.5,-56.5 1747.5,-75.5 1856.5,-75.5 1856.5,-56.5 1747.5,-56.5"/>
<text text-anchor="middle" x="1802" y="-63.5" font-family="Helvetica,sans-Serif" font-size="10.00">btqmlinterface.cpp</text>
</a>
</g>
</g>
<!-- Node22&#45;&gt;Node24 -->
<g id="edge33" class="edge">
<title>Node22&#45;&gt;Node24</title>
<path fill="none" stroke="midnightblue" d="M1629.11,-110.02C1670.1,-99.82 1730.3,-84.84 1767.78,-75.52"/>
<polygon fill="midnightblue" stroke="midnightblue" points="1628.24,-106.63 1619.38,-112.44 1629.93,-113.43 1628.24,-106.63"/>
</g>
<!-- Node25 -->
<g id="node25" class="node">
<title>Node25</title>
<g id="a_node25"><a xlink:href="../../d9/d0c/btquickwidget_8cpp.html" target="_top" xlink:title=" ">
<polygon fill="white" stroke="black" points="1875,-56.5 1875,-75.5 1981,-75.5 1981,-56.5 1875,-56.5"/>
<text text-anchor="middle" x="1928" y="-63.5" font-family="Helvetica,sans-Serif" font-size="10.00">btquickwidget.cpp</text>
</a>
</g>
</g>
<!-- Node22&#45;&gt;Node25 -->
<g id="edge34" class="edge">
<title>Node22&#45;&gt;Node25</title>
<path fill="none" stroke="midnightblue" d="M1644.22,-111.68C1709.11,-101.46 1812.28,-85.22 1874.72,-75.39"/>
<polygon fill="midnightblue" stroke="midnightblue" points="1643.48,-108.25 1634.14,-113.26 1644.57,-115.17 1643.48,-108.25"/>
</g>
<!-- Node26 -->
<g id="node26" class="node">
<title>Node26</title>
<g id="a_node26"><a xlink:href="../../d2/d26/cdisplaywindow_8cpp.html" target="_top" xlink:title=" ">
<polygon fill="white" stroke="black" points="1365,-56.5 1365,-75.5 1479,-75.5 1479,-56.5 1365,-56.5"/>
<text text-anchor="middle" x="1422" y="-63.5" font-family="Helvetica,sans-Serif" font-size="10.00">cdisplaywindow.cpp</text>
</a>
</g>
</g>
<!-- Node22&#45;&gt;Node26 -->
<g id="edge35" class="edge">
<title>Node22&#45;&gt;Node26</title>
<path fill="none" stroke="midnightblue" d="M1549.3,-109.17C1518.6,-99 1475.08,-84.59 1447.71,-75.52"/>
<polygon fill="midnightblue" stroke="midnightblue" points="1548.58,-112.62 1559.17,-112.44 1550.78,-105.98 1548.58,-112.62"/>
</g>
<!-- Node27 -->
<g id="node27" class="node">
<title>Node27</title>
<g id="a_node27"><a xlink:href="../../df/d0a/main_8cpp.html" target="_top" xlink:title=" ">
<polygon fill="white" stroke="black" points="1497,-56.5 1497,-75.5 1559,-75.5 1559,-56.5 1497,-56.5"/>
<text text-anchor="middle" x="1528" y="-63.5" font-family="Helvetica,sans-Serif" font-size="10.00">main.cpp</text>
</a>
</g>
</g>
<!-- Node22&#45;&gt;Node27 -->
<g id="edge36" class="edge">
<title>Node22&#45;&gt;Node27</title>
<path fill="none" stroke="midnightblue" d="M1568.38,-105.25C1558.27,-95.67 1545.72,-83.79 1537.32,-75.83"/>
<polygon fill="midnightblue" stroke="midnightblue" points="1566.18,-107.99 1575.84,-112.32 1570.99,-102.91 1566.18,-107.99"/>
</g>
<!-- Node23&#45;&gt;Node11 -->
<g id="edge31" class="edge">
<title>Node23&#45;&gt;Node11</title>
<path fill="none" stroke="midnightblue" d="M1592.89,-54.73C1533.17,-44.52 1442.67,-29.06 1386.84,-19.52"/>
<polygon fill="midnightblue" stroke="midnightblue" points="1592.48,-58.21 1602.93,-56.44 1593.66,-51.31 1592.48,-58.21"/>
</g>
<!-- Node23&#45;&gt;Node21 -->
<g id="edge30" class="edge">
<title>Node23&#45;&gt;Node21</title>
<path fill="none" stroke="midnightblue" d="M1691.12,-53.44C1724.68,-43.26 1772.77,-28.66 1802.93,-19.52"/>
<polygon fill="midnightblue" stroke="midnightblue" points="1689.76,-50.19 1681.2,-56.44 1691.79,-56.89 1689.76,-50.19"/>
</g>
</g>
</svg>
        <g id="navigator" transform="translate(0 0)" fill="#404254">
                <rect fill="#f2f5e9" fill-opacity="0.5" stroke="#606060" stroke-width=".5" x="0" y="0" width="60" height="60"/>
                <use id="zoomplus" xlink:href="#zoomPlus" x="17" y="9" onmousedown="handleZoom(evt,'in')"/>
                <use id="zoomminus" xlink:href="#zoomMin" x="42" y="9" onmousedown="handleZoom(evt,'out')"/>
                <use id="reset" xlink:href="#resetDef" x="30" y="36" onmousedown="handleReset()"/>
                <g id="arrowUp" xlink:href="#dirArrow" transform="translate(30 24)" onmousedown="handlePan(0,-1)">
                  <use xlink:href="#rim" fill="#404040">
                        <set attributeName="fill" to="#808080" begin="arrowUp.mouseover" end="arrowUp.mouseout"/>
                  </use>
                  <path fill="none" stroke="white" stroke-width="1.5" d="M0,-3.0v7 M-2.5,-0.5L0,-3.0L2.5,-0.5"/>
                </g>
                <g id="arrowRight" xlink:href="#dirArrow" transform="rotate(90) translate(36 -43)" onmousedown="handlePan(1,0)">
                  <use xlink:href="#rim" fill="#404040">
                        <set attributeName="fill" to="#808080" begin="arrowRight.mouseover" end="arrowRight.mouseout"/>
                  </use>
                  <path fill="none" stroke="white" stroke-width="1.5" d="M0,-3.0v7 M-2.5,-0.5L0,-3.0L2.5,-0.5"/>
                </g>
                <g id="arrowDown" xlink:href="#dirArrow" transform="rotate(180) translate(-30 -48)" onmousedown="handlePan(0,1)">
                  <use xlink:href="#rim" fill="#404040">
                        <set attributeName="fill" to="#808080" begin="arrowDown.mouseover" end="arrowDown.mouseout"/>
                  </use>
                  <path fill="none" stroke="white" stroke-width="1.5" d="M0,-3.0v7 M-2.5,-0.5L0,-3.0L2.5,-0.5"/>
                </g>
                <g id="arrowLeft" xlink:href="#dirArrow" transform="rotate(270) translate(-36 17)" onmousedown="handlePan(-1,0)">
                  <use xlink:href="#rim" fill="#404040">
                        <set attributeName="fill" to="#808080" begin="arrowLeft.mouseover" end="arrowLeft.mouseout"/>
                  </use>
                  <path fill="none" stroke="white" stroke-width="1.5" d="M0,-3.0v7 M-2.5,-0.5L0,-3.0L2.5,-0.5"/>
                </g>
        </g>
        <svg viewBox="0 0 15 15" width="100%" height="30px" preserveAspectRatio="xMaxYMin meet">
         <g id="arrow_out" transform="scale(0.3 0.3)">
          <a xlink:href="cswordversekey_8h__dep__incl_org.svg" target="_base">
           <rect id="button" ry="5" rx="5" y="6" x="6" height="38" width="38"
                fill="#f2f5e9" fill-opacity="0.5" stroke="#606060" stroke-width="1.0"/>
           <path id="arrow"
             d="M 11.500037,31.436501 C 11.940474,20.09759 22.043105,11.32322 32.158766,21.979434 L 37.068811,17.246167 C 37.068811,17.246167 37.088388,32 37.088388,32 L 22.160133,31.978069 C 22.160133,31.978069 26.997745,27.140456 26.997745,27.140456 C 18.528582,18.264221 13.291696,25.230495 11.500037,31.436501 z"
             style="fill:#404040;"/>
          </a>
         </g>
        </svg>
</svg>
