<?xml version="1.0" encoding="UTF-8" standalone="no"?>
<!DOCTYPE svg PUBLIC "-//W3C//DTD SVG 1.1//EN"
 "http://www.w3.org/Graphics/SVG/1.1/DTD/svg11.dtd">
<!-- Generated by graphviz version 2.43.0 (0)
 -->
<!-- Title: cswordversekey.h Pages: 1 -->
<!--zoomable 308 -->
<svg id="main" version="1.1" xmlns="http://www.w3.org/2000/svg" xmlns:xlink="http://www.w3.org/1999/xlink" xml:space="preserve" onload="init(evt)">
<style type="text/css"><![CDATA[
.edge:hover path { stroke: red; }
.edge:hover polygon { stroke: red; fill: red; }
]]></style>
<script type="text/javascript"><![CDATA[
var edges = document.getElementsByTagName('g');
if (edges && edges.length) {
  for (var i=0;i<edges.length;i++) {
    if (edges[i].id.substr(0,4)=='edge') {
      edges[i].setAttribute('class','edge');
    }
  }
}
]]></script>
        <defs>
                <circle id="rim" cx="0" cy="0" r="7"/>
                <circle id="rim2" cx="0" cy="0" r="3.5"/>
                <g id="zoomPlus">
                        <use xlink:href="#rim" fill="#404040">
                                <set attributeName="fill" to="#808080" begin="zoomplus.mouseover" end="zoomplus.mouseout"/>
                        </use>
                        <path d="M-4,0h8M0,-4v8" fill="none" stroke="white" stroke-width="1.5" pointer-events="none"/>
                </g>
                <g id="zoomMin">
                        <use xlink:href="#rim" fill="#404040">
                                <set attributeName="fill" to="#808080" begin="zoomminus.mouseover" end="zoomminus.mouseout"/>
                        </use>
                        <path d="M-4,0h8" fill="none" stroke="white" stroke-width="1.5" pointer-events="none"/>
                </g>
                <g id="dirArrow">
                        <path fill="none" stroke="white" stroke-width="1.5" d="M0,-3.0v7 M-2.5,-0.5L0,-3.0L2.5,-0.5"/>
                </g>
               <g id="resetDef">
                       <use xlink:href="#rim2" fill="#404040">
                               <set attributeName="fill" to="#808080" begin="reset.mouseover" end="reset.mouseout"/>
                       </use>
               </g>
        </defs>

<script type="text/javascript">
var viewWidth = 2872;
var viewHeight = 308;
var sectionId = 'dynsection-0';
</script>
<script xlink:href="../../svgpan.js"/>
<svg id="graph" class="graph">
<g id="viewport">
<title>cswordversekey.h</title>
<polygon fill="white" stroke="transparent" points="-4,4 -4,-304 2868,-304 2868,4 -4,4"/>
<!-- Node1 -->
<g id="node1" class="node">
<title>Node1</title>
<g id="a_node1"><a xlink:title=" ">
<polygon fill="#bfbfbf" stroke="black" points="1522.5,-280.5 1522.5,-299.5 1625.5,-299.5 1625.5,-280.5 1522.5,-280.5"/>
<text text-anchor="middle" x="1574" y="-287.5" font-family="Helvetica,sans-Serif" font-size="10.00">cswordversekey.h</text>
</a>
</g>
</g>
<!-- Node2 -->
<g id="node2" class="node">
<title>Node2</title>
<g id="a_node2"><a xlink:href="../../d7/dd0/btbookmarksmodel_8cpp.html" target="_top" xlink:title=" ">
<polygon fill="white" stroke="black" points="0,-224.5 0,-243.5 132,-243.5 132,-224.5 0,-224.5"/>
<text text-anchor="middle" x="66" y="-231.5" font-family="Helvetica,sans-Serif" font-size="10.00">btbookmarksmodel.cpp</text>
</a>
</g>
</g>
<!-- Node1&#45;&gt;Node2 -->
<g id="edge1" class="edge">
<title>Node1&#45;&gt;Node2</title>
<path fill="none" stroke="midnightblue" d="M1512.13,-288.83C1313.45,-287.9 673.73,-281.94 146,-244 141.54,-243.68 136.94,-243.3 132.32,-242.88"/>
<polygon fill="midnightblue" stroke="midnightblue" points="1512.36,-292.33 1522.37,-288.87 1512.39,-285.33 1512.36,-292.33"/>
</g>
<!-- Node3 -->
<g id="node3" class="node">
<title>Node3</title>
<g id="a_node3"><a xlink:href="../../d4/d94/cswordbiblemoduleinfo_8cpp.html" target="_top" xlink:title=" ">
<polygon fill="white" stroke="black" points="188.5,-168.5 188.5,-187.5 339.5,-187.5 339.5,-168.5 188.5,-168.5"/>
<text text-anchor="middle" x="264" y="-175.5" font-family="Helvetica,sans-Serif" font-size="10.00">cswordbiblemoduleinfo.cpp</text>
</a>
</g>
</g>
<!-- Node1&#45;&gt;Node3 -->
<g id="edge2" class="edge">
<title>Node1&#45;&gt;Node3</title>
<path fill="none" stroke="midnightblue" d="M1512.2,-288.51C1363.36,-286.78 973.37,-278.98 650,-244 523.32,-230.3 375.14,-201.8 304.91,-187.53"/>
<polygon fill="midnightblue" stroke="midnightblue" points="1512.46,-292.01 1522.5,-288.62 1512.53,-285.01 1512.46,-292.01"/>
</g>
<!-- Node4 -->
<g id="node4" class="node">
<title>Node4</title>
<g id="a_node4"><a xlink:href="../../de/d73/cswordbiblemoduleinfo_8h.html" target="_top" xlink:title=" ">
<polygon fill="white" stroke="black" points="798,-224.5 798,-243.5 938,-243.5 938,-224.5 798,-224.5"/>
<text text-anchor="middle" x="868" y="-231.5" font-family="Helvetica,sans-Serif" font-size="10.00">cswordbiblemoduleinfo.h</text>
</a>
</g>
</g>
<!-- Node1&#45;&gt;Node4 -->
<g id="edge3" class="edge">
<title>Node1&#45;&gt;Node4</title>
<path fill="none" stroke="midnightblue" d="M1512.11,-284.27C1381.05,-274.24 1076.24,-250.93 938.18,-240.37"/>
<polygon fill="midnightblue" stroke="midnightblue" points="1512.13,-287.78 1522.37,-285.05 1512.67,-280.8 1512.13,-287.78"/>
</g>
<!-- Node9 -->
<g id="node9" class="node">
<title>Node9</title>
<g id="a_node9"><a xlink:href="../../d1/ddc/cswordversekey_8cpp.html" target="_top" xlink:title=" ">
<polygon fill="white" stroke="black" points="358,-168.5 358,-187.5 472,-187.5 472,-168.5 358,-168.5"/>
<text text-anchor="middle" x="415" y="-175.5" font-family="Helvetica,sans-Serif" font-size="10.00">cswordversekey.cpp</text>
</a>
</g>
</g>
<!-- Node1&#45;&gt;Node9 -->
<g id="edge22" class="edge">
<title>Node1&#45;&gt;Node9</title>
<path fill="none" stroke="midnightblue" d="M1512.01,-287.86C1379.11,-284.9 1057.03,-274.87 789,-244 666.57,-229.9 523.44,-201.72 455.18,-187.55"/>
<polygon fill="midnightblue" stroke="midnightblue" points="1512.32,-291.37 1522.39,-288.09 1512.47,-284.37 1512.32,-291.37"/>
</g>
<!-- Node10 -->
<g id="node10" class="node">
<title>Node10</title>
<g id="a_node10"><a xlink:href="../../de/d93/btmoduletextmodel_8cpp.html" target="_top" xlink:title=" ">
<polygon fill="white" stroke="black" points="1384,-168.5 1384,-187.5 1518,-187.5 1518,-168.5 1384,-168.5"/>
<text text-anchor="middle" x="1451" y="-175.5" font-family="Helvetica,sans-Serif" font-size="10.00">btmoduletextmodel.cpp</text>
</a>
</g>
</g>
<!-- Node1&#45;&gt;Node10 -->
<g id="edge24" class="edge">
<title>Node1&#45;&gt;Node10</title>
<path fill="none" stroke="midnightblue" d="M1512.15,-284.5C1455.91,-278.96 1378.89,-267.28 1360,-244 1339.32,-218.52 1385.6,-198.36 1419.45,-187.59"/>
<polygon fill="midnightblue" stroke="midnightblue" points="1512.11,-288.01 1522.39,-285.46 1512.77,-281.04 1512.11,-288.01"/>
</g>
<!-- Node12 -->
<g id="node12" class="node">
<title>Node12</title>
<g id="a_node12"><a xlink:href="../../de/da4/cbiblereadwindow_8cpp.html" target="_top" xlink:title=" ">
<polygon fill="white" stroke="black" points="1202.5,-168.5 1202.5,-187.5 1327.5,-187.5 1327.5,-168.5 1202.5,-168.5"/>
<text text-anchor="middle" x="1265" y="-175.5" font-family="Helvetica,sans-Serif" font-size="10.00">cbiblereadwindow.cpp</text>
</a>
</g>
</g>
<!-- Node1&#45;&gt;Node12 -->
<g id="edge46" class="edge">
<title>Node1&#45;&gt;Node12</title>
<path fill="none" stroke="midnightblue" d="M1512.43,-286.44C1439.07,-282.2 1322.25,-271.27 1289,-244 1271.7,-229.81 1266.87,-201.93 1265.52,-187.74"/>
<polygon fill="midnightblue" stroke="midnightblue" points="1512.3,-289.94 1522.47,-287 1512.68,-282.95 1512.3,-289.94"/>
</g>
<!-- Node14 -->
<g id="node14" class="node">
<title>Node14</title>
<g id="a_node14"><a xlink:href="../../d7/d92/btbiblekeywidget_8cpp.html" target="_top" xlink:title=" ">
<polygon fill="white" stroke="black" points="1249.5,-112.5 1249.5,-131.5 1370.5,-131.5 1370.5,-112.5 1249.5,-112.5"/>
<text text-anchor="middle" x="1310" y="-119.5" font-family="Helvetica,sans-Serif" font-size="10.00">btbiblekeywidget.cpp</text>
</a>
</g>
</g>
<!-- Node1&#45;&gt;Node14 -->
<g id="edge48" class="edge">
<title>Node1&#45;&gt;Node14</title>
<path fill="none" stroke="midnightblue" d="M1512.09,-284.33C1453.74,-278.6 1372.07,-266.71 1350,-244 1326.12,-219.42 1348.91,-200.13 1337,-168 1332,-154.5 1322.89,-140.52 1316.64,-131.8"/>
<polygon fill="midnightblue" stroke="midnightblue" points="1512.04,-287.84 1522.32,-285.29 1512.7,-280.87 1512.04,-287.84"/>
</g>
<!-- Node16 -->
<g id="node16" class="node">
<title>Node16</title>
<g id="a_node16"><a xlink:href="../../dc/d8f/cbiblekeychooser_8cpp.html" target="_top" xlink:title=" ">
<polygon fill="white" stroke="black" points="494.5,-112.5 494.5,-131.5 615.5,-131.5 615.5,-112.5 494.5,-112.5"/>
<text text-anchor="middle" x="555" y="-119.5" font-family="Helvetica,sans-Serif" font-size="10.00">cbiblekeychooser.cpp</text>
</a>
</g>
</g>
<!-- Node1&#45;&gt;Node16 -->
<g id="edge49" class="edge">
<title>Node1&#45;&gt;Node16</title>
<path fill="none" stroke="midnightblue" d="M1511.91,-289.57C1252.66,-291.31 266,-291.06 179,-188 116.39,-113.83 -271.14,-225.08 485,-132 488.04,-131.63 491.15,-131.24 494.3,-130.85"/>
<polygon fill="midnightblue" stroke="midnightblue" points="1512.3,-293.07 1522.27,-289.5 1512.25,-286.07 1512.3,-293.07"/>
</g>
<!-- Node19 -->
<g id="node19" class="node">
<title>Node19</title>
<g id="a_node19"><a xlink:href="../../d7/dfe/referencemanager_8cpp.html" target="_top" xlink:title=" ">
<polygon fill="white" stroke="black" points="1369,-224.5 1369,-243.5 1495,-243.5 1495,-224.5 1369,-224.5"/>
<text text-anchor="middle" x="1432" y="-231.5" font-family="Helvetica,sans-Serif" font-size="10.00">referencemanager.cpp</text>
</a>
</g>
</g>
<!-- Node1&#45;&gt;Node19 -->
<g id="edge23" class="edge">
<title>Node1&#45;&gt;Node19</title>
<path fill="none" stroke="midnightblue" d="M1541.84,-276.77C1515.17,-266.63 1477.93,-252.47 1454.4,-243.52"/>
<polygon fill="midnightblue" stroke="midnightblue" points="1540.91,-280.16 1551.5,-280.44 1543.4,-273.62 1540.91,-280.16"/>
</g>
<!-- Node20 -->
<g id="node20" class="node">
<title>Node20</title>
<g id="a_node20"><a xlink:href="../../df/d72/btmoduletextmodel_8h.html" target="_top" xlink:title=" ">
<polygon fill="white" stroke="black" points="1513,-224.5 1513,-243.5 1635,-243.5 1635,-224.5 1513,-224.5"/>
<text text-anchor="middle" x="1574" y="-231.5" font-family="Helvetica,sans-Serif" font-size="10.00">btmoduletextmodel.h</text>
</a>
</g>
</g>
<!-- Node1&#45;&gt;Node20 -->
<g id="edge25" class="edge">
<title>Node1&#45;&gt;Node20</title>
<path fill="none" stroke="midnightblue" d="M1574,-269.8C1574,-260.91 1574,-250.78 1574,-243.75"/>
<polygon fill="midnightblue" stroke="midnightblue" points="1570.5,-270.08 1574,-280.08 1577.5,-270.08 1570.5,-270.08"/>
</g>
<!-- Node30 -->
<g id="node30" class="node">
<title>Node30</title>
<g id="a_node30"><a xlink:href="../../dc/d52/cdisplayrendering_8cpp.html" target="_top" xlink:title=" ">
<polygon fill="white" stroke="black" points="1653,-224.5 1653,-243.5 1777,-243.5 1777,-224.5 1653,-224.5"/>
<text text-anchor="middle" x="1715" y="-231.5" font-family="Helvetica,sans-Serif" font-size="10.00">cdisplayrendering.cpp</text>
</a>
</g>
</g>
<!-- Node1&#45;&gt;Node30 -->
<g id="edge40" class="edge">
<title>Node1&#45;&gt;Node30</title>
<path fill="none" stroke="midnightblue" d="M1605.93,-276.77C1632.41,-266.63 1669.39,-252.47 1692.76,-243.52"/>
<polygon fill="midnightblue" stroke="midnightblue" points="1604.43,-273.6 1596.34,-280.44 1606.93,-280.14 1604.43,-273.6"/>
</g>
<!-- Node31 -->
<g id="node31" class="node">
<title>Node31</title>
<g id="a_node31"><a xlink:href="../../d5/d19/crossrefrendering_8cpp.html" target="_top" xlink:title=" ">
<polygon fill="white" stroke="black" points="1795,-224.5 1795,-243.5 1917,-243.5 1917,-224.5 1795,-224.5"/>
<text text-anchor="middle" x="1856" y="-231.5" font-family="Helvetica,sans-Serif" font-size="10.00">crossrefrendering.cpp</text>
</a>
</g>
</g>
<!-- Node1&#45;&gt;Node31 -->
<g id="edge41" class="edge">
<title>Node1&#45;&gt;Node31</title>
<path fill="none" stroke="midnightblue" d="M1628.64,-278.54C1681.94,-268.33 1762,-253 1811.53,-243.52"/>
<polygon fill="midnightblue" stroke="midnightblue" points="1627.85,-275.13 1618.68,-280.44 1629.16,-282 1627.85,-275.13"/>
</g>
<!-- Node32 -->
<g id="node32" class="node">
<title>Node32</title>
<g id="a_node32"><a xlink:href="../../db/d72/ctextrendering_8cpp.html" target="_top" xlink:title=" ">
<polygon fill="white" stroke="black" points="1935,-224.5 1935,-243.5 2043,-243.5 2043,-224.5 1935,-224.5"/>
<text text-anchor="middle" x="1989" y="-231.5" font-family="Helvetica,sans-Serif" font-size="10.00">ctextrendering.cpp</text>
</a>
</g>
</g>
<!-- Node1&#45;&gt;Node32 -->
<g id="edge42" class="edge">
<title>Node1&#45;&gt;Node32</title>
<path fill="none" stroke="midnightblue" d="M1635.64,-281.4C1705.94,-272.67 1824.31,-257.76 1926,-244 1928.85,-243.61 1931.76,-243.21 1934.71,-242.81"/>
<polygon fill="midnightblue" stroke="midnightblue" points="1635.12,-277.94 1625.62,-282.64 1635.98,-284.88 1635.12,-277.94"/>
</g>
<!-- Node33 -->
<g id="node33" class="node">
<title>Node33</title>
<g id="a_node33"><a xlink:href="../../d1/df6/bibletime_8cpp.html" target="_top" xlink:title=" ">
<polygon fill="white" stroke="black" points="2061.5,-224.5 2061.5,-243.5 2144.5,-243.5 2144.5,-224.5 2061.5,-224.5"/>
<text text-anchor="middle" x="2103" y="-231.5" font-family="Helvetica,sans-Serif" font-size="10.00">bibletime.cpp</text>
</a>
</g>
</g>
<!-- Node1&#45;&gt;Node33 -->
<g id="edge43" class="edge">
<title>Node1&#45;&gt;Node33</title>
<path fill="none" stroke="midnightblue" d="M1635.97,-284.77C1727.28,-278.18 1903.26,-264.09 2052,-244 2055.03,-243.59 2058.15,-243.13 2061.29,-242.64"/>
<polygon fill="midnightblue" stroke="midnightblue" points="1635.52,-281.3 1625.79,-285.5 1636.02,-288.28 1635.52,-281.3"/>
</g>
<!-- Node34 -->
<g id="node34" class="node">
<title>Node34</title>
<g id="a_node34"><a xlink:href="../../d0/dae/btprinter_8cpp.html" target="_top" xlink:title=" ">
<polygon fill="white" stroke="black" points="2163,-224.5 2163,-243.5 2241,-243.5 2241,-224.5 2163,-224.5"/>
<text text-anchor="middle" x="2202" y="-231.5" font-family="Helvetica,sans-Serif" font-size="10.00">btprinter.cpp</text>
</a>
</g>
</g>
<!-- Node1&#45;&gt;Node34 -->
<g id="edge44" class="edge">
<title>Node1&#45;&gt;Node34</title>
<path fill="none" stroke="midnightblue" d="M1636.02,-286.39C1742.38,-281.42 1966.26,-268.81 2154,-244 2156.86,-243.62 2159.8,-243.19 2162.76,-242.71"/>
<polygon fill="midnightblue" stroke="midnightblue" points="1635.62,-282.9 1625.79,-286.86 1635.94,-289.9 1635.62,-282.9"/>
</g>
<!-- Node35 -->
<g id="node35" class="node">
<title>Node35</title>
<g id="a_node35"><a xlink:href="../../d5/deb/cexportmanager_8cpp.html" target="_top" xlink:title=" ">
<polygon fill="white" stroke="black" points="2259,-224.5 2259,-243.5 2375,-243.5 2375,-224.5 2259,-224.5"/>
<text text-anchor="middle" x="2317" y="-231.5" font-family="Helvetica,sans-Serif" font-size="10.00">cexportmanager.cpp</text>
</a>
</g>
</g>
<!-- Node1&#45;&gt;Node35 -->
<g id="edge45" class="edge">
<title>Node1&#45;&gt;Node35</title>
<path fill="none" stroke="midnightblue" d="M1635.86,-286.27C1754.95,-280.71 2024.27,-266.65 2250,-244 2252.92,-243.71 2255.91,-243.39 2258.92,-243.04"/>
<polygon fill="midnightblue" stroke="midnightblue" points="1635.66,-282.78 1625.83,-286.74 1635.98,-289.77 1635.66,-282.78"/>
</g>
<!-- Node36 -->
<g id="node36" class="node">
<title>Node36</title>
<g id="a_node36"><a xlink:href="../../d0/d6f/ccommentaryreadwindow_8cpp.html" target="_top" xlink:title=" ">
<polygon fill="white" stroke="black" points="2393.5,-224.5 2393.5,-243.5 2556.5,-243.5 2556.5,-224.5 2393.5,-224.5"/>
<text text-anchor="middle" x="2475" y="-231.5" font-family="Helvetica,sans-Serif" font-size="10.00">ccommentaryreadwindow.cpp</text>
</a>
</g>
</g>
<!-- Node1&#45;&gt;Node36 -->
<g id="edge47" class="edge">
<title>Node1&#45;&gt;Node36</title>
<path fill="none" stroke="midnightblue" d="M1635.89,-286.47C1771.53,-280.73 2105.15,-265.53 2384,-244 2387.01,-243.77 2390.07,-243.52 2393.16,-243.26"/>
<polygon fill="midnightblue" stroke="midnightblue" points="1635.54,-282.98 1625.7,-286.9 1635.84,-289.98 1635.54,-282.98"/>
</g>
<!-- Node37 -->
<g id="node37" class="node">
<title>Node37</title>
<g id="a_node37"><a xlink:href="../../d6/dd0/csearchanalysisscene_8cpp.html" target="_top" xlink:title=" ">
<polygon fill="white" stroke="black" points="2574.5,-224.5 2574.5,-243.5 2717.5,-243.5 2717.5,-224.5 2574.5,-224.5"/>
<text text-anchor="middle" x="2646" y="-231.5" font-family="Helvetica,sans-Serif" font-size="10.00">csearchanalysisscene.cpp</text>
</a>
</g>
</g>
<!-- Node1&#45;&gt;Node37 -->
<g id="edge50" class="edge">
<title>Node1&#45;&gt;Node37</title>
<path fill="none" stroke="midnightblue" d="M1636.06,-287.62C1792.37,-283.84 2214.87,-271.68 2566,-244 2568.79,-243.78 2571.63,-243.54 2574.49,-243.28"/>
<polygon fill="midnightblue" stroke="midnightblue" points="1635.62,-284.13 1625.71,-287.87 1635.79,-291.13 1635.62,-284.13"/>
</g>
<!-- Node38 -->
<g id="node38" class="node">
<title>Node38</title>
<g id="a_node38"><a xlink:href="../../dd/dde/btsearchresultarea_8cpp.html" target="_top" xlink:title=" ">
<polygon fill="white" stroke="black" points="2736,-224.5 2736,-243.5 2864,-243.5 2864,-224.5 2736,-224.5"/>
<text text-anchor="middle" x="2800" y="-231.5" font-family="Helvetica,sans-Serif" font-size="10.00">btsearchresultarea.cpp</text>
</a>
</g>
</g>
<!-- Node1&#45;&gt;Node38 -->
<g id="edge51" class="edge">
<title>Node1&#45;&gt;Node38</title>
<path fill="none" stroke="midnightblue" d="M1635.68,-288.41C1808.32,-286.36 2310.95,-277.71 2727,-244 2729.93,-243.76 2732.92,-243.5 2735.94,-243.21"/>
<polygon fill="midnightblue" stroke="midnightblue" points="1635.48,-284.91 1625.52,-288.52 1635.56,-291.91 1635.48,-284.91"/>
</g>
<!-- Node4&#45;&gt;Node3 -->
<g id="edge4" class="edge">
<title>Node4&#45;&gt;Node3</title>
<path fill="none" stroke="midnightblue" d="M787.64,-226.51C685.6,-218.16 504.14,-202.94 349,-188 345.9,-187.7 342.73,-187.39 339.54,-187.07"/>
<polygon fill="midnightblue" stroke="midnightblue" points="787.61,-230.02 797.87,-227.34 788.18,-223.04 787.61,-230.02"/>
</g>
<!-- Node5 -->
<g id="node5" class="node">
<title>Node5</title>
<g id="a_node5"><a xlink:href="../../de/dcf/cswordcommentarymoduleinfo_8h.html" target="_top" xlink:title=" ">
<polygon fill="white" stroke="black" points="694,-168.5 694,-187.5 872,-187.5 872,-168.5 694,-168.5"/>
<text text-anchor="middle" x="783" y="-175.5" font-family="Helvetica,sans-Serif" font-size="10.00">cswordcommentarymoduleinfo.h</text>
</a>
</g>
</g>
<!-- Node4&#45;&gt;Node5 -->
<g id="edge5" class="edge">
<title>Node4&#45;&gt;Node5</title>
<path fill="none" stroke="midnightblue" d="M845.81,-218.9C830.22,-209 809.87,-196.07 796.62,-187.65"/>
<polygon fill="midnightblue" stroke="midnightblue" points="844.03,-221.92 854.34,-224.32 847.78,-216.01 844.03,-221.92"/>
</g>
<!-- Node7 -->
<g id="node7" class="node">
<title>Node7</title>
<g id="a_node7"><a xlink:href="../../d9/d7b/cswordbackend_8cpp.html" target="_top" xlink:title=" ">
<polygon fill="white" stroke="black" points="634,-112.5 634,-131.5 746,-131.5 746,-112.5 634,-112.5"/>
<text text-anchor="middle" x="690" y="-119.5" font-family="Helvetica,sans-Serif" font-size="10.00">cswordbackend.cpp</text>
</a>
</g>
</g>
<!-- Node4&#45;&gt;Node7 -->
<g id="edge10" class="edge">
<title>Node4&#45;&gt;Node7</title>
<path fill="none" stroke="midnightblue" d="M787.6,-223.1C744.69,-215.98 698.06,-204.66 685,-188 672.15,-171.61 680.36,-145.2 685.99,-131.64"/>
<polygon fill="midnightblue" stroke="midnightblue" points="787.12,-226.56 797.54,-224.68 788.22,-219.65 787.12,-226.56"/>
</g>
<!-- Node8 -->
<g id="node8" class="node">
<title>Node8</title>
<g id="a_node8"><a xlink:href="../../d3/db9/cswordmoduleinfo_8cpp.html" target="_top" xlink:title=" ">
<polygon fill="white" stroke="black" points="890.5,-168.5 890.5,-187.5 1017.5,-187.5 1017.5,-168.5 890.5,-168.5"/>
<text text-anchor="middle" x="954" y="-175.5" font-family="Helvetica,sans-Serif" font-size="10.00">cswordmoduleinfo.cpp</text>
</a>
</g>
</g>
<!-- Node4&#45;&gt;Node8 -->
<g id="edge8" class="edge">
<title>Node4&#45;&gt;Node8</title>
<path fill="none" stroke="midnightblue" d="M890.45,-218.9C906.22,-209 926.81,-196.07 940.22,-187.65"/>
<polygon fill="midnightblue" stroke="midnightblue" points="888.43,-216.04 881.82,-224.32 892.15,-221.97 888.43,-216.04"/>
</g>
<!-- Node4&#45;&gt;Node9 -->
<g id="edge9" class="edge">
<title>Node4&#45;&gt;Node9</title>
<path fill="none" stroke="midnightblue" d="M787.41,-224.1C709.08,-215.34 586.81,-201.36 481,-188 478.13,-187.64 475.19,-187.26 472.23,-186.87"/>
<polygon fill="midnightblue" stroke="midnightblue" points="787.36,-227.61 797.68,-225.25 788.13,-220.66 787.36,-227.61"/>
</g>
<!-- Node4&#45;&gt;Node10 -->
<g id="edge11" class="edge">
<title>Node4&#45;&gt;Node10</title>
<path fill="none" stroke="midnightblue" d="M948.25,-225.57C1064.07,-214.84 1276,-195.21 1383.95,-185.21"/>
<polygon fill="midnightblue" stroke="midnightblue" points="947.67,-222.11 938.03,-226.51 948.31,-229.08 947.67,-222.11"/>
</g>
<!-- Node11 -->
<g id="node11" class="node">
<title>Node11</title>
<g id="a_node11"><a xlink:href="../../de/db2/btmodelviewreaddisplay_8cpp.html" target="_top" xlink:title=" ">
<polygon fill="white" stroke="black" points="1545,-0.5 1545,-19.5 1701,-19.5 1701,-0.5 1545,-0.5"/>
<text text-anchor="middle" x="1623" y="-7.5" font-family="Helvetica,sans-Serif" font-size="10.00">btmodelviewreaddisplay.cpp</text>
</a>
</g>
</g>
<!-- Node4&#45;&gt;Node11 -->
<g id="edge12" class="edge">
<title>Node4&#45;&gt;Node11</title>
<path fill="none" stroke="midnightblue" d="M948.29,-226.76C1020.58,-220.01 1120.59,-207.51 1155,-188 1221.43,-150.33 1198,-92.65 1265,-56 1311.71,-30.45 1454.26,-18.99 1544.76,-14.17"/>
<polygon fill="midnightblue" stroke="midnightblue" points="947.93,-223.28 938.29,-227.67 948.56,-230.25 947.93,-223.28"/>
</g>
<!-- Node4&#45;&gt;Node12 -->
<g id="edge13" class="edge">
<title>Node4&#45;&gt;Node12</title>
<path fill="none" stroke="midnightblue" d="M941.21,-223.04C1016.19,-212.84 1131.51,-197.16 1202.39,-187.52"/>
<polygon fill="midnightblue" stroke="midnightblue" points="940.34,-219.63 930.91,-224.44 941.29,-226.56 940.34,-219.63"/>
</g>
<!-- Node13 -->
<g id="node13" class="node">
<title>Node13</title>
<g id="a_node13"><a xlink:href="../../db/dc9/btbiblekeywidget_8h.html" target="_top" xlink:title=" ">
<polygon fill="white" stroke="black" points="1036,-168.5 1036,-187.5 1146,-187.5 1146,-168.5 1036,-168.5"/>
<text text-anchor="middle" x="1091" y="-175.5" font-family="Helvetica,sans-Serif" font-size="10.00">btbiblekeywidget.h</text>
</a>
</g>
</g>
<!-- Node4&#45;&gt;Node13 -->
<g id="edge14" class="edge">
<title>Node4&#45;&gt;Node13</title>
<path fill="none" stroke="midnightblue" d="M913.06,-222.09C955.19,-211.89 1017.24,-196.86 1055.83,-187.52"/>
<polygon fill="midnightblue" stroke="midnightblue" points="912.23,-218.69 903.34,-224.44 913.88,-225.49 912.23,-218.69"/>
</g>
<!-- Node4&#45;&gt;Node16 -->
<g id="edge18" class="edge">
<title>Node4&#45;&gt;Node16</title>
<path fill="none" stroke="midnightblue" d="M803.7,-222.64C765.29,-215.33 715.97,-203.99 674,-188 633.3,-172.5 589.28,-145.46 567.99,-131.65"/>
<polygon fill="midnightblue" stroke="midnightblue" points="803.26,-226.11 813.73,-224.5 804.53,-219.23 803.26,-226.11"/>
</g>
<!-- Node17 -->
<g id="node17" class="node">
<title>Node17</title>
<g id="a_node17"><a xlink:href="../../d7/d2f/cbiblekeychooser_8h.html" target="_top" xlink:title=" ">
<polygon fill="white" stroke="black" points="490,-168.5 490,-187.5 600,-187.5 600,-168.5 490,-168.5"/>
<text text-anchor="middle" x="545" y="-175.5" font-family="Helvetica,sans-Serif" font-size="10.00">cbiblekeychooser.h</text>
</a>
</g>
</g>
<!-- Node4&#45;&gt;Node17 -->
<g id="edge19" class="edge">
<title>Node4&#45;&gt;Node17</title>
<path fill="none" stroke="midnightblue" d="M806.93,-222.79C745.9,-212.59 653.13,-197.08 595.94,-187.52"/>
<polygon fill="midnightblue" stroke="midnightblue" points="806.38,-226.25 816.82,-224.44 807.53,-219.34 806.38,-226.25"/>
</g>
<!-- Node6 -->
<g id="node6" class="node">
<title>Node6</title>
<g id="a_node6"><a xlink:href="../../d9/db8/cswordcommentarymoduleinfo_8cpp.html" target="_top" xlink:title=" ">
<polygon fill="white" stroke="black" points="764.5,-112.5 764.5,-131.5 953.5,-131.5 953.5,-112.5 764.5,-112.5"/>
<text text-anchor="middle" x="859" y="-119.5" font-family="Helvetica,sans-Serif" font-size="10.00">cswordcommentarymoduleinfo.cpp</text>
</a>
</g>
</g>
<!-- Node5&#45;&gt;Node6 -->
<g id="edge6" class="edge">
<title>Node5&#45;&gt;Node6</title>
<path fill="none" stroke="midnightblue" d="M803.58,-162.38C817.31,-152.62 834.93,-140.11 846.57,-131.83"/>
<polygon fill="midnightblue" stroke="midnightblue" points="801.34,-159.68 795.21,-168.32 805.39,-165.38 801.34,-159.68"/>
</g>
<!-- Node5&#45;&gt;Node7 -->
<g id="edge7" class="edge">
<title>Node5&#45;&gt;Node7</title>
<path fill="none" stroke="midnightblue" d="M759.19,-163.18C742.08,-153.24 719.53,-140.15 704.9,-131.65"/>
<polygon fill="midnightblue" stroke="midnightblue" points="757.65,-166.33 768.06,-168.32 761.17,-160.28 757.65,-166.33"/>
</g>
<!-- Node13&#45;&gt;Node14 -->
<g id="edge15" class="edge">
<title>Node13&#45;&gt;Node14</title>
<path fill="none" stroke="midnightblue" d="M1135.51,-166.02C1176.88,-155.82 1237.64,-140.84 1275.46,-131.52"/>
<polygon fill="midnightblue" stroke="midnightblue" points="1134.57,-162.65 1125.7,-168.44 1136.25,-169.45 1134.57,-162.65"/>
</g>
<!-- Node15 -->
<g id="node15" class="node">
<title>Node15</title>
<g id="a_node15"><a xlink:href="../../df/dae/btdropdownchooserbutton_8cpp.html" target="_top" xlink:title=" ">
<polygon fill="white" stroke="black" points="982,-112.5 982,-131.5 1146,-131.5 1146,-112.5 982,-112.5"/>
<text text-anchor="middle" x="1064" y="-119.5" font-family="Helvetica,sans-Serif" font-size="10.00">btdropdownchooserbutton.cpp</text>
</a>
</g>
</g>
<!-- Node13&#45;&gt;Node15 -->
<g id="edge16" class="edge">
<title>Node13&#45;&gt;Node15</title>
<path fill="none" stroke="midnightblue" d="M1081.99,-158.98C1077.41,-149.82 1072.05,-139.09 1068.38,-131.75"/>
<polygon fill="midnightblue" stroke="midnightblue" points="1078.94,-160.7 1086.54,-168.08 1085.2,-157.57 1078.94,-160.7"/>
</g>
<!-- Node13&#45;&gt;Node16 -->
<g id="edge17" class="edge">
<title>Node13&#45;&gt;Node16</title>
<path fill="none" stroke="midnightblue" d="M1025.86,-167.92C847.11,-147.64 800.1,-151.09 625,-132 621.95,-131.67 618.84,-131.32 615.69,-130.95"/>
<polygon fill="midnightblue" stroke="midnightblue" points="1025.53,-171.41 1035.86,-169.07 1026.33,-164.45 1025.53,-171.41"/>
</g>
<!-- Node17&#45;&gt;Node16 -->
<g id="edge21" class="edge">
<title>Node17&#45;&gt;Node16</title>
<path fill="none" stroke="midnightblue" d="M548.5,-158.1C550.16,-149.14 552.06,-138.86 553.38,-131.75"/>
<polygon fill="midnightblue" stroke="midnightblue" points="545.03,-157.61 546.65,-168.08 551.91,-158.89 545.03,-157.61"/>
</g>
<!-- Node18 -->
<g id="node18" class="node">
<title>Node18</title>
<g id="a_node18"><a xlink:href="../../d4/d0c/ckeychooser_8cpp.html" target="_top" xlink:title=" ">
<polygon fill="white" stroke="black" points="379.5,-112.5 379.5,-131.5 476.5,-131.5 476.5,-112.5 379.5,-112.5"/>
<text text-anchor="middle" x="428" y="-119.5" font-family="Helvetica,sans-Serif" font-size="10.00">ckeychooser.cpp</text>
</a>
</g>
</g>
<!-- Node17&#45;&gt;Node18 -->
<g id="edge20" class="edge">
<title>Node17&#45;&gt;Node18</title>
<path fill="none" stroke="midnightblue" d="M517.34,-164.23C495.45,-154.13 465.5,-140.31 446.45,-131.52"/>
<polygon fill="midnightblue" stroke="midnightblue" points="515.91,-167.43 526.46,-168.44 518.85,-161.08 515.91,-167.43"/>
</g>
<!-- Node20&#45;&gt;Node10 -->
<g id="edge26" class="edge">
<title>Node20&#45;&gt;Node10</title>
<path fill="none" stroke="midnightblue" d="M1545.23,-220.37C1522.19,-210.26 1490.52,-196.35 1470.4,-187.52"/>
<polygon fill="midnightblue" stroke="midnightblue" points="1543.95,-223.63 1554.51,-224.44 1546.76,-217.22 1543.95,-223.63"/>
</g>
<!-- Node21 -->
<g id="node21" class="node">
<title>Node21</title>
<g id="a_node21"><a xlink:href="../../d3/d2f/btcopybyreferencesdialog_8cpp.html" target="_top" xlink:title=" ">
<polygon fill="white" stroke="black" points="1796,-0.5 1796,-19.5 1960,-19.5 1960,-0.5 1796,-0.5"/>
<text text-anchor="middle" x="1878" y="-7.5" font-family="Helvetica,sans-Serif" font-size="10.00">btcopybyreferencesdialog.cpp</text>
</a>
</g>
</g>
<!-- Node20&#45;&gt;Node21 -->
<g id="edge27" class="edge">
<title>Node20&#45;&gt;Node21</title>
<path fill="none" stroke="midnightblue" d="M1614.13,-221.64C1700.37,-196.32 1898.58,-133.02 1936,-76 1950.61,-53.75 1917.71,-31.37 1895.73,-19.56"/>
<polygon fill="midnightblue" stroke="midnightblue" points="1613.06,-218.3 1604.43,-224.46 1615.01,-225.02 1613.06,-218.3"/>
</g>
<!-- Node22 -->
<g id="node22" class="node">
<title>Node22</title>
<g id="a_node22"><a xlink:href="../../de/d6e/btqmlinterface_8cpp.html" target="_top" xlink:title=" ">
<polygon fill="white" stroke="black" points="1273.5,-56.5 1273.5,-75.5 1382.5,-75.5 1382.5,-56.5 1273.5,-56.5"/>
<text text-anchor="middle" x="1328" y="-63.5" font-family="Helvetica,sans-Serif" font-size="10.00">btqmlinterface.cpp</text>
</a>
</g>
</g>
<!-- Node20&#45;&gt;Node22 -->
<g id="edge28" class="edge">
<title>Node20&#45;&gt;Node22</title>
<path fill="none" stroke="midnightblue" d="M1564.58,-215.63C1556.2,-201.42 1542.83,-181.53 1527,-168 1472.96,-121.81 1394.14,-89.94 1353.84,-75.6"/>
<polygon fill="midnightblue" stroke="midnightblue" points="1561.58,-217.44 1569.56,-224.42 1567.67,-213.99 1561.58,-217.44"/>
</g>
<!-- Node23 -->
<g id="node23" class="node">
<title>Node23</title>
<g id="a_node23"><a xlink:href="../../d1/d9d/bttextfilter_8h.html" target="_top" xlink:title=" ">
<polygon fill="white" stroke="black" points="1584.5,-168.5 1584.5,-187.5 1661.5,-187.5 1661.5,-168.5 1584.5,-168.5"/>
<text text-anchor="middle" x="1623" y="-175.5" font-family="Helvetica,sans-Serif" font-size="10.00">bttextfilter.h</text>
</a>
</g>
</g>
<!-- Node20&#45;&gt;Node23 -->
<g id="edge29" class="edge">
<title>Node20&#45;&gt;Node23</title>
<path fill="none" stroke="midnightblue" d="M1589.03,-216.43C1597.62,-206.97 1608.04,-195.48 1615.06,-187.75"/>
<polygon fill="midnightblue" stroke="midnightblue" points="1586.22,-214.33 1582.09,-224.08 1591.4,-219.03 1586.22,-214.33"/>
</g>
<!-- Node24 -->
<g id="node24" class="node">
<title>Node24</title>
<g id="a_node24"><a xlink:href="../../d1/d48/btqmlinterface_8h.html" target="_top" xlink:title=" ">
<polygon fill="white" stroke="black" points="1574,-112.5 1574,-131.5 1672,-131.5 1672,-112.5 1574,-112.5"/>
<text text-anchor="middle" x="1623" y="-119.5" font-family="Helvetica,sans-Serif" font-size="10.00">btqmlinterface.h</text>
</a>
</g>
</g>
<!-- Node23&#45;&gt;Node24 -->
<g id="edge30" class="edge">
<title>Node23&#45;&gt;Node24</title>
<path fill="none" stroke="midnightblue" d="M1623,-157.8C1623,-148.91 1623,-138.78 1623,-131.75"/>
<polygon fill="midnightblue" stroke="midnightblue" points="1619.5,-158.08 1623,-168.08 1626.5,-158.08 1619.5,-158.08"/>
</g>
<!-- Node29 -->
<g id="node29" class="node">
<title>Node29</title>
<g id="a_node29"><a xlink:href="../../dc/dee/bttextfilter_8cpp.html" target="_top" xlink:title=" ">
<polygon fill="white" stroke="black" points="1690,-112.5 1690,-131.5 1778,-131.5 1778,-112.5 1690,-112.5"/>
<text text-anchor="middle" x="1734" y="-119.5" font-family="Helvetica,sans-Serif" font-size="10.00">bttextfilter.cpp</text>
</a>
</g>
</g>
<!-- Node23&#45;&gt;Node29 -->
<g id="edge39" class="edge">
<title>Node23&#45;&gt;Node29</title>
<path fill="none" stroke="midnightblue" d="M1650.01,-163.86C1670.59,-153.85 1698.34,-140.35 1716.21,-131.65"/>
<polygon fill="midnightblue" stroke="midnightblue" points="1648.3,-160.8 1640.83,-168.32 1651.36,-167.1 1648.3,-160.8"/>
</g>
<!-- Node24&#45;&gt;Node11 -->
<g id="edge34" class="edge">
<title>Node24&#45;&gt;Node11</title>
<path fill="none" stroke="midnightblue" d="M1623,-102.35C1623,-78.25 1623,-37.31 1623,-19.59"/>
<polygon fill="midnightblue" stroke="midnightblue" points="1619.5,-102.37 1623,-112.37 1626.5,-102.37 1619.5,-102.37"/>
</g>
<!-- Node24&#45;&gt;Node22 -->
<g id="edge35" class="edge">
<title>Node24&#45;&gt;Node22</title>
<path fill="none" stroke="midnightblue" d="M1566.19,-110.6C1510.44,-100.4 1426.44,-85.02 1374.52,-75.52"/>
<polygon fill="midnightblue" stroke="midnightblue" points="1565.79,-114.09 1576.26,-112.44 1567.05,-107.2 1565.79,-114.09"/>
</g>
<!-- Node25 -->
<g id="node25" class="node">
<title>Node25</title>
<g id="a_node25"><a xlink:href="../../d7/dad/btcopybyreferencesdialog_8h.html" target="_top" xlink:title=" ">
<polygon fill="white" stroke="black" points="1651,-56.5 1651,-75.5 1803,-75.5 1803,-56.5 1651,-56.5"/>
<text text-anchor="middle" x="1727" y="-63.5" font-family="Helvetica,sans-Serif" font-size="10.00">btcopybyreferencesdialog.h</text>
</a>
</g>
</g>
<!-- Node24&#45;&gt;Node25 -->
<g id="edge31" class="edge">
<title>Node24&#45;&gt;Node25</title>
<path fill="none" stroke="midnightblue" d="M1648.83,-107.59C1668.06,-97.61 1693.74,-84.27 1710.33,-75.65"/>
<polygon fill="midnightblue" stroke="midnightblue" points="1646.97,-104.61 1639.71,-112.32 1650.2,-110.82 1646.97,-104.61"/>
</g>
<!-- Node26 -->
<g id="node26" class="node">
<title>Node26</title>
<g id="a_node26"><a xlink:href="../../d9/d0c/btquickwidget_8cpp.html" target="_top" xlink:title=" ">
<polygon fill="white" stroke="black" points="1821,-56.5 1821,-75.5 1927,-75.5 1927,-56.5 1821,-56.5"/>
<text text-anchor="middle" x="1874" y="-63.5" font-family="Helvetica,sans-Serif" font-size="10.00">btquickwidget.cpp</text>
</a>
</g>
</g>
<!-- Node24&#45;&gt;Node26 -->
<g id="edge36" class="edge">
<title>Node24&#45;&gt;Node26</title>
<path fill="none" stroke="midnightblue" d="M1672.82,-110.28C1720.25,-100.08 1790.7,-84.92 1834.41,-75.52"/>
<polygon fill="midnightblue" stroke="midnightblue" points="1671.81,-106.92 1662.77,-112.44 1673.28,-113.76 1671.81,-106.92"/>
</g>
<!-- Node27 -->
<g id="node27" class="node">
<title>Node27</title>
<g id="a_node27"><a xlink:href="../../d2/d26/cdisplaywindow_8cpp.html" target="_top" xlink:title=" ">
<polygon fill="white" stroke="black" points="1401,-56.5 1401,-75.5 1515,-75.5 1515,-56.5 1401,-56.5"/>
<text text-anchor="middle" x="1458" y="-63.5" font-family="Helvetica,sans-Serif" font-size="10.00">cdisplaywindow.cpp</text>
</a>
</g>
</g>
<!-- Node24&#45;&gt;Node27 -->
<g id="edge37" class="edge">
<title>Node24&#45;&gt;Node27</title>
<path fill="none" stroke="midnightblue" d="M1587.26,-109.3C1556.17,-99.13 1511.85,-84.62 1484.02,-75.52"/>
<polygon fill="midnightblue" stroke="midnightblue" points="1586.26,-112.66 1596.86,-112.44 1588.44,-106.01 1586.26,-112.66"/>
</g>
<!-- Node28 -->
<g id="node28" class="node">
<title>Node28</title>
<g id="a_node28"><a xlink:href="../../df/d0a/main_8cpp.html" target="_top" xlink:title=" ">
<polygon fill="white" stroke="black" points="1533,-56.5 1533,-75.5 1595,-75.5 1595,-56.5 1533,-56.5"/>
<text text-anchor="middle" x="1564" y="-63.5" font-family="Helvetica,sans-Serif" font-size="10.00">main.cpp</text>
</a>
</g>
</g>
<!-- Node24&#45;&gt;Node28 -->
<g id="edge38" class="edge">
<title>Node24&#45;&gt;Node28</title>
<path fill="none" stroke="midnightblue" d="M1606.11,-105.54C1595.59,-95.91 1582.43,-83.87 1573.65,-75.83"/>
<polygon fill="midnightblue" stroke="midnightblue" points="1603.78,-108.15 1613.52,-112.32 1608.51,-102.99 1603.78,-108.15"/>
</g>
<!-- Node25&#45;&gt;Node11 -->
<g id="edge33" class="edge">
<title>Node25&#45;&gt;Node11</title>
<path fill="none" stroke="midnightblue" d="M1701.17,-51.59C1681.94,-41.61 1656.26,-28.27 1639.67,-19.65"/>
<polygon fill="midnightblue" stroke="midnightblue" points="1699.8,-54.82 1710.29,-56.32 1703.03,-48.61 1699.8,-54.82"/>
</g>
<!-- Node25&#45;&gt;Node21 -->
<g id="edge32" class="edge">
<title>Node25&#45;&gt;Node21</title>
<path fill="none" stroke="midnightblue" d="M1760.45,-53.04C1788.86,-42.88 1828.94,-28.55 1854.19,-19.52"/>
<polygon fill="midnightblue" stroke="midnightblue" points="1759.16,-49.78 1750.93,-56.44 1761.52,-56.37 1759.16,-49.78"/>
</g>
</g>
</svg>
        <g id="navigator" transform="translate(0 0)" fill="#404254">
                <rect fill="#f2f5e9" fill-opacity="0.5" stroke="#606060" stroke-width=".5" x="0" y="0" width="60" height="60"/>
                <use id="zoomplus" xlink:href="#zoomPlus" x="17" y="9" onmousedown="handleZoom(evt,'in')"/>
                <use id="zoomminus" xlink:href="#zoomMin" x="42" y="9" onmousedown="handleZoom(evt,'out')"/>
                <use id="reset" xlink:href="#resetDef" x="30" y="36" onmousedown="handleReset()"/>
                <g id="arrowUp" xlink:href="#dirArrow" transform="translate(30 24)" onmousedown="handlePan(0,-1)">
                  <use xlink:href="#rim" fill="#404040">
                        <set attributeName="fill" to="#808080" begin="arrowUp.mouseover" end="arrowUp.mouseout"/>
                  </use>
                  <path fill="none" stroke="white" stroke-width="1.5" d="M0,-3.0v7 M-2.5,-0.5L0,-3.0L2.5,-0.5"/>
                </g>
                <g id="arrowRight" xlink:href="#dirArrow" transform="rotate(90) translate(36 -43)" onmousedown="handlePan(1,0)">
                  <use xlink:href="#rim" fill="#404040">
                        <set attributeName="fill" to="#808080" begin="arrowRight.mouseover" end="arrowRight.mouseout"/>
                  </use>
                  <path fill="none" stroke="white" stroke-width="1.5" d="M0,-3.0v7 M-2.5,-0.5L0,-3.0L2.5,-0.5"/>
                </g>
                <g id="arrowDown" xlink:href="#dirArrow" transform="rotate(180) translate(-30 -48)" onmousedown="handlePan(0,1)">
                  <use xlink:href="#rim" fill="#404040">
                        <set attributeName="fill" to="#808080" begin="arrowDown.mouseover" end="arrowDown.mouseout"/>
                  </use>
                  <path fill="none" stroke="white" stroke-width="1.5" d="M0,-3.0v7 M-2.5,-0.5L0,-3.0L2.5,-0.5"/>
                </g>
                <g id="arrowLeft" xlink:href="#dirArrow" transform="rotate(270) translate(-36 17)" onmousedown="handlePan(-1,0)">
                  <use xlink:href="#rim" fill="#404040">
                        <set attributeName="fill" to="#808080" begin="arrowLeft.mouseover" end="arrowLeft.mouseout"/>
                  </use>
                  <path fill="none" stroke="white" stroke-width="1.5" d="M0,-3.0v7 M-2.5,-0.5L0,-3.0L2.5,-0.5"/>
                </g>
        </g>
        <svg viewBox="0 0 15 15" width="100%" height="30px" preserveAspectRatio="xMaxYMin meet">
         <g id="arrow_out" transform="scale(0.3 0.3)">
          <a xlink:href="cswordversekey_8h__dep__incl_org.svg" target="_base">
           <rect id="button" ry="5" rx="5" y="6" x="6" height="38" width="38"
                fill="#f2f5e9" fill-opacity="0.5" stroke="#606060" stroke-width="1.0"/>
           <path id="arrow"
             d="M 11.500037,31.436501 C 11.940474,20.09759 22.043105,11.32322 32.158766,21.979434 L 37.068811,17.246167 C 37.068811,17.246167 37.088388,32 37.088388,32 L 22.160133,31.978069 C 22.160133,31.978069 26.997745,27.140456 26.997745,27.140456 C 18.528582,18.264221 13.291696,25.230495 11.500037,31.436501 z"
             style="fill:#404040;"/>
          </a>
         </g>
        </svg>
</svg>
