<?xml version="1.0" encoding="UTF-8" standalone="no"?>
<!DOCTYPE svg PUBLIC "-//W3C//DTD SVG 1.1//EN"
 "http://www.w3.org/Graphics/SVG/1.1/DTD/svg11.dtd">
<!-- Generated by graphviz version 2.43.0 (0)
 -->
<!-- Title: centrydisplay.h Pages: 1 -->
<!--zoomable 308 -->
<svg id="main" version="1.1" xmlns="http://www.w3.org/2000/svg" xmlns:xlink="http://www.w3.org/1999/xlink" xml:space="preserve" onload="init(evt)">
<style type="text/css"><![CDATA[
.edge:hover path { stroke: red; }
.edge:hover polygon { stroke: red; fill: red; }
]]></style>
<script type="text/javascript"><![CDATA[
var edges = document.getElementsByTagName('g');
if (edges && edges.length) {
  for (var i=0;i<edges.length;i++) {
    if (edges[i].id.substr(0,4)=='edge') {
      edges[i].setAttribute('class','edge');
    }
  }
}
]]></script>
        <defs>
                <circle id="rim" cx="0" cy="0" r="7"/>
                <circle id="rim2" cx="0" cy="0" r="3.5"/>
                <g id="zoomPlus">
                        <use xlink:href="#rim" fill="#404040">
                                <set attributeName="fill" to="#808080" begin="zoomplus.mouseover" end="zoomplus.mouseout"/>
                        </use>
                        <path d="M-4,0h8M0,-4v8" fill="none" stroke="white" stroke-width="1.5" pointer-events="none"/>
                </g>
                <g id="zoomMin">
                        <use xlink:href="#rim" fill="#404040">
                                <set attributeName="fill" to="#808080" begin="zoomminus.mouseover" end="zoomminus.mouseout"/>
                        </use>
                        <path d="M-4,0h8" fill="none" stroke="white" stroke-width="1.5" pointer-events="none"/>
                </g>
                <g id="dirArrow">
                        <path fill="none" stroke="white" stroke-width="1.5" d="M0,-3.0v7 M-2.5,-0.5L0,-3.0L2.5,-0.5"/>
                </g>
               <g id="resetDef">
                       <use xlink:href="#rim2" fill="#404040">
                               <set attributeName="fill" to="#808080" begin="reset.mouseover" end="reset.mouseout"/>
                       </use>
               </g>
        </defs>

<script type="text/javascript">
var viewWidth = 5575;
var viewHeight = 308;
var sectionId = 'dynsection-0';
</script>
<script xlink:href="../../svgpan.js"/>
<svg id="graph" class="graph">
<g id="viewport">
<title>centrydisplay.h</title>
<polygon fill="white" stroke="transparent" points="-4,4 -4,-304 5570.5,-304 5570.5,4 -4,4"/>
<!-- Node1 -->
<g id="node1" class="node">
<title>Node1</title>
<g id="a_node1"><a xlink:title=" ">
<polygon fill="#bfbfbf" stroke="black" points="3712,-280.5 3712,-299.5 3802,-299.5 3802,-280.5 3712,-280.5"/>
<text text-anchor="middle" x="3757" y="-287.5" font-family="Helvetica,sans-Serif" font-size="10.00">centrydisplay.h</text>
</a>
</g>
</g>
<!-- Node2 -->
<g id="node2" class="node">
<title>Node2</title>
<g id="a_node2"><a xlink:href="../../db/dba/cbookdisplay_8h.html" target="_top" xlink:title=" ">
<polygon fill="white" stroke="black" points="2591.5,-224.5 2591.5,-243.5 2680.5,-243.5 2680.5,-224.5 2591.5,-224.5"/>
<text text-anchor="middle" x="2636" y="-231.5" font-family="Helvetica,sans-Serif" font-size="10.00">cbookdisplay.h</text>
</a>
</g>
</g>
<!-- Node1&#45;&gt;Node2 -->
<g id="edge1" class="edge">
<title>Node1&#45;&gt;Node2</title>
<path fill="none" stroke="midnightblue" d="M3701.67,-286.33C3507.21,-276.97 2857.35,-245.66 2680.67,-237.15"/>
<polygon fill="midnightblue" stroke="midnightblue" points="3701.51,-289.83 3711.67,-286.82 3701.85,-282.84 3701.51,-289.83"/>
</g>
<!-- Node3 -->
<g id="node3" class="node">
<title>Node3</title>
<g id="a_node3"><a xlink:href="../../d0/d60/cswordbackend_8h.html" target="_top" xlink:title=" ">
<polygon fill="white" stroke="red" points="2585.5,-168.5 2585.5,-187.5 2686.5,-187.5 2686.5,-168.5 2585.5,-168.5"/>
<text text-anchor="middle" x="2636" y="-175.5" font-family="Helvetica,sans-Serif" font-size="10.00">cswordbackend.h</text>
</a>
</g>
</g>
<!-- Node1&#45;&gt;Node3 -->
<g id="edge54" class="edge">
<title>Node1&#45;&gt;Node3</title>
<path fill="none" stroke="midnightblue" d="M3701.5,-283.55C3508.95,-264.66 2871.46,-202.11 2686.64,-183.97"/>
<polygon fill="midnightblue" stroke="midnightblue" points="3701.37,-287.06 3711.67,-284.55 3702.06,-280.09 3701.37,-287.06"/>
</g>
<!-- Node10 -->
<g id="node10" class="node">
<title>Node10</title>
<g id="a_node10"><a xlink:href="../../d3/db9/cswordmoduleinfo_8cpp.html" target="_top" xlink:title=" ">
<polygon fill="white" stroke="black" points="5281.5,-112.5 5281.5,-131.5 5408.5,-131.5 5408.5,-112.5 5281.5,-112.5"/>
<text text-anchor="middle" x="5345" y="-119.5" font-family="Helvetica,sans-Serif" font-size="10.00">cswordmoduleinfo.cpp</text>
</a>
</g>
</g>
<!-- Node1&#45;&gt;Node10 -->
<g id="edge55" class="edge">
<title>Node1&#45;&gt;Node10</title>
<path fill="none" stroke="midnightblue" d="M3812.47,-283.68C4010.74,-264.59 4702.87,-197.15 5273,-132 5275.75,-131.69 5278.57,-131.36 5281.41,-131.02"/>
<polygon fill="midnightblue" stroke="midnightblue" points="3811.92,-280.22 3802.31,-284.66 3812.59,-287.19 3811.92,-280.22"/>
</g>
<!-- Node47 -->
<g id="node29" class="node">
<title>Node47</title>
<g id="a_node29"><a xlink:href="../../d5/deb/cexportmanager_8cpp.html" target="_top" xlink:title=" ">
<polygon fill="white" stroke="black" points="5275,-56.5 5275,-75.5 5391,-75.5 5391,-56.5 5275,-56.5"/>
<text text-anchor="middle" x="5333" y="-63.5" font-family="Helvetica,sans-Serif" font-size="10.00">cexportmanager.cpp</text>
</a>
</g>
</g>
<!-- Node1&#45;&gt;Node47 -->
<g id="edge57" class="edge">
<title>Node1&#45;&gt;Node47</title>
<path fill="none" stroke="midnightblue" d="M3812.35,-285.09C3914.51,-277.77 4139.58,-261.19 4329,-244 4571.28,-222.01 5255.01,-312.61 5418,-132 5439.53,-108.14 5393.14,-86.84 5360.8,-75.54"/>
<polygon fill="midnightblue" stroke="midnightblue" points="3811.99,-281.61 3802.26,-285.81 3812.49,-288.59 3811.99,-281.61"/>
</g>
<!-- Node76 -->
<g id="node48" class="node">
<title>Node76</title>
<g id="a_node48"><a xlink:href="../../dd/d97/cchapterdisplay_8h.html" target="_top" xlink:title=" ">
<polygon fill="white" stroke="black" points="3664.5,-224.5 3664.5,-243.5 3765.5,-243.5 3765.5,-224.5 3664.5,-224.5"/>
<text text-anchor="middle" x="3715" y="-231.5" font-family="Helvetica,sans-Serif" font-size="10.00">cchapterdisplay.h</text>
</a>
</g>
</g>
<!-- Node1&#45;&gt;Node76 -->
<g id="edge51" class="edge">
<title>Node1&#45;&gt;Node76</title>
<path fill="none" stroke="midnightblue" d="M3743.89,-272.14C3736.57,-262.74 3727.76,-251.4 3721.81,-243.75"/>
<polygon fill="midnightblue" stroke="midnightblue" points="3741.16,-274.34 3750.06,-280.08 3746.69,-270.04 3741.16,-274.34"/>
</g>
<!-- Node78 -->
<g id="node50" class="node">
<title>Node78</title>
<g id="a_node50"><a xlink:href="../../da/d21/centrydisplay_8cpp.html" target="_top" xlink:title=" ">
<polygon fill="white" stroke="black" points="5465.5,-224.5 5465.5,-243.5 5566.5,-243.5 5566.5,-224.5 5465.5,-224.5"/>
<text text-anchor="middle" x="5516" y="-231.5" font-family="Helvetica,sans-Serif" font-size="10.00">centrydisplay.cpp</text>
</a>
</g>
</g>
<!-- Node1&#45;&gt;Node78 -->
<g id="edge56" class="edge">
<title>Node1&#45;&gt;Node78</title>
<path fill="none" stroke="midnightblue" d="M3812.22,-288.36C4065.96,-285.29 5121.67,-271.09 5451,-244 5455.66,-243.62 5460.49,-243.13 5465.32,-242.57"/>
<polygon fill="midnightblue" stroke="midnightblue" points="3812.09,-284.86 3802.14,-288.48 3812.18,-291.86 3812.09,-284.86"/>
</g>
<!-- Node2&#45;&gt;Node3 -->
<g id="edge2" class="edge">
<title>Node2&#45;&gt;Node3</title>
<path fill="none" stroke="midnightblue" d="M2636,-213.8C2636,-204.91 2636,-194.78 2636,-187.75"/>
<polygon fill="midnightblue" stroke="midnightblue" points="2632.5,-214.08 2636,-224.08 2639.5,-214.08 2632.5,-214.08"/>
</g>
<!-- Node75 -->
<g id="node47" class="node">
<title>Node75</title>
<g id="a_node47"><a xlink:href="../../da/db4/cbookdisplay_8cpp.html" target="_top" xlink:title=" ">
<polygon fill="white" stroke="black" points="2467,-168.5 2467,-187.5 2567,-187.5 2567,-168.5 2467,-168.5"/>
<text text-anchor="middle" x="2517" y="-175.5" font-family="Helvetica,sans-Serif" font-size="10.00">cbookdisplay.cpp</text>
</a>
</g>
</g>
<!-- Node2&#45;&gt;Node75 -->
<g id="edge50" class="edge">
<title>Node2&#45;&gt;Node75</title>
<path fill="none" stroke="midnightblue" d="M2607.86,-220.23C2585.6,-210.13 2555.14,-196.31 2535.77,-187.52"/>
<polygon fill="midnightblue" stroke="midnightblue" points="2606.59,-223.5 2617.14,-224.44 2609.48,-217.12 2606.59,-223.5"/>
</g>
<!-- Node4 -->
<g id="node4" class="node">
<title>Node4</title>
<g id="a_node4"><a xlink:href="../../d7/dd0/btbookmarksmodel_8cpp.html" target="_top" xlink:title=" ">
<polygon fill="white" stroke="black" points="4911,-112.5 4911,-131.5 5043,-131.5 5043,-112.5 4911,-112.5"/>
<text text-anchor="middle" x="4977" y="-119.5" font-family="Helvetica,sans-Serif" font-size="10.00">btbookmarksmodel.cpp</text>
</a>
</g>
</g>
<!-- Node3&#45;&gt;Node4 -->
<g id="edge3" class="edge">
<title>Node3&#45;&gt;Node4</title>
<path fill="none" stroke="midnightblue" d="M2697.23,-176.61C3012.52,-174.48 4455.42,-163.15 4902,-132 4904.88,-131.8 4907.82,-131.57 4910.78,-131.31"/>
<polygon fill="midnightblue" stroke="midnightblue" points="2696.9,-173.11 2686.93,-176.68 2696.95,-180.11 2696.9,-173.11"/>
</g>
<!-- Node5 -->
<g id="node5" class="node">
<title>Node5</title>
<g id="a_node5"><a xlink:href="../../db/dd7/btinstallbackend_8cpp.html" target="_top" xlink:title=" ">
<polygon fill="white" stroke="black" points="5061.5,-112.5 5061.5,-131.5 5178.5,-131.5 5178.5,-112.5 5061.5,-112.5"/>
<text text-anchor="middle" x="5120" y="-119.5" font-family="Helvetica,sans-Serif" font-size="10.00">btinstallbackend.cpp</text>
</a>
</g>
</g>
<!-- Node3&#45;&gt;Node5 -->
<g id="edge4" class="edge">
<title>Node3&#45;&gt;Node5</title>
<path fill="none" stroke="midnightblue" d="M2696.89,-176.28C3048.43,-172.06 4811.15,-150.12 5052,-132 5055.09,-131.77 5058.25,-131.49 5061.44,-131.18"/>
<polygon fill="midnightblue" stroke="midnightblue" points="2696.62,-172.78 2686.66,-176.4 2696.71,-179.78 2696.62,-172.78"/>
</g>
<!-- Node6 -->
<g id="node6" class="node">
<title>Node6</title>
<g id="a_node6"><a xlink:href="../../d5/daf/btinstallthread_8cpp.html" target="_top" xlink:title=" ">
<polygon fill="white" stroke="black" points="0,-112.5 0,-131.5 108,-131.5 108,-112.5 0,-112.5"/>
<text text-anchor="middle" x="54" y="-119.5" font-family="Helvetica,sans-Serif" font-size="10.00">btinstallthread.cpp</text>
</a>
</g>
</g>
<!-- Node3&#45;&gt;Node6 -->
<g id="edge5" class="edge">
<title>Node3&#45;&gt;Node6</title>
<path fill="none" stroke="midnightblue" d="M2575.28,-168.09C1484.93,-79.58 1203.33,-217.2 117,-132 114.14,-131.78 111.2,-131.5 108.25,-131.2"/>
<polygon fill="midnightblue" stroke="midnightblue" points="2575.07,-171.58 2585.32,-168.91 2575.63,-164.61 2575.07,-171.58"/>
</g>
<!-- Node7 -->
<g id="node7" class="node">
<title>Node7</title>
<g id="a_node7"><a xlink:href="../../de/d4e/btconfig_8cpp.html" target="_top" xlink:title=" ">
<polygon fill="white" stroke="black" points="126,-112.5 126,-131.5 202,-131.5 202,-112.5 126,-112.5"/>
<text text-anchor="middle" x="164" y="-119.5" font-family="Helvetica,sans-Serif" font-size="10.00">btconfig.cpp</text>
</a>
</g>
</g>
<!-- Node3&#45;&gt;Node7 -->
<g id="edge6" class="edge">
<title>Node3&#45;&gt;Node7</title>
<path fill="none" stroke="midnightblue" d="M2575.07,-168.09C2035.45,-125.68 730.55,-185.29 211,-132 208.11,-131.7 205.13,-131.32 202.14,-130.88"/>
<polygon fill="midnightblue" stroke="midnightblue" points="2575.07,-171.6 2585.32,-168.91 2575.63,-164.62 2575.07,-171.6"/>
</g>
<!-- Node8 -->
<g id="node8" class="node">
<title>Node8</title>
<g id="a_node8"><a xlink:href="../../dd/d03/cswordmodulesearch_8cpp.html" target="_top" xlink:title=" ">
<polygon fill="white" stroke="black" points="220,-112.5 220,-131.5 360,-131.5 360,-112.5 220,-112.5"/>
<text text-anchor="middle" x="290" y="-119.5" font-family="Helvetica,sans-Serif" font-size="10.00">cswordmodulesearch.cpp</text>
</a>
</g>
</g>
<!-- Node3&#45;&gt;Node8 -->
<g id="edge7" class="edge">
<title>Node3&#45;&gt;Node8</title>
<path fill="none" stroke="midnightblue" d="M2575.22,-168.08C1596.61,-87.8 1344.61,-195.38 369,-132 366.11,-131.81 363.16,-131.59 360.18,-131.35"/>
<polygon fill="midnightblue" stroke="midnightblue" points="2575.06,-171.58 2585.32,-168.91 2575.64,-164.6 2575.06,-171.58"/>
</g>
<!-- Node9 -->
<g id="node9" class="node">
<title>Node9</title>
<g id="a_node9"><a xlink:href="../../d4/d94/cswordbiblemoduleinfo_8cpp.html" target="_top" xlink:title=" ">
<polygon fill="white" stroke="black" points="378.5,-112.5 378.5,-131.5 529.5,-131.5 529.5,-112.5 378.5,-112.5"/>
<text text-anchor="middle" x="454" y="-119.5" font-family="Helvetica,sans-Serif" font-size="10.00">cswordbiblemoduleinfo.cpp</text>
</a>
</g>
</g>
<!-- Node3&#45;&gt;Node9 -->
<g id="edge8" class="edge">
<title>Node3&#45;&gt;Node9</title>
<path fill="none" stroke="midnightblue" d="M2575.33,-168.09C1671.96,-93.37 1439.45,-187.52 539,-132 535.89,-131.81 532.72,-131.59 529.51,-131.34"/>
<polygon fill="midnightblue" stroke="midnightblue" points="2575.06,-171.58 2585.32,-168.92 2575.64,-164.6 2575.06,-171.58"/>
</g>
<!-- Node3&#45;&gt;Node10 -->
<g id="edge9" class="edge">
<title>Node3&#45;&gt;Node10</title>
<path fill="none" stroke="midnightblue" d="M2696.75,-176.35C3066.62,-172.38 5008.71,-150.72 5273,-132 5275.76,-131.8 5278.59,-131.58 5281.43,-131.32"/>
<polygon fill="midnightblue" stroke="midnightblue" points="2696.49,-172.86 2686.52,-176.46 2696.56,-179.86 2696.49,-172.86"/>
</g>
<!-- Node11 -->
<g id="node11" class="node">
<title>Node11</title>
<g id="a_node11"><a xlink:href="../../d4/d4d/gbftohtml_8cpp.html" target="_top" xlink:title=" ">
<polygon fill="white" stroke="black" points="548,-112.5 548,-131.5 632,-131.5 632,-112.5 548,-112.5"/>
<text text-anchor="middle" x="590" y="-119.5" font-family="Helvetica,sans-Serif" font-size="10.00">gbftohtml.cpp</text>
</a>
</g>
</g>
<!-- Node3&#45;&gt;Node11 -->
<g id="edge10" class="edge">
<title>Node3&#45;&gt;Node11</title>
<path fill="none" stroke="midnightblue" d="M2575.19,-168.08C1716.68,-96.96 1493.09,-216.17 640,-132 637.45,-131.75 634.84,-131.44 632.22,-131.09"/>
<polygon fill="midnightblue" stroke="midnightblue" points="2575.06,-171.58 2585.32,-168.92 2575.64,-164.6 2575.06,-171.58"/>
</g>
<!-- Node12 -->
<g id="node12" class="node">
<title>Node12</title>
<g id="a_node12"><a xlink:href="../../db/d7a/osistohtml_8cpp.html" target="_top" xlink:title=" ">
<polygon fill="white" stroke="black" points="649.5,-112.5 649.5,-131.5 738.5,-131.5 738.5,-112.5 649.5,-112.5"/>
<text text-anchor="middle" x="694" y="-119.5" font-family="Helvetica,sans-Serif" font-size="10.00">osistohtml.cpp</text>
</a>
</g>
</g>
<!-- Node3&#45;&gt;Node12 -->
<g id="edge11" class="edge">
<title>Node3&#45;&gt;Node12</title>
<path fill="none" stroke="midnightblue" d="M2575.15,-168.07C1764.54,-100.47 1553.78,-206.68 748,-132 744.97,-131.72 741.86,-131.37 738.72,-130.97"/>
<polygon fill="midnightblue" stroke="midnightblue" points="2575.06,-171.58 2585.32,-168.93 2575.64,-164.6 2575.06,-171.58"/>
</g>
<!-- Node13 -->
<g id="node13" class="node">
<title>Node13</title>
<g id="a_node13"><a xlink:href="../../d5/de5/teitohtml_8cpp.html" target="_top" xlink:title=" ">
<polygon fill="white" stroke="black" points="757,-112.5 757,-131.5 839,-131.5 839,-112.5 757,-112.5"/>
<text text-anchor="middle" x="798" y="-119.5" font-family="Helvetica,sans-Serif" font-size="10.00">teitohtml.cpp</text>
</a>
</g>
</g>
<!-- Node3&#45;&gt;Node13 -->
<g id="edge12" class="edge">
<title>Node3&#45;&gt;Node13</title>
<path fill="none" stroke="midnightblue" d="M2575.13,-168.07C1808.84,-103.81 1609.01,-207.94 848,-132 845.1,-131.71 842.12,-131.35 839.13,-130.93"/>
<polygon fill="midnightblue" stroke="midnightblue" points="2575.06,-171.58 2585.31,-168.93 2575.65,-164.6 2575.06,-171.58"/>
</g>
<!-- Node14 -->
<g id="node14" class="node">
<title>Node14</title>
<g id="a_node14"><a xlink:href="../../d9/de8/thmltohtml_8cpp.html" target="_top" xlink:title=" ">
<polygon fill="white" stroke="black" points="857,-112.5 857,-131.5 949,-131.5 949,-112.5 857,-112.5"/>
<text text-anchor="middle" x="903" y="-119.5" font-family="Helvetica,sans-Serif" font-size="10.00">thmltohtml.cpp</text>
</a>
</g>
</g>
<!-- Node3&#45;&gt;Node14 -->
<g id="edge13" class="edge">
<title>Node3&#45;&gt;Node14</title>
<path fill="none" stroke="midnightblue" d="M2575.25,-168.08C1857.61,-107.37 1670.91,-197.93 958,-132 955.11,-131.73 952.14,-131.4 949.15,-131.03"/>
<polygon fill="midnightblue" stroke="midnightblue" points="2575.05,-171.57 2585.31,-168.94 2575.65,-164.6 2575.05,-171.57"/>
</g>
<!-- Node15 -->
<g id="node15" class="node">
<title>Node15</title>
<g id="a_node15"><a xlink:href="../../d4/d47/cdisplaytemplatemgr_8cpp.html" target="_top" xlink:title=" ">
<polygon fill="white" stroke="black" points="967,-112.5 967,-131.5 1107,-131.5 1107,-112.5 967,-112.5"/>
<text text-anchor="middle" x="1037" y="-119.5" font-family="Helvetica,sans-Serif" font-size="10.00">cdisplaytemplatemgr.cpp</text>
</a>
</g>
</g>
<!-- Node3&#45;&gt;Node15 -->
<g id="edge14" class="edge">
<title>Node3&#45;&gt;Node15</title>
<path fill="none" stroke="midnightblue" d="M2575.26,-168.07C1927.64,-112.41 1760.22,-176.55 1116,-132 1113.11,-131.8 1110.16,-131.57 1107.18,-131.32"/>
<polygon fill="midnightblue" stroke="midnightblue" points="2575.05,-171.57 2585.31,-168.94 2575.65,-164.6 2575.05,-171.57"/>
</g>
<!-- Node16 -->
<g id="node16" class="node">
<title>Node16</title>
<g id="a_node16"><a xlink:href="../../d9/d7b/cswordbackend_8cpp.html" target="_top" xlink:title=" ">
<polygon fill="white" stroke="black" points="1125,-112.5 1125,-131.5 1237,-131.5 1237,-112.5 1125,-112.5"/>
<text text-anchor="middle" x="1181" y="-119.5" font-family="Helvetica,sans-Serif" font-size="10.00">cswordbackend.cpp</text>
</a>
</g>
</g>
<!-- Node3&#45;&gt;Node16 -->
<g id="edge15" class="edge">
<title>Node3&#45;&gt;Node16</title>
<path fill="none" stroke="midnightblue" d="M2575.28,-168.07C1985.24,-116.77 1832.02,-180.35 1246,-132 1243.16,-131.77 1240.26,-131.49 1237.33,-131.19"/>
<polygon fill="midnightblue" stroke="midnightblue" points="2575.05,-171.57 2585.31,-168.95 2575.66,-164.59 2575.05,-171.57"/>
</g>
<!-- Node17 -->
<g id="node17" class="node">
<title>Node17</title>
<g id="a_node17"><a xlink:href="../../d7/dfe/referencemanager_8cpp.html" target="_top" xlink:title=" ">
<polygon fill="white" stroke="black" points="1255,-112.5 1255,-131.5 1381,-131.5 1381,-112.5 1255,-112.5"/>
<text text-anchor="middle" x="1318" y="-119.5" font-family="Helvetica,sans-Serif" font-size="10.00">referencemanager.cpp</text>
</a>
</g>
</g>
<!-- Node3&#45;&gt;Node17 -->
<g id="edge16" class="edge">
<title>Node3&#45;&gt;Node17</title>
<path fill="none" stroke="midnightblue" d="M2575.18,-168.06C2049.03,-121.46 1912.44,-172.49 1390,-132 1387.11,-131.78 1384.16,-131.52 1381.18,-131.24"/>
<polygon fill="midnightblue" stroke="midnightblue" points="2575.04,-171.56 2585.31,-168.97 2575.66,-164.59 2575.04,-171.56"/>
</g>
<!-- Node18 -->
<g id="node18" class="node">
<title>Node18</title>
<g id="a_node18"><a xlink:href="../../de/d93/btmoduletextmodel_8cpp.html" target="_top" xlink:title=" ">
<polygon fill="white" stroke="black" points="1399,-112.5 1399,-131.5 1533,-131.5 1533,-112.5 1399,-112.5"/>
<text text-anchor="middle" x="1466" y="-119.5" font-family="Helvetica,sans-Serif" font-size="10.00">btmoduletextmodel.cpp</text>
</a>
</g>
</g>
<!-- Node3&#45;&gt;Node18 -->
<g id="edge17" class="edge">
<title>Node3&#45;&gt;Node18</title>
<path fill="none" stroke="midnightblue" d="M2575.1,-168.05C2116.36,-126.43 1997.14,-166.81 1542,-132 1539.09,-131.78 1536.11,-131.53 1533.11,-131.25"/>
<polygon fill="midnightblue" stroke="midnightblue" points="2575.03,-171.55 2585.31,-168.98 2575.67,-164.58 2575.03,-171.55"/>
</g>
<!-- Node19 -->
<g id="node19" class="node">
<title>Node19</title>
<g id="a_node19"><a xlink:href="../../da/d1a/btinforendering_8cpp.html" target="_top" xlink:title=" ">
<polygon fill="white" stroke="black" points="1551,-112.5 1551,-131.5 1663,-131.5 1663,-112.5 1551,-112.5"/>
<text text-anchor="middle" x="1607" y="-119.5" font-family="Helvetica,sans-Serif" font-size="10.00">btinforendering.cpp</text>
</a>
</g>
</g>
<!-- Node3&#45;&gt;Node19 -->
<g id="edge18" class="edge">
<title>Node3&#45;&gt;Node19</title>
<path fill="none" stroke="midnightblue" d="M2575.17,-168.05C2173.96,-130.74 2069.19,-167.32 1672,-132 1669.16,-131.75 1666.26,-131.46 1663.33,-131.14"/>
<polygon fill="midnightblue" stroke="midnightblue" points="2575.03,-171.55 2585.31,-169 2575.68,-164.58 2575.03,-171.55"/>
</g>
<!-- Node20 -->
<g id="node20" class="node">
<title>Node20</title>
<g id="a_node20"><a xlink:href="../../db/d72/ctextrendering_8cpp.html" target="_top" xlink:title=" ">
<polygon fill="white" stroke="black" points="1681,-112.5 1681,-131.5 1789,-131.5 1789,-112.5 1681,-112.5"/>
<text text-anchor="middle" x="1735" y="-119.5" font-family="Helvetica,sans-Serif" font-size="10.00">ctextrendering.cpp</text>
</a>
</g>
</g>
<!-- Node3&#45;&gt;Node20 -->
<g id="edge19" class="edge">
<title>Node3&#45;&gt;Node20</title>
<path fill="none" stroke="midnightblue" d="M2575.33,-168.05C2232.01,-134.98 2142.3,-162.3 1803,-132 1798.49,-131.6 1793.83,-131.12 1789.14,-130.59"/>
<polygon fill="midnightblue" stroke="midnightblue" points="2575.01,-171.54 2585.31,-169.02 2575.69,-164.57 2575.01,-171.54"/>
</g>
<!-- Node21 -->
<g id="node21" class="node">
<title>Node21</title>
<g id="a_node21"><a xlink:href="../../d5/d2b/cdisplaywindow_8h.html" target="_top" xlink:title=" ">
<polygon fill="white" stroke="red" points="1883.5,-112.5 1883.5,-131.5 1986.5,-131.5 1986.5,-112.5 1883.5,-112.5"/>
<text text-anchor="middle" x="1935" y="-119.5" font-family="Helvetica,sans-Serif" font-size="10.00">cdisplaywindow.h</text>
</a>
</g>
</g>
<!-- Node3&#45;&gt;Node21 -->
<g id="edge20" class="edge">
<title>Node3&#45;&gt;Node21</title>
<path fill="none" stroke="midnightblue" d="M2575.34,-168.03C2319.68,-141.39 2252.57,-156.99 2001,-132 1996.4,-131.54 1991.62,-131.01 1986.84,-130.43"/>
<polygon fill="midnightblue" stroke="midnightblue" points="2574.99,-171.51 2585.3,-169.08 2575.72,-164.55 2574.99,-171.51"/>
</g>
<!-- Node30 -->
<g id="node22" class="node">
<title>Node30</title>
<g id="a_node22"><a xlink:href="../../d5/d06/clexiconreadwindow_8h.html" target="_top" xlink:title=" ">
<polygon fill="white" stroke="red" points="1969.5,-56.5 1969.5,-75.5 2094.5,-75.5 2094.5,-56.5 1969.5,-56.5"/>
<text text-anchor="middle" x="2032" y="-63.5" font-family="Helvetica,sans-Serif" font-size="10.00">clexiconreadwindow.h</text>
</a>
</g>
</g>
<!-- Node3&#45;&gt;Node30 -->
<g id="edge24" class="edge">
<title>Node3&#45;&gt;Node30</title>
<path fill="none" stroke="midnightblue" d="M2575.24,-168.28C2481.39,-162.54 2074.23,-173.69 2034,-132 2019.42,-116.89 2024.97,-89.42 2029.1,-75.53"/>
<polygon fill="midnightblue" stroke="midnightblue" points="2575.05,-171.78 2585.3,-169.09 2575.61,-164.8 2575.05,-171.78"/>
</g>
<!-- Node31 -->
<g id="node23" class="node">
<title>Node31</title>
<g id="a_node23"><a xlink:href="../../d8/d19/clexiconreadwindow_8cpp.html" target="_top" xlink:title=" ">
<polygon fill="white" stroke="black" points="1856,-0.5 1856,-19.5 1992,-19.5 1992,-0.5 1856,-0.5"/>
<text text-anchor="middle" x="1924" y="-7.5" font-family="Helvetica,sans-Serif" font-size="10.00">clexiconreadwindow.cpp</text>
</a>
</g>
</g>
<!-- Node3&#45;&gt;Node31 -->
<g id="edge47" class="edge">
<title>Node3&#45;&gt;Node31</title>
<path fill="none" stroke="midnightblue" d="M2574.99,-168.22C2460.27,-161.04 1929.31,-173.38 1865,-132 1834.6,-112.44 1817.13,-86.84 1836,-56 1847.37,-37.41 1869.12,-26.19 1888.15,-19.6"/>
<polygon fill="midnightblue" stroke="midnightblue" points="2575.06,-171.74 2585.3,-169.04 2575.61,-164.76 2575.06,-171.74"/>
</g>
<!-- Node36 -->
<g id="node24" class="node">
<title>Node36</title>
<g id="a_node24"><a xlink:href="../../d9/d0c/btquickwidget_8cpp.html" target="_top" xlink:title=" ">
<polygon fill="white" stroke="black" points="1845,-56.5 1845,-75.5 1951,-75.5 1951,-56.5 1845,-56.5"/>
<text text-anchor="middle" x="1898" y="-63.5" font-family="Helvetica,sans-Serif" font-size="10.00">btquickwidget.cpp</text>
</a>
</g>
</g>
<!-- Node3&#45;&gt;Node36 -->
<g id="edge43" class="edge">
<title>Node3&#45;&gt;Node36</title>
<path fill="none" stroke="midnightblue" d="M2575.07,-168.36C2480.02,-163.7 1899.66,-159.01 1874,-132 1858.75,-115.95 1877.82,-89.39 1889.75,-75.72"/>
<polygon fill="midnightblue" stroke="midnightblue" points="2575.1,-171.87 2585.3,-169.04 2575.56,-164.89 2575.1,-171.87"/>
</g>
<!-- Node40 -->
<g id="node25" class="node">
<title>Node40</title>
<g id="a_node25"><a xlink:href="../../d9/d67/csearchdialog_8h.html" target="_top" xlink:title=" ">
<polygon fill="white" stroke="red" points="2043.5,-112.5 2043.5,-131.5 2136.5,-131.5 2136.5,-112.5 2043.5,-112.5"/>
<text text-anchor="middle" x="2090" y="-119.5" font-family="Helvetica,sans-Serif" font-size="10.00">csearchdialog.h</text>
</a>
</g>
</g>
<!-- Node3&#45;&gt;Node40 -->
<g id="edge25" class="edge">
<title>Node3&#45;&gt;Node40</title>
<path fill="none" stroke="midnightblue" d="M2575.18,-167.98C2383.79,-146.08 2333.11,-154.84 2146,-132 2142.97,-131.63 2139.85,-131.22 2136.71,-130.78"/>
<polygon fill="midnightblue" stroke="midnightblue" points="2574.96,-171.48 2585.29,-169.16 2575.76,-164.53 2574.96,-171.48"/>
</g>
<!-- Node43 -->
<g id="node26" class="node">
<title>Node43</title>
<g id="a_node26"><a xlink:href="../../da/dc7/bibletime__init_8cpp.html" target="_top" xlink:title=" ">
<polygon fill="white" stroke="black" points="2155,-112.5 2155,-131.5 2259,-131.5 2259,-112.5 2155,-112.5"/>
<text text-anchor="middle" x="2207" y="-119.5" font-family="Helvetica,sans-Serif" font-size="10.00">bibletime_init.cpp</text>
</a>
</g>
</g>
<!-- Node3&#45;&gt;Node43 -->
<g id="edge26" class="edge">
<title>Node3&#45;&gt;Node43</title>
<path fill="none" stroke="midnightblue" d="M2575.2,-167.93C2437.7,-149.78 2401.43,-149.64 2268,-132 2265.13,-131.62 2262.2,-131.22 2259.23,-130.81"/>
<polygon fill="midnightblue" stroke="midnightblue" points="2574.9,-171.43 2585.28,-169.27 2575.83,-164.49 2574.9,-171.43"/>
</g>
<!-- Node44 -->
<g id="node27" class="node">
<title>Node44</title>
<g id="a_node27"><a xlink:href="../../d5/d86/bibletimeapp_8cpp.html" target="_top" xlink:title=" ">
<polygon fill="white" stroke="black" points="2277.5,-112.5 2277.5,-131.5 2378.5,-131.5 2378.5,-112.5 2277.5,-112.5"/>
<text text-anchor="middle" x="2328" y="-119.5" font-family="Helvetica,sans-Serif" font-size="10.00">bibletimeapp.cpp</text>
</a>
</g>
</g>
<!-- Node3&#45;&gt;Node44 -->
<g id="edge27" class="edge">
<title>Node3&#45;&gt;Node44</title>
<path fill="none" stroke="midnightblue" d="M2577.05,-166.66C2518.84,-156.46 2430.89,-141.04 2376.58,-131.52"/>
<polygon fill="midnightblue" stroke="midnightblue" points="2576.74,-170.16 2587.2,-168.44 2577.95,-163.27 2576.74,-170.16"/>
</g>
<!-- Node45 -->
<g id="node28" class="node">
<title>Node45</title>
<g id="a_node28"><a xlink:href="../../dd/dcb/btprinter_8h.html" target="_top" xlink:title=" ">
<polygon fill="white" stroke="red" points="5196.5,-112.5 5196.5,-131.5 5263.5,-131.5 5263.5,-112.5 5196.5,-112.5"/>
<text text-anchor="middle" x="5230" y="-119.5" font-family="Helvetica,sans-Serif" font-size="10.00">btprinter.h</text>
</a>
</g>
</g>
<!-- Node3&#45;&gt;Node45 -->
<g id="edge28" class="edge">
<title>Node3&#45;&gt;Node45</title>
<path fill="none" stroke="midnightblue" d="M2696.84,-176.26C3072.13,-171.66 5060.46,-146.65 5188,-132 5190.67,-131.69 5193.41,-131.3 5196.17,-130.84"/>
<polygon fill="midnightblue" stroke="midnightblue" points="2696.68,-172.76 2686.73,-176.38 2696.77,-179.76 2696.68,-172.76"/>
</g>
<!-- Node48 -->
<g id="node30" class="node">
<title>Node48</title>
<g id="a_node30"><a xlink:href="../../dc/d04/btbookshelfinstallfinalpage_8cpp.html" target="_top" xlink:title=" ">
<polygon fill="white" stroke="black" points="2551.5,-112.5 2551.5,-131.5 2720.5,-131.5 2720.5,-112.5 2551.5,-112.5"/>
<text text-anchor="middle" x="2636" y="-119.5" font-family="Helvetica,sans-Serif" font-size="10.00">btbookshelfinstallfinalpage.cpp</text>
</a>
</g>
</g>
<!-- Node3&#45;&gt;Node48 -->
<g id="edge30" class="edge">
<title>Node3&#45;&gt;Node48</title>
<path fill="none" stroke="midnightblue" d="M2636,-157.8C2636,-148.91 2636,-138.78 2636,-131.75"/>
<polygon fill="midnightblue" stroke="midnightblue" points="2632.5,-158.08 2636,-168.08 2639.5,-158.08 2632.5,-158.08"/>
</g>
<!-- Node49 -->
<g id="node31" class="node">
<title>Node49</title>
<g id="a_node31"><a xlink:href="../../d0/da5/btbookshelflanguagespage_8cpp.html" target="_top" xlink:title=" ">
<polygon fill="white" stroke="black" points="2738,-112.5 2738,-131.5 2906,-131.5 2906,-112.5 2738,-112.5"/>
<text text-anchor="middle" x="2822" y="-119.5" font-family="Helvetica,sans-Serif" font-size="10.00">btbookshelflanguagespage.cpp</text>
</a>
</g>
</g>
<!-- Node3&#45;&gt;Node49 -->
<g id="edge31" class="edge">
<title>Node3&#45;&gt;Node49</title>
<path fill="none" stroke="midnightblue" d="M2675.38,-165.57C2710.47,-155.38 2761.02,-140.7 2792.67,-131.52"/>
<polygon fill="midnightblue" stroke="midnightblue" points="2674.1,-162.29 2665.47,-168.44 2676.05,-169.02 2674.1,-162.29"/>
</g>
<!-- Node50 -->
<g id="node32" class="node">
<title>Node50</title>
<g id="a_node32"><a xlink:href="../../d0/da0/btbookshelfremovefinalpage_8cpp.html" target="_top" xlink:title=" ">
<polygon fill="white" stroke="black" points="2923.5,-112.5 2923.5,-131.5 3100.5,-131.5 3100.5,-112.5 2923.5,-112.5"/>
<text text-anchor="middle" x="3012" y="-119.5" font-family="Helvetica,sans-Serif" font-size="10.00">btbookshelfremovefinalpage.cpp</text>
</a>
</g>
</g>
<!-- Node3&#45;&gt;Node50 -->
<g id="edge32" class="edge">
<title>Node3&#45;&gt;Node50</title>
<path fill="none" stroke="midnightblue" d="M2696.77,-168.27C2767.22,-158.15 2882.6,-141.58 2952.51,-131.54"/>
<polygon fill="midnightblue" stroke="midnightblue" points="2696.11,-164.83 2686.71,-169.72 2697.11,-171.76 2696.11,-164.83"/>
</g>
<!-- Node51 -->
<g id="node33" class="node">
<title>Node51</title>
<g id="a_node33"><a xlink:href="../../de/db2/btbookshelftaskpage_8cpp.html" target="_top" xlink:title=" ">
<polygon fill="white" stroke="black" points="3118.5,-112.5 3118.5,-131.5 3257.5,-131.5 3257.5,-112.5 3118.5,-112.5"/>
<text text-anchor="middle" x="3188" y="-119.5" font-family="Helvetica,sans-Serif" font-size="10.00">btbookshelftaskpage.cpp</text>
</a>
</g>
</g>
<!-- Node3&#45;&gt;Node51 -->
<g id="edge33" class="edge">
<title>Node3&#45;&gt;Node51</title>
<path fill="none" stroke="midnightblue" d="M2696.81,-171.58C2786.89,-163.47 2961.08,-147.46 3109,-132 3112.02,-131.68 3115.11,-131.36 3118.22,-131.02"/>
<polygon fill="midnightblue" stroke="midnightblue" points="2696.43,-168.1 2686.78,-172.48 2697.05,-175.07 2696.43,-168.1"/>
</g>
<!-- Node52 -->
<g id="node34" class="node">
<title>Node52</title>
<g id="a_node34"><a xlink:href="../../d6/d8d/btbookshelfworkspage_8h.html" target="_top" xlink:title=" ">
<polygon fill="white" stroke="red" points="2397,-112.5 2397,-131.5 2533,-131.5 2533,-112.5 2397,-112.5"/>
<text text-anchor="middle" x="2465" y="-119.5" font-family="Helvetica,sans-Serif" font-size="10.00">btbookshelfworkspage.h</text>
</a>
</g>
</g>
<!-- Node3&#45;&gt;Node52 -->
<g id="edge34" class="edge">
<title>Node3&#45;&gt;Node52</title>
<path fill="none" stroke="midnightblue" d="M2598.96,-165.3C2566.74,-155.13 2520.81,-140.62 2491.97,-131.52"/>
<polygon fill="midnightblue" stroke="midnightblue" points="2598.31,-168.77 2608.9,-168.44 2600.42,-162.09 2598.31,-168.77"/>
</g>
<!-- Node54 -->
<g id="node35" class="node">
<title>Node54</title>
<g id="a_node35"><a xlink:href="../../d9/d03/btbookshelfworkspage_8cpp.html" target="_top" xlink:title=" ">
<polygon fill="white" stroke="black" points="2801.5,-56.5 2801.5,-75.5 2948.5,-75.5 2948.5,-56.5 2801.5,-56.5"/>
<text text-anchor="middle" x="2875" y="-63.5" font-family="Helvetica,sans-Serif" font-size="10.00">btbookshelfworkspage.cpp</text>
</a>
</g>
</g>
<!-- Node3&#45;&gt;Node54 -->
<g id="edge36" class="edge">
<title>Node3&#45;&gt;Node54</title>
<path fill="none" stroke="midnightblue" d="M2697.12,-177.25C2847.82,-177.23 3227.76,-173.07 3266,-132 3310.49,-84.22 3074.21,-71.56 2948.94,-68.21"/>
<polygon fill="midnightblue" stroke="midnightblue" points="2696.68,-173.75 2686.68,-177.25 2696.68,-180.75 2696.68,-173.75"/>
</g>
<!-- Node55 -->
<g id="node36" class="node">
<title>Node55</title>
<g id="a_node36"><a xlink:href="../../dd/dba/btinstallpagemodel_8cpp.html" target="_top" xlink:title=" ">
<polygon fill="white" stroke="black" points="3314.5,-112.5 3314.5,-131.5 3445.5,-131.5 3445.5,-112.5 3314.5,-112.5"/>
<text text-anchor="middle" x="3380" y="-119.5" font-family="Helvetica,sans-Serif" font-size="10.00">btinstallpagemodel.cpp</text>
</a>
</g>
</g>
<!-- Node3&#45;&gt;Node55 -->
<g id="edge37" class="edge">
<title>Node3&#45;&gt;Node55</title>
<path fill="none" stroke="midnightblue" d="M2697.07,-173.77C2814.15,-167.37 3078.27,-151.98 3300,-132 3304.59,-131.59 3309.33,-131.13 3314.1,-130.65"/>
<polygon fill="midnightblue" stroke="midnightblue" points="2696.67,-170.29 2686.88,-174.32 2697.05,-177.28 2696.67,-170.29"/>
</g>
<!-- Node56 -->
<g id="node37" class="node">
<title>Node56</title>
<g id="a_node37"><a xlink:href="../../df/d88/btbookshelfdockwidget_8cpp.html" target="_top" xlink:title=" ">
<polygon fill="white" stroke="black" points="3463.5,-112.5 3463.5,-131.5 3614.5,-131.5 3614.5,-112.5 3463.5,-112.5"/>
<text text-anchor="middle" x="3539" y="-119.5" font-family="Helvetica,sans-Serif" font-size="10.00">btbookshelfdockwidget.cpp</text>
</a>
</g>
</g>
<!-- Node3&#45;&gt;Node56 -->
<g id="edge38" class="edge">
<title>Node3&#45;&gt;Node56</title>
<path fill="none" stroke="midnightblue" d="M2697.01,-174.7C2833.03,-169.34 3171.44,-154.72 3454,-132 3457.11,-131.75 3460.27,-131.48 3463.47,-131.2"/>
<polygon fill="midnightblue" stroke="midnightblue" points="2696.65,-171.21 2686.79,-175.1 2696.92,-178.2 2696.65,-171.21"/>
</g>
<!-- Node57 -->
<g id="node38" class="node">
<title>Node57</title>
<g id="a_node38"><a xlink:href="../../dc/dc2/btmoduleindexdialog_8cpp.html" target="_top" xlink:title=" ">
<polygon fill="white" stroke="black" points="3633,-112.5 3633,-131.5 3773,-131.5 3773,-112.5 3633,-112.5"/>
<text text-anchor="middle" x="3703" y="-119.5" font-family="Helvetica,sans-Serif" font-size="10.00">btmoduleindexdialog.cpp</text>
</a>
</g>
</g>
<!-- Node3&#45;&gt;Node57 -->
<g id="edge39" class="edge">
<title>Node3&#45;&gt;Node57</title>
<path fill="none" stroke="midnightblue" d="M2696.91,-175.63C2851.76,-171.85 3273.01,-159.63 3623,-132 3626.2,-131.75 3629.48,-131.47 3632.79,-131.17"/>
<polygon fill="midnightblue" stroke="midnightblue" points="2696.58,-172.14 2686.66,-175.88 2696.75,-179.14 2696.58,-172.14"/>
</g>
<!-- Node58 -->
<g id="node39" class="node">
<title>Node58</title>
<g id="a_node39"><a xlink:href="../../d9/d62/btopenworkaction_8cpp.html" target="_top" xlink:title=" ">
<polygon fill="white" stroke="black" points="3791,-112.5 3791,-131.5 3915,-131.5 3915,-112.5 3791,-112.5"/>
<text text-anchor="middle" x="3853" y="-119.5" font-family="Helvetica,sans-Serif" font-size="10.00">btopenworkaction.cpp</text>
</a>
</g>
</g>
<!-- Node3&#45;&gt;Node58 -->
<g id="edge40" class="edge">
<title>Node3&#45;&gt;Node58</title>
<path fill="none" stroke="midnightblue" d="M2696.71,-176.47C2867.74,-174.58 3368.05,-166.3 3782,-132 3784.85,-131.76 3787.76,-131.5 3790.69,-131.21"/>
<polygon fill="midnightblue" stroke="midnightblue" points="2696.61,-172.97 2686.64,-176.58 2696.68,-179.97 2696.61,-172.97"/>
</g>
<!-- Node59 -->
<g id="node40" class="node">
<title>Node59</title>
<g id="a_node40"><a xlink:href="../../d4/d3a/bttextbrowser_8cpp.html" target="_top" xlink:title=" ">
<polygon fill="white" stroke="black" points="3933,-112.5 3933,-131.5 4037,-131.5 4037,-112.5 3933,-112.5"/>
<text text-anchor="middle" x="3985" y="-119.5" font-family="Helvetica,sans-Serif" font-size="10.00">bttextbrowser.cpp</text>
</a>
</g>
</g>
<!-- Node3&#45;&gt;Node59 -->
<g id="edge41" class="edge">
<title>Node3&#45;&gt;Node59</title>
<path fill="none" stroke="midnightblue" d="M2696.82,-177.28C2881.67,-177.61 3452.99,-174.84 3924,-132 3926.88,-131.74 3929.83,-131.43 3932.8,-131.09"/>
<polygon fill="midnightblue" stroke="midnightblue" points="2696.76,-173.78 2686.76,-177.26 2696.75,-180.78 2696.76,-173.78"/>
</g>
<!-- Node60 -->
<g id="node41" class="node">
<title>Node60</title>
<g id="a_node41"><a xlink:href="../../de/d6e/btqmlinterface_8cpp.html" target="_top" xlink:title=" ">
<polygon fill="white" stroke="black" points="4055.5,-112.5 4055.5,-131.5 4164.5,-131.5 4164.5,-112.5 4055.5,-112.5"/>
<text text-anchor="middle" x="4110" y="-119.5" font-family="Helvetica,sans-Serif" font-size="10.00">btqmlinterface.cpp</text>
</a>
</g>
</g>
<!-- Node3&#45;&gt;Node60 -->
<g id="edge42" class="edge">
<title>Node3&#45;&gt;Node60</title>
<path fill="none" stroke="midnightblue" d="M2696.79,-177.4C2892.73,-178.18 3525.2,-176.8 4046,-132 4049.02,-131.74 4052.11,-131.44 4055.23,-131.1"/>
<polygon fill="midnightblue" stroke="midnightblue" points="2696.71,-173.9 2686.7,-177.35 2696.68,-180.9 2696.71,-173.9"/>
</g>
<!-- Node61 -->
<g id="node42" class="node">
<title>Node61</title>
<g id="a_node42"><a xlink:href="../../d7/df1/btmodulechooserbutton_8cpp.html" target="_top" xlink:title=" ">
<polygon fill="white" stroke="black" points="4182.5,-112.5 4182.5,-131.5 4335.5,-131.5 4335.5,-112.5 4182.5,-112.5"/>
<text text-anchor="middle" x="4259" y="-119.5" font-family="Helvetica,sans-Serif" font-size="10.00">btmodulechooserbutton.cpp</text>
</a>
</g>
</g>
<!-- Node3&#45;&gt;Node61 -->
<g id="edge44" class="edge">
<title>Node3&#45;&gt;Node61</title>
<path fill="none" stroke="midnightblue" d="M2696.57,-176.89C2903.29,-176.14 3600.01,-170.73 4174,-132 4176.67,-131.82 4179.38,-131.62 4182.11,-131.41"/>
<polygon fill="midnightblue" stroke="midnightblue" points="2696.51,-173.39 2686.52,-176.92 2696.53,-180.39 2696.51,-173.39"/>
</g>
<!-- Node62 -->
<g id="node43" class="node">
<title>Node62</title>
<g id="a_node43"><a xlink:href="../../dd/ddc/btmodulechoosermenu_8cpp.html" target="_top" xlink:title=" ">
<polygon fill="white" stroke="black" points="4353.5,-112.5 4353.5,-131.5 4502.5,-131.5 4502.5,-112.5 4353.5,-112.5"/>
<text text-anchor="middle" x="4428" y="-119.5" font-family="Helvetica,sans-Serif" font-size="10.00">btmodulechoosermenu.cpp</text>
</a>
</g>
</g>
<!-- Node3&#45;&gt;Node62 -->
<g id="edge45" class="edge">
<title>Node3&#45;&gt;Node62</title>
<path fill="none" stroke="midnightblue" d="M2696.86,-177.19C2918.2,-177.51 3701.13,-175.31 4345,-132 4347.75,-131.82 4350.54,-131.61 4353.37,-131.38"/>
<polygon fill="midnightblue" stroke="midnightblue" points="2696.76,-173.69 2686.75,-177.18 2696.74,-180.69 2696.76,-173.69"/>
</g>
<!-- Node63 -->
<g id="node44" class="node">
<title>Node63</title>
<g id="a_node44"><a xlink:href="../../dc/da2/bttextwindowheaderwidget_8cpp.html" target="_top" xlink:title=" ">
<polygon fill="white" stroke="black" points="4521,-112.5 4521,-131.5 4691,-131.5 4691,-112.5 4521,-112.5"/>
<text text-anchor="middle" x="4606" y="-119.5" font-family="Helvetica,sans-Serif" font-size="10.00">bttextwindowheaderwidget.cpp</text>
</a>
</g>
</g>
<!-- Node3&#45;&gt;Node63 -->
<g id="edge46" class="edge">
<title>Node3&#45;&gt;Node63</title>
<path fill="none" stroke="midnightblue" d="M2696.83,-177.12C2931.32,-177.25 3799.01,-174.63 4512,-132 4514.95,-131.82 4517.94,-131.63 4520.97,-131.42"/>
<polygon fill="midnightblue" stroke="midnightblue" points="2696.8,-173.62 2686.79,-177.11 2696.79,-180.62 2696.8,-173.62"/>
</g>
<!-- Node64 -->
<g id="node45" class="node">
<title>Node64</title>
<g id="a_node45"><a xlink:href="../../df/d0a/main_8cpp.html" target="_top" xlink:title=" ">
<polygon fill="white" stroke="black" points="4709,-112.5 4709,-131.5 4771,-131.5 4771,-112.5 4709,-112.5"/>
<text text-anchor="middle" x="4740" y="-119.5" font-family="Helvetica,sans-Serif" font-size="10.00">main.cpp</text>
</a>
</g>
</g>
<!-- Node3&#45;&gt;Node64 -->
<g id="edge48" class="edge">
<title>Node3&#45;&gt;Node64</title>
<path fill="none" stroke="midnightblue" d="M2696.77,-176.4C3016.53,-173.13 4497.08,-156.79 4700,-132 4702.83,-131.65 4705.75,-131.2 4708.66,-130.67"/>
<polygon fill="midnightblue" stroke="midnightblue" points="2696.73,-172.9 2686.77,-176.5 2696.81,-179.9 2696.73,-172.9"/>
</g>
<!-- Node65 -->
<g id="node46" class="node">
<title>Node65</title>
<g id="a_node46"><a xlink:href="../../d4/d57/btindexdialog_8cpp.html" target="_top" xlink:title=" ">
<polygon fill="white" stroke="black" points="4789,-112.5 4789,-131.5 4893,-131.5 4893,-112.5 4789,-112.5"/>
<text text-anchor="middle" x="4841" y="-119.5" font-family="Helvetica,sans-Serif" font-size="10.00">btindexdialog.cpp</text>
</a>
</g>
</g>
<!-- Node3&#45;&gt;Node65 -->
<g id="edge49" class="edge">
<title>Node3&#45;&gt;Node65</title>
<path fill="none" stroke="midnightblue" d="M2697.35,-176.75C3002.58,-175.37 4359.5,-167.29 4780,-132 4782.88,-131.76 4785.83,-131.47 4788.81,-131.14"/>
<polygon fill="midnightblue" stroke="midnightblue" points="2696.93,-173.26 2686.94,-176.8 2696.96,-180.26 2696.93,-173.26"/>
</g>
<!-- Node21&#45;&gt;Node30 -->
<g id="edge21" class="edge">
<title>Node21&#45;&gt;Node30</title>
<path fill="none" stroke="midnightblue" d="M1959.34,-107.45C1977.24,-97.48 2001.05,-84.23 2016.45,-75.65"/>
<polygon fill="midnightblue" stroke="midnightblue" points="1957.62,-104.4 1950.58,-112.32 1961.02,-110.52 1957.62,-104.4"/>
</g>
<!-- Node21&#45;&gt;Node36 -->
<g id="edge23" class="edge">
<title>Node21&#45;&gt;Node36</title>
<path fill="none" stroke="midnightblue" d="M1923.05,-103.57C1916.69,-94.27 1909.13,-83.25 1904,-75.75"/>
<polygon fill="midnightblue" stroke="midnightblue" points="1920.35,-105.81 1928.89,-112.08 1926.13,-101.86 1920.35,-105.81"/>
</g>
<!-- Node30&#45;&gt;Node31 -->
<g id="edge22" class="edge">
<title>Node30&#45;&gt;Node31</title>
<path fill="none" stroke="midnightblue" d="M2005.45,-51.73C1985.45,-41.73 1958.61,-28.31 1941.31,-19.65"/>
<polygon fill="midnightblue" stroke="midnightblue" points="2004.14,-54.98 2014.65,-56.32 2007.27,-48.72 2004.14,-54.98"/>
</g>
<!-- Node45&#45;&gt;Node47 -->
<g id="edge29" class="edge">
<title>Node45&#45;&gt;Node47</title>
<path fill="none" stroke="midnightblue" d="M5255.58,-107.59C5274.62,-97.61 5300.06,-84.27 5316.49,-75.65"/>
<polygon fill="midnightblue" stroke="midnightblue" points="5253.78,-104.58 5246.55,-112.32 5257.03,-110.78 5253.78,-104.58"/>
</g>
<!-- Node52&#45;&gt;Node54 -->
<g id="edge35" class="edge">
<title>Node52&#45;&gt;Node54</title>
<path fill="none" stroke="midnightblue" d="M2540.13,-111.1C2617.56,-100.91 2736.99,-85.18 2810.34,-75.52"/>
<polygon fill="midnightblue" stroke="midnightblue" points="2539.42,-107.67 2529.97,-112.44 2540.34,-114.61 2539.42,-107.67"/>
</g>
<!-- Node76&#45;&gt;Node3 -->
<g id="edge52" class="edge">
<title>Node76&#45;&gt;Node3</title>
<path fill="none" stroke="midnightblue" d="M3654.17,-229.96C3461.19,-220.3 2864.98,-190.46 2686.8,-181.54"/>
<polygon fill="midnightblue" stroke="midnightblue" points="3654.24,-233.46 3664.4,-230.47 3654.59,-226.47 3654.24,-233.46"/>
</g>
<!-- Node77 -->
<g id="node49" class="node">
<title>Node77</title>
<g id="a_node49"><a xlink:href="../../d0/d6c/cchapterdisplay_8cpp.html" target="_top" xlink:title=" ">
<polygon fill="white" stroke="black" points="3658.5,-168.5 3658.5,-187.5 3771.5,-187.5 3771.5,-168.5 3658.5,-168.5"/>
<text text-anchor="middle" x="3715" y="-175.5" font-family="Helvetica,sans-Serif" font-size="10.00">cchapterdisplay.cpp</text>
</a>
</g>
</g>
<!-- Node76&#45;&gt;Node77 -->
<g id="edge53" class="edge">
<title>Node76&#45;&gt;Node77</title>
<path fill="none" stroke="midnightblue" d="M3715,-213.8C3715,-204.91 3715,-194.78 3715,-187.75"/>
<polygon fill="midnightblue" stroke="midnightblue" points="3711.5,-214.08 3715,-224.08 3718.5,-214.08 3711.5,-214.08"/>
</g>
</g>
</svg>
        <g id="navigator" transform="translate(0 0)" fill="#404254">
                <rect fill="#f2f5e9" fill-opacity="0.5" stroke="#606060" stroke-width=".5" x="0" y="0" width="60" height="60"/>
                <use id="zoomplus" xlink:href="#zoomPlus" x="17" y="9" onmousedown="handleZoom(evt,'in')"/>
                <use id="zoomminus" xlink:href="#zoomMin" x="42" y="9" onmousedown="handleZoom(evt,'out')"/>
                <use id="reset" xlink:href="#resetDef" x="30" y="36" onmousedown="handleReset()"/>
                <g id="arrowUp" xlink:href="#dirArrow" transform="translate(30 24)" onmousedown="handlePan(0,-1)">
                  <use xlink:href="#rim" fill="#404040">
                        <set attributeName="fill" to="#808080" begin="arrowUp.mouseover" end="arrowUp.mouseout"/>
                  </use>
                  <path fill="none" stroke="white" stroke-width="1.5" d="M0,-3.0v7 M-2.5,-0.5L0,-3.0L2.5,-0.5"/>
                </g>
                <g id="arrowRight" xlink:href="#dirArrow" transform="rotate(90) translate(36 -43)" onmousedown="handlePan(1,0)">
                  <use xlink:href="#rim" fill="#404040">
                        <set attributeName="fill" to="#808080" begin="arrowRight.mouseover" end="arrowRight.mouseout"/>
                  </use>
                  <path fill="none" stroke="white" stroke-width="1.5" d="M0,-3.0v7 M-2.5,-0.5L0,-3.0L2.5,-0.5"/>
                </g>
                <g id="arrowDown" xlink:href="#dirArrow" transform="rotate(180) translate(-30 -48)" onmousedown="handlePan(0,1)">
                  <use xlink:href="#rim" fill="#404040">
                        <set attributeName="fill" to="#808080" begin="arrowDown.mouseover" end="arrowDown.mouseout"/>
                  </use>
                  <path fill="none" stroke="white" stroke-width="1.5" d="M0,-3.0v7 M-2.5,-0.5L0,-3.0L2.5,-0.5"/>
                </g>
                <g id="arrowLeft" xlink:href="#dirArrow" transform="rotate(270) translate(-36 17)" onmousedown="handlePan(-1,0)">
                  <use xlink:href="#rim" fill="#404040">
                        <set attributeName="fill" to="#808080" begin="arrowLeft.mouseover" end="arrowLeft.mouseout"/>
                  </use>
                  <path fill="none" stroke="white" stroke-width="1.5" d="M0,-3.0v7 M-2.5,-0.5L0,-3.0L2.5,-0.5"/>
                </g>
        </g>
        <svg viewBox="0 0 15 15" width="100%" height="30px" preserveAspectRatio="xMaxYMin meet">
         <g id="arrow_out" transform="scale(0.3 0.3)">
          <a xlink:href="centrydisplay_8h__dep__incl_org.svg" target="_base">
           <rect id="button" ry="5" rx="5" y="6" x="6" height="38" width="38"
                fill="#f2f5e9" fill-opacity="0.5" stroke="#606060" stroke-width="1.0"/>
           <path id="arrow"
             d="M 11.500037,31.436501 C 11.940474,20.09759 22.043105,11.32322 32.158766,21.979434 L 37.068811,17.246167 C 37.068811,17.246167 37.088388,32 37.088388,32 L 22.160133,31.978069 C 22.160133,31.978069 26.997745,27.140456 26.997745,27.140456 C 18.528582,18.264221 13.291696,25.230495 11.500037,31.436501 z"
             style="fill:#404040;"/>
          </a>
         </g>
        </svg>
</svg>
