<?xml version="1.0" encoding="UTF-8" standalone="no"?>
<!DOCTYPE svg PUBLIC "-//W3C//DTD SVG 1.1//EN"
 "http://www.w3.org/Graphics/SVG/1.1/DTD/svg11.dtd">
<!-- Generated by graphviz version 2.43.0 (0)
 -->
<!-- Title: Search::CModuleResultView Pages: 1 -->
<svg width="155pt" height="442pt"
 viewBox="0.00 0.00 155.00 442.00" xmlns="http://www.w3.org/2000/svg" xmlns:xlink="http://www.w3.org/1999/xlink">
<g id="graph0" class="graph" transform="scale(1 1) rotate(0) translate(4 438)">
<title>Search::CModuleResultView</title>
<!-- Node1 -->
<g id="Node000001" class="node">
<title>Node1</title>
<g id="a_Node000001"><a xlink:title=" ">
<polygon fill="#999999" stroke="transparent" points="147,-349 0,-349 0,0 147,0 147,-349"/>
<text text-anchor="start" x="5.5" y="-336.5" font-family="Helvetica,sans-Serif" font-size="10.00">Search::CModuleResultView</text>
<text text-anchor="start" x="7.5" y="-321.5" font-family="Helvetica,sans-Serif" font-size="10.00">+</text>
<text text-anchor="start" x="23.5" y="-321.5" font-family="Helvetica,sans-Serif" font-size="10.00">copy</text>
<text text-anchor="start" x="7.5" y="-306.5" font-family="Helvetica,sans-Serif" font-size="10.00">+</text>
<text text-anchor="start" x="23.5" y="-306.5" font-family="Helvetica,sans-Serif" font-size="10.00">copyMenu</text>
<text text-anchor="start" x="7.5" y="-291.5" font-family="Helvetica,sans-Serif" font-size="10.00">+</text>
<text text-anchor="start" x="23.5" y="-291.5" font-family="Helvetica,sans-Serif" font-size="10.00">print</text>
<text text-anchor="start" x="7.5" y="-276.5" font-family="Helvetica,sans-Serif" font-size="10.00">+</text>
<text text-anchor="start" x="23.5" y="-276.5" font-family="Helvetica,sans-Serif" font-size="10.00">printMenu</text>
<text text-anchor="start" x="7.5" y="-261.5" font-family="Helvetica,sans-Serif" font-size="10.00">+</text>
<text text-anchor="start" x="23.5" y="-261.5" font-family="Helvetica,sans-Serif" font-size="10.00">result</text>
<text text-anchor="start" x="7.5" y="-246.5" font-family="Helvetica,sans-Serif" font-size="10.00">+</text>
<text text-anchor="start" x="23.5" y="-246.5" font-family="Helvetica,sans-Serif" font-size="10.00">resultWithText</text>
<text text-anchor="start" x="7.5" y="-231.5" font-family="Helvetica,sans-Serif" font-size="10.00">+</text>
<text text-anchor="start" x="23.5" y="-231.5" font-family="Helvetica,sans-Serif" font-size="10.00">save</text>
<text text-anchor="start" x="7.5" y="-216.5" font-family="Helvetica,sans-Serif" font-size="10.00">+</text>
<text text-anchor="start" x="23.5" y="-216.5" font-family="Helvetica,sans-Serif" font-size="10.00">saveMenu</text>
<text text-anchor="start" x="10" y="-201.5" font-family="Helvetica,sans-Serif" font-size="10.00">&#45;</text>
<text text-anchor="start" x="23.5" y="-201.5" font-family="Helvetica,sans-Serif" font-size="10.00">m_actions</text>
<text text-anchor="start" x="10" y="-186.5" font-family="Helvetica,sans-Serif" font-size="10.00">&#45;</text>
<text text-anchor="start" x="23.5" y="-186.5" font-family="Helvetica,sans-Serif" font-size="10.00">m_popup</text>
<text text-anchor="start" x="10" y="-171.5" font-family="Helvetica,sans-Serif" font-size="10.00">&#45;</text>
<text text-anchor="start" x="23.5" y="-171.5" font-family="Helvetica,sans-Serif" font-size="10.00">m_results</text>
<text text-anchor="start" x="10" y="-156.5" font-family="Helvetica,sans-Serif" font-size="10.00">&#45;</text>
<text text-anchor="start" x="23.5" y="-156.5" font-family="Helvetica,sans-Serif" font-size="10.00">m_size</text>
<text text-anchor="start" x="10" y="-141.5" font-family="Helvetica,sans-Serif" font-size="10.00">&#45;</text>
<text text-anchor="start" x="23.5" y="-141.5" font-family="Helvetica,sans-Serif" font-size="10.00">m_strongsResults</text>
<text text-anchor="start" x="7.5" y="-126.5" font-family="Helvetica,sans-Serif" font-size="10.00">+</text>
<text text-anchor="start" x="23.5" y="-126.5" font-family="Helvetica,sans-Serif" font-size="10.00">activeModule()</text>
<text text-anchor="start" x="7.5" y="-111.5" font-family="Helvetica,sans-Serif" font-size="10.00">+</text>
<text text-anchor="start" x="23.5" y="-111.5" font-family="Helvetica,sans-Serif" font-size="10.00">CModuleResultView()</text>
<text text-anchor="start" x="7.5" y="-96.5" font-family="Helvetica,sans-Serif" font-size="10.00">+</text>
<text text-anchor="start" x="23.5" y="-96.5" font-family="Helvetica,sans-Serif" font-size="10.00">setupTree()</text>
<text text-anchor="start" x="7.5" y="-81.5" font-family="Helvetica,sans-Serif" font-size="10.00">+</text>
<text text-anchor="start" x="23.5" y="-81.5" font-family="Helvetica,sans-Serif" font-size="10.00">sizeHint()</text>
<text text-anchor="start" x="7.5" y="-66.5" font-family="Helvetica,sans-Serif" font-size="10.00">+</text>
<text text-anchor="start" x="23.5" y="-66.5" font-family="Helvetica,sans-Serif" font-size="10.00">~CModuleResultView()</text>
<text text-anchor="start" x="7.5" y="-51.5" font-family="Helvetica,sans-Serif" font-size="10.00">#</text>
<text text-anchor="start" x="23.5" y="-51.5" font-family="Helvetica,sans-Serif" font-size="10.00">initConnections()</text>
<text text-anchor="start" x="7.5" y="-36.5" font-family="Helvetica,sans-Serif" font-size="10.00">#</text>
<text text-anchor="start" x="23.5" y="-36.5" font-family="Helvetica,sans-Serif" font-size="10.00">initView()</text>
<text text-anchor="start" x="7.5" y="-21.5" font-family="Helvetica,sans-Serif" font-size="10.00">#</text>
<text text-anchor="start" x="23.5" y="-21.5" font-family="Helvetica,sans-Serif" font-size="10.00">contextMenuEvent()</text>
<text text-anchor="start" x="7.5" y="-6.5" font-family="Helvetica,sans-Serif" font-size="10.00">#</text>
<text text-anchor="start" x="23.5" y="-6.5" font-family="Helvetica,sans-Serif" font-size="10.00">executed()</text>
<polygon fill="#666666" stroke="#666666" points="0.5,-331.5 0.5,-331.5 147.5,-331.5 147.5,-331.5 0.5,-331.5"/>
<polygon fill="#666666" stroke="#666666" points="0.5,-136.5 0.5,-136.5 21.5,-136.5 21.5,-136.5 0.5,-136.5"/>
<polygon fill="#666666" stroke="#666666" points="21.5,-136.5 21.5,-136.5 147.5,-136.5 147.5,-136.5 21.5,-136.5"/>
<polygon fill="none" stroke="#666666" points="0,0 0,-349 147,-349 147,0 0,0"/>
</a>
</g>
</g>
<!-- Node2 -->
<g id="Node000002" class="node">
<title>Node2</title>
<g id="a_Node000002"><a xlink:href="../../d3/d5f/classQTreeWidget.html" target="_top" xlink:title=" ">
<polygon fill="white" stroke="transparent" points="110,-434 37,-434 37,-385 110,-385 110,-434"/>
<text text-anchor="start" x="42.5" y="-421.5" font-family="Helvetica,sans-Serif" font-size="10.00">QTreeWidget</text>
<text text-anchor="start" x="72" y="-406.5" font-family="Helvetica,sans-Serif" font-size="10.00"> </text>
<text text-anchor="start" x="72" y="-391.5" font-family="Helvetica,sans-Serif" font-size="10.00"> </text>
<polygon fill="#666666" stroke="#666666" points="37.5,-416.5 37.5,-416.5 110.5,-416.5 110.5,-416.5 37.5,-416.5"/>
<polygon fill="#666666" stroke="#666666" points="37.5,-401.5 37.5,-401.5 110.5,-401.5 110.5,-401.5 37.5,-401.5"/>
<polygon fill="none" stroke="#666666" points="37,-385 37,-434 110,-434 110,-385 37,-385"/>
</a>
</g>
</g>
<!-- Node2&#45;&gt;Node1 -->
<g id="edge1_Node000001_Node000002" class="edge">
<title>Node2&#45;&gt;Node1</title>
<g id="a_edge1_Node000001_Node000002"><a xlink:title=" ">
<path fill="none" stroke="#63b8ff" d="M73.5,-374.82C73.5,-367.22 73.5,-358.65 73.5,-349.45"/>
<polygon fill="none" stroke="#63b8ff" points="70,-374.88 73.5,-384.88 77,-374.88 70,-374.88"/>
</a>
</g>
</g>
</g>
</svg>
