<?xml version="1.0" encoding="UTF-8" standalone="no"?>
<!DOCTYPE svg PUBLIC "-//W3C//DTD SVG 1.1//EN"
 "http://www.w3.org/Graphics/SVG/1.1/DTD/svg11.dtd">
<!-- Generated by graphviz version 2.43.0 (0)
 -->
<!-- Title: QDialog Pages: 1 -->
<svg width="2704pt" height="485pt"
 viewBox="0.00 0.00 2704.00 485.00" xmlns="http://www.w3.org/2000/svg" xmlns:xlink="http://www.w3.org/1999/xlink">
<g id="graph0" class="graph" transform="scale(1 1) rotate(0) translate(4 481)">
<title>QDialog</title>
<polygon fill="white" stroke="transparent" points="-4,4 -4,-481 2700,-481 2700,4 -4,4"/>
<!-- Node1 -->
<g id="node1" class="node">
<title>Node1</title>
<g id="a_node1"><a xlink:title=" ">
<polygon fill="#bfbfbf" stroke="black" points="1331.5,-419.5 1331.5,-476.5 1387.5,-476.5 1387.5,-419.5 1331.5,-419.5"/>
<text text-anchor="middle" x="1359.5" y="-464.5" font-family="Helvetica,sans-Serif" font-size="10.00">QDialog</text>
<polyline fill="none" stroke="black" points="1331.5,-457.5 1387.5,-457.5 "/>
<text text-anchor="middle" x="1359.5" y="-445.5" font-family="Helvetica,sans-Serif" font-size="10.00"> </text>
<polyline fill="none" stroke="black" points="1331.5,-438.5 1387.5,-438.5 "/>
<text text-anchor="middle" x="1359.5" y="-426.5" font-family="Helvetica,sans-Serif" font-size="10.00"> </text>
</a>
</g>
</g>
<!-- Node2 -->
<g id="node2" class="node">
<title>Node2</title>
<g id="a_node2"><a xlink:href="../../de/dfc/classBTAboutModuleDialog.html" target="_top" xlink:title=" ">
<polygon fill="white" stroke="black" points="0,-210 0,-300 143,-300 143,-210 0,-210"/>
<text text-anchor="middle" x="71.5" y="-288" font-family="Helvetica,sans-Serif" font-size="10.00">BTAboutModuleDialog</text>
<polyline fill="none" stroke="black" points="0,-281 143,-281 "/>
<text text-anchor="start" x="8" y="-269" font-family="Helvetica,sans-Serif" font-size="10.00">&#45; m_buttons</text>
<text text-anchor="start" x="8" y="-258" font-family="Helvetica,sans-Serif" font-size="10.00">&#45; m_moduleInfo</text>
<text text-anchor="start" x="8" y="-247" font-family="Helvetica,sans-Serif" font-size="10.00">&#45; m_textEdit</text>
<polyline fill="none" stroke="black" points="0,-240 143,-240 "/>
<text text-anchor="start" x="8" y="-228" font-family="Helvetica,sans-Serif" font-size="10.00">+ BTAboutModuleDialog()</text>
<text text-anchor="start" x="8" y="-217" font-family="Helvetica,sans-Serif" font-size="10.00"># retranslateUi()</text>
</a>
</g>
</g>
<!-- Node1&#45;&gt;Node2 -->
<g id="edge1" class="edge">
<title>Node1&#45;&gt;Node2</title>
<path fill="none" stroke="midnightblue" d="M1321.28,-447.05C1127.04,-447 254.43,-443.42 151.5,-383 120.38,-364.73 99.51,-329.06 86.92,-300.16"/>
<polygon fill="none" stroke="midnightblue" points="1321.31,-450.55 1331.31,-447.04 1321.31,-443.55 1321.31,-450.55"/>
</g>
<!-- Node3 -->
<g id="node3" class="node">
<title>Node3</title>
<g id="a_node3"><a xlink:href="../../d4/d24/classBtAboutDialog.html" target="_top" xlink:title=" ">
<polygon fill="white" stroke="black" points="161,-144 161,-366 322,-366 322,-144 161,-144"/>
<text text-anchor="middle" x="241.5" y="-354" font-family="Helvetica,sans-Serif" font-size="10.00">BtAboutDialog</text>
<polyline fill="none" stroke="black" points="161,-347 322,-347 "/>
<text text-anchor="start" x="169" y="-335" font-family="Helvetica,sans-Serif" font-size="10.00">&#45; m_bibletimeTab</text>
<text text-anchor="start" x="169" y="-324" font-family="Helvetica,sans-Serif" font-size="10.00">&#45; m_buttonBox</text>
<text text-anchor="start" x="169" y="-313" font-family="Helvetica,sans-Serif" font-size="10.00">&#45; m_contributorsTab</text>
<text text-anchor="start" x="169" y="-302" font-family="Helvetica,sans-Serif" font-size="10.00">&#45; m_iconLabel</text>
<text text-anchor="start" x="169" y="-291" font-family="Helvetica,sans-Serif" font-size="10.00">&#45; m_licenseTab</text>
<text text-anchor="start" x="169" y="-280" font-family="Helvetica,sans-Serif" font-size="10.00">&#45; m_qtTab</text>
<text text-anchor="start" x="169" y="-269" font-family="Helvetica,sans-Serif" font-size="10.00">&#45; m_swordTab</text>
<text text-anchor="start" x="169" y="-258" font-family="Helvetica,sans-Serif" font-size="10.00">&#45; m_tabWidget</text>
<text text-anchor="start" x="169" y="-247" font-family="Helvetica,sans-Serif" font-size="10.00">&#45; m_versionLabel</text>
<polyline fill="none" stroke="black" points="161,-240 322,-240 "/>
<text text-anchor="start" x="169" y="-228" font-family="Helvetica,sans-Serif" font-size="10.00">+ BtAboutDialog()</text>
<text text-anchor="start" x="169" y="-217" font-family="Helvetica,sans-Serif" font-size="10.00"># resizeEvent()</text>
<text text-anchor="start" x="169" y="-206" font-family="Helvetica,sans-Serif" font-size="10.00">&#45; retranslateBtTab()</text>
<text text-anchor="start" x="169" y="-195" font-family="Helvetica,sans-Serif" font-size="10.00">&#45; retranslateContributorsTab()</text>
<text text-anchor="start" x="169" y="-184" font-family="Helvetica,sans-Serif" font-size="10.00">&#45; retranslateLicenceTab()</text>
<text text-anchor="start" x="169" y="-173" font-family="Helvetica,sans-Serif" font-size="10.00">&#45; retranslateQtTab()</text>
<text text-anchor="start" x="169" y="-162" font-family="Helvetica,sans-Serif" font-size="10.00">&#45; retranslateSwordTab()</text>
<text text-anchor="start" x="169" y="-151" font-family="Helvetica,sans-Serif" font-size="10.00">&#45; retranslateUi()</text>
</a>
</g>
</g>
<!-- Node1&#45;&gt;Node3 -->
<g id="edge2" class="edge">
<title>Node1&#45;&gt;Node3</title>
<path fill="none" stroke="midnightblue" d="M1321.24,-446.57C1145.25,-444.34 418.24,-432.18 330.5,-383 322.28,-378.39 314.64,-372.67 307.59,-366.23"/>
<polygon fill="none" stroke="midnightblue" points="1321.29,-450.07 1331.33,-446.7 1321.37,-443.07 1321.29,-450.07"/>
</g>
<!-- Node4 -->
<g id="node4" class="node">
<title>Node4</title>
<g id="a_node4"><a xlink:href="../../d6/d10/classBtConfigDialog.html" target="_top" xlink:title=" ">
<polygon fill="white" stroke="black" points="340,-204.5 340,-305.5 451,-305.5 451,-204.5 340,-204.5"/>
<text text-anchor="middle" x="395.5" y="-293.5" font-family="Helvetica,sans-Serif" font-size="10.00">BtConfigDialog</text>
<polyline fill="none" stroke="black" points="340,-286.5 451,-286.5 "/>
<text text-anchor="start" x="348" y="-274.5" font-family="Helvetica,sans-Serif" font-size="10.00">&#45; m_contentsList</text>
<text text-anchor="start" x="348" y="-263.5" font-family="Helvetica,sans-Serif" font-size="10.00">&#45; m_maxItemWidth</text>
<text text-anchor="start" x="348" y="-252.5" font-family="Helvetica,sans-Serif" font-size="10.00">&#45; m_pageWidget</text>
<polyline fill="none" stroke="black" points="340,-245.5 451,-245.5 "/>
<text text-anchor="start" x="348" y="-233.5" font-family="Helvetica,sans-Serif" font-size="10.00">+ addPage()</text>
<text text-anchor="start" x="348" y="-222.5" font-family="Helvetica,sans-Serif" font-size="10.00">+ BtConfigDialog()</text>
<text text-anchor="start" x="348" y="-211.5" font-family="Helvetica,sans-Serif" font-size="10.00">+ save()</text>
</a>
</g>
</g>
<!-- Node1&#45;&gt;Node4 -->
<g id="edge3" class="edge">
<title>Node1&#45;&gt;Node4</title>
<path fill="none" stroke="midnightblue" d="M1320.83,-446.46C1157.99,-443.9 533.06,-431 460.5,-383 433.85,-365.37 417.55,-333.26 407.94,-305.74"/>
<polygon fill="none" stroke="midnightblue" points="1321.26,-449.97 1331.31,-446.62 1321.37,-442.97 1321.26,-449.97"/>
</g>
<!-- Node6 -->
<g id="node6" class="node">
<title>Node6</title>
<g id="a_node6"><a xlink:href="../../db/d1e/classBtCopyByReferencesDialog.html" target="_top" xlink:title=" ">
<polygon fill="white" stroke="black" points="469.5,-166 469.5,-344 639.5,-344 639.5,-166 469.5,-166"/>
<text text-anchor="middle" x="554.5" y="-332" font-family="Helvetica,sans-Serif" font-size="10.00">BtCopyByReferencesDialog</text>
<polyline fill="none" stroke="black" points="469.5,-325 639.5,-325 "/>
<text text-anchor="start" x="477.5" y="-313" font-family="Helvetica,sans-Serif" font-size="10.00">&#45; m_buttonBox</text>
<text text-anchor="start" x="477.5" y="-302" font-family="Helvetica,sans-Serif" font-size="10.00">&#45; m_firstKeyChooser</text>
<text text-anchor="start" x="477.5" y="-291" font-family="Helvetica,sans-Serif" font-size="10.00">&#45; m_firstKeyLabel</text>
<text text-anchor="start" x="477.5" y="-280" font-family="Helvetica,sans-Serif" font-size="10.00">&#45; m_lastKeyChooser</text>
<text text-anchor="start" x="477.5" y="-269" font-family="Helvetica,sans-Serif" font-size="10.00">&#45; m_lastKeyLabel</text>
<text text-anchor="start" x="477.5" y="-258" font-family="Helvetica,sans-Serif" font-size="10.00">&#45; m_result</text>
<text text-anchor="start" x="477.5" y="-247" font-family="Helvetica,sans-Serif" font-size="10.00">&#45; m_sizeTooLargeLabel</text>
<text text-anchor="start" x="477.5" y="-236" font-family="Helvetica,sans-Serif" font-size="10.00">&#45; m_workCombo</text>
<text text-anchor="start" x="477.5" y="-225" font-family="Helvetica,sans-Serif" font-size="10.00">&#45; m_workLabel</text>
<polyline fill="none" stroke="black" points="469.5,-218 639.5,-218 "/>
<text text-anchor="start" x="477.5" y="-206" font-family="Helvetica,sans-Serif" font-size="10.00">+ BtCopyByReferencesDialog()</text>
<text text-anchor="start" x="477.5" y="-195" font-family="Helvetica,sans-Serif" font-size="10.00">+ result()</text>
<text text-anchor="start" x="477.5" y="-184" font-family="Helvetica,sans-Serif" font-size="10.00">&#45; resetThreshold()</text>
<text text-anchor="start" x="477.5" y="-173" font-family="Helvetica,sans-Serif" font-size="10.00">&#45; retranslateUi()</text>
</a>
</g>
</g>
<!-- Node1&#45;&gt;Node6 -->
<g id="edge5" class="edge">
<title>Node1&#45;&gt;Node6</title>
<path fill="none" stroke="midnightblue" d="M1320.83,-447.61C1189.91,-449.04 765.04,-448.45 648.5,-383 631.52,-373.46 616.73,-359.45 604.21,-344.17"/>
<polygon fill="none" stroke="midnightblue" points="1321.2,-451.1 1331.16,-447.48 1321.12,-444.1 1321.2,-451.1"/>
</g>
<!-- Node7 -->
<g id="node7" class="node">
<title>Node7</title>
<g id="a_node7"><a xlink:href="../../dd/d5f/classBtEditBookmarkDialog.html" target="_top" xlink:title="A dialog box for editing bookmarks.">
<polygon fill="white" stroke="black" points="657.5,-171.5 657.5,-338.5 803.5,-338.5 803.5,-171.5 657.5,-171.5"/>
<text text-anchor="middle" x="730.5" y="-326.5" font-family="Helvetica,sans-Serif" font-size="10.00">BtEditBookmarkDialog</text>
<polyline fill="none" stroke="black" points="657.5,-319.5 803.5,-319.5 "/>
<text text-anchor="start" x="665.5" y="-307.5" font-family="Helvetica,sans-Serif" font-size="10.00">&#45; m_buttonBox</text>
<text text-anchor="start" x="665.5" y="-296.5" font-family="Helvetica,sans-Serif" font-size="10.00">&#45; m_descriptionEdit</text>
<text text-anchor="start" x="665.5" y="-285.5" font-family="Helvetica,sans-Serif" font-size="10.00">&#45; m_descriptionLabel</text>
<text text-anchor="start" x="665.5" y="-274.5" font-family="Helvetica,sans-Serif" font-size="10.00">&#45; m_keyLabel</text>
<text text-anchor="start" x="665.5" y="-263.5" font-family="Helvetica,sans-Serif" font-size="10.00">&#45; m_keyTextLabel</text>
<text text-anchor="start" x="665.5" y="-252.5" font-family="Helvetica,sans-Serif" font-size="10.00">&#45; m_layout</text>
<text text-anchor="start" x="665.5" y="-241.5" font-family="Helvetica,sans-Serif" font-size="10.00">&#45; m_titleEdit</text>
<text text-anchor="start" x="665.5" y="-230.5" font-family="Helvetica,sans-Serif" font-size="10.00">&#45; m_titleLabel</text>
<polyline fill="none" stroke="black" points="657.5,-223.5 803.5,-223.5 "/>
<text text-anchor="start" x="665.5" y="-211.5" font-family="Helvetica,sans-Serif" font-size="10.00">+ BtEditBookmarkDialog()</text>
<text text-anchor="start" x="665.5" y="-200.5" font-family="Helvetica,sans-Serif" font-size="10.00">+ descriptionText()</text>
<text text-anchor="start" x="665.5" y="-189.5" font-family="Helvetica,sans-Serif" font-size="10.00">+ titleText()</text>
<text text-anchor="start" x="665.5" y="-178.5" font-family="Helvetica,sans-Serif" font-size="10.00"># retranslateUi()</text>
</a>
</g>
</g>
<!-- Node1&#45;&gt;Node7 -->
<g id="edge6" class="edge">
<title>Node1&#45;&gt;Node7</title>
<path fill="none" stroke="midnightblue" d="M1321.13,-446.68C1211.23,-445.14 897.72,-436.07 812.5,-383 795.01,-372.11 780.54,-355.96 768.87,-338.79"/>
<polygon fill="none" stroke="midnightblue" points="1321.37,-450.19 1331.41,-446.81 1321.46,-443.19 1321.37,-450.19"/>
</g>
<!-- Node8 -->
<g id="node8" class="node">
<title>Node8</title>
<g id="a_node8"><a xlink:href="../../d6/dbe/classBtIndexDialog.html" target="_top" xlink:title=" ">
<polygon fill="white" stroke="black" points="822,-155 822,-355 1015,-355 1015,-155 822,-155"/>
<text text-anchor="middle" x="918.5" y="-343" font-family="Helvetica,sans-Serif" font-size="10.00">BtIndexDialog</text>
<polyline fill="none" stroke="black" points="822,-336 1015,-336 "/>
<text text-anchor="start" x="830" y="-324" font-family="Helvetica,sans-Serif" font-size="10.00">&#45; m_autoDeleteOrphanedIndicesBox</text>
<text text-anchor="start" x="830" y="-313" font-family="Helvetica,sans-Serif" font-size="10.00">&#45; m_closeButton</text>
<text text-anchor="start" x="830" y="-302" font-family="Helvetica,sans-Serif" font-size="10.00">&#45; m_createButton</text>
<text text-anchor="start" x="830" y="-291" font-family="Helvetica,sans-Serif" font-size="10.00">&#45; m_deleteButton</text>
<text text-anchor="start" x="830" y="-280" font-family="Helvetica,sans-Serif" font-size="10.00">&#45; m_modsWithIndices</text>
<text text-anchor="start" x="830" y="-269" font-family="Helvetica,sans-Serif" font-size="10.00">&#45; m_modsWithoutIndices</text>
<text text-anchor="start" x="830" y="-258" font-family="Helvetica,sans-Serif" font-size="10.00">&#45; m_moduleList</text>
<polyline fill="none" stroke="black" points="822,-251 1015,-251 "/>
<text text-anchor="start" x="830" y="-239" font-family="Helvetica,sans-Serif" font-size="10.00">+ BtIndexDialog()</text>
<text text-anchor="start" x="830" y="-228" font-family="Helvetica,sans-Serif" font-size="10.00">&#45; populateModuleList()</text>
<text text-anchor="start" x="830" y="-217" font-family="Helvetica,sans-Serif" font-size="10.00">&#45; retranslateUi()</text>
<text text-anchor="start" x="830" y="-206" font-family="Helvetica,sans-Serif" font-size="10.00">&#45; autoDeleteOrphanedIndices</text>
<text text-anchor="start" x="830" y="-195" font-family="Helvetica,sans-Serif" font-size="10.00">Changed()</text>
<text text-anchor="start" x="830" y="-184" font-family="Helvetica,sans-Serif" font-size="10.00">&#45; createIndices()</text>
<text text-anchor="start" x="830" y="-173" font-family="Helvetica,sans-Serif" font-size="10.00">&#45; deleteIndices()</text>
<text text-anchor="start" x="830" y="-162" font-family="Helvetica,sans-Serif" font-size="10.00">&#45; slotSwordSetupChanged()</text>
</a>
</g>
</g>
<!-- Node1&#45;&gt;Node8 -->
<g id="edge7" class="edge">
<title>Node1&#45;&gt;Node8</title>
<path fill="none" stroke="midnightblue" d="M1320.99,-447.8C1255.49,-447.48 1120.21,-439.34 1024.5,-383 1011.75,-375.5 999.85,-365.87 988.96,-355.29"/>
<polygon fill="none" stroke="midnightblue" points="1321.27,-451.3 1331.26,-447.79 1321.26,-444.3 1321.27,-451.3"/>
</g>
<!-- Node9 -->
<g id="node9" class="node">
<title>Node9</title>
<g id="a_node9"><a xlink:href="../../d1/d1e/classBtMessageInputDialog.html" target="_top" xlink:title="The BtMessageInputDialog class provides a editable field for user input. Optionally it displays a lar...">
<polygon fill="white" stroke="black" points="1033.5,-221 1033.5,-289 1179.5,-289 1179.5,-221 1033.5,-221"/>
<text text-anchor="middle" x="1106.5" y="-277" font-family="Helvetica,sans-Serif" font-size="10.00">BtMessageInputDialog</text>
<polyline fill="none" stroke="black" points="1033.5,-270 1179.5,-270 "/>
<text text-anchor="start" x="1041.5" y="-258" font-family="Helvetica,sans-Serif" font-size="10.00">&#45; m_inputTextEdit</text>
<polyline fill="none" stroke="black" points="1033.5,-251 1179.5,-251 "/>
<text text-anchor="start" x="1041.5" y="-239" font-family="Helvetica,sans-Serif" font-size="10.00">+ BtMessageInputDialog()</text>
<text text-anchor="start" x="1041.5" y="-228" font-family="Helvetica,sans-Serif" font-size="10.00">+ getUserInput()</text>
</a>
</g>
</g>
<!-- Node1&#45;&gt;Node9 -->
<g id="edge8" class="edge">
<title>Node1&#45;&gt;Node9</title>
<path fill="none" stroke="midnightblue" d="M1321.34,-439.84C1284.43,-431.37 1228.51,-414.29 1189.5,-383 1158.17,-357.87 1134.71,-317.61 1120.87,-289.17"/>
<polygon fill="none" stroke="midnightblue" points="1320.69,-443.29 1331.21,-442.01 1322.19,-436.45 1320.69,-443.29"/>
</g>
<!-- Node10 -->
<g id="node10" class="node">
<title>Node10</title>
<g id="a_node10"><a xlink:href="../../da/d6d/classBtModuleChooserDialog.html" target="_top" xlink:title=" ">
<polygon fill="white" stroke="black" points="1198,-193.5 1198,-316.5 1351,-316.5 1351,-193.5 1198,-193.5"/>
<text text-anchor="middle" x="1274.5" y="-304.5" font-family="Helvetica,sans-Serif" font-size="10.00">BtModuleChooserDialog</text>
<polyline fill="none" stroke="black" points="1198,-297.5 1351,-297.5 "/>
<text text-anchor="start" x="1206" y="-285.5" font-family="Helvetica,sans-Serif" font-size="10.00">&#45; m_bookshelfWidget</text>
<text text-anchor="start" x="1206" y="-274.5" font-family="Helvetica,sans-Serif" font-size="10.00">&#45; m_buttonBox</text>
<text text-anchor="start" x="1206" y="-263.5" font-family="Helvetica,sans-Serif" font-size="10.00">&#45; m_captionLabel</text>
<polyline fill="none" stroke="black" points="1198,-256.5 1351,-256.5 "/>
<text text-anchor="start" x="1206" y="-244.5" font-family="Helvetica,sans-Serif" font-size="10.00"># bookshelfWidget()</text>
<text text-anchor="start" x="1206" y="-233.5" font-family="Helvetica,sans-Serif" font-size="10.00"># BtModuleChooserDialog()</text>
<text text-anchor="start" x="1206" y="-222.5" font-family="Helvetica,sans-Serif" font-size="10.00"># buttonBox()</text>
<text text-anchor="start" x="1206" y="-211.5" font-family="Helvetica,sans-Serif" font-size="10.00"># label()</text>
<text text-anchor="start" x="1206" y="-200.5" font-family="Helvetica,sans-Serif" font-size="10.00"># retranslateUi()</text>
</a>
</g>
</g>
<!-- Node1&#45;&gt;Node10 -->
<g id="edge9" class="edge">
<title>Node1&#45;&gt;Node10</title>
<path fill="none" stroke="midnightblue" d="M1343.01,-409.94C1331.22,-383.45 1315.09,-347.21 1301.45,-316.55"/>
<polygon fill="none" stroke="midnightblue" points="1339.88,-411.51 1347.14,-419.23 1346.27,-408.67 1339.88,-411.51"/>
</g>
<!-- Node12 -->
<g id="node12" class="node">
<title>Node12</title>
<g id="a_node12"><a xlink:href="../../d7/df7/classBtShortcutsDialog.html" target="_top" xlink:title=" ">
<polygon fill="white" stroke="black" points="1369,-171.5 1369,-338.5 1522,-338.5 1522,-171.5 1369,-171.5"/>
<text text-anchor="middle" x="1445.5" y="-326.5" font-family="Helvetica,sans-Serif" font-size="10.00">BtShortcutsDialog</text>
<polyline fill="none" stroke="black" points="1369,-319.5 1522,-319.5 "/>
<text text-anchor="start" x="1377" y="-307.5" font-family="Helvetica,sans-Serif" font-size="10.00">&#45; m_alternateButton</text>
<text text-anchor="start" x="1377" y="-296.5" font-family="Helvetica,sans-Serif" font-size="10.00">&#45; m_alternateLabel</text>
<text text-anchor="start" x="1377" y="-285.5" font-family="Helvetica,sans-Serif" font-size="10.00">&#45; m_primaryButton</text>
<text text-anchor="start" x="1377" y="-274.5" font-family="Helvetica,sans-Serif" font-size="10.00">&#45; m_primaryLabel</text>
<polyline fill="none" stroke="black" points="1369,-267.5 1522,-267.5 "/>
<text text-anchor="start" x="1377" y="-255.5" font-family="Helvetica,sans-Serif" font-size="10.00">+ BtShortcutsDialog()</text>
<text text-anchor="start" x="1377" y="-244.5" font-family="Helvetica,sans-Serif" font-size="10.00">+ changeSelectedShortcut()</text>
<text text-anchor="start" x="1377" y="-233.5" font-family="Helvetica,sans-Serif" font-size="10.00">+ getFirstKeys()</text>
<text text-anchor="start" x="1377" y="-222.5" font-family="Helvetica,sans-Serif" font-size="10.00">+ getSecondKeys()</text>
<text text-anchor="start" x="1377" y="-211.5" font-family="Helvetica,sans-Serif" font-size="10.00">+ setFirstKeys()</text>
<text text-anchor="start" x="1377" y="-200.5" font-family="Helvetica,sans-Serif" font-size="10.00">+ setSecondKeys()</text>
<text text-anchor="start" x="1377" y="-189.5" font-family="Helvetica,sans-Serif" font-size="10.00"># keyReleaseEvent()</text>
<text text-anchor="start" x="1377" y="-178.5" font-family="Helvetica,sans-Serif" font-size="10.00">&#45; retranslateUi()</text>
</a>
</g>
</g>
<!-- Node1&#45;&gt;Node12 -->
<g id="edge11" class="edge">
<title>Node1&#45;&gt;Node12</title>
<path fill="none" stroke="midnightblue" d="M1376.14,-410.04C1385.28,-389.74 1397.01,-363.68 1408.22,-338.8"/>
<polygon fill="none" stroke="midnightblue" points="1372.92,-408.67 1372.01,-419.23 1379.3,-411.55 1372.92,-408.67"/>
</g>
<!-- Node13 -->
<g id="node13" class="node">
<title>Node13</title>
<g id="a_node13"><a xlink:href="../../d0/d31/classBtTipDialog.html" target="_top" xlink:title=" ">
<polygon fill="white" stroke="black" points="1540,-193.5 1540,-316.5 1673,-316.5 1673,-193.5 1540,-193.5"/>
<text text-anchor="middle" x="1606.5" y="-304.5" font-family="Helvetica,sans-Serif" font-size="10.00">BtTipDialog</text>
<polyline fill="none" stroke="black" points="1540,-297.5 1673,-297.5 "/>
<text text-anchor="start" x="1548" y="-285.5" font-family="Helvetica,sans-Serif" font-size="10.00">&#45; m_buttonBox</text>
<text text-anchor="start" x="1548" y="-274.5" font-family="Helvetica,sans-Serif" font-size="10.00">&#45; m_showTipsCheckBox</text>
<text text-anchor="start" x="1548" y="-263.5" font-family="Helvetica,sans-Serif" font-size="10.00">&#45; m_tipNumber</text>
<text text-anchor="start" x="1548" y="-252.5" font-family="Helvetica,sans-Serif" font-size="10.00">&#45; m_tips</text>
<text text-anchor="start" x="1548" y="-241.5" font-family="Helvetica,sans-Serif" font-size="10.00">&#45; m_tipView</text>
<polyline fill="none" stroke="black" points="1540,-234.5 1673,-234.5 "/>
<text text-anchor="start" x="1548" y="-222.5" font-family="Helvetica,sans-Serif" font-size="10.00">+ BtTipDialog()</text>
<text text-anchor="start" x="1548" y="-211.5" font-family="Helvetica,sans-Serif" font-size="10.00">&#45; displayTip()</text>
<text text-anchor="start" x="1548" y="-200.5" font-family="Helvetica,sans-Serif" font-size="10.00">&#45; retranslateUi()</text>
</a>
</g>
</g>
<!-- Node1&#45;&gt;Node13 -->
<g id="edge12" class="edge">
<title>Node1&#45;&gt;Node13</title>
<path fill="none" stroke="midnightblue" d="M1397.78,-440.48C1435.35,-432.43 1492.53,-415.61 1531.5,-383 1552.61,-365.33 1569.22,-340.11 1581.38,-316.79"/>
<polygon fill="none" stroke="midnightblue" points="1396.84,-437.1 1387.73,-442.52 1398.23,-443.96 1396.84,-437.1"/>
</g>
<!-- Node14 -->
<g id="node14" class="node">
<title>Node14</title>
<g id="a_node14"><a xlink:href="../../d6/dc0/classBtWelcomeDialog.html" target="_top" xlink:title=" ">
<polygon fill="white" stroke="black" points="1691.5,-199 1691.5,-311 1813.5,-311 1813.5,-199 1691.5,-199"/>
<text text-anchor="middle" x="1752.5" y="-299" font-family="Helvetica,sans-Serif" font-size="10.00">BtWelcomeDialog</text>
<polyline fill="none" stroke="black" points="1691.5,-292 1813.5,-292 "/>
<text text-anchor="start" x="1699.5" y="-280" font-family="Helvetica,sans-Serif" font-size="10.00">&#45; m_buttonBox</text>
<text text-anchor="start" x="1699.5" y="-269" font-family="Helvetica,sans-Serif" font-size="10.00">&#45; m_iconLabel</text>
<text text-anchor="start" x="1699.5" y="-258" font-family="Helvetica,sans-Serif" font-size="10.00">&#45; m_installButton</text>
<text text-anchor="start" x="1699.5" y="-247" font-family="Helvetica,sans-Serif" font-size="10.00">&#45; m_label</text>
<text text-anchor="start" x="1699.5" y="-236" font-family="Helvetica,sans-Serif" font-size="10.00">&#45; m_laterButton</text>
<polyline fill="none" stroke="black" points="1691.5,-229 1813.5,-229 "/>
<text text-anchor="start" x="1699.5" y="-217" font-family="Helvetica,sans-Serif" font-size="10.00">+ BtWelcomeDialog()</text>
<text text-anchor="start" x="1699.5" y="-206" font-family="Helvetica,sans-Serif" font-size="10.00"># retranslateUi()</text>
</a>
</g>
</g>
<!-- Node1&#45;&gt;Node14 -->
<g id="edge13" class="edge">
<title>Node1&#45;&gt;Node14</title>
<path fill="none" stroke="midnightblue" d="M1397.75,-443.47C1473.12,-435.88 1637.43,-415.95 1682.5,-383 1706.58,-365.39 1723.37,-336.87 1734.45,-311.32"/>
<polygon fill="none" stroke="midnightblue" points="1397.33,-439.99 1387.73,-444.46 1398.02,-446.96 1397.33,-439.99"/>
</g>
<!-- Node15 -->
<g id="node15" class="node">
<title>Node15</title>
<g id="a_node15"><a xlink:href="../../d6/d1c/classCSwordSetupInstallSourcesDialog.html" target="_top" xlink:title=" ">
<polygon fill="white" stroke="black" points="1832,-177 1832,-333 1993,-333 1993,-177 1832,-177"/>
<text text-anchor="start" x="1840" y="-321" font-family="Helvetica,sans-Serif" font-size="10.00">CSwordSetupInstallSources</text>
<text text-anchor="middle" x="1912.5" y="-310" font-family="Helvetica,sans-Serif" font-size="10.00">Dialog</text>
<polyline fill="none" stroke="black" points="1832,-303 1993,-303 "/>
<text text-anchor="start" x="1840" y="-291" font-family="Helvetica,sans-Serif" font-size="10.00">&#45; m_captionEdit</text>
<text text-anchor="start" x="1840" y="-280" font-family="Helvetica,sans-Serif" font-size="10.00">&#45; m_pathEdit</text>
<text text-anchor="start" x="1840" y="-269" font-family="Helvetica,sans-Serif" font-size="10.00">&#45; m_protocolCombo</text>
<text text-anchor="start" x="1840" y="-258" font-family="Helvetica,sans-Serif" font-size="10.00">&#45; m_remoteListAdded</text>
<text text-anchor="start" x="1840" y="-247" font-family="Helvetica,sans-Serif" font-size="10.00">&#45; m_serverEdit</text>
<text text-anchor="start" x="1840" y="-236" font-family="Helvetica,sans-Serif" font-size="10.00">&#45; m_serverLabel</text>
<polyline fill="none" stroke="black" points="1832,-229 1993,-229 "/>
<text text-anchor="start" x="1840" y="-217" font-family="Helvetica,sans-Serif" font-size="10.00">+ CSwordSetupInstallSources</text>
<text text-anchor="start" x="1840" y="-206" font-family="Helvetica,sans-Serif" font-size="10.00">Dialog()</text>
<text text-anchor="start" x="1840" y="-195" font-family="Helvetica,sans-Serif" font-size="10.00">+ getSource()</text>
<text text-anchor="start" x="1840" y="-184" font-family="Helvetica,sans-Serif" font-size="10.00">+ wasRemoteListAdded()</text>
</a>
</g>
</g>
<!-- Node1&#45;&gt;Node15 -->
<g id="edge14" class="edge">
<title>Node1&#45;&gt;Node15</title>
<path fill="none" stroke="midnightblue" d="M1397.76,-445.58C1495.41,-441.35 1751.15,-426.34 1822.5,-383 1842.59,-370.8 1859.43,-352.22 1872.89,-333.01"/>
<polygon fill="none" stroke="midnightblue" points="1397.58,-442.08 1387.74,-446 1397.87,-449.08 1397.58,-442.08"/>
</g>
<!-- Node16 -->
<g id="node16" class="node">
<title>Node16</title>
<g id="a_node16"><a xlink:href="../../dc/d73/classSearch_1_1BtSearchSyntaxHelpDialog.html" target="_top" xlink:title=" ">
<polygon fill="white" stroke="black" points="2011,-210 2011,-300 2178,-300 2178,-210 2011,-210"/>
<text text-anchor="start" x="2019" y="-288" font-family="Helvetica,sans-Serif" font-size="10.00">Search::BtSearchSyntaxHelp</text>
<text text-anchor="middle" x="2094.5" y="-277" font-family="Helvetica,sans-Serif" font-size="10.00">Dialog</text>
<polyline fill="none" stroke="black" points="2011,-270 2178,-270 "/>
<text text-anchor="start" x="2019" y="-258" font-family="Helvetica,sans-Serif" font-size="10.00">&#45; m_buttons</text>
<text text-anchor="start" x="2019" y="-247" font-family="Helvetica,sans-Serif" font-size="10.00">&#45; m_textBrowser</text>
<polyline fill="none" stroke="black" points="2011,-240 2178,-240 "/>
<text text-anchor="start" x="2019" y="-228" font-family="Helvetica,sans-Serif" font-size="10.00">+ BtSearchSyntaxHelpDialog()</text>
<text text-anchor="start" x="2019" y="-217" font-family="Helvetica,sans-Serif" font-size="10.00"># retranslateUi()</text>
</a>
</g>
</g>
<!-- Node1&#45;&gt;Node16 -->
<g id="edge15" class="edge">
<title>Node1&#45;&gt;Node16</title>
<path fill="none" stroke="midnightblue" d="M1397.73,-447.23C1519.84,-447.34 1898.53,-442.74 2002.5,-383 2035.08,-364.28 2059.27,-328.84 2074.64,-300.14"/>
<polygon fill="none" stroke="midnightblue" points="1397.73,-443.73 1387.72,-447.21 1397.72,-450.73 1397.73,-443.73"/>
</g>
<!-- Node17 -->
<g id="node17" class="node">
<title>Node17</title>
<g id="a_node17"><a xlink:href="../../d6/d04/classSearch_1_1CRangeChooserDialog.html" target="_top" xlink:title=" ">
<polygon fill="white" stroke="black" points="2196.5,-127.5 2196.5,-382.5 2360.5,-382.5 2360.5,-127.5 2196.5,-127.5"/>
<text text-anchor="middle" x="2278.5" y="-370.5" font-family="Helvetica,sans-Serif" font-size="10.00">Search::CRangeChooserDialog</text>
<polyline fill="none" stroke="black" points="2196.5,-363.5 2360.5,-363.5 "/>
<text text-anchor="start" x="2204.5" y="-351.5" font-family="Helvetica,sans-Serif" font-size="10.00">&#45; m_buttonBox</text>
<text text-anchor="start" x="2204.5" y="-340.5" font-family="Helvetica,sans-Serif" font-size="10.00">&#45; m_deleteRangeButton</text>
<text text-anchor="start" x="2204.5" y="-329.5" font-family="Helvetica,sans-Serif" font-size="10.00">&#45; m_nameEdit</text>
<text text-anchor="start" x="2204.5" y="-318.5" font-family="Helvetica,sans-Serif" font-size="10.00">&#45; m_nameEditLabel</text>
<text text-anchor="start" x="2204.5" y="-307.5" font-family="Helvetica,sans-Serif" font-size="10.00">&#45; m_newRangeButton</text>
<text text-anchor="start" x="2204.5" y="-296.5" font-family="Helvetica,sans-Serif" font-size="10.00">&#45; m_rangeEdit</text>
<text text-anchor="start" x="2204.5" y="-285.5" font-family="Helvetica,sans-Serif" font-size="10.00">&#45; m_rangeEditLabel</text>
<text text-anchor="start" x="2204.5" y="-274.5" font-family="Helvetica,sans-Serif" font-size="10.00">&#45; m_rangeList</text>
<text text-anchor="start" x="2204.5" y="-263.5" font-family="Helvetica,sans-Serif" font-size="10.00">&#45; m_rangeListLabel</text>
<text text-anchor="start" x="2204.5" y="-252.5" font-family="Helvetica,sans-Serif" font-size="10.00">&#45; m_resultList</text>
<text text-anchor="start" x="2204.5" y="-241.5" font-family="Helvetica,sans-Serif" font-size="10.00">&#45; m_resultListLabel</text>
<text text-anchor="start" x="2204.5" y="-230.5" font-family="Helvetica,sans-Serif" font-size="10.00">&#45; m_scopeModules</text>
<polyline fill="none" stroke="black" points="2196.5,-223.5 2360.5,-223.5 "/>
<text text-anchor="start" x="2204.5" y="-211.5" font-family="Helvetica,sans-Serif" font-size="10.00">+ accept()</text>
<text text-anchor="start" x="2204.5" y="-200.5" font-family="Helvetica,sans-Serif" font-size="10.00">+ CRangeChooserDialog()</text>
<text text-anchor="start" x="2204.5" y="-189.5" font-family="Helvetica,sans-Serif" font-size="10.00">&#45; initConnections()</text>
<text text-anchor="start" x="2204.5" y="-178.5" font-family="Helvetica,sans-Serif" font-size="10.00">&#45; initView()</text>
<text text-anchor="start" x="2204.5" y="-167.5" font-family="Helvetica,sans-Serif" font-size="10.00">&#45; resetEditControls()</text>
<text text-anchor="start" x="2204.5" y="-156.5" font-family="Helvetica,sans-Serif" font-size="10.00">&#45; retranslateUi()</text>
<text text-anchor="start" x="2204.5" y="-145.5" font-family="Helvetica,sans-Serif" font-size="10.00">&#45; saveCurrentToRange()</text>
<text text-anchor="start" x="2204.5" y="-134.5" font-family="Helvetica,sans-Serif" font-size="10.00">&#45; nameEditTextChanged()</text>
</a>
</g>
</g>
<!-- Node1&#45;&gt;Node17 -->
<g id="edge16" class="edge">
<title>Node1&#45;&gt;Node17</title>
<path fill="none" stroke="midnightblue" d="M1397.92,-445.93C1551.72,-441.38 2118.12,-422.09 2187.5,-383 2190.57,-381.27 2193.57,-379.39 2196.48,-377.37"/>
<polygon fill="none" stroke="midnightblue" points="1397.46,-442.44 1387.57,-446.23 1397.67,-449.44 1397.46,-442.44"/>
</g>
<!-- Node18 -->
<g id="node18" class="node">
<title>Node18</title>
<g id="a_node18"><a xlink:href="../../d0/d34/classSearch_1_1CSearchAnalysisDialog.html" target="_top" xlink:title=" ">
<polygon fill="white" stroke="black" points="2378.5,-193.5 2378.5,-316.5 2546.5,-316.5 2546.5,-193.5 2378.5,-193.5"/>
<text text-anchor="middle" x="2462.5" y="-304.5" font-family="Helvetica,sans-Serif" font-size="10.00">Search::CSearchAnalysisDialog</text>
<polyline fill="none" stroke="black" points="2378.5,-297.5 2546.5,-297.5 "/>
<text text-anchor="start" x="2386.5" y="-285.5" font-family="Helvetica,sans-Serif" font-size="10.00">&#45; m_analysis</text>
<text text-anchor="start" x="2386.5" y="-274.5" font-family="Helvetica,sans-Serif" font-size="10.00">&#45; m_analysisView</text>
<text text-anchor="start" x="2386.5" y="-263.5" font-family="Helvetica,sans-Serif" font-size="10.00">&#45; m_buttonBox</text>
<text text-anchor="start" x="2386.5" y="-252.5" font-family="Helvetica,sans-Serif" font-size="10.00">&#45; m_shown</text>
<polyline fill="none" stroke="black" points="2378.5,-245.5 2546.5,-245.5 "/>
<text text-anchor="start" x="2386.5" y="-233.5" font-family="Helvetica,sans-Serif" font-size="10.00">+ CSearchAnalysisDialog()</text>
<text text-anchor="start" x="2386.5" y="-222.5" font-family="Helvetica,sans-Serif" font-size="10.00"># resizeEvent()</text>
<text text-anchor="start" x="2386.5" y="-211.5" font-family="Helvetica,sans-Serif" font-size="10.00"># showEvent()</text>
<text text-anchor="start" x="2386.5" y="-200.5" font-family="Helvetica,sans-Serif" font-size="10.00">&#45; retranslateUi()</text>
</a>
</g>
</g>
<!-- Node1&#45;&gt;Node18 -->
<g id="edge17" class="edge">
<title>Node1&#45;&gt;Node18</title>
<path fill="none" stroke="midnightblue" d="M1397.86,-446.48C1571.95,-443.87 2283.04,-430.35 2369.5,-383 2396.59,-368.17 2417.88,-341.68 2433.22,-316.73"/>
<polygon fill="none" stroke="midnightblue" points="1397.59,-442.98 1387.64,-446.63 1397.69,-449.98 1397.59,-442.98"/>
</g>
<!-- Node19 -->
<g id="node19" class="node">
<title>Node19</title>
<g id="a_node19"><a xlink:href="../../d4/d6c/classSearch_1_1CSearchDialog.html" target="_top" xlink:title=" ">
<polygon fill="white" stroke="black" points="2565,-188 2565,-322 2696,-322 2696,-188 2565,-188"/>
<text text-anchor="middle" x="2630.5" y="-310" font-family="Helvetica,sans-Serif" font-size="10.00">Search::CSearchDialog</text>
<polyline fill="none" stroke="black" points="2565,-303 2696,-303 "/>
<text text-anchor="start" x="2573" y="-291" font-family="Helvetica,sans-Serif" font-size="10.00">&#45; m_analyseButton</text>
<text text-anchor="start" x="2573" y="-280" font-family="Helvetica,sans-Serif" font-size="10.00">&#45; m_closeButton</text>
<text text-anchor="start" x="2573" y="-269" font-family="Helvetica,sans-Serif" font-size="10.00">&#45; m_manageIndexes</text>
<text text-anchor="start" x="2573" y="-258" font-family="Helvetica,sans-Serif" font-size="10.00">&#45; m_searchOptionsArea</text>
<text text-anchor="start" x="2573" y="-247" font-family="Helvetica,sans-Serif" font-size="10.00">&#45; m_searchResultArea</text>
<polyline fill="none" stroke="black" points="2565,-240 2696,-240 "/>
<text text-anchor="start" x="2573" y="-228" font-family="Helvetica,sans-Serif" font-size="10.00">+ CSearchDialog()</text>
<text text-anchor="start" x="2573" y="-217" font-family="Helvetica,sans-Serif" font-size="10.00">+ reset()</text>
<text text-anchor="start" x="2573" y="-206" font-family="Helvetica,sans-Serif" font-size="10.00">+ ~CSearchDialog()</text>
<text text-anchor="start" x="2573" y="-195" font-family="Helvetica,sans-Serif" font-size="10.00">&#45; startSearch()</text>
</a>
</g>
</g>
<!-- Node1&#45;&gt;Node19 -->
<g id="edge18" class="edge">
<title>Node1&#45;&gt;Node19</title>
<path fill="none" stroke="midnightblue" d="M1397.97,-447.08C1591.64,-447.19 2454.58,-444.24 2555.5,-383 2578.38,-369.12 2595.07,-345.41 2606.82,-322.21"/>
<polygon fill="none" stroke="midnightblue" points="1397.72,-443.58 1387.72,-447.07 1397.71,-450.58 1397.72,-443.58"/>
</g>
<!-- Node5 -->
<g id="node5" class="node">
<title>Node5</title>
<g id="a_node5"><a xlink:href="../../df/da6/classCConfigurationDialog.html" target="_top" xlink:title=" ">
<polygon fill="white" stroke="black" points="322,-11.5 322,-79.5 469,-79.5 469,-11.5 322,-11.5"/>
<text text-anchor="middle" x="395.5" y="-67.5" font-family="Helvetica,sans-Serif" font-size="10.00">CConfigurationDialog</text>
<polyline fill="none" stroke="black" points="322,-60.5 469,-60.5 "/>
<text text-anchor="middle" x="395.5" y="-48.5" font-family="Helvetica,sans-Serif" font-size="10.00"> </text>
<polyline fill="none" stroke="black" points="322,-41.5 469,-41.5 "/>
<text text-anchor="start" x="330" y="-29.5" font-family="Helvetica,sans-Serif" font-size="10.00">+ CConfigurationDialog()</text>
<text text-anchor="start" x="330" y="-18.5" font-family="Helvetica,sans-Serif" font-size="10.00">+ ~CConfigurationDialog()</text>
</a>
</g>
</g>
<!-- Node4&#45;&gt;Node5 -->
<g id="edge4" class="edge">
<title>Node4&#45;&gt;Node5</title>
<path fill="none" stroke="midnightblue" d="M395.5,-194.06C395.5,-156.81 395.5,-110.34 395.5,-79.61"/>
<polygon fill="none" stroke="midnightblue" points="392,-194.3 395.5,-204.3 399,-194.3 392,-194.3"/>
</g>
<!-- Node11 -->
<g id="node11" class="node">
<title>Node11</title>
<g id="a_node11"><a xlink:href="../../d7/da3/classBtSearchModuleChooserDialog.html" target="_top" xlink:title=" ">
<polygon fill="white" stroke="black" points="1181.5,-0.5 1181.5,-90.5 1367.5,-90.5 1367.5,-0.5 1181.5,-0.5"/>
<text text-anchor="middle" x="1274.5" y="-78.5" font-family="Helvetica,sans-Serif" font-size="10.00">BtSearchModuleChooserDialog</text>
<polyline fill="none" stroke="black" points="1181.5,-71.5 1367.5,-71.5 "/>
<text text-anchor="middle" x="1274.5" y="-59.5" font-family="Helvetica,sans-Serif" font-size="10.00"> </text>
<polyline fill="none" stroke="black" points="1181.5,-52.5 1367.5,-52.5 "/>
<text text-anchor="start" x="1189.5" y="-40.5" font-family="Helvetica,sans-Serif" font-size="10.00">+ BtSearchModuleChooserDialog()</text>
<text text-anchor="start" x="1189.5" y="-29.5" font-family="Helvetica,sans-Serif" font-size="10.00">+ checkedModules()</text>
<text text-anchor="start" x="1189.5" y="-18.5" font-family="Helvetica,sans-Serif" font-size="10.00">+ setCheckedModules()</text>
<text text-anchor="start" x="1189.5" y="-7.5" font-family="Helvetica,sans-Serif" font-size="10.00"># retranslateUi()</text>
</a>
</g>
</g>
<!-- Node10&#45;&gt;Node11 -->
<g id="edge10" class="edge">
<title>Node10&#45;&gt;Node11</title>
<path fill="none" stroke="midnightblue" d="M1274.5,-183.2C1274.5,-152.52 1274.5,-117.54 1274.5,-90.65"/>
<polygon fill="none" stroke="midnightblue" points="1271,-183.42 1274.5,-193.42 1278,-183.42 1271,-183.42"/>
</g>
</g>
</svg>
