<?xml version="1.0" encoding="UTF-8" standalone="no"?>
<!DOCTYPE svg PUBLIC "-//W3C//DTD SVG 1.1//EN"
 "http://www.w3.org/Graphics/SVG/1.1/DTD/svg11.dtd">
<!-- Generated by graphviz version 2.43.0 (0)
 -->
<!-- Title: cresmgr.h Pages: 1 -->
<svg width="4804pt" height="82pt"
 viewBox="0.00 0.00 4803.50 82.00" xmlns="http://www.w3.org/2000/svg" xmlns:xlink="http://www.w3.org/1999/xlink">
<g id="graph0" class="graph" transform="scale(1 1) rotate(0) translate(4 78)">
<title>cresmgr.h</title>
<!-- Node1 -->
<g id="Node000001" class="node">
<title>Node1</title>
<g id="a_Node000001"><a xlink:title=" ">
<polygon fill="#999999" stroke="#666666" points="2488,-74 2423,-74 2423,-55 2488,-55 2488,-74"/>
<text text-anchor="middle" x="2455.5" y="-62" font-family="Helvetica,sans-Serif" font-size="10.00">cresmgr.h</text>
</a>
</g>
</g>
<!-- Node2 -->
<g id="Node000002" class="node">
<title>Node2</title>
<g id="a_Node000002"><a xlink:href="../../d1/df6/bibletime_8cpp.html" target="_top" xlink:title=" ">
<polygon fill="white" stroke="#666666" points="83,-19 0,-19 0,0 83,0 83,-19"/>
<text text-anchor="middle" x="41.5" y="-7" font-family="Helvetica,sans-Serif" font-size="10.00">bibletime.cpp</text>
</a>
</g>
</g>
<!-- Node1&#45;&gt;Node2 -->
<g id="edge1_Node000001_Node000002" class="edge">
<title>Node1&#45;&gt;Node2</title>
<g id="a_edge1_Node000001_Node000002"><a xlink:title=" ">
<path fill="none" stroke="#63b8ff" d="M2412.8,-63.55C2133.9,-63.75 568.25,-62.89 92.5,-19 89.46,-18.72 86.33,-18.36 83.18,-17.96"/>
<polygon fill="#63b8ff" stroke="#63b8ff" points="2412.92,-67.05 2422.92,-63.54 2412.92,-60.05 2412.92,-67.05"/>
</a>
</g>
</g>
<!-- Node3 -->
<g id="Node000003" class="node">
<title>Node3</title>
<g id="a_Node000003"><a xlink:href="../../da/dc7/bibletime__init_8cpp.html" target="_top" xlink:title=" ">
<polygon fill="white" stroke="#666666" points="205.5,-19 101.5,-19 101.5,0 205.5,0 205.5,-19"/>
<text text-anchor="middle" x="153.5" y="-7" font-family="Helvetica,sans-Serif" font-size="10.00">bibletime_init.cpp</text>
</a>
</g>
</g>
<!-- Node1&#45;&gt;Node3 -->
<g id="edge2_Node000001_Node000003" class="edge">
<title>Node1&#45;&gt;Node3</title>
<g id="a_edge2_Node000001_Node000003"><a xlink:title=" ">
<path fill="none" stroke="#63b8ff" d="M2412.49,-63.34C2141.27,-62.25 664.78,-54.72 214.5,-19 211.62,-18.77 208.67,-18.5 205.7,-18.19"/>
<polygon fill="#63b8ff" stroke="#63b8ff" points="2412.7,-66.84 2422.71,-63.38 2412.72,-59.84 2412.7,-66.84"/>
</a>
</g>
</g>
<!-- Node4 -->
<g id="Node000004" class="node">
<title>Node4</title>
<g id="a_Node000004"><a xlink:href="../../d7/d92/btbiblekeywidget_8cpp.html" target="_top" xlink:title=" ">
<polygon fill="white" stroke="#666666" points="345,-19 224,-19 224,0 345,0 345,-19"/>
<text text-anchor="middle" x="284.5" y="-7" font-family="Helvetica,sans-Serif" font-size="10.00">btbiblekeywidget.cpp</text>
</a>
</g>
</g>
<!-- Node1&#45;&gt;Node4 -->
<g id="edge3_Node000001_Node000004" class="edge">
<title>Node1&#45;&gt;Node4</title>
<g id="a_edge3_Node000001_Node000004"><a xlink:title=" ">
<path fill="none" stroke="#63b8ff" d="M2412.75,-63.18C2152.24,-61.12 775.59,-48.95 354.5,-19 351.45,-18.78 348.32,-18.53 345.17,-18.24"/>
<polygon fill="#63b8ff" stroke="#63b8ff" points="2412.91,-66.68 2422.93,-63.26 2412.96,-59.68 2412.91,-66.68"/>
</a>
</g>
</g>
<!-- Node5 -->
<g id="Node000005" class="node">
<title>Node5</title>
<g id="a_Node000005"><a xlink:href="../../d7/dd0/btbookmarksmodel_8cpp.html" target="_top" xlink:title=" ">
<polygon fill="white" stroke="#666666" points="495.5,-19 363.5,-19 363.5,0 495.5,0 495.5,-19"/>
<text text-anchor="middle" x="429.5" y="-7" font-family="Helvetica,sans-Serif" font-size="10.00">btbookmarksmodel.cpp</text>
</a>
</g>
</g>
<!-- Node1&#45;&gt;Node5 -->
<g id="edge4_Node000001_Node000005" class="edge">
<title>Node1&#45;&gt;Node5</title>
<g id="a_edge4_Node000001_Node000005"><a xlink:title=" ">
<path fill="none" stroke="#63b8ff" d="M2412.68,-63.05C2163.13,-60.34 893.97,-45.46 504.5,-19 501.62,-18.8 498.69,-18.58 495.72,-18.33"/>
<polygon fill="#63b8ff" stroke="#63b8ff" points="2412.76,-66.55 2422.8,-63.16 2412.84,-59.55 2412.76,-66.55"/>
</a>
</g>
</g>
<!-- Node6 -->
<g id="Node000006" class="node">
<title>Node6</title>
<g id="a_Node000006"><a xlink:href="../../df/d88/btbookshelfdockwidget_8cpp.html" target="_top" xlink:title=" ">
<polygon fill="white" stroke="#666666" points="665,-19 514,-19 514,0 665,0 665,-19"/>
<text text-anchor="middle" x="589.5" y="-7" font-family="Helvetica,sans-Serif" font-size="10.00">btbookshelfdockwidget.cpp</text>
</a>
</g>
</g>
<!-- Node1&#45;&gt;Node6 -->
<g id="edge5_Node000001_Node000006" class="edge">
<title>Node1&#45;&gt;Node6</title>
<g id="a_edge5_Node000001_Node000006"><a xlink:title=" ">
<path fill="none" stroke="#63b8ff" d="M2412.68,-63.63C2214.54,-63.97 1366.87,-62.68 673.5,-19 670.72,-18.82 667.89,-18.63 665.03,-18.42"/>
<polygon fill="#63b8ff" stroke="#63b8ff" points="2412.96,-67.13 2422.95,-63.61 2412.94,-60.13 2412.96,-67.13"/>
</a>
</g>
</g>
<!-- Node7 -->
<g id="Node000007" class="node">
<title>Node7</title>
<g id="a_Node000007"><a xlink:href="../../d8/d44/btbookshelfgroupingmenu_8cpp.html" target="_top" xlink:title=" ">
<polygon fill="white" stroke="#666666" points="848,-19 683,-19 683,0 848,0 848,-19"/>
<text text-anchor="middle" x="765.5" y="-7" font-family="Helvetica,sans-Serif" font-size="10.00">btbookshelfgroupingmenu.cpp</text>
</a>
</g>
</g>
<!-- Node1&#45;&gt;Node7 -->
<g id="edge6_Node000001_Node000007" class="edge">
<title>Node1&#45;&gt;Node7</title>
<g id="a_edge6_Node000001_Node000007"><a xlink:title=" ">
<path fill="none" stroke="#63b8ff" d="M2412.65,-63.33C2227.01,-62.4 1473.77,-56.38 856.5,-19 853.81,-18.84 851.07,-18.66 848.31,-18.47"/>
<polygon fill="#63b8ff" stroke="#63b8ff" points="2412.8,-66.83 2422.82,-63.38 2412.83,-59.83 2412.8,-66.83"/>
</a>
</g>
</g>
<!-- Node8 -->
<g id="Node000008" class="node">
<title>Node8</title>
<g id="a_Node000008"><a xlink:href="../../d9/d70/btbookshelfwidget_8cpp.html" target="_top" xlink:title=" ">
<polygon fill="white" stroke="#666666" points="993,-19 866,-19 866,0 993,0 993,-19"/>
<text text-anchor="middle" x="929.5" y="-7" font-family="Helvetica,sans-Serif" font-size="10.00">btbookshelfwidget.cpp</text>
</a>
</g>
</g>
<!-- Node1&#45;&gt;Node8 -->
<g id="edge7_Node000001_Node000008" class="edge">
<title>Node1&#45;&gt;Node8</title>
<g id="a_edge7_Node000001_Node000008"><a xlink:title=" ">
<path fill="none" stroke="#63b8ff" d="M2412.9,-63.52C2238.12,-63.33 1559.02,-59.85 1002.5,-19 999.45,-18.78 996.32,-18.52 993.17,-18.24"/>
<polygon fill="#63b8ff" stroke="#63b8ff" points="2412.97,-67.02 2422.97,-63.53 2412.97,-60.02 2412.97,-67.02"/>
</a>
</g>
</g>
<!-- Node9 -->
<g id="Node000009" class="node">
<title>Node9</title>
<g id="a_Node000009"><a xlink:href="../../d5/dcf/btdisplaysettingsbutton_8cpp.html" target="_top" xlink:title=" ">
<polygon fill="white" stroke="#666666" points="1163.5,-19 1011.5,-19 1011.5,0 1163.5,0 1163.5,-19"/>
<text text-anchor="middle" x="1087.5" y="-7" font-family="Helvetica,sans-Serif" font-size="10.00">btdisplaysettingsbutton.cpp</text>
</a>
</g>
</g>
<!-- Node1&#45;&gt;Node9 -->
<g id="edge8_Node000001_Node000009" class="edge">
<title>Node1&#45;&gt;Node9</title>
<g id="a_edge8_Node000001_Node000009"><a xlink:title=" ">
<path fill="none" stroke="#63b8ff" d="M2412.69,-63.02C2250.57,-61.01 1658.83,-51.72 1172.5,-19 1169.69,-18.81 1166.83,-18.6 1163.94,-18.38"/>
<polygon fill="#63b8ff" stroke="#63b8ff" points="2412.7,-66.53 2422.75,-63.15 2412.79,-59.53 2412.7,-66.53"/>
</a>
</g>
</g>
<!-- Node10 -->
<g id="Node000010" class="node">
<title>Node10</title>
<g id="a_Node000010"><a xlink:href="../../d8/d38/bteditbookmarkdialog_8cpp.html" target="_top" xlink:title=" ">
<polygon fill="white" stroke="#666666" points="1327,-19 1182,-19 1182,0 1327,0 1327,-19"/>
<text text-anchor="middle" x="1254.5" y="-7" font-family="Helvetica,sans-Serif" font-size="10.00">bteditbookmarkdialog.cpp</text>
</a>
</g>
</g>
<!-- Node1&#45;&gt;Node10 -->
<g id="edge9_Node000001_Node000010" class="edge">
<title>Node1&#45;&gt;Node10</title>
<g id="a_edge9_Node000001_Node000010"><a xlink:title=" ">
<path fill="none" stroke="#63b8ff" d="M2412.85,-62.8C2264.16,-60.15 1754.86,-49.3 1335.5,-19 1332.82,-18.81 1330.09,-18.59 1327.34,-18.37"/>
<polygon fill="#63b8ff" stroke="#63b8ff" points="2412.87,-66.3 2422.93,-62.98 2412.99,-59.3 2412.87,-66.3"/>
</a>
</g>
</g>
<!-- Node11 -->
<g id="Node000011" class="node">
<title>Node11</title>
<g id="a_Node000011"><a xlink:href="../../d4/d78/btedittextpage_8cpp.html" target="_top" xlink:title=" ">
<polygon fill="white" stroke="#666666" points="1454,-19 1345,-19 1345,0 1454,0 1454,-19"/>
<text text-anchor="middle" x="1399.5" y="-7" font-family="Helvetica,sans-Serif" font-size="10.00">btedittextpage.cpp</text>
</a>
</g>
</g>
<!-- Node1&#45;&gt;Node11 -->
<g id="edge10_Node000001_Node000011" class="edge">
<title>Node1&#45;&gt;Node11</title>
<g id="a_edge10_Node000001_Node000011"><a xlink:title=" ">
<path fill="none" stroke="#63b8ff" d="M2412.75,-62.91C2274.94,-60.74 1830.02,-51.5 1463.5,-19 1460.49,-18.73 1457.39,-18.43 1454.28,-18.09"/>
<polygon fill="#63b8ff" stroke="#63b8ff" points="2412.84,-66.42 2422.89,-63.07 2412.95,-59.42 2412.84,-66.42"/>
</a>
</g>
</g>
<!-- Node12 -->
<g id="Node000012" class="node">
<title>Node12</title>
<g id="a_Node000012"><a xlink:href="../../de/dee/btfindwidget_8cpp.html" target="_top" xlink:title=" ">
<polygon fill="white" stroke="#666666" points="1570.5,-19 1472.5,-19 1472.5,0 1570.5,0 1570.5,-19"/>
<text text-anchor="middle" x="1521.5" y="-7" font-family="Helvetica,sans-Serif" font-size="10.00">btfindwidget.cpp</text>
</a>
</g>
</g>
<!-- Node1&#45;&gt;Node12 -->
<g id="edge11_Node000001_Node000012" class="edge">
<title>Node1&#45;&gt;Node12</title>
<g id="a_edge11_Node000001_Node000012"><a xlink:title=" ">
<path fill="none" stroke="#63b8ff" d="M2412.7,-62.76C2285.47,-60.26 1898.63,-50.42 1579.5,-19 1576.56,-18.71 1573.55,-18.38 1570.51,-18.02"/>
<polygon fill="#63b8ff" stroke="#63b8ff" points="2412.74,-66.26 2422.8,-62.96 2412.87,-59.26 2412.74,-66.26"/>
</a>
</g>
</g>
<!-- Node13 -->
<g id="Node000013" class="node">
<title>Node13</title>
<g id="a_Node000013"><a xlink:href="../../d5/d72/btfontsettings_8cpp.html" target="_top" xlink:title=" ">
<polygon fill="white" stroke="#666666" points="1694,-19 1589,-19 1589,0 1694,0 1694,-19"/>
<text text-anchor="middle" x="1641.5" y="-7" font-family="Helvetica,sans-Serif" font-size="10.00">btfontsettings.cpp</text>
</a>
</g>
</g>
<!-- Node1&#45;&gt;Node13 -->
<g id="edge12_Node000001_Node000013" class="edge">
<title>Node1&#45;&gt;Node13</title>
<g id="a_edge12_Node000001_Node000013"><a xlink:title=" ">
<path fill="none" stroke="#63b8ff" d="M2412.67,-62.12C2297.67,-58.18 1972.66,-45.38 1703.5,-19 1700.47,-18.7 1697.37,-18.37 1694.23,-18.01"/>
<polygon fill="#63b8ff" stroke="#63b8ff" points="2412.7,-65.63 2422.81,-62.47 2412.94,-58.63 2412.7,-65.63"/>
</a>
</g>
</g>
<!-- Node14 -->
<g id="Node000014" class="node">
<title>Node14</title>
<g id="a_Node000014"><a xlink:href="../../d4/d57/btindexdialog_8cpp.html" target="_top" xlink:title=" ">
<polygon fill="white" stroke="#666666" points="1816.5,-19 1712.5,-19 1712.5,0 1816.5,0 1816.5,-19"/>
<text text-anchor="middle" x="1764.5" y="-7" font-family="Helvetica,sans-Serif" font-size="10.00">btindexdialog.cpp</text>
</a>
</g>
</g>
<!-- Node1&#45;&gt;Node14 -->
<g id="edge13_Node000001_Node000014" class="edge">
<title>Node1&#45;&gt;Node14</title>
<g id="a_edge13_Node000001_Node000014"><a xlink:title=" ">
<path fill="none" stroke="#63b8ff" d="M2412.78,-61.49C2310.94,-56.47 2045.89,-42.11 1825.5,-19 1822.63,-18.7 1819.68,-18.37 1816.71,-18.01"/>
<polygon fill="#63b8ff" stroke="#63b8ff" points="2412.81,-64.99 2422.97,-61.98 2413.16,-58 2412.81,-64.99"/>
</a>
</g>
</g>
<!-- Node15 -->
<g id="Node000015" class="node">
<title>Node15</title>
<g id="a_Node000015"><a xlink:href="../../d1/d5b/btmessageinputdialog_8cpp.html" target="_top" xlink:title=" ">
<polygon fill="white" stroke="#666666" points="1980.5,-19 1834.5,-19 1834.5,0 1980.5,0 1980.5,-19"/>
<text text-anchor="middle" x="1907.5" y="-7" font-family="Helvetica,sans-Serif" font-size="10.00">btmessageinputdialog.cpp</text>
</a>
</g>
</g>
<!-- Node1&#45;&gt;Node15 -->
<g id="edge14_Node000001_Node000015" class="edge">
<title>Node1&#45;&gt;Node15</title>
<g id="a_edge14_Node000001_Node000015"><a xlink:title=" ">
<path fill="none" stroke="#63b8ff" d="M2412.52,-59.51C2330.34,-51.86 2145.22,-34.51 1989.5,-19 1986.65,-18.72 1983.75,-18.43 1980.81,-18.13"/>
<polygon fill="#63b8ff" stroke="#63b8ff" points="2412.44,-63.02 2422.72,-60.46 2413.09,-56.05 2412.44,-63.02"/>
</a>
</g>
</g>
<!-- Node16 -->
<g id="Node000016" class="node">
<title>Node16</title>
<g id="a_Node000016"><a xlink:href="../../d9/d62/btopenworkaction_8cpp.html" target="_top" xlink:title=" ">
<polygon fill="white" stroke="#666666" points="2122.5,-19 1998.5,-19 1998.5,0 2122.5,0 2122.5,-19"/>
<text text-anchor="middle" x="2060.5" y="-7" font-family="Helvetica,sans-Serif" font-size="10.00">btopenworkaction.cpp</text>
</a>
</g>
</g>
<!-- Node1&#45;&gt;Node16 -->
<g id="edge15_Node000001_Node000016" class="edge">
<title>Node1&#45;&gt;Node16</title>
<g id="a_edge15_Node000001_Node000016"><a xlink:title=" ">
<path fill="none" stroke="#63b8ff" d="M2412.62,-57.75C2342.59,-48.35 2203.42,-29.68 2122.59,-18.83"/>
<polygon fill="#63b8ff" stroke="#63b8ff" points="2412.46,-61.26 2422.84,-59.12 2413.39,-54.32 2412.46,-61.26"/>
</a>
</g>
</g>
<!-- Node17 -->
<g id="Node000017" class="node">
<title>Node17</title>
<g id="a_Node000017"><a xlink:href="../../d4/d4d/btsearchoptionsarea_8cpp.html" target="_top" xlink:title=" ">
<polygon fill="white" stroke="#666666" points="2278,-19 2141,-19 2141,0 2278,0 2278,-19"/>
<text text-anchor="middle" x="2209.5" y="-7" font-family="Helvetica,sans-Serif" font-size="10.00">btsearchoptionsarea.cpp</text>
</a>
</g>
</g>
<!-- Node1&#45;&gt;Node17 -->
<g id="edge16_Node000001_Node000017" class="edge">
<title>Node1&#45;&gt;Node17</title>
<g id="a_edge16_Node000001_Node000017"><a xlink:title=" ">
<path fill="none" stroke="#63b8ff" d="M2412.87,-54.32C2366.84,-44.4 2294.1,-28.73 2249.23,-19.06"/>
<polygon fill="#63b8ff" stroke="#63b8ff" points="2412.32,-57.78 2422.83,-56.46 2413.79,-50.93 2412.32,-57.78"/>
</a>
</g>
</g>
<!-- Node18 -->
<g id="Node000018" class="node">
<title>Node18</title>
<g id="a_Node000018"><a xlink:href="../../dc/da2/bttextwindowheaderwidget_8cpp.html" target="_top" xlink:title=" ">
<polygon fill="white" stroke="#666666" points="2466.5,-19 2296.5,-19 2296.5,0 2466.5,0 2466.5,-19"/>
<text text-anchor="middle" x="2381.5" y="-7" font-family="Helvetica,sans-Serif" font-size="10.00">bttextwindowheaderwidget.cpp</text>
</a>
</g>
</g>
<!-- Node1&#45;&gt;Node18 -->
<g id="edge17_Node000001_Node000018" class="edge">
<title>Node1&#45;&gt;Node18</title>
<g id="a_edge17_Node000001_Node000018"><a xlink:title=" ">
<path fill="none" stroke="#63b8ff" d="M2435.47,-49.15C2422.09,-39.57 2404.94,-27.29 2393.61,-19.17"/>
<polygon fill="#63b8ff" stroke="#63b8ff" points="2433.44,-52.01 2443.61,-54.98 2437.52,-46.32 2433.44,-52.01"/>
</a>
</g>
</g>
<!-- Node19 -->
<g id="Node000019" class="node">
<title>Node19</title>
<g id="a_Node000019"><a xlink:href="../../d9/d08/bttipdialog_8cpp.html" target="_top" xlink:title=" ">
<polygon fill="white" stroke="#666666" points="2574,-19 2485,-19 2485,0 2574,0 2574,-19"/>
<text text-anchor="middle" x="2529.5" y="-7" font-family="Helvetica,sans-Serif" font-size="10.00">bttipdialog.cpp</text>
</a>
</g>
</g>
<!-- Node1&#45;&gt;Node19 -->
<g id="edge18_Node000001_Node000019" class="edge">
<title>Node1&#45;&gt;Node19</title>
<g id="a_edge18_Node000001_Node000019"><a xlink:title=" ">
<path fill="none" stroke="#63b8ff" d="M2475.53,-49.15C2488.91,-39.57 2506.06,-27.29 2517.39,-19.17"/>
<polygon fill="#63b8ff" stroke="#63b8ff" points="2473.48,-46.32 2467.39,-54.98 2477.56,-52.01 2473.48,-46.32"/>
</a>
</g>
</g>
<!-- Node20 -->
<g id="Node000020" class="node">
<title>Node20</title>
<g id="a_Node000020"><a xlink:href="../../dd/deb/btwelcomedialog_8cpp.html" target="_top" xlink:title=" ">
<polygon fill="white" stroke="#666666" points="2713,-19 2592,-19 2592,0 2713,0 2713,-19"/>
<text text-anchor="middle" x="2652.5" y="-7" font-family="Helvetica,sans-Serif" font-size="10.00">btwelcomedialog.cpp</text>
</a>
</g>
</g>
<!-- Node1&#45;&gt;Node20 -->
<g id="edge19_Node000001_Node000020" class="edge">
<title>Node1&#45;&gt;Node20</title>
<g id="a_edge19_Node000001_Node000020"><a xlink:title=" ">
<path fill="none" stroke="#63b8ff" d="M2497.09,-52.31C2533.95,-42.39 2587,-28.12 2620.6,-19.08"/>
<polygon fill="#63b8ff" stroke="#63b8ff" points="2495.9,-49.01 2487.15,-54.98 2497.72,-55.77 2495.9,-49.01"/>
</a>
</g>
</g>
<!-- Node21 -->
<g id="Node000021" class="node">
<title>Node21</title>
<g id="a_Node000021"><a xlink:href="../../dc/d6a/cacceleratorsettings_8cpp.html" target="_top" xlink:title=" ">
<polygon fill="white" stroke="#666666" points="2867.5,-19 2731.5,-19 2731.5,0 2867.5,0 2867.5,-19"/>
<text text-anchor="middle" x="2799.5" y="-7" font-family="Helvetica,sans-Serif" font-size="10.00">cacceleratorsettings.cpp</text>
</a>
</g>
</g>
<!-- Node1&#45;&gt;Node21 -->
<g id="edge20_Node000001_Node000021" class="edge">
<title>Node1&#45;&gt;Node21</title>
<g id="a_edge20_Node000001_Node000021"><a xlink:title=" ">
<path fill="none" stroke="#63b8ff" d="M2498.42,-56.89C2560.61,-47.31 2675.83,-29.55 2744.28,-19.01"/>
<polygon fill="#63b8ff" stroke="#63b8ff" points="2497.52,-53.48 2488.17,-58.47 2498.59,-60.4 2497.52,-53.48"/>
</a>
</g>
</g>
<!-- Node22 -->
<g id="Node000022" class="node">
<title>Node22</title>
<g id="a_Node000022"><a xlink:href="../../de/da4/cbiblereadwindow_8cpp.html" target="_top" xlink:title=" ">
<polygon fill="white" stroke="#666666" points="3011,-19 2886,-19 2886,0 3011,0 3011,-19"/>
<text text-anchor="middle" x="2948.5" y="-7" font-family="Helvetica,sans-Serif" font-size="10.00">cbiblereadwindow.cpp</text>
</a>
</g>
</g>
<!-- Node1&#45;&gt;Node22 -->
<g id="edge21_Node000001_Node000022" class="edge">
<title>Node1&#45;&gt;Node22</title>
<g id="a_edge21_Node000001_Node000022"><a xlink:title=" ">
<path fill="none" stroke="#63b8ff" d="M2498.42,-59.14C2574.59,-51.36 2738.37,-34.45 2876.5,-19 2879.5,-18.66 2882.57,-18.32 2885.68,-17.96"/>
<polygon fill="#63b8ff" stroke="#63b8ff" points="2497.86,-55.68 2488.27,-60.17 2498.57,-62.64 2497.86,-55.68"/>
</a>
</g>
</g>
<!-- Node23 -->
<g id="Node000023" class="node">
<title>Node23</title>
<g id="a_Node000023"><a xlink:href="../../d9/de6/cbookmarkindex_8cpp.html" target="_top" xlink:title=" ">
<polygon fill="white" stroke="#666666" points="3148,-19 3029,-19 3029,0 3148,0 3148,-19"/>
<text text-anchor="middle" x="3088.5" y="-7" font-family="Helvetica,sans-Serif" font-size="10.00">cbookmarkindex.cpp</text>
</a>
</g>
</g>
<!-- Node1&#45;&gt;Node23 -->
<g id="edge22_Node000001_Node000023" class="edge">
<title>Node1&#45;&gt;Node23</title>
<g id="a_edge22_Node000001_Node000023"><a xlink:title=" ">
<path fill="none" stroke="#63b8ff" d="M2498.03,-60.82C2592.26,-54.73 2825.67,-38.84 3020.5,-19 3023.22,-18.72 3026,-18.43 3028.81,-18.12"/>
<polygon fill="#63b8ff" stroke="#63b8ff" points="2497.79,-57.33 2488.03,-61.46 2498.23,-64.31 2497.79,-57.33"/>
</a>
</g>
</g>
<!-- Node24 -->
<g id="Node000024" class="node">
<title>Node24</title>
<g id="a_Node000024"><a xlink:href="../../d7/d67/cbookreadwindow_8cpp.html" target="_top" xlink:title=" ">
<polygon fill="white" stroke="#666666" points="3291,-19 3166,-19 3166,0 3291,0 3291,-19"/>
<text text-anchor="middle" x="3228.5" y="-7" font-family="Helvetica,sans-Serif" font-size="10.00">cbookreadwindow.cpp</text>
</a>
</g>
</g>
<!-- Node1&#45;&gt;Node24 -->
<g id="edge23_Node000001_Node000024" class="edge">
<title>Node1&#45;&gt;Node24</title>
<g id="a_edge23_Node000001_Node000024"><a xlink:title=" ">
<path fill="none" stroke="#63b8ff" d="M2498.09,-61.63C2607.62,-56.64 2908.03,-41.82 3157.5,-19 3160.22,-18.75 3163,-18.48 3165.8,-18.2"/>
<polygon fill="#63b8ff" stroke="#63b8ff" points="2497.92,-58.13 2488.09,-62.08 2498.24,-65.13 2497.92,-58.13"/>
</a>
</g>
</g>
<!-- Node25 -->
<g id="Node000025" class="node">
<title>Node25</title>
<g id="a_Node000025"><a xlink:href="../../d0/d6f/ccommentaryreadwindow_8cpp.html" target="_top" xlink:title=" ">
<polygon fill="white" stroke="#666666" points="3472,-19 3309,-19 3309,0 3472,0 3472,-19"/>
<text text-anchor="middle" x="3390.5" y="-7" font-family="Helvetica,sans-Serif" font-size="10.00">ccommentaryreadwindow.cpp</text>
</a>
</g>
</g>
<!-- Node1&#45;&gt;Node25 -->
<g id="edge24_Node000001_Node000025" class="edge">
<title>Node1&#45;&gt;Node25</title>
<g id="a_edge24_Node000001_Node000025"><a xlink:title=" ">
<path fill="none" stroke="#63b8ff" d="M2498.38,-61.87C2622.59,-57.02 2993.36,-41.58 3300.5,-19 3303.16,-18.8 3305.87,-18.6 3308.6,-18.38"/>
<polygon fill="#63b8ff" stroke="#63b8ff" points="2498.01,-58.38 2488.16,-62.27 2498.28,-65.38 2498.01,-58.38"/>
</a>
</g>
</g>
<!-- Node26 -->
<g id="Node000026" class="node">
<title>Node26</title>
<g id="a_Node000026"><a xlink:href="../../d4/dca/cdisplaysettings_8cpp.html" target="_top" xlink:title=" ">
<polygon fill="white" stroke="#666666" points="3606.5,-19 3490.5,-19 3490.5,0 3606.5,0 3606.5,-19"/>
<text text-anchor="middle" x="3548.5" y="-7" font-family="Helvetica,sans-Serif" font-size="10.00">cdisplaysettings.cpp</text>
</a>
</g>
</g>
<!-- Node1&#45;&gt;Node26 -->
<g id="edge25_Node000001_Node000026" class="edge">
<title>Node1&#45;&gt;Node26</title>
<g id="a_edge25_Node000001_Node000026"><a xlink:title=" ">
<path fill="none" stroke="#63b8ff" d="M2498.73,-62.91C2640.11,-60.69 3101.45,-51.29 3481.5,-19 3484.42,-18.75 3487.41,-18.47 3490.43,-18.17"/>
<polygon fill="#63b8ff" stroke="#63b8ff" points="2498.29,-59.41 2488.34,-63.06 2498.39,-66.41 2498.29,-59.41"/>
</a>
</g>
</g>
<!-- Node27 -->
<g id="Node000027" class="node">
<title>Node27</title>
<g id="a_Node000027"><a xlink:href="../../d2/d26/cdisplaywindow_8cpp.html" target="_top" xlink:title=" ">
<polygon fill="white" stroke="#666666" points="3738.5,-19 3624.5,-19 3624.5,0 3738.5,0 3738.5,-19"/>
<text text-anchor="middle" x="3681.5" y="-7" font-family="Helvetica,sans-Serif" font-size="10.00">cdisplaywindow.cpp</text>
</a>
</g>
</g>
<!-- Node1&#45;&gt;Node27 -->
<g id="edge26_Node000001_Node000027" class="edge">
<title>Node1&#45;&gt;Node27</title>
<g id="a_edge26_Node000001_Node000027"><a xlink:title=" ">
<path fill="none" stroke="#63b8ff" d="M2498.66,-63.24C2651.41,-62.02 3180.58,-55.28 3615.5,-19 3618.38,-18.76 3621.32,-18.49 3624.3,-18.19"/>
<polygon fill="#63b8ff" stroke="#63b8ff" points="2498.29,-59.74 2488.32,-63.32 2498.35,-66.74 2498.29,-59.74"/>
</a>
</g>
</g>
<!-- Node28 -->
<g id="Node000028" class="node">
<title>Node28</title>
<g id="a_Node000028"><a xlink:href="../../d8/d19/clexiconreadwindow_8cpp.html" target="_top" xlink:title=" ">
<polygon fill="white" stroke="#666666" points="3892.5,-19 3756.5,-19 3756.5,0 3892.5,0 3892.5,-19"/>
<text text-anchor="middle" x="3824.5" y="-7" font-family="Helvetica,sans-Serif" font-size="10.00">clexiconreadwindow.cpp</text>
</a>
</g>
</g>
<!-- Node1&#45;&gt;Node28 -->
<g id="edge27_Node000001_Node000028" class="edge">
<title>Node1&#45;&gt;Node28</title>
<g id="a_edge27_Node000001_Node000028"><a xlink:title=" ">
<path fill="none" stroke="#63b8ff" d="M2498.62,-63.2C2661.91,-61.79 3257.94,-54.4 3747.5,-19 3750.32,-18.8 3753.19,-18.57 3756.09,-18.32"/>
<polygon fill="#63b8ff" stroke="#63b8ff" points="2498.46,-59.7 2488.49,-63.28 2498.52,-66.7 2498.46,-59.7"/>
</a>
</g>
</g>
<!-- Node29 -->
<g id="Node000029" class="node">
<title>Node29</title>
<g id="a_Node000029"><a xlink:href="../../d7/d5d/cmoduleresultview_8cpp.html" target="_top" xlink:title=" ">
<polygon fill="white" stroke="#666666" points="4040,-19 3911,-19 3911,0 4040,0 4040,-19"/>
<text text-anchor="middle" x="3975.5" y="-7" font-family="Helvetica,sans-Serif" font-size="10.00">cmoduleresultview.cpp</text>
</a>
</g>
</g>
<!-- Node1&#45;&gt;Node29 -->
<g id="edge28_Node000001_Node000029" class="edge">
<title>Node1&#45;&gt;Node29</title>
<g id="a_edge28_Node000001_Node000029"><a xlink:title=" ">
<path fill="none" stroke="#63b8ff" d="M2498.19,-63.49C2672.57,-63.17 3347.93,-59.24 3901.5,-19 3904.6,-18.77 3907.76,-18.52 3910.96,-18.24"/>
<polygon fill="#63b8ff" stroke="#63b8ff" points="2498.13,-59.99 2488.13,-63.5 2498.14,-66.99 2498.13,-59.99"/>
</a>
</g>
</g>
<!-- Node30 -->
<g id="Node000030" class="node">
<title>Node30</title>
<g id="a_Node000030"><a xlink:href="../../d9/d56/cresmgr_8cpp.html" target="_top" xlink:title=" ">
<polygon fill="white" stroke="#666666" points="4134.5,-19 4058.5,-19 4058.5,0 4134.5,0 4134.5,-19"/>
<text text-anchor="middle" x="4096.5" y="-7" font-family="Helvetica,sans-Serif" font-size="10.00">cresmgr.cpp</text>
</a>
</g>
</g>
<!-- Node1&#45;&gt;Node30 -->
<g id="edge29_Node000001_Node000030" class="edge">
<title>Node1&#45;&gt;Node30</title>
<g id="a_edge29_Node000001_Node000030"><a xlink:title=" ">
<path fill="none" stroke="#63b8ff" d="M2498.29,-63.18C2719.61,-61.39 3736.07,-51.53 4049.5,-19 4052.39,-18.7 4055.36,-18.32 4058.35,-17.9"/>
<polygon fill="#63b8ff" stroke="#63b8ff" points="2498.04,-59.68 2488.07,-63.26 2498.09,-66.68 2498.04,-59.68"/>
</a>
</g>
</g>
<!-- Node31 -->
<g id="Node000031" class="node">
<title>Node31</title>
<g id="a_Node000031"><a xlink:href="../../d2/d1a/csearchdialog_8cpp.html" target="_top" xlink:title=" ">
<polygon fill="white" stroke="#666666" points="4256.5,-19 4152.5,-19 4152.5,0 4256.5,0 4256.5,-19"/>
<text text-anchor="middle" x="4204.5" y="-7" font-family="Helvetica,sans-Serif" font-size="10.00">csearchdialog.cpp</text>
</a>
</g>
</g>
<!-- Node1&#45;&gt;Node31 -->
<g id="edge30_Node000001_Node000031" class="edge">
<title>Node1&#45;&gt;Node31</title>
<g id="a_edge30_Node000001_Node000031"><a xlink:title=" ">
<path fill="none" stroke="#63b8ff" d="M2498.57,-63.02C2728.15,-60.36 3809.89,-46.55 4143.5,-19 4146.38,-18.76 4149.33,-18.48 4152.3,-18.17"/>
<polygon fill="#63b8ff" stroke="#63b8ff" points="2498.25,-59.52 2488.29,-63.14 2498.33,-66.52 2498.25,-59.52"/>
</a>
</g>
</g>
<!-- Node32 -->
<g id="Node000032" class="node">
<title>Node32</title>
<g id="a_Node000032"><a xlink:href="../../db/d51/csearchresultview_8cpp.html" target="_top" xlink:title=" ">
<polygon fill="white" stroke="#666666" points="4400,-19 4275,-19 4275,0 4400,0 4400,-19"/>
<text text-anchor="middle" x="4337.5" y="-7" font-family="Helvetica,sans-Serif" font-size="10.00">csearchresultview.cpp</text>
</a>
</g>
</g>
<!-- Node1&#45;&gt;Node32 -->
<g id="edge31_Node000001_Node000032" class="edge">
<title>Node1&#45;&gt;Node32</title>
<g id="a_edge31_Node000001_Node000032"><a xlink:title=" ">
<path fill="none" stroke="#63b8ff" d="M2498.22,-62.99C2736.71,-60.06 3905.77,-44.6 4265.5,-19 4268.51,-18.79 4271.59,-18.54 4274.7,-18.26"/>
<polygon fill="#63b8ff" stroke="#63b8ff" points="2498.16,-59.49 2488.2,-63.11 2498.24,-66.49 2498.16,-59.49"/>
</a>
</g>
</g>
<!-- Node33 -->
<g id="Node000033" class="node">
<title>Node33</title>
<g id="a_Node000033"><a xlink:href="../../d3/db9/cswordmoduleinfo_8cpp.html" target="_top" xlink:title=" ">
<polygon fill="white" stroke="#666666" points="4545,-19 4418,-19 4418,0 4545,0 4545,-19"/>
<text text-anchor="middle" x="4481.5" y="-7" font-family="Helvetica,sans-Serif" font-size="10.00">cswordmoduleinfo.cpp</text>
</a>
</g>
</g>
<!-- Node1&#45;&gt;Node33 -->
<g id="edge32_Node000001_Node000033" class="edge">
<title>Node1&#45;&gt;Node33</title>
<g id="a_edge32_Node000001_Node000033"><a xlink:title=" ">
<path fill="none" stroke="#63b8ff" d="M2498.38,-63.08C2748.33,-60.53 4019.49,-46.4 4409.5,-19 4412.26,-18.81 4415.08,-18.58 4417.93,-18.34"/>
<polygon fill="#63b8ff" stroke="#63b8ff" points="2498.21,-59.58 2488.25,-63.18 2498.29,-66.58 2498.21,-59.58"/>
</a>
</g>
</g>
<!-- Node34 -->
<g id="Node000034" class="node">
<title>Node34</title>
<g id="a_Node000034"><a xlink:href="../../d3/dba/cswordsettings_8cpp.html" target="_top" xlink:title=" ">
<polygon fill="white" stroke="#666666" points="4673.5,-19 4563.5,-19 4563.5,0 4673.5,0 4673.5,-19"/>
<text text-anchor="middle" x="4618.5" y="-7" font-family="Helvetica,sans-Serif" font-size="10.00">cswordsettings.cpp</text>
</a>
</g>
</g>
<!-- Node1&#45;&gt;Node34 -->
<g id="edge33_Node000001_Node000034" class="edge">
<title>Node1&#45;&gt;Node34</title>
<g id="a_edge33_Node000001_Node000034"><a xlink:title=" ">
<path fill="none" stroke="#63b8ff" d="M2498.22,-63.24C2758.5,-61.56 4133.99,-51.28 4554.5,-19 4557.41,-18.78 4560.38,-18.51 4563.38,-18.21"/>
<polygon fill="#63b8ff" stroke="#63b8ff" points="2498.02,-59.74 2488.04,-63.31 2498.06,-66.74 2498.02,-59.74"/>
</a>
</g>
</g>
<!-- Node35 -->
<g id="Node000035" class="node">
<title>Node35</title>
<g id="a_Node000035"><a xlink:href="../../d9/d6e/languageitem_8cpp.html" target="_top" xlink:title=" ">
<polygon fill="white" stroke="#666666" points="4795.5,-19 4691.5,-19 4691.5,0 4795.5,0 4795.5,-19"/>
<text text-anchor="middle" x="4743.5" y="-7" font-family="Helvetica,sans-Serif" font-size="10.00">languageitem.cpp</text>
</a>
</g>
</g>
<!-- Node1&#45;&gt;Node35 -->
<g id="edge34_Node000001_Node000035" class="edge">
<title>Node1&#45;&gt;Node35</title>
<g id="a_edge34_Node000001_Node000035"><a xlink:title=" ">
<path fill="none" stroke="#63b8ff" d="M2498.24,-63.34C2767.77,-62.21 4235.04,-54.52 4682.5,-19 4685.38,-18.77 4688.33,-18.5 4691.3,-18.19"/>
<polygon fill="#63b8ff" stroke="#63b8ff" points="2498.07,-59.84 2488.08,-63.38 2498.1,-66.84 2498.07,-59.84"/>
</a>
</g>
</g>
</g>
</svg>
