<?xml version="1.0" encoding="UTF-8" standalone="no"?>
<!DOCTYPE svg PUBLIC "-//W3C//DTD SVG 1.1//EN"
 "http://www.w3.org/Graphics/SVG/1.1/DTD/svg11.dtd">
<!-- Generated by graphviz version 2.43.0 (0)
 -->
<!-- Title: btsearchresultarea.h Pages: 1 -->
<svg width="365pt" height="140pt"
 viewBox="0.00 0.00 365.00 140.00" xmlns="http://www.w3.org/2000/svg" xmlns:xlink="http://www.w3.org/1999/xlink">
<g id="graph0" class="graph" transform="scale(1 1) rotate(0) translate(4 136)">
<title>btsearchresultarea.h</title>
<polygon fill="white" stroke="transparent" points="-4,4 -4,-136 361,-136 361,4 -4,4"/>
<!-- Node1 -->
<g id="node1" class="node">
<title>Node1</title>
<g id="a_node1"><a xlink:title=" ">
<polygon fill="#bfbfbf" stroke="black" points="122.5,-112.5 122.5,-131.5 239.5,-131.5 239.5,-112.5 122.5,-112.5"/>
<text text-anchor="middle" x="181" y="-119.5" font-family="Helvetica,sans-Serif" font-size="10.00">btsearchresultarea.h</text>
</a>
</g>
</g>
<!-- Node2 -->
<g id="node2" class="node">
<title>Node2</title>
<g id="a_node2"><a xlink:href="../../dd/dde/btsearchresultarea_8cpp.html" target="_top" xlink:title=" ">
<polygon fill="white" stroke="black" points="0,-0.5 0,-19.5 128,-19.5 128,-0.5 0,-0.5"/>
<text text-anchor="middle" x="64" y="-7.5" font-family="Helvetica,sans-Serif" font-size="10.00">btsearchresultarea.cpp</text>
</a>
</g>
</g>
<!-- Node1&#45;&gt;Node2 -->
<g id="edge1" class="edge">
<title>Node1&#45;&gt;Node2</title>
<path fill="none" stroke="midnightblue" d="M120.2,-109.42C101.25,-102.78 82.14,-92.35 70,-76 57.57,-59.26 59.91,-33 62.21,-19.56"/>
<polygon fill="midnightblue" stroke="midnightblue" points="119.17,-112.77 129.76,-112.47 121.3,-106.1 119.17,-112.77"/>
</g>
<!-- Node3 -->
<g id="node3" class="node">
<title>Node3</title>
<g id="a_node3"><a xlink:href="../../d7/d5d/cmoduleresultview_8cpp.html" target="_top" xlink:title=" ">
<polygon fill="white" stroke="black" points="153.5,-0.5 153.5,-19.5 282.5,-19.5 282.5,-0.5 153.5,-0.5"/>
<text text-anchor="middle" x="218" y="-7.5" font-family="Helvetica,sans-Serif" font-size="10.00">cmoduleresultview.cpp</text>
</a>
</g>
</g>
<!-- Node1&#45;&gt;Node3 -->
<g id="edge2" class="edge">
<title>Node1&#45;&gt;Node3</title>
<path fill="none" stroke="midnightblue" d="M192.24,-103.89C197.13,-95.74 202.53,-85.67 206,-76 212.98,-56.56 216.08,-32.32 217.3,-19.64"/>
<polygon fill="midnightblue" stroke="midnightblue" points="189.22,-102.11 186.87,-112.44 195.15,-105.83 189.22,-102.11"/>
</g>
<!-- Node4 -->
<g id="node4" class="node">
<title>Node4</title>
<g id="a_node4"><a xlink:href="../../da/d50/cmoduleresultview_8h.html" target="_top" xlink:title=" ">
<polygon fill="white" stroke="black" points="79,-56.5 79,-75.5 197,-75.5 197,-56.5 79,-56.5"/>
<text text-anchor="middle" x="138" y="-63.5" font-family="Helvetica,sans-Serif" font-size="10.00">cmoduleresultview.h</text>
</a>
</g>
</g>
<!-- Node1&#45;&gt;Node4 -->
<g id="edge3" class="edge">
<title>Node1&#45;&gt;Node4</title>
<path fill="none" stroke="midnightblue" d="M167.58,-104.14C160.09,-94.74 151.06,-83.4 144.97,-75.75"/>
<polygon fill="midnightblue" stroke="midnightblue" points="164.93,-106.44 173.9,-112.08 170.41,-102.08 164.93,-106.44"/>
</g>
<!-- Node5 -->
<g id="node5" class="node">
<title>Node5</title>
<g id="a_node5"><a xlink:href="../../d2/d1a/csearchdialog_8cpp.html" target="_top" xlink:title=" ">
<polygon fill="white" stroke="black" points="253,-56.5 253,-75.5 357,-75.5 357,-56.5 253,-56.5"/>
<text text-anchor="middle" x="305" y="-63.5" font-family="Helvetica,sans-Serif" font-size="10.00">csearchdialog.cpp</text>
</a>
</g>
</g>
<!-- Node1&#45;&gt;Node5 -->
<g id="edge6" class="edge">
<title>Node1&#45;&gt;Node5</title>
<path fill="none" stroke="midnightblue" d="M210.01,-108.37C233.23,-98.26 265.16,-84.35 285.44,-75.52"/>
<polygon fill="midnightblue" stroke="midnightblue" points="208.42,-105.24 200.65,-112.44 211.21,-111.66 208.42,-105.24"/>
</g>
<!-- Node4&#45;&gt;Node2 -->
<g id="edge4" class="edge">
<title>Node4&#45;&gt;Node2</title>
<path fill="none" stroke="midnightblue" d="M117.97,-50.38C104.59,-40.62 87.44,-28.11 76.11,-19.83"/>
<polygon fill="midnightblue" stroke="midnightblue" points="115.97,-53.26 126.11,-56.32 120.1,-47.6 115.97,-53.26"/>
</g>
<!-- Node4&#45;&gt;Node3 -->
<g id="edge5" class="edge">
<title>Node4&#45;&gt;Node3</title>
<path fill="none" stroke="midnightblue" d="M159.3,-50.62C173.92,-40.76 192.83,-27.99 205.18,-19.65"/>
<polygon fill="midnightblue" stroke="midnightblue" points="157.18,-47.83 150.85,-56.32 161.1,-53.63 157.18,-47.83"/>
</g>
</g>
</svg>
