<?xml version="1.0" encoding="UTF-8" standalone="no"?>
<!DOCTYPE svg PUBLIC "-//W3C//DTD SVG 1.1//EN"
 "http://www.w3.org/Graphics/SVG/1.1/DTD/svg11.dtd">
<!-- Generated by graphviz version 2.43.0 (0)
 -->
<!-- Title: BookshelfModel::Item Pages: 1 -->
<!--zoomable 726 -->

<svg id="main" version="1.1" xmlns="http://www.w3.org/2000/svg" xmlns:xlink="http://www.w3.org/1999/xlink" xml:space="preserve" onload="init(evt)">
<style type="text/css"><![CDATA[
.node, .edge {opacity: 0.7;}
.node.selected, .edge.selected {opacity: 1;}
.edge:hover path { stroke: red; }
.edge:hover polygon { stroke: red; fill: red; }
]]></style>

<defs>
  <circle id="rim" cx="0" cy="0" r="7"/>
  <circle id="rim2" cx="0" cy="0" r="3.5"/>
  <g id="zoomPlus">
    <use xlink:href="#rim" fill="#404040"><set attributeName="fill" to="#808080" begin="zoomplus.mouseover" end="zoomplus.mouseout"/></use>
    <path d="M-4,0h8M0,-4v8" fill="none" stroke="white" stroke-width="1.5" pointer-events="none"/>
  </g>
  <g id="zoomMin">
    <use xlink:href="#rim" fill="#404040"><set attributeName="fill" to="#808080" begin="zoomminus.mouseover" end="zoomminus.mouseout"/></use>
    <path d="M-4,0h8" fill="none" stroke="white" stroke-width="1.5" pointer-events="none"/>
  </g>
  <g id="arrowUp" transform="translate(30 24)">
    <use xlink:href="#rim"/>
    <path pointer-events="none" fill="none" stroke="white" stroke-width="1.5" d="M0,-3.0v7 M-2.5,-0.5L0,-3.0L2.5,-0.5"/>
  </g>
  <g id="arrowRight" transform="rotate(90) translate(36 -43)">
    <use xlink:href="#rim"/>
    <path pointer-events="none" fill="none" stroke="white" stroke-width="1.5" d="M0,-3.0v7 M-2.5,-0.5L0,-3.0L2.5,-0.5"/>
  </g>
  <g id="arrowDown" transform="rotate(180) translate(-30 -48)">
    <use xlink:href="#rim"/>
    <path pointer-events="none" fill="none" stroke="white" stroke-width="1.5" d="M0,-3.0v7 M-2.5,-0.5L0,-3.0L2.5,-0.5"/>
  </g>
  <g id="arrowLeft" transform="rotate(270) translate(-36 17)">
    <use xlink:href="#rim"/>
    <path pointer-events="none" fill="none" stroke="white" stroke-width="1.5" d="M0,-3.0v7 M-2.5,-0.5L0,-3.0L2.5,-0.5"/>
  </g>
  <g id="resetDef">
    <use xlink:href="#rim2" fill="#404040"><set attributeName="fill" to="#808080" begin="reset.mouseover" end="reset.mouseout"/></use>
  </g>
</defs>
<script type="application/ecmascript">
var viewWidth = 948;
var viewHeight = 726;
var sectionId = 'dynsection-0';
</script>
<script type="application/ecmascript" xlink:href="../../svg.min.js"/>
<svg id="graph" class="graph">
<g id="viewport">
<title>BookshelfModel::Item</title>
<!-- Node1 -->
<g id="Node000001" class="node">
<title>Node1</title>
<g id="a_Node000001"><a xlink:title=" ">
<polygon fill="#999999" stroke="transparent" points="620,-718 502,-718 502,-414 620,-414 620,-718"/>
<text text-anchor="start" x="507" y="-706" font-family="Helvetica,sans-Serif" font-size="10.00">BookshelfModel::Item</text>
<text text-anchor="start" x="513" y="-691" font-family="Helvetica,sans-Serif" font-size="10.00">&#45;</text>
<text text-anchor="start" x="528" y="-691" font-family="Helvetica,sans-Serif" font-size="10.00">m_checkState</text>
<text text-anchor="start" x="513" y="-676" font-family="Helvetica,sans-Serif" font-size="10.00">&#45;</text>
<text text-anchor="start" x="528" y="-676" font-family="Helvetica,sans-Serif" font-size="10.00">m_children</text>
<text text-anchor="start" x="513" y="-661" font-family="Helvetica,sans-Serif" font-size="10.00">&#45;</text>
<text text-anchor="start" x="528" y="-661" font-family="Helvetica,sans-Serif" font-size="10.00">m_parent</text>
<text text-anchor="start" x="513" y="-646" font-family="Helvetica,sans-Serif" font-size="10.00">&#45;</text>
<text text-anchor="start" x="528" y="-646" font-family="Helvetica,sans-Serif" font-size="10.00">m_type</text>
<text text-anchor="start" x="510.5" y="-631" font-family="Helvetica,sans-Serif" font-size="10.00">+</text>
<text text-anchor="start" x="528" y="-631" font-family="Helvetica,sans-Serif" font-size="10.00">checkState()</text>
<text text-anchor="start" x="510.5" y="-616" font-family="Helvetica,sans-Serif" font-size="10.00">+</text>
<text text-anchor="start" x="528" y="-616" font-family="Helvetica,sans-Serif" font-size="10.00">childIndex()</text>
<text text-anchor="start" x="510.5" y="-601" font-family="Helvetica,sans-Serif" font-size="10.00">+</text>
<text text-anchor="start" x="528" y="-601" font-family="Helvetica,sans-Serif" font-size="10.00">children()</text>
<text text-anchor="start" x="510.5" y="-586" font-family="Helvetica,sans-Serif" font-size="10.00">+</text>
<text text-anchor="start" x="528" y="-586" font-family="Helvetica,sans-Serif" font-size="10.00">data()</text>
<text text-anchor="start" x="510.5" y="-571" font-family="Helvetica,sans-Serif" font-size="10.00">+</text>
<text text-anchor="start" x="528" y="-571" font-family="Helvetica,sans-Serif" font-size="10.00">fitFor()</text>
<text text-anchor="start" x="510.5" y="-556" font-family="Helvetica,sans-Serif" font-size="10.00">+</text>
<text text-anchor="start" x="528" y="-556" font-family="Helvetica,sans-Serif" font-size="10.00">getGroupItem()</text>
<text text-anchor="start" x="510.5" y="-541" font-family="Helvetica,sans-Serif" font-size="10.00">+</text>
<text text-anchor="start" x="528" y="-541" font-family="Helvetica,sans-Serif" font-size="10.00">indexFor()</text>
<text text-anchor="start" x="510.5" y="-526" font-family="Helvetica,sans-Serif" font-size="10.00">+</text>
<text text-anchor="start" x="528" y="-526" font-family="Helvetica,sans-Serif" font-size="10.00">insertChild()</text>
<text text-anchor="start" x="510.5" y="-511" font-family="Helvetica,sans-Serif" font-size="10.00">+</text>
<text text-anchor="start" x="528" y="-511" font-family="Helvetica,sans-Serif" font-size="10.00">Item()</text>
<text text-anchor="start" x="510.5" y="-496" font-family="Helvetica,sans-Serif" font-size="10.00">+</text>
<text text-anchor="start" x="528" y="-496" font-family="Helvetica,sans-Serif" font-size="10.00">operator&lt;()</text>
<text text-anchor="start" x="510.5" y="-481" font-family="Helvetica,sans-Serif" font-size="10.00">+</text>
<text text-anchor="start" x="528" y="-481" font-family="Helvetica,sans-Serif" font-size="10.00">parent()</text>
<text text-anchor="start" x="510.5" y="-466" font-family="Helvetica,sans-Serif" font-size="10.00">+</text>
<text text-anchor="start" x="528" y="-466" font-family="Helvetica,sans-Serif" font-size="10.00">setCheckState()</text>
<text text-anchor="start" x="510.5" y="-451" font-family="Helvetica,sans-Serif" font-size="10.00">+</text>
<text text-anchor="start" x="528" y="-451" font-family="Helvetica,sans-Serif" font-size="10.00">type()</text>
<text text-anchor="start" x="510.5" y="-436" font-family="Helvetica,sans-Serif" font-size="10.00">+</text>
<text text-anchor="start" x="528" y="-436" font-family="Helvetica,sans-Serif" font-size="10.00">~Item()</text>
<text text-anchor="start" x="513" y="-421" font-family="Helvetica,sans-Serif" font-size="10.00">&#45;</text>
<text text-anchor="start" x="528" y="-421" font-family="Helvetica,sans-Serif" font-size="10.00">setParent()</text>
<polygon fill="#666666" stroke="#666666" points="502,-701 502,-701 620,-701 620,-701 502,-701"/>
<polygon fill="#666666" stroke="#666666" points="502,-641 502,-641 526,-641 526,-641 502,-641"/>
<polygon fill="#666666" stroke="#666666" points="526,-641 526,-641 620,-641 620,-641 526,-641"/>
<polygon fill="none" stroke="#666666" points="502,-414 502,-718 620,-718 620,-414 502,-414"/>
</a>
</g>
</g>
<!-- Node2 -->
<g id="Node000002" class="node">
<title>Node2</title>
<g id="a_Node000002"><a xlink:href="../../d1/dcc/classBookshelfModel_1_1GroupItem.html" target="_top" xlink:title=" ">
<polygon fill="white" stroke="transparent" points="154.5,-221 7.5,-221 7.5,-146 154.5,-146 154.5,-221"/>
<text text-anchor="start" x="13" y="-208.5" font-family="Helvetica,sans-Serif" font-size="10.00">BookshelfModel::GroupItem</text>
<text text-anchor="start" x="15" y="-197.5" font-family="Helvetica,sans-Serif" font-size="10.00">&lt; Item::ITEM_CATEGORY &gt;</text>
<text text-anchor="start" x="79.5" y="-182.5" font-family="Helvetica,sans-Serif" font-size="10.00"> </text>
<text text-anchor="start" x="23.5" y="-167.5" font-family="Helvetica,sans-Serif" font-size="10.00">+</text>
<text text-anchor="start" x="48" y="-167.5" font-family="Helvetica,sans-Serif" font-size="10.00">GroupItem()</text>
<text text-anchor="start" x="23.5" y="-152.5" font-family="Helvetica,sans-Serif" font-size="10.00">+</text>
<text text-anchor="start" x="48" y="-152.5" font-family="Helvetica,sans-Serif" font-size="10.00">staticItemType()</text>
<polygon fill="#666666" stroke="#666666" points="8,-192.5 8,-192.5 155,-192.5 155,-192.5 8,-192.5"/>
<polygon fill="#666666" stroke="#666666" points="8,-177.5 8,-177.5 155,-177.5 155,-177.5 8,-177.5"/>
<polygon fill="none" stroke="#666666" points="7.5,-146 7.5,-221 154.5,-221 154.5,-146 7.5,-146"/>
</a>
</g>
</g>
<!-- Node1&#45;&gt;Node2 -->
<g id="edge1_Node000001_Node000002" class="edge">
<title>Node1&#45;&gt;Node2</title>
<g id="a_edge1_Node000001_Node000002"><a xlink:title=" ">
<path fill="none" stroke="#63b8ff" d="M491.81,-553.21C397.59,-533.51 229.92,-484.89 136,-377 97.55,-332.83 85.88,-263.41 82.41,-221.11"/>
<polygon fill="none" stroke="#63b8ff" points="491.31,-556.68 501.81,-555.25 492.71,-549.82 491.31,-556.68"/>
</a>
</g>
</g>
<!-- Node4 -->
<g id="Node000004" class="node">
<title>Node4</title>
<g id="a_Node000004"><a xlink:href="../../d1/dcc/classBookshelfModel_1_1GroupItem.html" target="_top" xlink:title=" ">
<polygon fill="white" stroke="transparent" points="538.5,-221 391.5,-221 391.5,-146 538.5,-146 538.5,-221"/>
<text text-anchor="start" x="397" y="-208.5" font-family="Helvetica,sans-Serif" font-size="10.00">BookshelfModel::GroupItem</text>
<text text-anchor="start" x="400.5" y="-197.5" font-family="Helvetica,sans-Serif" font-size="10.00">&lt; Item::ITEM_INDEXING &gt;</text>
<text text-anchor="start" x="463.5" y="-182.5" font-family="Helvetica,sans-Serif" font-size="10.00"> </text>
<text text-anchor="start" x="407.5" y="-167.5" font-family="Helvetica,sans-Serif" font-size="10.00">+</text>
<text text-anchor="start" x="432" y="-167.5" font-family="Helvetica,sans-Serif" font-size="10.00">GroupItem()</text>
<text text-anchor="start" x="407.5" y="-152.5" font-family="Helvetica,sans-Serif" font-size="10.00">+</text>
<text text-anchor="start" x="432" y="-152.5" font-family="Helvetica,sans-Serif" font-size="10.00">staticItemType()</text>
<polygon fill="#666666" stroke="#666666" points="392,-192.5 392,-192.5 539,-192.5 539,-192.5 392,-192.5"/>
<polygon fill="#666666" stroke="#666666" points="392,-177.5 392,-177.5 539,-177.5 539,-177.5 392,-177.5"/>
<polygon fill="none" stroke="#666666" points="391.5,-146 391.5,-221 538.5,-221 538.5,-146 391.5,-146"/>
</a>
</g>
</g>
<!-- Node1&#45;&gt;Node4 -->
<g id="edge3_Node000001_Node000004" class="edge">
<title>Node1&#45;&gt;Node4</title>
<g id="a_edge3_Node000001_Node000004"><a xlink:title=" ">
<path fill="none" stroke="#63b8ff" d="M602.69,-403.82C608.35,-348.03 603.92,-287.41 574,-239 565.6,-225.41 552.68,-215.1 538.63,-207.31"/>
<polygon fill="none" stroke="#63b8ff" points="599.21,-403.49 601.57,-413.82 606.17,-404.27 599.21,-403.49"/>
</a>
</g>
</g>
<!-- Node6 -->
<g id="Node000006" class="node">
<title>Node6</title>
<g id="a_Node000006"><a xlink:href="../../d1/dcc/classBookshelfModel_1_1GroupItem.html" target="_top" xlink:title=" ">
<polygon fill="white" stroke="transparent" points="350.5,-221 203.5,-221 203.5,-146 350.5,-146 350.5,-221"/>
<text text-anchor="start" x="209" y="-208.5" font-family="Helvetica,sans-Serif" font-size="10.00">BookshelfModel::GroupItem</text>
<text text-anchor="start" x="209.5" y="-197.5" font-family="Helvetica,sans-Serif" font-size="10.00">&lt; Item::ITEM_LANGUAGE &gt;</text>
<text text-anchor="start" x="275.5" y="-182.5" font-family="Helvetica,sans-Serif" font-size="10.00"> </text>
<text text-anchor="start" x="219.5" y="-167.5" font-family="Helvetica,sans-Serif" font-size="10.00">+</text>
<text text-anchor="start" x="244" y="-167.5" font-family="Helvetica,sans-Serif" font-size="10.00">GroupItem()</text>
<text text-anchor="start" x="219.5" y="-152.5" font-family="Helvetica,sans-Serif" font-size="10.00">+</text>
<text text-anchor="start" x="244" y="-152.5" font-family="Helvetica,sans-Serif" font-size="10.00">staticItemType()</text>
<polygon fill="#666666" stroke="#666666" points="204,-192.5 204,-192.5 351,-192.5 351,-192.5 204,-192.5"/>
<polygon fill="#666666" stroke="#666666" points="204,-177.5 204,-177.5 351,-177.5 351,-177.5 204,-177.5"/>
<polygon fill="none" stroke="#666666" points="203.5,-146 203.5,-221 350.5,-221 350.5,-146 203.5,-146"/>
</a>
</g>
</g>
<!-- Node1&#45;&gt;Node6 -->
<g id="edge5_Node000001_Node000006" class="edge">
<title>Node1&#45;&gt;Node6</title>
<g id="a_edge5_Node000001_Node000006"><a xlink:title=" ">
<path fill="none" stroke="#63b8ff" d="M492.63,-539.91C390.28,-498.06 201.51,-403.15 129,-250 126.91,-245.58 126.2,-243.01 129,-239 133.86,-232.04 168.73,-219.03 203.41,-207.47"/>
<polygon fill="none" stroke="#63b8ff" points="491.37,-543.18 501.96,-543.67 493.99,-536.69 491.37,-543.18"/>
</a>
</g>
</g>
<!-- Node8 -->
<g id="Node000008" class="node">
<title>Node8</title>
<g id="a_Node000008"><a xlink:href="../../d1/dcc/classBookshelfModel_1_1GroupItem.html" target="_top" xlink:title=" ">
<polygon fill="white" stroke="transparent" points="440.5,-360 293.5,-360 293.5,-285 440.5,-285 440.5,-360"/>
<text text-anchor="start" x="299" y="-347.5" font-family="Helvetica,sans-Serif" font-size="10.00">BookshelfModel::GroupItem</text>
<text text-anchor="start" x="344" y="-336.5" font-family="Helvetica,sans-Serif" font-size="10.00">&lt; TYPE &gt;</text>
<text text-anchor="start" x="365.5" y="-321.5" font-family="Helvetica,sans-Serif" font-size="10.00"> </text>
<text text-anchor="start" x="309.5" y="-306.5" font-family="Helvetica,sans-Serif" font-size="10.00">+</text>
<text text-anchor="start" x="334" y="-306.5" font-family="Helvetica,sans-Serif" font-size="10.00">GroupItem()</text>
<text text-anchor="start" x="309.5" y="-291.5" font-family="Helvetica,sans-Serif" font-size="10.00">+</text>
<text text-anchor="start" x="334" y="-291.5" font-family="Helvetica,sans-Serif" font-size="10.00">staticItemType()</text>
<polygon fill="#666666" stroke="#666666" points="294,-331.5 294,-331.5 441,-331.5 441,-331.5 294,-331.5"/>
<polygon fill="#666666" stroke="#666666" points="294,-316.5 294,-316.5 441,-316.5 441,-316.5 294,-316.5"/>
<polygon fill="none" stroke="#666666" points="293.5,-285 293.5,-360 440.5,-360 440.5,-285 293.5,-285"/>
</a>
</g>
</g>
<!-- Node1&#45;&gt;Node8 -->
<g id="edge7_Node000001_Node000008" class="edge">
<title>Node1&#45;&gt;Node8</title>
<g id="a_edge7_Node000001_Node000008"><a xlink:title=" ">
<path fill="none" stroke="#63b8ff" d="M495.32,-483.24C461.76,-441.46 422.59,-392.7 396.43,-360.14"/>
<polygon fill="none" stroke="#63b8ff" points="492.75,-485.63 501.74,-491.23 498.21,-481.24 492.75,-485.63"/>
</a>
</g>
</g>
<!-- Node9 -->
<g id="Node000009" class="node">
<title>Node9</title>
<g id="a_Node000009"><a xlink:href="../../d0/de5/classBookshelfModel_1_1ModuleItem.html" target="_top" xlink:title=" ">
<polygon fill="white" stroke="transparent" points="782,-377 628,-377 628,-268 782,-268 782,-377"/>
<text text-anchor="start" x="633" y="-364.5" font-family="Helvetica,sans-Serif" font-size="10.00">BookshelfModel::ModuleItem</text>
<text text-anchor="start" x="648.5" y="-349.5" font-family="Helvetica,sans-Serif" font-size="10.00">&#45;</text>
<text text-anchor="start" x="673" y="-349.5" font-family="Helvetica,sans-Serif" font-size="10.00">m_moduleInfo</text>
<text text-anchor="start" x="648.5" y="-334.5" font-family="Helvetica,sans-Serif" font-size="10.00">&#45;</text>
<text text-anchor="start" x="673" y="-334.5" font-family="Helvetica,sans-Serif" font-size="10.00">m_parentModel</text>
<text text-anchor="start" x="646" y="-319.5" font-family="Helvetica,sans-Serif" font-size="10.00">+</text>
<text text-anchor="start" x="673" y="-319.5" font-family="Helvetica,sans-Serif" font-size="10.00">data()</text>
<text text-anchor="start" x="646" y="-304.5" font-family="Helvetica,sans-Serif" font-size="10.00">+</text>
<text text-anchor="start" x="673" y="-304.5" font-family="Helvetica,sans-Serif" font-size="10.00">fitFor()</text>
<text text-anchor="start" x="646" y="-289.5" font-family="Helvetica,sans-Serif" font-size="10.00">+</text>
<text text-anchor="start" x="673" y="-289.5" font-family="Helvetica,sans-Serif" font-size="10.00">moduleInfo()</text>
<text text-anchor="start" x="646" y="-274.5" font-family="Helvetica,sans-Serif" font-size="10.00">+</text>
<text text-anchor="start" x="673" y="-274.5" font-family="Helvetica,sans-Serif" font-size="10.00">ModuleItem()</text>
<polygon fill="#666666" stroke="#666666" points="628,-359.5 628,-359.5 782,-359.5 782,-359.5 628,-359.5"/>
<polygon fill="#666666" stroke="#666666" points="628,-329.5 628,-329.5 671,-329.5 671,-329.5 628,-329.5"/>
<polygon fill="#666666" stroke="#666666" points="671,-329.5 671,-329.5 782,-329.5 782,-329.5 671,-329.5"/>
<polygon fill="none" stroke="#666666" points="628,-268 628,-377 782,-377 782,-268 628,-268"/>
</a>
</g>
</g>
<!-- Node1&#45;&gt;Node9 -->
<g id="edge11_Node000001_Node000009" class="edge">
<title>Node1&#45;&gt;Node9</title>
<g id="a_edge11_Node000001_Node000009"><a xlink:title=" ">
<path fill="none" stroke="#63b8ff" d="M625.52,-456.8C641.98,-429.19 658.97,-400.69 673,-377.17"/>
<polygon fill="none" stroke="#63b8ff" points="622.31,-455.35 620.19,-465.73 628.32,-458.93 622.31,-455.35"/>
</a>
</g>
</g>
<!-- Node10 -->
<g id="Node000010" class="node">
<title>Node10</title>
<g id="a_Node000010"><a xlink:href="../../d2/d07/classBookshelfModel_1_1RootItem.html" target="_top" xlink:title=" ">
<polygon fill="white" stroke="transparent" points="940,-354.5 800,-354.5 800,-290.5 940,-290.5 940,-354.5"/>
<text text-anchor="start" x="805" y="-342.5" font-family="Helvetica,sans-Serif" font-size="10.00">BookshelfModel::RootItem</text>
<text text-anchor="start" x="868" y="-327.5" font-family="Helvetica,sans-Serif" font-size="10.00"> </text>
<text text-anchor="start" x="820.5" y="-312.5" font-family="Helvetica,sans-Serif" font-size="10.00">+</text>
<text text-anchor="start" x="850" y="-312.5" font-family="Helvetica,sans-Serif" font-size="10.00">fitFor()</text>
<text text-anchor="start" x="820.5" y="-297.5" font-family="Helvetica,sans-Serif" font-size="10.00">+</text>
<text text-anchor="start" x="850" y="-297.5" font-family="Helvetica,sans-Serif" font-size="10.00">RootItem()</text>
<polygon fill="#666666" stroke="#666666" points="800,-337.5 800,-337.5 940,-337.5 940,-337.5 800,-337.5"/>
<polygon fill="#666666" stroke="#666666" points="800,-322.5 800,-322.5 940,-322.5 940,-322.5 800,-322.5"/>
<polygon fill="none" stroke="#666666" points="800,-290.5 800,-354.5 940,-354.5 940,-290.5 800,-290.5"/>
</a>
</g>
</g>
<!-- Node1&#45;&gt;Node10 -->
<g id="edge12_Node000001_Node000010" class="edge">
<title>Node1&#45;&gt;Node10</title>
<g id="a_edge12_Node000001_Node000010"><a xlink:title=" ">
<path fill="none" stroke="#63b8ff" d="M628.34,-512.37C689.98,-464.2 779.12,-394.53 830.14,-354.65"/>
<polygon fill="none" stroke="#63b8ff" points="625.94,-509.81 620.21,-518.72 630.25,-515.32 625.94,-509.81"/>
</a>
</g>
</g>
<!-- Node3 -->
<g id="Node000003" class="node">
<title>Node3</title>
<g id="a_Node000003"><a xlink:href="../../d8/d6d/classBookshelfModel_1_1CategoryItem.html" target="_top" xlink:title=" ">
<polygon fill="white" stroke="transparent" points="162,-109 0,-109 0,0 162,0 162,-109"/>
<text text-anchor="start" x="5" y="-96.5" font-family="Helvetica,sans-Serif" font-size="10.00">BookshelfModel::CategoryItem</text>
<text text-anchor="start" x="23" y="-81.5" font-family="Helvetica,sans-Serif" font-size="10.00">&#45;</text>
<text text-anchor="start" x="50" y="-81.5" font-family="Helvetica,sans-Serif" font-size="10.00">m_category</text>
<text text-anchor="start" x="20.5" y="-66.5" font-family="Helvetica,sans-Serif" font-size="10.00">+</text>
<text text-anchor="start" x="50" y="-66.5" font-family="Helvetica,sans-Serif" font-size="10.00">category()</text>
<text text-anchor="start" x="20.5" y="-51.5" font-family="Helvetica,sans-Serif" font-size="10.00">+</text>
<text text-anchor="start" x="50" y="-51.5" font-family="Helvetica,sans-Serif" font-size="10.00">CategoryItem()</text>
<text text-anchor="start" x="20.5" y="-36.5" font-family="Helvetica,sans-Serif" font-size="10.00">+</text>
<text text-anchor="start" x="50" y="-36.5" font-family="Helvetica,sans-Serif" font-size="10.00">data()</text>
<text text-anchor="start" x="20.5" y="-21.5" font-family="Helvetica,sans-Serif" font-size="10.00">+</text>
<text text-anchor="start" x="50" y="-21.5" font-family="Helvetica,sans-Serif" font-size="10.00">fitFor()</text>
<text text-anchor="start" x="20.5" y="-6.5" font-family="Helvetica,sans-Serif" font-size="10.00">+</text>
<text text-anchor="start" x="50" y="-6.5" font-family="Helvetica,sans-Serif" font-size="10.00">operator&lt;()</text>
<polygon fill="#666666" stroke="#666666" points="0,-91.5 0,-91.5 162,-91.5 162,-91.5 0,-91.5"/>
<polygon fill="#666666" stroke="#666666" points="0,-76.5 0,-76.5 48,-76.5 48,-76.5 0,-76.5"/>
<polygon fill="#666666" stroke="#666666" points="48,-76.5 48,-76.5 162,-76.5 162,-76.5 48,-76.5"/>
<polygon fill="none" stroke="#666666" points="0,0 0,-109 162,-109 162,0 0,0"/>
</a>
</g>
</g>
<!-- Node2&#45;&gt;Node3 -->
<g id="edge2_Node000002_Node000003" class="edge">
<title>Node2&#45;&gt;Node3</title>
<g id="a_edge2_Node000002_Node000003"><a xlink:title=" ">
<path fill="none" stroke="#63b8ff" d="M81,-135.55C81,-126.96 81,-117.93 81,-109.16"/>
<polygon fill="none" stroke="#63b8ff" points="77.5,-135.77 81,-145.77 84.5,-135.77 77.5,-135.77"/>
</a>
</g>
</g>
<!-- Node5 -->
<g id="Node000005" class="node">
<title>Node5</title>
<g id="a_Node000005"><a xlink:href="../../d9/dea/classBookshelfModel_1_1IndexingItem.html" target="_top" xlink:title=" ">
<polygon fill="white" stroke="transparent" points="545,-94 385,-94 385,-15 545,-15 545,-94"/>
<text text-anchor="start" x="390" y="-81.5" font-family="Helvetica,sans-Serif" font-size="10.00">BookshelfModel::IndexingItem</text>
<text text-anchor="start" x="408" y="-66.5" font-family="Helvetica,sans-Serif" font-size="10.00">&#45;</text>
<text text-anchor="start" x="435" y="-66.5" font-family="Helvetica,sans-Serif" font-size="10.00">m_indexed</text>
<text text-anchor="start" x="405.5" y="-51.5" font-family="Helvetica,sans-Serif" font-size="10.00">+</text>
<text text-anchor="start" x="435" y="-51.5" font-family="Helvetica,sans-Serif" font-size="10.00">data()</text>
<text text-anchor="start" x="405.5" y="-36.5" font-family="Helvetica,sans-Serif" font-size="10.00">+</text>
<text text-anchor="start" x="435" y="-36.5" font-family="Helvetica,sans-Serif" font-size="10.00">fitFor()</text>
<text text-anchor="start" x="405.5" y="-21.5" font-family="Helvetica,sans-Serif" font-size="10.00">+</text>
<text text-anchor="start" x="435" y="-21.5" font-family="Helvetica,sans-Serif" font-size="10.00">IndexingItem()</text>
<polygon fill="#666666" stroke="#666666" points="385,-76.5 385,-76.5 545,-76.5 545,-76.5 385,-76.5"/>
<polygon fill="#666666" stroke="#666666" points="385,-61.5 385,-61.5 433,-61.5 433,-61.5 385,-61.5"/>
<polygon fill="#666666" stroke="#666666" points="433,-61.5 433,-61.5 545,-61.5 545,-61.5 433,-61.5"/>
<polygon fill="none" stroke="#666666" points="385,-15 385,-94 545,-94 545,-15 385,-15"/>
</a>
</g>
</g>
<!-- Node4&#45;&gt;Node5 -->
<g id="edge4_Node000004_Node000005" class="edge">
<title>Node4&#45;&gt;Node5</title>
<g id="a_edge4_Node000004_Node000005"><a xlink:title=" ">
<path fill="none" stroke="#63b8ff" d="M465,-135.64C465,-122.06 465,-107.4 465,-94.36"/>
<polygon fill="none" stroke="#63b8ff" points="461.5,-135.77 465,-145.77 468.5,-135.77 461.5,-135.77"/>
</a>
</g>
</g>
<!-- Node7 -->
<g id="Node000007" class="node">
<title>Node7</title>
<g id="a_Node000007"><a xlink:href="../../db/da1/classBookshelfModel_1_1LanguageItem.html" target="_top" xlink:title=" ">
<polygon fill="white" stroke="transparent" points="359.5,-94 194.5,-94 194.5,-15 359.5,-15 359.5,-94"/>
<text text-anchor="start" x="200" y="-81.5" font-family="Helvetica,sans-Serif" font-size="10.00">BookshelfModel::LanguageItem</text>
<text text-anchor="start" x="218" y="-66.5" font-family="Helvetica,sans-Serif" font-size="10.00">&#45;</text>
<text text-anchor="start" x="245" y="-66.5" font-family="Helvetica,sans-Serif" font-size="10.00">m_language</text>
<text text-anchor="start" x="215.5" y="-51.5" font-family="Helvetica,sans-Serif" font-size="10.00">+</text>
<text text-anchor="start" x="245" y="-51.5" font-family="Helvetica,sans-Serif" font-size="10.00">data()</text>
<text text-anchor="start" x="215.5" y="-36.5" font-family="Helvetica,sans-Serif" font-size="10.00">+</text>
<text text-anchor="start" x="245" y="-36.5" font-family="Helvetica,sans-Serif" font-size="10.00">fitFor()</text>
<text text-anchor="start" x="215.5" y="-21.5" font-family="Helvetica,sans-Serif" font-size="10.00">+</text>
<text text-anchor="start" x="245" y="-21.5" font-family="Helvetica,sans-Serif" font-size="10.00">LanguageItem()</text>
<polygon fill="#666666" stroke="#666666" points="195,-76.5 195,-76.5 360,-76.5 360,-76.5 195,-76.5"/>
<polygon fill="#666666" stroke="#666666" points="195,-61.5 195,-61.5 243,-61.5 243,-61.5 195,-61.5"/>
<polygon fill="#666666" stroke="#666666" points="243,-61.5 243,-61.5 360,-61.5 360,-61.5 243,-61.5"/>
<polygon fill="none" stroke="#666666" points="194.5,-15 194.5,-94 359.5,-94 359.5,-15 194.5,-15"/>
</a>
</g>
</g>
<!-- Node6&#45;&gt;Node7 -->
<g id="edge6_Node000006_Node000007" class="edge">
<title>Node6&#45;&gt;Node7</title>
<g id="a_edge6_Node000006_Node000007"><a xlink:title=" ">
<path fill="none" stroke="#63b8ff" d="M277,-135.64C277,-122.06 277,-107.4 277,-94.36"/>
<polygon fill="none" stroke="#63b8ff" points="273.5,-135.77 277,-145.77 280.5,-135.77 273.5,-135.77"/>
</a>
</g>
</g>
<!-- Node8&#45;&gt;Node2 -->
<g id="edge8_Node000008_Node000002" class="edge">
<title>Node8&#45;&gt;Node2</title>
<g id="a_edge8_Node000008_Node000002"><a xlink:title=" ">
<path fill="none" stroke="orange" d="M283.65,-304.22C240.75,-292.96 188.82,-275.52 147,-250 134.32,-242.26 122.23,-231.63 111.95,-221.18"/>
<polygon fill="orange" stroke="orange" points="282.94,-307.65 293.5,-306.74 284.68,-300.87 282.94,-307.65"/>
</a>
</g>
<text text-anchor="middle" x="215" y="-242" font-family="Helvetica,sans-Serif" font-size="10.00" fill="grey"> &lt; Item::ITEM_CATEGORY &gt;</text>
</g>
<!-- Node8&#45;&gt;Node4 -->
<g id="edge9_Node000008_Node000004" class="edge">
<title>Node8&#45;&gt;Node4</title>
<g id="a_edge9_Node000008_Node000004"><a xlink:title=" ">
<path fill="none" stroke="orange" d="M408.63,-277.43C416.12,-268.64 423.58,-259.25 430,-250 436.25,-241 442.2,-230.75 447.38,-221.08"/>
<polygon fill="orange" stroke="orange" points="405.98,-275.15 402.06,-284.99 411.26,-279.74 405.98,-275.15"/>
</a>
</g>
<text text-anchor="middle" x="503.5" y="-242" font-family="Helvetica,sans-Serif" font-size="10.00" fill="grey"> &lt; Item::ITEM_INDEXING &gt;</text>
</g>
<!-- Node8&#45;&gt;Node6 -->
<g id="edge10_Node000008_Node000006" class="edge">
<title>Node8&#45;&gt;Node6</title>
<g id="a_edge10_Node000008_Node000006"><a xlink:title=" ">
<path fill="none" stroke="orange" d="M311.96,-277.67C303.97,-269.22 296.57,-259.89 291,-250 286.09,-241.29 282.9,-231.04 280.83,-221.27"/>
<polygon fill="orange" stroke="orange" points="309.58,-280.24 319.11,-284.87 314.55,-275.3 309.58,-280.24"/>
</a>
</g>
<text text-anchor="middle" x="360.5" y="-242" font-family="Helvetica,sans-Serif" font-size="10.00" fill="grey"> &lt; Item::ITEM_LANGUAGE &gt;</text>
</g>
</g>
</svg>

<g id="navigator" transform="translate(0 0)" fill="#404254">
  <rect fill="#f2f5e9" fill-opacity="0.5" stroke="#606060" stroke-width=".5" x="0" y="0" width="60" height="60"/>
  <use id="zoomplus" xlink:href="#zoomPlus" x="17" y="9" onmousedown="handleZoom(evt,'in')"/>
  <use id="zoomminus" xlink:href="#zoomMin" x="42" y="9" onmousedown="handleZoom(evt,'out')"/>
  <use id="reset" xlink:href="#resetDef" x="30" y="36" onmousedown="handleReset()"/>
   <use id="arrowup" xlink:href="#arrowUp" x="0" y="0" onmousedown="handlePan(0,-1)"/>
  <use id="arrowright" xlink:href="#arrowRight" x="0" y="0" onmousedown="handlePan(1,0)"/>
  <use id="arrowdown" xlink:href="#arrowDown" x="0" y="0" onmousedown="handlePan(0,1)"/>
  <use id="arrowleft" xlink:href="#arrowLeft" x="0" y="0" onmousedown="handlePan(-1,0)"/>
</g>
<svg viewBox="0 0 15 15" width="100%" height="30px" preserveAspectRatio="xMaxYMin meet">
 <g id="arrow_out" transform="scale(0.3 0.3)">
  <a xlink:href="classBookshelfModel_1_1Item__inherit__graph_org.svg" target="_base">
   <rect id="button" ry="5" rx="5" y="6" x="6" height="38" width="38"
        fill="#f2f5e9" fill-opacity="0.5" stroke="#606060" stroke-width="1.0"/>
   <path id="arrow"
     d="M 11.500037,31.436501 C 11.940474,20.09759 22.043105,11.32322 32.158766,21.979434 L 37.068811,17.246167 C 37.068811,17.246167 37.088388,32 37.088388,32 L 22.160133,31.978069 C 22.160133,31.978069 26.997745,27.140456 26.997745,27.140456 C 18.528582,18.264221 13.291696,25.230495 11.500037,31.436501 z"
     style="fill:#404040;"/>
  </a>
 </g>
</svg>

<style type='text/css'>
<![CDATA[
[data-mouse-over-selected='false'] { opacity: 0.7; }
[data-mouse-over-selected='true']  { opacity: 1.0; }
]]>
</style>
<script type="application/ecmascript"><![CDATA[
document.addEventListener('DOMContentLoaded', (event) => {
  highlightEdges();
  highlightAdjacentNodes();
});
]]></script>
</svg>
