<?xml version="1.0" encoding="UTF-8" standalone="no"?>
<!DOCTYPE svg PUBLIC "-//W3C//DTD SVG 1.1//EN"
 "http://www.w3.org/Graphics/SVG/1.1/DTD/svg11.dtd">
<!-- Generated by graphviz version 2.43.0 (0)
 -->
<!-- Title: BookshelfModel::Item Pages: 1 -->
<svg width="965pt" height="658pt"
 viewBox="0.00 0.00 965.00 658.00" xmlns="http://www.w3.org/2000/svg" xmlns:xlink="http://www.w3.org/1999/xlink">
<g id="graph0" class="graph" transform="scale(1 1) rotate(0) translate(4 654)">
<title>BookshelfModel::Item</title>
<polygon fill="white" stroke="transparent" points="-4,4 -4,-654 961,-654 961,4 -4,4"/>
<!-- Node1 -->
<g id="node1" class="node">
<title>Node1</title>
<g id="a_node1"><a xlink:title=" ">
<polygon fill="#bfbfbf" stroke="black" points="503,-405.5 503,-649.5 627,-649.5 627,-405.5 503,-405.5"/>
<text text-anchor="middle" x="565" y="-637.5" font-family="Helvetica,sans-Serif" font-size="10.00">BookshelfModel::Item</text>
<polyline fill="none" stroke="black" points="503,-630.5 627,-630.5 "/>
<text text-anchor="start" x="511" y="-618.5" font-family="Helvetica,sans-Serif" font-size="10.00">&#45; m_checkState</text>
<text text-anchor="start" x="511" y="-607.5" font-family="Helvetica,sans-Serif" font-size="10.00">&#45; m_children</text>
<text text-anchor="start" x="511" y="-596.5" font-family="Helvetica,sans-Serif" font-size="10.00">&#45; m_parent</text>
<text text-anchor="start" x="511" y="-585.5" font-family="Helvetica,sans-Serif" font-size="10.00">&#45; m_type</text>
<polyline fill="none" stroke="black" points="503,-578.5 627,-578.5 "/>
<text text-anchor="start" x="511" y="-566.5" font-family="Helvetica,sans-Serif" font-size="10.00">+ checkState()</text>
<text text-anchor="start" x="511" y="-555.5" font-family="Helvetica,sans-Serif" font-size="10.00">+ childIndex()</text>
<text text-anchor="start" x="511" y="-544.5" font-family="Helvetica,sans-Serif" font-size="10.00">+ children()</text>
<text text-anchor="start" x="511" y="-533.5" font-family="Helvetica,sans-Serif" font-size="10.00">+ data()</text>
<text text-anchor="start" x="511" y="-522.5" font-family="Helvetica,sans-Serif" font-size="10.00">+ fitFor()</text>
<text text-anchor="start" x="511" y="-511.5" font-family="Helvetica,sans-Serif" font-size="10.00">+ getGroupItem()</text>
<text text-anchor="start" x="511" y="-500.5" font-family="Helvetica,sans-Serif" font-size="10.00">+ indexFor()</text>
<text text-anchor="start" x="511" y="-489.5" font-family="Helvetica,sans-Serif" font-size="10.00">+ insertChild()</text>
<text text-anchor="start" x="511" y="-478.5" font-family="Helvetica,sans-Serif" font-size="10.00">+ Item()</text>
<text text-anchor="start" x="511" y="-467.5" font-family="Helvetica,sans-Serif" font-size="10.00">+ operator&lt;()</text>
<text text-anchor="start" x="511" y="-456.5" font-family="Helvetica,sans-Serif" font-size="10.00">+ parent()</text>
<text text-anchor="start" x="511" y="-445.5" font-family="Helvetica,sans-Serif" font-size="10.00">+ setCheckState()</text>
<text text-anchor="start" x="511" y="-434.5" font-family="Helvetica,sans-Serif" font-size="10.00">+ type()</text>
<text text-anchor="start" x="511" y="-423.5" font-family="Helvetica,sans-Serif" font-size="10.00">+ ~Item()</text>
<text text-anchor="start" x="511" y="-412.5" font-family="Helvetica,sans-Serif" font-size="10.00">&#45; setParent()</text>
</a>
</g>
</g>
<!-- Node2 -->
<g id="node2" class="node">
<title>Node2</title>
<g id="a_node2"><a xlink:href="../../d1/dcc/classBookshelfModel_1_1GroupItem.html" target="_top" xlink:title=" ">
<polygon fill="white" stroke="black" points="6.5,-139.5 6.5,-218.5 159.5,-218.5 159.5,-139.5 6.5,-139.5"/>
<text text-anchor="start" x="14.5" y="-206.5" font-family="Helvetica,sans-Serif" font-size="10.00">BookshelfModel::GroupItem</text>
<text text-anchor="middle" x="83" y="-195.5" font-family="Helvetica,sans-Serif" font-size="10.00">&lt; Item::ITEM_INDEXING &gt;</text>
<polyline fill="none" stroke="black" points="6.5,-188.5 159.5,-188.5 "/>
<text text-anchor="middle" x="83" y="-176.5" font-family="Helvetica,sans-Serif" font-size="10.00"> </text>
<polyline fill="none" stroke="black" points="6.5,-169.5 159.5,-169.5 "/>
<text text-anchor="start" x="14.5" y="-157.5" font-family="Helvetica,sans-Serif" font-size="10.00">+ GroupItem()</text>
<text text-anchor="start" x="14.5" y="-146.5" font-family="Helvetica,sans-Serif" font-size="10.00">+ staticItemType()</text>
</a>
</g>
</g>
<!-- Node1&#45;&gt;Node2 -->
<g id="edge1" class="edge">
<title>Node1&#45;&gt;Node2</title>
<path fill="none" stroke="midnightblue" d="M492.57,-519.25C397.99,-505.94 233.4,-468.92 139,-368 100.61,-326.96 88.45,-260.73 84.65,-218.82"/>
<polygon fill="none" stroke="midnightblue" points="492.24,-522.74 502.62,-520.62 493.18,-515.81 492.24,-522.74"/>
</g>
<!-- Node4 -->
<g id="node4" class="node">
<title>Node4</title>
<g id="a_node4"><a xlink:href="../../d1/dcc/classBookshelfModel_1_1GroupItem.html" target="_top" xlink:title=" ">
<polygon fill="white" stroke="black" points="391.5,-139.5 391.5,-218.5 544.5,-218.5 544.5,-139.5 391.5,-139.5"/>
<text text-anchor="start" x="399.5" y="-206.5" font-family="Helvetica,sans-Serif" font-size="10.00">BookshelfModel::GroupItem</text>
<text text-anchor="middle" x="468" y="-195.5" font-family="Helvetica,sans-Serif" font-size="10.00">&lt; Item::ITEM_CATEGORY &gt;</text>
<polyline fill="none" stroke="black" points="391.5,-188.5 544.5,-188.5 "/>
<text text-anchor="middle" x="468" y="-176.5" font-family="Helvetica,sans-Serif" font-size="10.00"> </text>
<polyline fill="none" stroke="black" points="391.5,-169.5 544.5,-169.5 "/>
<text text-anchor="start" x="399.5" y="-157.5" font-family="Helvetica,sans-Serif" font-size="10.00">+ GroupItem()</text>
<text text-anchor="start" x="399.5" y="-146.5" font-family="Helvetica,sans-Serif" font-size="10.00">+ staticItemType()</text>
</a>
</g>
</g>
<!-- Node1&#45;&gt;Node4 -->
<g id="edge3" class="edge">
<title>Node1&#45;&gt;Node4</title>
<path fill="none" stroke="midnightblue" d="M601.92,-395.34C609.27,-342.71 607.45,-283.6 579,-237 570.81,-223.6 558.36,-213.21 544.72,-205.21"/>
<polygon fill="none" stroke="midnightblue" points="598.43,-395.02 600.39,-405.44 605.35,-396.07 598.43,-395.02"/>
</g>
<!-- Node6 -->
<g id="node6" class="node">
<title>Node6</title>
<g id="a_node6"><a xlink:href="../../d1/dcc/classBookshelfModel_1_1GroupItem.html" target="_top" xlink:title=" ">
<polygon fill="white" stroke="black" points="200.5,-139.5 200.5,-218.5 353.5,-218.5 353.5,-139.5 200.5,-139.5"/>
<text text-anchor="start" x="208.5" y="-206.5" font-family="Helvetica,sans-Serif" font-size="10.00">BookshelfModel::GroupItem</text>
<text text-anchor="middle" x="277" y="-195.5" font-family="Helvetica,sans-Serif" font-size="10.00">&lt; Item::ITEM_LANGUAGE &gt;</text>
<polyline fill="none" stroke="black" points="200.5,-188.5 353.5,-188.5 "/>
<text text-anchor="middle" x="277" y="-176.5" font-family="Helvetica,sans-Serif" font-size="10.00"> </text>
<polyline fill="none" stroke="black" points="200.5,-169.5 353.5,-169.5 "/>
<text text-anchor="start" x="208.5" y="-157.5" font-family="Helvetica,sans-Serif" font-size="10.00">+ GroupItem()</text>
<text text-anchor="start" x="208.5" y="-146.5" font-family="Helvetica,sans-Serif" font-size="10.00">+ staticItemType()</text>
</a>
</g>
</g>
<!-- Node1&#45;&gt;Node6 -->
<g id="edge5" class="edge">
<title>Node1&#45;&gt;Node6</title>
<path fill="none" stroke="midnightblue" d="M493,-506.07C389.41,-472.16 203.07,-393.2 133,-248 130.88,-243.6 130.25,-241.04 133,-237 135.27,-233.66 167.05,-220.93 200.18,-208.34"/>
<polygon fill="none" stroke="midnightblue" points="492.17,-509.47 502.76,-509.21 494.32,-502.81 492.17,-509.47"/>
</g>
<!-- Node8 -->
<g id="node8" class="node">
<title>Node8</title>
<g id="a_node8"><a xlink:href="../../d1/dcc/classBookshelfModel_1_1GroupItem.html" target="_top" xlink:title=" ">
<polygon fill="white" stroke="black" points="293.5,-277.5 293.5,-356.5 446.5,-356.5 446.5,-277.5 293.5,-277.5"/>
<text text-anchor="start" x="301.5" y="-344.5" font-family="Helvetica,sans-Serif" font-size="10.00">BookshelfModel::GroupItem</text>
<text text-anchor="middle" x="370" y="-333.5" font-family="Helvetica,sans-Serif" font-size="10.00">&lt; TYPE &gt;</text>
<polyline fill="none" stroke="black" points="293.5,-326.5 446.5,-326.5 "/>
<text text-anchor="middle" x="370" y="-314.5" font-family="Helvetica,sans-Serif" font-size="10.00"> </text>
<polyline fill="none" stroke="black" points="293.5,-307.5 446.5,-307.5 "/>
<text text-anchor="start" x="301.5" y="-295.5" font-family="Helvetica,sans-Serif" font-size="10.00">+ GroupItem()</text>
<text text-anchor="start" x="301.5" y="-284.5" font-family="Helvetica,sans-Serif" font-size="10.00">+ staticItemType()</text>
</a>
</g>
</g>
<!-- Node1&#45;&gt;Node8 -->
<g id="edge7" class="edge">
<title>Node1&#45;&gt;Node8</title>
<path fill="none" stroke="midnightblue" d="M495.58,-452.27C465.35,-419.95 431.19,-383.42 406.13,-356.64"/>
<polygon fill="none" stroke="midnightblue" points="493.38,-455.04 502.76,-459.96 498.49,-450.26 493.38,-455.04"/>
</g>
<!-- Node9 -->
<g id="node9" class="node">
<title>Node9</title>
<g id="a_node9"><a xlink:href="../../d0/de5/classBookshelfModel_1_1ModuleItem.html" target="_top" xlink:title=" ">
<polygon fill="white" stroke="black" points="633,-266.5 633,-367.5 793,-367.5 793,-266.5 633,-266.5"/>
<text text-anchor="middle" x="713" y="-355.5" font-family="Helvetica,sans-Serif" font-size="10.00">BookshelfModel::ModuleItem</text>
<polyline fill="none" stroke="black" points="633,-348.5 793,-348.5 "/>
<text text-anchor="start" x="641" y="-336.5" font-family="Helvetica,sans-Serif" font-size="10.00">&#45; m_moduleInfo</text>
<text text-anchor="start" x="641" y="-325.5" font-family="Helvetica,sans-Serif" font-size="10.00">&#45; m_parentModel</text>
<polyline fill="none" stroke="black" points="633,-318.5 793,-318.5 "/>
<text text-anchor="start" x="641" y="-306.5" font-family="Helvetica,sans-Serif" font-size="10.00">+ data()</text>
<text text-anchor="start" x="641" y="-295.5" font-family="Helvetica,sans-Serif" font-size="10.00">+ fitFor()</text>
<text text-anchor="start" x="641" y="-284.5" font-family="Helvetica,sans-Serif" font-size="10.00">+ moduleInfo()</text>
<text text-anchor="start" x="641" y="-273.5" font-family="Helvetica,sans-Serif" font-size="10.00">+ ModuleItem()</text>
</a>
</g>
</g>
<!-- Node1&#45;&gt;Node9 -->
<g id="edge11" class="edge">
<title>Node1&#45;&gt;Node9</title>
<path fill="none" stroke="midnightblue" d="M633.04,-430.65C648.53,-408.82 664.38,-386.49 677.84,-367.54"/>
<polygon fill="none" stroke="midnightblue" points="630.06,-428.8 627.12,-438.98 635.76,-432.85 630.06,-428.8"/>
</g>
<!-- Node10 -->
<g id="node10" class="node">
<title>Node10</title>
<g id="a_node10"><a xlink:href="../../d2/d07/classBookshelfModel_1_1RootItem.html" target="_top" xlink:title=" ">
<polygon fill="white" stroke="black" points="811,-283 811,-351 957,-351 957,-283 811,-283"/>
<text text-anchor="middle" x="884" y="-339" font-family="Helvetica,sans-Serif" font-size="10.00">BookshelfModel::RootItem</text>
<polyline fill="none" stroke="black" points="811,-332 957,-332 "/>
<text text-anchor="middle" x="884" y="-320" font-family="Helvetica,sans-Serif" font-size="10.00"> </text>
<polyline fill="none" stroke="black" points="811,-313 957,-313 "/>
<text text-anchor="start" x="819" y="-301" font-family="Helvetica,sans-Serif" font-size="10.00">+ fitFor()</text>
<text text-anchor="start" x="819" y="-290" font-family="Helvetica,sans-Serif" font-size="10.00">+ RootItem()</text>
</a>
</g>
</g>
<!-- Node1&#45;&gt;Node10 -->
<g id="edge12" class="edge">
<title>Node1&#45;&gt;Node10</title>
<path fill="none" stroke="midnightblue" d="M635.92,-480.15C695.83,-440.99 780.16,-385.87 833.44,-351.05"/>
<polygon fill="none" stroke="midnightblue" points="633.72,-477.4 627.26,-485.8 637.55,-483.26 633.72,-477.4"/>
</g>
<!-- Node3 -->
<g id="node3" class="node">
<title>Node3</title>
<g id="a_node3"><a xlink:href="../../d9/dea/classBookshelfModel_1_1IndexingItem.html" target="_top" xlink:title=" ">
<polygon fill="white" stroke="black" points="0,-11.5 0,-90.5 166,-90.5 166,-11.5 0,-11.5"/>
<text text-anchor="middle" x="83" y="-78.5" font-family="Helvetica,sans-Serif" font-size="10.00">BookshelfModel::IndexingItem</text>
<polyline fill="none" stroke="black" points="0,-71.5 166,-71.5 "/>
<text text-anchor="start" x="8" y="-59.5" font-family="Helvetica,sans-Serif" font-size="10.00">&#45; m_indexed</text>
<polyline fill="none" stroke="black" points="0,-52.5 166,-52.5 "/>
<text text-anchor="start" x="8" y="-40.5" font-family="Helvetica,sans-Serif" font-size="10.00">+ data()</text>
<text text-anchor="start" x="8" y="-29.5" font-family="Helvetica,sans-Serif" font-size="10.00">+ fitFor()</text>
<text text-anchor="start" x="8" y="-18.5" font-family="Helvetica,sans-Serif" font-size="10.00">+ IndexingItem()</text>
</a>
</g>
</g>
<!-- Node2&#45;&gt;Node3 -->
<g id="edge2" class="edge">
<title>Node2&#45;&gt;Node3</title>
<path fill="none" stroke="midnightblue" d="M83,-128.83C83,-116.25 83,-102.9 83,-90.92"/>
<polygon fill="none" stroke="midnightblue" points="79.5,-129.17 83,-139.17 86.5,-129.17 79.5,-129.17"/>
</g>
<!-- Node5 -->
<g id="node5" class="node">
<title>Node5</title>
<g id="a_node5"><a xlink:href="../../d8/d6d/classBookshelfModel_1_1CategoryItem.html" target="_top" xlink:title=" ">
<polygon fill="white" stroke="black" points="384,-0.5 384,-101.5 552,-101.5 552,-0.5 384,-0.5"/>
<text text-anchor="middle" x="468" y="-89.5" font-family="Helvetica,sans-Serif" font-size="10.00">BookshelfModel::CategoryItem</text>
<polyline fill="none" stroke="black" points="384,-82.5 552,-82.5 "/>
<text text-anchor="start" x="392" y="-70.5" font-family="Helvetica,sans-Serif" font-size="10.00">&#45; m_category</text>
<polyline fill="none" stroke="black" points="384,-63.5 552,-63.5 "/>
<text text-anchor="start" x="392" y="-51.5" font-family="Helvetica,sans-Serif" font-size="10.00">+ category()</text>
<text text-anchor="start" x="392" y="-40.5" font-family="Helvetica,sans-Serif" font-size="10.00">+ CategoryItem()</text>
<text text-anchor="start" x="392" y="-29.5" font-family="Helvetica,sans-Serif" font-size="10.00">+ data()</text>
<text text-anchor="start" x="392" y="-18.5" font-family="Helvetica,sans-Serif" font-size="10.00">+ fitFor()</text>
<text text-anchor="start" x="392" y="-7.5" font-family="Helvetica,sans-Serif" font-size="10.00">+ operator&lt;()</text>
</a>
</g>
</g>
<!-- Node4&#45;&gt;Node5 -->
<g id="edge4" class="edge">
<title>Node4&#45;&gt;Node5</title>
<path fill="none" stroke="midnightblue" d="M468,-128.89C468,-119.94 468,-110.6 468,-101.63"/>
<polygon fill="none" stroke="midnightblue" points="464.5,-129.17 468,-139.17 471.5,-129.17 464.5,-129.17"/>
</g>
<!-- Node7 -->
<g id="node7" class="node">
<title>Node7</title>
<g id="a_node7"><a xlink:href="../../db/da1/classBookshelfModel_1_1LanguageItem.html" target="_top" xlink:title=" ">
<polygon fill="white" stroke="black" points="191.5,-11.5 191.5,-90.5 362.5,-90.5 362.5,-11.5 191.5,-11.5"/>
<text text-anchor="middle" x="277" y="-78.5" font-family="Helvetica,sans-Serif" font-size="10.00">BookshelfModel::LanguageItem</text>
<polyline fill="none" stroke="black" points="191.5,-71.5 362.5,-71.5 "/>
<text text-anchor="start" x="199.5" y="-59.5" font-family="Helvetica,sans-Serif" font-size="10.00">&#45; m_language</text>
<polyline fill="none" stroke="black" points="191.5,-52.5 362.5,-52.5 "/>
<text text-anchor="start" x="199.5" y="-40.5" font-family="Helvetica,sans-Serif" font-size="10.00">+ data()</text>
<text text-anchor="start" x="199.5" y="-29.5" font-family="Helvetica,sans-Serif" font-size="10.00">+ fitFor()</text>
<text text-anchor="start" x="199.5" y="-18.5" font-family="Helvetica,sans-Serif" font-size="10.00">+ LanguageItem()</text>
</a>
</g>
</g>
<!-- Node6&#45;&gt;Node7 -->
<g id="edge6" class="edge">
<title>Node6&#45;&gt;Node7</title>
<path fill="none" stroke="midnightblue" d="M277,-128.83C277,-116.25 277,-102.9 277,-90.92"/>
<polygon fill="none" stroke="midnightblue" points="273.5,-129.17 277,-139.17 280.5,-129.17 273.5,-129.17"/>
</g>
<!-- Node8&#45;&gt;Node2 -->
<g id="edge8" class="edge">
<title>Node8&#45;&gt;Node2</title>
<path fill="none" stroke="orange" d="M283.53,-299.39C241.5,-288.83 191.46,-272.43 151,-248 137.99,-240.15 125.64,-229.28 115.12,-218.54"/>
<polygon fill="orange" stroke="orange" points="282.93,-302.84 293.47,-301.82 284.59,-296.04 282.93,-302.84"/>
<text text-anchor="middle" x="217.5" y="-240" font-family="Helvetica,sans-Serif" font-size="10.00"> &lt; Item::ITEM_INDEXING &gt;</text>
</g>
<!-- Node8&#45;&gt;Node4 -->
<g id="edge9" class="edge">
<title>Node8&#45;&gt;Node4</title>
<path fill="none" stroke="orange" d="M415.41,-269.22C421.28,-262.33 426.98,-255.14 432,-248 438.38,-238.93 444.41,-228.6 449.64,-218.77"/>
<polygon fill="orange" stroke="orange" points="412.43,-267.31 408.49,-277.15 417.7,-271.92 412.43,-267.31"/>
<text text-anchor="middle" x="507" y="-240" font-family="Helvetica,sans-Serif" font-size="10.00"> &lt; Item::ITEM_CATEGORY &gt;</text>
</g>
<!-- Node8&#45;&gt;Node6 -->
<g id="edge10" class="edge">
<title>Node8&#45;&gt;Node6</title>
<path fill="none" stroke="orange" d="M310.09,-270.2C303.63,-263.32 297.71,-255.87 293,-248 287.71,-239.15 284.16,-228.69 281.79,-218.65"/>
<polygon fill="orange" stroke="orange" points="307.75,-272.81 317.28,-277.44 312.71,-267.88 307.75,-272.81"/>
<text text-anchor="middle" x="362.5" y="-240" font-family="Helvetica,sans-Serif" font-size="10.00"> &lt; Item::ITEM_LANGUAGE &gt;</text>
</g>
</g>
</svg>
