<?xml version="1.0" encoding="UTF-8" standalone="no"?>
<!DOCTYPE svg PUBLIC "-//W3C//DTD SVG 1.1//EN"
 "http://www.w3.org/Graphics/SVG/1.1/DTD/svg11.dtd">
<!-- Generated by graphviz version 2.43.0 (0)
 -->
<!-- Title: BtActionCollection Pages: 1 -->
<!--zoomable 557 -->
<svg id="main" version="1.1" xmlns="http://www.w3.org/2000/svg" xmlns:xlink="http://www.w3.org/1999/xlink" xml:space="preserve" onload="init(evt)">
<style type="text/css"><![CDATA[
.edge:hover path { stroke: red; }
.edge:hover polygon { stroke: red; fill: red; }
]]></style>
<script type="text/javascript"><![CDATA[
var edges = document.getElementsByTagName('g');
if (edges && edges.length) {
  for (var i=0;i<edges.length;i++) {
    if (edges[i].id.substr(0,4)=='edge') {
      edges[i].setAttribute('class','edge');
    }
  }
}
]]></script>
        <defs>
                <circle id="rim" cx="0" cy="0" r="7"/>
                <circle id="rim2" cx="0" cy="0" r="3.5"/>
                <g id="zoomPlus">
                        <use xlink:href="#rim" fill="#404040">
                                <set attributeName="fill" to="#808080" begin="zoomplus.mouseover" end="zoomplus.mouseout"/>
                        </use>
                        <path d="M-4,0h8M0,-4v8" fill="none" stroke="white" stroke-width="1.5" pointer-events="none"/>
                </g>
                <g id="zoomMin">
                        <use xlink:href="#rim" fill="#404040">
                                <set attributeName="fill" to="#808080" begin="zoomminus.mouseover" end="zoomminus.mouseout"/>
                        </use>
                        <path d="M-4,0h8" fill="none" stroke="white" stroke-width="1.5" pointer-events="none"/>
                </g>
                <g id="dirArrow">
                        <path fill="none" stroke="white" stroke-width="1.5" d="M0,-3.0v7 M-2.5,-0.5L0,-3.0L2.5,-0.5"/>
                </g>
               <g id="resetDef">
                       <use xlink:href="#rim2" fill="#404040">
                               <set attributeName="fill" to="#808080" begin="reset.mouseover" end="reset.mouseout"/>
                       </use>
               </g>
        </defs>

<script type="text/javascript">
var viewWidth = 684;
var viewHeight = 557;
var sectionId = 'dynsection-0';
</script>
<script xlink:href="../../svgpan.js"/>
<svg id="graph" class="graph">
<g id="viewport">
<title>BtActionCollection</title>
<polygon fill="white" stroke="transparent" points="-4,4 -4,-553 679.5,-553 679.5,4 -4,4"/>
<!-- Node1 -->
<g id="node1" class="node">
<title>Node1</title>
<g id="a_node1"><a xlink:title=" ">
<polygon fill="#bfbfbf" stroke="black" points="204,-320.5 204,-454.5 332,-454.5 332,-320.5 204,-320.5"/>
<text text-anchor="middle" x="268" y="-442.5" font-family="Helvetica,sans-Serif" font-size="10.00">BtActionCollection</text>
<polyline fill="none" stroke="black" points="204,-435.5 332,-435.5 "/>
<text text-anchor="start" x="212" y="-423.5" font-family="Helvetica,sans-Serif" font-size="10.00">&#45; m_actions</text>
<polyline fill="none" stroke="black" points="204,-416.5 332,-416.5 "/>
<text text-anchor="start" x="212" y="-404.5" font-family="Helvetica,sans-Serif" font-size="10.00">+ action()</text>
<text text-anchor="start" x="212" y="-393.5" font-family="Helvetica,sans-Serif" font-size="10.00">+ actionAs()</text>
<text text-anchor="start" x="212" y="-382.5" font-family="Helvetica,sans-Serif" font-size="10.00">+ actions()</text>
<text text-anchor="start" x="212" y="-371.5" font-family="Helvetica,sans-Serif" font-size="10.00">+ addAction()</text>
<text text-anchor="start" x="212" y="-360.5" font-family="Helvetica,sans-Serif" font-size="10.00">+ BtActionCollection()</text>
<text text-anchor="start" x="212" y="-349.5" font-family="Helvetica,sans-Serif" font-size="10.00">+ readShortcuts()</text>
<text text-anchor="start" x="212" y="-338.5" font-family="Helvetica,sans-Serif" font-size="10.00">+ writeShortcuts()</text>
<text text-anchor="start" x="212" y="-327.5" font-family="Helvetica,sans-Serif" font-size="10.00">+ getDefaultShortcut()</text>
</a>
</g>
</g>
<!-- Node3 -->
<g id="node3" class="node">
<title>Node3</title>
<g id="a_node3"><a xlink:href="../../d9/d10/classBibleTime_1_1ActionCollection.html" target="_top" xlink:title=" ">
<polygon fill="white" stroke="black" points="99,-105.5 99,-283.5 251,-283.5 251,-105.5 99,-105.5"/>
<text text-anchor="middle" x="175" y="-271.5" font-family="Helvetica,sans-Serif" font-size="10.00">BibleTime::ActionCollection</text>
<polyline fill="none" stroke="black" points="99,-264.5 251,-264.5 "/>
<text text-anchor="start" x="107" y="-252.5" font-family="Helvetica,sans-Serif" font-size="10.00">+ arrangementMode</text>
<text text-anchor="start" x="107" y="-241.5" font-family="Helvetica,sans-Serif" font-size="10.00">+ autoCascade</text>
<text text-anchor="start" x="107" y="-230.5" font-family="Helvetica,sans-Serif" font-size="10.00">+ autoScrollDown</text>
<text text-anchor="start" x="107" y="-219.5" font-family="Helvetica,sans-Serif" font-size="10.00">+ autoScrollUp</text>
<text text-anchor="start" x="107" y="-208.5" font-family="Helvetica,sans-Serif" font-size="10.00">+ autoTile</text>
<text text-anchor="start" x="107" y="-197.5" font-family="Helvetica,sans-Serif" font-size="10.00">+ autoTileHorizontally</text>
<text text-anchor="start" x="107" y="-186.5" font-family="Helvetica,sans-Serif" font-size="10.00">+ autoTileVertically</text>
<text text-anchor="start" x="107" y="-175.5" font-family="Helvetica,sans-Serif" font-size="10.00">+ bookshelfManager</text>
<text text-anchor="start" x="107" y="-164.5" font-family="Helvetica,sans-Serif" font-size="10.00">+ cascade</text>
<text text-anchor="start" x="107" y="-153.5" font-family="Helvetica,sans-Serif" font-size="10.00">+ closeAllWindows</text>
<text text-anchor="start" x="107" y="-142.5" font-family="Helvetica,sans-Serif" font-size="10.00">and 31 more...</text>
<polyline fill="none" stroke="black" points="99,-135.5 251,-135.5 "/>
<text text-anchor="start" x="107" y="-123.5" font-family="Helvetica,sans-Serif" font-size="10.00">+ ActionCollection()</text>
<text text-anchor="start" x="107" y="-112.5" font-family="Helvetica,sans-Serif" font-size="10.00">+ retranslateUi()</text>
</a>
</g>
</g>
<!-- Node1&#45;&gt;Node3 -->
<g id="edge2" class="edge">
<title>Node1&#45;&gt;Node3</title>
<path fill="none" stroke="midnightblue" d="M231.35,-311.23C226.92,-302.13 222.37,-292.78 217.86,-283.52"/>
<polygon fill="none" stroke="midnightblue" points="228.21,-312.77 235.73,-320.23 234.5,-309.71 228.21,-312.77"/>
</g>
<!-- Node4 -->
<g id="node4" class="node">
<title>Node4</title>
<g id="a_node4"><a xlink:href="../../db/ddf/classCDisplayWindow_1_1ActionCollection.html" target="_top" xlink:title=" ">
<polygon fill="white" stroke="black" points="269,-166 269,-223 453,-223 453,-166 269,-166"/>
<text text-anchor="middle" x="361" y="-211" font-family="Helvetica,sans-Serif" font-size="10.00">CDisplayWindow::ActionCollection</text>
<polyline fill="none" stroke="black" points="269,-204 453,-204 "/>
<text text-anchor="middle" x="361" y="-192" font-family="Helvetica,sans-Serif" font-size="10.00"> </text>
<polyline fill="none" stroke="black" points="269,-185 453,-185 "/>
<text text-anchor="start" x="277" y="-173" font-family="Helvetica,sans-Serif" font-size="10.00">+ ActionCollection()</text>
</a>
</g>
</g>
<!-- Node1&#45;&gt;Node4 -->
<g id="edge3" class="edge">
<title>Node1&#45;&gt;Node4</title>
<path fill="none" stroke="midnightblue" d="M304.68,-311.18C319.73,-280.25 336.23,-246.37 347.45,-223.32"/>
<polygon fill="none" stroke="midnightblue" points="301.5,-309.71 300.27,-320.23 307.79,-312.77 301.5,-309.71"/>
</g>
<!-- Node2 -->
<g id="node2" class="node">
<title>Node2</title>
<g id="a_node2"><a xlink:href="../../d9/d5b/classQObject.html" target="_top" xlink:title=" ">
<polygon fill="white" stroke="black" points="240,-491.5 240,-548.5 296,-548.5 296,-491.5 240,-491.5"/>
<text text-anchor="middle" x="268" y="-536.5" font-family="Helvetica,sans-Serif" font-size="10.00">QObject</text>
<polyline fill="none" stroke="black" points="240,-529.5 296,-529.5 "/>
<text text-anchor="middle" x="268" y="-517.5" font-family="Helvetica,sans-Serif" font-size="10.00"> </text>
<polyline fill="none" stroke="black" points="240,-510.5 296,-510.5 "/>
<text text-anchor="middle" x="268" y="-498.5" font-family="Helvetica,sans-Serif" font-size="10.00"> </text>
</a>
</g>
</g>
<!-- Node2&#45;&gt;Node1 -->
<g id="edge1" class="edge">
<title>Node2&#45;&gt;Node1</title>
<path fill="none" stroke="midnightblue" d="M268,-481.16C268,-472.78 268,-463.67 268,-454.53"/>
<polygon fill="none" stroke="midnightblue" points="264.5,-481.32 268,-491.32 271.5,-481.32 264.5,-481.32"/>
</g>
<!-- Node5 -->
<g id="node5" class="node">
<title>Node5</title>
<g id="a_node5"><a xlink:href="../../d3/d5b/classCBibleReadWindow_1_1ActionCollection.html" target="_top" xlink:title=" ">
<polygon fill="white" stroke="black" points="0,-0.5 0,-68.5 148,-68.5 148,-0.5 0,-0.5"/>
<text text-anchor="start" x="8" y="-56.5" font-family="Helvetica,sans-Serif" font-size="10.00">CBibleReadWindow::Action</text>
<text text-anchor="middle" x="74" y="-45.5" font-family="Helvetica,sans-Serif" font-size="10.00">Collection</text>
<polyline fill="none" stroke="black" points="0,-38.5 148,-38.5 "/>
<text text-anchor="middle" x="74" y="-26.5" font-family="Helvetica,sans-Serif" font-size="10.00"> </text>
<polyline fill="none" stroke="black" points="0,-19.5 148,-19.5 "/>
<text text-anchor="start" x="8" y="-7.5" font-family="Helvetica,sans-Serif" font-size="10.00">+ ActionCollection()</text>
</a>
</g>
</g>
<!-- Node4&#45;&gt;Node5 -->
<g id="edge4" class="edge">
<title>Node4&#45;&gt;Node5</title>
<path fill="none" stroke="midnightblue" d="M327.77,-158.52C309.2,-140.57 284.85,-119.49 260,-105 218.11,-80.57 202.39,-86.08 157,-69 154.09,-67.91 151.13,-66.78 148.14,-65.63"/>
<polygon fill="none" stroke="midnightblue" points="325.78,-161.47 335.36,-165.99 330.69,-156.48 325.78,-161.47"/>
</g>
<!-- Node6 -->
<g id="node6" class="node">
<title>Node6</title>
<g id="a_node6"><a xlink:href="../../d4/ddd/classCBookReadWindow_1_1ActionCollection.html" target="_top" xlink:title=" ">
<polygon fill="white" stroke="black" points="166.5,-6 166.5,-63 363.5,-63 363.5,-6 166.5,-6"/>
<text text-anchor="middle" x="265" y="-51" font-family="Helvetica,sans-Serif" font-size="10.00">CBookReadWindow::ActionCollection</text>
<polyline fill="none" stroke="black" points="166.5,-44 363.5,-44 "/>
<text text-anchor="middle" x="265" y="-32" font-family="Helvetica,sans-Serif" font-size="10.00"> </text>
<polyline fill="none" stroke="black" points="166.5,-25 363.5,-25 "/>
<text text-anchor="start" x="174.5" y="-13" font-family="Helvetica,sans-Serif" font-size="10.00">+ ActionCollection()</text>
</a>
</g>
</g>
<!-- Node4&#45;&gt;Node6 -->
<g id="edge5" class="edge">
<title>Node4&#45;&gt;Node6</title>
<path fill="none" stroke="midnightblue" d="M338.88,-157.1C321.52,-128.52 297.7,-89.32 281.85,-63.24"/>
<polygon fill="none" stroke="midnightblue" points="336.09,-159.25 344.28,-165.98 342.08,-155.61 336.09,-159.25"/>
</g>
<!-- Node7 -->
<g id="node7" class="node">
<title>Node7</title>
<g id="a_node7"><a xlink:href="../../d6/d60/classCCommentaryReadWindow_1_1ActionCollection.html" target="_top" xlink:title=" ">
<polygon fill="white" stroke="black" points="381.5,-0.5 381.5,-68.5 532.5,-68.5 532.5,-0.5 381.5,-0.5"/>
<text text-anchor="start" x="389.5" y="-56.5" font-family="Helvetica,sans-Serif" font-size="10.00">CCommentaryReadWindow</text>
<text text-anchor="middle" x="457" y="-45.5" font-family="Helvetica,sans-Serif" font-size="10.00">::ActionCollection</text>
<polyline fill="none" stroke="black" points="381.5,-38.5 532.5,-38.5 "/>
<text text-anchor="middle" x="457" y="-26.5" font-family="Helvetica,sans-Serif" font-size="10.00"> </text>
<polyline fill="none" stroke="black" points="381.5,-19.5 532.5,-19.5 "/>
<text text-anchor="start" x="389.5" y="-7.5" font-family="Helvetica,sans-Serif" font-size="10.00">+ ActionCollection()</text>
</a>
</g>
</g>
<!-- Node4&#45;&gt;Node7 -->
<g id="edge6" class="edge">
<title>Node4&#45;&gt;Node7</title>
<path fill="none" stroke="midnightblue" d="M382.98,-157.32C399.18,-130.66 421.05,-94.67 436.81,-68.73"/>
<polygon fill="none" stroke="midnightblue" points="379.92,-155.61 377.72,-165.98 385.91,-159.25 379.92,-155.61"/>
</g>
<!-- Node8 -->
<g id="node8" class="node">
<title>Node8</title>
<g id="a_node8"><a xlink:href="../../d4/da8/classCLexiconReadWindow_1_1ActionCollection.html" target="_top" xlink:title=" ">
<polygon fill="white" stroke="black" points="550.5,-0.5 550.5,-68.5 675.5,-68.5 675.5,-0.5 550.5,-0.5"/>
<text text-anchor="start" x="558.5" y="-56.5" font-family="Helvetica,sans-Serif" font-size="10.00">CLexiconReadWindow</text>
<text text-anchor="middle" x="613" y="-45.5" font-family="Helvetica,sans-Serif" font-size="10.00">::ActionCollection</text>
<polyline fill="none" stroke="black" points="550.5,-38.5 675.5,-38.5 "/>
<text text-anchor="middle" x="613" y="-26.5" font-family="Helvetica,sans-Serif" font-size="10.00"> </text>
<polyline fill="none" stroke="black" points="550.5,-19.5 675.5,-19.5 "/>
<text text-anchor="start" x="558.5" y="-7.5" font-family="Helvetica,sans-Serif" font-size="10.00">+ ActionCollection()</text>
</a>
</g>
</g>
<!-- Node4&#45;&gt;Node8 -->
<g id="edge7" class="edge">
<title>Node4&#45;&gt;Node8</title>
<path fill="none" stroke="midnightblue" d="M413.51,-160.58C456.46,-133.65 516.92,-95.74 560,-68.73"/>
<polygon fill="none" stroke="midnightblue" points="411.51,-157.7 404.9,-165.98 415.23,-163.63 411.51,-157.7"/>
</g>
</g>
</svg>
        <g id="navigator" transform="translate(0 0)" fill="#404254">
                <rect fill="#f2f5e9" fill-opacity="0.5" stroke="#606060" stroke-width=".5" x="0" y="0" width="60" height="60"/>
                <use id="zoomplus" xlink:href="#zoomPlus" x="17" y="9" onmousedown="handleZoom(evt,'in')"/>
                <use id="zoomminus" xlink:href="#zoomMin" x="42" y="9" onmousedown="handleZoom(evt,'out')"/>
                <use id="reset" xlink:href="#resetDef" x="30" y="36" onmousedown="handleReset()"/>
                <g id="arrowUp" xlink:href="#dirArrow" transform="translate(30 24)" onmousedown="handlePan(0,-1)">
                  <use xlink:href="#rim" fill="#404040">
                        <set attributeName="fill" to="#808080" begin="arrowUp.mouseover" end="arrowUp.mouseout"/>
                  </use>
                  <path fill="none" stroke="white" stroke-width="1.5" d="M0,-3.0v7 M-2.5,-0.5L0,-3.0L2.5,-0.5"/>
                </g>
                <g id="arrowRight" xlink:href="#dirArrow" transform="rotate(90) translate(36 -43)" onmousedown="handlePan(1,0)">
                  <use xlink:href="#rim" fill="#404040">
                        <set attributeName="fill" to="#808080" begin="arrowRight.mouseover" end="arrowRight.mouseout"/>
                  </use>
                  <path fill="none" stroke="white" stroke-width="1.5" d="M0,-3.0v7 M-2.5,-0.5L0,-3.0L2.5,-0.5"/>
                </g>
                <g id="arrowDown" xlink:href="#dirArrow" transform="rotate(180) translate(-30 -48)" onmousedown="handlePan(0,1)">
                  <use xlink:href="#rim" fill="#404040">
                        <set attributeName="fill" to="#808080" begin="arrowDown.mouseover" end="arrowDown.mouseout"/>
                  </use>
                  <path fill="none" stroke="white" stroke-width="1.5" d="M0,-3.0v7 M-2.5,-0.5L0,-3.0L2.5,-0.5"/>
                </g>
                <g id="arrowLeft" xlink:href="#dirArrow" transform="rotate(270) translate(-36 17)" onmousedown="handlePan(-1,0)">
                  <use xlink:href="#rim" fill="#404040">
                        <set attributeName="fill" to="#808080" begin="arrowLeft.mouseover" end="arrowLeft.mouseout"/>
                  </use>
                  <path fill="none" stroke="white" stroke-width="1.5" d="M0,-3.0v7 M-2.5,-0.5L0,-3.0L2.5,-0.5"/>
                </g>
        </g>
        <svg viewBox="0 0 15 15" width="100%" height="30px" preserveAspectRatio="xMaxYMin meet">
         <g id="arrow_out" transform="scale(0.3 0.3)">
          <a xlink:href="classBtActionCollection__inherit__graph_org.svg" target="_base">
           <rect id="button" ry="5" rx="5" y="6" x="6" height="38" width="38"
                fill="#f2f5e9" fill-opacity="0.5" stroke="#606060" stroke-width="1.0"/>
           <path id="arrow"
             d="M 11.500037,31.436501 C 11.940474,20.09759 22.043105,11.32322 32.158766,21.979434 L 37.068811,17.246167 C 37.068811,17.246167 37.088388,32 37.088388,32 L 22.160133,31.978069 C 22.160133,31.978069 26.997745,27.140456 26.997745,27.140456 C 18.528582,18.264221 13.291696,25.230495 11.500037,31.436501 z"
             style="fill:#404040;"/>
          </a>
         </g>
        </svg>
</svg>
