<?xml version="1.0" encoding="UTF-8" standalone="no"?>
<!DOCTYPE svg PUBLIC "-//W3C//DTD SVG 1.1//EN"
 "http://www.w3.org/Graphics/SVG/1.1/DTD/svg11.dtd">
<!-- Generated by graphviz version 2.43.0 (0)
 -->
<!-- Title: BtActionCollection Pages: 1 -->
<!--zoomable 593 -->

<svg id="main" version="1.1" xmlns="http://www.w3.org/2000/svg" xmlns:xlink="http://www.w3.org/1999/xlink" xml:space="preserve" onload="init(evt)">
<style type="text/css"><![CDATA[
.node, .edge {opacity: 0.7;}
.node.selected, .edge.selected {opacity: 1;}
.edge:hover path { stroke: red; }
.edge:hover polygon { stroke: red; fill: red; }
]]></style>

<defs>
  <circle id="rim" cx="0" cy="0" r="7"/>
  <circle id="rim2" cx="0" cy="0" r="3.5"/>
  <g id="zoomPlus">
    <use xlink:href="#rim" fill="#404040"><set attributeName="fill" to="#808080" begin="zoomplus.mouseover" end="zoomplus.mouseout"/></use>
    <path d="M-4,0h8M0,-4v8" fill="none" stroke="white" stroke-width="1.5" pointer-events="none"/>
  </g>
  <g id="zoomMin">
    <use xlink:href="#rim" fill="#404040"><set attributeName="fill" to="#808080" begin="zoomminus.mouseover" end="zoomminus.mouseout"/></use>
    <path d="M-4,0h8" fill="none" stroke="white" stroke-width="1.5" pointer-events="none"/>
  </g>
  <g id="arrowUp" transform="translate(30 24)">
    <use xlink:href="#rim"/>
    <path pointer-events="none" fill="none" stroke="white" stroke-width="1.5" d="M0,-3.0v7 M-2.5,-0.5L0,-3.0L2.5,-0.5"/>
  </g>
  <g id="arrowRight" transform="rotate(90) translate(36 -43)">
    <use xlink:href="#rim"/>
    <path pointer-events="none" fill="none" stroke="white" stroke-width="1.5" d="M0,-3.0v7 M-2.5,-0.5L0,-3.0L2.5,-0.5"/>
  </g>
  <g id="arrowDown" transform="rotate(180) translate(-30 -48)">
    <use xlink:href="#rim"/>
    <path pointer-events="none" fill="none" stroke="white" stroke-width="1.5" d="M0,-3.0v7 M-2.5,-0.5L0,-3.0L2.5,-0.5"/>
  </g>
  <g id="arrowLeft" transform="rotate(270) translate(-36 17)">
    <use xlink:href="#rim"/>
    <path pointer-events="none" fill="none" stroke="white" stroke-width="1.5" d="M0,-3.0v7 M-2.5,-0.5L0,-3.0L2.5,-0.5"/>
  </g>
  <g id="resetDef">
    <use xlink:href="#rim2" fill="#404040"><set attributeName="fill" to="#808080" begin="reset.mouseover" end="reset.mouseout"/></use>
  </g>
</defs>
<script type="application/ecmascript">
var viewWidth = 660;
var viewHeight = 593;
var sectionId = 'dynsection-0';
</script>
<script type="application/ecmascript" xlink:href="../../svg.min.js"/>
<svg id="graph" class="graph">
<g id="viewport">
<title>BtActionCollection</title>
<!-- Node1 -->
<g id="Node000001" class="node">
<title>Node1</title>
<g id="a_Node000001"><a xlink:title=" ">
<polygon fill="#999999" stroke="transparent" points="319.5,-500 198.5,-500 198.5,-346 319.5,-346 319.5,-500"/>
<text text-anchor="start" x="214" y="-488" font-family="Helvetica,sans-Serif" font-size="10.00">BtActionCollection</text>
<text text-anchor="start" x="205.5" y="-473" font-family="Helvetica,sans-Serif" font-size="10.00">&#45;</text>
<text text-anchor="start" x="216" y="-473" font-family="Helvetica,sans-Serif" font-size="10.00">m_actions</text>
<text text-anchor="start" x="203" y="-458" font-family="Helvetica,sans-Serif" font-size="10.00">+</text>
<text text-anchor="start" x="216" y="-458" font-family="Helvetica,sans-Serif" font-size="10.00">action()</text>
<text text-anchor="start" x="203" y="-443" font-family="Helvetica,sans-Serif" font-size="10.00">+</text>
<text text-anchor="start" x="216" y="-443" font-family="Helvetica,sans-Serif" font-size="10.00">actionAs()</text>
<text text-anchor="start" x="203" y="-428" font-family="Helvetica,sans-Serif" font-size="10.00">+</text>
<text text-anchor="start" x="216" y="-428" font-family="Helvetica,sans-Serif" font-size="10.00">actions()</text>
<text text-anchor="start" x="203" y="-413" font-family="Helvetica,sans-Serif" font-size="10.00">+</text>
<text text-anchor="start" x="216" y="-413" font-family="Helvetica,sans-Serif" font-size="10.00">addAction()</text>
<text text-anchor="start" x="203" y="-398" font-family="Helvetica,sans-Serif" font-size="10.00">+</text>
<text text-anchor="start" x="216" y="-398" font-family="Helvetica,sans-Serif" font-size="10.00">BtActionCollection()</text>
<text text-anchor="start" x="203" y="-383" font-family="Helvetica,sans-Serif" font-size="10.00">+</text>
<text text-anchor="start" x="216" y="-383" font-family="Helvetica,sans-Serif" font-size="10.00">readShortcuts()</text>
<text text-anchor="start" x="203" y="-368" font-family="Helvetica,sans-Serif" font-size="10.00">+</text>
<text text-anchor="start" x="216" y="-368" font-family="Helvetica,sans-Serif" font-size="10.00">writeShortcuts()</text>
<text text-anchor="start" x="203" y="-353" font-family="Helvetica,sans-Serif" font-size="10.00">+</text>
<text text-anchor="start" x="216" y="-353" font-family="Helvetica,sans-Serif" font-size="10.00">getDefaultShortcut()</text>
<polygon fill="#666666" stroke="#666666" points="199,-483 199,-483 320,-483 320,-483 199,-483"/>
<polygon fill="#666666" stroke="#666666" points="199,-468 199,-468 214,-468 214,-468 199,-468"/>
<polygon fill="#666666" stroke="#666666" points="214,-468 214,-468 320,-468 320,-468 214,-468"/>
<polygon fill="none" stroke="#666666" points="198.5,-346 198.5,-500 319.5,-500 319.5,-346 198.5,-346"/>
</a>
</g>
</g>
<!-- Node3 -->
<g id="Node000003" class="node">
<title>Node3</title>
<g id="a_Node000003"><a xlink:href="../../d9/d10/classBibleTime_1_1ActionCollection.html" target="_top" xlink:title=" ">
<polygon fill="white" stroke="transparent" points="242,-310 96,-310 96,-96 242,-96 242,-310"/>
<text text-anchor="start" x="101" y="-298" font-family="Helvetica,sans-Serif" font-size="10.00">BibleTime::ActionCollection</text>
<text text-anchor="start" x="106" y="-283" font-family="Helvetica,sans-Serif" font-size="10.00">+</text>
<text text-anchor="start" x="125" y="-283" font-family="Helvetica,sans-Serif" font-size="10.00">arrangementMode</text>
<text text-anchor="start" x="106" y="-268" font-family="Helvetica,sans-Serif" font-size="10.00">+</text>
<text text-anchor="start" x="125" y="-268" font-family="Helvetica,sans-Serif" font-size="10.00">autoCascade</text>
<text text-anchor="start" x="106" y="-253" font-family="Helvetica,sans-Serif" font-size="10.00">+</text>
<text text-anchor="start" x="125" y="-253" font-family="Helvetica,sans-Serif" font-size="10.00">autoScrollDown</text>
<text text-anchor="start" x="106" y="-238" font-family="Helvetica,sans-Serif" font-size="10.00">+</text>
<text text-anchor="start" x="125" y="-238" font-family="Helvetica,sans-Serif" font-size="10.00">autoScrollUp</text>
<text text-anchor="start" x="106" y="-223" font-family="Helvetica,sans-Serif" font-size="10.00">+</text>
<text text-anchor="start" x="125" y="-223" font-family="Helvetica,sans-Serif" font-size="10.00">autoTile</text>
<text text-anchor="start" x="106" y="-208" font-family="Helvetica,sans-Serif" font-size="10.00">+</text>
<text text-anchor="start" x="125" y="-208" font-family="Helvetica,sans-Serif" font-size="10.00">autoTileHorizontally</text>
<text text-anchor="start" x="106" y="-193" font-family="Helvetica,sans-Serif" font-size="10.00">+</text>
<text text-anchor="start" x="125" y="-193" font-family="Helvetica,sans-Serif" font-size="10.00">autoTileVertically</text>
<text text-anchor="start" x="106" y="-178" font-family="Helvetica,sans-Serif" font-size="10.00">+</text>
<text text-anchor="start" x="125" y="-178" font-family="Helvetica,sans-Serif" font-size="10.00">bookshelfManager</text>
<text text-anchor="start" x="106" y="-163" font-family="Helvetica,sans-Serif" font-size="10.00">+</text>
<text text-anchor="start" x="125" y="-163" font-family="Helvetica,sans-Serif" font-size="10.00">cascade</text>
<text text-anchor="start" x="106" y="-148" font-family="Helvetica,sans-Serif" font-size="10.00">+</text>
<text text-anchor="start" x="125" y="-148" font-family="Helvetica,sans-Serif" font-size="10.00">closeAllWindows</text>
<text text-anchor="start" x="125" y="-133" font-family="Helvetica,sans-Serif" font-size="10.00">and 32 more...</text>
<text text-anchor="start" x="106" y="-118" font-family="Helvetica,sans-Serif" font-size="10.00">+</text>
<text text-anchor="start" x="125" y="-118" font-family="Helvetica,sans-Serif" font-size="10.00">ActionCollection()</text>
<text text-anchor="start" x="106" y="-103" font-family="Helvetica,sans-Serif" font-size="10.00">+</text>
<text text-anchor="start" x="125" y="-103" font-family="Helvetica,sans-Serif" font-size="10.00">retranslateUi()</text>
<polygon fill="#666666" stroke="#666666" points="96,-293 96,-293 242,-293 242,-293 96,-293"/>
<polygon fill="#666666" stroke="#666666" points="96,-128 96,-128 123,-128 123,-128 96,-128"/>
<polygon fill="#666666" stroke="#666666" points="123,-128 123,-128 242,-128 242,-128 123,-128"/>
<polygon fill="none" stroke="#666666" points="96,-96 96,-310 242,-310 242,-96 96,-96"/>
</a>
</g>
</g>
<!-- Node1&#45;&gt;Node3 -->
<g id="edge2_Node000001_Node000003" class="edge">
<title>Node1&#45;&gt;Node3</title>
<g id="a_edge2_Node000001_Node000003"><a xlink:title=" ">
<path fill="none" stroke="#63b8ff" d="M223.68,-336.45C220.11,-327.8 216.45,-318.93 212.8,-310.1"/>
<polygon fill="none" stroke="#63b8ff" points="220.47,-337.85 227.52,-345.75 226.94,-335.18 220.47,-337.85"/>
</a>
</g>
</g>
<!-- Node4 -->
<g id="Node000004" class="node">
<title>Node4</title>
<g id="a_Node000004"><a xlink:href="../../db/ddf/classCDisplayWindow_1_1ActionCollection.html" target="_top" xlink:title=" ">
<polygon fill="white" stroke="transparent" points="438,-227.5 260,-227.5 260,-178.5 438,-178.5 438,-227.5"/>
<text text-anchor="start" x="265" y="-215" font-family="Helvetica,sans-Serif" font-size="10.00">CDisplayWindow::ActionCollection</text>
<text text-anchor="start" x="347" y="-200" font-family="Helvetica,sans-Serif" font-size="10.00"> </text>
<text text-anchor="start" x="281" y="-185" font-family="Helvetica,sans-Serif" font-size="10.00">+</text>
<text text-anchor="start" x="311" y="-185" font-family="Helvetica,sans-Serif" font-size="10.00">ActionCollection()</text>
<polygon fill="#666666" stroke="#666666" points="260,-210 260,-210 438,-210 438,-210 260,-210"/>
<polygon fill="#666666" stroke="#666666" points="260,-195 260,-195 438,-195 438,-195 260,-195"/>
<polygon fill="none" stroke="#666666" points="260,-178.5 260,-227.5 438,-227.5 438,-178.5 260,-178.5"/>
</a>
</g>
</g>
<!-- Node1&#45;&gt;Node4 -->
<g id="edge3_Node000001_Node000004" class="edge">
<title>Node1&#45;&gt;Node4</title>
<g id="a_edge3_Node000001_Node000004"><a xlink:title=" ">
<path fill="none" stroke="#63b8ff" d="M294.34,-336.41C310.54,-297.17 328.49,-253.68 339.25,-227.61"/>
<polygon fill="none" stroke="#63b8ff" points="291.06,-335.18 290.48,-345.75 297.53,-337.85 291.06,-335.18"/>
</a>
</g>
</g>
<!-- Node2 -->
<g id="Node000002" class="node">
<title>Node2</title>
<g id="a_Node000002"><a xlink:href="../../d9/d5b/classQObject.html" target="_top" xlink:title=" ">
<polygon fill="white" stroke="transparent" points="284,-585 234,-585 234,-536 284,-536 284,-585"/>
<text text-anchor="start" x="239" y="-572.5" font-family="Helvetica,sans-Serif" font-size="10.00">QObject</text>
<text text-anchor="start" x="257" y="-557.5" font-family="Helvetica,sans-Serif" font-size="10.00"> </text>
<text text-anchor="start" x="257" y="-542.5" font-family="Helvetica,sans-Serif" font-size="10.00"> </text>
<polygon fill="#666666" stroke="#666666" points="234,-567.5 234,-567.5 284,-567.5 284,-567.5 234,-567.5"/>
<polygon fill="#666666" stroke="#666666" points="234,-552.5 234,-552.5 284,-552.5 284,-552.5 234,-552.5"/>
<polygon fill="none" stroke="#666666" points="234,-536 234,-585 284,-585 284,-536 234,-536"/>
</a>
</g>
</g>
<!-- Node2&#45;&gt;Node1 -->
<g id="edge1_Node000001_Node000002" class="edge">
<title>Node2&#45;&gt;Node1</title>
<g id="a_edge1_Node000001_Node000002"><a xlink:title=" ">
<path fill="none" stroke="#63b8ff" d="M259,-525.66C259,-517.74 259,-508.97 259,-500.01"/>
<polygon fill="none" stroke="#63b8ff" points="255.5,-525.9 259,-535.9 262.5,-525.9 255.5,-525.9"/>
</a>
</g>
</g>
<!-- Node5 -->
<g id="Node000005" class="node">
<title>Node5</title>
<g id="a_Node000005"><a xlink:href="../../d3/d5b/classCBibleReadWindow_1_1ActionCollection.html" target="_top" xlink:title=" ">
<polygon fill="white" stroke="transparent" points="142,-60 0,-60 0,0 142,0 142,-60"/>
<text text-anchor="start" x="5" y="-48" font-family="Helvetica,sans-Serif" font-size="10.00">CBibleReadWindow::Action</text>
<text text-anchor="start" x="46.5" y="-37" font-family="Helvetica,sans-Serif" font-size="10.00">Collection</text>
<text text-anchor="start" x="69" y="-22" font-family="Helvetica,sans-Serif" font-size="10.00"> </text>
<text text-anchor="start" x="12" y="-7" font-family="Helvetica,sans-Serif" font-size="10.00">+</text>
<text text-anchor="start" x="33" y="-7" font-family="Helvetica,sans-Serif" font-size="10.00">ActionCollection()</text>
<polygon fill="#666666" stroke="#666666" points="0,-32 0,-32 142,-32 142,-32 0,-32"/>
<polygon fill="#666666" stroke="#666666" points="0,-17 0,-17 142,-17 142,-17 0,-17"/>
<polygon fill="none" stroke="#666666" points="0,0 0,-60 142,-60 142,0 0,0"/>
</a>
</g>
</g>
<!-- Node4&#45;&gt;Node5 -->
<g id="edge4_Node000004_Node000005" class="edge">
<title>Node4&#45;&gt;Node5</title>
<g id="a_edge4_Node000004_Node000005"><a xlink:title=" ">
<path fill="none" stroke="#63b8ff" d="M326.19,-170.03C308.1,-146.72 280.96,-115.85 251,-96 211.62,-69.91 195.43,-76.05 151,-60 148.08,-58.95 145.1,-57.87 142.1,-56.78"/>
<polygon fill="none" stroke="#63b8ff" points="323.59,-172.4 332.43,-178.25 329.16,-168.17 323.59,-172.4"/>
</a>
</g>
</g>
<!-- Node6 -->
<g id="Node000006" class="node">
<title>Node6</title>
<g id="a_Node000006"><a xlink:href="../../d4/ddd/classCBookReadWindow_1_1ActionCollection.html" target="_top" xlink:title=" ">
<polygon fill="white" stroke="transparent" points="351.5,-54.5 160.5,-54.5 160.5,-5.5 351.5,-5.5 351.5,-54.5"/>
<text text-anchor="start" x="166" y="-42" font-family="Helvetica,sans-Serif" font-size="10.00">CBookReadWindow::ActionCollection</text>
<text text-anchor="start" x="254.5" y="-27" font-family="Helvetica,sans-Serif" font-size="10.00"> </text>
<text text-anchor="start" x="185.5" y="-12" font-family="Helvetica,sans-Serif" font-size="10.00">+</text>
<text text-anchor="start" x="219" y="-12" font-family="Helvetica,sans-Serif" font-size="10.00">ActionCollection()</text>
<polygon fill="#666666" stroke="#666666" points="161,-37 161,-37 352,-37 352,-37 161,-37"/>
<polygon fill="#666666" stroke="#666666" points="161,-22 161,-22 352,-22 352,-22 161,-22"/>
<polygon fill="none" stroke="#666666" points="160.5,-5.5 160.5,-54.5 351.5,-54.5 351.5,-5.5 160.5,-5.5"/>
</a>
</g>
</g>
<!-- Node4&#45;&gt;Node6 -->
<g id="edge5_Node000004_Node000006" class="edge">
<title>Node4&#45;&gt;Node6</title>
<g id="a_edge5_Node000004_Node000006"><a xlink:title=" ">
<path fill="none" stroke="#63b8ff" d="M331.2,-169.26C312.94,-135.7 285.01,-84.34 268.82,-54.57"/>
<polygon fill="none" stroke="#63b8ff" points="328.22,-171.11 336.07,-178.22 334.37,-167.77 328.22,-171.11"/>
</a>
</g>
</g>
<!-- Node7 -->
<g id="Node000007" class="node">
<title>Node7</title>
<g id="a_Node000007"><a xlink:href="../../d6/d60/classCCommentaryReadWindow_1_1ActionCollection.html" target="_top" xlink:title=" ">
<polygon fill="white" stroke="transparent" points="514.5,-60 369.5,-60 369.5,0 514.5,0 514.5,-60"/>
<text text-anchor="start" x="375" y="-48" font-family="Helvetica,sans-Serif" font-size="10.00">CCommentaryReadWindow</text>
<text text-anchor="start" x="399.5" y="-37" font-family="Helvetica,sans-Serif" font-size="10.00">::ActionCollection</text>
<text text-anchor="start" x="440.5" y="-22" font-family="Helvetica,sans-Serif" font-size="10.00"> </text>
<text text-anchor="start" x="383" y="-7" font-family="Helvetica,sans-Serif" font-size="10.00">+</text>
<text text-anchor="start" x="405" y="-7" font-family="Helvetica,sans-Serif" font-size="10.00">ActionCollection()</text>
<polygon fill="#666666" stroke="#666666" points="370,-32 370,-32 515,-32 515,-32 370,-32"/>
<polygon fill="#666666" stroke="#666666" points="370,-17 370,-17 515,-17 515,-17 370,-17"/>
<polygon fill="none" stroke="#666666" points="369.5,0 369.5,-60 514.5,-60 514.5,0 369.5,0"/>
</a>
</g>
</g>
<!-- Node4&#45;&gt;Node7 -->
<g id="edge6_Node000004_Node000007" class="edge">
<title>Node4&#45;&gt;Node7</title>
<g id="a_edge6_Node000004_Node000007"><a xlink:title=" ">
<path fill="none" stroke="#63b8ff" d="M366.75,-169.36C383.94,-137.76 409.74,-90.31 426.23,-60"/>
<polygon fill="none" stroke="#63b8ff" points="363.63,-167.77 361.93,-178.22 369.78,-171.11 363.63,-167.77"/>
</a>
</g>
</g>
<!-- Node8 -->
<g id="Node000008" class="node">
<title>Node8</title>
<g id="a_Node000008"><a xlink:href="../../d4/da8/classCLexiconReadWindow_1_1ActionCollection.html" target="_top" xlink:title=" ">
<polygon fill="white" stroke="transparent" points="651.5,-60 532.5,-60 532.5,0 651.5,0 651.5,-60"/>
<text text-anchor="start" x="538" y="-48" font-family="Helvetica,sans-Serif" font-size="10.00">CLexiconReadWindow</text>
<text text-anchor="start" x="549.5" y="-37" font-family="Helvetica,sans-Serif" font-size="10.00">::ActionCollection</text>
<text text-anchor="start" x="590.5" y="-22" font-family="Helvetica,sans-Serif" font-size="10.00"> </text>
<text text-anchor="start" x="539.5" y="-7" font-family="Helvetica,sans-Serif" font-size="10.00">+</text>
<text text-anchor="start" x="555" y="-7" font-family="Helvetica,sans-Serif" font-size="10.00">ActionCollection()</text>
<polygon fill="#666666" stroke="#666666" points="533,-32 533,-32 652,-32 652,-32 533,-32"/>
<polygon fill="#666666" stroke="#666666" points="533,-17 533,-17 652,-17 652,-17 533,-17"/>
<polygon fill="none" stroke="#666666" points="532.5,0 532.5,-60 651.5,-60 651.5,0 532.5,0"/>
</a>
</g>
</g>
<!-- Node4&#45;&gt;Node8 -->
<g id="edge7_Node000004_Node000008" class="edge">
<title>Node4&#45;&gt;Node8</title>
<g id="a_edge7_Node000004_Node000008"><a xlink:title=" ">
<path fill="none" stroke="#63b8ff" d="M390.85,-172.55C435.61,-141.05 506.15,-91.42 550.69,-60.07"/>
<polygon fill="none" stroke="#63b8ff" points="388.7,-169.79 382.53,-178.4 392.73,-175.51 388.7,-169.79"/>
</a>
</g>
</g>
</g>
</svg>

<g id="navigator" transform="translate(0 0)" fill="#404254">
  <rect fill="#f2f5e9" fill-opacity="0.5" stroke="#606060" stroke-width=".5" x="0" y="0" width="60" height="60"/>
  <use id="zoomplus" xlink:href="#zoomPlus" x="17" y="9" onmousedown="handleZoom(evt,'in')"/>
  <use id="zoomminus" xlink:href="#zoomMin" x="42" y="9" onmousedown="handleZoom(evt,'out')"/>
  <use id="reset" xlink:href="#resetDef" x="30" y="36" onmousedown="handleReset()"/>
   <use id="arrowup" xlink:href="#arrowUp" x="0" y="0" onmousedown="handlePan(0,-1)"/>
  <use id="arrowright" xlink:href="#arrowRight" x="0" y="0" onmousedown="handlePan(1,0)"/>
  <use id="arrowdown" xlink:href="#arrowDown" x="0" y="0" onmousedown="handlePan(0,1)"/>
  <use id="arrowleft" xlink:href="#arrowLeft" x="0" y="0" onmousedown="handlePan(-1,0)"/>
</g>
<svg viewBox="0 0 15 15" width="100%" height="30px" preserveAspectRatio="xMaxYMin meet">
 <g id="arrow_out" transform="scale(0.3 0.3)">
  <a xlink:href="classBtActionCollection__inherit__graph_org.svg" target="_base">
   <rect id="button" ry="5" rx="5" y="6" x="6" height="38" width="38"
        fill="#f2f5e9" fill-opacity="0.5" stroke="#606060" stroke-width="1.0"/>
   <path id="arrow"
     d="M 11.500037,31.436501 C 11.940474,20.09759 22.043105,11.32322 32.158766,21.979434 L 37.068811,17.246167 C 37.068811,17.246167 37.088388,32 37.088388,32 L 22.160133,31.978069 C 22.160133,31.978069 26.997745,27.140456 26.997745,27.140456 C 18.528582,18.264221 13.291696,25.230495 11.500037,31.436501 z"
     style="fill:#404040;"/>
  </a>
 </g>
</svg>

<style type='text/css'>
<![CDATA[
[data-mouse-over-selected='false'] { opacity: 0.7; }
[data-mouse-over-selected='true']  { opacity: 1.0; }
]]>
</style>
<script type="application/ecmascript"><![CDATA[
document.addEventListener('DOMContentLoaded', (event) => {
  highlightEdges();
  highlightAdjacentNodes();
});
]]></script>
</svg>
